<svg xmlns="http://www.w3.org/2000/svg" xmlns:xlink="http://www.w3.org/1999/xlink" id="body_1" preserveAspectRatio="xMinYMin meet" viewBox="0 0 872 1112"><defs><clipPath id="1"><path id="" clip-rule="evenodd" transform="matrix(1 0 0 1 0 0)" d="M0 834L0 0L0 0L654 0L654 0L654 834L654 834L0 834z" /></clipPath><clipPath id="2"><path id="" clip-rule="evenodd" transform="matrix(1 0 0 1 0 0)" d="M21 813L633 813L633 813L633 21L633 21L21 21z" /></clipPath><clipPath id="3"><path id="" clip-rule="evenodd" transform="matrix(1 0 0 1 0 0)" d="M294.548 265.647L384.75 265.647L384.75 265.647L384.75 130.482L384.75 130.482L294.548 130.482z" /></clipPath><clipPath id="4"><path id="" clip-rule="evenodd" transform="matrix(1 0 0 1 0 0)" d="M294.548 265.647L384.75 265.647L384.75 265.647L384.75 130.482L384.75 130.482L294.548 130.482z" /></clipPath><clipPath id="5"><path id="" clip-rule="evenodd" transform="matrix(1 0 0 1 0 0)" d="M394.003 264.591L507.103 264.591L507.103 264.591L507.103 129.425L507.103 129.425L394.003 129.425z" /></clipPath><clipPath id="6"><path id="" clip-rule="evenodd" transform="matrix(1 0 0 1 0 0)" d="M394.003 264.591L507.103 264.591L507.103 264.591L507.103 129.425L507.103 129.425L394.003 129.425z" /></clipPath><clipPath id="7"><path id="" clip-rule="evenodd" transform="matrix(1 0 0 1 0 0)" d="M294.548 266.339L526.412 266.339L526.412 266.339L526.412 129.426L526.412 129.426L294.548 129.426z" /></clipPath><clipPath id="8"><path id="" clip-rule="evenodd" transform="matrix(1 0 0 1 0 0)" d="M367.497 219.675C 361.2 224.3069 357.113 231.768 357.113 240.185L357.113 240.185L357.113 240.185C 357.113 254.235 368.504 265.626 382.555 265.626L382.555 265.626L382.555 265.626C 396.606 265.626 407.996 254.235 407.996 240.185L407.996 240.185L407.996 240.185C 407.996 231.768 403.91 224.3069 397.612 219.675L397.612 219.675L397.612 219.675z" /></clipPath><clipPath id="9"><path id="" clip-rule="evenodd" transform="matrix(1 0 0 1 0 0)" d="M367.497 219.675C 361.2 224.3069 357.113 231.768 357.113 240.185L357.113 240.185L357.113 240.185C 357.113 254.235 368.504 265.626 382.555 265.626L382.555 265.626L382.555 265.626C 396.606 265.626 407.996 254.235 407.996 240.185L407.996 240.185L407.996 240.185C 407.996 231.768 403.91 224.3069 397.612 219.675L397.612 219.675L397.612 219.675z" /></clipPath><clipPath id="10"><path id="" clip-rule="evenodd" transform="matrix(1 0 0 1 0 0)" d="M294.548 266.339L526.412 266.339L526.412 266.339L526.412 129.426L526.412 129.426L294.548 129.426z" /></clipPath><clipPath id="11"><path id="" clip-rule="evenodd" transform="matrix(1 0 0 1 0 0)" d="M294.548 266.339L526.412 266.339L526.412 266.339L526.412 129.426L526.412 129.426L294.548 129.426z" /></clipPath><clipPath id="12"><path id="" clip-rule="evenodd" transform="matrix(1 0 0 1 0 0)" d="M475.299 239.461C 475.299 253.379 486.581 264.6609 500.499 264.6609L500.499 264.6609L500.499 264.6609C 514.417 264.6609 525.7 253.379 525.7 239.461L525.7 239.461L525.7 239.461C 525.7 225.543 514.417 214.261 500.499 214.261L500.499 214.261L500.499 214.261C 486.581 214.261 475.299 225.543 475.299 239.461" /></clipPath><clipPath id="13"><path id="" clip-rule="evenodd" transform="matrix(1 0 0 1 0 0)" d="M475.299 239.461C 475.299 253.379 486.581 264.6609 500.499 264.6609L500.499 264.6609L500.499 264.6609C 514.417 264.6609 525.7 253.379 525.7 239.461L525.7 239.461L525.7 239.461C 525.7 225.543 514.417 214.261 500.499 214.261L500.499 214.261L500.499 214.261C 486.581 214.261 475.299 225.543 475.299 239.461" /></clipPath><clipPath id="14"><path id="" clip-rule="evenodd" transform="matrix(1 0 0 1 0 0)" d="M294.548 266.339L526.412 266.339L526.412 266.339L526.412 129.426L526.412 129.426L294.548 129.426z" /></clipPath><clipPath id="15"><path id="" clip-rule="evenodd" transform="matrix(1 0 0 1 0 0)" d="M294.548 266.339L526.412 266.339L526.412 266.339L526.412 129.426L526.412 129.426L294.548 129.426z" /></clipPath><clipPath id="16"><path id="" clip-rule="evenodd" transform="matrix(1 0 0 1 0 0)" d="M343.995 489.425L447.743 489.425L447.743 489.425L447.743 337.805L447.743 337.805L343.995 337.805z" /></clipPath><clipPath id="17"><path id="" clip-rule="evenodd" transform="matrix(1 0 0 1 0 0)" d="M343.995 489.425L447.743 489.425L447.743 489.425L447.743 337.805L447.743 337.805L343.995 337.805z" /></clipPath><clipPath id="18"><path id="" clip-rule="evenodd" transform="matrix(1 0 0 1 0 0)" d="M343.995 489.425L476.965 489.425L476.965 489.425L476.965 337.805L476.965 337.805L343.995 337.805z" /></clipPath><clipPath id="19"><path id="" clip-rule="evenodd" transform="matrix(1 0 0 1 0 0)" d="M430.707 465.704C 430.707 478.303 440.921 488.517 453.52 488.517L453.52 488.517L453.52 488.517C 461.955 488.517 469.32 483.939 473.269 477.133L473.269 477.133L473.269 477.133L473.269 477.133L473.269 454.274C 469.32 447.468 461.955 442.89 453.52 442.89L453.52 442.89L453.52 442.89C 440.921 442.89 430.707 453.104 430.707 465.704" /></clipPath><clipPath id="20"><path id="" clip-rule="evenodd" transform="matrix(1 0 0 1 0 0)" d="M430.707 465.704C 430.707 478.303 440.921 488.517 453.52 488.517L453.52 488.517L453.52 488.517C 461.955 488.517 469.32 483.939 473.269 477.133L473.269 477.133L473.269 477.133L473.269 477.133L473.269 454.274C 469.32 447.468 461.955 442.89 453.52 442.89L453.52 442.89L453.52 442.89C 440.921 442.89 430.707 453.104 430.707 465.704" /></clipPath><clipPath id="21"><path id="" clip-rule="evenodd" transform="matrix(1 0 0 1 0 0)" d="M343.995 489.425L476.965 489.425L476.965 489.425L476.965 337.805L476.965 337.805L343.995 337.805z" /></clipPath><clipPath id="22"><path id="" clip-rule="evenodd" transform="matrix(1 0 0 1 0 0)" d="M363.62 400.038L379.4001 400.038L379.4001 400.038L379.4001 388.4302L379.4001 388.4302L363.62 388.4302z" /></clipPath><clipPath id="23"><path id="" clip-rule="evenodd" transform="matrix(1 0 0 1 0 0)" d="M363.62 400.038L379.4 400.038L379.4 400.038L379.4 388.43L379.4 388.43L363.62 388.43z" /></clipPath><clipPath id="24"><path id="" clip-rule="evenodd" transform="matrix(1 0 0 1 0 0)" d="M363.62 400.038L379.4001 400.038L379.4001 400.038L379.4001 388.4302L379.4001 388.4302L363.62 388.4302z" /></clipPath><clipPath id="25"><path id="" clip-rule="evenodd" transform="matrix(1 0 0 1 0 0)" d="M265.913 159.301L294.215 159.301L294.215 159.301L294.215 102.3853L294.215 102.3853L265.913 102.3853z" /></clipPath><clipPath id="26"><path id="" clip-rule="evenodd" transform="matrix(1 0 0 1 0 0)" d="M265.913 159.301L294.215 159.301L294.215 159.301L294.215 102.3853L294.215 102.3853L265.913 102.3853z" /></clipPath><clipPath id="27"><path id="" clip-rule="evenodd" transform="matrix(1 0 0 1 0 0)" d="M265.881 387.677L294.1501 387.677L294.1501 387.677L294.1501 330.7602L294.1501 330.7602L265.881 330.7602z" /></clipPath><clipPath id="28"><path id="" clip-rule="evenodd" transform="matrix(1 0 0 1 0 0)" d="M265.881 387.677L294.1501 387.677L294.1501 387.677L294.1501 330.7602L294.1501 330.7602L265.881 330.7602z" /></clipPath><clipPath id="29"><path id="" clip-rule="evenodd" transform="matrix(1 0 0 1 0 0)" d="M266.764 211.772L292.3609 211.772L292.3609 211.772L292.3609 175.9142L292.3609 175.9142L266.764 175.9142z" /></clipPath><clipPath id="30"><path id="" clip-rule="evenodd" transform="matrix(1 0 0 1 0 0)" d="M266.764 211.772L292.3609 211.772L292.3609 211.772L292.3609 175.9142L292.3609 175.9142L266.764 175.9142z" /></clipPath><clipPath id="31"><path id="" clip-rule="evenodd" transform="matrix(1 0 0 1 0 0)" d="M314.202 423.535L339.7989 423.535L339.7989 423.535L339.7989 387.676L339.7989 387.676L314.202 387.676z" /></clipPath><clipPath id="32"><path id="" clip-rule="evenodd" transform="matrix(1 0 0 1 0 0)" d="M314.202 423.535L339.7989 423.535L339.7989 423.535L339.7989 387.676L339.7989 387.676L314.202 387.676z" /></clipPath><clipPath id="33"><path id="" clip-rule="evenodd" transform="matrix(1 0 0 1 0 0)" d="M397.682 171.02L423.2789 171.02L423.2789 171.02L423.2789 135.1622L423.2789 135.1622L397.682 135.1622z" /></clipPath><clipPath id="34"><path id="" clip-rule="evenodd" transform="matrix(1 0 0 1 0 0)" d="M397.682 171.02L423.2789 171.02L423.2789 171.02L423.2789 135.1622L423.2789 135.1622L397.682 135.1622z" /></clipPath><clipPath id="35"><path id="" clip-rule="evenodd" transform="matrix(1 0 0 1 0 0)" d="M511.677 171.02L537.2739 171.02L537.2739 171.02L537.2739 135.1622L537.2739 135.1622L511.677 135.1622z" /></clipPath><clipPath id="36"><path id="" clip-rule="evenodd" transform="matrix(1 0 0 1 0 0)" d="M511.677 171.02L537.2739 171.02L537.2739 171.02L537.2739 135.1622L537.2739 135.1622L511.677 135.1622z" /></clipPath><clipPath id="37"><path id="" clip-rule="evenodd" transform="matrix(1 0 0 1 0 0)" d="M459.803 425.661L486.9178 425.661L486.9178 425.661L486.9178 387.677L486.9178 387.677L459.803 387.677z" /></clipPath><clipPath id="38"><path id="" clip-rule="evenodd" transform="matrix(1 0 0 1 0 0)" d="M459.803 425.661L486.9178 425.661L486.9178 425.661L486.9178 387.677L486.9178 387.677L459.803 387.677z" /></clipPath><clipPath id="39"><path id="" clip-rule="evenodd" transform="matrix(1 0 0 1 0 0)" d="M356.748 703.792L480.248 703.792L480.248 703.792L480.248 566.103L480.248 566.103L356.748 566.103z" /></clipPath><clipPath id="40"><path id="" clip-rule="evenodd" transform="matrix(1 0 0 1 0 0)" d="M371.264 627.975L377.0179 627.975L377.0179 627.975L377.0179 620.5692L377.0179 620.5692L371.264 620.5692z" /></clipPath><clipPath id="41"><path id="" clip-rule="evenodd" transform="matrix(1 0 0 1 0 0)" d="M371.264 627.975L377.018 627.975L377.018 627.975L377.018 620.569L377.018 620.569L371.264 620.569z" /></clipPath><clipPath id="42"><path id="" clip-rule="evenodd" transform="matrix(1 0 0 1 0 0)" d="M371.264 627.975L377.0179 627.975L377.0179 627.975L377.0179 620.5692L377.0179 620.5692L371.264 620.5692z" /></clipPath><clipPath id="43"><path id="" clip-rule="evenodd" transform="matrix(1 0 0 1 0 0)" d="M356.748 703.792L480.248 703.792L480.248 703.792L480.248 566.103L480.248 566.103L356.748 566.103z" /></clipPath><clipPath id="44"><path id="" clip-rule="evenodd" transform="matrix(1 0 0 1 0 0)" d="M438.644 643.742C 430.739 646.588 424.342 652.594 420.979 660.236L420.979 660.236L420.979 660.236L420.979 660.236L420.979 684.878C 425.72 695.651 436.488 703.172 449.014 703.172L449.014 703.172L449.014 703.172C 465.923 703.172 479.63 689.465 479.63 672.557L479.63 672.557L479.63 672.557C 479.63 659.288 471.189 647.992 459.383 643.742L459.383 643.742L459.383 643.742z" /></clipPath><clipPath id="45"><path id="" clip-rule="evenodd" transform="matrix(1 0 0 1 0 0)" d="M438.644 643.742C 430.739 646.588 424.342 652.594 420.979 660.236L420.979 660.236L420.979 660.236L420.979 660.236L420.979 684.878C 425.72 695.651 436.488 703.172 449.014 703.172L449.014 703.172L449.014 703.172C 465.923 703.172 479.63 689.465 479.63 672.557L479.63 672.557L479.63 672.557C 479.63 659.288 471.189 647.992 459.383 643.742L459.383 643.742L459.383 643.742z" /></clipPath><clipPath id="46"><path id="" clip-rule="evenodd" transform="matrix(1 0 0 1 0 0)" d="M356.748 703.792L480.248 703.792L480.248 703.792L480.248 566.103L480.248 566.103L356.748 566.103z" /></clipPath><clipPath id="47"><path id="" clip-rule="evenodd" transform="matrix(1 0 0 1 0 0)" d="M265.881 599.947L294.2603 599.947L294.2603 599.947L294.2603 543.0302L294.2603 543.0302L265.881 543.0302z" /></clipPath><clipPath id="48"><path id="" clip-rule="evenodd" transform="matrix(1 0 0 1 0 0)" d="M265.881 599.947L294.2603 599.947L294.2603 599.947L294.2603 543.0302L294.2603 543.0302L265.881 543.0302z" /></clipPath><clipPath id="49"><path id="" clip-rule="evenodd" transform="matrix(1 0 0 1 0 0)" d="M301.77 677.825L327.3673 677.825L327.3673 677.825L327.3673 641.9672L327.3673 641.9672L301.77 641.9672z" /></clipPath><clipPath id="50"><path id="" clip-rule="evenodd" transform="matrix(1 0 0 1 0 0)" d="M301.77 677.825L327.3673 677.825L327.3673 677.825L327.3673 641.9672L327.3673 641.9672L301.77 641.9672z" /></clipPath></defs><g transform="matrix(1.333333 0 0 1.333333 0 0)"><g clip-path="url(#1)"><g clip-path="url(#2)"><path id="1" transform="matrix(1 0 0 -1 0 834)" d="M91.866 67.4211L562.134 67.4211L562.134 74.92501L91.866 74.92501z" stroke="none" fill="#686868" fill-rule="nonzero" /><path id="2" transform="matrix(1 0 0 -1 0 834)" d="M562.134 526.984L91.866 526.984" stroke="#686868" stroke-width="1" fill="none" /><path id="3" transform="matrix(1 0 0 -1 0 834)" d="M562.134 307.016L91.866 307.016" stroke="#686868" stroke-width="1" fill="none" /></g><g clip-path="url(#3)"></g><g clip-path="url(#4)"><g transform="matrix(1.002251 0 0 1.001222 294.548 130.4821)"><g transform="matrix(1 0 0 1 0 0)"><image x="0" y="0" xlink:href="img_01.png" width="90" height="135" /></g></g></g><g clip-path="url(#5)"></g><g clip-path="url(#6)"><g transform="matrix(1.000885 0 0 1.001222 394.003 129.4249)"><g transform="matrix(1 0 0 1 0 0)"><image x="0" y="0" xlink:href="img_02.png" width="113" height="135" /></g></g></g><path id="776" transform="matrix(1 0 0 -1 0 834)" d="M336.977 675.566L325.354 675.566" stroke="#000000" stroke-width="0.792" fill="none" /><path id="777" transform="matrix(1 0 0 -1 0 834)" d="M326.466 677.032L325.843 675.566L326.466 674.0991L322.99 675.566z" stroke="none" fill="#000000" fill-rule="nonzero" /><g clip-path="url(#7)"><path id="778" transform="matrix(1 0 0 -1 0 834)" d="M357.113 593.816C 357.113 579.765 368.503 568.375 382.554 568.375C 396.605 568.375 407.996 579.765 407.996 593.816C 407.996 607.867 396.605 619.257 382.554 619.257C 368.503 619.257 357.113 607.867 357.113 593.816" stroke="none" fill="#FFFFFF" fill-rule="nonzero" /></g><g clip-path="url(#8)"></g><g clip-path="url(#9)"><g transform="matrix(1.002383 0 0 1.001356 350.389 219.675)"><g transform="matrix(1 0 0 1 0 0)"><image x="0" y="0" xlink:href="img_03.png" width="60" height="90" /></g></g></g><g clip-path="url(#10)"><path id="780" transform="matrix(1 0 0 -1 0 834)" d="M357.113 593.816C 357.113 579.765 368.503 568.375 382.554 568.375C 396.605 568.375 407.996 579.765 407.996 593.816C 407.996 607.867 396.605 619.257 382.554 619.257C 368.503 619.257 357.113 607.867 357.113 593.816z" stroke="#000000" stroke-width="0.792" fill="none" /></g><path id="781" transform="matrix(1 0 0 -1 0 834)" d="M439.317 626.304L429.532 616.31" stroke="none" fill="#FFFFFF" fill-rule="nonzero" /><path id="782" transform="matrix(1 0 0 -1 0 834)" d="M437.663 624.615L431.185 617.999" stroke="#000000" stroke-width="0.792" fill="none" /><path id="783" transform="matrix(1 0 0 -1 0 834)" d="M435.837 624.846L437.321 624.265L437.932 622.794L439.317 626.304z" stroke="none" fill="#000000" fill-rule="nonzero" /><path id="784" transform="matrix(1 0 0 -1 0 834)" d="M430.916 619.819L431.528 618.348L433.011 617.767L429.532 616.31z" stroke="none" fill="#000000" fill-rule="nonzero" /><g clip-path="url(#11)"><path id="785" transform="matrix(1 0 0 -1 0 834)" d="M475.299 594.539C 475.299 580.621 486.582 569.3391 500.499 569.3391C 514.417 569.3391 525.699 580.621 525.699 594.539C 525.699 608.457 514.417 619.739 500.499 619.739C 486.582 619.739 475.299 608.457 475.299 594.539" stroke="none" fill="#FFFFFF" fill-rule="nonzero" /></g><g clip-path="url(#12)"></g><g clip-path="url(#13)"><g transform="matrix(1.000162 0 0 0.9989215 465.465 159.433)"><g transform="matrix(1 0 0 1 0 0)"><image x="0" y="0" xlink:href="img_04.png" width="117" height="140" /></g></g></g><g clip-path="url(#14)"><path id="787" transform="matrix(1 0 0 -1 0 834)" d="M475.299 594.539C 475.299 580.621 486.582 569.3391 500.499 569.3391C 514.417 569.3391 525.699 580.621 525.699 594.539C 525.699 608.457 514.417 619.739 500.499 619.739C 486.582 619.739 475.299 608.457 475.299 594.539z" stroke="#000000" stroke-width="0.792" fill="none" /><path id="788" transform="matrix(1 0 0 -1 0 834)" d="M312.572 686.509C 310.26 686.509 308.386 684.635 308.386 682.324C 308.386 680.012 310.26 678.138 312.572 678.138C 314.884 678.138 316.758 680.012 316.758 682.324C 316.758 684.635 314.884 686.509 312.572 686.509M312.572 678.647C 310.554 678.647 308.918 680.283 308.918 682.301C 308.918 684.319 310.554 685.954 312.572 685.954C 314.59 685.954 316.226 684.319 316.226 682.301C 316.226 680.283 314.59 678.647 312.572 678.647" stroke="none" fill="#000000" fill-rule="nonzero" /></g><g clip-path="url(#15)"><path id="790" transform="matrix(1 0 0 -1 0 834)" d="M446.327 685.836C 444.015 685.836 442.141 683.962 442.141 681.651C 442.141 679.3391 444.015 677.465 446.327 677.465C 448.639 677.465 450.513 679.3391 450.513 681.651C 450.513 683.962 448.639 685.836 446.327 685.836M446.327 677.9741C 444.309 677.9741 442.673 679.61 442.673 681.628C 442.673 683.646 444.309 685.281 446.327 685.281C 448.345 685.281 449.981 683.646 449.981 681.628C 449.981 679.61 448.345 677.9741 446.327 677.9741" stroke="none" fill="#000000" fill-rule="nonzero" /></g><g clip-path="url(#16)"></g><g clip-path="url(#17)"><g transform="matrix(1.007262 0 0 1.004113 343.996 337.804)"><g transform="matrix(1 0 0 1 0 0)"><image x="0" y="0" xlink:href="img_05.png" width="103" height="151" /></g></g></g><g clip-path="url(#18)"><path id="807" transform="matrix(1 0 0 -1 0 834)" d="M430.707 368.296C 430.707 355.697 440.921 345.483 453.52 345.483C 466.12 345.483 476.334 355.697 476.334 368.296C 476.334 380.895 466.12 391.109 453.52 391.109C 440.921 391.109 430.707 380.895 430.707 368.296" stroke="none" fill="#FFFFFF" fill-rule="nonzero" /></g><g clip-path="url(#19)"></g><g clip-path="url(#20)"><g transform="matrix(1.009159 0 0 0.9990523 418.774 411.3025)"><g transform="matrix(1 0 0 1 0 0)"><image x="0" y="0" xlink:href="img_06.png" width="54" height="86" /></g></g></g><g clip-path="url(#21)"><path id="809" transform="matrix(1 0 0 -1 0 834)" d="M430.707 368.296C 430.707 355.697 440.921 345.483 453.52 345.483C 466.12 345.483 476.334 355.697 476.334 368.296C 476.334 380.895 466.12 391.109 453.52 391.109C 440.921 391.109 430.707 380.895 430.707 368.296z" stroke="#000000" stroke-width="0.702" fill="none" /></g><path id="810" transform="matrix(1 0 0 -1 0 834)" d="M391.547 425.773L437.932 393.381" stroke="none" fill="#000000" fill-rule="nonzero" /><path id="811" transform="matrix(1 0 0 -1 0 834)" d="M391.547 425.773L434.497 395.78" stroke="#FFFFFF" stroke-width="1.404" fill="none" /><path id="812" transform="matrix(1 0 0 -1 0 834)" d="M431.392 394.778L433.786 396.277L434.369 399.04L437.932 393.381z" stroke="none" fill="#FFFFFF" fill-rule="nonzero" /><g clip-path="url(#22)"><g><g clip-path="url(#23)"><g clip-path="url(#24)"><path id="813" transform="matrix(1 0 0 -1 0 834)" d="M364.022 444.995L378.999 434.537" stroke="none" fill="#FFFFFF" fill-rule="nonzero" /><path id="814" transform="matrix(1 0 0 -1 0 834)" d="M364.022 444.995L378.999 434.537" stroke="#000000" stroke-width="1.404" fill="none" /></g></g></g></g><g clip-path="url(#25)"></g><g clip-path="url(#26)"><g transform="matrix(1.010786 0 0 0.9996966 265.913 102.3843)"><g transform="matrix(1 0 0 1 0 0)"><image x="0" y="0" xlink:href="img_07.png" width="28" height="57" /></g></g></g><g clip-path="url(#27)"></g><g clip-path="url(#28)"><g transform="matrix(1.009614 0 0 0.9985386 265.881 330.7593)"><g transform="matrix(1 0 0 1 0 0)"><image x="0" y="0" xlink:href="img_08.png" width="28" height="57" /></g></g></g><g clip-path="url(#29)"></g><g clip-path="url(#30)"><g transform="matrix(1.023 0 0 0.9968184 265.759 174.9099)"><g transform="matrix(1 0 0 1 0 0)"><image x="0" y="0" xlink:href="img_09.png" width="27" height="38" /></g></g></g><g clip-path="url(#31)"></g><g clip-path="url(#32)"><g transform="matrix(1.023622 0 0 0.9967948 313.182 386.6648)"><g transform="matrix(1 0 0 1 0 0)"><image x="0" y="0" xlink:href="img_10.png" width="27" height="38" /></g></g></g><g clip-path="url(#33)"></g><g clip-path="url(#34)"><g transform="matrix(1.023622 0 0 0.9967948 396.663 134.1488)"><g transform="matrix(1 0 0 1 0 0)"><image x="0" y="0" xlink:href="img_11.png" width="27" height="38" /></g></g></g><g clip-path="url(#35)"></g><g clip-path="url(#36)"><g transform="matrix(-1.022807 0 0 0.9967052 538.275 134.1602)"><g transform="matrix(1 0 0 1 0 0)"><image x="0" y="0" xlink:href="img_12.png" width="27" height="38" /></g></g></g><g clip-path="url(#37)"></g><g clip-path="url(#38)"><g transform="matrix(-1.005024 0 0 1.000408 487.937 386.6637)"><g transform="matrix(1 0 0 1 0 0)"><image x="0" y="0" xlink:href="img_13.png" width="29" height="40" /></g></g></g><g transform="matrix(1.007175 0 0 1.004715 356.748 566.103)"><g transform="matrix(1 0 0 1 0 0)"><image x="0" y="0" xlink:href="img_14.png" width="93" height="137" /></g></g><g clip-path="url(#39)"><path id="1068" transform="matrix(1 0 0 -1 0 834)" d="M379.658 237.303L379.24 238.211C 377.768 236.621 376.823 232.146 376.941 230.871C 376.573 230.196 376.252 229.33 376.022 228.352C 375.719 227.061 375.606 225.73 375.704 224.604C 375.731 224.288 375.774 223.995 375.832 223.728C 375.506 223.083 375.223 222.284 375.011 221.383C 374.601 219.638 374.555 217.956 374.824 216.75C 374.427 215.928 374.103 214.84 373.908 213.598C 373.803 212.932 373.741 212.262 373.725 211.608L373.725 211.608L374.503 211.466C 374.517 212.048 374.573 212.647 374.667 213.244C 374.816 214.191 375.034 214.972 375.278 215.584C 375.291 215.564 375.305 215.544 375.319 215.525C 375.418 215.385 375.528 215.268 375.648 215.176C 376.894 214.125 379.609 214.056 381.195 214.219C 383.24 214.43 387.049 215.403 386.825 217.577C 386.601 219.75 382.674 219.926 380.628 219.716C 379.276 219.576 377.151 219.103 375.933 218.17C 375.772 218.072 375.615 217.934 375.463 217.758C 375.397 218.624 375.473 219.749 375.748 220.919C 375.89 221.522 376.073 222.082 376.279 222.565C 376.415 222.355 376.571 222.193 376.745 222.084C 376.747 222.082 376.749 222.081 376.751 222.08C 378.039 221.107 380.652 221.046 382.196 221.205C 384.241 221.416 388.05 222.389 387.826 224.562C 387.602 226.736 383.675 226.912 381.629 226.701C 380.252 226.559 378.075 226.072 376.868 225.104C 376.79 225.044 376.712 224.977 376.636 224.901C 376.578 224.844 376.523 224.786 376.472 224.727C 376.399 225.666 376.5 226.783 376.759 227.887C 376.916 228.555 377.107 229.121 377.31 229.588C 377.332 229.55 377.355 229.512 377.379 229.476C 377.589 229.16 377.851 228.947 378.162 228.838C 379.53 228.084 381.84 228.045 383.253 228.19C 385.299 228.401 389.108 229.374 388.884 231.548C 388.66 233.722 384.732 233.898 382.687 233.687C 381.367 233.551 379.312 233.097 378.081 232.208C 377.969 232.145 377.858 232.063 377.748 231.962C 377.862 232.759 378.368 235.83 379.658 237.303M384.601 218.34C 385.746 218.027 386.044 217.589 386.056 217.498C 386.063 217.405 385.861 216.916 384.804 216.375C 383.833 215.879 382.509 215.524 381.075 215.376C 379.642 215.228 378.273 215.305 377.222 215.594C 376.555 215.776 376.177 216.001 375.974 216.175L375.974 216.175L375.976 216.183C 375.9 216.233 375.831 216.318 375.769 216.431C 375.769 216.432 375.767 216.435 375.767 216.437C 375.763 216.501 375.859 216.756 376.27 217.086C 376.294 217.101 376.318 217.117 376.341 217.128L376.341 217.128L376.339 217.139C 376.512 217.271 376.734 217.413 377.019 217.559C 377.99 218.056 379.314 218.41 380.748 218.558C 382.181 218.706 383.55 218.629 384.601 218.34M385.602 225.326C 386.747 225.013 387.044 224.575 387.057 224.483C 387.063 224.391 386.862 223.902 385.806 223.362C 384.835 222.865 383.51 222.51 382.076 222.362C 380.642 222.214 379.274 222.291 378.222 222.58C 377.626 222.743 377.261 222.94 377.045 223.104L377.045 223.104L377.047 223.119C 377.029 223.126 377.012 223.136 376.995 223.146C 376.988 223.151 376.981 223.156 376.974 223.161C 376.94 223.19 376.911 223.218 376.886 223.244C 376.844 223.293 376.805 223.353 376.768 223.424C 376.767 223.446 376.778 223.491 376.808 223.553C 376.975 223.794 377.147 223.982 377.317 224.101L377.317 224.101L377.315 224.107C 377.492 224.244 377.721 224.392 378.02 224.545C 378.991 225.042 380.315 225.396 381.748 225.544C 383.182 225.692 384.551 225.615 385.602 225.326M386.66 232.312C 387.805 231.998 388.102 231.56 388.114 231.469C 388.121 231.377 387.919 230.887 386.862 230.347C 385.892 229.85 384.567 229.495 383.134 229.348C 381.7 229.2 380.332 229.277 379.28 229.565C 378.886 229.673 378.595 229.796 378.379 229.914L378.379 229.914L378.38 229.936C 378.348 229.943 378.319 229.954 378.29 229.964C 378.065 230.099 377.939 230.224 377.877 230.31C 377.858 230.343 377.842 230.379 377.826 230.416C 377.828 230.495 377.944 230.769 378.405 231.117C 378.431 231.132 378.457 231.147 378.483 231.157L378.483 231.157L378.479 231.171C 378.64 231.286 378.835 231.406 379.078 231.53C 380.048 232.027 381.372 232.382 382.806 232.53C 384.239 232.677 385.608 232.6 386.66 232.312" stroke="none" fill="#000000" fill-rule="nonzero" /><path id="1069" transform="matrix(1 0 0 -1 0 834)" d="M379.658 237.303L379.24 238.211C 377.768 236.621 376.823 232.146 376.941 230.871C 376.573 230.196 376.252 229.33 376.022 228.352C 375.719 227.061 375.606 225.73 375.704 224.604C 375.731 224.288 375.774 223.995 375.832 223.728C 375.506 223.083 375.223 222.284 375.011 221.383C 374.601 219.638 374.555 217.956 374.824 216.75C 374.427 215.928 374.103 214.84 373.908 213.598C 373.803 212.932 373.741 212.262 373.725 211.608L373.725 211.608L374.503 211.466C 374.517 212.048 374.573 212.647 374.667 213.244C 374.816 214.191 375.034 214.972 375.278 215.584C 375.291 215.564 375.305 215.544 375.319 215.525C 375.418 215.385 375.528 215.268 375.648 215.176C 376.894 214.125 379.609 214.056 381.195 214.219C 383.24 214.43 387.049 215.403 386.825 217.577C 386.601 219.75 382.674 219.926 380.628 219.716C 379.276 219.576 377.151 219.103 375.933 218.17C 375.772 218.072 375.615 217.934 375.463 217.758C 375.397 218.624 375.473 219.749 375.748 220.919C 375.89 221.522 376.073 222.082 376.279 222.565C 376.415 222.355 376.571 222.193 376.745 222.084C 376.747 222.082 376.749 222.081 376.751 222.08C 378.039 221.107 380.652 221.046 382.196 221.205C 384.241 221.416 388.05 222.389 387.826 224.562C 387.602 226.736 383.675 226.912 381.629 226.701C 380.252 226.559 378.075 226.072 376.868 225.104C 376.79 225.044 376.712 224.977 376.636 224.901C 376.578 224.844 376.523 224.786 376.472 224.727C 376.399 225.666 376.5 226.783 376.759 227.887C 376.916 228.555 377.107 229.121 377.31 229.588C 377.332 229.55 377.355 229.512 377.379 229.476C 377.589 229.16 377.851 228.947 378.162 228.838C 379.53 228.084 381.84 228.045 383.253 228.19C 385.299 228.401 389.108 229.374 388.884 231.548C 388.66 233.722 384.732 233.898 382.687 233.687C 381.367 233.551 379.312 233.097 378.081 232.208C 377.969 232.145 377.858 232.063 377.748 231.962C 377.862 232.759 378.368 235.83 379.658 237.303zM384.601 218.34C 385.746 218.027 386.044 217.589 386.056 217.498C 386.063 217.405 385.861 216.916 384.804 216.375C 383.833 215.879 382.509 215.524 381.075 215.376C 379.642 215.228 378.273 215.305 377.222 215.594C 376.555 215.776 376.177 216.001 375.974 216.175L375.974 216.175L375.976 216.183C 375.9 216.233 375.831 216.318 375.769 216.431C 375.769 216.432 375.767 216.435 375.767 216.437C 375.763 216.501 375.859 216.756 376.27 217.086C 376.294 217.101 376.318 217.117 376.341 217.128L376.341 217.128L376.339 217.139C 376.512 217.271 376.734 217.413 377.019 217.559C 377.99 218.056 379.314 218.41 380.748 218.558C 382.181 218.706 383.55 218.629 384.601 218.34zM385.602 225.326C 386.747 225.013 387.044 224.575 387.057 224.483C 387.063 224.391 386.862 223.902 385.806 223.362C 384.835 222.865 383.51 222.51 382.076 222.362C 380.642 222.214 379.274 222.291 378.222 222.58C 377.626 222.743 377.261 222.94 377.045 223.104L377.045 223.104L377.047 223.119C 377.029 223.126 377.012 223.136 376.995 223.146C 376.988 223.151 376.981 223.156 376.974 223.161C 376.94 223.19 376.911 223.218 376.886 223.244C 376.844 223.293 376.805 223.353 376.768 223.424C 376.767 223.446 376.778 223.491 376.808 223.553C 376.975 223.794 377.147 223.982 377.317 224.101L377.317 224.101L377.315 224.107C 377.492 224.244 377.721 224.392 378.02 224.545C 378.991 225.042 380.315 225.396 381.748 225.544C 383.182 225.692 384.551 225.615 385.602 225.326zM386.66 232.312C 387.805 231.998 388.102 231.56 388.114 231.469C 388.121 231.377 387.919 230.887 386.862 230.347C 385.892 229.85 384.567 229.495 383.134 229.348C 381.7 229.2 380.332 229.277 379.28 229.565C 378.886 229.673 378.595 229.796 378.379 229.914L378.379 229.914L378.38 229.936C 378.348 229.943 378.319 229.954 378.29 229.964C 378.065 230.099 377.939 230.224 377.877 230.31C 377.858 230.343 377.842 230.379 377.826 230.416C 377.828 230.495 377.944 230.769 378.405 231.117C 378.431 231.132 378.457 231.147 378.483 231.157L378.483 231.157L378.479 231.171C 378.64 231.286 378.835 231.406 379.078 231.53C 380.048 232.027 381.372 232.382 382.806 232.53C 384.239 232.677 385.608 232.6 386.66 232.312z" stroke="#FFFFFF" stroke-width="0.137" fill="none" /></g><g clip-path="url(#40)"><g><g clip-path="url(#41)"><g clip-path="url(#42)"><path id="1070" transform="matrix(1 0 0 -1 0 834)" d="M373.284 212.23L371.377 213.29L373.522 206.208L376.882 212.801L374.794 212.085" stroke="none" fill="#000000" fill-rule="nonzero" /><path id="1071" transform="matrix(1 0 0 -1 0 834)" d="M373.284 212.23L371.377 213.29L371.377 213.29L373.522 206.208L373.522 206.208L376.882 212.801L376.882 212.801L374.794 212.085" stroke="#FFFFFF" stroke-width="0.137" fill="none" /></g></g></g></g><g clip-path="url(#43)"><path id="1072" transform="matrix(1 0 0 -1 0 834)" d="M418.398 161.443C 418.398 144.534 432.105 130.827 449.014 130.827C 465.922 130.827 479.629 144.534 479.629 161.443C 479.629 178.352 465.922 192.059 449.014 192.059C 432.105 192.059 418.398 178.352 418.398 161.443" stroke="none" fill="#FFFFFF" fill-rule="nonzero" /></g><g clip-path="url(#44)"></g><g clip-path="url(#45)"><g transform="matrix(0.9999327 0 0 1.001064 420.978 643.7425)"><g transform="matrix(1 0 0 1 0 0)"><image x="0" y="0" xlink:href="img_15.png" width="61" height="86" /></g></g></g><g clip-path="url(#46)"><path id="1074" transform="matrix(1 0 0 -1 0 834)" d="M418.398 161.443C 418.398 144.534 432.105 130.827 449.014 130.827C 465.922 130.827 479.629 144.534 479.629 161.443C 479.629 178.352 465.922 192.059 449.014 192.059C 432.105 192.059 418.398 178.352 418.398 161.443z" stroke="#000000" stroke-width="0.687" fill="none" /></g><g clip-path="url(#47)"></g><g clip-path="url(#48)"><g transform="matrix(1.013546 0 0 1.002428 265.881 542.8086)"><g transform="matrix(1 0 0 1 0 0)"><image x="0" y="0" xlink:href="img_16.png" width="28" height="57" /></g></g></g><g clip-path="url(#49)"></g><g clip-path="url(#50)"><g transform="matrix(1.022789 0 0 0.9967948 300.753 640.9658)"><g transform="matrix(1 0 0 1 0 0)"><image x="0" y="0" xlink:href="img_17.png" width="27" height="38" /></g></g></g><path id="1406" transform="matrix(1 0 0 -1 0 834)" d="M633 15L633 0M633 819L633 834M21 15L21 0M21 819L21 834M639 21L654 21M15 21L0 21M639 813L654 813M15 813L0 813" stroke="#000000" stroke-width="1.25" fill="none" /><path id="1407" transform="matrix(1 0 0 -1 0 834)" d="M633 15L633 0M633 819L633 834M21 15L21 0M21 819L21 834M639 21L654 21M15 21L0 21M639 813L654 813M15 813L0 813" stroke="#000000" stroke-width="0.25" fill="none" /><path id="1408" transform="matrix(1 0 0 -1 0 834)" d="M32.2781 9.28203C 32.2781 9.516021 32.2961 9.58203 32.3559 9.62383C 32.416 9.66602 32.5719 9.69609 32.8238 9.69609C 33.2262 9.69609 33.5738 9.62383 33.8441 9.45C 34.3238 9.167971 34.552 8.63398 34.552 8.016021C 34.552 7.05586 34.0359 6.21602 32.9141 6.21602C 32.4762 6.21602 32.2781 6.33008 32.2781 6.78594zM31.252 9.900001L31.252 9.726171C 31.7141 9.68984 31.7621 9.66602 31.7621 9.150001L31.7621 9.150001L31.7621 6.74414C 31.7621 6.23398 31.7141 6.19805 31.198 6.16211L31.198 6.16211L31.198 6L31.198 6L32.6199 6C 33.3578 6 33.952 6.15 34.402 6.49805C 34.8641 6.84609 35.1398 7.38008 35.1398 8.1C 35.1398 8.664061 34.9301 9.101951 34.6359 9.38984C 34.2641 9.74414 33.7 9.900001 32.9379 9.900001z" stroke="#000000" stroke-width="0.4" fill="none" /><path id="1409" transform="matrix(1 0 0 -1 0 834)" d="M38.3801 6.97813C 38.2898 6.70195 38.1758 6.51016 38.0738 6.38984C 37.9359 6.23398 37.732 6.20391 37.402 6.20391C 37.15 6.20391 36.9461 6.21602 36.8258 6.28203C 36.718 6.34219 36.6879 6.46211 36.6879 6.78594L36.6879 6.78594L36.6879 9.15586C 36.6879 9.66602 36.7418 9.69609 37.216 9.73203L37.216 9.73203L37.216 9.900001L37.216 9.900001L35.65 9.900001L35.65 9.900001L35.65 9.73203C 36.1359 9.69609 36.1777 9.66602 36.1777 9.15586L36.1777 9.15586L36.1777 6.75586C 36.1777 6.24609 36.1301 6.20391 35.6258 6.16797L35.6258 6.16797L35.6258 6L35.6258 6L38.3438 6C 38.398 6.18594 38.5238 6.75586 38.5598 6.94219z" stroke="#000000" stroke-width="0.4" fill="none" /><path id="1410" transform="matrix(1 0 0 -1 0 834)" d="M41.0918 9.023829C 41.0438 9.40195 41.0141 9.63594 40.9898 9.851951C 40.7617 9.92383 40.5098 9.989841 40.234 9.989841C 39.4598 9.989841 38.998 9.49805 38.998 8.921881C 38.998 8.24414 39.6039 7.94414 39.9879 7.73984C 40.4379 7.5 40.768 7.28984 40.768 6.84609C 40.768 6.40781 40.498 6.12617 40.048 6.12617C 39.4301 6.12617 39.1598 6.73203 39.0641 7.09805L39.0641 7.09805L38.8898 7.05586C 38.9258 6.767971 39.0039 6.25195 39.052 6.12617C 39.1059 6.09609 39.1961 6.05391 39.3461 6C 39.4961 5.95781 39.6879 5.91016 39.934 5.91016C 40.732 5.91016 41.266 6.41406 41.266 7.04414C 41.266 7.71602 40.6961 7.99805 40.2277 8.23789C 39.7539 8.48398 39.466 8.68789 39.466 9.12617C 39.466 9.45 39.6699 9.78594 40.132 9.78594C 40.6539 9.78594 40.8098 9.371881 40.918 8.98789z" stroke="#000000" stroke-width="0.4" fill="none" /><path id="1411" transform="matrix(1 0 0 -1 0 834)" d="M46.648 6L46.648 6.16797C 46.1258 6.21602 46.1078 6.24609 46.0898 6.88203L46.0898 6.88203L46.0301 9.05391C 46.0117 9.671881 46.0539 9.68398 46.582 9.73203L46.582 9.73203L46.582 9.900001L46.582 9.900001L45.5617 9.900001L45.5617 9.900001L44.1758 6.9L44.1758 6.9L42.8078 9.900001L42.8078 9.900001L41.8238 9.900001L41.8238 9.900001L41.8238 9.73203C 42.3699 9.67813 42.4 9.653911 42.3461 8.87383L42.3461 8.87383L42.2617 7.626171C 42.2141 7.00195 42.1777 6.73789 42.148 6.528131C 42.1059 6.27617 41.9859 6.21016 41.6379 6.16797L41.6379 6.16797L41.6379 6L41.6379 6L43.0359 6L43.0359 6L43.0359 6.16797C 42.6398 6.21016 42.4961 6.25195 42.484 6.53984C 42.4777 6.78008 42.4777 7.04414 42.502 7.53594L42.502 7.53594L42.5918 9.24609L42.5918 9.24609L42.6039 9.24609L42.6039 9.24609L43.948 6.04219L43.948 6.04219L44.068 6.04219L44.068 6.04219L45.532 9.33008L45.532 9.33008L45.5559 9.33008L45.5559 9.33008L45.5738 6.88203C 45.5801 6.24609 45.5559 6.21602 45.0699 6.16797L45.0699 6.16797L45.0699 6z" stroke="#000000" stroke-width="0.4" fill="none" /><path id="1412" transform="matrix(1 0 0 -1 0 834)" d="M51.8738 7.05586C 51.5738 6.45586 51.2496 6.12617 50.6379 6.12617C 49.7258 6.12617 49.0656 6.89414 49.0656 8.016021C 49.0656 8.92813 49.5996 9.773829 50.602 9.773829C 51.2496 9.773829 51.6098 9.516021 51.7656 8.88008L51.7656 8.88008L51.9457 8.921881C 51.9098 9.24609 51.8738 9.48594 51.8258 9.828131C 51.6578 9.85781 51.2496 9.989841 50.7637 9.989841C 49.4258 9.989841 48.4539 9.15586 48.4539 7.89609C 48.4539 6.94219 49.1078 5.91016 50.602 5.91016C 51.034 5.91016 51.5379 6.03008 51.7059 6.07188C 51.8137 6.26992 51.9637 6.71406 52.0477 6.98984z" stroke="#000000" stroke-width="0.4" fill="none" /><path id="1413" transform="matrix(1 0 0 -1 0 834)" d="M54.3398 9.773829C 55.1258 9.773829 55.7855 9.101951 55.7855 7.83594C 55.7855 6.68398 55.1855 6.12617 54.5195 6.12617C 53.6738 6.12617 53.0559 6.94805 53.0559 8.076171C 53.0559 9.19805 53.6676 9.773829 54.3398 9.773829zM54.4598 9.989841C 53.1996 9.989841 52.4438 8.98789 52.4438 7.90781C 52.4438 6.75586 53.3078 5.91016 54.3938 5.91016C 55.4918 5.91016 56.3977 6.70195 56.3977 7.99805C 56.3977 9.19805 55.4797 9.989841 54.4598 9.989841z" stroke="#000000" stroke-width="0.4" fill="none" /><path id="1414" transform="matrix(1 0 0 -1 0 834)" d="M61.8277 6L61.8277 6.16797C 61.3059 6.21602 61.2879 6.24609 61.2695 6.88203L61.2695 6.88203L61.2098 9.05391C 61.1918 9.671881 61.2336 9.68398 61.7617 9.73203L61.7617 9.73203L61.7617 9.900001L61.7617 9.900001L60.7418 9.900001L60.7418 9.900001L59.3559 6.9L59.3559 6.9L57.9879 9.900001L57.9879 9.900001L57.0035 9.900001L57.0035 9.900001L57.0035 9.73203C 57.5496 9.67813 57.5797 9.653911 57.5258 8.87383L57.5258 8.87383L57.4418 7.626171C 57.3938 7.00195 57.3578 6.73789 57.3277 6.528131C 57.2855 6.27617 57.1656 6.21016 56.8176 6.16797L56.8176 6.16797L56.8176 6L56.8176 6L58.2156 6L58.2156 6L58.2156 6.16797C 57.8195 6.21016 57.6758 6.25195 57.6637 6.53984C 57.6578 6.78008 57.6578 7.04414 57.6816 7.53594L57.6816 7.53594L57.7719 9.24609L57.7719 9.24609L57.7836 9.24609L57.7836 9.24609L59.1277 6.04219L59.1277 6.04219L59.2477 6.04219L59.2477 6.04219L60.7117 9.33008L60.7117 9.33008L60.7355 9.33008L60.7355 9.33008L60.7535 6.88203C 60.7598 6.24609 60.7355 6.21602 60.2496 6.16797L60.2496 6.16797L60.2496 6z" stroke="#000000" stroke-width="0.4" fill="none" /><path id="1415" transform="matrix(1 0 0 -1 0 834)" d="M63.8258 6L63.8258 6.16797C 63.3336 6.20391 63.2855 6.23398 63.2855 6.75L63.2855 6.75L63.2855 9.150001C 63.2855 9.66016 63.3336 9.69609 63.8258 9.73203L63.8258 9.73203L63.8258 9.900001L63.8258 9.900001L62.2355 9.900001L62.2355 9.900001L62.2355 9.73203C 62.7277 9.69609 62.7758 9.66016 62.7758 9.150001L62.7758 9.150001L62.7758 6.75C 62.7758 6.23984 62.7277 6.20391 62.2355 6.16797L62.2355 6.16797L62.2355 6z" stroke="#000000" stroke-width="0.4" fill="none" /><path id="1416" transform="matrix(1 0 0 -1 0 834)" d="M66.5074 9.023829C 66.4598 9.40195 66.4297 9.63594 66.4055 9.851951C 66.1777 9.92383 65.9258 9.989841 65.6496 9.989841C 64.8758 9.989841 64.4137 9.49805 64.4137 8.921881C 64.4137 8.24414 65.0195 7.94414 65.4035 7.73984C 65.8535 7.5 66.1836 7.28984 66.1836 6.84609C 66.1836 6.40781 65.9137 6.12617 65.46371 6.12617C 64.8457 6.12617 64.5758 6.73203 64.4797 7.09805L64.4797 7.09805L64.3055 7.05586C 64.3418 6.767971 64.4195 6.25195 64.46761 6.12617C 64.52151 6.09609 64.6117 6.05391 64.7617 6C 64.91171 5.95781 65.1035 5.91016 65.3496 5.91016C 66.1477 5.91016 66.6816 6.41406 66.6816 7.04414C 66.6816 7.71602 66.1117 7.99805 65.6438 8.23789C 65.1695 8.48398 64.8816 8.68789 64.8816 9.12617C 64.8816 9.45 65.0855 9.78594 65.5477 9.78594C 66.0695 9.78594 66.2258 9.371881 66.3336 8.98789z" stroke="#000000" stroke-width="0.4" fill="none" /><path id="1417" transform="matrix(1 0 0 -1 0 834)" d="M69.4055 7.68008L68.3016 7.68008C 68.4816 8.171881 68.6734 8.69414 68.8656 9.21016L68.8656 9.21016L68.8777 9.21016zM70.9355 6L70.9355 6.16797C 70.5457 6.20391 70.46761 6.25781 70.2758 6.77383C 69.89181 7.81797 69.4895 8.95781 69.11761 9.989841L69.11761 9.989841L68.9316 9.93594L68.9316 9.93594L67.68951 6.78594C 67.4797 6.25781 67.3957 6.22188 67.0176 6.16797L67.0176 6.16797L67.0176 6L67.0176 6L68.3195 6L68.3195 6L68.3195 6.16797C 67.8695 6.21016 67.81561 6.26992 67.9477 6.64805C 68.0258 6.9 68.1156 7.15195 68.2117 7.42188L68.2117 7.42188L69.4895 7.42188C 69.62151 7.05586 69.74181 6.73203 69.8195 6.49805C 69.8977 6.26406 69.8438 6.21602 69.4656 6.16797L69.4656 6.16797L69.4656 6z" stroke="#000000" stroke-width="0.4" fill="none" /><path id="1418" transform="matrix(1 0 0 -1 0 834)" d="M71.7273 5.92813C 71.9195 5.92813 72.06371 6.06602 72.06371 6.27617C 72.06371 6.46797 71.9195 6.61797 71.7273 6.61797C 71.5355 6.61797 71.3914 6.46797 71.3914 6.27617C 71.3914 6.06602 71.5355 5.92813 71.7273 5.92813z" stroke="#000000" stroke-width="0.4" fill="none" /><path id="1419" transform="matrix(1 0 0 -1 0 834)" d="M73.9234 6L73.9234 6.15586C 73.53951 6.19219 73.4977 6.22813 73.4977 6.63594L73.4977 6.63594L73.4977 8.70586C 73.2336 8.59805 72.9516 8.51992 72.6453 8.471881L72.6453 8.471881L72.6453 8.328131C 73.0055 8.26797 73.0234 8.24414 73.0234 7.871881L73.0234 7.871881L73.0234 6.63594C 73.0234 6.22813 72.9816 6.19219 72.6035 6.15586L72.6035 6.15586L72.6035 6zM73.2215 9.216021C 73.3953 9.216021 73.52731 9.36016 73.52731 9.52188C 73.52731 9.70195 73.3953 9.83398 73.2273 9.83398C 73.06561 9.83398 72.9215 9.70195 72.9215 9.52188C 72.9215 9.36016 73.06561 9.216021 73.2215 9.216021z" stroke="#000000" stroke-width="0.4" fill="none" /><path id="1420" transform="matrix(1 0 0 -1 0 834)" d="M77.1574 6L77.1574 6.15586C 76.8094 6.19219 76.7793 6.21602 76.7793 6.62383L76.7793 6.62383L76.7793 7.78203C 76.7793 8.36406 76.4793 8.69414 76.0055 8.69414C 75.8313 8.69414 75.67541 8.621881 75.5074 8.51406C 75.3574 8.41211 75.2254 8.32188 75.1055 8.23203L75.1055 8.23203L75.1055 8.712111C 74.8414 8.59219 74.5594 8.51992 74.27151 8.466021L74.27151 8.466021L74.27151 8.328131C 74.5953 8.26797 74.6313 8.25 74.6313 7.86602L74.6313 7.86602L74.6313 6.62383C 74.6313 6.22813 74.6016 6.19805 74.19341 6.15586L74.19341 6.15586L74.19341 6L74.19341 6L75.4953 6L75.4953 6L75.4953 6.15586C 75.1414 6.19219 75.1055 6.21602 75.1055 6.62383L75.1055 6.62383L75.1055 8.03398C 75.2855 8.18984 75.5195 8.33984 75.7594 8.33984C 76.1613 8.33984 76.3055 8.069921 76.3055 7.65586L76.3055 7.65586L76.3055 6.65391C 76.3055 6.23984 76.2633 6.19219 75.9094 6.15586L75.9094 6.15586L75.9094 6z" stroke="#000000" stroke-width="0.4" fill="none" /><path id="1421" transform="matrix(1 0 0 -1 0 834)" d="M79.4734 6.51016C 79.32931 6.40195 79.1133 6.30586 78.8973 6.30586C 78.5133 6.30586 78.0754 6.65391 78.0754 7.36797C 78.0754 8.23789 78.57931 8.471881 78.8555 8.471881C 79.0832 8.471881 79.32931 8.37617 79.4734 8.16602zM80.4035 6.30586L80.2113 6.32383C 79.9895 6.34805 79.9473 6.37813 79.9473 6.68984L79.9473 6.68984L79.9473 10.2719C 79.7254 10.1941 79.3234 10.1039 79.0113 10.0621L79.0113 10.0621L79.0113 9.917971C 79.44341 9.88789 79.4734 9.869921 79.4734 9.47383L79.4734 9.47383L79.4734 8.628131C 79.3355 8.67617 79.1613 8.69414 79.0773 8.69414C 78.2613 8.69414 77.5293 8.03984 77.5293 7.20586C 77.5293 6.36602 78.1594 5.92813 78.6395 5.92813C 78.7113 5.92813 78.87341 5.96406 79.1074 6.10195L79.1074 6.10195L79.4734 6.31797L79.4734 6.31797L79.4734 5.92813C 79.8215 6.05391 80.27151 6.13203 80.4035 6.15586z" stroke="#000000" stroke-width="0.4" fill="none" /><path id="1422" transform="matrix(1 0 0 -1 0 834)" d="M81.3813 8.24414C 81.4895 8.310161 81.6813 8.35781 81.84921 8.35781C 82.34731 8.35781 82.7676 7.96211 82.7676 7.278131C 82.7676 6.58203 82.4492 6.15586 81.9516 6.15586C 81.6336 6.16211 81.4535 6.37188 81.4176 6.49219C 81.3934 6.54609 81.3813 6.60586 81.3813 6.69609zM81.3813 8.42383L81.3813 10.2719C 81.1594 10.1941 80.7934 10.098 80.5113 10.0621L80.5113 10.0621L80.5113 9.92383C 80.8953 9.88789 80.9074 9.851951 80.9074 9.48008L80.9074 9.48008L80.9074 6.14414C 81.2375 5.98789 81.5434 5.92813 81.78951 5.92813C 82.59341 5.92813 83.2953 6.55195 83.2953 7.43398C 83.2953 8.14219 82.7555 8.69414 82.1133 8.69414C 82.0473 8.69414 81.9633 8.67617 81.86761 8.63398z" stroke="#000000" stroke-width="0.4" fill="none" /><path id="1423" transform="matrix(1 0 0 -1 0 834)" d="M90.0754 6.83984C 89.8953 6.46211 89.8172 6.43789 89.4934 6.43789L89.4934 6.43789L88.3711 6.43789L88.3711 6.43789L89.223 7.33203C 89.77541 7.91992 90.0152 8.273829 90.0152 8.79609C 90.0152 9.42617 89.5352 9.810161 89.007 9.810161C 88.6594 9.810161 88.3773 9.653911 88.1973 9.45586L88.1973 9.45586L87.8551 8.96992L87.8551 8.96992L87.9871 8.85C 88.1434 9.08398 88.3953 9.40781 88.8031 9.40781C 89.24731 9.40781 89.5113 9.11406 89.5113 8.61016C 89.5113 8.09414 89.1332 7.60195 88.7613 7.15781C 88.4613 6.81016 88.1254 6.46797 87.7891 6.13789L87.7891 6.13789L87.7891 6L87.7891 6L90.0332 6C 90.1051 6.26992 90.1652 6.53398 90.2434 6.78594z" stroke="#000000" stroke-width="0.4" fill="none" /><path id="1424" transform="matrix(1 0 0 -1 0 834)" d="M92.9551 6.83984C 92.77541 6.46211 92.6973 6.43789 92.373 6.43789L92.373 6.43789L91.25121 6.43789L91.25121 6.43789L92.1031 7.33203C 92.65511 7.91992 92.8953 8.273829 92.8953 8.79609C 92.8953 9.42617 92.4152 9.810161 91.8871 9.810161C 91.5391 9.810161 91.257 9.653911 91.0773 9.45586L91.0773 9.45586L90.7352 8.96992L90.7352 8.96992L90.8672 8.85C 91.023 9.08398 91.27541 9.40781 91.6832 9.40781C 92.1273 9.40781 92.391 9.11406 92.391 8.61016C 92.391 8.09414 92.0133 7.60195 91.641 7.15781C 91.341 6.81016 91.0051 6.46797 90.6691 6.13789L90.6691 6.13789L90.6691 6L90.6691 6L92.9133 6C 92.9852 6.26992 93.0453 6.53398 93.123 6.78594z" stroke="#000000" stroke-width="0.4" fill="none" /><path id="1425" transform="matrix(1 0 0 -1 0 834)" d="M94.27541 9.3L95.673 9.3L95.673 9.3L95.82931 9.68984L95.82931 9.68984L95.7934 9.73789L95.7934 9.73789L94.0832 9.73789L94.0832 9.73789L93.84921 7.90781C 93.9871 7.96211 94.2152 8.028131 94.4672 8.028131C 95.1211 8.028131 95.4453 7.65 95.4453 7.121881C 95.4453 6.67188 95.19341 6.23398 94.6832 6.23398C 94.3172 6.23398 94.0711 6.42617 93.9453 6.53984C 93.8852 6.58789 93.8371 6.58203 93.7832 6.53984C 93.7172 6.48008 93.6633 6.40195 93.65701 6.34219C 93.6453 6.26992 93.67541 6.22188 93.75311 6.13789C 93.84341 6.05391 94.0953 5.92813 94.3711 5.92813C 94.6891 5.93398 95.091 6.08984 95.4152 6.35391C 95.7813 6.65391 95.9492 6.99609 95.9492 7.35586C 95.9492 7.84805 95.5594 8.369921 94.791 8.369921C 94.6293 8.369921 94.34731 8.273829 94.1191 8.18984z" stroke="#000000" stroke-width="0.4" fill="none" /><path id="1444" transform="matrix(1 0 0 -1 0 834)" d="M554.472 6.83984C 554.292 6.46211 554.2141 6.43789 553.89 6.43789L553.89 6.43789L552.768 6.43789L552.768 6.43789L553.6201 7.33203C 554.1721 7.91992 554.412 8.273829 554.412 8.79609C 554.412 9.42617 553.932 9.810161 553.404 9.810161C 553.056 9.810161 552.774 9.653911 552.594 9.45586L552.594 9.45586L552.252 8.96992L552.252 8.96992L552.384 8.85C 552.54 9.08398 552.792 9.40781 553.2 9.40781C 553.644 9.40781 553.908 9.11406 553.908 8.61016C 553.908 8.09414 553.53 7.60195 553.158 7.15781C 552.858 6.81016 552.522 6.46797 552.186 6.13789L552.186 6.13789L552.186 6L552.186 6L554.43 6C 554.502 6.26992 554.562 6.53398 554.64 6.78594z" stroke="#000000" stroke-width="0.4" fill="none" /><path id="1445" transform="matrix(1 0 0 -1 0 834)" d="M555.792 9.3L557.19 9.3L557.19 9.3L557.346 9.68984L557.346 9.68984L557.31 9.73789L557.31 9.73789L555.6 9.73789L555.6 9.73789L555.366 7.90781C 555.504 7.96211 555.732 8.028131 555.984 8.028131C 556.638 8.028131 556.962 7.65 556.962 7.121881C 556.962 6.67188 556.71 6.23398 556.2 6.23398C 555.834 6.23398 555.588 6.42617 555.462 6.53984C 555.402 6.58789 555.354 6.58203 555.3 6.53984C 555.234 6.48008 555.18 6.40195 555.174 6.34219C 555.162 6.26992 555.192 6.22188 555.27 6.13789C 555.36 6.05391 555.612 5.92813 555.888 5.92813C 556.206 5.93398 556.608 6.08984 556.932 6.35391C 557.298 6.65391 557.466 6.99609 557.466 7.35586C 557.466 7.84805 557.076 8.369921 556.308 8.369921C 556.146 8.369921 555.864 8.273829 555.636 8.18984z" stroke="#000000" stroke-width="0.4" fill="none" /><path id="1446" transform="matrix(1 0 0 -1 0 834)" d="M559.548 9.989841L559.212 9.989841L559.212 9.989841L557.91 5.73594L557.91 5.73594L558.246 5.73594z" stroke="#000000" stroke-width="0.4" fill="none" /><path id="1447" transform="matrix(1 0 0 -1 0 834)" d="M561.18 9.61211C 561.72 9.61211 561.8701 8.72383 561.8701 7.871881C 561.8701 7.03203 561.726 6.13203 561.186 6.13203C 560.664 6.13203 560.49 7.03789 560.49 7.87813C 560.49 8.712111 560.634 9.61211 561.18 9.61211zM561.186 9.810161C 560.286 9.810161 559.956 8.74219 559.956 7.86602C 559.956 6.91797 560.28 5.92813 561.186 5.92813C 562.086 5.92813 562.404 6.99609 562.404 7.871881C 562.404 8.79609 562.086 9.810161 561.186 9.810161z" stroke="#000000" stroke-width="0.4" fill="none" /><path id="1448" transform="matrix(1 0 0 -1 0 834)" d="M564 9.61211C 564.582 9.61211 564.738 8.86797 564.738 8.33984C 564.738 8.21992 564.732 8.076171 564.7141 7.94414C 564.588 7.84805 564.384 7.77617 564.174 7.77617C 563.67 7.77617 563.3701 8.214061 563.3701 8.74219C 563.3701 9.09609 563.538 9.61211 564 9.61211zM564.078 9.810161C 563.304 9.810161 562.854 9.10781 562.854 8.53203C 562.854 7.90195 563.292 7.43398 563.928 7.43398C 564.042 7.43398 564.156 7.45781 564.288 7.53008L564.288 7.53008L564.69 7.74609C 564.492 6.83398 563.838 6.23398 562.98 6.08984L562.98 6.08984L563.01 5.91016C 563.16 5.91016 563.526 5.96992 563.85 6.10195C 564.66 6.42617 565.2661 7.20586 565.2661 8.310161C 565.2661 9.12617 564.828 9.810161 564.078 9.810161z" stroke="#000000" stroke-width="0.4" fill="none" /><path id="1449" transform="matrix(1 0 0 -1 0 834)" d="M567.294 9.989841L566.958 9.989841L566.958 9.989841L565.656 5.73594L565.656 5.73594L565.992 5.73594z" stroke="#000000" stroke-width="0.4" fill="none" /><path id="1450" transform="matrix(1 0 0 -1 0 834)" d="M569.9641 6.83984C 569.784 6.46211 569.706 6.43789 569.382 6.43789L569.382 6.43789L568.26 6.43789L568.26 6.43789L569.112 7.33203C 569.664 7.91992 569.904 8.273829 569.904 8.79609C 569.904 9.42617 569.424 9.810161 568.896 9.810161C 568.548 9.810161 568.2661 9.653911 568.086 9.45586L568.086 9.45586L567.744 8.96992L567.744 8.96992L567.876 8.85C 568.032 9.08398 568.284 9.40781 568.692 9.40781C 569.136 9.40781 569.4 9.11406 569.4 8.61016C 569.4 8.09414 569.022 7.60195 568.65 7.15781C 568.35 6.81016 568.014 6.46797 567.678 6.13789L567.678 6.13789L567.678 6L567.678 6L569.9221 6C 569.994 6.26992 570.054 6.53398 570.132 6.78594z" stroke="#000000" stroke-width="0.4" fill="none" /><path id="1451" transform="matrix(1 0 0 -1 0 834)" d="M571.806 9.61211C 572.346 9.61211 572.496 8.72383 572.496 7.871881C 572.496 7.03203 572.352 6.13203 571.812 6.13203C 571.29 6.13203 571.116 7.03789 571.116 7.87813C 571.116 8.712111 571.26 9.61211 571.806 9.61211zM571.812 9.810161C 570.912 9.810161 570.582 8.74219 570.582 7.86602C 570.582 6.91797 570.906 5.92813 571.812 5.92813C 572.712 5.92813 573.03 6.99609 573.03 7.871881C 573.03 8.79609 572.712 9.810161 571.812 9.810161z" stroke="#000000" stroke-width="0.4" fill="none" /><path id="1452" transform="matrix(1 0 0 -1 0 834)" d="M575.556 6L575.556 6.16211C 575.01 6.20391 574.9741 6.25195 574.9741 6.68398L574.9741 6.68398L574.9741 9.810161C 574.644 9.67813 574.29 9.56406 573.906 9.49805L573.906 9.49805L573.906 9.36016L573.906 9.36016L574.194 9.34805C 574.458 9.33594 574.482 9.305861 574.482 8.99414L574.482 8.99414L574.482 6.68398C 574.482 6.25195 574.452 6.20391 573.906 6.16211L573.906 6.16211L573.906 6z" stroke="#000000" stroke-width="0.4" fill="none" /><path id="1453" transform="matrix(1 0 0 -1 0 834)" d="M578.814 9.73789L576.522 9.73789C 576.498 9.48008 576.468 9.180079 576.414 8.85L576.414 8.85L576.588 8.85C 576.732 9.24609 576.768 9.3 577.164 9.3L577.164 9.3L578.46 9.3C 577.986 8.25586 577.308 7.01406 576.678 5.99414L576.678 5.99414L576.72 5.92813L576.72 5.92813L577.164 5.98789C 577.74 7.22383 578.298 8.44805 578.862 9.66602z" stroke="#000000" stroke-width="0.4" fill="none" /><path id="1454" transform="matrix(1 0 0 -1 0 834)" d="M584.531 9.61211C 585.071 9.61211 585.221 8.72383 585.221 7.871881C 585.221 7.03203 585.077 6.13203 584.537 6.13203C 584.015 6.13203 583.841 7.03789 583.841 7.87813C 583.841 8.712111 583.985 9.61211 584.531 9.61211zM584.537 9.810161C 583.637 9.810161 583.307 8.74219 583.307 7.86602C 583.307 6.91797 583.631 5.92813 584.537 5.92813C 585.437 5.92813 585.755 6.99609 585.755 7.871881C 585.755 8.79609 585.437 9.810161 584.537 9.810161z" stroke="#000000" stroke-width="0.4" fill="none" /><path id="1455" transform="matrix(1 0 0 -1 0 834)" d="M588.449 6.83984C 588.269 6.46211 588.191 6.43789 587.867 6.43789L587.867 6.43789L586.7451 6.43789L586.7451 6.43789L587.597 7.33203C 588.149 7.91992 588.389 8.273829 588.389 8.79609C 588.389 9.42617 587.909 9.810161 587.381 9.810161C 587.033 9.810161 586.751 9.653911 586.571 9.45586L586.571 9.45586L586.229 8.96992L586.229 8.96992L586.361 8.85C 586.517 9.08398 586.769 9.40781 587.177 9.40781C 587.621 9.40781 587.885 9.11406 587.885 8.61016C 587.885 8.09414 587.507 7.60195 587.135 7.15781C 586.835 6.81016 586.499 6.46797 586.163 6.13789L586.163 6.13789L586.163 6L586.163 6L588.407 6C 588.479 6.26992 588.539 6.53398 588.617 6.78594z" stroke="#000000" stroke-width="0.4" fill="none" /><path id="1456" transform="matrix(1 0 0 -1 0 834)" d="M589.5471 5.92813C 589.739 5.92813 589.883 6.06602 589.883 6.27617C 589.883 6.46797 589.739 6.61797 589.5471 6.61797C 589.355 6.61797 589.211 6.46797 589.211 6.27617C 589.211 6.06602 589.355 5.92813 589.5471 5.92813zM589.541 8.466021C 589.3491 8.466021 589.211 8.328131 589.211 8.13008C 589.211 7.92617 589.3491 7.78203 589.541 7.78203C 589.733 7.78203 589.877 7.92617 589.877 8.13008C 589.877 8.328131 589.733 8.466021 589.541 8.466021z" stroke="#000000" stroke-width="0.4" fill="none" /><path id="1457" transform="matrix(1 0 0 -1 0 834)" d="M590.735 8.976171C 590.885 9.19805 591.125 9.45 591.455 9.45C 591.773 9.45 592.025 9.257811 592.025 8.88594C 592.025 8.44219 591.617 8.20781 591.065 8.03398L591.065 8.03398L591.107 7.86016C 591.203 7.88984 591.347 7.92617 591.491 7.92617C 591.833 7.92617 592.253 7.70391 592.253 7.15195C 592.253 6.55781 591.953 6.23984 591.527 6.23984C 591.185 6.23984 590.939 6.40781 590.783 6.54609C 590.735 6.58789 590.687 6.58203 590.639 6.54609C 590.585 6.50391 590.507 6.42617 590.501 6.34805C 590.489 6.27617 590.513 6.21016 590.597 6.13203C 590.675 6.06016 590.921 5.92813 591.197 5.92813C 591.629 5.92813 592.769 6.37188 592.769 7.34414C 592.769 7.78203 592.463 8.153911 591.935 8.25586L591.935 8.25586L591.935 8.26797C 592.109 8.38789 592.253 8.49609 592.343 8.59219C 592.457 8.70586 592.529 8.84414 592.529 9.01797C 592.529 9.47383 592.175 9.810161 591.635 9.810161C 591.317 9.810161 591.041 9.66016 590.873 9.47383L590.873 9.47383L590.609 9.09609z" stroke="#000000" stroke-width="0.4" fill="none" /><path id="1458" transform="matrix(1 0 0 -1 0 834)" d="M594.473 8.02188C 595.019 8.02188 595.271 7.53008 595.271 7.03203C 595.271 6.63594 595.127 6.13203 594.659 6.13203C 594.167 6.13203 593.861 6.719921 593.861 7.43984C 593.861 7.59609 593.867 7.73984 593.897 7.85391C 594.041 7.93203 594.2451 8.02188 594.473 8.02188zM593.927 8.057811C 594.107 8.89219 594.665 9.26992 595.031 9.44414C 595.253 9.54609 595.487 9.61797 595.685 9.653911L595.685 9.653911L595.643 9.84609C 595.403 9.80391 595.115 9.73789 594.875 9.653911C 594.239 9.419921 593.327 8.74219 593.327 7.428131C 593.327 6.50391 593.855 5.92813 594.557 5.92813C 595.277 5.92813 595.787 6.53398 595.787 7.24805C 595.787 7.86602 595.3491 8.35781 594.707 8.35781C 594.587 8.35781 594.461 8.31602 594.329 8.25586z" stroke="#000000" stroke-width="0.4" fill="none" /><path id="1459" transform="matrix(1 0 0 -1 0 834)" d="M596.675 5.92813C 596.867 5.92813 597.011 6.06602 597.011 6.27617C 597.011 6.46797 596.867 6.61797 596.675 6.61797C 596.483 6.61797 596.3391 6.46797 596.3391 6.27617C 596.3391 6.06602 596.483 5.92813 596.675 5.92813zM596.669 8.466021C 596.477 8.466021 596.3391 8.328131 596.3391 8.13008C 596.3391 7.92617 596.477 7.78203 596.669 7.78203C 596.861 7.78203 597.005 7.92617 597.005 8.13008C 597.005 8.328131 596.861 8.466021 596.669 8.466021z" stroke="#000000" stroke-width="0.4" fill="none" /><path id="1460" transform="matrix(1 0 0 -1 0 834)" d="M597.863 8.976171C 598.013 9.19805 598.253 9.45 598.583 9.45C 598.901 9.45 599.153 9.257811 599.153 8.88594C 599.153 8.44219 598.7451 8.20781 598.1931 8.03398L598.1931 8.03398L598.235 7.86016C 598.331 7.88984 598.475 7.92617 598.619 7.92617C 598.961 7.92617 599.381 7.70391 599.381 7.15195C 599.381 6.55781 599.081 6.23984 598.655 6.23984C 598.313 6.23984 598.067 6.40781 597.911 6.54609C 597.863 6.58789 597.815 6.58203 597.767 6.54609C 597.713 6.50391 597.635 6.42617 597.629 6.34805C 597.617 6.27617 597.6411 6.21016 597.725 6.13203C 597.803 6.06016 598.049 5.92813 598.325 5.92813C 598.757 5.92813 599.897 6.37188 599.897 7.34414C 599.897 7.78203 599.591 8.153911 599.063 8.25586L599.063 8.25586L599.063 8.26797C 599.237 8.38789 599.381 8.49609 599.471 8.59219C 599.585 8.70586 599.657 8.84414 599.657 9.01797C 599.657 9.47383 599.303 9.810161 598.763 9.810161C 598.445 9.810161 598.169 9.66016 598.001 9.47383L598.001 9.47383L597.737 9.09609z" stroke="#000000" stroke-width="0.4" fill="none" /><path id="1461" transform="matrix(1 0 0 -1 0 834)" d="M601.667 9.61211C 602.207 9.61211 602.357 8.72383 602.357 7.871881C 602.357 7.03203 602.213 6.13203 601.673 6.13203C 601.151 6.13203 600.977 7.03789 600.977 7.87813C 600.977 8.712111 601.121 9.61211 601.667 9.61211zM601.673 9.810161C 600.773 9.810161 600.4431 8.74219 600.4431 7.86602C 600.4431 6.91797 600.767 5.92813 601.673 5.92813C 602.573 5.92813 602.8911 6.99609 602.8911 7.871881C 602.8911 8.79609 602.573 9.810161 601.673 9.810161z" stroke="#000000" stroke-width="0.4" fill="none" /><path id="1462" transform="matrix(1 0 0 -1 0 834)" d="M605.489 8.08203C 605.651 8.20195 605.897 8.33398 606.0891 8.33398C 606.527 8.33398 606.893 7.97383 606.893 7.33203C 606.893 6.65391 606.557 6.22188 606.053 6.22188C 605.8491 6.22188 605.621 6.31797 605.489 6.45586zM605.489 8.28008L605.489 8.75391C 605.207 8.63984 604.871 8.53789 604.619 8.49609L604.619 8.49609L604.619 8.351951C 604.991 8.30391 605.015 8.29219 605.015 7.90195L605.015 7.90195L605.015 5.18984C 605.015 4.79414 604.961 4.75781 604.577 4.72188L604.577 4.72188L604.577 4.56016L604.577 4.56016L605.999 4.56016L605.999 4.56016L605.999 4.72188C 605.531 4.76406 605.489 4.79414 605.489 5.25L605.489 5.25L605.489 6.03594C 605.567 5.99414 605.729 5.93398 605.903 5.92813C 606.683 6.07188 607.397 6.65391 607.397 7.56016C 607.397 8.153911 607.001 8.69414 606.335 8.69414C 606.263 8.69414 606.149 8.664061 606.041 8.60391z" stroke="#000000" stroke-width="0.4" fill="none" /><path id="1463" transform="matrix(1 0 0 -1 0 834)" d="M608.303 5.92813C 608.4951 5.92813 608.639 6.06602 608.639 6.27617C 608.639 6.46797 608.4951 6.61797 608.303 6.61797C 608.111 6.61797 607.967 6.46797 607.967 6.27617C 607.967 6.06602 608.111 5.92813 608.303 5.92813z" stroke="#000000" stroke-width="0.4" fill="none" /><path id="1464" transform="matrix(1 0 0 -1 0 834)" d="M615.125 6L615.125 6.15586C 614.783 6.19219 614.735 6.21602 614.735 6.61797L614.735 6.61797L614.735 7.77617C 614.735 8.36406 614.441 8.69414 613.973 8.69414C 613.805 8.69414 613.649 8.621881 613.523 8.53789C 613.373 8.44805 613.199 8.33398 613.025 8.20195C 612.905 8.51406 612.647 8.69414 612.359 8.69414C 612.167 8.69414 612.023 8.628131 611.867 8.53203C 611.687 8.417971 611.555 8.310161 611.429 8.226171L611.429 8.226171L611.429 8.712111C 611.165 8.59219 610.859 8.51406 610.595 8.466021L610.595 8.466021L610.595 8.328131C 610.9431 8.273829 610.961 8.24414 610.961 7.86016L610.961 7.86016L610.961 6.61797C 610.961 6.22813 610.907 6.19219 610.511 6.15586L610.511 6.15586L610.511 6L610.511 6L611.777 6L611.777 6L611.777 6.15586C 611.483 6.19219 611.435 6.22813 611.435 6.61797L611.435 6.61797L611.435 8.028131C 611.615 8.17813 611.8491 8.33984 612.0891 8.33984C 612.455 8.33984 612.611 8.09414 612.611 7.65L612.611 7.65L612.611 6.61797C 612.611 6.22188 612.557 6.19219 612.185 6.15586L612.185 6.15586L612.185 6L612.185 6L613.469 6L613.469 6L613.469 6.15586C 613.139 6.19219 613.085 6.22813 613.085 6.60586L613.085 6.60586L613.085 7.77617C 613.085 7.88984 613.079 7.95586 613.067 8.028131C 613.295 8.21992 613.523 8.33984 613.739 8.33984C 614.117 8.33984 614.267 8.069921 614.267 7.64414L614.267 7.64414L614.267 6.64219C 614.267 6.21602 614.201 6.19219 613.847 6.15586L613.847 6.15586L613.847 6z" stroke="#000000" stroke-width="0.4" fill="none" /><path id="1465" transform="matrix(1 0 0 -1 0 834)" d="M615.947 5.92813C 616.139 5.92813 616.283 6.06602 616.283 6.27617C 616.283 6.46797 616.139 6.61797 615.947 6.61797C 615.755 6.61797 615.611 6.46797 615.611 6.27617C 615.611 6.06602 615.755 5.92813 615.947 5.92813z" stroke="#000000" stroke-width="0.4" fill="none" /></g></g></svg>