<svg xmlns="http://www.w3.org/2000/svg" xmlns:xlink="http://www.w3.org/1999/xlink" id="body_1" preserveAspectRatio="xMinYMin meet" viewBox="0 0 872 1112"><defs><clipPath id="1"><path id="" clip-rule="evenodd" transform="matrix(1 0 0 1 0 0)" d="M0 834L0 0L0 0L654 0L654 0L654 834L654 834L0 834z" /></clipPath><clipPath id="2"><path id="" clip-rule="evenodd" transform="matrix(1 0 0 1 0 0)" d="M21 813L633 813L633 813L633 21L633 21L21 21z" /></clipPath><clipPath id="3"><path id="" clip-rule="evenodd" transform="matrix(1 0 0 1 0 0)" d="M336.497 268.816L441.559 268.816L441.559 268.816L441.559 130.343L441.559 130.343L336.497 130.343z" /></clipPath><clipPath id="4"><path id="" clip-rule="evenodd" transform="matrix(1 0 0 1 0 0)" d="M336.497 268.816L441.559 268.816L441.559 268.816L441.559 130.343L441.559 130.343L336.497 130.343z" /></clipPath><clipPath id="5"><path id="" clip-rule="evenodd" transform="matrix(1 0 0 1 0 0)" d="M361.051 189.253L374.2678 189.253L374.2678 189.253L374.2678 183.5338L374.2678 183.5338L361.051 183.5338z" /></clipPath><clipPath id="6"><path id="" clip-rule="evenodd" transform="matrix(1 0 0 1 0 0)" d="M361.051 189.253L374.268 189.253L374.268 189.253L374.268 183.534L374.268 183.534L361.051 183.534z" /></clipPath><clipPath id="7"><path id="" clip-rule="evenodd" transform="matrix(1 0 0 1 0 0)" d="M361.051 189.253L374.2678 189.253L374.2678 189.253L374.2678 183.5338L374.2678 183.5338L361.051 183.5338z" /></clipPath><clipPath id="8"><path id="" clip-rule="evenodd" transform="matrix(1 0 0 1 0 0)" d="M369.322 194.991L371.0611 194.991L371.0611 194.991L371.0611 193.2679L371.0611 193.2679L369.322 193.2679z" /></clipPath><clipPath id="9"><path id="" clip-rule="evenodd" transform="matrix(1 0 0 1 0 0)" d="M369.322 194.991L371.061 194.991L371.061 194.991L371.061 193.268L371.061 193.268L369.322 193.268z" /></clipPath><clipPath id="10"><path id="" clip-rule="evenodd" transform="matrix(1 0 0 1 0 0)" d="M369.323 194.991L371.0609 194.991L371.0609 194.991L371.0609 193.2679L371.0609 193.2679L369.323 193.2679z" /></clipPath><clipPath id="11"><path id="" clip-rule="evenodd" transform="matrix(1 0 0 1 0 0)" d="M336.497 269.031L476.244 269.031L476.244 269.031L476.244 130.342L476.244 130.342L336.497 130.342z" /></clipPath><clipPath id="12"><path id="" clip-rule="evenodd" transform="matrix(1 0 0 1 0 0)" d="M430.543 205.805C 422.608 208.99 416.217 215.165 412.793 222.921L412.793 222.921L412.793 222.921L412.793 222.921L412.793 248.937C 417.855 260.404 429.404 268.418 442.842 268.418L442.842 268.418L442.842 268.418C 454.081 268.418 463.998 262.814 469.904 254.271L469.904 254.271L469.904 254.271L469.904 254.271L469.904 217.586C 466.284 212.35 461.156 208.218 455.142 205.805L455.142 205.805L455.142 205.805z" /></clipPath><clipPath id="13"><path id="" clip-rule="evenodd" transform="matrix(1 0 0 1 0 0)" d="M430.543 205.805C 422.608 208.99 416.217 215.165 412.793 222.921L412.793 222.921L412.793 222.921L412.793 222.921L412.793 248.937C 417.855 260.404 429.404 268.418 442.842 268.418L442.842 268.418L442.842 268.418C 454.081 268.418 463.998 262.814 469.904 254.271L469.904 254.271L469.904 254.271L469.904 254.271L469.904 217.586C 466.284 212.35 461.156 208.218 455.142 205.805L455.142 205.805L455.142 205.805z" /></clipPath><clipPath id="14"><path id="" clip-rule="evenodd" transform="matrix(1 0 0 1 0 0)" d="M336.497 269.031L476.244 269.031L476.244 269.031L476.244 130.342L476.244 130.342L336.497 130.342z" /></clipPath><clipPath id="15"><path id="" clip-rule="evenodd" transform="matrix(1 0 0 1 0 0)" d="M345.85 489.303L459.342 489.303L459.342 489.303L459.342 346.842L459.342 346.842L345.85 346.842z" /></clipPath><clipPath id="16"><path id="" clip-rule="evenodd" transform="matrix(1 0 0 1 0 0)" d="M345.85 489.303L459.342 489.303L459.342 489.303L459.342 346.842L459.342 346.842L345.85 346.842z" /></clipPath><clipPath id="17"><path id="" clip-rule="evenodd" transform="matrix(1 0 0 1 0 0)" d="M345.85 489.539L482.48 489.539L482.48 489.539L482.48 346.843L482.48 346.843L345.85 346.843z" /></clipPath><clipPath id="18"><path id="" clip-rule="evenodd" transform="matrix(1 0 0 1 0 0)" d="M417.391 457.53C 417.391 474.859 431.817 488.909 449.612 488.909L449.612 488.909L449.612 488.909C 467.407 488.909 481.833 474.859 481.833 457.53L481.833 457.53L481.833 457.53C 481.833 440.201 467.407 426.152 449.612 426.152L449.612 426.152L449.612 426.152C 431.817 426.152 417.391 440.201 417.391 457.53" /></clipPath><clipPath id="19"><path id="" clip-rule="evenodd" transform="matrix(1 0 0 1 0 0)" d="M417.391 457.53C 417.391 474.859 431.817 488.909 449.612 488.909L449.612 488.909L449.612 488.909C 467.407 488.909 481.833 474.859 481.833 457.53L481.833 457.53L481.833 457.53C 481.833 440.201 467.407 426.152 449.612 426.152L449.612 426.152L449.612 426.152C 431.817 426.152 417.391 440.201 417.391 457.53" /></clipPath><clipPath id="20"><path id="" clip-rule="evenodd" transform="matrix(1 0 0 1 0 0)" d="M345.85 489.539L482.48 489.539L482.48 489.539L482.48 346.843L482.48 346.843L345.85 346.843z" /></clipPath><clipPath id="21"><path id="" clip-rule="evenodd" transform="matrix(1 0 0 1 0 0)" d="M376.67 410.604L379.5442 410.604L379.5442 410.604L379.5442 394.863L379.5442 394.863L376.67 394.863z" /></clipPath><clipPath id="22"><path id="" clip-rule="evenodd" transform="matrix(1 0 0 1 0 0)" d="M376.67 410.604L379.544 410.604L379.544 410.604L379.544 394.863L379.544 394.863L376.67 394.863z" /></clipPath><clipPath id="23"><path id="" clip-rule="evenodd" transform="matrix(1 0 0 1 0 0)" d="M376.67 410.604L379.5431 410.604L379.5431 410.604L379.5431 394.8642L379.5431 394.8642L376.67 394.8642z" /></clipPath><clipPath id="24"><path id="" clip-rule="evenodd" transform="matrix(1 0 0 1 0 0)" d="M376.67 410.604L379.5442 410.604L379.5442 410.604L379.5442 394.863L379.5442 394.863L376.67 394.863z" /></clipPath><clipPath id="25"><path id="" clip-rule="evenodd" transform="matrix(1 0 0 1 0 0)" d="M423.593 410.183L426.3582 410.183L426.3582 410.183L426.3582 394.4611L426.3582 394.4611L423.593 394.4611z" /></clipPath><clipPath id="26"><path id="" clip-rule="evenodd" transform="matrix(1 0 0 1 0 0)" d="M423.593 410.183L426.358 410.183L426.358 410.183L426.358 394.461L426.358 394.461L423.593 394.461z" /></clipPath><clipPath id="27"><path id="" clip-rule="evenodd" transform="matrix(1 0 0 1 0 0)" d="M423.593 410.183L426.359 410.183L426.359 410.183L426.359 394.4603L426.359 394.4603L423.593 394.4603z" /></clipPath><clipPath id="28"><path id="" clip-rule="evenodd" transform="matrix(1 0 0 1 0 0)" d="M423.593 410.183L426.3582 410.183L426.3582 410.183L426.3582 394.4611L426.3582 394.4611L423.593 394.4611z" /></clipPath><clipPath id="29"><path id="" clip-rule="evenodd" transform="matrix(1 0 0 1 0 0)" d="M345.85 489.539L482.48 489.539L482.48 489.539L482.48 346.843L482.48 346.843L345.85 346.843z" /></clipPath><clipPath id="30"><path id="" clip-rule="evenodd" transform="matrix(1 0 0 1 0 0)" d="M441.707 463.947L444.7648 463.947L444.7648 463.947L444.7648 461.7603L444.7648 461.7603L441.707 461.7603z" /></clipPath><clipPath id="31"><path id="" clip-rule="evenodd" transform="matrix(1 0 0 1 0 0)" d="M441.707 463.947L444.765 463.947L444.765 463.947L444.765 461.76L444.765 461.76L441.707 461.76z" /></clipPath><clipPath id="32"><path id="" clip-rule="evenodd" transform="matrix(1 0 0 1 0 0)" d="M441.707 463.947L444.7652 463.947L444.7652 463.947L444.7652 461.7603L444.7652 461.7603L441.707 461.7603z" /></clipPath><clipPath id="33"><path id="" clip-rule="evenodd" transform="matrix(1 0 0 1 0 0)" d="M441.707 463.947L444.7648 463.947L444.7648 463.947L444.7648 461.761L444.7648 461.761L441.707 461.761z" /></clipPath><clipPath id="34"><path id="" clip-rule="evenodd" transform="matrix(1 0 0 1 0 0)" d="M442.634 458.965L445.8512 458.965L445.8512 458.965L445.8512 457.7763L445.8512 457.7763L442.634 457.7763z" /></clipPath><clipPath id="35"><path id="" clip-rule="evenodd" transform="matrix(1 0 0 1 0 0)" d="M442.634 458.965L445.851 458.965L445.851 458.965L445.851 457.776L445.851 457.776L442.634 457.776z" /></clipPath><clipPath id="36"><path id="" clip-rule="evenodd" transform="matrix(1 0 0 1 0 0)" d="M442.634 458.965L445.8512 458.965L445.8512 458.965L445.8512 457.7763L445.8512 457.7763L442.634 457.7763z" /></clipPath><clipPath id="37"><path id="" clip-rule="evenodd" transform="matrix(1 0 0 1 0 0)" d="M442.634 458.965L445.85 458.965L445.85 458.965L445.85 457.7763L445.85 457.7763L442.634 457.7763z" /></clipPath><clipPath id="38"><path id="" clip-rule="evenodd" transform="matrix(1 0 0 1 0 0)" d="M439.74 468.156L441.265 468.156L441.265 468.156L441.265 465.0212L441.265 465.0212L439.74 465.0212z" /></clipPath><clipPath id="39"><path id="" clip-rule="evenodd" transform="matrix(1 0 0 1 0 0)" d="M439.74 468.156L441.265 468.156L441.265 468.156L441.265 465.021L441.265 465.021L439.74 465.021z" /></clipPath><clipPath id="40"><path id="" clip-rule="evenodd" transform="matrix(1 0 0 1 0 0)" d="M439.74 468.156L441.2654 468.156L441.2654 468.156L441.2654 465.0212L441.2654 465.0212L439.74 465.0212z" /></clipPath><clipPath id="41"><path id="" clip-rule="evenodd" transform="matrix(1 0 0 1 0 0)" d="M439.74 468.156L441.265 468.156L441.265 468.156L441.265 465.0212L441.265 465.0212L439.74 465.0212z" /></clipPath><clipPath id="42"><path id="" clip-rule="evenodd" transform="matrix(1 0 0 1 0 0)" d="M455.416 464.174L458.6379 464.174L458.6379 464.174L458.6379 462.8392L458.6379 462.8392L455.416 462.8392z" /></clipPath><clipPath id="43"><path id="" clip-rule="evenodd" transform="matrix(1 0 0 1 0 0)" d="M455.416 464.174L458.638 464.174L458.638 464.174L458.638 462.839L458.638 462.839L455.416 462.839z" /></clipPath><clipPath id="44"><path id="" clip-rule="evenodd" transform="matrix(1 0 0 1 0 0)" d="M455.416 464.174L458.6379 464.174L458.6379 464.174L458.6379 462.8392L458.6379 462.8392L455.416 462.8392z" /></clipPath><clipPath id="45"><path id="" clip-rule="evenodd" transform="matrix(1 0 0 1 0 0)" d="M456.019 469.099L459.126 469.099L459.126 469.099L459.126 467.0302L459.126 467.0302L456.019 467.0302z" /></clipPath><clipPath id="46"><path id="" clip-rule="evenodd" transform="matrix(1 0 0 1 0 0)" d="M456.019 469.099L459.126 469.099L459.126 469.099L459.126 467.03L459.126 467.03L456.019 467.03z" /></clipPath><clipPath id="47"><path id="" clip-rule="evenodd" transform="matrix(1 0 0 1 0 0)" d="M456.019 469.099L459.126 469.099L459.126 469.099L459.126 467.0302L459.126 467.0302L456.019 467.0302z" /></clipPath><clipPath id="48"><path id="" clip-rule="evenodd" transform="matrix(1 0 0 1 0 0)" d="M457.181 460.569L459.547 460.569L459.547 460.569L459.547 457.6479L459.547 457.6479L457.181 457.6479z" /></clipPath><clipPath id="49"><path id="" clip-rule="evenodd" transform="matrix(1 0 0 1 0 0)" d="M457.181 460.569L459.547 460.569L459.547 460.569L459.547 457.648L459.547 457.648L457.181 457.648z" /></clipPath><clipPath id="50"><path id="" clip-rule="evenodd" transform="matrix(1 0 0 1 0 0)" d="M457.181 460.569L459.547 460.569L459.547 460.569L459.547 457.6479L459.547 457.6479L457.181 457.6479z" /></clipPath><clipPath id="51"><path id="" clip-rule="evenodd" transform="matrix(1 0 0 1 0 0)" d="M261.165 400.85L298.8662 400.85L298.8662 400.85L298.8662 343.9328L298.8662 343.9328L261.165 343.9328z" /></clipPath><clipPath id="52"><path id="" clip-rule="evenodd" transform="matrix(1 0 0 1 0 0)" d="M261.165 400.85L298.8662 400.85L298.8662 400.85L298.8662 343.9328L298.8662 343.9328L261.165 343.9328z" /></clipPath><clipPath id="53"><path id="" clip-rule="evenodd" transform="matrix(1 0 0 1 0 0)" d="M321.581 176.2339L347.1783 176.2339L347.1783 176.2339L347.1783 140.375L347.1783 140.375L321.581 140.375z" /></clipPath><clipPath id="54"><path id="" clip-rule="evenodd" transform="matrix(1 0 0 1 0 0)" d="M321.581 176.2339L347.1783 176.2339L347.1783 176.2339L347.1783 140.375L347.1783 140.375L321.581 140.375z" /></clipPath><clipPath id="55"><path id="" clip-rule="evenodd" transform="matrix(1 0 0 1 0 0)" d="M307.572 443.787L335.5712 443.787L335.5712 443.787L335.5712 404.1011L335.5712 404.1011L307.572 404.1011z" /></clipPath><clipPath id="56"><path id="" clip-rule="evenodd" transform="matrix(1 0 0 1 0 0)" d="M307.572 443.787L335.5712 443.787L335.5712 443.787L335.5712 404.1011L335.5712 404.1011L307.572 404.1011z" /></clipPath><clipPath id="57"><path id="" clip-rule="evenodd" transform="matrix(1 0 0 1 0 0)" d="M305.85 483.472L333.0422 483.472L333.0422 483.472L333.0422 452.2911L333.0422 452.2911L305.85 452.2911z" /></clipPath><clipPath id="58"><path id="" clip-rule="evenodd" transform="matrix(1 0 0 1 0 0)" d="M305.85 483.472L333.0422 483.472L333.0422 483.472L333.0422 452.2911L333.0422 452.2911L305.85 452.2911z" /></clipPath><clipPath id="59"><path id="" clip-rule="evenodd" transform="matrix(1 0 0 1 0 0)" d="M404.927 659.249L408.3809 659.249L408.3809 659.249L408.3809 655.7951L408.3809 655.7951L404.927 655.7951z" /></clipPath><clipPath id="60"><path id="" clip-rule="evenodd" transform="matrix(1 0 0 1 0 0)" d="M404.927 659.249L408.381 659.249L408.381 659.249L408.381 655.795L408.381 655.795L404.927 655.795z" /></clipPath><clipPath id="61"><path id="" clip-rule="evenodd" transform="matrix(1 0 0 1 0 0)" d="M404.927 659.249L408.3809 659.249L408.3809 659.249L408.3809 655.7951L408.3809 655.7951L404.927 655.7951z" /></clipPath><clipPath id="62"><path id="" clip-rule="evenodd" transform="matrix(1 0 0 1 0 0)" d="M402.107 694.669L421.139 694.669L421.139 694.669L421.139 689.6288L421.139 689.6288L402.107 689.6288z" /></clipPath><clipPath id="63"><path id="" clip-rule="evenodd" transform="matrix(1 0 0 1 0 0)" d="M402.107 694.669L421.139 694.669L421.139 694.669L421.139 689.629L421.139 689.629L402.107 689.629z" /></clipPath><clipPath id="64"><path id="" clip-rule="evenodd" transform="matrix(1 0 0 1 0 0)" d="M402.107 694.669L421.1379 694.669L421.1379 694.669L421.1379 689.6288L421.1379 689.6288L402.107 689.6288z" /></clipPath><clipPath id="65"><path id="" clip-rule="evenodd" transform="matrix(1 0 0 1 0 0)" d="M402.107 694.669L421.139 694.669L421.139 694.669L421.139 689.6288L421.139 689.6288L402.107 689.6288z" /></clipPath><clipPath id="66"><path id="" clip-rule="evenodd" transform="matrix(1 0 0 1 0 0)" d="M258.826 605.926L301.203 605.926L301.203 605.926L301.203 554.2807L301.203 554.2807L258.826 554.2807z" /></clipPath><clipPath id="67"><path id="" clip-rule="evenodd" transform="matrix(1 0 0 1 0 0)" d="M258.826 605.926L301.203 605.926L301.203 605.926L301.203 554.2807L301.203 554.2807L258.826 554.2807z" /></clipPath><clipPath id="68"><path id="" clip-rule="evenodd" transform="matrix(1 0 0 1 0 0)" d="M308.433 684.877L340.7475 684.877L340.7475 684.877L340.7475 645.6872L340.7475 645.6872L308.433 645.6872z" /></clipPath><clipPath id="69"><path id="" clip-rule="evenodd" transform="matrix(1 0 0 1 0 0)" d="M308.433 684.877L340.7475 684.877L340.7475 684.877L340.7475 645.6872L340.7475 645.6872L308.433 645.6872z" /></clipPath><clipPath id="70"><path id="" clip-rule="evenodd" transform="matrix(1 0 0 1 0 0)" d="M455.749 177.756L481.3463 177.756L481.3463 177.756L481.3463 139.9802L481.3463 139.9802L455.749 139.9802z" /></clipPath><clipPath id="71"><path id="" clip-rule="evenodd" transform="matrix(1 0 0 1 0 0)" d="M455.749 177.756L481.3463 177.756L481.3463 177.756L481.3463 139.9802L481.3463 139.9802L455.749 139.9802z" /></clipPath><clipPath id="72"><path id="" clip-rule="evenodd" transform="matrix(1 0 0 1 0 0)" d="M486.554 440.534L514.9532 440.534L514.9532 440.534L514.9532 400.8488L514.9532 400.8488L486.554 400.8488z" /></clipPath><clipPath id="73"><path id="" clip-rule="evenodd" transform="matrix(1 0 0 1 0 0)" d="M486.554 440.534L514.9532 440.534L514.9532 440.534L514.9532 400.8488L514.9532 400.8488L486.554 400.8488z" /></clipPath><clipPath id="74"><path id="" clip-rule="evenodd" transform="matrix(1 0 0 1 0 0)" d="M489.284 481.488L516.4762 481.488L516.4762 481.488L516.4762 449.745L516.4762 449.745L489.284 449.745z" /></clipPath><clipPath id="75"><path id="" clip-rule="evenodd" transform="matrix(1 0 0 1 0 0)" d="M489.284 481.488L516.4762 481.488L516.4762 481.488L516.4762 449.745L516.4762 449.745L489.284 449.745z" /></clipPath></defs><g transform="matrix(1.333333 0 0 1.333333 0 0)"><g clip-path="url(#1)"><g clip-path="url(#2)"><path id="1" transform="matrix(1 0 0 -1 0 834)" d="M91.866 67.4211L562.134 67.4211L562.134 74.92501L91.866 74.92501z" stroke="none" fill="#686868" fill-rule="nonzero" /><path id="2" transform="matrix(1 0 0 -1 0 834)" d="M562.134 526.984L91.866 526.984" stroke="#686868" stroke-width="1" fill="none" /><path id="3" transform="matrix(1 0 0 -1 0 834)" d="M562.134 307.016L91.866 307.016" stroke="#686868" stroke-width="1" fill="none" /></g><g clip-path="url(#3)"></g><g clip-path="url(#4)"><g transform="matrix(1.000591 0 0 1.003428 336.497 130.343)"><g transform="matrix(1 0 0 1 0 0)"><image x="0" y="0" xlink:href="img_01.png" width="105" height="138" /></g></g></g><g clip-path="url(#5)"><g><g clip-path="url(#6)"><g clip-path="url(#7)"><path id="8" transform="matrix(1 0 0 -1 0 834)" d="M372.2225 645.9079C 365.8158 646.546 361.3528 647.5873 361.396 648.5798C 361.4272 649.2966 363.8068 649.8411 367.5566 650.1248" stroke="#FFFFFF" stroke-width="0.6883005" fill="none" stroke-opacity="0.8" /><path id="9" transform="matrix(1 0 0 -1 0 834)" d="M371.799 645.954L371.379 647.262L374.268 645.7241L371.141 644.747z" stroke="none" fill="#FFFFFF" fill-rule="nonzero" fill-opacity="0.8" /></g></g></g></g><g clip-path="url(#8)"><g><g clip-path="url(#9)"><g clip-path="url(#10)"><path id="10" transform="matrix(1 0 0 -1 0 834)" d="M369.323 639.871C 369.323 639.395 369.712 639.01 370.192 639.01C 370.671 639.01 371.061 639.395 371.061 639.871C 371.061 640.347 370.671 640.732 370.192 640.732C 369.712 640.732 369.323 640.347 369.323 639.871" stroke="none" fill="#FFFFFF" fill-rule="nonzero" fill-opacity="0.8" /></g></g></g></g><g clip-path="url(#11)"><path id="11" transform="matrix(1 0 0 -1 0 834)" d="M410.06 598.071C 410.06 580.128 424.738 565.582 442.843 565.582C 460.948 565.582 475.625 580.128 475.625 598.071C 475.625 616.014 460.948 630.56 442.843 630.56C 424.738 630.56 410.06 616.014 410.06 598.071" stroke="none" fill="#FFFFFF" fill-rule="nonzero" /></g><g clip-path="url(#12)"></g><g clip-path="url(#13)"><g transform="matrix(1.001942 0 0 0.9975942 412.793 205.8039)"><g transform="matrix(1 0 0 1 0 0)"><image x="0" y="0" xlink:href="img_02.png" width="57" height="86" /></g></g></g><g clip-path="url(#14)"><path id="13" transform="matrix(1 0 0 -1 0 834)" d="M410.061 598.0711C 410.061 580.1282 424.7378 565.5819 442.8429 565.5819C 460.948 565.5819 475.6258 580.1282 475.6258 598.0711C 475.6258 616.014 460.948 630.5593 442.8429 630.5593C 424.7378 630.5593 410.061 616.014 410.061 598.0711z" stroke="#000000" stroke-width="0.6883005" fill="none" /></g><g clip-path="url(#15)"></g><g clip-path="url(#16)"><g transform="matrix(1.004354 0 0 1.003246 345.85 346.843)"><g transform="matrix(1 0 0 1 0 0)"><image x="0" y="0" xlink:href="img_03.png" width="113" height="142" /></g></g></g><g clip-path="url(#17)"><path id="15" transform="matrix(1 0 0 -1 0 834)" d="M417.391 376.469C 417.391 359.139 431.816 345.091 449.611 345.091C 467.407 345.091 481.832 359.139 481.832 376.469C 481.832 393.799 467.407 407.847 449.611 407.847C 431.816 407.847 417.391 393.799 417.391 376.469" stroke="none" fill="#FFFFFF" fill-rule="nonzero" /></g><g clip-path="url(#18)"></g><g clip-path="url(#19)"><g transform="matrix(0.9969515 0 0 1.001139 417.305 424.4692)"><g transform="matrix(1 0 0 1 0 0)"><image x="0" y="0" xlink:href="img_04.png" width="68" height="85" /></g></g></g><g clip-path="url(#20)"><path id="17" transform="matrix(1 0 0 -1 0 834)" d="M417.388 376.469C 417.388 359.1388 431.8137 345.0914 449.6084 345.0914C 467.4041 345.0914 481.8297 359.1388 481.8297 376.469C 481.8297 393.7983 467.4041 407.8466 449.6084 407.8466C 431.8137 407.8466 417.388 393.7983 417.388 376.469z" stroke="#000000" stroke-width="0.7192109" fill="none" /></g><g clip-path="url(#21)"><g><g clip-path="url(#22)"><g clip-path="url(#23)"><path id="18" transform="matrix(1 0 0 -1 0 834)" d="M376.9685 438.9449C 376.9685 438.9449 381.1411 432.7304 377.924 425.2686" stroke="#FFFFFF" stroke-width="0.7192109" fill="none" stroke-opacity="0.8" /></g><g clip-path="url(#24)"><path id="19" transform="matrix(1 0 0 -1 0 834)" d="M376.972 423.396L377.146 426.728L378.099 425.668L379.545 425.6" stroke="none" fill="#FFFFFF" fill-rule="nonzero" fill-opacity="0.8" /></g></g></g></g><g clip-path="url(#25)"><g><g clip-path="url(#26)"><g clip-path="url(#27)"><path id="20" transform="matrix(1 0 0 -1 0 834)" d="M426.0433 439.3653C 426.0433 439.3653 422.4077 433.1755 425.1901 425.7344" stroke="#FFFFFF" stroke-width="0.7192109" fill="none" stroke-opacity="0.8" /></g><g clip-path="url(#28)"><path id="21" transform="matrix(1 0 0 -1 0 834)" d="M426.046 423.816L423.593 426.145L425.039 426.141L426.046 427.153" stroke="none" fill="#FFFFFF" fill-rule="nonzero" fill-opacity="0.8" /></g></g></g></g><g clip-path="url(#29)"><path id="22" transform="matrix(1 0 0 -1 0 834)" d="M372.717 458.965C 370.618 458.965 368.916 457.308 368.916 455.264C 368.916 453.219 370.618 451.562 372.717 451.562C 374.817 451.562 376.519 453.219 376.519 455.264C 376.519 457.308 374.817 458.965 372.717 458.965M372.717 452.012C 370.885 452.012 369.399 453.458 369.399 455.243C 369.399 457.028 370.885 458.475 372.717 458.475C 374.55 458.475 376.036 457.028 376.036 455.243C 376.036 453.458 374.55 452.012 372.717 452.012" stroke="none" fill="#000000" fill-rule="nonzero" /><path id="24" transform="matrix(1 0 0 -1 0 834)" d="M433.337 389.731C 431.238 389.731 429.536 388.073 429.536 386.029C 429.536 383.984 431.238 382.327 433.337 382.327C 435.436 382.327 437.138 383.984 437.138 386.029C 437.138 388.073 435.436 389.731 433.337 389.731M433.337 382.777C 431.504 382.777 430.019 384.224 430.019 386.009C 430.019 387.793 431.504 389.24 433.337 389.24C 435.17 389.24 436.655 387.793 436.655 386.009C 436.655 384.224 435.17 382.777 433.337 382.777" stroke="none" fill="#000000" fill-rule="nonzero" /></g><g clip-path="url(#30)"><g><g clip-path="url(#31)"><g clip-path="url(#32)"><path id="26" transform="matrix(1 0 0 -1 0 834)" d="M441.893 371.94L444.578 370.353" stroke="none" fill="#000000" fill-rule="nonzero" fill-opacity="0.8" /></g><g clip-path="url(#33)"><path id="27" transform="matrix(1 0 0 -1 0 834)" d="M441.8905 371.9398L444.5756 370.3522" stroke="#FFFFFF" stroke-width="0.7192109" fill="none" stroke-opacity="0.8" /></g></g></g></g><g clip-path="url(#34)"><g><g clip-path="url(#35)"><g clip-path="url(#36)"><path id="28" transform="matrix(1 0 0 -1 0 834)" d="M445.793 375.878L442.693 375.38" stroke="none" fill="#000000" fill-rule="nonzero" fill-opacity="0.8" /></g><g clip-path="url(#37)"><path id="29" transform="matrix(1 0 0 -1 0 834)" d="M442.6899 375.3787L445.7895 375.877" stroke="#FFFFFF" stroke-width="0.7192109" fill="none" stroke-opacity="0.8" /></g></g></g></g><g clip-path="url(#38)"><g><g clip-path="url(#39)"><g clip-path="url(#40)"><path id="30" transform="matrix(1 0 0 -1 0 834)" d="M440.086 368.885L440.918 365.935" stroke="none" fill="#000000" fill-rule="nonzero" fill-opacity="0.8" /></g><g clip-path="url(#41)"><path id="31" transform="matrix(1 0 0 -1 0 834)" d="M440.0839 368.8849L440.9147 365.9345" stroke="#FFFFFF" stroke-width="0.7192109" fill="none" stroke-opacity="0.8" /></g></g></g></g><g clip-path="url(#42)"><g><g clip-path="url(#43)"><g clip-path="url(#44)"><path id="32" transform="matrix(1 0 0 -1 0 834)" d="M455.493 370.818L458.563 370.168" stroke="none" fill="#000000" fill-rule="nonzero" fill-opacity="0.8" /><path id="33" transform="matrix(1 0 0 -1 0 834)" d="M458.5584 370.1676L455.4893 370.8189" stroke="#FFFFFF" stroke-width="0.7192109" fill="none" stroke-opacity="0.8" /></g></g></g></g><g clip-path="url(#45)"><g><g clip-path="url(#46)"><g clip-path="url(#47)"><path id="34" transform="matrix(1 0 0 -1 0 834)" d="M458.954 366.662L456.189 365.21" stroke="none" fill="#000000" fill-rule="nonzero" fill-opacity="0.8" /><path id="35" transform="matrix(1 0 0 -1 0 834)" d="M458.9516 366.6617L456.1874 365.2092" stroke="#FFFFFF" stroke-width="0.7192109" fill="none" stroke-opacity="0.8" /></g></g></g></g><g clip-path="url(#48)"><g><g clip-path="url(#49)"><g clip-path="url(#50)"><path id="36" transform="matrix(1 0 0 -1 0 834)" d="M457.478 376.154L459.25 373.628" stroke="none" fill="#000000" fill-rule="nonzero" fill-opacity="0.8" /><path id="37" transform="matrix(1 0 0 -1 0 834)" d="M459.2474 373.6282L457.4763 376.1542" stroke="#FFFFFF" stroke-width="0.7192109" fill="none" stroke-opacity="0.8" /></g></g></g></g><g transform="matrix(1.009614 0 0 0.9985386 265.881 111.9173)"><g transform="matrix(1 0 0 1 0 0)"><image x="0" y="0" xlink:href="img_05.png" width="28" height="57" /></g></g><g clip-path="url(#51)"></g><g clip-path="url(#52)"><g transform="matrix(0.9921263 0 0 0.9934999 261.165 343.58)"><g transform="matrix(1 0 0 1 0 0)"><image x="0" y="0" xlink:href="img_06.png" width="38" height="58" /></g></g></g><g clip-path="url(#53)"></g><g clip-path="url(#54)"><g transform="matrix(1.022244 0 0 0.9970106 320.58 139.3656)"><g transform="matrix(1 0 0 1 0 0)"><image x="0" y="0" xlink:href="img_07.png" width="27" height="38" /></g></g></g><g clip-path="url(#55)"></g><g clip-path="url(#56)"><g transform="matrix(1.000697 0 0 1.017183 306.555 403.0995)"><g transform="matrix(1 0 0 1 0 0)"><image x="0" y="0" xlink:href="img_08.png" width="30" height="41" /></g></g></g><g clip-path="url(#57)"></g><g clip-path="url(#58)"><g transform="matrix(1.007122 0 0 1.006584 305.85 452.2903)"><g transform="matrix(1 0 0 1 0 0)"><image x="0" y="0" xlink:href="img_09.png" width="27" height="32" /></g></g></g><g transform="matrix(1.003479 0 0 0.9989656 368.674 565.819)"><g transform="matrix(1 0 0 1 0 0)"><image x="0" y="0" xlink:href="img_10.png" width="85" height="145" /></g></g><g clip-path="url(#59)"><g><g clip-path="url(#60)"><g clip-path="url(#61)"><path id="1134" transform="matrix(1 0 0 -1 0 834)" d="M408.381 176.478C 408.381 175.524 407.608 174.751 406.654 174.751C 405.7 174.751 404.927 175.524 404.927 176.478C 404.927 177.432 405.7 178.205 406.654 178.205C 407.608 178.205 408.381 177.432 408.381 176.478" stroke="none" fill="#FFFFFF" fill-rule="nonzero" fill-opacity="0.8" /></g></g></g></g><g clip-path="url(#62)"><g><g clip-path="url(#63)"><g clip-path="url(#64)"><path id="1135" transform="matrix(1 0 0 -1 0 834)" d="M418.781 142.274C 415.92 140.234 410.705 138.019 404.537 142.354" stroke="#FFFFFF" stroke-width="1.057" fill="none" stroke-opacity="0.8" /></g><g clip-path="url(#65)"><path id="1136" transform="matrix(1 0 0 -1 0 834)" d="M416.339 142.844L418.244 141.896L418.884 139.867L421.139 144.371z" stroke="none" fill="#FFFFFF" fill-rule="nonzero" fill-opacity="0.8" /><path id="1137" transform="matrix(1 0 0 -1 0 834)" d="M404.487 139.932L405.07 141.978L406.948 142.978L402.107 144.371z" stroke="none" fill="#FFFFFF" fill-rule="nonzero" fill-opacity="0.8" /></g></g></g></g><g clip-path="url(#66)"></g><g clip-path="url(#67)"><g transform="matrix(1.008969 0 0 1.012631 258.827 554.2818)"><g transform="matrix(1 0 0 1 0 0)"><image x="0" y="0" xlink:href="img_11.png" width="42" height="51" /></g></g></g><g clip-path="url(#68)"></g><g clip-path="url(#69)"><g transform="matrix(1.009721 0 0 1.004761 307.422 644.6838)"><g transform="matrix(1 0 0 1 0 0)"><image x="0" y="0" xlink:href="img_12.png" width="34" height="41" /></g></g></g><g clip-path="url(#70)"></g><g clip-path="url(#71)"><g transform="matrix(-1.022244 0 0 0.995 482.347 138.97)"><g transform="matrix(1 0 0 1 0 0)"><image x="0" y="0" xlink:href="img_13.png" width="27" height="40" /></g></g></g><g clip-path="url(#72)"></g><g clip-path="url(#73)"><g transform="matrix(-1.013897 0 0 1.017183 515.971 399.8475)"><g transform="matrix(1 0 0 1 0 0)"><image x="0" y="0" xlink:href="img_14.png" width="30" height="41" /></g></g></g><g clip-path="url(#74)"></g><g clip-path="url(#75)"><g transform="matrix(-1.007122 0 0 1.023269 516.476 449.7444)"><g transform="matrix(1 0 0 1 0 0)"><image x="0" y="0" xlink:href="img_15.png" width="27" height="32" /></g></g></g><path id="1209" transform="matrix(1 0 0 -1 0 834)" d="M633 15L633 0M633 819L633 834M21 15L21 0M21 819L21 834M639 21L654 21M15 21L0 21M639 813L654 813M15 813L0 813" stroke="#000000" stroke-width="1.25" fill="none" /><path id="1210" transform="matrix(1 0 0 -1 0 834)" d="M633 15L633 0M633 819L633 834M21 15L21 0M21 819L21 834M639 21L654 21M15 21L0 21M639 813L654 813M15 813L0 813" stroke="#000000" stroke-width="0.25" fill="none" /><path id="1211" transform="matrix(1 0 0 -1 0 834)" d="M32.2781 9.28203C 32.2781 9.516021 32.2961 9.58203 32.3559 9.62383C 32.416 9.66602 32.5719 9.69609 32.8238 9.69609C 33.2262 9.69609 33.5738 9.62383 33.8441 9.45C 34.3238 9.167971 34.552 8.63398 34.552 8.016021C 34.552 7.05586 34.0359 6.21602 32.9141 6.21602C 32.4762 6.21602 32.2781 6.33008 32.2781 6.78594zM31.252 9.900001L31.252 9.726171C 31.7141 9.68984 31.7621 9.66602 31.7621 9.150001L31.7621 9.150001L31.7621 6.74414C 31.7621 6.23398 31.7141 6.19805 31.198 6.16211L31.198 6.16211L31.198 6L31.198 6L32.6199 6C 33.3578 6 33.952 6.15 34.402 6.49805C 34.8641 6.84609 35.1398 7.38008 35.1398 8.1C 35.1398 8.664061 34.9301 9.101951 34.6359 9.38984C 34.2641 9.74414 33.7 9.900001 32.9379 9.900001z" stroke="#000000" stroke-width="0.4" fill="none" /><path id="1212" transform="matrix(1 0 0 -1 0 834)" d="M38.3801 6.97813C 38.2898 6.70195 38.1758 6.51016 38.0738 6.38984C 37.9359 6.23398 37.732 6.20391 37.402 6.20391C 37.15 6.20391 36.9461 6.21602 36.8258 6.28203C 36.718 6.34219 36.6879 6.46211 36.6879 6.78594L36.6879 6.78594L36.6879 9.15586C 36.6879 9.66602 36.7418 9.69609 37.216 9.73203L37.216 9.73203L37.216 9.900001L37.216 9.900001L35.65 9.900001L35.65 9.900001L35.65 9.73203C 36.1359 9.69609 36.1777 9.66602 36.1777 9.15586L36.1777 9.15586L36.1777 6.75586C 36.1777 6.24609 36.1301 6.20391 35.6258 6.16797L35.6258 6.16797L35.6258 6L35.6258 6L38.3438 6C 38.398 6.18594 38.5238 6.75586 38.5598 6.94219z" stroke="#000000" stroke-width="0.4" fill="none" /><path id="1213" transform="matrix(1 0 0 -1 0 834)" d="M41.0918 9.023829C 41.0438 9.40195 41.0141 9.63594 40.9898 9.851951C 40.7617 9.92383 40.5098 9.989841 40.234 9.989841C 39.4598 9.989841 38.998 9.49805 38.998 8.921881C 38.998 8.24414 39.6039 7.94414 39.9879 7.73984C 40.4379 7.5 40.768 7.28984 40.768 6.84609C 40.768 6.40781 40.498 6.12617 40.048 6.12617C 39.4301 6.12617 39.1598 6.73203 39.0641 7.09805L39.0641 7.09805L38.8898 7.05586C 38.9258 6.767971 39.0039 6.25195 39.052 6.12617C 39.1059 6.09609 39.1961 6.05391 39.3461 6C 39.4961 5.95781 39.6879 5.91016 39.934 5.91016C 40.732 5.91016 41.266 6.41406 41.266 7.04414C 41.266 7.71602 40.6961 7.99805 40.2277 8.23789C 39.7539 8.48398 39.466 8.68789 39.466 9.12617C 39.466 9.45 39.6699 9.78594 40.132 9.78594C 40.6539 9.78594 40.8098 9.371881 40.918 8.98789z" stroke="#000000" stroke-width="0.4" fill="none" /><path id="1214" transform="matrix(1 0 0 -1 0 834)" d="M46.648 6L46.648 6.16797C 46.1258 6.21602 46.1078 6.24609 46.0898 6.88203L46.0898 6.88203L46.0301 9.05391C 46.0117 9.671881 46.0539 9.68398 46.582 9.73203L46.582 9.73203L46.582 9.900001L46.582 9.900001L45.5617 9.900001L45.5617 9.900001L44.1758 6.9L44.1758 6.9L42.8078 9.900001L42.8078 9.900001L41.8238 9.900001L41.8238 9.900001L41.8238 9.73203C 42.3699 9.67813 42.4 9.653911 42.3461 8.87383L42.3461 8.87383L42.2617 7.626171C 42.2141 7.00195 42.1777 6.73789 42.148 6.528131C 42.1059 6.27617 41.9859 6.21016 41.6379 6.16797L41.6379 6.16797L41.6379 6L41.6379 6L43.0359 6L43.0359 6L43.0359 6.16797C 42.6398 6.21016 42.4961 6.25195 42.484 6.53984C 42.4777 6.78008 42.4777 7.04414 42.502 7.53594L42.502 7.53594L42.5918 9.24609L42.5918 9.24609L42.6039 9.24609L42.6039 9.24609L43.948 6.04219L43.948 6.04219L44.068 6.04219L44.068 6.04219L45.532 9.33008L45.532 9.33008L45.5559 9.33008L45.5559 9.33008L45.5738 6.88203C 45.5801 6.24609 45.5559 6.21602 45.0699 6.16797L45.0699 6.16797L45.0699 6z" stroke="#000000" stroke-width="0.4" fill="none" /><path id="1215" transform="matrix(1 0 0 -1 0 834)" d="M51.8738 7.05586C 51.5738 6.45586 51.2496 6.12617 50.6379 6.12617C 49.7258 6.12617 49.0656 6.89414 49.0656 8.016021C 49.0656 8.92813 49.5996 9.773829 50.602 9.773829C 51.2496 9.773829 51.6098 9.516021 51.7656 8.88008L51.7656 8.88008L51.9457 8.921881C 51.9098 9.24609 51.8738 9.48594 51.8258 9.828131C 51.6578 9.85781 51.2496 9.989841 50.7637 9.989841C 49.4258 9.989841 48.4539 9.15586 48.4539 7.89609C 48.4539 6.94219 49.1078 5.91016 50.602 5.91016C 51.034 5.91016 51.5379 6.03008 51.7059 6.07188C 51.8137 6.26992 51.9637 6.71406 52.0477 6.98984z" stroke="#000000" stroke-width="0.4" fill="none" /><path id="1216" transform="matrix(1 0 0 -1 0 834)" d="M54.3398 9.773829C 55.1258 9.773829 55.7855 9.101951 55.7855 7.83594C 55.7855 6.68398 55.1855 6.12617 54.5195 6.12617C 53.6738 6.12617 53.0559 6.94805 53.0559 8.076171C 53.0559 9.19805 53.6676 9.773829 54.3398 9.773829zM54.4598 9.989841C 53.1996 9.989841 52.4438 8.98789 52.4438 7.90781C 52.4438 6.75586 53.3078 5.91016 54.3938 5.91016C 55.4918 5.91016 56.3977 6.70195 56.3977 7.99805C 56.3977 9.19805 55.4797 9.989841 54.4598 9.989841z" stroke="#000000" stroke-width="0.4" fill="none" /><path id="1217" transform="matrix(1 0 0 -1 0 834)" d="M61.8277 6L61.8277 6.16797C 61.3059 6.21602 61.2879 6.24609 61.2695 6.88203L61.2695 6.88203L61.2098 9.05391C 61.1918 9.671881 61.2336 9.68398 61.7617 9.73203L61.7617 9.73203L61.7617 9.900001L61.7617 9.900001L60.7418 9.900001L60.7418 9.900001L59.3559 6.9L59.3559 6.9L57.9879 9.900001L57.9879 9.900001L57.0035 9.900001L57.0035 9.900001L57.0035 9.73203C 57.5496 9.67813 57.5797 9.653911 57.5258 8.87383L57.5258 8.87383L57.4418 7.626171C 57.3938 7.00195 57.3578 6.73789 57.3277 6.528131C 57.2855 6.27617 57.1656 6.21016 56.8176 6.16797L56.8176 6.16797L56.8176 6L56.8176 6L58.2156 6L58.2156 6L58.2156 6.16797C 57.8195 6.21016 57.6758 6.25195 57.6637 6.53984C 57.6578 6.78008 57.6578 7.04414 57.6816 7.53594L57.6816 7.53594L57.7719 9.24609L57.7719 9.24609L57.7836 9.24609L57.7836 9.24609L59.1277 6.04219L59.1277 6.04219L59.2477 6.04219L59.2477 6.04219L60.7117 9.33008L60.7117 9.33008L60.7355 9.33008L60.7355 9.33008L60.7535 6.88203C 60.7598 6.24609 60.7355 6.21602 60.2496 6.16797L60.2496 6.16797L60.2496 6z" stroke="#000000" stroke-width="0.4" fill="none" /><path id="1218" transform="matrix(1 0 0 -1 0 834)" d="M63.8258 6L63.8258 6.16797C 63.3336 6.20391 63.2855 6.23398 63.2855 6.75L63.2855 6.75L63.2855 9.150001C 63.2855 9.66016 63.3336 9.69609 63.8258 9.73203L63.8258 9.73203L63.8258 9.900001L63.8258 9.900001L62.2355 9.900001L62.2355 9.900001L62.2355 9.73203C 62.7277 9.69609 62.7758 9.66016 62.7758 9.150001L62.7758 9.150001L62.7758 6.75C 62.7758 6.23984 62.7277 6.20391 62.2355 6.16797L62.2355 6.16797L62.2355 6z" stroke="#000000" stroke-width="0.4" fill="none" /><path id="1219" transform="matrix(1 0 0 -1 0 834)" d="M66.5074 9.023829C 66.4598 9.40195 66.4297 9.63594 66.4055 9.851951C 66.1777 9.92383 65.9258 9.989841 65.6496 9.989841C 64.8758 9.989841 64.4137 9.49805 64.4137 8.921881C 64.4137 8.24414 65.0195 7.94414 65.4035 7.73984C 65.8535 7.5 66.1836 7.28984 66.1836 6.84609C 66.1836 6.40781 65.9137 6.12617 65.46371 6.12617C 64.8457 6.12617 64.5758 6.73203 64.4797 7.09805L64.4797 7.09805L64.3055 7.05586C 64.3418 6.767971 64.4195 6.25195 64.46761 6.12617C 64.52151 6.09609 64.6117 6.05391 64.7617 6C 64.91171 5.95781 65.1035 5.91016 65.3496 5.91016C 66.1477 5.91016 66.6816 6.41406 66.6816 7.04414C 66.6816 7.71602 66.1117 7.99805 65.6438 8.23789C 65.1695 8.48398 64.8816 8.68789 64.8816 9.12617C 64.8816 9.45 65.0855 9.78594 65.5477 9.78594C 66.0695 9.78594 66.2258 9.371881 66.3336 8.98789z" stroke="#000000" stroke-width="0.4" fill="none" /><path id="1220" transform="matrix(1 0 0 -1 0 834)" d="M69.4055 7.68008L68.3016 7.68008C 68.4816 8.171881 68.6734 8.69414 68.8656 9.21016L68.8656 9.21016L68.8777 9.21016zM70.9355 6L70.9355 6.16797C 70.5457 6.20391 70.46761 6.25781 70.2758 6.77383C 69.89181 7.81797 69.4895 8.95781 69.11761 9.989841L69.11761 9.989841L68.9316 9.93594L68.9316 9.93594L67.68951 6.78594C 67.4797 6.25781 67.3957 6.22188 67.0176 6.16797L67.0176 6.16797L67.0176 6L67.0176 6L68.3195 6L68.3195 6L68.3195 6.16797C 67.8695 6.21016 67.81561 6.26992 67.9477 6.64805C 68.0258 6.9 68.1156 7.15195 68.2117 7.42188L68.2117 7.42188L69.4895 7.42188C 69.62151 7.05586 69.74181 6.73203 69.8195 6.49805C 69.8977 6.26406 69.8438 6.21602 69.4656 6.16797L69.4656 6.16797L69.4656 6z" stroke="#000000" stroke-width="0.4" fill="none" /><path id="1221" transform="matrix(1 0 0 -1 0 834)" d="M71.7273 5.92813C 71.9195 5.92813 72.06371 6.06602 72.06371 6.27617C 72.06371 6.46797 71.9195 6.61797 71.7273 6.61797C 71.5355 6.61797 71.3914 6.46797 71.3914 6.27617C 71.3914 6.06602 71.5355 5.92813 71.7273 5.92813z" stroke="#000000" stroke-width="0.4" fill="none" /><path id="1222" transform="matrix(1 0 0 -1 0 834)" d="M73.9234 6L73.9234 6.15586C 73.53951 6.19219 73.4977 6.22813 73.4977 6.63594L73.4977 6.63594L73.4977 8.70586C 73.2336 8.59805 72.9516 8.51992 72.6453 8.471881L72.6453 8.471881L72.6453 8.328131C 73.0055 8.26797 73.0234 8.24414 73.0234 7.871881L73.0234 7.871881L73.0234 6.63594C 73.0234 6.22813 72.9816 6.19219 72.6035 6.15586L72.6035 6.15586L72.6035 6zM73.2215 9.216021C 73.3953 9.216021 73.52731 9.36016 73.52731 9.52188C 73.52731 9.70195 73.3953 9.83398 73.2273 9.83398C 73.06561 9.83398 72.9215 9.70195 72.9215 9.52188C 72.9215 9.36016 73.06561 9.216021 73.2215 9.216021z" stroke="#000000" stroke-width="0.4" fill="none" /><path id="1223" transform="matrix(1 0 0 -1 0 834)" d="M77.1574 6L77.1574 6.15586C 76.8094 6.19219 76.7793 6.21602 76.7793 6.62383L76.7793 6.62383L76.7793 7.78203C 76.7793 8.36406 76.4793 8.69414 76.0055 8.69414C 75.8313 8.69414 75.67541 8.621881 75.5074 8.51406C 75.3574 8.41211 75.2254 8.32188 75.1055 8.23203L75.1055 8.23203L75.1055 8.712111C 74.8414 8.59219 74.5594 8.51992 74.27151 8.466021L74.27151 8.466021L74.27151 8.328131C 74.5953 8.26797 74.6313 8.25 74.6313 7.86602L74.6313 7.86602L74.6313 6.62383C 74.6313 6.22813 74.6016 6.19805 74.19341 6.15586L74.19341 6.15586L74.19341 6L74.19341 6L75.4953 6L75.4953 6L75.4953 6.15586C 75.1414 6.19219 75.1055 6.21602 75.1055 6.62383L75.1055 6.62383L75.1055 8.03398C 75.2855 8.18984 75.5195 8.33984 75.7594 8.33984C 76.1613 8.33984 76.3055 8.069921 76.3055 7.65586L76.3055 7.65586L76.3055 6.65391C 76.3055 6.23984 76.2633 6.19219 75.9094 6.15586L75.9094 6.15586L75.9094 6z" stroke="#000000" stroke-width="0.4" fill="none" /><path id="1224" transform="matrix(1 0 0 -1 0 834)" d="M79.4734 6.51016C 79.32931 6.40195 79.1133 6.30586 78.8973 6.30586C 78.5133 6.30586 78.0754 6.65391 78.0754 7.36797C 78.0754 8.23789 78.57931 8.471881 78.8555 8.471881C 79.0832 8.471881 79.32931 8.37617 79.4734 8.16602zM80.4035 6.30586L80.2113 6.32383C 79.9895 6.34805 79.9473 6.37813 79.9473 6.68984L79.9473 6.68984L79.9473 10.2719C 79.7254 10.1941 79.3234 10.1039 79.0113 10.0621L79.0113 10.0621L79.0113 9.917971C 79.44341 9.88789 79.4734 9.869921 79.4734 9.47383L79.4734 9.47383L79.4734 8.628131C 79.3355 8.67617 79.1613 8.69414 79.0773 8.69414C 78.2613 8.69414 77.5293 8.03984 77.5293 7.20586C 77.5293 6.36602 78.1594 5.92813 78.6395 5.92813C 78.7113 5.92813 78.87341 5.96406 79.1074 6.10195L79.1074 6.10195L79.4734 6.31797L79.4734 6.31797L79.4734 5.92813C 79.8215 6.05391 80.27151 6.13203 80.4035 6.15586z" stroke="#000000" stroke-width="0.4" fill="none" /><path id="1225" transform="matrix(1 0 0 -1 0 834)" d="M81.3813 8.24414C 81.4895 8.310161 81.6813 8.35781 81.84921 8.35781C 82.34731 8.35781 82.7676 7.96211 82.7676 7.278131C 82.7676 6.58203 82.4492 6.15586 81.9516 6.15586C 81.6336 6.16211 81.4535 6.37188 81.4176 6.49219C 81.3934 6.54609 81.3813 6.60586 81.3813 6.69609zM81.3813 8.42383L81.3813 10.2719C 81.1594 10.1941 80.7934 10.098 80.5113 10.0621L80.5113 10.0621L80.5113 9.92383C 80.8953 9.88789 80.9074 9.851951 80.9074 9.48008L80.9074 9.48008L80.9074 6.14414C 81.2375 5.98789 81.5434 5.92813 81.78951 5.92813C 82.59341 5.92813 83.2953 6.55195 83.2953 7.43398C 83.2953 8.14219 82.7555 8.69414 82.1133 8.69414C 82.0473 8.69414 81.9633 8.67617 81.86761 8.63398z" stroke="#000000" stroke-width="0.4" fill="none" /><path id="1226" transform="matrix(1 0 0 -1 0 834)" d="M90.0754 6.83984C 89.8953 6.46211 89.8172 6.43789 89.4934 6.43789L89.4934 6.43789L88.3711 6.43789L88.3711 6.43789L89.223 7.33203C 89.77541 7.91992 90.0152 8.273829 90.0152 8.79609C 90.0152 9.42617 89.5352 9.810161 89.007 9.810161C 88.6594 9.810161 88.3773 9.653911 88.1973 9.45586L88.1973 9.45586L87.8551 8.96992L87.8551 8.96992L87.9871 8.85C 88.1434 9.08398 88.3953 9.40781 88.8031 9.40781C 89.24731 9.40781 89.5113 9.11406 89.5113 8.61016C 89.5113 8.09414 89.1332 7.60195 88.7613 7.15781C 88.4613 6.81016 88.1254 6.46797 87.7891 6.13789L87.7891 6.13789L87.7891 6L87.7891 6L90.0332 6C 90.1051 6.26992 90.1652 6.53398 90.2434 6.78594z" stroke="#000000" stroke-width="0.4" fill="none" /><path id="1227" transform="matrix(1 0 0 -1 0 834)" d="M91.9172 9.61211C 92.457 9.61211 92.607 8.72383 92.607 7.871881C 92.607 7.03203 92.4633 6.13203 91.923 6.13203C 91.40121 6.13203 91.2273 7.03789 91.2273 7.87813C 91.2273 8.712111 91.3711 9.61211 91.9172 9.61211zM91.923 9.810161C 91.023 9.810161 90.69341 8.74219 90.69341 7.86602C 90.69341 6.91797 91.0172 5.92813 91.923 5.92813C 92.823 5.92813 93.141 6.99609 93.141 7.871881C 93.141 8.79609 92.823 9.810161 91.923 9.810161z" stroke="#000000" stroke-width="0.4" fill="none" /><path id="1228" transform="matrix(1 0 0 -1 0 834)" d="M95.6672 6L95.6672 6.16211C 95.1211 6.20391 95.0852 6.25195 95.0852 6.68398L95.0852 6.68398L95.0852 9.810161C 94.7551 9.67813 94.40121 9.56406 94.0172 9.49805L94.0172 9.49805L94.0172 9.36016L94.0172 9.36016L94.30511 9.34805C 94.5691 9.33594 94.59341 9.305861 94.59341 8.99414L94.59341 8.99414L94.59341 6.68398C 94.59341 6.25195 94.5633 6.20391 94.0172 6.16211L94.0172 6.16211L94.0172 6z" stroke="#000000" stroke-width="0.4" fill="none" /><path id="1247" transform="matrix(1 0 0 -1 0 834)" d="M554.472 6.83984C 554.292 6.46211 554.2141 6.43789 553.89 6.43789L553.89 6.43789L552.768 6.43789L552.768 6.43789L553.6201 7.33203C 554.1721 7.91992 554.412 8.273829 554.412 8.79609C 554.412 9.42617 553.932 9.810161 553.404 9.810161C 553.056 9.810161 552.774 9.653911 552.594 9.45586L552.594 9.45586L552.252 8.96992L552.252 8.96992L552.384 8.85C 552.54 9.08398 552.792 9.40781 553.2 9.40781C 553.644 9.40781 553.908 9.11406 553.908 8.61016C 553.908 8.09414 553.53 7.60195 553.158 7.15781C 552.858 6.81016 552.522 6.46797 552.186 6.13789L552.186 6.13789L552.186 6L552.186 6L554.43 6C 554.502 6.26992 554.562 6.53398 554.64 6.78594z" stroke="#000000" stroke-width="0.4" fill="none" /><path id="1248" transform="matrix(1 0 0 -1 0 834)" d="M555.792 9.3L557.19 9.3L557.19 9.3L557.346 9.68984L557.346 9.68984L557.31 9.73789L557.31 9.73789L555.6 9.73789L555.6 9.73789L555.366 7.90781C 555.504 7.96211 555.732 8.028131 555.984 8.028131C 556.638 8.028131 556.962 7.65 556.962 7.121881C 556.962 6.67188 556.71 6.23398 556.2 6.23398C 555.834 6.23398 555.588 6.42617 555.462 6.53984C 555.402 6.58789 555.354 6.58203 555.3 6.53984C 555.234 6.48008 555.18 6.40195 555.174 6.34219C 555.162 6.26992 555.192 6.22188 555.27 6.13789C 555.36 6.05391 555.612 5.92813 555.888 5.92813C 556.206 5.93398 556.608 6.08984 556.932 6.35391C 557.298 6.65391 557.466 6.99609 557.466 7.35586C 557.466 7.84805 557.076 8.369921 556.308 8.369921C 556.146 8.369921 555.864 8.273829 555.636 8.18984z" stroke="#000000" stroke-width="0.4" fill="none" /><path id="1249" transform="matrix(1 0 0 -1 0 834)" d="M559.548 9.989841L559.212 9.989841L559.212 9.989841L557.91 5.73594L557.91 5.73594L558.246 5.73594z" stroke="#000000" stroke-width="0.4" fill="none" /><path id="1250" transform="matrix(1 0 0 -1 0 834)" d="M561.18 9.61211C 561.72 9.61211 561.8701 8.72383 561.8701 7.871881C 561.8701 7.03203 561.726 6.13203 561.186 6.13203C 560.664 6.13203 560.49 7.03789 560.49 7.87813C 560.49 8.712111 560.634 9.61211 561.18 9.61211zM561.186 9.810161C 560.286 9.810161 559.956 8.74219 559.956 7.86602C 559.956 6.91797 560.28 5.92813 561.186 5.92813C 562.086 5.92813 562.404 6.99609 562.404 7.871881C 562.404 8.79609 562.086 9.810161 561.186 9.810161z" stroke="#000000" stroke-width="0.4" fill="none" /><path id="1251" transform="matrix(1 0 0 -1 0 834)" d="M564 9.61211C 564.582 9.61211 564.738 8.86797 564.738 8.33984C 564.738 8.21992 564.732 8.076171 564.7141 7.94414C 564.588 7.84805 564.384 7.77617 564.174 7.77617C 563.67 7.77617 563.3701 8.214061 563.3701 8.74219C 563.3701 9.09609 563.538 9.61211 564 9.61211zM564.078 9.810161C 563.304 9.810161 562.854 9.10781 562.854 8.53203C 562.854 7.90195 563.292 7.43398 563.928 7.43398C 564.042 7.43398 564.156 7.45781 564.288 7.53008L564.288 7.53008L564.69 7.74609C 564.492 6.83398 563.838 6.23398 562.98 6.08984L562.98 6.08984L563.01 5.91016C 563.16 5.91016 563.526 5.96992 563.85 6.10195C 564.66 6.42617 565.2661 7.20586 565.2661 8.310161C 565.2661 9.12617 564.828 9.810161 564.078 9.810161z" stroke="#000000" stroke-width="0.4" fill="none" /><path id="1252" transform="matrix(1 0 0 -1 0 834)" d="M567.294 9.989841L566.958 9.989841L566.958 9.989841L565.656 5.73594L565.656 5.73594L565.992 5.73594z" stroke="#000000" stroke-width="0.4" fill="none" /><path id="1253" transform="matrix(1 0 0 -1 0 834)" d="M569.9641 6.83984C 569.784 6.46211 569.706 6.43789 569.382 6.43789L569.382 6.43789L568.26 6.43789L568.26 6.43789L569.112 7.33203C 569.664 7.91992 569.904 8.273829 569.904 8.79609C 569.904 9.42617 569.424 9.810161 568.896 9.810161C 568.548 9.810161 568.2661 9.653911 568.086 9.45586L568.086 9.45586L567.744 8.96992L567.744 8.96992L567.876 8.85C 568.032 9.08398 568.284 9.40781 568.692 9.40781C 569.136 9.40781 569.4 9.11406 569.4 8.61016C 569.4 8.09414 569.022 7.60195 568.65 7.15781C 568.35 6.81016 568.014 6.46797 567.678 6.13789L567.678 6.13789L567.678 6L567.678 6L569.9221 6C 569.994 6.26992 570.054 6.53398 570.132 6.78594z" stroke="#000000" stroke-width="0.4" fill="none" /><path id="1254" transform="matrix(1 0 0 -1 0 834)" d="M571.806 9.61211C 572.346 9.61211 572.496 8.72383 572.496 7.871881C 572.496 7.03203 572.352 6.13203 571.812 6.13203C 571.29 6.13203 571.116 7.03789 571.116 7.87813C 571.116 8.712111 571.26 9.61211 571.806 9.61211zM571.812 9.810161C 570.912 9.810161 570.582 8.74219 570.582 7.86602C 570.582 6.91797 570.906 5.92813 571.812 5.92813C 572.712 5.92813 573.03 6.99609 573.03 7.871881C 573.03 8.79609 572.712 9.810161 571.812 9.810161z" stroke="#000000" stroke-width="0.4" fill="none" /><path id="1255" transform="matrix(1 0 0 -1 0 834)" d="M575.556 6L575.556 6.16211C 575.01 6.20391 574.9741 6.25195 574.9741 6.68398L574.9741 6.68398L574.9741 9.810161C 574.644 9.67813 574.29 9.56406 573.906 9.49805L573.906 9.49805L573.906 9.36016L573.906 9.36016L574.194 9.34805C 574.458 9.33594 574.482 9.305861 574.482 8.99414L574.482 8.99414L574.482 6.68398C 574.482 6.25195 574.452 6.20391 573.906 6.16211L573.906 6.16211L573.906 6z" stroke="#000000" stroke-width="0.4" fill="none" /><path id="1256" transform="matrix(1 0 0 -1 0 834)" d="M578.814 9.73789L576.522 9.73789C 576.498 9.48008 576.468 9.180079 576.414 8.85L576.414 8.85L576.588 8.85C 576.732 9.24609 576.768 9.3 577.164 9.3L577.164 9.3L578.46 9.3C 577.986 8.25586 577.308 7.01406 576.678 5.99414L576.678 5.99414L576.72 5.92813L576.72 5.92813L577.164 5.98789C 577.74 7.22383 578.298 8.44805 578.862 9.66602z" stroke="#000000" stroke-width="0.4" fill="none" /><path id="1257" transform="matrix(1 0 0 -1 0 834)" d="M584.531 9.61211C 585.071 9.61211 585.221 8.72383 585.221 7.871881C 585.221 7.03203 585.077 6.13203 584.537 6.13203C 584.015 6.13203 583.841 7.03789 583.841 7.87813C 583.841 8.712111 583.985 9.61211 584.531 9.61211zM584.537 9.810161C 583.637 9.810161 583.307 8.74219 583.307 7.86602C 583.307 6.91797 583.631 5.92813 584.537 5.92813C 585.437 5.92813 585.755 6.99609 585.755 7.871881C 585.755 8.79609 585.437 9.810161 584.537 9.810161z" stroke="#000000" stroke-width="0.4" fill="none" /><path id="1258" transform="matrix(1 0 0 -1 0 834)" d="M588.449 6.83984C 588.269 6.46211 588.191 6.43789 587.867 6.43789L587.867 6.43789L586.7451 6.43789L586.7451 6.43789L587.597 7.33203C 588.149 7.91992 588.389 8.273829 588.389 8.79609C 588.389 9.42617 587.909 9.810161 587.381 9.810161C 587.033 9.810161 586.751 9.653911 586.571 9.45586L586.571 9.45586L586.229 8.96992L586.229 8.96992L586.361 8.85C 586.517 9.08398 586.769 9.40781 587.177 9.40781C 587.621 9.40781 587.885 9.11406 587.885 8.61016C 587.885 8.09414 587.507 7.60195 587.135 7.15781C 586.835 6.81016 586.499 6.46797 586.163 6.13789L586.163 6.13789L586.163 6L586.163 6L588.407 6C 588.479 6.26992 588.539 6.53398 588.617 6.78594z" stroke="#000000" stroke-width="0.4" fill="none" /><path id="1259" transform="matrix(1 0 0 -1 0 834)" d="M589.5471 5.92813C 589.739 5.92813 589.883 6.06602 589.883 6.27617C 589.883 6.46797 589.739 6.61797 589.5471 6.61797C 589.355 6.61797 589.211 6.46797 589.211 6.27617C 589.211 6.06602 589.355 5.92813 589.5471 5.92813zM589.541 8.466021C 589.3491 8.466021 589.211 8.328131 589.211 8.13008C 589.211 7.92617 589.3491 7.78203 589.541 7.78203C 589.733 7.78203 589.877 7.92617 589.877 8.13008C 589.877 8.328131 589.733 8.466021 589.541 8.466021z" stroke="#000000" stroke-width="0.4" fill="none" /><path id="1260" transform="matrix(1 0 0 -1 0 834)" d="M590.735 8.976171C 590.885 9.19805 591.125 9.45 591.455 9.45C 591.773 9.45 592.025 9.257811 592.025 8.88594C 592.025 8.44219 591.617 8.20781 591.065 8.03398L591.065 8.03398L591.107 7.86016C 591.203 7.88984 591.347 7.92617 591.491 7.92617C 591.833 7.92617 592.253 7.70391 592.253 7.15195C 592.253 6.55781 591.953 6.23984 591.527 6.23984C 591.185 6.23984 590.939 6.40781 590.783 6.54609C 590.735 6.58789 590.687 6.58203 590.639 6.54609C 590.585 6.50391 590.507 6.42617 590.501 6.34805C 590.489 6.27617 590.513 6.21016 590.597 6.13203C 590.675 6.06016 590.921 5.92813 591.197 5.92813C 591.629 5.92813 592.769 6.37188 592.769 7.34414C 592.769 7.78203 592.463 8.153911 591.935 8.25586L591.935 8.25586L591.935 8.26797C 592.109 8.38789 592.253 8.49609 592.343 8.59219C 592.457 8.70586 592.529 8.84414 592.529 9.01797C 592.529 9.47383 592.175 9.810161 591.635 9.810161C 591.317 9.810161 591.041 9.66016 590.873 9.47383L590.873 9.47383L590.609 9.09609z" stroke="#000000" stroke-width="0.4" fill="none" /><path id="1261" transform="matrix(1 0 0 -1 0 834)" d="M593.616 8.976171C 593.7661 9.19805 594.006 9.45 594.336 9.45C 594.654 9.45 594.906 9.257811 594.906 8.88594C 594.906 8.44219 594.498 8.20781 593.946 8.03398L593.946 8.03398L593.988 7.86016C 594.084 7.88984 594.228 7.92617 594.372 7.92617C 594.7141 7.92617 595.134 7.70391 595.134 7.15195C 595.134 6.55781 594.834 6.23984 594.408 6.23984C 594.066 6.23984 593.82 6.40781 593.664 6.54609C 593.616 6.58789 593.5681 6.58203 593.52 6.54609C 593.466 6.50391 593.388 6.42617 593.382 6.34805C 593.3701 6.27617 593.394 6.21016 593.478 6.13203C 593.556 6.06016 593.802 5.92813 594.078 5.92813C 594.51 5.92813 595.65 6.37188 595.65 7.34414C 595.65 7.78203 595.344 8.153911 594.816 8.25586L594.816 8.25586L594.816 8.26797C 594.99 8.38789 595.134 8.49609 595.2241 8.59219C 595.338 8.70586 595.41 8.84414 595.41 9.01797C 595.41 9.47383 595.056 9.810161 594.5161 9.810161C 594.198 9.810161 593.9221 9.66016 593.754 9.47383L593.754 9.47383L593.49 9.09609z" stroke="#000000" stroke-width="0.4" fill="none" /><path id="1262" transform="matrix(1 0 0 -1 0 834)" d="M596.675 5.92813C 596.867 5.92813 597.011 6.06602 597.011 6.27617C 597.011 6.46797 596.867 6.61797 596.675 6.61797C 596.483 6.61797 596.3391 6.46797 596.3391 6.27617C 596.3391 6.06602 596.483 5.92813 596.675 5.92813zM596.669 8.466021C 596.477 8.466021 596.3391 8.328131 596.3391 8.13008C 596.3391 7.92617 596.477 7.78203 596.669 7.78203C 596.861 7.78203 597.005 7.92617 597.005 8.13008C 597.005 8.328131 596.861 8.466021 596.669 8.466021z" stroke="#000000" stroke-width="0.4" fill="none" /><path id="1263" transform="matrix(1 0 0 -1 0 834)" d="M598.265 9.3L599.663 9.3L599.663 9.3L599.819 9.68984L599.819 9.68984L599.783 9.73789L599.783 9.73789L598.073 9.73789L598.073 9.73789L597.8391 7.90781C 597.977 7.96211 598.205 8.028131 598.457 8.028131C 599.111 8.028131 599.435 7.65 599.435 7.121881C 599.435 6.67188 599.183 6.23398 598.673 6.23398C 598.307 6.23398 598.061 6.42617 597.935 6.53984C 597.875 6.58789 597.827 6.58203 597.773 6.53984C 597.707 6.48008 597.653 6.40195 597.647 6.34219C 597.635 6.26992 597.665 6.22188 597.743 6.13789C 597.833 6.05391 598.085 5.92813 598.361 5.92813C 598.679 5.93398 599.081 6.08984 599.405 6.35391C 599.771 6.65391 599.939 6.99609 599.939 7.35586C 599.939 7.84805 599.549 8.369921 598.781 8.369921C 598.619 8.369921 598.337 8.273829 598.109 8.18984z" stroke="#000000" stroke-width="0.4" fill="none" /><path id="1264" transform="matrix(1 0 0 -1 0 834)" d="M601.601 8.02188C 602.147 8.02188 602.399 7.53008 602.399 7.03203C 602.399 6.63594 602.255 6.13203 601.787 6.13203C 601.295 6.13203 600.989 6.719921 600.989 7.43984C 600.989 7.59609 600.9951 7.73984 601.025 7.85391C 601.169 7.93203 601.373 8.02188 601.601 8.02188zM601.055 8.057811C 601.235 8.89219 601.793 9.26992 602.159 9.44414C 602.381 9.54609 602.615 9.61797 602.813 9.653911L602.813 9.653911L602.771 9.84609C 602.531 9.80391 602.243 9.73789 602.003 9.653911C 601.367 9.419921 600.455 8.74219 600.455 7.428131C 600.455 6.50391 600.983 5.92813 601.685 5.92813C 602.405 5.92813 602.915 6.53398 602.915 7.24805C 602.915 7.86602 602.477 8.35781 601.835 8.35781C 601.715 8.35781 601.5891 8.31602 601.457 8.25586z" stroke="#000000" stroke-width="0.4" fill="none" /><path id="1265" transform="matrix(1 0 0 -1 0 834)" d="M605.489 8.08203C 605.651 8.20195 605.897 8.33398 606.0891 8.33398C 606.527 8.33398 606.893 7.97383 606.893 7.33203C 606.893 6.65391 606.557 6.22188 606.053 6.22188C 605.8491 6.22188 605.621 6.31797 605.489 6.45586zM605.489 8.28008L605.489 8.75391C 605.207 8.63984 604.871 8.53789 604.619 8.49609L604.619 8.49609L604.619 8.351951C 604.991 8.30391 605.015 8.29219 605.015 7.90195L605.015 7.90195L605.015 5.18984C 605.015 4.79414 604.961 4.75781 604.577 4.72188L604.577 4.72188L604.577 4.56016L604.577 4.56016L605.999 4.56016L605.999 4.56016L605.999 4.72188C 605.531 4.76406 605.489 4.79414 605.489 5.25L605.489 5.25L605.489 6.03594C 605.567 5.99414 605.729 5.93398 605.903 5.92813C 606.683 6.07188 607.397 6.65391 607.397 7.56016C 607.397 8.153911 607.001 8.69414 606.335 8.69414C 606.263 8.69414 606.149 8.664061 606.041 8.60391z" stroke="#000000" stroke-width="0.4" fill="none" /><path id="1266" transform="matrix(1 0 0 -1 0 834)" d="M608.303 5.92813C 608.4951 5.92813 608.639 6.06602 608.639 6.27617C 608.639 6.46797 608.4951 6.61797 608.303 6.61797C 608.111 6.61797 607.967 6.46797 607.967 6.27617C 607.967 6.06602 608.111 5.92813 608.303 5.92813z" stroke="#000000" stroke-width="0.4" fill="none" /><path id="1267" transform="matrix(1 0 0 -1 0 834)" d="M615.125 6L615.125 6.15586C 614.783 6.19219 614.735 6.21602 614.735 6.61797L614.735 6.61797L614.735 7.77617C 614.735 8.36406 614.441 8.69414 613.973 8.69414C 613.805 8.69414 613.649 8.621881 613.523 8.53789C 613.373 8.44805 613.199 8.33398 613.025 8.20195C 612.905 8.51406 612.647 8.69414 612.359 8.69414C 612.167 8.69414 612.023 8.628131 611.867 8.53203C 611.687 8.417971 611.555 8.310161 611.429 8.226171L611.429 8.226171L611.429 8.712111C 611.165 8.59219 610.859 8.51406 610.595 8.466021L610.595 8.466021L610.595 8.328131C 610.9431 8.273829 610.961 8.24414 610.961 7.86016L610.961 7.86016L610.961 6.61797C 610.961 6.22813 610.907 6.19219 610.511 6.15586L610.511 6.15586L610.511 6L610.511 6L611.777 6L611.777 6L611.777 6.15586C 611.483 6.19219 611.435 6.22813 611.435 6.61797L611.435 6.61797L611.435 8.028131C 611.615 8.17813 611.8491 8.33984 612.0891 8.33984C 612.455 8.33984 612.611 8.09414 612.611 7.65L612.611 7.65L612.611 6.61797C 612.611 6.22188 612.557 6.19219 612.185 6.15586L612.185 6.15586L612.185 6L612.185 6L613.469 6L613.469 6L613.469 6.15586C 613.139 6.19219 613.085 6.22813 613.085 6.60586L613.085 6.60586L613.085 7.77617C 613.085 7.88984 613.079 7.95586 613.067 8.028131C 613.295 8.21992 613.523 8.33984 613.739 8.33984C 614.117 8.33984 614.267 8.069921 614.267 7.64414L614.267 7.64414L614.267 6.64219C 614.267 6.21602 614.201 6.19219 613.847 6.15586L613.847 6.15586L613.847 6z" stroke="#000000" stroke-width="0.4" fill="none" /><path id="1268" transform="matrix(1 0 0 -1 0 834)" d="M615.947 5.92813C 616.139 5.92813 616.283 6.06602 616.283 6.27617C 616.283 6.46797 616.139 6.61797 615.947 6.61797C 615.755 6.61797 615.611 6.46797 615.611 6.27617C 615.611 6.06602 615.755 5.92813 615.947 5.92813z" stroke="#000000" stroke-width="0.4" fill="none" /></g></g></svg>