<svg xmlns="http://www.w3.org/2000/svg" xmlns:xlink="http://www.w3.org/1999/xlink" id="body_1" preserveAspectRatio="xMinYMin meet" viewBox="0 0 872 1112"><defs><clipPath id="1"><path id="" clip-rule="evenodd" transform="matrix(1 0 0 1 0 0)" d="M0 834L0 0L0 0L654 0L654 0L654 834L654 834L0 834z" /></clipPath><clipPath id="2"><path id="" clip-rule="evenodd" transform="matrix(1 0 0 1 0 0)" d="M21 813L633 813L633 813L633 21L633 21L21 21z" /></clipPath><clipPath id="3"><path id="" clip-rule="evenodd" transform="matrix(1 0 0 1 0 0)" d="M265.452 260.924L366.264 260.924L366.264 260.924L366.264 140.328L366.264 140.328L265.452 140.328z" /></clipPath><clipPath id="4"><path id="" clip-rule="evenodd" transform="matrix(1 0 0 1 0 0)" d="M265.452 260.924L366.264 260.924L366.264 260.924L366.264 140.328L366.264 140.328L265.452 140.328z" /></clipPath><clipPath id="5"><path id="" clip-rule="evenodd" transform="matrix(1 0 0 1 0 0)" d="M118.88 261.16L208.3859 261.16L208.3859 261.16L208.3859 141.506L208.3859 141.506L118.88 141.506z" /></clipPath><clipPath id="6"><path id="" clip-rule="evenodd" transform="matrix(1 0 0 1 0 0)" d="M118.88 261.16L208.3859 261.16L208.3859 261.16L208.3859 141.506L208.3859 141.506L118.88 141.506z" /></clipPath><clipPath id="7"><path id="" clip-rule="evenodd" transform="matrix(1 0 0 1 0 0)" d="M154.575 236.533L168.6238 236.533L168.6238 236.533L168.6238 208.7791L168.6238 208.7791L154.575 208.7791z" /></clipPath><clipPath id="8"><path id="" clip-rule="evenodd" transform="matrix(1 0 0 1 0 0)" d="M154.575 236.533L168.624 236.533L168.624 236.533L168.624 208.779L168.624 208.779L154.575 208.779z" /></clipPath><clipPath id="9"><path id="" clip-rule="evenodd" transform="matrix(1 0 0 1 0 0)" d="M154.575 236.533L168.6238 236.533L168.6238 236.533L168.6238 208.7795L168.6238 208.7795L154.575 208.7795z" /></clipPath><clipPath id="10"><path id="" clip-rule="evenodd" transform="matrix(1 0 0 1 0 0)" d="M118.88 261.16L366.264 261.16L366.264 261.16L366.264 134.103L366.264 134.103L118.88 134.103z" /></clipPath><clipPath id="11"><path id="" clip-rule="evenodd" transform="matrix(1 0 0 1 0 0)" d="M195.507 226.746C 195.507 244.135 209.677 258.23 227.157 258.23L227.157 258.23L227.157 258.23C 244.638 258.23 258.809 244.135 258.809 226.746L258.809 226.746L258.809 226.746C 258.809 209.358 244.638 195.261 227.157 195.261L227.157 195.261L227.157 195.261C 209.677 195.261 195.507 209.358 195.507 226.746" /></clipPath><clipPath id="12"><path id="" clip-rule="evenodd" transform="matrix(1 0 0 1 0 0)" d="M195.507 226.746C 195.507 244.135 209.677 258.23 227.157 258.23L227.157 258.23L227.157 258.23C 244.638 258.23 258.809 244.135 258.809 226.746L258.809 226.746L258.809 226.746C 258.809 209.358 244.638 195.261 227.157 195.261L227.157 195.261L227.157 195.261C 209.677 195.261 195.507 209.358 195.507 226.746" /></clipPath><clipPath id="13"><path id="" clip-rule="evenodd" transform="matrix(1 0 0 1 0 0)" d="M118.88 261.16L366.264 261.16L366.264 261.16L366.264 134.103L366.264 134.103L118.88 134.103z" /></clipPath><clipPath id="14"><path id="" clip-rule="evenodd" transform="matrix(1 0 0 1 0 0)" d="M118.88 261.16L366.264 261.16L366.264 261.16L366.264 134.103L366.264 134.103L118.88 134.103z" /></clipPath><clipPath id="15"><path id="" clip-rule="evenodd" transform="matrix(1 0 0 1 0 0)" d="M118.88 261.16L366.264 261.16L366.264 261.16L366.264 134.103L366.264 134.103L118.88 134.103z" /></clipPath><clipPath id="16"><path id="" clip-rule="evenodd" transform="matrix(1 0 0 1 0 0)" d="M355.366 168.625L392.6039 168.625L392.6039 168.625L392.6039 111.7078L392.6039 111.7078L355.366 111.7078z" /></clipPath><clipPath id="17"><path id="" clip-rule="evenodd" transform="matrix(1 0 0 1 0 0)" d="M355.366 168.625L392.6039 168.625L392.6039 168.625L392.6039 111.7078L392.6039 111.7078L355.366 111.7078z" /></clipPath><clipPath id="18"><path id="" clip-rule="evenodd" transform="matrix(1 0 0 1 0 0)" d="M96.1609 190.37L121.7578 190.37L121.7578 190.37L121.7578 154.511L121.7578 154.511L96.1609 154.511z" /></clipPath><clipPath id="19"><path id="" clip-rule="evenodd" transform="matrix(1 0 0 1 0 0)" d="M96.1609 190.37L121.7578 190.37L121.7578 190.37L121.7578 154.511L121.7578 154.511L96.1609 154.511z" /></clipPath><clipPath id="20"><path id="" clip-rule="evenodd" transform="matrix(1 0 0 1 0 0)" d="M203.877 190.37L229.4739 190.37L229.4739 190.37L229.4739 154.511L229.4739 154.511L203.877 154.511z" /></clipPath><clipPath id="21"><path id="" clip-rule="evenodd" transform="matrix(1 0 0 1 0 0)" d="M203.877 190.37L229.4739 190.37L229.4739 190.37L229.4739 154.511L229.4739 154.511L203.877 154.511z" /></clipPath><clipPath id="22"><path id="" clip-rule="evenodd" transform="matrix(1 0 0 1 0 0)" d="M280.937 267.406L306.5339 267.406L306.5339 267.406L306.5339 231.547L306.5339 231.547L280.937 231.547z" /></clipPath><clipPath id="23"><path id="" clip-rule="evenodd" transform="matrix(1 0 0 1 0 0)" d="M280.937 267.406L306.5339 267.406L306.5339 267.406L306.5339 231.547L306.5339 231.547L280.937 231.547z" /></clipPath><clipPath id="24"><path id="" clip-rule="evenodd" transform="matrix(1 0 0 1 0 0)" d="M358.889 268.114L384.4859 268.114L384.4859 268.114L384.4859 232.255L384.4859 232.255L358.889 232.255z" /></clipPath><clipPath id="25"><path id="" clip-rule="evenodd" transform="matrix(1 0 0 1 0 0)" d="M358.889 268.114L384.4859 268.114L384.4859 268.114L384.4859 232.255L384.4859 232.255L358.889 232.255z" /></clipPath><clipPath id="26"><path id="" clip-rule="evenodd" transform="matrix(1 0 0 1 0 0)" d="M119.291 484.863L185.3461 484.863L185.3461 484.863L185.3461 387.3173L185.3461 387.3173L119.291 387.3173z" /></clipPath><clipPath id="27"><path id="" clip-rule="evenodd" transform="matrix(1 0 0 1 0 0)" d="M119.291 484.863L185.3461 484.863L185.3461 484.863L185.3461 387.3173L185.3461 387.3173L119.291 387.3173z" /></clipPath><clipPath id="28"><path id="" clip-rule="evenodd" transform="matrix(1 0 0 1 0 0)" d="M244.872 485.055L313.9982 485.055L313.9982 485.055L313.9982 387.5101L313.9982 387.5101L244.872 387.5101z" /></clipPath><clipPath id="29"><path id="" clip-rule="evenodd" transform="matrix(1 0 0 1 0 0)" d="M244.872 485.055L313.9982 485.055L313.9982 485.055L313.9982 387.5101L313.9982 387.5101L244.872 387.5101z" /></clipPath><clipPath id="30"><path id="" clip-rule="evenodd" transform="matrix(1 0 0 1 0 0)" d="M141.416 451.91L159.3101 451.91L159.3101 451.91L159.3101 426.7198L159.3101 426.7198L141.416 426.7198z" /></clipPath><clipPath id="31"><path id="" clip-rule="evenodd" transform="matrix(1 0 0 1 0 0)" d="M141.416 451.91L159.31 451.91L159.31 451.91L159.31 426.72L159.31 426.72L141.416 426.72z" /></clipPath><clipPath id="32"><path id="" clip-rule="evenodd" transform="matrix(1 0 0 1 0 0)" d="M141.416 451.91L159.3101 451.91L159.3101 451.91L159.3101 426.7198L159.3101 426.7198L141.416 426.7198z" /></clipPath><clipPath id="33"><path id="" clip-rule="evenodd" transform="matrix(1 0 0 1 0 0)" d="M263.804 446.476L286.1692 446.476L286.1692 446.476L286.1692 421.6729L286.1692 421.6729L263.804 421.6729z" /></clipPath><clipPath id="34"><path id="" clip-rule="evenodd" transform="matrix(1 0 0 1 0 0)" d="M263.804 446.476L286.169 446.476L286.169 446.476L286.169 421.673L286.169 421.673L263.804 421.673z" /></clipPath><clipPath id="35"><path id="" clip-rule="evenodd" transform="matrix(1 0 0 1 0 0)" d="M263.804 446.476L286.1692 446.476L286.1692 446.476L286.1692 421.6729L286.1692 421.6729L263.804 421.6729z" /></clipPath><clipPath id="36"><path id="" clip-rule="evenodd" transform="matrix(1 0 0 1 0 0)" d="M119.291 485.055L362.163 485.055L362.163 485.055L362.163 373.04L362.163 373.04L119.291 373.04z" /></clipPath><clipPath id="37"><path id="" clip-rule="evenodd" transform="matrix(1 0 0 1 0 0)" d="M300.843 419.742L300.843 427.699C 303.297 438.788 315.836 447.228 330.935 447.228L330.935 447.228L330.935 447.228C 343.659 447.228 354.564 441.235 359.149 432.714L359.149 432.714L359.149 432.714L359.149 432.714L359.149 414.726C 354.564 406.205 343.659 400.213 330.935 400.213L330.935 400.213L330.935 400.213C 315.836 400.213 303.297 408.653 300.843 419.742" /></clipPath><clipPath id="38"><path id="" clip-rule="evenodd" transform="matrix(1 0 0 1 0 0)" d="M300.843 419.742L300.843 427.699C 303.297 438.788 315.836 447.228 330.935 447.228L330.935 447.228L330.935 447.228C 343.659 447.228 354.564 441.235 359.149 432.714L359.149 432.714L359.149 432.714L359.149 432.714L359.149 414.726C 354.564 406.205 343.659 400.213 330.935 400.213L330.935 400.213L330.935 400.213C 315.836 400.213 303.297 408.653 300.843 419.742" /></clipPath><clipPath id="39"><path id="" clip-rule="evenodd" transform="matrix(1 0 0 1 0 0)" d="M119.291 485.055L362.163 485.055L362.163 485.055L362.163 373.04L362.163 373.04L119.291 373.04z" /></clipPath><clipPath id="40"><path id="" clip-rule="evenodd" transform="matrix(1 0 0 1 0 0)" d="M119.291 485.055L362.163 485.055L362.163 485.055L362.163 373.04L362.163 373.04L119.291 373.04z" /></clipPath><clipPath id="41"><path id="" clip-rule="evenodd" transform="matrix(1 0 0 1 0 0)" d="M166.912 479.725L177.9909 479.725L177.9909 479.725L177.9909 464.216L177.9909 464.216L166.912 464.216z" /></clipPath><clipPath id="42"><path id="" clip-rule="evenodd" transform="matrix(1 0 0 1 0 0)" d="M166.912 479.725L177.991 479.725L177.991 479.725L177.991 464.216L177.991 464.216L166.912 464.216z" /></clipPath><clipPath id="43"><path id="" clip-rule="evenodd" transform="matrix(1 0 0 1 0 0)" d="M166.912 479.725L177.9909 479.725L177.9909 479.725L177.9909 464.216L177.9909 464.216L166.912 464.216z" /></clipPath><clipPath id="44"><path id="" clip-rule="evenodd" transform="matrix(1 0 0 1 0 0)" d="M119.291 485.055L362.163 485.055L362.163 485.055L362.163 373.04L362.163 373.04L119.291 373.04z" /></clipPath><clipPath id="45"><path id="" clip-rule="evenodd" transform="matrix(1 0 0 1 0 0)" d="M176.359 414.455C 176.359 429.725 188.737 442.102 204.007 442.102L204.007 442.102L204.007 442.102C 219.277 442.102 231.656 429.725 231.656 414.455L231.656 414.455L231.656 414.455C 231.656 399.186 219.277 386.807 204.007 386.807L204.007 386.807L204.007 386.807C 188.737 386.807 176.359 399.186 176.359 414.455" /></clipPath><clipPath id="46"><path id="" clip-rule="evenodd" transform="matrix(1 0 0 1 0 0)" d="M176.359 414.455C 176.359 429.725 188.737 442.102 204.007 442.102L204.007 442.102L204.007 442.102C 219.277 442.102 231.656 429.725 231.656 414.455L231.656 414.455L231.656 414.455C 231.656 399.186 219.277 386.807 204.007 386.807L204.007 386.807L204.007 386.807C 188.737 386.807 176.359 399.186 176.359 414.455" /></clipPath><clipPath id="47"><path id="" clip-rule="evenodd" transform="matrix(1 0 0 1 0 0)" d="M119.291 485.055L362.163 485.055L362.163 485.055L362.163 373.04L362.163 373.04L119.291 373.04z" /></clipPath><clipPath id="48"><path id="" clip-rule="evenodd" transform="matrix(1 0 0 1 0 0)" d="M119.291 485.055L362.163 485.055L362.163 485.055L362.163 373.04L362.163 373.04L119.291 373.04z" /></clipPath><clipPath id="49"><path id="" clip-rule="evenodd" transform="matrix(1 0 0 1 0 0)" d="M355.366 388.594L392.6039 388.594L392.6039 388.594L392.6039 331.678L392.6039 331.678L355.366 331.678z" /></clipPath><clipPath id="50"><path id="" clip-rule="evenodd" transform="matrix(1 0 0 1 0 0)" d="M355.366 388.594L392.6039 388.594L392.6039 388.594L392.6039 331.678L392.6039 331.678L355.366 331.678z" /></clipPath><clipPath id="51"><path id="" clip-rule="evenodd" transform="matrix(1 0 0 1 0 0)" d="M100.979 487.441L126.5763 487.441L126.5763 487.441L126.5763 451.5832L126.5763 451.5832L100.979 451.5832z" /></clipPath><clipPath id="52"><path id="" clip-rule="evenodd" transform="matrix(1 0 0 1 0 0)" d="M100.979 487.441L126.5763 487.441L126.5763 487.441L126.5763 451.5832L126.5763 451.5832L100.979 451.5832z" /></clipPath><clipPath id="53"><path id="" clip-rule="evenodd" transform="matrix(1 0 0 1 0 0)" d="M183.241 488.15L208.8379 488.15L208.8379 488.15L208.8379 452.291L208.8379 452.291L183.241 452.291z" /></clipPath><clipPath id="54"><path id="" clip-rule="evenodd" transform="matrix(1 0 0 1 0 0)" d="M183.241 488.15L208.8379 488.15L208.8379 488.15L208.8379 452.291L208.8379 452.291L183.241 452.291z" /></clipPath><clipPath id="55"><path id="" clip-rule="evenodd" transform="matrix(1 0 0 1 0 0)" d="M232.79 453.992L261.1361 453.992L261.1361 453.992L261.1361 418.1346L261.1361 418.1346L232.79 418.1346z" /></clipPath><clipPath id="56"><path id="" clip-rule="evenodd" transform="matrix(1 0 0 1 0 0)" d="M232.79 453.992L261.1361 453.992L261.1361 453.992L261.1361 418.1346L261.1361 418.1346L232.79 418.1346z" /></clipPath><clipPath id="57"><path id="" clip-rule="evenodd" transform="matrix(1 0 0 1 0 0)" d="M327.444 487.441L358.8889 487.441L358.8889 487.441L358.8889 451.5832L358.8889 451.5832L327.444 451.5832z" /></clipPath><clipPath id="58"><path id="" clip-rule="evenodd" transform="matrix(1 0 0 1 0 0)" d="M327.444 487.441L358.8889 487.441L358.8889 487.441L358.8889 451.5832L358.8889 451.5832L327.444 451.5832z" /></clipPath><clipPath id="59"><path id="" clip-rule="evenodd" transform="matrix(1 0 0 1 0 0)" d="M230.721 488.15L256.3179 488.15L256.3179 488.15L256.3179 452.291L256.3179 452.291L230.721 452.291z" /></clipPath><clipPath id="60"><path id="" clip-rule="evenodd" transform="matrix(1 0 0 1 0 0)" d="M230.721 488.15L256.3179 488.15L256.3179 488.15L256.3179 452.291L256.3179 452.291L230.721 452.291z" /></clipPath><clipPath id="61"><path id="" clip-rule="evenodd" transform="matrix(1 0 0 1 0 0)" d="M134.285 708.051L358.222 708.051L358.222 708.051L358.222 574.691L358.222 574.691L134.285 574.691z" /></clipPath><clipPath id="62"><path id="" clip-rule="evenodd" transform="matrix(1 0 0 1 0 0)" d="M134.285 708.051L358.222 708.051L358.222 708.051L358.222 574.691L358.222 574.691L134.285 574.691z" /></clipPath><clipPath id="63"><path id="" clip-rule="evenodd" transform="matrix(1 0 0 1 0 0)" d="M134.285 708.051L358.222 708.051L358.222 708.051L358.222 574.691L358.222 574.691L134.285 574.691z" /></clipPath><clipPath id="64"><path id="" clip-rule="evenodd" transform="matrix(1 0 0 1 0 0)" d="M355.366 608.563L392.6039 608.563L392.6039 608.563L392.6039 551.6462L392.6039 551.6462L355.366 551.6462z" /></clipPath><clipPath id="65"><path id="" clip-rule="evenodd" transform="matrix(1 0 0 1 0 0)" d="M355.366 608.563L392.6039 608.563L392.6039 608.563L392.6039 551.6462L392.6039 551.6462L355.366 551.6462z" /></clipPath><clipPath id="66"><path id="" clip-rule="evenodd" transform="matrix(1 0 0 1 0 0)" d="M110.901 708.017L136.4979 708.017L136.4979 708.017L136.4979 672.1592L136.4979 672.1592L110.901 672.1592z" /></clipPath><clipPath id="67"><path id="" clip-rule="evenodd" transform="matrix(1 0 0 1 0 0)" d="M110.901 708.017L136.4979 708.017L136.4979 708.017L136.4979 672.1592L136.4979 672.1592L110.901 672.1592z" /></clipPath><clipPath id="68"><path id="" clip-rule="evenodd" transform="matrix(1 0 0 1 0 0)" d="M357.515 708.017L383.1123 708.017L383.1123 708.017L383.1123 672.1592L383.1123 672.1592L357.515 672.1592z" /></clipPath><clipPath id="69"><path id="" clip-rule="evenodd" transform="matrix(1 0 0 1 0 0)" d="M357.515 708.017L383.1123 708.017L383.1123 708.017L383.1123 672.1592L383.1123 672.1592L357.515 672.1592z" /></clipPath></defs><g transform="matrix(1.333333 0 0 1.333333 0 0)"><g clip-path="url(#1)"><g clip-path="url(#2)"><path id="1" transform="matrix(1 0 0 -1 0 834)" d="M91.866 67.4211L562.134 67.4211L562.134 74.92501L91.866 74.92501z" stroke="none" fill="#686868" fill-rule="nonzero" /><path id="2" transform="matrix(1 0 0 -1 0 834)" d="M562.134 526.984L91.866 526.984" stroke="#686868" stroke-width="1" fill="none" /><path id="3" transform="matrix(1 0 0 -1 0 834)" d="M562.134 307.016L91.866 307.016" stroke="#686868" stroke-width="1" fill="none" /></g><g clip-path="url(#3)"></g><g clip-path="url(#4)"><g transform="matrix(0.9981287 0 0 1.004975 265.453 140.327)"><g transform="matrix(1 0 0 1 0 0)"><image x="0" y="0" xlink:href="img_01.png" width="101" height="120" /></g></g></g><g clip-path="url(#5)"></g><g clip-path="url(#6)"><g transform="matrix(1.005679 0 0 1.005504 118.88 141.5049)"><g transform="matrix(1 0 0 1 0 0)"><image x="0" y="0" xlink:href="img_02.png" width="89" height="119" /></g></g></g><path id="9" transform="matrix(1 0 0 -1 0 834)" d="M130.967 629.197L143.657 603.659" stroke="#000000" stroke-width="0.766" fill="none" /><path id="10" transform="matrix(1 0 0 -1 0 834)" d="M141.909 603.99L143.446 604.081L144.448 605.251L144.673 601.612z" stroke="none" fill="#000000" fill-rule="nonzero" /><g clip-path="url(#7)"><g><g clip-path="url(#8)"><g clip-path="url(#9)"><path id="11" transform="matrix(1 0 0 -1 0 834)" d="M154.918 625.051L167.608 599.513" stroke="#FFFFFF" stroke-width="0.766" fill="none" stroke-opacity="0.8" /><path id="12" transform="matrix(1 0 0 -1 0 834)" d="M167.396 599.936L165.859 599.844L168.624 597.466L168.398 601.106z" stroke="none" fill="#FFFFFF" fill-rule="nonzero" fill-opacity="0.8" /></g></g></g></g><g clip-path="url(#10)"><path id="13" transform="matrix(1 0 0 -1 0 834)" d="M195.507 607.254C 195.507 589.865 209.678 575.769 227.158 575.769C 244.638 575.769 258.809 589.865 258.809 607.254C 258.809 624.642 244.638 638.739 227.158 638.739C 209.678 638.739 195.507 624.642 195.507 607.254" stroke="none" fill="#FFFFFF" fill-rule="nonzero" /></g><g clip-path="url(#11)"></g><g clip-path="url(#12)"><g transform="matrix(1.009099 0 0 1.003514 191.849 162.098)"><g transform="matrix(1 0 0 1 0 0)"><image x="0" y="0" xlink:href="img_03.png" width="68" height="107" /></g></g></g><g clip-path="url(#13)"><path id="15" transform="matrix(1 0 0 -1 0 834)" d="M195.507 607.254C 195.507 589.865 209.678 575.769 227.158 575.769C 244.638 575.769 258.809 589.865 258.809 607.254C 258.809 624.642 244.638 638.739 227.158 638.739C 209.678 638.739 195.507 624.642 195.507 607.254z" stroke="#000000" stroke-width="0.766" fill="none" /></g><path id="16" transform="matrix(1 0 0 -1 0 834)" d="M307.412 606.816L268.492 606.816" stroke="#000000" stroke-width="0.766" fill="none" /><path id="17" transform="matrix(1 0 0 -1 0 834)" d="M269.567 608.234L268.965 606.817L269.567 605.399L266.207 606.817z" stroke="none" fill="#000000" fill-rule="nonzero" /><g clip-path="url(#14)"><path id="18" transform="matrix(1 0 0 -1 0 834)" d="M160.036 698.353C 157.801 698.353 155.99 696.542 155.99 694.307C 155.99 692.073 157.801 690.261 160.036 690.261C 162.271 690.261 164.082 692.073 164.082 694.307C 164.082 696.542 162.271 698.353 160.036 698.353M160.036 690.753C 158.085 690.753 156.504 692.334 156.504 694.285C 156.504 696.235 158.085 697.817 160.036 697.817C 161.987 697.817 163.568 696.235 163.568 694.285C 163.568 692.334 161.987 690.753 160.036 690.753" stroke="none" fill="#000000" fill-rule="nonzero" /></g><g clip-path="url(#15)"><path id="20" transform="matrix(1 0 0 -1 0 834)" d="M319.121 698.353C 316.886 698.353 315.075 696.542 315.075 694.307C 315.075 692.073 316.886 690.261 319.121 690.261C 321.356 690.261 323.167 692.073 323.167 694.307C 323.167 696.542 321.356 698.353 319.121 698.353M319.121 690.753C 317.17 690.753 315.589 692.334 315.589 694.285C 315.589 696.235 317.17 697.817 319.121 697.817C 321.072 697.817 322.653 696.235 322.653 694.285C 322.653 692.334 321.072 690.753 319.121 690.753" stroke="none" fill="#000000" fill-rule="nonzero" /></g><g clip-path="url(#16)"></g><g clip-path="url(#17)"><g transform="matrix(1.006449 0 0 0.9985386 355.366 111.7083)"><g transform="matrix(1 0 0 1 0 0)"><image x="0" y="0" xlink:href="img_04.png" width="37" height="57" /></g></g></g><g clip-path="url(#18)"></g><g clip-path="url(#19)"><g transform="matrix(1.023622 0 0 0.9973868 95.1402 153.4903)"><g transform="matrix(1 0 0 1 0 0)"><image x="0" y="0" xlink:href="img_05.png" width="27" height="38" /></g></g></g><g clip-path="url(#20)"></g><g clip-path="url(#21)"><g transform="matrix(-1.023622 0 0 0.9973868 230.496 153.4903)"><g transform="matrix(1 0 0 1 0 0)"><image x="0" y="0" xlink:href="img_06.png" width="27" height="38" /></g></g></g><g clip-path="url(#22)"></g><g clip-path="url(#23)"><g transform="matrix(1.023622 0 0 0.9967948 279.918 230.5428)"><g transform="matrix(1 0 0 1 0 0)"><image x="0" y="0" xlink:href="img_07.png" width="27" height="38" /></g></g></g><g clip-path="url(#24)"></g><g clip-path="url(#25)"><g transform="matrix(-1.023622 0 0 0.9967948 385.505 231.2508)"><g transform="matrix(1 0 0 1 0 0)"><image x="0" y="0" xlink:href="img_07.png" width="27" height="38" /></g></g></g><g clip-path="url(#26)"></g><g clip-path="url(#27)"><g transform="matrix(1.000824 0 0 1.005624 119.292 387.3175)"><g transform="matrix(1 0 0 1 0 0)"><image x="0" y="0" xlink:href="img_08.png" width="66" height="97" /></g></g></g><g clip-path="url(#28)"></g><g clip-path="url(#29)"><g transform="matrix(1.001836 0 0 1.005624 244.872 387.5095)"><g transform="matrix(1 0 0 1 0 0)"><image x="0" y="0" xlink:href="img_09.png" width="69" height="97" /></g></g></g><g clip-path="url(#30)"><g><g clip-path="url(#31)"><g clip-path="url(#32)"><path id="470" transform="matrix(1 0 0 -1 0 834)" d="M142.753 405.381L158.992 382.314" stroke="#FFFFFF" stroke-width="0.7780001" fill="none" /><path id="471" transform="matrix(1 0 0 -1 0 834)" d="M141.416 407.28L142.204 403.659L143.029 404.989L144.559 405.318z" stroke="none" fill="#FFFFFF" fill-rule="nonzero" /></g></g></g></g><g clip-path="url(#33)"><g><g clip-path="url(#34)"><g clip-path="url(#35)"><path id="472" transform="matrix(1 0 0 -1 0 834)" d="M286.086 411.947C 286.086 411.947 272.05 408.908 264.772 389.713" stroke="#000000" stroke-width="0.7780001" fill="none" stroke-opacity="0.8" /><path id="473" transform="matrix(1 0 0 -1 0 834)" d="M263.997 387.524L266.513 390.245L264.95 390.159L263.804 391.224z" stroke="none" fill="#000000" fill-rule="nonzero" fill-opacity="0.8" /></g></g></g></g><g clip-path="url(#36)"><path id="474" transform="matrix(1 0 0 -1 0 834)" d="M300.408 410.28C 300.408 397.297 314.076 386.772 330.936 386.772C 347.796 386.772 361.464 397.297 361.464 410.28C 361.464 423.263 347.796 433.788 330.936 433.788C 314.076 433.788 300.408 423.263 300.408 410.28" stroke="none" fill="#FFFFFF" fill-rule="nonzero" /></g><g clip-path="url(#37)"></g><g clip-path="url(#38)"><g transform="matrix(1.005276 0 0 1.004585 300.843 382.0508)"><g transform="matrix(1 0 0 1 0 0)"><image x="0" y="0" xlink:href="img_10.png" width="58" height="67" /></g></g></g><g clip-path="url(#39)"><path id="476" transform="matrix(1 0 0 -1 0 834)" d="M300.408 410.28C 300.408 397.297 314.076 386.772 330.936 386.772C 347.796 386.772 361.464 397.297 361.464 410.28C 361.464 423.263 347.796 433.788 330.936 433.788C 314.076 433.788 300.408 423.263 300.408 410.28z" stroke="#000000" stroke-width="0.7780001" fill="none" /><path id="477" transform="matrix(1 0 0 -1 0 834)" d="M172.652 459.392C 170.382 459.392 168.541 457.552 168.541 455.281C 168.541 453.011 170.382 451.17 172.652 451.17C 174.922 451.17 176.763 453.011 176.763 455.281C 176.763 457.552 174.922 459.392 172.652 459.392M172.652 451.67C 170.67 451.67 169.063 453.277 169.063 455.259C 169.063 457.24 170.67 458.847 172.652 458.847C 174.634 458.847 176.241 457.24 176.241 455.259C 176.241 453.277 174.634 451.67 172.652 451.67" stroke="none" fill="#000000" fill-rule="nonzero" /></g><g clip-path="url(#40)"><path id="479" transform="matrix(1 0 0 -1 0 834)" d="M298.621 459.358C 296.351 459.358 294.51 457.518 294.51 455.247C 294.51 452.977 296.351 451.136 298.621 451.136C 300.891 451.136 302.732 452.977 302.732 455.247C 302.732 457.518 300.891 459.358 298.621 459.358M298.621 451.636C 296.639 451.636 295.032 453.243 295.032 455.225C 295.032 457.206 296.639 458.813 298.621 458.813C 300.603 458.813 302.21 457.206 302.21 455.225C 302.21 453.243 300.603 451.636 298.621 451.636" stroke="none" fill="#000000" fill-rule="nonzero" /></g><g clip-path="url(#41)"><g><g clip-path="url(#42)"><g clip-path="url(#43)"><path id="481" transform="matrix(1 0 0 -1 0 834)" d="M176.655 356.173L167.23 369.56" stroke="#000000" stroke-width="0.7780001" fill="none" /><path id="482" transform="matrix(1 0 0 -1 0 834)" d="M176.378 356.566L174.848 356.238L177.991 354.276L177.203 357.895z" stroke="none" fill="#000000" fill-rule="nonzero" /></g></g></g></g><g clip-path="url(#44)"><path id="483" transform="matrix(1 0 0 -1 0 834)" d="M176.359 419.545C 176.359 404.275 188.737 391.897 204.007 391.897C 219.276 391.897 231.655 404.275 231.655 419.545C 231.655 434.815 219.276 447.193 204.007 447.193C 188.737 447.193 176.359 434.815 176.359 419.545" stroke="none" fill="#FFFFFF" fill-rule="nonzero" /></g><g clip-path="url(#45)"></g><g clip-path="url(#46)"><g transform="matrix(1.009655 0 0 1.002379 175.737 386.6243)"><g transform="matrix(1 0 0 1 0 0)"><image x="0" y="0" xlink:href="img_11.png" width="56" height="81" /></g></g></g><g clip-path="url(#47)"><path id="485" transform="matrix(1 0 0 -1 0 834)" d="M176.359 419.545C 176.359 404.275 188.737 391.897 204.007 391.897C 219.276 391.897 231.655 404.275 231.655 419.545C 231.655 434.815 219.276 447.193 204.007 447.193C 188.737 447.193 176.359 434.815 176.359 419.545z" stroke="#000000" stroke-width="0.7780001" fill="none" /><path id="486" transform="matrix(1 0 0 -1 0 834)" d="M293.437 424.934C 291.759 424.934 290.399 423.574 290.399 421.896C 290.399 420.218 291.759 418.858 293.437 418.858C 295.115 418.858 296.475 420.218 296.475 421.896C 296.475 423.574 295.115 424.934 293.437 424.934M293.437 419.227C 291.972 419.227 290.785 420.414 290.785 421.879C 290.785 423.344 291.972 424.531 293.437 424.531C 294.902 424.531 296.089 423.344 296.089 421.879C 296.089 420.414 294.902 419.227 293.437 419.227" stroke="none" fill="#000000" fill-rule="nonzero" /></g><g clip-path="url(#48)"><path id="488" transform="matrix(1 0 0 -1 0 834)" d="M308.991 421.879C 307.216 421.879 305.776 420.44 305.776 418.665C 305.776 416.889 307.216 415.45 308.991 415.45C 310.766 415.45 312.206 416.889 312.206 418.665C 312.206 420.44 310.766 421.879 308.991 421.879M308.991 415.841C 307.441 415.841 306.185 417.097 306.185 418.647C 306.185 420.197 307.441 421.453 308.991 421.453C 310.541 421.453 311.797 420.197 311.797 418.647C 311.797 417.097 310.541 415.841 308.991 415.841" stroke="none" fill="#000000" fill-rule="nonzero" /></g><g clip-path="url(#49)"></g><g clip-path="url(#50)"><g transform="matrix(1.006449 0 0 0.9985386 355.366 331.6773)"><g transform="matrix(1 0 0 1 0 0)"><image x="0" y="0" xlink:href="img_04.png" width="37" height="57" /></g></g></g><g clip-path="url(#51)"></g><g clip-path="url(#52)"><g transform="matrix(1.023622 0 0 0.9973868 99.9591 450.5613)"><g transform="matrix(1 0 0 1 0 0)"><image x="0" y="0" xlink:href="img_05.png" width="27" height="38" /></g></g></g><g clip-path="url(#53)"></g><g clip-path="url(#54)"><g transform="matrix(-1.023622 0 0 0.9973868 209.858 451.2703)"><g transform="matrix(1 0 0 1 0 0)"><image x="0" y="0" xlink:href="img_05.png" width="27" height="38" /></g></g></g><g clip-path="url(#55)"></g><g clip-path="url(#56)"><g transform="matrix(1.012787 0 0 0.9967948 231.774 417.1248)"><g transform="matrix(1 0 0 1 0 0)"><image x="0" y="0" xlink:href="img_12.png" width="30" height="38" /></g></g></g><g clip-path="url(#57)"></g><g clip-path="url(#58)"><g transform="matrix(-1.014148 0 0 0.9967948 359.901 450.5738)"><g transform="matrix(1 0 0 1 0 0)"><image x="0" y="0" xlink:href="img_13.png" width="33" height="38" /></g></g></g><g clip-path="url(#59)"></g><g clip-path="url(#60)"><g transform="matrix(1.022789 0 0 0.9967948 229.715 451.2748)"><g transform="matrix(1 0 0 1 0 0)"><image x="0" y="0" xlink:href="img_14.png" width="27" height="38" /></g></g></g><g transform="matrix(1.00175 0 0 1.005477 134.285 575.328)"><g transform="matrix(1 0 0 1 0 0)"><image x="0" y="0" xlink:href="img_15.png" width="128" height="132" /></g></g><g transform="matrix(1.006491 0 0 1.002707 251.534 574.691)"><g transform="matrix(1 0 0 1 0 0)"><image x="0" y="0" xlink:href="img_16.png" width="106" height="133" /></g></g><g clip-path="url(#61)"><path id="1064" transform="matrix(1 0 0 -1 0 834)" d="M176.508 145.145C 179.418 145.133 182.217 145.161 184.268 145.226" stroke="#FFFFFF" stroke-width="0.797" fill="none" /></g><path id="1065" transform="matrix(1 0 0 -1 0 834)" d="M183.217 143.713L183.776 145.215L183.083 146.66L186.643 145.346z" stroke="none" fill="#FFFFFF" fill-rule="nonzero" /><g clip-path="url(#62)"><path id="1066" transform="matrix(1 0 0 -1 0 834)" d="M170.545 156.054C 170.618 171.514 151.009 168.596 152.51 155.019C 153.151 149.218 157.901 146.398 163.311 145.63C 165.476 145.323 171.179 145.167 176.508 145.145" stroke="#000000" stroke-width="0.797" fill="none" /><path id="1067" transform="matrix(1 0 0 -1 0 834)" d="M223.826 144.997C 220.698 144.862 217.66 144.775 215.47 144.761" stroke="#FFFFFF" stroke-width="0.797" fill="none" /></g><path id="1068" transform="matrix(1 0 0 -1 0 834)" d="M216.599 146.24L215.962 144.77L216.578 143.29L213.092 144.79z" stroke="none" fill="#FFFFFF" fill-rule="nonzero" /><g clip-path="url(#63)"><path id="1069" transform="matrix(1 0 0 -1 0 834)" d="M229.029 156.108C 228.362 171.554 248.386 169.39 247.383 155.765C 246.954 149.944 242.239 146.944 236.774 145.969C 234.647 145.59 229.109 145.225 223.826 144.997" stroke="#000000" stroke-width="0.797" fill="none" /></g><path id="1070" transform="matrix(1 0 0 -1 0 834)" d="M309.519 164.073L314.36 165.773" stroke="#FFFFFF" stroke-width="0.797" fill="none" /><path id="1071" transform="matrix(1 0 0 -1 0 834)" d="M306.334 167.204L306.981 172.294" stroke="#FFFFFF" stroke-width="0.797" fill="none" /><path id="1072" transform="matrix(1 0 0 -1 0 834)" d="M301.592 165.348L297.707 168.699" stroke="#FFFFFF" stroke-width="0.797" fill="none" /><g clip-path="url(#64)"></g><g clip-path="url(#65)"><g transform="matrix(1.006449 0 0 0.9985386 355.366 551.6453)"><g transform="matrix(1 0 0 1 0 0)"><image x="0" y="0" xlink:href="img_04.png" width="37" height="57" /></g></g></g><g clip-path="url(#66)"></g><g clip-path="url(#67)"><g transform="matrix(1.023622 0 0 0.9973868 109.88 671.1383)"><g transform="matrix(1 0 0 1 0 0)"><image x="0" y="0" xlink:href="img_05.png" width="27" height="38" /></g></g></g><g clip-path="url(#68)"></g><g clip-path="url(#69)"><g transform="matrix(-1.023622 0 0 0.9973868 384.132 671.1383)"><g transform="matrix(1 0 0 1 0 0)"><image x="0" y="0" xlink:href="img_05.png" width="27" height="38" /></g></g></g><path id="1583" transform="matrix(1 0 0 -1 0 834)" d="M633 15L633 0M633 819L633 834M21 15L21 0M21 819L21 834M639 21L654 21M15 21L0 21M639 813L654 813M15 813L0 813" stroke="#000000" stroke-width="1.25" fill="none" /><path id="1584" transform="matrix(1 0 0 -1 0 834)" d="M633 15L633 0M633 819L633 834M21 15L21 0M21 819L21 834M639 21L654 21M15 21L0 21M639 813L654 813M15 813L0 813" stroke="#000000" stroke-width="0.25" fill="none" /><path id="1585" transform="matrix(1 0 0 -1 0 834)" d="M32.2781 9.28203C 32.2781 9.516021 32.2961 9.58203 32.3559 9.62383C 32.416 9.66602 32.5719 9.69609 32.8238 9.69609C 33.2262 9.69609 33.5738 9.62383 33.8441 9.45C 34.3238 9.167971 34.552 8.63398 34.552 8.016021C 34.552 7.05586 34.0359 6.21602 32.9141 6.21602C 32.4762 6.21602 32.2781 6.33008 32.2781 6.78594zM31.252 9.900001L31.252 9.726171C 31.7141 9.68984 31.7621 9.66602 31.7621 9.150001L31.7621 9.150001L31.7621 6.74414C 31.7621 6.23398 31.7141 6.19805 31.198 6.16211L31.198 6.16211L31.198 6L31.198 6L32.6199 6C 33.3578 6 33.952 6.15 34.402 6.49805C 34.8641 6.84609 35.1398 7.38008 35.1398 8.1C 35.1398 8.664061 34.9301 9.101951 34.6359 9.38984C 34.2641 9.74414 33.7 9.900001 32.9379 9.900001z" stroke="#000000" stroke-width="0.4" fill="none" /><path id="1586" transform="matrix(1 0 0 -1 0 834)" d="M38.3801 6.97813C 38.2898 6.70195 38.1758 6.51016 38.0738 6.38984C 37.9359 6.23398 37.732 6.20391 37.402 6.20391C 37.15 6.20391 36.9461 6.21602 36.8258 6.28203C 36.718 6.34219 36.6879 6.46211 36.6879 6.78594L36.6879 6.78594L36.6879 9.15586C 36.6879 9.66602 36.7418 9.69609 37.216 9.73203L37.216 9.73203L37.216 9.900001L37.216 9.900001L35.65 9.900001L35.65 9.900001L35.65 9.73203C 36.1359 9.69609 36.1777 9.66602 36.1777 9.15586L36.1777 9.15586L36.1777 6.75586C 36.1777 6.24609 36.1301 6.20391 35.6258 6.16797L35.6258 6.16797L35.6258 6L35.6258 6L38.3438 6C 38.398 6.18594 38.5238 6.75586 38.5598 6.94219z" stroke="#000000" stroke-width="0.4" fill="none" /><path id="1587" transform="matrix(1 0 0 -1 0 834)" d="M41.0918 9.023829C 41.0438 9.40195 41.0141 9.63594 40.9898 9.851951C 40.7617 9.92383 40.5098 9.989841 40.234 9.989841C 39.4598 9.989841 38.998 9.49805 38.998 8.921881C 38.998 8.24414 39.6039 7.94414 39.9879 7.73984C 40.4379 7.5 40.768 7.28984 40.768 6.84609C 40.768 6.40781 40.498 6.12617 40.048 6.12617C 39.4301 6.12617 39.1598 6.73203 39.0641 7.09805L39.0641 7.09805L38.8898 7.05586C 38.9258 6.767971 39.0039 6.25195 39.052 6.12617C 39.1059 6.09609 39.1961 6.05391 39.3461 6C 39.4961 5.95781 39.6879 5.91016 39.934 5.91016C 40.732 5.91016 41.266 6.41406 41.266 7.04414C 41.266 7.71602 40.6961 7.99805 40.2277 8.23789C 39.7539 8.48398 39.466 8.68789 39.466 9.12617C 39.466 9.45 39.6699 9.78594 40.132 9.78594C 40.6539 9.78594 40.8098 9.371881 40.918 8.98789z" stroke="#000000" stroke-width="0.4" fill="none" /><path id="1588" transform="matrix(1 0 0 -1 0 834)" d="M46.648 6L46.648 6.16797C 46.1258 6.21602 46.1078 6.24609 46.0898 6.88203L46.0898 6.88203L46.0301 9.05391C 46.0117 9.671881 46.0539 9.68398 46.582 9.73203L46.582 9.73203L46.582 9.900001L46.582 9.900001L45.5617 9.900001L45.5617 9.900001L44.1758 6.9L44.1758 6.9L42.8078 9.900001L42.8078 9.900001L41.8238 9.900001L41.8238 9.900001L41.8238 9.73203C 42.3699 9.67813 42.4 9.653911 42.3461 8.87383L42.3461 8.87383L42.2617 7.626171C 42.2141 7.00195 42.1777 6.73789 42.148 6.528131C 42.1059 6.27617 41.9859 6.21016 41.6379 6.16797L41.6379 6.16797L41.6379 6L41.6379 6L43.0359 6L43.0359 6L43.0359 6.16797C 42.6398 6.21016 42.4961 6.25195 42.484 6.53984C 42.4777 6.78008 42.4777 7.04414 42.502 7.53594L42.502 7.53594L42.5918 9.24609L42.5918 9.24609L42.6039 9.24609L42.6039 9.24609L43.948 6.04219L43.948 6.04219L44.068 6.04219L44.068 6.04219L45.532 9.33008L45.532 9.33008L45.5559 9.33008L45.5559 9.33008L45.5738 6.88203C 45.5801 6.24609 45.5559 6.21602 45.0699 6.16797L45.0699 6.16797L45.0699 6z" stroke="#000000" stroke-width="0.4" fill="none" /><path id="1589" transform="matrix(1 0 0 -1 0 834)" d="M51.8738 7.05586C 51.5738 6.45586 51.2496 6.12617 50.6379 6.12617C 49.7258 6.12617 49.0656 6.89414 49.0656 8.016021C 49.0656 8.92813 49.5996 9.773829 50.602 9.773829C 51.2496 9.773829 51.6098 9.516021 51.7656 8.88008L51.7656 8.88008L51.9457 8.921881C 51.9098 9.24609 51.8738 9.48594 51.8258 9.828131C 51.6578 9.85781 51.2496 9.989841 50.7637 9.989841C 49.4258 9.989841 48.4539 9.15586 48.4539 7.89609C 48.4539 6.94219 49.1078 5.91016 50.602 5.91016C 51.034 5.91016 51.5379 6.03008 51.7059 6.07188C 51.8137 6.26992 51.9637 6.71406 52.0477 6.98984z" stroke="#000000" stroke-width="0.4" fill="none" /><path id="1590" transform="matrix(1 0 0 -1 0 834)" d="M54.3398 9.773829C 55.1258 9.773829 55.7855 9.101951 55.7855 7.83594C 55.7855 6.68398 55.1855 6.12617 54.5195 6.12617C 53.6738 6.12617 53.0559 6.94805 53.0559 8.076171C 53.0559 9.19805 53.6676 9.773829 54.3398 9.773829zM54.4598 9.989841C 53.1996 9.989841 52.4438 8.98789 52.4438 7.90781C 52.4438 6.75586 53.3078 5.91016 54.3938 5.91016C 55.4918 5.91016 56.3977 6.70195 56.3977 7.99805C 56.3977 9.19805 55.4797 9.989841 54.4598 9.989841z" stroke="#000000" stroke-width="0.4" fill="none" /><path id="1591" transform="matrix(1 0 0 -1 0 834)" d="M61.8277 6L61.8277 6.16797C 61.3059 6.21602 61.2879 6.24609 61.2695 6.88203L61.2695 6.88203L61.2098 9.05391C 61.1918 9.671881 61.2336 9.68398 61.7617 9.73203L61.7617 9.73203L61.7617 9.900001L61.7617 9.900001L60.7418 9.900001L60.7418 9.900001L59.3559 6.9L59.3559 6.9L57.9879 9.900001L57.9879 9.900001L57.0035 9.900001L57.0035 9.900001L57.0035 9.73203C 57.5496 9.67813 57.5797 9.653911 57.5258 8.87383L57.5258 8.87383L57.4418 7.626171C 57.3938 7.00195 57.3578 6.73789 57.3277 6.528131C 57.2855 6.27617 57.1656 6.21016 56.8176 6.16797L56.8176 6.16797L56.8176 6L56.8176 6L58.2156 6L58.2156 6L58.2156 6.16797C 57.8195 6.21016 57.6758 6.25195 57.6637 6.53984C 57.6578 6.78008 57.6578 7.04414 57.6816 7.53594L57.6816 7.53594L57.7719 9.24609L57.7719 9.24609L57.7836 9.24609L57.7836 9.24609L59.1277 6.04219L59.1277 6.04219L59.2477 6.04219L59.2477 6.04219L60.7117 9.33008L60.7117 9.33008L60.7355 9.33008L60.7355 9.33008L60.7535 6.88203C 60.7598 6.24609 60.7355 6.21602 60.2496 6.16797L60.2496 6.16797L60.2496 6z" stroke="#000000" stroke-width="0.4" fill="none" /><path id="1592" transform="matrix(1 0 0 -1 0 834)" d="M63.8258 6L63.8258 6.16797C 63.3336 6.20391 63.2855 6.23398 63.2855 6.75L63.2855 6.75L63.2855 9.150001C 63.2855 9.66016 63.3336 9.69609 63.8258 9.73203L63.8258 9.73203L63.8258 9.900001L63.8258 9.900001L62.2355 9.900001L62.2355 9.900001L62.2355 9.73203C 62.7277 9.69609 62.7758 9.66016 62.7758 9.150001L62.7758 9.150001L62.7758 6.75C 62.7758 6.23984 62.7277 6.20391 62.2355 6.16797L62.2355 6.16797L62.2355 6z" stroke="#000000" stroke-width="0.4" fill="none" /><path id="1593" transform="matrix(1 0 0 -1 0 834)" d="M66.5074 9.023829C 66.4598 9.40195 66.4297 9.63594 66.4055 9.851951C 66.1777 9.92383 65.9258 9.989841 65.6496 9.989841C 64.8758 9.989841 64.4137 9.49805 64.4137 8.921881C 64.4137 8.24414 65.0195 7.94414 65.4035 7.73984C 65.8535 7.5 66.1836 7.28984 66.1836 6.84609C 66.1836 6.40781 65.9137 6.12617 65.46371 6.12617C 64.8457 6.12617 64.5758 6.73203 64.4797 7.09805L64.4797 7.09805L64.3055 7.05586C 64.3418 6.767971 64.4195 6.25195 64.46761 6.12617C 64.52151 6.09609 64.6117 6.05391 64.7617 6C 64.91171 5.95781 65.1035 5.91016 65.3496 5.91016C 66.1477 5.91016 66.6816 6.41406 66.6816 7.04414C 66.6816 7.71602 66.1117 7.99805 65.6438 8.23789C 65.1695 8.48398 64.8816 8.68789 64.8816 9.12617C 64.8816 9.45 65.0855 9.78594 65.5477 9.78594C 66.0695 9.78594 66.2258 9.371881 66.3336 8.98789z" stroke="#000000" stroke-width="0.4" fill="none" /><path id="1594" transform="matrix(1 0 0 -1 0 834)" d="M69.4055 7.68008L68.3016 7.68008C 68.4816 8.171881 68.6734 8.69414 68.8656 9.21016L68.8656 9.21016L68.8777 9.21016zM70.9355 6L70.9355 6.16797C 70.5457 6.20391 70.46761 6.25781 70.2758 6.77383C 69.89181 7.81797 69.4895 8.95781 69.11761 9.989841L69.11761 9.989841L68.9316 9.93594L68.9316 9.93594L67.68951 6.78594C 67.4797 6.25781 67.3957 6.22188 67.0176 6.16797L67.0176 6.16797L67.0176 6L67.0176 6L68.3195 6L68.3195 6L68.3195 6.16797C 67.8695 6.21016 67.81561 6.26992 67.9477 6.64805C 68.0258 6.9 68.1156 7.15195 68.2117 7.42188L68.2117 7.42188L69.4895 7.42188C 69.62151 7.05586 69.74181 6.73203 69.8195 6.49805C 69.8977 6.26406 69.8438 6.21602 69.4656 6.16797L69.4656 6.16797L69.4656 6z" stroke="#000000" stroke-width="0.4" fill="none" /><path id="1595" transform="matrix(1 0 0 -1 0 834)" d="M71.7273 5.92813C 71.9195 5.92813 72.06371 6.06602 72.06371 6.27617C 72.06371 6.46797 71.9195 6.61797 71.7273 6.61797C 71.5355 6.61797 71.3914 6.46797 71.3914 6.27617C 71.3914 6.06602 71.5355 5.92813 71.7273 5.92813z" stroke="#000000" stroke-width="0.4" fill="none" /><path id="1596" transform="matrix(1 0 0 -1 0 834)" d="M73.9234 6L73.9234 6.15586C 73.53951 6.19219 73.4977 6.22813 73.4977 6.63594L73.4977 6.63594L73.4977 8.70586C 73.2336 8.59805 72.9516 8.51992 72.6453 8.471881L72.6453 8.471881L72.6453 8.328131C 73.0055 8.26797 73.0234 8.24414 73.0234 7.871881L73.0234 7.871881L73.0234 6.63594C 73.0234 6.22813 72.9816 6.19219 72.6035 6.15586L72.6035 6.15586L72.6035 6zM73.2215 9.216021C 73.3953 9.216021 73.52731 9.36016 73.52731 9.52188C 73.52731 9.70195 73.3953 9.83398 73.2273 9.83398C 73.06561 9.83398 72.9215 9.70195 72.9215 9.52188C 72.9215 9.36016 73.06561 9.216021 73.2215 9.216021z" stroke="#000000" stroke-width="0.4" fill="none" /><path id="1597" transform="matrix(1 0 0 -1 0 834)" d="M77.1574 6L77.1574 6.15586C 76.8094 6.19219 76.7793 6.21602 76.7793 6.62383L76.7793 6.62383L76.7793 7.78203C 76.7793 8.36406 76.4793 8.69414 76.0055 8.69414C 75.8313 8.69414 75.67541 8.621881 75.5074 8.51406C 75.3574 8.41211 75.2254 8.32188 75.1055 8.23203L75.1055 8.23203L75.1055 8.712111C 74.8414 8.59219 74.5594 8.51992 74.27151 8.466021L74.27151 8.466021L74.27151 8.328131C 74.5953 8.26797 74.6313 8.25 74.6313 7.86602L74.6313 7.86602L74.6313 6.62383C 74.6313 6.22813 74.6016 6.19805 74.19341 6.15586L74.19341 6.15586L74.19341 6L74.19341 6L75.4953 6L75.4953 6L75.4953 6.15586C 75.1414 6.19219 75.1055 6.21602 75.1055 6.62383L75.1055 6.62383L75.1055 8.03398C 75.2855 8.18984 75.5195 8.33984 75.7594 8.33984C 76.1613 8.33984 76.3055 8.069921 76.3055 7.65586L76.3055 7.65586L76.3055 6.65391C 76.3055 6.23984 76.2633 6.19219 75.9094 6.15586L75.9094 6.15586L75.9094 6z" stroke="#000000" stroke-width="0.4" fill="none" /><path id="1598" transform="matrix(1 0 0 -1 0 834)" d="M79.4734 6.51016C 79.32931 6.40195 79.1133 6.30586 78.8973 6.30586C 78.5133 6.30586 78.0754 6.65391 78.0754 7.36797C 78.0754 8.23789 78.57931 8.471881 78.8555 8.471881C 79.0832 8.471881 79.32931 8.37617 79.4734 8.16602zM80.4035 6.30586L80.2113 6.32383C 79.9895 6.34805 79.9473 6.37813 79.9473 6.68984L79.9473 6.68984L79.9473 10.2719C 79.7254 10.1941 79.3234 10.1039 79.0113 10.0621L79.0113 10.0621L79.0113 9.917971C 79.44341 9.88789 79.4734 9.869921 79.4734 9.47383L79.4734 9.47383L79.4734 8.628131C 79.3355 8.67617 79.1613 8.69414 79.0773 8.69414C 78.2613 8.69414 77.5293 8.03984 77.5293 7.20586C 77.5293 6.36602 78.1594 5.92813 78.6395 5.92813C 78.7113 5.92813 78.87341 5.96406 79.1074 6.10195L79.1074 6.10195L79.4734 6.31797L79.4734 6.31797L79.4734 5.92813C 79.8215 6.05391 80.27151 6.13203 80.4035 6.15586z" stroke="#000000" stroke-width="0.4" fill="none" /><path id="1599" transform="matrix(1 0 0 -1 0 834)" d="M81.3813 8.24414C 81.4895 8.310161 81.6813 8.35781 81.84921 8.35781C 82.34731 8.35781 82.7676 7.96211 82.7676 7.278131C 82.7676 6.58203 82.4492 6.15586 81.9516 6.15586C 81.6336 6.16211 81.4535 6.37188 81.4176 6.49219C 81.3934 6.54609 81.3813 6.60586 81.3813 6.69609zM81.3813 8.42383L81.3813 10.2719C 81.1594 10.1941 80.7934 10.098 80.5113 10.0621L80.5113 10.0621L80.5113 9.92383C 80.8953 9.88789 80.9074 9.851951 80.9074 9.48008L80.9074 9.48008L80.9074 6.14414C 81.2375 5.98789 81.5434 5.92813 81.78951 5.92813C 82.59341 5.92813 83.2953 6.55195 83.2953 7.43398C 83.2953 8.14219 82.7555 8.69414 82.1133 8.69414C 82.0473 8.69414 81.9633 8.67617 81.86761 8.63398z" stroke="#000000" stroke-width="0.4" fill="none" /><path id="1600" transform="matrix(1 0 0 -1 0 834)" d="M88.1133 8.976171C 88.2633 9.19805 88.50311 9.45 88.8332 9.45C 89.15121 9.45 89.4031 9.257811 89.4031 8.88594C 89.4031 8.44219 88.9953 8.20781 88.44341 8.03398L88.44341 8.03398L88.4852 7.86016C 88.5813 7.88984 88.7254 7.92617 88.8691 7.92617C 89.2113 7.92617 89.6313 7.70391 89.6313 7.15195C 89.6313 6.55781 89.3313 6.23984 88.90511 6.23984C 88.5633 6.23984 88.3172 6.40781 88.1613 6.54609C 88.1133 6.58789 88.0652 6.58203 88.0172 6.54609C 87.9633 6.50391 87.8852 6.42617 87.8793 6.34805C 87.8672 6.27617 87.891 6.21016 87.9754 6.13203C 88.0531 6.06016 88.2992 5.92813 88.5754 5.92813C 89.007 5.92813 90.1473 6.37188 90.1473 7.34414C 90.1473 7.78203 89.841 8.153911 89.3133 8.25586L89.3133 8.25586L89.3133 8.26797C 89.4871 8.38789 89.6313 8.49609 89.7211 8.59219C 89.8352 8.70586 89.90701 8.84414 89.90701 9.01797C 89.90701 9.47383 89.5531 9.810161 89.0133 9.810161C 88.6953 9.810161 88.4191 9.66016 88.25121 9.47383L88.25121 9.47383L87.9871 9.09609z" stroke="#000000" stroke-width="0.4" fill="none" /><path id="1601" transform="matrix(1 0 0 -1 0 834)" d="M92.7871 6L92.7871 6.16211C 92.241 6.20391 92.2051 6.25195 92.2051 6.68398L92.2051 6.68398L92.2051 9.810161C 91.8754 9.67813 91.5211 9.56406 91.1371 9.49805L91.1371 9.49805L91.1371 9.36016L91.1371 9.36016L91.42541 9.34805C 91.6891 9.33594 91.7133 9.305861 91.7133 8.99414L91.7133 8.99414L91.7133 6.68398C 91.7133 6.25195 91.6832 6.20391 91.1371 6.16211L91.1371 6.16211L91.1371 6z" stroke="#000000" stroke-width="0.4" fill="none" /><path id="1602" transform="matrix(1 0 0 -1 0 834)" d="M93.873 8.976171C 94.023 9.19805 94.2633 9.45 94.59341 9.45C 94.9113 9.45 95.1633 9.257811 95.1633 8.88594C 95.1633 8.44219 94.7551 8.20781 94.2031 8.03398L94.2031 8.03398L94.2453 7.86016C 94.341 7.88984 94.4852 7.92617 94.6293 7.92617C 94.9711 7.92617 95.391 7.70391 95.391 7.15195C 95.391 6.55781 95.091 6.23984 94.6652 6.23984C 94.323 6.23984 94.0773 6.40781 93.9211 6.54609C 93.873 6.58789 93.8254 6.58203 93.77731 6.54609C 93.723 6.50391 93.6453 6.42617 93.6391 6.34805C 93.6273 6.27617 93.65121 6.21016 93.7352 6.13203C 93.8133 6.06016 94.0594 5.92813 94.3352 5.92813C 94.7672 5.92813 95.90701 6.37188 95.90701 7.34414C 95.90701 7.78203 95.6012 8.153911 95.073 8.25586L95.073 8.25586L95.073 8.26797C 95.24731 8.38789 95.391 8.49609 95.4813 8.59219C 95.5953 8.70586 95.6672 8.84414 95.6672 9.01797C 95.6672 9.47383 95.3133 9.810161 94.773 9.810161C 94.4551 9.810161 94.17931 9.66016 94.0113 9.47383L94.0113 9.47383L93.74731 9.09609z" stroke="#000000" stroke-width="0.4" fill="none" /><path id="1621" transform="matrix(1 0 0 -1 0 834)" d="M554.472 6.83984C 554.292 6.46211 554.2141 6.43789 553.89 6.43789L553.89 6.43789L552.768 6.43789L552.768 6.43789L553.6201 7.33203C 554.1721 7.91992 554.412 8.273829 554.412 8.79609C 554.412 9.42617 553.932 9.810161 553.404 9.810161C 553.056 9.810161 552.774 9.653911 552.594 9.45586L552.594 9.45586L552.252 8.96992L552.252 8.96992L552.384 8.85C 552.54 9.08398 552.792 9.40781 553.2 9.40781C 553.644 9.40781 553.908 9.11406 553.908 8.61016C 553.908 8.09414 553.53 7.60195 553.158 7.15781C 552.858 6.81016 552.522 6.46797 552.186 6.13789L552.186 6.13789L552.186 6L552.186 6L554.43 6C 554.502 6.26992 554.562 6.53398 554.64 6.78594z" stroke="#000000" stroke-width="0.4" fill="none" /><path id="1622" transform="matrix(1 0 0 -1 0 834)" d="M555.792 9.3L557.19 9.3L557.19 9.3L557.346 9.68984L557.346 9.68984L557.31 9.73789L557.31 9.73789L555.6 9.73789L555.6 9.73789L555.366 7.90781C 555.504 7.96211 555.732 8.028131 555.984 8.028131C 556.638 8.028131 556.962 7.65 556.962 7.121881C 556.962 6.67188 556.71 6.23398 556.2 6.23398C 555.834 6.23398 555.588 6.42617 555.462 6.53984C 555.402 6.58789 555.354 6.58203 555.3 6.53984C 555.234 6.48008 555.18 6.40195 555.174 6.34219C 555.162 6.26992 555.192 6.22188 555.27 6.13789C 555.36 6.05391 555.612 5.92813 555.888 5.92813C 556.206 5.93398 556.608 6.08984 556.932 6.35391C 557.298 6.65391 557.466 6.99609 557.466 7.35586C 557.466 7.84805 557.076 8.369921 556.308 8.369921C 556.146 8.369921 555.864 8.273829 555.636 8.18984z" stroke="#000000" stroke-width="0.4" fill="none" /><path id="1623" transform="matrix(1 0 0 -1 0 834)" d="M559.548 9.989841L559.212 9.989841L559.212 9.989841L557.91 5.73594L557.91 5.73594L558.246 5.73594z" stroke="#000000" stroke-width="0.4" fill="none" /><path id="1624" transform="matrix(1 0 0 -1 0 834)" d="M561.18 9.61211C 561.72 9.61211 561.8701 8.72383 561.8701 7.871881C 561.8701 7.03203 561.726 6.13203 561.186 6.13203C 560.664 6.13203 560.49 7.03789 560.49 7.87813C 560.49 8.712111 560.634 9.61211 561.18 9.61211zM561.186 9.810161C 560.286 9.810161 559.956 8.74219 559.956 7.86602C 559.956 6.91797 560.28 5.92813 561.186 5.92813C 562.086 5.92813 562.404 6.99609 562.404 7.871881C 562.404 8.79609 562.086 9.810161 561.186 9.810161z" stroke="#000000" stroke-width="0.4" fill="none" /><path id="1625" transform="matrix(1 0 0 -1 0 834)" d="M564 9.61211C 564.582 9.61211 564.738 8.86797 564.738 8.33984C 564.738 8.21992 564.732 8.076171 564.7141 7.94414C 564.588 7.84805 564.384 7.77617 564.174 7.77617C 563.67 7.77617 563.3701 8.214061 563.3701 8.74219C 563.3701 9.09609 563.538 9.61211 564 9.61211zM564.078 9.810161C 563.304 9.810161 562.854 9.10781 562.854 8.53203C 562.854 7.90195 563.292 7.43398 563.928 7.43398C 564.042 7.43398 564.156 7.45781 564.288 7.53008L564.288 7.53008L564.69 7.74609C 564.492 6.83398 563.838 6.23398 562.98 6.08984L562.98 6.08984L563.01 5.91016C 563.16 5.91016 563.526 5.96992 563.85 6.10195C 564.66 6.42617 565.2661 7.20586 565.2661 8.310161C 565.2661 9.12617 564.828 9.810161 564.078 9.810161z" stroke="#000000" stroke-width="0.4" fill="none" /><path id="1626" transform="matrix(1 0 0 -1 0 834)" d="M567.294 9.989841L566.958 9.989841L566.958 9.989841L565.656 5.73594L565.656 5.73594L565.992 5.73594z" stroke="#000000" stroke-width="0.4" fill="none" /><path id="1627" transform="matrix(1 0 0 -1 0 834)" d="M569.9641 6.83984C 569.784 6.46211 569.706 6.43789 569.382 6.43789L569.382 6.43789L568.26 6.43789L568.26 6.43789L569.112 7.33203C 569.664 7.91992 569.904 8.273829 569.904 8.79609C 569.904 9.42617 569.424 9.810161 568.896 9.810161C 568.548 9.810161 568.2661 9.653911 568.086 9.45586L568.086 9.45586L567.744 8.96992L567.744 8.96992L567.876 8.85C 568.032 9.08398 568.284 9.40781 568.692 9.40781C 569.136 9.40781 569.4 9.11406 569.4 8.61016C 569.4 8.09414 569.022 7.60195 568.65 7.15781C 568.35 6.81016 568.014 6.46797 567.678 6.13789L567.678 6.13789L567.678 6L567.678 6L569.9221 6C 569.994 6.26992 570.054 6.53398 570.132 6.78594z" stroke="#000000" stroke-width="0.4" fill="none" /><path id="1628" transform="matrix(1 0 0 -1 0 834)" d="M571.806 9.61211C 572.346 9.61211 572.496 8.72383 572.496 7.871881C 572.496 7.03203 572.352 6.13203 571.812 6.13203C 571.29 6.13203 571.116 7.03789 571.116 7.87813C 571.116 8.712111 571.26 9.61211 571.806 9.61211zM571.812 9.810161C 570.912 9.810161 570.582 8.74219 570.582 7.86602C 570.582 6.91797 570.906 5.92813 571.812 5.92813C 572.712 5.92813 573.03 6.99609 573.03 7.871881C 573.03 8.79609 572.712 9.810161 571.812 9.810161z" stroke="#000000" stroke-width="0.4" fill="none" /><path id="1629" transform="matrix(1 0 0 -1 0 834)" d="M575.556 6L575.556 6.16211C 575.01 6.20391 574.9741 6.25195 574.9741 6.68398L574.9741 6.68398L574.9741 9.810161C 574.644 9.67813 574.29 9.56406 573.906 9.49805L573.906 9.49805L573.906 9.36016L573.906 9.36016L574.194 9.34805C 574.458 9.33594 574.482 9.305861 574.482 8.99414L574.482 8.99414L574.482 6.68398C 574.482 6.25195 574.452 6.20391 573.906 6.16211L573.906 6.16211L573.906 6z" stroke="#000000" stroke-width="0.4" fill="none" /><path id="1630" transform="matrix(1 0 0 -1 0 834)" d="M578.814 9.73789L576.522 9.73789C 576.498 9.48008 576.468 9.180079 576.414 8.85L576.414 8.85L576.588 8.85C 576.732 9.24609 576.768 9.3 577.164 9.3L577.164 9.3L578.46 9.3C 577.986 8.25586 577.308 7.01406 576.678 5.99414L576.678 5.99414L576.72 5.92813L576.72 5.92813L577.164 5.98789C 577.74 7.22383 578.298 8.44805 578.862 9.66602z" stroke="#000000" stroke-width="0.4" fill="none" /><path id="1631" transform="matrix(1 0 0 -1 0 834)" d="M584.531 9.61211C 585.071 9.61211 585.221 8.72383 585.221 7.871881C 585.221 7.03203 585.077 6.13203 584.537 6.13203C 584.015 6.13203 583.841 7.03789 583.841 7.87813C 583.841 8.712111 583.985 9.61211 584.531 9.61211zM584.537 9.810161C 583.637 9.810161 583.307 8.74219 583.307 7.86602C 583.307 6.91797 583.631 5.92813 584.537 5.92813C 585.437 5.92813 585.755 6.99609 585.755 7.871881C 585.755 8.79609 585.437 9.810161 584.537 9.810161z" stroke="#000000" stroke-width="0.4" fill="none" /><path id="1632" transform="matrix(1 0 0 -1 0 834)" d="M588.449 6.83984C 588.269 6.46211 588.191 6.43789 587.867 6.43789L587.867 6.43789L586.7451 6.43789L586.7451 6.43789L587.597 7.33203C 588.149 7.91992 588.389 8.273829 588.389 8.79609C 588.389 9.42617 587.909 9.810161 587.381 9.810161C 587.033 9.810161 586.751 9.653911 586.571 9.45586L586.571 9.45586L586.229 8.96992L586.229 8.96992L586.361 8.85C 586.517 9.08398 586.769 9.40781 587.177 9.40781C 587.621 9.40781 587.885 9.11406 587.885 8.61016C 587.885 8.09414 587.507 7.60195 587.135 7.15781C 586.835 6.81016 586.499 6.46797 586.163 6.13789L586.163 6.13789L586.163 6L586.163 6L588.407 6C 588.479 6.26992 588.539 6.53398 588.617 6.78594z" stroke="#000000" stroke-width="0.4" fill="none" /><path id="1633" transform="matrix(1 0 0 -1 0 834)" d="M589.5471 5.92813C 589.739 5.92813 589.883 6.06602 589.883 6.27617C 589.883 6.46797 589.739 6.61797 589.5471 6.61797C 589.355 6.61797 589.211 6.46797 589.211 6.27617C 589.211 6.06602 589.355 5.92813 589.5471 5.92813zM589.541 8.466021C 589.3491 8.466021 589.211 8.328131 589.211 8.13008C 589.211 7.92617 589.3491 7.78203 589.541 7.78203C 589.733 7.78203 589.877 7.92617 589.877 8.13008C 589.877 8.328131 589.733 8.466021 589.541 8.466021z" stroke="#000000" stroke-width="0.4" fill="none" /><path id="1634" transform="matrix(1 0 0 -1 0 834)" d="M591.905 7.35L590.723 7.35C 591.119 8.016021 591.509 8.58594 591.893 9.119921L591.893 9.119921L591.905 9.119921zM592.961 7.06797L592.961 7.35L592.961 7.35L592.385 7.35L592.385 7.35L592.385 9.79219L592.385 9.79219L592.145 9.79219C 591.527 8.976171 590.915 8.08789 590.345 7.23594L590.345 7.23594L590.345 7.06797L590.345 7.06797L591.905 7.06797L591.905 7.06797L591.905 6.63594C 591.905 6.23984 591.881 6.20391 591.359 6.16211L591.359 6.16211L591.359 6L591.359 6L592.895 6L592.895 6L592.895 6.16211C 592.409 6.20391 592.385 6.23398 592.385 6.63594L592.385 6.63594L592.385 7.06797z" stroke="#000000" stroke-width="0.4" fill="none" /><path id="1635" transform="matrix(1 0 0 -1 0 834)" d="M594.785 7.35L593.603 7.35C 593.999 8.016021 594.389 8.58594 594.773 9.119921L594.773 9.119921L594.785 9.119921zM595.841 7.06797L595.841 7.35L595.841 7.35L595.265 7.35L595.265 7.35L595.265 9.79219L595.265 9.79219L595.025 9.79219C 594.407 8.976171 593.795 8.08789 593.225 7.23594L593.225 7.23594L593.225 7.06797L593.225 7.06797L594.785 7.06797L594.785 7.06797L594.785 6.63594C 594.785 6.23984 594.761 6.20391 594.239 6.16211L594.239 6.16211L594.239 6L594.239 6L595.775 6L595.775 6L595.775 6.16211C 595.289 6.20391 595.265 6.23398 595.265 6.63594L595.265 6.63594L595.265 7.06797z" stroke="#000000" stroke-width="0.4" fill="none" /><path id="1636" transform="matrix(1 0 0 -1 0 834)" d="M596.675 5.92813C 596.867 5.92813 597.011 6.06602 597.011 6.27617C 597.011 6.46797 596.867 6.61797 596.675 6.61797C 596.483 6.61797 596.3391 6.46797 596.3391 6.27617C 596.3391 6.06602 596.483 5.92813 596.675 5.92813zM596.669 8.466021C 596.477 8.466021 596.3391 8.328131 596.3391 8.13008C 596.3391 7.92617 596.477 7.78203 596.669 7.78203C 596.861 7.78203 597.005 7.92617 597.005 8.13008C 597.005 8.328131 596.861 8.466021 596.669 8.466021z" stroke="#000000" stroke-width="0.4" fill="none" /><path id="1637" transform="matrix(1 0 0 -1 0 834)" d="M598.265 9.3L599.663 9.3L599.663 9.3L599.819 9.68984L599.819 9.68984L599.783 9.73789L599.783 9.73789L598.073 9.73789L598.073 9.73789L597.8391 7.90781C 597.977 7.96211 598.205 8.028131 598.457 8.028131C 599.111 8.028131 599.435 7.65 599.435 7.121881C 599.435 6.67188 599.183 6.23398 598.673 6.23398C 598.307 6.23398 598.061 6.42617 597.935 6.53984C 597.875 6.58789 597.827 6.58203 597.773 6.53984C 597.707 6.48008 597.653 6.40195 597.647 6.34219C 597.635 6.26992 597.665 6.22188 597.743 6.13789C 597.833 6.05391 598.085 5.92813 598.361 5.92813C 598.679 5.93398 599.081 6.08984 599.405 6.35391C 599.771 6.65391 599.939 6.99609 599.939 7.35586C 599.939 7.84805 599.549 8.369921 598.781 8.369921C 598.619 8.369921 598.337 8.273829 598.109 8.18984z" stroke="#000000" stroke-width="0.4" fill="none" /><path id="1638" transform="matrix(1 0 0 -1 0 834)" d="M601.145 9.3L602.543 9.3L602.543 9.3L602.699 9.68984L602.699 9.68984L602.663 9.73789L602.663 9.73789L600.953 9.73789L600.953 9.73789L600.719 7.90781C 600.857 7.96211 601.085 8.028131 601.337 8.028131C 601.991 8.028131 602.315 7.65 602.315 7.121881C 602.315 6.67188 602.063 6.23398 601.553 6.23398C 601.187 6.23398 600.941 6.42617 600.815 6.53984C 600.755 6.58789 600.707 6.58203 600.653 6.53984C 600.587 6.48008 600.533 6.40195 600.527 6.34219C 600.515 6.26992 600.545 6.22188 600.623 6.13789C 600.713 6.05391 600.965 5.92813 601.241 5.92813C 601.559 5.93398 601.961 6.08984 602.285 6.35391C 602.651 6.65391 602.819 6.99609 602.819 7.35586C 602.819 7.84805 602.429 8.369921 601.661 8.369921C 601.499 8.369921 601.217 8.273829 600.989 8.18984z" stroke="#000000" stroke-width="0.4" fill="none" /><path id="1639" transform="matrix(1 0 0 -1 0 834)" d="M605.489 8.08203C 605.651 8.20195 605.897 8.33398 606.0891 8.33398C 606.527 8.33398 606.893 7.97383 606.893 7.33203C 606.893 6.65391 606.557 6.22188 606.053 6.22188C 605.8491 6.22188 605.621 6.31797 605.489 6.45586zM605.489 8.28008L605.489 8.75391C 605.207 8.63984 604.871 8.53789 604.619 8.49609L604.619 8.49609L604.619 8.351951C 604.991 8.30391 605.015 8.29219 605.015 7.90195L605.015 7.90195L605.015 5.18984C 605.015 4.79414 604.961 4.75781 604.577 4.72188L604.577 4.72188L604.577 4.56016L604.577 4.56016L605.999 4.56016L605.999 4.56016L605.999 4.72188C 605.531 4.76406 605.489 4.79414 605.489 5.25L605.489 5.25L605.489 6.03594C 605.567 5.99414 605.729 5.93398 605.903 5.92813C 606.683 6.07188 607.397 6.65391 607.397 7.56016C 607.397 8.153911 607.001 8.69414 606.335 8.69414C 606.263 8.69414 606.149 8.664061 606.041 8.60391z" stroke="#000000" stroke-width="0.4" fill="none" /><path id="1640" transform="matrix(1 0 0 -1 0 834)" d="M608.303 5.92813C 608.4951 5.92813 608.639 6.06602 608.639 6.27617C 608.639 6.46797 608.4951 6.61797 608.303 6.61797C 608.111 6.61797 607.967 6.46797 607.967 6.27617C 607.967 6.06602 608.111 5.92813 608.303 5.92813z" stroke="#000000" stroke-width="0.4" fill="none" /><path id="1641" transform="matrix(1 0 0 -1 0 834)" d="M615.125 6L615.125 6.15586C 614.783 6.19219 614.735 6.21602 614.735 6.61797L614.735 6.61797L614.735 7.77617C 614.735 8.36406 614.441 8.69414 613.973 8.69414C 613.805 8.69414 613.649 8.621881 613.523 8.53789C 613.373 8.44805 613.199 8.33398 613.025 8.20195C 612.905 8.51406 612.647 8.69414 612.359 8.69414C 612.167 8.69414 612.023 8.628131 611.867 8.53203C 611.687 8.417971 611.555 8.310161 611.429 8.226171L611.429 8.226171L611.429 8.712111C 611.165 8.59219 610.859 8.51406 610.595 8.466021L610.595 8.466021L610.595 8.328131C 610.9431 8.273829 610.961 8.24414 610.961 7.86016L610.961 7.86016L610.961 6.61797C 610.961 6.22813 610.907 6.19219 610.511 6.15586L610.511 6.15586L610.511 6L610.511 6L611.777 6L611.777 6L611.777 6.15586C 611.483 6.19219 611.435 6.22813 611.435 6.61797L611.435 6.61797L611.435 8.028131C 611.615 8.17813 611.8491 8.33984 612.0891 8.33984C 612.455 8.33984 612.611 8.09414 612.611 7.65L612.611 7.65L612.611 6.61797C 612.611 6.22188 612.557 6.19219 612.185 6.15586L612.185 6.15586L612.185 6L612.185 6L613.469 6L613.469 6L613.469 6.15586C 613.139 6.19219 613.085 6.22813 613.085 6.60586L613.085 6.60586L613.085 7.77617C 613.085 7.88984 613.079 7.95586 613.067 8.028131C 613.295 8.21992 613.523 8.33984 613.739 8.33984C 614.117 8.33984 614.267 8.069921 614.267 7.64414L614.267 7.64414L614.267 6.64219C 614.267 6.21602 614.201 6.19219 613.847 6.15586L613.847 6.15586L613.847 6z" stroke="#000000" stroke-width="0.4" fill="none" /><path id="1642" transform="matrix(1 0 0 -1 0 834)" d="M615.947 5.92813C 616.139 5.92813 616.283 6.06602 616.283 6.27617C 616.283 6.46797 616.139 6.61797 615.947 6.61797C 615.755 6.61797 615.611 6.46797 615.611 6.27617C 615.611 6.06602 615.755 5.92813 615.947 5.92813z" stroke="#000000" stroke-width="0.4" fill="none" /></g></g></svg>