<svg xmlns="http://www.w3.org/2000/svg" xmlns:xlink="http://www.w3.org/1999/xlink" id="body_1" preserveAspectRatio="xMinYMin meet" viewBox="0 0 872 1112"><defs><clipPath id="1"><path id="" clip-rule="evenodd" transform="matrix(1 0 0 1 0 0)" d="M0 834L0 0L0 0L654 0L654 0L654 834L654 834L0 834z" /></clipPath><clipPath id="2"><path id="" clip-rule="evenodd" transform="matrix(1 0 0 1 0 0)" d="M21 813L633 813L633 813L633 21L633 21L21 21z" /></clipPath><clipPath id="3"><path id="" clip-rule="evenodd" transform="matrix(1 0 0 1 0 0)" d="M211.988 485.982L310.795 485.982L310.795 485.982L310.795 351.52L310.795 351.52L211.988 351.52z" /></clipPath><clipPath id="4"><path id="" clip-rule="evenodd" transform="matrix(1 0 0 1 0 0)" d="M211.988 485.982L310.795 485.982L310.795 485.982L310.795 351.52L310.795 351.52L211.988 351.52z" /></clipPath><clipPath id="5"><path id="" clip-rule="evenodd" transform="matrix(1 0 0 1 0 0)" d="M212.024 381.602C 212.024 381.602 210.118 379.155 208.137 383.152L208.137 383.152L208.137 383.152C 208.137 383.152 204.782 382.419 203.792 387.966L203.792 387.966L203.792 387.966C 203.792 387.966 203.486 390.984 204.477 394.085L204.477 394.085L204.477 394.085C 204.477 394.085 205.316 396.776 201.962 404.445L201.962 404.445L201.962 404.445C 201.962 404.445 197.007 414.56 195.406 416.274L195.406 416.274L195.406 416.274C 195.406 416.274 189.067 425.977 190.668 433.98L190.668 433.98L190.668 433.98C 190.695 434.115 190.724 434.25 190.756 434.385L190.756 434.385L190.756 434.385C 192.644 442.385 198.645 437.097 198.759 436.996L198.759 436.996L198.759 436.996C 200.331 435.6 201.444 433.674 202.51 431.836L202.51 431.836L202.51 431.836C 205.159 427.272 206.201 422.395 207.146 417.171L207.146 417.171L207.146 417.171C 207.884 413.087 209.279 409.207 210.907 405.444L210.907 405.444L210.907 405.444C 211.535 403.994 212.197 402.562 212.869 401.141L212.869 401.141L212.869 401.141C 213.197 400.447 213.609 399.629 214.056 398.953L214.056 398.953L214.056 398.953C 215.119 397.351 216.214 396.15 216.9 394.283L216.9 394.283L216.9 394.283C 217.684 392.155 218.195 389.857 218.123 387.558L218.123 387.558L218.123 387.558C 218.073 385.979 218.73 384.383 218.572 382.729L218.572 382.729L218.572 382.729C 218.486 381.817 218.3 380.972 217.371 380.804L217.371 380.804L217.371 380.804C 217.13 380.761 215.239 380.909 215.378 381.358L215.378 381.358L215.378 381.358C 215.378 381.358 214.691 380.556 213.757 380.556L213.757 380.556L213.757 380.556C 213.232 380.556 212.628 380.81 212.024 381.602" /></clipPath><clipPath id="6"><path id="" clip-rule="evenodd" transform="matrix(1 0 0 1 0 0)" d="M212.024 381.602C 212.024 381.602 210.118 379.155 208.137 383.152L208.137 383.152L208.137 383.152C 208.137 383.152 204.782 382.419 203.792 387.966L203.792 387.966L203.792 387.966C 203.792 387.966 203.486 390.984 204.477 394.085L204.477 394.085L204.477 394.085C 204.477 394.085 205.316 396.776 201.962 404.445L201.962 404.445L201.962 404.445C 201.962 404.445 197.007 414.56 195.406 416.274L195.406 416.274L195.406 416.274C 195.406 416.274 189.067 425.977 190.668 433.98L190.668 433.98L190.668 433.98C 190.695 434.115 190.724 434.25 190.756 434.385L190.756 434.385L190.756 434.385C 192.644 442.385 198.645 437.097 198.759 436.996L198.759 436.996L198.759 436.996C 200.331 435.6 201.444 433.674 202.51 431.836L202.51 431.836L202.51 431.836C 205.159 427.272 206.201 422.395 207.146 417.171L207.146 417.171L207.146 417.171C 207.884 413.087 209.279 409.207 210.907 405.444L210.907 405.444L210.907 405.444C 211.535 403.994 212.197 402.562 212.869 401.141L212.869 401.141L212.869 401.141C 213.197 400.447 213.609 399.629 214.056 398.953L214.056 398.953L214.056 398.953C 215.119 397.351 216.214 396.15 216.9 394.283L216.9 394.283L216.9 394.283C 217.684 392.155 218.195 389.857 218.123 387.558L218.123 387.558L218.123 387.558C 218.073 385.979 218.73 384.383 218.572 382.729L218.572 382.729L218.572 382.729C 218.486 381.817 218.3 380.972 217.371 380.804L217.371 380.804L217.371 380.804C 217.13 380.761 215.239 380.909 215.378 381.358L215.378 381.358L215.378 381.358C 215.378 381.358 214.691 380.556 213.757 380.556L213.757 380.556L213.757 380.556C 213.232 380.556 212.628 380.81 212.024 381.602" /></clipPath><clipPath id="7"><path id="" clip-rule="evenodd" transform="matrix(1 0 0 1 0 0)" d="M176.504 389.768C 175.462 393.306 173.82 396.667 172.048 399.838L172.048 399.838L172.048 399.838C 171.27 401.23 170.448 402.593 169.591 403.929L169.591 403.929L169.591 403.929C 167.51 407.168 166.181 410.877 165.453 414.716L165.453 414.716L165.453 414.716C 164.771 418.316 162.956 427.67 168.371 428.402L168.371 428.402L168.371 428.402C 168.371 428.402 175.002 429.3 178.204 417.797L178.204 417.797L178.204 417.797L178.204 417.797L180.11 403.194C 180.11 403.194 181.101 397.973 181.939 401.725L181.939 401.725L181.939 401.725C 181.939 401.725 183.236 404.826 184.303 402.46L184.303 402.46L184.303 402.46L184.303 402.46L184.912 402.868L184.912 402.868L184.912 404.092L184.912 404.092L185.446 407.028C 185.446 407.028 187.199 409.965 188.266 407.192L188.266 407.192L188.266 407.192L188.266 407.192L188.343 406.458L188.343 406.458L187.961 404.744L187.961 404.744L187.428 401.563L187.428 401.563L187.733 400.828L187.733 400.828L188.114 402.134C 188.114 402.134 189.172 406.664 189.181 406.702L189.181 406.702L189.181 406.702C 189.305 407.233 189.553 407.866 189.931 408.246L189.931 408.246L189.931 408.246C 190.923 409.246 192.119 408.336 192.387 407.186L192.387 407.186L192.387 407.186C 192.289 407.603 193.559 407.01 193.68 406.85L193.68 406.85L193.68 406.85C 194.133 406.25 194.285 404.927 194.136 404.173L194.136 404.173L194.136 404.173C 194.136 404.173 193.298 399.931 193.603 396.831L193.603 396.831L193.603 396.831L193.603 396.831L193.679 394.955L193.679 394.955L193.526 393.731L193.526 393.731L193.45 392.589C 193.45 392.589 193.526 388.673 191.239 387.857L191.239 387.857L191.239 387.857C 191.239 387.857 186.591 384.922 186.59 384.921L186.59 384.921L186.59 384.921C 185.793 384.418 184.895 384.194 183.969 384.194L183.969 384.194L183.969 384.194C 180.838 384.194 177.391 386.759 176.504 389.768" /></clipPath><clipPath id="8"><path id="" clip-rule="evenodd" transform="matrix(1 0 0 1 0 0)" d="M176.504 389.768C 175.462 393.306 173.82 396.667 172.048 399.838L172.048 399.838L172.048 399.838C 171.27 401.23 170.448 402.593 169.591 403.929L169.591 403.929L169.591 403.929C 167.51 407.168 166.181 410.877 165.453 414.716L165.453 414.716L165.453 414.716C 164.771 418.316 162.956 427.67 168.371 428.402L168.371 428.402L168.371 428.402C 168.371 428.402 175.002 429.3 178.204 417.797L178.204 417.797L178.204 417.797L178.204 417.797L180.11 403.194C 180.11 403.194 181.101 397.973 181.939 401.725L181.939 401.725L181.939 401.725C 181.939 401.725 183.236 404.826 184.303 402.46L184.303 402.46L184.303 402.46L184.303 402.46L184.912 402.868L184.912 402.868L184.912 404.092L184.912 404.092L185.446 407.028C 185.446 407.028 187.199 409.965 188.266 407.192L188.266 407.192L188.266 407.192L188.266 407.192L188.343 406.458L188.343 406.458L187.961 404.744L187.961 404.744L187.428 401.563L187.428 401.563L187.733 400.828L187.733 400.828L188.114 402.134C 188.114 402.134 189.172 406.664 189.181 406.702L189.181 406.702L189.181 406.702C 189.305 407.233 189.553 407.866 189.931 408.246L189.931 408.246L189.931 408.246C 190.923 409.246 192.119 408.336 192.387 407.186L192.387 407.186L192.387 407.186C 192.289 407.603 193.559 407.01 193.68 406.85L193.68 406.85L193.68 406.85C 194.133 406.25 194.285 404.927 194.136 404.173L194.136 404.173L194.136 404.173C 194.136 404.173 193.298 399.931 193.603 396.831L193.603 396.831L193.603 396.831L193.603 396.831L193.679 394.955L193.679 394.955L193.526 393.731L193.526 393.731L193.45 392.589C 193.45 392.589 193.526 388.673 191.239 387.857L191.239 387.857L191.239 387.857C 191.239 387.857 186.591 384.922 186.59 384.921L186.59 384.921L186.59 384.921C 185.793 384.418 184.895 384.194 183.969 384.194L183.969 384.194L183.969 384.194C 180.838 384.194 177.391 386.759 176.504 389.768" /></clipPath><clipPath id="9"><path id="" clip-rule="evenodd" transform="matrix(1 0 0 1 0 0)" d="M162.956 485.982L310.795 485.982L310.795 485.982L310.795 351.52L310.795 351.52L162.956 351.52z" /></clipPath><clipPath id="10"><path id="" clip-rule="evenodd" transform="matrix(1 0 0 1 0 0)" d="M178.9 268.811L282.334 268.811L282.334 268.811L282.334 123.048L282.334 123.048L178.9 123.048z" /></clipPath><clipPath id="11"><path id="" clip-rule="evenodd" transform="matrix(1 0 0 1 0 0)" d="M178.9 268.811L282.334 268.811L282.334 268.811L282.334 123.048L282.334 123.048L178.9 123.048z" /></clipPath><clipPath id="12"><path id="" clip-rule="evenodd" transform="matrix(1 0 0 1 0 0)" d="M219.79 146.896L232.1334 146.896L232.1334 146.896L232.1334 144.994L232.1334 144.994L219.79 144.994z" /></clipPath><clipPath id="13"><path id="" clip-rule="evenodd" transform="matrix(1 0 0 1 0 0)" d="M219.79 146.896L232.133 146.896L232.133 146.896L232.133 144.994L232.133 144.994L219.79 144.994z" /></clipPath><clipPath id="14"><path id="" clip-rule="evenodd" transform="matrix(1 0 0 1 0 0)" d="M219.79 146.896L232.133 146.896L232.133 146.896L232.133 144.9929L232.133 144.9929L219.79 144.9929z" /></clipPath><clipPath id="15"><path id="" clip-rule="evenodd" transform="matrix(1 0 0 1 0 0)" d="M178.9 269.089L315.803 269.089L315.803 269.089L315.803 123.048L315.803 123.048L178.9 123.048z" /></clipPath><clipPath id="16"><path id="" clip-rule="evenodd" transform="matrix(1 0 0 1 0 0)" d="M178.9 269.089L315.803 269.089L315.803 269.089L315.803 123.048L315.803 123.048L178.9 123.048z" /></clipPath><clipPath id="17"><path id="" clip-rule="evenodd" transform="matrix(1 0 0 1 0 0)" d="M178.9 269.089L315.803 269.089L315.803 269.089L315.803 123.048L315.803 123.048L178.9 123.048z" /></clipPath><clipPath id="18"><path id="" clip-rule="evenodd" transform="matrix(1 0 0 1 0 0)" d="M270.283 207.882C 261.344 210.645 254.072 216.728 250.215 224.528L250.215 224.528L250.215 224.528L250.215 224.528L250.215 250.137C 255.542 260.9109 267.383 268.407 281.135 268.407L281.135 268.407L281.135 268.407C 297.309 268.407 310.839 258.04 314.237 244.163L314.237 244.163L314.237 244.163L314.237 244.163L314.237 230.501C 311.636 219.881 303.1 211.317 291.986 207.882L291.986 207.882L291.986 207.882z" /></clipPath><clipPath id="19"><path id="" clip-rule="evenodd" transform="matrix(1 0 0 1 0 0)" d="M270.283 207.882C 261.344 210.645 254.072 216.728 250.215 224.528L250.215 224.528L250.215 224.528L250.215 224.528L250.215 250.137C 255.542 260.9109 267.383 268.407 281.135 268.407L281.135 268.407L281.135 268.407C 297.309 268.407 310.839 258.04 314.237 244.163L314.237 244.163L314.237 244.163L314.237 244.163L314.237 230.501C 311.636 219.881 303.1 211.317 291.986 207.882L291.986 207.882L291.986 207.882z" /></clipPath><clipPath id="20"><path id="" clip-rule="evenodd" transform="matrix(1 0 0 1 0 0)" d="M178.9 269.089L315.803 269.089L315.803 269.089L315.803 123.048L315.803 123.048L178.9 123.048z" /></clipPath><clipPath id="21"><path id="" clip-rule="evenodd" transform="matrix(1 0 0 1 0 0)" d="M272.542 157.672L274.8228 157.672L274.8228 157.672L274.8228 146.3732L274.8228 146.3732L272.542 146.3732z" /></clipPath><clipPath id="22"><path id="" clip-rule="evenodd" transform="matrix(1 0 0 1 0 0)" d="M272.542 157.672L274.823 157.672L274.823 157.672L274.823 146.373L274.823 146.373L272.542 146.373z" /></clipPath><clipPath id="23"><path id="" clip-rule="evenodd" transform="matrix(1 0 0 1 0 0)" d="M272.542 157.672L274.8228 157.672L274.8228 157.672L274.8228 146.3732L274.8228 146.3732L272.542 146.3732z" /></clipPath><clipPath id="24"><path id="" clip-rule="evenodd" transform="matrix(1 0 0 1 0 0)" d="M178.9 269.089L315.803 269.089L315.803 269.089L315.803 123.048L315.803 123.048L178.9 123.048z" /></clipPath><clipPath id="25"><path id="" clip-rule="evenodd" transform="matrix(1 0 0 1 0 0)" d="M226.452 160.747L238.7149 160.747L238.7149 160.747L238.7149 158.192L238.7149 158.192L226.452 158.192z" /></clipPath><clipPath id="26"><path id="" clip-rule="evenodd" transform="matrix(1 0 0 1 0 0)" d="M226.452 160.747L238.715 160.747L238.715 160.747L238.715 158.192L238.715 158.192L226.452 158.192z" /></clipPath><clipPath id="27"><path id="" clip-rule="evenodd" transform="matrix(1 0 0 1 0 0)" d="M226.452 160.747L238.7161 160.747L238.7161 160.747L238.7161 158.1931L238.7161 158.1931L226.452 158.1931z" /></clipPath><clipPath id="28"><path id="" clip-rule="evenodd" transform="matrix(1 0 0 1 0 0)" d="M226.498 162.091L238.7621 162.091L238.7621 162.091L238.7621 159.5359L238.7621 159.5359L226.498 159.5359z" /></clipPath><clipPath id="29"><path id="" clip-rule="evenodd" transform="matrix(1 0 0 1 0 0)" d="M226.498 162.091L238.762 162.091L238.762 162.091L238.762 159.5359L238.762 159.5359L226.498 159.5359z" /></clipPath><clipPath id="30"><path id="" clip-rule="evenodd" transform="matrix(1 0 0 1 0 0)" d="M226.498 162.091L238.7621 162.091L238.7621 162.091L238.7621 159.5371L238.7621 159.5371L226.498 159.5371z" /></clipPath><clipPath id="31"><path id="" clip-rule="evenodd" transform="matrix(1 0 0 1 0 0)" d="M233.237 149.902L241.8058 149.902L241.8058 149.902L241.8058 144.8751L241.8058 144.8751L233.237 144.8751z" /></clipPath><clipPath id="32"><path id="" clip-rule="evenodd" transform="matrix(1 0 0 1 0 0)" d="M233.237 149.902L241.806 149.902L241.806 149.902L241.806 144.875L241.806 144.875L233.237 144.875z" /></clipPath><clipPath id="33"><path id="" clip-rule="evenodd" transform="matrix(1 0 0 1 0 0)" d="M233.237 149.902L241.805 149.902L241.805 149.902L241.805 144.8751L241.805 144.8751L233.237 144.8751z" /></clipPath><clipPath id="34"><path id="" clip-rule="evenodd" transform="matrix(1 0 0 1 0 0)" d="M234.119 148.919L242.687 148.919L242.687 148.919L242.687 143.8917L242.687 143.8917L234.119 143.8917z" /></clipPath><clipPath id="35"><path id="" clip-rule="evenodd" transform="matrix(1 0 0 1 0 0)" d="M234.119 148.919L242.687 148.919L242.687 148.919L242.687 143.892L242.687 143.892L234.119 143.892z" /></clipPath><clipPath id="36"><path id="" clip-rule="evenodd" transform="matrix(1 0 0 1 0 0)" d="M234.119 148.919L242.6877 148.919L242.6877 148.919L242.6877 143.892L242.6877 143.892L234.119 143.892z" /></clipPath><clipPath id="37"><path id="" clip-rule="evenodd" transform="matrix(1 0 0 1 0 0)" d="M178.9 269.089L315.803 269.089L315.803 269.089L315.803 123.048L315.803 123.048L178.9 123.048z" /></clipPath><clipPath id="38"><path id="" clip-rule="evenodd" transform="matrix(1 0 0 1 0 0)" d="M293.518 228.192L294.811 228.192L294.811 228.192L294.811 225.0252L294.811 225.0252L293.518 225.0252z" /></clipPath><clipPath id="39"><path id="" clip-rule="evenodd" transform="matrix(1 0 0 1 0 0)" d="M293.518 228.192L294.811 228.192L294.811 228.192L294.811 225.025L294.811 225.025L293.518 225.025z" /></clipPath><clipPath id="40"><path id="" clip-rule="evenodd" transform="matrix(1 0 0 1 0 0)" d="M293.518 228.192L294.8121 228.192L294.8121 228.192L294.8121 225.0264L294.8121 225.0264L293.518 225.0264z" /></clipPath><clipPath id="41"><path id="" clip-rule="evenodd" transform="matrix(1 0 0 1 0 0)" d="M294.019 228.539L295.3139 228.539L295.3139 228.539L295.3139 225.3718L295.3139 225.3718L294.019 225.3718z" /></clipPath><clipPath id="42"><path id="" clip-rule="evenodd" transform="matrix(1 0 0 1 0 0)" d="M294.019 228.539L295.314 228.539L295.314 228.539L295.314 225.372L295.314 225.372L294.019 225.372z" /></clipPath><clipPath id="43"><path id="" clip-rule="evenodd" transform="matrix(1 0 0 1 0 0)" d="M294.019 228.539L295.3139 228.539L295.3139 228.539L295.3139 225.373L295.3139 225.373L294.019 225.373z" /></clipPath><clipPath id="44"><path id="" clip-rule="evenodd" transform="matrix(1 0 0 1 0 0)" d="M174.656 706.36L266.2681 706.36L266.2681 706.36L266.2681 567.223L266.2681 567.223L174.656 567.223z" /></clipPath><clipPath id="45"><path id="" clip-rule="evenodd" transform="matrix(1 0 0 1 0 0)" d="M174.656 706.36L266.2681 706.36L266.2681 706.36L266.2681 567.223L266.2681 567.223L174.656 567.223z" /></clipPath><clipPath id="46"><path id="" clip-rule="evenodd" transform="matrix(1 0 0 1 0 0)" d="M174.656 706.984L294.732 706.984L294.732 706.984L294.732 567.223L294.732 567.223L174.656 567.223z" /></clipPath><clipPath id="47"><path id="" clip-rule="evenodd" transform="matrix(1 0 0 1 0 0)" d="M174.656 706.984L294.732 706.984L294.732 706.984L294.732 567.223L294.732 567.223L174.656 567.223z" /></clipPath><clipPath id="48"><path id="" clip-rule="evenodd" transform="matrix(1 0 0 1 0 0)" d="M240.8 671.999L240.8 685.071C 243.658 697.286 254.344 706.361 267.089 706.361L267.089 706.361L267.089 706.361C 282.021 706.361 294.127 693.903 294.127 678.535L294.127 678.535L294.127 678.535C 294.127 663.167 282.021 650.709 267.089 650.709L267.089 650.709L267.089 650.709C 254.344 650.709 243.658 659.785 240.8 671.999" /></clipPath><clipPath id="49"><path id="" clip-rule="evenodd" transform="matrix(1 0 0 1 0 0)" d="M240.8 671.999L240.8 685.071C 243.658 697.286 254.344 706.361 267.089 706.361L267.089 706.361L267.089 706.361C 282.021 706.361 294.127 693.903 294.127 678.535L294.127 678.535L294.127 678.535C 294.127 663.167 282.021 650.709 267.089 650.709L267.089 650.709L267.089 650.709C 254.344 650.709 243.658 659.785 240.8 671.999" /></clipPath><clipPath id="50"><path id="" clip-rule="evenodd" transform="matrix(1 0 0 1 0 0)" d="M174.656 706.984L294.732 706.984L294.732 706.984L294.732 567.223L294.732 567.223L174.656 567.223z" /></clipPath><clipPath id="51"><path id="" clip-rule="evenodd" transform="matrix(1 0 0 1 0 0)" d="M346.518 388.594L384.402 388.594L384.402 388.594L384.402 331.7979L384.402 331.7979L346.518 331.7979z" /></clipPath><clipPath id="52"><path id="" clip-rule="evenodd" transform="matrix(1 0 0 1 0 0)" d="M346.518 388.594L384.402 388.594L384.402 388.594L384.402 331.7979L384.402 331.7979L346.518 331.7979z" /></clipPath><clipPath id="53"><path id="" clip-rule="evenodd" transform="matrix(1 0 0 1 0 0)" d="M150.543 672.581L176.1399 672.581L176.1399 672.581L176.1399 636.7232L176.1399 636.7232L150.543 636.7232z" /></clipPath><clipPath id="54"><path id="" clip-rule="evenodd" transform="matrix(1 0 0 1 0 0)" d="M150.543 672.581L176.1399 672.581L176.1399 672.581L176.1399 636.7232L176.1399 636.7232L150.543 636.7232z" /></clipPath><clipPath id="55"><path id="" clip-rule="evenodd" transform="matrix(1 0 0 1 0 0)" d="M150.543 636.401L176.1399 636.401L176.1399 636.401L176.1399 600.5428L176.1399 600.5428L150.543 600.5428z" /></clipPath><clipPath id="56"><path id="" clip-rule="evenodd" transform="matrix(1 0 0 1 0 0)" d="M150.543 636.401L176.1399 636.401L176.1399 636.401L176.1399 600.5428L176.1399 600.5428L150.543 600.5428z" /></clipPath><clipPath id="57"><path id="" clip-rule="evenodd" transform="matrix(1 0 0 1 0 0)" d="M144.496 197.031L170.0929 197.031L170.0929 197.031L170.0929 161.1732L170.0929 161.1732L144.496 161.1732z" /></clipPath><clipPath id="58"><path id="" clip-rule="evenodd" transform="matrix(1 0 0 1 0 0)" d="M144.496 197.031L170.0929 197.031L170.0929 197.031L170.0929 161.1732L170.0929 161.1732L144.496 161.1732z" /></clipPath><clipPath id="59"><path id="" clip-rule="evenodd" transform="matrix(1 0 0 1 0 0)" d="M289.063 197.031L314.6603 197.031L314.6603 197.031L314.6603 161.1732L314.6603 161.1732L289.063 161.1732z" /></clipPath><clipPath id="60"><path id="" clip-rule="evenodd" transform="matrix(1 0 0 1 0 0)" d="M289.063 197.031L314.6603 197.031L314.6603 197.031L314.6603 161.1732L314.6603 161.1732L289.063 161.1732z" /></clipPath></defs><g transform="matrix(1.333333 0 0 1.333333 0 0)"><g clip-path="url(#1)"><g clip-path="url(#2)"><path id="1" transform="matrix(1 0 0 -1 0 834)" d="M91.866 67.4211L562.134 67.4211L562.134 74.92501L91.866 74.92501z" stroke="none" fill="#686868" fill-rule="nonzero" /><path id="2" transform="matrix(1 0 0 -1 0 834)" d="M91.866 526.984L562.134 526.984" stroke="#686868" stroke-width="1" fill="none" /><path id="3" transform="matrix(1 0 0 -1 0 834)" d="M91.866 307.016L562.134 307.016" stroke="#686868" stroke-width="1" fill="none" /></g><g clip-path="url(#3)"></g><g clip-path="url(#4)"><g transform="matrix(0.9980505 0 0 1.003448 211.988 351.52)"><g transform="matrix(1 0 0 1 0 0)"><image x="0" y="0" xlink:href="img_01.png" width="99" height="134" /></g></g></g><g clip-path="url(#5)"></g><g clip-path="url(#6)"><g transform="matrix(0.9980505 0 0 1.003448 185.468 351.536)"><g transform="matrix(1 0 0 1 0 0)"><image x="0" y="0" xlink:href="img_02.png" width="99" height="134" /></g></g></g><g clip-path="url(#7)"></g><g clip-path="url(#8)"><g transform="matrix(0.9980505 0 0 1.003448 160.962 348.817)"><g transform="matrix(1 0 0 1 0 0)"><image x="0" y="0" xlink:href="img_03.png" width="99" height="134" /></g></g></g><g clip-path="url(#9)"><path id="10" transform="matrix(1 0 0 -1 0 834)" d="M234.075 464.754C 231.85 464.754 230.046 462.823 230.046 460.442C 230.046 458.061 231.85 456.13 234.075 456.13C 236.3 456.13 238.104 458.061 238.104 460.442C 238.104 462.823 236.3 464.754 234.075 464.754M234.075 456.655C 232.133 456.655 230.558 458.339 230.558 460.418C 230.558 462.497 232.133 464.182 234.075 464.182C 236.018 464.182 237.592 462.497 237.592 460.418C 237.592 458.339 236.018 456.655 234.075 456.655" stroke="none" fill="#000000" fill-rule="nonzero" /><path id="12" transform="matrix(1 0 0 -1 0 834)" d="M212.795 464.877C 210.57 464.877 208.766 462.946 208.766 460.564C 208.766 458.183 210.57 456.253 212.795 456.253C 215.02 456.253 216.824 458.183 216.824 460.564C 216.824 462.946 215.02 464.877 212.795 464.877M212.795 456.777C 210.852 456.777 209.278 458.462 209.278 460.541C 209.278 462.62 210.852 464.305 212.795 464.305C 214.738 464.305 216.312 462.62 216.312 460.541C 216.312 458.462 214.738 456.777 212.795 456.777" stroke="none" fill="#000000" fill-rule="nonzero" /><path id="14" transform="matrix(1 0 0 -1 0 834)" d="M185.363 465.039C 183.138 465.039 181.334 463.109 181.334 460.728C 181.334 458.346 183.138 456.416 185.363 456.416C 187.588 456.416 189.392 458.346 189.392 460.728C 189.392 463.109 187.588 465.039 185.363 465.039M185.363 456.94C 183.421 456.94 181.846 458.625 181.846 460.704C 181.846 462.783 183.421 464.468 185.363 464.468C 187.305 464.468 188.88 462.783 188.88 460.704C 188.88 458.625 187.305 456.94 185.363 456.94" stroke="none" fill="#000000" fill-rule="nonzero" /></g><g clip-path="url(#10)"></g><g clip-path="url(#11)"><g transform="matrix(1.004214 0 0 0.9983836 178.9 123.047)"><g transform="matrix(1 0 0 1 0 0)"><image x="0" y="0" xlink:href="img_04.png" width="103" height="146" /></g></g></g><g clip-path="url(#12)"><g><g clip-path="url(#13)"><g clip-path="url(#14)"><path id="17" transform="matrix(1 0 0 -1 0 834)" d="M219.9475 687.4532C 223.0049 688.6016 227.0394 689.1715 232.0237 687.917" stroke="#FFFFFF" stroke-width="0.8271357" fill="none" stroke-opacity="0.8" /></g></g></g></g><g clip-path="url(#15)"><path id="18" transform="matrix(1 0 0 -1 0 834)" d="M214.5405 684.2587C 215.721 685.2733 217.5279 686.5459 219.9475 687.4552" stroke="#000000" stroke-width="0.8271357" fill="none" /></g><path id="19" transform="matrix(1 0 0 -1 0 834)" d="M214.24 685.971L214.915 684.577L216.478 684.055L212.88 682.583z" stroke="none" fill="#000000" fill-rule="nonzero" /><g clip-path="url(#16)"><path id="20" transform="matrix(1 0 0 -1 0 834)" d="M241.4204 692.1633C 246.0561 692.9149 256.3755 693.2916 263.103 683.7596" stroke="#000000" stroke-width="0.8271357" fill="none" /></g><path id="21" transform="matrix(1 0 0 -1 0 834)" d="M239.02 691.638L242.221 693.742L241.925 692.242L242.899 691.006z" stroke="none" fill="#000000" fill-rule="nonzero" /><g clip-path="url(#17)"><path id="22" transform="matrix(1 0 0 -1 0 834)" d="M247.211 596.668C 247.211 579.506 262.4 565.594 281.136 565.594C 299.871 565.594 315.059 579.506 315.059 596.668C 315.059 613.83 299.871 627.743 281.136 627.743C 262.4 627.743 247.211 613.83 247.211 596.668" stroke="none" fill="#FFFFFF" fill-rule="nonzero" /></g><g clip-path="url(#18)"></g><g clip-path="url(#19)"><g transform="matrix(1.000328 0 0 1.002455 250.216 207.8821)"><g transform="matrix(1 0 0 1 0 0)"><image x="0" y="0" xlink:href="img_05.png" width="64" height="90" /></g></g></g><g clip-path="url(#20)"><path id="24" transform="matrix(1 0 0 -1 0 834)" d="M247.2116 596.6678C 247.2116 579.5056 262.4005 565.5935 281.1364 565.5935C 299.8712 565.5935 315.0602 579.5056 315.0602 596.6678C 315.0602 613.8299 299.8712 627.7421 281.1364 627.7421C 262.4005 627.7421 247.2116 613.8299 247.2116 596.6678z" stroke="#000000" stroke-width="0.8271357" fill="none" /></g><g clip-path="url(#21)"><g><g clip-path="url(#22)"><g clip-path="url(#23)"><path id="25" transform="matrix(1 0 0 -1 0 834)" d="M273.855 687.561C 273.855 687.561 276.061 681.2971 272.752 676.448" stroke="none" fill="#FFFFFF" fill-rule="nonzero" /><path id="26" transform="matrix(1 0 0 -1 0 834)" d="M273.8556 687.5594C 273.8556 687.5594 276.0612 681.2965 272.7523 676.4469" stroke="#000000" stroke-width="0.4962812" fill="none" /></g></g></g></g><g clip-path="url(#24)"><path id="27" transform="matrix(1 0 0 -1 0 834)" d="M275.0675 687.6608C 275.0675 687.6608 277.2742 681.3979 273.9652 676.5483" stroke="#000000" stroke-width="0.4962812" fill="none" /><path id="28" transform="matrix(1 0 0 -1 0 834)" d="M258.9329 670.7692C 258.9329 670.7692 253.9016 675.4669 254.4934 681.1589" stroke="#000000" stroke-width="0.4962812" fill="none" /><path id="29" transform="matrix(1 0 0 -1 0 834)" d="M257.6354 670.5149C 257.6354 670.5149 252.6051 675.2135 253.197 680.9064" stroke="#000000" stroke-width="0.4962812" fill="none" /></g><g clip-path="url(#25)"><g><g clip-path="url(#26)"><g clip-path="url(#27)"><path id="30" transform="matrix(1 0 0 -1 0 834)" d="M238.5863 675.6122C 238.5863 675.6122 232.4475 672.1939 226.531 674.0154" stroke="#FFFFFF" stroke-width="0.4962812" fill="none" stroke-opacity="0.8" /></g></g></g></g><g clip-path="url(#28)"><g><g clip-path="url(#29)"><g clip-path="url(#30)"><path id="31" transform="matrix(1 0 0 -1 0 834)" d="M238.6323 674.2687C 238.6323 674.2687 232.4945 670.8486 226.577 672.6701" stroke="#FFFFFF" stroke-width="0.4962812" fill="none" stroke-opacity="0.8" /></g></g></g></g><g clip-path="url(#31)"><g><g clip-path="url(#32)"><g clip-path="url(#33)"><path id="32" transform="matrix(1 0 0 -1 0 834)" d="M233.2513 688.8971C 233.2513 688.8971 239.15 688.594 241.5842 684.2004" stroke="#FFFFFF" stroke-width="0.4962812" fill="none" stroke-opacity="0.8" /></g></g></g></g><g clip-path="url(#34)"><g><g clip-path="url(#35)"><g clip-path="url(#36)"><path id="33" transform="matrix(1 0 0 -1 0 834)" d="M234.1333 689.881C 234.1333 689.881 240.031 689.5779 242.4663 685.1833" stroke="#FFFFFF" stroke-width="0.4962812" fill="none" stroke-opacity="0.8" /></g></g></g></g><g clip-path="url(#37)"><path id="34" transform="matrix(1 0 0 -1 0 834)" d="M263.4339 613.6119C 263.4339 613.6119 263.3232 615.986 264.6469 616.6926" stroke="#000000" stroke-width="0.1654267" fill="none" /><path id="35" transform="matrix(1 0 0 -1 0 834)" d="M262.937 613.9647C 262.937 613.9647 262.8274 616.3389 264.15 617.0464" stroke="#000000" stroke-width="0.1654267" fill="none" /><path id="36" transform="matrix(1 0 0 -1 0 834)" d="M272.8316 609.5081C 272.8316 609.5081 271.6886 607.3749 270.1573 607.3347" stroke="#000000" stroke-width="0.1654267" fill="none" /><path id="37" transform="matrix(1 0 0 -1 0 834)" d="M273.0832 608.9812C 273.0832 608.9812 271.9402 606.8489 270.4088 606.8069" stroke="#000000" stroke-width="0.1654267" fill="none" /><path id="38" transform="matrix(1 0 0 -1 0 834)" d="M290.4412 615.8005C 290.4412 615.8005 293.0215 615.5577 293.5946 614.2554" stroke="#000000" stroke-width="0.1654267" fill="none" /><path id="39" transform="matrix(1 0 0 -1 0 834)" d="M290.8942 616.1983C 290.8942 616.1983 293.4746 615.9564 294.0476 614.6541" stroke="#000000" stroke-width="0.1654267" fill="none" /></g><g clip-path="url(#38)"><g><g clip-path="url(#39)"><g clip-path="url(#40)"><path id="40" transform="matrix(1 0 0 -1 0 834)" d="M294.7241 608.9697C 294.7241 608.9697 294.8723 606.5966 293.5602 605.8718" stroke="#FFFFFF" stroke-width="0.1654267" fill="none" stroke-opacity="0.8" /></g></g></g></g><g clip-path="url(#41)"><g><g clip-path="url(#42)"><g clip-path="url(#43)"><path id="41" transform="matrix(1 0 0 -1 0 834)" d="M295.2272 608.6236C 295.2272 608.6236 295.3754 606.2513 294.0633 605.5266" stroke="#FFFFFF" stroke-width="0.1654267" fill="none" stroke-opacity="0.8" /></g></g></g></g><g clip-path="url(#44)"></g><g clip-path="url(#45)"><g transform="matrix(1.006725 0 0 1.000986 174.656 567.223)"><g transform="matrix(1 0 0 1 0 0)"><image x="0" y="0" xlink:href="img_06.png" width="91" height="139" /></g></g></g><g clip-path="url(#46)"><path id="43" transform="matrix(1 0 0 -1 0 834)" d="M201.1252 186.6027C 198.2954 178.4077 196.8978 168.0095 199.1135 155.2793" stroke="#000000" stroke-width="0.6726307" fill="none" /></g><path id="44" transform="matrix(1 0 0 -1 0 834)" d="M197.721 155.996L199.044 155.7L200.169 156.473L199.495 153.25z" stroke="none" fill="#000000" fill-rule="nonzero" /><g clip-path="url(#47)"><path id="45" transform="matrix(1 0 0 -1 0 834)" d="M217.8565 210.3559C 217.8565 210.3559 206.7049 202.7645 201.1252 186.6027" stroke="#FFFFFF" stroke-width="0.6726307" fill="none" /><path id="46" transform="matrix(1 0 0 -1 0 834)" d="M240.052 155.464C 240.052 140.097 252.157 127.639 267.09 127.639C 282.023 127.639 294.128 140.097 294.128 155.464C 294.128 170.832 282.023 183.291 267.09 183.291C 252.157 183.291 240.052 170.832 240.052 155.464" stroke="none" fill="#FFFFFF" fill-rule="nonzero" /></g><g clip-path="url(#48)"></g><g clip-path="url(#49)"><g transform="matrix(1.008544 0 0 1.001529 240.8 614.482)"><g transform="matrix(1 0 0 1 0 0)"><image x="0" y="0" xlink:href="img_07.png" width="68" height="104" /></g></g></g><g clip-path="url(#50)"><path id="48" transform="matrix(1 0 0 -1 0 834)" d="M240.0521 155.4649C 240.0521 140.0973 252.1568 127.6389 267.0893 127.6389C 282.0227 127.6389 294.1274 140.0973 294.1274 155.4649C 294.1274 170.8334 282.0227 183.2908 267.0893 183.2908C 252.1568 183.2908 240.0521 170.8334 240.0521 155.4649z" stroke="#000000" stroke-width="0.6726307" fill="none" /><path id="49" transform="matrix(1 0 0 -1 0 834)" d="M202.231 228.56C 200.267 228.56 198.676 226.921 198.676 224.901C 198.676 222.88 200.267 221.242 202.231 221.242C 204.194 221.242 205.786 222.88 205.786 224.901C 205.786 226.921 204.194 228.56 202.231 228.56M202.231 221.687C 200.517 221.687 199.127 223.117 199.127 224.881C 199.127 226.645 200.517 228.075 202.231 228.075C 203.945 228.075 205.334 226.645 205.334 224.881C 205.334 223.117 203.945 221.687 202.231 221.687" stroke="none" fill="#000000" fill-rule="nonzero" /><path id="51" transform="matrix(1 0 0 -1 0 834)" d="M250.848 152.454C 248.885 152.454 247.293 150.816 247.293 148.795C 247.293 146.775 248.885 145.136 250.848 145.136C 252.812 145.136 254.404 146.775 254.404 148.795C 254.404 150.816 252.812 152.454 250.848 152.454M250.848 145.581C 249.134 145.581 247.745 147.011 247.745 148.775C 247.745 150.539 249.134 151.969 250.848 151.969C 252.563 151.969 253.952 150.539 253.952 148.775C 253.952 147.011 252.563 145.581 250.848 145.581" stroke="none" fill="#000000" fill-rule="nonzero" /></g><g transform="matrix(1.001651 0 0 1.008852 356.669 114.5436)"><g transform="matrix(1 0 0 1 0 0)"><image x="0" y="0" xlink:href="img_08.png" width="37" height="52" /></g></g><g clip-path="url(#51)"></g><g clip-path="url(#52)"><g transform="matrix(0.9969395 0 0 1.009461 346.518 331.7967)"><g transform="matrix(1 0 0 1 0 0)"><image x="0" y="0" xlink:href="img_09.png" width="38" height="57" /></g></g></g><g transform="matrix(0.9968237 0 0 1.010828 354.922 557.4869)"><g transform="matrix(1 0 0 1 0 0)"><image x="0" y="0" xlink:href="img_10.png" width="38" height="40" /></g></g><path id="1150" transform="matrix(1 0 0 -1 0 834)" d="M150.543 161.419L176.1399 161.419L176.1399 197.2768L150.543 197.2768z" stroke="none" fill="#FFFFFF" fill-rule="nonzero" /><g clip-path="url(#53)"></g><g clip-path="url(#54)"><g transform="matrix(1.023489 0 0 0.9971263 149.524 635.7032)"><g transform="matrix(1 0 0 1 0 0)"><image x="0" y="0" xlink:href="img_11.png" width="27" height="38" /></g></g></g><g clip-path="url(#55)"></g><g clip-path="url(#56)"><g transform="matrix(1.022248 0 0 0.9972106 149.543 599.522)"><g transform="matrix(1 0 0 1 0 0)"><image x="0" y="0" xlink:href="img_12.png" width="27" height="38" /></g></g></g><g clip-path="url(#57)"></g><g clip-path="url(#58)"><g transform="matrix(1.022248 0 0 0.9972106 143.496 160.152)"><g transform="matrix(1 0 0 1 0 0)"><image x="0" y="0" xlink:href="img_12.png" width="27" height="38" /></g></g></g><g clip-path="url(#59)"></g><g clip-path="url(#60)"><g transform="matrix(-1.022248 0 0 0.9972106 315.66 160.152)"><g transform="matrix(1 0 0 1 0 0)"><image x="0" y="0" xlink:href="img_12.png" width="27" height="38" /></g></g></g><path id="1155" transform="matrix(1 0 0 -1 0 834)" d="M633 15L633 0M633 819L633 834M21 15L21 0M21 819L21 834M639 21L654 21M15 21L0 21M639 813L654 813M15 813L0 813" stroke="#000000" stroke-width="1.25" fill="none" /><path id="1156" transform="matrix(1 0 0 -1 0 834)" d="M633 15L633 0M633 819L633 834M21 15L21 0M21 819L21 834M639 21L654 21M15 21L0 21M639 813L654 813M15 813L0 813" stroke="#000000" stroke-width="0.25" fill="none" /><path id="1157" transform="matrix(1 0 0 -1 0 834)" d="M32.2781 9.28203C 32.2781 9.516021 32.2961 9.58203 32.3559 9.62383C 32.416 9.66602 32.5719 9.69609 32.8238 9.69609C 33.2262 9.69609 33.5738 9.62383 33.8441 9.45C 34.3238 9.167971 34.552 8.63398 34.552 8.016021C 34.552 7.05586 34.0359 6.21602 32.9141 6.21602C 32.4762 6.21602 32.2781 6.33008 32.2781 6.78594zM31.252 9.900001L31.252 9.726171C 31.7141 9.68984 31.7621 9.66602 31.7621 9.150001L31.7621 9.150001L31.7621 6.74414C 31.7621 6.23398 31.7141 6.19805 31.198 6.16211L31.198 6.16211L31.198 6L31.198 6L32.6199 6C 33.3578 6 33.952 6.15 34.402 6.49805C 34.8641 6.84609 35.1398 7.38008 35.1398 8.1C 35.1398 8.664061 34.9301 9.101951 34.6359 9.38984C 34.2641 9.74414 33.7 9.900001 32.9379 9.900001z" stroke="#000000" stroke-width="0.4" fill="none" /><path id="1158" transform="matrix(1 0 0 -1 0 834)" d="M38.3801 6.97813C 38.2898 6.70195 38.1758 6.51016 38.0738 6.38984C 37.9359 6.23398 37.732 6.20391 37.402 6.20391C 37.15 6.20391 36.9461 6.21602 36.8258 6.28203C 36.718 6.34219 36.6879 6.46211 36.6879 6.78594L36.6879 6.78594L36.6879 9.15586C 36.6879 9.66602 36.7418 9.69609 37.216 9.73203L37.216 9.73203L37.216 9.900001L37.216 9.900001L35.65 9.900001L35.65 9.900001L35.65 9.73203C 36.1359 9.69609 36.1777 9.66602 36.1777 9.15586L36.1777 9.15586L36.1777 6.75586C 36.1777 6.24609 36.1301 6.20391 35.6258 6.16797L35.6258 6.16797L35.6258 6L35.6258 6L38.3438 6C 38.398 6.18594 38.5238 6.75586 38.5598 6.94219z" stroke="#000000" stroke-width="0.4" fill="none" /><path id="1159" transform="matrix(1 0 0 -1 0 834)" d="M41.0918 9.023829C 41.0438 9.40195 41.0141 9.63594 40.9898 9.851951C 40.7617 9.92383 40.5098 9.989841 40.234 9.989841C 39.4598 9.989841 38.998 9.49805 38.998 8.921881C 38.998 8.24414 39.6039 7.94414 39.9879 7.73984C 40.4379 7.5 40.768 7.28984 40.768 6.84609C 40.768 6.40781 40.498 6.12617 40.048 6.12617C 39.4301 6.12617 39.1598 6.73203 39.0641 7.09805L39.0641 7.09805L38.8898 7.05586C 38.9258 6.767971 39.0039 6.25195 39.052 6.12617C 39.1059 6.09609 39.1961 6.05391 39.3461 6C 39.4961 5.95781 39.6879 5.91016 39.934 5.91016C 40.732 5.91016 41.266 6.41406 41.266 7.04414C 41.266 7.71602 40.6961 7.99805 40.2277 8.23789C 39.7539 8.48398 39.466 8.68789 39.466 9.12617C 39.466 9.45 39.6699 9.78594 40.132 9.78594C 40.6539 9.78594 40.8098 9.371881 40.918 8.98789z" stroke="#000000" stroke-width="0.4" fill="none" /><path id="1160" transform="matrix(1 0 0 -1 0 834)" d="M46.648 6L46.648 6.16797C 46.1258 6.21602 46.1078 6.24609 46.0898 6.88203L46.0898 6.88203L46.0301 9.05391C 46.0117 9.671881 46.0539 9.68398 46.582 9.73203L46.582 9.73203L46.582 9.900001L46.582 9.900001L45.5617 9.900001L45.5617 9.900001L44.1758 6.9L44.1758 6.9L42.8078 9.900001L42.8078 9.900001L41.8238 9.900001L41.8238 9.900001L41.8238 9.73203C 42.3699 9.67813 42.4 9.653911 42.3461 8.87383L42.3461 8.87383L42.2617 7.626171C 42.2141 7.00195 42.1777 6.73789 42.148 6.528131C 42.1059 6.27617 41.9859 6.21016 41.6379 6.16797L41.6379 6.16797L41.6379 6L41.6379 6L43.0359 6L43.0359 6L43.0359 6.16797C 42.6398 6.21016 42.4961 6.25195 42.484 6.53984C 42.4777 6.78008 42.4777 7.04414 42.502 7.53594L42.502 7.53594L42.5918 9.24609L42.5918 9.24609L42.6039 9.24609L42.6039 9.24609L43.948 6.04219L43.948 6.04219L44.068 6.04219L44.068 6.04219L45.532 9.33008L45.532 9.33008L45.5559 9.33008L45.5559 9.33008L45.5738 6.88203C 45.5801 6.24609 45.5559 6.21602 45.0699 6.16797L45.0699 6.16797L45.0699 6z" stroke="#000000" stroke-width="0.4" fill="none" /><path id="1161" transform="matrix(1 0 0 -1 0 834)" d="M51.8738 7.05586C 51.5738 6.45586 51.2496 6.12617 50.6379 6.12617C 49.7258 6.12617 49.0656 6.89414 49.0656 8.016021C 49.0656 8.92813 49.5996 9.773829 50.602 9.773829C 51.2496 9.773829 51.6098 9.516021 51.7656 8.88008L51.7656 8.88008L51.9457 8.921881C 51.9098 9.24609 51.8738 9.48594 51.8258 9.828131C 51.6578 9.85781 51.2496 9.989841 50.7637 9.989841C 49.4258 9.989841 48.4539 9.15586 48.4539 7.89609C 48.4539 6.94219 49.1078 5.91016 50.602 5.91016C 51.034 5.91016 51.5379 6.03008 51.7059 6.07188C 51.8137 6.26992 51.9637 6.71406 52.0477 6.98984z" stroke="#000000" stroke-width="0.4" fill="none" /><path id="1162" transform="matrix(1 0 0 -1 0 834)" d="M54.3398 9.773829C 55.1258 9.773829 55.7855 9.101951 55.7855 7.83594C 55.7855 6.68398 55.1855 6.12617 54.5195 6.12617C 53.6738 6.12617 53.0559 6.94805 53.0559 8.076171C 53.0559 9.19805 53.6676 9.773829 54.3398 9.773829zM54.4598 9.989841C 53.1996 9.989841 52.4438 8.98789 52.4438 7.90781C 52.4438 6.75586 53.3078 5.91016 54.3938 5.91016C 55.4918 5.91016 56.3977 6.70195 56.3977 7.99805C 56.3977 9.19805 55.4797 9.989841 54.4598 9.989841z" stroke="#000000" stroke-width="0.4" fill="none" /><path id="1163" transform="matrix(1 0 0 -1 0 834)" d="M61.8277 6L61.8277 6.16797C 61.3059 6.21602 61.2879 6.24609 61.2695 6.88203L61.2695 6.88203L61.2098 9.05391C 61.1918 9.671881 61.2336 9.68398 61.7617 9.73203L61.7617 9.73203L61.7617 9.900001L61.7617 9.900001L60.7418 9.900001L60.7418 9.900001L59.3559 6.9L59.3559 6.9L57.9879 9.900001L57.9879 9.900001L57.0035 9.900001L57.0035 9.900001L57.0035 9.73203C 57.5496 9.67813 57.5797 9.653911 57.5258 8.87383L57.5258 8.87383L57.4418 7.626171C 57.3938 7.00195 57.3578 6.73789 57.3277 6.528131C 57.2855 6.27617 57.1656 6.21016 56.8176 6.16797L56.8176 6.16797L56.8176 6L56.8176 6L58.2156 6L58.2156 6L58.2156 6.16797C 57.8195 6.21016 57.6758 6.25195 57.6637 6.53984C 57.6578 6.78008 57.6578 7.04414 57.6816 7.53594L57.6816 7.53594L57.7719 9.24609L57.7719 9.24609L57.7836 9.24609L57.7836 9.24609L59.1277 6.04219L59.1277 6.04219L59.2477 6.04219L59.2477 6.04219L60.7117 9.33008L60.7117 9.33008L60.7355 9.33008L60.7355 9.33008L60.7535 6.88203C 60.7598 6.24609 60.7355 6.21602 60.2496 6.16797L60.2496 6.16797L60.2496 6z" stroke="#000000" stroke-width="0.4" fill="none" /><path id="1164" transform="matrix(1 0 0 -1 0 834)" d="M63.8258 6L63.8258 6.16797C 63.3336 6.20391 63.2855 6.23398 63.2855 6.75L63.2855 6.75L63.2855 9.150001C 63.2855 9.66016 63.3336 9.69609 63.8258 9.73203L63.8258 9.73203L63.8258 9.900001L63.8258 9.900001L62.2355 9.900001L62.2355 9.900001L62.2355 9.73203C 62.7277 9.69609 62.7758 9.66016 62.7758 9.150001L62.7758 9.150001L62.7758 6.75C 62.7758 6.23984 62.7277 6.20391 62.2355 6.16797L62.2355 6.16797L62.2355 6z" stroke="#000000" stroke-width="0.4" fill="none" /><path id="1165" transform="matrix(1 0 0 -1 0 834)" d="M66.5074 9.023829C 66.4598 9.40195 66.4297 9.63594 66.4055 9.851951C 66.1777 9.92383 65.9258 9.989841 65.6496 9.989841C 64.8758 9.989841 64.4137 9.49805 64.4137 8.921881C 64.4137 8.24414 65.0195 7.94414 65.4035 7.73984C 65.8535 7.5 66.1836 7.28984 66.1836 6.84609C 66.1836 6.40781 65.9137 6.12617 65.46371 6.12617C 64.8457 6.12617 64.5758 6.73203 64.4797 7.09805L64.4797 7.09805L64.3055 7.05586C 64.3418 6.767971 64.4195 6.25195 64.46761 6.12617C 64.52151 6.09609 64.6117 6.05391 64.7617 6C 64.91171 5.95781 65.1035 5.91016 65.3496 5.91016C 66.1477 5.91016 66.6816 6.41406 66.6816 7.04414C 66.6816 7.71602 66.1117 7.99805 65.6438 8.23789C 65.1695 8.48398 64.8816 8.68789 64.8816 9.12617C 64.8816 9.45 65.0855 9.78594 65.5477 9.78594C 66.0695 9.78594 66.2258 9.371881 66.3336 8.98789z" stroke="#000000" stroke-width="0.4" fill="none" /><path id="1166" transform="matrix(1 0 0 -1 0 834)" d="M69.4055 7.68008L68.3016 7.68008C 68.4816 8.171881 68.6734 8.69414 68.8656 9.21016L68.8656 9.21016L68.8777 9.21016zM70.9355 6L70.9355 6.16797C 70.5457 6.20391 70.46761 6.25781 70.2758 6.77383C 69.89181 7.81797 69.4895 8.95781 69.11761 9.989841L69.11761 9.989841L68.9316 9.93594L68.9316 9.93594L67.68951 6.78594C 67.4797 6.25781 67.3957 6.22188 67.0176 6.16797L67.0176 6.16797L67.0176 6L67.0176 6L68.3195 6L68.3195 6L68.3195 6.16797C 67.8695 6.21016 67.81561 6.26992 67.9477 6.64805C 68.0258 6.9 68.1156 7.15195 68.2117 7.42188L68.2117 7.42188L69.4895 7.42188C 69.62151 7.05586 69.74181 6.73203 69.8195 6.49805C 69.8977 6.26406 69.8438 6.21602 69.4656 6.16797L69.4656 6.16797L69.4656 6z" stroke="#000000" stroke-width="0.4" fill="none" /><path id="1167" transform="matrix(1 0 0 -1 0 834)" d="M71.7273 5.92813C 71.9195 5.92813 72.06371 6.06602 72.06371 6.27617C 72.06371 6.46797 71.9195 6.61797 71.7273 6.61797C 71.5355 6.61797 71.3914 6.46797 71.3914 6.27617C 71.3914 6.06602 71.5355 5.92813 71.7273 5.92813z" stroke="#000000" stroke-width="0.4" fill="none" /><path id="1168" transform="matrix(1 0 0 -1 0 834)" d="M73.9234 6L73.9234 6.15586C 73.53951 6.19219 73.4977 6.22813 73.4977 6.63594L73.4977 6.63594L73.4977 8.70586C 73.2336 8.59805 72.9516 8.51992 72.6453 8.471881L72.6453 8.471881L72.6453 8.328131C 73.0055 8.26797 73.0234 8.24414 73.0234 7.871881L73.0234 7.871881L73.0234 6.63594C 73.0234 6.22813 72.9816 6.19219 72.6035 6.15586L72.6035 6.15586L72.6035 6zM73.2215 9.216021C 73.3953 9.216021 73.52731 9.36016 73.52731 9.52188C 73.52731 9.70195 73.3953 9.83398 73.2273 9.83398C 73.06561 9.83398 72.9215 9.70195 72.9215 9.52188C 72.9215 9.36016 73.06561 9.216021 73.2215 9.216021z" stroke="#000000" stroke-width="0.4" fill="none" /><path id="1169" transform="matrix(1 0 0 -1 0 834)" d="M77.1574 6L77.1574 6.15586C 76.8094 6.19219 76.7793 6.21602 76.7793 6.62383L76.7793 6.62383L76.7793 7.78203C 76.7793 8.36406 76.4793 8.69414 76.0055 8.69414C 75.8313 8.69414 75.67541 8.621881 75.5074 8.51406C 75.3574 8.41211 75.2254 8.32188 75.1055 8.23203L75.1055 8.23203L75.1055 8.712111C 74.8414 8.59219 74.5594 8.51992 74.27151 8.466021L74.27151 8.466021L74.27151 8.328131C 74.5953 8.26797 74.6313 8.25 74.6313 7.86602L74.6313 7.86602L74.6313 6.62383C 74.6313 6.22813 74.6016 6.19805 74.19341 6.15586L74.19341 6.15586L74.19341 6L74.19341 6L75.4953 6L75.4953 6L75.4953 6.15586C 75.1414 6.19219 75.1055 6.21602 75.1055 6.62383L75.1055 6.62383L75.1055 8.03398C 75.2855 8.18984 75.5195 8.33984 75.7594 8.33984C 76.1613 8.33984 76.3055 8.069921 76.3055 7.65586L76.3055 7.65586L76.3055 6.65391C 76.3055 6.23984 76.2633 6.19219 75.9094 6.15586L75.9094 6.15586L75.9094 6z" stroke="#000000" stroke-width="0.4" fill="none" /><path id="1170" transform="matrix(1 0 0 -1 0 834)" d="M79.4734 6.51016C 79.32931 6.40195 79.1133 6.30586 78.8973 6.30586C 78.5133 6.30586 78.0754 6.65391 78.0754 7.36797C 78.0754 8.23789 78.57931 8.471881 78.8555 8.471881C 79.0832 8.471881 79.32931 8.37617 79.4734 8.16602zM80.4035 6.30586L80.2113 6.32383C 79.9895 6.34805 79.9473 6.37813 79.9473 6.68984L79.9473 6.68984L79.9473 10.2719C 79.7254 10.1941 79.3234 10.1039 79.0113 10.0621L79.0113 10.0621L79.0113 9.917971C 79.44341 9.88789 79.4734 9.869921 79.4734 9.47383L79.4734 9.47383L79.4734 8.628131C 79.3355 8.67617 79.1613 8.69414 79.0773 8.69414C 78.2613 8.69414 77.5293 8.03984 77.5293 7.20586C 77.5293 6.36602 78.1594 5.92813 78.6395 5.92813C 78.7113 5.92813 78.87341 5.96406 79.1074 6.10195L79.1074 6.10195L79.4734 6.31797L79.4734 6.31797L79.4734 5.92813C 79.8215 6.05391 80.27151 6.13203 80.4035 6.15586z" stroke="#000000" stroke-width="0.4" fill="none" /><path id="1171" transform="matrix(1 0 0 -1 0 834)" d="M81.3813 8.24414C 81.4895 8.310161 81.6813 8.35781 81.84921 8.35781C 82.34731 8.35781 82.7676 7.96211 82.7676 7.278131C 82.7676 6.58203 82.4492 6.15586 81.9516 6.15586C 81.6336 6.16211 81.4535 6.37188 81.4176 6.49219C 81.3934 6.54609 81.3813 6.60586 81.3813 6.69609zM81.3813 8.42383L81.3813 10.2719C 81.1594 10.1941 80.7934 10.098 80.5113 10.0621L80.5113 10.0621L80.5113 9.92383C 80.8953 9.88789 80.9074 9.851951 80.9074 9.48008L80.9074 9.48008L80.9074 6.14414C 81.2375 5.98789 81.5434 5.92813 81.78951 5.92813C 82.59341 5.92813 83.2953 6.55195 83.2953 7.43398C 83.2953 8.14219 82.7555 8.69414 82.1133 8.69414C 82.0473 8.69414 81.9633 8.67617 81.86761 8.63398z" stroke="#000000" stroke-width="0.4" fill="none" /><path id="1172" transform="matrix(1 0 0 -1 0 834)" d="M88.1133 8.976171C 88.2633 9.19805 88.50311 9.45 88.8332 9.45C 89.15121 9.45 89.4031 9.257811 89.4031 8.88594C 89.4031 8.44219 88.9953 8.20781 88.44341 8.03398L88.44341 8.03398L88.4852 7.86016C 88.5813 7.88984 88.7254 7.92617 88.8691 7.92617C 89.2113 7.92617 89.6313 7.70391 89.6313 7.15195C 89.6313 6.55781 89.3313 6.23984 88.90511 6.23984C 88.5633 6.23984 88.3172 6.40781 88.1613 6.54609C 88.1133 6.58789 88.0652 6.58203 88.0172 6.54609C 87.9633 6.50391 87.8852 6.42617 87.8793 6.34805C 87.8672 6.27617 87.891 6.21016 87.9754 6.13203C 88.0531 6.06016 88.2992 5.92813 88.5754 5.92813C 89.007 5.92813 90.1473 6.37188 90.1473 7.34414C 90.1473 7.78203 89.841 8.153911 89.3133 8.25586L89.3133 8.25586L89.3133 8.26797C 89.4871 8.38789 89.6313 8.49609 89.7211 8.59219C 89.8352 8.70586 89.90701 8.84414 89.90701 9.01797C 89.90701 9.47383 89.5531 9.810161 89.0133 9.810161C 88.6953 9.810161 88.4191 9.66016 88.25121 9.47383L88.25121 9.47383L87.9871 9.09609z" stroke="#000000" stroke-width="0.4" fill="none" /><path id="1173" transform="matrix(1 0 0 -1 0 834)" d="M91.9652 6.11992C 91.5871 6.11992 91.2332 6.42617 91.2332 6.97813C 91.2332 7.30781 91.4371 7.60781 91.7254 7.8C 92.1871 7.56602 92.6133 7.30781 92.6133 6.85781C 92.6133 6.39609 92.3313 6.11992 91.9652 6.11992zM91.9113 9.61797C 92.1871 9.61797 92.4992 9.396091 92.4992 8.89219C 92.4992 8.53203 92.3371 8.310161 92.1332 8.14805C 91.707 8.35781 91.3531 8.555861 91.3531 9C 91.3531 9.305861 91.557 9.61797 91.9113 9.61797zM91.9711 9.810161C 91.32931 9.810161 90.9031 9.33008 90.9031 8.826171C 90.9031 8.40586 91.1613 8.11797 91.5512 7.89609C 91.34731 7.76406 91.1191 7.60195 91.023 7.51211C 90.891 7.38594 90.75311 7.21797 90.75311 6.94219C 90.75311 6.3 91.2633 5.92813 91.90511 5.92813C 92.4152 5.92813 93.09341 6.31211 93.09341 7.01406C 93.09341 7.53594 92.7152 7.82383 92.3012 8.057811C 92.5711 8.24414 92.7332 8.38789 92.77541 8.44219C 92.8891 8.57383 92.9492 8.74805 92.9492 8.921881C 92.9492 9.40781 92.541 9.810161 91.9711 9.810161z" stroke="#000000" stroke-width="0.4" fill="none" /><path id="1174" transform="matrix(1 0 0 -1 0 834)" d="M94.7973 9.61211C 95.3371 9.61211 95.4871 8.72383 95.4871 7.871881C 95.4871 7.03203 95.34341 6.13203 94.8031 6.13203C 94.2813 6.13203 94.107 7.03789 94.107 7.87813C 94.107 8.712111 94.25121 9.61211 94.7973 9.61211zM94.8031 9.810161C 93.9031 9.810161 93.573 8.74219 93.573 7.86602C 93.573 6.91797 93.8973 5.92813 94.8031 5.92813C 95.7031 5.92813 96.0211 6.99609 96.0211 7.871881C 96.0211 8.79609 95.7031 9.810161 94.8031 9.810161z" stroke="#000000" stroke-width="0.4" fill="none" /><path id="1193" transform="matrix(1 0 0 -1 0 834)" d="M554.472 6.83984C 554.292 6.46211 554.2141 6.43789 553.89 6.43789L553.89 6.43789L552.768 6.43789L552.768 6.43789L553.6201 7.33203C 554.1721 7.91992 554.412 8.273829 554.412 8.79609C 554.412 9.42617 553.932 9.810161 553.404 9.810161C 553.056 9.810161 552.774 9.653911 552.594 9.45586L552.594 9.45586L552.252 8.96992L552.252 8.96992L552.384 8.85C 552.54 9.08398 552.792 9.40781 553.2 9.40781C 553.644 9.40781 553.908 9.11406 553.908 8.61016C 553.908 8.09414 553.53 7.60195 553.158 7.15781C 552.858 6.81016 552.522 6.46797 552.186 6.13789L552.186 6.13789L552.186 6L552.186 6L554.43 6C 554.502 6.26992 554.562 6.53398 554.64 6.78594z" stroke="#000000" stroke-width="0.4" fill="none" /><path id="1194" transform="matrix(1 0 0 -1 0 834)" d="M555.792 9.3L557.19 9.3L557.19 9.3L557.346 9.68984L557.346 9.68984L557.31 9.73789L557.31 9.73789L555.6 9.73789L555.6 9.73789L555.366 7.90781C 555.504 7.96211 555.732 8.028131 555.984 8.028131C 556.638 8.028131 556.962 7.65 556.962 7.121881C 556.962 6.67188 556.71 6.23398 556.2 6.23398C 555.834 6.23398 555.588 6.42617 555.462 6.53984C 555.402 6.58789 555.354 6.58203 555.3 6.53984C 555.234 6.48008 555.18 6.40195 555.174 6.34219C 555.162 6.26992 555.192 6.22188 555.27 6.13789C 555.36 6.05391 555.612 5.92813 555.888 5.92813C 556.206 5.93398 556.608 6.08984 556.932 6.35391C 557.298 6.65391 557.466 6.99609 557.466 7.35586C 557.466 7.84805 557.076 8.369921 556.308 8.369921C 556.146 8.369921 555.864 8.273829 555.636 8.18984z" stroke="#000000" stroke-width="0.4" fill="none" /><path id="1195" transform="matrix(1 0 0 -1 0 834)" d="M559.548 9.989841L559.212 9.989841L559.212 9.989841L557.91 5.73594L557.91 5.73594L558.246 5.73594z" stroke="#000000" stroke-width="0.4" fill="none" /><path id="1196" transform="matrix(1 0 0 -1 0 834)" d="M561.18 9.61211C 561.72 9.61211 561.8701 8.72383 561.8701 7.871881C 561.8701 7.03203 561.726 6.13203 561.186 6.13203C 560.664 6.13203 560.49 7.03789 560.49 7.87813C 560.49 8.712111 560.634 9.61211 561.18 9.61211zM561.186 9.810161C 560.286 9.810161 559.956 8.74219 559.956 7.86602C 559.956 6.91797 560.28 5.92813 561.186 5.92813C 562.086 5.92813 562.404 6.99609 562.404 7.871881C 562.404 8.79609 562.086 9.810161 561.186 9.810161z" stroke="#000000" stroke-width="0.4" fill="none" /><path id="1197" transform="matrix(1 0 0 -1 0 834)" d="M564 9.61211C 564.582 9.61211 564.738 8.86797 564.738 8.33984C 564.738 8.21992 564.732 8.076171 564.7141 7.94414C 564.588 7.84805 564.384 7.77617 564.174 7.77617C 563.67 7.77617 563.3701 8.214061 563.3701 8.74219C 563.3701 9.09609 563.538 9.61211 564 9.61211zM564.078 9.810161C 563.304 9.810161 562.854 9.10781 562.854 8.53203C 562.854 7.90195 563.292 7.43398 563.928 7.43398C 564.042 7.43398 564.156 7.45781 564.288 7.53008L564.288 7.53008L564.69 7.74609C 564.492 6.83398 563.838 6.23398 562.98 6.08984L562.98 6.08984L563.01 5.91016C 563.16 5.91016 563.526 5.96992 563.85 6.10195C 564.66 6.42617 565.2661 7.20586 565.2661 8.310161C 565.2661 9.12617 564.828 9.810161 564.078 9.810161z" stroke="#000000" stroke-width="0.4" fill="none" /><path id="1198" transform="matrix(1 0 0 -1 0 834)" d="M567.294 9.989841L566.958 9.989841L566.958 9.989841L565.656 5.73594L565.656 5.73594L565.992 5.73594z" stroke="#000000" stroke-width="0.4" fill="none" /><path id="1199" transform="matrix(1 0 0 -1 0 834)" d="M569.9641 6.83984C 569.784 6.46211 569.706 6.43789 569.382 6.43789L569.382 6.43789L568.26 6.43789L568.26 6.43789L569.112 7.33203C 569.664 7.91992 569.904 8.273829 569.904 8.79609C 569.904 9.42617 569.424 9.810161 568.896 9.810161C 568.548 9.810161 568.2661 9.653911 568.086 9.45586L568.086 9.45586L567.744 8.96992L567.744 8.96992L567.876 8.85C 568.032 9.08398 568.284 9.40781 568.692 9.40781C 569.136 9.40781 569.4 9.11406 569.4 8.61016C 569.4 8.09414 569.022 7.60195 568.65 7.15781C 568.35 6.81016 568.014 6.46797 567.678 6.13789L567.678 6.13789L567.678 6L567.678 6L569.9221 6C 569.994 6.26992 570.054 6.53398 570.132 6.78594z" stroke="#000000" stroke-width="0.4" fill="none" /><path id="1200" transform="matrix(1 0 0 -1 0 834)" d="M571.806 9.61211C 572.346 9.61211 572.496 8.72383 572.496 7.871881C 572.496 7.03203 572.352 6.13203 571.812 6.13203C 571.29 6.13203 571.116 7.03789 571.116 7.87813C 571.116 8.712111 571.26 9.61211 571.806 9.61211zM571.812 9.810161C 570.912 9.810161 570.582 8.74219 570.582 7.86602C 570.582 6.91797 570.906 5.92813 571.812 5.92813C 572.712 5.92813 573.03 6.99609 573.03 7.871881C 573.03 8.79609 572.712 9.810161 571.812 9.810161z" stroke="#000000" stroke-width="0.4" fill="none" /><path id="1201" transform="matrix(1 0 0 -1 0 834)" d="M575.556 6L575.556 6.16211C 575.01 6.20391 574.9741 6.25195 574.9741 6.68398L574.9741 6.68398L574.9741 9.810161C 574.644 9.67813 574.29 9.56406 573.906 9.49805L573.906 9.49805L573.906 9.36016L573.906 9.36016L574.194 9.34805C 574.458 9.33594 574.482 9.305861 574.482 8.99414L574.482 8.99414L574.482 6.68398C 574.482 6.25195 574.452 6.20391 573.906 6.16211L573.906 6.16211L573.906 6z" stroke="#000000" stroke-width="0.4" fill="none" /><path id="1202" transform="matrix(1 0 0 -1 0 834)" d="M578.814 9.73789L576.522 9.73789C 576.498 9.48008 576.468 9.180079 576.414 8.85L576.414 8.85L576.588 8.85C 576.732 9.24609 576.768 9.3 577.164 9.3L577.164 9.3L578.46 9.3C 577.986 8.25586 577.308 7.01406 576.678 5.99414L576.678 5.99414L576.72 5.92813L576.72 5.92813L577.164 5.98789C 577.74 7.22383 578.298 8.44805 578.862 9.66602z" stroke="#000000" stroke-width="0.4" fill="none" /><path id="1203" transform="matrix(1 0 0 -1 0 834)" d="M584.531 9.61211C 585.071 9.61211 585.221 8.72383 585.221 7.871881C 585.221 7.03203 585.077 6.13203 584.537 6.13203C 584.015 6.13203 583.841 7.03789 583.841 7.87813C 583.841 8.712111 583.985 9.61211 584.531 9.61211zM584.537 9.810161C 583.637 9.810161 583.307 8.74219 583.307 7.86602C 583.307 6.91797 583.631 5.92813 584.537 5.92813C 585.437 5.92813 585.755 6.99609 585.755 7.871881C 585.755 8.79609 585.437 9.810161 584.537 9.810161z" stroke="#000000" stroke-width="0.4" fill="none" /><path id="1204" transform="matrix(1 0 0 -1 0 834)" d="M588.449 6.83984C 588.269 6.46211 588.191 6.43789 587.867 6.43789L587.867 6.43789L586.7451 6.43789L586.7451 6.43789L587.597 7.33203C 588.149 7.91992 588.389 8.273829 588.389 8.79609C 588.389 9.42617 587.909 9.810161 587.381 9.810161C 587.033 9.810161 586.751 9.653911 586.571 9.45586L586.571 9.45586L586.229 8.96992L586.229 8.96992L586.361 8.85C 586.517 9.08398 586.769 9.40781 587.177 9.40781C 587.621 9.40781 587.885 9.11406 587.885 8.61016C 587.885 8.09414 587.507 7.60195 587.135 7.15781C 586.835 6.81016 586.499 6.46797 586.163 6.13789L586.163 6.13789L586.163 6L586.163 6L588.407 6C 588.479 6.26992 588.539 6.53398 588.617 6.78594z" stroke="#000000" stroke-width="0.4" fill="none" /><path id="1205" transform="matrix(1 0 0 -1 0 834)" d="M589.5471 5.92813C 589.739 5.92813 589.883 6.06602 589.883 6.27617C 589.883 6.46797 589.739 6.61797 589.5471 6.61797C 589.355 6.61797 589.211 6.46797 589.211 6.27617C 589.211 6.06602 589.355 5.92813 589.5471 5.92813zM589.541 8.466021C 589.3491 8.466021 589.211 8.328131 589.211 8.13008C 589.211 7.92617 589.3491 7.78203 589.541 7.78203C 589.733 7.78203 589.877 7.92617 589.877 8.13008C 589.877 8.328131 589.733 8.466021 589.541 8.466021z" stroke="#000000" stroke-width="0.4" fill="none" /><path id="1206" transform="matrix(1 0 0 -1 0 834)" d="M591.137 9.3L592.535 9.3L592.535 9.3L592.691 9.68984L592.691 9.68984L592.655 9.73789L592.655 9.73789L590.945 9.73789L590.945 9.73789L590.711 7.90781C 590.8491 7.96211 591.077 8.028131 591.329 8.028131C 591.983 8.028131 592.307 7.65 592.307 7.121881C 592.307 6.67188 592.055 6.23398 591.545 6.23398C 591.179 6.23398 590.933 6.42617 590.807 6.53984C 590.747 6.58789 590.699 6.58203 590.645 6.53984C 590.579 6.48008 590.525 6.40195 590.519 6.34219C 590.507 6.26992 590.537 6.22188 590.615 6.13789C 590.705 6.05391 590.957 5.92813 591.233 5.92813C 591.551 5.93398 591.953 6.08984 592.277 6.35391C 592.643 6.65391 592.811 6.99609 592.811 7.35586C 592.811 7.84805 592.421 8.369921 591.653 8.369921C 591.491 8.369921 591.209 8.273829 590.981 8.18984z" stroke="#000000" stroke-width="0.4" fill="none" /><path id="1207" transform="matrix(1 0 0 -1 0 834)" d="M594.539 9.61211C 595.079 9.61211 595.229 8.72383 595.229 7.871881C 595.229 7.03203 595.085 6.13203 594.545 6.13203C 594.023 6.13203 593.8491 7.03789 593.8491 7.87813C 593.8491 8.712111 593.993 9.61211 594.539 9.61211zM594.545 9.810161C 593.645 9.810161 593.315 8.74219 593.315 7.86602C 593.315 6.91797 593.639 5.92813 594.545 5.92813C 595.445 5.92813 595.763 6.99609 595.763 7.871881C 595.763 8.79609 595.445 9.810161 594.545 9.810161z" stroke="#000000" stroke-width="0.4" fill="none" /><path id="1208" transform="matrix(1 0 0 -1 0 834)" d="M596.675 5.92813C 596.867 5.92813 597.011 6.06602 597.011 6.27617C 597.011 6.46797 596.867 6.61797 596.675 6.61797C 596.483 6.61797 596.3391 6.46797 596.3391 6.27617C 596.3391 6.06602 596.483 5.92813 596.675 5.92813zM596.669 8.466021C 596.477 8.466021 596.3391 8.328131 596.3391 8.13008C 596.3391 7.92617 596.477 7.78203 596.669 7.78203C 596.861 7.78203 597.005 7.92617 597.005 8.13008C 597.005 8.328131 596.861 8.466021 596.669 8.466021z" stroke="#000000" stroke-width="0.4" fill="none" /><path id="1209" transform="matrix(1 0 0 -1 0 834)" d="M598.265 9.3L599.663 9.3L599.663 9.3L599.819 9.68984L599.819 9.68984L599.783 9.73789L599.783 9.73789L598.073 9.73789L598.073 9.73789L597.8391 7.90781C 597.977 7.96211 598.205 8.028131 598.457 8.028131C 599.111 8.028131 599.435 7.65 599.435 7.121881C 599.435 6.67188 599.183 6.23398 598.673 6.23398C 598.307 6.23398 598.061 6.42617 597.935 6.53984C 597.875 6.58789 597.827 6.58203 597.773 6.53984C 597.707 6.48008 597.653 6.40195 597.647 6.34219C 597.635 6.26992 597.665 6.22188 597.743 6.13789C 597.833 6.05391 598.085 5.92813 598.361 5.92813C 598.679 5.93398 599.081 6.08984 599.405 6.35391C 599.771 6.65391 599.939 6.99609 599.939 7.35586C 599.939 7.84805 599.549 8.369921 598.781 8.369921C 598.619 8.369921 598.337 8.273829 598.109 8.18984z" stroke="#000000" stroke-width="0.4" fill="none" /><path id="1210" transform="matrix(1 0 0 -1 0 834)" d="M601.145 9.3L602.543 9.3L602.543 9.3L602.699 9.68984L602.699 9.68984L602.663 9.73789L602.663 9.73789L600.953 9.73789L600.953 9.73789L600.719 7.90781C 600.857 7.96211 601.085 8.028131 601.337 8.028131C 601.991 8.028131 602.315 7.65 602.315 7.121881C 602.315 6.67188 602.063 6.23398 601.553 6.23398C 601.187 6.23398 600.941 6.42617 600.815 6.53984C 600.755 6.58789 600.707 6.58203 600.653 6.53984C 600.587 6.48008 600.533 6.40195 600.527 6.34219C 600.515 6.26992 600.545 6.22188 600.623 6.13789C 600.713 6.05391 600.965 5.92813 601.241 5.92813C 601.559 5.93398 601.961 6.08984 602.285 6.35391C 602.651 6.65391 602.819 6.99609 602.819 7.35586C 602.819 7.84805 602.429 8.369921 601.661 8.369921C 601.499 8.369921 601.217 8.273829 600.989 8.18984z" stroke="#000000" stroke-width="0.4" fill="none" /><path id="1211" transform="matrix(1 0 0 -1 0 834)" d="M605.489 8.08203C 605.651 8.20195 605.897 8.33398 606.0891 8.33398C 606.527 8.33398 606.893 7.97383 606.893 7.33203C 606.893 6.65391 606.557 6.22188 606.053 6.22188C 605.8491 6.22188 605.621 6.31797 605.489 6.45586zM605.489 8.28008L605.489 8.75391C 605.207 8.63984 604.871 8.53789 604.619 8.49609L604.619 8.49609L604.619 8.351951C 604.991 8.30391 605.015 8.29219 605.015 7.90195L605.015 7.90195L605.015 5.18984C 605.015 4.79414 604.961 4.75781 604.577 4.72188L604.577 4.72188L604.577 4.56016L604.577 4.56016L605.999 4.56016L605.999 4.56016L605.999 4.72188C 605.531 4.76406 605.489 4.79414 605.489 5.25L605.489 5.25L605.489 6.03594C 605.567 5.99414 605.729 5.93398 605.903 5.92813C 606.683 6.07188 607.397 6.65391 607.397 7.56016C 607.397 8.153911 607.001 8.69414 606.335 8.69414C 606.263 8.69414 606.149 8.664061 606.041 8.60391z" stroke="#000000" stroke-width="0.4" fill="none" /><path id="1212" transform="matrix(1 0 0 -1 0 834)" d="M608.303 5.92813C 608.4951 5.92813 608.639 6.06602 608.639 6.27617C 608.639 6.46797 608.4951 6.61797 608.303 6.61797C 608.111 6.61797 607.967 6.46797 607.967 6.27617C 607.967 6.06602 608.111 5.92813 608.303 5.92813z" stroke="#000000" stroke-width="0.4" fill="none" /><path id="1213" transform="matrix(1 0 0 -1 0 834)" d="M615.125 6L615.125 6.15586C 614.783 6.19219 614.735 6.21602 614.735 6.61797L614.735 6.61797L614.735 7.77617C 614.735 8.36406 614.441 8.69414 613.973 8.69414C 613.805 8.69414 613.649 8.621881 613.523 8.53789C 613.373 8.44805 613.199 8.33398 613.025 8.20195C 612.905 8.51406 612.647 8.69414 612.359 8.69414C 612.167 8.69414 612.023 8.628131 611.867 8.53203C 611.687 8.417971 611.555 8.310161 611.429 8.226171L611.429 8.226171L611.429 8.712111C 611.165 8.59219 610.859 8.51406 610.595 8.466021L610.595 8.466021L610.595 8.328131C 610.9431 8.273829 610.961 8.24414 610.961 7.86016L610.961 7.86016L610.961 6.61797C 610.961 6.22813 610.907 6.19219 610.511 6.15586L610.511 6.15586L610.511 6L610.511 6L611.777 6L611.777 6L611.777 6.15586C 611.483 6.19219 611.435 6.22813 611.435 6.61797L611.435 6.61797L611.435 8.028131C 611.615 8.17813 611.8491 8.33984 612.0891 8.33984C 612.455 8.33984 612.611 8.09414 612.611 7.65L612.611 7.65L612.611 6.61797C 612.611 6.22188 612.557 6.19219 612.185 6.15586L612.185 6.15586L612.185 6L612.185 6L613.469 6L613.469 6L613.469 6.15586C 613.139 6.19219 613.085 6.22813 613.085 6.60586L613.085 6.60586L613.085 7.77617C 613.085 7.88984 613.079 7.95586 613.067 8.028131C 613.295 8.21992 613.523 8.33984 613.739 8.33984C 614.117 8.33984 614.267 8.069921 614.267 7.64414L614.267 7.64414L614.267 6.64219C 614.267 6.21602 614.201 6.19219 613.847 6.15586L613.847 6.15586L613.847 6z" stroke="#000000" stroke-width="0.4" fill="none" /><path id="1214" transform="matrix(1 0 0 -1 0 834)" d="M615.947 5.92813C 616.139 5.92813 616.283 6.06602 616.283 6.27617C 616.283 6.46797 616.139 6.61797 615.947 6.61797C 615.755 6.61797 615.611 6.46797 615.611 6.27617C 615.611 6.06602 615.755 5.92813 615.947 5.92813z" stroke="#000000" stroke-width="0.4" fill="none" /></g></g></svg>