<svg xmlns="http://www.w3.org/2000/svg" xmlns:xlink="http://www.w3.org/1999/xlink" id="body_1" preserveAspectRatio="xMinYMin meet" viewBox="0 0 872 1112"><defs><clipPath id="1"><path id="" clip-rule="evenodd" transform="matrix(1 0 0 1 0 0)" d="M0 834L0 0L0 0L654 0L654 0L654 834L654 834L0 834z" /></clipPath><clipPath id="2"><path id="" clip-rule="evenodd" transform="matrix(1 0 0 1 0 0)" d="M21 813L633 813L633 813L633 21L633 21L21 21z" /></clipPath><clipPath id="3"><path id="" clip-rule="evenodd" transform="matrix(1 0 0 1 0 0)" d="M330.583 268.452L439.172 268.452L439.172 268.452L439.172 121.969L439.172 121.969L330.583 121.969z" /></clipPath><clipPath id="4"><path id="" clip-rule="evenodd" transform="matrix(1 0 0 1 0 0)" d="M330.583 268.452L439.172 268.452L439.172 268.452L439.172 121.969L439.172 121.969L330.583 121.969z" /></clipPath><clipPath id="5"><path id="" clip-rule="evenodd" transform="matrix(1 0 0 1 0 0)" d="M330.583 269.371L548.622 269.371L548.622 269.371L548.622 121.969L548.622 121.969L330.583 121.969z" /></clipPath><clipPath id="6"><path id="" clip-rule="evenodd" transform="matrix(1 0 0 1 0 0)" d="M419.811 233.65C 419.811 253.017 435.247 268.716 454.289 268.716L454.289 268.716L454.289 268.716C 467.437 268.716 478.867 261.23 484.682 250.221L484.682 250.221L484.682 250.221L484.682 250.221L484.682 217.0779C 478.867 206.068 467.437 198.583 454.289 198.583L454.289 198.583L454.289 198.583C 435.247 198.583 419.811 214.283 419.811 233.65" /></clipPath><clipPath id="7"><path id="" clip-rule="evenodd" transform="matrix(1 0 0 1 0 0)" d="M419.811 233.65C 419.811 253.017 435.247 268.716 454.289 268.716L454.289 268.716L454.289 268.716C 467.437 268.716 478.867 261.23 484.682 250.221L484.682 250.221L484.682 250.221L484.682 250.221L484.682 217.0779C 478.867 206.068 467.437 198.583 454.289 198.583L454.289 198.583L454.289 198.583C 435.247 198.583 419.811 214.283 419.811 233.65" /></clipPath><clipPath id="8"><path id="" clip-rule="evenodd" transform="matrix(1 0 0 1 0 0)" d="M330.583 269.371L548.622 269.371L548.622 269.371L548.622 121.969L548.622 121.969L330.583 121.969z" /></clipPath><clipPath id="9"><path id="" clip-rule="evenodd" transform="matrix(1 0 0 1 0 0)" d="M479.282 233.517C 479.282 252.812 494.661 268.4529 513.631 268.4529L513.631 268.4529L513.631 268.4529C 526.029 268.4529 536.892 261.773 542.931 251.758L542.931 251.758L542.931 251.758L542.931 251.758L542.931 215.278C 536.892 205.262 526.029 198.583 513.631 198.583L513.631 198.583L513.631 198.583C 494.661 198.583 479.282 214.223 479.282 233.517" /></clipPath><clipPath id="10"><path id="" clip-rule="evenodd" transform="matrix(1 0 0 1 0 0)" d="M479.282 233.517C 479.282 252.812 494.661 268.4529 513.631 268.4529L513.631 268.4529L513.631 268.4529C 526.029 268.4529 536.892 261.773 542.931 251.758L542.931 251.758L542.931 251.758L542.931 251.758L542.931 215.278C 536.892 205.262 526.029 198.583 513.631 198.583L513.631 198.583L513.631 198.583C 494.661 198.583 479.282 214.223 479.282 233.517" /></clipPath><clipPath id="11"><path id="" clip-rule="evenodd" transform="matrix(1 0 0 1 0 0)" d="M330.583 269.371L548.622 269.371L548.622 269.371L548.622 121.969L548.622 121.969L330.583 121.969z" /></clipPath><clipPath id="12"><path id="" clip-rule="evenodd" transform="matrix(1 0 0 1 0 0)" d="M382.866 223.883L400.8469 223.883L400.8469 223.883L400.8469 192.8592L400.8469 192.8592L382.866 192.8592z" /></clipPath><clipPath id="13"><path id="" clip-rule="evenodd" transform="matrix(1 0 0 1 0 0)" d="M382.866 223.883L400.847 223.883L400.847 223.883L400.847 192.8589L400.847 192.8589L382.866 192.8589z" /></clipPath><clipPath id="14"><path id="" clip-rule="evenodd" transform="matrix(1 0 0 1 0 0)" d="M382.866 223.883L400.8469 223.883L400.8469 223.883L400.8469 192.8596L400.8469 192.8596L382.866 192.8596z" /></clipPath><clipPath id="15"><path id="" clip-rule="evenodd" transform="matrix(1 0 0 1 0 0)" d="M330.583 269.371L548.622 269.371L548.622 269.371L548.622 121.969L548.622 121.969L330.583 121.969z" /></clipPath><clipPath id="16"><path id="" clip-rule="evenodd" transform="matrix(1 0 0 1 0 0)" d="M464.537 240.245L465.4249 240.245L465.4249 240.245L465.4249 230.8251L465.4249 230.8251L464.537 230.8251z" /></clipPath><clipPath id="17"><path id="" clip-rule="evenodd" transform="matrix(1 0 0 1 0 0)" d="M464.537 240.245L465.425 240.245L465.425 240.245L465.425 230.825L465.425 230.825L464.537 230.825z" /></clipPath><clipPath id="18"><path id="" clip-rule="evenodd" transform="matrix(1 0 0 1 0 0)" d="M464.537 240.245L465.4261 240.245L465.4261 240.245L465.4261 230.8251L465.4261 230.8251L464.537 230.8251z" /></clipPath><clipPath id="19"><path id="" clip-rule="evenodd" transform="matrix(1 0 0 1 0 0)" d="M265.23 168.419L293.196 168.419L293.196 168.419L293.196 112.1124L293.196 112.1124L265.23 112.1124z" /></clipPath><clipPath id="20"><path id="" clip-rule="evenodd" transform="matrix(1 0 0 1 0 0)" d="M265.23 168.419L293.196 168.419L293.196 168.419L293.196 112.1124L293.196 112.1124L265.23 112.1124z" /></clipPath><clipPath id="21"><path id="" clip-rule="evenodd" transform="matrix(1 0 0 1 0 0)" d="M311.268 174.741L336.8649 174.741L336.8649 174.741L336.8649 138.882L336.8649 138.882L311.268 138.882z" /></clipPath><clipPath id="22"><path id="" clip-rule="evenodd" transform="matrix(1 0 0 1 0 0)" d="M311.268 174.741L336.8649 174.741L336.8649 174.741L336.8649 138.882L336.8649 138.882L311.268 138.882z" /></clipPath><clipPath id="23"><path id="" clip-rule="evenodd" transform="matrix(1 0 0 1 0 0)" d="M311.268 210.599L336.8649 210.599L336.8649 210.599L336.8649 174.7416L336.8649 174.7416L311.268 174.7416z" /></clipPath><clipPath id="24"><path id="" clip-rule="evenodd" transform="matrix(1 0 0 1 0 0)" d="M311.268 210.599L336.8649 210.599L336.8649 210.599L336.8649 174.7416L336.8649 174.7416L311.268 174.7416z" /></clipPath><clipPath id="25"><path id="" clip-rule="evenodd" transform="matrix(1 0 0 1 0 0)" d="M506.858 170.489L532.4549 170.489L532.4549 170.489L532.4549 134.6308L532.4549 134.6308L506.858 134.6308z" /></clipPath><clipPath id="26"><path id="" clip-rule="evenodd" transform="matrix(1 0 0 1 0 0)" d="M506.858 170.489L532.4549 170.489L532.4549 170.489L532.4549 134.6308L532.4549 134.6308L506.858 134.6308z" /></clipPath><clipPath id="27"><path id="" clip-rule="evenodd" transform="matrix(1 0 0 1 0 0)" d="M370.066 486.388L464.7269 486.388L464.7269 486.388L464.7269 344.102L464.7269 344.102L370.066 344.102z" /></clipPath><clipPath id="28"><path id="" clip-rule="evenodd" transform="matrix(1 0 0 1 0 0)" d="M370.066 486.388L464.7269 486.388L464.7269 486.388L464.7269 344.102L464.7269 344.102L370.066 344.102z" /></clipPath><clipPath id="29"><path id="" clip-rule="evenodd" transform="matrix(1 0 0 1 0 0)" d="M370.066 487.049L478.319 487.049L478.319 487.049L478.319 344.101L478.319 344.101L370.066 344.101z" /></clipPath><clipPath id="30"><path id="" clip-rule="evenodd" transform="matrix(1 0 0 1 0 0)" d="M403.573 449.346C 403.573 469.803 420.158 486.388 440.615 486.388L440.615 486.388L440.615 486.388C 461.073 486.388 477.657 469.803 477.657 449.346L477.657 449.346L477.657 449.346C 477.657 428.888 461.073 412.304 440.615 412.304L440.615 412.304L440.615 412.304C 420.158 412.304 403.573 428.888 403.573 449.346" /></clipPath><clipPath id="31"><path id="" clip-rule="evenodd" transform="matrix(1 0 0 1 0 0)" d="M403.573 449.346C 403.573 469.803 420.158 486.388 440.615 486.388L440.615 486.388L440.615 486.388C 461.073 486.388 477.657 469.803 477.657 449.346L477.657 449.346L477.657 449.346C 477.657 428.888 461.073 412.304 440.615 412.304L440.615 412.304L440.615 412.304C 420.158 412.304 403.573 428.888 403.573 449.346" /></clipPath><clipPath id="32"><path id="" clip-rule="evenodd" transform="matrix(1 0 0 1 0 0)" d="M370.066 487.049L478.319 487.049L478.319 487.049L478.319 344.101L478.319 344.101L370.066 344.101z" /></clipPath><clipPath id="33"><path id="" clip-rule="evenodd" transform="matrix(1 0 0 1 0 0)" d="M261.396 387.678L298.6339 387.678L298.6339 387.678L298.6339 330.7608L298.6339 330.7608L261.396 330.7608z" /></clipPath><clipPath id="34"><path id="" clip-rule="evenodd" transform="matrix(1 0 0 1 0 0)" d="M261.396 387.678L298.6339 387.678L298.6339 387.678L298.6339 330.7608L298.6339 330.7608L261.396 330.7608z" /></clipPath><clipPath id="35"><path id="" clip-rule="evenodd" transform="matrix(1 0 0 1 0 0)" d="M481.913 395.078L507.5103 395.078L507.5103 395.078L507.5103 359.219L507.5103 359.219L481.913 359.219z" /></clipPath><clipPath id="36"><path id="" clip-rule="evenodd" transform="matrix(1 0 0 1 0 0)" d="M481.913 395.078L507.5103 395.078L507.5103 395.078L507.5103 359.219L507.5103 359.219L481.913 359.219z" /></clipPath><clipPath id="37"><path id="" clip-rule="evenodd" transform="matrix(1 0 0 1 0 0)" d="M325.269 395.078L354.4948 395.078L354.4948 395.078L354.4948 366.0839L354.4948 366.0839L325.269 366.0839z" /></clipPath><clipPath id="38"><path id="" clip-rule="evenodd" transform="matrix(1 0 0 1 0 0)" d="M325.269 395.078L354.4948 395.078L354.4948 395.078L354.4948 366.0839L354.4948 366.0839L325.269 366.0839z" /></clipPath><clipPath id="39"><path id="" clip-rule="evenodd" transform="matrix(1 0 0 1 0 0)" d="M291.595 702.346L364.013 702.346L364.013 702.346L364.013 589.642L364.013 589.642L291.595 589.642z" /></clipPath><clipPath id="40"><path id="" clip-rule="evenodd" transform="matrix(1 0 0 1 0 0)" d="M291.595 702.346L364.013 702.346L364.013 702.346L364.013 589.642L364.013 589.642L291.595 589.642z" /></clipPath><clipPath id="41"><path id="" clip-rule="evenodd" transform="matrix(1 0 0 1 0 0)" d="M444.208 702.11L516.626 702.11L516.626 702.11L516.626 589.406L516.626 589.406L444.208 589.406z" /></clipPath><clipPath id="42"><path id="" clip-rule="evenodd" transform="matrix(1 0 0 1 0 0)" d="M444.208 702.11L516.626 702.11L516.626 702.11L516.626 589.406L516.626 589.406L444.208 589.406z" /></clipPath><clipPath id="43"><path id="" clip-rule="evenodd" transform="matrix(1 0 0 1 0 0)" d="M291.595 704.162L555.799 704.162L555.799 704.162L555.799 589.406L555.799 589.406L291.595 589.406z" /></clipPath><clipPath id="44"><path id="" clip-rule="evenodd" transform="matrix(1 0 0 1 0 0)" d="M341.267 674.637C 341.267 690.086 353.583 702.609 368.775 702.609L368.775 702.609L368.775 702.609C 383.967 702.609 396.284 690.086 396.284 674.637L396.284 674.637L396.284 674.637C 396.284 659.189 383.967 646.665 368.775 646.665L368.775 646.665L368.775 646.665C 353.583 646.665 341.267 659.189 341.267 674.637" /></clipPath><clipPath id="45"><path id="" clip-rule="evenodd" transform="matrix(1 0 0 1 0 0)" d="M341.267 674.637C 341.267 690.086 353.583 702.609 368.775 702.609L368.775 702.609L368.775 702.609C 383.967 702.609 396.284 690.086 396.284 674.637L396.284 674.637L396.284 674.637C 396.284 659.189 383.967 646.665 368.775 646.665L368.775 646.665L368.775 646.665C 353.583 646.665 341.267 659.189 341.267 674.637" /></clipPath><clipPath id="46"><path id="" clip-rule="evenodd" transform="matrix(1 0 0 1 0 0)" d="M291.595 704.162L555.799 704.162L555.799 704.162L555.799 589.406L555.799 589.406L291.595 589.406z" /></clipPath><clipPath id="47"><path id="" clip-rule="evenodd" transform="matrix(1 0 0 1 0 0)" d="M387.909 675.936C 387.909 690.602 399.601 702.491 414.024 702.491L414.024 702.491L414.024 702.491C 428.447 702.491 440.139 690.602 440.139 675.936L440.139 675.936L440.139 675.936C 440.139 661.269 428.447 649.379 414.024 649.379L414.024 649.379L414.024 649.379C 399.601 649.379 387.909 661.269 387.909 675.936" /></clipPath><clipPath id="48"><path id="" clip-rule="evenodd" transform="matrix(1 0 0 1 0 0)" d="M387.909 675.936C 387.909 690.602 399.601 702.491 414.024 702.491L414.024 702.491L414.024 702.491C 428.447 702.491 440.139 690.602 440.139 675.936L440.139 675.936L440.139 675.936C 440.139 661.269 428.447 649.379 414.024 649.379L414.024 649.379L414.024 649.379C 399.601 649.379 387.909 661.269 387.909 675.936" /></clipPath><clipPath id="49"><path id="" clip-rule="evenodd" transform="matrix(1 0 0 1 0 0)" d="M291.595 704.162L555.799 704.162L555.799 704.162L555.799 589.406L555.799 589.406L291.595 589.406z" /></clipPath><clipPath id="50"><path id="" clip-rule="evenodd" transform="matrix(1 0 0 1 0 0)" d="M498.385 674.637C 498.385 690.574 511.09 703.495 526.764 703.495L526.764 703.495L526.764 703.495C 542.436 703.495 555.142 690.574 555.142 674.637L555.142 674.637L555.142 674.637C 555.142 658.7 542.436 645.779 526.764 645.779L526.764 645.779L526.764 645.779C 511.09 645.779 498.385 658.7 498.385 674.637" /></clipPath><clipPath id="51"><path id="" clip-rule="evenodd" transform="matrix(1 0 0 1 0 0)" d="M498.385 674.637C 498.385 690.574 511.09 703.495 526.764 703.495L526.764 703.495L526.764 703.495C 542.436 703.495 555.142 690.574 555.142 674.637L555.142 674.637L555.142 674.637C 555.142 658.7 542.436 645.779 526.764 645.779L526.764 645.779L526.764 645.779C 511.09 645.779 498.385 658.7 498.385 674.637" /></clipPath><clipPath id="52"><path id="" clip-rule="evenodd" transform="matrix(1 0 0 1 0 0)" d="M291.595 704.162L555.799 704.162L555.799 704.162L555.799 589.406L555.799 589.406L291.595 589.406z" /></clipPath><clipPath id="53"><path id="" clip-rule="evenodd" transform="matrix(1 0 0 1 0 0)" d="M316.67 654.956L338.545 654.956L338.545 654.956L338.545 648.2283L338.545 648.2283L316.67 648.2283z" /></clipPath><clipPath id="54"><path id="" clip-rule="evenodd" transform="matrix(1 0 0 1 0 0)" d="M316.67 654.956L338.545 654.956L338.545 654.956L338.545 648.228L338.545 648.228L316.67 648.228z" /></clipPath><clipPath id="55"><path id="" clip-rule="evenodd" transform="matrix(1 0 0 1 0 0)" d="M316.67 654.956L338.545 654.956L338.545 654.956L338.545 648.2283L338.545 648.2283L316.67 648.2283z" /></clipPath><clipPath id="56"><path id="" clip-rule="evenodd" transform="matrix(1 0 0 1 0 0)" d="M291.595 704.162L555.799 704.162L555.799 704.162L555.799 589.406L555.799 589.406L291.595 589.406z" /></clipPath><clipPath id="57"><path id="" clip-rule="evenodd" transform="matrix(1 0 0 1 0 0)" d="M477.527 611.792L484.0872 611.792L484.0872 611.792L484.0872 609.1764L484.0872 609.1764L477.527 609.1764z" /></clipPath><clipPath id="58"><path id="" clip-rule="evenodd" transform="matrix(1 0 0 1 0 0)" d="M477.527 611.792L484.087 611.792L484.087 611.792L484.087 609.176L484.087 609.176L477.527 609.176z" /></clipPath><clipPath id="59"><path id="" clip-rule="evenodd" transform="matrix(1 0 0 1 0 0)" d="M477.527 611.792L484.0872 611.792L484.0872 611.792L484.0872 609.176L484.0872 609.176L477.527 609.176z" /></clipPath><clipPath id="60"><path id="" clip-rule="evenodd" transform="matrix(1 0 0 1 0 0)" d="M409.814 643.003L435.4109 643.003L435.4109 643.003L435.4109 607.1448L435.4109 607.1448L409.814 607.1448z" /></clipPath><clipPath id="61"><path id="" clip-rule="evenodd" transform="matrix(1 0 0 1 0 0)" d="M409.814 643.003L435.4109 643.003L435.4109 643.003L435.4109 607.1448L435.4109 607.1448L409.814 607.1448z" /></clipPath><clipPath id="62"><path id="" clip-rule="evenodd" transform="matrix(1 0 0 1 0 0)" d="M274.94 643.003L300.5373 643.003L300.5373 643.003L300.5373 607.1448L300.5373 607.1448L274.94 607.1448z" /></clipPath><clipPath id="63"><path id="" clip-rule="evenodd" transform="matrix(1 0 0 1 0 0)" d="M274.94 643.003L300.5373 643.003L300.5373 643.003L300.5373 607.1448L300.5373 607.1448L274.94 607.1448z" /></clipPath><clipPath id="64"><path id="" clip-rule="evenodd" transform="matrix(1 0 0 1 0 0)" d="M362.617 643.003L388.2139 643.003L388.2139 643.003L388.2139 607.1448L388.2139 607.1448L362.617 607.1448z" /></clipPath><clipPath id="65"><path id="" clip-rule="evenodd" transform="matrix(1 0 0 1 0 0)" d="M362.617 643.003L388.2139 643.003L388.2139 643.003L388.2139 607.1448L388.2139 607.1448L362.617 607.1448z" /></clipPath></defs><g transform="matrix(1.333333 0 0 1.333333 0 0)"><g clip-path="url(#1)"><g clip-path="url(#2)"><path id="1" transform="matrix(1 0 0 -1 0 834)" d="M91.866 67.4211L562.134 67.4211L562.134 74.92501L91.866 74.92501z" stroke="none" fill="#686868" fill-rule="nonzero" /><path id="2" transform="matrix(1 0 0 -1 0 834)" d="M562.134 526.984L91.866 526.984" stroke="#686868" stroke-width="1" fill="none" /><path id="3" transform="matrix(1 0 0 -1 0 834)" d="M562.134 307.016L91.866 307.016" stroke="#686868" stroke-width="1" fill="none" /></g><g clip-path="url(#3)"></g><g clip-path="url(#4)"><g transform="matrix(1.005454 0 0 1.003308 330.583 121.969)"><g transform="matrix(1 0 0 1 0 0)"><image x="0" y="0" xlink:href="img_01.png" width="108" height="146" /></g></g></g><g clip-path="url(#5)"><path id="389" transform="matrix(1 0 0 -1 0 834)" d="M488.768 600.351C 488.768 580.984 473.331 565.284 454.289 565.284C 435.248 565.284 419.812 580.984 419.812 600.351C 419.812 619.718 435.248 635.418 454.289 635.418C 473.331 635.418 488.768 619.718 488.768 600.351" stroke="none" fill="#FFFFFF" fill-rule="nonzero" /></g><g clip-path="url(#6)"></g><g clip-path="url(#7)"><g transform="matrix(1.006173 0 0 1.000114 414.25 190.4032)"><g transform="matrix(1 0 0 1 0 0)"><image x="0" y="0" xlink:href="img_02.png" width="70" height="95" /></g></g></g><g clip-path="url(#8)"><path id="391" transform="matrix(1 0 0 -1 0 834)" d="M488.7678 600.3513C 488.7678 580.9836 473.3317 565.2838 454.2893 565.2838C 435.248 565.2838 419.8118 580.9836 419.8118 600.3513C 419.8118 619.718 435.248 635.4178 454.2893 635.4178C 473.3317 635.4178 488.7678 619.718 488.7678 600.3513z" stroke="#000000" stroke-width="0.7143994" fill="none" /><path id="392" transform="matrix(1 0 0 -1 0 834)" d="M547.979 600.483C 547.979 581.189 532.6 565.548 513.63 565.548C 494.661 565.548 479.282 581.189 479.282 600.483C 479.282 619.777 494.661 635.418 513.63 635.418C 532.6 635.418 547.979 619.777 547.979 600.483" stroke="none" fill="#FFFFFF" fill-rule="nonzero" /></g><g clip-path="url(#9)"></g><g clip-path="url(#10)"><g transform="matrix(0.9989293 0 0 1.006772 478.001 198.5828)"><g transform="matrix(1 0 0 1 0 0)"><image x="0" y="0" xlink:href="img_03.png" width="65" height="87" /></g></g></g><g clip-path="url(#11)"><path id="394" transform="matrix(1 0 0 -1 0 834)" d="M547.978 600.4834C 547.978 581.1894 532.6003 565.548 513.6304 565.548C 494.6604 565.548 479.2828 581.1894 479.2828 600.4834C 479.2828 619.7775 494.6604 635.4178 513.6304 635.4178C 532.6003 635.4178 547.978 619.7775 547.978 600.4834z" stroke="#000000" stroke-width="0.7143994" fill="none" /></g><g clip-path="url(#12)"><g><g clip-path="url(#13)"><g clip-path="url(#14)"><path id="395" transform="matrix(1 0 0 -1 0 834)" d="M392.384 610.116C 391.146 610.116 389.914 610.453 388.741 611.119C 388.03 611.523 387.334 612.0471 386.67 612.676C 383.853 615.35 382.59 618.684 382.916 622.584C 383.519 629.802 389.526 637.382 395.148 641.14L395.148 641.14L395.541 640.533C 390.063 636.871 384.211 629.509 383.628 622.523C 383.321 618.855 384.509 615.721 387.158 613.207C 387.779 612.618 388.429 612.129 389.089 611.754C 390.789 610.788 392.622 610.587 394.391 611.173C 396.581 611.9 398.552 613.804 399.664 616.2661L399.664 616.2661L400.313 615.963C 399.12 613.32 396.989 611.271 394.612 610.483C 393.875 610.238 393.128 610.116 392.384 610.116" stroke="none" fill="#FFFFFF" fill-rule="nonzero" fill-opacity="0.8" /><path id="396" transform="matrix(1 0 0 -1 0 834)" d="M400.846 614.71L399.796 615.708L398.361 615.632L400.679 618.167z" stroke="none" fill="#FFFFFF" fill-rule="nonzero" fill-opacity="0.8" /></g></g></g></g><path id="397" transform="matrix(1 0 0 -1 0 834)" d="M454.509 611.875L454.289 611.164" stroke="none" fill="#FFFFFF" fill-rule="nonzero" /><g clip-path="url(#15)"><path id="398" transform="matrix(1 0 0 -1 0 834)" d="M465.351 602.669C 465.227 605.442 464.925 608.423 464.277 610.918L464.277 610.918L465.344 610.857L465.344 610.857L463.035 613.401L463.035 613.401L462.855 609.944L462.855 609.944L463.607 610.654C 464.179 608.409 464.469 605.729 464.602 603.176" stroke="none" fill="#000000" fill-rule="nonzero" /></g><g clip-path="url(#16)"><g><g clip-path="url(#17)"><g clip-path="url(#18)"><path id="399" transform="matrix(1 0 0 -1 0 834)" d="M464.602 603.176C 464.857 598.299 464.542 593.879 464.537 593.81L464.537 593.81L465.249 593.755C 465.27 594.029 465.557 598.062 465.351 602.669" stroke="none" fill="#FFFFFF" fill-rule="nonzero" fill-opacity="0.8" /></g></g></g></g><g clip-path="url(#19)"></g><g clip-path="url(#20)"><g transform="matrix(0.9987679 0 0 1.005452 265.23 112.1127)"><g transform="matrix(1 0 0 1 0 0)"><image x="0" y="0" xlink:href="img_04.png" width="28" height="56" /></g></g></g><g clip-path="url(#21)"></g><g clip-path="url(#22)"><g transform="matrix(1.022789 0 0 0.9967948 310.261 137.8688)"><g transform="matrix(1 0 0 1 0 0)"><image x="0" y="0" xlink:href="img_05.png" width="27" height="38" /></g></g></g><g clip-path="url(#23)"></g><g clip-path="url(#24)"><g transform="matrix(1.022789 0 0 0.9967948 310.26 173.7268)"><g transform="matrix(1 0 0 1 0 0)"><image x="0" y="0" xlink:href="img_06.png" width="27" height="38" /></g></g></g><g clip-path="url(#25)"></g><g clip-path="url(#26)"><g transform="matrix(-1.022789 0 0 0.9967948 533.462 133.6168)"><g transform="matrix(1 0 0 1 0 0)"><image x="0" y="0" xlink:href="img_05.png" width="27" height="38" /></g></g></g><g clip-path="url(#27)"></g><g clip-path="url(#28)"><g transform="matrix(1.007037 0 0 1.002014 370.066 344.101)"><g transform="matrix(1 0 0 1 0 0)"><image x="0" y="0" xlink:href="img_07.png" width="94" height="142" /></g></g></g><g clip-path="url(#29)"><path id="487" transform="matrix(1 0 0 -1 0 834)" d="M477.657 384.654C 477.657 364.197 461.073 347.613 440.616 347.613C 420.158 347.613 403.574 364.197 403.574 384.654C 403.574 405.111 420.158 421.695 440.616 421.695C 461.073 421.695 477.657 405.111 477.657 384.654" stroke="none" fill="#FFFFFF" fill-rule="nonzero" /></g><g clip-path="url(#30)"></g><g clip-path="url(#31)"><g transform="matrix(1.007037 0 0 1.002014 403.574 398.782)"><g transform="matrix(1 0 0 1 0 0)"><image x="0" y="0" xlink:href="img_08.png" width="94" height="142" /></g></g></g><g clip-path="url(#32)"><path id="489" transform="matrix(1 0 0 -1 0 834)" d="M477.657 384.654C 477.657 364.197 461.073 347.613 440.616 347.613C 420.158 347.613 403.574 364.197 403.574 384.654C 403.574 405.111 420.158 421.695 440.616 421.695C 461.073 421.695 477.657 405.111 477.657 384.654z" stroke="#000000" stroke-width="0.735" fill="none" /></g><path id="490" transform="matrix(1 0 0 -1 0 834)" d="M389.893 451.157L389.715 451.449L386.003 457.536L385.376 457.153L389.974 449.612" stroke="none" fill="#000000" fill-rule="nonzero" /><path id="491" transform="matrix(1 0 0 -1 0 834)" d="M396.196 442.727L395.568 441.85L393.567 445.131L393.83 443.287L394.94 441.467L393.872 441.31L396.714 439.264" stroke="none" fill="#000000" fill-rule="nonzero" /><g clip-path="url(#33)"></g><g clip-path="url(#34)"><g transform="matrix(1.006449 0 0 0.9985386 261.396 330.7613)"><g transform="matrix(1 0 0 1 0 0)"><image x="0" y="0" xlink:href="img_09.png" width="37" height="57" /></g></g></g><g clip-path="url(#35)"></g><g clip-path="url(#36)"><g transform="matrix(-1.022789 0 0 0.9967948 508.517 358.2058)"><g transform="matrix(1 0 0 1 0 0)"><image x="0" y="0" xlink:href="img_05.png" width="27" height="38" /></g></g></g><g clip-path="url(#37)"></g><g clip-path="url(#38)"><g transform="matrix(1.007793 0 0 1.000083 325.269 366.0835)"><g transform="matrix(1 0 0 1 0 0)"><image x="0" y="0" xlink:href="img_10.png" width="29" height="30" /></g></g></g><g clip-path="url(#39)"></g><g clip-path="url(#40)"><g transform="matrix(1.005808 0 0 1.006286 291.594 589.642)"><g transform="matrix(1 0 0 1 0 0)"><image x="0" y="0" xlink:href="img_11.png" width="72" height="112" /></g></g></g><g clip-path="url(#41)"></g><g clip-path="url(#42)"><g transform="matrix(1.005808 0 0 1.006286 444.207 589.406)"><g transform="matrix(1 0 0 1 0 0)"><image x="0" y="0" xlink:href="img_12.png" width="72" height="112" /></g></g></g><g clip-path="url(#43)"><path id="836" transform="matrix(1 0 0 -1 0 834)" d="M396.282 159.362C 396.282 143.914 383.966 131.39 368.775 131.39C 353.582 131.39 341.267 143.914 341.267 159.362C 341.267 174.811 353.582 187.334 368.775 187.334C 383.966 187.334 396.282 174.811 396.282 159.362" stroke="none" fill="#FFFFFF" fill-rule="nonzero" /></g><g clip-path="url(#44)"></g><g clip-path="url(#45)"><g transform="matrix(1.005808 0 0 1.006286 332.566 612.679)"><g transform="matrix(1 0 0 1 0 0)"><image x="0" y="0" xlink:href="img_13.png" width="72" height="112" /></g></g></g><g clip-path="url(#46)"><path id="838" transform="matrix(1 0 0 -1 0 834)" d="M396.2821 159.3618C 396.2821 143.9136 383.9661 131.3896 368.7743 131.3896C 353.5826 131.3896 341.2665 143.9136 341.2665 159.3618C 341.2665 174.811 353.5826 187.334 368.7743 187.334C 383.9661 187.334 396.2821 174.811 396.2821 159.3618z" stroke="#000000" stroke-width="0.7298298" fill="none" /><path id="839" transform="matrix(1 0 0 -1 0 834)" d="M440.139 158.065C 440.139 143.398 428.447 131.509 414.024 131.509C 399.601 131.509 387.909 143.398 387.909 158.065C 387.909 172.731 399.601 184.621 414.024 184.621C 428.447 184.621 440.139 172.731 440.139 158.065" stroke="none" fill="#FFFFFF" fill-rule="nonzero" /></g><g clip-path="url(#47)"></g><g clip-path="url(#48)"><g transform="matrix(1.005808 0 0 1.006286 377.012 606.679)"><g transform="matrix(1 0 0 1 0 0)"><image x="0" y="0" xlink:href="img_14.png" width="72" height="112" /></g></g></g><g clip-path="url(#49)"><path id="841" transform="matrix(1 0 0 -1 0 834)" d="M440.1389 158.065C 440.1389 143.3983 428.4466 131.5086 414.0244 131.5086C 399.6011 131.5086 387.9088 143.3983 387.9088 158.065C 387.9088 172.7318 399.6011 184.6205 414.0244 184.6205C 428.4466 184.6205 440.1389 172.7318 440.1389 158.065z" stroke="#000000" stroke-width="0.7298298" fill="none" /><path id="842" transform="matrix(1 0 0 -1 0 834)" d="M555.1411 159.362C 555.1411 143.425 542.436 130.505 526.763 130.505C 511.09 130.505 498.385 143.425 498.385 159.362C 498.385 175.3 511.09 188.22 526.763 188.22C 542.436 188.22 555.1411 175.3 555.1411 159.362" stroke="none" fill="#FFFFFF" fill-rule="nonzero" /></g><g clip-path="url(#50)"></g><g clip-path="url(#51)"><g transform="matrix(1.005808 0 0 1.006286 491.208 642.4864)"><g transform="matrix(1 0 0 1 0 0)"><image x="0" y="0" xlink:href="img_15.png" width="72" height="112" /></g></g></g><g clip-path="url(#52)"><path id="844" transform="matrix(1 0 0 -1 0 834)" d="M555.1413 159.3618C 555.1413 143.4245 542.4355 130.5053 526.7628 130.5053C 511.0901 130.5053 498.3843 143.4245 498.3843 159.3618C 498.3843 175.3001 511.0901 188.2193 526.7628 188.2193C 542.4355 188.2193 555.1413 175.3001 555.1413 159.3618z" stroke="#000000" stroke-width="0.7298298" fill="none" /></g><path id="845" transform="matrix(1 0 0 -1 0 834)" d="M316.895 181.361L319.18 180.098L318.48 179.899L317.946 179.466L317.6 178.815" stroke="none" fill="#FFFFFF" fill-rule="nonzero" /><path id="846" transform="matrix(1 0 0 -1 0 834)" d="M338.106 180.402L337.444 180.571L336.725 180.457L338.291 182.57L338.686 179.955" stroke="none" fill="#FFFFFF" fill-rule="nonzero" /><g clip-path="url(#53)"><g><g clip-path="url(#54)"><g clip-path="url(#55)"><path id="847" transform="matrix(1 0 0 -1 0 834)" d="M319.181 179.68C 318.681 179.797 318.214 180.035 317.857 180.467C 317.211 181.248 317.102 182.33 317.568 183.362C 318.052 184.436 319.032 185.138 320.065 185.151C 320.101 185.151 320.137 185.151 320.173 185.15L320.173 185.15L320.173 185.15C 320.195 185.15 320.217 185.15 320.239 185.149C 321.616 185.103 323.045 184.334 324.308 183.654C 324.464 183.57 324.617 183.488 324.767 183.408C 325.565 182.986 326.295 182.577 326.981 182.168C 326.72 182.04 326.373 181.855 325.903 181.594C 325.795 181.534 325.691 181.477 325.611 181.433L325.611 181.433L326.596 181.27C 326.932 181.452 327.333 181.663 327.554 181.747C 327.801 181.651 328.428 181.228 328.923 180.883L328.923 180.883L330.363 180.644C 330.335 180.661 330.306 180.677 330.277 180.693C 330.204 180.736 329.971 180.901 329.724 181.075C 329.027 181.568 328.553 181.889 328.218 182.091C 328.413 182.19 328.612 182.293 328.816 182.398C 330.691 183.361 332.815 184.453 334.8 184.652C 336.25 184.798 337.637 183.787 337.893 182.4C 337.978 181.938 337.933 181.47 337.761 181.009C 337.531 180.395 337.1 179.932 336.571 179.613L336.571 179.613L336.725 179.588L336.725 179.588L337.392 179.453C 337.8 179.804 338.129 180.248 338.331 180.788C 338.545 181.358 338.599 181.939 338.493 182.514C 338.18 184.21 336.496 185.446 334.74 185.27C 332.642 185.059 330.463 183.939 328.541 182.952C 328.23 182.792 327.931 182.638 327.639 182.492C 326.843 182.977 325.993 183.459 325.049 183.959C 324.9 184.038 324.748 184.12 324.594 184.203C 323.25 184.926 321.731 185.745 320.184 185.771C 320.141 185.772 320.099 185.772 320.057 185.771C 318.79 185.756 317.595 184.912 317.013 183.62C 316.447 182.365 316.588 181.036 317.39 180.068C 317.881 179.474 318.516 179.171 319.181 179.043M327.578 181.863L327.61 181.795C 327.593 181.8 327.573 181.808 327.553 181.821z" stroke="none" fill="#FFFFFF" fill-rule="nonzero" fill-opacity="0.8" /></g></g></g></g><g clip-path="url(#56)"><path id="848" transform="matrix(1 0 0 -1 0 834)" d="M305.361 239.904C 303.231 239.904 301.504 238.147 301.504 235.981C 301.504 233.815 303.231 232.059 305.361 232.059C 307.492 232.059 309.219 233.815 309.219 235.981C 309.219 238.147 307.492 239.904 305.361 239.904M305.361 232.535C 303.502 232.535 301.994 234.068 301.994 235.959C 301.994 237.85 303.502 239.384 305.361 239.384C 307.221 239.384 308.729 237.85 308.729 235.959C 308.729 234.068 307.221 232.535 305.361 232.535" stroke="none" fill="#000000" fill-rule="nonzero" /><path id="850" transform="matrix(1 0 0 -1 0 834)" d="M453.733 239.643C 451.603 239.643 449.876 237.886 449.876 235.72C 449.876 233.554 451.603 231.797 453.733 231.797C 455.863 231.797 457.591 233.554 457.591 235.72C 457.591 237.886 455.863 239.643 453.733 239.643M453.733 232.274C 451.873 232.274 450.366 233.807 450.366 235.698C 450.366 237.589 451.873 239.122 453.733 239.122C 455.593 239.122 457.1 237.589 457.1 235.698C 457.1 233.807 455.593 232.274 453.733 232.274" stroke="none" fill="#000000" fill-rule="nonzero" /></g><g clip-path="url(#57)"><g><g clip-path="url(#58)"><g clip-path="url(#59)"><path id="852" transform="matrix(1 0 0 -1 0 834)" d="M477.7981 222.8014C 477.7981 222.8014 477.336 224.2484 479.1606 223.9519C 479.1606 223.9519 479.817 225.2507 481.1677 224.1748C 481.1677 224.1748 482.5906 224.9169 482.6353 223.4941C 482.6353 223.4941 483.2193 223.5012 483.7043 222.9042" stroke="#FFFFFF" stroke-width="0.4378979" fill="none" stroke-opacity="0.8" /><path id="853" transform="matrix(1 0 0 -1 0 834)" d="M483.077 222.959L483.6 223.033L483.911 223.467L484.087 222.208L484.087 222.207" stroke="none" fill="#FFFFFF" fill-rule="nonzero" fill-opacity="0.8" /></g></g></g></g><g transform="matrix(1.019248 0 0 0.9985386 262.531 550.2283)"><g transform="matrix(1 0 0 1 0 0)"><image x="0" y="0" xlink:href="img_16.png" width="33" height="57" /></g></g><g clip-path="url(#60)"></g><g clip-path="url(#61)"><g transform="matrix(1.022796 0 0 0.9968763 408.797 606.1257)"><g transform="matrix(1 0 0 1 0 0)"><image x="0" y="0" xlink:href="img_17.png" width="27" height="38" /></g></g></g><g clip-path="url(#62)"></g><g clip-path="url(#63)"><g transform="matrix(1.022789 0 0 0.9967948 273.933 606.1308)"><g transform="matrix(1 0 0 1 0 0)"><image x="0" y="0" xlink:href="img_05.png" width="27" height="38" /></g></g></g><g clip-path="url(#64)"></g><g clip-path="url(#65)"><g transform="matrix(-1.022789 0 0 0.9967948 389.221 606.1308)"><g transform="matrix(1 0 0 1 0 0)"><image x="0" y="0" xlink:href="img_05.png" width="27" height="38" /></g></g></g><path id="1407" transform="matrix(1 0 0 -1 0 834)" d="M633 15L633 0M633 819L633 834M21 15L21 0M21 819L21 834M639 21L654 21M15 21L0 21M639 813L654 813M15 813L0 813" stroke="#000000" stroke-width="1.25" fill="none" /><path id="1408" transform="matrix(1 0 0 -1 0 834)" d="M633 15L633 0M633 819L633 834M21 15L21 0M21 819L21 834M639 21L654 21M15 21L0 21M639 813L654 813M15 813L0 813" stroke="#000000" stroke-width="0.25" fill="none" /><path id="1409" transform="matrix(1 0 0 -1 0 834)" d="M32.2781 9.28203C 32.2781 9.516021 32.2961 9.58203 32.3559 9.62383C 32.416 9.66602 32.5719 9.69609 32.8238 9.69609C 33.2262 9.69609 33.5738 9.62383 33.8441 9.45C 34.3238 9.167971 34.552 8.63398 34.552 8.016021C 34.552 7.05586 34.0359 6.21602 32.9141 6.21602C 32.4762 6.21602 32.2781 6.33008 32.2781 6.78594zM31.252 9.900001L31.252 9.726171C 31.7141 9.68984 31.7621 9.66602 31.7621 9.150001L31.7621 9.150001L31.7621 6.74414C 31.7621 6.23398 31.7141 6.19805 31.198 6.16211L31.198 6.16211L31.198 6L31.198 6L32.6199 6C 33.3578 6 33.952 6.15 34.402 6.49805C 34.8641 6.84609 35.1398 7.38008 35.1398 8.1C 35.1398 8.664061 34.9301 9.101951 34.6359 9.38984C 34.2641 9.74414 33.7 9.900001 32.9379 9.900001z" stroke="#000000" stroke-width="0.4" fill="none" /><path id="1410" transform="matrix(1 0 0 -1 0 834)" d="M38.3801 6.97813C 38.2898 6.70195 38.1758 6.51016 38.0738 6.38984C 37.9359 6.23398 37.732 6.20391 37.402 6.20391C 37.15 6.20391 36.9461 6.21602 36.8258 6.28203C 36.718 6.34219 36.6879 6.46211 36.6879 6.78594L36.6879 6.78594L36.6879 9.15586C 36.6879 9.66602 36.7418 9.69609 37.216 9.73203L37.216 9.73203L37.216 9.900001L37.216 9.900001L35.65 9.900001L35.65 9.900001L35.65 9.73203C 36.1359 9.69609 36.1777 9.66602 36.1777 9.15586L36.1777 9.15586L36.1777 6.75586C 36.1777 6.24609 36.1301 6.20391 35.6258 6.16797L35.6258 6.16797L35.6258 6L35.6258 6L38.3438 6C 38.398 6.18594 38.5238 6.75586 38.5598 6.94219z" stroke="#000000" stroke-width="0.4" fill="none" /><path id="1411" transform="matrix(1 0 0 -1 0 834)" d="M41.0918 9.023829C 41.0438 9.40195 41.0141 9.63594 40.9898 9.851951C 40.7617 9.92383 40.5098 9.989841 40.234 9.989841C 39.4598 9.989841 38.998 9.49805 38.998 8.921881C 38.998 8.24414 39.6039 7.94414 39.9879 7.73984C 40.4379 7.5 40.768 7.28984 40.768 6.84609C 40.768 6.40781 40.498 6.12617 40.048 6.12617C 39.4301 6.12617 39.1598 6.73203 39.0641 7.09805L39.0641 7.09805L38.8898 7.05586C 38.9258 6.767971 39.0039 6.25195 39.052 6.12617C 39.1059 6.09609 39.1961 6.05391 39.3461 6C 39.4961 5.95781 39.6879 5.91016 39.934 5.91016C 40.732 5.91016 41.266 6.41406 41.266 7.04414C 41.266 7.71602 40.6961 7.99805 40.2277 8.23789C 39.7539 8.48398 39.466 8.68789 39.466 9.12617C 39.466 9.45 39.6699 9.78594 40.132 9.78594C 40.6539 9.78594 40.8098 9.371881 40.918 8.98789z" stroke="#000000" stroke-width="0.4" fill="none" /><path id="1412" transform="matrix(1 0 0 -1 0 834)" d="M46.648 6L46.648 6.16797C 46.1258 6.21602 46.1078 6.24609 46.0898 6.88203L46.0898 6.88203L46.0301 9.05391C 46.0117 9.671881 46.0539 9.68398 46.582 9.73203L46.582 9.73203L46.582 9.900001L46.582 9.900001L45.5617 9.900001L45.5617 9.900001L44.1758 6.9L44.1758 6.9L42.8078 9.900001L42.8078 9.900001L41.8238 9.900001L41.8238 9.900001L41.8238 9.73203C 42.3699 9.67813 42.4 9.653911 42.3461 8.87383L42.3461 8.87383L42.2617 7.626171C 42.2141 7.00195 42.1777 6.73789 42.148 6.528131C 42.1059 6.27617 41.9859 6.21016 41.6379 6.16797L41.6379 6.16797L41.6379 6L41.6379 6L43.0359 6L43.0359 6L43.0359 6.16797C 42.6398 6.21016 42.4961 6.25195 42.484 6.53984C 42.4777 6.78008 42.4777 7.04414 42.502 7.53594L42.502 7.53594L42.5918 9.24609L42.5918 9.24609L42.6039 9.24609L42.6039 9.24609L43.948 6.04219L43.948 6.04219L44.068 6.04219L44.068 6.04219L45.532 9.33008L45.532 9.33008L45.5559 9.33008L45.5559 9.33008L45.5738 6.88203C 45.5801 6.24609 45.5559 6.21602 45.0699 6.16797L45.0699 6.16797L45.0699 6z" stroke="#000000" stroke-width="0.4" fill="none" /><path id="1413" transform="matrix(1 0 0 -1 0 834)" d="M51.8738 7.05586C 51.5738 6.45586 51.2496 6.12617 50.6379 6.12617C 49.7258 6.12617 49.0656 6.89414 49.0656 8.016021C 49.0656 8.92813 49.5996 9.773829 50.602 9.773829C 51.2496 9.773829 51.6098 9.516021 51.7656 8.88008L51.7656 8.88008L51.9457 8.921881C 51.9098 9.24609 51.8738 9.48594 51.8258 9.828131C 51.6578 9.85781 51.2496 9.989841 50.7637 9.989841C 49.4258 9.989841 48.4539 9.15586 48.4539 7.89609C 48.4539 6.94219 49.1078 5.91016 50.602 5.91016C 51.034 5.91016 51.5379 6.03008 51.7059 6.07188C 51.8137 6.26992 51.9637 6.71406 52.0477 6.98984z" stroke="#000000" stroke-width="0.4" fill="none" /><path id="1414" transform="matrix(1 0 0 -1 0 834)" d="M54.3398 9.773829C 55.1258 9.773829 55.7855 9.101951 55.7855 7.83594C 55.7855 6.68398 55.1855 6.12617 54.5195 6.12617C 53.6738 6.12617 53.0559 6.94805 53.0559 8.076171C 53.0559 9.19805 53.6676 9.773829 54.3398 9.773829zM54.4598 9.989841C 53.1996 9.989841 52.4438 8.98789 52.4438 7.90781C 52.4438 6.75586 53.3078 5.91016 54.3938 5.91016C 55.4918 5.91016 56.3977 6.70195 56.3977 7.99805C 56.3977 9.19805 55.4797 9.989841 54.4598 9.989841z" stroke="#000000" stroke-width="0.4" fill="none" /><path id="1415" transform="matrix(1 0 0 -1 0 834)" d="M61.8277 6L61.8277 6.16797C 61.3059 6.21602 61.2879 6.24609 61.2695 6.88203L61.2695 6.88203L61.2098 9.05391C 61.1918 9.671881 61.2336 9.68398 61.7617 9.73203L61.7617 9.73203L61.7617 9.900001L61.7617 9.900001L60.7418 9.900001L60.7418 9.900001L59.3559 6.9L59.3559 6.9L57.9879 9.900001L57.9879 9.900001L57.0035 9.900001L57.0035 9.900001L57.0035 9.73203C 57.5496 9.67813 57.5797 9.653911 57.5258 8.87383L57.5258 8.87383L57.4418 7.626171C 57.3938 7.00195 57.3578 6.73789 57.3277 6.528131C 57.2855 6.27617 57.1656 6.21016 56.8176 6.16797L56.8176 6.16797L56.8176 6L56.8176 6L58.2156 6L58.2156 6L58.2156 6.16797C 57.8195 6.21016 57.6758 6.25195 57.6637 6.53984C 57.6578 6.78008 57.6578 7.04414 57.6816 7.53594L57.6816 7.53594L57.7719 9.24609L57.7719 9.24609L57.7836 9.24609L57.7836 9.24609L59.1277 6.04219L59.1277 6.04219L59.2477 6.04219L59.2477 6.04219L60.7117 9.33008L60.7117 9.33008L60.7355 9.33008L60.7355 9.33008L60.7535 6.88203C 60.7598 6.24609 60.7355 6.21602 60.2496 6.16797L60.2496 6.16797L60.2496 6z" stroke="#000000" stroke-width="0.4" fill="none" /><path id="1416" transform="matrix(1 0 0 -1 0 834)" d="M63.8258 6L63.8258 6.16797C 63.3336 6.20391 63.2855 6.23398 63.2855 6.75L63.2855 6.75L63.2855 9.150001C 63.2855 9.66016 63.3336 9.69609 63.8258 9.73203L63.8258 9.73203L63.8258 9.900001L63.8258 9.900001L62.2355 9.900001L62.2355 9.900001L62.2355 9.73203C 62.7277 9.69609 62.7758 9.66016 62.7758 9.150001L62.7758 9.150001L62.7758 6.75C 62.7758 6.23984 62.7277 6.20391 62.2355 6.16797L62.2355 6.16797L62.2355 6z" stroke="#000000" stroke-width="0.4" fill="none" /><path id="1417" transform="matrix(1 0 0 -1 0 834)" d="M66.5074 9.023829C 66.4598 9.40195 66.4297 9.63594 66.4055 9.851951C 66.1777 9.92383 65.9258 9.989841 65.6496 9.989841C 64.8758 9.989841 64.4137 9.49805 64.4137 8.921881C 64.4137 8.24414 65.0195 7.94414 65.4035 7.73984C 65.8535 7.5 66.1836 7.28984 66.1836 6.84609C 66.1836 6.40781 65.9137 6.12617 65.46371 6.12617C 64.8457 6.12617 64.5758 6.73203 64.4797 7.09805L64.4797 7.09805L64.3055 7.05586C 64.3418 6.767971 64.4195 6.25195 64.46761 6.12617C 64.52151 6.09609 64.6117 6.05391 64.7617 6C 64.91171 5.95781 65.1035 5.91016 65.3496 5.91016C 66.1477 5.91016 66.6816 6.41406 66.6816 7.04414C 66.6816 7.71602 66.1117 7.99805 65.6438 8.23789C 65.1695 8.48398 64.8816 8.68789 64.8816 9.12617C 64.8816 9.45 65.0855 9.78594 65.5477 9.78594C 66.0695 9.78594 66.2258 9.371881 66.3336 8.98789z" stroke="#000000" stroke-width="0.4" fill="none" /><path id="1418" transform="matrix(1 0 0 -1 0 834)" d="M69.4055 7.68008L68.3016 7.68008C 68.4816 8.171881 68.6734 8.69414 68.8656 9.21016L68.8656 9.21016L68.8777 9.21016zM70.9355 6L70.9355 6.16797C 70.5457 6.20391 70.46761 6.25781 70.2758 6.77383C 69.89181 7.81797 69.4895 8.95781 69.11761 9.989841L69.11761 9.989841L68.9316 9.93594L68.9316 9.93594L67.68951 6.78594C 67.4797 6.25781 67.3957 6.22188 67.0176 6.16797L67.0176 6.16797L67.0176 6L67.0176 6L68.3195 6L68.3195 6L68.3195 6.16797C 67.8695 6.21016 67.81561 6.26992 67.9477 6.64805C 68.0258 6.9 68.1156 7.15195 68.2117 7.42188L68.2117 7.42188L69.4895 7.42188C 69.62151 7.05586 69.74181 6.73203 69.8195 6.49805C 69.8977 6.26406 69.8438 6.21602 69.4656 6.16797L69.4656 6.16797L69.4656 6z" stroke="#000000" stroke-width="0.4" fill="none" /><path id="1419" transform="matrix(1 0 0 -1 0 834)" d="M71.7273 5.92813C 71.9195 5.92813 72.06371 6.06602 72.06371 6.27617C 72.06371 6.46797 71.9195 6.61797 71.7273 6.61797C 71.5355 6.61797 71.3914 6.46797 71.3914 6.27617C 71.3914 6.06602 71.5355 5.92813 71.7273 5.92813z" stroke="#000000" stroke-width="0.4" fill="none" /><path id="1420" transform="matrix(1 0 0 -1 0 834)" d="M73.9234 6L73.9234 6.15586C 73.53951 6.19219 73.4977 6.22813 73.4977 6.63594L73.4977 6.63594L73.4977 8.70586C 73.2336 8.59805 72.9516 8.51992 72.6453 8.471881L72.6453 8.471881L72.6453 8.328131C 73.0055 8.26797 73.0234 8.24414 73.0234 7.871881L73.0234 7.871881L73.0234 6.63594C 73.0234 6.22813 72.9816 6.19219 72.6035 6.15586L72.6035 6.15586L72.6035 6zM73.2215 9.216021C 73.3953 9.216021 73.52731 9.36016 73.52731 9.52188C 73.52731 9.70195 73.3953 9.83398 73.2273 9.83398C 73.06561 9.83398 72.9215 9.70195 72.9215 9.52188C 72.9215 9.36016 73.06561 9.216021 73.2215 9.216021z" stroke="#000000" stroke-width="0.4" fill="none" /><path id="1421" transform="matrix(1 0 0 -1 0 834)" d="M77.1574 6L77.1574 6.15586C 76.8094 6.19219 76.7793 6.21602 76.7793 6.62383L76.7793 6.62383L76.7793 7.78203C 76.7793 8.36406 76.4793 8.69414 76.0055 8.69414C 75.8313 8.69414 75.67541 8.621881 75.5074 8.51406C 75.3574 8.41211 75.2254 8.32188 75.1055 8.23203L75.1055 8.23203L75.1055 8.712111C 74.8414 8.59219 74.5594 8.51992 74.27151 8.466021L74.27151 8.466021L74.27151 8.328131C 74.5953 8.26797 74.6313 8.25 74.6313 7.86602L74.6313 7.86602L74.6313 6.62383C 74.6313 6.22813 74.6016 6.19805 74.19341 6.15586L74.19341 6.15586L74.19341 6L74.19341 6L75.4953 6L75.4953 6L75.4953 6.15586C 75.1414 6.19219 75.1055 6.21602 75.1055 6.62383L75.1055 6.62383L75.1055 8.03398C 75.2855 8.18984 75.5195 8.33984 75.7594 8.33984C 76.1613 8.33984 76.3055 8.069921 76.3055 7.65586L76.3055 7.65586L76.3055 6.65391C 76.3055 6.23984 76.2633 6.19219 75.9094 6.15586L75.9094 6.15586L75.9094 6z" stroke="#000000" stroke-width="0.4" fill="none" /><path id="1422" transform="matrix(1 0 0 -1 0 834)" d="M79.4734 6.51016C 79.32931 6.40195 79.1133 6.30586 78.8973 6.30586C 78.5133 6.30586 78.0754 6.65391 78.0754 7.36797C 78.0754 8.23789 78.57931 8.471881 78.8555 8.471881C 79.0832 8.471881 79.32931 8.37617 79.4734 8.16602zM80.4035 6.30586L80.2113 6.32383C 79.9895 6.34805 79.9473 6.37813 79.9473 6.68984L79.9473 6.68984L79.9473 10.2719C 79.7254 10.1941 79.3234 10.1039 79.0113 10.0621L79.0113 10.0621L79.0113 9.917971C 79.44341 9.88789 79.4734 9.869921 79.4734 9.47383L79.4734 9.47383L79.4734 8.628131C 79.3355 8.67617 79.1613 8.69414 79.0773 8.69414C 78.2613 8.69414 77.5293 8.03984 77.5293 7.20586C 77.5293 6.36602 78.1594 5.92813 78.6395 5.92813C 78.7113 5.92813 78.87341 5.96406 79.1074 6.10195L79.1074 6.10195L79.4734 6.31797L79.4734 6.31797L79.4734 5.92813C 79.8215 6.05391 80.27151 6.13203 80.4035 6.15586z" stroke="#000000" stroke-width="0.4" fill="none" /><path id="1423" transform="matrix(1 0 0 -1 0 834)" d="M81.3813 8.24414C 81.4895 8.310161 81.6813 8.35781 81.84921 8.35781C 82.34731 8.35781 82.7676 7.96211 82.7676 7.278131C 82.7676 6.58203 82.4492 6.15586 81.9516 6.15586C 81.6336 6.16211 81.4535 6.37188 81.4176 6.49219C 81.3934 6.54609 81.3813 6.60586 81.3813 6.69609zM81.3813 8.42383L81.3813 10.2719C 81.1594 10.1941 80.7934 10.098 80.5113 10.0621L80.5113 10.0621L80.5113 9.92383C 80.8953 9.88789 80.9074 9.851951 80.9074 9.48008L80.9074 9.48008L80.9074 6.14414C 81.2375 5.98789 81.5434 5.92813 81.78951 5.92813C 82.59341 5.92813 83.2953 6.55195 83.2953 7.43398C 83.2953 8.14219 82.7555 8.69414 82.1133 8.69414C 82.0473 8.69414 81.9633 8.67617 81.86761 8.63398z" stroke="#000000" stroke-width="0.4" fill="none" /><path id="1424" transform="matrix(1 0 0 -1 0 834)" d="M89.90701 6L89.90701 6.16211C 89.3613 6.20391 89.3254 6.25195 89.3254 6.68398L89.3254 6.68398L89.3254 9.810161C 88.9953 9.67813 88.641 9.56406 88.257 9.49805L88.257 9.49805L88.257 9.36016L88.257 9.36016L88.5453 9.34805C 88.8094 9.33594 88.8332 9.305861 88.8332 8.99414L88.8332 8.99414L88.8332 6.68398C 88.8332 6.25195 88.8031 6.20391 88.257 6.16211L88.257 6.16211L88.257 6z" stroke="#000000" stroke-width="0.4" fill="none" /><path id="1425" transform="matrix(1 0 0 -1 0 834)" d="M93.1652 9.73789L90.873 9.73789C 90.84921 9.48008 90.8191 9.180079 90.7652 8.85L90.7652 8.85L90.9391 8.85C 91.0832 9.24609 91.1191 9.3 91.5152 9.3L91.5152 9.3L92.8113 9.3C 92.3371 8.25586 91.6594 7.01406 91.0293 5.99414L91.0293 5.99414L91.0711 5.92813L91.0711 5.92813L91.5152 5.98789C 92.091 7.22383 92.6492 8.44805 93.2133 9.66602z" stroke="#000000" stroke-width="0.4" fill="none" /><path id="1426" transform="matrix(1 0 0 -1 0 834)" d="M93.873 8.976171C 94.023 9.19805 94.2633 9.45 94.59341 9.45C 94.9113 9.45 95.1633 9.257811 95.1633 8.88594C 95.1633 8.44219 94.7551 8.20781 94.2031 8.03398L94.2031 8.03398L94.2453 7.86016C 94.341 7.88984 94.4852 7.92617 94.6293 7.92617C 94.9711 7.92617 95.391 7.70391 95.391 7.15195C 95.391 6.55781 95.091 6.23984 94.6652 6.23984C 94.323 6.23984 94.0773 6.40781 93.9211 6.54609C 93.873 6.58789 93.8254 6.58203 93.77731 6.54609C 93.723 6.50391 93.6453 6.42617 93.6391 6.34805C 93.6273 6.27617 93.65121 6.21016 93.7352 6.13203C 93.8133 6.06016 94.0594 5.92813 94.3352 5.92813C 94.7672 5.92813 95.90701 6.37188 95.90701 7.34414C 95.90701 7.78203 95.6012 8.153911 95.073 8.25586L95.073 8.25586L95.073 8.26797C 95.24731 8.38789 95.391 8.49609 95.4813 8.59219C 95.5953 8.70586 95.6672 8.84414 95.6672 9.01797C 95.6672 9.47383 95.3133 9.810161 94.773 9.810161C 94.4551 9.810161 94.17931 9.66016 94.0113 9.47383L94.0113 9.47383L93.74731 9.09609z" stroke="#000000" stroke-width="0.4" fill="none" /><path id="1445" transform="matrix(1 0 0 -1 0 834)" d="M554.472 6.83984C 554.292 6.46211 554.2141 6.43789 553.89 6.43789L553.89 6.43789L552.768 6.43789L552.768 6.43789L553.6201 7.33203C 554.1721 7.91992 554.412 8.273829 554.412 8.79609C 554.412 9.42617 553.932 9.810161 553.404 9.810161C 553.056 9.810161 552.774 9.653911 552.594 9.45586L552.594 9.45586L552.252 8.96992L552.252 8.96992L552.384 8.85C 552.54 9.08398 552.792 9.40781 553.2 9.40781C 553.644 9.40781 553.908 9.11406 553.908 8.61016C 553.908 8.09414 553.53 7.60195 553.158 7.15781C 552.858 6.81016 552.522 6.46797 552.186 6.13789L552.186 6.13789L552.186 6L552.186 6L554.43 6C 554.502 6.26992 554.562 6.53398 554.64 6.78594z" stroke="#000000" stroke-width="0.4" fill="none" /><path id="1446" transform="matrix(1 0 0 -1 0 834)" d="M555.792 9.3L557.19 9.3L557.19 9.3L557.346 9.68984L557.346 9.68984L557.31 9.73789L557.31 9.73789L555.6 9.73789L555.6 9.73789L555.366 7.90781C 555.504 7.96211 555.732 8.028131 555.984 8.028131C 556.638 8.028131 556.962 7.65 556.962 7.121881C 556.962 6.67188 556.71 6.23398 556.2 6.23398C 555.834 6.23398 555.588 6.42617 555.462 6.53984C 555.402 6.58789 555.354 6.58203 555.3 6.53984C 555.234 6.48008 555.18 6.40195 555.174 6.34219C 555.162 6.26992 555.192 6.22188 555.27 6.13789C 555.36 6.05391 555.612 5.92813 555.888 5.92813C 556.206 5.93398 556.608 6.08984 556.932 6.35391C 557.298 6.65391 557.466 6.99609 557.466 7.35586C 557.466 7.84805 557.076 8.369921 556.308 8.369921C 556.146 8.369921 555.864 8.273829 555.636 8.18984z" stroke="#000000" stroke-width="0.4" fill="none" /><path id="1447" transform="matrix(1 0 0 -1 0 834)" d="M559.548 9.989841L559.212 9.989841L559.212 9.989841L557.91 5.73594L557.91 5.73594L558.246 5.73594z" stroke="#000000" stroke-width="0.4" fill="none" /><path id="1448" transform="matrix(1 0 0 -1 0 834)" d="M561.18 9.61211C 561.72 9.61211 561.8701 8.72383 561.8701 7.871881C 561.8701 7.03203 561.726 6.13203 561.186 6.13203C 560.664 6.13203 560.49 7.03789 560.49 7.87813C 560.49 8.712111 560.634 9.61211 561.18 9.61211zM561.186 9.810161C 560.286 9.810161 559.956 8.74219 559.956 7.86602C 559.956 6.91797 560.28 5.92813 561.186 5.92813C 562.086 5.92813 562.404 6.99609 562.404 7.871881C 562.404 8.79609 562.086 9.810161 561.186 9.810161z" stroke="#000000" stroke-width="0.4" fill="none" /><path id="1449" transform="matrix(1 0 0 -1 0 834)" d="M564 9.61211C 564.582 9.61211 564.738 8.86797 564.738 8.33984C 564.738 8.21992 564.732 8.076171 564.7141 7.94414C 564.588 7.84805 564.384 7.77617 564.174 7.77617C 563.67 7.77617 563.3701 8.214061 563.3701 8.74219C 563.3701 9.09609 563.538 9.61211 564 9.61211zM564.078 9.810161C 563.304 9.810161 562.854 9.10781 562.854 8.53203C 562.854 7.90195 563.292 7.43398 563.928 7.43398C 564.042 7.43398 564.156 7.45781 564.288 7.53008L564.288 7.53008L564.69 7.74609C 564.492 6.83398 563.838 6.23398 562.98 6.08984L562.98 6.08984L563.01 5.91016C 563.16 5.91016 563.526 5.96992 563.85 6.10195C 564.66 6.42617 565.2661 7.20586 565.2661 8.310161C 565.2661 9.12617 564.828 9.810161 564.078 9.810161z" stroke="#000000" stroke-width="0.4" fill="none" /><path id="1450" transform="matrix(1 0 0 -1 0 834)" d="M567.294 9.989841L566.958 9.989841L566.958 9.989841L565.656 5.73594L565.656 5.73594L565.992 5.73594z" stroke="#000000" stroke-width="0.4" fill="none" /><path id="1451" transform="matrix(1 0 0 -1 0 834)" d="M569.9641 6.83984C 569.784 6.46211 569.706 6.43789 569.382 6.43789L569.382 6.43789L568.26 6.43789L568.26 6.43789L569.112 7.33203C 569.664 7.91992 569.904 8.273829 569.904 8.79609C 569.904 9.42617 569.424 9.810161 568.896 9.810161C 568.548 9.810161 568.2661 9.653911 568.086 9.45586L568.086 9.45586L567.744 8.96992L567.744 8.96992L567.876 8.85C 568.032 9.08398 568.284 9.40781 568.692 9.40781C 569.136 9.40781 569.4 9.11406 569.4 8.61016C 569.4 8.09414 569.022 7.60195 568.65 7.15781C 568.35 6.81016 568.014 6.46797 567.678 6.13789L567.678 6.13789L567.678 6L567.678 6L569.9221 6C 569.994 6.26992 570.054 6.53398 570.132 6.78594z" stroke="#000000" stroke-width="0.4" fill="none" /><path id="1452" transform="matrix(1 0 0 -1 0 834)" d="M571.806 9.61211C 572.346 9.61211 572.496 8.72383 572.496 7.871881C 572.496 7.03203 572.352 6.13203 571.812 6.13203C 571.29 6.13203 571.116 7.03789 571.116 7.87813C 571.116 8.712111 571.26 9.61211 571.806 9.61211zM571.812 9.810161C 570.912 9.810161 570.582 8.74219 570.582 7.86602C 570.582 6.91797 570.906 5.92813 571.812 5.92813C 572.712 5.92813 573.03 6.99609 573.03 7.871881C 573.03 8.79609 572.712 9.810161 571.812 9.810161z" stroke="#000000" stroke-width="0.4" fill="none" /><path id="1453" transform="matrix(1 0 0 -1 0 834)" d="M575.556 6L575.556 6.16211C 575.01 6.20391 574.9741 6.25195 574.9741 6.68398L574.9741 6.68398L574.9741 9.810161C 574.644 9.67813 574.29 9.56406 573.906 9.49805L573.906 9.49805L573.906 9.36016L573.906 9.36016L574.194 9.34805C 574.458 9.33594 574.482 9.305861 574.482 8.99414L574.482 8.99414L574.482 6.68398C 574.482 6.25195 574.452 6.20391 573.906 6.16211L573.906 6.16211L573.906 6z" stroke="#000000" stroke-width="0.4" fill="none" /><path id="1454" transform="matrix(1 0 0 -1 0 834)" d="M578.814 9.73789L576.522 9.73789C 576.498 9.48008 576.468 9.180079 576.414 8.85L576.414 8.85L576.588 8.85C 576.732 9.24609 576.768 9.3 577.164 9.3L577.164 9.3L578.46 9.3C 577.986 8.25586 577.308 7.01406 576.678 5.99414L576.678 5.99414L576.72 5.92813L576.72 5.92813L577.164 5.98789C 577.74 7.22383 578.298 8.44805 578.862 9.66602z" stroke="#000000" stroke-width="0.4" fill="none" /><path id="1455" transform="matrix(1 0 0 -1 0 834)" d="M584.531 9.61211C 585.071 9.61211 585.221 8.72383 585.221 7.871881C 585.221 7.03203 585.077 6.13203 584.537 6.13203C 584.015 6.13203 583.841 7.03789 583.841 7.87813C 583.841 8.712111 583.985 9.61211 584.531 9.61211zM584.537 9.810161C 583.637 9.810161 583.307 8.74219 583.307 7.86602C 583.307 6.91797 583.631 5.92813 584.537 5.92813C 585.437 5.92813 585.755 6.99609 585.755 7.871881C 585.755 8.79609 585.437 9.810161 584.537 9.810161z" stroke="#000000" stroke-width="0.4" fill="none" /><path id="1456" transform="matrix(1 0 0 -1 0 834)" d="M588.449 6.83984C 588.269 6.46211 588.191 6.43789 587.867 6.43789L587.867 6.43789L586.7451 6.43789L586.7451 6.43789L587.597 7.33203C 588.149 7.91992 588.389 8.273829 588.389 8.79609C 588.389 9.42617 587.909 9.810161 587.381 9.810161C 587.033 9.810161 586.751 9.653911 586.571 9.45586L586.571 9.45586L586.229 8.96992L586.229 8.96992L586.361 8.85C 586.517 9.08398 586.769 9.40781 587.177 9.40781C 587.621 9.40781 587.885 9.11406 587.885 8.61016C 587.885 8.09414 587.507 7.60195 587.135 7.15781C 586.835 6.81016 586.499 6.46797 586.163 6.13789L586.163 6.13789L586.163 6L586.163 6L588.407 6C 588.479 6.26992 588.539 6.53398 588.617 6.78594z" stroke="#000000" stroke-width="0.4" fill="none" /><path id="1457" transform="matrix(1 0 0 -1 0 834)" d="M589.5471 5.92813C 589.739 5.92813 589.883 6.06602 589.883 6.27617C 589.883 6.46797 589.739 6.61797 589.5471 6.61797C 589.355 6.61797 589.211 6.46797 589.211 6.27617C 589.211 6.06602 589.355 5.92813 589.5471 5.92813zM589.541 8.466021C 589.3491 8.466021 589.211 8.328131 589.211 8.13008C 589.211 7.92617 589.3491 7.78203 589.541 7.78203C 589.733 7.78203 589.877 7.92617 589.877 8.13008C 589.877 8.328131 589.733 8.466021 589.541 8.466021z" stroke="#000000" stroke-width="0.4" fill="none" /><path id="1458" transform="matrix(1 0 0 -1 0 834)" d="M590.735 8.976171C 590.885 9.19805 591.125 9.45 591.455 9.45C 591.773 9.45 592.025 9.257811 592.025 8.88594C 592.025 8.44219 591.617 8.20781 591.065 8.03398L591.065 8.03398L591.107 7.86016C 591.203 7.88984 591.347 7.92617 591.491 7.92617C 591.833 7.92617 592.253 7.70391 592.253 7.15195C 592.253 6.55781 591.953 6.23984 591.527 6.23984C 591.185 6.23984 590.939 6.40781 590.783 6.54609C 590.735 6.58789 590.687 6.58203 590.639 6.54609C 590.585 6.50391 590.507 6.42617 590.501 6.34805C 590.489 6.27617 590.513 6.21016 590.597 6.13203C 590.675 6.06016 590.921 5.92813 591.197 5.92813C 591.629 5.92813 592.769 6.37188 592.769 7.34414C 592.769 7.78203 592.463 8.153911 591.935 8.25586L591.935 8.25586L591.935 8.26797C 592.109 8.38789 592.253 8.49609 592.343 8.59219C 592.457 8.70586 592.529 8.84414 592.529 9.01797C 592.529 9.47383 592.175 9.810161 591.635 9.810161C 591.317 9.810161 591.041 9.66016 590.873 9.47383L590.873 9.47383L590.609 9.09609z" stroke="#000000" stroke-width="0.4" fill="none" /><path id="1459" transform="matrix(1 0 0 -1 0 834)" d="M594.539 9.61211C 595.079 9.61211 595.229 8.72383 595.229 7.871881C 595.229 7.03203 595.085 6.13203 594.545 6.13203C 594.023 6.13203 593.8491 7.03789 593.8491 7.87813C 593.8491 8.712111 593.993 9.61211 594.539 9.61211zM594.545 9.810161C 593.645 9.810161 593.315 8.74219 593.315 7.86602C 593.315 6.91797 593.639 5.92813 594.545 5.92813C 595.445 5.92813 595.763 6.99609 595.763 7.871881C 595.763 8.79609 595.445 9.810161 594.545 9.810161z" stroke="#000000" stroke-width="0.4" fill="none" /><path id="1460" transform="matrix(1 0 0 -1 0 834)" d="M596.675 5.92813C 596.867 5.92813 597.011 6.06602 597.011 6.27617C 597.011 6.46797 596.867 6.61797 596.675 6.61797C 596.483 6.61797 596.3391 6.46797 596.3391 6.27617C 596.3391 6.06602 596.483 5.92813 596.675 5.92813zM596.669 8.466021C 596.477 8.466021 596.3391 8.328131 596.3391 8.13008C 596.3391 7.92617 596.477 7.78203 596.669 7.78203C 596.861 7.78203 597.005 7.92617 597.005 8.13008C 597.005 8.328131 596.861 8.466021 596.669 8.466021z" stroke="#000000" stroke-width="0.4" fill="none" /><path id="1461" transform="matrix(1 0 0 -1 0 834)" d="M599.657 6L599.657 6.16211C 599.111 6.20391 599.075 6.25195 599.075 6.68398L599.075 6.68398L599.075 9.810161C 598.7451 9.67813 598.3911 9.56406 598.007 9.49805L598.007 9.49805L598.007 9.36016L598.007 9.36016L598.295 9.34805C 598.559 9.33594 598.583 9.305861 598.583 8.99414L598.583 8.99414L598.583 6.68398C 598.583 6.25195 598.553 6.20391 598.007 6.16211L598.007 6.16211L598.007 6z" stroke="#000000" stroke-width="0.4" fill="none" /><path id="1462" transform="matrix(1 0 0 -1 0 834)" d="M601.913 7.35L600.731 7.35C 601.127 8.016021 601.517 8.58594 601.901 9.119921L601.901 9.119921L601.913 9.119921zM602.969 7.06797L602.969 7.35L602.969 7.35L602.393 7.35L602.393 7.35L602.393 9.79219L602.393 9.79219L602.153 9.79219C 601.535 8.976171 600.923 8.08789 600.353 7.23594L600.353 7.23594L600.353 7.06797L600.353 7.06797L601.913 7.06797L601.913 7.06797L601.913 6.63594C 601.913 6.23984 601.889 6.20391 601.367 6.16211L601.367 6.16211L601.367 6L601.367 6L602.903 6L602.903 6L602.903 6.16211C 602.417 6.20391 602.393 6.23398 602.393 6.63594L602.393 6.63594L602.393 7.06797z" stroke="#000000" stroke-width="0.4" fill="none" /><path id="1463" transform="matrix(1 0 0 -1 0 834)" d="M605.489 8.08203C 605.651 8.20195 605.897 8.33398 606.0891 8.33398C 606.527 8.33398 606.893 7.97383 606.893 7.33203C 606.893 6.65391 606.557 6.22188 606.053 6.22188C 605.8491 6.22188 605.621 6.31797 605.489 6.45586zM605.489 8.28008L605.489 8.75391C 605.207 8.63984 604.871 8.53789 604.619 8.49609L604.619 8.49609L604.619 8.351951C 604.991 8.30391 605.015 8.29219 605.015 7.90195L605.015 7.90195L605.015 5.18984C 605.015 4.79414 604.961 4.75781 604.577 4.72188L604.577 4.72188L604.577 4.56016L604.577 4.56016L605.999 4.56016L605.999 4.56016L605.999 4.72188C 605.531 4.76406 605.489 4.79414 605.489 5.25L605.489 5.25L605.489 6.03594C 605.567 5.99414 605.729 5.93398 605.903 5.92813C 606.683 6.07188 607.397 6.65391 607.397 7.56016C 607.397 8.153911 607.001 8.69414 606.335 8.69414C 606.263 8.69414 606.149 8.664061 606.041 8.60391z" stroke="#000000" stroke-width="0.4" fill="none" /><path id="1464" transform="matrix(1 0 0 -1 0 834)" d="M608.303 5.92813C 608.4951 5.92813 608.639 6.06602 608.639 6.27617C 608.639 6.46797 608.4951 6.61797 608.303 6.61797C 608.111 6.61797 607.967 6.46797 607.967 6.27617C 607.967 6.06602 608.111 5.92813 608.303 5.92813z" stroke="#000000" stroke-width="0.4" fill="none" /><path id="1465" transform="matrix(1 0 0 -1 0 834)" d="M615.125 6L615.125 6.15586C 614.783 6.19219 614.735 6.21602 614.735 6.61797L614.735 6.61797L614.735 7.77617C 614.735 8.36406 614.441 8.69414 613.973 8.69414C 613.805 8.69414 613.649 8.621881 613.523 8.53789C 613.373 8.44805 613.199 8.33398 613.025 8.20195C 612.905 8.51406 612.647 8.69414 612.359 8.69414C 612.167 8.69414 612.023 8.628131 611.867 8.53203C 611.687 8.417971 611.555 8.310161 611.429 8.226171L611.429 8.226171L611.429 8.712111C 611.165 8.59219 610.859 8.51406 610.595 8.466021L610.595 8.466021L610.595 8.328131C 610.9431 8.273829 610.961 8.24414 610.961 7.86016L610.961 7.86016L610.961 6.61797C 610.961 6.22813 610.907 6.19219 610.511 6.15586L610.511 6.15586L610.511 6L610.511 6L611.777 6L611.777 6L611.777 6.15586C 611.483 6.19219 611.435 6.22813 611.435 6.61797L611.435 6.61797L611.435 8.028131C 611.615 8.17813 611.8491 8.33984 612.0891 8.33984C 612.455 8.33984 612.611 8.09414 612.611 7.65L612.611 7.65L612.611 6.61797C 612.611 6.22188 612.557 6.19219 612.185 6.15586L612.185 6.15586L612.185 6L612.185 6L613.469 6L613.469 6L613.469 6.15586C 613.139 6.19219 613.085 6.22813 613.085 6.60586L613.085 6.60586L613.085 7.77617C 613.085 7.88984 613.079 7.95586 613.067 8.028131C 613.295 8.21992 613.523 8.33984 613.739 8.33984C 614.117 8.33984 614.267 8.069921 614.267 7.64414L614.267 7.64414L614.267 6.64219C 614.267 6.21602 614.201 6.19219 613.847 6.15586L613.847 6.15586L613.847 6z" stroke="#000000" stroke-width="0.4" fill="none" /><path id="1466" transform="matrix(1 0 0 -1 0 834)" d="M615.947 5.92813C 616.139 5.92813 616.283 6.06602 616.283 6.27617C 616.283 6.46797 616.139 6.61797 615.947 6.61797C 615.755 6.61797 615.611 6.46797 615.611 6.27617C 615.611 6.06602 615.755 5.92813 615.947 5.92813z" stroke="#000000" stroke-width="0.4" fill="none" /></g></g></svg>