<svg xmlns="http://www.w3.org/2000/svg" xmlns:xlink="http://www.w3.org/1999/xlink" id="body_1" preserveAspectRatio="xMinYMin meet" viewBox="0 0 872 1112"><defs><clipPath id="1"><path id="" clip-rule="evenodd" transform="matrix(1 0 0 1 0 0)" d="M0 834L0 0L0 0L654 0L654 0L654 834L654 834L0 834z" /></clipPath><clipPath id="2"><path id="" clip-rule="evenodd" transform="matrix(1 0 0 1 0 0)" d="M21 813L633 813L633 813L633 21L633 21L21 21z" /></clipPath><clipPath id="3"><path id="" clip-rule="evenodd" transform="matrix(1 0 0 1 0 0)" d="M259.113 389.919L342.8032 389.919L342.8032 389.919L342.8032 256.795L342.8032 256.795L259.113 256.795z" /></clipPath><clipPath id="4"><path id="" clip-rule="evenodd" transform="matrix(1 0 0 1 0 0)" d="M259.113 389.919L342.8032 389.919L342.8032 389.919L342.8032 256.795L342.8032 256.795L259.113 256.795z" /></clipPath><clipPath id="5"><path id="" clip-rule="evenodd" transform="matrix(1 0 0 1 0 0)" d="M283.787 329.496L320.3968 329.496L320.3968 329.496L320.3968 323.8179L320.3968 323.8179L283.787 323.8179z" /></clipPath><clipPath id="6"><path id="" clip-rule="evenodd" transform="matrix(1 0 0 1 0 0)" d="M283.787 329.496L320.397 329.496L320.397 329.496L320.397 323.818L320.397 323.818L283.787 323.818z" /></clipPath><clipPath id="7"><path id="" clip-rule="evenodd" transform="matrix(1 0 0 1 0 0)" d="M283.787 329.496L320.3968 329.496L320.3968 329.496L320.3968 323.8179L320.3968 323.8179L283.787 323.8179z" /></clipPath><clipPath id="8"><path id="" clip-rule="evenodd" transform="matrix(1 0 0 1 0 0)" d="M259.113 389.919L409.911 389.919L409.911 389.919L409.911 256.795L409.911 256.795L259.113 256.795z" /></clipPath><clipPath id="9"><path id="" clip-rule="evenodd" transform="matrix(1 0 0 1 0 0)" d="M340.528 323.25L340.528 354.287C 346.333 366.479 358.768 374.905 373.171 374.905L373.171 374.905L373.171 374.905C 393.128 374.905 409.306 358.726 409.306 338.769L409.306 338.769L409.306 338.769C 409.306 318.811 393.128 302.633 373.171 302.633L373.171 302.633L373.171 302.633C 358.768 302.633 346.333 311.059 340.528 323.25" /></clipPath><clipPath id="10"><path id="" clip-rule="evenodd" transform="matrix(1 0 0 1 0 0)" d="M340.528 323.25L340.528 354.287C 346.333 366.479 358.768 374.905 373.171 374.905L373.171 374.905L373.171 374.905C 393.128 374.905 409.306 358.726 409.306 338.769L409.306 338.769L409.306 338.769C 409.306 318.811 393.128 302.633 373.171 302.633L373.171 302.633L373.171 302.633C 358.768 302.633 346.333 311.059 340.528 323.25" /></clipPath><clipPath id="11"><path id="" clip-rule="evenodd" transform="matrix(1 0 0 1 0 0)" d="M259.113 389.919L409.911 389.919L409.911 389.919L409.911 256.795L409.911 256.795L259.113 256.795z" /></clipPath><clipPath id="12"><path id="" clip-rule="evenodd" transform="matrix(1 0 0 1 0 0)" d="M248.339 288.23L273.9359 288.23L273.9359 288.23L273.9359 257.7847L273.9359 257.7847L248.339 257.7847z" /></clipPath><clipPath id="13"><path id="" clip-rule="evenodd" transform="matrix(1 0 0 1 0 0)" d="M248.339 288.23L273.9359 288.23L273.9359 288.23L273.9359 257.7847L273.9359 257.7847L248.339 257.7847z" /></clipPath><clipPath id="14"><path id="" clip-rule="evenodd" transform="matrix(1 0 0 1 0 0)" d="M443.223 281.947L485.5988 281.947L485.5988 281.947L485.5988 234.1083L485.5988 234.1083L443.223 234.1083z" /></clipPath><clipPath id="15"><path id="" clip-rule="evenodd" transform="matrix(1 0 0 1 0 0)" d="M443.223 281.947L485.5988 281.947L485.5988 281.947L485.5988 234.1083L485.5988 234.1083L443.223 234.1083z" /></clipPath><clipPath id="16"><path id="" clip-rule="evenodd" transform="matrix(1 0 0 1 0 0)" d="M201.559 740.6031L456.363 740.6031L456.363 740.6031L456.363 619.1971L456.363 619.1971L201.559 619.1971z" /></clipPath><clipPath id="17"><path id="" clip-rule="evenodd" transform="matrix(1 0 0 1 0 0)" d="M274.09 678.28C 269.529 682.391 266.042 687.673 264.102 693.65L264.102 693.65L264.102 693.65L264.102 693.65L264.102 715.517C 268.709 729.715 282.046 739.982 297.78 739.982L297.78 739.982L297.78 739.982C 311.935 739.982 324.149 731.674 329.813 719.669L329.813 719.669L329.813 719.669L329.813 719.669L329.813 689.498C 327.795 685.22 324.944 681.41 321.471 678.28L321.471 678.28L321.471 678.28z" /></clipPath><clipPath id="18"><path id="" clip-rule="evenodd" transform="matrix(1 0 0 1 0 0)" d="M274.09 678.28C 269.529 682.391 266.042 687.673 264.102 693.65L264.102 693.65L264.102 693.65L264.102 693.65L264.102 715.517C 268.709 729.715 282.046 739.982 297.78 739.982L297.78 739.982L297.78 739.982C 311.935 739.982 324.149 731.674 329.813 719.669L329.813 719.669L329.813 719.669L329.813 719.669L329.813 689.498C 327.795 685.22 324.944 681.41 321.471 678.28L321.471 678.28L321.471 678.28z" /></clipPath><clipPath id="19"><path id="" clip-rule="evenodd" transform="matrix(1 0 0 1 0 0)" d="M201.559 740.6031L456.363 740.6031L456.363 740.6031L456.363 619.1971L456.363 619.1971L201.559 619.1971z" /></clipPath><clipPath id="20"><path id="" clip-rule="evenodd" transform="matrix(1 0 0 1 0 0)" d="M391.372 633.913C 389.856 635.722 388.512 637.68 387.365 639.764L387.365 639.764L387.365 639.764L387.365 639.764L387.365 674.841C 393.563 686.104 405.544 693.736 419.308 693.736L419.308 693.736L419.308 693.736C 439.43 693.736 455.742 677.424 455.742 657.302L455.742 657.302L455.742 657.302C 455.742 648.398 452.549 640.242 447.244 633.913L447.244 633.913L447.244 633.913z" /></clipPath><clipPath id="21"><path id="" clip-rule="evenodd" transform="matrix(1 0 0 1 0 0)" d="M391.372 633.913C 389.856 635.722 388.512 637.68 387.365 639.764L387.365 639.764L387.365 639.764L387.365 639.764L387.365 674.841C 393.563 686.104 405.544 693.736 419.308 693.736L419.308 693.736L419.308 693.736C 439.43 693.736 455.742 677.424 455.742 657.302L455.742 657.302L455.742 657.302C 455.742 648.398 452.549 640.242 447.244 633.913L447.244 633.913L447.244 633.913z" /></clipPath><clipPath id="22"><path id="" clip-rule="evenodd" transform="matrix(1 0 0 1 0 0)" d="M201.559 740.6031L456.363 740.6031L456.363 740.6031L456.363 619.1971L456.363 619.1971L201.559 619.1971z" /></clipPath><clipPath id="23"><path id="" clip-rule="evenodd" transform="matrix(1 0 0 1 0 0)" d="M201.559 740.6031L456.363 740.6031L456.363 740.6031L456.363 619.1971L456.363 619.1971L201.559 619.1971z" /></clipPath><clipPath id="24"><path id="" clip-rule="evenodd" transform="matrix(1 0 0 1 0 0)" d="M450.129 638.408L487.3681 638.408L487.3681 638.408L487.3681 581.8885L487.3681 581.8885L450.129 581.8885z" /></clipPath><clipPath id="25"><path id="" clip-rule="evenodd" transform="matrix(1 0 0 1 0 0)" d="M450.129 638.408L487.3681 638.408L487.3681 638.408L487.3681 581.8885L487.3681 581.8885L450.129 581.8885z" /></clipPath><clipPath id="26"><path id="" clip-rule="evenodd" transform="matrix(1 0 0 1 0 0)" d="M182.858 736.802L208.4553 736.802L208.4553 736.802L208.4553 700.9711L208.4553 700.9711L182.858 700.9711z" /></clipPath><clipPath id="27"><path id="" clip-rule="evenodd" transform="matrix(1 0 0 1 0 0)" d="M182.858 736.802L208.4553 736.802L208.4553 736.802L208.4553 700.9711L208.4553 700.9711L182.858 700.9711z" /></clipPath><clipPath id="28"><path id="" clip-rule="evenodd" transform="matrix(1 0 0 1 0 0)" d="M249.039 736.802L274.6359 736.802L274.6359 736.802L274.6359 700.9711L274.6359 700.9711L249.039 700.9711z" /></clipPath><clipPath id="29"><path id="" clip-rule="evenodd" transform="matrix(1 0 0 1 0 0)" d="M249.039 736.802L274.6359 736.802L274.6359 736.802L274.6359 700.9711L274.6359 700.9711L249.039 700.9711z" /></clipPath><clipPath id="30"><path id="" clip-rule="evenodd" transform="matrix(1 0 0 1 0 0)" d="M301.149 667.076L326.7467 667.076L326.7467 667.076L326.7467 631.2444L326.7467 631.2444L301.149 631.2444z" /></clipPath><clipPath id="31"><path id="" clip-rule="evenodd" transform="matrix(1 0 0 1 0 0)" d="M301.149 667.076L326.7467 667.076L326.7467 667.076L326.7467 631.2444L326.7467 631.2444L301.149 631.2444z" /></clipPath><clipPath id="32"><path id="" clip-rule="evenodd" transform="matrix(1 0 0 1 0 0)" d="M460.911 680.034L486.5083 680.034L486.5083 680.034L486.5083 644.2039L486.5083 644.2039L460.911 644.2039z" /></clipPath><clipPath id="33"><path id="" clip-rule="evenodd" transform="matrix(1 0 0 1 0 0)" d="M460.911 680.034L486.5083 680.034L486.5083 680.034L486.5083 644.2039L486.5083 644.2039L460.911 644.2039z" /></clipPath></defs><g transform="matrix(1.333333 0 0 1.333333 0 0)"><g clip-path="url(#1)"><g clip-path="url(#2)"><path id="1" transform="matrix(1 0 0 -1 0 834)" d="M91.866 67.4211L562.134 67.4211L562.134 74.92501L91.866 74.92501z" stroke="none" fill="#686868" fill-rule="nonzero" /></g><g clip-path="url(#3)"></g><g clip-path="url(#4)"><g transform="matrix(1.008313 0 0 1.00094 259.113 256.7939)"><g transform="matrix(1 0 0 1 0 0)"><image x="0" y="0" xlink:href="img_01.png" width="83" height="133" /></g></g></g><g clip-path="url(#5)"><g><g clip-path="url(#6)"><g clip-path="url(#7)"><path id="6" transform="matrix(1 0 0 -1 0 834)" d="M310.465 509.89C 309.453 509.999 308.341 510.087 307.146 510.136C 302.132 510.346 295.641 509.886 288.803 507.466L288.803 507.466L288.789 509.726L288.789 509.726L283.788 504.503L283.788 504.503L291.019 504.566L291.019 504.566L289.431 506.078C 295.685 508.272 301.677 508.799 306.666 508.623C 314.435 508.35 319.769 506.373 319.858 506.339L319.858 506.339L320.397 507.758C 320.238 507.819 316.425 509.251 310.465 509.89" stroke="none" fill="#FFFFFF" fill-rule="nonzero" fill-opacity="0.8" /></g></g></g></g><g clip-path="url(#8)"><path id="7" transform="matrix(1 0 0 -1 0 834)" d="M409.306 495.231C 409.306 475.274 393.128 459.095 373.17 459.095C 353.213 459.095 337.034 475.274 337.034 495.231C 337.034 515.188 353.213 531.367 373.17 531.367C 393.128 531.367 409.306 515.188 409.306 495.231" stroke="none" fill="#FFFFFF" fill-rule="nonzero" /></g><g clip-path="url(#9)"></g><g clip-path="url(#10)"><g transform="matrix(1.003026 0 0 1.000037 340.527 254.9139)"><g transform="matrix(1 0 0 1 0 0)"><image x="0" y="0" xlink:href="img_02.png" width="90" height="135" /></g></g></g><g clip-path="url(#11)"><path id="9" transform="matrix(1 0 0 -1 0 834)" d="M409.306 495.231C 409.306 475.274 393.128 459.095 373.17 459.095C 353.213 459.095 337.034 475.274 337.034 495.231C 337.034 515.188 353.213 531.367 373.17 531.367C 393.128 531.367 409.306 515.188 409.306 495.231z" stroke="#000000" stroke-width="0.672" fill="none" /></g><g clip-path="url(#12)"></g><g clip-path="url(#13)"><g transform="matrix(1.022789 0 0 1.014656 247.333 256.767)"><g transform="matrix(1 0 0 1 0 0)"><image x="0" y="0" xlink:href="img_03.png" width="27" height="32" /></g></g></g><g clip-path="url(#14)"></g><g clip-path="url(#15)"><g transform="matrix(1.008969 0 0 0.996949 443.223 234.1075)"><g transform="matrix(1 0 0 1 0 0)"><image x="0" y="0" xlink:href="img_04.png" width="42" height="49" /></g></g></g><g transform="matrix(1.004588 0 0 0.9982501 201.559 619.1978)"><g transform="matrix(1 0 0 1 0 0)"><image x="0" y="0" xlink:href="img_05.png" width="70" height="120" /></g></g><g transform="matrix(1.002872 0 0 1.00047 334.246 638.8319)"><g transform="matrix(1 0 0 1 0 0)"><image x="0" y="0" xlink:href="img_06.png" width="72" height="100" /></g></g><g clip-path="url(#16)"><path id="29" transform="matrix(1 0 0 -1 0 834)" d="M333.18 129.417C 333.18 109.867 317.331 94.018 297.781 94.018C 278.231 94.018 262.382 109.867 262.382 129.417C 262.382 148.967 278.231 164.816 297.781 164.816C 317.331 164.816 333.18 148.967 333.18 129.417" stroke="none" fill="#FFFFFF" fill-rule="nonzero" /></g><g clip-path="url(#17)"></g><g clip-path="url(#18)"><g transform="matrix(1.010937 0 0 0.9987068 264.103 678.28)"><g transform="matrix(1 0 0 1 0 0)"><image x="0" y="0" xlink:href="img_07.png" width="65" height="74" /></g></g></g><g clip-path="url(#19)"><path id="31" transform="matrix(1 0 0 -1 0 834)" d="M333.18 129.417C 333.18 109.867 317.331 94.018 297.781 94.018C 278.231 94.018 262.382 109.867 262.382 129.417C 262.382 148.967 278.231 164.816 297.781 164.816C 317.331 164.816 333.18 148.967 333.18 129.417z" stroke="#000000" stroke-width="0.69" fill="none" /><path id="32" transform="matrix(1 0 0 -1 0 834)" d="M455.742 176.698C 455.742 156.576 439.43 140.264 419.308 140.264C 399.186 140.264 382.874 156.576 382.874 176.698C 382.874 196.82 399.186 213.132 419.308 213.132C 439.43 213.132 455.742 196.82 455.742 176.698" stroke="none" fill="#FFFFFF" fill-rule="nonzero" /></g><g clip-path="url(#20)"></g><g clip-path="url(#21)"><g transform="matrix(0.9977014 0 0 1.008547 387.366 633.9129)"><g transform="matrix(1 0 0 1 0 0)"><image x="0" y="0" xlink:href="img_08.png" width="71" height="66" /></g></g></g><g clip-path="url(#22)"><path id="34" transform="matrix(1 0 0 -1 0 834)" d="M455.742 176.698C 455.742 156.576 439.43 140.264 419.308 140.264C 399.186 140.264 382.874 156.576 382.874 176.698C 382.874 196.82 399.186 213.132 419.308 213.132C 439.43 213.132 455.742 196.82 455.742 176.698z" stroke="#000000" stroke-width="0.69" fill="none" /><path id="35" transform="matrix(1 0 0 -1 0 834)" d="M270.59 191.172C 264.059 191.801 259.564 191.268 256.744 190.603L256.744 190.603L256.817 192.293L256.817 192.293L252.937 188.622L252.937 188.622L258.274 188.405L258.274 188.405L257.182 189.553C 259.915 190.176 264.219 190.656 270.449 190.059L270.449 190.059L269.621 188.636L269.621 188.636L274.763 190.079L274.763 190.079L270.141 192.756" stroke="none" fill="#000000" fill-rule="nonzero" /><path id="36" transform="matrix(1 0 0 -1 0 834)" d="M267.691 162.053C 261.16 162.682 256.665 162.149 253.845 161.484L253.845 161.484L253.918 163.174L253.918 163.174L250.038 159.503L250.038 159.503L255.375 159.286L255.375 159.286L254.283 160.434C 257.016 161.057 261.32 161.537 267.551 160.94L267.551 160.94L266.722 159.517L266.722 159.517L271.864 160.961L271.864 160.961L267.242 163.637" stroke="none" fill="#000000" fill-rule="nonzero" /><path id="37" transform="matrix(1 0 0 -1 0 834)" d="M406.567 128.553L406.644 132.464L406.644 132.464L406.702 132.459C 416.183 131.798 423.432 133.924 423.504 133.946L423.504 133.946L423.566 133.965L423.566 133.965L424.56 127.081L424.56 127.081L424.457 127.147C 422.631 128.315 406.783 128.55 406.623 128.552M406.753 132.344L406.681 128.663C 407.864 128.645 422.211 128.411 424.416 127.298L424.416 127.298L423.474 133.821C 422.747 133.615 415.76 131.726 406.753 132.344" stroke="none" fill="#FCFCFC" fill-rule="nonzero" /><path id="38" transform="matrix(1 0 0 -1 0 834)" d="M427.666 136.287L427.747 136.251C 429.448 135.512 430.801 134.244 430.815 134.231L430.815 134.231L430.831 134.216L430.831 134.216L430.832 134.193C 430.835 134.134 431.13 128.298 431.13 127.119C 431.13 125.901 428.308 125.019 428.188 124.982L428.188 124.982L428.119 124.961L428.119 124.961L428.116 125.033M430.722 134.165C 430.567 134.308 429.329 135.421 427.784 136.113L427.784 136.113L428.224 125.111C 428.662 125.256 431.019 126.084 431.019 127.119C 431.019 128.258 430.742 133.764 430.722 134.165" stroke="none" fill="#FCFCFC" fill-rule="nonzero" /><path id="39" transform="matrix(1 0 0 -1 0 834)" d="M429.95 122.09L429.144 125.495C 429.982 125.866 431.038 126.476 431.038 127.194C 431.038 128.385 430.74 134.265 430.74 134.265C 430.74 134.265 430.089 134.879 429.115 135.504L429.115 135.504L429.95 139.03L429.95 139.03L422.963 133.742C 421.099 133.263 414.733 131.844 406.698 132.404L406.698 132.404L406.624 128.608C 406.624 128.608 417.747 128.453 422.524 127.711" stroke="none" fill="#000000" fill-rule="nonzero" /><path id="40" transform="matrix(1 0 0 -1 0 834)" d="M418.667 130.597L430.04 139.205L428.558 132.945L428.449 132.971L429.86 138.929L418.852 130.597L429.86 122.265L428.431 128.297L428.54 128.323L430.04 121.989" stroke="none" fill="#FCFCFC" fill-rule="nonzero" /><path id="41" transform="matrix(1 0 0 -1 0 834)" d="M272.193 181.731C 272.193 181.731 273.444 178.241 271.864 175.475" stroke="#000000" stroke-width="0.552" fill="none" /><path id="42" transform="matrix(1 0 0 -1 0 834)" d="M273.849 181.731C 273.849 181.731 275.1 178.241 273.52 175.475" stroke="#000000" stroke-width="0.552" fill="none" /><path id="43" transform="matrix(1 0 0 -1 0 834)" d="M246.63 152.251C 246.63 152.251 248.213 155.604 251.286 156.442" stroke="#FFFFFF" stroke-width="0.552" fill="none" /><path id="44" transform="matrix(1 0 0 -1 0 834)" d="M245.459 153.422C 245.459 153.422 247.042 156.775 250.115 157.613" stroke="#FFFFFF" stroke-width="0.552" fill="none" /><path id="45" transform="matrix(1 0 0 -1 0 834)" d="M206.033 203.016C 204.019 203.016 202.386 201.384 202.386 199.37C 202.386 197.355 204.019 195.723 206.033 195.723C 208.047 195.723 209.68 197.355 209.68 199.37C 209.68 201.384 208.047 203.016 206.033 203.016M206.033 196.166C 204.275 196.166 202.85 197.591 202.85 199.349C 202.85 201.107 204.275 202.533 206.033 202.533C 207.791 202.533 209.216 201.107 209.216 199.349C 209.216 197.591 207.791 196.166 206.033 196.166" stroke="none" fill="#000000" fill-rule="nonzero" /></g><g clip-path="url(#23)"><path id="47" transform="matrix(1 0 0 -1 0 834)" d="M340.359 202.43C 338.345 202.43 336.712 200.798 336.712 198.784C 336.712 196.77 338.345 195.137 340.359 195.137C 342.373 195.137 344.006 196.77 344.006 198.784C 344.006 200.798 342.373 202.43 340.359 202.43M340.359 195.58C 338.601 195.58 337.176 197.005 337.176 198.763C 337.176 200.522 338.601 201.947 340.359 201.947C 342.117 201.947 343.542 200.522 343.542 198.763C 343.542 197.005 342.117 195.58 340.359 195.58" stroke="none" fill="#000000" fill-rule="nonzero" /></g><g clip-path="url(#24)"></g><g clip-path="url(#25)"><g transform="matrix(1.006449 0 0 0.9985386 450.129 581.8883)"><g transform="matrix(1 0 0 1 0 0)"><image x="0" y="0" xlink:href="img_09.png" width="37" height="57" /></g></g></g><g clip-path="url(#26)"></g><g clip-path="url(#27)"><g transform="matrix(1.023622 0 0 0.9962026 181.838 699.9675)"><g transform="matrix(1 0 0 1 0 0)"><image x="0" y="0" xlink:href="img_10.png" width="27" height="38" /></g></g></g><g clip-path="url(#28)"></g><g clip-path="url(#29)"><g transform="matrix(-1.023622 0 0 0.9962026 275.656 699.9675)"><g transform="matrix(1 0 0 1 0 0)"><image x="0" y="0" xlink:href="img_10.png" width="27" height="38" /></g></g></g><g clip-path="url(#30)"></g><g clip-path="url(#31)"><g transform="matrix(-1.022789 0 0 0.9962026 327.754 630.2423)"><g transform="matrix(1 0 0 1 0 0)"><image x="0" y="0" xlink:href="img_11.png" width="27" height="38" /></g></g></g><g clip-path="url(#32)"></g><g clip-path="url(#33)"><g transform="matrix(-1.023622 0 0 0.9962026 487.526 643.1883)"><g transform="matrix(1 0 0 1 0 0)"><image x="0" y="0" xlink:href="img_12.png" width="27" height="38" /></g></g></g><path id="69" transform="matrix(1 0 0 -1 0 834)" d="M186.717 650.508L417.634 650.508L417.634 650.508L417.634 741.6338L417.634 741.6338L186.717 741.6338z" stroke="#686868" stroke-width="1" fill="none" /><path id="195" transform="matrix(1 0 0 -1 0 834)" d="M271.826 650.082L280.937 611.473" stroke="#686868" stroke-width="1" fill="none" /><path id="196" transform="matrix(1 0 0 -1 0 834)" d="M282.191 606.157L283.064 613.5681L280.937 611.473L278.097 612.396z" stroke="none" fill="#686868" fill-rule="nonzero" /><path id="197" transform="matrix(1 0 0 -1 0 834)" d="M188.461 307.516L413.855 307.516L413.855 307.516L413.855 398.6418L413.855 398.6418L188.461 398.6418z" stroke="#686868" stroke-width="1" fill="none" /><path id="400" transform="matrix(1 0 0 -1 0 834)" d="M250.893 307.09L260.004 268.481" stroke="#686868" stroke-width="1" fill="none" /><path id="401" transform="matrix(1 0 0 -1 0 834)" d="M261.258 263.165L262.131 270.576L260.004 268.481L257.164 269.404z" stroke="none" fill="#686868" fill-rule="nonzero" /><path id="402" transform="matrix(1 0 0 -1 0 834)" d="M633 15L633 0M633 819L633 834M21 15L21 0M21 819L21 834M639 21L654 21M15 21L0 21M639 813L654 813M15 813L0 813" stroke="#000000" stroke-width="1.25" fill="none" /><path id="403" transform="matrix(1 0 0 -1 0 834)" d="M633 15L633 0M633 819L633 834M21 15L21 0M21 819L21 834M639 21L654 21M15 21L0 21M639 813L654 813M15 813L0 813" stroke="#000000" stroke-width="0.25" fill="none" /><path id="404" transform="matrix(1 0 0 -1 0 834)" d="M32.2781 9.28203C 32.2781 9.516021 32.2961 9.58203 32.3559 9.62383C 32.416 9.66602 32.5719 9.69609 32.8238 9.69609C 33.2262 9.69609 33.5738 9.62383 33.8441 9.45C 34.3238 9.167971 34.552 8.63398 34.552 8.016021C 34.552 7.05586 34.0359 6.21602 32.9141 6.21602C 32.4762 6.21602 32.2781 6.33008 32.2781 6.78594zM31.252 9.900001L31.252 9.726171C 31.7141 9.68984 31.7621 9.66602 31.7621 9.150001L31.7621 9.150001L31.7621 6.74414C 31.7621 6.23398 31.7141 6.19805 31.198 6.16211L31.198 6.16211L31.198 6L31.198 6L32.6199 6C 33.3578 6 33.952 6.15 34.402 6.49805C 34.8641 6.84609 35.1398 7.38008 35.1398 8.1C 35.1398 8.664061 34.9301 9.101951 34.6359 9.38984C 34.2641 9.74414 33.7 9.900001 32.9379 9.900001z" stroke="#000000" stroke-width="0.4" fill="none" /><path id="405" transform="matrix(1 0 0 -1 0 834)" d="M38.3801 6.97813C 38.2898 6.70195 38.1758 6.51016 38.0738 6.38984C 37.9359 6.23398 37.732 6.20391 37.402 6.20391C 37.15 6.20391 36.9461 6.21602 36.8258 6.28203C 36.718 6.34219 36.6879 6.46211 36.6879 6.78594L36.6879 6.78594L36.6879 9.15586C 36.6879 9.66602 36.7418 9.69609 37.216 9.73203L37.216 9.73203L37.216 9.900001L37.216 9.900001L35.65 9.900001L35.65 9.900001L35.65 9.73203C 36.1359 9.69609 36.1777 9.66602 36.1777 9.15586L36.1777 9.15586L36.1777 6.75586C 36.1777 6.24609 36.1301 6.20391 35.6258 6.16797L35.6258 6.16797L35.6258 6L35.6258 6L38.3438 6C 38.398 6.18594 38.5238 6.75586 38.5598 6.94219z" stroke="#000000" stroke-width="0.4" fill="none" /><path id="406" transform="matrix(1 0 0 -1 0 834)" d="M41.0918 9.023829C 41.0438 9.40195 41.0141 9.63594 40.9898 9.851951C 40.7617 9.92383 40.5098 9.989841 40.234 9.989841C 39.4598 9.989841 38.998 9.49805 38.998 8.921881C 38.998 8.24414 39.6039 7.94414 39.9879 7.73984C 40.4379 7.5 40.768 7.28984 40.768 6.84609C 40.768 6.40781 40.498 6.12617 40.048 6.12617C 39.4301 6.12617 39.1598 6.73203 39.0641 7.09805L39.0641 7.09805L38.8898 7.05586C 38.9258 6.767971 39.0039 6.25195 39.052 6.12617C 39.1059 6.09609 39.1961 6.05391 39.3461 6C 39.4961 5.95781 39.6879 5.91016 39.934 5.91016C 40.732 5.91016 41.266 6.41406 41.266 7.04414C 41.266 7.71602 40.6961 7.99805 40.2277 8.23789C 39.7539 8.48398 39.466 8.68789 39.466 9.12617C 39.466 9.45 39.6699 9.78594 40.132 9.78594C 40.6539 9.78594 40.8098 9.371881 40.918 8.98789z" stroke="#000000" stroke-width="0.4" fill="none" /><path id="407" transform="matrix(1 0 0 -1 0 834)" d="M46.648 6L46.648 6.16797C 46.1258 6.21602 46.1078 6.24609 46.0898 6.88203L46.0898 6.88203L46.0301 9.05391C 46.0117 9.671881 46.0539 9.68398 46.582 9.73203L46.582 9.73203L46.582 9.900001L46.582 9.900001L45.5617 9.900001L45.5617 9.900001L44.1758 6.9L44.1758 6.9L42.8078 9.900001L42.8078 9.900001L41.8238 9.900001L41.8238 9.900001L41.8238 9.73203C 42.3699 9.67813 42.4 9.653911 42.3461 8.87383L42.3461 8.87383L42.2617 7.626171C 42.2141 7.00195 42.1777 6.73789 42.148 6.528131C 42.1059 6.27617 41.9859 6.21016 41.6379 6.16797L41.6379 6.16797L41.6379 6L41.6379 6L43.0359 6L43.0359 6L43.0359 6.16797C 42.6398 6.21016 42.4961 6.25195 42.484 6.53984C 42.4777 6.78008 42.4777 7.04414 42.502 7.53594L42.502 7.53594L42.5918 9.24609L42.5918 9.24609L42.6039 9.24609L42.6039 9.24609L43.948 6.04219L43.948 6.04219L44.068 6.04219L44.068 6.04219L45.532 9.33008L45.532 9.33008L45.5559 9.33008L45.5559 9.33008L45.5738 6.88203C 45.5801 6.24609 45.5559 6.21602 45.0699 6.16797L45.0699 6.16797L45.0699 6z" stroke="#000000" stroke-width="0.4" fill="none" /><path id="408" transform="matrix(1 0 0 -1 0 834)" d="M51.8738 7.05586C 51.5738 6.45586 51.2496 6.12617 50.6379 6.12617C 49.7258 6.12617 49.0656 6.89414 49.0656 8.016021C 49.0656 8.92813 49.5996 9.773829 50.602 9.773829C 51.2496 9.773829 51.6098 9.516021 51.7656 8.88008L51.7656 8.88008L51.9457 8.921881C 51.9098 9.24609 51.8738 9.48594 51.8258 9.828131C 51.6578 9.85781 51.2496 9.989841 50.7637 9.989841C 49.4258 9.989841 48.4539 9.15586 48.4539 7.89609C 48.4539 6.94219 49.1078 5.91016 50.602 5.91016C 51.034 5.91016 51.5379 6.03008 51.7059 6.07188C 51.8137 6.26992 51.9637 6.71406 52.0477 6.98984z" stroke="#000000" stroke-width="0.4" fill="none" /><path id="409" transform="matrix(1 0 0 -1 0 834)" d="M54.3398 9.773829C 55.1258 9.773829 55.7855 9.101951 55.7855 7.83594C 55.7855 6.68398 55.1855 6.12617 54.5195 6.12617C 53.6738 6.12617 53.0559 6.94805 53.0559 8.076171C 53.0559 9.19805 53.6676 9.773829 54.3398 9.773829zM54.4598 9.989841C 53.1996 9.989841 52.4438 8.98789 52.4438 7.90781C 52.4438 6.75586 53.3078 5.91016 54.3938 5.91016C 55.4918 5.91016 56.3977 6.70195 56.3977 7.99805C 56.3977 9.19805 55.4797 9.989841 54.4598 9.989841z" stroke="#000000" stroke-width="0.4" fill="none" /><path id="410" transform="matrix(1 0 0 -1 0 834)" d="M61.8277 6L61.8277 6.16797C 61.3059 6.21602 61.2879 6.24609 61.2695 6.88203L61.2695 6.88203L61.2098 9.05391C 61.1918 9.671881 61.2336 9.68398 61.7617 9.73203L61.7617 9.73203L61.7617 9.900001L61.7617 9.900001L60.7418 9.900001L60.7418 9.900001L59.3559 6.9L59.3559 6.9L57.9879 9.900001L57.9879 9.900001L57.0035 9.900001L57.0035 9.900001L57.0035 9.73203C 57.5496 9.67813 57.5797 9.653911 57.5258 8.87383L57.5258 8.87383L57.4418 7.626171C 57.3938 7.00195 57.3578 6.73789 57.3277 6.528131C 57.2855 6.27617 57.1656 6.21016 56.8176 6.16797L56.8176 6.16797L56.8176 6L56.8176 6L58.2156 6L58.2156 6L58.2156 6.16797C 57.8195 6.21016 57.6758 6.25195 57.6637 6.53984C 57.6578 6.78008 57.6578 7.04414 57.6816 7.53594L57.6816 7.53594L57.7719 9.24609L57.7719 9.24609L57.7836 9.24609L57.7836 9.24609L59.1277 6.04219L59.1277 6.04219L59.2477 6.04219L59.2477 6.04219L60.7117 9.33008L60.7117 9.33008L60.7355 9.33008L60.7355 9.33008L60.7535 6.88203C 60.7598 6.24609 60.7355 6.21602 60.2496 6.16797L60.2496 6.16797L60.2496 6z" stroke="#000000" stroke-width="0.4" fill="none" /><path id="411" transform="matrix(1 0 0 -1 0 834)" d="M63.8258 6L63.8258 6.16797C 63.3336 6.20391 63.2855 6.23398 63.2855 6.75L63.2855 6.75L63.2855 9.150001C 63.2855 9.66016 63.3336 9.69609 63.8258 9.73203L63.8258 9.73203L63.8258 9.900001L63.8258 9.900001L62.2355 9.900001L62.2355 9.900001L62.2355 9.73203C 62.7277 9.69609 62.7758 9.66016 62.7758 9.150001L62.7758 9.150001L62.7758 6.75C 62.7758 6.23984 62.7277 6.20391 62.2355 6.16797L62.2355 6.16797L62.2355 6z" stroke="#000000" stroke-width="0.4" fill="none" /><path id="412" transform="matrix(1 0 0 -1 0 834)" d="M66.5074 9.023829C 66.4598 9.40195 66.4297 9.63594 66.4055 9.851951C 66.1777 9.92383 65.9258 9.989841 65.6496 9.989841C 64.8758 9.989841 64.4137 9.49805 64.4137 8.921881C 64.4137 8.24414 65.0195 7.94414 65.4035 7.73984C 65.8535 7.5 66.1836 7.28984 66.1836 6.84609C 66.1836 6.40781 65.9137 6.12617 65.46371 6.12617C 64.8457 6.12617 64.5758 6.73203 64.4797 7.09805L64.4797 7.09805L64.3055 7.05586C 64.3418 6.767971 64.4195 6.25195 64.46761 6.12617C 64.52151 6.09609 64.6117 6.05391 64.7617 6C 64.91171 5.95781 65.1035 5.91016 65.3496 5.91016C 66.1477 5.91016 66.6816 6.41406 66.6816 7.04414C 66.6816 7.71602 66.1117 7.99805 65.6438 8.23789C 65.1695 8.48398 64.8816 8.68789 64.8816 9.12617C 64.8816 9.45 65.0855 9.78594 65.5477 9.78594C 66.0695 9.78594 66.2258 9.371881 66.3336 8.98789z" stroke="#000000" stroke-width="0.4" fill="none" /><path id="413" transform="matrix(1 0 0 -1 0 834)" d="M69.4055 7.68008L68.3016 7.68008C 68.4816 8.171881 68.6734 8.69414 68.8656 9.21016L68.8656 9.21016L68.8777 9.21016zM70.9355 6L70.9355 6.16797C 70.5457 6.20391 70.46761 6.25781 70.2758 6.77383C 69.89181 7.81797 69.4895 8.95781 69.11761 9.989841L69.11761 9.989841L68.9316 9.93594L68.9316 9.93594L67.68951 6.78594C 67.4797 6.25781 67.3957 6.22188 67.0176 6.16797L67.0176 6.16797L67.0176 6L67.0176 6L68.3195 6L68.3195 6L68.3195 6.16797C 67.8695 6.21016 67.81561 6.26992 67.9477 6.64805C 68.0258 6.9 68.1156 7.15195 68.2117 7.42188L68.2117 7.42188L69.4895 7.42188C 69.62151 7.05586 69.74181 6.73203 69.8195 6.49805C 69.8977 6.26406 69.8438 6.21602 69.4656 6.16797L69.4656 6.16797L69.4656 6z" stroke="#000000" stroke-width="0.4" fill="none" /><path id="414" transform="matrix(1 0 0 -1 0 834)" d="M71.7273 5.92813C 71.9195 5.92813 72.06371 6.06602 72.06371 6.27617C 72.06371 6.46797 71.9195 6.61797 71.7273 6.61797C 71.5355 6.61797 71.3914 6.46797 71.3914 6.27617C 71.3914 6.06602 71.5355 5.92813 71.7273 5.92813z" stroke="#000000" stroke-width="0.4" fill="none" /><path id="415" transform="matrix(1 0 0 -1 0 834)" d="M73.9234 6L73.9234 6.15586C 73.53951 6.19219 73.4977 6.22813 73.4977 6.63594L73.4977 6.63594L73.4977 8.70586C 73.2336 8.59805 72.9516 8.51992 72.6453 8.471881L72.6453 8.471881L72.6453 8.328131C 73.0055 8.26797 73.0234 8.24414 73.0234 7.871881L73.0234 7.871881L73.0234 6.63594C 73.0234 6.22813 72.9816 6.19219 72.6035 6.15586L72.6035 6.15586L72.6035 6zM73.2215 9.216021C 73.3953 9.216021 73.52731 9.36016 73.52731 9.52188C 73.52731 9.70195 73.3953 9.83398 73.2273 9.83398C 73.06561 9.83398 72.9215 9.70195 72.9215 9.52188C 72.9215 9.36016 73.06561 9.216021 73.2215 9.216021z" stroke="#000000" stroke-width="0.4" fill="none" /><path id="416" transform="matrix(1 0 0 -1 0 834)" d="M77.1574 6L77.1574 6.15586C 76.8094 6.19219 76.7793 6.21602 76.7793 6.62383L76.7793 6.62383L76.7793 7.78203C 76.7793 8.36406 76.4793 8.69414 76.0055 8.69414C 75.8313 8.69414 75.67541 8.621881 75.5074 8.51406C 75.3574 8.41211 75.2254 8.32188 75.1055 8.23203L75.1055 8.23203L75.1055 8.712111C 74.8414 8.59219 74.5594 8.51992 74.27151 8.466021L74.27151 8.466021L74.27151 8.328131C 74.5953 8.26797 74.6313 8.25 74.6313 7.86602L74.6313 7.86602L74.6313 6.62383C 74.6313 6.22813 74.6016 6.19805 74.19341 6.15586L74.19341 6.15586L74.19341 6L74.19341 6L75.4953 6L75.4953 6L75.4953 6.15586C 75.1414 6.19219 75.1055 6.21602 75.1055 6.62383L75.1055 6.62383L75.1055 8.03398C 75.2855 8.18984 75.5195 8.33984 75.7594 8.33984C 76.1613 8.33984 76.3055 8.069921 76.3055 7.65586L76.3055 7.65586L76.3055 6.65391C 76.3055 6.23984 76.2633 6.19219 75.9094 6.15586L75.9094 6.15586L75.9094 6z" stroke="#000000" stroke-width="0.4" fill="none" /><path id="417" transform="matrix(1 0 0 -1 0 834)" d="M79.4734 6.51016C 79.32931 6.40195 79.1133 6.30586 78.8973 6.30586C 78.5133 6.30586 78.0754 6.65391 78.0754 7.36797C 78.0754 8.23789 78.57931 8.471881 78.8555 8.471881C 79.0832 8.471881 79.32931 8.37617 79.4734 8.16602zM80.4035 6.30586L80.2113 6.32383C 79.9895 6.34805 79.9473 6.37813 79.9473 6.68984L79.9473 6.68984L79.9473 10.2719C 79.7254 10.1941 79.3234 10.1039 79.0113 10.0621L79.0113 10.0621L79.0113 9.917971C 79.44341 9.88789 79.4734 9.869921 79.4734 9.47383L79.4734 9.47383L79.4734 8.628131C 79.3355 8.67617 79.1613 8.69414 79.0773 8.69414C 78.2613 8.69414 77.5293 8.03984 77.5293 7.20586C 77.5293 6.36602 78.1594 5.92813 78.6395 5.92813C 78.7113 5.92813 78.87341 5.96406 79.1074 6.10195L79.1074 6.10195L79.4734 6.31797L79.4734 6.31797L79.4734 5.92813C 79.8215 6.05391 80.27151 6.13203 80.4035 6.15586z" stroke="#000000" stroke-width="0.4" fill="none" /><path id="418" transform="matrix(1 0 0 -1 0 834)" d="M81.3813 8.24414C 81.4895 8.310161 81.6813 8.35781 81.84921 8.35781C 82.34731 8.35781 82.7676 7.96211 82.7676 7.278131C 82.7676 6.58203 82.4492 6.15586 81.9516 6.15586C 81.6336 6.16211 81.4535 6.37188 81.4176 6.49219C 81.3934 6.54609 81.3813 6.60586 81.3813 6.69609zM81.3813 8.42383L81.3813 10.2719C 81.1594 10.1941 80.7934 10.098 80.5113 10.0621L80.5113 10.0621L80.5113 9.92383C 80.8953 9.88789 80.9074 9.851951 80.9074 9.48008L80.9074 9.48008L80.9074 6.14414C 81.2375 5.98789 81.5434 5.92813 81.78951 5.92813C 82.59341 5.92813 83.2953 6.55195 83.2953 7.43398C 83.2953 8.14219 82.7555 8.69414 82.1133 8.69414C 82.0473 8.69414 81.9633 8.67617 81.86761 8.63398z" stroke="#000000" stroke-width="0.4" fill="none" /><path id="419" transform="matrix(1 0 0 -1 0 834)" d="M89.90701 6L89.90701 6.16211C 89.3613 6.20391 89.3254 6.25195 89.3254 6.68398L89.3254 6.68398L89.3254 9.810161C 88.9953 9.67813 88.641 9.56406 88.257 9.49805L88.257 9.49805L88.257 9.36016L88.257 9.36016L88.5453 9.34805C 88.8094 9.33594 88.8332 9.305861 88.8332 8.99414L88.8332 8.99414L88.8332 6.68398C 88.8332 6.25195 88.8031 6.20391 88.257 6.16211L88.257 6.16211L88.257 6z" stroke="#000000" stroke-width="0.4" fill="none" /><path id="420" transform="matrix(1 0 0 -1 0 834)" d="M91.9172 9.61211C 92.457 9.61211 92.607 8.72383 92.607 7.871881C 92.607 7.03203 92.4633 6.13203 91.923 6.13203C 91.40121 6.13203 91.2273 7.03789 91.2273 7.87813C 91.2273 8.712111 91.3711 9.61211 91.9172 9.61211zM91.923 9.810161C 91.023 9.810161 90.69341 8.74219 90.69341 7.86602C 90.69341 6.91797 91.0172 5.92813 91.923 5.92813C 92.823 5.92813 93.141 6.99609 93.141 7.871881C 93.141 8.79609 92.823 9.810161 91.923 9.810161z" stroke="#000000" stroke-width="0.4" fill="none" /><path id="421" transform="matrix(1 0 0 -1 0 834)" d="M95.8352 6.83984C 95.65511 6.46211 95.5773 6.43789 95.25311 6.43789L95.25311 6.43789L94.1313 6.43789L94.1313 6.43789L94.9832 7.33203C 95.5352 7.91992 95.77541 8.273829 95.77541 8.79609C 95.77541 9.42617 95.2953 9.810161 94.7672 9.810161C 94.4191 9.810161 94.1371 9.653911 93.957 9.45586L93.957 9.45586L93.6152 8.96992L93.6152 8.96992L93.74731 8.85C 93.9031 9.08398 94.15511 9.40781 94.5633 9.40781C 95.007 9.40781 95.2711 9.11406 95.2711 8.61016C 95.2711 8.09414 94.8934 7.60195 94.5211 7.15781C 94.2211 6.81016 93.8852 6.46797 93.5492 6.13789L93.5492 6.13789L93.5492 6L93.5492 6L95.7934 6C 95.8652 6.26992 95.92541 6.53398 96.00311 6.78594z" stroke="#000000" stroke-width="0.4" fill="none" /><path id="440" transform="matrix(1 0 0 -1 0 834)" d="M554.472 6.83984C 554.292 6.46211 554.2141 6.43789 553.89 6.43789L553.89 6.43789L552.768 6.43789L552.768 6.43789L553.6201 7.33203C 554.1721 7.91992 554.412 8.273829 554.412 8.79609C 554.412 9.42617 553.932 9.810161 553.404 9.810161C 553.056 9.810161 552.774 9.653911 552.594 9.45586L552.594 9.45586L552.252 8.96992L552.252 8.96992L552.384 8.85C 552.54 9.08398 552.792 9.40781 553.2 9.40781C 553.644 9.40781 553.908 9.11406 553.908 8.61016C 553.908 8.09414 553.53 7.60195 553.158 7.15781C 552.858 6.81016 552.522 6.46797 552.186 6.13789L552.186 6.13789L552.186 6L552.186 6L554.43 6C 554.502 6.26992 554.562 6.53398 554.64 6.78594z" stroke="#000000" stroke-width="0.4" fill="none" /><path id="441" transform="matrix(1 0 0 -1 0 834)" d="M555.792 9.3L557.19 9.3L557.19 9.3L557.346 9.68984L557.346 9.68984L557.31 9.73789L557.31 9.73789L555.6 9.73789L555.6 9.73789L555.366 7.90781C 555.504 7.96211 555.732 8.028131 555.984 8.028131C 556.638 8.028131 556.962 7.65 556.962 7.121881C 556.962 6.67188 556.71 6.23398 556.2 6.23398C 555.834 6.23398 555.588 6.42617 555.462 6.53984C 555.402 6.58789 555.354 6.58203 555.3 6.53984C 555.234 6.48008 555.18 6.40195 555.174 6.34219C 555.162 6.26992 555.192 6.22188 555.27 6.13789C 555.36 6.05391 555.612 5.92813 555.888 5.92813C 556.206 5.93398 556.608 6.08984 556.932 6.35391C 557.298 6.65391 557.466 6.99609 557.466 7.35586C 557.466 7.84805 557.076 8.369921 556.308 8.369921C 556.146 8.369921 555.864 8.273829 555.636 8.18984z" stroke="#000000" stroke-width="0.4" fill="none" /><path id="442" transform="matrix(1 0 0 -1 0 834)" d="M559.548 9.989841L559.212 9.989841L559.212 9.989841L557.91 5.73594L557.91 5.73594L558.246 5.73594z" stroke="#000000" stroke-width="0.4" fill="none" /><path id="443" transform="matrix(1 0 0 -1 0 834)" d="M561.18 9.61211C 561.72 9.61211 561.8701 8.72383 561.8701 7.871881C 561.8701 7.03203 561.726 6.13203 561.186 6.13203C 560.664 6.13203 560.49 7.03789 560.49 7.87813C 560.49 8.712111 560.634 9.61211 561.18 9.61211zM561.186 9.810161C 560.286 9.810161 559.956 8.74219 559.956 7.86602C 559.956 6.91797 560.28 5.92813 561.186 5.92813C 562.086 5.92813 562.404 6.99609 562.404 7.871881C 562.404 8.79609 562.086 9.810161 561.186 9.810161z" stroke="#000000" stroke-width="0.4" fill="none" /><path id="444" transform="matrix(1 0 0 -1 0 834)" d="M564 9.61211C 564.582 9.61211 564.738 8.86797 564.738 8.33984C 564.738 8.21992 564.732 8.076171 564.7141 7.94414C 564.588 7.84805 564.384 7.77617 564.174 7.77617C 563.67 7.77617 563.3701 8.214061 563.3701 8.74219C 563.3701 9.09609 563.538 9.61211 564 9.61211zM564.078 9.810161C 563.304 9.810161 562.854 9.10781 562.854 8.53203C 562.854 7.90195 563.292 7.43398 563.928 7.43398C 564.042 7.43398 564.156 7.45781 564.288 7.53008L564.288 7.53008L564.69 7.74609C 564.492 6.83398 563.838 6.23398 562.98 6.08984L562.98 6.08984L563.01 5.91016C 563.16 5.91016 563.526 5.96992 563.85 6.10195C 564.66 6.42617 565.2661 7.20586 565.2661 8.310161C 565.2661 9.12617 564.828 9.810161 564.078 9.810161z" stroke="#000000" stroke-width="0.4" fill="none" /><path id="445" transform="matrix(1 0 0 -1 0 834)" d="M567.294 9.989841L566.958 9.989841L566.958 9.989841L565.656 5.73594L565.656 5.73594L565.992 5.73594z" stroke="#000000" stroke-width="0.4" fill="none" /><path id="446" transform="matrix(1 0 0 -1 0 834)" d="M569.9641 6.83984C 569.784 6.46211 569.706 6.43789 569.382 6.43789L569.382 6.43789L568.26 6.43789L568.26 6.43789L569.112 7.33203C 569.664 7.91992 569.904 8.273829 569.904 8.79609C 569.904 9.42617 569.424 9.810161 568.896 9.810161C 568.548 9.810161 568.2661 9.653911 568.086 9.45586L568.086 9.45586L567.744 8.96992L567.744 8.96992L567.876 8.85C 568.032 9.08398 568.284 9.40781 568.692 9.40781C 569.136 9.40781 569.4 9.11406 569.4 8.61016C 569.4 8.09414 569.022 7.60195 568.65 7.15781C 568.35 6.81016 568.014 6.46797 567.678 6.13789L567.678 6.13789L567.678 6L567.678 6L569.9221 6C 569.994 6.26992 570.054 6.53398 570.132 6.78594z" stroke="#000000" stroke-width="0.4" fill="none" /><path id="447" transform="matrix(1 0 0 -1 0 834)" d="M571.806 9.61211C 572.346 9.61211 572.496 8.72383 572.496 7.871881C 572.496 7.03203 572.352 6.13203 571.812 6.13203C 571.29 6.13203 571.116 7.03789 571.116 7.87813C 571.116 8.712111 571.26 9.61211 571.806 9.61211zM571.812 9.810161C 570.912 9.810161 570.582 8.74219 570.582 7.86602C 570.582 6.91797 570.906 5.92813 571.812 5.92813C 572.712 5.92813 573.03 6.99609 573.03 7.871881C 573.03 8.79609 572.712 9.810161 571.812 9.810161z" stroke="#000000" stroke-width="0.4" fill="none" /><path id="448" transform="matrix(1 0 0 -1 0 834)" d="M575.556 6L575.556 6.16211C 575.01 6.20391 574.9741 6.25195 574.9741 6.68398L574.9741 6.68398L574.9741 9.810161C 574.644 9.67813 574.29 9.56406 573.906 9.49805L573.906 9.49805L573.906 9.36016L573.906 9.36016L574.194 9.34805C 574.458 9.33594 574.482 9.305861 574.482 8.99414L574.482 8.99414L574.482 6.68398C 574.482 6.25195 574.452 6.20391 573.906 6.16211L573.906 6.16211L573.906 6z" stroke="#000000" stroke-width="0.4" fill="none" /><path id="449" transform="matrix(1 0 0 -1 0 834)" d="M578.814 9.73789L576.522 9.73789C 576.498 9.48008 576.468 9.180079 576.414 8.85L576.414 8.85L576.588 8.85C 576.732 9.24609 576.768 9.3 577.164 9.3L577.164 9.3L578.46 9.3C 577.986 8.25586 577.308 7.01406 576.678 5.99414L576.678 5.99414L576.72 5.92813L576.72 5.92813L577.164 5.98789C 577.74 7.22383 578.298 8.44805 578.862 9.66602z" stroke="#000000" stroke-width="0.4" fill="none" /><path id="450" transform="matrix(1 0 0 -1 0 834)" d="M584.531 9.61211C 585.071 9.61211 585.221 8.72383 585.221 7.871881C 585.221 7.03203 585.077 6.13203 584.537 6.13203C 584.015 6.13203 583.841 7.03789 583.841 7.87813C 583.841 8.712111 583.985 9.61211 584.531 9.61211zM584.537 9.810161C 583.637 9.810161 583.307 8.74219 583.307 7.86602C 583.307 6.91797 583.631 5.92813 584.537 5.92813C 585.437 5.92813 585.755 6.99609 585.755 7.871881C 585.755 8.79609 585.437 9.810161 584.537 9.810161z" stroke="#000000" stroke-width="0.4" fill="none" /><path id="451" transform="matrix(1 0 0 -1 0 834)" d="M588.449 6.83984C 588.269 6.46211 588.191 6.43789 587.867 6.43789L587.867 6.43789L586.7451 6.43789L586.7451 6.43789L587.597 7.33203C 588.149 7.91992 588.389 8.273829 588.389 8.79609C 588.389 9.42617 587.909 9.810161 587.381 9.810161C 587.033 9.810161 586.751 9.653911 586.571 9.45586L586.571 9.45586L586.229 8.96992L586.229 8.96992L586.361 8.85C 586.517 9.08398 586.769 9.40781 587.177 9.40781C 587.621 9.40781 587.885 9.11406 587.885 8.61016C 587.885 8.09414 587.507 7.60195 587.135 7.15781C 586.835 6.81016 586.499 6.46797 586.163 6.13789L586.163 6.13789L586.163 6L586.163 6L588.407 6C 588.479 6.26992 588.539 6.53398 588.617 6.78594z" stroke="#000000" stroke-width="0.4" fill="none" /><path id="452" transform="matrix(1 0 0 -1 0 834)" d="M589.5471 5.92813C 589.739 5.92813 589.883 6.06602 589.883 6.27617C 589.883 6.46797 589.739 6.61797 589.5471 6.61797C 589.355 6.61797 589.211 6.46797 589.211 6.27617C 589.211 6.06602 589.355 5.92813 589.5471 5.92813zM589.541 8.466021C 589.3491 8.466021 589.211 8.328131 589.211 8.13008C 589.211 7.92617 589.3491 7.78203 589.541 7.78203C 589.733 7.78203 589.877 7.92617 589.877 8.13008C 589.877 8.328131 589.733 8.466021 589.541 8.466021z" stroke="#000000" stroke-width="0.4" fill="none" /><path id="453" transform="matrix(1 0 0 -1 0 834)" d="M592.697 6.83984C 592.517 6.46211 592.439 6.43789 592.115 6.43789L592.115 6.43789L590.993 6.43789L590.993 6.43789L591.845 7.33203C 592.397 7.91992 592.637 8.273829 592.637 8.79609C 592.637 9.42617 592.157 9.810161 591.629 9.810161C 591.281 9.810161 590.999 9.653911 590.819 9.45586L590.819 9.45586L590.477 8.96992L590.477 8.96992L590.609 8.85C 590.765 9.08398 591.017 9.40781 591.425 9.40781C 591.869 9.40781 592.133 9.11406 592.133 8.61016C 592.133 8.09414 591.755 7.60195 591.383 7.15781C 591.083 6.81016 590.747 6.46797 590.411 6.13789L590.411 6.13789L590.411 6L590.411 6L592.655 6C 592.727 6.26992 592.787 6.53398 592.865 6.78594z" stroke="#000000" stroke-width="0.4" fill="none" /><path id="454" transform="matrix(1 0 0 -1 0 834)" d="M595.577 6.83984C 595.397 6.46211 595.319 6.43789 594.9951 6.43789L594.9951 6.43789L593.873 6.43789L593.873 6.43789L594.725 7.33203C 595.277 7.91992 595.517 8.273829 595.517 8.79609C 595.517 9.42617 595.037 9.810161 594.509 9.810161C 594.161 9.810161 593.879 9.653911 593.699 9.45586L593.699 9.45586L593.357 8.96992L593.357 8.96992L593.489 8.85C 593.645 9.08398 593.897 9.40781 594.305 9.40781C 594.749 9.40781 595.013 9.11406 595.013 8.61016C 595.013 8.09414 594.635 7.60195 594.263 7.15781C 593.963 6.81016 593.627 6.46797 593.291 6.13789L593.291 6.13789L593.291 6L593.291 6L595.535 6C 595.607 6.26992 595.667 6.53398 595.7451 6.78594z" stroke="#000000" stroke-width="0.4" fill="none" /><path id="455" transform="matrix(1 0 0 -1 0 834)" d="M596.675 5.92813C 596.867 5.92813 597.011 6.06602 597.011 6.27617C 597.011 6.46797 596.867 6.61797 596.675 6.61797C 596.483 6.61797 596.3391 6.46797 596.3391 6.27617C 596.3391 6.06602 596.483 5.92813 596.675 5.92813zM596.669 8.466021C 596.477 8.466021 596.3391 8.328131 596.3391 8.13008C 596.3391 7.92617 596.477 7.78203 596.669 7.78203C 596.861 7.78203 597.005 7.92617 597.005 8.13008C 597.005 8.328131 596.861 8.466021 596.669 8.466021z" stroke="#000000" stroke-width="0.4" fill="none" /><path id="456" transform="matrix(1 0 0 -1 0 834)" d="M599.033 7.35L597.851 7.35C 598.247 8.016021 598.637 8.58594 599.021 9.119921L599.021 9.119921L599.033 9.119921zM600.0891 7.06797L600.0891 7.35L600.0891 7.35L599.513 7.35L599.513 7.35L599.513 9.79219L599.513 9.79219L599.273 9.79219C 598.655 8.976171 598.043 8.08789 597.473 7.23594L597.473 7.23594L597.473 7.06797L597.473 7.06797L599.033 7.06797L599.033 7.06797L599.033 6.63594C 599.033 6.23984 599.009 6.20391 598.487 6.16211L598.487 6.16211L598.487 6L598.487 6L600.023 6L600.023 6L600.023 6.16211C 599.537 6.20391 599.513 6.23398 599.513 6.63594L599.513 6.63594L599.513 7.06797z" stroke="#000000" stroke-width="0.4" fill="none" /><path id="457" transform="matrix(1 0 0 -1 0 834)" d="M602.915 9.73789L600.623 9.73789C 600.5991 9.48008 600.569 9.180079 600.515 8.85L600.515 8.85L600.689 8.85C 600.833 9.24609 600.869 9.3 601.265 9.3L601.265 9.3L602.561 9.3C 602.087 8.25586 601.409 7.01406 600.779 5.99414L600.779 5.99414L600.821 5.92813L600.821 5.92813L601.265 5.98789C 601.841 7.22383 602.399 8.44805 602.963 9.66602z" stroke="#000000" stroke-width="0.4" fill="none" /><path id="458" transform="matrix(1 0 0 -1 0 834)" d="M605.489 8.08203C 605.651 8.20195 605.897 8.33398 606.0891 8.33398C 606.527 8.33398 606.893 7.97383 606.893 7.33203C 606.893 6.65391 606.557 6.22188 606.053 6.22188C 605.8491 6.22188 605.621 6.31797 605.489 6.45586zM605.489 8.28008L605.489 8.75391C 605.207 8.63984 604.871 8.53789 604.619 8.49609L604.619 8.49609L604.619 8.351951C 604.991 8.30391 605.015 8.29219 605.015 7.90195L605.015 7.90195L605.015 5.18984C 605.015 4.79414 604.961 4.75781 604.577 4.72188L604.577 4.72188L604.577 4.56016L604.577 4.56016L605.999 4.56016L605.999 4.56016L605.999 4.72188C 605.531 4.76406 605.489 4.79414 605.489 5.25L605.489 5.25L605.489 6.03594C 605.567 5.99414 605.729 5.93398 605.903 5.92813C 606.683 6.07188 607.397 6.65391 607.397 7.56016C 607.397 8.153911 607.001 8.69414 606.335 8.69414C 606.263 8.69414 606.149 8.664061 606.041 8.60391z" stroke="#000000" stroke-width="0.4" fill="none" /><path id="459" transform="matrix(1 0 0 -1 0 834)" d="M608.303 5.92813C 608.4951 5.92813 608.639 6.06602 608.639 6.27617C 608.639 6.46797 608.4951 6.61797 608.303 6.61797C 608.111 6.61797 607.967 6.46797 607.967 6.27617C 607.967 6.06602 608.111 5.92813 608.303 5.92813z" stroke="#000000" stroke-width="0.4" fill="none" /><path id="460" transform="matrix(1 0 0 -1 0 834)" d="M615.125 6L615.125 6.15586C 614.783 6.19219 614.735 6.21602 614.735 6.61797L614.735 6.61797L614.735 7.77617C 614.735 8.36406 614.441 8.69414 613.973 8.69414C 613.805 8.69414 613.649 8.621881 613.523 8.53789C 613.373 8.44805 613.199 8.33398 613.025 8.20195C 612.905 8.51406 612.647 8.69414 612.359 8.69414C 612.167 8.69414 612.023 8.628131 611.867 8.53203C 611.687 8.417971 611.555 8.310161 611.429 8.226171L611.429 8.226171L611.429 8.712111C 611.165 8.59219 610.859 8.51406 610.595 8.466021L610.595 8.466021L610.595 8.328131C 610.9431 8.273829 610.961 8.24414 610.961 7.86016L610.961 7.86016L610.961 6.61797C 610.961 6.22813 610.907 6.19219 610.511 6.15586L610.511 6.15586L610.511 6L610.511 6L611.777 6L611.777 6L611.777 6.15586C 611.483 6.19219 611.435 6.22813 611.435 6.61797L611.435 6.61797L611.435 8.028131C 611.615 8.17813 611.8491 8.33984 612.0891 8.33984C 612.455 8.33984 612.611 8.09414 612.611 7.65L612.611 7.65L612.611 6.61797C 612.611 6.22188 612.557 6.19219 612.185 6.15586L612.185 6.15586L612.185 6L612.185 6L613.469 6L613.469 6L613.469 6.15586C 613.139 6.19219 613.085 6.22813 613.085 6.60586L613.085 6.60586L613.085 7.77617C 613.085 7.88984 613.079 7.95586 613.067 8.028131C 613.295 8.21992 613.523 8.33984 613.739 8.33984C 614.117 8.33984 614.267 8.069921 614.267 7.64414L614.267 7.64414L614.267 6.64219C 614.267 6.21602 614.201 6.19219 613.847 6.15586L613.847 6.15586L613.847 6z" stroke="#000000" stroke-width="0.4" fill="none" /><path id="461" transform="matrix(1 0 0 -1 0 834)" d="M615.947 5.92813C 616.139 5.92813 616.283 6.06602 616.283 6.27617C 616.283 6.46797 616.139 6.61797 615.947 6.61797C 615.755 6.61797 615.611 6.46797 615.611 6.27617C 615.611 6.06602 615.755 5.92813 615.947 5.92813z" stroke="#000000" stroke-width="0.4" fill="none" /></g></g></svg>