<svg xmlns="http://www.w3.org/2000/svg" xmlns:xlink="http://www.w3.org/1999/xlink" id="body_1" preserveAspectRatio="xMinYMin meet" viewBox="0 0 872 1112"><defs><clipPath id="1"><path id="" clip-rule="evenodd" transform="matrix(1 0 0 1 0 0)" d="M0 834L0 0L0 0L654 0L654 0L654 834L654 834L0 834z" /></clipPath><clipPath id="2"><path id="" clip-rule="evenodd" transform="matrix(1 0 0 1 0 0)" d="M21 813L633 813L633 813L633 21L633 21L21 21z" /></clipPath><clipPath id="3"><path id="" clip-rule="evenodd" transform="matrix(1 0 0 1 0 0)" d="M109.05 705.637L202.248 705.637L202.248 705.637L202.248 576.655L202.248 576.655L109.05 576.655z" /></clipPath><clipPath id="4"><path id="" clip-rule="evenodd" transform="matrix(1 0 0 1 0 0)" d="M109.05 705.637L202.248 705.637L202.248 705.637L202.248 576.655L202.248 576.655L109.05 576.655z" /></clipPath><clipPath id="5"><path id="" clip-rule="evenodd" transform="matrix(1 0 0 1 0 0)" d="M109.05 705.637L365.33 705.637L365.33 705.637L365.33 576L365.33 576L109.05 576z" /></clipPath><clipPath id="6"><path id="" clip-rule="evenodd" transform="matrix(1 0 0 1 0 0)" d="M109.05 705.637L365.33 705.637L365.33 705.637L365.33 576L365.33 576L109.05 576z" /></clipPath><clipPath id="7"><path id="" clip-rule="evenodd" transform="matrix(1 0 0 1 0 0)" d="M109.05 705.637L365.33 705.637L365.33 705.637L365.33 576L365.33 576L109.05 576z" /></clipPath><clipPath id="8"><path id="" clip-rule="evenodd" transform="matrix(1 0 0 1 0 0)" d="M122.443 487.635L204.261 487.635L204.261 487.635L204.261 362.578L204.261 362.578L122.443 362.578z" /></clipPath><clipPath id="9"><path id="" clip-rule="evenodd" transform="matrix(1 0 0 1 0 0)" d="M122.443 487.635L204.261 487.635L204.261 487.635L204.261 362.578L204.261 362.578L122.443 362.578z" /></clipPath><clipPath id="10"><path id="" clip-rule="evenodd" transform="matrix(1 0 0 1 0 0)" d="M122.443 487.635L379.122 487.635L379.122 487.635L379.122 356.807L379.122 356.807L122.443 356.807z" /></clipPath><clipPath id="11"><path id="" clip-rule="evenodd" transform="matrix(1 0 0 1 0 0)" d="M195.065 413.753C 195.065 426.033 205.02 435.988 217.3 435.988L217.3 435.988L217.3 435.988C 229.58 435.988 239.535 426.033 239.535 413.753L239.535 413.753L239.535 413.753C 239.535 401.473 229.58 391.518 217.3 391.518L217.3 391.518L217.3 391.518C 205.02 391.518 195.065 401.473 195.065 413.753" /></clipPath><clipPath id="12"><path id="" clip-rule="evenodd" transform="matrix(1 0 0 1 0 0)" d="M195.065 413.753C 195.065 426.033 205.02 435.988 217.3 435.988L217.3 435.988L217.3 435.988C 229.58 435.988 239.535 426.033 239.535 413.753L239.535 413.753L239.535 413.753C 239.535 401.473 229.58 391.518 217.3 391.518L217.3 391.518L217.3 391.518C 205.02 391.518 195.065 401.473 195.065 413.753" /></clipPath><clipPath id="13"><path id="" clip-rule="evenodd" transform="matrix(1 0 0 1 0 0)" d="M122.443 487.635L379.122 487.635L379.122 487.635L379.122 356.807L379.122 356.807L122.443 356.807z" /></clipPath><clipPath id="14"><path id="" clip-rule="evenodd" transform="matrix(1 0 0 1 0 0)" d="M243.302 413.753C 243.302 425.836 253.098 435.631 265.181 435.631L265.181 435.631L265.181 435.631C 277.264 435.631 287.059 425.836 287.059 413.753L287.059 413.753L287.059 413.753C 287.059 401.67 277.264 391.874 265.181 391.874L265.181 391.874L265.181 391.874C 253.098 391.874 243.302 401.67 243.302 413.753" /></clipPath><clipPath id="15"><path id="" clip-rule="evenodd" transform="matrix(1 0 0 1 0 0)" d="M243.302 413.753C 243.302 425.836 253.098 435.631 265.181 435.631L265.181 435.631L265.181 435.631C 277.264 435.631 287.059 425.836 287.059 413.753L287.059 413.753L287.059 413.753C 287.059 401.67 277.264 391.874 265.181 391.874L265.181 391.874L265.181 391.874C 253.098 391.874 243.302 401.67 243.302 413.753" /></clipPath><clipPath id="16"><path id="" clip-rule="evenodd" transform="matrix(1 0 0 1 0 0)" d="M122.443 487.635L379.122 487.635L379.122 487.635L379.122 356.807L379.122 356.807L122.443 356.807z" /></clipPath><clipPath id="17"><path id="" clip-rule="evenodd" transform="matrix(1 0 0 1 0 0)" d="M288.933 413.753C 288.933 426.164 298.746 436.225 310.85 436.225L310.85 436.225L310.85 436.225C 322.955 436.225 332.768 426.164 332.768 413.753L332.768 413.753L332.768 413.753C 332.768 401.341 322.955 391.28 310.85 391.28L310.85 391.28L310.85 391.28C 298.746 391.28 288.933 401.341 288.933 413.753" /></clipPath><clipPath id="18"><path id="" clip-rule="evenodd" transform="matrix(1 0 0 1 0 0)" d="M288.933 413.753C 288.933 426.164 298.746 436.225 310.85 436.225L310.85 436.225L310.85 436.225C 322.955 436.225 332.768 426.164 332.768 413.753L332.768 413.753L332.768 413.753C 332.768 401.341 322.955 391.28 310.85 391.28L310.85 391.28L310.85 391.28C 298.746 391.28 288.933 401.341 288.933 413.753" /></clipPath><clipPath id="19"><path id="" clip-rule="evenodd" transform="matrix(1 0 0 1 0 0)" d="M122.443 487.635L379.122 487.635L379.122 487.635L379.122 356.807L379.122 356.807L122.443 356.807z" /></clipPath><clipPath id="20"><path id="" clip-rule="evenodd" transform="matrix(1 0 0 1 0 0)" d="M334.653 413.158C 334.653 425.242 344.449 435.037 356.532 435.037L356.532 435.037L356.532 435.037C 368.616 435.037 378.41 425.242 378.41 413.158L378.41 413.158L378.41 413.158C 378.41 401.076 368.616 391.28 356.532 391.28L356.532 391.28L356.532 391.28C 344.449 391.28 334.653 401.076 334.653 413.158" /></clipPath><clipPath id="21"><path id="" clip-rule="evenodd" transform="matrix(1 0 0 1 0 0)" d="M334.653 413.158C 334.653 425.242 344.449 435.037 356.532 435.037L356.532 435.037L356.532 435.037C 368.616 435.037 378.41 425.242 378.41 413.158L378.41 413.158L378.41 413.158C 378.41 401.076 368.616 391.28 356.532 391.28L356.532 391.28L356.532 391.28C 344.449 391.28 334.653 401.076 334.653 413.158" /></clipPath><clipPath id="22"><path id="" clip-rule="evenodd" transform="matrix(1 0 0 1 0 0)" d="M122.443 487.635L379.122 487.635L379.122 487.635L379.122 356.807L379.122 356.807L122.443 356.807z" /></clipPath><clipPath id="23"><path id="" clip-rule="evenodd" transform="matrix(1 0 0 1 0 0)" d="M122.443 487.635L379.122 487.635L379.122 487.635L379.122 356.807L379.122 356.807L122.443 356.807z" /></clipPath><clipPath id="24"><path id="" clip-rule="evenodd" transform="matrix(1 0 0 1 0 0)" d="M122.443 487.635L379.122 487.635L379.122 487.635L379.122 356.807L379.122 356.807L122.443 356.807z" /></clipPath><clipPath id="25"><path id="" clip-rule="evenodd" transform="matrix(1 0 0 1 0 0)" d="M122.443 487.635L379.122 487.635L379.122 487.635L379.122 356.807L379.122 356.807L122.443 356.807z" /></clipPath><clipPath id="26"><path id="" clip-rule="evenodd" transform="matrix(1 0 0 1 0 0)" d="M122.443 487.635L379.122 487.635L379.122 487.635L379.122 356.807L379.122 356.807L122.443 356.807z" /></clipPath><clipPath id="27"><path id="" clip-rule="evenodd" transform="matrix(1 0 0 1 0 0)" d="M356.123 388.761L393.3609 388.761L393.3609 388.761L393.3609 331.8442L393.3609 331.8442L356.123 331.8442z" /></clipPath><clipPath id="28"><path id="" clip-rule="evenodd" transform="matrix(1 0 0 1 0 0)" d="M356.123 388.761L393.3609 388.761L393.3609 388.761L393.3609 331.8442L393.3609 331.8442L356.123 331.8442z" /></clipPath><clipPath id="29"><path id="" clip-rule="evenodd" transform="matrix(1 0 0 1 0 0)" d="M356.123 608.73L393.3609 608.73L393.3609 608.73L393.3609 551.8127L393.3609 551.8127L356.123 551.8127z" /></clipPath><clipPath id="30"><path id="" clip-rule="evenodd" transform="matrix(1 0 0 1 0 0)" d="M356.123 608.73L393.3609 608.73L393.3609 608.73L393.3609 551.8127L393.3609 551.8127L356.123 551.8127z" /></clipPath><clipPath id="31"><path id="" clip-rule="evenodd" transform="matrix(1 0 0 1 0 0)" d="M100.76 696.521L126.3569 696.521L126.3569 696.521L126.3569 660.6628L126.3569 660.6628L100.76 660.6628z" /></clipPath><clipPath id="32"><path id="" clip-rule="evenodd" transform="matrix(1 0 0 1 0 0)" d="M100.76 696.521L126.3569 696.521L126.3569 696.521L126.3569 660.6628L126.3569 660.6628L100.76 660.6628z" /></clipPath><clipPath id="33"><path id="" clip-rule="evenodd" transform="matrix(1 0 0 1 0 0)" d="M96.0828 379.041L114.2449 379.041L114.2449 379.041L114.2449 352.9031L114.2449 352.9031L96.0828 352.9031z" /></clipPath><clipPath id="34"><path id="" clip-rule="evenodd" transform="matrix(1 0 0 1 0 0)" d="M96.0828 379.041L114.2449 379.041L114.2449 379.041L114.2449 352.9031L114.2449 352.9031L96.0828 352.9031z" /></clipPath><clipPath id="35"><path id="" clip-rule="evenodd" transform="matrix(1 0 0 1 0 0)" d="M96.0828 405.262L114.2449 405.262L114.2449 405.262L114.2449 379.1237L114.2449 379.1237L96.0828 379.1237z" /></clipPath><clipPath id="36"><path id="" clip-rule="evenodd" transform="matrix(1 0 0 1 0 0)" d="M96.0828 405.262L114.2449 405.262L114.2449 405.262L114.2449 379.1237L114.2449 379.1237L96.0828 379.1237z" /></clipPath><clipPath id="37"><path id="" clip-rule="evenodd" transform="matrix(1 0 0 1 0 0)" d="M96.0828 431.482L114.2449 431.482L114.2449 431.482L114.2449 405.3429L114.2449 405.3429L96.0828 405.3429z" /></clipPath><clipPath id="38"><path id="" clip-rule="evenodd" transform="matrix(1 0 0 1 0 0)" d="M96.0828 431.482L114.2449 431.482L114.2449 431.482L114.2449 405.3429L114.2449 405.3429L96.0828 405.3429z" /></clipPath><clipPath id="39"><path id="" clip-rule="evenodd" transform="matrix(1 0 0 1 0 0)" d="M96.0828 457.703L114.2449 457.703L114.2449 457.703L114.2449 431.5639L114.2449 431.5639L96.0828 431.5639z" /></clipPath><clipPath id="40"><path id="" clip-rule="evenodd" transform="matrix(1 0 0 1 0 0)" d="M96.0828 457.703L114.2449 457.703L114.2449 457.703L114.2449 431.5639L114.2449 431.5639L96.0828 431.5639z" /></clipPath><clipPath id="41"><path id="" clip-rule="evenodd" transform="matrix(1 0 0 1 0 0)" d="M96.0828 486.9L121.6789 486.9L121.6789 486.9L121.6789 457.1359L121.6789 457.1359L96.0828 457.1359z" /></clipPath><clipPath id="42"><path id="" clip-rule="evenodd" transform="matrix(1 0 0 1 0 0)" d="M96.0828 486.9L121.6789 486.9L121.6789 486.9L121.6789 457.1359L121.6789 457.1359L96.0828 457.1359z" /></clipPath><clipPath id="43"><path id="" clip-rule="evenodd" transform="matrix(1 0 0 1 0 0)" d="M365.147 696.521L390.7443 696.521L390.7443 696.521L390.7443 660.6628L390.7443 660.6628L365.147 660.6628z" /></clipPath><clipPath id="44"><path id="" clip-rule="evenodd" transform="matrix(1 0 0 1 0 0)" d="M365.147 696.521L390.7443 696.521L390.7443 696.521L390.7443 660.6628L390.7443 660.6628L365.147 660.6628z" /></clipPath><clipPath id="45"><path id="" clip-rule="evenodd" transform="matrix(1 0 0 1 0 0)" d="M119.027 261.396L359.13 261.396L359.13 261.396L359.13 140.326L359.13 140.326L119.027 140.326z" /></clipPath><clipPath id="46"><path id="" clip-rule="evenodd" transform="matrix(1 0 0 1 0 0)" d="M204.72 154.175C 193.807 155.2859 184.919 163.249 182.432 173.694L182.432 173.694L182.432 173.694L182.432 173.694L182.432 185.603C 185.117 196.874 195.251 205.2549 207.343 205.2549L207.343 205.2549L207.343 205.2549C 221.485 205.2549 232.949 193.791 232.949 179.649L232.949 179.649L232.949 179.649C 232.949 166.393 222.875 155.488 209.965 154.175L209.965 154.175L209.965 154.175z" /></clipPath><clipPath id="47"><path id="" clip-rule="evenodd" transform="matrix(1 0 0 1 0 0)" d="M204.72 154.175C 193.807 155.2859 184.919 163.249 182.432 173.694L182.432 173.694L182.432 173.694L182.432 173.694L182.432 185.603C 185.117 196.874 195.251 205.2549 207.343 205.2549L207.343 205.2549L207.343 205.2549C 221.485 205.2549 232.949 193.791 232.949 179.649L232.949 179.649L232.949 179.649C 232.949 166.393 222.875 155.488 209.965 154.175L209.965 154.175L209.965 154.175z" /></clipPath><clipPath id="48"><path id="" clip-rule="evenodd" transform="matrix(1 0 0 1 0 0)" d="M119.027 261.396L359.13 261.396L359.13 261.396L359.13 140.326L359.13 140.326L119.027 140.326z" /></clipPath><clipPath id="49"><path id="" clip-rule="evenodd" transform="matrix(1 0 0 1 0 0)" d="M119.027 261.396L359.13 261.396L359.13 261.396L359.13 140.326L359.13 140.326L119.027 140.326z" /></clipPath><clipPath id="50"><path id="" clip-rule="evenodd" transform="matrix(1 0 0 1 0 0)" d="M307.098 174.323L307.098 188.213C 310.087 199.588 320.239 207.962 332.303 207.962L332.303 207.962L332.303 207.962C 346.717 207.962 358.401 196.011 358.401 181.268L358.401 181.268L358.401 181.268C 358.401 166.5259 346.717 154.575 332.303 154.575L332.303 154.575L332.303 154.575C 320.239 154.575 310.087 162.948 307.098 174.323" /></clipPath><clipPath id="51"><path id="" clip-rule="evenodd" transform="matrix(1 0 0 1 0 0)" d="M307.098 174.323L307.098 188.213C 310.087 199.588 320.239 207.962 332.303 207.962L332.303 207.962L332.303 207.962C 346.717 207.962 358.401 196.011 358.401 181.268L358.401 181.268L358.401 181.268C 358.401 166.5259 346.717 154.575 332.303 154.575L332.303 154.575L332.303 154.575C 320.239 154.575 310.087 162.948 307.098 174.323" /></clipPath><clipPath id="52"><path id="" clip-rule="evenodd" transform="matrix(1 0 0 1 0 0)" d="M119.027 261.396L359.13 261.396L359.13 261.396L359.13 140.326L359.13 140.326L119.027 140.326z" /></clipPath><clipPath id="53"><path id="" clip-rule="evenodd" transform="matrix(1 0 0 1 0 0)" d="M119.027 261.396L359.13 261.396L359.13 261.396L359.13 140.326L359.13 140.326L119.027 140.326z" /></clipPath><clipPath id="54"><path id="" clip-rule="evenodd" transform="matrix(1 0 0 1 0 0)" d="M119.027 261.396L359.13 261.396L359.13 261.396L359.13 140.326L359.13 140.326L119.027 140.326z" /></clipPath><clipPath id="55"><path id="" clip-rule="evenodd" transform="matrix(1 0 0 1 0 0)" d="M119.027 261.396L359.13 261.396L359.13 261.396L359.13 140.326L359.13 140.326L119.027 140.326z" /></clipPath><clipPath id="56"><path id="" clip-rule="evenodd" transform="matrix(1 0 0 1 0 0)" d="M356.323 168.293L393.5609 168.293L393.5609 168.293L393.5609 111.3762L393.5609 111.3762L356.323 111.3762z" /></clipPath><clipPath id="57"><path id="" clip-rule="evenodd" transform="matrix(1 0 0 1 0 0)" d="M356.323 168.293L393.5609 168.293L393.5609 168.293L393.5609 111.3762L393.5609 111.3762L356.323 111.3762z" /></clipPath><clipPath id="58"><path id="" clip-rule="evenodd" transform="matrix(1 0 0 1 0 0)" d="M94.566 235.564L116.2558 235.564L116.2558 235.564L116.2558 206.6199L116.2558 206.6199L94.566 206.6199z" /></clipPath><clipPath id="59"><path id="" clip-rule="evenodd" transform="matrix(1 0 0 1 0 0)" d="M94.566 235.564L116.2558 235.564L116.2558 235.564L116.2558 206.6199L116.2558 206.6199L94.566 206.6199z" /></clipPath><clipPath id="60"><path id="" clip-rule="evenodd" transform="matrix(1 0 0 1 0 0)" d="M214.996 235.564L236.6851 235.564L236.6851 235.564L236.6851 206.6199L236.6851 206.6199L214.996 206.6199z" /></clipPath><clipPath id="61"><path id="" clip-rule="evenodd" transform="matrix(1 0 0 1 0 0)" d="M214.996 235.564L236.6851 235.564L236.6851 235.564L236.6851 206.6199L236.6851 206.6199L214.996 206.6199z" /></clipPath><clipPath id="62"><path id="" clip-rule="evenodd" transform="matrix(1 0 0 1 0 0)" d="M94.566 266.6609L116.2558 266.6609L116.2558 266.6609L116.2558 237.4781L116.2558 237.4781L94.566 237.4781z" /></clipPath><clipPath id="63"><path id="" clip-rule="evenodd" transform="matrix(1 0 0 1 0 0)" d="M94.566 266.6609L116.2558 266.6609L116.2558 266.6609L116.2558 237.4781L116.2558 237.4781L94.566 237.4781z" /></clipPath><clipPath id="64"><path id="" clip-rule="evenodd" transform="matrix(1 0 0 1 0 0)" d="M214.996 266.6609L236.6851 266.6609L236.6851 266.6609L236.6851 237.4781L236.6851 237.4781L214.996 237.4781z" /></clipPath><clipPath id="65"><path id="" clip-rule="evenodd" transform="matrix(1 0 0 1 0 0)" d="M214.996 266.6609L236.6851 266.6609L236.6851 266.6609L236.6851 237.4781L236.6851 237.4781L214.996 237.4781z" /></clipPath></defs><g transform="matrix(1.333333 0 0 1.333333 0 0)"><g clip-path="url(#1)"><g clip-path="url(#2)"><path id="1" transform="matrix(1 0 0 -1 0 834)" d="M91.866 67.4211L562.134 67.4211L562.134 74.92501L91.866 74.92501z" stroke="none" fill="#686868" fill-rule="nonzero" /><path id="2" transform="matrix(1 0 0 -1 0 834)" d="M562.134 526.984L91.866 526.984" stroke="#686868" stroke-width="1" fill="none" /><path id="3" transform="matrix(1 0 0 -1 0 834)" d="M562.134 307.016L91.866 307.016" stroke="#686868" stroke-width="1" fill="none" /></g><g transform="matrix(1.000845 0 0 1.002907 193.823 576.001)"><g transform="matrix(1 0 0 1 0 0)"><image x="0" y="0" xlink:href="img_01.png" width="96" height="129" /></g></g><g transform="matrix(1.010403 0 0 1.005625 292.581 576.64)"><g transform="matrix(1 0 0 1 0 0)"><image x="0" y="0" xlink:href="img_02.png" width="72" height="128" /></g></g><g clip-path="url(#3)"></g><g clip-path="url(#4)"><g transform="matrix(1.002122 0 0 0.9998604 109.051 576.656)"><g transform="matrix(1 0 0 1 0 0)"><image x="0" y="0" xlink:href="img_03.png" width="93" height="129" /></g></g></g><g clip-path="url(#5)"><path id="10" transform="matrix(1 0 0 -1 0 834)" d="M196.929 136.465C 201.288 136.676 204.796 136.891 206.902 137.03" stroke="#000000" stroke-width="0.7320001" fill="none" /></g><path id="11" transform="matrix(1 0 0 -1 0 834)" d="M205.967 135.611L206.451 137.002L205.785 138.317L209.083 137.179z" stroke="none" fill="#000000" fill-rule="nonzero" /><g clip-path="url(#6)"><path id="12" transform="matrix(1 0 0 -1 0 834)" d="M155.649 136.318C 168.758 135.404 185.678 135.92 196.929 136.464" stroke="#FFFFFF" stroke-width="0.7320001" fill="none" /><path id="13" transform="matrix(1 0 0 -1 0 834)" d="M148.16 147.577C 148.16 147.577 124.875 142.891 142.302 138.204C 145.725 137.284 150.379 136.685 155.649 136.318" stroke="#000000" stroke-width="0.7320001" fill="none" /><path id="14" transform="matrix(1 0 0 -1 0 834)" d="M204.906 193.842C 204.906 193.842 201.701 194.046 200.643 196.669" stroke="#000000" stroke-width="0.7320001" fill="none" /><path id="15" transform="matrix(1 0 0 -1 0 834)" d="M203.853 192.853C 203.853 192.853 200.648 193.057 199.59 195.68" stroke="#000000" stroke-width="0.7320001" fill="none" /></g><path id="16" transform="matrix(1 0 0 -1 0 834)" d="M120.32 203.288L131.153 198.381" stroke="#000000" stroke-width="0.7320001" fill="none" /><path id="17" transform="matrix(1 0 0 -1 0 834)" d="M120.697 201.628L120.732 203.101L121.816 204.098L118.329 204.189z" stroke="none" fill="#000000" fill-rule="nonzero" /><path id="18" transform="matrix(1 0 0 -1 0 834)" d="M129.656 197.57L130.74 198.567L130.775 200.04L133.143 197.479z" stroke="none" fill="#000000" fill-rule="nonzero" /><g clip-path="url(#7)"><path id="19" transform="matrix(1 0 0 -1 0 834)" d="M208.884 210.803C 208.884 210.803 212.089 210.599 213.147 207.976" stroke="#000000" stroke-width="0.7320001" fill="none" /><path id="20" transform="matrix(1 0 0 -1 0 834)" d="M209.937 211.791C 209.937 211.791 213.142 211.587 214.2 208.964" stroke="#000000" stroke-width="0.7320001" fill="none" /></g><path id="21" transform="matrix(1 0 0 -1 0 834)" d="M208.772 180.936L224.983 172.337" stroke="#000000" stroke-width="0.7320001" fill="none" /><path id="22" transform="matrix(1 0 0 -1 0 834)" d="M209.046 179.256L209.173 180.724L210.317 181.651L206.842 181.96z" stroke="none" fill="#000000" fill-rule="nonzero" /><path id="23" transform="matrix(1 0 0 -1 0 834)" d="M223.439 171.621L224.583 172.549L224.71 174.016L226.914 171.313z" stroke="none" fill="#000000" fill-rule="nonzero" /><g clip-path="url(#8)"></g><g clip-path="url(#9)"><g transform="matrix(0.9977768 0 0 1.000456 122.444 362.578)"><g transform="matrix(1 0 0 1 0 0)"><image x="0" y="0" xlink:href="img_04.png" width="82" height="125" /></g></g></g><g clip-path="url(#10)"><path id="55" transform="matrix(1 0 0 -1 0 834)" d="M172.74 420.15C 174.394 419.731 175.407 419.168 175.407 418.548C 175.407 417.254 170.98 416.204 165.52 416.204C 160.06 416.204 155.634 417.254 155.634 418.548C 155.634 418.966 156.094 419.358 156.901 419.697" stroke="#FFFFFF" stroke-width="0.632" fill="none" /></g><path id="56" transform="matrix(1 0 0 -1 0 834)" d="M156.432 418.274L156.542 419.541L155.706 420.5L158.707 420.247z" stroke="none" fill="#FFFFFF" fill-rule="nonzero" /><g clip-path="url(#11)"></g><g clip-path="url(#12)"><g transform="matrix(1.000161 0 0 1.001203 153.909 343.823)"><g transform="matrix(1 0 0 1 0 0)"><image x="0" y="0" xlink:href="img_05.png" width="118" height="192" /></g></g></g><g clip-path="url(#13)"><path id="58" transform="matrix(1 0 0 -1 0 834)" d="M195.065 420.247C 195.065 407.967 205.02 398.012 217.3 398.012C 229.58 398.012 239.535 407.967 239.535 420.247C 239.535 432.527 229.58 442.482 217.3 442.482C 205.02 442.482 195.065 432.527 195.065 420.247z" stroke="#000000" stroke-width="0.79" fill="none" /><path id="59" transform="matrix(1 0 0 -1 0 834)" d="M243.303 420.247C 243.303 408.164 253.098 398.368 265.182 398.368C 277.265 398.368 287.06 408.164 287.06 420.247C 287.06 432.33 277.265 442.126 265.182 442.126C 253.098 442.126 243.303 432.33 243.303 420.247" stroke="none" fill="#FFFFFF" fill-rule="nonzero" /></g><g clip-path="url(#14)"></g><g clip-path="url(#15)"><g transform="matrix(0.998504 0 0 1.001204 211.46 345.477)"><g transform="matrix(1 0 0 1 0 0)"><image x="0" y="0" xlink:href="img_06.png" width="121" height="191" /></g></g></g><g clip-path="url(#16)"><path id="61" transform="matrix(1 0 0 -1 0 834)" d="M243.303 420.247C 243.303 408.164 253.098 398.368 265.182 398.368C 277.265 398.368 287.06 408.164 287.06 420.247C 287.06 432.33 277.265 442.126 265.182 442.126C 253.098 442.126 243.303 432.33 243.303 420.247z" stroke="#000000" stroke-width="0.79" fill="none" /><path id="62" transform="matrix(1 0 0 -1 0 834)" d="M288.933 420.247C 288.933 407.836 298.746 397.774 310.85 397.774C 322.954 397.774 332.767 407.836 332.767 420.247C 332.767 432.658 322.954 442.72 310.85 442.72C 298.746 442.72 288.933 432.658 288.933 420.247" stroke="none" fill="#FFFFFF" fill-rule="nonzero" /></g><g clip-path="url(#17)"></g><g clip-path="url(#18)"><g transform="matrix(0.9990385 0 0 1.002383 262.942 343.024)"><g transform="matrix(1 0 0 1 0 0)"><image x="0" y="0" xlink:href="img_07.png" width="130" height="206" /></g></g></g><g clip-path="url(#19)"><path id="64" transform="matrix(1 0 0 -1 0 834)" d="M288.933 420.247C 288.933 407.836 298.746 397.774 310.85 397.774C 322.954 397.774 332.767 407.836 332.767 420.247C 332.767 432.658 322.954 442.72 310.85 442.72C 298.746 442.72 288.933 432.658 288.933 420.247z" stroke="#000000" stroke-width="0.79" fill="none" /><path id="65" transform="matrix(1 0 0 -1 0 834)" d="M334.654 420.841C 334.654 408.758 344.449 398.962 356.533 398.962C 368.616 398.962 378.411 408.758 378.411 420.841C 378.411 432.924 368.616 442.72 356.533 442.72C 344.449 442.72 334.654 432.924 334.654 420.841" stroke="none" fill="#FFFFFF" fill-rule="nonzero" /></g><g clip-path="url(#20)"></g><g clip-path="url(#21)"><g transform="matrix(1.001403 0 0 1.000337 321.558 351.911)"><g transform="matrix(1 0 0 1 0 0)"><image x="0" y="0" xlink:href="img_08.png" width="114" height="178" /></g></g></g><g clip-path="url(#22)"><path id="67" transform="matrix(1 0 0 -1 0 834)" d="M334.654 420.841C 334.654 408.758 344.449 398.962 356.533 398.962C 368.616 398.962 378.411 408.758 378.411 420.841C 378.411 432.924 368.616 442.72 356.533 442.72C 344.449 442.72 334.654 432.924 334.654 420.841z" stroke="#000000" stroke-width="0.79" fill="none" /><path id="68" transform="matrix(1 0 0 -1 0 834)" d="M139.658 475.598C 137.351 475.598 135.481 473.728 135.481 471.421C 135.481 469.114 137.351 467.244 139.658 467.244C 141.965 467.244 143.835 469.114 143.835 471.421C 143.835 473.728 141.965 475.598 139.658 475.598M139.658 467.752C 137.644 467.752 136.012 469.384 136.012 471.398C 136.012 473.412 137.644 475.044 139.658 475.044C 141.672 475.044 143.304 473.412 143.304 471.398C 143.304 469.384 141.672 467.752 139.658 467.752" stroke="none" fill="#000000" fill-rule="nonzero" /></g><g clip-path="url(#23)"><path id="70" transform="matrix(1 0 0 -1 0 834)" d="M203.983 456.81C 201.676 456.81 199.806 454.94 199.806 452.633C 199.806 450.326 201.676 448.456 203.983 448.456C 206.29 448.456 208.16 450.326 208.16 452.633C 208.16 454.94 206.29 456.81 203.983 456.81M203.983 448.964C 201.969 448.964 200.337 450.596 200.337 452.61C 200.337 454.624 201.969 456.256 203.983 456.256C 205.997 456.256 207.629 454.624 207.629 452.61C 207.629 450.596 205.997 448.964 203.983 448.964" stroke="none" fill="#000000" fill-rule="nonzero" /></g><g clip-path="url(#24)"><path id="72" transform="matrix(1 0 0 -1 0 834)" d="M298.642 456.81C 296.335 456.81 294.465 454.94 294.465 452.633C 294.465 450.326 296.335 448.456 298.642 448.456C 300.949 448.456 302.819 450.326 302.819 452.633C 302.819 454.94 300.949 456.81 298.642 456.81M298.642 448.964C 296.628 448.964 294.996 450.596 294.996 452.61C 294.996 454.624 296.628 456.256 298.642 456.256C 300.656 456.256 302.288 454.624 302.288 452.61C 302.288 450.596 300.656 448.964 298.642 448.964" stroke="none" fill="#000000" fill-rule="nonzero" /></g><g clip-path="url(#25)"><path id="74" transform="matrix(1 0 0 -1 0 834)" d="M345.464 456.81C 343.157 456.81 341.287 454.94 341.287 452.633C 341.287 450.326 343.157 448.456 345.464 448.456C 347.771 448.456 349.641 450.326 349.641 452.633C 349.641 454.94 347.771 456.81 345.464 456.81M345.464 448.964C 343.45 448.964 341.818 450.596 341.818 452.61C 341.818 454.624 343.45 456.256 345.464 456.256C 347.478 456.256 349.11 454.624 349.11 452.61C 349.11 450.596 347.478 448.964 345.464 448.964" stroke="none" fill="#000000" fill-rule="nonzero" /></g><g clip-path="url(#26)"><path id="76" transform="matrix(1 0 0 -1 0 834)" d="M252.607 456.787C 250.3 456.787 248.43 454.917 248.43 452.61C 248.43 450.303 250.3 448.433 252.607 448.433C 254.914 448.433 256.784 450.303 256.784 452.61C 256.784 454.917 254.914 456.787 252.607 456.787M252.607 448.941C 250.593 448.941 248.961 450.573 248.961 452.587C 248.961 454.601 250.593 456.233 252.607 456.233C 254.621 456.233 256.253 454.601 256.253 452.587C 256.253 450.573 254.621 448.941 252.607 448.941" stroke="none" fill="#000000" fill-rule="nonzero" /></g><g clip-path="url(#27)"></g><g clip-path="url(#28)"><g transform="matrix(1.006449 0 0 0.9985386 356.123 331.8443)"><g transform="matrix(1 0 0 1 0 0)"><image x="0" y="0" xlink:href="img_09.png" width="37" height="57" /></g></g></g><g clip-path="url(#29)"></g><g clip-path="url(#30)"><g transform="matrix(1.006449 0 0 0.9985386 356.123 551.8133)"><g transform="matrix(1 0 0 1 0 0)"><image x="0" y="0" xlink:href="img_09.png" width="37" height="57" /></g></g></g><g clip-path="url(#31)"></g><g clip-path="url(#32)"><g transform="matrix(1.023622 0 0 0.9973868 99.7394 659.6423)"><g transform="matrix(1 0 0 1 0 0)"><image x="0" y="0" xlink:href="img_10.png" width="27" height="38" /></g></g></g><g clip-path="url(#33)"></g><g clip-path="url(#34)"><g transform="matrix(1.00955 0 0 1.006193 95.063 351.8836)"><g transform="matrix(1 0 0 1 0 0)"><image x="0" y="0" xlink:href="img_11.png" width="20" height="28" /></g></g></g><g clip-path="url(#35)"></g><g clip-path="url(#36)"><g transform="matrix(1.00872 0 0 1.005979 95.0756 378.1106)"><g transform="matrix(1 0 0 1 0 0)"><image x="0" y="0" xlink:href="img_12.png" width="20" height="28" /></g></g></g><g clip-path="url(#37)"></g><g clip-path="url(#38)"><g transform="matrix(1.00882 0 0 1.005482 95.0783 404.3345)"><g transform="matrix(1 0 0 1 0 0)"><image x="0" y="0" xlink:href="img_13.png" width="20" height="28" /></g></g></g><g clip-path="url(#39)"></g><g clip-path="url(#40)"><g transform="matrix(1.00862 0 0 1.005454 95.07391 430.5533)"><g transform="matrix(1 0 0 1 0 0)"><image x="0" y="0" xlink:href="img_14.png" width="20" height="28" /></g></g></g><g clip-path="url(#41)"></g><g clip-path="url(#42)"><g transform="matrix(1.022852 0 0 0.9927375 95.0715 456.1344)"><g transform="matrix(1 0 0 1 0 0)"><image x="0" y="0" xlink:href="img_15.png" width="27" height="32" /></g></g></g><g clip-path="url(#43)"></g><g clip-path="url(#44)"><g transform="matrix(-1.023622 0 0 0.9973868 391.765 659.6423)"><g transform="matrix(1 0 0 1 0 0)"><image x="0" y="0" xlink:href="img_10.png" width="27" height="38" /></g></g></g><g transform="matrix(1.002648 0 0 1.004761 230.724 147.858)"><g transform="matrix(1 0 0 1 0 0)"><image x="0" y="0" xlink:href="img_16.png" width="82" height="113" /></g></g><g transform="matrix(1.001978 0 0 1.004769 119.027 151.179)"><g transform="matrix(1 0 0 1 0 0)"><image x="0" y="0" xlink:href="img_17.png" width="68" height="108" /></g></g><path id="1022" transform="matrix(1 0 0 -1 0 834)" d="M123.882 633.948L123.882 651.935" stroke="#000000" stroke-width="0.8100001" fill="none" /><path id="1023" transform="matrix(1 0 0 -1 0 834)" d="M125.381 650.7971L123.882 651.434L122.382 650.7971L123.882 654.351z" stroke="none" fill="#000000" fill-rule="nonzero" /><g clip-path="url(#45)"><path id="1024" transform="matrix(1 0 0 -1 0 834)" d="M181.736 654.351C 181.736 640.209 193.2 628.7451 207.342 628.7451C 221.485 628.7451 232.949 640.209 232.949 654.351C 232.949 668.493 221.485 679.957 207.342 679.957C 193.2 679.957 181.736 668.493 181.736 654.351" stroke="none" fill="#FFFFFF" fill-rule="nonzero" /></g><g clip-path="url(#46)"></g><g clip-path="url(#47)"><g transform="matrix(1.010659 0 0 1.001068 182.432 154.175)"><g transform="matrix(1 0 0 1 0 0)"><image x="0" y="0" xlink:href="img_18.png" width="54" height="103" /></g></g></g><g clip-path="url(#48)"><path id="1026" transform="matrix(1 0 0 -1 0 834)" d="M181.736 654.351C 181.736 640.209 193.2 628.7451 207.342 628.7451C 221.485 628.7451 232.949 640.209 232.949 654.351C 232.949 668.493 221.485 679.957 207.342 679.957C 193.2 679.957 181.736 668.493 181.736 654.351z" stroke="#000000" stroke-width="0.8100001" fill="none" /></g><path id="1028" transform="matrix(1 0 0 -1 0 834)" d="M241.547 646.893L241.547 625.992" stroke="#000000" stroke-width="0.8100001" fill="none" /><path id="1029" transform="matrix(1 0 0 -1 0 834)" d="M240.048 645.756L241.547 646.393L243.046 645.756L241.547 649.31z" stroke="none" fill="#000000" fill-rule="nonzero" /><g clip-path="url(#49)"><path id="1030" transform="matrix(1 0 0 -1 0 834)" d="M306.206 652.732C 306.206 637.99 317.89 626.038 332.303 626.038C 346.716 626.038 358.4 637.99 358.4 652.732C 358.4 667.4741 346.716 679.426 332.303 679.426C 317.89 679.426 306.206 667.4741 306.206 652.732" stroke="none" fill="#FFFFFF" fill-rule="nonzero" /></g><g clip-path="url(#50)"></g><g clip-path="url(#51)"><g transform="matrix(0.9993491 0 0 1.008664 307.098 153.4162)"><g transform="matrix(1 0 0 1 0 0)"><image x="0" y="0" xlink:href="img_19.png" width="53" height="84" /></g></g></g><g clip-path="url(#52)"><path id="1032" transform="matrix(1 0 0 -1 0 834)" d="M306.206 652.732C 306.206 637.99 317.89 626.038 332.303 626.038C 346.716 626.038 358.4 637.99 358.4 652.732C 358.4 667.4741 346.716 679.426 332.303 679.426C 317.89 679.426 306.206 667.4741 306.206 652.732z" stroke="#000000" stroke-width="0.8100001" fill="none" /><path id="1033" transform="matrix(1 0 0 -1 0 834)" d="M128.162 692.041C 125.798 692.041 123.882 690.125 123.882 687.761C 123.882 685.398 125.798 683.482 128.162 683.482C 130.526 683.482 132.442 685.398 132.442 687.761C 132.442 690.125 130.526 692.041 128.162 692.041M128.162 684.002C 126.099 684.002 124.426 685.674 124.426 687.738C 124.426 689.801 126.099 691.4741 128.162 691.4741C 130.225 691.4741 131.898 689.801 131.898 687.738C 131.898 685.674 130.225 684.002 128.162 684.002" stroke="none" fill="#000000" fill-rule="nonzero" /></g><g clip-path="url(#53)"><path id="1035" transform="matrix(1 0 0 -1 0 834)" d="M181.736 691.901C 179.372 691.901 177.456 689.985 177.456 687.621C 177.456 685.258 179.372 683.342 181.736 683.342C 184.1 683.342 186.016 685.258 186.016 687.621C 186.016 689.985 184.1 691.901 181.736 691.901M181.736 683.862C 179.673 683.862 178 685.535 178 687.598C 178 689.661 179.673 691.334 181.736 691.334C 183.799 691.334 185.472 689.661 185.472 687.598C 185.472 685.535 183.799 683.862 181.736 683.862" stroke="none" fill="#000000" fill-rule="nonzero" /></g><g clip-path="url(#54)"><path id="1037" transform="matrix(1 0 0 -1 0 834)" d="M262.585 691.901C 260.221 691.901 258.305 689.985 258.305 687.621C 258.305 685.258 260.221 683.342 262.585 683.342C 264.949 683.342 266.865 685.258 266.865 687.621C 266.865 689.985 264.949 691.901 262.585 691.901M262.585 683.862C 260.522 683.862 258.849 685.535 258.849 687.598C 258.849 689.661 260.522 691.334 262.585 691.334C 264.648 691.334 266.321 689.661 266.321 687.598C 266.321 685.535 264.648 683.862 262.585 683.862" stroke="none" fill="#000000" fill-rule="nonzero" /></g><g clip-path="url(#55)"><path id="1039" transform="matrix(1 0 0 -1 0 834)" d="M306.368 691.901C 304.004 691.901 302.088 689.985 302.088 687.622C 302.088 685.258 304.004 683.342 306.368 683.342C 308.732 683.342 310.648 685.258 310.648 687.622C 310.648 689.985 308.732 691.901 306.368 691.901M306.368 683.862C 304.305 683.862 302.632 685.535 302.632 687.598C 302.632 689.661 304.305 691.334 306.368 691.334C 308.431 691.334 310.104 689.661 310.104 687.598C 310.104 685.535 308.431 683.862 306.368 683.862" stroke="none" fill="#000000" fill-rule="nonzero" /></g><g clip-path="url(#56)"></g><g clip-path="url(#57)"><g transform="matrix(1.006449 0 0 0.9985386 356.322 111.3763)"><g transform="matrix(1 0 0 1 0 0)"><image x="0" y="0" xlink:href="img_09.png" width="37" height="57" /></g></g></g><g clip-path="url(#58)"></g><g clip-path="url(#59)"><g transform="matrix(-1.030931 0 0 0.9993387 117.275 205.6005)"><g transform="matrix(1 0 0 1 0 0)"><image x="0" y="0" xlink:href="img_20.png" width="23" height="31" /></g></g></g><g clip-path="url(#60)"></g><g clip-path="url(#61)"><g transform="matrix(1.030931 0 0 0.9993387 213.977 205.6005)"><g transform="matrix(1 0 0 1 0 0)"><image x="0" y="0" xlink:href="img_20.png" width="23" height="31" /></g></g></g><g clip-path="url(#62)"></g><g clip-path="url(#63)"><g transform="matrix(-1.030817 0 0 1.006519 117.257 236.4749)"><g transform="matrix(1 0 0 1 0 0)"><image x="0" y="0" xlink:href="img_21.png" width="23" height="31" /></g></g></g><g clip-path="url(#64)"></g><g clip-path="url(#65)"><g transform="matrix(1.030817 0 0 1.006519 213.994 236.4749)"><g transform="matrix(1 0 0 1 0 0)"><image x="0" y="0" xlink:href="img_21.png" width="23" height="31" /></g></g></g><path id="1533" transform="matrix(1 0 0 -1 0 834)" d="M633 15L633 0M633 819L633 834M21 15L21 0M21 819L21 834M639 21L654 21M15 21L0 21M639 813L654 813M15 813L0 813" stroke="#000000" stroke-width="1.25" fill="none" /><path id="1534" transform="matrix(1 0 0 -1 0 834)" d="M633 15L633 0M633 819L633 834M21 15L21 0M21 819L21 834M639 21L654 21M15 21L0 21M639 813L654 813M15 813L0 813" stroke="#000000" stroke-width="0.25" fill="none" /><path id="1535" transform="matrix(1 0 0 -1 0 834)" d="M32.2781 9.28203C 32.2781 9.516021 32.2961 9.58203 32.3559 9.62383C 32.416 9.66602 32.5719 9.69609 32.8238 9.69609C 33.2262 9.69609 33.5738 9.62383 33.8441 9.45C 34.3238 9.167971 34.552 8.63398 34.552 8.016021C 34.552 7.05586 34.0359 6.21602 32.9141 6.21602C 32.4762 6.21602 32.2781 6.33008 32.2781 6.78594zM31.252 9.900001L31.252 9.726171C 31.7141 9.68984 31.7621 9.66602 31.7621 9.150001L31.7621 9.150001L31.7621 6.74414C 31.7621 6.23398 31.7141 6.19805 31.198 6.16211L31.198 6.16211L31.198 6L31.198 6L32.6199 6C 33.3578 6 33.952 6.15 34.402 6.49805C 34.8641 6.84609 35.1398 7.38008 35.1398 8.1C 35.1398 8.664061 34.9301 9.101951 34.6359 9.38984C 34.2641 9.74414 33.7 9.900001 32.9379 9.900001z" stroke="#000000" stroke-width="0.4" fill="none" /><path id="1536" transform="matrix(1 0 0 -1 0 834)" d="M38.3801 6.97813C 38.2898 6.70195 38.1758 6.51016 38.0738 6.38984C 37.9359 6.23398 37.732 6.20391 37.402 6.20391C 37.15 6.20391 36.9461 6.21602 36.8258 6.28203C 36.718 6.34219 36.6879 6.46211 36.6879 6.78594L36.6879 6.78594L36.6879 9.15586C 36.6879 9.66602 36.7418 9.69609 37.216 9.73203L37.216 9.73203L37.216 9.900001L37.216 9.900001L35.65 9.900001L35.65 9.900001L35.65 9.73203C 36.1359 9.69609 36.1777 9.66602 36.1777 9.15586L36.1777 9.15586L36.1777 6.75586C 36.1777 6.24609 36.1301 6.20391 35.6258 6.16797L35.6258 6.16797L35.6258 6L35.6258 6L38.3438 6C 38.398 6.18594 38.5238 6.75586 38.5598 6.94219z" stroke="#000000" stroke-width="0.4" fill="none" /><path id="1537" transform="matrix(1 0 0 -1 0 834)" d="M41.0918 9.023829C 41.0438 9.40195 41.0141 9.63594 40.9898 9.851951C 40.7617 9.92383 40.5098 9.989841 40.234 9.989841C 39.4598 9.989841 38.998 9.49805 38.998 8.921881C 38.998 8.24414 39.6039 7.94414 39.9879 7.73984C 40.4379 7.5 40.768 7.28984 40.768 6.84609C 40.768 6.40781 40.498 6.12617 40.048 6.12617C 39.4301 6.12617 39.1598 6.73203 39.0641 7.09805L39.0641 7.09805L38.8898 7.05586C 38.9258 6.767971 39.0039 6.25195 39.052 6.12617C 39.1059 6.09609 39.1961 6.05391 39.3461 6C 39.4961 5.95781 39.6879 5.91016 39.934 5.91016C 40.732 5.91016 41.266 6.41406 41.266 7.04414C 41.266 7.71602 40.6961 7.99805 40.2277 8.23789C 39.7539 8.48398 39.466 8.68789 39.466 9.12617C 39.466 9.45 39.6699 9.78594 40.132 9.78594C 40.6539 9.78594 40.8098 9.371881 40.918 8.98789z" stroke="#000000" stroke-width="0.4" fill="none" /><path id="1538" transform="matrix(1 0 0 -1 0 834)" d="M46.648 6L46.648 6.16797C 46.1258 6.21602 46.1078 6.24609 46.0898 6.88203L46.0898 6.88203L46.0301 9.05391C 46.0117 9.671881 46.0539 9.68398 46.582 9.73203L46.582 9.73203L46.582 9.900001L46.582 9.900001L45.5617 9.900001L45.5617 9.900001L44.1758 6.9L44.1758 6.9L42.8078 9.900001L42.8078 9.900001L41.8238 9.900001L41.8238 9.900001L41.8238 9.73203C 42.3699 9.67813 42.4 9.653911 42.3461 8.87383L42.3461 8.87383L42.2617 7.626171C 42.2141 7.00195 42.1777 6.73789 42.148 6.528131C 42.1059 6.27617 41.9859 6.21016 41.6379 6.16797L41.6379 6.16797L41.6379 6L41.6379 6L43.0359 6L43.0359 6L43.0359 6.16797C 42.6398 6.21016 42.4961 6.25195 42.484 6.53984C 42.4777 6.78008 42.4777 7.04414 42.502 7.53594L42.502 7.53594L42.5918 9.24609L42.5918 9.24609L42.6039 9.24609L42.6039 9.24609L43.948 6.04219L43.948 6.04219L44.068 6.04219L44.068 6.04219L45.532 9.33008L45.532 9.33008L45.5559 9.33008L45.5559 9.33008L45.5738 6.88203C 45.5801 6.24609 45.5559 6.21602 45.0699 6.16797L45.0699 6.16797L45.0699 6z" stroke="#000000" stroke-width="0.4" fill="none" /><path id="1539" transform="matrix(1 0 0 -1 0 834)" d="M51.8738 7.05586C 51.5738 6.45586 51.2496 6.12617 50.6379 6.12617C 49.7258 6.12617 49.0656 6.89414 49.0656 8.016021C 49.0656 8.92813 49.5996 9.773829 50.602 9.773829C 51.2496 9.773829 51.6098 9.516021 51.7656 8.88008L51.7656 8.88008L51.9457 8.921881C 51.9098 9.24609 51.8738 9.48594 51.8258 9.828131C 51.6578 9.85781 51.2496 9.989841 50.7637 9.989841C 49.4258 9.989841 48.4539 9.15586 48.4539 7.89609C 48.4539 6.94219 49.1078 5.91016 50.602 5.91016C 51.034 5.91016 51.5379 6.03008 51.7059 6.07188C 51.8137 6.26992 51.9637 6.71406 52.0477 6.98984z" stroke="#000000" stroke-width="0.4" fill="none" /><path id="1540" transform="matrix(1 0 0 -1 0 834)" d="M54.3398 9.773829C 55.1258 9.773829 55.7855 9.101951 55.7855 7.83594C 55.7855 6.68398 55.1855 6.12617 54.5195 6.12617C 53.6738 6.12617 53.0559 6.94805 53.0559 8.076171C 53.0559 9.19805 53.6676 9.773829 54.3398 9.773829zM54.4598 9.989841C 53.1996 9.989841 52.4438 8.98789 52.4438 7.90781C 52.4438 6.75586 53.3078 5.91016 54.3938 5.91016C 55.4918 5.91016 56.3977 6.70195 56.3977 7.99805C 56.3977 9.19805 55.4797 9.989841 54.4598 9.989841z" stroke="#000000" stroke-width="0.4" fill="none" /><path id="1541" transform="matrix(1 0 0 -1 0 834)" d="M61.8277 6L61.8277 6.16797C 61.3059 6.21602 61.2879 6.24609 61.2695 6.88203L61.2695 6.88203L61.2098 9.05391C 61.1918 9.671881 61.2336 9.68398 61.7617 9.73203L61.7617 9.73203L61.7617 9.900001L61.7617 9.900001L60.7418 9.900001L60.7418 9.900001L59.3559 6.9L59.3559 6.9L57.9879 9.900001L57.9879 9.900001L57.0035 9.900001L57.0035 9.900001L57.0035 9.73203C 57.5496 9.67813 57.5797 9.653911 57.5258 8.87383L57.5258 8.87383L57.4418 7.626171C 57.3938 7.00195 57.3578 6.73789 57.3277 6.528131C 57.2855 6.27617 57.1656 6.21016 56.8176 6.16797L56.8176 6.16797L56.8176 6L56.8176 6L58.2156 6L58.2156 6L58.2156 6.16797C 57.8195 6.21016 57.6758 6.25195 57.6637 6.53984C 57.6578 6.78008 57.6578 7.04414 57.6816 7.53594L57.6816 7.53594L57.7719 9.24609L57.7719 9.24609L57.7836 9.24609L57.7836 9.24609L59.1277 6.04219L59.1277 6.04219L59.2477 6.04219L59.2477 6.04219L60.7117 9.33008L60.7117 9.33008L60.7355 9.33008L60.7355 9.33008L60.7535 6.88203C 60.7598 6.24609 60.7355 6.21602 60.2496 6.16797L60.2496 6.16797L60.2496 6z" stroke="#000000" stroke-width="0.4" fill="none" /><path id="1542" transform="matrix(1 0 0 -1 0 834)" d="M63.8258 6L63.8258 6.16797C 63.3336 6.20391 63.2855 6.23398 63.2855 6.75L63.2855 6.75L63.2855 9.150001C 63.2855 9.66016 63.3336 9.69609 63.8258 9.73203L63.8258 9.73203L63.8258 9.900001L63.8258 9.900001L62.2355 9.900001L62.2355 9.900001L62.2355 9.73203C 62.7277 9.69609 62.7758 9.66016 62.7758 9.150001L62.7758 9.150001L62.7758 6.75C 62.7758 6.23984 62.7277 6.20391 62.2355 6.16797L62.2355 6.16797L62.2355 6z" stroke="#000000" stroke-width="0.4" fill="none" /><path id="1543" transform="matrix(1 0 0 -1 0 834)" d="M66.5074 9.023829C 66.4598 9.40195 66.4297 9.63594 66.4055 9.851951C 66.1777 9.92383 65.9258 9.989841 65.6496 9.989841C 64.8758 9.989841 64.4137 9.49805 64.4137 8.921881C 64.4137 8.24414 65.0195 7.94414 65.4035 7.73984C 65.8535 7.5 66.1836 7.28984 66.1836 6.84609C 66.1836 6.40781 65.9137 6.12617 65.46371 6.12617C 64.8457 6.12617 64.5758 6.73203 64.4797 7.09805L64.4797 7.09805L64.3055 7.05586C 64.3418 6.767971 64.4195 6.25195 64.46761 6.12617C 64.52151 6.09609 64.6117 6.05391 64.7617 6C 64.91171 5.95781 65.1035 5.91016 65.3496 5.91016C 66.1477 5.91016 66.6816 6.41406 66.6816 7.04414C 66.6816 7.71602 66.1117 7.99805 65.6438 8.23789C 65.1695 8.48398 64.8816 8.68789 64.8816 9.12617C 64.8816 9.45 65.0855 9.78594 65.5477 9.78594C 66.0695 9.78594 66.2258 9.371881 66.3336 8.98789z" stroke="#000000" stroke-width="0.4" fill="none" /><path id="1544" transform="matrix(1 0 0 -1 0 834)" d="M69.4055 7.68008L68.3016 7.68008C 68.4816 8.171881 68.6734 8.69414 68.8656 9.21016L68.8656 9.21016L68.8777 9.21016zM70.9355 6L70.9355 6.16797C 70.5457 6.20391 70.46761 6.25781 70.2758 6.77383C 69.89181 7.81797 69.4895 8.95781 69.11761 9.989841L69.11761 9.989841L68.9316 9.93594L68.9316 9.93594L67.68951 6.78594C 67.4797 6.25781 67.3957 6.22188 67.0176 6.16797L67.0176 6.16797L67.0176 6L67.0176 6L68.3195 6L68.3195 6L68.3195 6.16797C 67.8695 6.21016 67.81561 6.26992 67.9477 6.64805C 68.0258 6.9 68.1156 7.15195 68.2117 7.42188L68.2117 7.42188L69.4895 7.42188C 69.62151 7.05586 69.74181 6.73203 69.8195 6.49805C 69.8977 6.26406 69.8438 6.21602 69.4656 6.16797L69.4656 6.16797L69.4656 6z" stroke="#000000" stroke-width="0.4" fill="none" /><path id="1545" transform="matrix(1 0 0 -1 0 834)" d="M71.7273 5.92813C 71.9195 5.92813 72.06371 6.06602 72.06371 6.27617C 72.06371 6.46797 71.9195 6.61797 71.7273 6.61797C 71.5355 6.61797 71.3914 6.46797 71.3914 6.27617C 71.3914 6.06602 71.5355 5.92813 71.7273 5.92813z" stroke="#000000" stroke-width="0.4" fill="none" /><path id="1546" transform="matrix(1 0 0 -1 0 834)" d="M73.9234 6L73.9234 6.15586C 73.53951 6.19219 73.4977 6.22813 73.4977 6.63594L73.4977 6.63594L73.4977 8.70586C 73.2336 8.59805 72.9516 8.51992 72.6453 8.471881L72.6453 8.471881L72.6453 8.328131C 73.0055 8.26797 73.0234 8.24414 73.0234 7.871881L73.0234 7.871881L73.0234 6.63594C 73.0234 6.22813 72.9816 6.19219 72.6035 6.15586L72.6035 6.15586L72.6035 6zM73.2215 9.216021C 73.3953 9.216021 73.52731 9.36016 73.52731 9.52188C 73.52731 9.70195 73.3953 9.83398 73.2273 9.83398C 73.06561 9.83398 72.9215 9.70195 72.9215 9.52188C 72.9215 9.36016 73.06561 9.216021 73.2215 9.216021z" stroke="#000000" stroke-width="0.4" fill="none" /><path id="1547" transform="matrix(1 0 0 -1 0 834)" d="M77.1574 6L77.1574 6.15586C 76.8094 6.19219 76.7793 6.21602 76.7793 6.62383L76.7793 6.62383L76.7793 7.78203C 76.7793 8.36406 76.4793 8.69414 76.0055 8.69414C 75.8313 8.69414 75.67541 8.621881 75.5074 8.51406C 75.3574 8.41211 75.2254 8.32188 75.1055 8.23203L75.1055 8.23203L75.1055 8.712111C 74.8414 8.59219 74.5594 8.51992 74.27151 8.466021L74.27151 8.466021L74.27151 8.328131C 74.5953 8.26797 74.6313 8.25 74.6313 7.86602L74.6313 7.86602L74.6313 6.62383C 74.6313 6.22813 74.6016 6.19805 74.19341 6.15586L74.19341 6.15586L74.19341 6L74.19341 6L75.4953 6L75.4953 6L75.4953 6.15586C 75.1414 6.19219 75.1055 6.21602 75.1055 6.62383L75.1055 6.62383L75.1055 8.03398C 75.2855 8.18984 75.5195 8.33984 75.7594 8.33984C 76.1613 8.33984 76.3055 8.069921 76.3055 7.65586L76.3055 7.65586L76.3055 6.65391C 76.3055 6.23984 76.2633 6.19219 75.9094 6.15586L75.9094 6.15586L75.9094 6z" stroke="#000000" stroke-width="0.4" fill="none" /><path id="1548" transform="matrix(1 0 0 -1 0 834)" d="M79.4734 6.51016C 79.32931 6.40195 79.1133 6.30586 78.8973 6.30586C 78.5133 6.30586 78.0754 6.65391 78.0754 7.36797C 78.0754 8.23789 78.57931 8.471881 78.8555 8.471881C 79.0832 8.471881 79.32931 8.37617 79.4734 8.16602zM80.4035 6.30586L80.2113 6.32383C 79.9895 6.34805 79.9473 6.37813 79.9473 6.68984L79.9473 6.68984L79.9473 10.2719C 79.7254 10.1941 79.3234 10.1039 79.0113 10.0621L79.0113 10.0621L79.0113 9.917971C 79.44341 9.88789 79.4734 9.869921 79.4734 9.47383L79.4734 9.47383L79.4734 8.628131C 79.3355 8.67617 79.1613 8.69414 79.0773 8.69414C 78.2613 8.69414 77.5293 8.03984 77.5293 7.20586C 77.5293 6.36602 78.1594 5.92813 78.6395 5.92813C 78.7113 5.92813 78.87341 5.96406 79.1074 6.10195L79.1074 6.10195L79.4734 6.31797L79.4734 6.31797L79.4734 5.92813C 79.8215 6.05391 80.27151 6.13203 80.4035 6.15586z" stroke="#000000" stroke-width="0.4" fill="none" /><path id="1549" transform="matrix(1 0 0 -1 0 834)" d="M81.3813 8.24414C 81.4895 8.310161 81.6813 8.35781 81.84921 8.35781C 82.34731 8.35781 82.7676 7.96211 82.7676 7.278131C 82.7676 6.58203 82.4492 6.15586 81.9516 6.15586C 81.6336 6.16211 81.4535 6.37188 81.4176 6.49219C 81.3934 6.54609 81.3813 6.60586 81.3813 6.69609zM81.3813 8.42383L81.3813 10.2719C 81.1594 10.1941 80.7934 10.098 80.5113 10.0621L80.5113 10.0621L80.5113 9.92383C 80.8953 9.88789 80.9074 9.851951 80.9074 9.48008L80.9074 9.48008L80.9074 6.14414C 81.2375 5.98789 81.5434 5.92813 81.78951 5.92813C 82.59341 5.92813 83.2953 6.55195 83.2953 7.43398C 83.2953 8.14219 82.7555 8.69414 82.1133 8.69414C 82.0473 8.69414 81.9633 8.67617 81.86761 8.63398z" stroke="#000000" stroke-width="0.4" fill="none" /><path id="1550" transform="matrix(1 0 0 -1 0 834)" d="M90.0754 6.83984C 89.8953 6.46211 89.8172 6.43789 89.4934 6.43789L89.4934 6.43789L88.3711 6.43789L88.3711 6.43789L89.223 7.33203C 89.77541 7.91992 90.0152 8.273829 90.0152 8.79609C 90.0152 9.42617 89.5352 9.810161 89.007 9.810161C 88.6594 9.810161 88.3773 9.653911 88.1973 9.45586L88.1973 9.45586L87.8551 8.96992L87.8551 8.96992L87.9871 8.85C 88.1434 9.08398 88.3953 9.40781 88.8031 9.40781C 89.24731 9.40781 89.5113 9.11406 89.5113 8.61016C 89.5113 8.09414 89.1332 7.60195 88.7613 7.15781C 88.4613 6.81016 88.1254 6.46797 87.7891 6.13789L87.7891 6.13789L87.7891 6L87.7891 6L90.0332 6C 90.1051 6.26992 90.1652 6.53398 90.2434 6.78594z" stroke="#000000" stroke-width="0.4" fill="none" /><path id="1551" transform="matrix(1 0 0 -1 0 834)" d="M91.857 9.61211C 92.4391 9.61211 92.5953 8.86797 92.5953 8.33984C 92.5953 8.21992 92.5891 8.076171 92.5711 7.94414C 92.4453 7.84805 92.241 7.77617 92.0313 7.77617C 91.52731 7.77617 91.2273 8.214061 91.2273 8.74219C 91.2273 9.09609 91.3953 9.61211 91.857 9.61211zM91.9352 9.810161C 91.1613 9.810161 90.7113 9.10781 90.7113 8.53203C 90.7113 7.90195 91.1492 7.43398 91.7852 7.43398C 91.8992 7.43398 92.0133 7.45781 92.1453 7.53008L92.1453 7.53008L92.5473 7.74609C 92.34921 6.83398 91.6953 6.23398 90.8371 6.08984L90.8371 6.08984L90.8672 5.91016C 91.0172 5.91016 91.3832 5.96992 91.707 6.10195C 92.5172 6.42617 93.123 7.20586 93.123 8.310161C 93.123 9.12617 92.6852 9.810161 91.9352 9.810161z" stroke="#000000" stroke-width="0.4" fill="none" /><path id="1552" transform="matrix(1 0 0 -1 0 834)" d="M96.0453 9.73789L93.75311 9.73789C 93.7293 9.48008 93.6992 9.180079 93.6453 8.85L93.6453 8.85L93.8191 8.85C 93.9633 9.24609 93.9992 9.3 94.3953 9.3L94.3953 9.3L95.691 9.3C 95.2172 8.25586 94.5391 7.01406 93.9094 5.99414L93.9094 5.99414L93.9512 5.92813L93.9512 5.92813L94.3953 5.98789C 94.9711 7.22383 95.5293 8.44805 96.09341 9.66602z" stroke="#000000" stroke-width="0.4" fill="none" /><path id="1571" transform="matrix(1 0 0 -1 0 834)" d="M554.472 6.83984C 554.292 6.46211 554.2141 6.43789 553.89 6.43789L553.89 6.43789L552.768 6.43789L552.768 6.43789L553.6201 7.33203C 554.1721 7.91992 554.412 8.273829 554.412 8.79609C 554.412 9.42617 553.932 9.810161 553.404 9.810161C 553.056 9.810161 552.774 9.653911 552.594 9.45586L552.594 9.45586L552.252 8.96992L552.252 8.96992L552.384 8.85C 552.54 9.08398 552.792 9.40781 553.2 9.40781C 553.644 9.40781 553.908 9.11406 553.908 8.61016C 553.908 8.09414 553.53 7.60195 553.158 7.15781C 552.858 6.81016 552.522 6.46797 552.186 6.13789L552.186 6.13789L552.186 6L552.186 6L554.43 6C 554.502 6.26992 554.562 6.53398 554.64 6.78594z" stroke="#000000" stroke-width="0.4" fill="none" /><path id="1572" transform="matrix(1 0 0 -1 0 834)" d="M555.792 9.3L557.19 9.3L557.19 9.3L557.346 9.68984L557.346 9.68984L557.31 9.73789L557.31 9.73789L555.6 9.73789L555.6 9.73789L555.366 7.90781C 555.504 7.96211 555.732 8.028131 555.984 8.028131C 556.638 8.028131 556.962 7.65 556.962 7.121881C 556.962 6.67188 556.71 6.23398 556.2 6.23398C 555.834 6.23398 555.588 6.42617 555.462 6.53984C 555.402 6.58789 555.354 6.58203 555.3 6.53984C 555.234 6.48008 555.18 6.40195 555.174 6.34219C 555.162 6.26992 555.192 6.22188 555.27 6.13789C 555.36 6.05391 555.612 5.92813 555.888 5.92813C 556.206 5.93398 556.608 6.08984 556.932 6.35391C 557.298 6.65391 557.466 6.99609 557.466 7.35586C 557.466 7.84805 557.076 8.369921 556.308 8.369921C 556.146 8.369921 555.864 8.273829 555.636 8.18984z" stroke="#000000" stroke-width="0.4" fill="none" /><path id="1573" transform="matrix(1 0 0 -1 0 834)" d="M559.548 9.989841L559.212 9.989841L559.212 9.989841L557.91 5.73594L557.91 5.73594L558.246 5.73594z" stroke="#000000" stroke-width="0.4" fill="none" /><path id="1574" transform="matrix(1 0 0 -1 0 834)" d="M561.18 9.61211C 561.72 9.61211 561.8701 8.72383 561.8701 7.871881C 561.8701 7.03203 561.726 6.13203 561.186 6.13203C 560.664 6.13203 560.49 7.03789 560.49 7.87813C 560.49 8.712111 560.634 9.61211 561.18 9.61211zM561.186 9.810161C 560.286 9.810161 559.956 8.74219 559.956 7.86602C 559.956 6.91797 560.28 5.92813 561.186 5.92813C 562.086 5.92813 562.404 6.99609 562.404 7.871881C 562.404 8.79609 562.086 9.810161 561.186 9.810161z" stroke="#000000" stroke-width="0.4" fill="none" /><path id="1575" transform="matrix(1 0 0 -1 0 834)" d="M564 9.61211C 564.582 9.61211 564.738 8.86797 564.738 8.33984C 564.738 8.21992 564.732 8.076171 564.7141 7.94414C 564.588 7.84805 564.384 7.77617 564.174 7.77617C 563.67 7.77617 563.3701 8.214061 563.3701 8.74219C 563.3701 9.09609 563.538 9.61211 564 9.61211zM564.078 9.810161C 563.304 9.810161 562.854 9.10781 562.854 8.53203C 562.854 7.90195 563.292 7.43398 563.928 7.43398C 564.042 7.43398 564.156 7.45781 564.288 7.53008L564.288 7.53008L564.69 7.74609C 564.492 6.83398 563.838 6.23398 562.98 6.08984L562.98 6.08984L563.01 5.91016C 563.16 5.91016 563.526 5.96992 563.85 6.10195C 564.66 6.42617 565.2661 7.20586 565.2661 8.310161C 565.2661 9.12617 564.828 9.810161 564.078 9.810161z" stroke="#000000" stroke-width="0.4" fill="none" /><path id="1576" transform="matrix(1 0 0 -1 0 834)" d="M567.294 9.989841L566.958 9.989841L566.958 9.989841L565.656 5.73594L565.656 5.73594L565.992 5.73594z" stroke="#000000" stroke-width="0.4" fill="none" /><path id="1577" transform="matrix(1 0 0 -1 0 834)" d="M569.9641 6.83984C 569.784 6.46211 569.706 6.43789 569.382 6.43789L569.382 6.43789L568.26 6.43789L568.26 6.43789L569.112 7.33203C 569.664 7.91992 569.904 8.273829 569.904 8.79609C 569.904 9.42617 569.424 9.810161 568.896 9.810161C 568.548 9.810161 568.2661 9.653911 568.086 9.45586L568.086 9.45586L567.744 8.96992L567.744 8.96992L567.876 8.85C 568.032 9.08398 568.284 9.40781 568.692 9.40781C 569.136 9.40781 569.4 9.11406 569.4 8.61016C 569.4 8.09414 569.022 7.60195 568.65 7.15781C 568.35 6.81016 568.014 6.46797 567.678 6.13789L567.678 6.13789L567.678 6L567.678 6L569.9221 6C 569.994 6.26992 570.054 6.53398 570.132 6.78594z" stroke="#000000" stroke-width="0.4" fill="none" /><path id="1578" transform="matrix(1 0 0 -1 0 834)" d="M571.806 9.61211C 572.346 9.61211 572.496 8.72383 572.496 7.871881C 572.496 7.03203 572.352 6.13203 571.812 6.13203C 571.29 6.13203 571.116 7.03789 571.116 7.87813C 571.116 8.712111 571.26 9.61211 571.806 9.61211zM571.812 9.810161C 570.912 9.810161 570.582 8.74219 570.582 7.86602C 570.582 6.91797 570.906 5.92813 571.812 5.92813C 572.712 5.92813 573.03 6.99609 573.03 7.871881C 573.03 8.79609 572.712 9.810161 571.812 9.810161z" stroke="#000000" stroke-width="0.4" fill="none" /><path id="1579" transform="matrix(1 0 0 -1 0 834)" d="M575.556 6L575.556 6.16211C 575.01 6.20391 574.9741 6.25195 574.9741 6.68398L574.9741 6.68398L574.9741 9.810161C 574.644 9.67813 574.29 9.56406 573.906 9.49805L573.906 9.49805L573.906 9.36016L573.906 9.36016L574.194 9.34805C 574.458 9.33594 574.482 9.305861 574.482 8.99414L574.482 8.99414L574.482 6.68398C 574.482 6.25195 574.452 6.20391 573.906 6.16211L573.906 6.16211L573.906 6z" stroke="#000000" stroke-width="0.4" fill="none" /><path id="1580" transform="matrix(1 0 0 -1 0 834)" d="M578.814 9.73789L576.522 9.73789C 576.498 9.48008 576.468 9.180079 576.414 8.85L576.414 8.85L576.588 8.85C 576.732 9.24609 576.768 9.3 577.164 9.3L577.164 9.3L578.46 9.3C 577.986 8.25586 577.308 7.01406 576.678 5.99414L576.678 5.99414L576.72 5.92813L576.72 5.92813L577.164 5.98789C 577.74 7.22383 578.298 8.44805 578.862 9.66602z" stroke="#000000" stroke-width="0.4" fill="none" /><path id="1581" transform="matrix(1 0 0 -1 0 834)" d="M584.531 9.61211C 585.071 9.61211 585.221 8.72383 585.221 7.871881C 585.221 7.03203 585.077 6.13203 584.537 6.13203C 584.015 6.13203 583.841 7.03789 583.841 7.87813C 583.841 8.712111 583.985 9.61211 584.531 9.61211zM584.537 9.810161C 583.637 9.810161 583.307 8.74219 583.307 7.86602C 583.307 6.91797 583.631 5.92813 584.537 5.92813C 585.437 5.92813 585.755 6.99609 585.755 7.871881C 585.755 8.79609 585.437 9.810161 584.537 9.810161z" stroke="#000000" stroke-width="0.4" fill="none" /><path id="1582" transform="matrix(1 0 0 -1 0 834)" d="M588.449 6.83984C 588.269 6.46211 588.191 6.43789 587.867 6.43789L587.867 6.43789L586.7451 6.43789L586.7451 6.43789L587.597 7.33203C 588.149 7.91992 588.389 8.273829 588.389 8.79609C 588.389 9.42617 587.909 9.810161 587.381 9.810161C 587.033 9.810161 586.751 9.653911 586.571 9.45586L586.571 9.45586L586.229 8.96992L586.229 8.96992L586.361 8.85C 586.517 9.08398 586.769 9.40781 587.177 9.40781C 587.621 9.40781 587.885 9.11406 587.885 8.61016C 587.885 8.09414 587.507 7.60195 587.135 7.15781C 586.835 6.81016 586.499 6.46797 586.163 6.13789L586.163 6.13789L586.163 6L586.163 6L588.407 6C 588.479 6.26992 588.539 6.53398 588.617 6.78594z" stroke="#000000" stroke-width="0.4" fill="none" /><path id="1583" transform="matrix(1 0 0 -1 0 834)" d="M589.5471 5.92813C 589.739 5.92813 589.883 6.06602 589.883 6.27617C 589.883 6.46797 589.739 6.61797 589.5471 6.61797C 589.355 6.61797 589.211 6.46797 589.211 6.27617C 589.211 6.06602 589.355 5.92813 589.5471 5.92813zM589.541 8.466021C 589.3491 8.466021 589.211 8.328131 589.211 8.13008C 589.211 7.92617 589.3491 7.78203 589.541 7.78203C 589.733 7.78203 589.877 7.92617 589.877 8.13008C 589.877 8.328131 589.733 8.466021 589.541 8.466021z" stroke="#000000" stroke-width="0.4" fill="none" /><path id="1584" transform="matrix(1 0 0 -1 0 834)" d="M591.905 7.35L590.723 7.35C 591.119 8.016021 591.509 8.58594 591.893 9.119921L591.893 9.119921L591.905 9.119921zM592.961 7.06797L592.961 7.35L592.961 7.35L592.385 7.35L592.385 7.35L592.385 9.79219L592.385 9.79219L592.145 9.79219C 591.527 8.976171 590.915 8.08789 590.345 7.23594L590.345 7.23594L590.345 7.06797L590.345 7.06797L591.905 7.06797L591.905 7.06797L591.905 6.63594C 591.905 6.23984 591.881 6.20391 591.359 6.16211L591.359 6.16211L591.359 6L591.359 6L592.895 6L592.895 6L592.895 6.16211C 592.409 6.20391 592.385 6.23398 592.385 6.63594L592.385 6.63594L592.385 7.06797z" stroke="#000000" stroke-width="0.4" fill="none" /><path id="1585" transform="matrix(1 0 0 -1 0 834)" d="M593.616 8.976171C 593.7661 9.19805 594.006 9.45 594.336 9.45C 594.654 9.45 594.906 9.257811 594.906 8.88594C 594.906 8.44219 594.498 8.20781 593.946 8.03398L593.946 8.03398L593.988 7.86016C 594.084 7.88984 594.228 7.92617 594.372 7.92617C 594.7141 7.92617 595.134 7.70391 595.134 7.15195C 595.134 6.55781 594.834 6.23984 594.408 6.23984C 594.066 6.23984 593.82 6.40781 593.664 6.54609C 593.616 6.58789 593.5681 6.58203 593.52 6.54609C 593.466 6.50391 593.388 6.42617 593.382 6.34805C 593.3701 6.27617 593.394 6.21016 593.478 6.13203C 593.556 6.06016 593.802 5.92813 594.078 5.92813C 594.51 5.92813 595.65 6.37188 595.65 7.34414C 595.65 7.78203 595.344 8.153911 594.816 8.25586L594.816 8.25586L594.816 8.26797C 594.99 8.38789 595.134 8.49609 595.2241 8.59219C 595.338 8.70586 595.41 8.84414 595.41 9.01797C 595.41 9.47383 595.056 9.810161 594.5161 9.810161C 594.198 9.810161 593.9221 9.66016 593.754 9.47383L593.754 9.47383L593.49 9.09609z" stroke="#000000" stroke-width="0.4" fill="none" /><path id="1586" transform="matrix(1 0 0 -1 0 834)" d="M596.675 5.92813C 596.867 5.92813 597.011 6.06602 597.011 6.27617C 597.011 6.46797 596.867 6.61797 596.675 6.61797C 596.483 6.61797 596.3391 6.46797 596.3391 6.27617C 596.3391 6.06602 596.483 5.92813 596.675 5.92813zM596.669 8.466021C 596.477 8.466021 596.3391 8.328131 596.3391 8.13008C 596.3391 7.92617 596.477 7.78203 596.669 7.78203C 596.861 7.78203 597.005 7.92617 597.005 8.13008C 597.005 8.328131 596.861 8.466021 596.669 8.466021z" stroke="#000000" stroke-width="0.4" fill="none" /><path id="1587" transform="matrix(1 0 0 -1 0 834)" d="M599.825 6.83984C 599.645 6.46211 599.567 6.43789 599.243 6.43789L599.243 6.43789L598.121 6.43789L598.121 6.43789L598.973 7.33203C 599.525 7.91992 599.765 8.273829 599.765 8.79609C 599.765 9.42617 599.285 9.810161 598.757 9.810161C 598.409 9.810161 598.127 9.653911 597.947 9.45586L597.947 9.45586L597.605 8.96992L597.605 8.96992L597.737 8.85C 597.893 9.08398 598.145 9.40781 598.553 9.40781C 598.997 9.40781 599.261 9.11406 599.261 8.61016C 599.261 8.09414 598.883 7.60195 598.511 7.15781C 598.211 6.81016 597.875 6.46797 597.539 6.13789L597.539 6.13789L597.539 6L597.539 6L599.783 6C 599.855 6.26992 599.915 6.53398 599.993 6.78594z" stroke="#000000" stroke-width="0.4" fill="none" /><path id="1588" transform="matrix(1 0 0 -1 0 834)" d="M601.913 7.35L600.731 7.35C 601.127 8.016021 601.517 8.58594 601.901 9.119921L601.901 9.119921L601.913 9.119921zM602.969 7.06797L602.969 7.35L602.969 7.35L602.393 7.35L602.393 7.35L602.393 9.79219L602.393 9.79219L602.153 9.79219C 601.535 8.976171 600.923 8.08789 600.353 7.23594L600.353 7.23594L600.353 7.06797L600.353 7.06797L601.913 7.06797L601.913 7.06797L601.913 6.63594C 601.913 6.23984 601.889 6.20391 601.367 6.16211L601.367 6.16211L601.367 6L601.367 6L602.903 6L602.903 6L602.903 6.16211C 602.417 6.20391 602.393 6.23398 602.393 6.63594L602.393 6.63594L602.393 7.06797z" stroke="#000000" stroke-width="0.4" fill="none" /><path id="1589" transform="matrix(1 0 0 -1 0 834)" d="M605.489 8.08203C 605.651 8.20195 605.897 8.33398 606.0891 8.33398C 606.527 8.33398 606.893 7.97383 606.893 7.33203C 606.893 6.65391 606.557 6.22188 606.053 6.22188C 605.8491 6.22188 605.621 6.31797 605.489 6.45586zM605.489 8.28008L605.489 8.75391C 605.207 8.63984 604.871 8.53789 604.619 8.49609L604.619 8.49609L604.619 8.351951C 604.991 8.30391 605.015 8.29219 605.015 7.90195L605.015 7.90195L605.015 5.18984C 605.015 4.79414 604.961 4.75781 604.577 4.72188L604.577 4.72188L604.577 4.56016L604.577 4.56016L605.999 4.56016L605.999 4.56016L605.999 4.72188C 605.531 4.76406 605.489 4.79414 605.489 5.25L605.489 5.25L605.489 6.03594C 605.567 5.99414 605.729 5.93398 605.903 5.92813C 606.683 6.07188 607.397 6.65391 607.397 7.56016C 607.397 8.153911 607.001 8.69414 606.335 8.69414C 606.263 8.69414 606.149 8.664061 606.041 8.60391z" stroke="#000000" stroke-width="0.4" fill="none" /><path id="1590" transform="matrix(1 0 0 -1 0 834)" d="M608.303 5.92813C 608.4951 5.92813 608.639 6.06602 608.639 6.27617C 608.639 6.46797 608.4951 6.61797 608.303 6.61797C 608.111 6.61797 607.967 6.46797 607.967 6.27617C 607.967 6.06602 608.111 5.92813 608.303 5.92813z" stroke="#000000" stroke-width="0.4" fill="none" /><path id="1591" transform="matrix(1 0 0 -1 0 834)" d="M615.125 6L615.125 6.15586C 614.783 6.19219 614.735 6.21602 614.735 6.61797L614.735 6.61797L614.735 7.77617C 614.735 8.36406 614.441 8.69414 613.973 8.69414C 613.805 8.69414 613.649 8.621881 613.523 8.53789C 613.373 8.44805 613.199 8.33398 613.025 8.20195C 612.905 8.51406 612.647 8.69414 612.359 8.69414C 612.167 8.69414 612.023 8.628131 611.867 8.53203C 611.687 8.417971 611.555 8.310161 611.429 8.226171L611.429 8.226171L611.429 8.712111C 611.165 8.59219 610.859 8.51406 610.595 8.466021L610.595 8.466021L610.595 8.328131C 610.9431 8.273829 610.961 8.24414 610.961 7.86016L610.961 7.86016L610.961 6.61797C 610.961 6.22813 610.907 6.19219 610.511 6.15586L610.511 6.15586L610.511 6L610.511 6L611.777 6L611.777 6L611.777 6.15586C 611.483 6.19219 611.435 6.22813 611.435 6.61797L611.435 6.61797L611.435 8.028131C 611.615 8.17813 611.8491 8.33984 612.0891 8.33984C 612.455 8.33984 612.611 8.09414 612.611 7.65L612.611 7.65L612.611 6.61797C 612.611 6.22188 612.557 6.19219 612.185 6.15586L612.185 6.15586L612.185 6L612.185 6L613.469 6L613.469 6L613.469 6.15586C 613.139 6.19219 613.085 6.22813 613.085 6.60586L613.085 6.60586L613.085 7.77617C 613.085 7.88984 613.079 7.95586 613.067 8.028131C 613.295 8.21992 613.523 8.33984 613.739 8.33984C 614.117 8.33984 614.267 8.069921 614.267 7.64414L614.267 7.64414L614.267 6.64219C 614.267 6.21602 614.201 6.19219 613.847 6.15586L613.847 6.15586L613.847 6z" stroke="#000000" stroke-width="0.4" fill="none" /><path id="1592" transform="matrix(1 0 0 -1 0 834)" d="M615.947 5.92813C 616.139 5.92813 616.283 6.06602 616.283 6.27617C 616.283 6.46797 616.139 6.61797 615.947 6.61797C 615.755 6.61797 615.611 6.46797 615.611 6.27617C 615.611 6.06602 615.755 5.92813 615.947 5.92813z" stroke="#000000" stroke-width="0.4" fill="none" /></g></g></svg>