<svg xmlns="http://www.w3.org/2000/svg" xmlns:xlink="http://www.w3.org/1999/xlink" id="body_1" preserveAspectRatio="xMinYMin meet" viewBox="0 0 872 1112"><defs><clipPath id="1"><path id="" clip-rule="evenodd" transform="matrix(1 0 0 1 0 0)" d="M0 834L0 0L0 0L654 0L654 0L654 834L654 834L0 834z" /></clipPath><clipPath id="2"><path id="" clip-rule="evenodd" transform="matrix(1 0 0 1 0 0)" d="M21 813L633 813L633 813L633 21L633 21L21 21z" /></clipPath><clipPath id="3"><path id="" clip-rule="evenodd" transform="matrix(1 0 0 1 0 0)" d="M350.74 484.107L449.747 484.107L449.747 484.107L449.747 344.654L449.747 344.654L350.74 344.654z" /></clipPath><clipPath id="4"><path id="" clip-rule="evenodd" transform="matrix(1 0 0 1 0 0)" d="M350.74 484.107L449.747 484.107L449.747 484.107L449.747 344.654L449.747 344.654L350.74 344.654z" /></clipPath><clipPath id="5"><path id="" clip-rule="evenodd" transform="matrix(1 0 0 1 0 0)" d="M361.704 420.903L382.3692 420.903L382.3692 420.903L382.3692 417.0999L382.3692 417.0999L361.704 417.0999z" /></clipPath><clipPath id="6"><path id="" clip-rule="evenodd" transform="matrix(1 0 0 1 0 0)" d="M361.704 420.903L382.369 420.903L382.369 420.903L382.369 417.1L382.369 417.1L361.704 417.1z" /></clipPath><clipPath id="7"><path id="" clip-rule="evenodd" transform="matrix(1 0 0 1 0 0)" d="M361.704 420.903L382.3692 420.903L382.3692 420.903L382.3692 417.0999L382.3692 417.0999L361.704 417.0999z" /></clipPath><clipPath id="8"><path id="" clip-rule="evenodd" transform="matrix(1 0 0 1 0 0)" d="M416.318 420.903L436.9821 420.903L436.9821 420.903L436.9821 417.0999L436.9821 417.0999L416.318 417.0999z" /></clipPath><clipPath id="9"><path id="" clip-rule="evenodd" transform="matrix(1 0 0 1 0 0)" d="M416.318 420.903L436.982 420.903L436.982 420.903L436.982 417.1L436.982 417.1L416.318 417.1z" /></clipPath><clipPath id="10"><path id="" clip-rule="evenodd" transform="matrix(1 0 0 1 0 0)" d="M416.318 420.903L436.9828 420.903L436.9828 420.903L436.9828 417.0999L436.9828 417.0999L416.318 417.0999z" /></clipPath><clipPath id="11"><path id="" clip-rule="evenodd" transform="matrix(1 0 0 1 0 0)" d="M416.318 420.903L436.9821 420.903L436.9821 420.903L436.9821 417.0999L436.9821 417.0999L416.318 417.0999z" /></clipPath><clipPath id="12"><path id="" clip-rule="evenodd" transform="matrix(1 0 0 1 0 0)" d="M350.74 485.031L475.677 485.031L475.677 485.031L475.677 344.653L475.677 344.653L350.74 344.653z" /></clipPath><clipPath id="13"><path id="" clip-rule="evenodd" transform="matrix(1 0 0 1 0 0)" d="M414.12 448.09L414.12 460.451C 417.042 473.963 429.352 484.107 444.095 484.107L444.095 484.107L444.095 484.107C 460.489 484.107 473.874 471.566 474.689 455.795L474.689 455.795L474.689 455.795L474.689 455.795L474.689 452.747C 473.874 436.976 460.489 424.433 444.095 424.433L444.095 424.433L444.095 424.433C 429.352 424.433 417.042 434.578 414.12 448.09" /></clipPath><clipPath id="14"><path id="" clip-rule="evenodd" transform="matrix(1 0 0 1 0 0)" d="M414.12 448.09L414.12 460.451C 417.042 473.963 429.352 484.107 444.095 484.107L444.095 484.107L444.095 484.107C 460.489 484.107 473.874 471.566 474.689 455.795L474.689 455.795L474.689 455.795L474.689 455.795L474.689 452.747C 473.874 436.976 460.489 424.433 444.095 424.433L444.095 424.433L444.095 424.433C 429.352 424.433 417.042 434.578 414.12 448.09" /></clipPath><clipPath id="15"><path id="" clip-rule="evenodd" transform="matrix(1 0 0 1 0 0)" d="M350.74 485.031L475.677 485.031L475.677 485.031L475.677 344.653L475.677 344.653L350.74 344.653z" /></clipPath><clipPath id="16"><path id="" clip-rule="evenodd" transform="matrix(1 0 0 1 0 0)" d="M260.972 384.42L298.2103 384.42L298.2103 384.42L298.2103 327.504L298.2103 327.504L260.972 327.504z" /></clipPath><clipPath id="17"><path id="" clip-rule="evenodd" transform="matrix(1 0 0 1 0 0)" d="M260.972 384.42L298.2103 384.42L298.2103 384.42L298.2103 327.504L298.2103 327.504L260.972 327.504z" /></clipPath><clipPath id="18"><path id="" clip-rule="evenodd" transform="matrix(1 0 0 1 0 0)" d="M316.086 443.087L341.6829 443.087L341.6829 443.087L341.6829 407.228L341.6829 407.228L316.086 407.228z" /></clipPath><clipPath id="19"><path id="" clip-rule="evenodd" transform="matrix(1 0 0 1 0 0)" d="M316.086 443.087L341.6829 443.087L341.6829 443.087L341.6829 407.228L341.6829 407.228L316.086 407.228z" /></clipPath><clipPath id="20"><path id="" clip-rule="evenodd" transform="matrix(1 0 0 1 0 0)" d="M481.346 443.087L506.9429 443.087L506.9429 443.087L506.9429 407.228L506.9429 407.228L481.346 407.228z" /></clipPath><clipPath id="21"><path id="" clip-rule="evenodd" transform="matrix(1 0 0 1 0 0)" d="M481.346 443.087L506.9429 443.087L506.9429 443.087L506.9429 407.228L506.9429 407.228L481.346 407.228z" /></clipPath><clipPath id="22"><path id="" clip-rule="evenodd" transform="matrix(1 0 0 1 0 0)" d="M481.347 478.945L506.9431 478.945L506.9431 478.945L506.9431 447.3391L506.9431 447.3391L481.347 447.3391z" /></clipPath><clipPath id="23"><path id="" clip-rule="evenodd" transform="matrix(1 0 0 1 0 0)" d="M481.347 478.945L506.9431 478.945L506.9431 478.945L506.9431 447.3391L506.9431 447.3391L481.347 447.3391z" /></clipPath><clipPath id="24"><path id="" clip-rule="evenodd" transform="matrix(1 0 0 1 0 0)" d="M316.087 478.945L341.6839 478.945L341.6839 478.945L341.6839 447.3391L341.6839 447.3391L316.087 447.3391z" /></clipPath><clipPath id="25"><path id="" clip-rule="evenodd" transform="matrix(1 0 0 1 0 0)" d="M316.087 478.945L341.6839 478.945L341.6839 478.945L341.6839 447.3391L341.6839 447.3391L316.087 447.3391z" /></clipPath><clipPath id="26"><path id="" clip-rule="evenodd" transform="matrix(1 0 0 1 0 0)" d="M307.066 269.132L513.662 269.132L513.662 269.132L513.662 127.608L513.662 127.608L307.066 127.608z" /></clipPath><clipPath id="27"><path id="" clip-rule="evenodd" transform="matrix(1 0 0 1 0 0)" d="M444.085 225.708L444.085 241.567C 447.692 256.811 461.473 268.16 477.923 268.16L477.923 268.16L477.923 268.16C 497.12 268.16 512.683 252.7029 512.683 233.637L512.683 233.637L512.683 233.637C 512.683 214.57 497.12 199.115 477.923 199.115L477.923 199.115L477.923 199.115C 461.473 199.115 447.692 210.464 444.085 225.708" /></clipPath><clipPath id="28"><path id="" clip-rule="evenodd" transform="matrix(1 0 0 1 0 0)" d="M444.085 225.708L444.085 241.567C 447.692 256.811 461.473 268.16 477.923 268.16L477.923 268.16L477.923 268.16C 497.12 268.16 512.683 252.7029 512.683 233.637L512.683 233.637L512.683 233.637C 512.683 214.57 497.12 199.115 477.923 199.115L477.923 199.115L477.923 199.115C 461.473 199.115 447.692 210.464 444.085 225.708" /></clipPath><clipPath id="29"><path id="" clip-rule="evenodd" transform="matrix(1 0 0 1 0 0)" d="M307.066 269.132L513.662 269.132L513.662 269.132L513.662 127.608L513.662 127.608L307.066 127.608z" /></clipPath><clipPath id="30"><path id="" clip-rule="evenodd" transform="matrix(1 0 0 1 0 0)" d="M307.066 267.629L411.572 267.629L411.572 267.629L411.572 127.608L411.572 127.608L307.066 127.608z" /></clipPath><clipPath id="31"><path id="" clip-rule="evenodd" transform="matrix(1 0 0 1 0 0)" d="M307.066 267.629L411.572 267.629L411.572 267.629L411.572 127.608L411.572 127.608L307.066 127.608z" /></clipPath><clipPath id="32"><path id="" clip-rule="evenodd" transform="matrix(1 0 0 1 0 0)" d="M307.066 269.132L513.662 269.132L513.662 269.132L513.662 127.608L513.662 127.608L307.066 127.608z" /></clipPath><clipPath id="33"><path id="" clip-rule="evenodd" transform="matrix(1 0 0 1 0 0)" d="M382.138 215.069L382.138 252.206C 388.247 261.493 398.807 267.629 410.81 267.629L410.81 267.629L410.81 267.629C 429.712 267.629 445.036 252.41 445.036 233.637L445.036 233.637L445.036 233.637C 445.036 214.864 429.712 199.646 410.81 199.646L410.81 199.646L410.81 199.646C 398.807 199.646 388.247 205.782 382.138 215.069" /></clipPath><clipPath id="34"><path id="" clip-rule="evenodd" transform="matrix(1 0 0 1 0 0)" d="M382.138 215.069L382.138 252.206C 388.247 261.493 398.807 267.629 410.81 267.629L410.81 267.629L410.81 267.629C 429.712 267.629 445.036 252.41 445.036 233.637L445.036 233.637L445.036 233.637C 445.036 214.864 429.712 199.646 410.81 199.646L410.81 199.646L410.81 199.646C 398.807 199.646 388.247 205.782 382.138 215.069" /></clipPath><clipPath id="35"><path id="" clip-rule="evenodd" transform="matrix(1 0 0 1 0 0)" d="M307.066 269.132L513.662 269.132L513.662 269.132L513.662 127.608L513.662 127.608L307.066 127.608z" /></clipPath><clipPath id="36"><path id="" clip-rule="evenodd" transform="matrix(1 0 0 1 0 0)" d="M265.881 167.876L294.1501 167.876L294.1501 167.876L294.1501 110.9592L294.1501 110.9592L265.881 110.9592z" /></clipPath><clipPath id="37"><path id="" clip-rule="evenodd" transform="matrix(1 0 0 1 0 0)" d="M265.881 167.876L294.1501 167.876L294.1501 167.876L294.1501 110.9592L294.1501 110.9592L265.881 110.9592z" /></clipPath><clipPath id="38"><path id="" clip-rule="evenodd" transform="matrix(1 0 0 1 0 0)" d="M279.236 209.808L299.077 209.808L299.077 209.808L299.077 176.1162L299.077 176.1162L279.236 176.1162z" /></clipPath><clipPath id="39"><path id="" clip-rule="evenodd" transform="matrix(1 0 0 1 0 0)" d="M279.236 209.808L299.077 209.808L299.077 209.808L299.077 176.1162L299.077 176.1162L279.236 176.1162z" /></clipPath><clipPath id="40"><path id="" clip-rule="evenodd" transform="matrix(1 0 0 1 0 0)" d="M521.5991 209.808L547.1959 209.808L547.1959 209.808L547.1959 173.949L547.1959 173.949L521.5991 173.949z" /></clipPath><clipPath id="41"><path id="" clip-rule="evenodd" transform="matrix(1 0 0 1 0 0)" d="M521.5991 209.808L547.1959 209.808L547.1959 209.808L547.1959 173.949L547.1959 173.949L521.5991 173.949z" /></clipPath><clipPath id="42"><path id="" clip-rule="evenodd" transform="matrix(1 0 0 1 0 0)" d="M292.474 703.454L357.497 703.454L357.497 703.454L357.497 592.843L357.497 592.843L292.474 592.843z" /></clipPath><clipPath id="43"><path id="" clip-rule="evenodd" transform="matrix(1 0 0 1 0 0)" d="M292.474 703.454L357.497 703.454L357.497 703.454L357.497 592.843L357.497 592.843L292.474 592.843z" /></clipPath><clipPath id="44"><path id="" clip-rule="evenodd" transform="matrix(1 0 0 1 0 0)" d="M283.4 704.433L548.6611 704.433L548.6611 704.433L548.6611 591.33L548.6611 591.33L283.4 591.33z" /></clipPath><clipPath id="45"><path id="" clip-rule="evenodd" transform="matrix(1 0 0 1 0 0)" d="M330.487 658.599C 326.012 661.983 322.715 666.839 321.315 672.449L321.315 672.449L321.315 672.449L321.315 672.449L321.315 684.567C 324.022 695.416 333.832 703.454 345.52 703.454L345.52 703.454L345.52 703.454C 359.297 703.454 370.466 692.285 370.466 678.508L370.466 678.508L370.466 678.508C 370.466 670.376 366.575 663.153 360.553 658.599L360.553 658.599L360.553 658.599z" /></clipPath><clipPath id="46"><path id="" clip-rule="evenodd" transform="matrix(1 0 0 1 0 0)" d="M330.487 658.599C 326.012 661.983 322.715 666.839 321.315 672.449L321.315 672.449L321.315 672.449L321.315 672.449L321.315 684.567C 324.022 695.416 333.832 703.454 345.52 703.454L345.52 703.454L345.52 703.454C 359.297 703.454 370.466 692.285 370.466 678.508L370.466 678.508L370.466 678.508C 370.466 670.376 366.575 663.153 360.553 658.599L360.553 658.599L360.553 658.599z" /></clipPath><clipPath id="47"><path id="" clip-rule="evenodd" transform="matrix(1 0 0 1 0 0)" d="M283.4 704.433L548.6611 704.433L548.6611 704.433L548.6611 591.33L548.6611 591.33L283.4 591.33z" /></clipPath><clipPath id="48"><path id="" clip-rule="evenodd" transform="matrix(1 0 0 1 0 0)" d="M364.427 678.322C 364.427 692.201 375.68 703.454 389.56 703.454L389.56 703.454L389.56 703.454C 399.347 703.454 407.828 697.86 411.979 689.694L411.979 689.694L411.979 689.694L411.979 689.694L411.979 666.948C 407.828 658.784 399.347 653.188 389.56 653.188L389.56 653.188L389.56 653.188C 375.68 653.188 364.427 664.441 364.427 678.322" /></clipPath><clipPath id="49"><path id="" clip-rule="evenodd" transform="matrix(1 0 0 1 0 0)" d="M364.427 678.322C 364.427 692.201 375.68 703.454 389.56 703.454L389.56 703.454L389.56 703.454C 399.347 703.454 407.828 697.86 411.979 689.694L411.979 689.694L411.979 689.694L411.979 689.694L411.979 666.948C 407.828 658.784 399.347 653.188 389.56 653.188L389.56 653.188L389.56 653.188C 375.68 653.188 364.427 664.441 364.427 678.322" /></clipPath><clipPath id="50"><path id="" clip-rule="evenodd" transform="matrix(1 0 0 1 0 0)" d="M283.4 704.433L548.6611 704.433L548.6611 704.433L548.6611 591.33L548.6611 591.33L283.4 591.33z" /></clipPath><clipPath id="51"><path id="" clip-rule="evenodd" transform="matrix(1 0 0 1 0 0)" d="M401.947 665.228L401.947 691.414C 406.363 698.635 414.32 703.454 423.404 703.454L423.404 703.454L423.404 703.454C 437.285 703.454 448.537 692.201 448.537 678.322L448.537 678.322L448.537 678.322C 448.537 664.441 437.285 653.188 423.404 653.188L423.404 653.188L423.404 653.188C 414.32 653.188 406.363 658.008 401.947 665.228" /></clipPath><clipPath id="52"><path id="" clip-rule="evenodd" transform="matrix(1 0 0 1 0 0)" d="M401.947 665.228L401.947 691.414C 406.363 698.635 414.32 703.454 423.404 703.454L423.404 703.454L423.404 703.454C 437.285 703.454 448.537 692.201 448.537 678.322L448.537 678.322L448.537 678.322C 448.537 664.441 437.285 653.188 423.404 653.188L423.404 653.188L423.404 653.188C 414.32 653.188 406.363 658.008 401.947 665.228" /></clipPath><clipPath id="53"><path id="" clip-rule="evenodd" transform="matrix(1 0 0 1 0 0)" d="M283.4 704.433L548.6611 704.433L548.6611 704.433L548.6611 591.33L548.6611 591.33L283.4 591.33z" /></clipPath><clipPath id="54"><path id="" clip-rule="evenodd" transform="matrix(1 0 0 1 0 0)" d="M495.271 677.249C 495.271 691.722 507.003 703.454 521.476 703.454L521.476 703.454L521.476 703.454C 535.949 703.454 547.681 691.722 547.681 677.249L547.681 677.249L547.681 677.249C 547.681 662.776 535.949 651.044 521.476 651.044L521.476 651.044L521.476 651.044C 507.003 651.044 495.271 662.776 495.271 677.249" /></clipPath><clipPath id="55"><path id="" clip-rule="evenodd" transform="matrix(1 0 0 1 0 0)" d="M495.271 677.249C 495.271 691.722 507.003 703.454 521.476 703.454L521.476 703.454L521.476 703.454C 535.949 703.454 547.681 691.722 547.681 677.249L547.681 677.249L547.681 677.249C 547.681 662.776 535.949 651.044 521.476 651.044L521.476 651.044L521.476 651.044C 507.003 651.044 495.271 662.776 495.271 677.249" /></clipPath><clipPath id="56"><path id="" clip-rule="evenodd" transform="matrix(1 0 0 1 0 0)" d="M283.4 704.433L548.6611 704.433L548.6611 704.433L548.6611 591.33L548.6611 591.33L283.4 591.33z" /></clipPath><clipPath id="57"><path id="" clip-rule="evenodd" transform="matrix(1 0 0 1 0 0)" d="M375.755 683.322L381.13 699.146z" /></clipPath><clipPath id="58"><path id="" clip-rule="evenodd" transform="matrix(1 0 0 1 0 0)" d="M375.755 683.322L381.13 699.146z" /></clipPath><clipPath id="59"><path id="" clip-rule="evenodd" transform="matrix(1 0 0 1 0 0)" d="M381.136 699.196L382.85 699.005L382.85 699.005L381.034 682.706L381.034 682.706L379.319 682.897L379.319 682.897L381.136 699.196zM375.766 699.795L377.568 699.594L377.568 699.594L375.752 683.295L375.752 683.295L373.95 683.495L373.95 683.495L375.766 699.795zM377.568 699.594L381.136 699.196L381.136 699.196L379.319 682.897L379.319 682.897L375.752 683.295L375.752 683.295L377.568 699.594z" /></clipPath><clipPath id="60"><path id="" clip-rule="evenodd" transform="matrix(1 0 0 1 0 0)" d="M471.781 641.585L468.069 631.39z" /></clipPath><clipPath id="61"><path id="" clip-rule="evenodd" transform="matrix(1 0 0 1 0 0)" d="M471.781 641.585L468.069 631.39z" /></clipPath><clipPath id="62"><path id="" clip-rule="evenodd" transform="matrix(1 0 0 1 0 0)" d="M471.78 641.6L471.8 641.6L471.8 641.6L471.8 631.4L471.8 631.4L471.78 631.4L471.78 631.4L471.78 641.6zM468 641.6L468.069 641.6L468.069 641.6L468.069 631.4L468.069 631.4L468 631.4L468 631.4L468 641.6zM468.069 641.6L471.78 641.6L471.78 641.6L471.78 631.4L471.78 631.4L468.069 631.4L468.069 631.4L468.069 641.6z" /></clipPath><clipPath id="63"><path id="" clip-rule="evenodd" transform="matrix(1 0 0 1 0 0)" d="M283.4 704.433L548.6611 704.433L548.6611 704.433L548.6611 591.33L548.6611 591.33L283.4 591.33z" /></clipPath><clipPath id="64"><path id="" clip-rule="evenodd" transform="matrix(1 0 0 1 0 0)" d="M283.4 704.433L548.6611 704.433L548.6611 704.433L548.6611 591.33L548.6611 591.33L283.4 591.33z" /></clipPath><clipPath id="65"><path id="" clip-rule="evenodd" transform="matrix(1 0 0 1 0 0)" d="M283.4 704.433L548.6611 704.433L548.6611 704.433L548.6611 591.33L548.6611 591.33L283.4 591.33z" /></clipPath><clipPath id="66"><path id="" clip-rule="evenodd" transform="matrix(1 0 0 1 0 0)" d="M261.453 648.956L287.0499 648.956L287.0499 648.956L287.0499 613.097L287.0499 613.097L261.453 613.097z" /></clipPath><clipPath id="67"><path id="" clip-rule="evenodd" transform="matrix(1 0 0 1 0 0)" d="M261.453 648.956L287.0499 648.956L287.0499 648.956L287.0499 613.097L287.0499 613.097L261.453 613.097z" /></clipPath><clipPath id="68"><path id="" clip-rule="evenodd" transform="matrix(1 0 0 1 0 0)" d="M261.453 684.814L287.0499 684.814L287.0499 684.814L287.0499 648.9558L287.0499 648.9558L261.453 648.9558z" /></clipPath><clipPath id="69"><path id="" clip-rule="evenodd" transform="matrix(1 0 0 1 0 0)" d="M261.453 684.814L287.0499 684.814L287.0499 684.814L287.0499 648.9558L287.0499 648.9558L261.453 648.9558z" /></clipPath><clipPath id="70"><path id="" clip-rule="evenodd" transform="matrix(1 0 0 1 0 0)" d="M404.319 642.488L429.9159 642.488L429.9159 642.488L429.9159 606.6302L429.9159 606.6302L404.319 606.6302z" /></clipPath><clipPath id="71"><path id="" clip-rule="evenodd" transform="matrix(1 0 0 1 0 0)" d="M404.319 642.488L429.9159 642.488L429.9159 642.488L429.9159 606.6302L429.9159 606.6302L404.319 606.6302z" /></clipPath><clipPath id="72"><path id="" clip-rule="evenodd" transform="matrix(1 0 0 1 0 0)" d="M515.565 643.63L541.1623 643.63L541.1623 643.63L541.1623 607.771L541.1623 607.771L515.565 607.771z" /></clipPath><clipPath id="73"><path id="" clip-rule="evenodd" transform="matrix(1 0 0 1 0 0)" d="M515.565 643.63L541.1623 643.63L541.1623 643.63L541.1623 607.771L541.1623 607.771L515.565 607.771z" /></clipPath></defs><g transform="matrix(1.333333 0 0 1.333333 0 0)"><g clip-path="url(#1)"><g clip-path="url(#2)"><path id="1" transform="matrix(1 0 0 -1 0 834)" d="M91.866 67.4211L562.134 67.4211L562.134 74.92501L91.866 74.92501z" stroke="none" fill="#686868" fill-rule="nonzero" /><path id="2" transform="matrix(1 0 0 -1 0 834)" d="M562.134 526.984L91.866 526.984" stroke="#686868" stroke-width="1" fill="none" /><path id="3" transform="matrix(1 0 0 -1 0 834)" d="M562.134 307.016L91.866 307.016" stroke="#686868" stroke-width="1" fill="none" /></g><g clip-path="url(#3)"></g><g clip-path="url(#4)"><g transform="matrix(1.000079 0 0 1.003266 350.74 344.653)"><g transform="matrix(1 0 0 1 0 0)"><image x="0" y="0" xlink:href="img_01.png" width="99" height="139" /></g></g></g><g clip-path="url(#5)"><g><g clip-path="url(#6)"><g clip-path="url(#7)"><path id="335" transform="matrix(1 0 0 -1 0 834)" d="M382.3694 414.9975L364.8517 414.9975" stroke="#FFFFFF" stroke-width="1.054315" fill="none" stroke-opacity="0.8" /><path id="336" transform="matrix(1 0 0 -1 0 834)" d="M361.705 414.997L366.332 416.898L365.503 414.997L366.332 413.096" stroke="none" fill="#FFFFFF" fill-rule="nonzero" fill-opacity="0.8" /></g></g></g></g><g clip-path="url(#8)"><g><g clip-path="url(#9)"><g clip-path="url(#10)"><path id="337" transform="matrix(1 0 0 -1 0 834)" d="M416.3186 414.9975L433.8374 414.9975" stroke="#FFFFFF" stroke-width="1.054315" fill="none" stroke-opacity="0.8" /></g><g clip-path="url(#11)"><path id="338" transform="matrix(1 0 0 -1 0 834)" d="M433.184 414.998L432.355 416.899L436.982 414.998L432.355 413.096" stroke="none" fill="#FFFFFF" fill-rule="nonzero" fill-opacity="0.8" /></g></g></g></g><g clip-path="url(#12)"><path id="339" transform="matrix(1 0 0 -1 0 834)" d="M474.729 379.729C 474.729 363.251 461.013 349.892 444.095 349.892C 427.177 349.892 413.462 363.251 413.462 379.729C 413.462 396.208 427.177 409.566 444.095 409.566C 461.013 409.566 474.729 396.208 474.729 379.729" stroke="none" fill="#FFFFFF" fill-rule="nonzero" /></g><g clip-path="url(#13)"></g><g clip-path="url(#14)"><g transform="matrix(1.009488 0 0 1.003373 414.12 423.112)"><g transform="matrix(1 0 0 1 0 0)"><image x="0" y="0" xlink:href="img_02.png" width="60" height="75" /></g></g></g><g clip-path="url(#15)"><path id="341" transform="matrix(1 0 0 -1 0 834)" d="M474.7289 379.7292C 474.7289 363.2511 461.0136 349.8924 444.0947 349.8924C 427.1768 349.8924 413.4615 363.2511 413.4615 379.7292C 413.4615 396.2083 427.1768 409.566 444.0947 409.566C 461.0136 409.566 474.7289 396.2083 474.7289 379.7292z" stroke="#000000" stroke-width="1.054315" fill="none" /><path id="342" transform="matrix(1 0 0 -1 0 834)" d="M382.881 442.611C 379.804 442.611 377.309 440.182 377.309 437.184C 377.309 434.186 379.804 431.756 382.881 431.756C 385.959 431.756 388.454 434.186 388.454 437.184C 388.454 440.182 385.959 442.611 382.881 442.611M382.881 432.416C 380.195 432.416 378.017 434.537 378.017 437.154C 378.017 439.77 380.195 441.892 382.881 441.892C 385.568 441.892 387.746 439.77 387.746 437.154C 387.746 434.537 385.568 432.416 382.881 432.416" stroke="none" fill="#FFFFFF" fill-rule="nonzero" /><path id="344" transform="matrix(1 0 0 -1 0 834)" d="M425.175 396.17C 422.098 396.17 419.603 393.739 419.603 390.742C 419.603 387.745 422.098 385.314 425.175 385.314C 428.253 385.314 430.748 387.745 430.748 390.742C 430.748 393.739 428.253 396.17 425.175 396.17M425.175 385.974C 422.489 385.974 420.311 388.095 420.311 390.712C 420.311 393.329 422.489 395.45 425.175 395.45C 427.862 395.45 430.04 393.329 430.04 390.712C 430.04 388.095 427.862 385.974 425.175 385.974" stroke="none" fill="#000000" fill-rule="nonzero" /></g><g clip-path="url(#16)"></g><g clip-path="url(#17)"><g transform="matrix(1.006449 0 0 0.9985386 260.972 327.5043)"><g transform="matrix(1 0 0 1 0 0)"><image x="0" y="0" xlink:href="img_03.png" width="37" height="57" /></g></g></g><g clip-path="url(#18)"></g><g clip-path="url(#19)"><g transform="matrix(1.023296 0 0 0.997071 315.071 406.2133)"><g transform="matrix(1 0 0 1 0 0)"><image x="0" y="0" xlink:href="img_04.png" width="27" height="38" /></g></g></g><g clip-path="url(#20)"></g><g clip-path="url(#21)"><g transform="matrix(-1.023296 0 0 0.997071 507.959 406.2133)"><g transform="matrix(1 0 0 1 0 0)"><image x="0" y="0" xlink:href="img_04.png" width="27" height="38" /></g></g></g><g clip-path="url(#22)"></g><g clip-path="url(#23)"><g transform="matrix(-1.023872 0 0 1.019066 506.943 447.3389)"><g transform="matrix(1 0 0 1 0 0)"><image x="0" y="0" xlink:href="img_05.png" width="25" height="32" /></g></g></g><g clip-path="url(#24)"></g><g clip-path="url(#25)"><g transform="matrix(1.023872 0 0 1.019066 316.087 447.3389)"><g transform="matrix(1 0 0 1 0 0)"><image x="0" y="0" xlink:href="img_05.png" width="25" height="32" /></g></g></g><g clip-path="url(#26)"><path id="450" transform="matrix(1 0 0 -1 0 834)" d="M512.685 600.363C 512.685 581.296 497.122 565.84 477.925 565.84C 458.728 565.84 443.165 581.296 443.165 600.363C 443.165 619.429 458.728 634.886 477.925 634.886C 497.122 634.886 512.685 619.429 512.685 600.363" stroke="none" fill="#FFFFFF" fill-rule="nonzero" /></g><g clip-path="url(#27)"></g><g clip-path="url(#28)"><g transform="matrix(1.00397 0 0 1.005605 444.085 171.963)"><g transform="matrix(1 0 0 1 0 0)"><image x="0" y="0" xlink:href="img_06.png" width="100" height="129" /></g></g></g><g clip-path="url(#29)"><path id="452" transform="matrix(1 0 0 -1 0 834)" d="M512.6844 600.3627C 512.6844 581.2962 497.1223 565.8402 477.9249 565.8402C 458.7275 565.8402 443.1654 581.2962 443.1654 600.3627C 443.1654 619.4293 458.7275 634.8862 477.9249 634.8862C 497.1223 634.8862 512.6844 619.4293 512.6844 600.3627z" stroke="#000000" stroke-width="1.086915" fill="none" /></g><g clip-path="url(#30)"></g><g clip-path="url(#31)"><g transform="matrix(1.004865 0 0 1.00015 307.065 127.608)"><g transform="matrix(1 0 0 1 0 0)"><image x="0" y="0" xlink:href="img_07.png" width="104" height="140" /></g></g></g><g clip-path="url(#32)"><path id="454" transform="matrix(1 0 0 -1 0 834)" d="M445.037 600.363C 445.037 581.5891 429.714 566.371 410.812 566.371C 391.91 566.371 376.587 581.5891 376.587 600.363C 376.587 619.136 391.91 634.355 410.812 634.355C 429.714 634.355 445.037 619.136 445.037 600.363" stroke="none" fill="#FFFFFF" fill-rule="nonzero" /></g><g clip-path="url(#33)"></g><g clip-path="url(#34)"><g transform="matrix(1.008951 0 0 1.003832 382.138 197.283)"><g transform="matrix(1 0 0 1 0 0)"><image x="0" y="0" xlink:href="img_08.png" width="75" height="101" /></g></g></g><g clip-path="url(#35)"><path id="456" transform="matrix(1 0 0 -1 0 834)" d="M445.0368 600.3627C 445.0368 581.5901 429.7136 566.3714 410.8122 566.3714C 391.9098 566.3714 376.5865 581.5901 376.5865 600.3627C 376.5865 619.1363 391.9098 634.3551 410.8122 634.3551C 429.7136 634.3551 445.0368 619.1363 445.0368 600.3627z" stroke="#000000" stroke-width="1.086915" fill="none" /><path id="457" transform="matrix(1 0 0 -1 0 834)" d="M318.677 644.4C 318.677 644.4 308.448 661.973 319.786 674.271" stroke="none" fill="#FFFFFF" fill-rule="nonzero" /><path id="458" transform="matrix(1 0 0 -1 0 834)" d="M318.6772 644.3996C 318.6772 644.3996 309.7738 659.6962 317.7861 671.7338" stroke="#000000" stroke-width="1.086915" fill="none" /><path id="459" transform="matrix(1 0 0 -1 0 834)" d="M318.511 669.287L317.423 671.17L315.302 671.7L319.786 674.271z" stroke="none" fill="#000000" fill-rule="nonzero" /><path id="461" transform="matrix(1 0 0 -1 0 834)" d="M393.15 609.1874L393.15 588.0121" stroke="#000000" stroke-width="1.086915" fill="none" /><path id="462" transform="matrix(1 0 0 -1 0 834)" d="M391.138 589.528L393.15 588.679L395.163 589.528L393.15 584.789z" stroke="none" fill="#000000" fill-rule="nonzero" /></g><g clip-path="url(#36)"></g><g clip-path="url(#37)"><g transform="matrix(1.009614 0 0 0.9985386 265.881 110.9583)"><g transform="matrix(1 0 0 1 0 0)"><image x="0" y="0" xlink:href="img_09.png" width="28" height="57" /></g></g></g><g clip-path="url(#38)"></g><g clip-path="url(#39)"><g transform="matrix(0.992065 0 0 1.021244 279.236 176.1157)"><g transform="matrix(1 0 0 1 0 0)"><image x="0" y="0" xlink:href="img_10.png" width="20" height="34" /></g></g></g><g clip-path="url(#40)"></g><g clip-path="url(#41)"><g transform="matrix(-1.022789 0 0 0.9967948 548.202 172.9359)"><g transform="matrix(1 0 0 1 0 0)"><image x="0" y="0" xlink:href="img_11.png" width="27" height="38" /></g></g></g><g clip-path="url(#42)"></g><g clip-path="url(#43)"><g transform="matrix(1.000362 0 0 1.005555 292.474 592.843)"><g transform="matrix(1 0 0 1 0 0)"><image x="0" y="0" xlink:href="img_12.png" width="65" height="110" /></g></g></g><g transform="matrix(1.003674 0 0 1.000357 441.645 591.33)"><g transform="matrix(1 0 0 1 0 0)"><image x="0" y="0" xlink:href="img_13.png" width="68" height="112" /></g></g><g clip-path="url(#44)"><path id="1014" transform="matrix(1 0 0 -1 0 834)" d="M370.466 155.492C 370.466 141.715 359.297 130.546 345.52 130.546C 331.743 130.546 320.574 141.715 320.574 155.492C 320.574 169.269 331.743 180.438 345.52 180.438C 359.297 180.438 370.466 169.269 370.466 155.492" stroke="none" fill="#FFFFFF" fill-rule="nonzero" /></g><g clip-path="url(#45)"></g><g clip-path="url(#46)"><g transform="matrix(1.005373 0 0 0.9989903 321.315 658.5987)"><g transform="matrix(1 0 0 1 0 0)"><image x="0" y="0" xlink:href="img_14.png" width="64" height="72" /></g></g></g><g clip-path="url(#47)"><path id="1016" transform="matrix(1 0 0 -1 0 834)" d="M370.466 155.492C 370.466 141.715 359.297 130.546 345.52 130.546C 331.743 130.546 320.574 141.715 320.574 155.492C 320.574 169.269 331.743 180.438 345.52 180.438C 359.297 180.438 370.466 169.269 370.466 155.492z" stroke="#000000" stroke-width="1.088" fill="none" /><path id="1017" transform="matrix(1 0 0 -1 0 834)" d="M414.693 155.679C 414.693 141.798 403.441 130.546 389.56 130.546C 375.68 130.546 364.427 141.798 364.427 155.679C 364.427 169.56 375.68 180.812 389.56 180.812C 403.441 180.812 414.693 169.56 414.693 155.679" stroke="none" fill="#FFFFFF" fill-rule="nonzero" /></g><g clip-path="url(#48)"></g><g clip-path="url(#49)"><g transform="matrix(1.011721 0 0 0.9991109 364.427 650.6309)"><g transform="matrix(1 0 0 1 0 0)"><image x="0" y="0" xlink:href="img_15.png" width="47" height="82" /></g></g></g><g clip-path="url(#50)"><path id="1019" transform="matrix(1 0 0 -1 0 834)" d="M414.693 155.679C 414.693 141.798 403.441 130.546 389.56 130.546C 375.68 130.546 364.427 141.798 364.427 155.679C 364.427 169.56 375.68 180.812 389.56 180.812C 403.441 180.812 414.693 169.56 414.693 155.679z" stroke="#000000" stroke-width="1.088" fill="none" /><path id="1020" transform="matrix(1 0 0 -1 0 834)" d="M448.537 155.679C 448.537 141.798 437.285 130.546 423.404 130.546C 409.524 130.546 398.271 141.798 398.271 155.679C 398.271 169.56 409.524 180.812 423.404 180.812C 437.285 180.812 448.537 169.56 448.537 155.679" stroke="none" fill="#FFFFFF" fill-rule="nonzero" /></g><g clip-path="url(#51)"></g><g clip-path="url(#52)"><g transform="matrix(0.9969416 0 0 1.008595 401.947 625.8828)"><g transform="matrix(1 0 0 1 0 0)"><image x="0" y="0" xlink:href="img_16.png" width="53" height="86" /></g></g></g><g clip-path="url(#53)"><path id="1022" transform="matrix(1 0 0 -1 0 834)" d="M448.537 155.679C 448.537 141.798 437.285 130.546 423.404 130.546C 409.524 130.546 398.271 141.798 398.271 155.679C 398.271 169.56 409.524 180.812 423.404 180.812C 437.285 180.812 448.537 169.56 448.537 155.679z" stroke="#000000" stroke-width="1.088" fill="none" /><path id="1023" transform="matrix(1 0 0 -1 0 834)" d="M547.682 156.751C 547.682 142.278 535.95 130.546 521.477 130.546C 507.004 130.546 495.271 142.278 495.271 156.751C 495.271 171.224 507.004 182.956 521.477 182.956C 535.95 182.956 547.682 171.224 547.682 156.751" stroke="none" fill="#FFFFFF" fill-rule="nonzero" /></g><g clip-path="url(#54)"></g><g clip-path="url(#55)"><g transform="matrix(0.9923485 0 0 0.9920449 489.008 619.3998)"><g transform="matrix(1 0 0 1 0 0)"><image x="0" y="0" xlink:href="img_17.png" width="95" height="156" /></g></g></g><g clip-path="url(#56)"><path id="1025" transform="matrix(1 0 0 -1 0 834)" d="M547.682 156.751C 547.682 142.278 535.95 130.546 521.477 130.546C 507.004 130.546 495.271 142.278 495.271 156.751C 495.271 171.224 507.004 182.956 521.477 182.956C 535.95 182.956 547.682 171.224 547.682 156.751z" stroke="#000000" stroke-width="1.088" fill="none" /></g><path id="1026" transform="matrix(1 0 0 -1 0 834)" d="M299.063 198.921L286.565 196.057" stroke="#000000" stroke-width="1.088" fill="none" /><path id="1027" transform="matrix(1 0 0 -1 0 834)" d="M283.4 195.332L288.503 194.436L287.22 196.208L287.603 198.361z" stroke="none" fill="#000000" fill-rule="nonzero" /><path id="1028" transform="matrix(1 0 0 -1 0 834)" d="M332.878 158.62L345.051 154.591" stroke="#000000" stroke-width="1.088" fill="none" /><path id="1029" transform="matrix(1 0 0 -1 0 834)" d="M342.967 153.159L344.412 154.802L344.233 156.983L348.132 153.571z" stroke="none" fill="#000000" fill-rule="nonzero" /><g clip-path="url(#57)"><g clip-path="url(#58)"><g clip-path="url(#59)"><g transform="matrix(1.08 0 0 -1.06 375.7 699.2)"><g transform="matrix(1 0 0 1 0 0)"><image x="0" y="0" xlink:href="img_18.png" width="5" height="15" /></g></g></g></g></g><path id="1031" transform="matrix(1 0 0 -1 0 834)" d="M375.755 150.678L380.086 137.928" stroke="#FFFFFF" stroke-width="1.088" fill="none" /><path id="1032" transform="matrix(1 0 0 -1 0 834)" d="M377.688 138.727L379.87 138.565L381.502 140.023L381.131 134.854z" stroke="none" fill="#FFFFFF" fill-rule="nonzero" /><g clip-path="url(#60)"><g clip-path="url(#61)"><g clip-path="url(#62)"><g transform="matrix(1.266667 0 0 -1.02 468 641.6)"><g transform="matrix(1 0 0 1 0 0)"><image x="0" y="0" xlink:href="img_19.png" width="3" height="10" /></g></g></g></g></g><path id="1034" transform="matrix(1 0 0 -1 0 834)" d="M468.069 202.609L470.892 194.855" stroke="#FFFFFF" stroke-width="0.87" fill="none" /><path id="1035" transform="matrix(1 0 0 -1 0 834)" d="M468.96 195.452L470.708 195.36L471.988 196.555L471.781 192.414z" stroke="none" fill="#FFFFFF" fill-rule="nonzero" /><g clip-path="url(#63)"><path id="1036" transform="matrix(1 0 0 -1 0 834)" d="M300.358 239.624C 297.183 239.624 294.609 237.05 294.609 233.874C 294.609 230.699 297.183 228.125 300.358 228.125C 303.533 228.125 306.107 230.699 306.107 233.874C 306.107 237.05 303.533 239.624 300.358 239.624M300.358 228.824C 297.586 228.824 295.339 231.071 295.339 233.843C 295.339 236.614 297.586 238.861 300.358 238.861C 303.13 238.861 305.377 236.614 305.377 233.843C 305.377 231.071 303.13 228.824 300.358 228.824" stroke="none" fill="#000000" fill-rule="nonzero" /></g><g clip-path="url(#64)"><path id="1038" transform="matrix(1 0 0 -1 0 834)" d="M335.648 174.737C 332.473 174.737 329.899 172.163 329.899 168.987C 329.899 165.812 332.473 163.238 335.648 163.238C 338.823 163.238 341.397 165.812 341.397 168.987C 341.397 172.163 338.823 174.737 335.648 174.737M335.648 163.937C 332.876 163.937 330.629 166.184 330.629 168.956C 330.629 171.728 332.876 173.974 335.648 173.974C 338.42 173.974 340.667 171.728 340.667 168.956C 340.667 166.184 338.42 163.937 335.648 163.937" stroke="none" fill="#000000" fill-rule="nonzero" /></g><g clip-path="url(#65)"><path id="1040" transform="matrix(1 0 0 -1 0 834)" d="M455.691 239.592C 452.516 239.592 449.942 237.018 449.942 233.842C 449.942 230.667 452.516 228.093 455.691 228.093C 458.866 228.093 461.44 230.667 461.44 233.842C 461.44 237.018 458.866 239.592 455.691 239.592M455.691 228.792C 452.919 228.792 450.672 231.039 450.672 233.811C 450.672 236.583 452.919 238.829 455.691 238.829C 458.463 238.829 460.71 236.583 460.71 233.811C 460.71 231.039 458.463 228.792 455.691 228.792" stroke="none" fill="#000000" fill-rule="nonzero" /></g><g transform="matrix(1.009614 0 0 0.9985386 266.949 546.6853)"><g transform="matrix(1 0 0 1 0 0)"><image x="0" y="0" xlink:href="img_09.png" width="28" height="57" /></g></g><g clip-path="url(#66)"></g><g clip-path="url(#67)"><g transform="matrix(1.022789 0 0 0.9967948 260.447 612.0848)"><g transform="matrix(1 0 0 1 0 0)"><image x="0" y="0" xlink:href="img_20.png" width="27" height="38" /></g></g></g><g clip-path="url(#68)"></g><g clip-path="url(#69)"><g transform="matrix(1.023622 0 0 0.9973868 260.433 647.9353)"><g transform="matrix(1 0 0 1 0 0)"><image x="0" y="0" xlink:href="img_21.png" width="27" height="38" /></g></g></g><g clip-path="url(#70)"></g><g clip-path="url(#71)"><g transform="matrix(1.023274 0 0 0.9967948 403.302 605.6248)"><g transform="matrix(1 0 0 1 0 0)"><image x="0" y="0" xlink:href="img_22.png" width="27" height="38" /></g></g></g><g clip-path="url(#72)"></g><g clip-path="url(#73)"><g transform="matrix(-1.023274 0 0 0.9967948 542.179 606.7658)"><g transform="matrix(1 0 0 1 0 0)"><image x="0" y="0" xlink:href="img_22.png" width="27" height="38" /></g></g></g><path id="1633" transform="matrix(1 0 0 -1 0 834)" d="M633 15L633 0M633 819L633 834M21 15L21 0M21 819L21 834M639 21L654 21M15 21L0 21M639 813L654 813M15 813L0 813" stroke="#000000" stroke-width="1.25" fill="none" /><path id="1634" transform="matrix(1 0 0 -1 0 834)" d="M633 15L633 0M633 819L633 834M21 15L21 0M21 819L21 834M639 21L654 21M15 21L0 21M639 813L654 813M15 813L0 813" stroke="#000000" stroke-width="0.25" fill="none" /><path id="1635" transform="matrix(1 0 0 -1 0 834)" d="M32.2781 9.28203C 32.2781 9.516021 32.2961 9.58203 32.3559 9.62383C 32.416 9.66602 32.5719 9.69609 32.8238 9.69609C 33.2262 9.69609 33.5738 9.62383 33.8441 9.45C 34.3238 9.167971 34.552 8.63398 34.552 8.016021C 34.552 7.05586 34.0359 6.21602 32.9141 6.21602C 32.4762 6.21602 32.2781 6.33008 32.2781 6.78594zM31.252 9.900001L31.252 9.726171C 31.7141 9.68984 31.7621 9.66602 31.7621 9.150001L31.7621 9.150001L31.7621 6.74414C 31.7621 6.23398 31.7141 6.19805 31.198 6.16211L31.198 6.16211L31.198 6L31.198 6L32.6199 6C 33.3578 6 33.952 6.15 34.402 6.49805C 34.8641 6.84609 35.1398 7.38008 35.1398 8.1C 35.1398 8.664061 34.9301 9.101951 34.6359 9.38984C 34.2641 9.74414 33.7 9.900001 32.9379 9.900001z" stroke="#000000" stroke-width="0.4" fill="none" /><path id="1636" transform="matrix(1 0 0 -1 0 834)" d="M38.3801 6.97813C 38.2898 6.70195 38.1758 6.51016 38.0738 6.38984C 37.9359 6.23398 37.732 6.20391 37.402 6.20391C 37.15 6.20391 36.9461 6.21602 36.8258 6.28203C 36.718 6.34219 36.6879 6.46211 36.6879 6.78594L36.6879 6.78594L36.6879 9.15586C 36.6879 9.66602 36.7418 9.69609 37.216 9.73203L37.216 9.73203L37.216 9.900001L37.216 9.900001L35.65 9.900001L35.65 9.900001L35.65 9.73203C 36.1359 9.69609 36.1777 9.66602 36.1777 9.15586L36.1777 9.15586L36.1777 6.75586C 36.1777 6.24609 36.1301 6.20391 35.6258 6.16797L35.6258 6.16797L35.6258 6L35.6258 6L38.3438 6C 38.398 6.18594 38.5238 6.75586 38.5598 6.94219z" stroke="#000000" stroke-width="0.4" fill="none" /><path id="1637" transform="matrix(1 0 0 -1 0 834)" d="M41.0918 9.023829C 41.0438 9.40195 41.0141 9.63594 40.9898 9.851951C 40.7617 9.92383 40.5098 9.989841 40.234 9.989841C 39.4598 9.989841 38.998 9.49805 38.998 8.921881C 38.998 8.24414 39.6039 7.94414 39.9879 7.73984C 40.4379 7.5 40.768 7.28984 40.768 6.84609C 40.768 6.40781 40.498 6.12617 40.048 6.12617C 39.4301 6.12617 39.1598 6.73203 39.0641 7.09805L39.0641 7.09805L38.8898 7.05586C 38.9258 6.767971 39.0039 6.25195 39.052 6.12617C 39.1059 6.09609 39.1961 6.05391 39.3461 6C 39.4961 5.95781 39.6879 5.91016 39.934 5.91016C 40.732 5.91016 41.266 6.41406 41.266 7.04414C 41.266 7.71602 40.6961 7.99805 40.2277 8.23789C 39.7539 8.48398 39.466 8.68789 39.466 9.12617C 39.466 9.45 39.6699 9.78594 40.132 9.78594C 40.6539 9.78594 40.8098 9.371881 40.918 8.98789z" stroke="#000000" stroke-width="0.4" fill="none" /><path id="1638" transform="matrix(1 0 0 -1 0 834)" d="M46.648 6L46.648 6.16797C 46.1258 6.21602 46.1078 6.24609 46.0898 6.88203L46.0898 6.88203L46.0301 9.05391C 46.0117 9.671881 46.0539 9.68398 46.582 9.73203L46.582 9.73203L46.582 9.900001L46.582 9.900001L45.5617 9.900001L45.5617 9.900001L44.1758 6.9L44.1758 6.9L42.8078 9.900001L42.8078 9.900001L41.8238 9.900001L41.8238 9.900001L41.8238 9.73203C 42.3699 9.67813 42.4 9.653911 42.3461 8.87383L42.3461 8.87383L42.2617 7.626171C 42.2141 7.00195 42.1777 6.73789 42.148 6.528131C 42.1059 6.27617 41.9859 6.21016 41.6379 6.16797L41.6379 6.16797L41.6379 6L41.6379 6L43.0359 6L43.0359 6L43.0359 6.16797C 42.6398 6.21016 42.4961 6.25195 42.484 6.53984C 42.4777 6.78008 42.4777 7.04414 42.502 7.53594L42.502 7.53594L42.5918 9.24609L42.5918 9.24609L42.6039 9.24609L42.6039 9.24609L43.948 6.04219L43.948 6.04219L44.068 6.04219L44.068 6.04219L45.532 9.33008L45.532 9.33008L45.5559 9.33008L45.5559 9.33008L45.5738 6.88203C 45.5801 6.24609 45.5559 6.21602 45.0699 6.16797L45.0699 6.16797L45.0699 6z" stroke="#000000" stroke-width="0.4" fill="none" /><path id="1639" transform="matrix(1 0 0 -1 0 834)" d="M51.8738 7.05586C 51.5738 6.45586 51.2496 6.12617 50.6379 6.12617C 49.7258 6.12617 49.0656 6.89414 49.0656 8.016021C 49.0656 8.92813 49.5996 9.773829 50.602 9.773829C 51.2496 9.773829 51.6098 9.516021 51.7656 8.88008L51.7656 8.88008L51.9457 8.921881C 51.9098 9.24609 51.8738 9.48594 51.8258 9.828131C 51.6578 9.85781 51.2496 9.989841 50.7637 9.989841C 49.4258 9.989841 48.4539 9.15586 48.4539 7.89609C 48.4539 6.94219 49.1078 5.91016 50.602 5.91016C 51.034 5.91016 51.5379 6.03008 51.7059 6.07188C 51.8137 6.26992 51.9637 6.71406 52.0477 6.98984z" stroke="#000000" stroke-width="0.4" fill="none" /><path id="1640" transform="matrix(1 0 0 -1 0 834)" d="M54.3398 9.773829C 55.1258 9.773829 55.7855 9.101951 55.7855 7.83594C 55.7855 6.68398 55.1855 6.12617 54.5195 6.12617C 53.6738 6.12617 53.0559 6.94805 53.0559 8.076171C 53.0559 9.19805 53.6676 9.773829 54.3398 9.773829zM54.4598 9.989841C 53.1996 9.989841 52.4438 8.98789 52.4438 7.90781C 52.4438 6.75586 53.3078 5.91016 54.3938 5.91016C 55.4918 5.91016 56.3977 6.70195 56.3977 7.99805C 56.3977 9.19805 55.4797 9.989841 54.4598 9.989841z" stroke="#000000" stroke-width="0.4" fill="none" /><path id="1641" transform="matrix(1 0 0 -1 0 834)" d="M61.8277 6L61.8277 6.16797C 61.3059 6.21602 61.2879 6.24609 61.2695 6.88203L61.2695 6.88203L61.2098 9.05391C 61.1918 9.671881 61.2336 9.68398 61.7617 9.73203L61.7617 9.73203L61.7617 9.900001L61.7617 9.900001L60.7418 9.900001L60.7418 9.900001L59.3559 6.9L59.3559 6.9L57.9879 9.900001L57.9879 9.900001L57.0035 9.900001L57.0035 9.900001L57.0035 9.73203C 57.5496 9.67813 57.5797 9.653911 57.5258 8.87383L57.5258 8.87383L57.4418 7.626171C 57.3938 7.00195 57.3578 6.73789 57.3277 6.528131C 57.2855 6.27617 57.1656 6.21016 56.8176 6.16797L56.8176 6.16797L56.8176 6L56.8176 6L58.2156 6L58.2156 6L58.2156 6.16797C 57.8195 6.21016 57.6758 6.25195 57.6637 6.53984C 57.6578 6.78008 57.6578 7.04414 57.6816 7.53594L57.6816 7.53594L57.7719 9.24609L57.7719 9.24609L57.7836 9.24609L57.7836 9.24609L59.1277 6.04219L59.1277 6.04219L59.2477 6.04219L59.2477 6.04219L60.7117 9.33008L60.7117 9.33008L60.7355 9.33008L60.7355 9.33008L60.7535 6.88203C 60.7598 6.24609 60.7355 6.21602 60.2496 6.16797L60.2496 6.16797L60.2496 6z" stroke="#000000" stroke-width="0.4" fill="none" /><path id="1642" transform="matrix(1 0 0 -1 0 834)" d="M63.8258 6L63.8258 6.16797C 63.3336 6.20391 63.2855 6.23398 63.2855 6.75L63.2855 6.75L63.2855 9.150001C 63.2855 9.66016 63.3336 9.69609 63.8258 9.73203L63.8258 9.73203L63.8258 9.900001L63.8258 9.900001L62.2355 9.900001L62.2355 9.900001L62.2355 9.73203C 62.7277 9.69609 62.7758 9.66016 62.7758 9.150001L62.7758 9.150001L62.7758 6.75C 62.7758 6.23984 62.7277 6.20391 62.2355 6.16797L62.2355 6.16797L62.2355 6z" stroke="#000000" stroke-width="0.4" fill="none" /><path id="1643" transform="matrix(1 0 0 -1 0 834)" d="M66.5074 9.023829C 66.4598 9.40195 66.4297 9.63594 66.4055 9.851951C 66.1777 9.92383 65.9258 9.989841 65.6496 9.989841C 64.8758 9.989841 64.4137 9.49805 64.4137 8.921881C 64.4137 8.24414 65.0195 7.94414 65.4035 7.73984C 65.8535 7.5 66.1836 7.28984 66.1836 6.84609C 66.1836 6.40781 65.9137 6.12617 65.46371 6.12617C 64.8457 6.12617 64.5758 6.73203 64.4797 7.09805L64.4797 7.09805L64.3055 7.05586C 64.3418 6.767971 64.4195 6.25195 64.46761 6.12617C 64.52151 6.09609 64.6117 6.05391 64.7617 6C 64.91171 5.95781 65.1035 5.91016 65.3496 5.91016C 66.1477 5.91016 66.6816 6.41406 66.6816 7.04414C 66.6816 7.71602 66.1117 7.99805 65.6438 8.23789C 65.1695 8.48398 64.8816 8.68789 64.8816 9.12617C 64.8816 9.45 65.0855 9.78594 65.5477 9.78594C 66.0695 9.78594 66.2258 9.371881 66.3336 8.98789z" stroke="#000000" stroke-width="0.4" fill="none" /><path id="1644" transform="matrix(1 0 0 -1 0 834)" d="M69.4055 7.68008L68.3016 7.68008C 68.4816 8.171881 68.6734 8.69414 68.8656 9.21016L68.8656 9.21016L68.8777 9.21016zM70.9355 6L70.9355 6.16797C 70.5457 6.20391 70.46761 6.25781 70.2758 6.77383C 69.89181 7.81797 69.4895 8.95781 69.11761 9.989841L69.11761 9.989841L68.9316 9.93594L68.9316 9.93594L67.68951 6.78594C 67.4797 6.25781 67.3957 6.22188 67.0176 6.16797L67.0176 6.16797L67.0176 6L67.0176 6L68.3195 6L68.3195 6L68.3195 6.16797C 67.8695 6.21016 67.81561 6.26992 67.9477 6.64805C 68.0258 6.9 68.1156 7.15195 68.2117 7.42188L68.2117 7.42188L69.4895 7.42188C 69.62151 7.05586 69.74181 6.73203 69.8195 6.49805C 69.8977 6.26406 69.8438 6.21602 69.4656 6.16797L69.4656 6.16797L69.4656 6z" stroke="#000000" stroke-width="0.4" fill="none" /><path id="1645" transform="matrix(1 0 0 -1 0 834)" d="M71.7273 5.92813C 71.9195 5.92813 72.06371 6.06602 72.06371 6.27617C 72.06371 6.46797 71.9195 6.61797 71.7273 6.61797C 71.5355 6.61797 71.3914 6.46797 71.3914 6.27617C 71.3914 6.06602 71.5355 5.92813 71.7273 5.92813z" stroke="#000000" stroke-width="0.4" fill="none" /><path id="1646" transform="matrix(1 0 0 -1 0 834)" d="M73.9234 6L73.9234 6.15586C 73.53951 6.19219 73.4977 6.22813 73.4977 6.63594L73.4977 6.63594L73.4977 8.70586C 73.2336 8.59805 72.9516 8.51992 72.6453 8.471881L72.6453 8.471881L72.6453 8.328131C 73.0055 8.26797 73.0234 8.24414 73.0234 7.871881L73.0234 7.871881L73.0234 6.63594C 73.0234 6.22813 72.9816 6.19219 72.6035 6.15586L72.6035 6.15586L72.6035 6zM73.2215 9.216021C 73.3953 9.216021 73.52731 9.36016 73.52731 9.52188C 73.52731 9.70195 73.3953 9.83398 73.2273 9.83398C 73.06561 9.83398 72.9215 9.70195 72.9215 9.52188C 72.9215 9.36016 73.06561 9.216021 73.2215 9.216021z" stroke="#000000" stroke-width="0.4" fill="none" /><path id="1647" transform="matrix(1 0 0 -1 0 834)" d="M77.1574 6L77.1574 6.15586C 76.8094 6.19219 76.7793 6.21602 76.7793 6.62383L76.7793 6.62383L76.7793 7.78203C 76.7793 8.36406 76.4793 8.69414 76.0055 8.69414C 75.8313 8.69414 75.67541 8.621881 75.5074 8.51406C 75.3574 8.41211 75.2254 8.32188 75.1055 8.23203L75.1055 8.23203L75.1055 8.712111C 74.8414 8.59219 74.5594 8.51992 74.27151 8.466021L74.27151 8.466021L74.27151 8.328131C 74.5953 8.26797 74.6313 8.25 74.6313 7.86602L74.6313 7.86602L74.6313 6.62383C 74.6313 6.22813 74.6016 6.19805 74.19341 6.15586L74.19341 6.15586L74.19341 6L74.19341 6L75.4953 6L75.4953 6L75.4953 6.15586C 75.1414 6.19219 75.1055 6.21602 75.1055 6.62383L75.1055 6.62383L75.1055 8.03398C 75.2855 8.18984 75.5195 8.33984 75.7594 8.33984C 76.1613 8.33984 76.3055 8.069921 76.3055 7.65586L76.3055 7.65586L76.3055 6.65391C 76.3055 6.23984 76.2633 6.19219 75.9094 6.15586L75.9094 6.15586L75.9094 6z" stroke="#000000" stroke-width="0.4" fill="none" /><path id="1648" transform="matrix(1 0 0 -1 0 834)" d="M79.4734 6.51016C 79.32931 6.40195 79.1133 6.30586 78.8973 6.30586C 78.5133 6.30586 78.0754 6.65391 78.0754 7.36797C 78.0754 8.23789 78.57931 8.471881 78.8555 8.471881C 79.0832 8.471881 79.32931 8.37617 79.4734 8.16602zM80.4035 6.30586L80.2113 6.32383C 79.9895 6.34805 79.9473 6.37813 79.9473 6.68984L79.9473 6.68984L79.9473 10.2719C 79.7254 10.1941 79.3234 10.1039 79.0113 10.0621L79.0113 10.0621L79.0113 9.917971C 79.44341 9.88789 79.4734 9.869921 79.4734 9.47383L79.4734 9.47383L79.4734 8.628131C 79.3355 8.67617 79.1613 8.69414 79.0773 8.69414C 78.2613 8.69414 77.5293 8.03984 77.5293 7.20586C 77.5293 6.36602 78.1594 5.92813 78.6395 5.92813C 78.7113 5.92813 78.87341 5.96406 79.1074 6.10195L79.1074 6.10195L79.4734 6.31797L79.4734 6.31797L79.4734 5.92813C 79.8215 6.05391 80.27151 6.13203 80.4035 6.15586z" stroke="#000000" stroke-width="0.4" fill="none" /><path id="1649" transform="matrix(1 0 0 -1 0 834)" d="M81.3813 8.24414C 81.4895 8.310161 81.6813 8.35781 81.84921 8.35781C 82.34731 8.35781 82.7676 7.96211 82.7676 7.278131C 82.7676 6.58203 82.4492 6.15586 81.9516 6.15586C 81.6336 6.16211 81.4535 6.37188 81.4176 6.49219C 81.3934 6.54609 81.3813 6.60586 81.3813 6.69609zM81.3813 8.42383L81.3813 10.2719C 81.1594 10.1941 80.7934 10.098 80.5113 10.0621L80.5113 10.0621L80.5113 9.92383C 80.8953 9.88789 80.9074 9.851951 80.9074 9.48008L80.9074 9.48008L80.9074 6.14414C 81.2375 5.98789 81.5434 5.92813 81.78951 5.92813C 82.59341 5.92813 83.2953 6.55195 83.2953 7.43398C 83.2953 8.14219 82.7555 8.69414 82.1133 8.69414C 82.0473 8.69414 81.9633 8.67617 81.86761 8.63398z" stroke="#000000" stroke-width="0.4" fill="none" /><path id="1650" transform="matrix(1 0 0 -1 0 834)" d="M90.0754 6.83984C 89.8953 6.46211 89.8172 6.43789 89.4934 6.43789L89.4934 6.43789L88.3711 6.43789L88.3711 6.43789L89.223 7.33203C 89.77541 7.91992 90.0152 8.273829 90.0152 8.79609C 90.0152 9.42617 89.5352 9.810161 89.007 9.810161C 88.6594 9.810161 88.3773 9.653911 88.1973 9.45586L88.1973 9.45586L87.8551 8.96992L87.8551 8.96992L87.9871 8.85C 88.1434 9.08398 88.3953 9.40781 88.8031 9.40781C 89.24731 9.40781 89.5113 9.11406 89.5113 8.61016C 89.5113 8.09414 89.1332 7.60195 88.7613 7.15781C 88.4613 6.81016 88.1254 6.46797 87.7891 6.13789L87.7891 6.13789L87.7891 6L87.7891 6L90.0332 6C 90.1051 6.26992 90.1652 6.53398 90.2434 6.78594z" stroke="#000000" stroke-width="0.4" fill="none" /><path id="1651" transform="matrix(1 0 0 -1 0 834)" d="M92.9551 6.83984C 92.77541 6.46211 92.6973 6.43789 92.373 6.43789L92.373 6.43789L91.25121 6.43789L91.25121 6.43789L92.1031 7.33203C 92.65511 7.91992 92.8953 8.273829 92.8953 8.79609C 92.8953 9.42617 92.4152 9.810161 91.8871 9.810161C 91.5391 9.810161 91.257 9.653911 91.0773 9.45586L91.0773 9.45586L90.7352 8.96992L90.7352 8.96992L90.8672 8.85C 91.023 9.08398 91.27541 9.40781 91.6832 9.40781C 92.1273 9.40781 92.391 9.11406 92.391 8.61016C 92.391 8.09414 92.0133 7.60195 91.641 7.15781C 91.341 6.81016 91.0051 6.46797 90.6691 6.13789L90.6691 6.13789L90.6691 6L90.6691 6L92.9133 6C 92.9852 6.26992 93.0453 6.53398 93.123 6.78594z" stroke="#000000" stroke-width="0.4" fill="none" /><path id="1652" transform="matrix(1 0 0 -1 0 834)" d="M95.6672 6L95.6672 6.16211C 95.1211 6.20391 95.0852 6.25195 95.0852 6.68398L95.0852 6.68398L95.0852 9.810161C 94.7551 9.67813 94.40121 9.56406 94.0172 9.49805L94.0172 9.49805L94.0172 9.36016L94.0172 9.36016L94.30511 9.34805C 94.5691 9.33594 94.59341 9.305861 94.59341 8.99414L94.59341 8.99414L94.59341 6.68398C 94.59341 6.25195 94.5633 6.20391 94.0172 6.16211L94.0172 6.16211L94.0172 6z" stroke="#000000" stroke-width="0.4" fill="none" /><path id="1671" transform="matrix(1 0 0 -1 0 834)" d="M554.472 6.83984C 554.292 6.46211 554.2141 6.43789 553.89 6.43789L553.89 6.43789L552.768 6.43789L552.768 6.43789L553.6201 7.33203C 554.1721 7.91992 554.412 8.273829 554.412 8.79609C 554.412 9.42617 553.932 9.810161 553.404 9.810161C 553.056 9.810161 552.774 9.653911 552.594 9.45586L552.594 9.45586L552.252 8.96992L552.252 8.96992L552.384 8.85C 552.54 9.08398 552.792 9.40781 553.2 9.40781C 553.644 9.40781 553.908 9.11406 553.908 8.61016C 553.908 8.09414 553.53 7.60195 553.158 7.15781C 552.858 6.81016 552.522 6.46797 552.186 6.13789L552.186 6.13789L552.186 6L552.186 6L554.43 6C 554.502 6.26992 554.562 6.53398 554.64 6.78594z" stroke="#000000" stroke-width="0.4" fill="none" /><path id="1672" transform="matrix(1 0 0 -1 0 834)" d="M555.792 9.3L557.19 9.3L557.19 9.3L557.346 9.68984L557.346 9.68984L557.31 9.73789L557.31 9.73789L555.6 9.73789L555.6 9.73789L555.366 7.90781C 555.504 7.96211 555.732 8.028131 555.984 8.028131C 556.638 8.028131 556.962 7.65 556.962 7.121881C 556.962 6.67188 556.71 6.23398 556.2 6.23398C 555.834 6.23398 555.588 6.42617 555.462 6.53984C 555.402 6.58789 555.354 6.58203 555.3 6.53984C 555.234 6.48008 555.18 6.40195 555.174 6.34219C 555.162 6.26992 555.192 6.22188 555.27 6.13789C 555.36 6.05391 555.612 5.92813 555.888 5.92813C 556.206 5.93398 556.608 6.08984 556.932 6.35391C 557.298 6.65391 557.466 6.99609 557.466 7.35586C 557.466 7.84805 557.076 8.369921 556.308 8.369921C 556.146 8.369921 555.864 8.273829 555.636 8.18984z" stroke="#000000" stroke-width="0.4" fill="none" /><path id="1673" transform="matrix(1 0 0 -1 0 834)" d="M559.548 9.989841L559.212 9.989841L559.212 9.989841L557.91 5.73594L557.91 5.73594L558.246 5.73594z" stroke="#000000" stroke-width="0.4" fill="none" /><path id="1674" transform="matrix(1 0 0 -1 0 834)" d="M561.18 9.61211C 561.72 9.61211 561.8701 8.72383 561.8701 7.871881C 561.8701 7.03203 561.726 6.13203 561.186 6.13203C 560.664 6.13203 560.49 7.03789 560.49 7.87813C 560.49 8.712111 560.634 9.61211 561.18 9.61211zM561.186 9.810161C 560.286 9.810161 559.956 8.74219 559.956 7.86602C 559.956 6.91797 560.28 5.92813 561.186 5.92813C 562.086 5.92813 562.404 6.99609 562.404 7.871881C 562.404 8.79609 562.086 9.810161 561.186 9.810161z" stroke="#000000" stroke-width="0.4" fill="none" /><path id="1675" transform="matrix(1 0 0 -1 0 834)" d="M564 9.61211C 564.582 9.61211 564.738 8.86797 564.738 8.33984C 564.738 8.21992 564.732 8.076171 564.7141 7.94414C 564.588 7.84805 564.384 7.77617 564.174 7.77617C 563.67 7.77617 563.3701 8.214061 563.3701 8.74219C 563.3701 9.09609 563.538 9.61211 564 9.61211zM564.078 9.810161C 563.304 9.810161 562.854 9.10781 562.854 8.53203C 562.854 7.90195 563.292 7.43398 563.928 7.43398C 564.042 7.43398 564.156 7.45781 564.288 7.53008L564.288 7.53008L564.69 7.74609C 564.492 6.83398 563.838 6.23398 562.98 6.08984L562.98 6.08984L563.01 5.91016C 563.16 5.91016 563.526 5.96992 563.85 6.10195C 564.66 6.42617 565.2661 7.20586 565.2661 8.310161C 565.2661 9.12617 564.828 9.810161 564.078 9.810161z" stroke="#000000" stroke-width="0.4" fill="none" /><path id="1676" transform="matrix(1 0 0 -1 0 834)" d="M567.294 9.989841L566.958 9.989841L566.958 9.989841L565.656 5.73594L565.656 5.73594L565.992 5.73594z" stroke="#000000" stroke-width="0.4" fill="none" /><path id="1677" transform="matrix(1 0 0 -1 0 834)" d="M569.9641 6.83984C 569.784 6.46211 569.706 6.43789 569.382 6.43789L569.382 6.43789L568.26 6.43789L568.26 6.43789L569.112 7.33203C 569.664 7.91992 569.904 8.273829 569.904 8.79609C 569.904 9.42617 569.424 9.810161 568.896 9.810161C 568.548 9.810161 568.2661 9.653911 568.086 9.45586L568.086 9.45586L567.744 8.96992L567.744 8.96992L567.876 8.85C 568.032 9.08398 568.284 9.40781 568.692 9.40781C 569.136 9.40781 569.4 9.11406 569.4 8.61016C 569.4 8.09414 569.022 7.60195 568.65 7.15781C 568.35 6.81016 568.014 6.46797 567.678 6.13789L567.678 6.13789L567.678 6L567.678 6L569.9221 6C 569.994 6.26992 570.054 6.53398 570.132 6.78594z" stroke="#000000" stroke-width="0.4" fill="none" /><path id="1678" transform="matrix(1 0 0 -1 0 834)" d="M571.806 9.61211C 572.346 9.61211 572.496 8.72383 572.496 7.871881C 572.496 7.03203 572.352 6.13203 571.812 6.13203C 571.29 6.13203 571.116 7.03789 571.116 7.87813C 571.116 8.712111 571.26 9.61211 571.806 9.61211zM571.812 9.810161C 570.912 9.810161 570.582 8.74219 570.582 7.86602C 570.582 6.91797 570.906 5.92813 571.812 5.92813C 572.712 5.92813 573.03 6.99609 573.03 7.871881C 573.03 8.79609 572.712 9.810161 571.812 9.810161z" stroke="#000000" stroke-width="0.4" fill="none" /><path id="1679" transform="matrix(1 0 0 -1 0 834)" d="M575.556 6L575.556 6.16211C 575.01 6.20391 574.9741 6.25195 574.9741 6.68398L574.9741 6.68398L574.9741 9.810161C 574.644 9.67813 574.29 9.56406 573.906 9.49805L573.906 9.49805L573.906 9.36016L573.906 9.36016L574.194 9.34805C 574.458 9.33594 574.482 9.305861 574.482 8.99414L574.482 8.99414L574.482 6.68398C 574.482 6.25195 574.452 6.20391 573.906 6.16211L573.906 6.16211L573.906 6z" stroke="#000000" stroke-width="0.4" fill="none" /><path id="1680" transform="matrix(1 0 0 -1 0 834)" d="M578.814 9.73789L576.522 9.73789C 576.498 9.48008 576.468 9.180079 576.414 8.85L576.414 8.85L576.588 8.85C 576.732 9.24609 576.768 9.3 577.164 9.3L577.164 9.3L578.46 9.3C 577.986 8.25586 577.308 7.01406 576.678 5.99414L576.678 5.99414L576.72 5.92813L576.72 5.92813L577.164 5.98789C 577.74 7.22383 578.298 8.44805 578.862 9.66602z" stroke="#000000" stroke-width="0.4" fill="none" /><path id="1681" transform="matrix(1 0 0 -1 0 834)" d="M584.531 9.61211C 585.071 9.61211 585.221 8.72383 585.221 7.871881C 585.221 7.03203 585.077 6.13203 584.537 6.13203C 584.015 6.13203 583.841 7.03789 583.841 7.87813C 583.841 8.712111 583.985 9.61211 584.531 9.61211zM584.537 9.810161C 583.637 9.810161 583.307 8.74219 583.307 7.86602C 583.307 6.91797 583.631 5.92813 584.537 5.92813C 585.437 5.92813 585.755 6.99609 585.755 7.871881C 585.755 8.79609 585.437 9.810161 584.537 9.810161z" stroke="#000000" stroke-width="0.4" fill="none" /><path id="1682" transform="matrix(1 0 0 -1 0 834)" d="M588.449 6.83984C 588.269 6.46211 588.191 6.43789 587.867 6.43789L587.867 6.43789L586.7451 6.43789L586.7451 6.43789L587.597 7.33203C 588.149 7.91992 588.389 8.273829 588.389 8.79609C 588.389 9.42617 587.909 9.810161 587.381 9.810161C 587.033 9.810161 586.751 9.653911 586.571 9.45586L586.571 9.45586L586.229 8.96992L586.229 8.96992L586.361 8.85C 586.517 9.08398 586.769 9.40781 587.177 9.40781C 587.621 9.40781 587.885 9.11406 587.885 8.61016C 587.885 8.09414 587.507 7.60195 587.135 7.15781C 586.835 6.81016 586.499 6.46797 586.163 6.13789L586.163 6.13789L586.163 6L586.163 6L588.407 6C 588.479 6.26992 588.539 6.53398 588.617 6.78594z" stroke="#000000" stroke-width="0.4" fill="none" /><path id="1683" transform="matrix(1 0 0 -1 0 834)" d="M589.5471 5.92813C 589.739 5.92813 589.883 6.06602 589.883 6.27617C 589.883 6.46797 589.739 6.61797 589.5471 6.61797C 589.355 6.61797 589.211 6.46797 589.211 6.27617C 589.211 6.06602 589.355 5.92813 589.5471 5.92813zM589.541 8.466021C 589.3491 8.466021 589.211 8.328131 589.211 8.13008C 589.211 7.92617 589.3491 7.78203 589.541 7.78203C 589.733 7.78203 589.877 7.92617 589.877 8.13008C 589.877 8.328131 589.733 8.466021 589.541 8.466021z" stroke="#000000" stroke-width="0.4" fill="none" /><path id="1684" transform="matrix(1 0 0 -1 0 834)" d="M590.735 8.976171C 590.885 9.19805 591.125 9.45 591.455 9.45C 591.773 9.45 592.025 9.257811 592.025 8.88594C 592.025 8.44219 591.617 8.20781 591.065 8.03398L591.065 8.03398L591.107 7.86016C 591.203 7.88984 591.347 7.92617 591.491 7.92617C 591.833 7.92617 592.253 7.70391 592.253 7.15195C 592.253 6.55781 591.953 6.23984 591.527 6.23984C 591.185 6.23984 590.939 6.40781 590.783 6.54609C 590.735 6.58789 590.687 6.58203 590.639 6.54609C 590.585 6.50391 590.507 6.42617 590.501 6.34805C 590.489 6.27617 590.513 6.21016 590.597 6.13203C 590.675 6.06016 590.921 5.92813 591.197 5.92813C 591.629 5.92813 592.769 6.37188 592.769 7.34414C 592.769 7.78203 592.463 8.153911 591.935 8.25586L591.935 8.25586L591.935 8.26797C 592.109 8.38789 592.253 8.49609 592.343 8.59219C 592.457 8.70586 592.529 8.84414 592.529 9.01797C 592.529 9.47383 592.175 9.810161 591.635 9.810161C 591.317 9.810161 591.041 9.66016 590.873 9.47383L590.873 9.47383L590.609 9.09609z" stroke="#000000" stroke-width="0.4" fill="none" /><path id="1685" transform="matrix(1 0 0 -1 0 834)" d="M594.473 8.02188C 595.019 8.02188 595.271 7.53008 595.271 7.03203C 595.271 6.63594 595.127 6.13203 594.659 6.13203C 594.167 6.13203 593.861 6.719921 593.861 7.43984C 593.861 7.59609 593.867 7.73984 593.897 7.85391C 594.041 7.93203 594.2451 8.02188 594.473 8.02188zM593.927 8.057811C 594.107 8.89219 594.665 9.26992 595.031 9.44414C 595.253 9.54609 595.487 9.61797 595.685 9.653911L595.685 9.653911L595.643 9.84609C 595.403 9.80391 595.115 9.73789 594.875 9.653911C 594.239 9.419921 593.327 8.74219 593.327 7.428131C 593.327 6.50391 593.855 5.92813 594.557 5.92813C 595.277 5.92813 595.787 6.53398 595.787 7.24805C 595.787 7.86602 595.3491 8.35781 594.707 8.35781C 594.587 8.35781 594.461 8.31602 594.329 8.25586z" stroke="#000000" stroke-width="0.4" fill="none" /><path id="1686" transform="matrix(1 0 0 -1 0 834)" d="M596.675 5.92813C 596.867 5.92813 597.011 6.06602 597.011 6.27617C 597.011 6.46797 596.867 6.61797 596.675 6.61797C 596.483 6.61797 596.3391 6.46797 596.3391 6.27617C 596.3391 6.06602 596.483 5.92813 596.675 5.92813zM596.669 8.466021C 596.477 8.466021 596.3391 8.328131 596.3391 8.13008C 596.3391 7.92617 596.477 7.78203 596.669 7.78203C 596.861 7.78203 597.005 7.92617 597.005 8.13008C 597.005 8.328131 596.861 8.466021 596.669 8.466021z" stroke="#000000" stroke-width="0.4" fill="none" /><path id="1687" transform="matrix(1 0 0 -1 0 834)" d="M598.787 9.61211C 599.327 9.61211 599.477 8.72383 599.477 7.871881C 599.477 7.03203 599.333 6.13203 598.793 6.13203C 598.271 6.13203 598.097 7.03789 598.097 7.87813C 598.097 8.712111 598.241 9.61211 598.787 9.61211zM598.793 9.810161C 597.893 9.810161 597.563 8.74219 597.563 7.86602C 597.563 6.91797 597.887 5.92813 598.793 5.92813C 599.6931 5.92813 600.011 6.99609 600.011 7.871881C 600.011 8.79609 599.6931 9.810161 598.793 9.810161z" stroke="#000000" stroke-width="0.4" fill="none" /><path id="1688" transform="matrix(1 0 0 -1 0 834)" d="M601.145 9.3L602.543 9.3L602.543 9.3L602.699 9.68984L602.699 9.68984L602.663 9.73789L602.663 9.73789L600.953 9.73789L600.953 9.73789L600.719 7.90781C 600.857 7.96211 601.085 8.028131 601.337 8.028131C 601.991 8.028131 602.315 7.65 602.315 7.121881C 602.315 6.67188 602.063 6.23398 601.553 6.23398C 601.187 6.23398 600.941 6.42617 600.815 6.53984C 600.755 6.58789 600.707 6.58203 600.653 6.53984C 600.587 6.48008 600.533 6.40195 600.527 6.34219C 600.515 6.26992 600.545 6.22188 600.623 6.13789C 600.713 6.05391 600.965 5.92813 601.241 5.92813C 601.559 5.93398 601.961 6.08984 602.285 6.35391C 602.651 6.65391 602.819 6.99609 602.819 7.35586C 602.819 7.84805 602.429 8.369921 601.661 8.369921C 601.499 8.369921 601.217 8.273829 600.989 8.18984z" stroke="#000000" stroke-width="0.4" fill="none" /><path id="1689" transform="matrix(1 0 0 -1 0 834)" d="M605.489 8.08203C 605.651 8.20195 605.897 8.33398 606.0891 8.33398C 606.527 8.33398 606.893 7.97383 606.893 7.33203C 606.893 6.65391 606.557 6.22188 606.053 6.22188C 605.8491 6.22188 605.621 6.31797 605.489 6.45586zM605.489 8.28008L605.489 8.75391C 605.207 8.63984 604.871 8.53789 604.619 8.49609L604.619 8.49609L604.619 8.351951C 604.991 8.30391 605.015 8.29219 605.015 7.90195L605.015 7.90195L605.015 5.18984C 605.015 4.79414 604.961 4.75781 604.577 4.72188L604.577 4.72188L604.577 4.56016L604.577 4.56016L605.999 4.56016L605.999 4.56016L605.999 4.72188C 605.531 4.76406 605.489 4.79414 605.489 5.25L605.489 5.25L605.489 6.03594C 605.567 5.99414 605.729 5.93398 605.903 5.92813C 606.683 6.07188 607.397 6.65391 607.397 7.56016C 607.397 8.153911 607.001 8.69414 606.335 8.69414C 606.263 8.69414 606.149 8.664061 606.041 8.60391z" stroke="#000000" stroke-width="0.4" fill="none" /><path id="1690" transform="matrix(1 0 0 -1 0 834)" d="M608.303 5.92813C 608.4951 5.92813 608.639 6.06602 608.639 6.27617C 608.639 6.46797 608.4951 6.61797 608.303 6.61797C 608.111 6.61797 607.967 6.46797 607.967 6.27617C 607.967 6.06602 608.111 5.92813 608.303 5.92813z" stroke="#000000" stroke-width="0.4" fill="none" /><path id="1691" transform="matrix(1 0 0 -1 0 834)" d="M615.125 6L615.125 6.15586C 614.783 6.19219 614.735 6.21602 614.735 6.61797L614.735 6.61797L614.735 7.77617C 614.735 8.36406 614.441 8.69414 613.973 8.69414C 613.805 8.69414 613.649 8.621881 613.523 8.53789C 613.373 8.44805 613.199 8.33398 613.025 8.20195C 612.905 8.51406 612.647 8.69414 612.359 8.69414C 612.167 8.69414 612.023 8.628131 611.867 8.53203C 611.687 8.417971 611.555 8.310161 611.429 8.226171L611.429 8.226171L611.429 8.712111C 611.165 8.59219 610.859 8.51406 610.595 8.466021L610.595 8.466021L610.595 8.328131C 610.9431 8.273829 610.961 8.24414 610.961 7.86016L610.961 7.86016L610.961 6.61797C 610.961 6.22813 610.907 6.19219 610.511 6.15586L610.511 6.15586L610.511 6L610.511 6L611.777 6L611.777 6L611.777 6.15586C 611.483 6.19219 611.435 6.22813 611.435 6.61797L611.435 6.61797L611.435 8.028131C 611.615 8.17813 611.8491 8.33984 612.0891 8.33984C 612.455 8.33984 612.611 8.09414 612.611 7.65L612.611 7.65L612.611 6.61797C 612.611 6.22188 612.557 6.19219 612.185 6.15586L612.185 6.15586L612.185 6L612.185 6L613.469 6L613.469 6L613.469 6.15586C 613.139 6.19219 613.085 6.22813 613.085 6.60586L613.085 6.60586L613.085 7.77617C 613.085 7.88984 613.079 7.95586 613.067 8.028131C 613.295 8.21992 613.523 8.33984 613.739 8.33984C 614.117 8.33984 614.267 8.069921 614.267 7.64414L614.267 7.64414L614.267 6.64219C 614.267 6.21602 614.201 6.19219 613.847 6.15586L613.847 6.15586L613.847 6z" stroke="#000000" stroke-width="0.4" fill="none" /><path id="1692" transform="matrix(1 0 0 -1 0 834)" d="M615.947 5.92813C 616.139 5.92813 616.283 6.06602 616.283 6.27617C 616.283 6.46797 616.139 6.61797 615.947 6.61797C 615.755 6.61797 615.611 6.46797 615.611 6.27617C 615.611 6.06602 615.755 5.92813 615.947 5.92813z" stroke="#000000" stroke-width="0.4" fill="none" /></g></g></svg>