<svg xmlns="http://www.w3.org/2000/svg" xmlns:xlink="http://www.w3.org/1999/xlink" id="body_1" preserveAspectRatio="xMinYMin meet" viewBox="0 0 872 1112"><defs><clipPath id="1"><path id="" clip-rule="evenodd" transform="matrix(1 0 0 1 0 0)" d="M0 834L0 0L0 0L654 0L654 0L654 834L654 834L0 834z" /></clipPath><clipPath id="2"><path id="" clip-rule="evenodd" transform="matrix(1 0 0 1 0 0)" d="M21 813L633 813L633 813L633 21L633 21L21 21z" /></clipPath><clipPath id="3"><path id="" clip-rule="evenodd" transform="matrix(1 0 0 1 0 0)" d="M118.716 700.279L205.073 700.279L205.073 700.279L205.073 578.12L205.073 578.12L118.716 578.12z" /></clipPath><clipPath id="4"><path id="" clip-rule="evenodd" transform="matrix(1 0 0 1 0 0)" d="M118.716 700.279L205.073 700.279L205.073 700.279L205.073 578.12L205.073 578.12L118.716 578.12z" /></clipPath><clipPath id="5"><path id="" clip-rule="evenodd" transform="matrix(1 0 0 1 0 0)" d="M248.813 699.883L374.9 699.883L374.9 699.883L374.9 577.724L374.9 577.724L248.813 577.724z" /></clipPath><clipPath id="6"><path id="" clip-rule="evenodd" transform="matrix(1 0 0 1 0 0)" d="M248.813 699.883L374.9 699.883L374.9 699.883L374.9 577.724L374.9 577.724L248.813 577.724z" /></clipPath><clipPath id="7"><path id="" clip-rule="evenodd" transform="matrix(1 0 0 1 0 0)" d="M154.007 643.008L157.0351 643.008L157.0351 643.008L157.0351 619.2791L157.0351 619.2791L154.007 619.2791z" /></clipPath><clipPath id="8"><path id="" clip-rule="evenodd" transform="matrix(1 0 0 1 0 0)" d="M154.007 643.008L157.035 643.008L157.035 643.008L157.035 619.279L157.035 619.279L154.007 619.279z" /></clipPath><clipPath id="9"><path id="" clip-rule="evenodd" transform="matrix(1 0 0 1 0 0)" d="M154.007 643.008L157.0351 643.008L157.0351 643.008L157.0351 619.2791L157.0351 619.2791L154.007 619.2791z" /></clipPath><clipPath id="10"><path id="" clip-rule="evenodd" transform="matrix(1 0 0 1 0 0)" d="M154.007 643.008L157.0351 643.008L157.0351 643.008L157.0351 619.2783L157.0351 619.2783L154.007 619.2783z" /></clipPath><clipPath id="11"><path id="" clip-rule="evenodd" transform="matrix(1 0 0 1 0 0)" d="M154.007 643.008L157.0351 643.008L157.0351 643.008L157.0351 619.2791L157.0351 619.2791L154.007 619.2791z" /></clipPath><clipPath id="12"><path id="" clip-rule="evenodd" transform="matrix(1 0 0 1 0 0)" d="M118.715 700.89L390.213 700.89L390.213 700.89L390.213 577.724L390.213 577.724L118.715 577.724z" /></clipPath><clipPath id="13"><path id="" clip-rule="evenodd" transform="matrix(1 0 0 1 0 0)" d="M188.602 669.768L188.602 676.062C 189.93 689.613 199.721 700.136 211.603 700.136L211.603 700.136L211.603 700.136C 219.523 700.136 226.516 695.459 230.69 688.325L230.69 688.325L230.69 688.325L230.69 688.325L230.69 657.504C 226.516 650.37 219.523 645.694 211.603 645.694L211.603 645.694L211.603 645.694C 199.721 645.694 189.93 656.217 188.602 669.768" /></clipPath><clipPath id="14"><path id="" clip-rule="evenodd" transform="matrix(1 0 0 1 0 0)" d="M188.602 669.768L188.602 676.062C 189.93 689.613 199.721 700.136 211.603 700.136L211.603 700.136L211.603 700.136C 219.523 700.136 226.516 695.459 230.69 688.325L230.69 688.325L230.69 688.325L230.69 688.325L230.69 657.504C 226.516 650.37 219.523 645.694 211.603 645.694L211.603 645.694L211.603 645.694C 199.721 645.694 189.93 656.217 188.602 669.768" /></clipPath><clipPath id="15"><path id="" clip-rule="evenodd" transform="matrix(1 0 0 1 0 0)" d="M118.715 700.89L390.213 700.89L390.213 700.89L390.213 577.724L390.213 577.724L118.715 577.724z" /></clipPath><clipPath id="16"><path id="" clip-rule="evenodd" transform="matrix(1 0 0 1 0 0)" d="M257.543 646.966L275.1621 646.966L275.1621 646.966L275.1621 642.2441L275.1621 642.2441L257.543 642.2441z" /></clipPath><clipPath id="17"><path id="" clip-rule="evenodd" transform="matrix(1 0 0 1 0 0)" d="M257.543 646.966L275.162 646.966L275.162 646.966L275.162 642.244L275.162 642.244L257.543 642.244z" /></clipPath><clipPath id="18"><path id="" clip-rule="evenodd" transform="matrix(1 0 0 1 0 0)" d="M257.543 646.966L275.1629 646.966L275.1629 646.966L275.1629 642.2441L275.1629 642.2441L257.543 642.2441z" /></clipPath><clipPath id="19"><path id="" clip-rule="evenodd" transform="matrix(1 0 0 1 0 0)" d="M274.87 648.639L289.0442 648.639L289.0442 648.639L289.0442 646.1839L289.0442 646.1839L274.87 646.1839z" /></clipPath><clipPath id="20"><path id="" clip-rule="evenodd" transform="matrix(1 0 0 1 0 0)" d="M274.87 648.639L289.044 648.639L289.044 648.639L289.044 646.184L289.044 646.184L274.87 646.184z" /></clipPath><clipPath id="21"><path id="" clip-rule="evenodd" transform="matrix(1 0 0 1 0 0)" d="M274.87 648.639L289.0442 648.639L289.0442 648.639L289.0442 646.1839L289.0442 646.1839L274.87 646.1839z" /></clipPath><clipPath id="22"><path id="" clip-rule="evenodd" transform="matrix(1 0 0 1 0 0)" d="M118.715 700.89L390.213 700.89L390.213 700.89L390.213 577.724L390.213 577.724L118.715 577.724z" /></clipPath><clipPath id="23"><path id="" clip-rule="evenodd" transform="matrix(1 0 0 1 0 0)" d="M356.276 654.403L373.1908 654.403L373.1908 654.403L373.1908 648.8358L373.1908 648.8358L356.276 648.8358z" /></clipPath><clipPath id="24"><path id="" clip-rule="evenodd" transform="matrix(1 0 0 1 0 0)" d="M356.276 654.403L373.191 654.403L373.191 654.403L373.191 648.836L373.191 648.836L356.276 648.836z" /></clipPath><clipPath id="25"><path id="" clip-rule="evenodd" transform="matrix(1 0 0 1 0 0)" d="M356.276 654.403L373.1905 654.403L373.1905 654.403L373.1905 648.8358L373.1905 648.8358L356.276 648.8358z" /></clipPath><clipPath id="26"><path id="" clip-rule="evenodd" transform="matrix(1 0 0 1 0 0)" d="M343.986 656.461L356.659 656.461L356.659 656.461L356.659 653.663L356.659 653.663L343.986 653.663z" /></clipPath><clipPath id="27"><path id="" clip-rule="evenodd" transform="matrix(1 0 0 1 0 0)" d="M343.986 656.461L356.659 656.461L356.659 656.461L356.659 653.663L356.659 653.663L343.986 653.663z" /></clipPath><clipPath id="28"><path id="" clip-rule="evenodd" transform="matrix(1 0 0 1 0 0)" d="M343.986 656.461L356.659 656.461L356.659 656.461L356.659 653.663L356.659 653.663L343.986 653.663z" /></clipPath><clipPath id="29"><path id="" clip-rule="evenodd" transform="matrix(1 0 0 1 0 0)" d="M118.715 700.89L390.213 700.89L390.213 700.89L390.213 577.724L390.213 577.724L118.715 577.724z" /></clipPath><clipPath id="30"><path id="" clip-rule="evenodd" transform="matrix(1 0 0 1 0 0)" d="M348.662 661.117C 340.314 662.352 333.374 666.325 329.774 671.659L329.774 671.659L329.774 671.659L329.774 671.659L329.774 688.357C 334.144 694.83 343.436 699.301 354.194 699.301L354.194 699.301L354.194 699.301C 366.369 699.301 376.669 693.575 380.076 685.696L380.076 685.696L380.076 685.696L380.076 685.696L380.076 674.318C 377.199 667.667 369.409 662.549 359.725 661.117L359.725 661.117L359.725 661.117z" /></clipPath><clipPath id="31"><path id="" clip-rule="evenodd" transform="matrix(1 0 0 1 0 0)" d="M348.662 661.117C 340.314 662.352 333.374 666.325 329.774 671.659L329.774 671.659L329.774 671.659L329.774 671.659L329.774 688.357C 334.144 694.83 343.436 699.301 354.194 699.301L354.194 699.301L354.194 699.301C 366.369 699.301 376.669 693.575 380.076 685.696L380.076 685.696L380.076 685.696L380.076 685.696L380.076 674.318C 377.199 667.667 369.409 662.549 359.725 661.117L359.725 661.117L359.725 661.117z" /></clipPath><clipPath id="32"><path id="" clip-rule="evenodd" transform="matrix(1 0 0 1 0 0)" d="M118.715 700.89L390.213 700.89L390.213 700.89L390.213 577.724L390.213 577.724L118.715 577.724z" /></clipPath><clipPath id="33"><path id="" clip-rule="evenodd" transform="matrix(1 0 0 1 0 0)" d="M172.073 268.094L282.93 268.094L282.93 268.094L282.93 123.048L282.93 123.048L172.073 123.048z" /></clipPath><clipPath id="34"><path id="" clip-rule="evenodd" transform="matrix(1 0 0 1 0 0)" d="M172.073 268.094L282.93 268.094L282.93 268.094L282.93 123.048L282.93 123.048L172.073 123.048z" /></clipPath><clipPath id="35"><path id="" clip-rule="evenodd" transform="matrix(1 0 0 1 0 0)" d="M234.181 142.251L236.7681 142.251L236.7681 142.251L236.7681 132.2912L236.7681 132.2912L234.181 132.2912z" /></clipPath><clipPath id="36"><path id="" clip-rule="evenodd" transform="matrix(1 0 0 1 0 0)" d="M234.181 142.251L236.768 142.251L236.768 142.251L236.768 132.291L236.768 132.291L234.181 132.291z" /></clipPath><clipPath id="37"><path id="" clip-rule="evenodd" transform="matrix(1 0 0 1 0 0)" d="M234.181 142.251L236.7693 142.251L236.7693 142.251L236.7693 132.2912L236.7693 132.2912L234.181 132.2912z" /></clipPath><clipPath id="38"><path id="" clip-rule="evenodd" transform="matrix(1 0 0 1 0 0)" d="M234.181 142.251L236.7681 142.251L236.7681 142.251L236.7681 132.2912L236.7681 132.2912L234.181 132.2912z" /></clipPath><clipPath id="39"><path id="" clip-rule="evenodd" transform="matrix(1 0 0 1 0 0)" d="M172.073 268.748L314.967 268.748L314.967 268.748L314.967 123.048L314.967 123.048L172.073 123.048z" /></clipPath><clipPath id="40"><path id="" clip-rule="evenodd" transform="matrix(1 0 0 1 0 0)" d="M172.073 268.748L314.967 268.748L314.967 268.748L314.967 123.048L314.967 123.048L172.073 123.048z" /></clipPath><clipPath id="41"><path id="" clip-rule="evenodd" transform="matrix(1 0 0 1 0 0)" d="M271.648 210.595C 261.282 215.354 254.082 225.825 254.082 237.979L254.082 237.979L254.082 237.979C 254.082 254.611 267.565 268.094 284.197 268.094L284.197 268.094L284.197 268.094C 300.829 268.094 314.312 254.611 314.312 237.979L314.312 237.979L314.312 237.979C 314.312 225.825 307.112 215.354 296.746 210.595L296.746 210.595L296.746 210.595z" /></clipPath><clipPath id="42"><path id="" clip-rule="evenodd" transform="matrix(1 0 0 1 0 0)" d="M271.648 210.595C 261.282 215.354 254.082 225.825 254.082 237.979L254.082 237.979L254.082 237.979C 254.082 254.611 267.565 268.094 284.197 268.094L284.197 268.094L284.197 268.094C 300.829 268.094 314.312 254.611 314.312 237.979L314.312 237.979L314.312 237.979C 314.312 225.825 307.112 215.354 296.746 210.595L296.746 210.595L296.746 210.595z" /></clipPath><clipPath id="43"><path id="" clip-rule="evenodd" transform="matrix(1 0 0 1 0 0)" d="M172.073 268.748L314.967 268.748L314.967 268.748L314.967 123.048L314.967 123.048L172.073 123.048z" /></clipPath><clipPath id="44"><path id="" clip-rule="evenodd" transform="matrix(1 0 0 1 0 0)" d="M181.279 489.073L298.674 489.073L298.674 489.073L298.674 350.451L298.674 350.451L181.279 350.451z" /></clipPath><clipPath id="45"><path id="" clip-rule="evenodd" transform="matrix(1 0 0 1 0 0)" d="M181.279 489.073L298.674 489.073L298.674 489.073L298.674 350.451L298.674 350.451L181.279 350.451z" /></clipPath><clipPath id="46"><path id="" clip-rule="evenodd" transform="matrix(1 0 0 1 0 0)" d="M191.282 399.708L196.4621 399.708L196.4621 399.708L196.4621 398.3643L196.4621 398.3643L191.282 398.3643z" /></clipPath><clipPath id="47"><path id="" clip-rule="evenodd" transform="matrix(1 0 0 1 0 0)" d="M191.282 399.708L196.462 399.708L196.462 399.708L196.462 398.364L196.462 398.364L191.282 398.364z" /></clipPath><clipPath id="48"><path id="" clip-rule="evenodd" transform="matrix(1 0 0 1 0 0)" d="M191.282 399.708L196.4621 399.708L196.4621 399.708L196.4621 398.3643L196.4621 398.3643L191.282 398.3643z" /></clipPath><clipPath id="49"><path id="" clip-rule="evenodd" transform="matrix(1 0 0 1 0 0)" d="M191.33 398.312L196.5101 398.312L196.5101 398.312L196.5101 396.9679L196.5101 396.9679L191.33 396.9679z" /></clipPath><clipPath id="50"><path id="" clip-rule="evenodd" transform="matrix(1 0 0 1 0 0)" d="M191.33 398.312L196.51 398.312L196.51 398.312L196.51 396.968L196.51 396.968L191.33 396.968z" /></clipPath><clipPath id="51"><path id="" clip-rule="evenodd" transform="matrix(1 0 0 1 0 0)" d="M191.33 398.312L196.5101 398.312L196.5101 398.312L196.5101 396.9679L196.5101 396.9679L191.33 396.9679z" /></clipPath><clipPath id="52"><path id="" clip-rule="evenodd" transform="matrix(1 0 0 1 0 0)" d="M197.757 410.296L202.784 410.296L202.784 410.296L202.784 408.5499L202.784 408.5499L197.757 408.5499z" /></clipPath><clipPath id="53"><path id="" clip-rule="evenodd" transform="matrix(1 0 0 1 0 0)" d="M197.757 410.296L202.784 410.296L202.784 410.296L202.784 408.55L202.784 408.55L197.757 408.55z" /></clipPath><clipPath id="54"><path id="" clip-rule="evenodd" transform="matrix(1 0 0 1 0 0)" d="M197.757 410.296L202.784 410.296L202.784 410.296L202.784 408.5499L202.784 408.5499L197.757 408.5499z" /></clipPath><clipPath id="55"><path id="" clip-rule="evenodd" transform="matrix(1 0 0 1 0 0)" d="M197.159 411.557L202.186 411.557L202.186 411.557L202.186 409.812L202.186 409.812L197.159 409.812z" /></clipPath><clipPath id="56"><path id="" clip-rule="evenodd" transform="matrix(1 0 0 1 0 0)" d="M197.159 411.557L202.186 411.557L202.186 411.557L202.186 409.812L202.186 409.812L197.159 409.812z" /></clipPath><clipPath id="57"><path id="" clip-rule="evenodd" transform="matrix(1 0 0 1 0 0)" d="M197.159 411.557L202.186 411.557L202.186 411.557L202.186 409.812L202.186 409.812L197.159 409.812z" /></clipPath><clipPath id="58"><path id="" clip-rule="evenodd" transform="matrix(1 0 0 1 0 0)" d="M182.547 409.43L187.5732 409.43L187.5732 409.43L187.5732 407.6839L187.5732 407.6839L182.547 407.6839z" /></clipPath><clipPath id="59"><path id="" clip-rule="evenodd" transform="matrix(1 0 0 1 0 0)" d="M182.547 409.43L187.573 409.43L187.573 409.43L187.573 407.684L187.573 407.684L182.547 407.684z" /></clipPath><clipPath id="60"><path id="" clip-rule="evenodd" transform="matrix(1 0 0 1 0 0)" d="M182.547 409.43L187.5732 409.43L187.5732 409.43L187.5732 407.6839L187.5732 407.6839L182.547 407.6839z" /></clipPath><clipPath id="61"><path id="" clip-rule="evenodd" transform="matrix(1 0 0 1 0 0)" d="M181.95 410.691L186.975 410.691L186.975 410.691L186.975 408.9461L186.975 408.9461L181.95 408.9461z" /></clipPath><clipPath id="62"><path id="" clip-rule="evenodd" transform="matrix(1 0 0 1 0 0)" d="M181.95 410.691L186.975 410.691L186.975 410.691L186.975 408.946L186.975 408.946L181.95 408.946z" /></clipPath><clipPath id="63"><path id="" clip-rule="evenodd" transform="matrix(1 0 0 1 0 0)" d="M181.95 410.691L186.975 410.691L186.975 410.691L186.975 408.9461L186.975 408.9461L181.95 408.9461z" /></clipPath><clipPath id="64"><path id="" clip-rule="evenodd" transform="matrix(1 0 0 1 0 0)" d="M181.279 489.284L298.674 489.284L298.674 489.284L298.674 350.451L298.674 350.451L181.279 350.451z" /></clipPath><clipPath id="65"><path id="" clip-rule="evenodd" transform="matrix(1 0 0 1 0 0)" d="M197.627 454.385L197.627 477.29C 201.582 484.105 208.958 488.688 217.404 488.688L217.404 488.688L217.404 488.688C 230.024 488.688 240.254 478.458 240.254 465.838L240.254 465.838L240.254 465.838C 240.254 453.218 230.024 442.988 217.404 442.988L217.404 442.988L217.404 442.988C 208.958 442.988 201.582 447.571 197.627 454.385" /></clipPath><clipPath id="66"><path id="" clip-rule="evenodd" transform="matrix(1 0 0 1 0 0)" d="M197.627 454.385L197.627 477.29C 201.582 484.105 208.958 488.688 217.404 488.688L217.404 488.688L217.404 488.688C 230.024 488.688 240.254 478.458 240.254 465.838L240.254 465.838L240.254 465.838C 240.254 453.218 230.024 442.988 217.404 442.988L217.404 442.988L217.404 442.988C 208.958 442.988 201.582 447.571 197.627 454.385" /></clipPath><clipPath id="67"><path id="" clip-rule="evenodd" transform="matrix(1 0 0 1 0 0)" d="M181.279 489.284L298.674 489.284L298.674 489.284L298.674 350.451L298.674 350.451L181.279 350.451z" /></clipPath><clipPath id="68"><path id="" clip-rule="evenodd" transform="matrix(1 0 0 1 0 0)" d="M352.796 171.915L395.1718 171.915L395.1718 171.915L395.1718 117.124L395.1718 117.124L352.796 117.124z" /></clipPath><clipPath id="69"><path id="" clip-rule="evenodd" transform="matrix(1 0 0 1 0 0)" d="M352.796 171.915L395.1718 171.915L395.1718 171.915L395.1718 117.124L395.1718 117.124L352.796 117.124z" /></clipPath><clipPath id="70"><path id="" clip-rule="evenodd" transform="matrix(1 0 0 1 0 0)" d="M360.185 391.457L387.928 391.457L387.928 391.457L387.928 335.598L387.928 335.598L360.185 335.598z" /></clipPath><clipPath id="71"><path id="" clip-rule="evenodd" transform="matrix(1 0 0 1 0 0)" d="M360.185 391.457L387.928 391.457L387.928 391.457L387.928 335.598L387.928 335.598L360.185 335.598z" /></clipPath><clipPath id="72"><path id="" clip-rule="evenodd" transform="matrix(1 0 0 1 0 0)" d="M126.506 449.882L152.1033 449.882L152.1033 449.882L152.1033 414.3078L152.1033 414.3078L126.506 414.3078z" /></clipPath><clipPath id="73"><path id="" clip-rule="evenodd" transform="matrix(1 0 0 1 0 0)" d="M126.506 449.882L152.1033 449.882L152.1033 449.882L152.1033 414.3078L152.1033 414.3078L126.506 414.3078z" /></clipPath><clipPath id="74"><path id="" clip-rule="evenodd" transform="matrix(1 0 0 1 0 0)" d="M359.914 608.079L388.055 608.079L388.055 608.079L388.055 551.42L388.055 551.42L359.914 551.42z" /></clipPath><clipPath id="75"><path id="" clip-rule="evenodd" transform="matrix(1 0 0 1 0 0)" d="M359.914 608.079L388.055 608.079L388.055 608.079L388.055 551.42L388.055 551.42L359.914 551.42z" /></clipPath><clipPath id="76"><path id="" clip-rule="evenodd" transform="matrix(1 0 0 1 0 0)" d="M212.339 646.039L243.0949 646.039L243.0949 646.039L243.0949 610.6058L243.0949 610.6058L212.339 610.6058z" /></clipPath><clipPath id="77"><path id="" clip-rule="evenodd" transform="matrix(1 0 0 1 0 0)" d="M212.339 646.039L243.0949 646.039L243.0949 646.039L243.0949 610.6058L243.0949 610.6058L212.339 610.6058z" /></clipPath><clipPath id="78"><path id="" clip-rule="evenodd" transform="matrix(1 0 0 1 0 0)" d="M364.417 646.039L395.1729 646.039L395.1729 646.039L395.1729 610.6058L395.1729 610.6058L364.417 610.6058z" /></clipPath><clipPath id="79"><path id="" clip-rule="evenodd" transform="matrix(1 0 0 1 0 0)" d="M364.417 646.039L395.1729 646.039L395.1729 646.039L395.1729 610.6058L395.1729 610.6058L364.417 610.6058z" /></clipPath><clipPath id="80"><path id="" clip-rule="evenodd" transform="matrix(1 0 0 1 0 0)" d="M95.12621 650.575L125.8821 650.575L125.8821 650.575L125.8821 615.1422L125.8821 615.1422L95.12621 615.1422z" /></clipPath><clipPath id="81"><path id="" clip-rule="evenodd" transform="matrix(1 0 0 1 0 0)" d="M95.12621 650.575L125.8821 650.575L125.8821 650.575L125.8821 615.1422L125.8821 615.1422L95.12621 615.1422z" /></clipPath><clipPath id="82"><path id="" clip-rule="evenodd" transform="matrix(1 0 0 1 0 0)" d="M130.134 252.937L153.0922 252.937L153.0922 252.937L153.0922 225.5831L153.0922 225.5831L130.134 225.5831z" /></clipPath><clipPath id="83"><path id="" clip-rule="evenodd" transform="matrix(1 0 0 1 0 0)" d="M130.134 252.937L153.0922 252.937L153.0922 252.937L153.0922 225.5831L153.0922 225.5831L130.134 225.5831z" /></clipPath><clipPath id="84"><path id="" clip-rule="evenodd" transform="matrix(1 0 0 1 0 0)" d="M130.134 216.165L155.7309 216.165L155.7309 216.165L155.7309 180.3072L155.7309 180.3072L130.134 180.3072z" /></clipPath><clipPath id="85"><path id="" clip-rule="evenodd" transform="matrix(1 0 0 1 0 0)" d="M130.134 216.165L155.7309 216.165L155.7309 216.165L155.7309 180.3072L155.7309 180.3072L130.134 180.3072z" /></clipPath><clipPath id="86"><path id="" clip-rule="evenodd" transform="matrix(1 0 0 1 0 0)" d="M95.12621 688.559L118.0828 688.559L118.0828 688.559L118.0828 661.2039L118.0828 661.2039L95.12621 661.2039z" /></clipPath><clipPath id="87"><path id="" clip-rule="evenodd" transform="matrix(1 0 0 1 0 0)" d="M95.12621 688.559L118.0828 688.559L118.0828 688.559L118.0828 661.2039L118.0828 661.2039L95.12621 661.2039z" /></clipPath></defs><g transform="matrix(1.333333 0 0 1.333333 0 0)"><g clip-path="url(#1)"><g clip-path="url(#2)"><path id="1" transform="matrix(1 0 0 -1 0 834)" d="M91.866 67.4211L562.134 67.4211L562.134 74.92501L91.866 74.92501z" stroke="none" fill="#686868" fill-rule="nonzero" /><path id="2" transform="matrix(1 0 0 -1 0 834)" d="M91.866 526.984L562.134 526.984" stroke="#686868" stroke-width="1" fill="none" /><path id="3" transform="matrix(1 0 0 -1 0 834)" d="M91.866 307.016L562.134 307.016" stroke="#686868" stroke-width="1" fill="none" /></g><g clip-path="url(#3)"></g><g clip-path="url(#4)"><g transform="matrix(1.004153 0 0 1.001303 118.716 578.12)"><g transform="matrix(1 0 0 1 0 0)"><image x="0" y="0" xlink:href="img_01.png" width="86" height="122" /></g></g></g><g clip-path="url(#5)"></g><g clip-path="url(#6)"><g transform="matrix(1.00069 0 0 1.001303 248.813 577.725)"><g transform="matrix(1 0 0 1 0 0)"><image x="0" y="0" xlink:href="img_02.png" width="126" height="122" /></g></g></g><g clip-path="url(#7)"><g><g clip-path="url(#8)"><g clip-path="url(#9)"></g><g clip-path="url(#10)"><path id="10" transform="matrix(1 0 0 -1 0 834)" d="M155.5202 212.2217L155.5202 190.9935" stroke="#FFFFFF" stroke-width="0.8176953" fill="none" stroke-opacity="0.8" /></g><g clip-path="url(#11)"><path id="11" transform="matrix(1 0 0 -1 0 834)" d="M155.521 211.702L154.007 211.042L155.521 214.721L157.034 211.042" stroke="none" fill="#FFFFFF" fill-rule="nonzero" fill-opacity="0.8" /></g></g></g></g><g clip-path="url(#12)"><path id="12" transform="matrix(1 0 0 -1 0 834)" d="M188.449 161.086C 188.449 146.052 198.815 133.865 211.602 133.865C 224.389 133.865 234.755 146.052 234.755 161.086C 234.755 176.119 224.389 188.306 211.602 188.306C 198.815 188.306 188.449 176.119 188.449 161.086" stroke="none" fill="#FFFFFF" fill-rule="nonzero" /></g><g clip-path="url(#13)"></g><g clip-path="url(#14)"><g transform="matrix(1.002083 0 0 1.009086 188.602 645.1939)"><g transform="matrix(1 0 0 1 0 0)"><image x="0" y="0" xlink:href="img_03.png" width="42" height="59" /></g></g></g><g clip-path="url(#15)"><path id="14" transform="matrix(1 0 0 -1 0 834)" d="M188.4489 161.0859C 188.4489 146.0531 198.8157 133.8658 211.6024 133.8658C 224.39 133.8658 234.7549 146.0531 234.7549 161.0859C 234.7549 176.1197 224.39 188.3079 211.6024 188.3079C 198.8157 188.3079 188.4489 176.1197 188.4489 161.0859z" stroke="#000000" stroke-width="0.8176953" fill="none" /><path id="15" transform="matrix(1 0 0 -1 0 834)" d="M257.6516 190.7587C 256.3547 190.3902 255.0628 189.8264 253.8154 189.0064C 248.065 185.2254 242.1774 186.672 239.0889 187.9242" stroke="#000000" stroke-width="0.8176953" fill="none" /></g><path id="16" transform="matrix(1 0 0 -1 0 834)" d="M236.888 189.003L240.781 188.862L239.56 187.732L239.506 186.047z" stroke="none" fill="#000000" fill-rule="nonzero" /><g clip-path="url(#16)"><g><g clip-path="url(#17)"><g clip-path="url(#18)"><path id="17" transform="matrix(1 0 0 -1 0 834)" d="M275.0162 187.4251C 273.4339 188.0497 272.463 188.6146 272.463 188.6146C 272.463 188.6146 265 192.8481 257.6516 190.7587" stroke="#FFFFFF" stroke-width="0.8176953" fill="none" stroke-opacity="0.8" /></g></g></g></g><g clip-path="url(#19)"><g><g clip-path="url(#20)"><g clip-path="url(#21)"><path id="18" transform="matrix(1 0 0 -1 0 834)" d="M288.8844 186.9443C 283.7385 184.697 278.167 186.182 275.0162 187.4262" stroke="#FFFFFF" stroke-width="0.8176953" fill="none" stroke-opacity="0.8" /></g></g></g></g><g clip-path="url(#22)"><path id="19" transform="matrix(1 0 0 -1 0 834)" d="M372.9983 183.4974C 373.7529 183.0864 374.5006 182.559 375.2305 181.8969C 380.2628 177.3324 385.4136 179.0078 388.1713 180.5263" stroke="#000000" stroke-width="0.8176953" fill="none" /></g><path id="20" transform="matrix(1 0 0 -1 0 834)" d="M387.723 180.279L386.37 181.237L390.211 181.895L387.99 178.615z" stroke="none" fill="#000000" fill-rule="nonzero" /><g clip-path="url(#23)"><g><g clip-path="url(#24)"><g clip-path="url(#25)"><path id="21" transform="matrix(1 0 0 -1 0 834)" d="M356.4663 179.9685C 357.8669 180.7318 358.7261 181.4191 358.7261 181.4191C 358.7261 181.4191 366.1437 187.2267 372.9983 183.4954" stroke="#FFFFFF" stroke-width="0.8176953" fill="none" stroke-opacity="0.8" /></g></g></g></g><g clip-path="url(#26)"><g><g clip-path="url(#27)"><g clip-path="url(#28)"><path id="22" transform="matrix(1 0 0 -1 0 834)" d="M344.1923 179.3793C 348.7475 176.6349 353.679 178.448 356.4673 179.9685" stroke="#FFFFFF" stroke-width="0.8176953" fill="none" stroke-opacity="0.8" /></g></g></g></g><g clip-path="url(#29)"><path id="23" transform="matrix(1 0 0 -1 0 834)" d="M381.271 153.992C 381.271 143.337 369.148 134.699 354.193 134.699C 339.238 134.699 327.114 143.337 327.114 153.992C 327.114 164.647 339.238 173.285 354.193 173.285C 369.148 173.285 381.271 164.647 381.271 153.992" stroke="none" fill="#FFFFFF" fill-rule="nonzero" /></g><g clip-path="url(#30)"></g><g clip-path="url(#31)"><g transform="matrix(1.00603 0 0 1.000764 329.775 661.1169)"><g transform="matrix(1 0 0 1 0 0)"><image x="0" y="0" xlink:href="img_04.png" width="50" height="42" /></g></g></g><g clip-path="url(#32)"><path id="25" transform="matrix(1 0 0 -1 0 834)" d="M381.2722 153.9926C 381.2722 143.337 369.1483 134.699 354.1926 134.699C 339.238 134.699 327.114 143.337 327.114 153.9926C 327.114 164.6482 339.238 173.2872 354.1926 173.2872C 369.1483 173.2872 381.2722 164.6482 381.2722 153.9926z" stroke="#000000" stroke-width="0.8176953" fill="none" /><path id="26" transform="matrix(1 0 0 -1 0 834)" d="M141.087 225.9C 138.7 225.9 136.765 223.917 136.765 221.471C 136.765 219.025 138.7 217.041 141.087 217.041C 143.474 217.041 145.409 219.025 145.409 221.471C 145.409 223.917 143.474 225.9 141.087 225.9M141.087 217.58C 139.004 217.58 137.314 219.311 137.314 221.446C 137.314 223.582 139.004 225.313 141.087 225.313C 143.171 225.313 144.859 223.582 144.859 221.446C 144.859 219.311 143.171 217.58 141.087 217.58" stroke="none" fill="#000000" fill-rule="nonzero" /><path id="28" transform="matrix(1 0 0 -1 0 834)" d="M293.412 225.188C 291.025 225.188 289.09 223.205 289.09 220.759C 289.09 218.312 291.025 216.329 293.412 216.329C 295.799 216.329 297.734 218.312 297.734 220.759C 297.734 223.205 295.799 225.188 293.412 225.188M293.412 216.867C 291.328 216.867 289.639 218.598 289.639 220.734C 289.639 222.87 291.328 224.601 293.412 224.601C 295.495 224.601 297.184 222.87 297.184 220.734C 297.184 218.598 295.495 216.867 293.412 216.867" stroke="none" fill="#000000" fill-rule="nonzero" /></g><g clip-path="url(#33)"></g><g clip-path="url(#34)"><g transform="matrix(0.9987207 0 0 1.000317 172.073 123.047)"><g transform="matrix(1 0 0 1 0 0)"><image x="0" y="0" xlink:href="img_05.png" width="111" height="145" /></g></g></g><g clip-path="url(#35)"><g><g clip-path="url(#36)"><g clip-path="url(#37)"><path id="31" transform="matrix(1 0 0 -1 0 834)" d="M234.663 701.571C 235.496 699.537 235.931 696.9431 235.215 693.828" stroke="#FFFFFF" stroke-width="0.727" fill="none" stroke-opacity="0.8" /></g><g clip-path="url(#38)"><path id="32" transform="matrix(1 0 0 -1 0 834)" d="M234.588 691.749L236.769 694.442L235.316 694.2661L234.181 695.191z" stroke="none" fill="#FFFFFF" fill-rule="nonzero" fill-opacity="0.8" /></g></g></g></g><g clip-path="url(#39)"><path id="33" transform="matrix(1 0 0 -1 0 834)" d="M232.246 705.397C 233.045 704.507 233.986 703.2241 234.663 701.571" stroke="#000000" stroke-width="0.727" fill="none" /></g><path id="34" transform="matrix(1 0 0 -1 0 834)" d="M232.02 703.692L232.544 705.058L233.892 705.629L230.66 706.879z" stroke="none" fill="#000000" fill-rule="nonzero" /><g clip-path="url(#40)"><path id="35" transform="matrix(1 0 0 -1 0 834)" d="M254.082 596.021C 254.082 579.389 267.565 565.906 284.197 565.906C 300.829 565.906 314.312 579.389 314.312 596.021C 314.312 612.653 300.829 626.136 284.197 626.136C 267.565 626.136 254.082 612.653 254.082 596.021" stroke="none" fill="#FFFFFF" fill-rule="nonzero" /></g><g clip-path="url(#41)"></g><g clip-path="url(#42)"><g transform="matrix(1.00537 0 0 1.001651 236.657 210.595)"><g transform="matrix(1 0 0 1 0 0)"><image x="0" y="0" xlink:href="img_06.png" width="83" height="109" /></g></g></g><g clip-path="url(#43)"><path id="37" transform="matrix(1 0 0 -1 0 834)" d="M254.082 596.021C 254.082 579.389 267.565 565.906 284.197 565.906C 300.829 565.906 314.312 579.389 314.312 596.021C 314.312 612.653 300.829 626.136 284.197 626.136C 267.565 626.136 254.082 612.653 254.082 596.021z" stroke="#000000" stroke-width="0.727" fill="none" /></g><g clip-path="url(#44)"></g><g clip-path="url(#45)"><g transform="matrix(1.003385 0 0 1.004507 181.279 350.451)"><g transform="matrix(1 0 0 1 0 0)"><image x="0" y="0" xlink:href="img_07.png" width="117" height="138" /></g></g></g><g clip-path="url(#46)"><g><g clip-path="url(#47)"><g clip-path="url(#48)"><path id="39" transform="matrix(1 0 0 -1 0 834)" d="M191.38 434.464C 191.38 434.464 194.075 436.1 196.386 435.138" stroke="none" fill="#FFFFFF" fill-rule="nonzero" /><path id="40" transform="matrix(1 0 0 -1 0 834)" d="M191.38 434.464C 191.38 434.464 194.075 436.1 196.386 435.138" stroke="#000000" stroke-width="0.397" fill="none" /></g></g></g></g><g clip-path="url(#49)"><g><g clip-path="url(#50)"><g clip-path="url(#51)"><path id="41" transform="matrix(1 0 0 -1 0 834)" d="M191.428 435.86C 191.428 435.86 194.123 437.496 196.434 436.534" stroke="none" fill="#FFFFFF" fill-rule="nonzero" /><path id="42" transform="matrix(1 0 0 -1 0 834)" d="M191.428 435.86C 191.428 435.86 194.123 437.496 196.434 436.534" stroke="#000000" stroke-width="0.397" fill="none" /></g></g></g></g><g clip-path="url(#52)"><g><g clip-path="url(#53)"><g clip-path="url(#54)"><path id="43" transform="matrix(1 0 0 -1 0 834)" d="M202.762 423.945C 202.762 423.945 199.639 423.512 197.9 425.312" stroke="none" fill="#FFFFFF" fill-rule="nonzero" /><path id="44" transform="matrix(1 0 0 -1 0 834)" d="M202.762 423.945C 202.762 423.945 199.639 423.512 197.9 425.312" stroke="#000000" stroke-width="0.397" fill="none" /></g></g></g></g><g clip-path="url(#55)"><g><g clip-path="url(#56)"><g clip-path="url(#57)"><path id="45" transform="matrix(1 0 0 -1 0 834)" d="M202.164 422.683C 202.164 422.683 199.041 422.25 197.302 424.05" stroke="none" fill="#FFFFFF" fill-rule="nonzero" /><path id="46" transform="matrix(1 0 0 -1 0 834)" d="M202.164 422.683C 202.164 422.683 199.041 422.25 197.302 424.05" stroke="#000000" stroke-width="0.397" fill="none" /></g></g></g></g><g clip-path="url(#58)"><g><g clip-path="url(#59)"><g clip-path="url(#60)"><path id="47" transform="matrix(1 0 0 -1 0 834)" d="M187.552 424.811C 187.552 424.811 184.429 424.378 182.69 426.178" stroke="none" fill="#FFFFFF" fill-rule="nonzero" /><path id="48" transform="matrix(1 0 0 -1 0 834)" d="M187.552 424.811C 187.552 424.811 184.429 424.378 182.69 426.178" stroke="#000000" stroke-width="0.397" fill="none" /></g></g></g></g><g clip-path="url(#61)"><g><g clip-path="url(#62)"><g clip-path="url(#63)"><path id="49" transform="matrix(1 0 0 -1 0 834)" d="M186.954 423.549C 186.954 423.549 183.831 423.116 182.092 424.916" stroke="none" fill="#FFFFFF" fill-rule="nonzero" /><path id="50" transform="matrix(1 0 0 -1 0 834)" d="M186.954 423.549C 186.954 423.549 183.831 423.116 182.092 424.916" stroke="#000000" stroke-width="0.397" fill="none" /></g></g></g></g><g clip-path="url(#64)"><path id="51" transform="matrix(1 0 0 -1 0 834)" d="M194.554 368.162C 194.554 355.542 204.784 345.312 217.404 345.312C 230.023 345.312 240.254 355.542 240.254 368.162C 240.254 380.782 230.023 391.012 217.404 391.012C 204.784 391.012 194.554 380.782 194.554 368.162" stroke="none" fill="#FFFFFF" fill-rule="nonzero" /></g><g clip-path="url(#65)"></g><g clip-path="url(#66)"><g transform="matrix(1.002179 0 0 0.9999744 197.627 418.017)"><g transform="matrix(1 0 0 1 0 0)"><image x="0" y="0" xlink:href="img_08.png" width="112" height="117" /></g></g></g><g clip-path="url(#67)"><path id="53" transform="matrix(1 0 0 -1 0 834)" d="M194.554 368.162C 194.554 355.542 204.784 345.312 217.404 345.312C 230.023 345.312 240.254 355.542 240.254 368.162C 240.254 380.782 230.023 391.012 217.404 391.012C 204.784 391.012 194.554 380.782 194.554 368.162z" stroke="#000000" stroke-width="0.662" fill="none" /></g><g clip-path="url(#68)"></g><g clip-path="url(#69)"><g transform="matrix(1.008996 0 0 0.9966108 351.786 117.1248)"><g transform="matrix(1 0 0 1 0 0)"><image x="0" y="0" xlink:href="img_09.png" width="44" height="56" /></g></g></g><g clip-path="url(#70)"></g><g clip-path="url(#71)"><g transform="matrix(1.027552 0 0 0.997484 360.185 335.5979)"><g transform="matrix(1 0 0 1 0 0)"><image x="0" y="0" xlink:href="img_10.png" width="27" height="56" /></g></g></g><g clip-path="url(#72)"></g><g clip-path="url(#73)"><g transform="matrix(1.022789 0 0 1.016435 125.498 413.2949)"><g transform="matrix(1 0 0 1 0 0)"><image x="0" y="0" xlink:href="img_11.png" width="27" height="37" /></g></g></g><g clip-path="url(#74)"></g><g clip-path="url(#75)"><g transform="matrix(1.005057 0 0 1.011782 359.914 551.4202)"><g transform="matrix(1 0 0 1 0 0)"><image x="0" y="0" xlink:href="img_12.png" width="28" height="56" /></g></g></g><g clip-path="url(#76)"></g><g clip-path="url(#77)"><g transform="matrix(0.9933667 0 0 1.012208 211.333 609.5913)"><g transform="matrix(1 0 0 1 0 0)"><image x="0" y="0" xlink:href="img_13.png" width="33" height="37" /></g></g></g><g clip-path="url(#78)"></g><g clip-path="url(#79)"><g transform="matrix(-0.9933667 0 0 1.012208 396.179 609.5913)"><g transform="matrix(1 0 0 1 0 0)"><image x="0" y="0" xlink:href="img_13.png" width="33" height="37" /></g></g></g><g clip-path="url(#80)"></g><g clip-path="url(#81)"><g transform="matrix(0.9933667 0 0 1.012795 94.1089 614.1206)"><g transform="matrix(1 0 0 1 0 0)"><image x="0" y="0" xlink:href="img_14.png" width="33" height="37" /></g></g></g><g clip-path="url(#82)"></g><g clip-path="url(#83)"><g transform="matrix(0.9982959 0 0 1.013036 129.132 225.583)"><g transform="matrix(1 0 0 1 0 0)"><image x="0" y="0" xlink:href="img_15.png" width="24" height="28" /></g></g></g><g clip-path="url(#84)"></g><g clip-path="url(#85)"><g transform="matrix(1.022833 0 0 0.9969158 129.123 179.2991)"><g transform="matrix(1 0 0 1 0 0)"><image x="0" y="0" xlink:href="img_16.png" width="27" height="38" /></g></g></g><g clip-path="url(#86)"></g><g clip-path="url(#87)"><g transform="matrix(0.9982959 0 0 1.013036 94.1244 661.205)"><g transform="matrix(1 0 0 1 0 0)"><image x="0" y="0" xlink:href="img_15.png" width="24" height="28" /></g></g></g><path id="1336" transform="matrix(1 0 0 -1 0 834)" d="M633 15L633 0M633 819L633 834M21 15L21 0M21 819L21 834M639 21L654 21M15 21L0 21M639 813L654 813M15 813L0 813" stroke="#000000" stroke-width="1.25" fill="none" /><path id="1337" transform="matrix(1 0 0 -1 0 834)" d="M633 15L633 0M633 819L633 834M21 15L21 0M21 819L21 834M639 21L654 21M15 21L0 21M639 813L654 813M15 813L0 813" stroke="#000000" stroke-width="0.25" fill="none" /><path id="1338" transform="matrix(1 0 0 -1 0 834)" d="M32.2781 9.28203C 32.2781 9.516021 32.2961 9.58203 32.3559 9.62383C 32.416 9.66602 32.5719 9.69609 32.8238 9.69609C 33.2262 9.69609 33.5738 9.62383 33.8441 9.45C 34.3238 9.167971 34.552 8.63398 34.552 8.016021C 34.552 7.05586 34.0359 6.21602 32.9141 6.21602C 32.4762 6.21602 32.2781 6.33008 32.2781 6.78594zM31.252 9.900001L31.252 9.726171C 31.7141 9.68984 31.7621 9.66602 31.7621 9.150001L31.7621 9.150001L31.7621 6.74414C 31.7621 6.23398 31.7141 6.19805 31.198 6.16211L31.198 6.16211L31.198 6L31.198 6L32.6199 6C 33.3578 6 33.952 6.15 34.402 6.49805C 34.8641 6.84609 35.1398 7.38008 35.1398 8.1C 35.1398 8.664061 34.9301 9.101951 34.6359 9.38984C 34.2641 9.74414 33.7 9.900001 32.9379 9.900001z" stroke="#000000" stroke-width="0.4" fill="none" /><path id="1339" transform="matrix(1 0 0 -1 0 834)" d="M38.3801 6.97813C 38.2898 6.70195 38.1758 6.51016 38.0738 6.38984C 37.9359 6.23398 37.732 6.20391 37.402 6.20391C 37.15 6.20391 36.9461 6.21602 36.8258 6.28203C 36.718 6.34219 36.6879 6.46211 36.6879 6.78594L36.6879 6.78594L36.6879 9.15586C 36.6879 9.66602 36.7418 9.69609 37.216 9.73203L37.216 9.73203L37.216 9.900001L37.216 9.900001L35.65 9.900001L35.65 9.900001L35.65 9.73203C 36.1359 9.69609 36.1777 9.66602 36.1777 9.15586L36.1777 9.15586L36.1777 6.75586C 36.1777 6.24609 36.1301 6.20391 35.6258 6.16797L35.6258 6.16797L35.6258 6L35.6258 6L38.3438 6C 38.398 6.18594 38.5238 6.75586 38.5598 6.94219z" stroke="#000000" stroke-width="0.4" fill="none" /><path id="1340" transform="matrix(1 0 0 -1 0 834)" d="M41.0918 9.023829C 41.0438 9.40195 41.0141 9.63594 40.9898 9.851951C 40.7617 9.92383 40.5098 9.989841 40.234 9.989841C 39.4598 9.989841 38.998 9.49805 38.998 8.921881C 38.998 8.24414 39.6039 7.94414 39.9879 7.73984C 40.4379 7.5 40.768 7.28984 40.768 6.84609C 40.768 6.40781 40.498 6.12617 40.048 6.12617C 39.4301 6.12617 39.1598 6.73203 39.0641 7.09805L39.0641 7.09805L38.8898 7.05586C 38.9258 6.767971 39.0039 6.25195 39.052 6.12617C 39.1059 6.09609 39.1961 6.05391 39.3461 6C 39.4961 5.95781 39.6879 5.91016 39.934 5.91016C 40.732 5.91016 41.266 6.41406 41.266 7.04414C 41.266 7.71602 40.6961 7.99805 40.2277 8.23789C 39.7539 8.48398 39.466 8.68789 39.466 9.12617C 39.466 9.45 39.6699 9.78594 40.132 9.78594C 40.6539 9.78594 40.8098 9.371881 40.918 8.98789z" stroke="#000000" stroke-width="0.4" fill="none" /><path id="1341" transform="matrix(1 0 0 -1 0 834)" d="M46.648 6L46.648 6.16797C 46.1258 6.21602 46.1078 6.24609 46.0898 6.88203L46.0898 6.88203L46.0301 9.05391C 46.0117 9.671881 46.0539 9.68398 46.582 9.73203L46.582 9.73203L46.582 9.900001L46.582 9.900001L45.5617 9.900001L45.5617 9.900001L44.1758 6.9L44.1758 6.9L42.8078 9.900001L42.8078 9.900001L41.8238 9.900001L41.8238 9.900001L41.8238 9.73203C 42.3699 9.67813 42.4 9.653911 42.3461 8.87383L42.3461 8.87383L42.2617 7.626171C 42.2141 7.00195 42.1777 6.73789 42.148 6.528131C 42.1059 6.27617 41.9859 6.21016 41.6379 6.16797L41.6379 6.16797L41.6379 6L41.6379 6L43.0359 6L43.0359 6L43.0359 6.16797C 42.6398 6.21016 42.4961 6.25195 42.484 6.53984C 42.4777 6.78008 42.4777 7.04414 42.502 7.53594L42.502 7.53594L42.5918 9.24609L42.5918 9.24609L42.6039 9.24609L42.6039 9.24609L43.948 6.04219L43.948 6.04219L44.068 6.04219L44.068 6.04219L45.532 9.33008L45.532 9.33008L45.5559 9.33008L45.5559 9.33008L45.5738 6.88203C 45.5801 6.24609 45.5559 6.21602 45.0699 6.16797L45.0699 6.16797L45.0699 6z" stroke="#000000" stroke-width="0.4" fill="none" /><path id="1342" transform="matrix(1 0 0 -1 0 834)" d="M51.8738 7.05586C 51.5738 6.45586 51.2496 6.12617 50.6379 6.12617C 49.7258 6.12617 49.0656 6.89414 49.0656 8.016021C 49.0656 8.92813 49.5996 9.773829 50.602 9.773829C 51.2496 9.773829 51.6098 9.516021 51.7656 8.88008L51.7656 8.88008L51.9457 8.921881C 51.9098 9.24609 51.8738 9.48594 51.8258 9.828131C 51.6578 9.85781 51.2496 9.989841 50.7637 9.989841C 49.4258 9.989841 48.4539 9.15586 48.4539 7.89609C 48.4539 6.94219 49.1078 5.91016 50.602 5.91016C 51.034 5.91016 51.5379 6.03008 51.7059 6.07188C 51.8137 6.26992 51.9637 6.71406 52.0477 6.98984z" stroke="#000000" stroke-width="0.4" fill="none" /><path id="1343" transform="matrix(1 0 0 -1 0 834)" d="M54.3398 9.773829C 55.1258 9.773829 55.7855 9.101951 55.7855 7.83594C 55.7855 6.68398 55.1855 6.12617 54.5195 6.12617C 53.6738 6.12617 53.0559 6.94805 53.0559 8.076171C 53.0559 9.19805 53.6676 9.773829 54.3398 9.773829zM54.4598 9.989841C 53.1996 9.989841 52.4438 8.98789 52.4438 7.90781C 52.4438 6.75586 53.3078 5.91016 54.3938 5.91016C 55.4918 5.91016 56.3977 6.70195 56.3977 7.99805C 56.3977 9.19805 55.4797 9.989841 54.4598 9.989841z" stroke="#000000" stroke-width="0.4" fill="none" /><path id="1344" transform="matrix(1 0 0 -1 0 834)" d="M61.8277 6L61.8277 6.16797C 61.3059 6.21602 61.2879 6.24609 61.2695 6.88203L61.2695 6.88203L61.2098 9.05391C 61.1918 9.671881 61.2336 9.68398 61.7617 9.73203L61.7617 9.73203L61.7617 9.900001L61.7617 9.900001L60.7418 9.900001L60.7418 9.900001L59.3559 6.9L59.3559 6.9L57.9879 9.900001L57.9879 9.900001L57.0035 9.900001L57.0035 9.900001L57.0035 9.73203C 57.5496 9.67813 57.5797 9.653911 57.5258 8.87383L57.5258 8.87383L57.4418 7.626171C 57.3938 7.00195 57.3578 6.73789 57.3277 6.528131C 57.2855 6.27617 57.1656 6.21016 56.8176 6.16797L56.8176 6.16797L56.8176 6L56.8176 6L58.2156 6L58.2156 6L58.2156 6.16797C 57.8195 6.21016 57.6758 6.25195 57.6637 6.53984C 57.6578 6.78008 57.6578 7.04414 57.6816 7.53594L57.6816 7.53594L57.7719 9.24609L57.7719 9.24609L57.7836 9.24609L57.7836 9.24609L59.1277 6.04219L59.1277 6.04219L59.2477 6.04219L59.2477 6.04219L60.7117 9.33008L60.7117 9.33008L60.7355 9.33008L60.7355 9.33008L60.7535 6.88203C 60.7598 6.24609 60.7355 6.21602 60.2496 6.16797L60.2496 6.16797L60.2496 6z" stroke="#000000" stroke-width="0.4" fill="none" /><path id="1345" transform="matrix(1 0 0 -1 0 834)" d="M63.8258 6L63.8258 6.16797C 63.3336 6.20391 63.2855 6.23398 63.2855 6.75L63.2855 6.75L63.2855 9.150001C 63.2855 9.66016 63.3336 9.69609 63.8258 9.73203L63.8258 9.73203L63.8258 9.900001L63.8258 9.900001L62.2355 9.900001L62.2355 9.900001L62.2355 9.73203C 62.7277 9.69609 62.7758 9.66016 62.7758 9.150001L62.7758 9.150001L62.7758 6.75C 62.7758 6.23984 62.7277 6.20391 62.2355 6.16797L62.2355 6.16797L62.2355 6z" stroke="#000000" stroke-width="0.4" fill="none" /><path id="1346" transform="matrix(1 0 0 -1 0 834)" d="M66.5074 9.023829C 66.4598 9.40195 66.4297 9.63594 66.4055 9.851951C 66.1777 9.92383 65.9258 9.989841 65.6496 9.989841C 64.8758 9.989841 64.4137 9.49805 64.4137 8.921881C 64.4137 8.24414 65.0195 7.94414 65.4035 7.73984C 65.8535 7.5 66.1836 7.28984 66.1836 6.84609C 66.1836 6.40781 65.9137 6.12617 65.46371 6.12617C 64.8457 6.12617 64.5758 6.73203 64.4797 7.09805L64.4797 7.09805L64.3055 7.05586C 64.3418 6.767971 64.4195 6.25195 64.46761 6.12617C 64.52151 6.09609 64.6117 6.05391 64.7617 6C 64.91171 5.95781 65.1035 5.91016 65.3496 5.91016C 66.1477 5.91016 66.6816 6.41406 66.6816 7.04414C 66.6816 7.71602 66.1117 7.99805 65.6438 8.23789C 65.1695 8.48398 64.8816 8.68789 64.8816 9.12617C 64.8816 9.45 65.0855 9.78594 65.5477 9.78594C 66.0695 9.78594 66.2258 9.371881 66.3336 8.98789z" stroke="#000000" stroke-width="0.4" fill="none" /><path id="1347" transform="matrix(1 0 0 -1 0 834)" d="M69.4055 7.68008L68.3016 7.68008C 68.4816 8.171881 68.6734 8.69414 68.8656 9.21016L68.8656 9.21016L68.8777 9.21016zM70.9355 6L70.9355 6.16797C 70.5457 6.20391 70.46761 6.25781 70.2758 6.77383C 69.89181 7.81797 69.4895 8.95781 69.11761 9.989841L69.11761 9.989841L68.9316 9.93594L68.9316 9.93594L67.68951 6.78594C 67.4797 6.25781 67.3957 6.22188 67.0176 6.16797L67.0176 6.16797L67.0176 6L67.0176 6L68.3195 6L68.3195 6L68.3195 6.16797C 67.8695 6.21016 67.81561 6.26992 67.9477 6.64805C 68.0258 6.9 68.1156 7.15195 68.2117 7.42188L68.2117 7.42188L69.4895 7.42188C 69.62151 7.05586 69.74181 6.73203 69.8195 6.49805C 69.8977 6.26406 69.8438 6.21602 69.4656 6.16797L69.4656 6.16797L69.4656 6z" stroke="#000000" stroke-width="0.4" fill="none" /><path id="1348" transform="matrix(1 0 0 -1 0 834)" d="M71.7273 5.92813C 71.9195 5.92813 72.06371 6.06602 72.06371 6.27617C 72.06371 6.46797 71.9195 6.61797 71.7273 6.61797C 71.5355 6.61797 71.3914 6.46797 71.3914 6.27617C 71.3914 6.06602 71.5355 5.92813 71.7273 5.92813z" stroke="#000000" stroke-width="0.4" fill="none" /><path id="1349" transform="matrix(1 0 0 -1 0 834)" d="M73.9234 6L73.9234 6.15586C 73.53951 6.19219 73.4977 6.22813 73.4977 6.63594L73.4977 6.63594L73.4977 8.70586C 73.2336 8.59805 72.9516 8.51992 72.6453 8.471881L72.6453 8.471881L72.6453 8.328131C 73.0055 8.26797 73.0234 8.24414 73.0234 7.871881L73.0234 7.871881L73.0234 6.63594C 73.0234 6.22813 72.9816 6.19219 72.6035 6.15586L72.6035 6.15586L72.6035 6zM73.2215 9.216021C 73.3953 9.216021 73.52731 9.36016 73.52731 9.52188C 73.52731 9.70195 73.3953 9.83398 73.2273 9.83398C 73.06561 9.83398 72.9215 9.70195 72.9215 9.52188C 72.9215 9.36016 73.06561 9.216021 73.2215 9.216021z" stroke="#000000" stroke-width="0.4" fill="none" /><path id="1350" transform="matrix(1 0 0 -1 0 834)" d="M77.1574 6L77.1574 6.15586C 76.8094 6.19219 76.7793 6.21602 76.7793 6.62383L76.7793 6.62383L76.7793 7.78203C 76.7793 8.36406 76.4793 8.69414 76.0055 8.69414C 75.8313 8.69414 75.67541 8.621881 75.5074 8.51406C 75.3574 8.41211 75.2254 8.32188 75.1055 8.23203L75.1055 8.23203L75.1055 8.712111C 74.8414 8.59219 74.5594 8.51992 74.27151 8.466021L74.27151 8.466021L74.27151 8.328131C 74.5953 8.26797 74.6313 8.25 74.6313 7.86602L74.6313 7.86602L74.6313 6.62383C 74.6313 6.22813 74.6016 6.19805 74.19341 6.15586L74.19341 6.15586L74.19341 6L74.19341 6L75.4953 6L75.4953 6L75.4953 6.15586C 75.1414 6.19219 75.1055 6.21602 75.1055 6.62383L75.1055 6.62383L75.1055 8.03398C 75.2855 8.18984 75.5195 8.33984 75.7594 8.33984C 76.1613 8.33984 76.3055 8.069921 76.3055 7.65586L76.3055 7.65586L76.3055 6.65391C 76.3055 6.23984 76.2633 6.19219 75.9094 6.15586L75.9094 6.15586L75.9094 6z" stroke="#000000" stroke-width="0.4" fill="none" /><path id="1351" transform="matrix(1 0 0 -1 0 834)" d="M79.4734 6.51016C 79.32931 6.40195 79.1133 6.30586 78.8973 6.30586C 78.5133 6.30586 78.0754 6.65391 78.0754 7.36797C 78.0754 8.23789 78.57931 8.471881 78.8555 8.471881C 79.0832 8.471881 79.32931 8.37617 79.4734 8.16602zM80.4035 6.30586L80.2113 6.32383C 79.9895 6.34805 79.9473 6.37813 79.9473 6.68984L79.9473 6.68984L79.9473 10.2719C 79.7254 10.1941 79.3234 10.1039 79.0113 10.0621L79.0113 10.0621L79.0113 9.917971C 79.44341 9.88789 79.4734 9.869921 79.4734 9.47383L79.4734 9.47383L79.4734 8.628131C 79.3355 8.67617 79.1613 8.69414 79.0773 8.69414C 78.2613 8.69414 77.5293 8.03984 77.5293 7.20586C 77.5293 6.36602 78.1594 5.92813 78.6395 5.92813C 78.7113 5.92813 78.87341 5.96406 79.1074 6.10195L79.1074 6.10195L79.4734 6.31797L79.4734 6.31797L79.4734 5.92813C 79.8215 6.05391 80.27151 6.13203 80.4035 6.15586z" stroke="#000000" stroke-width="0.4" fill="none" /><path id="1352" transform="matrix(1 0 0 -1 0 834)" d="M81.3813 8.24414C 81.4895 8.310161 81.6813 8.35781 81.84921 8.35781C 82.34731 8.35781 82.7676 7.96211 82.7676 7.278131C 82.7676 6.58203 82.4492 6.15586 81.9516 6.15586C 81.6336 6.16211 81.4535 6.37188 81.4176 6.49219C 81.3934 6.54609 81.3813 6.60586 81.3813 6.69609zM81.3813 8.42383L81.3813 10.2719C 81.1594 10.1941 80.7934 10.098 80.5113 10.0621L80.5113 10.0621L80.5113 9.92383C 80.8953 9.88789 80.9074 9.851951 80.9074 9.48008L80.9074 9.48008L80.9074 6.14414C 81.2375 5.98789 81.5434 5.92813 81.78951 5.92813C 82.59341 5.92813 83.2953 6.55195 83.2953 7.43398C 83.2953 8.14219 82.7555 8.69414 82.1133 8.69414C 82.0473 8.69414 81.9633 8.67617 81.86761 8.63398z" stroke="#000000" stroke-width="0.4" fill="none" /><path id="1353" transform="matrix(1 0 0 -1 0 834)" d="M90.0754 6.83984C 89.8953 6.46211 89.8172 6.43789 89.4934 6.43789L89.4934 6.43789L88.3711 6.43789L88.3711 6.43789L89.223 7.33203C 89.77541 7.91992 90.0152 8.273829 90.0152 8.79609C 90.0152 9.42617 89.5352 9.810161 89.007 9.810161C 88.6594 9.810161 88.3773 9.653911 88.1973 9.45586L88.1973 9.45586L87.8551 8.96992L87.8551 8.96992L87.9871 8.85C 88.1434 9.08398 88.3953 9.40781 88.8031 9.40781C 89.24731 9.40781 89.5113 9.11406 89.5113 8.61016C 89.5113 8.09414 89.1332 7.60195 88.7613 7.15781C 88.4613 6.81016 88.1254 6.46797 87.7891 6.13789L87.7891 6.13789L87.7891 6L87.7891 6L90.0332 6C 90.1051 6.26992 90.1652 6.53398 90.2434 6.78594z" stroke="#000000" stroke-width="0.4" fill="none" /><path id="1354" transform="matrix(1 0 0 -1 0 834)" d="M91.9172 9.61211C 92.457 9.61211 92.607 8.72383 92.607 7.871881C 92.607 7.03203 92.4633 6.13203 91.923 6.13203C 91.40121 6.13203 91.2273 7.03789 91.2273 7.87813C 91.2273 8.712111 91.3711 9.61211 91.9172 9.61211zM91.923 9.810161C 91.023 9.810161 90.69341 8.74219 90.69341 7.86602C 90.69341 6.91797 91.0172 5.92813 91.923 5.92813C 92.823 5.92813 93.141 6.99609 93.141 7.871881C 93.141 8.79609 92.823 9.810161 91.923 9.810161z" stroke="#000000" stroke-width="0.4" fill="none" /><path id="1355" transform="matrix(1 0 0 -1 0 834)" d="M95.8352 6.83984C 95.65511 6.46211 95.5773 6.43789 95.25311 6.43789L95.25311 6.43789L94.1313 6.43789L94.1313 6.43789L94.9832 7.33203C 95.5352 7.91992 95.77541 8.273829 95.77541 8.79609C 95.77541 9.42617 95.2953 9.810161 94.7672 9.810161C 94.4191 9.810161 94.1371 9.653911 93.957 9.45586L93.957 9.45586L93.6152 8.96992L93.6152 8.96992L93.74731 8.85C 93.9031 9.08398 94.15511 9.40781 94.5633 9.40781C 95.007 9.40781 95.2711 9.11406 95.2711 8.61016C 95.2711 8.09414 94.8934 7.60195 94.5211 7.15781C 94.2211 6.81016 93.8852 6.46797 93.5492 6.13789L93.5492 6.13789L93.5492 6L93.5492 6L95.7934 6C 95.8652 6.26992 95.92541 6.53398 96.00311 6.78594z" stroke="#000000" stroke-width="0.4" fill="none" /><path id="1374" transform="matrix(1 0 0 -1 0 834)" d="M554.472 6.83984C 554.292 6.46211 554.2141 6.43789 553.89 6.43789L553.89 6.43789L552.768 6.43789L552.768 6.43789L553.6201 7.33203C 554.1721 7.91992 554.412 8.273829 554.412 8.79609C 554.412 9.42617 553.932 9.810161 553.404 9.810161C 553.056 9.810161 552.774 9.653911 552.594 9.45586L552.594 9.45586L552.252 8.96992L552.252 8.96992L552.384 8.85C 552.54 9.08398 552.792 9.40781 553.2 9.40781C 553.644 9.40781 553.908 9.11406 553.908 8.61016C 553.908 8.09414 553.53 7.60195 553.158 7.15781C 552.858 6.81016 552.522 6.46797 552.186 6.13789L552.186 6.13789L552.186 6L552.186 6L554.43 6C 554.502 6.26992 554.562 6.53398 554.64 6.78594z" stroke="#000000" stroke-width="0.4" fill="none" /><path id="1375" transform="matrix(1 0 0 -1 0 834)" d="M555.792 9.3L557.19 9.3L557.19 9.3L557.346 9.68984L557.346 9.68984L557.31 9.73789L557.31 9.73789L555.6 9.73789L555.6 9.73789L555.366 7.90781C 555.504 7.96211 555.732 8.028131 555.984 8.028131C 556.638 8.028131 556.962 7.65 556.962 7.121881C 556.962 6.67188 556.71 6.23398 556.2 6.23398C 555.834 6.23398 555.588 6.42617 555.462 6.53984C 555.402 6.58789 555.354 6.58203 555.3 6.53984C 555.234 6.48008 555.18 6.40195 555.174 6.34219C 555.162 6.26992 555.192 6.22188 555.27 6.13789C 555.36 6.05391 555.612 5.92813 555.888 5.92813C 556.206 5.93398 556.608 6.08984 556.932 6.35391C 557.298 6.65391 557.466 6.99609 557.466 7.35586C 557.466 7.84805 557.076 8.369921 556.308 8.369921C 556.146 8.369921 555.864 8.273829 555.636 8.18984z" stroke="#000000" stroke-width="0.4" fill="none" /><path id="1376" transform="matrix(1 0 0 -1 0 834)" d="M559.548 9.989841L559.212 9.989841L559.212 9.989841L557.91 5.73594L557.91 5.73594L558.246 5.73594z" stroke="#000000" stroke-width="0.4" fill="none" /><path id="1377" transform="matrix(1 0 0 -1 0 834)" d="M561.18 9.61211C 561.72 9.61211 561.8701 8.72383 561.8701 7.871881C 561.8701 7.03203 561.726 6.13203 561.186 6.13203C 560.664 6.13203 560.49 7.03789 560.49 7.87813C 560.49 8.712111 560.634 9.61211 561.18 9.61211zM561.186 9.810161C 560.286 9.810161 559.956 8.74219 559.956 7.86602C 559.956 6.91797 560.28 5.92813 561.186 5.92813C 562.086 5.92813 562.404 6.99609 562.404 7.871881C 562.404 8.79609 562.086 9.810161 561.186 9.810161z" stroke="#000000" stroke-width="0.4" fill="none" /><path id="1378" transform="matrix(1 0 0 -1 0 834)" d="M564 9.61211C 564.582 9.61211 564.738 8.86797 564.738 8.33984C 564.738 8.21992 564.732 8.076171 564.7141 7.94414C 564.588 7.84805 564.384 7.77617 564.174 7.77617C 563.67 7.77617 563.3701 8.214061 563.3701 8.74219C 563.3701 9.09609 563.538 9.61211 564 9.61211zM564.078 9.810161C 563.304 9.810161 562.854 9.10781 562.854 8.53203C 562.854 7.90195 563.292 7.43398 563.928 7.43398C 564.042 7.43398 564.156 7.45781 564.288 7.53008L564.288 7.53008L564.69 7.74609C 564.492 6.83398 563.838 6.23398 562.98 6.08984L562.98 6.08984L563.01 5.91016C 563.16 5.91016 563.526 5.96992 563.85 6.10195C 564.66 6.42617 565.2661 7.20586 565.2661 8.310161C 565.2661 9.12617 564.828 9.810161 564.078 9.810161z" stroke="#000000" stroke-width="0.4" fill="none" /><path id="1379" transform="matrix(1 0 0 -1 0 834)" d="M567.294 9.989841L566.958 9.989841L566.958 9.989841L565.656 5.73594L565.656 5.73594L565.992 5.73594z" stroke="#000000" stroke-width="0.4" fill="none" /><path id="1380" transform="matrix(1 0 0 -1 0 834)" d="M569.9641 6.83984C 569.784 6.46211 569.706 6.43789 569.382 6.43789L569.382 6.43789L568.26 6.43789L568.26 6.43789L569.112 7.33203C 569.664 7.91992 569.904 8.273829 569.904 8.79609C 569.904 9.42617 569.424 9.810161 568.896 9.810161C 568.548 9.810161 568.2661 9.653911 568.086 9.45586L568.086 9.45586L567.744 8.96992L567.744 8.96992L567.876 8.85C 568.032 9.08398 568.284 9.40781 568.692 9.40781C 569.136 9.40781 569.4 9.11406 569.4 8.61016C 569.4 8.09414 569.022 7.60195 568.65 7.15781C 568.35 6.81016 568.014 6.46797 567.678 6.13789L567.678 6.13789L567.678 6L567.678 6L569.9221 6C 569.994 6.26992 570.054 6.53398 570.132 6.78594z" stroke="#000000" stroke-width="0.4" fill="none" /><path id="1381" transform="matrix(1 0 0 -1 0 834)" d="M571.806 9.61211C 572.346 9.61211 572.496 8.72383 572.496 7.871881C 572.496 7.03203 572.352 6.13203 571.812 6.13203C 571.29 6.13203 571.116 7.03789 571.116 7.87813C 571.116 8.712111 571.26 9.61211 571.806 9.61211zM571.812 9.810161C 570.912 9.810161 570.582 8.74219 570.582 7.86602C 570.582 6.91797 570.906 5.92813 571.812 5.92813C 572.712 5.92813 573.03 6.99609 573.03 7.871881C 573.03 8.79609 572.712 9.810161 571.812 9.810161z" stroke="#000000" stroke-width="0.4" fill="none" /><path id="1382" transform="matrix(1 0 0 -1 0 834)" d="M575.556 6L575.556 6.16211C 575.01 6.20391 574.9741 6.25195 574.9741 6.68398L574.9741 6.68398L574.9741 9.810161C 574.644 9.67813 574.29 9.56406 573.906 9.49805L573.906 9.49805L573.906 9.36016L573.906 9.36016L574.194 9.34805C 574.458 9.33594 574.482 9.305861 574.482 8.99414L574.482 8.99414L574.482 6.68398C 574.482 6.25195 574.452 6.20391 573.906 6.16211L573.906 6.16211L573.906 6z" stroke="#000000" stroke-width="0.4" fill="none" /><path id="1383" transform="matrix(1 0 0 -1 0 834)" d="M578.814 9.73789L576.522 9.73789C 576.498 9.48008 576.468 9.180079 576.414 8.85L576.414 8.85L576.588 8.85C 576.732 9.24609 576.768 9.3 577.164 9.3L577.164 9.3L578.46 9.3C 577.986 8.25586 577.308 7.01406 576.678 5.99414L576.678 5.99414L576.72 5.92813L576.72 5.92813L577.164 5.98789C 577.74 7.22383 578.298 8.44805 578.862 9.66602z" stroke="#000000" stroke-width="0.4" fill="none" /><path id="1384" transform="matrix(1 0 0 -1 0 834)" d="M584.531 9.61211C 585.071 9.61211 585.221 8.72383 585.221 7.871881C 585.221 7.03203 585.077 6.13203 584.537 6.13203C 584.015 6.13203 583.841 7.03789 583.841 7.87813C 583.841 8.712111 583.985 9.61211 584.531 9.61211zM584.537 9.810161C 583.637 9.810161 583.307 8.74219 583.307 7.86602C 583.307 6.91797 583.631 5.92813 584.537 5.92813C 585.437 5.92813 585.755 6.99609 585.755 7.871881C 585.755 8.79609 585.437 9.810161 584.537 9.810161z" stroke="#000000" stroke-width="0.4" fill="none" /><path id="1385" transform="matrix(1 0 0 -1 0 834)" d="M588.449 6.83984C 588.269 6.46211 588.191 6.43789 587.867 6.43789L587.867 6.43789L586.7451 6.43789L586.7451 6.43789L587.597 7.33203C 588.149 7.91992 588.389 8.273829 588.389 8.79609C 588.389 9.42617 587.909 9.810161 587.381 9.810161C 587.033 9.810161 586.751 9.653911 586.571 9.45586L586.571 9.45586L586.229 8.96992L586.229 8.96992L586.361 8.85C 586.517 9.08398 586.769 9.40781 587.177 9.40781C 587.621 9.40781 587.885 9.11406 587.885 8.61016C 587.885 8.09414 587.507 7.60195 587.135 7.15781C 586.835 6.81016 586.499 6.46797 586.163 6.13789L586.163 6.13789L586.163 6L586.163 6L588.407 6C 588.479 6.26992 588.539 6.53398 588.617 6.78594z" stroke="#000000" stroke-width="0.4" fill="none" /><path id="1386" transform="matrix(1 0 0 -1 0 834)" d="M589.5471 5.92813C 589.739 5.92813 589.883 6.06602 589.883 6.27617C 589.883 6.46797 589.739 6.61797 589.5471 6.61797C 589.355 6.61797 589.211 6.46797 589.211 6.27617C 589.211 6.06602 589.355 5.92813 589.5471 5.92813zM589.541 8.466021C 589.3491 8.466021 589.211 8.328131 589.211 8.13008C 589.211 7.92617 589.3491 7.78203 589.541 7.78203C 589.733 7.78203 589.877 7.92617 589.877 8.13008C 589.877 8.328131 589.733 8.466021 589.541 8.466021z" stroke="#000000" stroke-width="0.4" fill="none" /><path id="1387" transform="matrix(1 0 0 -1 0 834)" d="M590.735 8.976171C 590.885 9.19805 591.125 9.45 591.455 9.45C 591.773 9.45 592.025 9.257811 592.025 8.88594C 592.025 8.44219 591.617 8.20781 591.065 8.03398L591.065 8.03398L591.107 7.86016C 591.203 7.88984 591.347 7.92617 591.491 7.92617C 591.833 7.92617 592.253 7.70391 592.253 7.15195C 592.253 6.55781 591.953 6.23984 591.527 6.23984C 591.185 6.23984 590.939 6.40781 590.783 6.54609C 590.735 6.58789 590.687 6.58203 590.639 6.54609C 590.585 6.50391 590.507 6.42617 590.501 6.34805C 590.489 6.27617 590.513 6.21016 590.597 6.13203C 590.675 6.06016 590.921 5.92813 591.197 5.92813C 591.629 5.92813 592.769 6.37188 592.769 7.34414C 592.769 7.78203 592.463 8.153911 591.935 8.25586L591.935 8.25586L591.935 8.26797C 592.109 8.38789 592.253 8.49609 592.343 8.59219C 592.457 8.70586 592.529 8.84414 592.529 9.01797C 592.529 9.47383 592.175 9.810161 591.635 9.810161C 591.317 9.810161 591.041 9.66016 590.873 9.47383L590.873 9.47383L590.609 9.09609z" stroke="#000000" stroke-width="0.4" fill="none" /><path id="1388" transform="matrix(1 0 0 -1 0 834)" d="M594.785 7.35L593.603 7.35C 593.999 8.016021 594.389 8.58594 594.773 9.119921L594.773 9.119921L594.785 9.119921zM595.841 7.06797L595.841 7.35L595.841 7.35L595.265 7.35L595.265 7.35L595.265 9.79219L595.265 9.79219L595.025 9.79219C 594.407 8.976171 593.795 8.08789 593.225 7.23594L593.225 7.23594L593.225 7.06797L593.225 7.06797L594.785 7.06797L594.785 7.06797L594.785 6.63594C 594.785 6.23984 594.761 6.20391 594.239 6.16211L594.239 6.16211L594.239 6L594.239 6L595.775 6L595.775 6L595.775 6.16211C 595.289 6.20391 595.265 6.23398 595.265 6.63594L595.265 6.63594L595.265 7.06797z" stroke="#000000" stroke-width="0.4" fill="none" /><path id="1389" transform="matrix(1 0 0 -1 0 834)" d="M596.675 5.92813C 596.867 5.92813 597.011 6.06602 597.011 6.27617C 597.011 6.46797 596.867 6.61797 596.675 6.61797C 596.483 6.61797 596.3391 6.46797 596.3391 6.27617C 596.3391 6.06602 596.483 5.92813 596.675 5.92813zM596.669 8.466021C 596.477 8.466021 596.3391 8.328131 596.3391 8.13008C 596.3391 7.92617 596.477 7.78203 596.669 7.78203C 596.861 7.78203 597.005 7.92617 597.005 8.13008C 597.005 8.328131 596.861 8.466021 596.669 8.466021z" stroke="#000000" stroke-width="0.4" fill="none" /><path id="1390" transform="matrix(1 0 0 -1 0 834)" d="M598.787 9.61211C 599.327 9.61211 599.477 8.72383 599.477 7.871881C 599.477 7.03203 599.333 6.13203 598.793 6.13203C 598.271 6.13203 598.097 7.03789 598.097 7.87813C 598.097 8.712111 598.241 9.61211 598.787 9.61211zM598.793 9.810161C 597.893 9.810161 597.563 8.74219 597.563 7.86602C 597.563 6.91797 597.887 5.92813 598.793 5.92813C 599.6931 5.92813 600.011 6.99609 600.011 7.871881C 600.011 8.79609 599.6931 9.810161 598.793 9.810161z" stroke="#000000" stroke-width="0.4" fill="none" /><path id="1391" transform="matrix(1 0 0 -1 0 834)" d="M600.743 8.976171C 600.893 9.19805 601.133 9.45 601.463 9.45C 601.781 9.45 602.033 9.257811 602.033 8.88594C 602.033 8.44219 601.625 8.20781 601.073 8.03398L601.073 8.03398L601.115 7.86016C 601.211 7.88984 601.355 7.92617 601.499 7.92617C 601.841 7.92617 602.261 7.70391 602.261 7.15195C 602.261 6.55781 601.961 6.23984 601.535 6.23984C 601.1931 6.23984 600.947 6.40781 600.791 6.54609C 600.743 6.58789 600.695 6.58203 600.647 6.54609C 600.593 6.50391 600.515 6.42617 600.509 6.34805C 600.497 6.27617 600.521 6.21016 600.605 6.13203C 600.683 6.06016 600.929 5.92813 601.205 5.92813C 601.637 5.92813 602.777 6.37188 602.777 7.34414C 602.777 7.78203 602.471 8.153911 601.9431 8.25586L601.9431 8.25586L601.9431 8.26797C 602.117 8.38789 602.261 8.49609 602.351 8.59219C 602.465 8.70586 602.537 8.84414 602.537 9.01797C 602.537 9.47383 602.183 9.810161 601.643 9.810161C 601.325 9.810161 601.049 9.66016 600.881 9.47383L600.881 9.47383L600.617 9.09609z" stroke="#000000" stroke-width="0.4" fill="none" /><path id="1392" transform="matrix(1 0 0 -1 0 834)" d="M605.489 8.08203C 605.651 8.20195 605.897 8.33398 606.0891 8.33398C 606.527 8.33398 606.893 7.97383 606.893 7.33203C 606.893 6.65391 606.557 6.22188 606.053 6.22188C 605.8491 6.22188 605.621 6.31797 605.489 6.45586zM605.489 8.28008L605.489 8.75391C 605.207 8.63984 604.871 8.53789 604.619 8.49609L604.619 8.49609L604.619 8.351951C 604.991 8.30391 605.015 8.29219 605.015 7.90195L605.015 7.90195L605.015 5.18984C 605.015 4.79414 604.961 4.75781 604.577 4.72188L604.577 4.72188L604.577 4.56016L604.577 4.56016L605.999 4.56016L605.999 4.56016L605.999 4.72188C 605.531 4.76406 605.489 4.79414 605.489 5.25L605.489 5.25L605.489 6.03594C 605.567 5.99414 605.729 5.93398 605.903 5.92813C 606.683 6.07188 607.397 6.65391 607.397 7.56016C 607.397 8.153911 607.001 8.69414 606.335 8.69414C 606.263 8.69414 606.149 8.664061 606.041 8.60391z" stroke="#000000" stroke-width="0.4" fill="none" /><path id="1393" transform="matrix(1 0 0 -1 0 834)" d="M608.303 5.92813C 608.4951 5.92813 608.639 6.06602 608.639 6.27617C 608.639 6.46797 608.4951 6.61797 608.303 6.61797C 608.111 6.61797 607.967 6.46797 607.967 6.27617C 607.967 6.06602 608.111 5.92813 608.303 5.92813z" stroke="#000000" stroke-width="0.4" fill="none" /><path id="1394" transform="matrix(1 0 0 -1 0 834)" d="M615.125 6L615.125 6.15586C 614.783 6.19219 614.735 6.21602 614.735 6.61797L614.735 6.61797L614.735 7.77617C 614.735 8.36406 614.441 8.69414 613.973 8.69414C 613.805 8.69414 613.649 8.621881 613.523 8.53789C 613.373 8.44805 613.199 8.33398 613.025 8.20195C 612.905 8.51406 612.647 8.69414 612.359 8.69414C 612.167 8.69414 612.023 8.628131 611.867 8.53203C 611.687 8.417971 611.555 8.310161 611.429 8.226171L611.429 8.226171L611.429 8.712111C 611.165 8.59219 610.859 8.51406 610.595 8.466021L610.595 8.466021L610.595 8.328131C 610.9431 8.273829 610.961 8.24414 610.961 7.86016L610.961 7.86016L610.961 6.61797C 610.961 6.22813 610.907 6.19219 610.511 6.15586L610.511 6.15586L610.511 6L610.511 6L611.777 6L611.777 6L611.777 6.15586C 611.483 6.19219 611.435 6.22813 611.435 6.61797L611.435 6.61797L611.435 8.028131C 611.615 8.17813 611.8491 8.33984 612.0891 8.33984C 612.455 8.33984 612.611 8.09414 612.611 7.65L612.611 7.65L612.611 6.61797C 612.611 6.22188 612.557 6.19219 612.185 6.15586L612.185 6.15586L612.185 6L612.185 6L613.469 6L613.469 6L613.469 6.15586C 613.139 6.19219 613.085 6.22813 613.085 6.60586L613.085 6.60586L613.085 7.77617C 613.085 7.88984 613.079 7.95586 613.067 8.028131C 613.295 8.21992 613.523 8.33984 613.739 8.33984C 614.117 8.33984 614.267 8.069921 614.267 7.64414L614.267 7.64414L614.267 6.64219C 614.267 6.21602 614.201 6.19219 613.847 6.15586L613.847 6.15586L613.847 6z" stroke="#000000" stroke-width="0.4" fill="none" /><path id="1395" transform="matrix(1 0 0 -1 0 834)" d="M615.947 5.92813C 616.139 5.92813 616.283 6.06602 616.283 6.27617C 616.283 6.46797 616.139 6.61797 615.947 6.61797C 615.755 6.61797 615.611 6.46797 615.611 6.27617C 615.611 6.06602 615.755 5.92813 615.947 5.92813z" stroke="#000000" stroke-width="0.4" fill="none" /></g></g></svg>