<svg xmlns="http://www.w3.org/2000/svg" xmlns:xlink="http://www.w3.org/1999/xlink" id="body_1" preserveAspectRatio="xMinYMin meet" viewBox="0 0 872 1112"><defs><clipPath id="1"><path id="" clip-rule="evenodd" transform="matrix(1 0 0 1 0 0)" d="M0 834L0 0L0 0L654 0L654 0L654 834L654 834L0 834z" /></clipPath><clipPath id="2"><path id="" clip-rule="evenodd" transform="matrix(1 0 0 1 0 0)" d="M21 813L633 813L633 813L633 21L633 21L21 21z" /></clipPath><clipPath id="3"><path id="" clip-rule="evenodd" transform="matrix(1 0 0 1 0 0)" d="M332.326 268.01L424.8018 268.01L424.8018 268.01L424.8018 131.579L424.8018 131.579L332.326 131.579z" /></clipPath><clipPath id="4"><path id="" clip-rule="evenodd" transform="matrix(1 0 0 1 0 0)" d="M332.326 268.01L424.8018 268.01L424.8018 268.01L424.8018 131.579L424.8018 131.579L332.326 131.579z" /></clipPath><clipPath id="5"><path id="" clip-rule="evenodd" transform="matrix(1 0 0 1 0 0)" d="M357.177 239.199L383.4622 239.199L383.4622 239.199L383.4622 215.258L383.4622 215.258L357.177 215.258z" /></clipPath><clipPath id="6"><path id="" clip-rule="evenodd" transform="matrix(1 0 0 1 0 0)" d="M357.177 239.199L383.462 239.199L383.462 239.199L383.462 215.258L383.462 215.258L357.177 215.258z" /></clipPath><clipPath id="7"><path id="" clip-rule="evenodd" transform="matrix(1 0 0 1 0 0)" d="M357.177 239.199L383.4629 239.199L383.4629 239.199L383.4629 215.2584L383.4629 215.2584L357.177 215.2584z" /></clipPath><clipPath id="8"><path id="" clip-rule="evenodd" transform="matrix(1 0 0 1 0 0)" d="M332.326 268.01L477.756 268.01L477.756 268.01L477.756 131.579L477.756 131.579L332.326 131.579z" /></clipPath><clipPath id="9"><path id="" clip-rule="evenodd" transform="matrix(1 0 0 1 0 0)" d="M415.71 236.164C 415.71 252.981 429.459 266.613 446.42 266.613L446.42 266.613L446.42 266.613C 463.38 266.613 477.13 252.981 477.13 236.164L477.13 236.164L477.13 236.164C 477.13 219.348 463.38 205.715 446.42 205.715L446.42 205.715L446.42 205.715C 429.459 205.715 415.71 219.348 415.71 236.164" /></clipPath><clipPath id="10"><path id="" clip-rule="evenodd" transform="matrix(1 0 0 1 0 0)" d="M415.71 236.164C 415.71 252.981 429.459 266.613 446.42 266.613L446.42 266.613L446.42 266.613C 463.38 266.613 477.13 252.981 477.13 236.164L477.13 236.164L477.13 236.164C 477.13 219.348 463.38 205.715 446.42 205.715L446.42 205.715L446.42 205.715C 429.459 205.715 415.71 219.348 415.71 236.164" /></clipPath><clipPath id="11"><path id="" clip-rule="evenodd" transform="matrix(1 0 0 1 0 0)" d="M332.326 268.01L477.756 268.01L477.756 268.01L477.756 131.579L477.756 131.579L332.326 131.579z" /></clipPath><clipPath id="12"><path id="" clip-rule="evenodd" transform="matrix(1 0 0 1 0 0)" d="M260.881 168.653L299.149 168.653L299.149 168.653L299.149 111.7369L299.149 111.7369L260.881 111.7369z" /></clipPath><clipPath id="13"><path id="" clip-rule="evenodd" transform="matrix(1 0 0 1 0 0)" d="M260.881 168.653L299.149 168.653L299.149 168.653L299.149 111.7369L299.149 111.7369L260.881 111.7369z" /></clipPath><clipPath id="14"><path id="" clip-rule="evenodd" transform="matrix(1 0 0 1 0 0)" d="M315.435 176.053L341.0319 176.053L341.0319 176.053L341.0319 140.194L341.0319 140.194L315.435 140.194z" /></clipPath><clipPath id="15"><path id="" clip-rule="evenodd" transform="matrix(1 0 0 1 0 0)" d="M315.435 176.053L341.0319 176.053L341.0319 176.053L341.0319 140.194L341.0319 140.194L315.435 140.194z" /></clipPath><clipPath id="16"><path id="" clip-rule="evenodd" transform="matrix(1 0 0 1 0 0)" d="M420.316 176.053L445.9129 176.053L445.9129 176.053L445.9129 140.194L445.9129 140.194L420.316 140.194z" /></clipPath><clipPath id="17"><path id="" clip-rule="evenodd" transform="matrix(1 0 0 1 0 0)" d="M420.316 176.053L445.9129 176.053L445.9129 176.053L445.9129 140.194L445.9129 140.194L420.316 140.194z" /></clipPath><clipPath id="18"><path id="" clip-rule="evenodd" transform="matrix(1 0 0 1 0 0)" d="M307.016 483.786L457.503 483.786L457.503 483.786L457.503 339.925L457.503 339.925L307.016 339.925z" /></clipPath><clipPath id="19"><path id="" clip-rule="evenodd" transform="matrix(1 0 0 1 0 0)" d="M307.016 483.786L457.503 483.786L457.503 483.786L457.503 339.925L457.503 339.925L307.016 339.925z" /></clipPath><clipPath id="20"><path id="" clip-rule="evenodd" transform="matrix(1 0 0 1 0 0)" d="M307.016 484.492L519.757 484.492L519.757 484.492L519.757 339.925L519.757 339.925L307.016 339.925z" /></clipPath><clipPath id="21"><path id="" clip-rule="evenodd" transform="matrix(1 0 0 1 0 0)" d="M443.29 442.359L443.29 467.552C 449.756 477.162 463.389 483.786 479.16 483.786L479.16 483.786L479.16 483.786C 495.351 483.786 509.288 476.805 515.53 466.778L515.53 466.778L515.53 466.778L515.53 466.778L515.53 443.132C 509.288 433.105 495.351 426.125 479.16 426.125L479.16 426.125L479.16 426.125C 463.389 426.125 449.756 432.749 443.29 442.359" /></clipPath><clipPath id="22"><path id="" clip-rule="evenodd" transform="matrix(1 0 0 1 0 0)" d="M443.29 442.359L443.29 467.552C 449.756 477.162 463.389 483.786 479.16 483.786L479.16 483.786L479.16 483.786C 495.351 483.786 509.288 476.805 515.53 466.778L515.53 466.778L515.53 466.778L515.53 466.778L515.53 443.132C 509.288 433.105 495.351 426.125 479.16 426.125L479.16 426.125L479.16 426.125C 463.389 426.125 449.756 432.749 443.29 442.359" /></clipPath><clipPath id="23"><path id="" clip-rule="evenodd" transform="matrix(1 0 0 1 0 0)" d="M307.016 484.492L519.757 484.492L519.757 484.492L519.757 339.925L519.757 339.925L307.016 339.925z" /></clipPath><clipPath id="24"><path id="" clip-rule="evenodd" transform="matrix(1 0 0 1 0 0)" d="M261.024 384.275L299.2924 384.275L299.2924 384.275L299.2924 327.3578L299.2924 327.3578L261.024 327.3578z" /></clipPath><clipPath id="25"><path id="" clip-rule="evenodd" transform="matrix(1 0 0 1 0 0)" d="M261.024 384.275L299.2924 384.275L299.2924 384.275L299.2924 327.3578L299.2924 327.3578L261.024 327.3578z" /></clipPath><clipPath id="26"><path id="" clip-rule="evenodd" transform="matrix(1 0 0 1 0 0)" d="M313.309 391.675L338.9059 391.675L338.9059 391.675L338.9059 355.816L338.9059 355.816L313.309 355.816z" /></clipPath><clipPath id="27"><path id="" clip-rule="evenodd" transform="matrix(1 0 0 1 0 0)" d="M313.309 391.675L338.9059 391.675L338.9059 391.675L338.9059 355.816L338.9059 355.816L313.309 355.816z" /></clipPath><clipPath id="28"><path id="" clip-rule="evenodd" transform="matrix(1 0 0 1 0 0)" d="M433.016 391.675L458.6129 391.675L458.6129 391.675L458.6129 356.8391L458.6129 356.8391L433.016 356.8391z" /></clipPath><clipPath id="29"><path id="" clip-rule="evenodd" transform="matrix(1 0 0 1 0 0)" d="M433.016 391.675L458.6129 391.675L458.6129 391.675L458.6129 356.8391L458.6129 356.8391L433.016 356.8391z" /></clipPath><clipPath id="30"><path id="" clip-rule="evenodd" transform="matrix(1 0 0 1 0 0)" d="M330.168 704.083L459.522 704.083L459.522 704.083L459.522 556.539L459.522 556.539L330.168 556.539z" /></clipPath><clipPath id="31"><path id="" clip-rule="evenodd" transform="matrix(1 0 0 1 0 0)" d="M330.168 704.083L459.522 704.083L459.522 704.083L459.522 556.539L459.522 556.539L330.168 556.539z" /></clipPath><clipPath id="32"><path id="" clip-rule="evenodd" transform="matrix(1 0 0 1 0 0)" d="M330.168 704.508L510.402 704.508L510.402 704.508L510.402 556.539L510.402 556.539L330.168 556.539z" /></clipPath><clipPath id="33"><path id="" clip-rule="evenodd" transform="matrix(1 0 0 1 0 0)" d="M446.292 660.09L446.292 688.373C 452.016 697.565 463.147 703.802 475.94 703.802L475.94 703.802L475.94 703.802C 494.58 703.802 509.69 690.563 509.69 674.231L509.69 674.231L509.69 674.231C 509.69 657.9 494.58 644.661 475.94 644.661L475.94 644.661L475.94 644.661C 463.147 644.661 452.016 650.898 446.292 660.09" /></clipPath><clipPath id="34"><path id="" clip-rule="evenodd" transform="matrix(1 0 0 1 0 0)" d="M446.292 660.09L446.292 688.373C 452.016 697.565 463.147 703.802 475.94 703.802L475.94 703.802L475.94 703.802C 494.58 703.802 509.69 690.563 509.69 674.231L509.69 674.231L509.69 674.231C 509.69 657.9 494.58 644.661 475.94 644.661L475.94 644.661L475.94 644.661C 463.147 644.661 452.016 650.898 446.292 660.09" /></clipPath><clipPath id="35"><path id="" clip-rule="evenodd" transform="matrix(1 0 0 1 0 0)" d="M330.168 704.508L510.402 704.508L510.402 704.508L510.402 556.539L510.402 556.539L330.168 556.539z" /></clipPath><clipPath id="36"><path id="" clip-rule="evenodd" transform="matrix(1 0 0 1 0 0)" d="M261.024 604.243L299.2924 604.243L299.2924 604.243L299.2924 547.3262L299.2924 547.3262L261.024 547.3262z" /></clipPath><clipPath id="37"><path id="" clip-rule="evenodd" transform="matrix(1 0 0 1 0 0)" d="M261.024 604.243L299.2924 604.243L299.2924 604.243L299.2924 547.3262L299.2924 547.3262L261.024 547.3262z" /></clipPath><clipPath id="38"><path id="" clip-rule="evenodd" transform="matrix(1 0 0 1 0 0)" d="M339.614 611.643L365.2109 611.643L365.2109 611.643L365.2109 575.7852L365.2109 575.7852L339.614 575.7852z" /></clipPath><clipPath id="39"><path id="" clip-rule="evenodd" transform="matrix(1 0 0 1 0 0)" d="M339.614 611.643L365.2109 611.643L365.2109 611.643L365.2109 575.7852L365.2109 575.7852L339.614 575.7852z" /></clipPath><clipPath id="40"><path id="" clip-rule="evenodd" transform="matrix(1 0 0 1 0 0)" d="M454.309 611.643L479.9059 611.643L479.9059 611.643L479.9059 575.7852L479.9059 575.7852L454.309 575.7852z" /></clipPath><clipPath id="41"><path id="" clip-rule="evenodd" transform="matrix(1 0 0 1 0 0)" d="M454.309 611.643L479.9059 611.643L479.9059 611.643L479.9059 575.7852L479.9059 575.7852L454.309 575.7852z" /></clipPath></defs><g transform="matrix(1.333333 0 0 1.333333 0 0)"><g clip-path="url(#1)"><g clip-path="url(#2)"><path id="1" transform="matrix(1 0 0 -1 0 834)" d="M91.866 67.4211L562.134 67.4211L562.134 74.92501L91.866 74.92501z" stroke="none" fill="#686868" fill-rule="nonzero" /><path id="2" transform="matrix(1 0 0 -1 0 834)" d="M562.134 526.984L91.866 526.984" stroke="#686868" stroke-width="1" fill="none" /><path id="3" transform="matrix(1 0 0 -1 0 834)" d="M562.134 307.016L91.866 307.016" stroke="#686868" stroke-width="1" fill="none" /></g><g clip-path="url(#3)"></g><g clip-path="url(#4)"><g transform="matrix(1.005182 0 0 1.003169 332.326 131.579)"><g transform="matrix(1 0 0 1 0 0)"><image x="0" y="0" xlink:href="img_01.png" width="92" height="136" /></g></g></g><g clip-path="url(#5)"><g><g clip-path="url(#6)"><g clip-path="url(#7)"><path id="8" transform="matrix(1 0 0 -1 0 834)" d="M371.172 618.742C 364.395 618.742 358.882 613.275 358.882 606.557C 358.882 604.334 359.472 602.211 360.6 600.337L360.6 600.337L357.177 598.48L357.177 598.48L367.409 595.68L367.409 595.68L362.291 604.901L362.291 604.901L361.418 601.732C 360.666 603.217 360.275 604.854 360.275 606.557C 360.275 612.514 365.163 617.361 371.172 617.361C 377.181 617.361 382.07 612.514 382.07 606.557C 382.07 601.698 378.772 597.412 374.052 596.133L374.052 596.133L374.419 594.801C 379.743 596.243 383.462 601.077 383.462 606.557C 383.462 613.275 377.949 618.742 371.172 618.742" stroke="none" fill="#FFFFFF" fill-rule="nonzero" fill-opacity="0.8" /></g></g></g></g><g clip-path="url(#8)"><path id="9" transform="matrix(1 0 0 -1 0 834)" d="M415.71 597.836C 415.71 581.019 429.459 567.387 446.419 567.387C 463.38 567.387 477.129 581.019 477.129 597.836C 477.129 614.652 463.38 628.284 446.419 628.284C 429.459 628.284 415.71 614.652 415.71 597.836" stroke="none" fill="#FFFFFF" fill-rule="nonzero" /></g><g clip-path="url(#9)"></g><g clip-path="url(#10)"><g transform="matrix(0.9987819 0 0 1.005178 402.388 149.822)"><g transform="matrix(1 0 0 1 0 0)"><image x="0" y="0" xlink:href="img_02.png" width="88" height="129" /></g></g></g><g clip-path="url(#11)"><path id="11" transform="matrix(1 0 0 -1 0 834)" d="M415.7105 597.8359C 415.7105 581.019 429.46 567.3875 446.4201 567.3875C 463.3802 567.3875 477.1287 581.019 477.1287 597.8359C 477.1287 614.6518 463.3802 628.2843 446.4201 628.2843C 429.46 628.2843 415.7105 614.6518 415.7105 597.8359z" stroke="#000000" stroke-width="0.6963608" fill="none" /></g><g clip-path="url(#12)"></g><g clip-path="url(#13)"><g transform="matrix(1.007045 0 0 1.008441 260.881 110.9494)"><g transform="matrix(1 0 0 1 0 0)"><image x="0" y="0" xlink:href="img_03.png" width="38" height="58" /></g></g></g><g clip-path="url(#14)"></g><g clip-path="url(#15)"><g transform="matrix(1.022789 0 0 0.9967948 314.427 139.1808)"><g transform="matrix(1 0 0 1 0 0)"><image x="0" y="0" xlink:href="img_04.png" width="27" height="38" /></g></g></g><g clip-path="url(#16)"></g><g clip-path="url(#17)"><g transform="matrix(-1.022789 0 0 0.9967948 446.921 139.1808)"><g transform="matrix(1 0 0 1 0 0)"><image x="0" y="0" xlink:href="img_05.png" width="27" height="38" /></g></g></g><g clip-path="url(#18)"></g><g clip-path="url(#19)"><g transform="matrix(1.003247 0 0 0.9990348 307.016 339.925)"><g transform="matrix(1 0 0 1 0 0)"><image x="0" y="0" xlink:href="img_06.png" width="150" height="144" /></g></g></g><g clip-path="url(#20)"><path id="398" transform="matrix(1 0 0 -1 0 834)" d="M339.828 405.223C 338.575 404.263 337.477 402.957 336.599 401.396C 336.597 401.393 336.596 401.391 336.595 401.388C 336.531 401.274 336.468 401.159 336.406 401.043C 336.392 401.015 336.377 400.988 336.363 400.96C 336.316 400.869 336.269 400.777 336.223 400.684C 336.195 400.628 336.167 400.572 336.14 400.515C 336.109 400.451 336.078 400.386 336.048 400.321C 336.007 400.232 335.966 400.142 335.925 400.052C 335.911 400.019 335.896 399.986 335.882 399.954C 334.884 397.671 334.328 395.015 334.328 392.241C 334.328 386.603 336.673 381.389 340.309 378.915C 339.571 378.534 338.801 378.22 338.005 377.978C 333.77 379.757 330.669 385.345 330.669 391.949C 330.669 398.553 333.77 404.141 338.005 405.921C 338.634 405.73 339.242 405.496 339.828 405.223" stroke="none" fill="#060606" fill-rule="nonzero" /><path id="399" transform="matrix(1 0 0 -1 0 834)" d="M346.091 384.329C 345.679 383.648 345.21 383.002 344.693 382.398C 345.207 383.004 345.674 383.652 346.087 384.337" stroke="none" fill="#060606" fill-rule="nonzero" /><path id="400" transform="matrix(1 0 0 -1 0 834)" d="M344.195 378.122C 343.962 378.011 343.726 377.912 343.487 377.826L343.487 377.826L343.487 377.826C 342.7 377.543 341.761 377.391 340.943 377.385C 340.148 377.391 339.352 377.532 338.571 377.81C 341.804 378.858 344.536 380.96 346.349 383.788L346.349 383.788L347.362 381.663L347.362 381.663L349.077 383.077C 347.841 380.819 346.15 379.077 344.195 378.122" stroke="none" fill="#060606" fill-rule="nonzero" /><path id="401" transform="matrix(1 0 0 -1 0 834)" d="M349.555 384.023L347.593 382.404L347.593 382.404L346.407 384.891L346.407 384.891L346.407 384.891L346.407 384.891L344.011 389.922L344.011 389.922L348.386 388.599L348.386 388.599L348.46 388.96L348.46 388.96L348.456 388.961C 348.653 389.939 348.757 390.943 348.757 391.948C 348.757 398.371 344.588 404.129 338.57 406.086C 339.356 406.366 340.157 406.507 340.956 406.512C 341.428 406.508 341.903 406.457 342.369 406.358C 343.732 406.066 345.358 405.341 346.842 403.989C 349.045 401.784 350.613 398.416 351.09 394.526C 351.173 393.717 351.218 392.859 351.218 391.948C 351.218 390.825 351.127 389.707 350.948 388.624L350.948 388.624L350.959 388.623L350.959 388.623L350.941 388.375L350.941 388.375L355.53 388.955L355.53 388.955L349.559 384.031C 349.558 384.029 349.557 384.026 349.555 384.023" stroke="none" fill="#060606" fill-rule="nonzero" /><path id="402" transform="matrix(1 0 0 -1 0 834)" d="M330.811 397.246C 331.996 401.606 334.62 404.971 337.87 406.207C 334.626 404.903 332.01 401.555 330.811 397.246" stroke="none" fill="#060606" fill-rule="nonzero" /><path id="403" transform="matrix(1 0 0 -1 0 834)" d="M356.761 389.413L350.073 383.898C 348.576 380.82 346.266 378.534 343.675 377.58L343.675 377.58L343.677 377.578C 343.613 377.555 343.547 377.539 343.483 377.518C 342.674 377.242 341.84 377.089 340.996 377.089C 340.974 377.089 340.951 377.091 340.929 377.091C 340.916 377.091 340.904 377.089 340.891 377.089C 340.807 377.089 340.724 377.096 340.64 377.098C 340.623 377.099 340.607 377.099 340.589 377.1C 334.779 377.321 330.101 383.894 330.101 391.948C 330.101 393.814 330.353 395.6 330.811 397.246C 332.01 401.555 334.626 404.903 337.87 406.207C 338.737 406.556 339.648 406.76 340.589 406.795C 340.607 406.796 340.624 406.796 340.641 406.797C 340.724 406.8 340.807 406.806 340.891 406.806C 340.908 406.806 340.925 406.805 340.941 406.805C 340.96 406.805 340.978 406.806 340.996 406.806C 346.946 406.806 351.786 400.141 351.786 391.948C 351.786 390.892 351.703 389.841 351.545 388.818M355.537 388.956L355.53 388.955L355.53 388.955L350.941 388.375L350.941 388.375L350.959 388.623L350.959 388.623L350.948 388.624C 351.127 389.707 351.218 390.825 351.218 391.948C 351.218 392.859 351.173 393.717 351.09 394.526C 350.613 399.16 348.859 402.153 346.842 403.989C 345.358 405.341 343.732 406.066 342.369 406.358C 341.903 406.456 341.429 406.508 340.957 406.512C 340.157 406.507 339.356 406.365 338.57 406.086C 344.588 404.129 348.757 398.371 348.757 391.948C 348.757 390.943 348.653 389.939 348.456 388.961L348.456 388.961L348.46 388.959L348.46 388.959L348.386 388.599L348.386 388.599L344.012 389.922L344.012 389.922L346.407 384.891L346.407 384.891L346.407 384.891L346.407 384.891L347.593 382.404L347.593 382.404L349.556 384.023zM340.707 379.129C 342.214 379.969 343.569 381.084 344.693 382.398C 345.21 383.002 345.678 383.648 346.091 384.329L346.091 384.329L346.087 384.337L346.087 384.337L345.856 384.821L345.856 384.821L343.142 390.52L343.142 390.52L347.915 389.12C 348.094 390.047 348.189 390.996 348.189 391.948C 348.189 397.534 345.023 402.596 340.251 405.016C 336.945 402.439 334.895 397.563 334.895 392.24C 334.895 386.689 337.173 381.57 340.707 379.129M349.086 383.083L349.077 383.076L349.077 383.076L347.362 381.662L347.362 381.662L346.349 383.787C 344.536 380.959 341.803 378.857 338.571 377.809C 339.352 377.532 340.148 377.39 340.943 377.384C 341.761 377.39 342.7 377.542 343.487 377.825L343.487 377.825L343.487 377.825C 343.726 377.911 343.962 378.011 344.195 378.121C 346.109 379.029 347.817 380.743 349.086 383.083M330.669 391.948C 330.669 385.344 333.77 379.756 338.005 377.977C 338.801 378.218 339.571 378.533 340.309 378.913C 336.673 381.387 334.328 386.602 334.328 392.24C 334.328 395.013 334.884 397.67 335.882 399.952C 335.896 399.985 335.911 400.018 335.925 400.051C 335.966 400.141 336.007 400.23 336.048 400.32C 336.078 400.384 336.109 400.449 336.14 400.514C 336.167 400.57 336.195 400.627 336.223 400.683C 336.269 400.775 336.315 400.867 336.363 400.958C 336.377 400.986 336.392 401.014 336.406 401.041C 336.468 401.157 336.53 401.273 336.595 401.387C 336.596 401.389 336.597 401.392 336.599 401.395C 337.466 402.933 338.557 404.242 339.83 405.221C 339.829 405.221 339.829 405.221 339.828 405.221C 339.242 405.494 338.634 405.729 338.005 405.919C 333.77 404.14 330.669 398.552 330.669 391.948" stroke="none" fill="#FFFFFF" fill-rule="nonzero" /><path id="404" transform="matrix(1 0 0 -1 0 834)" d="M425.027 403.809C 426.229 402.915 427.282 401.698 428.123 400.243C 428.125 400.241 428.126 400.238 428.128 400.236C 428.189 400.13 428.249 400.023 428.308 399.914C 428.322 399.888 428.336 399.863 428.35 399.837C 428.395 399.752 428.44 399.666 428.484 399.58C 428.511 399.528 428.538 399.475 428.564 399.423C 428.593 399.363 428.623 399.302 428.652 399.241C 428.692 399.159 428.731 399.075 428.77 398.991C 428.783 398.961 428.797 398.93 428.811 398.899C 429.769 396.773 430.302 394.298 430.302 391.714C 430.302 386.461 428.052 381.602 424.566 379.298C 425.273 378.943 426.012 378.65 426.775 378.425C 430.837 380.082 433.811 385.289 433.811 391.442C 433.811 397.595 430.837 402.801 426.774 404.459C 426.171 404.281 425.588 404.063 425.027 403.809" stroke="none" fill="#060606" fill-rule="nonzero" /><path id="405" transform="matrix(1 0 0 -1 0 834)" d="M419.02 384.343C 419.415 383.709 419.864 383.107 420.36 382.545C 419.867 383.108 419.42 383.712 419.023 384.351" stroke="none" fill="#060606" fill-rule="nonzero" /><path id="406" transform="matrix(1 0 0 -1 0 834)" d="M420.839 378.558C 421.063 378.455 421.289 378.363 421.518 378.282C 422.273 378.018 423.174 377.877 423.957 377.871C 424.72 377.877 425.484 378.009 426.233 378.268C 423.132 379.244 420.512 381.203 418.773 383.837L418.773 383.837L417.802 381.857L417.802 381.857L416.157 383.175C 417.342 381.071 418.964 379.448 420.839 378.558" stroke="none" fill="#060606" fill-rule="nonzero" /><path id="407" transform="matrix(1 0 0 -1 0 834)" d="M415.698 384.058L417.58 382.549L417.58 382.549L418.718 384.866L418.718 384.866L418.717 384.866L418.717 384.866L421.015 389.554L421.015 389.554L416.82 388.321L416.82 388.321L416.748 388.657L416.748 388.657L416.752 388.658C 416.564 389.57 416.464 390.505 416.464 391.441C 416.464 397.425 420.463 402.79 426.234 404.614C 425.48 404.874 424.712 405.006 423.945 405.011C 423.493 405.007 423.038 404.959 422.591 404.867C 421.283 404.595 419.724 403.919 418.3 402.66C 416.188 400.605 414.684 397.467 414.227 393.843C 414.146 393.089 414.104 392.29 414.104 391.441C 414.104 390.395 414.191 389.353 414.363 388.345L414.363 388.345L414.352 388.344L414.352 388.344L414.369 388.112L414.369 388.112L409.968 388.653L409.968 388.653L415.695 384.065C 415.696 384.063 415.697 384.06 415.698 384.058" stroke="none" fill="#060606" fill-rule="nonzero" /><path id="408" transform="matrix(1 0 0 -1 0 834)" d="M433.675 396.379C 432.538 400.44 430.022 403.575 426.905 404.727C 430.016 403.512 432.525 400.393 433.675 396.379" stroke="none" fill="#060606" fill-rule="nonzero" /><path id="409" transform="matrix(1 0 0 -1 0 834)" d="M408.788 389.079L415.202 383.941C 416.638 381.073 418.854 378.943 421.338 378.054L421.338 378.054L421.336 378.053C 421.398 378.031 421.461 378.016 421.522 377.996C 422.298 377.739 423.098 377.597 423.907 377.597C 423.929 377.597 423.95 377.599 423.972 377.599C 423.984 377.599 423.996 377.597 424.009 377.597C 424.089 377.597 424.168 377.603 424.249 377.605C 424.265 377.606 424.281 377.606 424.297 377.607C 429.87 377.813 434.356 383.937 434.356 391.441C 434.356 393.179 434.115 394.844 433.676 396.378C 432.526 400.392 430.017 403.511 426.905 404.727C 426.074 405.052 425.2 405.241 424.297 405.275C 424.28 405.275 424.264 405.275 424.248 405.276C 424.168 405.279 424.089 405.284 424.009 405.284C 423.992 405.284 423.976 405.283 423.96 405.283C 423.942 405.283 423.925 405.284 423.907 405.284C 418.202 405.284 413.559 399.074 413.559 391.441C 413.559 390.457 413.639 389.479 413.79 388.525M409.962 388.654L409.968 388.653L409.968 388.653L414.369 388.112L414.369 388.112L414.352 388.343L414.352 388.343L414.363 388.344C 414.191 389.353 414.104 390.395 414.104 391.441C 414.104 392.29 414.147 393.089 414.227 393.843C 414.684 398.161 416.366 400.949 418.3 402.66C 419.724 403.919 421.283 404.595 422.591 404.867C 423.038 404.958 423.493 405.006 423.945 405.01C 424.712 405.006 425.48 404.874 426.234 404.613C 420.463 402.79 416.464 397.425 416.464 391.441C 416.464 390.504 416.564 389.57 416.752 388.658L416.752 388.658L416.749 388.657L416.749 388.657L416.82 388.321L416.82 388.321L421.015 389.553L421.015 389.553L418.717 384.866L418.717 384.866L418.718 384.866L418.718 384.866L417.581 382.549L417.581 382.549L415.698 384.057zM424.184 379.498C 422.739 380.28 421.44 381.319 420.361 382.544C 419.866 383.106 419.417 383.708 419.021 384.343L419.021 384.343L419.025 384.35L419.025 384.35L419.246 384.801L419.246 384.801L421.849 390.11L421.849 390.11L417.271 388.805C 417.1 389.67 417.009 390.554 417.009 391.441C 417.009 396.645 420.045 401.361 424.622 403.617C 427.792 401.216 429.758 396.673 429.758 391.713C 429.758 386.541 427.574 381.771 424.184 379.498M416.149 383.182L416.157 383.175L416.157 383.175L417.802 381.857L417.802 381.857L418.773 383.838C 420.513 381.203 423.133 379.244 426.233 378.268C 425.484 378.009 424.721 377.877 423.958 377.872C 423.174 377.877 422.273 378.019 421.518 378.283L421.518 378.283L421.518 378.283C 421.289 378.363 421.063 378.455 420.839 378.559C 419.004 379.405 417.366 381.001 416.149 383.182M433.812 391.441C 433.812 385.288 430.838 380.082 426.776 378.424C 426.013 378.649 425.274 378.942 424.566 379.297C 428.054 381.602 430.303 386.46 430.303 391.713C 430.303 394.297 429.77 396.771 428.812 398.898C 428.798 398.929 428.784 398.96 428.77 398.99C 428.732 399.074 428.693 399.158 428.653 399.241C 428.624 399.301 428.595 399.362 428.565 399.421C 428.539 399.474 428.512 399.527 428.485 399.579C 428.441 399.665 428.396 399.751 428.351 399.836C 428.337 399.862 428.323 399.888 428.309 399.913C 428.25 400.021 428.19 400.129 428.129 400.235C 428.127 400.238 428.126 400.24 428.125 400.242C 427.293 401.675 426.246 402.895 425.026 403.807C 425.027 403.807 425.027 403.807 425.027 403.808C 425.589 404.062 426.173 404.28 426.775 404.458C 430.838 402.8 433.812 397.594 433.812 391.441" stroke="none" fill="#FFFFFF" fill-rule="nonzero" /><path id="410" transform="matrix(1 0 0 -1 0 834)" d="M439.295 379.045C 439.295 363.122 457.143 350.214 479.16 350.214C 501.177 350.214 519.025 363.122 519.025 379.045C 519.025 394.968 501.177 407.875 479.16 407.875C 457.143 407.875 439.295 394.968 439.295 379.045" stroke="none" fill="#FFFFFF" fill-rule="nonzero" /></g><g clip-path="url(#21)"></g><g clip-path="url(#22)"><g transform="matrix(1.003317 0 0 1.000897 443.291 401.6021)"><g transform="matrix(1 0 0 1 0 0)"><image x="0" y="0" xlink:href="img_07.png" width="72" height="98" /></g></g></g><g clip-path="url(#23)"><path id="412" transform="matrix(1 0 0 -1 0 834)" d="M439.2954 379.0442C 439.2954 363.1212 457.143 350.2141 479.1603 350.2141C 501.1786 350.2141 519.0263 363.1212 519.0263 379.0442C 519.0263 394.9672 501.1786 407.8763 479.1603 407.8763C 457.143 407.8763 439.2954 394.9672 439.2954 379.0442z" stroke="#000000" stroke-width="0.813447" fill="none" /></g><g clip-path="url(#24)"></g><g clip-path="url(#25)"><g transform="matrix(1.007045 0 0 1.008441 261.024 326.5714)"><g transform="matrix(1 0 0 1 0 0)"><image x="0" y="0" xlink:href="img_03.png" width="38" height="58" /></g></g></g><g clip-path="url(#26)"></g><g clip-path="url(#27)"><g transform="matrix(1.022789 0 0 0.9967948 312.301 354.8028)"><g transform="matrix(1 0 0 1 0 0)"><image x="0" y="0" xlink:href="img_04.png" width="27" height="38" /></g></g></g><g clip-path="url(#28)"></g><g clip-path="url(#29)"><g transform="matrix(-1.022789 0 0 0.9963621 459.62 355.8246)"><g transform="matrix(1 0 0 1 0 0)"><image x="0" y="0" xlink:href="img_08.png" width="27" height="37" /></g></g></g><g clip-path="url(#30)"></g><g clip-path="url(#31)"><g transform="matrix(1.002744 0 0 1.003701 330.168 556.54)"><g transform="matrix(1 0 0 1 0 0)"><image x="0" y="0" xlink:href="img_09.png" width="129" height="147" /></g></g></g><g clip-path="url(#32)"><path id="485" transform="matrix(1 0 0 -1 0 834)" d="M376.007 205.475C 374.851 204.394 373.838 202.922 373.029 201.163C 373.027 201.16 373.026 201.157 373.025 201.155C 372.966 201.026 372.908 200.896 372.851 200.765C 372.838 200.734 372.824 200.703 372.811 200.672C 372.768 200.569 372.724 200.466 372.682 200.361C 372.656 200.298 372.631 200.234 372.605 200.171C 372.577 200.098 372.549 200.025 372.521 199.952C 372.482 199.852 372.445 199.75 372.408 199.649C 372.395 199.612 372.381 199.575 372.368 199.538C 371.447 196.966 370.934 193.973 370.934 190.848C 370.934 184.495 373.097 178.619 376.45 175.832C 375.77 175.403 375.059 175.048 374.326 174.776C 370.42 176.781 367.56 183.078 367.56 190.519C 367.56 197.96 370.42 204.257 374.326 206.262C 374.906 206.047 375.466 205.783 376.007 205.475" stroke="none" fill="#060606" fill-rule="nonzero" /><path id="486" transform="matrix(1 0 0 -1 0 834)" d="M381.783 181.933C 381.403 181.166 380.971 180.438 380.495 179.757C 380.969 180.439 381.398 181.17 381.779 181.942" stroke="none" fill="#060606" fill-rule="nonzero" /><path id="487" transform="matrix(1 0 0 -1 0 834)" d="M380.034 174.938C 379.82 174.814 379.602 174.702 379.382 174.604L379.382 174.604L379.382 174.604C 378.656 174.285 377.789 174.114 377.036 174.107C 376.303 174.114 375.568 174.273 374.848 174.587C 377.829 175.767 380.349 178.136 382.021 181.322L382.021 181.322L382.955 178.927L382.955 178.927L384.537 180.521C 383.397 177.977 381.838 176.014 380.034 174.938" stroke="none" fill="#060606" fill-rule="nonzero" /><path id="488" transform="matrix(1 0 0 -1 0 834)" d="M384.978 181.588L383.168 179.764L383.168 179.764L382.074 182.566L382.074 182.566L382.075 182.566L382.075 182.566L379.865 188.235L379.865 188.235L383.898 186.744L383.898 186.744L383.968 187.15L383.968 187.15L383.964 187.152C 384.145 188.255 384.241 189.385 384.241 190.517C 384.241 197.755 380.396 204.243 374.847 206.448C 375.572 206.763 376.311 206.923 377.048 206.928C 377.483 206.923 377.921 206.866 378.35 206.755C 379.607 206.426 381.107 205.609 382.475 204.086C 384.506 201.6 385.952 197.805 386.393 193.422C 386.47 192.511 386.511 191.544 386.511 190.518C 386.511 189.252 386.427 187.992 386.262 186.772L386.262 186.772L386.272 186.771L386.272 186.771L386.255 186.491L386.255 186.491L390.487 187.145L390.487 187.145L384.981 181.597C 384.98 181.594 384.979 181.591 384.978 181.588" stroke="none" fill="#060606" fill-rule="nonzero" /><path id="489" transform="matrix(1 0 0 -1 0 834)" d="M367.692 196.489C 368.785 201.402 371.204 205.193 374.202 206.586C 371.21 205.116 368.797 201.344 367.692 196.489" stroke="none" fill="#060606" fill-rule="nonzero" /><path id="490" transform="matrix(1 0 0 -1 0 834)" d="M391.621 187.662L385.455 181.448C 384.073 177.979 381.943 175.403 379.555 174.329L379.555 174.329L379.556 174.327C 379.497 174.3 379.436 174.282 379.377 174.258C 378.631 173.947 377.863 173.775 377.084 173.775C 377.063 173.775 377.043 173.777 377.022 173.777C 377.01 173.777 376.998 173.775 376.987 173.775C 376.909 173.775 376.833 173.782 376.755 173.786C 376.74 173.786 376.725 173.786 376.709 173.788C 371.351 174.036 367.037 181.443 367.037 190.518C 367.037 192.62 367.269 194.633 367.691 196.488C 368.797 201.343 371.209 205.116 374.201 206.586C 375 206.978 375.841 207.207 376.709 207.248C 376.725 207.249 376.741 207.249 376.757 207.25C 376.834 207.253 376.91 207.26 376.987 207.26C 377.002 207.26 377.018 207.258 377.034 207.258C 377.05 207.258 377.067 207.26 377.084 207.26C 382.57 207.26 387.034 199.749 387.034 190.518C 387.034 189.328 386.957 188.144 386.812 186.992M390.493 187.146L390.487 187.146L390.487 187.146L386.255 186.491L386.255 186.491L386.272 186.772L386.272 186.772L386.261 186.773C 386.427 187.993 386.511 189.252 386.511 190.518C 386.511 191.544 386.469 192.511 386.392 193.422C 385.953 198.645 384.335 202.017 382.475 204.086C 381.107 205.609 379.607 206.426 378.35 206.755C 377.92 206.866 377.483 206.923 377.047 206.929C 376.31 206.923 375.571 206.763 374.846 206.448C 380.396 204.243 384.241 197.755 384.241 190.518C 384.241 189.385 384.145 188.255 383.963 187.152L383.963 187.152L383.967 187.15L383.967 187.15L383.898 186.745L383.898 186.745L379.865 188.235L379.865 188.235L382.074 182.566L382.074 182.566L382.074 182.566L382.074 182.566L383.167 179.764L383.167 179.764L384.977 181.588zM376.818 176.074C 378.207 177.02 379.456 178.276 380.493 179.757C 380.97 180.438 381.402 181.166 381.782 181.933L381.782 181.933L381.779 181.942L381.779 181.942L381.566 182.488L381.566 182.488L379.063 188.909L379.063 188.909L383.464 187.33C 383.629 188.377 383.717 189.446 383.717 190.518C 383.717 196.812 380.798 202.516 376.396 205.243C 373.348 202.339 371.458 196.845 371.458 190.847C 371.458 184.593 373.559 178.824 376.818 176.074M384.544 180.529L384.536 180.521L384.536 180.521L382.954 178.927L382.954 178.927L382.02 181.322C 380.348 178.136 377.829 175.767 374.847 174.587C 375.568 174.274 376.302 174.114 377.035 174.107C 377.789 174.114 378.655 174.285 379.381 174.605L379.381 174.605L379.381 174.604C 379.602 174.702 379.819 174.814 380.034 174.938C 381.799 175.962 383.374 177.892 384.544 180.529M367.561 190.518C 367.561 183.077 370.42 176.78 374.326 174.775C 375.06 175.047 375.77 175.402 376.45 175.831C 373.097 178.618 370.934 184.494 370.934 190.847C 370.934 193.972 371.447 196.965 372.368 199.537C 372.381 199.574 372.395 199.611 372.408 199.648C 372.445 199.75 372.482 199.85 372.521 199.951C 372.549 200.024 372.577 200.097 372.606 200.17C 372.631 200.233 372.656 200.297 372.682 200.36C 372.725 200.464 372.767 200.568 372.811 200.671C 372.825 200.702 372.838 200.733 372.852 200.764C 372.908 200.895 372.966 201.025 373.025 201.154C 373.027 201.156 373.028 201.159 373.029 201.162C 373.829 202.896 374.835 204.37 376.008 205.473C 376.008 205.474 376.007 205.474 376.007 205.474C 375.466 205.782 374.906 206.046 374.326 206.261C 370.42 204.256 367.561 197.959 367.561 190.518" stroke="none" fill="#FFFFFF" fill-rule="nonzero" /><path id="491" transform="matrix(1 0 0 -1 0 834)" d="M430.881 202.62C 431.988 201.539 432.958 200.068 433.733 198.308C 433.734 198.305 433.736 198.303 433.737 198.3C 433.793 198.171 433.848 198.041 433.903 197.91C 433.916 197.879 433.929 197.848 433.941 197.817C 433.983 197.714 434.025 197.611 434.065 197.506C 434.09 197.443 434.114 197.38 434.138 197.316C 434.166 197.243 434.193 197.17 434.22 197.097C 434.256 196.997 434.292 196.896 434.328 196.794C 434.34 196.757 434.354 196.72 434.366 196.683C 435.248 194.111 435.739 191.118 435.739 187.993C 435.739 181.64 433.668 175.764 430.456 172.977C 431.108 172.548 431.788 172.193 432.491 171.921C 436.231 173.926 438.97 180.223 438.97 187.664C 438.97 195.105 436.231 201.402 432.491 203.407C 431.936 203.192 431.398 202.928 430.881 202.62" stroke="none" fill="#060606" fill-rule="nonzero" /><path id="492" transform="matrix(1 0 0 -1 0 834)" d="M425.35 179.08C 425.714 178.313 426.127 177.585 426.584 176.904C 426.13 177.586 425.718 178.316 425.353 179.089" stroke="none" fill="#060606" fill-rule="nonzero" /><path id="493" transform="matrix(1 0 0 -1 0 834)" d="M427.024 172.085C 427.23 171.96 427.438 171.848 427.649 171.751L427.649 171.751L427.649 171.751C 428.344 171.432 429.174 171.261 429.896 171.254C 430.598 171.261 431.301 171.42 431.991 171.734C 429.136 172.914 426.723 175.283 425.121 178.469L425.121 178.469L424.227 176.074L424.227 176.074L422.712 177.668C 423.803 175.124 425.297 173.161 427.024 172.085" stroke="none" fill="#060606" fill-rule="nonzero" /><path id="494" transform="matrix(1 0 0 -1 0 834)" d="M422.289 178.735L424.023 176.911L424.023 176.911L425.07 179.713L425.07 179.713L425.07 179.713L425.07 179.713L427.186 185.382L427.186 185.382L423.323 183.891L423.323 183.891L423.257 184.297L423.257 184.297L423.261 184.298C 423.087 185.401 422.995 186.532 422.995 187.664C 422.995 194.902 426.677 201.389 431.992 203.595C 431.298 203.91 430.59 204.07 429.884 204.075C 429.467 204.07 429.048 204.012 428.637 203.902C 427.433 203.573 425.996 202.755 424.686 201.232C 422.741 198.747 421.356 194.952 420.934 190.569C 420.861 189.658 420.821 188.691 420.821 187.664C 420.821 186.399 420.902 185.139 421.06 183.919L421.06 183.919L421.05 183.918L421.05 183.918L421.066 183.638L421.066 183.638L417.013 184.292L417.013 184.292L422.286 178.744C 422.287 178.741 422.288 178.738 422.289 178.735" stroke="none" fill="#060606" fill-rule="nonzero" /><path id="495" transform="matrix(1 0 0 -1 0 834)" d="M438.843 193.634C 437.796 198.546 435.479 202.338 432.609 203.732C 435.474 202.262 437.785 198.489 438.843 193.634" stroke="none" fill="#060606" fill-rule="nonzero" /><path id="496" transform="matrix(1 0 0 -1 0 834)" d="M415.926 184.809L421.832 178.594C 423.155 175.126 425.195 172.55 427.483 171.475L427.483 171.475L427.482 171.473C 427.538 171.447 427.596 171.429 427.653 171.405C 428.368 171.094 429.104 170.922 429.849 170.922C 429.869 170.922 429.889 170.924 429.909 170.924C 429.92 170.924 429.931 170.922 429.942 170.922C 430.016 170.922 430.089 170.929 430.164 170.932C 430.179 170.933 430.193 170.933 430.208 170.934C 435.34 171.183 439.471 178.589 439.471 187.664C 439.471 189.767 439.249 191.78 438.845 193.635C 437.786 198.489 435.475 202.263 432.61 203.732C 431.845 204.125 431.04 204.354 430.209 204.395C 430.193 204.396 430.178 204.396 430.163 204.397C 430.089 204.4 430.016 204.407 429.942 204.407C 429.927 204.407 429.913 204.405 429.897 204.405C 429.881 204.405 429.865 204.407 429.849 204.407C 424.595 204.407 420.32 196.896 420.32 187.664C 420.32 186.475 420.393 185.291 420.532 184.139M417.007 184.293L417.013 184.293L417.013 184.293L421.066 183.638L421.066 183.638L421.05 183.919L421.05 183.919L421.06 183.919C 420.902 185.139 420.821 186.399 420.821 187.664C 420.821 188.691 420.861 189.658 420.934 190.569C 421.355 195.791 422.905 199.164 424.686 201.232C 425.997 202.755 427.433 203.573 428.637 203.902C 429.048 204.013 429.468 204.07 429.884 204.075C 430.59 204.07 431.298 203.91 431.992 203.595C 426.677 201.389 422.995 194.902 422.995 187.664C 422.995 186.532 423.087 185.402 423.261 184.299L423.261 184.299L423.257 184.297L423.257 184.297L423.323 183.891L423.323 183.891L427.186 185.382L427.186 185.382L425.07 179.713L425.07 179.713L425.07 179.713L425.07 179.713L424.023 176.911L424.023 176.911L422.289 178.735zM430.104 173.221C 428.773 174.167 427.577 175.423 426.584 176.904C 426.128 177.585 425.714 178.313 425.35 179.08L425.35 179.08L425.353 179.089L425.353 179.089L425.557 179.634L425.557 179.634L427.954 186.055L427.954 186.055L423.738 184.477C 423.58 185.523 423.496 186.593 423.496 187.664C 423.496 193.959 426.293 199.663 430.507 202.39C 433.427 199.486 435.238 193.992 435.238 187.994C 435.238 181.739 433.225 175.971 430.104 173.221M422.705 177.676L422.713 177.668L422.713 177.668L424.227 176.074L424.227 176.074L425.122 178.469C 426.723 175.283 429.136 172.914 431.991 171.734C 431.301 171.421 430.598 171.261 429.896 171.254C 429.174 171.261 428.344 171.432 427.649 171.751L427.649 171.751L427.649 171.751C 427.438 171.848 427.23 171.961 427.024 172.085C 425.334 173.108 423.825 175.039 422.705 177.676M438.97 187.664C 438.97 180.223 436.231 173.927 432.491 171.922C 431.788 172.194 431.107 172.549 430.456 172.978C 433.667 175.765 435.739 181.641 435.739 187.994C 435.739 191.119 435.248 194.112 434.366 196.684C 434.353 196.721 434.34 196.758 434.327 196.795C 434.292 196.896 434.256 196.997 434.219 197.098C 434.193 197.171 434.166 197.244 434.138 197.316C 434.114 197.38 434.089 197.444 434.065 197.507C 434.024 197.611 433.983 197.715 433.941 197.818C 433.929 197.848 433.916 197.88 433.903 197.911C 433.848 198.042 433.793 198.172 433.736 198.3C 433.735 198.303 433.734 198.306 433.733 198.309C 432.967 200.042 432.003 201.517 430.879 202.62C 430.88 202.62 430.88 202.621 430.881 202.621C 431.398 202.929 431.935 203.193 432.49 203.407C 436.231 201.402 438.97 195.106 438.97 187.664" stroke="none" fill="#FFFFFF" fill-rule="nonzero" /><path id="497" transform="matrix(1 0 0 -1 0 834)" d="M442.19 159.769C 442.19 143.437 457.3 130.198 475.94 130.198C 494.58 130.198 509.69 143.437 509.69 159.769C 509.69 176.1 494.58 189.34 475.94 189.34C 457.3 189.34 442.19 176.1 442.19 159.769" stroke="none" fill="#FFFFFF" fill-rule="nonzero" /></g><g clip-path="url(#33)"></g><g clip-path="url(#34)"><g transform="matrix(1.002712 0 0 1.003832 446.292 606.6403)"><g transform="matrix(1 0 0 1 0 0)"><image x="0" y="0" xlink:href="img_10.png" width="68" height="97" /></g></g></g><g clip-path="url(#35)"><path id="499" transform="matrix(1 0 0 -1 0 834)" d="M442.1899 159.7684C 442.1899 143.4367 457.3005 130.198 475.9398 130.198C 494.5789 130.198 509.6895 143.4367 509.6895 159.7684C 509.6895 176.1002 494.5789 189.3399 475.9398 189.3399C 457.3005 189.3399 442.1899 176.1002 442.1899 159.7684z" stroke="#000000" stroke-width="0.7903995" fill="none" /><path id="500" transform="matrix(1 0 0 -1 0 834)" d="M454.6787 201.2332C 454.6787 201.2332 454.7831 209.7376 447.8283 214.8582" stroke="#000000" stroke-width="0.7903995" fill="none" /><path id="501" transform="matrix(1 0 0 -1 0 834)" d="M456.9541 203.1143C 456.9541 203.1143 457.0595 211.6188 450.1047 216.7394" stroke="#000000" stroke-width="0.7903995" fill="none" /><path id="502" transform="matrix(1 0 0 -1 0 834)" d="M387.0193 208.0447C 387.0193 208.0447 387.0545 213.8116 391.6214 217.7312" stroke="#000000" stroke-width="0.7903995" fill="none" /><path id="503" transform="matrix(1 0 0 -1 0 834)" d="M384.8775 209.1999C 384.8775 209.1999 384.9116 214.9678 389.4795 218.8864" stroke="#000000" stroke-width="0.7903995" fill="none" /></g><g clip-path="url(#36)"></g><g clip-path="url(#37)"><g transform="matrix(1.007045 0 0 1.008441 261.024 546.5404)"><g transform="matrix(1 0 0 1 0 0)"><image x="0" y="0" xlink:href="img_03.png" width="38" height="58" /></g></g></g><g clip-path="url(#38)"></g><g clip-path="url(#39)"><g transform="matrix(1.022789 0 0 0.9967948 338.607 574.7718)"><g transform="matrix(1 0 0 1 0 0)"><image x="0" y="0" xlink:href="img_05.png" width="27" height="38" /></g></g></g><g clip-path="url(#40)"></g><g clip-path="url(#41)"><g transform="matrix(-1.022789 0 0 0.9967948 480.913 574.7718)"><g transform="matrix(1 0 0 1 0 0)"><image x="0" y="0" xlink:href="img_05.png" width="27" height="38" /></g></g></g><path id="1198" transform="matrix(1 0 0 -1 0 834)" d="M633 15L633 0M633 819L633 834M21 15L21 0M21 819L21 834M639 21L654 21M15 21L0 21M639 813L654 813M15 813L0 813" stroke="#000000" stroke-width="1.25" fill="none" /><path id="1199" transform="matrix(1 0 0 -1 0 834)" d="M633 15L633 0M633 819L633 834M21 15L21 0M21 819L21 834M639 21L654 21M15 21L0 21M639 813L654 813M15 813L0 813" stroke="#000000" stroke-width="0.25" fill="none" /><path id="1200" transform="matrix(1 0 0 -1 0 834)" d="M32.2781 9.28203C 32.2781 9.516021 32.2961 9.58203 32.3559 9.62383C 32.416 9.66602 32.5719 9.69609 32.8238 9.69609C 33.2262 9.69609 33.5738 9.62383 33.8441 9.45C 34.3238 9.167971 34.552 8.63398 34.552 8.016021C 34.552 7.05586 34.0359 6.21602 32.9141 6.21602C 32.4762 6.21602 32.2781 6.33008 32.2781 6.78594zM31.252 9.900001L31.252 9.726171C 31.7141 9.68984 31.7621 9.66602 31.7621 9.150001L31.7621 9.150001L31.7621 6.74414C 31.7621 6.23398 31.7141 6.19805 31.198 6.16211L31.198 6.16211L31.198 6L31.198 6L32.6199 6C 33.3578 6 33.952 6.15 34.402 6.49805C 34.8641 6.84609 35.1398 7.38008 35.1398 8.1C 35.1398 8.664061 34.9301 9.101951 34.6359 9.38984C 34.2641 9.74414 33.7 9.900001 32.9379 9.900001z" stroke="#000000" stroke-width="0.4" fill="none" /><path id="1201" transform="matrix(1 0 0 -1 0 834)" d="M38.3801 6.97813C 38.2898 6.70195 38.1758 6.51016 38.0738 6.38984C 37.9359 6.23398 37.732 6.20391 37.402 6.20391C 37.15 6.20391 36.9461 6.21602 36.8258 6.28203C 36.718 6.34219 36.6879 6.46211 36.6879 6.78594L36.6879 6.78594L36.6879 9.15586C 36.6879 9.66602 36.7418 9.69609 37.216 9.73203L37.216 9.73203L37.216 9.900001L37.216 9.900001L35.65 9.900001L35.65 9.900001L35.65 9.73203C 36.1359 9.69609 36.1777 9.66602 36.1777 9.15586L36.1777 9.15586L36.1777 6.75586C 36.1777 6.24609 36.1301 6.20391 35.6258 6.16797L35.6258 6.16797L35.6258 6L35.6258 6L38.3438 6C 38.398 6.18594 38.5238 6.75586 38.5598 6.94219z" stroke="#000000" stroke-width="0.4" fill="none" /><path id="1202" transform="matrix(1 0 0 -1 0 834)" d="M41.0918 9.023829C 41.0438 9.40195 41.0141 9.63594 40.9898 9.851951C 40.7617 9.92383 40.5098 9.989841 40.234 9.989841C 39.4598 9.989841 38.998 9.49805 38.998 8.921881C 38.998 8.24414 39.6039 7.94414 39.9879 7.73984C 40.4379 7.5 40.768 7.28984 40.768 6.84609C 40.768 6.40781 40.498 6.12617 40.048 6.12617C 39.4301 6.12617 39.1598 6.73203 39.0641 7.09805L39.0641 7.09805L38.8898 7.05586C 38.9258 6.767971 39.0039 6.25195 39.052 6.12617C 39.1059 6.09609 39.1961 6.05391 39.3461 6C 39.4961 5.95781 39.6879 5.91016 39.934 5.91016C 40.732 5.91016 41.266 6.41406 41.266 7.04414C 41.266 7.71602 40.6961 7.99805 40.2277 8.23789C 39.7539 8.48398 39.466 8.68789 39.466 9.12617C 39.466 9.45 39.6699 9.78594 40.132 9.78594C 40.6539 9.78594 40.8098 9.371881 40.918 8.98789z" stroke="#000000" stroke-width="0.4" fill="none" /><path id="1203" transform="matrix(1 0 0 -1 0 834)" d="M46.648 6L46.648 6.16797C 46.1258 6.21602 46.1078 6.24609 46.0898 6.88203L46.0898 6.88203L46.0301 9.05391C 46.0117 9.671881 46.0539 9.68398 46.582 9.73203L46.582 9.73203L46.582 9.900001L46.582 9.900001L45.5617 9.900001L45.5617 9.900001L44.1758 6.9L44.1758 6.9L42.8078 9.900001L42.8078 9.900001L41.8238 9.900001L41.8238 9.900001L41.8238 9.73203C 42.3699 9.67813 42.4 9.653911 42.3461 8.87383L42.3461 8.87383L42.2617 7.626171C 42.2141 7.00195 42.1777 6.73789 42.148 6.528131C 42.1059 6.27617 41.9859 6.21016 41.6379 6.16797L41.6379 6.16797L41.6379 6L41.6379 6L43.0359 6L43.0359 6L43.0359 6.16797C 42.6398 6.21016 42.4961 6.25195 42.484 6.53984C 42.4777 6.78008 42.4777 7.04414 42.502 7.53594L42.502 7.53594L42.5918 9.24609L42.5918 9.24609L42.6039 9.24609L42.6039 9.24609L43.948 6.04219L43.948 6.04219L44.068 6.04219L44.068 6.04219L45.532 9.33008L45.532 9.33008L45.5559 9.33008L45.5559 9.33008L45.5738 6.88203C 45.5801 6.24609 45.5559 6.21602 45.0699 6.16797L45.0699 6.16797L45.0699 6z" stroke="#000000" stroke-width="0.4" fill="none" /><path id="1204" transform="matrix(1 0 0 -1 0 834)" d="M51.8738 7.05586C 51.5738 6.45586 51.2496 6.12617 50.6379 6.12617C 49.7258 6.12617 49.0656 6.89414 49.0656 8.016021C 49.0656 8.92813 49.5996 9.773829 50.602 9.773829C 51.2496 9.773829 51.6098 9.516021 51.7656 8.88008L51.7656 8.88008L51.9457 8.921881C 51.9098 9.24609 51.8738 9.48594 51.8258 9.828131C 51.6578 9.85781 51.2496 9.989841 50.7637 9.989841C 49.4258 9.989841 48.4539 9.15586 48.4539 7.89609C 48.4539 6.94219 49.1078 5.91016 50.602 5.91016C 51.034 5.91016 51.5379 6.03008 51.7059 6.07188C 51.8137 6.26992 51.9637 6.71406 52.0477 6.98984z" stroke="#000000" stroke-width="0.4" fill="none" /><path id="1205" transform="matrix(1 0 0 -1 0 834)" d="M54.3398 9.773829C 55.1258 9.773829 55.7855 9.101951 55.7855 7.83594C 55.7855 6.68398 55.1855 6.12617 54.5195 6.12617C 53.6738 6.12617 53.0559 6.94805 53.0559 8.076171C 53.0559 9.19805 53.6676 9.773829 54.3398 9.773829zM54.4598 9.989841C 53.1996 9.989841 52.4438 8.98789 52.4438 7.90781C 52.4438 6.75586 53.3078 5.91016 54.3938 5.91016C 55.4918 5.91016 56.3977 6.70195 56.3977 7.99805C 56.3977 9.19805 55.4797 9.989841 54.4598 9.989841z" stroke="#000000" stroke-width="0.4" fill="none" /><path id="1206" transform="matrix(1 0 0 -1 0 834)" d="M61.8277 6L61.8277 6.16797C 61.3059 6.21602 61.2879 6.24609 61.2695 6.88203L61.2695 6.88203L61.2098 9.05391C 61.1918 9.671881 61.2336 9.68398 61.7617 9.73203L61.7617 9.73203L61.7617 9.900001L61.7617 9.900001L60.7418 9.900001L60.7418 9.900001L59.3559 6.9L59.3559 6.9L57.9879 9.900001L57.9879 9.900001L57.0035 9.900001L57.0035 9.900001L57.0035 9.73203C 57.5496 9.67813 57.5797 9.653911 57.5258 8.87383L57.5258 8.87383L57.4418 7.626171C 57.3938 7.00195 57.3578 6.73789 57.3277 6.528131C 57.2855 6.27617 57.1656 6.21016 56.8176 6.16797L56.8176 6.16797L56.8176 6L56.8176 6L58.2156 6L58.2156 6L58.2156 6.16797C 57.8195 6.21016 57.6758 6.25195 57.6637 6.53984C 57.6578 6.78008 57.6578 7.04414 57.6816 7.53594L57.6816 7.53594L57.7719 9.24609L57.7719 9.24609L57.7836 9.24609L57.7836 9.24609L59.1277 6.04219L59.1277 6.04219L59.2477 6.04219L59.2477 6.04219L60.7117 9.33008L60.7117 9.33008L60.7355 9.33008L60.7355 9.33008L60.7535 6.88203C 60.7598 6.24609 60.7355 6.21602 60.2496 6.16797L60.2496 6.16797L60.2496 6z" stroke="#000000" stroke-width="0.4" fill="none" /><path id="1207" transform="matrix(1 0 0 -1 0 834)" d="M63.8258 6L63.8258 6.16797C 63.3336 6.20391 63.2855 6.23398 63.2855 6.75L63.2855 6.75L63.2855 9.150001C 63.2855 9.66016 63.3336 9.69609 63.8258 9.73203L63.8258 9.73203L63.8258 9.900001L63.8258 9.900001L62.2355 9.900001L62.2355 9.900001L62.2355 9.73203C 62.7277 9.69609 62.7758 9.66016 62.7758 9.150001L62.7758 9.150001L62.7758 6.75C 62.7758 6.23984 62.7277 6.20391 62.2355 6.16797L62.2355 6.16797L62.2355 6z" stroke="#000000" stroke-width="0.4" fill="none" /><path id="1208" transform="matrix(1 0 0 -1 0 834)" d="M66.5074 9.023829C 66.4598 9.40195 66.4297 9.63594 66.4055 9.851951C 66.1777 9.92383 65.9258 9.989841 65.6496 9.989841C 64.8758 9.989841 64.4137 9.49805 64.4137 8.921881C 64.4137 8.24414 65.0195 7.94414 65.4035 7.73984C 65.8535 7.5 66.1836 7.28984 66.1836 6.84609C 66.1836 6.40781 65.9137 6.12617 65.46371 6.12617C 64.8457 6.12617 64.5758 6.73203 64.4797 7.09805L64.4797 7.09805L64.3055 7.05586C 64.3418 6.767971 64.4195 6.25195 64.46761 6.12617C 64.52151 6.09609 64.6117 6.05391 64.7617 6C 64.91171 5.95781 65.1035 5.91016 65.3496 5.91016C 66.1477 5.91016 66.6816 6.41406 66.6816 7.04414C 66.6816 7.71602 66.1117 7.99805 65.6438 8.23789C 65.1695 8.48398 64.8816 8.68789 64.8816 9.12617C 64.8816 9.45 65.0855 9.78594 65.5477 9.78594C 66.0695 9.78594 66.2258 9.371881 66.3336 8.98789z" stroke="#000000" stroke-width="0.4" fill="none" /><path id="1209" transform="matrix(1 0 0 -1 0 834)" d="M69.4055 7.68008L68.3016 7.68008C 68.4816 8.171881 68.6734 8.69414 68.8656 9.21016L68.8656 9.21016L68.8777 9.21016zM70.9355 6L70.9355 6.16797C 70.5457 6.20391 70.46761 6.25781 70.2758 6.77383C 69.89181 7.81797 69.4895 8.95781 69.11761 9.989841L69.11761 9.989841L68.9316 9.93594L68.9316 9.93594L67.68951 6.78594C 67.4797 6.25781 67.3957 6.22188 67.0176 6.16797L67.0176 6.16797L67.0176 6L67.0176 6L68.3195 6L68.3195 6L68.3195 6.16797C 67.8695 6.21016 67.81561 6.26992 67.9477 6.64805C 68.0258 6.9 68.1156 7.15195 68.2117 7.42188L68.2117 7.42188L69.4895 7.42188C 69.62151 7.05586 69.74181 6.73203 69.8195 6.49805C 69.8977 6.26406 69.8438 6.21602 69.4656 6.16797L69.4656 6.16797L69.4656 6z" stroke="#000000" stroke-width="0.4" fill="none" /><path id="1210" transform="matrix(1 0 0 -1 0 834)" d="M71.7273 5.92813C 71.9195 5.92813 72.06371 6.06602 72.06371 6.27617C 72.06371 6.46797 71.9195 6.61797 71.7273 6.61797C 71.5355 6.61797 71.3914 6.46797 71.3914 6.27617C 71.3914 6.06602 71.5355 5.92813 71.7273 5.92813z" stroke="#000000" stroke-width="0.4" fill="none" /><path id="1211" transform="matrix(1 0 0 -1 0 834)" d="M73.9234 6L73.9234 6.15586C 73.53951 6.19219 73.4977 6.22813 73.4977 6.63594L73.4977 6.63594L73.4977 8.70586C 73.2336 8.59805 72.9516 8.51992 72.6453 8.471881L72.6453 8.471881L72.6453 8.328131C 73.0055 8.26797 73.0234 8.24414 73.0234 7.871881L73.0234 7.871881L73.0234 6.63594C 73.0234 6.22813 72.9816 6.19219 72.6035 6.15586L72.6035 6.15586L72.6035 6zM73.2215 9.216021C 73.3953 9.216021 73.52731 9.36016 73.52731 9.52188C 73.52731 9.70195 73.3953 9.83398 73.2273 9.83398C 73.06561 9.83398 72.9215 9.70195 72.9215 9.52188C 72.9215 9.36016 73.06561 9.216021 73.2215 9.216021z" stroke="#000000" stroke-width="0.4" fill="none" /><path id="1212" transform="matrix(1 0 0 -1 0 834)" d="M77.1574 6L77.1574 6.15586C 76.8094 6.19219 76.7793 6.21602 76.7793 6.62383L76.7793 6.62383L76.7793 7.78203C 76.7793 8.36406 76.4793 8.69414 76.0055 8.69414C 75.8313 8.69414 75.67541 8.621881 75.5074 8.51406C 75.3574 8.41211 75.2254 8.32188 75.1055 8.23203L75.1055 8.23203L75.1055 8.712111C 74.8414 8.59219 74.5594 8.51992 74.27151 8.466021L74.27151 8.466021L74.27151 8.328131C 74.5953 8.26797 74.6313 8.25 74.6313 7.86602L74.6313 7.86602L74.6313 6.62383C 74.6313 6.22813 74.6016 6.19805 74.19341 6.15586L74.19341 6.15586L74.19341 6L74.19341 6L75.4953 6L75.4953 6L75.4953 6.15586C 75.1414 6.19219 75.1055 6.21602 75.1055 6.62383L75.1055 6.62383L75.1055 8.03398C 75.2855 8.18984 75.5195 8.33984 75.7594 8.33984C 76.1613 8.33984 76.3055 8.069921 76.3055 7.65586L76.3055 7.65586L76.3055 6.65391C 76.3055 6.23984 76.2633 6.19219 75.9094 6.15586L75.9094 6.15586L75.9094 6z" stroke="#000000" stroke-width="0.4" fill="none" /><path id="1213" transform="matrix(1 0 0 -1 0 834)" d="M79.4734 6.51016C 79.32931 6.40195 79.1133 6.30586 78.8973 6.30586C 78.5133 6.30586 78.0754 6.65391 78.0754 7.36797C 78.0754 8.23789 78.57931 8.471881 78.8555 8.471881C 79.0832 8.471881 79.32931 8.37617 79.4734 8.16602zM80.4035 6.30586L80.2113 6.32383C 79.9895 6.34805 79.9473 6.37813 79.9473 6.68984L79.9473 6.68984L79.9473 10.2719C 79.7254 10.1941 79.3234 10.1039 79.0113 10.0621L79.0113 10.0621L79.0113 9.917971C 79.44341 9.88789 79.4734 9.869921 79.4734 9.47383L79.4734 9.47383L79.4734 8.628131C 79.3355 8.67617 79.1613 8.69414 79.0773 8.69414C 78.2613 8.69414 77.5293 8.03984 77.5293 7.20586C 77.5293 6.36602 78.1594 5.92813 78.6395 5.92813C 78.7113 5.92813 78.87341 5.96406 79.1074 6.10195L79.1074 6.10195L79.4734 6.31797L79.4734 6.31797L79.4734 5.92813C 79.8215 6.05391 80.27151 6.13203 80.4035 6.15586z" stroke="#000000" stroke-width="0.4" fill="none" /><path id="1214" transform="matrix(1 0 0 -1 0 834)" d="M81.3813 8.24414C 81.4895 8.310161 81.6813 8.35781 81.84921 8.35781C 82.34731 8.35781 82.7676 7.96211 82.7676 7.278131C 82.7676 6.58203 82.4492 6.15586 81.9516 6.15586C 81.6336 6.16211 81.4535 6.37188 81.4176 6.49219C 81.3934 6.54609 81.3813 6.60586 81.3813 6.69609zM81.3813 8.42383L81.3813 10.2719C 81.1594 10.1941 80.7934 10.098 80.5113 10.0621L80.5113 10.0621L80.5113 9.92383C 80.8953 9.88789 80.9074 9.851951 80.9074 9.48008L80.9074 9.48008L80.9074 6.14414C 81.2375 5.98789 81.5434 5.92813 81.78951 5.92813C 82.59341 5.92813 83.2953 6.55195 83.2953 7.43398C 83.2953 8.14219 82.7555 8.69414 82.1133 8.69414C 82.0473 8.69414 81.9633 8.67617 81.86761 8.63398z" stroke="#000000" stroke-width="0.4" fill="none" /><path id="1215" transform="matrix(1 0 0 -1 0 834)" d="M89.90701 6L89.90701 6.16211C 89.3613 6.20391 89.3254 6.25195 89.3254 6.68398L89.3254 6.68398L89.3254 9.810161C 88.9953 9.67813 88.641 9.56406 88.257 9.49805L88.257 9.49805L88.257 9.36016L88.257 9.36016L88.5453 9.34805C 88.8094 9.33594 88.8332 9.305861 88.8332 8.99414L88.8332 8.99414L88.8332 6.68398C 88.8332 6.25195 88.8031 6.20391 88.257 6.16211L88.257 6.16211L88.257 6z" stroke="#000000" stroke-width="0.4" fill="none" /><path id="1216" transform="matrix(1 0 0 -1 0 834)" d="M92.9551 6.83984C 92.77541 6.46211 92.6973 6.43789 92.373 6.43789L92.373 6.43789L91.25121 6.43789L91.25121 6.43789L92.1031 7.33203C 92.65511 7.91992 92.8953 8.273829 92.8953 8.79609C 92.8953 9.42617 92.4152 9.810161 91.8871 9.810161C 91.5391 9.810161 91.257 9.653911 91.0773 9.45586L91.0773 9.45586L90.7352 8.96992L90.7352 8.96992L90.8672 8.85C 91.023 9.08398 91.27541 9.40781 91.6832 9.40781C 92.1273 9.40781 92.391 9.11406 92.391 8.61016C 92.391 8.09414 92.0133 7.60195 91.641 7.15781C 91.341 6.81016 91.0051 6.46797 90.6691 6.13789L90.6691 6.13789L90.6691 6L90.6691 6L92.9133 6C 92.9852 6.26992 93.0453 6.53398 93.123 6.78594z" stroke="#000000" stroke-width="0.4" fill="none" /><path id="1217" transform="matrix(1 0 0 -1 0 834)" d="M94.7371 9.61211C 95.3191 9.61211 95.4754 8.86797 95.4754 8.33984C 95.4754 8.21992 95.4691 8.076171 95.4512 7.94414C 95.3254 7.84805 95.1211 7.77617 94.9113 7.77617C 94.40701 7.77617 94.107 8.214061 94.107 8.74219C 94.107 9.09609 94.27541 9.61211 94.7371 9.61211zM94.8152 9.810161C 94.041 9.810161 93.591 9.10781 93.591 8.53203C 93.591 7.90195 94.0293 7.43398 94.6652 7.43398C 94.7793 7.43398 94.8934 7.45781 95.02541 7.53008L95.02541 7.53008L95.4273 7.74609C 95.2293 6.83398 94.5754 6.23398 93.7172 6.08984L93.7172 6.08984L93.74731 5.91016C 93.8973 5.91016 94.2633 5.96992 94.5871 6.10195C 95.3973 6.42617 96.00311 7.20586 96.00311 8.310161C 96.00311 9.12617 95.5652 9.810161 94.8152 9.810161z" stroke="#000000" stroke-width="0.4" fill="none" /><path id="1236" transform="matrix(1 0 0 -1 0 834)" d="M554.472 6.83984C 554.292 6.46211 554.2141 6.43789 553.89 6.43789L553.89 6.43789L552.768 6.43789L552.768 6.43789L553.6201 7.33203C 554.1721 7.91992 554.412 8.273829 554.412 8.79609C 554.412 9.42617 553.932 9.810161 553.404 9.810161C 553.056 9.810161 552.774 9.653911 552.594 9.45586L552.594 9.45586L552.252 8.96992L552.252 8.96992L552.384 8.85C 552.54 9.08398 552.792 9.40781 553.2 9.40781C 553.644 9.40781 553.908 9.11406 553.908 8.61016C 553.908 8.09414 553.53 7.60195 553.158 7.15781C 552.858 6.81016 552.522 6.46797 552.186 6.13789L552.186 6.13789L552.186 6L552.186 6L554.43 6C 554.502 6.26992 554.562 6.53398 554.64 6.78594z" stroke="#000000" stroke-width="0.4" fill="none" /><path id="1237" transform="matrix(1 0 0 -1 0 834)" d="M555.792 9.3L557.19 9.3L557.19 9.3L557.346 9.68984L557.346 9.68984L557.31 9.73789L557.31 9.73789L555.6 9.73789L555.6 9.73789L555.366 7.90781C 555.504 7.96211 555.732 8.028131 555.984 8.028131C 556.638 8.028131 556.962 7.65 556.962 7.121881C 556.962 6.67188 556.71 6.23398 556.2 6.23398C 555.834 6.23398 555.588 6.42617 555.462 6.53984C 555.402 6.58789 555.354 6.58203 555.3 6.53984C 555.234 6.48008 555.18 6.40195 555.174 6.34219C 555.162 6.26992 555.192 6.22188 555.27 6.13789C 555.36 6.05391 555.612 5.92813 555.888 5.92813C 556.206 5.93398 556.608 6.08984 556.932 6.35391C 557.298 6.65391 557.466 6.99609 557.466 7.35586C 557.466 7.84805 557.076 8.369921 556.308 8.369921C 556.146 8.369921 555.864 8.273829 555.636 8.18984z" stroke="#000000" stroke-width="0.4" fill="none" /><path id="1238" transform="matrix(1 0 0 -1 0 834)" d="M559.548 9.989841L559.212 9.989841L559.212 9.989841L557.91 5.73594L557.91 5.73594L558.246 5.73594z" stroke="#000000" stroke-width="0.4" fill="none" /><path id="1239" transform="matrix(1 0 0 -1 0 834)" d="M561.18 9.61211C 561.72 9.61211 561.8701 8.72383 561.8701 7.871881C 561.8701 7.03203 561.726 6.13203 561.186 6.13203C 560.664 6.13203 560.49 7.03789 560.49 7.87813C 560.49 8.712111 560.634 9.61211 561.18 9.61211zM561.186 9.810161C 560.286 9.810161 559.956 8.74219 559.956 7.86602C 559.956 6.91797 560.28 5.92813 561.186 5.92813C 562.086 5.92813 562.404 6.99609 562.404 7.871881C 562.404 8.79609 562.086 9.810161 561.186 9.810161z" stroke="#000000" stroke-width="0.4" fill="none" /><path id="1240" transform="matrix(1 0 0 -1 0 834)" d="M564 9.61211C 564.582 9.61211 564.738 8.86797 564.738 8.33984C 564.738 8.21992 564.732 8.076171 564.7141 7.94414C 564.588 7.84805 564.384 7.77617 564.174 7.77617C 563.67 7.77617 563.3701 8.214061 563.3701 8.74219C 563.3701 9.09609 563.538 9.61211 564 9.61211zM564.078 9.810161C 563.304 9.810161 562.854 9.10781 562.854 8.53203C 562.854 7.90195 563.292 7.43398 563.928 7.43398C 564.042 7.43398 564.156 7.45781 564.288 7.53008L564.288 7.53008L564.69 7.74609C 564.492 6.83398 563.838 6.23398 562.98 6.08984L562.98 6.08984L563.01 5.91016C 563.16 5.91016 563.526 5.96992 563.85 6.10195C 564.66 6.42617 565.2661 7.20586 565.2661 8.310161C 565.2661 9.12617 564.828 9.810161 564.078 9.810161z" stroke="#000000" stroke-width="0.4" fill="none" /><path id="1241" transform="matrix(1 0 0 -1 0 834)" d="M567.294 9.989841L566.958 9.989841L566.958 9.989841L565.656 5.73594L565.656 5.73594L565.992 5.73594z" stroke="#000000" stroke-width="0.4" fill="none" /><path id="1242" transform="matrix(1 0 0 -1 0 834)" d="M569.9641 6.83984C 569.784 6.46211 569.706 6.43789 569.382 6.43789L569.382 6.43789L568.26 6.43789L568.26 6.43789L569.112 7.33203C 569.664 7.91992 569.904 8.273829 569.904 8.79609C 569.904 9.42617 569.424 9.810161 568.896 9.810161C 568.548 9.810161 568.2661 9.653911 568.086 9.45586L568.086 9.45586L567.744 8.96992L567.744 8.96992L567.876 8.85C 568.032 9.08398 568.284 9.40781 568.692 9.40781C 569.136 9.40781 569.4 9.11406 569.4 8.61016C 569.4 8.09414 569.022 7.60195 568.65 7.15781C 568.35 6.81016 568.014 6.46797 567.678 6.13789L567.678 6.13789L567.678 6L567.678 6L569.9221 6C 569.994 6.26992 570.054 6.53398 570.132 6.78594z" stroke="#000000" stroke-width="0.4" fill="none" /><path id="1243" transform="matrix(1 0 0 -1 0 834)" d="M571.806 9.61211C 572.346 9.61211 572.496 8.72383 572.496 7.871881C 572.496 7.03203 572.352 6.13203 571.812 6.13203C 571.29 6.13203 571.116 7.03789 571.116 7.87813C 571.116 8.712111 571.26 9.61211 571.806 9.61211zM571.812 9.810161C 570.912 9.810161 570.582 8.74219 570.582 7.86602C 570.582 6.91797 570.906 5.92813 571.812 5.92813C 572.712 5.92813 573.03 6.99609 573.03 7.871881C 573.03 8.79609 572.712 9.810161 571.812 9.810161z" stroke="#000000" stroke-width="0.4" fill="none" /><path id="1244" transform="matrix(1 0 0 -1 0 834)" d="M575.556 6L575.556 6.16211C 575.01 6.20391 574.9741 6.25195 574.9741 6.68398L574.9741 6.68398L574.9741 9.810161C 574.644 9.67813 574.29 9.56406 573.906 9.49805L573.906 9.49805L573.906 9.36016L573.906 9.36016L574.194 9.34805C 574.458 9.33594 574.482 9.305861 574.482 8.99414L574.482 8.99414L574.482 6.68398C 574.482 6.25195 574.452 6.20391 573.906 6.16211L573.906 6.16211L573.906 6z" stroke="#000000" stroke-width="0.4" fill="none" /><path id="1245" transform="matrix(1 0 0 -1 0 834)" d="M578.814 9.73789L576.522 9.73789C 576.498 9.48008 576.468 9.180079 576.414 8.85L576.414 8.85L576.588 8.85C 576.732 9.24609 576.768 9.3 577.164 9.3L577.164 9.3L578.46 9.3C 577.986 8.25586 577.308 7.01406 576.678 5.99414L576.678 5.99414L576.72 5.92813L576.72 5.92813L577.164 5.98789C 577.74 7.22383 578.298 8.44805 578.862 9.66602z" stroke="#000000" stroke-width="0.4" fill="none" /><path id="1246" transform="matrix(1 0 0 -1 0 834)" d="M584.531 9.61211C 585.071 9.61211 585.221 8.72383 585.221 7.871881C 585.221 7.03203 585.077 6.13203 584.537 6.13203C 584.015 6.13203 583.841 7.03789 583.841 7.87813C 583.841 8.712111 583.985 9.61211 584.531 9.61211zM584.537 9.810161C 583.637 9.810161 583.307 8.74219 583.307 7.86602C 583.307 6.91797 583.631 5.92813 584.537 5.92813C 585.437 5.92813 585.755 6.99609 585.755 7.871881C 585.755 8.79609 585.437 9.810161 584.537 9.810161z" stroke="#000000" stroke-width="0.4" fill="none" /><path id="1247" transform="matrix(1 0 0 -1 0 834)" d="M588.449 6.83984C 588.269 6.46211 588.191 6.43789 587.867 6.43789L587.867 6.43789L586.7451 6.43789L586.7451 6.43789L587.597 7.33203C 588.149 7.91992 588.389 8.273829 588.389 8.79609C 588.389 9.42617 587.909 9.810161 587.381 9.810161C 587.033 9.810161 586.751 9.653911 586.571 9.45586L586.571 9.45586L586.229 8.96992L586.229 8.96992L586.361 8.85C 586.517 9.08398 586.769 9.40781 587.177 9.40781C 587.621 9.40781 587.885 9.11406 587.885 8.61016C 587.885 8.09414 587.507 7.60195 587.135 7.15781C 586.835 6.81016 586.499 6.46797 586.163 6.13789L586.163 6.13789L586.163 6L586.163 6L588.407 6C 588.479 6.26992 588.539 6.53398 588.617 6.78594z" stroke="#000000" stroke-width="0.4" fill="none" /><path id="1248" transform="matrix(1 0 0 -1 0 834)" d="M589.5471 5.92813C 589.739 5.92813 589.883 6.06602 589.883 6.27617C 589.883 6.46797 589.739 6.61797 589.5471 6.61797C 589.355 6.61797 589.211 6.46797 589.211 6.27617C 589.211 6.06602 589.355 5.92813 589.5471 5.92813zM589.541 8.466021C 589.3491 8.466021 589.211 8.328131 589.211 8.13008C 589.211 7.92617 589.3491 7.78203 589.541 7.78203C 589.733 7.78203 589.877 7.92617 589.877 8.13008C 589.877 8.328131 589.733 8.466021 589.541 8.466021z" stroke="#000000" stroke-width="0.4" fill="none" /><path id="1249" transform="matrix(1 0 0 -1 0 834)" d="M592.697 6.83984C 592.517 6.46211 592.439 6.43789 592.115 6.43789L592.115 6.43789L590.993 6.43789L590.993 6.43789L591.845 7.33203C 592.397 7.91992 592.637 8.273829 592.637 8.79609C 592.637 9.42617 592.157 9.810161 591.629 9.810161C 591.281 9.810161 590.999 9.653911 590.819 9.45586L590.819 9.45586L590.477 8.96992L590.477 8.96992L590.609 8.85C 590.765 9.08398 591.017 9.40781 591.425 9.40781C 591.869 9.40781 592.133 9.11406 592.133 8.61016C 592.133 8.09414 591.755 7.60195 591.383 7.15781C 591.083 6.81016 590.747 6.46797 590.411 6.13789L590.411 6.13789L590.411 6L590.411 6L592.655 6C 592.727 6.26992 592.787 6.53398 592.865 6.78594z" stroke="#000000" stroke-width="0.4" fill="none" /><path id="1250" transform="matrix(1 0 0 -1 0 834)" d="M594.785 7.35L593.603 7.35C 593.999 8.016021 594.389 8.58594 594.773 9.119921L594.773 9.119921L594.785 9.119921zM595.841 7.06797L595.841 7.35L595.841 7.35L595.265 7.35L595.265 7.35L595.265 9.79219L595.265 9.79219L595.025 9.79219C 594.407 8.976171 593.795 8.08789 593.225 7.23594L593.225 7.23594L593.225 7.06797L593.225 7.06797L594.785 7.06797L594.785 7.06797L594.785 6.63594C 594.785 6.23984 594.761 6.20391 594.239 6.16211L594.239 6.16211L594.239 6L594.239 6L595.775 6L595.775 6L595.775 6.16211C 595.289 6.20391 595.265 6.23398 595.265 6.63594L595.265 6.63594L595.265 7.06797z" stroke="#000000" stroke-width="0.4" fill="none" /><path id="1251" transform="matrix(1 0 0 -1 0 834)" d="M596.675 5.92813C 596.867 5.92813 597.011 6.06602 597.011 6.27617C 597.011 6.46797 596.867 6.61797 596.675 6.61797C 596.483 6.61797 596.3391 6.46797 596.3391 6.27617C 596.3391 6.06602 596.483 5.92813 596.675 5.92813zM596.669 8.466021C 596.477 8.466021 596.3391 8.328131 596.3391 8.13008C 596.3391 7.92617 596.477 7.78203 596.669 7.78203C 596.861 7.78203 597.005 7.92617 597.005 8.13008C 597.005 8.328131 596.861 8.466021 596.669 8.466021z" stroke="#000000" stroke-width="0.4" fill="none" /><path id="1252" transform="matrix(1 0 0 -1 0 834)" d="M598.265 9.3L599.663 9.3L599.663 9.3L599.819 9.68984L599.819 9.68984L599.783 9.73789L599.783 9.73789L598.073 9.73789L598.073 9.73789L597.8391 7.90781C 597.977 7.96211 598.205 8.028131 598.457 8.028131C 599.111 8.028131 599.435 7.65 599.435 7.121881C 599.435 6.67188 599.183 6.23398 598.673 6.23398C 598.307 6.23398 598.061 6.42617 597.935 6.53984C 597.875 6.58789 597.827 6.58203 597.773 6.53984C 597.707 6.48008 597.653 6.40195 597.647 6.34219C 597.635 6.26992 597.665 6.22188 597.743 6.13789C 597.833 6.05391 598.085 5.92813 598.361 5.92813C 598.679 5.93398 599.081 6.08984 599.405 6.35391C 599.771 6.65391 599.939 6.99609 599.939 7.35586C 599.939 7.84805 599.549 8.369921 598.781 8.369921C 598.619 8.369921 598.337 8.273829 598.109 8.18984z" stroke="#000000" stroke-width="0.4" fill="none" /><path id="1253" transform="matrix(1 0 0 -1 0 834)" d="M602.705 6.83984C 602.525 6.46211 602.447 6.43789 602.123 6.43789L602.123 6.43789L601.001 6.43789L601.001 6.43789L601.853 7.33203C 602.405 7.91992 602.645 8.273829 602.645 8.79609C 602.645 9.42617 602.165 9.810161 601.637 9.810161C 601.289 9.810161 601.007 9.653911 600.827 9.45586L600.827 9.45586L600.485 8.96992L600.485 8.96992L600.617 8.85C 600.773 9.08398 601.025 9.40781 601.433 9.40781C 601.877 9.40781 602.1411 9.11406 602.1411 8.61016C 602.1411 8.09414 601.763 7.60195 601.3911 7.15781C 601.091 6.81016 600.755 6.46797 600.419 6.13789L600.419 6.13789L600.419 6L600.419 6L602.663 6C 602.735 6.26992 602.795 6.53398 602.873 6.78594z" stroke="#000000" stroke-width="0.4" fill="none" /><path id="1254" transform="matrix(1 0 0 -1 0 834)" d="M605.489 8.08203C 605.651 8.20195 605.897 8.33398 606.0891 8.33398C 606.527 8.33398 606.893 7.97383 606.893 7.33203C 606.893 6.65391 606.557 6.22188 606.053 6.22188C 605.8491 6.22188 605.621 6.31797 605.489 6.45586zM605.489 8.28008L605.489 8.75391C 605.207 8.63984 604.871 8.53789 604.619 8.49609L604.619 8.49609L604.619 8.351951C 604.991 8.30391 605.015 8.29219 605.015 7.90195L605.015 7.90195L605.015 5.18984C 605.015 4.79414 604.961 4.75781 604.577 4.72188L604.577 4.72188L604.577 4.56016L604.577 4.56016L605.999 4.56016L605.999 4.56016L605.999 4.72188C 605.531 4.76406 605.489 4.79414 605.489 5.25L605.489 5.25L605.489 6.03594C 605.567 5.99414 605.729 5.93398 605.903 5.92813C 606.683 6.07188 607.397 6.65391 607.397 7.56016C 607.397 8.153911 607.001 8.69414 606.335 8.69414C 606.263 8.69414 606.149 8.664061 606.041 8.60391z" stroke="#000000" stroke-width="0.4" fill="none" /><path id="1255" transform="matrix(1 0 0 -1 0 834)" d="M608.303 5.92813C 608.4951 5.92813 608.639 6.06602 608.639 6.27617C 608.639 6.46797 608.4951 6.61797 608.303 6.61797C 608.111 6.61797 607.967 6.46797 607.967 6.27617C 607.967 6.06602 608.111 5.92813 608.303 5.92813z" stroke="#000000" stroke-width="0.4" fill="none" /><path id="1256" transform="matrix(1 0 0 -1 0 834)" d="M615.125 6L615.125 6.15586C 614.783 6.19219 614.735 6.21602 614.735 6.61797L614.735 6.61797L614.735 7.77617C 614.735 8.36406 614.441 8.69414 613.973 8.69414C 613.805 8.69414 613.649 8.621881 613.523 8.53789C 613.373 8.44805 613.199 8.33398 613.025 8.20195C 612.905 8.51406 612.647 8.69414 612.359 8.69414C 612.167 8.69414 612.023 8.628131 611.867 8.53203C 611.687 8.417971 611.555 8.310161 611.429 8.226171L611.429 8.226171L611.429 8.712111C 611.165 8.59219 610.859 8.51406 610.595 8.466021L610.595 8.466021L610.595 8.328131C 610.9431 8.273829 610.961 8.24414 610.961 7.86016L610.961 7.86016L610.961 6.61797C 610.961 6.22813 610.907 6.19219 610.511 6.15586L610.511 6.15586L610.511 6L610.511 6L611.777 6L611.777 6L611.777 6.15586C 611.483 6.19219 611.435 6.22813 611.435 6.61797L611.435 6.61797L611.435 8.028131C 611.615 8.17813 611.8491 8.33984 612.0891 8.33984C 612.455 8.33984 612.611 8.09414 612.611 7.65L612.611 7.65L612.611 6.61797C 612.611 6.22188 612.557 6.19219 612.185 6.15586L612.185 6.15586L612.185 6L612.185 6L613.469 6L613.469 6L613.469 6.15586C 613.139 6.19219 613.085 6.22813 613.085 6.60586L613.085 6.60586L613.085 7.77617C 613.085 7.88984 613.079 7.95586 613.067 8.028131C 613.295 8.21992 613.523 8.33984 613.739 8.33984C 614.117 8.33984 614.267 8.069921 614.267 7.64414L614.267 7.64414L614.267 6.64219C 614.267 6.21602 614.201 6.19219 613.847 6.15586L613.847 6.15586L613.847 6z" stroke="#000000" stroke-width="0.4" fill="none" /><path id="1257" transform="matrix(1 0 0 -1 0 834)" d="M615.947 5.92813C 616.139 5.92813 616.283 6.06602 616.283 6.27617C 616.283 6.46797 616.139 6.61797 615.947 6.61797C 615.755 6.61797 615.611 6.46797 615.611 6.27617C 615.611 6.06602 615.755 5.92813 615.947 5.92813z" stroke="#000000" stroke-width="0.4" fill="none" /></g></g></svg>