<svg xmlns="http://www.w3.org/2000/svg" xmlns:xlink="http://www.w3.org/1999/xlink" id="body_1" preserveAspectRatio="xMinYMin meet" viewBox="0 0 872 1112"><defs><clipPath id="1"><path id="" clip-rule="evenodd" transform="matrix(1 0 0 1 0 0)" d="M0 834L0 0L0 0L654 0L654 0L654 834L654 834L0 834z" /></clipPath><clipPath id="2"><path id="" clip-rule="evenodd" transform="matrix(1 0 0 1 0 0)" d="M21 813L633 813L633 813L633 21L633 21L21 21z" /></clipPath><clipPath id="3"><path id="" clip-rule="evenodd" transform="matrix(1 0 0 1 0 0)" d="M352.42 267.934L456.997 267.934L456.997 267.934L456.997 128.075L456.997 128.075L352.42 128.075z" /></clipPath><clipPath id="4"><path id="" clip-rule="evenodd" transform="matrix(1 0 0 1 0 0)" d="M352.42 267.934L456.997 267.934L456.997 267.934L456.997 128.075L456.997 128.075L352.42 128.075z" /></clipPath><clipPath id="5"><path id="" clip-rule="evenodd" transform="matrix(1 0 0 1 0 0)" d="M315.519 268.957L486.406 268.957L486.406 268.957L486.406 128.076L486.406 128.076L315.519 128.076z" /></clipPath><clipPath id="6"><path id="" clip-rule="evenodd" transform="matrix(1 0 0 1 0 0)" d="M318.996 230.889L318.996 252.832C 323.923 261.948 334.799 268.283 347.425 268.283L347.425 268.283L347.425 268.283C 364.679 268.283 378.667 256.4529 378.667 241.861L378.667 241.861L378.667 241.861C 378.667 227.269 364.679 215.439 347.425 215.439L347.425 215.439L347.425 215.439C 334.799 215.439 323.923 221.773 318.996 230.889" /></clipPath><clipPath id="7"><path id="" clip-rule="evenodd" transform="matrix(1 0 0 1 0 0)" d="M318.996 230.889L318.996 252.832C 323.923 261.948 334.799 268.283 347.425 268.283L347.425 268.283L347.425 268.283C 364.679 268.283 378.667 256.4529 378.667 241.861L378.667 241.861L378.667 241.861C 378.667 227.269 364.679 215.439 347.425 215.439L347.425 215.439L347.425 215.439C 334.799 215.439 323.923 221.773 318.996 230.889" /></clipPath><clipPath id="8"><path id="" clip-rule="evenodd" transform="matrix(1 0 0 1 0 0)" d="M315.519 268.957L486.406 268.957L486.406 268.957L486.406 128.076L486.406 128.076L315.519 128.076z" /></clipPath><clipPath id="9"><path id="" clip-rule="evenodd" transform="matrix(1 0 0 1 0 0)" d="M384.444 208.97L418.6639 208.97L418.6639 208.97L418.6639 180.102L418.6639 180.102L384.444 180.102z" /></clipPath><clipPath id="10"><path id="" clip-rule="evenodd" transform="matrix(1 0 0 1 0 0)" d="M384.444 208.97L418.664 208.97L418.664 208.97L418.664 180.102L418.664 180.102L384.444 180.102z" /></clipPath><clipPath id="11"><path id="" clip-rule="evenodd" transform="matrix(1 0 0 1 0 0)" d="M384.444 208.97L418.6639 208.97L418.6639 208.97L418.6639 180.102L418.6639 180.102L384.444 180.102z" /></clipPath><clipPath id="12"><path id="" clip-rule="evenodd" transform="matrix(1 0 0 1 0 0)" d="M315.519 268.957L486.406 268.957L486.406 268.957L486.406 128.076L486.406 128.076L315.519 128.076z" /></clipPath><clipPath id="13"><path id="" clip-rule="evenodd" transform="matrix(1 0 0 1 0 0)" d="M435.684 242.406C 435.684 256.451 446.89 267.838 460.713 267.838L460.713 267.838L460.713 267.838C 474.536 267.838 485.742 256.451 485.742 242.406L485.742 242.406L485.742 242.406C 485.742 228.3589 474.536 216.973 460.713 216.973L460.713 216.973L460.713 216.973C 446.89 216.973 435.684 228.3589 435.684 242.406" /></clipPath><clipPath id="14"><path id="" clip-rule="evenodd" transform="matrix(1 0 0 1 0 0)" d="M435.684 242.406C 435.684 256.451 446.89 267.838 460.713 267.838L460.713 267.838L460.713 267.838C 474.536 267.838 485.742 256.451 485.742 242.406L485.742 242.406L485.742 242.406C 485.742 228.3589 474.536 216.973 460.713 216.973L460.713 216.973L460.713 216.973C 446.89 216.973 435.684 228.3589 435.684 242.406" /></clipPath><clipPath id="15"><path id="" clip-rule="evenodd" transform="matrix(1 0 0 1 0 0)" d="M315.519 268.957L486.406 268.957L486.406 268.957L486.406 128.076L486.406 128.076L315.519 128.076z" /></clipPath><clipPath id="16"><path id="" clip-rule="evenodd" transform="matrix(1 0 0 1 0 0)" d="M466.827 251.441L471.1532 251.441L471.1532 251.441L471.1532 247.0461L471.1532 247.0461L466.827 247.0461z" /></clipPath><clipPath id="17"><path id="" clip-rule="evenodd" transform="matrix(1 0 0 1 0 0)" d="M466.827 251.441L471.153 251.441L471.153 251.441L471.153 247.046L471.153 247.046L466.827 247.046z" /></clipPath><clipPath id="18"><path id="" clip-rule="evenodd" transform="matrix(1 0 0 1 0 0)" d="M466.827 251.441L471.1532 251.441L471.1532 251.441L471.1532 247.0461L471.1532 247.0461L466.827 247.0461z" /></clipPath><clipPath id="19"><path id="" clip-rule="evenodd" transform="matrix(1 0 0 1 0 0)" d="M460.731 255.749L461.7994 255.749L461.7994 255.749L461.7994 250.2471L461.7994 250.2471L460.731 250.2471z" /></clipPath><clipPath id="20"><path id="" clip-rule="evenodd" transform="matrix(1 0 0 1 0 0)" d="M460.731 255.749L461.799 255.749L461.799 255.749L461.799 250.247L461.799 250.247L460.731 250.247z" /></clipPath><clipPath id="21"><path id="" clip-rule="evenodd" transform="matrix(1 0 0 1 0 0)" d="M460.731 255.749L461.799 255.749L461.799 255.749L461.799 250.2474L461.799 250.2474L460.731 250.2474z" /></clipPath><clipPath id="22"><path id="" clip-rule="evenodd" transform="matrix(1 0 0 1 0 0)" d="M450.789 253.667L454.3531 253.667L454.3531 253.667L454.3531 248.6841L454.3531 248.6841L450.789 248.6841z" /></clipPath><clipPath id="23"><path id="" clip-rule="evenodd" transform="matrix(1 0 0 1 0 0)" d="M450.789 253.667L454.353 253.667L454.353 253.667L454.353 248.684L454.353 248.684L450.789 248.684z" /></clipPath><clipPath id="24"><path id="" clip-rule="evenodd" transform="matrix(1 0 0 1 0 0)" d="M450.789 253.667L454.3531 253.667L454.3531 253.667L454.3531 248.6846L454.3531 248.6846L450.789 248.6846z" /></clipPath><clipPath id="25"><path id="" clip-rule="evenodd" transform="matrix(1 0 0 1 0 0)" d="M315.519 268.957L486.406 268.957L486.406 268.957L486.406 128.076L486.406 128.076L315.519 128.076z" /></clipPath><clipPath id="26"><path id="" clip-rule="evenodd" transform="matrix(1 0 0 1 0 0)" d="M261.396 169.4009L298.6339 169.4009L298.6339 169.4009L298.6339 112.4842L298.6339 112.4842L261.396 112.4842z" /></clipPath><clipPath id="27"><path id="" clip-rule="evenodd" transform="matrix(1 0 0 1 0 0)" d="M261.396 169.4009L298.6339 169.4009L298.6339 169.4009L298.6339 112.4842L298.6339 112.4842L261.396 112.4842z" /></clipPath><clipPath id="28"><path id="" clip-rule="evenodd" transform="matrix(1 0 0 1 0 0)" d="M334.796 176.801L360.3929 176.801L360.3929 176.801L360.3929 140.942L360.3929 140.942L334.796 140.942z" /></clipPath><clipPath id="29"><path id="" clip-rule="evenodd" transform="matrix(1 0 0 1 0 0)" d="M334.796 176.801L360.3929 176.801L360.3929 176.801L360.3929 140.942L360.3929 140.942L334.796 140.942z" /></clipPath><clipPath id="30"><path id="" clip-rule="evenodd" transform="matrix(1 0 0 1 0 0)" d="M461.334 176.801L486.9309 176.801L486.9309 176.801L486.9309 140.942L486.9309 140.942L461.334 140.942z" /></clipPath><clipPath id="31"><path id="" clip-rule="evenodd" transform="matrix(1 0 0 1 0 0)" d="M461.334 176.801L486.9309 176.801L486.9309 176.801L486.9309 140.942L486.9309 140.942L461.334 140.942z" /></clipPath><clipPath id="32"><path id="" clip-rule="evenodd" transform="matrix(1 0 0 1 0 0)" d="M348.479 376.531L348.9712 376.531L348.9712 376.531L348.9712 375.897L348.9712 375.897L348.479 375.897z" /></clipPath><clipPath id="33"><path id="" clip-rule="evenodd" transform="matrix(1 0 0 1 0 0)" d="M348.479 376.531L348.9712 376.531L348.9712 376.531L348.9712 375.897L348.9712 375.897L348.479 375.897z" /></clipPath><clipPath id="34"><path id="" clip-rule="evenodd" transform="matrix(1 0 0 1 0 0)" d="M289.956 488.82L369.7201 488.82L369.7201 488.82L369.7201 386.044L369.7201 386.044L289.956 386.044z" /></clipPath><clipPath id="35"><path id="" clip-rule="evenodd" transform="matrix(1 0 0 1 0 0)" d="M289.956 488.82L369.7201 488.82L369.7201 488.82L369.7201 386.044L369.7201 386.044L289.956 386.044z" /></clipPath><clipPath id="36"><path id="" clip-rule="evenodd" transform="matrix(1 0 0 1 0 0)" d="M428.335 489.204L517.853 489.204L517.853 489.204L517.853 386.429L517.853 386.429L428.335 386.429z" /></clipPath><clipPath id="37"><path id="" clip-rule="evenodd" transform="matrix(1 0 0 1 0 0)" d="M428.335 489.204L517.853 489.204L517.853 489.204L517.853 386.429L517.853 386.429L428.335 386.429z" /></clipPath><clipPath id="38"><path id="" clip-rule="evenodd" transform="matrix(1 0 0 1 0 0)" d="M260.705 490.006L557.775 490.006L557.775 490.006L557.775 375.897L557.775 375.897L260.705 375.897z" /></clipPath><clipPath id="39"><path id="" clip-rule="evenodd" transform="matrix(1 0 0 1 0 0)" d="M268.6 446.515C 266.928 448.202 265.498 450.139 264.37 452.263L264.37 452.263L264.37 452.263L264.37 452.263L264.37 475.469C 268.439 483.129 276.414 488.333 285.586 488.333L285.586 488.333L285.586 488.333C 298.892 488.333 309.678 477.379 309.678 463.866L309.678 463.866L309.678 463.866C 309.678 457.085 306.961 450.947 302.572 446.515L302.572 446.515L302.572 446.515z" /></clipPath><clipPath id="40"><path id="" clip-rule="evenodd" transform="matrix(1 0 0 1 0 0)" d="M268.6 446.515C 266.928 448.202 265.498 450.139 264.37 452.263L264.37 452.263L264.37 452.263L264.37 452.263L264.37 475.469C 268.439 483.129 276.414 488.333 285.586 488.333L285.586 488.333L285.586 488.333C 298.892 488.333 309.678 477.379 309.678 463.866L309.678 463.866L309.678 463.866C 309.678 457.085 306.961 450.947 302.572 446.515L302.572 446.515L302.572 446.515z" /></clipPath><clipPath id="41"><path id="" clip-rule="evenodd" transform="matrix(1 0 0 1 0 0)" d="M260.705 490.006L557.775 490.006L557.775 490.006L557.775 375.897L557.775 375.897L260.705 375.897z" /></clipPath><clipPath id="42"><path id="" clip-rule="evenodd" transform="matrix(1 0 0 1 0 0)" d="M381.482 440.484C 372.197 444.13 365.612 453.284 365.612 464L365.612 464L365.612 464C 365.612 477.92 376.724 489.205 390.432 489.205L390.432 489.205L390.432 489.205C 404.139 489.205 415.25 477.92 415.25 464L415.25 464L415.25 464C 415.25 453.284 408.666 444.13 399.38 440.484L399.38 440.484L399.38 440.484z" /></clipPath><clipPath id="43"><path id="" clip-rule="evenodd" transform="matrix(1 0 0 1 0 0)" d="M381.482 440.484C 372.197 444.13 365.612 453.284 365.612 464L365.612 464L365.612 464C 365.612 477.92 376.724 489.205 390.432 489.205L390.432 489.205L390.432 489.205C 404.139 489.205 415.25 477.92 415.25 464L415.25 464L415.25 464C 415.25 453.284 408.666 444.13 399.38 440.484L399.38 440.484L399.38 440.484z" /></clipPath><clipPath id="44"><path id="" clip-rule="evenodd" transform="matrix(1 0 0 1 0 0)" d="M260.705 490.006L557.775 490.006L557.775 490.006L557.775 375.897L557.775 375.897L260.705 375.897z" /></clipPath><clipPath id="45"><path id="" clip-rule="evenodd" transform="matrix(1 0 0 1 0 0)" d="M453.479 437.817L454.3552 437.817L454.3552 437.817L454.3552 423.7963L454.3552 423.7963L453.479 423.7963z" /></clipPath><clipPath id="46"><path id="" clip-rule="evenodd" transform="matrix(1 0 0 1 0 0)" d="M453.479 437.817L454.355 437.817L454.355 437.817L454.355 423.796L454.355 423.796L453.479 423.796z" /></clipPath><clipPath id="47"><path id="" clip-rule="evenodd" transform="matrix(1 0 0 1 0 0)" d="M453.479 437.817L454.3552 437.817L454.3552 437.817L454.3552 423.7967L454.3552 423.7967L453.479 423.7967z" /></clipPath><clipPath id="48"><path id="" clip-rule="evenodd" transform="matrix(1 0 0 1 0 0)" d="M260.705 490.006L557.775 490.006L557.775 490.006L557.775 375.897L557.775 375.897L260.705 375.897z" /></clipPath><clipPath id="49"><path id="" clip-rule="evenodd" transform="matrix(1 0 0 1 0 0)" d="M515.485 448.695C 511.633 452.996 509.286 458.712 509.286 464.984L509.286 464.984L509.286 464.984C 509.286 478.361 519.963 489.205 533.136 489.205L533.136 489.205L533.136 489.205C 546.308 489.205 556.987 478.361 556.987 464.984L556.987 464.984L556.987 464.984C 556.987 458.712 554.638 452.996 550.787 448.695L550.787 448.695L550.787 448.695z" /></clipPath><clipPath id="50"><path id="" clip-rule="evenodd" transform="matrix(1 0 0 1 0 0)" d="M515.485 448.695C 511.633 452.996 509.286 458.712 509.286 464.984L509.286 464.984L509.286 464.984C 509.286 478.361 519.963 489.205 533.136 489.205L533.136 489.205L533.136 489.205C 546.308 489.205 556.987 478.361 556.987 464.984L556.987 464.984L556.987 464.984C 556.987 458.712 554.638 452.996 550.787 448.695L550.787 448.695L550.787 448.695z" /></clipPath><clipPath id="51"><path id="" clip-rule="evenodd" transform="matrix(1 0 0 1 0 0)" d="M260.705 490.006L557.775 490.006L557.775 490.006L557.775 375.897L557.775 375.897L260.705 375.897z" /></clipPath><clipPath id="52"><path id="" clip-rule="evenodd" transform="matrix(1 0 0 1 0 0)" d="M260.705 490.006L557.775 490.006L557.775 490.006L557.775 375.897L557.775 375.897L260.705 375.897z" /></clipPath><clipPath id="53"><path id="" clip-rule="evenodd" transform="matrix(1 0 0 1 0 0)" d="M267.597 386.643L296.672 386.643L296.672 386.643L296.672 329.7262L296.672 329.7262L267.597 329.7262z" /></clipPath><clipPath id="54"><path id="" clip-rule="evenodd" transform="matrix(1 0 0 1 0 0)" d="M267.597 386.643L296.672 386.643L296.672 386.643L296.672 329.7262L296.672 329.7262L267.597 329.7262z" /></clipPath><clipPath id="55"><path id="" clip-rule="evenodd" transform="matrix(1 0 0 1 0 0)" d="M258.059 422.278L283.6559 422.278L283.6559 422.278L283.6559 386.419L283.6559 386.419L258.059 386.419z" /></clipPath><clipPath id="56"><path id="" clip-rule="evenodd" transform="matrix(1 0 0 1 0 0)" d="M258.059 422.278L283.6559 422.278L283.6559 422.278L283.6559 386.419L283.6559 386.419L258.059 386.419z" /></clipPath><clipPath id="57"><path id="" clip-rule="evenodd" transform="matrix(1 0 0 1 0 0)" d="M401.787 434.93L433.9167 434.93L433.9167 434.93L433.9167 399.071L433.9167 399.071L401.787 399.071z" /></clipPath><clipPath id="58"><path id="" clip-rule="evenodd" transform="matrix(1 0 0 1 0 0)" d="M401.787 434.93L433.9167 434.93L433.9167 434.93L433.9167 399.071L433.9167 399.071L401.787 399.071z" /></clipPath><clipPath id="59"><path id="" clip-rule="evenodd" transform="matrix(1 0 0 1 0 0)" d="M258.059 447.861L283.6559 447.861L283.6559 447.861L283.6559 422.3532L283.6559 422.3532L258.059 422.3532z" /></clipPath><clipPath id="60"><path id="" clip-rule="evenodd" transform="matrix(1 0 0 1 0 0)" d="M258.059 447.861L283.6559 447.861L283.6559 447.861L283.6559 422.3532L283.6559 422.3532L258.059 422.3532z" /></clipPath><clipPath id="61"><path id="" clip-rule="evenodd" transform="matrix(1 0 0 1 0 0)" d="M430.139 703.27L518.03 703.27L518.03 703.27L518.03 589.663L518.03 589.663L430.139 589.663z" /></clipPath><clipPath id="62"><path id="" clip-rule="evenodd" transform="matrix(1 0 0 1 0 0)" d="M430.139 703.27L518.03 703.27L518.03 703.27L518.03 589.663L518.03 589.663L430.139 589.663z" /></clipPath><clipPath id="63"><path id="" clip-rule="evenodd" transform="matrix(1 0 0 1 0 0)" d="M336.233 579.624L336.7447 579.624L336.7447 579.624L336.7447 578.9252L336.7447 578.9252L336.233 578.9252z" /></clipPath><clipPath id="64"><path id="" clip-rule="evenodd" transform="matrix(1 0 0 1 0 0)" d="M336.233 579.624L336.7447 579.624L336.7447 579.624L336.7447 578.9252L336.7447 578.9252L336.233 578.9252z" /></clipPath><clipPath id="65"><path id="" clip-rule="evenodd" transform="matrix(1 0 0 1 0 0)" d="M293.405 703.404L376.4749 703.404L376.4749 703.404L376.4749 590.111L376.4749 590.111L293.405 590.111z" /></clipPath><clipPath id="66"><path id="" clip-rule="evenodd" transform="matrix(1 0 0 1 0 0)" d="M293.405 703.404L376.4749 703.404L376.4749 703.404L376.4749 590.111L376.4749 590.111L293.405 590.111z" /></clipPath><clipPath id="67"><path id="" clip-rule="evenodd" transform="matrix(1 0 0 1 0 0)" d="M262.941 704.712L561.8849 704.712L561.8849 704.712L561.8849 578.924L561.8849 578.924L262.941 578.924z" /></clipPath><clipPath id="68"><path id="" clip-rule="evenodd" transform="matrix(1 0 0 1 0 0)" d="M271.164 656.77C 269.423 658.631 267.934 660.765 266.758 663.107L266.758 663.107L266.758 663.107L266.758 663.107L266.758 688.688C 270.997 697.131 279.302 702.868 288.854 702.868L288.854 702.868L288.854 702.868C 302.711 702.868 313.945 690.793 313.945 675.897L313.945 675.897L313.945 675.897C 313.945 668.422 311.115 661.655 306.544 656.77L306.544 656.77L306.544 656.77z" /></clipPath><clipPath id="69"><path id="" clip-rule="evenodd" transform="matrix(1 0 0 1 0 0)" d="M271.164 656.77C 269.423 658.631 267.934 660.765 266.758 663.107L266.758 663.107L266.758 663.107L266.758 663.107L266.758 688.688C 270.997 697.131 279.302 702.868 288.854 702.868L288.854 702.868L288.854 702.868C 302.711 702.868 313.945 690.793 313.945 675.897L313.945 675.897L313.945 675.897C 313.945 668.422 311.115 661.655 306.544 656.77L306.544 656.77L306.544 656.77z" /></clipPath><clipPath id="70"><path id="" clip-rule="evenodd" transform="matrix(1 0 0 1 0 0)" d="M262.941 704.712L561.8849 704.712L561.8849 704.712L561.8849 578.924L561.8849 578.924L262.941 578.924z" /></clipPath><clipPath id="71"><path id="" clip-rule="evenodd" transform="matrix(1 0 0 1 0 0)" d="M388.725 650.122C 379.055 654.141 372.198 664.232 372.198 676.045L372.198 676.045L372.198 676.045C 372.198 691.39 383.77 703.829 398.045 703.829L398.045 703.829L398.045 703.829C 412.321 703.829 423.893 691.39 423.893 676.045L423.893 676.045L423.893 676.045C 423.893 664.232 417.035 654.141 407.365 650.122L407.365 650.122L407.365 650.122z" /></clipPath><clipPath id="72"><path id="" clip-rule="evenodd" transform="matrix(1 0 0 1 0 0)" d="M388.725 650.122C 379.055 654.141 372.198 664.232 372.198 676.045L372.198 676.045L372.198 676.045C 372.198 691.39 383.77 703.829 398.045 703.829L398.045 703.829L398.045 703.829C 412.321 703.829 423.893 691.39 423.893 676.045L423.893 676.045L423.893 676.045C 423.893 664.232 417.035 654.141 407.365 650.122L407.365 650.122L407.365 650.122z" /></clipPath><clipPath id="73"><path id="" clip-rule="evenodd" transform="matrix(1 0 0 1 0 0)" d="M262.941 704.712L561.8849 704.712L561.8849 704.712L561.8849 578.924L561.8849 578.924L262.941 578.924z" /></clipPath><clipPath id="74"><path id="" clip-rule="evenodd" transform="matrix(1 0 0 1 0 0)" d="M262.941 704.712L561.8849 704.712L561.8849 704.712L561.8849 578.924L561.8849 578.924L262.941 578.924z" /></clipPath><clipPath id="75"><path id="" clip-rule="evenodd" transform="matrix(1 0 0 1 0 0)" d="M262.941 704.712L561.8849 704.712L561.8849 704.712L561.8849 578.924L561.8849 578.924L262.941 578.924z" /></clipPath><clipPath id="76"><path id="" clip-rule="evenodd" transform="matrix(1 0 0 1 0 0)" d="M509.368 675.597C 509.368 690.941 520.941 703.381 535.216 703.381L535.216 703.381L535.216 703.381C 549.491 703.381 561.064 690.941 561.064 675.597L561.064 675.597L561.064 675.597C 561.064 660.252 549.491 647.813 535.216 647.813L535.216 647.813L535.216 647.813C 520.941 647.813 509.368 660.252 509.368 675.597" /></clipPath><clipPath id="77"><path id="" clip-rule="evenodd" transform="matrix(1 0 0 1 0 0)" d="M509.368 675.597C 509.368 690.941 520.941 703.381 535.216 703.381L535.216 703.381L535.216 703.381C 549.491 703.381 561.064 690.941 561.064 675.597L561.064 675.597L561.064 675.597C 561.064 660.252 549.491 647.813 535.216 647.813L535.216 647.813L535.216 647.813C 520.941 647.813 509.368 660.252 509.368 675.597" /></clipPath><clipPath id="78"><path id="" clip-rule="evenodd" transform="matrix(1 0 0 1 0 0)" d="M262.941 704.712L561.8849 704.712L561.8849 704.712L561.8849 578.924L561.8849 578.924L262.941 578.924z" /></clipPath><clipPath id="79"><path id="" clip-rule="evenodd" transform="matrix(1 0 0 1 0 0)" d="M264.857 603.244L293.1261 603.244L293.1261 603.244L293.1261 546.3268L293.1261 546.3268L264.857 546.3268z" /></clipPath><clipPath id="80"><path id="" clip-rule="evenodd" transform="matrix(1 0 0 1 0 0)" d="M264.857 603.244L293.1261 603.244L293.1261 603.244L293.1261 546.3268L293.1261 546.3268L264.857 546.3268z" /></clipPath><clipPath id="81"><path id="" clip-rule="evenodd" transform="matrix(1 0 0 1 0 0)" d="M263.681 633.276L289.2783 633.276L289.2783 633.276L289.2783 602.7127L289.2783 602.7127L263.681 602.7127z" /></clipPath><clipPath id="82"><path id="" clip-rule="evenodd" transform="matrix(1 0 0 1 0 0)" d="M263.681 633.276L289.2783 633.276L289.2783 633.276L289.2783 602.7127L289.2783 602.7127L263.681 602.7127z" /></clipPath><clipPath id="83"><path id="" clip-rule="evenodd" transform="matrix(1 0 0 1 0 0)" d="M258.082 654.539L295.782 654.539L295.782 654.539L295.782 629.0308L295.782 629.0308L258.082 629.0308z" /></clipPath><clipPath id="84"><path id="" clip-rule="evenodd" transform="matrix(1 0 0 1 0 0)" d="M258.082 654.539L295.782 654.539L295.782 654.539L295.782 629.0308L295.782 629.0308L258.082 629.0308z" /></clipPath><clipPath id="85"><path id="" clip-rule="evenodd" transform="matrix(1 0 0 1 0 0)" d="M402.452 639.102L433.9172 639.102L433.9172 639.102L433.9172 603.2442L433.9172 603.2442L402.452 603.2442z" /></clipPath><clipPath id="86"><path id="" clip-rule="evenodd" transform="matrix(1 0 0 1 0 0)" d="M402.452 639.102L433.9172 639.102L433.9172 639.102L433.9172 603.2442L433.9172 603.2442L402.452 603.2442z" /></clipPath></defs><g transform="matrix(1.333333 0 0 1.333333 0 0)"><g clip-path="url(#1)"><g clip-path="url(#2)"><path id="1" transform="matrix(1 0 0 -1 0 834)" d="M91.866 67.4211L562.134 67.4211L562.134 74.92501L91.866 74.92501z" stroke="none" fill="#686868" fill-rule="nonzero" /><path id="2" transform="matrix(1 0 0 -1 0 834)" d="M562.134 526.984L91.866 526.984" stroke="#686868" stroke-width="1" fill="none" /><path id="3" transform="matrix(1 0 0 -1 0 834)" d="M562.134 307.016L91.866 307.016" stroke="#686868" stroke-width="1" fill="none" /></g><g clip-path="url(#3)"></g><g clip-path="url(#4)"><g transform="matrix(1.005548 0 0 0.9989928 352.42 128.075)"><g transform="matrix(1 0 0 1 0 0)"><image x="0" y="0" xlink:href="img_01.png" width="104" height="140" /></g></g></g><g clip-path="url(#5)"><path id="8" transform="matrix(1 0 0 -1 0 834)" d="M316.184 592.139C 316.184 577.546 330.171 565.717 347.426 565.717C 364.68 565.717 378.667 577.546 378.667 592.139C 378.667 606.73 364.68 618.56 347.426 618.56C 330.171 618.56 316.184 606.73 316.184 592.139" stroke="none" fill="#FFFFFF" fill-rule="nonzero" /></g><g clip-path="url(#6)"></g><g clip-path="url(#7)"><g transform="matrix(1.001862 0 0 1.004903 318.996 197.9667)"><g transform="matrix(1 0 0 1 0 0)"><image x="0" y="0" xlink:href="img_02.png" width="60" height="80" /></g></g></g><g clip-path="url(#8)"><path id="10" transform="matrix(1 0 0 -1 0 834)" d="M316.1844 592.1406C 316.1844 577.5487 330.1707 565.7198 347.4255 565.7198C 364.6794 565.7198 378.6676 577.5487 378.6676 592.1406C 378.6676 606.7323 364.6794 618.5622 347.4255 618.5622C 330.1707 618.5622 316.1844 606.7323 316.1844 592.1406z" stroke="#000000" stroke-width="0.7376847" fill="none" /></g><g clip-path="url(#9)"><g><g clip-path="url(#10)"><g clip-path="url(#11)"><path id="11" transform="matrix(1 0 0 -1 0 834)" d="M384.6028 653.1669C 384.6028 653.1669 408.9058 647.7468 416.8507 629.2561" stroke="#FFFFFF" stroke-width="1.475363" fill="none" stroke-opacity="0.8" /><path id="12" transform="matrix(1 0 0 -1 0 834)" d="M418.305 625.03L413.529 630.27L416.493 630.107L418.666 632.162L418.666 632.157" stroke="none" fill="#FFFFFF" fill-rule="nonzero" fill-opacity="0.8" /></g></g></g></g><g clip-path="url(#12)"><path id="13" transform="matrix(1 0 0 -1 0 834)" d="M435.684 591.594C 435.684 577.548 446.89 566.162 460.714 566.162C 474.537 566.162 485.743 577.548 485.743 591.594C 485.743 605.64 474.537 617.027 460.714 617.027C 446.89 617.027 435.684 605.64 435.684 591.594" stroke="none" fill="#FFFFFF" fill-rule="nonzero" /></g><g clip-path="url(#13)"></g><g clip-path="url(#14)"><g transform="matrix(1.009052 0 0 1.005982 416.056 164.6489)"><g transform="matrix(1 0 0 1 0 0)"><image x="0" y="0" xlink:href="img_03.png" width="82" height="110" /></g></g></g><g clip-path="url(#15)"><path id="15" transform="matrix(1 0 0 -1 0 834)" d="M435.6848 591.5962C 435.6848 577.5497 446.8895 566.1644 460.714 566.1644C 474.5376 566.1644 485.7422 577.5497 485.7422 591.5962C 485.7422 605.6427 474.5376 617.0291 460.714 617.0291C 446.8895 617.0291 435.6848 605.6427 435.6848 591.5962z" stroke="#000000" stroke-width="0.7376847" fill="none" /></g><g clip-path="url(#16)"><g><g clip-path="url(#17)"><g clip-path="url(#18)"><path id="16" transform="matrix(1 0 0 -1 0 834)" d="M467.0886 586.6913L470.8929 582.8266" stroke="#FFFFFF" stroke-width="0.7376847" fill="none" stroke-opacity="0.8" /></g></g></g></g><g clip-path="url(#19)"><g><g clip-path="url(#20)"><g clip-path="url(#21)"><path id="17" transform="matrix(1 0 0 -1 0 834)" d="M461.0999 583.7318L461.4332 578.2765" stroke="#FFFFFF" stroke-width="0.7376847" fill="none" stroke-opacity="0.8" /></g></g></g></g><g clip-path="url(#22)"><g><g clip-path="url(#23)"><g clip-path="url(#24)"><path id="18" transform="matrix(1 0 0 -1 0 834)" d="M454.0458 585.1127L451.0976 580.5405" stroke="#FFFFFF" stroke-width="0.7376847" fill="none" stroke-opacity="0.8" /></g></g></g></g><g clip-path="url(#25)"><path id="19" transform="matrix(1 0 0 -1 0 834)" d="M330.843 605.794C 331.564 609.352 332.521 611.622 333.431 611.523C 333.455 611.521 333.478 611.509 333.502 611.504C 333.527 611.504 333.551 611.511 333.575 611.508C 334.465 611.412 335.11 607.563 335.377 604.036L335.377 604.036L336.647 603.857L336.647 603.857L334.548 599.143L334.548 599.143L333.07 604.327L333.07 604.327L334.18 604.18C 333.998 606.043 333.661 607.471 333.309 608.502C 332.904 607.71 332.515 606.533 332.168 605.069" stroke="none" fill="#000000" fill-rule="nonzero" /></g><g clip-path="url(#26)"></g><g clip-path="url(#27)"><g transform="matrix(1.006449 0 0 0.9985386 261.396 112.4843)"><g transform="matrix(1 0 0 1 0 0)"><image x="0" y="0" xlink:href="img_04.png" width="37" height="57" /></g></g></g><g clip-path="url(#28)"></g><g clip-path="url(#29)"><g transform="matrix(1.022789 0 0 0.9967948 333.788 139.9288)"><g transform="matrix(1 0 0 1 0 0)"><image x="0" y="0" xlink:href="img_05.png" width="27" height="38" /></g></g></g><g clip-path="url(#30)"></g><g clip-path="url(#31)"><g transform="matrix(-1.022789 0 0 0.9967948 487.938 139.9288)"><g transform="matrix(1 0 0 1 0 0)"><image x="0" y="0" xlink:href="img_05.png" width="27" height="38" /></g></g></g><g clip-path="url(#32)"></g><g clip-path="url(#33)"><g transform="matrix(0.16397 0 0 0.2112757 348.479 375.8972)"><g transform="matrix(1 0 0 1 0 0)"><image x="0" y="0" xlink:href="img_06.png" width="3" height="3" /></g></g></g><g clip-path="url(#34)"></g><g clip-path="url(#35)"><g transform="matrix(0.9970463 0 0 0.9978253 289.956 386.044)"><g transform="matrix(1 0 0 1 0 0)"><image x="0" y="0" xlink:href="img_07.png" width="80" height="103" /></g></g></g><g clip-path="url(#36)"></g><g clip-path="url(#37)"><g transform="matrix(1.005823 0 0 0.9978253 428.336 386.429)"><g transform="matrix(1 0 0 1 0 0)"><image x="0" y="0" xlink:href="img_08.png" width="89" height="103" /></g></g></g><g clip-path="url(#38)"><path id="130" transform="matrix(1 0 0 -1 0 834)" d="M261.493 370.133C 261.493 356.621 272.279 345.666 285.586 345.666C 298.891 345.666 309.678 356.621 309.678 370.133C 309.678 383.646 298.891 394.6 285.586 394.6C 272.279 394.6 261.493 383.646 261.493 370.133" stroke="none" fill="#FFFFFF" fill-rule="nonzero" /></g><g clip-path="url(#39)"></g><g clip-path="url(#40)"><g transform="matrix(1.004807 0 0 1.001388 264.369 446.5152)"><g transform="matrix(1 0 0 1 0 0)"><image x="0" y="0" xlink:href="img_09.png" width="55" height="69" /></g></g></g><g clip-path="url(#41)"><path id="132" transform="matrix(1 0 0 -1 0 834)" d="M261.4925 370.1339C 261.4925 356.6215 272.2787 345.6667 285.5853 345.6667C 298.8909 345.6667 309.6781 356.6215 309.6781 370.1339C 309.6781 383.6473 298.8909 394.6011 285.5853 394.6011C 272.2787 394.6011 261.4925 383.6473 261.4925 370.1339z" stroke="#000000" stroke-width="0.8763755" fill="none" /><path id="133" transform="matrix(1 0 0 -1 0 834)" d="M365.613 369.999C 365.613 356.079 376.725 344.795 390.432 344.795C 404.139 344.795 415.251 356.079 415.251 369.999C 415.251 383.92 404.139 395.204 390.432 395.204C 376.725 395.204 365.613 383.92 365.613 369.999" stroke="none" fill="#FFFFFF" fill-rule="nonzero" /></g><g clip-path="url(#42)"></g><g clip-path="url(#43)"><g transform="matrix(1.005498 0 0 1.000428 362.786 440.4836)"><g transform="matrix(1 0 0 1 0 0)"><image x="0" y="0" xlink:href="img_10.png" width="60" height="78" /></g></g></g><g clip-path="url(#44)"><path id="135" transform="matrix(1 0 0 -1 0 834)" d="M365.6126 369.9999C 365.6126 356.0804 376.7243 344.795 390.4308 344.795C 404.1383 344.795 415.2499 356.0804 415.2499 369.9999C 415.2499 383.9204 404.1383 395.2047 390.4308 395.2047C 376.7243 395.2047 365.6126 383.9204 365.6126 369.9999z" stroke="#000000" stroke-width="0.8763755" fill="none" /></g><path id="137" transform="matrix(1 0 0 -1 0 834)" d="M453.9156 410.2045L453.9156 436.5642" stroke="#000000" stroke-width="0.8763755" fill="none" /><path id="138" transform="matrix(1 0 0 -1 0 834)" d="M453.916 436.013L452.293 435.313L453.916 439.22L455.539 435.313z" stroke="none" fill="#000000" fill-rule="nonzero" /><g clip-path="url(#45)"><g><g clip-path="url(#46)"><g clip-path="url(#47)"><path id="140" transform="matrix(1 0 0 -1 0 834)" d="M453.9156 396.1832L453.9156 410.2045" stroke="#FFFFFF" stroke-width="0.8763755" fill="none" stroke-opacity="0.8" /></g></g></g></g><g clip-path="url(#48)"><path id="141" transform="matrix(1 0 0 -1 0 834)" d="M509.286 369.016C 509.286 355.639 519.9641 344.795 533.136 344.795C 546.308 344.795 556.987 355.639 556.987 369.016C 556.987 382.393 546.308 393.237 533.136 393.237C 519.9641 393.237 509.286 382.393 509.286 369.016" stroke="none" fill="#FFFFFF" fill-rule="nonzero" /></g><g clip-path="url(#49)"></g><g clip-path="url(#50)"><g transform="matrix(1.005039 0 0 0.9971828 506.02 448.6942)"><g transform="matrix(1 0 0 1 0 0)"><image x="0" y="0" xlink:href="img_11.png" width="70" height="81" /></g></g></g><g clip-path="url(#51)"><path id="143" transform="matrix(1 0 0 -1 0 834)" d="M509.2864 369.0164C 509.2864 355.639 519.9644 344.795 533.1351 344.795C 546.3078 344.795 556.9858 355.639 556.9858 369.0164C 556.9858 382.3937 546.3078 393.2377 533.1351 393.2377C 519.9644 393.2377 509.2864 382.3937 509.2864 369.0164z" stroke="#000000" stroke-width="0.8763755" fill="none" /><path id="144" transform="matrix(1 0 0 -1 0 834)" d="M315.8929 428.8693C 315.8929 428.8693 310.3231 420.8368 296.6027 419.9359L296.6027 419.9359L321.1867 419.9359" stroke="#000000" stroke-width="0.8763755" fill="none" /></g><path id="145" transform="matrix(1 0 0 -1 0 834)" d="M320.646 419.933L319.956 421.58L323.803 419.933L319.956 418.285z" stroke="none" fill="#000000" fill-rule="nonzero" /><g clip-path="url(#52)"><path id="146" transform="matrix(1 0 0 -1 0 834)" d="M289.955 419.933C 287.397 419.933 285.323 417.827 285.323 415.229C 285.323 412.631 287.397 410.525 289.955 410.525C 292.514 410.525 294.588 412.631 294.588 415.229C 294.588 417.827 292.514 419.933 289.955 419.933M289.955 411.097C 287.723 411.097 285.912 412.935 285.912 415.203C 285.912 417.471 287.723 419.309 289.955 419.309C 292.189 419.309 293.999 417.471 293.999 415.203C 293.999 412.935 292.189 411.097 289.955 411.097" stroke="none" fill="#000000" fill-rule="nonzero" /><path id="148" transform="matrix(1 0 0 -1 0 834)" d="M444.339 419.933C 441.781 419.933 439.707 417.827 439.707 415.229C 439.707 412.631 441.781 410.525 444.339 410.525C 446.897 410.525 448.971 412.631 448.971 415.229C 448.971 417.827 446.897 419.933 444.339 419.933M444.339 411.097C 442.106 411.097 440.296 412.935 440.296 415.203C 440.296 417.471 442.106 419.309 444.339 419.309C 446.572 419.309 448.382 417.471 448.382 415.203C 448.382 412.935 446.572 411.097 444.339 411.097" stroke="none" fill="#000000" fill-rule="nonzero" /></g><g clip-path="url(#53)"></g><g clip-path="url(#54)"><g transform="matrix(1.00259 0 0 0.9987172 267.597 328.7174)"><g transform="matrix(1 0 0 1 0 0)"><image x="0" y="0" xlink:href="img_12.png" width="29" height="58" /></g></g></g><g clip-path="url(#55)"></g><g clip-path="url(#56)"><g transform="matrix(1.022767 0 0 0.997129 257.054 385.4051)"><g transform="matrix(1 0 0 1 0 0)"><image x="0" y="0" xlink:href="img_13.png" width="27" height="38" /></g></g></g><g clip-path="url(#57)"></g><g clip-path="url(#58)"><g transform="matrix(1.003918 0 0 0.9970554 400.787 398.0509)"><g transform="matrix(1 0 0 1 0 0)"><image x="0" y="0" xlink:href="img_14.png" width="34" height="38" /></g></g></g><g clip-path="url(#59)"></g><g clip-path="url(#60)"><g transform="matrix(1.022545 0 0 1.019596 257.05 421.3379)"><g transform="matrix(1 0 0 1 0 0)"><image x="0" y="0" xlink:href="img_15.png" width="27" height="27" /></g></g></g><g clip-path="url(#61)"></g><g clip-path="url(#62)"><g transform="matrix(0.9987682 0 0 1.005372 430.139 589.663)"><g transform="matrix(1 0 0 1 0 0)"><image x="0" y="0" xlink:href="img_16.png" width="88" height="113" /></g></g></g><g clip-path="url(#63)"></g><g clip-path="url(#64)"><g transform="matrix(0.170766 0 0 0.232897 336.233 578.9253)"><g transform="matrix(1 0 0 1 0 0)"><image x="0" y="0" xlink:href="img_06.png" width="3" height="3" /></g></g></g><g clip-path="url(#65)"></g><g clip-path="url(#66)"><g transform="matrix(1.000839 0 0 1.002593 293.405 590.111)"><g transform="matrix(1 0 0 1 0 0)"><image x="0" y="0" xlink:href="img_17.png" width="83" height="113" /></g></g></g><g clip-path="url(#67)"><path id="820" transform="matrix(1 0 0 -1 0 834)" d="M263.763 158.103C 263.763 143.207 274.996 131.132 288.854 131.132C 302.711 131.132 313.945 143.207 313.945 158.103C 313.945 172.998 302.711 185.073 288.854 185.073C 274.996 185.073 263.763 172.998 263.763 158.103" stroke="none" fill="#FFFFFF" fill-rule="nonzero" /></g><g clip-path="url(#68)"></g><g clip-path="url(#69)"><g transform="matrix(1.009735 0 0 1.002196 266.758 656.7701)"><g transform="matrix(1 0 0 1 0 0)"><image x="0" y="0" xlink:href="img_18.png" width="57" height="76" /></g></g></g><g clip-path="url(#70)"><path id="822" transform="matrix(1 0 0 -1 0 834)" d="M263.763 158.1026C 263.763 143.2066 274.9962 131.1319 288.8542 131.1319C 302.7112 131.1319 313.9454 143.2066 313.9454 158.1026C 313.9454 172.9976 302.7112 185.0734 288.8542 185.0734C 274.9962 185.0734 263.763 172.9976 263.763 158.1026z" stroke="#000000" stroke-width="0.9126996" fill="none" /><path id="823" transform="matrix(1 0 0 -1 0 834)" d="M372.198 157.955C 372.198 142.61 383.77 130.171 398.046 130.171C 412.321 130.171 423.894 142.61 423.894 157.955C 423.894 173.3 412.321 185.739 398.046 185.739C 383.77 185.739 372.198 173.3 372.198 157.955" stroke="none" fill="#FFFFFF" fill-rule="nonzero" /></g><g clip-path="url(#71)"></g><g clip-path="url(#72)"><g transform="matrix(0.9973064 0 0 1.000222 369.253 650.1218)"><g transform="matrix(1 0 0 1 0 0)"><image x="0" y="0" xlink:href="img_19.png" width="63" height="86" /></g></g></g><g clip-path="url(#73)"><path id="825" transform="matrix(1 0 0 -1 0 834)" d="M372.1976 157.9545C 372.1976 142.6098 383.7702 130.1704 398.0455 130.1704C 412.3209 130.1704 423.8944 142.6098 423.8944 157.9545C 423.8944 173.2991 412.3209 185.7385 398.0455 185.7385C 383.7702 185.7385 372.1976 173.2991 372.1976 157.9545z" stroke="#000000" stroke-width="0.9126996" fill="none" /><path id="826" transform="matrix(1 0 0 -1 0 834)" d="M320.4171 222.8475C 320.4171 222.8475 314.6182 213.993 300.3275 212.9994L300.3275 212.9994L325.9315 212.9994" stroke="#000000" stroke-width="0.9126996" fill="none" /></g><path id="827" transform="matrix(1 0 0 -1 0 834)" d="M325.367 212.998L324.649 214.815L328.655 212.998L324.649 211.182z" stroke="none" fill="#000000" fill-rule="nonzero" /><g clip-path="url(#74)"><path id="828" transform="matrix(1 0 0 -1 0 834)" d="M293.405 212.998C 290.741 212.998 288.581 210.677 288.581 207.813C 288.581 204.949 290.741 202.628 293.405 202.628C 296.07 202.628 298.229 204.949 298.229 207.813C 298.229 210.677 296.07 212.998 293.405 212.998M293.405 203.258C 291.08 203.258 289.194 205.284 289.194 207.784C 289.194 210.284 291.08 212.311 293.405 212.311C 295.731 212.311 297.616 210.284 297.616 207.784C 297.616 205.284 295.731 203.258 293.405 203.258" stroke="none" fill="#000000" fill-rule="nonzero" /></g><path id="831" transform="matrix(1 0 0 -1 0 834)" d="M445.29 208.8715L445.29 168.731" stroke="#000000" stroke-width="0.9126996" fill="none" /><path id="832" transform="matrix(1 0 0 -1 0 834)" d="M443.6 170.109L445.29 169.337L446.98 170.109L445.29 165.803z" stroke="none" fill="#000000" fill-rule="nonzero" /><g clip-path="url(#75)"><path id="833" transform="matrix(1 0 0 -1 0 834)" d="M509.37 158.403C 509.37 143.058 520.942 130.619 535.217 130.619C 549.493 130.619 561.065 143.058 561.065 158.403C 561.065 173.748 549.493 186.187 535.217 186.187C 520.942 186.187 509.37 173.748 509.37 158.403" stroke="none" fill="#FFFFFF" fill-rule="nonzero" /></g><g clip-path="url(#76)"></g><g clip-path="url(#77)"><g transform="matrix(1.004078 0 0 1.005171 509.027 600.529)"><g transform="matrix(1 0 0 1 0 0)"><image x="0" y="0" xlink:href="img_20.png" width="90" height="117" /></g></g></g><g clip-path="url(#78)"><path id="835" transform="matrix(1 0 0 -1 0 834)" d="M509.369 158.4031C 509.369 143.0574 520.9415 130.618 535.2169 130.618C 549.4922 130.618 561.0648 143.0574 561.0648 158.4031C 561.0648 173.7467 549.4922 186.1861 535.2169 186.1861C 520.9415 186.1861 509.369 173.7467 509.369 158.4031z" stroke="#000000" stroke-width="0.9126996" fill="none" /><path id="836" transform="matrix(1 0 0 -1 0 834)" d="M434.963 228.032C 432.298 228.032 430.139 225.711 430.139 222.847C 430.139 219.983 432.298 217.662 434.963 217.662C 437.627 217.662 439.786 219.983 439.786 222.847C 439.786 225.711 437.627 228.032 434.963 228.032M434.963 218.292C 432.637 218.292 430.752 220.318 430.752 222.818C 430.752 225.318 432.637 227.345 434.963 227.345C 437.288 227.345 439.173 225.318 439.173 222.818C 439.173 220.318 437.288 218.292 434.963 218.292" stroke="none" fill="#000000" fill-rule="nonzero" /></g><g clip-path="url(#79)"></g><g clip-path="url(#80)"><g transform="matrix(1.009614 0 0 0.9985386 264.857 546.3263)"><g transform="matrix(1 0 0 1 0 0)"><image x="0" y="0" xlink:href="img_21.png" width="28" height="57" /></g></g></g><g clip-path="url(#81)"></g><g clip-path="url(#82)"><g transform="matrix(1.022915 0 0 1.018152 262.67 602.7133)"><g transform="matrix(1 0 0 1 0 0)"><image x="0" y="0" xlink:href="img_22.png" width="27" height="31" /></g></g></g><g clip-path="url(#83)"></g><g clip-path="url(#84)"><g transform="matrix(1.018567 0 0 1.019596 257.068 628.0179)"><g transform="matrix(1 0 0 1 0 0)"><image x="0" y="0" xlink:href="img_23.png" width="39" height="27" /></g></g></g><g clip-path="url(#85)"></g><g clip-path="url(#86)"><g transform="matrix(1.015003 0 0 0.9968184 401.44 602.2329)"><g transform="matrix(1 0 0 1 0 0)"><image x="0" y="0" xlink:href="img_24.png" width="33" height="38" /></g></g></g><path id="1228" transform="matrix(1 0 0 -1 0 834)" d="M633 15L633 0M633 819L633 834M21 15L21 0M21 819L21 834M639 21L654 21M15 21L0 21M639 813L654 813M15 813L0 813" stroke="#000000" stroke-width="1.25" fill="none" /><path id="1229" transform="matrix(1 0 0 -1 0 834)" d="M633 15L633 0M633 819L633 834M21 15L21 0M21 819L21 834M639 21L654 21M15 21L0 21M639 813L654 813M15 813L0 813" stroke="#000000" stroke-width="0.25" fill="none" /><path id="1230" transform="matrix(1 0 0 -1 0 834)" d="M32.2781 9.28203C 32.2781 9.516021 32.2961 9.58203 32.3559 9.62383C 32.416 9.66602 32.5719 9.69609 32.8238 9.69609C 33.2262 9.69609 33.5738 9.62383 33.8441 9.45C 34.3238 9.167971 34.552 8.63398 34.552 8.016021C 34.552 7.05586 34.0359 6.21602 32.9141 6.21602C 32.4762 6.21602 32.2781 6.33008 32.2781 6.78594zM31.252 9.900001L31.252 9.726171C 31.7141 9.68984 31.7621 9.66602 31.7621 9.150001L31.7621 9.150001L31.7621 6.74414C 31.7621 6.23398 31.7141 6.19805 31.198 6.16211L31.198 6.16211L31.198 6L31.198 6L32.6199 6C 33.3578 6 33.952 6.15 34.402 6.49805C 34.8641 6.84609 35.1398 7.38008 35.1398 8.1C 35.1398 8.664061 34.9301 9.101951 34.6359 9.38984C 34.2641 9.74414 33.7 9.900001 32.9379 9.900001z" stroke="#000000" stroke-width="0.4" fill="none" /><path id="1231" transform="matrix(1 0 0 -1 0 834)" d="M38.3801 6.97813C 38.2898 6.70195 38.1758 6.51016 38.0738 6.38984C 37.9359 6.23398 37.732 6.20391 37.402 6.20391C 37.15 6.20391 36.9461 6.21602 36.8258 6.28203C 36.718 6.34219 36.6879 6.46211 36.6879 6.78594L36.6879 6.78594L36.6879 9.15586C 36.6879 9.66602 36.7418 9.69609 37.216 9.73203L37.216 9.73203L37.216 9.900001L37.216 9.900001L35.65 9.900001L35.65 9.900001L35.65 9.73203C 36.1359 9.69609 36.1777 9.66602 36.1777 9.15586L36.1777 9.15586L36.1777 6.75586C 36.1777 6.24609 36.1301 6.20391 35.6258 6.16797L35.6258 6.16797L35.6258 6L35.6258 6L38.3438 6C 38.398 6.18594 38.5238 6.75586 38.5598 6.94219z" stroke="#000000" stroke-width="0.4" fill="none" /><path id="1232" transform="matrix(1 0 0 -1 0 834)" d="M41.0918 9.023829C 41.0438 9.40195 41.0141 9.63594 40.9898 9.851951C 40.7617 9.92383 40.5098 9.989841 40.234 9.989841C 39.4598 9.989841 38.998 9.49805 38.998 8.921881C 38.998 8.24414 39.6039 7.94414 39.9879 7.73984C 40.4379 7.5 40.768 7.28984 40.768 6.84609C 40.768 6.40781 40.498 6.12617 40.048 6.12617C 39.4301 6.12617 39.1598 6.73203 39.0641 7.09805L39.0641 7.09805L38.8898 7.05586C 38.9258 6.767971 39.0039 6.25195 39.052 6.12617C 39.1059 6.09609 39.1961 6.05391 39.3461 6C 39.4961 5.95781 39.6879 5.91016 39.934 5.91016C 40.732 5.91016 41.266 6.41406 41.266 7.04414C 41.266 7.71602 40.6961 7.99805 40.2277 8.23789C 39.7539 8.48398 39.466 8.68789 39.466 9.12617C 39.466 9.45 39.6699 9.78594 40.132 9.78594C 40.6539 9.78594 40.8098 9.371881 40.918 8.98789z" stroke="#000000" stroke-width="0.4" fill="none" /><path id="1233" transform="matrix(1 0 0 -1 0 834)" d="M46.648 6L46.648 6.16797C 46.1258 6.21602 46.1078 6.24609 46.0898 6.88203L46.0898 6.88203L46.0301 9.05391C 46.0117 9.671881 46.0539 9.68398 46.582 9.73203L46.582 9.73203L46.582 9.900001L46.582 9.900001L45.5617 9.900001L45.5617 9.900001L44.1758 6.9L44.1758 6.9L42.8078 9.900001L42.8078 9.900001L41.8238 9.900001L41.8238 9.900001L41.8238 9.73203C 42.3699 9.67813 42.4 9.653911 42.3461 8.87383L42.3461 8.87383L42.2617 7.626171C 42.2141 7.00195 42.1777 6.73789 42.148 6.528131C 42.1059 6.27617 41.9859 6.21016 41.6379 6.16797L41.6379 6.16797L41.6379 6L41.6379 6L43.0359 6L43.0359 6L43.0359 6.16797C 42.6398 6.21016 42.4961 6.25195 42.484 6.53984C 42.4777 6.78008 42.4777 7.04414 42.502 7.53594L42.502 7.53594L42.5918 9.24609L42.5918 9.24609L42.6039 9.24609L42.6039 9.24609L43.948 6.04219L43.948 6.04219L44.068 6.04219L44.068 6.04219L45.532 9.33008L45.532 9.33008L45.5559 9.33008L45.5559 9.33008L45.5738 6.88203C 45.5801 6.24609 45.5559 6.21602 45.0699 6.16797L45.0699 6.16797L45.0699 6z" stroke="#000000" stroke-width="0.4" fill="none" /><path id="1234" transform="matrix(1 0 0 -1 0 834)" d="M51.8738 7.05586C 51.5738 6.45586 51.2496 6.12617 50.6379 6.12617C 49.7258 6.12617 49.0656 6.89414 49.0656 8.016021C 49.0656 8.92813 49.5996 9.773829 50.602 9.773829C 51.2496 9.773829 51.6098 9.516021 51.7656 8.88008L51.7656 8.88008L51.9457 8.921881C 51.9098 9.24609 51.8738 9.48594 51.8258 9.828131C 51.6578 9.85781 51.2496 9.989841 50.7637 9.989841C 49.4258 9.989841 48.4539 9.15586 48.4539 7.89609C 48.4539 6.94219 49.1078 5.91016 50.602 5.91016C 51.034 5.91016 51.5379 6.03008 51.7059 6.07188C 51.8137 6.26992 51.9637 6.71406 52.0477 6.98984z" stroke="#000000" stroke-width="0.4" fill="none" /><path id="1235" transform="matrix(1 0 0 -1 0 834)" d="M54.3398 9.773829C 55.1258 9.773829 55.7855 9.101951 55.7855 7.83594C 55.7855 6.68398 55.1855 6.12617 54.5195 6.12617C 53.6738 6.12617 53.0559 6.94805 53.0559 8.076171C 53.0559 9.19805 53.6676 9.773829 54.3398 9.773829zM54.4598 9.989841C 53.1996 9.989841 52.4438 8.98789 52.4438 7.90781C 52.4438 6.75586 53.3078 5.91016 54.3938 5.91016C 55.4918 5.91016 56.3977 6.70195 56.3977 7.99805C 56.3977 9.19805 55.4797 9.989841 54.4598 9.989841z" stroke="#000000" stroke-width="0.4" fill="none" /><path id="1236" transform="matrix(1 0 0 -1 0 834)" d="M61.8277 6L61.8277 6.16797C 61.3059 6.21602 61.2879 6.24609 61.2695 6.88203L61.2695 6.88203L61.2098 9.05391C 61.1918 9.671881 61.2336 9.68398 61.7617 9.73203L61.7617 9.73203L61.7617 9.900001L61.7617 9.900001L60.7418 9.900001L60.7418 9.900001L59.3559 6.9L59.3559 6.9L57.9879 9.900001L57.9879 9.900001L57.0035 9.900001L57.0035 9.900001L57.0035 9.73203C 57.5496 9.67813 57.5797 9.653911 57.5258 8.87383L57.5258 8.87383L57.4418 7.626171C 57.3938 7.00195 57.3578 6.73789 57.3277 6.528131C 57.2855 6.27617 57.1656 6.21016 56.8176 6.16797L56.8176 6.16797L56.8176 6L56.8176 6L58.2156 6L58.2156 6L58.2156 6.16797C 57.8195 6.21016 57.6758 6.25195 57.6637 6.53984C 57.6578 6.78008 57.6578 7.04414 57.6816 7.53594L57.6816 7.53594L57.7719 9.24609L57.7719 9.24609L57.7836 9.24609L57.7836 9.24609L59.1277 6.04219L59.1277 6.04219L59.2477 6.04219L59.2477 6.04219L60.7117 9.33008L60.7117 9.33008L60.7355 9.33008L60.7355 9.33008L60.7535 6.88203C 60.7598 6.24609 60.7355 6.21602 60.2496 6.16797L60.2496 6.16797L60.2496 6z" stroke="#000000" stroke-width="0.4" fill="none" /><path id="1237" transform="matrix(1 0 0 -1 0 834)" d="M63.8258 6L63.8258 6.16797C 63.3336 6.20391 63.2855 6.23398 63.2855 6.75L63.2855 6.75L63.2855 9.150001C 63.2855 9.66016 63.3336 9.69609 63.8258 9.73203L63.8258 9.73203L63.8258 9.900001L63.8258 9.900001L62.2355 9.900001L62.2355 9.900001L62.2355 9.73203C 62.7277 9.69609 62.7758 9.66016 62.7758 9.150001L62.7758 9.150001L62.7758 6.75C 62.7758 6.23984 62.7277 6.20391 62.2355 6.16797L62.2355 6.16797L62.2355 6z" stroke="#000000" stroke-width="0.4" fill="none" /><path id="1238" transform="matrix(1 0 0 -1 0 834)" d="M66.5074 9.023829C 66.4598 9.40195 66.4297 9.63594 66.4055 9.851951C 66.1777 9.92383 65.9258 9.989841 65.6496 9.989841C 64.8758 9.989841 64.4137 9.49805 64.4137 8.921881C 64.4137 8.24414 65.0195 7.94414 65.4035 7.73984C 65.8535 7.5 66.1836 7.28984 66.1836 6.84609C 66.1836 6.40781 65.9137 6.12617 65.46371 6.12617C 64.8457 6.12617 64.5758 6.73203 64.4797 7.09805L64.4797 7.09805L64.3055 7.05586C 64.3418 6.767971 64.4195 6.25195 64.46761 6.12617C 64.52151 6.09609 64.6117 6.05391 64.7617 6C 64.91171 5.95781 65.1035 5.91016 65.3496 5.91016C 66.1477 5.91016 66.6816 6.41406 66.6816 7.04414C 66.6816 7.71602 66.1117 7.99805 65.6438 8.23789C 65.1695 8.48398 64.8816 8.68789 64.8816 9.12617C 64.8816 9.45 65.0855 9.78594 65.5477 9.78594C 66.0695 9.78594 66.2258 9.371881 66.3336 8.98789z" stroke="#000000" stroke-width="0.4" fill="none" /><path id="1239" transform="matrix(1 0 0 -1 0 834)" d="M69.4055 7.68008L68.3016 7.68008C 68.4816 8.171881 68.6734 8.69414 68.8656 9.21016L68.8656 9.21016L68.8777 9.21016zM70.9355 6L70.9355 6.16797C 70.5457 6.20391 70.46761 6.25781 70.2758 6.77383C 69.89181 7.81797 69.4895 8.95781 69.11761 9.989841L69.11761 9.989841L68.9316 9.93594L68.9316 9.93594L67.68951 6.78594C 67.4797 6.25781 67.3957 6.22188 67.0176 6.16797L67.0176 6.16797L67.0176 6L67.0176 6L68.3195 6L68.3195 6L68.3195 6.16797C 67.8695 6.21016 67.81561 6.26992 67.9477 6.64805C 68.0258 6.9 68.1156 7.15195 68.2117 7.42188L68.2117 7.42188L69.4895 7.42188C 69.62151 7.05586 69.74181 6.73203 69.8195 6.49805C 69.8977 6.26406 69.8438 6.21602 69.4656 6.16797L69.4656 6.16797L69.4656 6z" stroke="#000000" stroke-width="0.4" fill="none" /><path id="1240" transform="matrix(1 0 0 -1 0 834)" d="M71.7273 5.92813C 71.9195 5.92813 72.06371 6.06602 72.06371 6.27617C 72.06371 6.46797 71.9195 6.61797 71.7273 6.61797C 71.5355 6.61797 71.3914 6.46797 71.3914 6.27617C 71.3914 6.06602 71.5355 5.92813 71.7273 5.92813z" stroke="#000000" stroke-width="0.4" fill="none" /><path id="1241" transform="matrix(1 0 0 -1 0 834)" d="M73.9234 6L73.9234 6.15586C 73.53951 6.19219 73.4977 6.22813 73.4977 6.63594L73.4977 6.63594L73.4977 8.70586C 73.2336 8.59805 72.9516 8.51992 72.6453 8.471881L72.6453 8.471881L72.6453 8.328131C 73.0055 8.26797 73.0234 8.24414 73.0234 7.871881L73.0234 7.871881L73.0234 6.63594C 73.0234 6.22813 72.9816 6.19219 72.6035 6.15586L72.6035 6.15586L72.6035 6zM73.2215 9.216021C 73.3953 9.216021 73.52731 9.36016 73.52731 9.52188C 73.52731 9.70195 73.3953 9.83398 73.2273 9.83398C 73.06561 9.83398 72.9215 9.70195 72.9215 9.52188C 72.9215 9.36016 73.06561 9.216021 73.2215 9.216021z" stroke="#000000" stroke-width="0.4" fill="none" /><path id="1242" transform="matrix(1 0 0 -1 0 834)" d="M77.1574 6L77.1574 6.15586C 76.8094 6.19219 76.7793 6.21602 76.7793 6.62383L76.7793 6.62383L76.7793 7.78203C 76.7793 8.36406 76.4793 8.69414 76.0055 8.69414C 75.8313 8.69414 75.67541 8.621881 75.5074 8.51406C 75.3574 8.41211 75.2254 8.32188 75.1055 8.23203L75.1055 8.23203L75.1055 8.712111C 74.8414 8.59219 74.5594 8.51992 74.27151 8.466021L74.27151 8.466021L74.27151 8.328131C 74.5953 8.26797 74.6313 8.25 74.6313 7.86602L74.6313 7.86602L74.6313 6.62383C 74.6313 6.22813 74.6016 6.19805 74.19341 6.15586L74.19341 6.15586L74.19341 6L74.19341 6L75.4953 6L75.4953 6L75.4953 6.15586C 75.1414 6.19219 75.1055 6.21602 75.1055 6.62383L75.1055 6.62383L75.1055 8.03398C 75.2855 8.18984 75.5195 8.33984 75.7594 8.33984C 76.1613 8.33984 76.3055 8.069921 76.3055 7.65586L76.3055 7.65586L76.3055 6.65391C 76.3055 6.23984 76.2633 6.19219 75.9094 6.15586L75.9094 6.15586L75.9094 6z" stroke="#000000" stroke-width="0.4" fill="none" /><path id="1243" transform="matrix(1 0 0 -1 0 834)" d="M79.4734 6.51016C 79.32931 6.40195 79.1133 6.30586 78.8973 6.30586C 78.5133 6.30586 78.0754 6.65391 78.0754 7.36797C 78.0754 8.23789 78.57931 8.471881 78.8555 8.471881C 79.0832 8.471881 79.32931 8.37617 79.4734 8.16602zM80.4035 6.30586L80.2113 6.32383C 79.9895 6.34805 79.9473 6.37813 79.9473 6.68984L79.9473 6.68984L79.9473 10.2719C 79.7254 10.1941 79.3234 10.1039 79.0113 10.0621L79.0113 10.0621L79.0113 9.917971C 79.44341 9.88789 79.4734 9.869921 79.4734 9.47383L79.4734 9.47383L79.4734 8.628131C 79.3355 8.67617 79.1613 8.69414 79.0773 8.69414C 78.2613 8.69414 77.5293 8.03984 77.5293 7.20586C 77.5293 6.36602 78.1594 5.92813 78.6395 5.92813C 78.7113 5.92813 78.87341 5.96406 79.1074 6.10195L79.1074 6.10195L79.4734 6.31797L79.4734 6.31797L79.4734 5.92813C 79.8215 6.05391 80.27151 6.13203 80.4035 6.15586z" stroke="#000000" stroke-width="0.4" fill="none" /><path id="1244" transform="matrix(1 0 0 -1 0 834)" d="M81.3813 8.24414C 81.4895 8.310161 81.6813 8.35781 81.84921 8.35781C 82.34731 8.35781 82.7676 7.96211 82.7676 7.278131C 82.7676 6.58203 82.4492 6.15586 81.9516 6.15586C 81.6336 6.16211 81.4535 6.37188 81.4176 6.49219C 81.3934 6.54609 81.3813 6.60586 81.3813 6.69609zM81.3813 8.42383L81.3813 10.2719C 81.1594 10.1941 80.7934 10.098 80.5113 10.0621L80.5113 10.0621L80.5113 9.92383C 80.8953 9.88789 80.9074 9.851951 80.9074 9.48008L80.9074 9.48008L80.9074 6.14414C 81.2375 5.98789 81.5434 5.92813 81.78951 5.92813C 82.59341 5.92813 83.2953 6.55195 83.2953 7.43398C 83.2953 8.14219 82.7555 8.69414 82.1133 8.69414C 82.0473 8.69414 81.9633 8.67617 81.86761 8.63398z" stroke="#000000" stroke-width="0.4" fill="none" /><path id="1245" transform="matrix(1 0 0 -1 0 834)" d="M89.90701 6L89.90701 6.16211C 89.3613 6.20391 89.3254 6.25195 89.3254 6.68398L89.3254 6.68398L89.3254 9.810161C 88.9953 9.67813 88.641 9.56406 88.257 9.49805L88.257 9.49805L88.257 9.36016L88.257 9.36016L88.5453 9.34805C 88.8094 9.33594 88.8332 9.305861 88.8332 8.99414L88.8332 8.99414L88.8332 6.68398C 88.8332 6.25195 88.8031 6.20391 88.257 6.16211L88.257 6.16211L88.257 6z" stroke="#000000" stroke-width="0.4" fill="none" /><path id="1246" transform="matrix(1 0 0 -1 0 834)" d="M91.3953 9.3L92.7934 9.3L92.7934 9.3L92.9492 9.68984L92.9492 9.68984L92.9133 9.73789L92.9133 9.73789L91.2031 9.73789L91.2031 9.73789L90.9691 7.90781C 91.107 7.96211 91.3352 8.028131 91.5871 8.028131C 92.241 8.028131 92.5652 7.65 92.5652 7.121881C 92.5652 6.67188 92.3133 6.23398 91.8031 6.23398C 91.4371 6.23398 91.191 6.42617 91.0652 6.53984C 91.0051 6.58789 90.957 6.58203 90.9031 6.53984C 90.8371 6.48008 90.7832 6.40195 90.77731 6.34219C 90.7652 6.26992 90.7953 6.22188 90.873 6.13789C 90.9633 6.05391 91.2152 5.92813 91.491 5.92813C 91.8094 5.93398 92.2113 6.08984 92.5352 6.35391C 92.90121 6.65391 93.0691 6.99609 93.0691 7.35586C 93.0691 7.84805 92.67931 8.369921 91.9113 8.369921C 91.7492 8.369921 91.4672 8.273829 91.2391 8.18984z" stroke="#000000" stroke-width="0.4" fill="none" /><path id="1247" transform="matrix(1 0 0 -1 0 834)" d="M94.27541 9.3L95.673 9.3L95.673 9.3L95.82931 9.68984L95.82931 9.68984L95.7934 9.73789L95.7934 9.73789L94.0832 9.73789L94.0832 9.73789L93.84921 7.90781C 93.9871 7.96211 94.2152 8.028131 94.4672 8.028131C 95.1211 8.028131 95.4453 7.65 95.4453 7.121881C 95.4453 6.67188 95.19341 6.23398 94.6832 6.23398C 94.3172 6.23398 94.0711 6.42617 93.9453 6.53984C 93.8852 6.58789 93.8371 6.58203 93.7832 6.53984C 93.7172 6.48008 93.6633 6.40195 93.65701 6.34219C 93.6453 6.26992 93.67541 6.22188 93.75311 6.13789C 93.84341 6.05391 94.0953 5.92813 94.3711 5.92813C 94.6891 5.93398 95.091 6.08984 95.4152 6.35391C 95.7813 6.65391 95.9492 6.99609 95.9492 7.35586C 95.9492 7.84805 95.5594 8.369921 94.791 8.369921C 94.6293 8.369921 94.34731 8.273829 94.1191 8.18984z" stroke="#000000" stroke-width="0.4" fill="none" /><path id="1266" transform="matrix(1 0 0 -1 0 834)" d="M554.472 6.83984C 554.292 6.46211 554.2141 6.43789 553.89 6.43789L553.89 6.43789L552.768 6.43789L552.768 6.43789L553.6201 7.33203C 554.1721 7.91992 554.412 8.273829 554.412 8.79609C 554.412 9.42617 553.932 9.810161 553.404 9.810161C 553.056 9.810161 552.774 9.653911 552.594 9.45586L552.594 9.45586L552.252 8.96992L552.252 8.96992L552.384 8.85C 552.54 9.08398 552.792 9.40781 553.2 9.40781C 553.644 9.40781 553.908 9.11406 553.908 8.61016C 553.908 8.09414 553.53 7.60195 553.158 7.15781C 552.858 6.81016 552.522 6.46797 552.186 6.13789L552.186 6.13789L552.186 6L552.186 6L554.43 6C 554.502 6.26992 554.562 6.53398 554.64 6.78594z" stroke="#000000" stroke-width="0.4" fill="none" /><path id="1267" transform="matrix(1 0 0 -1 0 834)" d="M555.792 9.3L557.19 9.3L557.19 9.3L557.346 9.68984L557.346 9.68984L557.31 9.73789L557.31 9.73789L555.6 9.73789L555.6 9.73789L555.366 7.90781C 555.504 7.96211 555.732 8.028131 555.984 8.028131C 556.638 8.028131 556.962 7.65 556.962 7.121881C 556.962 6.67188 556.71 6.23398 556.2 6.23398C 555.834 6.23398 555.588 6.42617 555.462 6.53984C 555.402 6.58789 555.354 6.58203 555.3 6.53984C 555.234 6.48008 555.18 6.40195 555.174 6.34219C 555.162 6.26992 555.192 6.22188 555.27 6.13789C 555.36 6.05391 555.612 5.92813 555.888 5.92813C 556.206 5.93398 556.608 6.08984 556.932 6.35391C 557.298 6.65391 557.466 6.99609 557.466 7.35586C 557.466 7.84805 557.076 8.369921 556.308 8.369921C 556.146 8.369921 555.864 8.273829 555.636 8.18984z" stroke="#000000" stroke-width="0.4" fill="none" /><path id="1268" transform="matrix(1 0 0 -1 0 834)" d="M559.548 9.989841L559.212 9.989841L559.212 9.989841L557.91 5.73594L557.91 5.73594L558.246 5.73594z" stroke="#000000" stroke-width="0.4" fill="none" /><path id="1269" transform="matrix(1 0 0 -1 0 834)" d="M561.18 9.61211C 561.72 9.61211 561.8701 8.72383 561.8701 7.871881C 561.8701 7.03203 561.726 6.13203 561.186 6.13203C 560.664 6.13203 560.49 7.03789 560.49 7.87813C 560.49 8.712111 560.634 9.61211 561.18 9.61211zM561.186 9.810161C 560.286 9.810161 559.956 8.74219 559.956 7.86602C 559.956 6.91797 560.28 5.92813 561.186 5.92813C 562.086 5.92813 562.404 6.99609 562.404 7.871881C 562.404 8.79609 562.086 9.810161 561.186 9.810161z" stroke="#000000" stroke-width="0.4" fill="none" /><path id="1270" transform="matrix(1 0 0 -1 0 834)" d="M564 9.61211C 564.582 9.61211 564.738 8.86797 564.738 8.33984C 564.738 8.21992 564.732 8.076171 564.7141 7.94414C 564.588 7.84805 564.384 7.77617 564.174 7.77617C 563.67 7.77617 563.3701 8.214061 563.3701 8.74219C 563.3701 9.09609 563.538 9.61211 564 9.61211zM564.078 9.810161C 563.304 9.810161 562.854 9.10781 562.854 8.53203C 562.854 7.90195 563.292 7.43398 563.928 7.43398C 564.042 7.43398 564.156 7.45781 564.288 7.53008L564.288 7.53008L564.69 7.74609C 564.492 6.83398 563.838 6.23398 562.98 6.08984L562.98 6.08984L563.01 5.91016C 563.16 5.91016 563.526 5.96992 563.85 6.10195C 564.66 6.42617 565.2661 7.20586 565.2661 8.310161C 565.2661 9.12617 564.828 9.810161 564.078 9.810161z" stroke="#000000" stroke-width="0.4" fill="none" /><path id="1271" transform="matrix(1 0 0 -1 0 834)" d="M567.294 9.989841L566.958 9.989841L566.958 9.989841L565.656 5.73594L565.656 5.73594L565.992 5.73594z" stroke="#000000" stroke-width="0.4" fill="none" /><path id="1272" transform="matrix(1 0 0 -1 0 834)" d="M569.9641 6.83984C 569.784 6.46211 569.706 6.43789 569.382 6.43789L569.382 6.43789L568.26 6.43789L568.26 6.43789L569.112 7.33203C 569.664 7.91992 569.904 8.273829 569.904 8.79609C 569.904 9.42617 569.424 9.810161 568.896 9.810161C 568.548 9.810161 568.2661 9.653911 568.086 9.45586L568.086 9.45586L567.744 8.96992L567.744 8.96992L567.876 8.85C 568.032 9.08398 568.284 9.40781 568.692 9.40781C 569.136 9.40781 569.4 9.11406 569.4 8.61016C 569.4 8.09414 569.022 7.60195 568.65 7.15781C 568.35 6.81016 568.014 6.46797 567.678 6.13789L567.678 6.13789L567.678 6L567.678 6L569.9221 6C 569.994 6.26992 570.054 6.53398 570.132 6.78594z" stroke="#000000" stroke-width="0.4" fill="none" /><path id="1273" transform="matrix(1 0 0 -1 0 834)" d="M571.806 9.61211C 572.346 9.61211 572.496 8.72383 572.496 7.871881C 572.496 7.03203 572.352 6.13203 571.812 6.13203C 571.29 6.13203 571.116 7.03789 571.116 7.87813C 571.116 8.712111 571.26 9.61211 571.806 9.61211zM571.812 9.810161C 570.912 9.810161 570.582 8.74219 570.582 7.86602C 570.582 6.91797 570.906 5.92813 571.812 5.92813C 572.712 5.92813 573.03 6.99609 573.03 7.871881C 573.03 8.79609 572.712 9.810161 571.812 9.810161z" stroke="#000000" stroke-width="0.4" fill="none" /><path id="1274" transform="matrix(1 0 0 -1 0 834)" d="M575.556 6L575.556 6.16211C 575.01 6.20391 574.9741 6.25195 574.9741 6.68398L574.9741 6.68398L574.9741 9.810161C 574.644 9.67813 574.29 9.56406 573.906 9.49805L573.906 9.49805L573.906 9.36016L573.906 9.36016L574.194 9.34805C 574.458 9.33594 574.482 9.305861 574.482 8.99414L574.482 8.99414L574.482 6.68398C 574.482 6.25195 574.452 6.20391 573.906 6.16211L573.906 6.16211L573.906 6z" stroke="#000000" stroke-width="0.4" fill="none" /><path id="1275" transform="matrix(1 0 0 -1 0 834)" d="M578.814 9.73789L576.522 9.73789C 576.498 9.48008 576.468 9.180079 576.414 8.85L576.414 8.85L576.588 8.85C 576.732 9.24609 576.768 9.3 577.164 9.3L577.164 9.3L578.46 9.3C 577.986 8.25586 577.308 7.01406 576.678 5.99414L576.678 5.99414L576.72 5.92813L576.72 5.92813L577.164 5.98789C 577.74 7.22383 578.298 8.44805 578.862 9.66602z" stroke="#000000" stroke-width="0.4" fill="none" /><path id="1276" transform="matrix(1 0 0 -1 0 834)" d="M584.531 9.61211C 585.071 9.61211 585.221 8.72383 585.221 7.871881C 585.221 7.03203 585.077 6.13203 584.537 6.13203C 584.015 6.13203 583.841 7.03789 583.841 7.87813C 583.841 8.712111 583.985 9.61211 584.531 9.61211zM584.537 9.810161C 583.637 9.810161 583.307 8.74219 583.307 7.86602C 583.307 6.91797 583.631 5.92813 584.537 5.92813C 585.437 5.92813 585.755 6.99609 585.755 7.871881C 585.755 8.79609 585.437 9.810161 584.537 9.810161z" stroke="#000000" stroke-width="0.4" fill="none" /><path id="1277" transform="matrix(1 0 0 -1 0 834)" d="M588.449 6.83984C 588.269 6.46211 588.191 6.43789 587.867 6.43789L587.867 6.43789L586.7451 6.43789L586.7451 6.43789L587.597 7.33203C 588.149 7.91992 588.389 8.273829 588.389 8.79609C 588.389 9.42617 587.909 9.810161 587.381 9.810161C 587.033 9.810161 586.751 9.653911 586.571 9.45586L586.571 9.45586L586.229 8.96992L586.229 8.96992L586.361 8.85C 586.517 9.08398 586.769 9.40781 587.177 9.40781C 587.621 9.40781 587.885 9.11406 587.885 8.61016C 587.885 8.09414 587.507 7.60195 587.135 7.15781C 586.835 6.81016 586.499 6.46797 586.163 6.13789L586.163 6.13789L586.163 6L586.163 6L588.407 6C 588.479 6.26992 588.539 6.53398 588.617 6.78594z" stroke="#000000" stroke-width="0.4" fill="none" /><path id="1278" transform="matrix(1 0 0 -1 0 834)" d="M589.5471 5.92813C 589.739 5.92813 589.883 6.06602 589.883 6.27617C 589.883 6.46797 589.739 6.61797 589.5471 6.61797C 589.355 6.61797 589.211 6.46797 589.211 6.27617C 589.211 6.06602 589.355 5.92813 589.5471 5.92813zM589.541 8.466021C 589.3491 8.466021 589.211 8.328131 589.211 8.13008C 589.211 7.92617 589.3491 7.78203 589.541 7.78203C 589.733 7.78203 589.877 7.92617 589.877 8.13008C 589.877 8.328131 589.733 8.466021 589.541 8.466021z" stroke="#000000" stroke-width="0.4" fill="none" /><path id="1279" transform="matrix(1 0 0 -1 0 834)" d="M592.697 6.83984C 592.517 6.46211 592.439 6.43789 592.115 6.43789L592.115 6.43789L590.993 6.43789L590.993 6.43789L591.845 7.33203C 592.397 7.91992 592.637 8.273829 592.637 8.79609C 592.637 9.42617 592.157 9.810161 591.629 9.810161C 591.281 9.810161 590.999 9.653911 590.819 9.45586L590.819 9.45586L590.477 8.96992L590.477 8.96992L590.609 8.85C 590.765 9.08398 591.017 9.40781 591.425 9.40781C 591.869 9.40781 592.133 9.11406 592.133 8.61016C 592.133 8.09414 591.755 7.60195 591.383 7.15781C 591.083 6.81016 590.747 6.46797 590.411 6.13789L590.411 6.13789L590.411 6L590.411 6L592.655 6C 592.727 6.26992 592.787 6.53398 592.865 6.78594z" stroke="#000000" stroke-width="0.4" fill="none" /><path id="1280" transform="matrix(1 0 0 -1 0 834)" d="M595.788 9.73789L593.496 9.73789C 593.472 9.48008 593.442 9.180079 593.388 8.85L593.388 8.85L593.562 8.85C 593.706 9.24609 593.742 9.3 594.138 9.3L594.138 9.3L595.434 9.3C 594.96 8.25586 594.282 7.01406 593.652 5.99414L593.652 5.99414L593.694 5.92813L593.694 5.92813L594.138 5.98789C 594.7141 7.22383 595.272 8.44805 595.836 9.66602z" stroke="#000000" stroke-width="0.4" fill="none" /><path id="1281" transform="matrix(1 0 0 -1 0 834)" d="M596.675 5.92813C 596.867 5.92813 597.011 6.06602 597.011 6.27617C 597.011 6.46797 596.867 6.61797 596.675 6.61797C 596.483 6.61797 596.3391 6.46797 596.3391 6.27617C 596.3391 6.06602 596.483 5.92813 596.675 5.92813zM596.669 8.466021C 596.477 8.466021 596.3391 8.328131 596.3391 8.13008C 596.3391 7.92617 596.477 7.78203 596.669 7.78203C 596.861 7.78203 597.005 7.92617 597.005 8.13008C 597.005 8.328131 596.861 8.466021 596.669 8.466021z" stroke="#000000" stroke-width="0.4" fill="none" /><path id="1282" transform="matrix(1 0 0 -1 0 834)" d="M597.863 8.976171C 598.013 9.19805 598.253 9.45 598.583 9.45C 598.901 9.45 599.153 9.257811 599.153 8.88594C 599.153 8.44219 598.7451 8.20781 598.1931 8.03398L598.1931 8.03398L598.235 7.86016C 598.331 7.88984 598.475 7.92617 598.619 7.92617C 598.961 7.92617 599.381 7.70391 599.381 7.15195C 599.381 6.55781 599.081 6.23984 598.655 6.23984C 598.313 6.23984 598.067 6.40781 597.911 6.54609C 597.863 6.58789 597.815 6.58203 597.767 6.54609C 597.713 6.50391 597.635 6.42617 597.629 6.34805C 597.617 6.27617 597.6411 6.21016 597.725 6.13203C 597.803 6.06016 598.049 5.92813 598.325 5.92813C 598.757 5.92813 599.897 6.37188 599.897 7.34414C 599.897 7.78203 599.591 8.153911 599.063 8.25586L599.063 8.25586L599.063 8.26797C 599.237 8.38789 599.381 8.49609 599.471 8.59219C 599.585 8.70586 599.657 8.84414 599.657 9.01797C 599.657 9.47383 599.303 9.810161 598.763 9.810161C 598.445 9.810161 598.169 9.66016 598.001 9.47383L598.001 9.47383L597.737 9.09609z" stroke="#000000" stroke-width="0.4" fill="none" /><path id="1283" transform="matrix(1 0 0 -1 0 834)" d="M601.913 7.35L600.731 7.35C 601.127 8.016021 601.517 8.58594 601.901 9.119921L601.901 9.119921L601.913 9.119921zM602.969 7.06797L602.969 7.35L602.969 7.35L602.393 7.35L602.393 7.35L602.393 9.79219L602.393 9.79219L602.153 9.79219C 601.535 8.976171 600.923 8.08789 600.353 7.23594L600.353 7.23594L600.353 7.06797L600.353 7.06797L601.913 7.06797L601.913 7.06797L601.913 6.63594C 601.913 6.23984 601.889 6.20391 601.367 6.16211L601.367 6.16211L601.367 6L601.367 6L602.903 6L602.903 6L602.903 6.16211C 602.417 6.20391 602.393 6.23398 602.393 6.63594L602.393 6.63594L602.393 7.06797z" stroke="#000000" stroke-width="0.4" fill="none" /><path id="1284" transform="matrix(1 0 0 -1 0 834)" d="M605.489 8.08203C 605.651 8.20195 605.897 8.33398 606.0891 8.33398C 606.527 8.33398 606.893 7.97383 606.893 7.33203C 606.893 6.65391 606.557 6.22188 606.053 6.22188C 605.8491 6.22188 605.621 6.31797 605.489 6.45586zM605.489 8.28008L605.489 8.75391C 605.207 8.63984 604.871 8.53789 604.619 8.49609L604.619 8.49609L604.619 8.351951C 604.991 8.30391 605.015 8.29219 605.015 7.90195L605.015 7.90195L605.015 5.18984C 605.015 4.79414 604.961 4.75781 604.577 4.72188L604.577 4.72188L604.577 4.56016L604.577 4.56016L605.999 4.56016L605.999 4.56016L605.999 4.72188C 605.531 4.76406 605.489 4.79414 605.489 5.25L605.489 5.25L605.489 6.03594C 605.567 5.99414 605.729 5.93398 605.903 5.92813C 606.683 6.07188 607.397 6.65391 607.397 7.56016C 607.397 8.153911 607.001 8.69414 606.335 8.69414C 606.263 8.69414 606.149 8.664061 606.041 8.60391z" stroke="#000000" stroke-width="0.4" fill="none" /><path id="1285" transform="matrix(1 0 0 -1 0 834)" d="M608.303 5.92813C 608.4951 5.92813 608.639 6.06602 608.639 6.27617C 608.639 6.46797 608.4951 6.61797 608.303 6.61797C 608.111 6.61797 607.967 6.46797 607.967 6.27617C 607.967 6.06602 608.111 5.92813 608.303 5.92813z" stroke="#000000" stroke-width="0.4" fill="none" /><path id="1286" transform="matrix(1 0 0 -1 0 834)" d="M615.125 6L615.125 6.15586C 614.783 6.19219 614.735 6.21602 614.735 6.61797L614.735 6.61797L614.735 7.77617C 614.735 8.36406 614.441 8.69414 613.973 8.69414C 613.805 8.69414 613.649 8.621881 613.523 8.53789C 613.373 8.44805 613.199 8.33398 613.025 8.20195C 612.905 8.51406 612.647 8.69414 612.359 8.69414C 612.167 8.69414 612.023 8.628131 611.867 8.53203C 611.687 8.417971 611.555 8.310161 611.429 8.226171L611.429 8.226171L611.429 8.712111C 611.165 8.59219 610.859 8.51406 610.595 8.466021L610.595 8.466021L610.595 8.328131C 610.9431 8.273829 610.961 8.24414 610.961 7.86016L610.961 7.86016L610.961 6.61797C 610.961 6.22813 610.907 6.19219 610.511 6.15586L610.511 6.15586L610.511 6L610.511 6L611.777 6L611.777 6L611.777 6.15586C 611.483 6.19219 611.435 6.22813 611.435 6.61797L611.435 6.61797L611.435 8.028131C 611.615 8.17813 611.8491 8.33984 612.0891 8.33984C 612.455 8.33984 612.611 8.09414 612.611 7.65L612.611 7.65L612.611 6.61797C 612.611 6.22188 612.557 6.19219 612.185 6.15586L612.185 6.15586L612.185 6L612.185 6L613.469 6L613.469 6L613.469 6.15586C 613.139 6.19219 613.085 6.22813 613.085 6.60586L613.085 6.60586L613.085 7.77617C 613.085 7.88984 613.079 7.95586 613.067 8.028131C 613.295 8.21992 613.523 8.33984 613.739 8.33984C 614.117 8.33984 614.267 8.069921 614.267 7.64414L614.267 7.64414L614.267 6.64219C 614.267 6.21602 614.201 6.19219 613.847 6.15586L613.847 6.15586L613.847 6z" stroke="#000000" stroke-width="0.4" fill="none" /><path id="1287" transform="matrix(1 0 0 -1 0 834)" d="M615.947 5.92813C 616.139 5.92813 616.283 6.06602 616.283 6.27617C 616.283 6.46797 616.139 6.61797 615.947 6.61797C 615.755 6.61797 615.611 6.46797 615.611 6.27617C 615.611 6.06602 615.755 5.92813 615.947 5.92813z" stroke="#000000" stroke-width="0.4" fill="none" /></g></g></svg>