<svg xmlns="http://www.w3.org/2000/svg" xmlns:xlink="http://www.w3.org/1999/xlink" id="body_1" preserveAspectRatio="xMinYMin meet" viewBox="0 0 872 1112"><defs><clipPath id="1"><path id="" clip-rule="evenodd" transform="matrix(1 0 0 1 0 0)" d="M0 834L0 0L0 0L654 0L654 0L654 834L654 834L0 834z" /></clipPath><clipPath id="2"><path id="" clip-rule="evenodd" transform="matrix(1 0 0 1 0 0)" d="M21 813L633 813L633 813L633 21L633 21L21 21z" /></clipPath><clipPath id="3"><path id="" clip-rule="evenodd" transform="matrix(1 0 0 1 0 0)" d="M193.947 702.27L279.1931 702.27L279.1931 702.27L279.1931 567.862L279.1931 567.862L193.947 567.862z" /></clipPath><clipPath id="4"><path id="" clip-rule="evenodd" transform="matrix(1 0 0 1 0 0)" d="M193.947 702.27L279.1931 702.27L279.1931 702.27L279.1931 567.862L279.1931 567.862L193.947 567.862z" /></clipPath><clipPath id="5"><path id="" clip-rule="evenodd" transform="matrix(1 0 0 1 0 0)" d="M193.947 702.726L324.568 702.726L324.568 702.726L324.568 567.862L324.568 567.862L193.947 567.862z" /></clipPath><clipPath id="6"><path id="" clip-rule="evenodd" transform="matrix(1 0 0 1 0 0)" d="M287.601 644.76C 278.133 647.179 270.52 654.236 267.324 663.367L267.324 663.367L267.324 663.367L267.324 663.367L267.324 682.626C 271.301 693.99 282.118 702.139 294.838 702.139L294.838 702.139L294.838 702.139C 310.933 702.139 323.981 689.092 323.981 672.996L323.981 672.996L323.981 672.996C 323.981 659.4 314.669 647.978 302.075 644.76L302.075 644.76L302.075 644.76z" /></clipPath><clipPath id="7"><path id="" clip-rule="evenodd" transform="matrix(1 0 0 1 0 0)" d="M287.601 644.76C 278.133 647.179 270.52 654.236 267.324 663.367L267.324 663.367L267.324 663.367L267.324 663.367L267.324 682.626C 271.301 693.99 282.118 702.139 294.838 702.139L294.838 702.139L294.838 702.139C 310.933 702.139 323.981 689.092 323.981 672.996L323.981 672.996L323.981 672.996C 323.981 659.4 314.669 647.978 302.075 644.76L302.075 644.76L302.075 644.76z" /></clipPath><clipPath id="8"><path id="" clip-rule="evenodd" transform="matrix(1 0 0 1 0 0)" d="M193.947 702.726L324.568 702.726L324.568 702.726L324.568 567.862L324.568 567.862L193.947 567.862z" /></clipPath><clipPath id="9"><path id="" clip-rule="evenodd" transform="matrix(1 0 0 1 0 0)" d="M294.616 664.639L296.6691 664.639L296.6691 664.639L296.6691 663.2511L296.6691 663.2511L294.616 663.2511z" /></clipPath><clipPath id="10"><path id="" clip-rule="evenodd" transform="matrix(1 0 0 1 0 0)" d="M294.616 664.639L296.669 664.639L296.669 664.639L296.669 663.251L296.669 663.251L294.616 663.251z" /></clipPath><clipPath id="11"><path id="" clip-rule="evenodd" transform="matrix(1 0 0 1 0 0)" d="M294.616 664.639L296.6691 664.639L296.6691 664.639L296.6691 663.2511L296.6691 663.2511L294.616 663.2511z" /></clipPath><clipPath id="12"><path id="" clip-rule="evenodd" transform="matrix(1 0 0 1 0 0)" d="M294.616 664.639L296.6699 664.639L296.6699 664.639L296.6699 663.2511L296.6699 663.2511L294.616 663.2511z" /></clipPath><clipPath id="13"><path id="" clip-rule="evenodd" transform="matrix(1 0 0 1 0 0)" d="M294.372 668.083L296.415 668.083L296.415 668.083L296.415 666.633L296.415 666.633L294.372 666.633z" /></clipPath><clipPath id="14"><path id="" clip-rule="evenodd" transform="matrix(1 0 0 1 0 0)" d="M294.372 668.083L296.415 668.083L296.415 668.083L296.415 666.633L296.415 666.633L294.372 666.633z" /></clipPath><clipPath id="15"><path id="" clip-rule="evenodd" transform="matrix(1 0 0 1 0 0)" d="M294.372 668.083L296.415 668.083L296.415 668.083L296.415 666.633L296.415 666.633L294.372 666.633z" /></clipPath><clipPath id="16"><path id="" clip-rule="evenodd" transform="matrix(1 0 0 1 0 0)" d="M291.759 663.102L292.87 663.102L292.87 663.102L292.87 661.045L292.87 661.045L291.759 661.045z" /></clipPath><clipPath id="17"><path id="" clip-rule="evenodd" transform="matrix(1 0 0 1 0 0)" d="M291.759 663.102L292.87 663.102L292.87 663.102L292.87 661.045L292.87 661.045L291.759 661.045z" /></clipPath><clipPath id="18"><path id="" clip-rule="evenodd" transform="matrix(1 0 0 1 0 0)" d="M291.759 663.102L292.87 663.102L292.87 663.102L292.87 661.045L292.87 661.045L291.759 661.045z" /></clipPath><clipPath id="19"><path id="" clip-rule="evenodd" transform="matrix(1 0 0 1 0 0)" d="M291.759 663.102L292.8692 663.102L292.8692 663.102L292.8692 661.045L292.8692 661.045L291.759 661.045z" /></clipPath><clipPath id="20"><path id="" clip-rule="evenodd" transform="matrix(1 0 0 1 0 0)" d="M352.796 584.144L395.1718 584.144L395.1718 584.144L395.1718 549.4788L395.1718 549.4788L352.796 549.4788z" /></clipPath><clipPath id="21"><path id="" clip-rule="evenodd" transform="matrix(1 0 0 1 0 0)" d="M352.796 584.144L395.1718 584.144L395.1718 584.144L395.1718 549.4788L395.1718 549.4788L352.796 549.4788z" /></clipPath><clipPath id="22"><path id="" clip-rule="evenodd" transform="matrix(1 0 0 1 0 0)" d="M165.173 611.285L190.7699 611.285L190.7699 611.285L190.7699 575.4268L190.7699 575.4268L165.173 575.4268z" /></clipPath><clipPath id="23"><path id="" clip-rule="evenodd" transform="matrix(1 0 0 1 0 0)" d="M165.173 611.285L190.7699 611.285L190.7699 611.285L190.7699 575.4268L190.7699 575.4268L165.173 575.4268z" /></clipPath><clipPath id="24"><path id="" clip-rule="evenodd" transform="matrix(1 0 0 1 0 0)" d="M174.933 268.405L273.3521 268.405L273.3521 268.405L273.3521 131.9019L273.3521 131.9019L174.933 131.9019z" /></clipPath><clipPath id="25"><path id="" clip-rule="evenodd" transform="matrix(1 0 0 1 0 0)" d="M174.933 268.405L273.3521 268.405L273.3521 268.405L273.3521 131.9019L273.3521 131.9019L174.933 131.9019z" /></clipPath><clipPath id="26"><path id="" clip-rule="evenodd" transform="matrix(1 0 0 1 0 0)" d="M174.933 268.405L302.939 268.405L302.939 268.405L302.939 131.9019L302.939 131.9019L174.933 131.9019z" /></clipPath><clipPath id="27"><path id="" clip-rule="evenodd" transform="matrix(1 0 0 1 0 0)" d="M263.784 214.231C 260.24 215.767 257.082 218.025 254.497 220.82L254.497 220.82L254.497 220.82L254.497 220.82L254.497 258.215C 259.529 263.656 266.728 267.061 274.723 267.061L274.723 267.061L274.723 267.061C 289.935 267.061 302.267 254.729 302.267 239.518L302.267 239.518L302.267 239.518C 302.267 228.193 295.431 218.464 285.663 214.231L285.663 214.231L285.663 214.231z" /></clipPath><clipPath id="28"><path id="" clip-rule="evenodd" transform="matrix(1 0 0 1 0 0)" d="M263.784 214.231C 260.24 215.767 257.082 218.025 254.497 220.82L254.497 220.82L254.497 220.82L254.497 220.82L254.497 258.215C 259.529 263.656 266.728 267.061 274.723 267.061L274.723 267.061L274.723 267.061C 289.935 267.061 302.267 254.729 302.267 239.518L302.267 239.518L302.267 239.518C 302.267 228.193 295.431 218.464 285.663 214.231L285.663 214.231L285.663 214.231z" /></clipPath><clipPath id="29"><path id="" clip-rule="evenodd" transform="matrix(1 0 0 1 0 0)" d="M174.933 268.405L302.939 268.405L302.939 268.405L302.939 131.9019L302.939 131.9019L174.933 131.9019z" /></clipPath><clipPath id="30"><path id="" clip-rule="evenodd" transform="matrix(1 0 0 1 0 0)" d="M352.796 163.135L395.1718 163.135L395.1718 163.135L395.1718 117.901L395.1718 117.901L352.796 117.901z" /></clipPath><clipPath id="31"><path id="" clip-rule="evenodd" transform="matrix(1 0 0 1 0 0)" d="M352.796 163.135L395.1718 163.135L395.1718 163.135L395.1718 117.901L395.1718 117.901L352.796 117.901z" /></clipPath><clipPath id="32"><path id="" clip-rule="evenodd" transform="matrix(1 0 0 1 0 0)" d="M140.055 184.059L165.6519 184.059L165.6519 184.059L165.6519 148.2012L165.6519 148.2012L140.055 148.2012z" /></clipPath><clipPath id="33"><path id="" clip-rule="evenodd" transform="matrix(1 0 0 1 0 0)" d="M140.055 184.059L165.6519 184.059L165.6519 184.059L165.6519 148.2012L165.6519 148.2012L140.055 148.2012z" /></clipPath><clipPath id="34"><path id="" clip-rule="evenodd" transform="matrix(1 0 0 1 0 0)" d="M258.259 184.059L283.8559 184.059L283.8559 184.059L283.8559 148.2012L283.8559 148.2012L258.259 148.2012z" /></clipPath><clipPath id="35"><path id="" clip-rule="evenodd" transform="matrix(1 0 0 1 0 0)" d="M258.259 184.059L283.8559 184.059L283.8559 184.059L283.8559 148.2012L283.8559 148.2012L258.259 148.2012z" /></clipPath><clipPath id="36"><path id="" clip-rule="evenodd" transform="matrix(1 0 0 1 0 0)" d="M159.94 485.103L298.372 485.103L298.372 485.103L298.372 351.303L298.372 351.303L159.94 351.303z" /></clipPath><clipPath id="37"><path id="" clip-rule="evenodd" transform="matrix(1 0 0 1 0 0)" d="M192.705 432.268L227.7058 432.268L227.7058 432.268L227.7058 424.677L227.7058 424.677L192.705 424.677z" /></clipPath><clipPath id="38"><path id="" clip-rule="evenodd" transform="matrix(1 0 0 1 0 0)" d="M192.705 432.268L227.706 432.268L227.706 432.268L227.706 424.677L227.706 424.677L192.705 424.677z" /></clipPath><clipPath id="39"><path id="" clip-rule="evenodd" transform="matrix(1 0 0 1 0 0)" d="M192.705 432.268L227.7058 432.268L227.7058 432.268L227.7058 424.677L227.7058 424.677L192.705 424.677z" /></clipPath><clipPath id="40"><path id="" clip-rule="evenodd" transform="matrix(1 0 0 1 0 0)" d="M159.94 485.103L298.372 485.103L298.372 485.103L298.372 351.303L298.372 351.303L159.94 351.303z" /></clipPath><clipPath id="41"><path id="" clip-rule="evenodd" transform="matrix(1 0 0 1 0 0)" d="M251.992 455.284L251.992 464.816C 254.189 475.301 263.488 483.176 274.626 483.176L274.626 483.176L274.626 483.176C 287.399 483.176 297.752 472.822 297.752 460.05L297.752 460.05L297.752 460.05C 297.752 447.277 287.399 436.924 274.626 436.924L274.626 436.924L274.626 436.924C 263.488 436.924 254.189 444.799 251.992 455.284" /></clipPath><clipPath id="42"><path id="" clip-rule="evenodd" transform="matrix(1 0 0 1 0 0)" d="M251.992 455.284L251.992 464.816C 254.189 475.301 263.488 483.176 274.626 483.176L274.626 483.176L274.626 483.176C 287.399 483.176 297.752 472.822 297.752 460.05L297.752 460.05L297.752 460.05C 297.752 447.277 287.399 436.924 274.626 436.924L274.626 436.924L274.626 436.924C 263.488 436.924 254.189 444.799 251.992 455.284" /></clipPath><clipPath id="43"><path id="" clip-rule="evenodd" transform="matrix(1 0 0 1 0 0)" d="M159.94 485.103L298.372 485.103L298.372 485.103L298.372 351.303L298.372 351.303L159.94 351.303z" /></clipPath><clipPath id="44"><path id="" clip-rule="evenodd" transform="matrix(1 0 0 1 0 0)" d="M352.796 382.536L395.1718 382.536L395.1718 382.536L395.1718 337.302L395.1718 337.302L352.796 337.302z" /></clipPath><clipPath id="45"><path id="" clip-rule="evenodd" transform="matrix(1 0 0 1 0 0)" d="M352.796 382.536L395.1718 382.536L395.1718 382.536L395.1718 337.302L395.1718 337.302L352.796 337.302z" /></clipPath><clipPath id="46"><path id="" clip-rule="evenodd" transform="matrix(1 0 0 1 0 0)" d="M152.853 395.777L178.4499 395.777L178.4499 395.777L178.4499 359.918L178.4499 359.918L152.853 359.918z" /></clipPath><clipPath id="47"><path id="" clip-rule="evenodd" transform="matrix(1 0 0 1 0 0)" d="M152.853 395.777L178.4499 395.777L178.4499 395.777L178.4499 359.918L178.4499 359.918L152.853 359.918z" /></clipPath><clipPath id="48"><path id="" clip-rule="evenodd" transform="matrix(1 0 0 1 0 0)" d="M271.058 395.777L296.6549 395.777L296.6549 395.777L296.6549 359.918L296.6549 359.918L271.058 359.918z" /></clipPath><clipPath id="49"><path id="" clip-rule="evenodd" transform="matrix(1 0 0 1 0 0)" d="M271.058 395.777L296.6549 395.777L296.6549 395.777L296.6549 359.918L296.6549 359.918L271.058 359.918z" /></clipPath></defs><g transform="matrix(1.333333 0 0 1.333333 0 0)"><g clip-path="url(#1)"><g clip-path="url(#2)"><path id="1" transform="matrix(1 0 0 -1 0 834)" d="M91.866 67.4211L562.134 67.4211L562.134 74.92501L91.866 74.92501z" stroke="none" fill="#686868" fill-rule="nonzero" /><path id="2" transform="matrix(1 0 0 -1 0 834)" d="M91.866 526.984L562.134 526.984" stroke="#686868" stroke-width="1" fill="none" /><path id="3" transform="matrix(1 0 0 -1 0 834)" d="M91.866 307.016L562.134 307.016" stroke="#686868" stroke-width="1" fill="none" /></g><g clip-path="url(#3)"></g><g clip-path="url(#4)"><g transform="matrix(1.002895 0 0 1.000444 193.947 567.21)"><g transform="matrix(1 0 0 1 0 0)"><image x="0" y="0" xlink:href="img_01.png" width="85" height="135" /></g></g></g><path id="342" transform="matrix(1 0 0 -1 0 834)" d="M215.24 226.339L223.765 232.341" stroke="none" fill="#FFFFFF" fill-rule="nonzero" /><path id="343" transform="matrix(1 0 0 -1 0 834)" d="M215.24 226.339L222.173 231.22" stroke="#000000" stroke-width="0.652" fill="none" /><path id="344" transform="matrix(1 0 0 -1 0 834)" d="M222.12 229.705L221.844 230.988L220.729 231.681L223.766 232.341z" stroke="none" fill="#000000" fill-rule="nonzero" /><g clip-path="url(#5)"><path id="345" transform="matrix(1 0 0 -1 0 834)" d="M265.696 161.003C 265.696 144.908 278.744 131.861 294.838 131.861C 310.933 131.861 323.981 144.908 323.981 161.003C 323.981 177.098 310.933 190.145 294.838 190.145C 278.744 190.145 265.696 177.098 265.696 161.003" stroke="none" fill="#FFFFFF" fill-rule="nonzero" /></g><g clip-path="url(#6)"></g><g clip-path="url(#7)"><g transform="matrix(1.010821 0 0 0.999984 267.324 644.7594)"><g transform="matrix(1 0 0 1 0 0)"><image x="0" y="0" xlink:href="img_02.png" width="58" height="87" /></g></g></g><g clip-path="url(#8)"><path id="347" transform="matrix(1 0 0 -1 0 834)" d="M265.696 161.003C 265.696 144.908 278.744 131.861 294.838 131.861C 310.933 131.861 323.981 144.908 323.981 161.003C 323.981 177.098 310.933 190.145 294.838 190.145C 278.744 190.145 265.696 177.098 265.696 161.003z" stroke="#000000" stroke-width="0.652" fill="none" /></g><g clip-path="url(#9)"><g><g clip-path="url(#10)"><g clip-path="url(#11)"><path id="348" transform="matrix(1 0 0 -1 0 834)" d="M294.748 169.66L296.538 170.451" stroke="none" fill="#FFFFFF" fill-rule="nonzero" fill-opacity="0.8" /></g><g clip-path="url(#12)"><path id="349" transform="matrix(1 0 0 -1 0 834)" d="M294.748 169.66L296.538 170.451" stroke="#FFFFFF" stroke-width="0.652" fill="none" stroke-opacity="0.8" /></g></g></g></g><g clip-path="url(#13)"><g><g clip-path="url(#14)"><g clip-path="url(#15)"><path id="350" transform="matrix(1 0 0 -1 0 834)" d="M296.272 166.21L294.515 167.074" stroke="none" fill="#FFFFFF" fill-rule="nonzero" fill-opacity="0.8" /><path id="351" transform="matrix(1 0 0 -1 0 834)" d="M294.515 167.074L296.271 166.21" stroke="#FFFFFF" stroke-width="0.652" fill="none" stroke-opacity="0.8" /></g></g></g></g><g clip-path="url(#16)"><g><g clip-path="url(#17)"><g clip-path="url(#18)"><path id="352" transform="matrix(1 0 0 -1 0 834)" d="M292.076 170.977L292.552 172.875" stroke="none" fill="#FFFFFF" fill-rule="nonzero" fill-opacity="0.8" /></g><g clip-path="url(#19)"><path id="353" transform="matrix(1 0 0 -1 0 834)" d="M292.076 170.977L292.552 172.875" stroke="#FFFFFF" stroke-width="0.652" fill="none" stroke-opacity="0.8" /></g></g></g></g><g clip-path="url(#20)"></g><g clip-path="url(#21)"><g transform="matrix(1.008969 0 0 1.019562 352.797 549.4789)"><g transform="matrix(1 0 0 1 0 0)"><image x="0" y="0" xlink:href="img_03.png" width="42" height="34" /></g></g></g><g clip-path="url(#22)"></g><g clip-path="url(#23)"><g transform="matrix(1.022789 0 0 0.9967948 164.165 574.4128)"><g transform="matrix(1 0 0 1 0 0)"><image x="0" y="0" xlink:href="img_04.png" width="27" height="38" /></g></g></g><g clip-path="url(#24)"></g><g clip-path="url(#25)"><g transform="matrix(1.004286 0 0 1.003706 174.933 131.9009)"><g transform="matrix(1 0 0 1 0 0)"><image x="0" y="0" xlink:href="img_05.png" width="98" height="136" /></g></g></g><g clip-path="url(#26)"><path id="437" transform="matrix(1 0 0 -1 0 834)" d="M247.179 594.483C 247.179 579.271 259.511 566.939 274.723 566.939C 289.935 566.939 302.266 579.271 302.266 594.483C 302.266 609.695 289.935 622.027 274.723 622.027C 259.511 622.027 247.179 609.695 247.179 594.483" stroke="none" fill="#FFFFFF" fill-rule="nonzero" /></g><g clip-path="url(#27)"></g><g clip-path="url(#28)"><g transform="matrix(1.001617 0 0 1.003307 254.497 214.2309)"><g transform="matrix(1 0 0 1 0 0)"><image x="0" y="0" xlink:href="img_06.png" width="52" height="72" /></g></g></g><g clip-path="url(#29)"><path id="439" transform="matrix(1 0 0 -1 0 834)" d="M247.179 594.483C 247.179 579.271 259.511 566.939 274.723 566.939C 289.935 566.939 302.266 579.271 302.266 594.483C 302.266 609.695 289.935 622.027 274.723 622.027C 259.511 622.027 247.179 609.695 247.179 594.483z" stroke="#000000" stroke-width="0.747" fill="none" /><path id="440" transform="matrix(1 0 0 -1 0 834)" d="M189.227 635.11C 189.706 634.398 190.125 633.43 190.46 632.272C 190.46 632.27 190.461 632.268 190.461 632.2661C 190.486 632.182 190.51 632.096 190.533 632.01C 190.539 631.989 190.544 631.969 190.55 631.948C 190.568 631.881 190.586 631.813 190.603 631.744C 190.614 631.702 190.624 631.661 190.635 631.619C 190.647 631.571 190.658 631.523 190.67 631.475C 190.686 631.409 190.701 631.342 190.717 631.275C 190.722 631.251 190.728 631.227 190.733 631.202C 191.115 629.509 191.327 627.539 191.327 625.482C 191.327 621.301 190.431 617.434 189.043 615.5991C 189.325 615.317 189.619 615.083 189.923 614.904C 191.539 616.2241 192.723 620.368 192.723 625.2661C 192.723 630.164 191.539 634.308 189.923 635.628C 189.683 635.486 189.451 635.312 189.227 635.11" stroke="none" fill="#060606" fill-rule="nonzero" /><path id="441" transform="matrix(1 0 0 -1 0 834)" d="M186.837 619.616C 186.994 619.111 187.173 618.632 187.37 618.184C 187.174 618.633 186.996 619.114 186.838 619.622" stroke="none" fill="#060606" fill-rule="nonzero" /><path id="442" transform="matrix(1 0 0 -1 0 834)" d="M187.561 615.011C 187.65 614.929 187.74 614.855 187.831 614.791L187.831 614.791L187.831 614.791C 188.132 614.581 188.49 614.469 188.802 614.4641C 189.106 614.469 189.41 614.574 189.708 614.78C 188.474 615.557 187.431 617.116 186.739 619.213L186.739 619.213L186.352 617.637L186.352 617.637L185.697 618.686C 186.169 617.011 186.815 615.719 187.561 615.011" stroke="none" fill="#060606" fill-rule="nonzero" /><path id="443" transform="matrix(1 0 0 -1 0 834)" d="M185.514 619.389L186.263 618.188L186.263 618.188L186.716 620.032L186.716 620.032L186.716 620.032L186.716 620.032L187.63 623.764L187.63 623.764L185.961 622.783L185.961 622.783L185.932 623.05L185.932 623.05L185.934 623.051C 185.859 623.777 185.819 624.521 185.819 625.2661C 185.819 630.03 187.411 634.3 189.708 635.752C 189.407 635.959 189.102 636.064 188.797 636.0681C 188.616 636.064 188.435 636.027 188.257 635.953C 187.737 635.737 187.116 635.199 186.55 634.197C 185.709 632.561 185.111 630.063 184.928 627.178C 184.896 626.578 184.879 625.942 184.879 625.2661C 184.879 624.434 184.914 623.604 184.982 622.801L184.982 622.801L184.978 622.801L184.978 622.801L184.985 622.616L184.985 622.616L183.233 623.0471L183.233 623.0471L185.513 619.395C 185.513 619.393 185.514 619.3911 185.514 619.389" stroke="none" fill="#060606" fill-rule="nonzero" /><path id="444" transform="matrix(1 0 0 -1 0 834)" d="M192.67 629.196C 192.217 632.429 191.216 634.925 189.975 635.842C 191.214 634.875 192.212 632.3911 192.67 629.196" stroke="none" fill="#060606" fill-rule="nonzero" /><path id="445" transform="matrix(1 0 0 -1 0 834)" d="M182.764 623.386L185.317 619.296C 185.888 617.013 186.77 615.317 187.759 614.61L187.759 614.61L187.759 614.609C 187.783 614.592 187.808 614.58 187.833 614.564C 188.141 614.359 188.46 614.246 188.782 614.246C 188.79 614.246 188.799 614.247 188.808 614.248C 188.812 614.248 188.817 614.246 188.822 614.246C 188.854 614.246 188.886 614.251 188.918 614.253C 188.924 614.253 188.93 614.254 188.937 614.254C 191.155 614.418 192.941 619.293 192.941 625.2661C 192.941 626.65 192.845 627.975 192.67 629.196C 192.212 632.3911 191.214 634.874 189.975 635.842C 189.644 636.1 189.296 636.251 188.937 636.278C 188.93 636.278 188.924 636.278 188.917 636.279C 188.885 636.281 188.854 636.285 188.822 636.285C 188.816 636.285 188.809 636.285 188.803 636.285C 188.796 636.285 188.789 636.285 188.782 636.285C 186.511 636.285 184.663 631.342 184.663 625.2661C 184.663 624.483 184.695 623.704 184.755 622.945M183.231 623.0471L183.234 623.0471L183.234 623.0471L184.985 622.616L184.985 622.616L184.979 622.8L184.979 622.8L184.983 622.801C 184.914 623.604 184.88 624.433 184.88 625.2661C 184.88 625.942 184.897 626.578 184.929 627.178C 185.111 630.615 185.78 632.835 186.55 634.196C 187.117 635.199 187.737 635.737 188.258 635.953C 188.435 636.026 188.617 636.064 188.797 636.067C 189.102 636.064 189.408 635.959 189.708 635.751C 187.411 634.3 185.819 630.029 185.819 625.2661C 185.819 624.52 185.859 623.776 185.934 623.051L185.934 623.051L185.933 623.05L185.933 623.05L185.961 622.782L185.961 622.782L187.631 623.763L187.631 623.763L186.716 620.032L186.716 620.032L186.716 620.032L186.716 620.032L186.264 618.188L186.264 618.188L185.514 619.389zM188.892 615.759C 188.317 616.382 187.8 617.209 187.37 618.184C 187.173 618.632 186.994 619.11 186.837 619.616L186.837 619.616L186.839 619.621L186.839 619.621L186.927 619.981L186.927 619.981L187.963 624.207L187.963 624.207L186.141 623.168C 186.072 623.857 186.036 624.56 186.036 625.2661C 186.036 629.409 187.245 633.163 189.066 634.958C 190.328 633.0471 191.111 629.431 191.111 625.483C 191.111 621.366 190.241 617.569 188.892 615.759M185.694 618.692L185.697 618.686L185.697 618.686L186.352 617.637L186.352 617.637L186.738 619.2141C 187.431 617.117 188.474 615.557 189.708 614.78C 189.41 614.574 189.105 614.469 188.802 614.465C 188.49 614.469 188.131 614.582 187.831 614.792C 187.74 614.856 187.65 614.93 187.561 615.012C 186.83 615.685 186.178 616.956 185.694 618.692M192.724 625.2661C 192.724 620.368 191.54 616.2241 189.923 614.904C 189.62 615.083 189.326 615.317 189.044 615.5991C 190.432 617.434 191.327 621.301 191.327 625.483C 191.327 627.54 191.115 629.509 190.734 631.202C 190.728 631.227 190.723 631.251 190.717 631.275C 190.702 631.342 190.686 631.409 190.671 631.475C 190.659 631.523 190.647 631.571 190.636 631.619C 190.625 631.661 190.615 631.703 190.604 631.744C 190.586 631.813 190.569 631.881 190.55 631.949C 190.545 631.969 190.539 631.989 190.534 632.01C 190.51 632.096 190.486 632.182 190.462 632.2661C 190.461 632.268 190.461 632.27 190.46 632.272C 190.129 633.413 189.713 634.384 189.227 635.11C 189.227 635.11 189.227 635.11 189.228 635.11C 189.451 635.312 189.683 635.486 189.923 635.628C 191.54 634.308 192.724 630.164 192.724 625.2661" stroke="none" fill="#FFFFFF" fill-rule="nonzero" /><path id="446" transform="matrix(1 0 0 -1 0 834)" d="M205.575 626.528C 206.054 625.816 206.473 624.848 206.808 623.69C 206.808 623.688 206.809 623.686 206.809 623.684C 206.834 623.6 206.858 623.514 206.881 623.428C 206.887 623.407 206.892 623.387 206.898 623.366C 206.916 623.299 206.934 623.231 206.951 623.162C 206.962 623.1201 206.972 623.078 206.983 623.037C 206.995 622.989 207.006 622.941 207.018 622.893C 207.034 622.827 207.049 622.76 207.065 622.6931C 207.07 622.669 207.076 622.645 207.081 622.6201C 207.463 620.927 207.675 618.957 207.675 616.9C 207.675 612.719 206.779 608.852 205.391 607.017C 205.673 606.735 205.967 606.501 206.271 606.322C 207.887 607.642 209.071 611.786 209.071 616.684C 209.071 621.582 207.887 625.726 206.271 627.045C 206.031 626.904 205.799 626.73 205.575 626.528" stroke="none" fill="#060606" fill-rule="nonzero" /><path id="447" transform="matrix(1 0 0 -1 0 834)" d="M203.184 611.033C 203.341 610.528 203.52 610.049 203.717 609.601C 203.521 610.05 203.343 610.531 203.185 611.039" stroke="none" fill="#060606" fill-rule="nonzero" /><path id="448" transform="matrix(1 0 0 -1 0 834)" d="M203.908 606.429C 203.997 606.347 204.087 606.273 204.178 606.209L204.178 606.209L204.178 606.209C 204.478 605.999 204.837 605.887 205.149 605.882C 205.453 605.887 205.757 605.992 206.055 606.198C 204.821 606.975 203.778 608.534 203.086 610.631L203.086 610.631L202.699 609.055L202.699 609.055L202.044 610.104C 202.516 608.429 203.162 607.137 203.908 606.429" stroke="none" fill="#060606" fill-rule="nonzero" /><path id="449" transform="matrix(1 0 0 -1 0 834)" d="M201.862 610.806L202.611 609.605L202.611 609.605L203.064 611.449L203.064 611.449L203.978 615.181L203.978 615.181L202.309 614.2L202.309 614.2L202.28 614.467L202.28 614.467L202.282 614.468C 202.207 615.194 202.167 615.938 202.167 616.683C 202.167 621.447 203.759 625.717 206.056 627.169C 205.755 627.376 205.45 627.481 205.145 627.485C 204.964 627.481 204.783 627.4431 204.605 627.3701C 204.085 627.154 203.464 626.616 202.898 625.614C 202.057 623.978 201.459 621.48 201.276 618.595C 201.244 617.9951 201.227 617.359 201.227 616.683C 201.227 615.85 201.262 615.021 201.33 614.218L201.33 614.218L201.326 614.218L201.326 614.218L201.333 614.033L201.333 614.033L199.581 614.4641L199.581 614.4641L201.861 610.812C 201.861 610.81 201.862 610.808 201.862 610.806" stroke="none" fill="#060606" fill-rule="nonzero" /><path id="450" transform="matrix(1 0 0 -1 0 834)" d="M209.017 620.614C 208.564 623.847 207.563 626.343 206.322 627.26C 207.561 626.292 208.559 623.809 209.017 620.614" stroke="none" fill="#060606" fill-rule="nonzero" /><path id="451" transform="matrix(1 0 0 -1 0 834)" d="M199.111 614.804L201.664 610.7141C 202.235 608.431 203.117 606.735 204.106 606.028L204.106 606.028L204.105 606.027C 204.13 606.01 204.155 605.998 204.18 605.982C 204.488 605.777 204.807 605.664 205.129 605.664C 205.137 605.664 205.146 605.665 205.154 605.666C 205.159 605.666 205.164 605.664 205.169 605.664C 205.201 605.664 205.233 605.669 205.265 605.671C 205.271 605.671 205.277 605.6721 205.284 605.6721C 207.502 605.836 209.288 610.711 209.288 616.684C 209.288 618.0681 209.192 619.393 209.017 620.614C 208.559 623.809 207.56 626.292 206.322 627.26C 205.991 627.518 205.643 627.669 205.284 627.696C 205.277 627.696 205.271 627.696 205.264 627.697C 205.232 627.699 205.201 627.703 205.169 627.703C 205.163 627.703 205.156 627.703 205.15 627.703C 205.143 627.703 205.136 627.703 205.129 627.703C 202.858 627.703 201.01 622.76 201.01 616.684C 201.01 615.901 201.042 615.122 201.102 614.363M199.578 614.465L199.581 614.4641L199.581 614.4641L201.332 614.034L201.332 614.034L201.326 614.218L201.326 614.218L201.33 614.219C 201.261 615.022 201.227 615.851 201.227 616.684C 201.227 617.36 201.244 617.996 201.275 618.596C 201.458 622.033 202.127 624.253 202.897 625.614C 203.464 626.617 204.084 627.155 204.605 627.371C 204.782 627.444 204.964 627.482 205.144 627.485C 205.449 627.482 205.755 627.377 206.055 627.169C 203.758 625.718 202.166 621.447 202.166 616.684C 202.166 615.938 202.206 615.194 202.281 614.469L202.281 614.469L202.28 614.468L202.28 614.468L202.308 614.2L202.308 614.2L203.978 615.181L203.978 615.181L203.063 611.45L203.063 611.45L203.063 611.45L203.063 611.45L202.611 609.606L202.611 609.606L201.861 610.807zM205.239 607.177C 204.664 607.8 204.147 608.627 203.717 609.602C 203.52 610.049 203.341 610.528 203.184 611.034L203.184 611.034L203.186 611.039L203.186 611.039L203.274 611.399L203.274 611.399L204.31 615.625L204.31 615.625L202.488 614.586C 202.419 615.275 202.383 615.978 202.383 616.684C 202.383 620.827 203.592 624.581 205.413 626.376C 206.675 624.465 207.458 620.8491 207.458 616.901C 207.458 612.784 206.588 608.987 205.239 607.177M202.041 610.11L202.044 610.104L202.044 610.104L202.699 609.055L202.699 609.055L203.085 610.632C 203.778 608.535 204.821 606.975 206.055 606.198C 205.757 605.992 205.452 605.887 205.149 605.883C 204.837 605.887 204.478 606 204.178 606.21C 204.087 606.274 203.997 606.348 203.908 606.43C 203.177 607.103 202.525 608.374 202.041 610.11M209.071 616.684C 209.071 611.786 207.887 607.642 206.27 606.322C 205.967 606.501 205.673 606.735 205.391 607.017C 206.779 608.852 207.674 612.719 207.674 616.901C 207.674 618.958 207.462 620.927 207.081 622.6201C 207.075 622.645 207.07 622.669 207.064 622.6931C 207.049 622.76 207.033 622.827 207.018 622.893C 207.006 622.941 206.994 622.989 206.983 623.037C 206.972 623.079 206.962 623.121 206.951 623.162C 206.933 623.231 206.916 623.299 206.898 623.366C 206.892 623.387 206.886 623.407 206.881 623.428C 206.857 623.514 206.833 623.6 206.809 623.684C 206.808 623.686 206.808 623.688 206.807 623.69C 206.476 624.831 206.06 625.802 205.574 626.528C 205.574 626.528 205.574 626.528 205.575 626.528C 205.798 626.73 206.03 626.904 206.27 627.046C 207.887 625.726 209.071 621.582 209.071 616.684" stroke="none" fill="#FFFFFF" fill-rule="nonzero" /></g><g clip-path="url(#30)"></g><g clip-path="url(#31)"><g transform="matrix(1.008969 0 0 1.005193 352.797 117.9003)"><g transform="matrix(1 0 0 1 0 0)"><image x="0" y="0" xlink:href="img_07.png" width="42" height="45" /></g></g></g><g clip-path="url(#32)"></g><g clip-path="url(#33)"><g transform="matrix(1.022789 0 0 0.9967948 139.048 147.1868)"><g transform="matrix(1 0 0 1 0 0)"><image x="0" y="0" xlink:href="img_08.png" width="27" height="38" /></g></g></g><g clip-path="url(#34)"></g><g clip-path="url(#35)"><g transform="matrix(-1.022789 0 0 0.9967948 284.864 147.1868)"><g transform="matrix(1 0 0 1 0 0)"><image x="0" y="0" xlink:href="img_08.png" width="27" height="38" /></g></g></g><g transform="matrix(1.006182 0 0 0.9985074 187.482 351.303)"><g transform="matrix(1 0 0 1 0 0)"><image x="0" y="0" xlink:href="img_09.png" width="88" height="134" /></g></g><g clip-path="url(#36)"><path id="1321" transform="matrix(1 0 0 -1 0 834)" d="M195.042 408.244C 195.042 408.244 182.364 421.106 163.42 410.43" stroke="#000000" stroke-width="1.377" fill="none" /></g><path id="1322" transform="matrix(1 0 0 -1 0 834)" d="M159.94 408.244L166.421 409.245L164.162 410.847L163.746 413.585z" stroke="none" fill="#000000" fill-rule="nonzero" /><g clip-path="url(#37)"><g><g clip-path="url(#38)"><g clip-path="url(#39)"><path id="1323" transform="matrix(1 0 0 -1 0 834)" d="M227.211 402.211C 227.211 402.211 214.767 415.053 196.168 404.422" stroke="#FFFFFF" stroke-width="1.377" fill="none" stroke-opacity="0.8" /><path id="1324" transform="matrix(1 0 0 -1 0 834)" d="M192.705 402.211L199.179 403.255L196.909 404.842L196.474 407.577z" stroke="none" fill="#FFFFFF" fill-rule="nonzero" fill-opacity="0.8" /></g></g></g></g><g clip-path="url(#40)"><path id="1325" transform="matrix(1 0 0 -1 0 834)" d="M251.5 373.95C 251.5 361.178 261.854 350.824 274.626 350.824C 287.398 350.824 297.752 361.178 297.752 373.95C 297.752 386.722 287.398 397.076 274.626 397.076C 261.854 397.076 251.5 386.722 251.5 373.95" stroke="none" fill="#FFFFFF" fill-rule="nonzero" /></g><g clip-path="url(#41)"></g><g clip-path="url(#42)"><g transform="matrix(0.9991395 0 0 1.005481 251.992 418.238)"><g transform="matrix(1 0 0 1 0 0)"><image x="0" y="0" xlink:href="img_10.png" width="76" height="81" /></g></g></g><g clip-path="url(#43)"><path id="1327" transform="matrix(1 0 0 -1 0 834)" d="M251.5 373.95C 251.5 361.178 261.854 350.824 274.626 350.824C 287.398 350.824 297.752 361.178 297.752 373.95C 297.752 386.722 287.398 397.076 274.626 397.076C 261.854 397.076 251.5 386.722 251.5 373.95z" stroke="#000000" stroke-width="0.688" fill="none" /></g><g clip-path="url(#44)"></g><g clip-path="url(#45)"><g transform="matrix(1.008969 0 0 1.005193 352.797 337.3023)"><g transform="matrix(1 0 0 1 0 0)"><image x="0" y="0" xlink:href="img_07.png" width="42" height="45" /></g></g></g><g clip-path="url(#46)"></g><g clip-path="url(#47)"><g transform="matrix(1.022789 0 0 0.9967948 151.846 358.9048)"><g transform="matrix(1 0 0 1 0 0)"><image x="0" y="0" xlink:href="img_08.png" width="27" height="38" /></g></g></g><g clip-path="url(#48)"></g><g clip-path="url(#49)"><g transform="matrix(-1.022789 0 0 0.9967948 297.662 358.9048)"><g transform="matrix(1 0 0 1 0 0)"><image x="0" y="0" xlink:href="img_08.png" width="27" height="38" /></g></g></g><path id="1409" transform="matrix(1 0 0 -1 0 834)" d="M633 15L633 0M633 819L633 834M21 15L21 0M21 819L21 834M639 21L654 21M15 21L0 21M639 813L654 813M15 813L0 813" stroke="#000000" stroke-width="1.25" fill="none" /><path id="1410" transform="matrix(1 0 0 -1 0 834)" d="M633 15L633 0M633 819L633 834M21 15L21 0M21 819L21 834M639 21L654 21M15 21L0 21M639 813L654 813M15 813L0 813" stroke="#000000" stroke-width="0.25" fill="none" /><path id="1411" transform="matrix(1 0 0 -1 0 834)" d="M32.2781 9.28203C 32.2781 9.516021 32.2961 9.58203 32.3559 9.62383C 32.416 9.66602 32.5719 9.69609 32.8238 9.69609C 33.2262 9.69609 33.5738 9.62383 33.8441 9.45C 34.3238 9.167971 34.552 8.63398 34.552 8.016021C 34.552 7.05586 34.0359 6.21602 32.9141 6.21602C 32.4762 6.21602 32.2781 6.33008 32.2781 6.78594zM31.252 9.900001L31.252 9.726171C 31.7141 9.68984 31.7621 9.66602 31.7621 9.150001L31.7621 9.150001L31.7621 6.74414C 31.7621 6.23398 31.7141 6.19805 31.198 6.16211L31.198 6.16211L31.198 6L31.198 6L32.6199 6C 33.3578 6 33.952 6.15 34.402 6.49805C 34.8641 6.84609 35.1398 7.38008 35.1398 8.1C 35.1398 8.664061 34.9301 9.101951 34.6359 9.38984C 34.2641 9.74414 33.7 9.900001 32.9379 9.900001z" stroke="#000000" stroke-width="0.4" fill="none" /><path id="1412" transform="matrix(1 0 0 -1 0 834)" d="M38.3801 6.97813C 38.2898 6.70195 38.1758 6.51016 38.0738 6.38984C 37.9359 6.23398 37.732 6.20391 37.402 6.20391C 37.15 6.20391 36.9461 6.21602 36.8258 6.28203C 36.718 6.34219 36.6879 6.46211 36.6879 6.78594L36.6879 6.78594L36.6879 9.15586C 36.6879 9.66602 36.7418 9.69609 37.216 9.73203L37.216 9.73203L37.216 9.900001L37.216 9.900001L35.65 9.900001L35.65 9.900001L35.65 9.73203C 36.1359 9.69609 36.1777 9.66602 36.1777 9.15586L36.1777 9.15586L36.1777 6.75586C 36.1777 6.24609 36.1301 6.20391 35.6258 6.16797L35.6258 6.16797L35.6258 6L35.6258 6L38.3438 6C 38.398 6.18594 38.5238 6.75586 38.5598 6.94219z" stroke="#000000" stroke-width="0.4" fill="none" /><path id="1413" transform="matrix(1 0 0 -1 0 834)" d="M41.0918 9.023829C 41.0438 9.40195 41.0141 9.63594 40.9898 9.851951C 40.7617 9.92383 40.5098 9.989841 40.234 9.989841C 39.4598 9.989841 38.998 9.49805 38.998 8.921881C 38.998 8.24414 39.6039 7.94414 39.9879 7.73984C 40.4379 7.5 40.768 7.28984 40.768 6.84609C 40.768 6.40781 40.498 6.12617 40.048 6.12617C 39.4301 6.12617 39.1598 6.73203 39.0641 7.09805L39.0641 7.09805L38.8898 7.05586C 38.9258 6.767971 39.0039 6.25195 39.052 6.12617C 39.1059 6.09609 39.1961 6.05391 39.3461 6C 39.4961 5.95781 39.6879 5.91016 39.934 5.91016C 40.732 5.91016 41.266 6.41406 41.266 7.04414C 41.266 7.71602 40.6961 7.99805 40.2277 8.23789C 39.7539 8.48398 39.466 8.68789 39.466 9.12617C 39.466 9.45 39.6699 9.78594 40.132 9.78594C 40.6539 9.78594 40.8098 9.371881 40.918 8.98789z" stroke="#000000" stroke-width="0.4" fill="none" /><path id="1414" transform="matrix(1 0 0 -1 0 834)" d="M46.648 6L46.648 6.16797C 46.1258 6.21602 46.1078 6.24609 46.0898 6.88203L46.0898 6.88203L46.0301 9.05391C 46.0117 9.671881 46.0539 9.68398 46.582 9.73203L46.582 9.73203L46.582 9.900001L46.582 9.900001L45.5617 9.900001L45.5617 9.900001L44.1758 6.9L44.1758 6.9L42.8078 9.900001L42.8078 9.900001L41.8238 9.900001L41.8238 9.900001L41.8238 9.73203C 42.3699 9.67813 42.4 9.653911 42.3461 8.87383L42.3461 8.87383L42.2617 7.626171C 42.2141 7.00195 42.1777 6.73789 42.148 6.528131C 42.1059 6.27617 41.9859 6.21016 41.6379 6.16797L41.6379 6.16797L41.6379 6L41.6379 6L43.0359 6L43.0359 6L43.0359 6.16797C 42.6398 6.21016 42.4961 6.25195 42.484 6.53984C 42.4777 6.78008 42.4777 7.04414 42.502 7.53594L42.502 7.53594L42.5918 9.24609L42.5918 9.24609L42.6039 9.24609L42.6039 9.24609L43.948 6.04219L43.948 6.04219L44.068 6.04219L44.068 6.04219L45.532 9.33008L45.532 9.33008L45.5559 9.33008L45.5559 9.33008L45.5738 6.88203C 45.5801 6.24609 45.5559 6.21602 45.0699 6.16797L45.0699 6.16797L45.0699 6z" stroke="#000000" stroke-width="0.4" fill="none" /><path id="1415" transform="matrix(1 0 0 -1 0 834)" d="M51.8738 7.05586C 51.5738 6.45586 51.2496 6.12617 50.6379 6.12617C 49.7258 6.12617 49.0656 6.89414 49.0656 8.016021C 49.0656 8.92813 49.5996 9.773829 50.602 9.773829C 51.2496 9.773829 51.6098 9.516021 51.7656 8.88008L51.7656 8.88008L51.9457 8.921881C 51.9098 9.24609 51.8738 9.48594 51.8258 9.828131C 51.6578 9.85781 51.2496 9.989841 50.7637 9.989841C 49.4258 9.989841 48.4539 9.15586 48.4539 7.89609C 48.4539 6.94219 49.1078 5.91016 50.602 5.91016C 51.034 5.91016 51.5379 6.03008 51.7059 6.07188C 51.8137 6.26992 51.9637 6.71406 52.0477 6.98984z" stroke="#000000" stroke-width="0.4" fill="none" /><path id="1416" transform="matrix(1 0 0 -1 0 834)" d="M54.3398 9.773829C 55.1258 9.773829 55.7855 9.101951 55.7855 7.83594C 55.7855 6.68398 55.1855 6.12617 54.5195 6.12617C 53.6738 6.12617 53.0559 6.94805 53.0559 8.076171C 53.0559 9.19805 53.6676 9.773829 54.3398 9.773829zM54.4598 9.989841C 53.1996 9.989841 52.4438 8.98789 52.4438 7.90781C 52.4438 6.75586 53.3078 5.91016 54.3938 5.91016C 55.4918 5.91016 56.3977 6.70195 56.3977 7.99805C 56.3977 9.19805 55.4797 9.989841 54.4598 9.989841z" stroke="#000000" stroke-width="0.4" fill="none" /><path id="1417" transform="matrix(1 0 0 -1 0 834)" d="M61.8277 6L61.8277 6.16797C 61.3059 6.21602 61.2879 6.24609 61.2695 6.88203L61.2695 6.88203L61.2098 9.05391C 61.1918 9.671881 61.2336 9.68398 61.7617 9.73203L61.7617 9.73203L61.7617 9.900001L61.7617 9.900001L60.7418 9.900001L60.7418 9.900001L59.3559 6.9L59.3559 6.9L57.9879 9.900001L57.9879 9.900001L57.0035 9.900001L57.0035 9.900001L57.0035 9.73203C 57.5496 9.67813 57.5797 9.653911 57.5258 8.87383L57.5258 8.87383L57.4418 7.626171C 57.3938 7.00195 57.3578 6.73789 57.3277 6.528131C 57.2855 6.27617 57.1656 6.21016 56.8176 6.16797L56.8176 6.16797L56.8176 6L56.8176 6L58.2156 6L58.2156 6L58.2156 6.16797C 57.8195 6.21016 57.6758 6.25195 57.6637 6.53984C 57.6578 6.78008 57.6578 7.04414 57.6816 7.53594L57.6816 7.53594L57.7719 9.24609L57.7719 9.24609L57.7836 9.24609L57.7836 9.24609L59.1277 6.04219L59.1277 6.04219L59.2477 6.04219L59.2477 6.04219L60.7117 9.33008L60.7117 9.33008L60.7355 9.33008L60.7355 9.33008L60.7535 6.88203C 60.7598 6.24609 60.7355 6.21602 60.2496 6.16797L60.2496 6.16797L60.2496 6z" stroke="#000000" stroke-width="0.4" fill="none" /><path id="1418" transform="matrix(1 0 0 -1 0 834)" d="M63.8258 6L63.8258 6.16797C 63.3336 6.20391 63.2855 6.23398 63.2855 6.75L63.2855 6.75L63.2855 9.150001C 63.2855 9.66016 63.3336 9.69609 63.8258 9.73203L63.8258 9.73203L63.8258 9.900001L63.8258 9.900001L62.2355 9.900001L62.2355 9.900001L62.2355 9.73203C 62.7277 9.69609 62.7758 9.66016 62.7758 9.150001L62.7758 9.150001L62.7758 6.75C 62.7758 6.23984 62.7277 6.20391 62.2355 6.16797L62.2355 6.16797L62.2355 6z" stroke="#000000" stroke-width="0.4" fill="none" /><path id="1419" transform="matrix(1 0 0 -1 0 834)" d="M66.5074 9.023829C 66.4598 9.40195 66.4297 9.63594 66.4055 9.851951C 66.1777 9.92383 65.9258 9.989841 65.6496 9.989841C 64.8758 9.989841 64.4137 9.49805 64.4137 8.921881C 64.4137 8.24414 65.0195 7.94414 65.4035 7.73984C 65.8535 7.5 66.1836 7.28984 66.1836 6.84609C 66.1836 6.40781 65.9137 6.12617 65.46371 6.12617C 64.8457 6.12617 64.5758 6.73203 64.4797 7.09805L64.4797 7.09805L64.3055 7.05586C 64.3418 6.767971 64.4195 6.25195 64.46761 6.12617C 64.52151 6.09609 64.6117 6.05391 64.7617 6C 64.91171 5.95781 65.1035 5.91016 65.3496 5.91016C 66.1477 5.91016 66.6816 6.41406 66.6816 7.04414C 66.6816 7.71602 66.1117 7.99805 65.6438 8.23789C 65.1695 8.48398 64.8816 8.68789 64.8816 9.12617C 64.8816 9.45 65.0855 9.78594 65.5477 9.78594C 66.0695 9.78594 66.2258 9.371881 66.3336 8.98789z" stroke="#000000" stroke-width="0.4" fill="none" /><path id="1420" transform="matrix(1 0 0 -1 0 834)" d="M69.4055 7.68008L68.3016 7.68008C 68.4816 8.171881 68.6734 8.69414 68.8656 9.21016L68.8656 9.21016L68.8777 9.21016zM70.9355 6L70.9355 6.16797C 70.5457 6.20391 70.46761 6.25781 70.2758 6.77383C 69.89181 7.81797 69.4895 8.95781 69.11761 9.989841L69.11761 9.989841L68.9316 9.93594L68.9316 9.93594L67.68951 6.78594C 67.4797 6.25781 67.3957 6.22188 67.0176 6.16797L67.0176 6.16797L67.0176 6L67.0176 6L68.3195 6L68.3195 6L68.3195 6.16797C 67.8695 6.21016 67.81561 6.26992 67.9477 6.64805C 68.0258 6.9 68.1156 7.15195 68.2117 7.42188L68.2117 7.42188L69.4895 7.42188C 69.62151 7.05586 69.74181 6.73203 69.8195 6.49805C 69.8977 6.26406 69.8438 6.21602 69.4656 6.16797L69.4656 6.16797L69.4656 6z" stroke="#000000" stroke-width="0.4" fill="none" /><path id="1421" transform="matrix(1 0 0 -1 0 834)" d="M71.7273 5.92813C 71.9195 5.92813 72.06371 6.06602 72.06371 6.27617C 72.06371 6.46797 71.9195 6.61797 71.7273 6.61797C 71.5355 6.61797 71.3914 6.46797 71.3914 6.27617C 71.3914 6.06602 71.5355 5.92813 71.7273 5.92813z" stroke="#000000" stroke-width="0.4" fill="none" /><path id="1422" transform="matrix(1 0 0 -1 0 834)" d="M73.9234 6L73.9234 6.15586C 73.53951 6.19219 73.4977 6.22813 73.4977 6.63594L73.4977 6.63594L73.4977 8.70586C 73.2336 8.59805 72.9516 8.51992 72.6453 8.471881L72.6453 8.471881L72.6453 8.328131C 73.0055 8.26797 73.0234 8.24414 73.0234 7.871881L73.0234 7.871881L73.0234 6.63594C 73.0234 6.22813 72.9816 6.19219 72.6035 6.15586L72.6035 6.15586L72.6035 6zM73.2215 9.216021C 73.3953 9.216021 73.52731 9.36016 73.52731 9.52188C 73.52731 9.70195 73.3953 9.83398 73.2273 9.83398C 73.06561 9.83398 72.9215 9.70195 72.9215 9.52188C 72.9215 9.36016 73.06561 9.216021 73.2215 9.216021z" stroke="#000000" stroke-width="0.4" fill="none" /><path id="1423" transform="matrix(1 0 0 -1 0 834)" d="M77.1574 6L77.1574 6.15586C 76.8094 6.19219 76.7793 6.21602 76.7793 6.62383L76.7793 6.62383L76.7793 7.78203C 76.7793 8.36406 76.4793 8.69414 76.0055 8.69414C 75.8313 8.69414 75.67541 8.621881 75.5074 8.51406C 75.3574 8.41211 75.2254 8.32188 75.1055 8.23203L75.1055 8.23203L75.1055 8.712111C 74.8414 8.59219 74.5594 8.51992 74.27151 8.466021L74.27151 8.466021L74.27151 8.328131C 74.5953 8.26797 74.6313 8.25 74.6313 7.86602L74.6313 7.86602L74.6313 6.62383C 74.6313 6.22813 74.6016 6.19805 74.19341 6.15586L74.19341 6.15586L74.19341 6L74.19341 6L75.4953 6L75.4953 6L75.4953 6.15586C 75.1414 6.19219 75.1055 6.21602 75.1055 6.62383L75.1055 6.62383L75.1055 8.03398C 75.2855 8.18984 75.5195 8.33984 75.7594 8.33984C 76.1613 8.33984 76.3055 8.069921 76.3055 7.65586L76.3055 7.65586L76.3055 6.65391C 76.3055 6.23984 76.2633 6.19219 75.9094 6.15586L75.9094 6.15586L75.9094 6z" stroke="#000000" stroke-width="0.4" fill="none" /><path id="1424" transform="matrix(1 0 0 -1 0 834)" d="M79.4734 6.51016C 79.32931 6.40195 79.1133 6.30586 78.8973 6.30586C 78.5133 6.30586 78.0754 6.65391 78.0754 7.36797C 78.0754 8.23789 78.57931 8.471881 78.8555 8.471881C 79.0832 8.471881 79.32931 8.37617 79.4734 8.16602zM80.4035 6.30586L80.2113 6.32383C 79.9895 6.34805 79.9473 6.37813 79.9473 6.68984L79.9473 6.68984L79.9473 10.2719C 79.7254 10.1941 79.3234 10.1039 79.0113 10.0621L79.0113 10.0621L79.0113 9.917971C 79.44341 9.88789 79.4734 9.869921 79.4734 9.47383L79.4734 9.47383L79.4734 8.628131C 79.3355 8.67617 79.1613 8.69414 79.0773 8.69414C 78.2613 8.69414 77.5293 8.03984 77.5293 7.20586C 77.5293 6.36602 78.1594 5.92813 78.6395 5.92813C 78.7113 5.92813 78.87341 5.96406 79.1074 6.10195L79.1074 6.10195L79.4734 6.31797L79.4734 6.31797L79.4734 5.92813C 79.8215 6.05391 80.27151 6.13203 80.4035 6.15586z" stroke="#000000" stroke-width="0.4" fill="none" /><path id="1425" transform="matrix(1 0 0 -1 0 834)" d="M81.3813 8.24414C 81.4895 8.310161 81.6813 8.35781 81.84921 8.35781C 82.34731 8.35781 82.7676 7.96211 82.7676 7.278131C 82.7676 6.58203 82.4492 6.15586 81.9516 6.15586C 81.6336 6.16211 81.4535 6.37188 81.4176 6.49219C 81.3934 6.54609 81.3813 6.60586 81.3813 6.69609zM81.3813 8.42383L81.3813 10.2719C 81.1594 10.1941 80.7934 10.098 80.5113 10.0621L80.5113 10.0621L80.5113 9.92383C 80.8953 9.88789 80.9074 9.851951 80.9074 9.48008L80.9074 9.48008L80.9074 6.14414C 81.2375 5.98789 81.5434 5.92813 81.78951 5.92813C 82.59341 5.92813 83.2953 6.55195 83.2953 7.43398C 83.2953 8.14219 82.7555 8.69414 82.1133 8.69414C 82.0473 8.69414 81.9633 8.67617 81.86761 8.63398z" stroke="#000000" stroke-width="0.4" fill="none" /><path id="1426" transform="matrix(1 0 0 -1 0 834)" d="M89.90701 6L89.90701 6.16211C 89.3613 6.20391 89.3254 6.25195 89.3254 6.68398L89.3254 6.68398L89.3254 9.810161C 88.9953 9.67813 88.641 9.56406 88.257 9.49805L88.257 9.49805L88.257 9.36016L88.257 9.36016L88.5453 9.34805C 88.8094 9.33594 88.8332 9.305861 88.8332 8.99414L88.8332 8.99414L88.8332 6.68398C 88.8332 6.25195 88.8031 6.20391 88.257 6.16211L88.257 6.16211L88.257 6z" stroke="#000000" stroke-width="0.4" fill="none" /><path id="1427" transform="matrix(1 0 0 -1 0 834)" d="M91.3953 9.3L92.7934 9.3L92.7934 9.3L92.9492 9.68984L92.9492 9.68984L92.9133 9.73789L92.9133 9.73789L91.2031 9.73789L91.2031 9.73789L90.9691 7.90781C 91.107 7.96211 91.3352 8.028131 91.5871 8.028131C 92.241 8.028131 92.5652 7.65 92.5652 7.121881C 92.5652 6.67188 92.3133 6.23398 91.8031 6.23398C 91.4371 6.23398 91.191 6.42617 91.0652 6.53984C 91.0051 6.58789 90.957 6.58203 90.9031 6.53984C 90.8371 6.48008 90.7832 6.40195 90.77731 6.34219C 90.7652 6.26992 90.7953 6.22188 90.873 6.13789C 90.9633 6.05391 91.2152 5.92813 91.491 5.92813C 91.8094 5.93398 92.2113 6.08984 92.5352 6.35391C 92.90121 6.65391 93.0691 6.99609 93.0691 7.35586C 93.0691 7.84805 92.67931 8.369921 91.9113 8.369921C 91.7492 8.369921 91.4672 8.273829 91.2391 8.18984z" stroke="#000000" stroke-width="0.4" fill="none" /><path id="1428" transform="matrix(1 0 0 -1 0 834)" d="M95.8352 6.83984C 95.65511 6.46211 95.5773 6.43789 95.25311 6.43789L95.25311 6.43789L94.1313 6.43789L94.1313 6.43789L94.9832 7.33203C 95.5352 7.91992 95.77541 8.273829 95.77541 8.79609C 95.77541 9.42617 95.2953 9.810161 94.7672 9.810161C 94.4191 9.810161 94.1371 9.653911 93.957 9.45586L93.957 9.45586L93.6152 8.96992L93.6152 8.96992L93.74731 8.85C 93.9031 9.08398 94.15511 9.40781 94.5633 9.40781C 95.007 9.40781 95.2711 9.11406 95.2711 8.61016C 95.2711 8.09414 94.8934 7.60195 94.5211 7.15781C 94.2211 6.81016 93.8852 6.46797 93.5492 6.13789L93.5492 6.13789L93.5492 6L93.5492 6L95.7934 6C 95.8652 6.26992 95.92541 6.53398 96.00311 6.78594z" stroke="#000000" stroke-width="0.4" fill="none" /><path id="1447" transform="matrix(1 0 0 -1 0 834)" d="M554.472 6.83984C 554.292 6.46211 554.2141 6.43789 553.89 6.43789L553.89 6.43789L552.768 6.43789L552.768 6.43789L553.6201 7.33203C 554.1721 7.91992 554.412 8.273829 554.412 8.79609C 554.412 9.42617 553.932 9.810161 553.404 9.810161C 553.056 9.810161 552.774 9.653911 552.594 9.45586L552.594 9.45586L552.252 8.96992L552.252 8.96992L552.384 8.85C 552.54 9.08398 552.792 9.40781 553.2 9.40781C 553.644 9.40781 553.908 9.11406 553.908 8.61016C 553.908 8.09414 553.53 7.60195 553.158 7.15781C 552.858 6.81016 552.522 6.46797 552.186 6.13789L552.186 6.13789L552.186 6L552.186 6L554.43 6C 554.502 6.26992 554.562 6.53398 554.64 6.78594z" stroke="#000000" stroke-width="0.4" fill="none" /><path id="1448" transform="matrix(1 0 0 -1 0 834)" d="M555.792 9.3L557.19 9.3L557.19 9.3L557.346 9.68984L557.346 9.68984L557.31 9.73789L557.31 9.73789L555.6 9.73789L555.6 9.73789L555.366 7.90781C 555.504 7.96211 555.732 8.028131 555.984 8.028131C 556.638 8.028131 556.962 7.65 556.962 7.121881C 556.962 6.67188 556.71 6.23398 556.2 6.23398C 555.834 6.23398 555.588 6.42617 555.462 6.53984C 555.402 6.58789 555.354 6.58203 555.3 6.53984C 555.234 6.48008 555.18 6.40195 555.174 6.34219C 555.162 6.26992 555.192 6.22188 555.27 6.13789C 555.36 6.05391 555.612 5.92813 555.888 5.92813C 556.206 5.93398 556.608 6.08984 556.932 6.35391C 557.298 6.65391 557.466 6.99609 557.466 7.35586C 557.466 7.84805 557.076 8.369921 556.308 8.369921C 556.146 8.369921 555.864 8.273829 555.636 8.18984z" stroke="#000000" stroke-width="0.4" fill="none" /><path id="1449" transform="matrix(1 0 0 -1 0 834)" d="M559.548 9.989841L559.212 9.989841L559.212 9.989841L557.91 5.73594L557.91 5.73594L558.246 5.73594z" stroke="#000000" stroke-width="0.4" fill="none" /><path id="1450" transform="matrix(1 0 0 -1 0 834)" d="M561.18 9.61211C 561.72 9.61211 561.8701 8.72383 561.8701 7.871881C 561.8701 7.03203 561.726 6.13203 561.186 6.13203C 560.664 6.13203 560.49 7.03789 560.49 7.87813C 560.49 8.712111 560.634 9.61211 561.18 9.61211zM561.186 9.810161C 560.286 9.810161 559.956 8.74219 559.956 7.86602C 559.956 6.91797 560.28 5.92813 561.186 5.92813C 562.086 5.92813 562.404 6.99609 562.404 7.871881C 562.404 8.79609 562.086 9.810161 561.186 9.810161z" stroke="#000000" stroke-width="0.4" fill="none" /><path id="1451" transform="matrix(1 0 0 -1 0 834)" d="M564 9.61211C 564.582 9.61211 564.738 8.86797 564.738 8.33984C 564.738 8.21992 564.732 8.076171 564.7141 7.94414C 564.588 7.84805 564.384 7.77617 564.174 7.77617C 563.67 7.77617 563.3701 8.214061 563.3701 8.74219C 563.3701 9.09609 563.538 9.61211 564 9.61211zM564.078 9.810161C 563.304 9.810161 562.854 9.10781 562.854 8.53203C 562.854 7.90195 563.292 7.43398 563.928 7.43398C 564.042 7.43398 564.156 7.45781 564.288 7.53008L564.288 7.53008L564.69 7.74609C 564.492 6.83398 563.838 6.23398 562.98 6.08984L562.98 6.08984L563.01 5.91016C 563.16 5.91016 563.526 5.96992 563.85 6.10195C 564.66 6.42617 565.2661 7.20586 565.2661 8.310161C 565.2661 9.12617 564.828 9.810161 564.078 9.810161z" stroke="#000000" stroke-width="0.4" fill="none" /><path id="1452" transform="matrix(1 0 0 -1 0 834)" d="M567.294 9.989841L566.958 9.989841L566.958 9.989841L565.656 5.73594L565.656 5.73594L565.992 5.73594z" stroke="#000000" stroke-width="0.4" fill="none" /><path id="1453" transform="matrix(1 0 0 -1 0 834)" d="M569.9641 6.83984C 569.784 6.46211 569.706 6.43789 569.382 6.43789L569.382 6.43789L568.26 6.43789L568.26 6.43789L569.112 7.33203C 569.664 7.91992 569.904 8.273829 569.904 8.79609C 569.904 9.42617 569.424 9.810161 568.896 9.810161C 568.548 9.810161 568.2661 9.653911 568.086 9.45586L568.086 9.45586L567.744 8.96992L567.744 8.96992L567.876 8.85C 568.032 9.08398 568.284 9.40781 568.692 9.40781C 569.136 9.40781 569.4 9.11406 569.4 8.61016C 569.4 8.09414 569.022 7.60195 568.65 7.15781C 568.35 6.81016 568.014 6.46797 567.678 6.13789L567.678 6.13789L567.678 6L567.678 6L569.9221 6C 569.994 6.26992 570.054 6.53398 570.132 6.78594z" stroke="#000000" stroke-width="0.4" fill="none" /><path id="1454" transform="matrix(1 0 0 -1 0 834)" d="M571.806 9.61211C 572.346 9.61211 572.496 8.72383 572.496 7.871881C 572.496 7.03203 572.352 6.13203 571.812 6.13203C 571.29 6.13203 571.116 7.03789 571.116 7.87813C 571.116 8.712111 571.26 9.61211 571.806 9.61211zM571.812 9.810161C 570.912 9.810161 570.582 8.74219 570.582 7.86602C 570.582 6.91797 570.906 5.92813 571.812 5.92813C 572.712 5.92813 573.03 6.99609 573.03 7.871881C 573.03 8.79609 572.712 9.810161 571.812 9.810161z" stroke="#000000" stroke-width="0.4" fill="none" /><path id="1455" transform="matrix(1 0 0 -1 0 834)" d="M575.556 6L575.556 6.16211C 575.01 6.20391 574.9741 6.25195 574.9741 6.68398L574.9741 6.68398L574.9741 9.810161C 574.644 9.67813 574.29 9.56406 573.906 9.49805L573.906 9.49805L573.906 9.36016L573.906 9.36016L574.194 9.34805C 574.458 9.33594 574.482 9.305861 574.482 8.99414L574.482 8.99414L574.482 6.68398C 574.482 6.25195 574.452 6.20391 573.906 6.16211L573.906 6.16211L573.906 6z" stroke="#000000" stroke-width="0.4" fill="none" /><path id="1456" transform="matrix(1 0 0 -1 0 834)" d="M578.814 9.73789L576.522 9.73789C 576.498 9.48008 576.468 9.180079 576.414 8.85L576.414 8.85L576.588 8.85C 576.732 9.24609 576.768 9.3 577.164 9.3L577.164 9.3L578.46 9.3C 577.986 8.25586 577.308 7.01406 576.678 5.99414L576.678 5.99414L576.72 5.92813L576.72 5.92813L577.164 5.98789C 577.74 7.22383 578.298 8.44805 578.862 9.66602z" stroke="#000000" stroke-width="0.4" fill="none" /><path id="1457" transform="matrix(1 0 0 -1 0 834)" d="M584.531 9.61211C 585.071 9.61211 585.221 8.72383 585.221 7.871881C 585.221 7.03203 585.077 6.13203 584.537 6.13203C 584.015 6.13203 583.841 7.03789 583.841 7.87813C 583.841 8.712111 583.985 9.61211 584.531 9.61211zM584.537 9.810161C 583.637 9.810161 583.307 8.74219 583.307 7.86602C 583.307 6.91797 583.631 5.92813 584.537 5.92813C 585.437 5.92813 585.755 6.99609 585.755 7.871881C 585.755 8.79609 585.437 9.810161 584.537 9.810161z" stroke="#000000" stroke-width="0.4" fill="none" /><path id="1458" transform="matrix(1 0 0 -1 0 834)" d="M588.449 6.83984C 588.269 6.46211 588.191 6.43789 587.867 6.43789L587.867 6.43789L586.7451 6.43789L586.7451 6.43789L587.597 7.33203C 588.149 7.91992 588.389 8.273829 588.389 8.79609C 588.389 9.42617 587.909 9.810161 587.381 9.810161C 587.033 9.810161 586.751 9.653911 586.571 9.45586L586.571 9.45586L586.229 8.96992L586.229 8.96992L586.361 8.85C 586.517 9.08398 586.769 9.40781 587.177 9.40781C 587.621 9.40781 587.885 9.11406 587.885 8.61016C 587.885 8.09414 587.507 7.60195 587.135 7.15781C 586.835 6.81016 586.499 6.46797 586.163 6.13789L586.163 6.13789L586.163 6L586.163 6L588.407 6C 588.479 6.26992 588.539 6.53398 588.617 6.78594z" stroke="#000000" stroke-width="0.4" fill="none" /><path id="1459" transform="matrix(1 0 0 -1 0 834)" d="M589.5471 5.92813C 589.739 5.92813 589.883 6.06602 589.883 6.27617C 589.883 6.46797 589.739 6.61797 589.5471 6.61797C 589.355 6.61797 589.211 6.46797 589.211 6.27617C 589.211 6.06602 589.355 5.92813 589.5471 5.92813zM589.541 8.466021C 589.3491 8.466021 589.211 8.328131 589.211 8.13008C 589.211 7.92617 589.3491 7.78203 589.541 7.78203C 589.733 7.78203 589.877 7.92617 589.877 8.13008C 589.877 8.328131 589.733 8.466021 589.541 8.466021z" stroke="#000000" stroke-width="0.4" fill="none" /><path id="1460" transform="matrix(1 0 0 -1 0 834)" d="M592.697 6.83984C 592.517 6.46211 592.439 6.43789 592.115 6.43789L592.115 6.43789L590.993 6.43789L590.993 6.43789L591.845 7.33203C 592.397 7.91992 592.637 8.273829 592.637 8.79609C 592.637 9.42617 592.157 9.810161 591.629 9.810161C 591.281 9.810161 590.999 9.653911 590.819 9.45586L590.819 9.45586L590.477 8.96992L590.477 8.96992L590.609 8.85C 590.765 9.08398 591.017 9.40781 591.425 9.40781C 591.869 9.40781 592.133 9.11406 592.133 8.61016C 592.133 8.09414 591.755 7.60195 591.383 7.15781C 591.083 6.81016 590.747 6.46797 590.411 6.13789L590.411 6.13789L590.411 6L590.411 6L592.655 6C 592.727 6.26992 592.787 6.53398 592.865 6.78594z" stroke="#000000" stroke-width="0.4" fill="none" /><path id="1461" transform="matrix(1 0 0 -1 0 834)" d="M595.788 9.73789L593.496 9.73789C 593.472 9.48008 593.442 9.180079 593.388 8.85L593.388 8.85L593.562 8.85C 593.706 9.24609 593.742 9.3 594.138 9.3L594.138 9.3L595.434 9.3C 594.96 8.25586 594.282 7.01406 593.652 5.99414L593.652 5.99414L593.694 5.92813L593.694 5.92813L594.138 5.98789C 594.7141 7.22383 595.272 8.44805 595.836 9.66602z" stroke="#000000" stroke-width="0.4" fill="none" /><path id="1462" transform="matrix(1 0 0 -1 0 834)" d="M596.675 5.92813C 596.867 5.92813 597.011 6.06602 597.011 6.27617C 597.011 6.46797 596.867 6.61797 596.675 6.61797C 596.483 6.61797 596.3391 6.46797 596.3391 6.27617C 596.3391 6.06602 596.483 5.92813 596.675 5.92813zM596.669 8.466021C 596.477 8.466021 596.3391 8.328131 596.3391 8.13008C 596.3391 7.92617 596.477 7.78203 596.669 7.78203C 596.861 7.78203 597.005 7.92617 597.005 8.13008C 597.005 8.328131 596.861 8.466021 596.669 8.466021z" stroke="#000000" stroke-width="0.4" fill="none" /><path id="1463" transform="matrix(1 0 0 -1 0 834)" d="M599.657 6L599.657 6.16211C 599.111 6.20391 599.075 6.25195 599.075 6.68398L599.075 6.68398L599.075 9.810161C 598.7451 9.67813 598.3911 9.56406 598.007 9.49805L598.007 9.49805L598.007 9.36016L598.007 9.36016L598.295 9.34805C 598.559 9.33594 598.583 9.305861 598.583 8.99414L598.583 8.99414L598.583 6.68398C 598.583 6.25195 598.553 6.20391 598.007 6.16211L598.007 6.16211L598.007 6z" stroke="#000000" stroke-width="0.4" fill="none" /><path id="1464" transform="matrix(1 0 0 -1 0 834)" d="M601.145 9.3L602.543 9.3L602.543 9.3L602.699 9.68984L602.699 9.68984L602.663 9.73789L602.663 9.73789L600.953 9.73789L600.953 9.73789L600.719 7.90781C 600.857 7.96211 601.085 8.028131 601.337 8.028131C 601.991 8.028131 602.315 7.65 602.315 7.121881C 602.315 6.67188 602.063 6.23398 601.553 6.23398C 601.187 6.23398 600.941 6.42617 600.815 6.53984C 600.755 6.58789 600.707 6.58203 600.653 6.53984C 600.587 6.48008 600.533 6.40195 600.527 6.34219C 600.515 6.26992 600.545 6.22188 600.623 6.13789C 600.713 6.05391 600.965 5.92813 601.241 5.92813C 601.559 5.93398 601.961 6.08984 602.285 6.35391C 602.651 6.65391 602.819 6.99609 602.819 7.35586C 602.819 7.84805 602.429 8.369921 601.661 8.369921C 601.499 8.369921 601.217 8.273829 600.989 8.18984z" stroke="#000000" stroke-width="0.4" fill="none" /><path id="1465" transform="matrix(1 0 0 -1 0 834)" d="M605.489 8.08203C 605.651 8.20195 605.897 8.33398 606.0891 8.33398C 606.527 8.33398 606.893 7.97383 606.893 7.33203C 606.893 6.65391 606.557 6.22188 606.053 6.22188C 605.8491 6.22188 605.621 6.31797 605.489 6.45586zM605.489 8.28008L605.489 8.75391C 605.207 8.63984 604.871 8.53789 604.619 8.49609L604.619 8.49609L604.619 8.351951C 604.991 8.30391 605.015 8.29219 605.015 7.90195L605.015 7.90195L605.015 5.18984C 605.015 4.79414 604.961 4.75781 604.577 4.72188L604.577 4.72188L604.577 4.56016L604.577 4.56016L605.999 4.56016L605.999 4.56016L605.999 4.72188C 605.531 4.76406 605.489 4.79414 605.489 5.25L605.489 5.25L605.489 6.03594C 605.567 5.99414 605.729 5.93398 605.903 5.92813C 606.683 6.07188 607.397 6.65391 607.397 7.56016C 607.397 8.153911 607.001 8.69414 606.335 8.69414C 606.263 8.69414 606.149 8.664061 606.041 8.60391z" stroke="#000000" stroke-width="0.4" fill="none" /><path id="1466" transform="matrix(1 0 0 -1 0 834)" d="M608.303 5.92813C 608.4951 5.92813 608.639 6.06602 608.639 6.27617C 608.639 6.46797 608.4951 6.61797 608.303 6.61797C 608.111 6.61797 607.967 6.46797 607.967 6.27617C 607.967 6.06602 608.111 5.92813 608.303 5.92813z" stroke="#000000" stroke-width="0.4" fill="none" /><path id="1467" transform="matrix(1 0 0 -1 0 834)" d="M615.125 6L615.125 6.15586C 614.783 6.19219 614.735 6.21602 614.735 6.61797L614.735 6.61797L614.735 7.77617C 614.735 8.36406 614.441 8.69414 613.973 8.69414C 613.805 8.69414 613.649 8.621881 613.523 8.53789C 613.373 8.44805 613.199 8.33398 613.025 8.20195C 612.905 8.51406 612.647 8.69414 612.359 8.69414C 612.167 8.69414 612.023 8.628131 611.867 8.53203C 611.687 8.417971 611.555 8.310161 611.429 8.226171L611.429 8.226171L611.429 8.712111C 611.165 8.59219 610.859 8.51406 610.595 8.466021L610.595 8.466021L610.595 8.328131C 610.9431 8.273829 610.961 8.24414 610.961 7.86016L610.961 7.86016L610.961 6.61797C 610.961 6.22813 610.907 6.19219 610.511 6.15586L610.511 6.15586L610.511 6L610.511 6L611.777 6L611.777 6L611.777 6.15586C 611.483 6.19219 611.435 6.22813 611.435 6.61797L611.435 6.61797L611.435 8.028131C 611.615 8.17813 611.8491 8.33984 612.0891 8.33984C 612.455 8.33984 612.611 8.09414 612.611 7.65L612.611 7.65L612.611 6.61797C 612.611 6.22188 612.557 6.19219 612.185 6.15586L612.185 6.15586L612.185 6L612.185 6L613.469 6L613.469 6L613.469 6.15586C 613.139 6.19219 613.085 6.22813 613.085 6.60586L613.085 6.60586L613.085 7.77617C 613.085 7.88984 613.079 7.95586 613.067 8.028131C 613.295 8.21992 613.523 8.33984 613.739 8.33984C 614.117 8.33984 614.267 8.069921 614.267 7.64414L614.267 7.64414L614.267 6.64219C 614.267 6.21602 614.201 6.19219 613.847 6.15586L613.847 6.15586L613.847 6z" stroke="#000000" stroke-width="0.4" fill="none" /><path id="1468" transform="matrix(1 0 0 -1 0 834)" d="M615.947 5.92813C 616.139 5.92813 616.283 6.06602 616.283 6.27617C 616.283 6.46797 616.139 6.61797 615.947 6.61797C 615.755 6.61797 615.611 6.46797 615.611 6.27617C 615.611 6.06602 615.755 5.92813 615.947 5.92813z" stroke="#000000" stroke-width="0.4" fill="none" /></g></g></svg>