<svg xmlns="http://www.w3.org/2000/svg" xmlns:xlink="http://www.w3.org/1999/xlink" id="body_1" preserveAspectRatio="xMinYMin meet" viewBox="0 0 872 1112"><defs><clipPath id="1"><path id="" clip-rule="evenodd" transform="matrix(1 0 0 1 0 0)" d="M0 834L0 0L0 0L654 0L654 0L654 834L654 834L0 834z" /></clipPath><clipPath id="2"><path id="" clip-rule="evenodd" transform="matrix(1 0 0 1 0 0)" d="M21 813L633 813L633 813L633 21L633 21L21 21z" /></clipPath><clipPath id="3"><path id="" clip-rule="evenodd" transform="matrix(1 0 0 1 0 0)" d="M236.958 487.106L328.0986 487.106L328.0986 487.106L328.0986 354.422L328.0986 354.422L236.958 354.422z" /></clipPath><clipPath id="4"><path id="" clip-rule="evenodd" transform="matrix(1 0 0 1 0 0)" d="M236.958 487.106L328.0986 487.106L328.0986 487.106L328.0986 354.422L328.0986 354.422L236.958 354.422z" /></clipPath><clipPath id="5"><path id="" clip-rule="evenodd" transform="matrix(1 0 0 1 0 0)" d="M129.288 487.865L212.3872 487.865L212.3872 487.865L212.3872 354.422L212.3872 354.422L129.288 354.422z" /></clipPath><clipPath id="6"><path id="" clip-rule="evenodd" transform="matrix(1 0 0 1 0 0)" d="M129.288 487.865L212.3872 487.865L212.3872 487.865L212.3872 354.422L212.3872 354.422L129.288 354.422z" /></clipPath><clipPath id="7"><path id="" clip-rule="evenodd" transform="matrix(1 0 0 1 0 0)" d="M188.861 438.406L196.2911 438.406L196.2911 438.406L196.2911 427.6021L196.2911 427.6021L188.861 427.6021z" /></clipPath><clipPath id="8"><path id="" clip-rule="evenodd" transform="matrix(1 0 0 1 0 0)" d="M188.861 438.406L196.291 438.406L196.291 438.406L196.291 427.602L196.291 427.602L188.861 427.602z" /></clipPath><clipPath id="9"><path id="" clip-rule="evenodd" transform="matrix(1 0 0 1 0 0)" d="M188.861 438.406L196.2911 438.406L196.2911 438.406L196.2911 427.6021L196.2911 427.6021L188.861 427.6021z" /></clipPath><clipPath id="10"><path id="" clip-rule="evenodd" transform="matrix(1 0 0 1 0 0)" d="M183.256 417.147L188.8771 417.147L188.8771 417.147L188.8771 407.4509L188.8771 407.4509L183.256 407.4509z" /></clipPath><clipPath id="11"><path id="" clip-rule="evenodd" transform="matrix(1 0 0 1 0 0)" d="M183.256 417.147L188.877 417.147L188.877 417.147L188.877 407.451L188.877 407.451L183.256 407.451z" /></clipPath><clipPath id="12"><path id="" clip-rule="evenodd" transform="matrix(1 0 0 1 0 0)" d="M183.256 417.147L188.8771 417.147L188.8771 417.147L188.8771 407.4521L188.8771 407.4521L183.256 407.4521z" /></clipPath><clipPath id="13"><path id="" clip-rule="evenodd" transform="matrix(1 0 0 1 0 0)" d="M129.288 487.865L339.124 487.865L339.124 487.865L339.124 354.421L339.124 354.421L129.288 354.421z" /></clipPath><clipPath id="14"><path id="" clip-rule="evenodd" transform="matrix(1 0 0 1 0 0)" d="M212.062 435.728C 204.408 437.664 198.114 443.017 194.897 450.067L194.897 450.067L194.897 450.067L194.897 450.067L194.897 471.506C 198.97 480.431 207.972 486.634 218.424 486.634L218.424 486.634L218.424 486.634C 225.4 486.634 231.733 483.868 236.383 479.375L236.383 479.375L236.383 479.375L236.383 479.375L236.383 442.198C 233.196 439.118 229.219 436.85 224.785 435.728L224.785 435.728L224.785 435.728z" /></clipPath><clipPath id="15"><path id="" clip-rule="evenodd" transform="matrix(1 0 0 1 0 0)" d="M212.062 435.728C 204.408 437.664 198.114 443.017 194.897 450.067L194.897 450.067L194.897 450.067L194.897 450.067L194.897 471.506C 198.97 480.431 207.972 486.634 218.424 486.634L218.424 486.634L218.424 486.634C 225.4 486.634 231.733 483.868 236.383 479.375L236.383 479.375L236.383 479.375L236.383 479.375L236.383 442.198C 233.196 439.118 229.219 436.85 224.785 435.728L224.785 435.728L224.785 435.728z" /></clipPath><clipPath id="16"><path id="" clip-rule="evenodd" transform="matrix(1 0 0 1 0 0)" d="M129.288 487.865L339.124 487.865L339.124 487.865L339.124 354.421L339.124 354.421L129.288 354.421z" /></clipPath><clipPath id="17"><path id="" clip-rule="evenodd" transform="matrix(1 0 0 1 0 0)" d="M129.288 487.865L339.124 487.865L339.124 487.865L339.124 354.421L339.124 354.421L129.288 354.421z" /></clipPath><clipPath id="18"><path id="" clip-rule="evenodd" transform="matrix(1 0 0 1 0 0)" d="M308.747 368.57C 301.21 371.835 295.937 379.34 295.937 388.076L295.937 388.076L295.937 388.076C 295.937 399.81 305.451 409.324 317.186 409.324L317.186 409.324L317.186 409.324C 328.921 409.324 338.434 399.81 338.434 388.076L338.434 388.076L338.434 388.076C 338.434 379.34 333.161 371.835 325.624 368.57L325.624 368.57L325.624 368.57z" /></clipPath><clipPath id="19"><path id="" clip-rule="evenodd" transform="matrix(1 0 0 1 0 0)" d="M308.747 368.57C 301.21 371.835 295.937 379.34 295.937 388.076L295.937 388.076L295.937 388.076C 295.937 399.81 305.451 409.324 317.186 409.324L317.186 409.324L317.186 409.324C 328.921 409.324 338.434 399.81 338.434 388.076L338.434 388.076L338.434 388.076C 338.434 379.34 333.161 371.835 325.624 368.57L325.624 368.57L325.624 368.57z" /></clipPath><clipPath id="20"><path id="" clip-rule="evenodd" transform="matrix(1 0 0 1 0 0)" d="M129.288 487.865L339.124 487.865L339.124 487.865L339.124 354.421L339.124 354.421L129.288 354.421z" /></clipPath><clipPath id="21"><path id="" clip-rule="evenodd" transform="matrix(1 0 0 1 0 0)" d="M219.709 424.519L245.3059 424.519L245.3059 424.519L245.3059 388.6608L245.3059 388.6608L219.709 388.6608z" /></clipPath><clipPath id="22"><path id="" clip-rule="evenodd" transform="matrix(1 0 0 1 0 0)" d="M219.709 424.519L245.3059 424.519L245.3059 424.519L245.3059 388.6608L245.3059 388.6608L219.709 388.6608z" /></clipPath><clipPath id="23"><path id="" clip-rule="evenodd" transform="matrix(1 0 0 1 0 0)" d="M194.764 388.661L220.3609 388.661L220.3609 388.661L220.3609 352.802L220.3609 352.802L194.764 352.802z" /></clipPath><clipPath id="24"><path id="" clip-rule="evenodd" transform="matrix(1 0 0 1 0 0)" d="M194.764 388.661L220.3609 388.661L220.3609 388.661L220.3609 352.802L220.3609 352.802L194.764 352.802z" /></clipPath><clipPath id="25"><path id="" clip-rule="evenodd" transform="matrix(1 0 0 1 0 0)" d="M341.873 422.788L367.4699 422.788L367.4699 422.788L367.4699 386.9302L367.4699 386.9302L341.873 386.9302z" /></clipPath><clipPath id="26"><path id="" clip-rule="evenodd" transform="matrix(1 0 0 1 0 0)" d="M341.873 422.788L367.4699 422.788L367.4699 422.788L367.4699 386.9302L367.4699 386.9302L341.873 386.9302z" /></clipPath><clipPath id="27"><path id="" clip-rule="evenodd" transform="matrix(1 0 0 1 0 0)" d="M363.267 386.93L392.342 386.93L392.342 386.93L392.342 330.0128L392.342 330.0128L363.267 330.0128z" /></clipPath><clipPath id="28"><path id="" clip-rule="evenodd" transform="matrix(1 0 0 1 0 0)" d="M363.267 386.93L392.342 386.93L392.342 386.93L392.342 330.0128L392.342 330.0128L363.267 330.0128z" /></clipPath><clipPath id="29"><path id="" clip-rule="evenodd" transform="matrix(1 0 0 1 0 0)" d="M103.97 388.661L129.5673 388.661L129.5673 388.661L129.5673 352.802L129.5673 352.802L103.97 352.802z" /></clipPath><clipPath id="30"><path id="" clip-rule="evenodd" transform="matrix(1 0 0 1 0 0)" d="M103.97 388.661L129.5673 388.661L129.5673 388.661L129.5673 352.802L129.5673 352.802L103.97 352.802z" /></clipPath><clipPath id="31"><path id="" clip-rule="evenodd" transform="matrix(1 0 0 1 0 0)" d="M209.787 268.817L323.551 268.817L323.551 268.817L323.551 131.7969L323.551 131.7969L209.787 131.7969z" /></clipPath><clipPath id="32"><path id="" clip-rule="evenodd" transform="matrix(1 0 0 1 0 0)" d="M209.787 268.817L323.551 268.817L323.551 268.817L323.551 131.7969L323.551 131.7969L209.787 131.7969z" /></clipPath><clipPath id="33"><path id="" clip-rule="evenodd" transform="matrix(1 0 0 1 0 0)" d="M282.823 199.1819L313.2921 199.1819L313.2921 199.1819L313.2921 195.239L313.2921 195.239L282.823 195.239z" /></clipPath><clipPath id="34"><path id="" clip-rule="evenodd" transform="matrix(1 0 0 1 0 0)" d="M282.823 199.1819L313.292 199.1819L313.292 199.1819L313.292 195.239L313.292 195.239L282.823 195.239z" /></clipPath><clipPath id="35"><path id="" clip-rule="evenodd" transform="matrix(1 0 0 1 0 0)" d="M282.823 199.1819L313.2929 199.1819L313.2929 199.1819L313.2929 195.239L313.2929 195.239L282.823 195.239z" /></clipPath><clipPath id="36"><path id="" clip-rule="evenodd" transform="matrix(1 0 0 1 0 0)" d="M282.823 199.1819L313.2921 199.1819L313.2921 199.1819L313.2921 195.239L313.2921 195.239L282.823 195.239z" /></clipPath><clipPath id="37"><path id="" clip-rule="evenodd" transform="matrix(1 0 0 1 0 0)" d="M209.787 269.636L323.551 269.636L323.551 269.636L323.551 131.7969L323.551 131.7969L209.787 131.7969z" /></clipPath><clipPath id="38"><path id="" clip-rule="evenodd" transform="matrix(1 0 0 1 0 0)" d="M261.693 243.08C 261.693 257.376 273.621 268.966 288.335 268.966L288.335 268.966L288.335 268.966C 303.049 268.966 314.977 257.376 314.977 243.08L314.977 243.08L314.977 243.08C 314.977 228.783 303.049 217.193 288.335 217.193L288.335 217.193L288.335 217.193C 273.621 217.193 261.693 228.783 261.693 243.08" /></clipPath><clipPath id="39"><path id="" clip-rule="evenodd" transform="matrix(1 0 0 1 0 0)" d="M261.693 243.08C 261.693 257.376 273.621 268.966 288.335 268.966L288.335 268.966L288.335 268.966C 303.049 268.966 314.977 257.376 314.977 243.08L314.977 243.08L314.977 243.08C 314.977 228.783 303.049 217.193 288.335 217.193L288.335 217.193L288.335 217.193C 273.621 217.193 261.693 228.783 261.693 243.08" /></clipPath><clipPath id="40"><path id="" clip-rule="evenodd" transform="matrix(1 0 0 1 0 0)" d="M209.787 269.636L323.551 269.636L323.551 269.636L323.551 131.7969L323.551 131.7969L209.787 131.7969z" /></clipPath><clipPath id="41"><path id="" clip-rule="evenodd" transform="matrix(1 0 0 1 0 0)" d="M356.215 169.297L393.4541 169.297L393.4541 169.297L393.4541 112.3802L393.4541 112.3802L356.215 112.3802z" /></clipPath><clipPath id="42"><path id="" clip-rule="evenodd" transform="matrix(1 0 0 1 0 0)" d="M356.215 169.297L393.4541 169.297L393.4541 169.297L393.4541 112.3802L393.4541 112.3802L356.215 112.3802z" /></clipPath><clipPath id="43"><path id="" clip-rule="evenodd" transform="matrix(1 0 0 1 0 0)" d="M173.504 176.697L199.1013 176.697L199.1013 176.697L199.1013 140.838L199.1013 140.838L173.504 140.838z" /></clipPath><clipPath id="44"><path id="" clip-rule="evenodd" transform="matrix(1 0 0 1 0 0)" d="M173.504 176.697L199.1013 176.697L199.1013 176.697L199.1013 140.838L199.1013 140.838L173.504 140.838z" /></clipPath><clipPath id="45"><path id="" clip-rule="evenodd" transform="matrix(1 0 0 1 0 0)" d="M173.504 212.302L199.1013 212.302L199.1013 212.302L199.1013 176.1L199.1013 176.1L173.504 176.1z" /></clipPath><clipPath id="46"><path id="" clip-rule="evenodd" transform="matrix(1 0 0 1 0 0)" d="M173.504 212.302L199.1013 212.302L199.1013 212.302L199.1013 176.1L199.1013 176.1L173.504 176.1z" /></clipPath><clipPath id="47"><path id="" clip-rule="evenodd" transform="matrix(1 0 0 1 0 0)" d="M276.331 176.697L301.9283 176.697L301.9283 176.697L301.9283 140.838L301.9283 140.838L276.331 140.838z" /></clipPath><clipPath id="48"><path id="" clip-rule="evenodd" transform="matrix(1 0 0 1 0 0)" d="M276.331 176.697L301.9283 176.697L301.9283 176.697L301.9283 140.838L301.9283 140.838L276.331 140.838z" /></clipPath><clipPath id="49"><path id="" clip-rule="evenodd" transform="matrix(1 0 0 1 0 0)" d="M122.196 706.194L202.3378 706.194L202.3378 706.194L202.3378 575.542L202.3378 575.542L122.196 575.542z" /></clipPath><clipPath id="50"><path id="" clip-rule="evenodd" transform="matrix(1 0 0 1 0 0)" d="M122.196 706.194L202.3378 706.194L202.3378 706.194L202.3378 575.542L202.3378 575.542L122.196 575.542z" /></clipPath><clipPath id="51"><path id="" clip-rule="evenodd" transform="matrix(1 0 0 1 0 0)" d="M269.874 706.605L346.706 706.605L346.706 706.605L346.706 575.953L346.706 575.953L269.874 575.953z" /></clipPath><clipPath id="52"><path id="" clip-rule="evenodd" transform="matrix(1 0 0 1 0 0)" d="M269.874 706.605L346.706 706.605L346.706 706.605L346.706 575.953L346.706 575.953L269.874 575.953z" /></clipPath><clipPath id="53"><path id="" clip-rule="evenodd" transform="matrix(1 0 0 1 0 0)" d="M179.65 657.77L186.816 657.77L186.816 657.77L186.816 647.1923L186.816 647.1923L179.65 647.1923z" /></clipPath><clipPath id="54"><path id="" clip-rule="evenodd" transform="matrix(1 0 0 1 0 0)" d="M179.65 657.77L186.816 657.77L186.816 657.77L186.816 647.192L186.816 647.192L179.65 647.192z" /></clipPath><clipPath id="55"><path id="" clip-rule="evenodd" transform="matrix(1 0 0 1 0 0)" d="M179.65 657.77L186.816 657.77L186.816 657.77L186.816 647.1923L186.816 647.1923L179.65 647.1923z" /></clipPath><clipPath id="56"><path id="" clip-rule="evenodd" transform="matrix(1 0 0 1 0 0)" d="M174.244 636.955L179.6647 636.955L179.6647 636.955L179.6647 627.4628L179.6647 627.4628L174.244 627.4628z" /></clipPath><clipPath id="57"><path id="" clip-rule="evenodd" transform="matrix(1 0 0 1 0 0)" d="M174.244 636.955L179.665 636.955L179.665 636.955L179.665 627.463L179.665 627.463L174.244 627.463z" /></clipPath><clipPath id="58"><path id="" clip-rule="evenodd" transform="matrix(1 0 0 1 0 0)" d="M174.244 636.955L179.6647 636.955L179.6647 636.955L179.6647 627.462L179.6647 627.462L174.244 627.462z" /></clipPath><clipPath id="59"><path id="" clip-rule="evenodd" transform="matrix(1 0 0 1 0 0)" d="M122.196 707.333L382.483 707.333L382.483 707.333L382.483 575.541L382.483 575.541L122.196 575.541z" /></clipPath><clipPath id="60"><path id="" clip-rule="evenodd" transform="matrix(1 0 0 1 0 0)" d="M219.156 642.251C 209.864 644.637 202.224 651.233 198.317 659.923L198.317 659.923L198.317 659.923L198.317 659.923L198.317 686.345C 203.262 697.344 214.191 704.99 226.878 704.99L226.878 704.99L226.878 704.99C 235.349 704.99 243.036 701.581 248.682 696.043L248.682 696.043L248.682 696.043L248.682 696.043L248.682 650.225C 244.812 646.429 239.983 643.634 234.601 642.251L234.601 642.251L234.601 642.251z" /></clipPath><clipPath id="61"><path id="" clip-rule="evenodd" transform="matrix(1 0 0 1 0 0)" d="M219.156 642.251C 209.864 644.637 202.224 651.233 198.317 659.923L198.317 659.923L198.317 659.923L198.317 659.923L198.317 686.345C 203.262 697.344 214.191 704.99 226.878 704.99L226.878 704.99L226.878 704.99C 235.349 704.99 243.036 701.581 248.682 696.043L248.682 696.043L248.682 696.043L248.682 696.043L248.682 650.225C 244.812 646.429 239.983 643.634 234.601 642.251L234.601 642.251L234.601 642.251z" /></clipPath><clipPath id="62"><path id="" clip-rule="evenodd" transform="matrix(1 0 0 1 0 0)" d="M122.196 707.333L382.483 707.333L382.483 707.333L382.483 575.541L382.483 575.541L122.196 575.541z" /></clipPath><clipPath id="63"><path id="" clip-rule="evenodd" transform="matrix(1 0 0 1 0 0)" d="M321.775 674.749C 321.775 692.343 335.205 706.605 351.77 706.605L351.77 706.605L351.77 706.605C 360.68 706.605 368.682 702.48 374.176 695.929L374.176 695.929L374.176 695.929L374.176 695.929L374.176 653.57C 368.682 647.02 360.68 642.895 351.77 642.895L351.77 642.895L351.77 642.895C 335.205 642.895 321.775 657.156 321.775 674.749" /></clipPath><clipPath id="64"><path id="" clip-rule="evenodd" transform="matrix(1 0 0 1 0 0)" d="M321.775 674.749C 321.775 692.343 335.205 706.605 351.77 706.605L351.77 706.605L351.77 706.605C 360.68 706.605 368.682 702.48 374.176 695.929L374.176 695.929L374.176 695.929L374.176 695.929L374.176 653.57C 368.682 647.02 360.68 642.895 351.77 642.895L351.77 642.895L351.77 642.895C 335.205 642.895 321.775 657.156 321.775 674.749" /></clipPath><clipPath id="65"><path id="" clip-rule="evenodd" transform="matrix(1 0 0 1 0 0)" d="M122.196 707.333L382.483 707.333L382.483 707.333L382.483 575.541L382.483 575.541L122.196 575.541z" /></clipPath><clipPath id="66"><path id="" clip-rule="evenodd" transform="matrix(1 0 0 1 0 0)" d="M122.196 707.333L382.483 707.333L382.483 707.333L382.483 575.541L382.483 575.541L122.196 575.541z" /></clipPath><clipPath id="67"><path id="" clip-rule="evenodd" transform="matrix(1 0 0 1 0 0)" d="M95.948 640.773L121.5449 640.773L121.5449 640.773L121.5449 604.9148L121.5449 604.9148L95.948 604.9148z" /></clipPath><clipPath id="68"><path id="" clip-rule="evenodd" transform="matrix(1 0 0 1 0 0)" d="M95.948 640.773L121.5449 640.773L121.5449 640.773L121.5449 604.9148L121.5449 604.9148L95.948 604.9148z" /></clipPath><clipPath id="69"><path id="" clip-rule="evenodd" transform="matrix(1 0 0 1 0 0)" d="M238.516 640.773L264.1129 640.773L264.1129 640.773L264.1129 604.9148L264.1129 604.9148L238.516 604.9148z" /></clipPath><clipPath id="70"><path id="" clip-rule="evenodd" transform="matrix(1 0 0 1 0 0)" d="M238.516 640.773L264.1129 640.773L264.1129 640.773L264.1129 604.9148L264.1129 604.9148L238.516 604.9148z" /></clipPath><clipPath id="71"><path id="" clip-rule="evenodd" transform="matrix(1 0 0 1 0 0)" d="M348.388 642.362L373.9853 642.362L373.9853 642.362L373.9853 606.5038L373.9853 606.5038L348.388 606.5038z" /></clipPath><clipPath id="72"><path id="" clip-rule="evenodd" transform="matrix(1 0 0 1 0 0)" d="M348.388 642.362L373.9853 642.362L373.9853 642.362L373.9853 606.5038L373.9853 606.5038L348.388 606.5038z" /></clipPath><clipPath id="73"><path id="" clip-rule="evenodd" transform="matrix(1 0 0 1 0 0)" d="M197.315 640.773L222.9123 640.773L222.9123 640.773L222.9123 604.9148L222.9123 604.9148L197.315 604.9148z" /></clipPath><clipPath id="74"><path id="" clip-rule="evenodd" transform="matrix(1 0 0 1 0 0)" d="M197.315 640.773L222.9123 640.773L222.9123 640.773L222.9123 604.9148L222.9123 604.9148L197.315 604.9148z" /></clipPath></defs><g transform="matrix(1.333333 0 0 1.333333 0 0)"><g clip-path="url(#1)"><g clip-path="url(#2)"><path id="1" transform="matrix(1 0 0 -1 0 834)" d="M91.866 67.4211L562.134 67.4211L562.134 74.92501L91.866 74.92501z" stroke="none" fill="#686868" fill-rule="nonzero" /><path id="2" transform="matrix(1 0 0 -1 0 834)" d="M91.866 526.984L562.134 526.984" stroke="#686868" stroke-width="1" fill="none" /><path id="3" transform="matrix(1 0 0 -1 0 834)" d="M91.866 307.016L562.134 307.016" stroke="#686868" stroke-width="1" fill="none" /></g><g clip-path="url(#3)"></g><g clip-path="url(#4)"><g transform="matrix(1.001548 0 0 1.005182 236.959 354.421)"><g transform="matrix(1 0 0 1 0 0)"><image x="0" y="0" xlink:href="img_01.png" width="91" height="132" /></g></g></g><g clip-path="url(#5)"></g><g clip-path="url(#6)"><g transform="matrix(1.001186 0 0 1.003338 129.288 354.421)"><g transform="matrix(1 0 0 1 0 0)"><image x="0" y="0" xlink:href="img_02.png" width="83" height="133" /></g></g></g><g clip-path="url(#7)"><g><g clip-path="url(#8)"><g clip-path="url(#9)"><path id="9" transform="matrix(1 0 0 -1 0 834)" d="M190.812 406.378C 191.425 403.781 192.17 401.794 192.872 400.351C 193.368 401.668 193.767 403.585 194.048 405.942L194.048 405.942L196.291 405.057C 195.805 399.351 194.706 395.616 193.24 395.598C 193.201 395.597 193.162 395.61 193.122 395.615C 193.083 395.609 193.046 395.595 193.007 395.595C 191.622 395.577 189.947 401.09 188.861 406.399" stroke="none" fill="#FFFFFF" fill-rule="nonzero" fill-opacity="0.8" /></g></g></g></g><g clip-path="url(#10)"><g><g clip-path="url(#11)"><g clip-path="url(#12)"><path id="10" transform="matrix(1 0 0 -1 0 834)" d="M186.066 416.853C 185.985 417.023 185.337 418.696 185.258 418.866L185.258 418.866L183.256 418.406L183.256 418.406L183.756 426.548L183.756 426.548L188.876 419.751L188.876 419.751L187.131 419.335C 187.22 419.157 187.821 417.793 187.909 417.621" stroke="none" fill="#FFFFFF" fill-rule="nonzero" fill-opacity="0.8" /></g></g></g></g><g clip-path="url(#13)"><path id="11" transform="matrix(1 0 0 -1 0 834)" d="M192.576 373.214C 192.576 358.939 204.148 347.366 218.424 347.366C 232.699 347.366 244.271 358.939 244.271 373.214C 244.271 387.489 232.699 399.062 218.424 399.062C 204.148 399.062 192.576 387.489 192.576 373.214" stroke="none" fill="#FFFFFF" fill-rule="nonzero" /></g><g clip-path="url(#14)"></g><g clip-path="url(#15)"><g transform="matrix(1.011873 0 0 1.007135 194.897 435.7277)"><g transform="matrix(1 0 0 1 0 0)"><image x="0" y="0" xlink:href="img_03.png" width="41" height="69" /></g></g></g><g clip-path="url(#16)"><path id="13" transform="matrix(1 0 0 -1 0 834)" d="M192.576 373.214C 192.576 358.939 204.148 347.366 218.424 347.366C 232.699 347.366 244.271 358.939 244.271 373.214C 244.271 387.489 232.699 399.062 218.424 399.062C 204.148 399.062 192.576 387.489 192.576 373.214z" stroke="#000000" stroke-width="0.766" fill="none" /><path id="14" transform="matrix(1 0 0 -1 0 834)" d="M170.837 426.066C 168.426 426.066 166.472 424.112 166.472 421.702C 166.472 419.291 168.426 417.336 170.837 417.336C 173.248 417.336 175.202 419.291 175.202 421.702C 175.202 424.112 173.248 426.066 170.837 426.066M170.837 417.867C 168.733 417.867 167.027 419.573 167.027 421.677C 167.027 423.782 168.733 425.488 170.837 425.488C 172.941 425.488 174.647 423.782 174.647 421.677C 174.647 419.573 172.941 417.867 170.837 417.867" stroke="none" fill="#FFFFFF" fill-rule="nonzero" /></g><g clip-path="url(#17)"><path id="16" transform="matrix(1 0 0 -1 0 834)" d="M271.728 444.646C 271.728 448.255 270.922 451.286 269.845 452.06L269.845 452.06L269.845 452.075L269.845 452.075L269.844 452.075L269.844 452.075L270.034 453.295L270.034 453.295L269.082 452.219C 267.848 451.866 266.879 448.604 266.879 444.646C 266.879 440.885 267.753 437.754 268.898 437.147L268.898 437.147L268.905 436.971L268.905 436.971L268.906 436.971L268.906 436.971L268.773 435.678L268.773 435.678L269.63 437.109C 270.813 437.611 271.728 440.799 271.728 444.646M269.705 437.958L268.678 438.987L268.678 438.987L268.848 437.992C 267.87 438.651 267.134 441.383 267.134 444.646C 267.134 448.123 267.97 450.999 269.045 451.402L269.045 451.402L269.978 449.977L269.978 449.977L269.841 451.161C 269.841 451.16 269.842 451.16 269.843 451.159L269.843 451.159L269.839 451.164L269.839 451.164L269.839 451.24C 270.777 450.49 271.473 447.818 271.473 444.646C 271.473 441.324 270.71 438.551 269.705 437.958" stroke="none" fill="#FFFFFF" fill-rule="nonzero" /><path id="17" transform="matrix(1 0 0 -1 0 834)" d="M295.937 445.924C 295.937 434.189 305.45 424.676 317.185 424.676C 328.921 424.676 338.434 434.189 338.434 445.924C 338.434 457.659 328.921 467.172 317.185 467.172C 305.45 467.172 295.937 457.659 295.937 445.924" stroke="none" fill="#FFFFFF" fill-rule="nonzero" /></g><g clip-path="url(#18)"></g><g clip-path="url(#19)"><g transform="matrix(0.9992339 0 0 0.9979895 289.976 368.5689)"><g transform="matrix(1 0 0 1 0 0)"><image x="0" y="0" xlink:href="img_04.png" width="59" height="86" /></g></g></g><g clip-path="url(#20)"><path id="19" transform="matrix(1 0 0 -1 0 834)" d="M295.937 445.924C 295.937 434.189 305.45 424.676 317.185 424.676C 328.921 424.676 338.434 434.189 338.434 445.924C 338.434 457.659 328.921 467.172 317.185 467.172C 305.45 467.172 295.937 457.659 295.937 445.924z" stroke="#000000" stroke-width="0.766" fill="none" /><path id="20" transform="matrix(1 0 0 -1 0 834)" d="M251.718 450.289C 249.307 450.289 247.353 448.335 247.353 445.925C 247.353 443.514 249.307 441.559 251.718 441.559C 254.129 441.559 256.083 443.514 256.083 445.925C 256.083 448.335 254.129 450.289 251.718 450.289M251.718 442.09C 249.614 442.09 247.908 443.796 247.908 445.9C 247.908 448.005 249.614 449.711 251.718 449.711C 253.822 449.711 255.528 448.005 255.528 445.9C 255.528 443.796 253.822 442.09 251.718 442.09" stroke="none" fill="#000000" fill-rule="nonzero" /></g><g clip-path="url(#21)"></g><g clip-path="url(#22)"><g transform="matrix(1.023622 0 0 0.9967948 218.69 387.6468)"><g transform="matrix(1 0 0 1 0 0)"><image x="0" y="0" xlink:href="img_05.png" width="27" height="38" /></g></g></g><g clip-path="url(#23)"></g><g clip-path="url(#24)"><g transform="matrix(-1.022789 0 0 0.9967948 221.366 351.8018)"><g transform="matrix(1 0 0 1 0 0)"><image x="0" y="0" xlink:href="img_06.png" width="27" height="38" /></g></g></g><g clip-path="url(#25)"></g><g clip-path="url(#26)"><g transform="matrix(-1.022789 0 0 0.9967948 368.475 385.9298)"><g transform="matrix(1 0 0 1 0 0)"><image x="0" y="0" xlink:href="img_06.png" width="27" height="38" /></g></g></g><g clip-path="url(#27)"></g><g clip-path="url(#28)"><g transform="matrix(1.00259 0 0 0.9987172 363.267 329.0044)"><g transform="matrix(1 0 0 1 0 0)"><image x="0" y="0" xlink:href="img_07.png" width="29" height="58" /></g></g></g><g clip-path="url(#29)"></g><g clip-path="url(#30)"><g transform="matrix(1.023622 0 0 0.9967948 102.951 351.8018)"><g transform="matrix(1 0 0 1 0 0)"><image x="0" y="0" xlink:href="img_08.png" width="27" height="38" /></g></g></g><g clip-path="url(#31)"></g><g clip-path="url(#32)"><g transform="matrix(0.9979298 0 0 1.000146 209.787 131.798)"><g transform="matrix(1 0 0 1 0 0)"><image x="0" y="0" xlink:href="img_09.png" width="114" height="137" /></g></g></g><g clip-path="url(#33)"><g><g clip-path="url(#34)"><g clip-path="url(#35)"><path id="699" transform="matrix(1 0 0 -1 0 834)" d="M311.2179 637.8292C 306.8459 636.0827 296.1574 632.906 284.8755 637.7839" stroke="#FFFFFF" stroke-width="0.7655709" fill="none" stroke-opacity="0.8" /></g><g clip-path="url(#36)"><path id="700" transform="matrix(1 0 0 -1 0 834)" d="M310.78 637.655L309.647 638.67L313.292 638.76L310.815 636.16" stroke="none" fill="#FFFFFF" fill-rule="nonzero" fill-opacity="0.8" /><path id="701" transform="matrix(1 0 0 -1 0 834)" d="M282.823 638.761L286.465 638.595L285.311 637.605L285.243 636.11z" stroke="none" fill="#FFFFFF" fill-rule="nonzero" fill-opacity="0.8" /></g></g></g></g><g clip-path="url(#37)"><path id="702" transform="matrix(1 0 0 -1 0 834)" d="M261.693 590.92C 261.693 576.623 273.621 565.034 288.335 565.034C 303.048 565.034 314.977 576.623 314.977 590.92C 314.977 605.217 303.048 616.807 288.335 616.807C 273.621 616.807 261.693 605.217 261.693 590.92" stroke="none" fill="#FFFFFF" fill-rule="nonzero" /></g><g clip-path="url(#38)"></g><g clip-path="url(#39)"><g transform="matrix(1.007579 0 0 1.000649 225.236 190.015)"><g transform="matrix(1 0 0 1 0 0)"><image x="0" y="0" xlink:href="img_10.png" width="94" height="114" /></g></g></g><g clip-path="url(#40)"><path id="704" transform="matrix(1 0 0 -1 0 834)" d="M261.6928 590.9196C 261.6928 576.6232 273.6209 565.0333 288.3345 565.0333C 303.0481 565.0333 314.9772 576.6232 314.9772 590.9196C 314.9772 605.217 303.0481 616.8059 288.3345 616.8059C 273.6209 616.8059 261.6928 605.217 261.6928 590.9196z" stroke="#000000" stroke-width="0.7655709" fill="none" /><path id="705" transform="matrix(1 0 0 -1 0 834)" d="M278.776 656.239C 276.541 656.239 274.729 654.479 274.729 652.307C 274.729 650.136 276.541 648.376 278.776 648.376C 281.011 648.376 282.822 650.136 282.822 652.307C 282.822 654.479 281.011 656.239 278.776 656.239M278.776 648.854C 276.825 648.854 275.243 650.39 275.243 652.286C 275.243 654.181 276.825 655.718 278.776 655.718C 280.727 655.718 282.308 654.181 282.308 652.286C 282.308 650.39 280.727 648.854 278.776 648.854" stroke="none" fill="#000000" fill-rule="nonzero" /><path id="707" transform="matrix(1 0 0 -1 0 834)" d="M286.355 613.653C 284.12 613.653 282.309 611.893 282.309 609.721C 282.309 607.55 284.12 605.789 286.355 605.789C 288.589 605.789 290.401 607.55 290.401 609.721C 290.401 611.893 288.589 613.653 286.355 613.653M286.355 606.268C 284.404 606.268 282.823 607.804 282.823 609.7C 282.823 611.595 284.404 613.132 286.355 613.132C 288.306 613.132 289.887 611.595 289.887 609.7C 289.887 607.804 288.306 606.268 286.355 606.268" stroke="none" fill="#000000" fill-rule="nonzero" /></g><g clip-path="url(#41)"></g><g clip-path="url(#42)"><g transform="matrix(1.006449 0 0 0.9985386 356.216 112.3803)"><g transform="matrix(1 0 0 1 0 0)"><image x="0" y="0" xlink:href="img_11.png" width="37" height="57" /></g></g></g><g clip-path="url(#43)"></g><g clip-path="url(#44)"><g transform="matrix(1.022789 0 0 0.9967948 172.497 139.8248)"><g transform="matrix(1 0 0 1 0 0)"><image x="0" y="0" xlink:href="img_12.png" width="27" height="38" /></g></g></g><g clip-path="url(#45)"></g><g clip-path="url(#46)"><g transform="matrix(1.022789 0 0 1.006271 172.496 175.0777)"><g transform="matrix(1 0 0 1 0 0)"><image x="0" y="0" xlink:href="img_13.png" width="27" height="38" /></g></g></g><g clip-path="url(#47)"></g><g clip-path="url(#48)"><g transform="matrix(-1.023622 0 0 0.9967948 302.948 139.8278)"><g transform="matrix(1 0 0 1 0 0)"><image x="0" y="0" xlink:href="img_14.png" width="27" height="38" /></g></g></g><g clip-path="url(#49)"></g><g clip-path="url(#50)"><g transform="matrix(1.001788 0 0 1.005015 122.196 575.542)"><g transform="matrix(1 0 0 1 0 0)"><image x="0" y="0" xlink:href="img_15.png" width="80" height="130" /></g></g></g><g clip-path="url(#51)"></g><g clip-path="url(#52)"><g transform="matrix(0.9978234 0 0 1.005015 269.874 575.953)"><g transform="matrix(1 0 0 1 0 0)"><image x="0" y="0" xlink:href="img_16.png" width="77" height="130" /></g></g></g><g clip-path="url(#53)"><g><g clip-path="url(#54)"><g clip-path="url(#55)"><path id="808" transform="matrix(1 0 0 -1 0 834)" d="M181.532 186.788C 182.123 184.245 182.841 182.3 183.519 180.886C 183.996 182.177 184.382 184.053 184.653 186.361L184.653 186.361L186.816 185.495C 186.347 179.907 185.287 176.251 183.874 176.233C 183.836 176.232 183.798 176.245 183.76 176.25C 183.723 176.245 183.686 176.23 183.649 176.23C 182.313 176.213 180.698 181.611 179.65 186.808" stroke="none" fill="#FFFFFF" fill-rule="nonzero" fill-opacity="0.8" /></g></g></g></g><g clip-path="url(#56)"><g><g clip-path="url(#57)"><g clip-path="url(#58)"><path id="809" transform="matrix(1 0 0 -1 0 834)" d="M176.955 197.044C 176.876 197.211 176.252 198.848 176.175 199.014L176.175 199.014L174.244 198.565L174.244 198.565L174.727 206.537L174.727 206.537L179.665 199.881L179.665 199.881L177.982 199.474C 178.068 199.299 178.647 197.964 178.732 197.796" stroke="none" fill="#FFFFFF" fill-rule="nonzero" fill-opacity="0.8" /></g></g></g></g><g clip-path="url(#59)"><path id="810" transform="matrix(1 0 0 -1 0 834)" d="M195.499 160.866C 195.499 143.273 209.548 129.011 226.878 129.011C 244.208 129.011 258.257 143.273 258.257 160.866C 258.257 178.459 244.208 192.721 226.878 192.721C 209.548 192.721 195.499 178.459 195.499 160.866" stroke="none" fill="#FFFFFF" fill-rule="nonzero" /></g><g clip-path="url(#60)"></g><g clip-path="url(#61)"><g transform="matrix(1.00729 0 0 1.007578 198.317 642.2509)"><g transform="matrix(1 0 0 1 0 0)"><image x="0" y="0" xlink:href="img_17.png" width="50" height="85" /></g></g></g><g clip-path="url(#62)"><path id="812" transform="matrix(1 0 0 -1 0 834)" d="M195.4993 160.8669C 195.4993 143.2732 209.5486 129.0115 226.879 129.0115C 244.2084 129.0115 258.2567 143.2732 258.2567 160.8669C 258.2567 178.4605 244.2084 192.7223 226.879 192.7223C 209.5486 192.7223 195.4993 178.4605 195.4993 160.8669z" stroke="#000000" stroke-width="0.7964953" fill="none" /><path id="813" transform="matrix(1 0 0 -1 0 834)" d="M321.776 159.25C 321.776 141.657 335.205 127.395 351.771 127.395C 368.337 127.395 381.766 141.657 381.766 159.25C 381.766 176.844 368.337 191.106 351.771 191.106C 335.205 191.106 321.776 176.844 321.776 159.25" stroke="none" fill="#FFFFFF" fill-rule="nonzero" /></g><g clip-path="url(#63)"></g><g clip-path="url(#64)"><g transform="matrix(1.009538 0 0 1.00437 297.451 601.981)"><g transform="matrix(1 0 0 1 0 0)"><image x="0" y="0" xlink:href="img_18.png" width="76" height="127" /></g></g></g><g clip-path="url(#65)"><path id="815" transform="matrix(1 0 0 -1 0 834)" d="M321.7763 159.2508C 321.7763 141.6581 335.2054 127.3964 351.7715 127.3964C 368.3378 127.3964 381.7668 141.6581 381.7668 159.2508C 381.7668 176.8454 368.3378 191.1072 351.7715 191.1072C 335.2054 191.1072 321.7763 176.8454 321.7763 159.2508z" stroke="#000000" stroke-width="0.7964953" fill="none" /></g><path id="816" transform="matrix(1 0 0 -1 0 834)" d="M316.423 195.149L311.019 189.154" stroke="none" fill="#FFFFFF" fill-rule="nonzero" /><path id="817" transform="matrix(1 0 0 -1 0 834)" d="M316.424 195.1504L312.6239 190.9369" stroke="#FFFFFF" stroke-width="0.7964953" fill="none" /><path id="818" transform="matrix(1 0 0 -1 0 834)" d="M312.291 192.783L312.956 191.303L314.466 190.761L311.018 189.154z" stroke="none" fill="#FFFFFF" fill-rule="nonzero" /><path id="819" transform="matrix(1 0 0 -1 0 834)" d="M328.224 208.237L323.174 202.635" stroke="none" fill="#FFFFFF" fill-rule="nonzero" /><path id="820" transform="matrix(1 0 0 -1 0 834)" d="M328.2244 208.2384L323.1747 202.6364" stroke="#FFFFFF" stroke-width="0.7964953" fill="none" /><g clip-path="url(#66)"><path id="821" transform="matrix(1 0 0 -1 0 834)" d="M162.267 206.065C 159.942 206.065 158.057 204.152 158.057 201.791C 158.057 199.431 159.942 197.518 162.267 197.518C 164.592 197.518 166.477 199.431 166.477 201.791C 166.477 204.152 164.592 206.065 162.267 206.065M162.267 198.037C 160.238 198.037 158.592 199.707 158.592 201.768C 158.592 203.828 160.238 205.498 162.267 205.498C 164.296 205.498 165.942 203.828 165.942 201.768C 165.942 199.707 164.296 198.037 162.267 198.037" stroke="none" fill="#FFFFFF" fill-rule="nonzero" /><path id="823" transform="matrix(1 0 0 -1 0 834)" d="M285.76 210.65C 283.435 210.65 281.55 208.736 281.55 206.376C 281.55 204.016 283.435 202.102 285.76 202.102C 288.085 202.102 289.97 204.016 289.97 206.376C 289.97 208.736 288.085 210.65 285.76 210.65M285.76 202.621C 283.73 202.621 282.085 204.292 282.085 206.352C 282.085 208.413 283.73 210.083 285.76 210.083C 287.789 210.083 289.435 208.413 289.435 206.352C 289.435 204.292 287.789 202.621 285.76 202.621" stroke="none" fill="#FFFFFF" fill-rule="nonzero" /></g><g transform="matrix(1.006449 0 0 0.9985386 355.611 547.9983)"><g transform="matrix(1 0 0 1 0 0)"><image x="0" y="0" xlink:href="img_11.png" width="37" height="57" /></g></g><g clip-path="url(#67)"></g><g clip-path="url(#68)"><g transform="matrix(1.023622 0 0 0.9967948 94.92931 603.9138)"><g transform="matrix(1 0 0 1 0 0)"><image x="0" y="0" xlink:href="img_08.png" width="27" height="38" /></g></g></g><g clip-path="url(#69)"></g><g clip-path="url(#70)"><g transform="matrix(1.023622 0 0 0.9967948 237.498 603.9008)"><g transform="matrix(1 0 0 1 0 0)"><image x="0" y="0" xlink:href="img_05.png" width="27" height="38" /></g></g></g><g clip-path="url(#71)"></g><g clip-path="url(#72)"><g transform="matrix(-1.023622 0 0 0.9967948 375.004 605.4898)"><g transform="matrix(1 0 0 1 0 0)"><image x="0" y="0" xlink:href="img_05.png" width="27" height="38" /></g></g></g><g clip-path="url(#73)"></g><g clip-path="url(#74)"><g transform="matrix(-1.022789 0 0 0.9967948 223.917 603.9138)"><g transform="matrix(1 0 0 1 0 0)"><image x="0" y="0" xlink:href="img_06.png" width="27" height="38" /></g></g></g><path id="1812" transform="matrix(1 0 0 -1 0 834)" d="M633 15L633 0M633 819L633 834M21 15L21 0M21 819L21 834M639 21L654 21M15 21L0 21M639 813L654 813M15 813L0 813" stroke="#000000" stroke-width="1.25" fill="none" /><path id="1813" transform="matrix(1 0 0 -1 0 834)" d="M633 15L633 0M633 819L633 834M21 15L21 0M21 819L21 834M639 21L654 21M15 21L0 21M639 813L654 813M15 813L0 813" stroke="#000000" stroke-width="0.25" fill="none" /><path id="1814" transform="matrix(1 0 0 -1 0 834)" d="M32.2781 9.28203C 32.2781 9.516021 32.2961 9.58203 32.3559 9.62383C 32.416 9.66602 32.5719 9.69609 32.8238 9.69609C 33.2262 9.69609 33.5738 9.62383 33.8441 9.45C 34.3238 9.167971 34.552 8.63398 34.552 8.016021C 34.552 7.05586 34.0359 6.21602 32.9141 6.21602C 32.4762 6.21602 32.2781 6.33008 32.2781 6.78594zM31.252 9.900001L31.252 9.726171C 31.7141 9.68984 31.7621 9.66602 31.7621 9.150001L31.7621 9.150001L31.7621 6.74414C 31.7621 6.23398 31.7141 6.19805 31.198 6.16211L31.198 6.16211L31.198 6L31.198 6L32.6199 6C 33.3578 6 33.952 6.15 34.402 6.49805C 34.8641 6.84609 35.1398 7.38008 35.1398 8.1C 35.1398 8.664061 34.9301 9.101951 34.6359 9.38984C 34.2641 9.74414 33.7 9.900001 32.9379 9.900001z" stroke="#000000" stroke-width="0.4" fill="none" /><path id="1815" transform="matrix(1 0 0 -1 0 834)" d="M38.3801 6.97813C 38.2898 6.70195 38.1758 6.51016 38.0738 6.38984C 37.9359 6.23398 37.732 6.20391 37.402 6.20391C 37.15 6.20391 36.9461 6.21602 36.8258 6.28203C 36.718 6.34219 36.6879 6.46211 36.6879 6.78594L36.6879 6.78594L36.6879 9.15586C 36.6879 9.66602 36.7418 9.69609 37.216 9.73203L37.216 9.73203L37.216 9.900001L37.216 9.900001L35.65 9.900001L35.65 9.900001L35.65 9.73203C 36.1359 9.69609 36.1777 9.66602 36.1777 9.15586L36.1777 9.15586L36.1777 6.75586C 36.1777 6.24609 36.1301 6.20391 35.6258 6.16797L35.6258 6.16797L35.6258 6L35.6258 6L38.3438 6C 38.398 6.18594 38.5238 6.75586 38.5598 6.94219z" stroke="#000000" stroke-width="0.4" fill="none" /><path id="1816" transform="matrix(1 0 0 -1 0 834)" d="M41.0918 9.023829C 41.0438 9.40195 41.0141 9.63594 40.9898 9.851951C 40.7617 9.92383 40.5098 9.989841 40.234 9.989841C 39.4598 9.989841 38.998 9.49805 38.998 8.921881C 38.998 8.24414 39.6039 7.94414 39.9879 7.73984C 40.4379 7.5 40.768 7.28984 40.768 6.84609C 40.768 6.40781 40.498 6.12617 40.048 6.12617C 39.4301 6.12617 39.1598 6.73203 39.0641 7.09805L39.0641 7.09805L38.8898 7.05586C 38.9258 6.767971 39.0039 6.25195 39.052 6.12617C 39.1059 6.09609 39.1961 6.05391 39.3461 6C 39.4961 5.95781 39.6879 5.91016 39.934 5.91016C 40.732 5.91016 41.266 6.41406 41.266 7.04414C 41.266 7.71602 40.6961 7.99805 40.2277 8.23789C 39.7539 8.48398 39.466 8.68789 39.466 9.12617C 39.466 9.45 39.6699 9.78594 40.132 9.78594C 40.6539 9.78594 40.8098 9.371881 40.918 8.98789z" stroke="#000000" stroke-width="0.4" fill="none" /><path id="1817" transform="matrix(1 0 0 -1 0 834)" d="M46.648 6L46.648 6.16797C 46.1258 6.21602 46.1078 6.24609 46.0898 6.88203L46.0898 6.88203L46.0301 9.05391C 46.0117 9.671881 46.0539 9.68398 46.582 9.73203L46.582 9.73203L46.582 9.900001L46.582 9.900001L45.5617 9.900001L45.5617 9.900001L44.1758 6.9L44.1758 6.9L42.8078 9.900001L42.8078 9.900001L41.8238 9.900001L41.8238 9.900001L41.8238 9.73203C 42.3699 9.67813 42.4 9.653911 42.3461 8.87383L42.3461 8.87383L42.2617 7.626171C 42.2141 7.00195 42.1777 6.73789 42.148 6.528131C 42.1059 6.27617 41.9859 6.21016 41.6379 6.16797L41.6379 6.16797L41.6379 6L41.6379 6L43.0359 6L43.0359 6L43.0359 6.16797C 42.6398 6.21016 42.4961 6.25195 42.484 6.53984C 42.4777 6.78008 42.4777 7.04414 42.502 7.53594L42.502 7.53594L42.5918 9.24609L42.5918 9.24609L42.6039 9.24609L42.6039 9.24609L43.948 6.04219L43.948 6.04219L44.068 6.04219L44.068 6.04219L45.532 9.33008L45.532 9.33008L45.5559 9.33008L45.5559 9.33008L45.5738 6.88203C 45.5801 6.24609 45.5559 6.21602 45.0699 6.16797L45.0699 6.16797L45.0699 6z" stroke="#000000" stroke-width="0.4" fill="none" /><path id="1818" transform="matrix(1 0 0 -1 0 834)" d="M51.8738 7.05586C 51.5738 6.45586 51.2496 6.12617 50.6379 6.12617C 49.7258 6.12617 49.0656 6.89414 49.0656 8.016021C 49.0656 8.92813 49.5996 9.773829 50.602 9.773829C 51.2496 9.773829 51.6098 9.516021 51.7656 8.88008L51.7656 8.88008L51.9457 8.921881C 51.9098 9.24609 51.8738 9.48594 51.8258 9.828131C 51.6578 9.85781 51.2496 9.989841 50.7637 9.989841C 49.4258 9.989841 48.4539 9.15586 48.4539 7.89609C 48.4539 6.94219 49.1078 5.91016 50.602 5.91016C 51.034 5.91016 51.5379 6.03008 51.7059 6.07188C 51.8137 6.26992 51.9637 6.71406 52.0477 6.98984z" stroke="#000000" stroke-width="0.4" fill="none" /><path id="1819" transform="matrix(1 0 0 -1 0 834)" d="M54.3398 9.773829C 55.1258 9.773829 55.7855 9.101951 55.7855 7.83594C 55.7855 6.68398 55.1855 6.12617 54.5195 6.12617C 53.6738 6.12617 53.0559 6.94805 53.0559 8.076171C 53.0559 9.19805 53.6676 9.773829 54.3398 9.773829zM54.4598 9.989841C 53.1996 9.989841 52.4438 8.98789 52.4438 7.90781C 52.4438 6.75586 53.3078 5.91016 54.3938 5.91016C 55.4918 5.91016 56.3977 6.70195 56.3977 7.99805C 56.3977 9.19805 55.4797 9.989841 54.4598 9.989841z" stroke="#000000" stroke-width="0.4" fill="none" /><path id="1820" transform="matrix(1 0 0 -1 0 834)" d="M61.8277 6L61.8277 6.16797C 61.3059 6.21602 61.2879 6.24609 61.2695 6.88203L61.2695 6.88203L61.2098 9.05391C 61.1918 9.671881 61.2336 9.68398 61.7617 9.73203L61.7617 9.73203L61.7617 9.900001L61.7617 9.900001L60.7418 9.900001L60.7418 9.900001L59.3559 6.9L59.3559 6.9L57.9879 9.900001L57.9879 9.900001L57.0035 9.900001L57.0035 9.900001L57.0035 9.73203C 57.5496 9.67813 57.5797 9.653911 57.5258 8.87383L57.5258 8.87383L57.4418 7.626171C 57.3938 7.00195 57.3578 6.73789 57.3277 6.528131C 57.2855 6.27617 57.1656 6.21016 56.8176 6.16797L56.8176 6.16797L56.8176 6L56.8176 6L58.2156 6L58.2156 6L58.2156 6.16797C 57.8195 6.21016 57.6758 6.25195 57.6637 6.53984C 57.6578 6.78008 57.6578 7.04414 57.6816 7.53594L57.6816 7.53594L57.7719 9.24609L57.7719 9.24609L57.7836 9.24609L57.7836 9.24609L59.1277 6.04219L59.1277 6.04219L59.2477 6.04219L59.2477 6.04219L60.7117 9.33008L60.7117 9.33008L60.7355 9.33008L60.7355 9.33008L60.7535 6.88203C 60.7598 6.24609 60.7355 6.21602 60.2496 6.16797L60.2496 6.16797L60.2496 6z" stroke="#000000" stroke-width="0.4" fill="none" /><path id="1821" transform="matrix(1 0 0 -1 0 834)" d="M63.8258 6L63.8258 6.16797C 63.3336 6.20391 63.2855 6.23398 63.2855 6.75L63.2855 6.75L63.2855 9.150001C 63.2855 9.66016 63.3336 9.69609 63.8258 9.73203L63.8258 9.73203L63.8258 9.900001L63.8258 9.900001L62.2355 9.900001L62.2355 9.900001L62.2355 9.73203C 62.7277 9.69609 62.7758 9.66016 62.7758 9.150001L62.7758 9.150001L62.7758 6.75C 62.7758 6.23984 62.7277 6.20391 62.2355 6.16797L62.2355 6.16797L62.2355 6z" stroke="#000000" stroke-width="0.4" fill="none" /><path id="1822" transform="matrix(1 0 0 -1 0 834)" d="M66.5074 9.023829C 66.4598 9.40195 66.4297 9.63594 66.4055 9.851951C 66.1777 9.92383 65.9258 9.989841 65.6496 9.989841C 64.8758 9.989841 64.4137 9.49805 64.4137 8.921881C 64.4137 8.24414 65.0195 7.94414 65.4035 7.73984C 65.8535 7.5 66.1836 7.28984 66.1836 6.84609C 66.1836 6.40781 65.9137 6.12617 65.46371 6.12617C 64.8457 6.12617 64.5758 6.73203 64.4797 7.09805L64.4797 7.09805L64.3055 7.05586C 64.3418 6.767971 64.4195 6.25195 64.46761 6.12617C 64.52151 6.09609 64.6117 6.05391 64.7617 6C 64.91171 5.95781 65.1035 5.91016 65.3496 5.91016C 66.1477 5.91016 66.6816 6.41406 66.6816 7.04414C 66.6816 7.71602 66.1117 7.99805 65.6438 8.23789C 65.1695 8.48398 64.8816 8.68789 64.8816 9.12617C 64.8816 9.45 65.0855 9.78594 65.5477 9.78594C 66.0695 9.78594 66.2258 9.371881 66.3336 8.98789z" stroke="#000000" stroke-width="0.4" fill="none" /><path id="1823" transform="matrix(1 0 0 -1 0 834)" d="M69.4055 7.68008L68.3016 7.68008C 68.4816 8.171881 68.6734 8.69414 68.8656 9.21016L68.8656 9.21016L68.8777 9.21016zM70.9355 6L70.9355 6.16797C 70.5457 6.20391 70.46761 6.25781 70.2758 6.77383C 69.89181 7.81797 69.4895 8.95781 69.11761 9.989841L69.11761 9.989841L68.9316 9.93594L68.9316 9.93594L67.68951 6.78594C 67.4797 6.25781 67.3957 6.22188 67.0176 6.16797L67.0176 6.16797L67.0176 6L67.0176 6L68.3195 6L68.3195 6L68.3195 6.16797C 67.8695 6.21016 67.81561 6.26992 67.9477 6.64805C 68.0258 6.9 68.1156 7.15195 68.2117 7.42188L68.2117 7.42188L69.4895 7.42188C 69.62151 7.05586 69.74181 6.73203 69.8195 6.49805C 69.8977 6.26406 69.8438 6.21602 69.4656 6.16797L69.4656 6.16797L69.4656 6z" stroke="#000000" stroke-width="0.4" fill="none" /><path id="1824" transform="matrix(1 0 0 -1 0 834)" d="M71.7273 5.92813C 71.9195 5.92813 72.06371 6.06602 72.06371 6.27617C 72.06371 6.46797 71.9195 6.61797 71.7273 6.61797C 71.5355 6.61797 71.3914 6.46797 71.3914 6.27617C 71.3914 6.06602 71.5355 5.92813 71.7273 5.92813z" stroke="#000000" stroke-width="0.4" fill="none" /><path id="1825" transform="matrix(1 0 0 -1 0 834)" d="M73.9234 6L73.9234 6.15586C 73.53951 6.19219 73.4977 6.22813 73.4977 6.63594L73.4977 6.63594L73.4977 8.70586C 73.2336 8.59805 72.9516 8.51992 72.6453 8.471881L72.6453 8.471881L72.6453 8.328131C 73.0055 8.26797 73.0234 8.24414 73.0234 7.871881L73.0234 7.871881L73.0234 6.63594C 73.0234 6.22813 72.9816 6.19219 72.6035 6.15586L72.6035 6.15586L72.6035 6zM73.2215 9.216021C 73.3953 9.216021 73.52731 9.36016 73.52731 9.52188C 73.52731 9.70195 73.3953 9.83398 73.2273 9.83398C 73.06561 9.83398 72.9215 9.70195 72.9215 9.52188C 72.9215 9.36016 73.06561 9.216021 73.2215 9.216021z" stroke="#000000" stroke-width="0.4" fill="none" /><path id="1826" transform="matrix(1 0 0 -1 0 834)" d="M77.1574 6L77.1574 6.15586C 76.8094 6.19219 76.7793 6.21602 76.7793 6.62383L76.7793 6.62383L76.7793 7.78203C 76.7793 8.36406 76.4793 8.69414 76.0055 8.69414C 75.8313 8.69414 75.67541 8.621881 75.5074 8.51406C 75.3574 8.41211 75.2254 8.32188 75.1055 8.23203L75.1055 8.23203L75.1055 8.712111C 74.8414 8.59219 74.5594 8.51992 74.27151 8.466021L74.27151 8.466021L74.27151 8.328131C 74.5953 8.26797 74.6313 8.25 74.6313 7.86602L74.6313 7.86602L74.6313 6.62383C 74.6313 6.22813 74.6016 6.19805 74.19341 6.15586L74.19341 6.15586L74.19341 6L74.19341 6L75.4953 6L75.4953 6L75.4953 6.15586C 75.1414 6.19219 75.1055 6.21602 75.1055 6.62383L75.1055 6.62383L75.1055 8.03398C 75.2855 8.18984 75.5195 8.33984 75.7594 8.33984C 76.1613 8.33984 76.3055 8.069921 76.3055 7.65586L76.3055 7.65586L76.3055 6.65391C 76.3055 6.23984 76.2633 6.19219 75.9094 6.15586L75.9094 6.15586L75.9094 6z" stroke="#000000" stroke-width="0.4" fill="none" /><path id="1827" transform="matrix(1 0 0 -1 0 834)" d="M79.4734 6.51016C 79.32931 6.40195 79.1133 6.30586 78.8973 6.30586C 78.5133 6.30586 78.0754 6.65391 78.0754 7.36797C 78.0754 8.23789 78.57931 8.471881 78.8555 8.471881C 79.0832 8.471881 79.32931 8.37617 79.4734 8.16602zM80.4035 6.30586L80.2113 6.32383C 79.9895 6.34805 79.9473 6.37813 79.9473 6.68984L79.9473 6.68984L79.9473 10.2719C 79.7254 10.1941 79.3234 10.1039 79.0113 10.0621L79.0113 10.0621L79.0113 9.917971C 79.44341 9.88789 79.4734 9.869921 79.4734 9.47383L79.4734 9.47383L79.4734 8.628131C 79.3355 8.67617 79.1613 8.69414 79.0773 8.69414C 78.2613 8.69414 77.5293 8.03984 77.5293 7.20586C 77.5293 6.36602 78.1594 5.92813 78.6395 5.92813C 78.7113 5.92813 78.87341 5.96406 79.1074 6.10195L79.1074 6.10195L79.4734 6.31797L79.4734 6.31797L79.4734 5.92813C 79.8215 6.05391 80.27151 6.13203 80.4035 6.15586z" stroke="#000000" stroke-width="0.4" fill="none" /><path id="1828" transform="matrix(1 0 0 -1 0 834)" d="M81.3813 8.24414C 81.4895 8.310161 81.6813 8.35781 81.84921 8.35781C 82.34731 8.35781 82.7676 7.96211 82.7676 7.278131C 82.7676 6.58203 82.4492 6.15586 81.9516 6.15586C 81.6336 6.16211 81.4535 6.37188 81.4176 6.49219C 81.3934 6.54609 81.3813 6.60586 81.3813 6.69609zM81.3813 8.42383L81.3813 10.2719C 81.1594 10.1941 80.7934 10.098 80.5113 10.0621L80.5113 10.0621L80.5113 9.92383C 80.8953 9.88789 80.9074 9.851951 80.9074 9.48008L80.9074 9.48008L80.9074 6.14414C 81.2375 5.98789 81.5434 5.92813 81.78951 5.92813C 82.59341 5.92813 83.2953 6.55195 83.2953 7.43398C 83.2953 8.14219 82.7555 8.69414 82.1133 8.69414C 82.0473 8.69414 81.9633 8.67617 81.86761 8.63398z" stroke="#000000" stroke-width="0.4" fill="none" /><path id="1829" transform="matrix(1 0 0 -1 0 834)" d="M89.90701 6L89.90701 6.16211C 89.3613 6.20391 89.3254 6.25195 89.3254 6.68398L89.3254 6.68398L89.3254 9.810161C 88.9953 9.67813 88.641 9.56406 88.257 9.49805L88.257 9.49805L88.257 9.36016L88.257 9.36016L88.5453 9.34805C 88.8094 9.33594 88.8332 9.305861 88.8332 8.99414L88.8332 8.99414L88.8332 6.68398C 88.8332 6.25195 88.8031 6.20391 88.257 6.16211L88.257 6.16211L88.257 6z" stroke="#000000" stroke-width="0.4" fill="none" /><path id="1830" transform="matrix(1 0 0 -1 0 834)" d="M91.3953 9.3L92.7934 9.3L92.7934 9.3L92.9492 9.68984L92.9492 9.68984L92.9133 9.73789L92.9133 9.73789L91.2031 9.73789L91.2031 9.73789L90.9691 7.90781C 91.107 7.96211 91.3352 8.028131 91.5871 8.028131C 92.241 8.028131 92.5652 7.65 92.5652 7.121881C 92.5652 6.67188 92.3133 6.23398 91.8031 6.23398C 91.4371 6.23398 91.191 6.42617 91.0652 6.53984C 91.0051 6.58789 90.957 6.58203 90.9031 6.53984C 90.8371 6.48008 90.7832 6.40195 90.77731 6.34219C 90.7652 6.26992 90.7953 6.22188 90.873 6.13789C 90.9633 6.05391 91.2152 5.92813 91.491 5.92813C 91.8094 5.93398 92.2113 6.08984 92.5352 6.35391C 92.90121 6.65391 93.0691 6.99609 93.0691 7.35586C 93.0691 7.84805 92.67931 8.369921 91.9113 8.369921C 91.7492 8.369921 91.4672 8.273829 91.2391 8.18984z" stroke="#000000" stroke-width="0.4" fill="none" /><path id="1831" transform="matrix(1 0 0 -1 0 834)" d="M94.7313 8.02188C 95.27731 8.02188 95.5293 7.53008 95.5293 7.03203C 95.5293 6.63594 95.3852 6.13203 94.9172 6.13203C 94.42541 6.13203 94.1191 6.719921 94.1191 7.43984C 94.1191 7.59609 94.1254 7.73984 94.15511 7.85391C 94.2992 7.93203 94.50311 8.02188 94.7313 8.02188zM94.1852 8.057811C 94.3652 8.89219 94.923 9.26992 95.2891 9.44414C 95.5113 9.54609 95.7453 9.61797 95.94341 9.653911L95.94341 9.653911L95.90121 9.84609C 95.6613 9.80391 95.373 9.73789 95.1332 9.653911C 94.49731 9.419921 93.5852 8.74219 93.5852 7.428131C 93.5852 6.50391 94.1133 5.92813 94.8152 5.92813C 95.5352 5.92813 96.0453 6.53398 96.0453 7.24805C 96.0453 7.86602 95.607 8.35781 94.9652 8.35781C 94.8453 8.35781 94.7191 8.31602 94.5871 8.25586z" stroke="#000000" stroke-width="0.4" fill="none" /><path id="1850" transform="matrix(1 0 0 -1 0 834)" d="M554.472 6.83984C 554.292 6.46211 554.2141 6.43789 553.89 6.43789L553.89 6.43789L552.768 6.43789L552.768 6.43789L553.6201 7.33203C 554.1721 7.91992 554.412 8.273829 554.412 8.79609C 554.412 9.42617 553.932 9.810161 553.404 9.810161C 553.056 9.810161 552.774 9.653911 552.594 9.45586L552.594 9.45586L552.252 8.96992L552.252 8.96992L552.384 8.85C 552.54 9.08398 552.792 9.40781 553.2 9.40781C 553.644 9.40781 553.908 9.11406 553.908 8.61016C 553.908 8.09414 553.53 7.60195 553.158 7.15781C 552.858 6.81016 552.522 6.46797 552.186 6.13789L552.186 6.13789L552.186 6L552.186 6L554.43 6C 554.502 6.26992 554.562 6.53398 554.64 6.78594z" stroke="#000000" stroke-width="0.4" fill="none" /><path id="1851" transform="matrix(1 0 0 -1 0 834)" d="M555.792 9.3L557.19 9.3L557.19 9.3L557.346 9.68984L557.346 9.68984L557.31 9.73789L557.31 9.73789L555.6 9.73789L555.6 9.73789L555.366 7.90781C 555.504 7.96211 555.732 8.028131 555.984 8.028131C 556.638 8.028131 556.962 7.65 556.962 7.121881C 556.962 6.67188 556.71 6.23398 556.2 6.23398C 555.834 6.23398 555.588 6.42617 555.462 6.53984C 555.402 6.58789 555.354 6.58203 555.3 6.53984C 555.234 6.48008 555.18 6.40195 555.174 6.34219C 555.162 6.26992 555.192 6.22188 555.27 6.13789C 555.36 6.05391 555.612 5.92813 555.888 5.92813C 556.206 5.93398 556.608 6.08984 556.932 6.35391C 557.298 6.65391 557.466 6.99609 557.466 7.35586C 557.466 7.84805 557.076 8.369921 556.308 8.369921C 556.146 8.369921 555.864 8.273829 555.636 8.18984z" stroke="#000000" stroke-width="0.4" fill="none" /><path id="1852" transform="matrix(1 0 0 -1 0 834)" d="M559.548 9.989841L559.212 9.989841L559.212 9.989841L557.91 5.73594L557.91 5.73594L558.246 5.73594z" stroke="#000000" stroke-width="0.4" fill="none" /><path id="1853" transform="matrix(1 0 0 -1 0 834)" d="M561.18 9.61211C 561.72 9.61211 561.8701 8.72383 561.8701 7.871881C 561.8701 7.03203 561.726 6.13203 561.186 6.13203C 560.664 6.13203 560.49 7.03789 560.49 7.87813C 560.49 8.712111 560.634 9.61211 561.18 9.61211zM561.186 9.810161C 560.286 9.810161 559.956 8.74219 559.956 7.86602C 559.956 6.91797 560.28 5.92813 561.186 5.92813C 562.086 5.92813 562.404 6.99609 562.404 7.871881C 562.404 8.79609 562.086 9.810161 561.186 9.810161z" stroke="#000000" stroke-width="0.4" fill="none" /><path id="1854" transform="matrix(1 0 0 -1 0 834)" d="M564 9.61211C 564.582 9.61211 564.738 8.86797 564.738 8.33984C 564.738 8.21992 564.732 8.076171 564.7141 7.94414C 564.588 7.84805 564.384 7.77617 564.174 7.77617C 563.67 7.77617 563.3701 8.214061 563.3701 8.74219C 563.3701 9.09609 563.538 9.61211 564 9.61211zM564.078 9.810161C 563.304 9.810161 562.854 9.10781 562.854 8.53203C 562.854 7.90195 563.292 7.43398 563.928 7.43398C 564.042 7.43398 564.156 7.45781 564.288 7.53008L564.288 7.53008L564.69 7.74609C 564.492 6.83398 563.838 6.23398 562.98 6.08984L562.98 6.08984L563.01 5.91016C 563.16 5.91016 563.526 5.96992 563.85 6.10195C 564.66 6.42617 565.2661 7.20586 565.2661 8.310161C 565.2661 9.12617 564.828 9.810161 564.078 9.810161z" stroke="#000000" stroke-width="0.4" fill="none" /><path id="1855" transform="matrix(1 0 0 -1 0 834)" d="M567.294 9.989841L566.958 9.989841L566.958 9.989841L565.656 5.73594L565.656 5.73594L565.992 5.73594z" stroke="#000000" stroke-width="0.4" fill="none" /><path id="1856" transform="matrix(1 0 0 -1 0 834)" d="M569.9641 6.83984C 569.784 6.46211 569.706 6.43789 569.382 6.43789L569.382 6.43789L568.26 6.43789L568.26 6.43789L569.112 7.33203C 569.664 7.91992 569.904 8.273829 569.904 8.79609C 569.904 9.42617 569.424 9.810161 568.896 9.810161C 568.548 9.810161 568.2661 9.653911 568.086 9.45586L568.086 9.45586L567.744 8.96992L567.744 8.96992L567.876 8.85C 568.032 9.08398 568.284 9.40781 568.692 9.40781C 569.136 9.40781 569.4 9.11406 569.4 8.61016C 569.4 8.09414 569.022 7.60195 568.65 7.15781C 568.35 6.81016 568.014 6.46797 567.678 6.13789L567.678 6.13789L567.678 6L567.678 6L569.9221 6C 569.994 6.26992 570.054 6.53398 570.132 6.78594z" stroke="#000000" stroke-width="0.4" fill="none" /><path id="1857" transform="matrix(1 0 0 -1 0 834)" d="M571.806 9.61211C 572.346 9.61211 572.496 8.72383 572.496 7.871881C 572.496 7.03203 572.352 6.13203 571.812 6.13203C 571.29 6.13203 571.116 7.03789 571.116 7.87813C 571.116 8.712111 571.26 9.61211 571.806 9.61211zM571.812 9.810161C 570.912 9.810161 570.582 8.74219 570.582 7.86602C 570.582 6.91797 570.906 5.92813 571.812 5.92813C 572.712 5.92813 573.03 6.99609 573.03 7.871881C 573.03 8.79609 572.712 9.810161 571.812 9.810161z" stroke="#000000" stroke-width="0.4" fill="none" /><path id="1858" transform="matrix(1 0 0 -1 0 834)" d="M575.556 6L575.556 6.16211C 575.01 6.20391 574.9741 6.25195 574.9741 6.68398L574.9741 6.68398L574.9741 9.810161C 574.644 9.67813 574.29 9.56406 573.906 9.49805L573.906 9.49805L573.906 9.36016L573.906 9.36016L574.194 9.34805C 574.458 9.33594 574.482 9.305861 574.482 8.99414L574.482 8.99414L574.482 6.68398C 574.482 6.25195 574.452 6.20391 573.906 6.16211L573.906 6.16211L573.906 6z" stroke="#000000" stroke-width="0.4" fill="none" /><path id="1859" transform="matrix(1 0 0 -1 0 834)" d="M578.814 9.73789L576.522 9.73789C 576.498 9.48008 576.468 9.180079 576.414 8.85L576.414 8.85L576.588 8.85C 576.732 9.24609 576.768 9.3 577.164 9.3L577.164 9.3L578.46 9.3C 577.986 8.25586 577.308 7.01406 576.678 5.99414L576.678 5.99414L576.72 5.92813L576.72 5.92813L577.164 5.98789C 577.74 7.22383 578.298 8.44805 578.862 9.66602z" stroke="#000000" stroke-width="0.4" fill="none" /><path id="1860" transform="matrix(1 0 0 -1 0 834)" d="M584.531 9.61211C 585.071 9.61211 585.221 8.72383 585.221 7.871881C 585.221 7.03203 585.077 6.13203 584.537 6.13203C 584.015 6.13203 583.841 7.03789 583.841 7.87813C 583.841 8.712111 583.985 9.61211 584.531 9.61211zM584.537 9.810161C 583.637 9.810161 583.307 8.74219 583.307 7.86602C 583.307 6.91797 583.631 5.92813 584.537 5.92813C 585.437 5.92813 585.755 6.99609 585.755 7.871881C 585.755 8.79609 585.437 9.810161 584.537 9.810161z" stroke="#000000" stroke-width="0.4" fill="none" /><path id="1861" transform="matrix(1 0 0 -1 0 834)" d="M588.449 6.83984C 588.269 6.46211 588.191 6.43789 587.867 6.43789L587.867 6.43789L586.7451 6.43789L586.7451 6.43789L587.597 7.33203C 588.149 7.91992 588.389 8.273829 588.389 8.79609C 588.389 9.42617 587.909 9.810161 587.381 9.810161C 587.033 9.810161 586.751 9.653911 586.571 9.45586L586.571 9.45586L586.229 8.96992L586.229 8.96992L586.361 8.85C 586.517 9.08398 586.769 9.40781 587.177 9.40781C 587.621 9.40781 587.885 9.11406 587.885 8.61016C 587.885 8.09414 587.507 7.60195 587.135 7.15781C 586.835 6.81016 586.499 6.46797 586.163 6.13789L586.163 6.13789L586.163 6L586.163 6L588.407 6C 588.479 6.26992 588.539 6.53398 588.617 6.78594z" stroke="#000000" stroke-width="0.4" fill="none" /><path id="1862" transform="matrix(1 0 0 -1 0 834)" d="M589.5471 5.92813C 589.739 5.92813 589.883 6.06602 589.883 6.27617C 589.883 6.46797 589.739 6.61797 589.5471 6.61797C 589.355 6.61797 589.211 6.46797 589.211 6.27617C 589.211 6.06602 589.355 5.92813 589.5471 5.92813zM589.541 8.466021C 589.3491 8.466021 589.211 8.328131 589.211 8.13008C 589.211 7.92617 589.3491 7.78203 589.541 7.78203C 589.733 7.78203 589.877 7.92617 589.877 8.13008C 589.877 8.328131 589.733 8.466021 589.541 8.466021z" stroke="#000000" stroke-width="0.4" fill="none" /><path id="1863" transform="matrix(1 0 0 -1 0 834)" d="M592.697 6.83984C 592.517 6.46211 592.439 6.43789 592.115 6.43789L592.115 6.43789L590.993 6.43789L590.993 6.43789L591.845 7.33203C 592.397 7.91992 592.637 8.273829 592.637 8.79609C 592.637 9.42617 592.157 9.810161 591.629 9.810161C 591.281 9.810161 590.999 9.653911 590.819 9.45586L590.819 9.45586L590.477 8.96992L590.477 8.96992L590.609 8.85C 590.765 9.08398 591.017 9.40781 591.425 9.40781C 591.869 9.40781 592.133 9.11406 592.133 8.61016C 592.133 8.09414 591.755 7.60195 591.383 7.15781C 591.083 6.81016 590.747 6.46797 590.411 6.13789L590.411 6.13789L590.411 6L590.411 6L592.655 6C 592.727 6.26992 592.787 6.53398 592.865 6.78594z" stroke="#000000" stroke-width="0.4" fill="none" /><path id="1864" transform="matrix(1 0 0 -1 0 834)" d="M595.788 9.73789L593.496 9.73789C 593.472 9.48008 593.442 9.180079 593.388 8.85L593.388 8.85L593.562 8.85C 593.706 9.24609 593.742 9.3 594.138 9.3L594.138 9.3L595.434 9.3C 594.96 8.25586 594.282 7.01406 593.652 5.99414L593.652 5.99414L593.694 5.92813L593.694 5.92813L594.138 5.98789C 594.7141 7.22383 595.272 8.44805 595.836 9.66602z" stroke="#000000" stroke-width="0.4" fill="none" /><path id="1865" transform="matrix(1 0 0 -1 0 834)" d="M596.675 5.92813C 596.867 5.92813 597.011 6.06602 597.011 6.27617C 597.011 6.46797 596.867 6.61797 596.675 6.61797C 596.483 6.61797 596.3391 6.46797 596.3391 6.27617C 596.3391 6.06602 596.483 5.92813 596.675 5.92813zM596.669 8.466021C 596.477 8.466021 596.3391 8.328131 596.3391 8.13008C 596.3391 7.92617 596.477 7.78203 596.669 7.78203C 596.861 7.78203 597.005 7.92617 597.005 8.13008C 597.005 8.328131 596.861 8.466021 596.669 8.466021z" stroke="#000000" stroke-width="0.4" fill="none" /><path id="1866" transform="matrix(1 0 0 -1 0 834)" d="M599.033 7.35L597.851 7.35C 598.247 8.016021 598.637 8.58594 599.021 9.119921L599.021 9.119921L599.033 9.119921zM600.0891 7.06797L600.0891 7.35L600.0891 7.35L599.513 7.35L599.513 7.35L599.513 9.79219L599.513 9.79219L599.273 9.79219C 598.655 8.976171 598.043 8.08789 597.473 7.23594L597.473 7.23594L597.473 7.06797L597.473 7.06797L599.033 7.06797L599.033 7.06797L599.033 6.63594C 599.033 6.23984 599.009 6.20391 598.487 6.16211L598.487 6.16211L598.487 6L598.487 6L600.023 6L600.023 6L600.023 6.16211C 599.537 6.20391 599.513 6.23398 599.513 6.63594L599.513 6.63594L599.513 7.06797z" stroke="#000000" stroke-width="0.4" fill="none" /><path id="1867" transform="matrix(1 0 0 -1 0 834)" d="M602.537 6L602.537 6.16211C 601.991 6.20391 601.955 6.25195 601.955 6.68398L601.955 6.68398L601.955 9.810161C 601.625 9.67813 601.271 9.56406 600.887 9.49805L600.887 9.49805L600.887 9.36016L600.887 9.36016L601.175 9.34805C 601.439 9.33594 601.463 9.305861 601.463 8.99414L601.463 8.99414L601.463 6.68398C 601.463 6.25195 601.433 6.20391 600.887 6.16211L600.887 6.16211L600.887 6z" stroke="#000000" stroke-width="0.4" fill="none" /><path id="1868" transform="matrix(1 0 0 -1 0 834)" d="M605.489 8.08203C 605.651 8.20195 605.897 8.33398 606.0891 8.33398C 606.527 8.33398 606.893 7.97383 606.893 7.33203C 606.893 6.65391 606.557 6.22188 606.053 6.22188C 605.8491 6.22188 605.621 6.31797 605.489 6.45586zM605.489 8.28008L605.489 8.75391C 605.207 8.63984 604.871 8.53789 604.619 8.49609L604.619 8.49609L604.619 8.351951C 604.991 8.30391 605.015 8.29219 605.015 7.90195L605.015 7.90195L605.015 5.18984C 605.015 4.79414 604.961 4.75781 604.577 4.72188L604.577 4.72188L604.577 4.56016L604.577 4.56016L605.999 4.56016L605.999 4.56016L605.999 4.72188C 605.531 4.76406 605.489 4.79414 605.489 5.25L605.489 5.25L605.489 6.03594C 605.567 5.99414 605.729 5.93398 605.903 5.92813C 606.683 6.07188 607.397 6.65391 607.397 7.56016C 607.397 8.153911 607.001 8.69414 606.335 8.69414C 606.263 8.69414 606.149 8.664061 606.041 8.60391z" stroke="#000000" stroke-width="0.4" fill="none" /><path id="1869" transform="matrix(1 0 0 -1 0 834)" d="M608.303 5.92813C 608.4951 5.92813 608.639 6.06602 608.639 6.27617C 608.639 6.46797 608.4951 6.61797 608.303 6.61797C 608.111 6.61797 607.967 6.46797 607.967 6.27617C 607.967 6.06602 608.111 5.92813 608.303 5.92813z" stroke="#000000" stroke-width="0.4" fill="none" /><path id="1870" transform="matrix(1 0 0 -1 0 834)" d="M615.125 6L615.125 6.15586C 614.783 6.19219 614.735 6.21602 614.735 6.61797L614.735 6.61797L614.735 7.77617C 614.735 8.36406 614.441 8.69414 613.973 8.69414C 613.805 8.69414 613.649 8.621881 613.523 8.53789C 613.373 8.44805 613.199 8.33398 613.025 8.20195C 612.905 8.51406 612.647 8.69414 612.359 8.69414C 612.167 8.69414 612.023 8.628131 611.867 8.53203C 611.687 8.417971 611.555 8.310161 611.429 8.226171L611.429 8.226171L611.429 8.712111C 611.165 8.59219 610.859 8.51406 610.595 8.466021L610.595 8.466021L610.595 8.328131C 610.9431 8.273829 610.961 8.24414 610.961 7.86016L610.961 7.86016L610.961 6.61797C 610.961 6.22813 610.907 6.19219 610.511 6.15586L610.511 6.15586L610.511 6L610.511 6L611.777 6L611.777 6L611.777 6.15586C 611.483 6.19219 611.435 6.22813 611.435 6.61797L611.435 6.61797L611.435 8.028131C 611.615 8.17813 611.8491 8.33984 612.0891 8.33984C 612.455 8.33984 612.611 8.09414 612.611 7.65L612.611 7.65L612.611 6.61797C 612.611 6.22188 612.557 6.19219 612.185 6.15586L612.185 6.15586L612.185 6L612.185 6L613.469 6L613.469 6L613.469 6.15586C 613.139 6.19219 613.085 6.22813 613.085 6.60586L613.085 6.60586L613.085 7.77617C 613.085 7.88984 613.079 7.95586 613.067 8.028131C 613.295 8.21992 613.523 8.33984 613.739 8.33984C 614.117 8.33984 614.267 8.069921 614.267 7.64414L614.267 7.64414L614.267 6.64219C 614.267 6.21602 614.201 6.19219 613.847 6.15586L613.847 6.15586L613.847 6z" stroke="#000000" stroke-width="0.4" fill="none" /><path id="1871" transform="matrix(1 0 0 -1 0 834)" d="M615.947 5.92813C 616.139 5.92813 616.283 6.06602 616.283 6.27617C 616.283 6.46797 616.139 6.61797 615.947 6.61797C 615.755 6.61797 615.611 6.46797 615.611 6.27617C 615.611 6.06602 615.755 5.92813 615.947 5.92813z" stroke="#000000" stroke-width="0.4" fill="none" /></g></g></svg>