<svg xmlns="http://www.w3.org/2000/svg" xmlns:xlink="http://www.w3.org/1999/xlink" id="body_1" preserveAspectRatio="xMinYMin meet" viewBox="0 0 872 1112"><defs><clipPath id="1"><path id="" clip-rule="evenodd" transform="matrix(1 0 0 1 0 0)" d="M0 834L0 0L0 0L654 0L654 0L654 834L654 834L0 834z" /></clipPath><clipPath id="2"><path id="" clip-rule="evenodd" transform="matrix(1 0 0 1 0 0)" d="M21 813L633 813L633 813L633 21L633 21L21 21z" /></clipPath><clipPath id="3"><path id="" clip-rule="evenodd" transform="matrix(1 0 0 1 0 0)" d="M343.03 266.624L421.798 266.624L421.798 266.624L421.798 128.217L421.798 128.217L343.03 128.217z" /></clipPath><clipPath id="4"><path id="" clip-rule="evenodd" transform="matrix(1 0 0 1 0 0)" d="M343.03 266.624L421.798 266.624L421.798 266.624L421.798 128.217L421.798 128.217L343.03 128.217z" /></clipPath><clipPath id="5"><path id="" clip-rule="evenodd" transform="matrix(1 0 0 1 0 0)" d="M343.03 268.598L472.049 268.598L472.049 268.598L472.049 128.216L472.049 128.216L343.03 128.216z" /></clipPath><clipPath id="6"><path id="" clip-rule="evenodd" transform="matrix(1 0 0 1 0 0)" d="M410.173 227.477L410.173 245.603C 414.054 258.39 425.935 267.695 439.99 267.695L439.99 267.695L439.99 267.695C 457.196 267.695 471.145 253.747 471.145 236.539L471.145 236.539L471.145 236.539C 471.145 219.333 457.196 205.384 439.99 205.384L439.99 205.384L439.99 205.384C 425.935 205.384 414.054 214.69 410.173 227.477" /></clipPath><clipPath id="7"><path id="" clip-rule="evenodd" transform="matrix(1 0 0 1 0 0)" d="M410.173 227.477L410.173 245.603C 414.054 258.39 425.935 267.695 439.99 267.695L439.99 267.695L439.99 267.695C 457.196 267.695 471.145 253.747 471.145 236.539L471.145 236.539L471.145 236.539C 471.145 219.333 457.196 205.384 439.99 205.384L439.99 205.384L439.99 205.384C 425.935 205.384 414.054 214.69 410.173 227.477" /></clipPath><clipPath id="8"><path id="" clip-rule="evenodd" transform="matrix(1 0 0 1 0 0)" d="M343.03 268.598L472.049 268.598L472.049 268.598L472.049 128.216L472.049 128.216L343.03 128.216z" /></clipPath><clipPath id="9"><path id="" clip-rule="evenodd" transform="matrix(1 0 0 1 0 0)" d="M371.68 250.351L402.8921 250.351L402.8921 250.351L402.8921 223.2291L402.8921 223.2291L371.68 223.2291z" /></clipPath><clipPath id="10"><path id="" clip-rule="evenodd" transform="matrix(1 0 0 1 0 0)" d="M371.68 250.351L402.892 250.351L402.892 250.351L402.892 223.229L402.892 223.229L371.68 223.229z" /></clipPath><clipPath id="11"><path id="" clip-rule="evenodd" transform="matrix(1 0 0 1 0 0)" d="M371.68 250.351L402.8917 250.351L402.8917 250.351L402.8917 223.2286L402.8917 223.2286L371.68 223.2286z" /></clipPath><clipPath id="12"><path id="" clip-rule="evenodd" transform="matrix(1 0 0 1 0 0)" d="M343.03 268.598L472.049 268.598L472.049 268.598L472.049 128.216L472.049 128.216L343.03 128.216z" /></clipPath><clipPath id="13"><path id="" clip-rule="evenodd" transform="matrix(1 0 0 1 0 0)" d="M343.03 268.598L472.049 268.598L472.049 268.598L472.049 128.216L472.049 128.216L343.03 128.216z" /></clipPath><clipPath id="14"><path id="" clip-rule="evenodd" transform="matrix(1 0 0 1 0 0)" d="M365.927 488L459.4711 488L459.4711 488L459.4711 348.893L459.4711 348.893L365.927 348.893z" /></clipPath><clipPath id="15"><path id="" clip-rule="evenodd" transform="matrix(1 0 0 1 0 0)" d="M365.927 488L459.4711 488L459.4711 488L459.4711 348.893L459.4711 348.893L365.927 348.893z" /></clipPath><clipPath id="16"><path id="" clip-rule="evenodd" transform="matrix(1 0 0 1 0 0)" d="M401.313 486.842L421.6821 486.842L421.6821 486.842L421.6821 407.7854L421.6821 407.7854L401.313 407.7854z" /></clipPath><clipPath id="17"><path id="" clip-rule="evenodd" transform="matrix(1 0 0 1 0 0)" d="M401.313 486.842L421.682 486.842L421.682 486.842L421.682 407.785L421.682 407.785L401.313 407.785z" /></clipPath><clipPath id="18"><path id="" clip-rule="evenodd" transform="matrix(1 0 0 1 0 0)" d="M401.313 486.842L421.681 486.842L421.681 486.842L421.681 407.7854L421.681 407.7854L401.313 407.7854z" /></clipPath><clipPath id="19"><path id="" clip-rule="evenodd" transform="matrix(1 0 0 1 0 0)" d="M389.778 423.945L393.0979 423.945L393.0979 423.945L393.0979 408.4891L393.0979 408.4891L389.778 408.4891z" /></clipPath><clipPath id="20"><path id="" clip-rule="evenodd" transform="matrix(1 0 0 1 0 0)" d="M389.778 423.945L393.098 423.945L393.098 423.945L393.098 408.489L393.098 408.489L389.778 408.489z" /></clipPath><clipPath id="21"><path id="" clip-rule="evenodd" transform="matrix(1 0 0 1 0 0)" d="M389.778 423.945L393.0979 423.945L393.0979 423.945L393.0979 408.4891L393.0979 408.4891L389.778 408.4891z" /></clipPath><clipPath id="22"><path id="" clip-rule="evenodd" transform="matrix(1 0 0 1 0 0)" d="M373.22 464.462L393.588 464.462L393.588 464.462L393.588 374.5917L393.588 374.5917L373.22 374.5917z" /></clipPath><clipPath id="23"><path id="" clip-rule="evenodd" transform="matrix(1 0 0 1 0 0)" d="M373.22 464.462L393.588 464.462L393.588 464.462L393.588 374.592L393.588 374.592L373.22 374.592z" /></clipPath><clipPath id="24"><path id="" clip-rule="evenodd" transform="matrix(1 0 0 1 0 0)" d="M373.22 464.462L393.5891 464.462L393.5891 464.462L393.5891 374.5921L393.5891 374.5921L373.22 374.5921z" /></clipPath><clipPath id="25"><path id="" clip-rule="evenodd" transform="matrix(1 0 0 1 0 0)" d="M260.731 168.125L297.9693 168.125L297.9693 168.125L297.9693 111.209L297.9693 111.209L260.731 111.209z" /></clipPath><clipPath id="26"><path id="" clip-rule="evenodd" transform="matrix(1 0 0 1 0 0)" d="M260.731 168.125L297.9693 168.125L297.9693 168.125L297.9693 111.209L297.9693 111.209L260.731 111.209z" /></clipPath><clipPath id="27"><path id="" clip-rule="evenodd" transform="matrix(1 0 0 1 0 0)" d="M316.937 452.359L342.5339 452.359L342.5339 452.359L342.5339 416.5L342.5339 416.5L316.937 416.5z" /></clipPath><clipPath id="28"><path id="" clip-rule="evenodd" transform="matrix(1 0 0 1 0 0)" d="M316.937 452.359L342.5339 452.359L342.5339 452.359L342.5339 416.5L342.5339 416.5L316.937 416.5z" /></clipPath><clipPath id="29"><path id="" clip-rule="evenodd" transform="matrix(1 0 0 1 0 0)" d="M287.74 222.256L313.3373 222.256L313.3373 222.256L313.3373 186.3982L313.3373 186.3982L287.74 186.3982z" /></clipPath><clipPath id="30"><path id="" clip-rule="evenodd" transform="matrix(1 0 0 1 0 0)" d="M287.74 222.256L313.3373 222.256L313.3373 222.256L313.3373 186.3982L313.3373 186.3982L287.74 186.3982z" /></clipPath><clipPath id="31"><path id="" clip-rule="evenodd" transform="matrix(1 0 0 1 0 0)" d="M287.74 258.469L313.3373 258.469L313.3373 258.469L313.3373 222.61L313.3373 222.61L287.74 222.61z" /></clipPath><clipPath id="32"><path id="" clip-rule="evenodd" transform="matrix(1 0 0 1 0 0)" d="M287.74 258.469L313.3373 258.469L313.3373 258.469L313.3373 222.61L313.3373 222.61L287.74 222.61z" /></clipPath><clipPath id="33"><path id="" clip-rule="evenodd" transform="matrix(1 0 0 1 0 0)" d="M471.907 452.359L497.5039 452.359L497.5039 452.359L497.5039 416.5L497.5039 416.5L471.907 416.5z" /></clipPath><clipPath id="34"><path id="" clip-rule="evenodd" transform="matrix(1 0 0 1 0 0)" d="M471.907 452.359L497.5039 452.359L497.5039 452.359L497.5039 416.5L497.5039 416.5L471.907 416.5z" /></clipPath><clipPath id="35"><path id="" clip-rule="evenodd" transform="matrix(1 0 0 1 0 0)" d="M357.495 708.321L448.7579 708.321L448.7579 708.321L448.7579 569.289L448.7579 569.289L357.495 569.289z" /></clipPath><clipPath id="36"><path id="" clip-rule="evenodd" transform="matrix(1 0 0 1 0 0)" d="M357.495 708.321L448.7579 708.321L448.7579 708.321L448.7579 569.289L448.7579 569.289L357.495 569.289z" /></clipPath><clipPath id="37"><path id="" clip-rule="evenodd" transform="matrix(1 0 0 1 0 0)" d="M357.495 709.252L464.733 709.252L464.733 709.252L464.733 569.289L464.733 569.289L357.495 569.289z" /></clipPath><clipPath id="38"><path id="" clip-rule="evenodd" transform="matrix(1 0 0 1 0 0)" d="M403.126 677.983C 403.126 694.739 416.709 708.321 433.464 708.321L433.464 708.321L433.464 708.321C 450.22 708.321 463.801 694.739 463.801 677.983L463.801 677.983L463.801 677.983C 463.801 661.229 450.22 647.646 433.464 647.646L433.464 647.646L433.464 647.646C 416.709 647.646 403.126 661.229 403.126 677.983" /></clipPath><clipPath id="39"><path id="" clip-rule="evenodd" transform="matrix(1 0 0 1 0 0)" d="M403.126 677.983C 403.126 694.739 416.709 708.321 433.464 708.321L433.464 708.321L433.464 708.321C 450.22 708.321 463.801 694.739 463.801 677.983L463.801 677.983L463.801 677.983C 463.801 661.229 450.22 647.646 433.464 647.646L433.464 647.646L433.464 647.646C 416.709 647.646 403.126 661.229 403.126 677.983" /></clipPath><clipPath id="40"><path id="" clip-rule="evenodd" transform="matrix(1 0 0 1 0 0)" d="M357.495 709.252L464.733 709.252L464.733 709.252L464.733 569.289L464.733 569.289L357.495 569.289z" /></clipPath><clipPath id="41"><path id="" clip-rule="evenodd" transform="matrix(1 0 0 1 0 0)" d="M258.162 608.563L300.5378 608.563L300.5378 608.563L300.5378 563.865L300.5378 563.865L258.162 563.865z" /></clipPath><clipPath id="42"><path id="" clip-rule="evenodd" transform="matrix(1 0 0 1 0 0)" d="M258.162 608.563L300.5378 608.563L300.5378 608.563L300.5378 563.865L300.5378 563.865L258.162 563.865z" /></clipPath><clipPath id="43"><path id="" clip-rule="evenodd" transform="matrix(1 0 0 1 0 0)" d="M310.342 672.827L335.9389 672.827L335.9389 672.827L335.9389 636.968L335.9389 636.968L310.342 636.968z" /></clipPath><clipPath id="44"><path id="" clip-rule="evenodd" transform="matrix(1 0 0 1 0 0)" d="M310.342 672.827L335.9389 672.827L335.9389 672.827L335.9389 636.968L335.9389 636.968L310.342 636.968z" /></clipPath></defs><g transform="matrix(1.333333 0 0 1.333333 0 0)"><g clip-path="url(#1)"><g clip-path="url(#2)"><path id="1" transform="matrix(1 0 0 -1 0 834)" d="M91.866 67.4211L562.134 67.4211L562.134 74.92501L91.866 74.92501z" stroke="none" fill="#686868" fill-rule="nonzero" /><path id="2" transform="matrix(1 0 0 -1 0 834)" d="M562.134 526.984L91.866 526.984" stroke="#686868" stroke-width="1" fill="none" /><path id="3" transform="matrix(1 0 0 -1 0 834)" d="M562.134 307.016L91.866 307.016" stroke="#686868" stroke-width="1" fill="none" /></g><g clip-path="url(#3)"></g><g clip-path="url(#4)"><g transform="matrix(0.9970709 0 0 1.002957 343.029 128.216)"><g transform="matrix(1 0 0 1 0 0)"><image x="0" y="0" xlink:href="img_01.png" width="79" height="138" /></g></g></g><g clip-path="url(#5)"><path id="625" transform="matrix(1 0 0 -1 0 834)" d="M471.145 597.46C 471.145 580.253 457.196 566.305 439.99 566.305C 422.783 566.305 408.835 580.253 408.835 597.46C 408.835 614.667 422.783 628.615 439.99 628.615C 457.196 628.615 471.145 614.667 471.145 597.46" stroke="none" fill="#FFFFFF" fill-rule="nonzero" /></g><g clip-path="url(#6)"></g><g clip-path="url(#7)"><g transform="matrix(0.9979355 0 0 1.002886 410.173 152.554)"><g transform="matrix(1 0 0 1 0 0)"><image x="0" y="0" xlink:href="img_02.png" width="76" height="123" /></g></g></g><g clip-path="url(#8)"><path id="627" transform="matrix(1 0 0 -1 0 834)" d="M471.145 597.46C 471.145 580.253 457.196 566.305 439.99 566.305C 422.783 566.305 408.835 580.253 408.835 597.46C 408.835 614.667 422.783 628.615 439.99 628.615C 457.196 628.615 471.145 614.667 471.145 597.46z" stroke="#000000" stroke-width="1.004" fill="none" /></g><g clip-path="url(#9)"><g><g clip-path="url(#10)"><g clip-path="url(#11)"><path id="628" transform="matrix(1 0 0 -1 0 834)" d="M399.58 589.858C 402.06 593.094 403.21 597.045 402.818 600.984C 402.744 601.726 402.617 602.45 402.44 603.153C 401.67 606.208 400.684 608.619 398.193 610.528C 397.964 610.704 397.692 610.611 397.455 610.77L397.455 610.77L395.508 610.428C 397.424 608.48 400.643 603.657 400.927 600.796C 401.271 597.3391 400.257 593.865 398.072 591.014C 393.575 585.147 385.464 583.788 379.99 587.983C 377.844 589.628 376.356 591.92 375.69 594.563C 375.536 595.174 375.426 595.804 375.362 596.45C 375.233 597.747 375.296 599.0471 375.54 600.316L375.54 600.316L375.352 600.548L375.352 600.548L375.552 600.388L375.552 600.388L376.772 598.159L376.772 598.159L378.99 606.203L378.99 606.203L371.681 602.178L371.681 602.178L373.879 601.578C 373.438 599.8491 373.293 598.054 373.471 596.261C 373.865 592.299 375.77 588.824 378.834 586.475C 385.139 581.642 394.446 583.16 399.58 589.858" stroke="none" fill="#FFFFFF" fill-rule="nonzero" fill-opacity="0.8" /></g></g></g></g><g clip-path="url(#12)"><path id="629" transform="matrix(1 0 0 -1 0 834)" d="M386.433 635.358C 383.503 635.358 381.127 632.982 381.127 630.052C 381.127 627.122 383.503 624.746 386.433 624.746C 389.363 624.746 391.739 627.122 391.739 630.052C 391.739 632.982 389.363 635.358 386.433 635.358M386.433 625.3911C 383.875 625.3911 381.801 627.465 381.801 630.023C 381.801 632.581 383.875 634.655 386.433 634.655C 388.991 634.655 391.065 632.581 391.065 630.023C 391.065 627.465 388.991 625.3911 386.433 625.3911" stroke="none" fill="#FFFFFF" fill-rule="nonzero" /></g><g clip-path="url(#13)"><path id="631" transform="matrix(1 0 0 -1 0 834)" d="M455.787 596.357C 452.857 596.357 450.481 593.981 450.481 591.051C 450.481 588.121 452.857 585.7451 455.787 585.7451C 458.717 585.7451 461.093 588.121 461.093 591.051C 461.093 593.981 458.717 596.357 455.787 596.357M455.787 586.39C 453.229 586.39 451.155 588.4641 451.155 591.022C 451.155 593.58 453.229 595.654 455.787 595.654C 458.345 595.654 460.419 593.58 460.419 591.022C 460.419 588.4641 458.345 586.39 455.787 586.39" stroke="none" fill="#FFFFFF" fill-rule="nonzero" /></g><path id="633" transform="matrix(1 0 0 -1 0 834)" d="M449.191 580.763L451.155 583.1721" stroke="#FFFFFF" stroke-width="1.004" fill="none" /><path id="634" transform="matrix(1 0 0 -1 0 834)" d="M451.776 575.878L454.835 575.324" stroke="#FFFFFF" stroke-width="1.004" fill="none" /><path id="635" transform="matrix(1 0 0 -1 0 834)" d="M448.219 571.324L449.191 568.372" stroke="#FFFFFF" stroke-width="1.004" fill="none" /><g clip-path="url(#14)"></g><g clip-path="url(#15)"><g transform="matrix(1.005853 0 0 1.000763 365.928 348.894)"><g transform="matrix(1 0 0 1 0 0)"><image x="0" y="0" xlink:href="img_03.png" width="93" height="139" /></g></g></g><g clip-path="url(#16)"><g><g clip-path="url(#17)"><g clip-path="url(#18)"><path id="637" transform="matrix(1 0 0 -1 0 834)" d="M421.682 386.687C 421.682 400.729 420.002 413.035 417.481 419.937C 420.005 412.902 421.682 400.631 421.682 386.687" stroke="none" fill="#060606" fill-rule="nonzero" fill-opacity="0.8" /><path id="638" transform="matrix(1 0 0 -1 0 834)" d="M406.471 391.163C 406.477 391.331 406.48 391.502 406.486 391.668C 406.48 391.501 406.477 391.331 406.471 391.163" stroke="none" fill="#060606" fill-rule="nonzero" fill-opacity="0.8" /><path id="639" transform="matrix(1 0 0 -1 0 834)" d="M407.288 398.57L407.461 398.395" stroke="none" fill="#060606" fill-rule="nonzero" fill-opacity="0.8" /><path id="640" transform="matrix(1 0 0 -1 0 834)" d="M405.461 409.164L402.053 412.809L402.053 412.809L404.901 393.119L404.901 393.119L407.085 398.777L407.085 398.777L411.501 410.226L411.501 410.226L408.034 408.852L408.034 408.852L408.261 409.851L408.261 409.851L408.263 409.851C 409.81 416.64 412.019 421.737 414.521 424.3C 413.857 425.042 413.18 425.42 412.504 425.432C 412.451 425.431 412.397 425.426 412.343 425.42C 412.28 425.416 412.219 425.405 412.157 425.396C 412.025 425.372 411.893 425.334 411.76 425.286C 411.682 425.256 411.604 425.23 411.526 425.191C 411.478 425.168 411.433 425.139 411.386 425.113C 409.125 423.794 407.022 418.404 405.604 410.123" stroke="none" fill="#FAFAFA" fill-rule="nonzero" fill-opacity="0.8" /><path id="641" transform="matrix(1 0 0 -1 0 834)" d="M406.386 386.709C 406.386 387.546 406.395 388.376 406.412 389.199C 406.395 388.372 406.386 387.542 406.386 386.709" stroke="none" fill="#060606" fill-rule="nonzero" fill-opacity="0.8" /><path id="642" transform="matrix(1 0 0 -1 0 834)" d="M406.386 386.686C 406.386 385.779 406.396 384.879 406.416 383.984C 406.397 384.877 406.386 385.778 406.386 386.686" stroke="none" fill="#060606" fill-rule="nonzero" fill-opacity="0.8" /><path id="643" transform="matrix(1 0 0 -1 0 834)" d="M403.844 384.225C 403.85 383.793 403.857 383.362 403.867 382.934C 403.871 382.718 403.877 382.504 403.882 382.289C 403.892 381.876 403.904 381.465 403.918 381.056C 403.924 380.853 403.931 380.65 403.938 380.448C 403.954 380.007 403.972 379.571 403.992 379.135C 403.999 378.974 404.005 378.812 404.013 378.651C 404.04 378.074 404.07 377.501 404.103 376.934C 404.104 376.923 404.104 376.911 404.105 376.9C 404.177 375.662 404.263 374.449 404.361 373.263C 404.364 373.227 404.367 373.193 404.37 373.157C 404.416 372.602 404.466 372.054 404.517 371.511C 404.522 371.469 404.526 371.427 404.53 371.384C 404.866 367.903 405.313 364.68 405.852 361.801C 405.853 361.794 405.854 361.788 405.855 361.78C 405.943 361.317 406.032 360.863 406.123 360.417C 406.128 360.394 406.133 360.371 406.138 360.348C 406.228 359.911 406.32 359.484 406.415 359.066C 406.42 359.044 406.425 359.021 406.43 358.998C 406.521 358.598 406.614 358.209 406.709 357.825C 407.768 353.574 409.063 350.475 410.492 348.969C 410.614 348.84 410.738 348.719 410.865 348.615C 410.903 348.583 410.94 348.553 410.979 348.523C 411.485 348.14 412.015 347.952 412.511 347.941C 413.184 347.957 413.858 348.333 414.52 349.074C 409.432 354.281 405.906 369.599 405.906 386.686C 405.906 389.591 406.039 392.36 406.244 395.132L406.244 395.132L404.696 391.123L404.696 391.123L404.058 395.535C 404.03 395.013 404.008 394.486 403.985 393.959C 403.972 393.667 403.959 393.376 403.948 393.083C 403.931 392.623 403.916 392.162 403.902 391.7C 403.889 391.245 403.877 390.788 403.868 390.329C 403.86 389.971 403.852 389.614 403.846 389.256C 403.834 388.406 403.825 387.552 403.825 386.688L403.825 386.688L403.825 386.687C 403.825 386.056 403.829 385.431 403.836 384.808C 403.838 384.613 403.841 384.419 403.844 384.225" stroke="none" fill="#FAFAFA" fill-rule="nonzero" fill-opacity="0.8" /><path id="644" transform="matrix(1 0 0 -1 0 834)" d="M417.098 405.601C 417.169 405.003 417.234 404.392 417.298 403.778C 417.32 403.565 417.344 403.356 417.365 403.141C 417.414 402.649 417.458 402.148 417.502 401.647C 417.532 401.309 417.563 400.975 417.591 400.632C 417.624 400.224 417.652 399.808 417.682 399.394C 417.714 398.956 417.748 398.522 417.776 398.078C 417.799 397.723 417.817 397.362 417.837 397.004C 417.866 396.5 417.896 395.998 417.92 395.487C 417.937 395.132 417.949 394.769 417.963 394.41C 417.984 393.895 418.007 393.383 418.023 392.861C 418.038 392.407 418.046 391.946 418.056 391.487C 418.066 391.055 418.079 390.627 418.087 390.19C 418.101 389.291 418.108 388.386 418.108 387.476L418.108 387.476L418.108 387.464L418.108 387.464L418.108 387.464C 418.108 387.31 418.105 387.157 418.104 387.002L418.104 387.002L421.199 387.616C 421.109 404.778 418.516 419.205 414.997 423.855C 414.47 423.352 413.956 422.726 413.456 421.994C 415.027 418.189 416.269 412.508 417.074 405.794C 417.082 405.729 417.09 405.666 417.098 405.601" stroke="none" fill="#FAFAFA" fill-rule="nonzero" fill-opacity="0.8" /><path id="645" transform="matrix(1 0 0 -1 0 834)" d="M417.672 375.36C 417.381 371.425 416.951 367.764 416.41 364.485C 416.398 364.41 416.386 364.333 416.374 364.259C 416.296 363.795 416.214 363.346 416.132 362.898C 416.073 362.572 416.015 362.244 415.953 361.925C 415.919 361.753 415.884 361.588 415.849 361.418C 415.075 357.56 414.13 354.324 413.046 352.005C 413.666 351.004 414.318 350.166 414.998 349.518C 417.793 353.212 420.004 363.08 420.84 375.588" stroke="none" fill="#FAFAFA" fill-rule="nonzero" fill-opacity="0.8" /><path id="646" transform="matrix(1 0 0 -1 0 834)" d="M420.838 375.557C 420.001 363.063 417.791 353.208 414.997 349.517C 414.317 350.165 413.666 351.003 413.046 352.004C 414.13 354.323 415.075 357.559 415.849 361.417C 415.883 361.587 415.919 361.751 415.953 361.924C 416.015 362.243 416.073 362.571 416.132 362.897C 416.214 363.347 416.297 363.793 416.374 364.258C 416.386 364.332 416.398 364.409 416.41 364.484C 416.951 367.788 417.376 371.446 417.665 375.329L417.665 375.329L417.181 375.294C 416.447 365.522 414.85 357.22 412.706 352.572C 409.131 358.821 406.708 370.689 406.416 383.984C 406.397 384.878 406.386 385.779 406.386 386.685L406.386 386.685L406.386 386.709C 406.387 387.542 406.395 388.372 406.412 389.199C 406.425 389.857 406.447 390.51 406.471 391.163C 406.477 391.33 406.48 391.5 406.486 391.668C 406.552 393.306 406.65 394.926 406.78 396.518L406.78 396.518L407.492 398.364L407.492 398.364L407.461 398.395L407.461 398.395L407.492 398.364L407.492 398.364L412.534 411.435L412.534 411.435L408.826 410.059C 409.961 414.884 411.433 418.789 413.1 421.45C 415.895 414.592 417.628 401.63 417.628 387.463C 417.628 387.25 417.626 387.037 417.625 386.824L417.625 386.824L418.103 386.919C 418.104 387.101 418.108 387.281 418.108 387.463L418.108 387.463L418.108 387.463L418.108 387.463L418.108 387.475C 418.108 388.385 418.1 389.29 418.086 390.189C 418.079 390.625 418.066 391.054 418.056 391.486C 418.046 391.945 418.037 392.406 418.023 392.86C 418.007 393.381 417.984 393.894 417.963 394.409C 417.948 394.768 417.937 395.13 417.92 395.486C 417.896 395.997 417.865 396.499 417.836 397.003C 417.816 397.361 417.798 397.722 417.776 398.077C 417.747 398.52 417.714 398.955 417.682 399.393C 417.652 399.807 417.624 400.223 417.591 400.631C 417.563 400.973 417.531 401.308 417.502 401.646C 417.458 402.147 417.414 402.648 417.365 403.14C 417.344 403.355 417.32 403.564 417.298 403.777C 417.234 404.391 417.169 405.002 417.098 405.6C 417.09 405.665 417.081 405.728 417.073 405.793C 416.269 412.507 415.027 418.188 413.456 421.993C 413.955 422.725 414.47 423.351 414.997 423.854C 418.521 419.197 421.117 404.731 421.2 387.533L421.2 387.533L421.678 387.628C 421.605 401.182 419.948 413.061 417.48 419.936C 416.128 423.706 414.532 425.976 412.819 426.186C 412.795 426.188 412.771 426.19 412.747 426.193C 412.684 426.199 412.621 426.214 412.558 426.214C 412.545 426.214 412.533 426.211 412.52 426.211C 412.503 426.211 412.486 426.214 412.469 426.214C 412.401 426.214 412.335 426.196 412.268 426.19C 412.235 426.186 412.202 426.184 412.17 426.178C 409.384 425.801 406.863 420.193 405.194 410.625L405.194 410.625L401.313 414.507L401.313 414.507L403.753 397.643C 403.532 394.201 403.345 390.25 403.345 386.685C 403.345 364.89 407.438 347.157 412.469 347.157C 412.488 347.157 412.507 347.161 412.526 347.162C 412.536 347.161 412.547 347.157 412.558 347.157C 412.629 347.157 412.699 347.174 412.77 347.181C 412.784 347.183 412.798 347.183 412.813 347.185C 414.528 347.391 416.127 349.663 417.482 353.439C 419.309 358.531 420.69 366.366 421.315 375.591M402.052 412.809L405.461 409.164L405.461 409.164L405.604 410.122C 407.021 418.404 409.125 423.793 411.386 425.113C 411.433 425.139 411.478 425.168 411.526 425.191C 411.603 425.23 411.682 425.256 411.76 425.286C 411.892 425.333 412.025 425.371 412.157 425.396C 412.219 425.405 412.28 425.415 412.342 425.42C 412.397 425.426 412.451 425.431 412.504 425.432C 413.18 425.42 413.857 425.042 414.52 424.299C 412.019 421.737 409.81 416.64 408.263 409.851L408.263 409.851L408.261 409.85L408.261 409.85L408.033 408.852L408.033 408.852L411.501 410.225L411.501 410.225L407.085 398.776L407.085 398.776L404.901 393.119zM412.511 347.941C 412.016 347.952 411.486 348.139 410.979 348.523C 410.941 348.553 410.903 348.582 410.865 348.615C 410.738 348.719 410.615 348.839 410.493 348.969C 409.063 350.474 407.769 353.574 406.709 357.825C 406.614 358.207 406.521 358.598 406.43 358.998C 406.425 359.02 406.42 359.044 406.415 359.066C 406.32 359.482 406.228 359.911 406.138 360.347C 406.133 360.37 406.129 360.394 406.124 360.417C 406.032 360.862 405.943 361.317 405.856 361.78C 405.854 361.787 405.853 361.794 405.852 361.801C 405.313 364.671 404.866 367.895 404.53 371.384C 404.526 371.426 404.522 371.469 404.518 371.511C 404.466 372.053 404.417 372.602 404.37 373.156C 404.368 373.192 404.364 373.227 404.362 373.262C 404.264 374.449 404.177 375.661 404.105 376.899C 404.105 376.91 404.104 376.922 404.103 376.933C 404.07 377.5 404.041 378.073 404.013 378.65C 404.006 378.811 403.999 378.973 403.992 379.135C 403.973 379.57 403.955 380.007 403.938 380.447C 403.932 380.649 403.925 380.852 403.918 381.055C 403.905 381.464 403.893 381.875 403.882 382.288C 403.877 382.503 403.871 382.718 403.867 382.934C 403.857 383.362 403.85 383.792 403.844 384.225C 403.841 384.419 403.838 384.612 403.836 384.807C 403.829 385.43 403.825 386.056 403.825 386.685L403.825 386.685L403.825 386.686L403.825 386.686L403.825 386.687C 403.825 387.547 403.834 388.402 403.847 389.255C 403.852 389.614 403.86 389.971 403.868 390.328C 403.878 390.787 403.889 391.243 403.902 391.7C 403.916 392.161 403.931 392.623 403.948 393.082C 403.96 393.375 403.973 393.666 403.986 393.958C 404.008 394.485 404.03 395.013 404.058 395.535L404.058 395.535L404.696 391.122L404.696 391.122L406.244 395.132C 406.039 392.36 405.906 389.591 405.906 386.685C 405.906 369.598 409.432 354.281 414.52 349.073C 413.859 348.333 413.184 347.956 412.511 347.941" stroke="none" fill="#020202" fill-rule="nonzero" fill-opacity="0.8" /></g></g></g></g><g clip-path="url(#19)"><g><g clip-path="url(#20)"><g clip-path="url(#21)"><path id="647" transform="matrix(1 0 0 -1 0 834)" d="M389.778 425.511L390.014 415.739L389.99 410.055L393.097 412.308L392.833 425.511" stroke="none" fill="#FAFAFA" fill-rule="nonzero" fill-opacity="0.8" /></g></g></g></g><g clip-path="url(#22)"><g><g clip-path="url(#23)"><g clip-path="url(#24)"><path id="648" transform="matrix(1 0 0 -1 0 834)" d="M378.378 419.562C 378.384 419.753 378.387 419.947 378.393 420.136C 378.387 419.946 378.384 419.753 378.378 419.562" stroke="none" fill="#060606" fill-rule="nonzero" fill-opacity="0.8" /><path id="649" transform="matrix(1 0 0 -1 0 834)" d="M379.195 427.982L379.368 427.783" stroke="none" fill="#060606" fill-rule="nonzero" fill-opacity="0.8" /><path id="650" transform="matrix(1 0 0 -1 0 834)" d="M377.367 440.025L373.959 444.169L373.959 444.169L376.807 421.785L376.807 421.785L378.991 428.217L378.991 428.217L383.407 441.232L383.407 441.232L379.94 439.67L379.94 439.67L380.167 440.805L380.167 440.805L380.169 440.807C 381.716 448.524 383.925 454.318 386.427 457.231C 385.763 458.075 385.086 458.505 384.41 458.519C 384.357 458.517 384.303 458.512 384.249 458.505C 384.186 458.5 384.125 458.488 384.063 458.477C 383.932 458.45 383.799 458.406 383.666 458.353C 383.588 458.319 383.51 458.289 383.432 458.244C 383.384 458.218 383.339 458.185 383.292 458.156C 381.031 456.656 378.928 450.529 377.51 441.115" stroke="none" fill="#FAFAFA" fill-rule="nonzero" fill-opacity="0.8" /><path id="651" transform="matrix(1 0 0 -1 0 834)" d="M378.293 414.499C 378.293 415.45 378.302 416.394 378.319 417.33C 378.302 416.389 378.293 415.446 378.293 414.499" stroke="none" fill="#060606" fill-rule="nonzero" fill-opacity="0.8" /><path id="652" transform="matrix(1 0 0 -1 0 834)" d="M378.293 414.472C 378.293 413.441 378.303 412.418 378.323 411.401C 378.304 412.416 378.293 413.439 378.293 414.472" stroke="none" fill="#060606" fill-rule="nonzero" fill-opacity="0.8" /><path id="653" transform="matrix(1 0 0 -1 0 834)" d="M375.751 411.674C 375.757 411.183 375.764 410.694 375.774 410.207C 375.778 409.961 375.784 409.718 375.789 409.473C 375.799 409.004 375.812 408.537 375.825 408.072C 375.831 407.84 375.838 407.61 375.845 407.38C 375.861 406.879 375.879 406.383 375.899 405.889C 375.906 405.705 375.912 405.52 375.92 405.338C 375.947 404.682 375.977 404.03 376.01 403.385C 376.011 403.373 376.011 403.36 376.012 403.347C 376.084 401.94 376.17 400.561 376.268 399.212C 376.271 399.172 376.274 399.133 376.277 399.092C 376.323 398.461 376.373 397.838 376.424 397.222C 376.429 397.174 376.433 397.125 376.437 397.077C 376.773 393.12 377.22 389.455 377.759 386.183C 377.76 386.175 377.761 386.168 377.762 386.159C 377.85 385.632 377.939 385.116 378.03 384.61C 378.035 384.584 378.04 384.557 378.045 384.531C 378.135 384.034 378.227 383.549 378.322 383.074C 378.327 383.049 378.332 383.022 378.337 382.997C 378.428 382.542 378.521 382.099 378.616 381.663C 379.676 376.831 380.97 373.307 382.399 371.596C 382.521 371.449 382.645 371.312 382.772 371.193C 382.81 371.157 382.848 371.123 382.886 371.089C 383.392 370.653 383.922 370.44 384.418 370.428C 385.091 370.445 385.765 370.873 386.427 371.715C 381.339 377.635 377.813 395.047 377.813 414.471C 377.813 417.774 377.946 420.922 378.151 424.073L378.151 424.073L376.603 419.516L376.603 419.516L375.965 424.532C 375.937 423.938 375.915 423.338 375.892 422.739C 375.879 422.407 375.866 422.077 375.855 421.743C 375.838 421.221 375.823 420.696 375.809 420.171C 375.796 419.654 375.784 419.135 375.775 418.613C 375.767 418.206 375.759 417.8 375.753 417.393C 375.741 416.427 375.732 415.456 375.732 414.474L375.732 414.474L375.732 414.472C 375.732 413.756 375.736 413.044 375.743 412.336C 375.745 412.115 375.748 411.895 375.751 411.674" stroke="none" fill="#FAFAFA" fill-rule="nonzero" fill-opacity="0.8" /><path id="654" transform="matrix(1 0 0 -1 0 834)" d="M391.274 441.565C 390.176 448.712 388.655 454.095 386.904 456.724C 386.376 456.153 385.862 455.441 385.363 454.609C 386.704 450.916 387.804 445.665 388.598 439.459" stroke="none" fill="#FAFAFA" fill-rule="nonzero" fill-opacity="0.8" /><path id="655" transform="matrix(1 0 0 -1 0 834)" d="M393.3 425.678L392.825 425.656C 393.009 422.084 393.108 418.336 393.108 414.473C 393.108 402.629 392.186 391.865 390.688 383.944L390.688 383.944L391.153 383.964C 392.662 391.974 393.587 402.686 393.588 414.45L393.588 414.45L393.588 414.473C 393.588 418.341 393.488 422.095 393.3 425.678" stroke="none" fill="#020202" fill-rule="nonzero" fill-opacity="0.8" /><path id="656" transform="matrix(1 0 0 -1 0 834)" d="M389.963 419.93C 389.953 420.451 389.945 420.975 389.93 421.492C 389.914 422.083 389.891 422.667 389.87 423.253C 389.855 423.661 389.844 424.073 389.827 424.477C 389.812 424.825 389.796 425.168 389.778 425.511L389.778 425.511L389.301 425.489C 389.454 422.211 389.535 418.816 389.535 415.357C 389.535 403.314 388.545 391.96 386.884 383.775L386.884 383.775L387.39 383.798C 387.516 384.431 387.638 385.08 387.756 385.748C 387.79 385.941 387.826 386.128 387.86 386.325C 387.922 386.686 387.98 387.06 388.039 387.431C 388.121 387.942 388.204 388.449 388.281 388.977C 388.293 389.062 388.305 389.149 388.317 389.235C 389.274 395.883 389.869 403.798 389.992 412.148C 390.007 413.211 390.015 414.281 390.015 415.357L390.015 415.357L390.015 415.357L390.015 415.357L390.015 415.371C 390.015 416.404 390.007 417.433 389.993 418.455C 389.986 418.95 389.973 419.439 389.963 419.93" stroke="none" fill="#020202" fill-rule="nonzero" fill-opacity="0.8" /><path id="657" transform="matrix(1 0 0 -1 0 834)" d="M389.533 378.826L390.056 379.018C 390.197 379.56 390.336 380.116 390.471 380.696L390.471 380.696L390.02 380.763C 389.862 380.088 389.7 379.443 389.533 378.826" stroke="none" fill="#020202" fill-rule="nonzero" fill-opacity="0.8" /><path id="658" transform="matrix(1 0 0 -1 0 834)" d="M385.179 377.229L385.816 377.463C 386.176 378.605 386.518 379.866 386.839 381.237L386.839 381.237L386.339 381.312C 385.977 379.805 385.589 378.439 385.179 377.229" stroke="none" fill="#020202" fill-rule="nonzero" fill-opacity="0.8" /><path id="659" transform="matrix(1 0 0 -1 0 834)" d="M387.728 373.699L388.418 374.005C 388.655 374.57 388.888 375.181 389.113 375.842L389.113 375.842L388.603 375.825C 388.321 375.036 388.028 374.327 387.728 373.699" stroke="none" fill="#020202" fill-rule="nonzero" fill-opacity="0.8" /><path id="660" transform="matrix(1 0 0 -1 0 834)" d="M389.387 452.271C 388.034 456.556 386.439 459.136 384.725 459.374C 384.701 459.378 384.678 459.379 384.653 459.383C 384.59 459.39 384.528 459.407 384.465 459.407C 384.452 459.407 384.439 459.404 384.427 459.404C 384.409 459.404 384.392 459.407 384.376 459.407C 384.308 459.407 384.242 459.387 384.174 459.379C 384.142 459.374 384.109 459.373 384.076 459.366C 381.291 458.938 378.77 452.562 377.101 441.686L377.101 441.686L373.22 446.098L373.22 446.098L375.66 426.928C 375.439 423.015 375.252 418.524 375.252 414.472C 375.252 389.695 379.345 369.537 384.376 369.537C 384.394 369.537 384.413 369.541 384.432 369.542C 384.443 369.542 384.454 369.537 384.465 369.537C 384.536 369.537 384.606 369.556 384.677 369.563C 384.691 369.566 384.705 369.566 384.719 369.569C 385.564 369.684 386.38 370.374 387.153 371.552L387.153 371.552L386.851 372.279C 386.191 373.008 385.557 373.938 384.953 375.047C 384.797 375.228 384.613 375.693 384.613 375.693C 381.038 382.796 378.614 396.287 378.323 411.4C 378.304 412.417 378.293 413.441 378.293 414.472L378.293 414.472L378.293 414.498C 378.294 415.445 378.302 416.389 378.319 417.33C 378.332 418.077 378.354 418.82 378.378 419.561C 378.384 419.752 378.386 419.945 378.393 420.135C 378.459 421.997 378.557 423.84 378.686 425.65L378.686 425.65L379.399 427.747L379.399 427.747L379.368 427.783L379.368 427.783L379.399 427.748L379.399 427.748L384.44 442.606L384.44 442.606L380.733 441.043C 381.868 446.527 383.34 450.967 385.006 453.992C 386.307 450.364 387.377 445.234 388.15 439.163L388.15 439.163L388.592 439.511C 387.798 445.694 386.7 450.926 385.363 454.609C 385.862 455.441 386.377 456.153 386.904 456.724C 388.651 454.101 390.169 448.738 391.266 441.616L391.266 441.616L391.678 441.94C 391.04 445.989 390.265 449.49 389.387 452.271M386.427 371.715C 385.765 370.873 385.091 370.445 384.418 370.428C 383.922 370.44 383.393 370.653 382.886 371.089C 382.848 371.123 382.81 371.157 382.772 371.193C 382.645 371.312 382.521 371.449 382.399 371.596C 380.97 373.307 379.676 376.831 378.616 381.663C 378.521 382.097 378.428 382.543 378.337 382.997C 378.332 383.022 378.327 383.049 378.322 383.074C 378.227 383.548 378.135 384.035 378.045 384.531C 378.04 384.557 378.035 384.584 378.031 384.61C 377.939 385.116 377.85 385.633 377.762 386.159C 377.761 386.168 377.76 386.175 377.759 386.183C 377.22 389.446 376.773 393.111 376.437 397.077C 376.433 397.125 376.429 397.174 376.424 397.222C 376.373 397.838 376.324 398.461 376.277 399.092C 376.274 399.133 376.271 399.172 376.268 399.212C 376.17 400.561 376.084 401.94 376.012 403.347C 376.011 403.36 376.011 403.373 376.01 403.386C 375.977 404.03 375.948 404.682 375.92 405.338C 375.912 405.521 375.906 405.705 375.899 405.889C 375.88 406.383 375.861 406.879 375.845 407.38C 375.838 407.61 375.831 407.84 375.825 408.072C 375.812 408.537 375.799 409.004 375.789 409.473C 375.784 409.718 375.778 409.961 375.773 410.207C 375.764 410.694 375.757 411.183 375.751 411.674C 375.748 411.895 375.745 412.115 375.743 412.337C 375.736 413.044 375.732 413.756 375.732 414.472L375.732 414.472L375.732 414.472L375.732 414.472L375.732 414.474C 375.732 415.451 375.74 416.423 375.753 417.393C 375.759 417.801 375.767 418.206 375.775 418.613C 375.785 419.134 375.796 419.653 375.809 420.171C 375.823 420.696 375.838 421.221 375.855 421.743C 375.867 422.076 375.88 422.407 375.892 422.739C 375.915 423.338 375.937 423.938 375.965 424.532L375.965 424.532L376.603 419.516L376.603 419.516L378.151 424.073C 377.946 420.922 377.813 417.774 377.813 414.472C 377.813 395.047 381.339 377.635 386.427 371.715M380.17 440.806L380.168 440.805L380.168 440.805L379.94 439.67L379.94 439.67L383.408 441.231L383.408 441.231L378.992 428.216L378.992 428.216L376.808 421.785L376.808 421.785L373.959 444.168L373.959 444.168L377.368 440.024L377.368 440.024L377.511 441.114C 378.928 450.528 381.031 456.655 383.293 458.155C 383.34 458.185 383.385 458.218 383.433 458.243C 383.51 458.288 383.589 458.318 383.666 458.352C 383.799 458.406 383.932 458.449 384.064 458.477C 384.126 458.487 384.187 458.499 384.249 458.504C 384.303 458.511 384.358 458.516 384.41 458.518C 385.087 458.504 385.763 458.074 386.427 457.23C 383.926 454.318 381.717 448.523 380.17 440.806" stroke="none" fill="#020202" fill-rule="nonzero" fill-opacity="0.8" /></g></g></g></g><g clip-path="url(#25)"></g><g clip-path="url(#26)"><g transform="matrix(1.006449 0 0 0.9985386 260.731 111.2083)"><g transform="matrix(1 0 0 1 0 0)"><image x="0" y="0" xlink:href="img_04.png" width="37" height="57" /></g></g></g><g transform="matrix(1.009614 0 0 0.9985386 265.881 330.6773)"><g transform="matrix(1 0 0 1 0 0)"><image x="0" y="0" xlink:href="img_05.png" width="28" height="57" /></g></g><g clip-path="url(#27)"></g><g clip-path="url(#28)"><g transform="matrix(1.022889 0 0 0.9967816 315.93 415.4923)"><g transform="matrix(1 0 0 1 0 0)"><image x="0" y="0" xlink:href="img_06.png" width="27" height="38" /></g></g></g><g clip-path="url(#29)"></g><g clip-path="url(#30)"><g transform="matrix(1.0227 0 0 0.9965974 286.728 185.3953)"><g transform="matrix(1 0 0 1 0 0)"><image x="0" y="0" xlink:href="img_07.png" width="27" height="38" /></g></g></g><g clip-path="url(#31)"></g><g clip-path="url(#32)"><g transform="matrix(1.022918 0 0 0.997071 286.719 221.5983)"><g transform="matrix(1 0 0 1 0 0)"><image x="0" y="0" xlink:href="img_08.png" width="27" height="38" /></g></g></g><g clip-path="url(#33)"></g><g clip-path="url(#34)"><g transform="matrix(-1.022889 0 0 0.9967816 498.511 415.4923)"><g transform="matrix(1 0 0 1 0 0)"><image x="0" y="0" xlink:href="img_06.png" width="27" height="38" /></g></g></g><g clip-path="url(#35)"></g><g clip-path="url(#36)"><g transform="matrix(1.00288 0 0 1.00023 357.496 569.289)"><g transform="matrix(1 0 0 1 0 0)"><image x="0" y="0" xlink:href="img_09.png" width="91" height="139" /></g></g></g><path id="845" transform="matrix(1 0 0 -1 0 834)" d="M404.857 205.902L408.629 205.902" stroke="#F3F3F3" stroke-width="1.034" fill="none" /><path id="846" transform="matrix(1 0 0 -1 0 834)" d="M407.757 204.753L408.245 205.902L407.757 207.051L410.48 205.902z" stroke="none" fill="#F3F3F3" fill-rule="nonzero" /><g clip-path="url(#37)"><path id="847" transform="matrix(1 0 0 -1 0 834)" d="M463.802 156.016C 463.802 139.261 450.219 125.678 433.464 125.678C 416.709 125.678 403.127 139.261 403.127 156.016C 403.127 172.771 416.709 186.354 433.464 186.354C 450.219 186.354 463.802 172.771 463.802 156.016" stroke="none" fill="#FFFFFF" fill-rule="nonzero" /></g><g clip-path="url(#38)"></g><g clip-path="url(#39)"><g transform="matrix(1.005309 0 0 0.9992317 378.18 609.2776)"><g transform="matrix(1 0 0 1 0 0)"><image x="0" y="0" xlink:href="img_10.png" width="107" height="164" /></g></g></g><g clip-path="url(#40)"><path id="849" transform="matrix(1 0 0 -1 0 834)" d="M463.802 156.016C 463.802 139.261 450.219 125.678 433.464 125.678C 416.709 125.678 403.127 139.261 403.127 156.016C 403.127 172.771 416.709 186.354 433.464 186.354C 450.219 186.354 463.802 172.771 463.802 156.016z" stroke="#000000" stroke-width="1.034" fill="none" /></g><path id="850" transform="matrix(1 0 0 -1 0 834)" d="M442.149 167.958L442.149 171.563" stroke="#F3F3F3" stroke-width="1.034" fill="none" /><path id="851" transform="matrix(1 0 0 -1 0 834)" d="M449.348 165.217L451.993 167.957" stroke="#F3F3F3" stroke-width="1.034" fill="none" /><path id="852" transform="matrix(1 0 0 -1 0 834)" d="M444.08 143.596L444.873 140.352" stroke="#F3F3F3" stroke-width="1.034" fill="none" /><path id="853" transform="matrix(1 0 0 -1 0 834)" d="M434.834 143.344L433.464 140.604" stroke="#F3F3F3" stroke-width="1.034" fill="none" /><path id="854" transform="matrix(1 0 0 -1 0 834)" d="M451.378 157.476L454.262 158.125" stroke="#F3F3F3" stroke-width="1.034" fill="none" /><path id="855" transform="matrix(1 0 0 -1 0 834)" d="M449.189 150.565L452.154 148.174" stroke="#F3F3F3" stroke-width="1.034" fill="none" /><g clip-path="url(#41)"></g><g clip-path="url(#42)"><g transform="matrix(1.008969 0 0 1.005193 258.162 563.8653)"><g transform="matrix(1 0 0 1 0 0)"><image x="0" y="0" xlink:href="img_11.png" width="42" height="45" /></g></g></g><g clip-path="url(#43)"></g><g clip-path="url(#44)"><g transform="matrix(1.022218 0 0 0.9967816 309.341 635.9603)"><g transform="matrix(1 0 0 1 0 0)"><image x="0" y="0" xlink:href="img_12.png" width="27" height="38" /></g></g></g><path id="1304" transform="matrix(1 0 0 -1 0 834)" d="M633 15L633 0M633 819L633 834M21 15L21 0M21 819L21 834M639 21L654 21M15 21L0 21M639 813L654 813M15 813L0 813" stroke="#000000" stroke-width="1.25" fill="none" /><path id="1305" transform="matrix(1 0 0 -1 0 834)" d="M633 15L633 0M633 819L633 834M21 15L21 0M21 819L21 834M639 21L654 21M15 21L0 21M639 813L654 813M15 813L0 813" stroke="#000000" stroke-width="0.25" fill="none" /><path id="1306" transform="matrix(1 0 0 -1 0 834)" d="M32.2781 9.28203C 32.2781 9.516021 32.2961 9.58203 32.3559 9.62383C 32.416 9.66602 32.5719 9.69609 32.8238 9.69609C 33.2262 9.69609 33.5738 9.62383 33.8441 9.45C 34.3238 9.167971 34.552 8.63398 34.552 8.016021C 34.552 7.05586 34.0359 6.21602 32.9141 6.21602C 32.4762 6.21602 32.2781 6.33008 32.2781 6.78594zM31.252 9.900001L31.252 9.726171C 31.7141 9.68984 31.7621 9.66602 31.7621 9.150001L31.7621 9.150001L31.7621 6.74414C 31.7621 6.23398 31.7141 6.19805 31.198 6.16211L31.198 6.16211L31.198 6L31.198 6L32.6199 6C 33.3578 6 33.952 6.15 34.402 6.49805C 34.8641 6.84609 35.1398 7.38008 35.1398 8.1C 35.1398 8.664061 34.9301 9.101951 34.6359 9.38984C 34.2641 9.74414 33.7 9.900001 32.9379 9.900001z" stroke="#000000" stroke-width="0.4" fill="none" /><path id="1307" transform="matrix(1 0 0 -1 0 834)" d="M38.3801 6.97813C 38.2898 6.70195 38.1758 6.51016 38.0738 6.38984C 37.9359 6.23398 37.732 6.20391 37.402 6.20391C 37.15 6.20391 36.9461 6.21602 36.8258 6.28203C 36.718 6.34219 36.6879 6.46211 36.6879 6.78594L36.6879 6.78594L36.6879 9.15586C 36.6879 9.66602 36.7418 9.69609 37.216 9.73203L37.216 9.73203L37.216 9.900001L37.216 9.900001L35.65 9.900001L35.65 9.900001L35.65 9.73203C 36.1359 9.69609 36.1777 9.66602 36.1777 9.15586L36.1777 9.15586L36.1777 6.75586C 36.1777 6.24609 36.1301 6.20391 35.6258 6.16797L35.6258 6.16797L35.6258 6L35.6258 6L38.3438 6C 38.398 6.18594 38.5238 6.75586 38.5598 6.94219z" stroke="#000000" stroke-width="0.4" fill="none" /><path id="1308" transform="matrix(1 0 0 -1 0 834)" d="M41.0918 9.023829C 41.0438 9.40195 41.0141 9.63594 40.9898 9.851951C 40.7617 9.92383 40.5098 9.989841 40.234 9.989841C 39.4598 9.989841 38.998 9.49805 38.998 8.921881C 38.998 8.24414 39.6039 7.94414 39.9879 7.73984C 40.4379 7.5 40.768 7.28984 40.768 6.84609C 40.768 6.40781 40.498 6.12617 40.048 6.12617C 39.4301 6.12617 39.1598 6.73203 39.0641 7.09805L39.0641 7.09805L38.8898 7.05586C 38.9258 6.767971 39.0039 6.25195 39.052 6.12617C 39.1059 6.09609 39.1961 6.05391 39.3461 6C 39.4961 5.95781 39.6879 5.91016 39.934 5.91016C 40.732 5.91016 41.266 6.41406 41.266 7.04414C 41.266 7.71602 40.6961 7.99805 40.2277 8.23789C 39.7539 8.48398 39.466 8.68789 39.466 9.12617C 39.466 9.45 39.6699 9.78594 40.132 9.78594C 40.6539 9.78594 40.8098 9.371881 40.918 8.98789z" stroke="#000000" stroke-width="0.4" fill="none" /><path id="1309" transform="matrix(1 0 0 -1 0 834)" d="M46.648 6L46.648 6.16797C 46.1258 6.21602 46.1078 6.24609 46.0898 6.88203L46.0898 6.88203L46.0301 9.05391C 46.0117 9.671881 46.0539 9.68398 46.582 9.73203L46.582 9.73203L46.582 9.900001L46.582 9.900001L45.5617 9.900001L45.5617 9.900001L44.1758 6.9L44.1758 6.9L42.8078 9.900001L42.8078 9.900001L41.8238 9.900001L41.8238 9.900001L41.8238 9.73203C 42.3699 9.67813 42.4 9.653911 42.3461 8.87383L42.3461 8.87383L42.2617 7.626171C 42.2141 7.00195 42.1777 6.73789 42.148 6.528131C 42.1059 6.27617 41.9859 6.21016 41.6379 6.16797L41.6379 6.16797L41.6379 6L41.6379 6L43.0359 6L43.0359 6L43.0359 6.16797C 42.6398 6.21016 42.4961 6.25195 42.484 6.53984C 42.4777 6.78008 42.4777 7.04414 42.502 7.53594L42.502 7.53594L42.5918 9.24609L42.5918 9.24609L42.6039 9.24609L42.6039 9.24609L43.948 6.04219L43.948 6.04219L44.068 6.04219L44.068 6.04219L45.532 9.33008L45.532 9.33008L45.5559 9.33008L45.5559 9.33008L45.5738 6.88203C 45.5801 6.24609 45.5559 6.21602 45.0699 6.16797L45.0699 6.16797L45.0699 6z" stroke="#000000" stroke-width="0.4" fill="none" /><path id="1310" transform="matrix(1 0 0 -1 0 834)" d="M51.8738 7.05586C 51.5738 6.45586 51.2496 6.12617 50.6379 6.12617C 49.7258 6.12617 49.0656 6.89414 49.0656 8.016021C 49.0656 8.92813 49.5996 9.773829 50.602 9.773829C 51.2496 9.773829 51.6098 9.516021 51.7656 8.88008L51.7656 8.88008L51.9457 8.921881C 51.9098 9.24609 51.8738 9.48594 51.8258 9.828131C 51.6578 9.85781 51.2496 9.989841 50.7637 9.989841C 49.4258 9.989841 48.4539 9.15586 48.4539 7.89609C 48.4539 6.94219 49.1078 5.91016 50.602 5.91016C 51.034 5.91016 51.5379 6.03008 51.7059 6.07188C 51.8137 6.26992 51.9637 6.71406 52.0477 6.98984z" stroke="#000000" stroke-width="0.4" fill="none" /><path id="1311" transform="matrix(1 0 0 -1 0 834)" d="M54.3398 9.773829C 55.1258 9.773829 55.7855 9.101951 55.7855 7.83594C 55.7855 6.68398 55.1855 6.12617 54.5195 6.12617C 53.6738 6.12617 53.0559 6.94805 53.0559 8.076171C 53.0559 9.19805 53.6676 9.773829 54.3398 9.773829zM54.4598 9.989841C 53.1996 9.989841 52.4438 8.98789 52.4438 7.90781C 52.4438 6.75586 53.3078 5.91016 54.3938 5.91016C 55.4918 5.91016 56.3977 6.70195 56.3977 7.99805C 56.3977 9.19805 55.4797 9.989841 54.4598 9.989841z" stroke="#000000" stroke-width="0.4" fill="none" /><path id="1312" transform="matrix(1 0 0 -1 0 834)" d="M61.8277 6L61.8277 6.16797C 61.3059 6.21602 61.2879 6.24609 61.2695 6.88203L61.2695 6.88203L61.2098 9.05391C 61.1918 9.671881 61.2336 9.68398 61.7617 9.73203L61.7617 9.73203L61.7617 9.900001L61.7617 9.900001L60.7418 9.900001L60.7418 9.900001L59.3559 6.9L59.3559 6.9L57.9879 9.900001L57.9879 9.900001L57.0035 9.900001L57.0035 9.900001L57.0035 9.73203C 57.5496 9.67813 57.5797 9.653911 57.5258 8.87383L57.5258 8.87383L57.4418 7.626171C 57.3938 7.00195 57.3578 6.73789 57.3277 6.528131C 57.2855 6.27617 57.1656 6.21016 56.8176 6.16797L56.8176 6.16797L56.8176 6L56.8176 6L58.2156 6L58.2156 6L58.2156 6.16797C 57.8195 6.21016 57.6758 6.25195 57.6637 6.53984C 57.6578 6.78008 57.6578 7.04414 57.6816 7.53594L57.6816 7.53594L57.7719 9.24609L57.7719 9.24609L57.7836 9.24609L57.7836 9.24609L59.1277 6.04219L59.1277 6.04219L59.2477 6.04219L59.2477 6.04219L60.7117 9.33008L60.7117 9.33008L60.7355 9.33008L60.7355 9.33008L60.7535 6.88203C 60.7598 6.24609 60.7355 6.21602 60.2496 6.16797L60.2496 6.16797L60.2496 6z" stroke="#000000" stroke-width="0.4" fill="none" /><path id="1313" transform="matrix(1 0 0 -1 0 834)" d="M63.8258 6L63.8258 6.16797C 63.3336 6.20391 63.2855 6.23398 63.2855 6.75L63.2855 6.75L63.2855 9.150001C 63.2855 9.66016 63.3336 9.69609 63.8258 9.73203L63.8258 9.73203L63.8258 9.900001L63.8258 9.900001L62.2355 9.900001L62.2355 9.900001L62.2355 9.73203C 62.7277 9.69609 62.7758 9.66016 62.7758 9.150001L62.7758 9.150001L62.7758 6.75C 62.7758 6.23984 62.7277 6.20391 62.2355 6.16797L62.2355 6.16797L62.2355 6z" stroke="#000000" stroke-width="0.4" fill="none" /><path id="1314" transform="matrix(1 0 0 -1 0 834)" d="M66.5074 9.023829C 66.4598 9.40195 66.4297 9.63594 66.4055 9.851951C 66.1777 9.92383 65.9258 9.989841 65.6496 9.989841C 64.8758 9.989841 64.4137 9.49805 64.4137 8.921881C 64.4137 8.24414 65.0195 7.94414 65.4035 7.73984C 65.8535 7.5 66.1836 7.28984 66.1836 6.84609C 66.1836 6.40781 65.9137 6.12617 65.46371 6.12617C 64.8457 6.12617 64.5758 6.73203 64.4797 7.09805L64.4797 7.09805L64.3055 7.05586C 64.3418 6.767971 64.4195 6.25195 64.46761 6.12617C 64.52151 6.09609 64.6117 6.05391 64.7617 6C 64.91171 5.95781 65.1035 5.91016 65.3496 5.91016C 66.1477 5.91016 66.6816 6.41406 66.6816 7.04414C 66.6816 7.71602 66.1117 7.99805 65.6438 8.23789C 65.1695 8.48398 64.8816 8.68789 64.8816 9.12617C 64.8816 9.45 65.0855 9.78594 65.5477 9.78594C 66.0695 9.78594 66.2258 9.371881 66.3336 8.98789z" stroke="#000000" stroke-width="0.4" fill="none" /><path id="1315" transform="matrix(1 0 0 -1 0 834)" d="M69.4055 7.68008L68.3016 7.68008C 68.4816 8.171881 68.6734 8.69414 68.8656 9.21016L68.8656 9.21016L68.8777 9.21016zM70.9355 6L70.9355 6.16797C 70.5457 6.20391 70.46761 6.25781 70.2758 6.77383C 69.89181 7.81797 69.4895 8.95781 69.11761 9.989841L69.11761 9.989841L68.9316 9.93594L68.9316 9.93594L67.68951 6.78594C 67.4797 6.25781 67.3957 6.22188 67.0176 6.16797L67.0176 6.16797L67.0176 6L67.0176 6L68.3195 6L68.3195 6L68.3195 6.16797C 67.8695 6.21016 67.81561 6.26992 67.9477 6.64805C 68.0258 6.9 68.1156 7.15195 68.2117 7.42188L68.2117 7.42188L69.4895 7.42188C 69.62151 7.05586 69.74181 6.73203 69.8195 6.49805C 69.8977 6.26406 69.8438 6.21602 69.4656 6.16797L69.4656 6.16797L69.4656 6z" stroke="#000000" stroke-width="0.4" fill="none" /><path id="1316" transform="matrix(1 0 0 -1 0 834)" d="M71.7273 5.92813C 71.9195 5.92813 72.06371 6.06602 72.06371 6.27617C 72.06371 6.46797 71.9195 6.61797 71.7273 6.61797C 71.5355 6.61797 71.3914 6.46797 71.3914 6.27617C 71.3914 6.06602 71.5355 5.92813 71.7273 5.92813z" stroke="#000000" stroke-width="0.4" fill="none" /><path id="1317" transform="matrix(1 0 0 -1 0 834)" d="M73.9234 6L73.9234 6.15586C 73.53951 6.19219 73.4977 6.22813 73.4977 6.63594L73.4977 6.63594L73.4977 8.70586C 73.2336 8.59805 72.9516 8.51992 72.6453 8.471881L72.6453 8.471881L72.6453 8.328131C 73.0055 8.26797 73.0234 8.24414 73.0234 7.871881L73.0234 7.871881L73.0234 6.63594C 73.0234 6.22813 72.9816 6.19219 72.6035 6.15586L72.6035 6.15586L72.6035 6zM73.2215 9.216021C 73.3953 9.216021 73.52731 9.36016 73.52731 9.52188C 73.52731 9.70195 73.3953 9.83398 73.2273 9.83398C 73.06561 9.83398 72.9215 9.70195 72.9215 9.52188C 72.9215 9.36016 73.06561 9.216021 73.2215 9.216021z" stroke="#000000" stroke-width="0.4" fill="none" /><path id="1318" transform="matrix(1 0 0 -1 0 834)" d="M77.1574 6L77.1574 6.15586C 76.8094 6.19219 76.7793 6.21602 76.7793 6.62383L76.7793 6.62383L76.7793 7.78203C 76.7793 8.36406 76.4793 8.69414 76.0055 8.69414C 75.8313 8.69414 75.67541 8.621881 75.5074 8.51406C 75.3574 8.41211 75.2254 8.32188 75.1055 8.23203L75.1055 8.23203L75.1055 8.712111C 74.8414 8.59219 74.5594 8.51992 74.27151 8.466021L74.27151 8.466021L74.27151 8.328131C 74.5953 8.26797 74.6313 8.25 74.6313 7.86602L74.6313 7.86602L74.6313 6.62383C 74.6313 6.22813 74.6016 6.19805 74.19341 6.15586L74.19341 6.15586L74.19341 6L74.19341 6L75.4953 6L75.4953 6L75.4953 6.15586C 75.1414 6.19219 75.1055 6.21602 75.1055 6.62383L75.1055 6.62383L75.1055 8.03398C 75.2855 8.18984 75.5195 8.33984 75.7594 8.33984C 76.1613 8.33984 76.3055 8.069921 76.3055 7.65586L76.3055 7.65586L76.3055 6.65391C 76.3055 6.23984 76.2633 6.19219 75.9094 6.15586L75.9094 6.15586L75.9094 6z" stroke="#000000" stroke-width="0.4" fill="none" /><path id="1319" transform="matrix(1 0 0 -1 0 834)" d="M79.4734 6.51016C 79.32931 6.40195 79.1133 6.30586 78.8973 6.30586C 78.5133 6.30586 78.0754 6.65391 78.0754 7.36797C 78.0754 8.23789 78.57931 8.471881 78.8555 8.471881C 79.0832 8.471881 79.32931 8.37617 79.4734 8.16602zM80.4035 6.30586L80.2113 6.32383C 79.9895 6.34805 79.9473 6.37813 79.9473 6.68984L79.9473 6.68984L79.9473 10.2719C 79.7254 10.1941 79.3234 10.1039 79.0113 10.0621L79.0113 10.0621L79.0113 9.917971C 79.44341 9.88789 79.4734 9.869921 79.4734 9.47383L79.4734 9.47383L79.4734 8.628131C 79.3355 8.67617 79.1613 8.69414 79.0773 8.69414C 78.2613 8.69414 77.5293 8.03984 77.5293 7.20586C 77.5293 6.36602 78.1594 5.92813 78.6395 5.92813C 78.7113 5.92813 78.87341 5.96406 79.1074 6.10195L79.1074 6.10195L79.4734 6.31797L79.4734 6.31797L79.4734 5.92813C 79.8215 6.05391 80.27151 6.13203 80.4035 6.15586z" stroke="#000000" stroke-width="0.4" fill="none" /><path id="1320" transform="matrix(1 0 0 -1 0 834)" d="M81.3813 8.24414C 81.4895 8.310161 81.6813 8.35781 81.84921 8.35781C 82.34731 8.35781 82.7676 7.96211 82.7676 7.278131C 82.7676 6.58203 82.4492 6.15586 81.9516 6.15586C 81.6336 6.16211 81.4535 6.37188 81.4176 6.49219C 81.3934 6.54609 81.3813 6.60586 81.3813 6.69609zM81.3813 8.42383L81.3813 10.2719C 81.1594 10.1941 80.7934 10.098 80.5113 10.0621L80.5113 10.0621L80.5113 9.92383C 80.8953 9.88789 80.9074 9.851951 80.9074 9.48008L80.9074 9.48008L80.9074 6.14414C 81.2375 5.98789 81.5434 5.92813 81.78951 5.92813C 82.59341 5.92813 83.2953 6.55195 83.2953 7.43398C 83.2953 8.14219 82.7555 8.69414 82.1133 8.69414C 82.0473 8.69414 81.9633 8.67617 81.86761 8.63398z" stroke="#000000" stroke-width="0.4" fill="none" /><path id="1321" transform="matrix(1 0 0 -1 0 834)" d="M90.0754 6.83984C 89.8953 6.46211 89.8172 6.43789 89.4934 6.43789L89.4934 6.43789L88.3711 6.43789L88.3711 6.43789L89.223 7.33203C 89.77541 7.91992 90.0152 8.273829 90.0152 8.79609C 90.0152 9.42617 89.5352 9.810161 89.007 9.810161C 88.6594 9.810161 88.3773 9.653911 88.1973 9.45586L88.1973 9.45586L87.8551 8.96992L87.8551 8.96992L87.9871 8.85C 88.1434 9.08398 88.3953 9.40781 88.8031 9.40781C 89.24731 9.40781 89.5113 9.11406 89.5113 8.61016C 89.5113 8.09414 89.1332 7.60195 88.7613 7.15781C 88.4613 6.81016 88.1254 6.46797 87.7891 6.13789L87.7891 6.13789L87.7891 6L87.7891 6L90.0332 6C 90.1051 6.26992 90.1652 6.53398 90.2434 6.78594z" stroke="#000000" stroke-width="0.4" fill="none" /><path id="1322" transform="matrix(1 0 0 -1 0 834)" d="M92.7871 6L92.7871 6.16211C 92.241 6.20391 92.2051 6.25195 92.2051 6.68398L92.2051 6.68398L92.2051 9.810161C 91.8754 9.67813 91.5211 9.56406 91.1371 9.49805L91.1371 9.49805L91.1371 9.36016L91.1371 9.36016L91.42541 9.34805C 91.6891 9.33594 91.7133 9.305861 91.7133 8.99414L91.7133 8.99414L91.7133 6.68398C 91.7133 6.25195 91.6832 6.20391 91.1371 6.16211L91.1371 6.16211L91.1371 6z" stroke="#000000" stroke-width="0.4" fill="none" /><path id="1323" transform="matrix(1 0 0 -1 0 834)" d="M93.873 8.976171C 94.023 9.19805 94.2633 9.45 94.59341 9.45C 94.9113 9.45 95.1633 9.257811 95.1633 8.88594C 95.1633 8.44219 94.7551 8.20781 94.2031 8.03398L94.2031 8.03398L94.2453 7.86016C 94.341 7.88984 94.4852 7.92617 94.6293 7.92617C 94.9711 7.92617 95.391 7.70391 95.391 7.15195C 95.391 6.55781 95.091 6.23984 94.6652 6.23984C 94.323 6.23984 94.0773 6.40781 93.9211 6.54609C 93.873 6.58789 93.8254 6.58203 93.77731 6.54609C 93.723 6.50391 93.6453 6.42617 93.6391 6.34805C 93.6273 6.27617 93.65121 6.21016 93.7352 6.13203C 93.8133 6.06016 94.0594 5.92813 94.3352 5.92813C 94.7672 5.92813 95.90701 6.37188 95.90701 7.34414C 95.90701 7.78203 95.6012 8.153911 95.073 8.25586L95.073 8.25586L95.073 8.26797C 95.24731 8.38789 95.391 8.49609 95.4813 8.59219C 95.5953 8.70586 95.6672 8.84414 95.6672 9.01797C 95.6672 9.47383 95.3133 9.810161 94.773 9.810161C 94.4551 9.810161 94.17931 9.66016 94.0113 9.47383L94.0113 9.47383L93.74731 9.09609z" stroke="#000000" stroke-width="0.4" fill="none" /><path id="1342" transform="matrix(1 0 0 -1 0 834)" d="M554.472 6.83984C 554.292 6.46211 554.2141 6.43789 553.89 6.43789L553.89 6.43789L552.768 6.43789L552.768 6.43789L553.6201 7.33203C 554.1721 7.91992 554.412 8.273829 554.412 8.79609C 554.412 9.42617 553.932 9.810161 553.404 9.810161C 553.056 9.810161 552.774 9.653911 552.594 9.45586L552.594 9.45586L552.252 8.96992L552.252 8.96992L552.384 8.85C 552.54 9.08398 552.792 9.40781 553.2 9.40781C 553.644 9.40781 553.908 9.11406 553.908 8.61016C 553.908 8.09414 553.53 7.60195 553.158 7.15781C 552.858 6.81016 552.522 6.46797 552.186 6.13789L552.186 6.13789L552.186 6L552.186 6L554.43 6C 554.502 6.26992 554.562 6.53398 554.64 6.78594z" stroke="#000000" stroke-width="0.4" fill="none" /><path id="1343" transform="matrix(1 0 0 -1 0 834)" d="M555.792 9.3L557.19 9.3L557.19 9.3L557.346 9.68984L557.346 9.68984L557.31 9.73789L557.31 9.73789L555.6 9.73789L555.6 9.73789L555.366 7.90781C 555.504 7.96211 555.732 8.028131 555.984 8.028131C 556.638 8.028131 556.962 7.65 556.962 7.121881C 556.962 6.67188 556.71 6.23398 556.2 6.23398C 555.834 6.23398 555.588 6.42617 555.462 6.53984C 555.402 6.58789 555.354 6.58203 555.3 6.53984C 555.234 6.48008 555.18 6.40195 555.174 6.34219C 555.162 6.26992 555.192 6.22188 555.27 6.13789C 555.36 6.05391 555.612 5.92813 555.888 5.92813C 556.206 5.93398 556.608 6.08984 556.932 6.35391C 557.298 6.65391 557.466 6.99609 557.466 7.35586C 557.466 7.84805 557.076 8.369921 556.308 8.369921C 556.146 8.369921 555.864 8.273829 555.636 8.18984z" stroke="#000000" stroke-width="0.4" fill="none" /><path id="1344" transform="matrix(1 0 0 -1 0 834)" d="M559.548 9.989841L559.212 9.989841L559.212 9.989841L557.91 5.73594L557.91 5.73594L558.246 5.73594z" stroke="#000000" stroke-width="0.4" fill="none" /><path id="1345" transform="matrix(1 0 0 -1 0 834)" d="M561.18 9.61211C 561.72 9.61211 561.8701 8.72383 561.8701 7.871881C 561.8701 7.03203 561.726 6.13203 561.186 6.13203C 560.664 6.13203 560.49 7.03789 560.49 7.87813C 560.49 8.712111 560.634 9.61211 561.18 9.61211zM561.186 9.810161C 560.286 9.810161 559.956 8.74219 559.956 7.86602C 559.956 6.91797 560.28 5.92813 561.186 5.92813C 562.086 5.92813 562.404 6.99609 562.404 7.871881C 562.404 8.79609 562.086 9.810161 561.186 9.810161z" stroke="#000000" stroke-width="0.4" fill="none" /><path id="1346" transform="matrix(1 0 0 -1 0 834)" d="M564 9.61211C 564.582 9.61211 564.738 8.86797 564.738 8.33984C 564.738 8.21992 564.732 8.076171 564.7141 7.94414C 564.588 7.84805 564.384 7.77617 564.174 7.77617C 563.67 7.77617 563.3701 8.214061 563.3701 8.74219C 563.3701 9.09609 563.538 9.61211 564 9.61211zM564.078 9.810161C 563.304 9.810161 562.854 9.10781 562.854 8.53203C 562.854 7.90195 563.292 7.43398 563.928 7.43398C 564.042 7.43398 564.156 7.45781 564.288 7.53008L564.288 7.53008L564.69 7.74609C 564.492 6.83398 563.838 6.23398 562.98 6.08984L562.98 6.08984L563.01 5.91016C 563.16 5.91016 563.526 5.96992 563.85 6.10195C 564.66 6.42617 565.2661 7.20586 565.2661 8.310161C 565.2661 9.12617 564.828 9.810161 564.078 9.810161z" stroke="#000000" stroke-width="0.4" fill="none" /><path id="1347" transform="matrix(1 0 0 -1 0 834)" d="M567.294 9.989841L566.958 9.989841L566.958 9.989841L565.656 5.73594L565.656 5.73594L565.992 5.73594z" stroke="#000000" stroke-width="0.4" fill="none" /><path id="1348" transform="matrix(1 0 0 -1 0 834)" d="M569.9641 6.83984C 569.784 6.46211 569.706 6.43789 569.382 6.43789L569.382 6.43789L568.26 6.43789L568.26 6.43789L569.112 7.33203C 569.664 7.91992 569.904 8.273829 569.904 8.79609C 569.904 9.42617 569.424 9.810161 568.896 9.810161C 568.548 9.810161 568.2661 9.653911 568.086 9.45586L568.086 9.45586L567.744 8.96992L567.744 8.96992L567.876 8.85C 568.032 9.08398 568.284 9.40781 568.692 9.40781C 569.136 9.40781 569.4 9.11406 569.4 8.61016C 569.4 8.09414 569.022 7.60195 568.65 7.15781C 568.35 6.81016 568.014 6.46797 567.678 6.13789L567.678 6.13789L567.678 6L567.678 6L569.9221 6C 569.994 6.26992 570.054 6.53398 570.132 6.78594z" stroke="#000000" stroke-width="0.4" fill="none" /><path id="1349" transform="matrix(1 0 0 -1 0 834)" d="M571.806 9.61211C 572.346 9.61211 572.496 8.72383 572.496 7.871881C 572.496 7.03203 572.352 6.13203 571.812 6.13203C 571.29 6.13203 571.116 7.03789 571.116 7.87813C 571.116 8.712111 571.26 9.61211 571.806 9.61211zM571.812 9.810161C 570.912 9.810161 570.582 8.74219 570.582 7.86602C 570.582 6.91797 570.906 5.92813 571.812 5.92813C 572.712 5.92813 573.03 6.99609 573.03 7.871881C 573.03 8.79609 572.712 9.810161 571.812 9.810161z" stroke="#000000" stroke-width="0.4" fill="none" /><path id="1350" transform="matrix(1 0 0 -1 0 834)" d="M575.556 6L575.556 6.16211C 575.01 6.20391 574.9741 6.25195 574.9741 6.68398L574.9741 6.68398L574.9741 9.810161C 574.644 9.67813 574.29 9.56406 573.906 9.49805L573.906 9.49805L573.906 9.36016L573.906 9.36016L574.194 9.34805C 574.458 9.33594 574.482 9.305861 574.482 8.99414L574.482 8.99414L574.482 6.68398C 574.482 6.25195 574.452 6.20391 573.906 6.16211L573.906 6.16211L573.906 6z" stroke="#000000" stroke-width="0.4" fill="none" /><path id="1351" transform="matrix(1 0 0 -1 0 834)" d="M578.814 9.73789L576.522 9.73789C 576.498 9.48008 576.468 9.180079 576.414 8.85L576.414 8.85L576.588 8.85C 576.732 9.24609 576.768 9.3 577.164 9.3L577.164 9.3L578.46 9.3C 577.986 8.25586 577.308 7.01406 576.678 5.99414L576.678 5.99414L576.72 5.92813L576.72 5.92813L577.164 5.98789C 577.74 7.22383 578.298 8.44805 578.862 9.66602z" stroke="#000000" stroke-width="0.4" fill="none" /><path id="1352" transform="matrix(1 0 0 -1 0 834)" d="M584.531 9.61211C 585.071 9.61211 585.221 8.72383 585.221 7.871881C 585.221 7.03203 585.077 6.13203 584.537 6.13203C 584.015 6.13203 583.841 7.03789 583.841 7.87813C 583.841 8.712111 583.985 9.61211 584.531 9.61211zM584.537 9.810161C 583.637 9.810161 583.307 8.74219 583.307 7.86602C 583.307 6.91797 583.631 5.92813 584.537 5.92813C 585.437 5.92813 585.755 6.99609 585.755 7.871881C 585.755 8.79609 585.437 9.810161 584.537 9.810161z" stroke="#000000" stroke-width="0.4" fill="none" /><path id="1353" transform="matrix(1 0 0 -1 0 834)" d="M588.449 6.83984C 588.269 6.46211 588.191 6.43789 587.867 6.43789L587.867 6.43789L586.7451 6.43789L586.7451 6.43789L587.597 7.33203C 588.149 7.91992 588.389 8.273829 588.389 8.79609C 588.389 9.42617 587.909 9.810161 587.381 9.810161C 587.033 9.810161 586.751 9.653911 586.571 9.45586L586.571 9.45586L586.229 8.96992L586.229 8.96992L586.361 8.85C 586.517 9.08398 586.769 9.40781 587.177 9.40781C 587.621 9.40781 587.885 9.11406 587.885 8.61016C 587.885 8.09414 587.507 7.60195 587.135 7.15781C 586.835 6.81016 586.499 6.46797 586.163 6.13789L586.163 6.13789L586.163 6L586.163 6L588.407 6C 588.479 6.26992 588.539 6.53398 588.617 6.78594z" stroke="#000000" stroke-width="0.4" fill="none" /><path id="1354" transform="matrix(1 0 0 -1 0 834)" d="M589.5471 5.92813C 589.739 5.92813 589.883 6.06602 589.883 6.27617C 589.883 6.46797 589.739 6.61797 589.5471 6.61797C 589.355 6.61797 589.211 6.46797 589.211 6.27617C 589.211 6.06602 589.355 5.92813 589.5471 5.92813zM589.541 8.466021C 589.3491 8.466021 589.211 8.328131 589.211 8.13008C 589.211 7.92617 589.3491 7.78203 589.541 7.78203C 589.733 7.78203 589.877 7.92617 589.877 8.13008C 589.877 8.328131 589.733 8.466021 589.541 8.466021z" stroke="#000000" stroke-width="0.4" fill="none" /><path id="1355" transform="matrix(1 0 0 -1 0 834)" d="M590.735 8.976171C 590.885 9.19805 591.125 9.45 591.455 9.45C 591.773 9.45 592.025 9.257811 592.025 8.88594C 592.025 8.44219 591.617 8.20781 591.065 8.03398L591.065 8.03398L591.107 7.86016C 591.203 7.88984 591.347 7.92617 591.491 7.92617C 591.833 7.92617 592.253 7.70391 592.253 7.15195C 592.253 6.55781 591.953 6.23984 591.527 6.23984C 591.185 6.23984 590.939 6.40781 590.783 6.54609C 590.735 6.58789 590.687 6.58203 590.639 6.54609C 590.585 6.50391 590.507 6.42617 590.501 6.34805C 590.489 6.27617 590.513 6.21016 590.597 6.13203C 590.675 6.06016 590.921 5.92813 591.197 5.92813C 591.629 5.92813 592.769 6.37188 592.769 7.34414C 592.769 7.78203 592.463 8.153911 591.935 8.25586L591.935 8.25586L591.935 8.26797C 592.109 8.38789 592.253 8.49609 592.343 8.59219C 592.457 8.70586 592.529 8.84414 592.529 9.01797C 592.529 9.47383 592.175 9.810161 591.635 9.810161C 591.317 9.810161 591.041 9.66016 590.873 9.47383L590.873 9.47383L590.609 9.09609z" stroke="#000000" stroke-width="0.4" fill="none" /><path id="1356" transform="matrix(1 0 0 -1 0 834)" d="M594.017 9.3L595.415 9.3L595.415 9.3L595.571 9.68984L595.571 9.68984L595.535 9.73789L595.535 9.73789L593.825 9.73789L593.825 9.73789L593.591 7.90781C 593.729 7.96211 593.957 8.028131 594.209 8.028131C 594.863 8.028131 595.187 7.65 595.187 7.121881C 595.187 6.67188 594.935 6.23398 594.425 6.23398C 594.059 6.23398 593.813 6.42617 593.687 6.53984C 593.627 6.58789 593.579 6.58203 593.525 6.53984C 593.459 6.48008 593.405 6.40195 593.399 6.34219C 593.387 6.26992 593.417 6.22188 593.4951 6.13789C 593.585 6.05391 593.837 5.92813 594.113 5.92813C 594.431 5.93398 594.833 6.08984 595.157 6.35391C 595.523 6.65391 595.691 6.99609 595.691 7.35586C 595.691 7.84805 595.301 8.369921 594.533 8.369921C 594.371 8.369921 594.0891 8.273829 593.861 8.18984z" stroke="#000000" stroke-width="0.4" fill="none" /><path id="1357" transform="matrix(1 0 0 -1 0 834)" d="M596.675 5.92813C 596.867 5.92813 597.011 6.06602 597.011 6.27617C 597.011 6.46797 596.867 6.61797 596.675 6.61797C 596.483 6.61797 596.3391 6.46797 596.3391 6.27617C 596.3391 6.06602 596.483 5.92813 596.675 5.92813zM596.669 8.466021C 596.477 8.466021 596.3391 8.328131 596.3391 8.13008C 596.3391 7.92617 596.477 7.78203 596.669 7.78203C 596.861 7.78203 597.005 7.92617 597.005 8.13008C 597.005 8.328131 596.861 8.466021 596.669 8.466021z" stroke="#000000" stroke-width="0.4" fill="none" /><path id="1358" transform="matrix(1 0 0 -1 0 834)" d="M599.657 6L599.657 6.16211C 599.111 6.20391 599.075 6.25195 599.075 6.68398L599.075 6.68398L599.075 9.810161C 598.7451 9.67813 598.3911 9.56406 598.007 9.49805L598.007 9.49805L598.007 9.36016L598.007 9.36016L598.295 9.34805C 598.559 9.33594 598.583 9.305861 598.583 8.99414L598.583 8.99414L598.583 6.68398C 598.583 6.25195 598.553 6.20391 598.007 6.16211L598.007 6.16211L598.007 6z" stroke="#000000" stroke-width="0.4" fill="none" /><path id="1359" transform="matrix(1 0 0 -1 0 834)" d="M602.537 6L602.537 6.16211C 601.991 6.20391 601.955 6.25195 601.955 6.68398L601.955 6.68398L601.955 9.810161C 601.625 9.67813 601.271 9.56406 600.887 9.49805L600.887 9.49805L600.887 9.36016L600.887 9.36016L601.175 9.34805C 601.439 9.33594 601.463 9.305861 601.463 8.99414L601.463 8.99414L601.463 6.68398C 601.463 6.25195 601.433 6.20391 600.887 6.16211L600.887 6.16211L600.887 6z" stroke="#000000" stroke-width="0.4" fill="none" /><path id="1360" transform="matrix(1 0 0 -1 0 834)" d="M605.489 8.08203C 605.651 8.20195 605.897 8.33398 606.0891 8.33398C 606.527 8.33398 606.893 7.97383 606.893 7.33203C 606.893 6.65391 606.557 6.22188 606.053 6.22188C 605.8491 6.22188 605.621 6.31797 605.489 6.45586zM605.489 8.28008L605.489 8.75391C 605.207 8.63984 604.871 8.53789 604.619 8.49609L604.619 8.49609L604.619 8.351951C 604.991 8.30391 605.015 8.29219 605.015 7.90195L605.015 7.90195L605.015 5.18984C 605.015 4.79414 604.961 4.75781 604.577 4.72188L604.577 4.72188L604.577 4.56016L604.577 4.56016L605.999 4.56016L605.999 4.56016L605.999 4.72188C 605.531 4.76406 605.489 4.79414 605.489 5.25L605.489 5.25L605.489 6.03594C 605.567 5.99414 605.729 5.93398 605.903 5.92813C 606.683 6.07188 607.397 6.65391 607.397 7.56016C 607.397 8.153911 607.001 8.69414 606.335 8.69414C 606.263 8.69414 606.149 8.664061 606.041 8.60391z" stroke="#000000" stroke-width="0.4" fill="none" /><path id="1361" transform="matrix(1 0 0 -1 0 834)" d="M608.303 5.92813C 608.4951 5.92813 608.639 6.06602 608.639 6.27617C 608.639 6.46797 608.4951 6.61797 608.303 6.61797C 608.111 6.61797 607.967 6.46797 607.967 6.27617C 607.967 6.06602 608.111 5.92813 608.303 5.92813z" stroke="#000000" stroke-width="0.4" fill="none" /><path id="1362" transform="matrix(1 0 0 -1 0 834)" d="M615.125 6L615.125 6.15586C 614.783 6.19219 614.735 6.21602 614.735 6.61797L614.735 6.61797L614.735 7.77617C 614.735 8.36406 614.441 8.69414 613.973 8.69414C 613.805 8.69414 613.649 8.621881 613.523 8.53789C 613.373 8.44805 613.199 8.33398 613.025 8.20195C 612.905 8.51406 612.647 8.69414 612.359 8.69414C 612.167 8.69414 612.023 8.628131 611.867 8.53203C 611.687 8.417971 611.555 8.310161 611.429 8.226171L611.429 8.226171L611.429 8.712111C 611.165 8.59219 610.859 8.51406 610.595 8.466021L610.595 8.466021L610.595 8.328131C 610.9431 8.273829 610.961 8.24414 610.961 7.86016L610.961 7.86016L610.961 6.61797C 610.961 6.22813 610.907 6.19219 610.511 6.15586L610.511 6.15586L610.511 6L610.511 6L611.777 6L611.777 6L611.777 6.15586C 611.483 6.19219 611.435 6.22813 611.435 6.61797L611.435 6.61797L611.435 8.028131C 611.615 8.17813 611.8491 8.33984 612.0891 8.33984C 612.455 8.33984 612.611 8.09414 612.611 7.65L612.611 7.65L612.611 6.61797C 612.611 6.22188 612.557 6.19219 612.185 6.15586L612.185 6.15586L612.185 6L612.185 6L613.469 6L613.469 6L613.469 6.15586C 613.139 6.19219 613.085 6.22813 613.085 6.60586L613.085 6.60586L613.085 7.77617C 613.085 7.88984 613.079 7.95586 613.067 8.028131C 613.295 8.21992 613.523 8.33984 613.739 8.33984C 614.117 8.33984 614.267 8.069921 614.267 7.64414L614.267 7.64414L614.267 6.64219C 614.267 6.21602 614.201 6.19219 613.847 6.15586L613.847 6.15586L613.847 6z" stroke="#000000" stroke-width="0.4" fill="none" /><path id="1363" transform="matrix(1 0 0 -1 0 834)" d="M615.947 5.92813C 616.139 5.92813 616.283 6.06602 616.283 6.27617C 616.283 6.46797 616.139 6.61797 615.947 6.61797C 615.755 6.61797 615.611 6.46797 615.611 6.27617C 615.611 6.06602 615.755 5.92813 615.947 5.92813z" stroke="#000000" stroke-width="0.4" fill="none" /></g></g></svg>