<svg xmlns="http://www.w3.org/2000/svg" xmlns:xlink="http://www.w3.org/1999/xlink" id="body_1" preserveAspectRatio="xMinYMin meet" viewBox="0 0 872 1112"><defs><clipPath id="1"><path id="" clip-rule="evenodd" transform="matrix(1 0 0 1 0 0)" d="M0 834L0 0L0 0L654 0L654 0L654 834L654 834L0 834z" /></clipPath><clipPath id="2"><path id="" clip-rule="evenodd" transform="matrix(1 0 0 1 0 0)" d="M21 813L633 813L633 813L633 21L633 21L21 21z" /></clipPath><clipPath id="3"><path id="" clip-rule="evenodd" transform="matrix(1 0 0 1 0 0)" d="M358.402 271.747L489.381 271.747L489.381 271.747L489.381 127.325L489.381 127.325L358.402 127.325z" /></clipPath><clipPath id="4"><path id="" clip-rule="evenodd" transform="matrix(1 0 0 1 0 0)" d="M414.803 213.093L414.803 250.461C 421.452 262.751 434.457 271.099 449.411 271.099L449.411 271.099L449.411 271.099C 465.121 271.099 478.678 261.888 484.978 248.573L484.978 248.573L484.978 248.573L484.978 248.573L484.978 214.981C 478.678 201.664 465.121 192.454 449.411 192.454L449.411 192.454L449.411 192.454C 434.457 192.454 421.452 200.802 414.803 213.093" /></clipPath><clipPath id="5"><path id="" clip-rule="evenodd" transform="matrix(1 0 0 1 0 0)" d="M414.803 213.093L414.803 250.461C 421.452 262.751 434.457 271.099 449.411 271.099L449.411 271.099L449.411 271.099C 465.121 271.099 478.678 261.888 484.978 248.573L484.978 248.573L484.978 248.573L484.978 248.573L484.978 214.981C 478.678 201.664 465.121 192.454 449.411 192.454L449.411 192.454L449.411 192.454C 434.457 192.454 421.452 200.802 414.803 213.093" /></clipPath><clipPath id="6"><path id="" clip-rule="evenodd" transform="matrix(1 0 0 1 0 0)" d="M358.402 271.747L489.381 271.747L489.381 271.747L489.381 127.325L489.381 127.325L358.402 127.325z" /></clipPath><clipPath id="7"><path id="" clip-rule="evenodd" transform="matrix(1 0 0 1 0 0)" d="M415.144 179.6509L430.0967 179.6509L430.0967 179.6509L430.0967 176.69L430.0967 176.69L415.144 176.69z" /></clipPath><clipPath id="8"><path id="" clip-rule="evenodd" transform="matrix(1 0 0 1 0 0)" d="M415.144 179.6509L430.097 179.6509L430.097 179.6509L430.097 176.69L430.097 176.69L415.144 176.69z" /></clipPath><clipPath id="9"><path id="" clip-rule="evenodd" transform="matrix(1 0 0 1 0 0)" d="M415.144 179.6509L430.0967 179.6509L430.0967 179.6509L430.0967 176.69L430.0967 176.69L415.144 176.69z" /></clipPath><clipPath id="10"><path id="" clip-rule="evenodd" transform="matrix(1 0 0 1 0 0)" d="M405.92 199.861L408.4122 199.861L408.4122 199.861L408.4122 197.3692L408.4122 197.3692L405.92 197.3692z" /></clipPath><clipPath id="11"><path id="" clip-rule="evenodd" transform="matrix(1 0 0 1 0 0)" d="M405.92 199.861L408.412 199.861L408.412 199.861L408.412 197.369L408.412 197.369L405.92 197.369z" /></clipPath><clipPath id="12"><path id="" clip-rule="evenodd" transform="matrix(1 0 0 1 0 0)" d="M405.92 199.861L408.4122 199.861L408.4122 199.861L408.4122 197.3692L408.4122 197.3692L405.92 197.3692z" /></clipPath><clipPath id="13"><path id="" clip-rule="evenodd" transform="matrix(1 0 0 1 0 0)" d="M366.238 202.353L368.1552 202.353L368.1552 202.353L368.1552 200.4358L368.1552 200.4358L366.238 200.4358z" /></clipPath><clipPath id="14"><path id="" clip-rule="evenodd" transform="matrix(1 0 0 1 0 0)" d="M366.238 202.353L368.155 202.353L368.155 202.353L368.155 200.436L368.155 200.436L366.238 200.436z" /></clipPath><clipPath id="15"><path id="" clip-rule="evenodd" transform="matrix(1 0 0 1 0 0)" d="M366.238 202.353L368.1552 202.353L368.1552 202.353L368.1552 200.4358L368.1552 200.4358L366.238 200.4358z" /></clipPath><clipPath id="16"><path id="" clip-rule="evenodd" transform="matrix(1 0 0 1 0 0)" d="M267.524 169.725L294.5424 169.725L294.5424 169.725L294.5424 117.5449L294.5424 117.5449L267.524 117.5449z" /></clipPath><clipPath id="17"><path id="" clip-rule="evenodd" transform="matrix(1 0 0 1 0 0)" d="M267.524 169.725L294.5424 169.725L294.5424 169.725L294.5424 117.5449L294.5424 117.5449L267.524 117.5449z" /></clipPath><clipPath id="18"><path id="" clip-rule="evenodd" transform="matrix(1 0 0 1 0 0)" d="M327 176.931L352.5969 176.931L352.5969 176.931L352.5969 141.0732L352.5969 141.0732L327 141.0732z" /></clipPath><clipPath id="19"><path id="" clip-rule="evenodd" transform="matrix(1 0 0 1 0 0)" d="M327 176.931L352.5969 176.931L352.5969 176.931L352.5969 141.0732L352.5969 141.0732L327 141.0732z" /></clipPath><clipPath id="20"><path id="" clip-rule="evenodd" transform="matrix(1 0 0 1 0 0)" d="M452.376 176.931L477.9729 176.931L477.9729 176.931L477.9729 141.0732L477.9729 141.0732L452.376 141.0732z" /></clipPath><clipPath id="21"><path id="" clip-rule="evenodd" transform="matrix(1 0 0 1 0 0)" d="M452.376 176.931L477.9729 176.931L477.9729 176.931L477.9729 141.0732L477.9729 141.0732L452.376 141.0732z" /></clipPath><clipPath id="22"><path id="" clip-rule="evenodd" transform="matrix(1 0 0 1 0 0)" d="M258.826 488.433L535.588 488.433L535.588 488.433L535.588 380.399L535.588 380.399L258.826 380.399z" /></clipPath><clipPath id="23"><path id="" clip-rule="evenodd" transform="matrix(1 0 0 1 0 0)" d="M275.701 487.416L353.4479 487.416L353.4479 487.416L353.4479 387.8441L353.4479 387.8441L275.701 387.8441z" /></clipPath><clipPath id="24"><path id="" clip-rule="evenodd" transform="matrix(1 0 0 1 0 0)" d="M275.701 487.416L353.4479 487.416L353.4479 487.416L353.4479 387.8441L353.4479 387.8441L275.701 387.8441z" /></clipPath><clipPath id="25"><path id="" clip-rule="evenodd" transform="matrix(1 0 0 1 0 0)" d="M258.826 488.433L535.588 488.433L535.588 488.433L535.588 380.399L535.588 380.399L258.826 380.399z" /></clipPath><clipPath id="26"><path id="" clip-rule="evenodd" transform="matrix(1 0 0 1 0 0)" d="M258.826 453.633L258.826 470.736C 262.329 480.462 271.639 487.416 282.573 487.416L282.573 487.416L282.573 487.416C 292.766 487.416 301.548 481.372 305.529 472.672L305.529 472.672L305.529 472.672L305.529 472.672L305.529 451.697C 301.548 442.997 292.766 436.952 282.573 436.952L282.573 436.952L282.573 436.952C 271.639 436.952 262.329 443.907 258.826 453.633" /></clipPath><clipPath id="27"><path id="" clip-rule="evenodd" transform="matrix(1 0 0 1 0 0)" d="M258.826 453.633L258.826 470.736C 262.329 480.462 271.639 487.416 282.573 487.416L282.573 487.416L282.573 487.416C 292.766 487.416 301.548 481.372 305.529 472.672L305.529 472.672L305.529 472.672L305.529 472.672L305.529 451.697C 301.548 442.997 292.766 436.952 282.573 436.952L282.573 436.952L282.573 436.952C 271.639 436.952 262.329 443.907 258.826 453.633" /></clipPath><clipPath id="28"><path id="" clip-rule="evenodd" transform="matrix(1 0 0 1 0 0)" d="M258.826 488.433L535.588 488.433L535.588 488.433L535.588 380.399L535.588 380.399L258.826 380.399z" /></clipPath><clipPath id="29"><path id="" clip-rule="evenodd" transform="matrix(1 0 0 1 0 0)" d="M357.07 462.289C 357.07 476.282 368.413 487.626 382.406 487.626L382.406 487.626L382.406 487.626C 391.828 487.626 400.048 482.484 404.414 474.854L404.414 474.854L404.414 474.854L404.414 474.854L404.414 449.724C 400.048 442.094 391.828 436.952 382.406 436.952L382.406 436.952L382.406 436.952C 368.413 436.952 357.07 448.296 357.07 462.289" /></clipPath><clipPath id="30"><path id="" clip-rule="evenodd" transform="matrix(1 0 0 1 0 0)" d="M357.07 462.289C 357.07 476.282 368.413 487.626 382.406 487.626L382.406 487.626L382.406 487.626C 391.828 487.626 400.048 482.484 404.414 474.854L404.414 474.854L404.414 474.854L404.414 474.854L404.414 449.724C 400.048 442.094 391.828 436.952 382.406 436.952L382.406 436.952L382.406 436.952C 368.413 436.952 357.07 448.296 357.07 462.289" /></clipPath><clipPath id="31"><path id="" clip-rule="evenodd" transform="matrix(1 0 0 1 0 0)" d="M258.826 488.433L535.588 488.433L535.588 488.433L535.588 380.399L535.588 380.399L258.826 380.399z" /></clipPath><clipPath id="32"><path id="" clip-rule="evenodd" transform="matrix(1 0 0 1 0 0)" d="M496.107 440.119C 487.727 444.172 481.947 452.755 481.947 462.689L481.947 462.689L481.947 462.689C 481.947 476.528 493.166 487.747 507.005 487.747L507.005 487.747L507.005 487.747C 520.844 487.747 532.064 476.528 532.064 462.689L532.064 462.689L532.064 462.689C 532.064 452.755 526.284 444.172 517.904 440.119L517.904 440.119L517.904 440.119z" /></clipPath><clipPath id="33"><path id="" clip-rule="evenodd" transform="matrix(1 0 0 1 0 0)" d="M496.107 440.119C 487.727 444.172 481.947 452.755 481.947 462.689L481.947 462.689L481.947 462.689C 481.947 476.528 493.166 487.747 507.005 487.747L507.005 487.747L507.005 487.747C 520.844 487.747 532.064 476.528 532.064 462.689L532.064 462.689L532.064 462.689C 532.064 452.755 526.284 444.172 517.904 440.119L517.904 440.119L517.904 440.119z" /></clipPath><clipPath id="34"><path id="" clip-rule="evenodd" transform="matrix(1 0 0 1 0 0)" d="M258.826 488.433L535.588 488.433L535.588 488.433L535.588 380.399L535.588 380.399L258.826 380.399z" /></clipPath><clipPath id="35"><path id="" clip-rule="evenodd" transform="matrix(1 0 0 1 0 0)" d="M258.826 488.433L535.588 488.433L535.588 488.433L535.588 380.399L535.588 380.399L258.826 380.399z" /></clipPath><clipPath id="36"><path id="" clip-rule="evenodd" transform="matrix(1 0 0 1 0 0)" d="M258.826 488.433L535.588 488.433L535.588 488.433L535.588 380.399L535.588 380.399L258.826 380.399z" /></clipPath><clipPath id="37"><path id="" clip-rule="evenodd" transform="matrix(1 0 0 1 0 0)" d="M258.826 488.433L535.588 488.433L535.588 488.433L535.588 380.399L535.588 380.399L258.826 380.399z" /></clipPath><clipPath id="38"><path id="" clip-rule="evenodd" transform="matrix(1 0 0 1 0 0)" d="M265.881 390.928L294.1501 390.928L294.1501 390.928L294.1501 334.012L294.1501 334.012L265.881 334.012z" /></clipPath><clipPath id="39"><path id="" clip-rule="evenodd" transform="matrix(1 0 0 1 0 0)" d="M265.881 390.928L294.1501 390.928L294.1501 390.928L294.1501 334.012L294.1501 334.012L265.881 334.012z" /></clipPath><clipPath id="40"><path id="" clip-rule="evenodd" transform="matrix(1 0 0 1 0 0)" d="M257.168 424.661L282.7649 424.661L282.7649 424.661L282.7649 388.802L282.7649 388.802L257.168 388.802z" /></clipPath><clipPath id="41"><path id="" clip-rule="evenodd" transform="matrix(1 0 0 1 0 0)" d="M257.168 424.661L282.7649 424.661L282.7649 424.661L282.7649 388.802L282.7649 388.802L257.168 388.802z" /></clipPath><clipPath id="42"><path id="" clip-rule="evenodd" transform="matrix(1 0 0 1 0 0)" d="M361.894 424.661L387.4909 424.661L387.4909 424.661L387.4909 391.9141L387.4909 391.9141L361.894 391.9141z" /></clipPath><clipPath id="43"><path id="" clip-rule="evenodd" transform="matrix(1 0 0 1 0 0)" d="M361.894 424.661L387.4909 424.661L387.4909 424.661L387.4909 391.9141L387.4909 391.9141L361.894 391.9141z" /></clipPath><clipPath id="44"><path id="" clip-rule="evenodd" transform="matrix(1 0 0 1 0 0)" d="M441.803 422.534L476.953 422.534L476.953 422.534L476.953 387.9469L476.953 387.9469L441.803 387.9469z" /></clipPath><clipPath id="45"><path id="" clip-rule="evenodd" transform="matrix(1 0 0 1 0 0)" d="M441.803 422.534L476.953 422.534L476.953 422.534L476.953 387.9469L476.953 387.9469L441.803 387.9469z" /></clipPath><clipPath id="46"><path id="" clip-rule="evenodd" transform="matrix(1 0 0 1 0 0)" d="M327 424.661L365.6781 424.661L365.6781 424.661L365.6781 388.802L365.6781 388.802L327 388.802z" /></clipPath><clipPath id="47"><path id="" clip-rule="evenodd" transform="matrix(1 0 0 1 0 0)" d="M327 424.661L365.6781 424.661L365.6781 424.661L365.6781 388.802L365.6781 388.802L327 388.802z" /></clipPath><clipPath id="48"><path id="" clip-rule="evenodd" transform="matrix(1 0 0 1 0 0)" d="M418.417 424.661L453.5654 424.661L453.5654 424.661L453.5654 391.9141L453.5654 391.9141L418.417 391.9141z" /></clipPath><clipPath id="49"><path id="" clip-rule="evenodd" transform="matrix(1 0 0 1 0 0)" d="M418.417 424.661L453.5654 424.661L453.5654 424.661L453.5654 391.9141L453.5654 391.9141L418.417 391.9141z" /></clipPath><clipPath id="50"><path id="" clip-rule="evenodd" transform="matrix(1 0 0 1 0 0)" d="M518.48 424.661L555.3988 424.661L555.3988 424.661L555.3988 390.0731L555.3988 390.0731L518.48 390.0731z" /></clipPath><clipPath id="51"><path id="" clip-rule="evenodd" transform="matrix(1 0 0 1 0 0)" d="M518.48 424.661L555.3988 424.661L555.3988 424.661L555.3988 390.0731L555.3988 390.0731L518.48 390.0731z" /></clipPath><clipPath id="52"><path id="" clip-rule="evenodd" transform="matrix(1 0 0 1 0 0)" d="M295.11 707.673L388.6209 707.673L388.6209 707.673L388.6209 565.896L388.6209 565.896L295.11 565.896z" /></clipPath><clipPath id="53"><path id="" clip-rule="evenodd" transform="matrix(1 0 0 1 0 0)" d="M295.11 707.673L388.6209 707.673L388.6209 707.673L388.6209 565.896L388.6209 565.896L295.11 565.896z" /></clipPath><clipPath id="54"><path id="" clip-rule="evenodd" transform="matrix(1 0 0 1 0 0)" d="M409.757 707.529L503.2668 707.529L503.2668 707.529L503.2668 565.752L503.2668 565.752L409.757 565.752z" /></clipPath><clipPath id="55"><path id="" clip-rule="evenodd" transform="matrix(1 0 0 1 0 0)" d="M409.757 707.529L503.2668 707.529L503.2668 707.529L503.2668 565.752L503.2668 565.752L409.757 565.752z" /></clipPath><clipPath id="56"><path id="" clip-rule="evenodd" transform="matrix(1 0 0 1 0 0)" d="M295.11 707.673L503.267 707.673L503.267 707.673L503.267 565.752L503.267 565.752L295.11 565.752z" /></clipPath><clipPath id="57"><path id="" clip-rule="evenodd" transform="matrix(1 0 0 1 0 0)" d="M336.247 678.074L358.4501 678.074L358.4501 678.074L358.4501 640.9912L358.4501 640.9912L336.247 640.9912z" /></clipPath><clipPath id="58"><path id="" clip-rule="evenodd" transform="matrix(1 0 0 1 0 0)" d="M336.247 678.074L358.45 678.074L358.45 678.074L358.45 640.991L358.45 640.991L336.247 640.991z" /></clipPath><clipPath id="59"><path id="" clip-rule="evenodd" transform="matrix(1 0 0 1 0 0)" d="M336.247 678.074L358.4501 678.074L358.4501 678.074L358.4501 640.9912L358.4501 640.9912L336.247 640.9912z" /></clipPath><clipPath id="60"><path id="" clip-rule="evenodd" transform="matrix(1 0 0 1 0 0)" d="M260.995 608.495L299.2622 608.495L299.2622 608.495L299.2622 551.579L299.2622 551.579L260.995 551.579z" /></clipPath><clipPath id="61"><path id="" clip-rule="evenodd" transform="matrix(1 0 0 1 0 0)" d="M260.995 608.495L299.2622 608.495L299.2622 608.495L299.2622 551.579L299.2622 551.579L260.995 551.579z" /></clipPath><clipPath id="62"><path id="" clip-rule="evenodd" transform="matrix(1 0 0 1 0 0)" d="M267.216 698.898L292.8129 698.898L292.8129 698.898L292.8129 663.039L292.8129 663.039L267.216 663.039z" /></clipPath><clipPath id="63"><path id="" clip-rule="evenodd" transform="matrix(1 0 0 1 0 0)" d="M267.216 698.898L292.8129 698.898L292.8129 698.898L292.8129 663.039L292.8129 663.039L267.216 663.039z" /></clipPath><clipPath id="64"><path id="" clip-rule="evenodd" transform="matrix(1 0 0 1 0 0)" d="M506.83 698.898L532.4269 698.898L532.4269 698.898L532.4269 663.039L532.4269 663.039L506.83 663.039z" /></clipPath><clipPath id="65"><path id="" clip-rule="evenodd" transform="matrix(1 0 0 1 0 0)" d="M506.83 698.898L532.4269 698.898L532.4269 698.898L532.4269 663.039L532.4269 663.039L506.83 663.039z" /></clipPath></defs><g transform="matrix(1.333333 0 0 1.333333 0 0)"><g clip-path="url(#1)"><g clip-path="url(#2)"><path id="1" transform="matrix(1 0 0 -1 0 834)" d="M91.866 67.4211L562.134 67.4211L562.134 74.92501L91.866 74.92501z" stroke="none" fill="#686868" fill-rule="nonzero" /><path id="2" transform="matrix(1 0 0 -1 0 834)" d="M562.134 526.984L91.866 526.984" stroke="#686868" stroke-width="1" fill="none" /><path id="3" transform="matrix(1 0 0 -1 0 834)" d="M562.134 307.016L91.866 307.016" stroke="#686868" stroke-width="1" fill="none" /></g><path id="7" transform="matrix(1 0 0 -1 0 834)" d="M402.133 596.278L403.907 596.997" stroke="none" fill="#FFFFFF" fill-rule="nonzero" /><path id="8" transform="matrix(1 0 0 -1 0 834)" d="M402.134 596.278L403.907 596.997" stroke="#000000" stroke-width="0.431" fill="none" /><g transform="matrix(1.000102 0 0 0.9984376 358.402 127.324)"><g transform="matrix(1 0 0 1 0 0)"><image x="0" y="0" xlink:href="img_01.png" width="91" height="144" /></g></g><g clip-path="url(#3)"><path id="10" transform="matrix(1 0 0 -1 0 834)" d="M488.735 602.2241C 488.735 580.507 471.13 562.901 449.412 562.901C 427.695 562.901 410.089 580.507 410.089 602.2241C 410.089 623.941 427.695 641.5471 449.412 641.5471C 471.13 641.5471 488.735 623.941 488.735 602.2241" stroke="none" fill="#FFFFFF" fill-rule="nonzero" /></g><g clip-path="url(#4)"></g><g clip-path="url(#5)"><g transform="matrix(1.002493 0 0 0.9987388 414.803 190.348)"><g transform="matrix(1 0 0 1 0 0)"><image x="0" y="0" xlink:href="img_02.png" width="70" height="111" /></g></g></g><g clip-path="url(#6)"><path id="12" transform="matrix(1 0 0 -1 0 834)" d="M488.735 602.2241C 488.735 580.507 471.13 562.901 449.412 562.901C 427.695 562.901 410.089 580.507 410.089 602.2241C 410.089 623.941 427.695 641.5471 449.412 641.5471C 471.13 641.5471 488.735 623.941 488.735 602.2241z" stroke="#000000" stroke-width="0.719" fill="none" /><path id="13" transform="matrix(1 0 0 -1 0 834)" d="M377.897 653.441C 379.806 653.857 383.211 654.131 388.719 653.149" stroke="#000000" stroke-width="0.719" fill="none" /></g><path id="14" transform="matrix(1 0 0 -1 0 834)" d="M379.284 652.454L378.331 653.542L378.453 654.983L375.871 652.734z" stroke="none" fill="#000000" fill-rule="nonzero" /><path id="15" transform="matrix(1 0 0 -1 0 834)" d="M387.474 652.022L388.281 653.222L387.977 654.636L390.824 652.733z" stroke="none" fill="#000000" fill-rule="nonzero" /><g clip-path="url(#7)"><g><g clip-path="url(#8)"><g clip-path="url(#9)"><path id="16" transform="matrix(1 0 0 -1 0 834)" d="M417.17 655.769C 419.079 656.185 422.484 656.459 427.992 655.477" stroke="#FFFFFF" stroke-width="0.719" fill="none" stroke-opacity="0.8" /><path id="17" transform="matrix(1 0 0 -1 0 834)" d="M415.144 655.06L418.557 654.781L417.605 655.869L417.726 657.31z" stroke="none" fill="#FFFFFF" fill-rule="nonzero" fill-opacity="0.8" /><path id="18" transform="matrix(1 0 0 -1 0 834)" d="M427.553 655.55L426.747 654.3491L430.096 655.061L427.249 656.9641z" stroke="none" fill="#FFFFFF" fill-rule="nonzero" fill-opacity="0.8" /></g></g></g></g><g clip-path="url(#10)"><g><g clip-path="url(#11)"><g clip-path="url(#12)"><path id="19" transform="matrix(1 0 0 -1 0 834)" d="M408.412 635.385C 408.412 634.697 407.854 634.139 407.166 634.139C 406.478 634.139 405.92 634.697 405.92 635.385C 405.92 636.073 406.478 636.631 407.166 636.631C 407.854 636.631 408.412 636.073 408.412 635.385" stroke="none" fill="#FFFFFF" fill-rule="nonzero" fill-opacity="0.8" /></g></g></g></g><g clip-path="url(#13)"><g><g clip-path="url(#14)"><g clip-path="url(#15)"><path id="20" transform="matrix(1 0 0 -1 0 834)" d="M368.155 632.605C 368.155 632.076 367.726 631.647 367.196 631.647C 366.667 631.647 366.238 632.076 366.238 632.605C 366.238 633.134 366.667 633.564 367.196 633.564C 367.726 633.564 368.155 633.134 368.155 632.605" stroke="none" fill="#FFFFFF" fill-rule="nonzero" fill-opacity="0.8" /></g></g></g></g><g clip-path="url(#16)"></g><g clip-path="url(#17)"><g transform="matrix(1.000663 0 0 1.003471 267.524 117.5455)"><g transform="matrix(1 0 0 1 0 0)"><image x="0" y="0" xlink:href="img_03.png" width="27" height="52" /></g></g></g><g clip-path="url(#18)"></g><g clip-path="url(#19)"><g transform="matrix(1.022789 0 0 0.9967948 325.993 140.0588)"><g transform="matrix(1 0 0 1 0 0)"><image x="0" y="0" xlink:href="img_04.png" width="27" height="38" /></g></g></g><g clip-path="url(#20)"></g><g clip-path="url(#21)"><g transform="matrix(-1.022789 0 0 0.9967948 478.98 140.0588)"><g transform="matrix(1 0 0 1 0 0)"><image x="0" y="0" xlink:href="img_04.png" width="27" height="38" /></g></g></g><g clip-path="url(#22)"><path id="356" transform="matrix(1 0 0 -1 0 834)" d="M506.612 427.381C 507.55 429.254 506.441 431.777 504.107 433.448L504.107 433.448L504.111 433.456C 504.11 433.456 504.109 433.457 504.108 433.458L504.108 433.458L504.873 433.866L504.873 433.866L502.351 434.431C 499.356 435.702 496.227 435.151 495.198 433.097C 494.221 431.145 495.465 428.49 498.001 426.825L498.001 426.825L497.972 426.726C 497.973 426.726 497.974 426.725 497.975 426.725L497.975 426.725L497.326 426.21L497.326 426.21L499.715 425.943C 502.63 424.809 505.612 425.385 506.612 427.381M500.112 426.295L497.962 428.04L497.962 428.04L498.103 427.323C 495.972 428.818 494.951 431.103 495.798 432.796C 496.702 434.601 499.417 435.108 502.051 434.05L502.051 434.05L503.877 432.211L503.877 432.211L503.863 432.987C 503.864 432.986 503.865 432.985 503.866 432.984L503.866 432.984L503.859 432.991L503.859 432.991L503.88 433.03C 505.893 431.535 506.835 429.328 506.011 427.682C 505.148 425.958 502.632 425.418 500.112 426.295" stroke="none" fill="#FFFFFF" fill-rule="nonzero" /><path id="357" transform="matrix(1 0 0 -1 0 834)" d="M506.612 427.381C 507.55 429.254 506.441 431.777 504.107 433.448L504.107 433.448L504.111 433.456C 504.11 433.456 504.109 433.457 504.108 433.458L504.108 433.458L504.873 433.866L504.873 433.866L502.351 434.431C 499.356 435.702 496.227 435.151 495.198 433.097C 494.221 431.145 495.465 428.49 498.001 426.825L498.001 426.825L497.972 426.726C 497.973 426.726 497.974 426.725 497.975 426.725L497.975 426.725L497.326 426.21L497.326 426.21L499.715 425.943C 502.63 424.809 505.612 425.385 506.612 427.381zM500.112 426.295L497.962 428.04L497.962 428.04L498.103 427.323C 495.972 428.818 494.951 431.103 495.798 432.796C 496.702 434.601 499.417 435.108 502.051 434.05L502.051 434.05L503.877 432.211L503.877 432.211L503.863 432.987C 503.864 432.986 503.865 432.985 503.866 432.984L503.866 432.984L503.859 432.991L503.859 432.991L503.88 433.03C 505.893 431.535 506.835 429.328 506.011 427.682C 505.148 425.958 502.632 425.418 500.112 426.295z" stroke="#000000" stroke-width="0.152" fill="none" /><path id="358" transform="matrix(1 0 0 -1 0 834)" d="M451.505 400.631L440.485 399.551" stroke="#000000" stroke-width="0.762" fill="none" /><path id="359" transform="matrix(1 0 0 -1 0 834)" d="M450.302 401.931L451.036 400.585L450.577 399.122L453.769 400.853z" stroke="none" fill="#000000" fill-rule="nonzero" /><path id="360" transform="matrix(1 0 0 -1 0 834)" d="M441.412 401.059L440.953 399.596L441.687 398.25L438.22 399.328z" stroke="none" fill="#000000" fill-rule="nonzero" /></g><g clip-path="url(#23)"></g><g clip-path="url(#24)"><g transform="matrix(1.009709 0 0 1.005772 275.7 387.8446)"><g transform="matrix(1 0 0 1 0 0)"><image x="0" y="0" xlink:href="img_05.png" width="77" height="99" /></g></g></g><g transform="matrix(1.004981 0 0 1.005772 373.168 387.8446)"><g transform="matrix(1 0 0 1 0 0)"><image x="0" y="0" xlink:href="img_06.png" width="83" height="99" /></g></g><g transform="matrix(1.004981 0 0 1.000196 452.175 380.399)"><g transform="matrix(1 0 0 1 0 0)"><image x="0" y="0" xlink:href="img_07.png" width="83" height="107" /></g></g><g clip-path="url(#25)"><path id="364" transform="matrix(1 0 0 -1 0 834)" d="M307.805 371.816C 307.805 357.881 296.508 346.584 282.573 346.584C 268.638 346.584 257.341 357.881 257.341 371.816C 257.341 385.751 268.638 397.048 282.573 397.048C 296.508 397.048 307.805 385.751 307.805 371.816" stroke="none" fill="#FFFFFF" fill-rule="nonzero" /></g><g clip-path="url(#26)"></g><g clip-path="url(#27)"><g transform="matrix(1.005101 0 0 1.004326 234.167 403.4843)"><g transform="matrix(1 0 0 1 0 0)"><image x="0" y="0" xlink:href="img_08.png" width="71" height="91" /></g></g></g><g clip-path="url(#28)"><path id="366" transform="matrix(1 0 0 -1 0 834)" d="M307.805 371.816C 307.805 357.881 296.508 346.584 282.573 346.584C 268.638 346.584 257.341 357.881 257.341 371.816C 257.341 385.751 268.638 397.048 282.573 397.048C 296.508 397.048 307.805 385.751 307.805 371.816z" stroke="#000000" stroke-width="0.762" fill="none" /><path id="367" transform="matrix(1 0 0 -1 0 834)" d="M407.743 371.711C 407.743 357.718 396.399 346.374 382.406 346.374C 368.413 346.374 357.069 357.718 357.069 371.711C 357.069 385.704 368.413 397.048 382.406 397.048C 396.399 397.048 407.743 385.704 407.743 371.711" stroke="none" fill="#FFFFFF" fill-rule="nonzero" /></g><g clip-path="url(#29)"></g><g clip-path="url(#30)"><g transform="matrix(0.9991487 0 0 0.9985349 332.475 411.905)"><g transform="matrix(1 0 0 1 0 0)"><image x="0" y="0" xlink:href="img_09.png" width="72" height="86" /></g></g></g><g clip-path="url(#31)"><path id="369" transform="matrix(1 0 0 -1 0 834)" d="M407.743 371.711C 407.743 357.718 396.399 346.374 382.406 346.374C 368.413 346.374 357.069 357.718 357.069 371.711C 357.069 385.704 368.413 397.048 382.406 397.048C 396.399 397.048 407.743 385.704 407.743 371.711z" stroke="#000000" stroke-width="0.762" fill="none" /><path id="370" transform="matrix(1 0 0 -1 0 834)" d="M532.064 371.311C 532.064 357.472 520.845 346.253 507.006 346.253C 493.166 346.253 481.947 357.472 481.947 371.311C 481.947 385.15 493.166 396.369 507.006 396.369C 520.845 396.369 532.064 385.15 532.064 371.311" stroke="none" fill="#FFFFFF" fill-rule="nonzero" /></g><g clip-path="url(#32)"></g><g clip-path="url(#33)"><g transform="matrix(1.002332 0 0 1.004697 481.947 440.1184)"><g transform="matrix(1 0 0 1 0 0)"><image x="0" y="0" xlink:href="img_10.png" width="50" height="64" /></g></g></g><g clip-path="url(#34)"><path id="372" transform="matrix(1 0 0 -1 0 834)" d="M532.064 371.311C 532.064 357.472 520.845 346.253 507.006 346.253C 493.166 346.253 481.947 357.472 481.947 371.311C 481.947 385.15 493.166 396.369 507.006 396.369C 520.845 396.369 532.064 385.15 532.064 371.311z" stroke="#000000" stroke-width="0.762" fill="none" /><path id="373" transform="matrix(1 0 0 -1 0 834)" d="M340.383 375.205C 340.383 375.205 335.348 366.782 330.904 370.441" stroke="#000000" stroke-width="0.762" fill="none" /></g><path id="374" transform="matrix(1 0 0 -1 0 834)" d="M332.719 370.641L331.27 370.139L330.626 368.747L329.428 372.174z" stroke="none" fill="#000000" fill-rule="nonzero" /><path id="375" transform="matrix(1 0 0 -1 0 834)" d="M431.198 390.994L420.178 389.914" stroke="#F6F6F6" stroke-width="0.762" fill="none" /><path id="376" transform="matrix(1 0 0 -1 0 834)" d="M429.995 392.294L430.729 390.948L430.27 389.485L433.462 391.216z" stroke="none" fill="#F6F6F6" fill-rule="nonzero" /><path id="377" transform="matrix(1 0 0 -1 0 834)" d="M421.105 391.423L420.646 389.96L421.38 388.614L417.913 389.692z" stroke="none" fill="#F6F6F6" fill-rule="nonzero" /><g clip-path="url(#35)"><path id="378" transform="matrix(1 0 0 -1 0 834)" d="M497.181 441.134C 497.181 443.23 495.059 444.989 492.224 445.438L492.224 445.438L492.224 445.446C 492.223 445.446 492.222 445.447 492.221 445.447L492.221 445.447L492.722 446.155L492.722 446.155L490.214 445.53C 486.967 445.325 484.415 443.432 484.415 441.134C 484.415 438.952 486.717 437.135 489.73 436.782L489.73 436.782L489.748 436.68C 489.749 436.68 489.75 436.68 489.751 436.68L489.751 436.68L489.402 435.93L489.402 435.93L491.657 436.76C 494.772 437.052 497.181 438.902 497.181 441.134M491.855 437.253L489.151 437.85L489.151 437.85L489.599 437.273C 487.024 437.655 485.087 439.241 485.087 441.134C 485.087 443.153 487.288 444.822 490.116 445.056L490.116 445.056L492.573 444.229L492.573 444.229L492.212 444.916C 492.214 444.916 492.216 444.915 492.217 444.915L492.217 444.915L492.207 444.918L492.207 444.918L492.209 444.962C 494.678 444.526 496.509 442.976 496.509 441.134C 496.509 439.206 494.501 437.597 491.855 437.253" stroke="none" fill="#FFFFFF" fill-rule="nonzero" /><path id="379" transform="matrix(1 0 0 -1 0 834)" d="M497.181 441.134C 497.181 443.23 495.059 444.989 492.224 445.438L492.224 445.438L492.224 445.446C 492.223 445.446 492.222 445.447 492.221 445.447L492.221 445.447L492.722 446.155L492.722 446.155L490.214 445.53C 486.967 445.325 484.415 443.432 484.415 441.134C 484.415 438.952 486.717 437.135 489.73 436.782L489.73 436.782L489.748 436.68C 489.749 436.68 489.75 436.68 489.751 436.68L489.751 436.68L489.402 435.93L489.402 435.93L491.657 436.76C 494.772 437.052 497.181 438.902 497.181 441.134zM491.855 437.253L489.151 437.85L489.151 437.85L489.599 437.273C 487.024 437.655 485.087 439.241 485.087 441.134C 485.087 443.153 487.288 444.822 490.116 445.056L490.116 445.056L492.573 444.229L492.573 444.229L492.212 444.916C 492.214 444.916 492.216 444.915 492.217 444.915L492.217 444.915L492.207 444.918L492.207 444.918L492.209 444.962C 494.678 444.526 496.509 442.976 496.509 441.134C 496.509 439.206 494.501 437.597 491.855 437.253z" stroke="#000000" stroke-width="0.152" fill="none" /><path id="380" transform="matrix(1 0 0 -1 0 834)" d="M295.936 408.909C 293.711 408.909 291.908 407.106 291.908 404.881C 291.908 402.656 293.711 400.852 295.936 400.852C 298.161 400.852 299.964 402.656 299.964 404.881C 299.964 407.106 298.161 408.909 295.936 408.909M295.936 401.342C 293.994 401.342 292.419 402.916 292.419 404.859C 292.419 406.801 293.994 408.375 295.936 408.375C 297.878 408.375 299.453 406.801 299.453 404.859C 299.453 402.916 297.878 401.342 295.936 401.342" stroke="none" fill="#FFFFFF" fill-rule="nonzero" /></g><g clip-path="url(#36)"><path id="382" transform="matrix(1 0 0 -1 0 834)" d="M394.601 406.638C 392.376 406.638 390.573 404.835 390.573 402.61C 390.573 400.385 392.376 398.581 394.601 398.581C 396.826 398.581 398.629 400.385 398.629 402.61C 398.629 404.835 396.826 406.638 394.601 406.638M394.601 399.071C 392.659 399.071 391.084 400.645 391.084 402.588C 391.084 404.53 392.659 406.104 394.601 406.104C 396.543 406.104 398.118 404.53 398.118 402.588C 398.118 400.645 396.543 399.071 394.601 399.071" stroke="none" fill="#FFFFFF" fill-rule="nonzero" /></g><g clip-path="url(#37)"><path id="384" transform="matrix(1 0 0 -1 0 834)" d="M471.103 395.244C 468.878 395.244 467.075 393.441 467.075 391.216C 467.075 388.991 468.878 387.187 471.103 387.187C 473.328 387.187 475.131 388.991 475.131 391.216C 475.131 393.441 473.328 395.244 471.103 395.244M471.103 387.677C 469.161 387.677 467.586 389.251 467.586 391.194C 467.586 393.136 469.161 394.71 471.103 394.71C 473.045 394.71 474.62 393.136 474.62 391.194C 474.62 389.251 473.045 387.677 471.103 387.677" stroke="none" fill="#FFFFFF" fill-rule="nonzero" /></g><g clip-path="url(#38)"></g><g clip-path="url(#39)"><g transform="matrix(1.009614 0 0 0.9985386 265.881 334.0113)"><g transform="matrix(1 0 0 1 0 0)"><image x="0" y="0" xlink:href="img_11.png" width="28" height="57" /></g></g></g><g clip-path="url(#40)"></g><g clip-path="url(#41)"><g transform="matrix(1.022615 0 0 0.9966244 256.165 388.8029)"><g transform="matrix(1 0 0 1 0 0)"><image x="0" y="0" xlink:href="img_12.png" width="27" height="37" /></g></g></g><g clip-path="url(#42)"></g><g clip-path="url(#43)"><g transform="matrix(1.022426 0 0 0.9928588 360.89 391.9138)"><g transform="matrix(1 0 0 1 0 0)"><image x="0" y="0" xlink:href="img_13.png" width="27" height="34" /></g></g></g><g clip-path="url(#44)"></g><g clip-path="url(#45)"><g transform="matrix(1.00457 0 0 1.016786 440.789 387.9475)"><g transform="matrix(1 0 0 1 0 0)"><image x="0" y="0" xlink:href="img_14.png" width="37" height="35" /></g></g></g><g clip-path="url(#46)"></g><g clip-path="url(#47)"><g transform="matrix(-1.017367 0 0 0.9966244 366.683 388.8029)"><g transform="matrix(1 0 0 1 0 0)"><image x="0" y="0" xlink:href="img_15.png" width="40" height="37" /></g></g></g><g clip-path="url(#48)"></g><g clip-path="url(#49)"><g transform="matrix(-1.004519 0 0 0.9928588 454.58 391.9138)"><g transform="matrix(1 0 0 1 0 0)"><image x="0" y="0" xlink:href="img_16.png" width="37" height="34" /></g></g></g><g clip-path="url(#50)"></g><g clip-path="url(#51)"><g transform="matrix(-0.9984384 0 0 1.016786 556.413 390.0735)"><g transform="matrix(1 0 0 1 0 0)"><image x="0" y="0" xlink:href="img_17.png" width="39" height="35" /></g></g></g><g clip-path="url(#52)"></g><g clip-path="url(#53)"><g transform="matrix(1.00549 0 0 0.9984296 295.11 565.896)"><g transform="matrix(1 0 0 1 0 0)"><image x="0" y="0" xlink:href="img_18.png" width="93" height="142" /></g></g></g><g clip-path="url(#54)"></g><g clip-path="url(#55)"><g transform="matrix(1.00549 0 0 0.9984296 409.757 565.752)"><g transform="matrix(1 0 0 1 0 0)"><image x="0" y="0" xlink:href="img_19.png" width="93" height="142" /></g></g></g><g clip-path="url(#56)"><path id="988" transform="matrix(1 0 0 -1 0 834)" d="M315.889 262.942C 313.923 262.942 312.329 261.241 312.329 259.142C 312.329 257.044 313.923 255.342 315.889 255.342C 317.856 255.342 319.45 257.044 319.45 259.142C 319.45 261.241 317.856 262.942 315.889 262.942M315.889 255.804C 314.173 255.804 312.781 257.289 312.781 259.121C 312.781 260.953 314.173 262.438 315.889 262.438C 317.606 262.438 318.998 260.953 318.998 259.121C 318.998 257.289 317.606 255.804 315.889 255.804" stroke="none" fill="#000000" fill-rule="nonzero" /><path id="990" transform="matrix(1 0 0 -1 0 834)" d="M430.295 262.942C 428.329 262.942 426.735 261.241 426.735 259.142C 426.735 257.044 428.329 255.342 430.295 255.342C 432.262 255.342 433.856 257.044 433.856 259.142C 433.856 261.241 432.262 262.942 430.295 262.942M430.295 255.804C 428.579 255.804 427.187 257.289 427.187 259.121C 427.187 260.953 428.579 262.438 430.295 262.438C 432.012 262.438 433.404 260.953 433.404 259.121C 433.404 257.289 432.012 255.804 430.295 255.804" stroke="none" fill="#000000" fill-rule="nonzero" /></g><g clip-path="url(#57)"><g><g clip-path="url(#58)"><g clip-path="url(#59)"><path id="992" transform="matrix(1 0 0 -1 0 834)" d="M356.866 155.927L358.45 164.139L358.45 164.139L356.42 162.664C 353.873 172.72 348.969 180.288 345.219 184.935C 340.969 190.202 337.336 192.898 337.183 193.01L337.183 193.01L336.247 191.561C 336.387 191.458 349.938 181.31 354.791 162.35L354.791 162.35L352.459 162.869" stroke="none" fill="#FFFFFF" fill-rule="nonzero" fill-opacity="0.8" /></g></g></g></g><g clip-path="url(#60)"></g><g clip-path="url(#61)"><g transform="matrix(1.007045 0 0 1.008441 260.995 550.7924)"><g transform="matrix(1 0 0 1 0 0)"><image x="0" y="0" xlink:href="img_20.png" width="38" height="58" /></g></g></g><g clip-path="url(#62)"></g><g clip-path="url(#63)"><g transform="matrix(1.022789 0 0 0.9967948 266.21 662.0268)"><g transform="matrix(1 0 0 1 0 0)"><image x="0" y="0" xlink:href="img_21.png" width="27" height="38" /></g></g></g><g clip-path="url(#64)"></g><g clip-path="url(#65)"><g transform="matrix(-1.022789 0 0 0.9967948 533.433 662.0268)"><g transform="matrix(1 0 0 1 0 0)"><image x="0" y="0" xlink:href="img_04.png" width="27" height="38" /></g></g></g><path id="1354" transform="matrix(1 0 0 -1 0 834)" d="M633 15L633 0M633 819L633 834M21 15L21 0M21 819L21 834M639 21L654 21M15 21L0 21M639 813L654 813M15 813L0 813" stroke="#000000" stroke-width="1.25" fill="none" /><path id="1355" transform="matrix(1 0 0 -1 0 834)" d="M633 15L633 0M633 819L633 834M21 15L21 0M21 819L21 834M639 21L654 21M15 21L0 21M639 813L654 813M15 813L0 813" stroke="#000000" stroke-width="0.25" fill="none" /><path id="1356" transform="matrix(1 0 0 -1 0 834)" d="M32.2781 9.28203C 32.2781 9.516021 32.2961 9.58203 32.3559 9.62383C 32.416 9.66602 32.5719 9.69609 32.8238 9.69609C 33.2262 9.69609 33.5738 9.62383 33.8441 9.45C 34.3238 9.167971 34.552 8.63398 34.552 8.016021C 34.552 7.05586 34.0359 6.21602 32.9141 6.21602C 32.4762 6.21602 32.2781 6.33008 32.2781 6.78594zM31.252 9.900001L31.252 9.726171C 31.7141 9.68984 31.7621 9.66602 31.7621 9.150001L31.7621 9.150001L31.7621 6.74414C 31.7621 6.23398 31.7141 6.19805 31.198 6.16211L31.198 6.16211L31.198 6L31.198 6L32.6199 6C 33.3578 6 33.952 6.15 34.402 6.49805C 34.8641 6.84609 35.1398 7.38008 35.1398 8.1C 35.1398 8.664061 34.9301 9.101951 34.6359 9.38984C 34.2641 9.74414 33.7 9.900001 32.9379 9.900001z" stroke="#000000" stroke-width="0.4" fill="none" /><path id="1357" transform="matrix(1 0 0 -1 0 834)" d="M38.3801 6.97813C 38.2898 6.70195 38.1758 6.51016 38.0738 6.38984C 37.9359 6.23398 37.732 6.20391 37.402 6.20391C 37.15 6.20391 36.9461 6.21602 36.8258 6.28203C 36.718 6.34219 36.6879 6.46211 36.6879 6.78594L36.6879 6.78594L36.6879 9.15586C 36.6879 9.66602 36.7418 9.69609 37.216 9.73203L37.216 9.73203L37.216 9.900001L37.216 9.900001L35.65 9.900001L35.65 9.900001L35.65 9.73203C 36.1359 9.69609 36.1777 9.66602 36.1777 9.15586L36.1777 9.15586L36.1777 6.75586C 36.1777 6.24609 36.1301 6.20391 35.6258 6.16797L35.6258 6.16797L35.6258 6L35.6258 6L38.3438 6C 38.398 6.18594 38.5238 6.75586 38.5598 6.94219z" stroke="#000000" stroke-width="0.4" fill="none" /><path id="1358" transform="matrix(1 0 0 -1 0 834)" d="M41.0918 9.023829C 41.0438 9.40195 41.0141 9.63594 40.9898 9.851951C 40.7617 9.92383 40.5098 9.989841 40.234 9.989841C 39.4598 9.989841 38.998 9.49805 38.998 8.921881C 38.998 8.24414 39.6039 7.94414 39.9879 7.73984C 40.4379 7.5 40.768 7.28984 40.768 6.84609C 40.768 6.40781 40.498 6.12617 40.048 6.12617C 39.4301 6.12617 39.1598 6.73203 39.0641 7.09805L39.0641 7.09805L38.8898 7.05586C 38.9258 6.767971 39.0039 6.25195 39.052 6.12617C 39.1059 6.09609 39.1961 6.05391 39.3461 6C 39.4961 5.95781 39.6879 5.91016 39.934 5.91016C 40.732 5.91016 41.266 6.41406 41.266 7.04414C 41.266 7.71602 40.6961 7.99805 40.2277 8.23789C 39.7539 8.48398 39.466 8.68789 39.466 9.12617C 39.466 9.45 39.6699 9.78594 40.132 9.78594C 40.6539 9.78594 40.8098 9.371881 40.918 8.98789z" stroke="#000000" stroke-width="0.4" fill="none" /><path id="1359" transform="matrix(1 0 0 -1 0 834)" d="M46.648 6L46.648 6.16797C 46.1258 6.21602 46.1078 6.24609 46.0898 6.88203L46.0898 6.88203L46.0301 9.05391C 46.0117 9.671881 46.0539 9.68398 46.582 9.73203L46.582 9.73203L46.582 9.900001L46.582 9.900001L45.5617 9.900001L45.5617 9.900001L44.1758 6.9L44.1758 6.9L42.8078 9.900001L42.8078 9.900001L41.8238 9.900001L41.8238 9.900001L41.8238 9.73203C 42.3699 9.67813 42.4 9.653911 42.3461 8.87383L42.3461 8.87383L42.2617 7.626171C 42.2141 7.00195 42.1777 6.73789 42.148 6.528131C 42.1059 6.27617 41.9859 6.21016 41.6379 6.16797L41.6379 6.16797L41.6379 6L41.6379 6L43.0359 6L43.0359 6L43.0359 6.16797C 42.6398 6.21016 42.4961 6.25195 42.484 6.53984C 42.4777 6.78008 42.4777 7.04414 42.502 7.53594L42.502 7.53594L42.5918 9.24609L42.5918 9.24609L42.6039 9.24609L42.6039 9.24609L43.948 6.04219L43.948 6.04219L44.068 6.04219L44.068 6.04219L45.532 9.33008L45.532 9.33008L45.5559 9.33008L45.5559 9.33008L45.5738 6.88203C 45.5801 6.24609 45.5559 6.21602 45.0699 6.16797L45.0699 6.16797L45.0699 6z" stroke="#000000" stroke-width="0.4" fill="none" /><path id="1360" transform="matrix(1 0 0 -1 0 834)" d="M51.8738 7.05586C 51.5738 6.45586 51.2496 6.12617 50.6379 6.12617C 49.7258 6.12617 49.0656 6.89414 49.0656 8.016021C 49.0656 8.92813 49.5996 9.773829 50.602 9.773829C 51.2496 9.773829 51.6098 9.516021 51.7656 8.88008L51.7656 8.88008L51.9457 8.921881C 51.9098 9.24609 51.8738 9.48594 51.8258 9.828131C 51.6578 9.85781 51.2496 9.989841 50.7637 9.989841C 49.4258 9.989841 48.4539 9.15586 48.4539 7.89609C 48.4539 6.94219 49.1078 5.91016 50.602 5.91016C 51.034 5.91016 51.5379 6.03008 51.7059 6.07188C 51.8137 6.26992 51.9637 6.71406 52.0477 6.98984z" stroke="#000000" stroke-width="0.4" fill="none" /><path id="1361" transform="matrix(1 0 0 -1 0 834)" d="M54.3398 9.773829C 55.1258 9.773829 55.7855 9.101951 55.7855 7.83594C 55.7855 6.68398 55.1855 6.12617 54.5195 6.12617C 53.6738 6.12617 53.0559 6.94805 53.0559 8.076171C 53.0559 9.19805 53.6676 9.773829 54.3398 9.773829zM54.4598 9.989841C 53.1996 9.989841 52.4438 8.98789 52.4438 7.90781C 52.4438 6.75586 53.3078 5.91016 54.3938 5.91016C 55.4918 5.91016 56.3977 6.70195 56.3977 7.99805C 56.3977 9.19805 55.4797 9.989841 54.4598 9.989841z" stroke="#000000" stroke-width="0.4" fill="none" /><path id="1362" transform="matrix(1 0 0 -1 0 834)" d="M61.8277 6L61.8277 6.16797C 61.3059 6.21602 61.2879 6.24609 61.2695 6.88203L61.2695 6.88203L61.2098 9.05391C 61.1918 9.671881 61.2336 9.68398 61.7617 9.73203L61.7617 9.73203L61.7617 9.900001L61.7617 9.900001L60.7418 9.900001L60.7418 9.900001L59.3559 6.9L59.3559 6.9L57.9879 9.900001L57.9879 9.900001L57.0035 9.900001L57.0035 9.900001L57.0035 9.73203C 57.5496 9.67813 57.5797 9.653911 57.5258 8.87383L57.5258 8.87383L57.4418 7.626171C 57.3938 7.00195 57.3578 6.73789 57.3277 6.528131C 57.2855 6.27617 57.1656 6.21016 56.8176 6.16797L56.8176 6.16797L56.8176 6L56.8176 6L58.2156 6L58.2156 6L58.2156 6.16797C 57.8195 6.21016 57.6758 6.25195 57.6637 6.53984C 57.6578 6.78008 57.6578 7.04414 57.6816 7.53594L57.6816 7.53594L57.7719 9.24609L57.7719 9.24609L57.7836 9.24609L57.7836 9.24609L59.1277 6.04219L59.1277 6.04219L59.2477 6.04219L59.2477 6.04219L60.7117 9.33008L60.7117 9.33008L60.7355 9.33008L60.7355 9.33008L60.7535 6.88203C 60.7598 6.24609 60.7355 6.21602 60.2496 6.16797L60.2496 6.16797L60.2496 6z" stroke="#000000" stroke-width="0.4" fill="none" /><path id="1363" transform="matrix(1 0 0 -1 0 834)" d="M63.8258 6L63.8258 6.16797C 63.3336 6.20391 63.2855 6.23398 63.2855 6.75L63.2855 6.75L63.2855 9.150001C 63.2855 9.66016 63.3336 9.69609 63.8258 9.73203L63.8258 9.73203L63.8258 9.900001L63.8258 9.900001L62.2355 9.900001L62.2355 9.900001L62.2355 9.73203C 62.7277 9.69609 62.7758 9.66016 62.7758 9.150001L62.7758 9.150001L62.7758 6.75C 62.7758 6.23984 62.7277 6.20391 62.2355 6.16797L62.2355 6.16797L62.2355 6z" stroke="#000000" stroke-width="0.4" fill="none" /><path id="1364" transform="matrix(1 0 0 -1 0 834)" d="M66.5074 9.023829C 66.4598 9.40195 66.4297 9.63594 66.4055 9.851951C 66.1777 9.92383 65.9258 9.989841 65.6496 9.989841C 64.8758 9.989841 64.4137 9.49805 64.4137 8.921881C 64.4137 8.24414 65.0195 7.94414 65.4035 7.73984C 65.8535 7.5 66.1836 7.28984 66.1836 6.84609C 66.1836 6.40781 65.9137 6.12617 65.46371 6.12617C 64.8457 6.12617 64.5758 6.73203 64.4797 7.09805L64.4797 7.09805L64.3055 7.05586C 64.3418 6.767971 64.4195 6.25195 64.46761 6.12617C 64.52151 6.09609 64.6117 6.05391 64.7617 6C 64.91171 5.95781 65.1035 5.91016 65.3496 5.91016C 66.1477 5.91016 66.6816 6.41406 66.6816 7.04414C 66.6816 7.71602 66.1117 7.99805 65.6438 8.23789C 65.1695 8.48398 64.8816 8.68789 64.8816 9.12617C 64.8816 9.45 65.0855 9.78594 65.5477 9.78594C 66.0695 9.78594 66.2258 9.371881 66.3336 8.98789z" stroke="#000000" stroke-width="0.4" fill="none" /><path id="1365" transform="matrix(1 0 0 -1 0 834)" d="M69.4055 7.68008L68.3016 7.68008C 68.4816 8.171881 68.6734 8.69414 68.8656 9.21016L68.8656 9.21016L68.8777 9.21016zM70.9355 6L70.9355 6.16797C 70.5457 6.20391 70.46761 6.25781 70.2758 6.77383C 69.89181 7.81797 69.4895 8.95781 69.11761 9.989841L69.11761 9.989841L68.9316 9.93594L68.9316 9.93594L67.68951 6.78594C 67.4797 6.25781 67.3957 6.22188 67.0176 6.16797L67.0176 6.16797L67.0176 6L67.0176 6L68.3195 6L68.3195 6L68.3195 6.16797C 67.8695 6.21016 67.81561 6.26992 67.9477 6.64805C 68.0258 6.9 68.1156 7.15195 68.2117 7.42188L68.2117 7.42188L69.4895 7.42188C 69.62151 7.05586 69.74181 6.73203 69.8195 6.49805C 69.8977 6.26406 69.8438 6.21602 69.4656 6.16797L69.4656 6.16797L69.4656 6z" stroke="#000000" stroke-width="0.4" fill="none" /><path id="1366" transform="matrix(1 0 0 -1 0 834)" d="M71.7273 5.92813C 71.9195 5.92813 72.06371 6.06602 72.06371 6.27617C 72.06371 6.46797 71.9195 6.61797 71.7273 6.61797C 71.5355 6.61797 71.3914 6.46797 71.3914 6.27617C 71.3914 6.06602 71.5355 5.92813 71.7273 5.92813z" stroke="#000000" stroke-width="0.4" fill="none" /><path id="1367" transform="matrix(1 0 0 -1 0 834)" d="M73.9234 6L73.9234 6.15586C 73.53951 6.19219 73.4977 6.22813 73.4977 6.63594L73.4977 6.63594L73.4977 8.70586C 73.2336 8.59805 72.9516 8.51992 72.6453 8.471881L72.6453 8.471881L72.6453 8.328131C 73.0055 8.26797 73.0234 8.24414 73.0234 7.871881L73.0234 7.871881L73.0234 6.63594C 73.0234 6.22813 72.9816 6.19219 72.6035 6.15586L72.6035 6.15586L72.6035 6zM73.2215 9.216021C 73.3953 9.216021 73.52731 9.36016 73.52731 9.52188C 73.52731 9.70195 73.3953 9.83398 73.2273 9.83398C 73.06561 9.83398 72.9215 9.70195 72.9215 9.52188C 72.9215 9.36016 73.06561 9.216021 73.2215 9.216021z" stroke="#000000" stroke-width="0.4" fill="none" /><path id="1368" transform="matrix(1 0 0 -1 0 834)" d="M77.1574 6L77.1574 6.15586C 76.8094 6.19219 76.7793 6.21602 76.7793 6.62383L76.7793 6.62383L76.7793 7.78203C 76.7793 8.36406 76.4793 8.69414 76.0055 8.69414C 75.8313 8.69414 75.67541 8.621881 75.5074 8.51406C 75.3574 8.41211 75.2254 8.32188 75.1055 8.23203L75.1055 8.23203L75.1055 8.712111C 74.8414 8.59219 74.5594 8.51992 74.27151 8.466021L74.27151 8.466021L74.27151 8.328131C 74.5953 8.26797 74.6313 8.25 74.6313 7.86602L74.6313 7.86602L74.6313 6.62383C 74.6313 6.22813 74.6016 6.19805 74.19341 6.15586L74.19341 6.15586L74.19341 6L74.19341 6L75.4953 6L75.4953 6L75.4953 6.15586C 75.1414 6.19219 75.1055 6.21602 75.1055 6.62383L75.1055 6.62383L75.1055 8.03398C 75.2855 8.18984 75.5195 8.33984 75.7594 8.33984C 76.1613 8.33984 76.3055 8.069921 76.3055 7.65586L76.3055 7.65586L76.3055 6.65391C 76.3055 6.23984 76.2633 6.19219 75.9094 6.15586L75.9094 6.15586L75.9094 6z" stroke="#000000" stroke-width="0.4" fill="none" /><path id="1369" transform="matrix(1 0 0 -1 0 834)" d="M79.4734 6.51016C 79.32931 6.40195 79.1133 6.30586 78.8973 6.30586C 78.5133 6.30586 78.0754 6.65391 78.0754 7.36797C 78.0754 8.23789 78.57931 8.471881 78.8555 8.471881C 79.0832 8.471881 79.32931 8.37617 79.4734 8.16602zM80.4035 6.30586L80.2113 6.32383C 79.9895 6.34805 79.9473 6.37813 79.9473 6.68984L79.9473 6.68984L79.9473 10.2719C 79.7254 10.1941 79.3234 10.1039 79.0113 10.0621L79.0113 10.0621L79.0113 9.917971C 79.44341 9.88789 79.4734 9.869921 79.4734 9.47383L79.4734 9.47383L79.4734 8.628131C 79.3355 8.67617 79.1613 8.69414 79.0773 8.69414C 78.2613 8.69414 77.5293 8.03984 77.5293 7.20586C 77.5293 6.36602 78.1594 5.92813 78.6395 5.92813C 78.7113 5.92813 78.87341 5.96406 79.1074 6.10195L79.1074 6.10195L79.4734 6.31797L79.4734 6.31797L79.4734 5.92813C 79.8215 6.05391 80.27151 6.13203 80.4035 6.15586z" stroke="#000000" stroke-width="0.4" fill="none" /><path id="1370" transform="matrix(1 0 0 -1 0 834)" d="M81.3813 8.24414C 81.4895 8.310161 81.6813 8.35781 81.84921 8.35781C 82.34731 8.35781 82.7676 7.96211 82.7676 7.278131C 82.7676 6.58203 82.4492 6.15586 81.9516 6.15586C 81.6336 6.16211 81.4535 6.37188 81.4176 6.49219C 81.3934 6.54609 81.3813 6.60586 81.3813 6.69609zM81.3813 8.42383L81.3813 10.2719C 81.1594 10.1941 80.7934 10.098 80.5113 10.0621L80.5113 10.0621L80.5113 9.92383C 80.8953 9.88789 80.9074 9.851951 80.9074 9.48008L80.9074 9.48008L80.9074 6.14414C 81.2375 5.98789 81.5434 5.92813 81.78951 5.92813C 82.59341 5.92813 83.2953 6.55195 83.2953 7.43398C 83.2953 8.14219 82.7555 8.69414 82.1133 8.69414C 82.0473 8.69414 81.9633 8.67617 81.86761 8.63398z" stroke="#000000" stroke-width="0.4" fill="none" /><path id="1371" transform="matrix(1 0 0 -1 0 834)" d="M89.90701 6L89.90701 6.16211C 89.3613 6.20391 89.3254 6.25195 89.3254 6.68398L89.3254 6.68398L89.3254 9.810161C 88.9953 9.67813 88.641 9.56406 88.257 9.49805L88.257 9.49805L88.257 9.36016L88.257 9.36016L88.5453 9.34805C 88.8094 9.33594 88.8332 9.305861 88.8332 8.99414L88.8332 8.99414L88.8332 6.68398C 88.8332 6.25195 88.8031 6.20391 88.257 6.16211L88.257 6.16211L88.257 6z" stroke="#000000" stroke-width="0.4" fill="none" /><path id="1372" transform="matrix(1 0 0 -1 0 834)" d="M91.8512 8.02188C 92.3973 8.02188 92.6492 7.53008 92.6492 7.03203C 92.6492 6.63594 92.5051 6.13203 92.0371 6.13203C 91.5453 6.13203 91.2391 6.719921 91.2391 7.43984C 91.2391 7.59609 91.2453 7.73984 91.27541 7.85391C 91.4191 7.93203 91.623 8.02188 91.8512 8.02188zM91.30511 8.057811C 91.4852 8.89219 92.0434 9.26992 92.4094 9.44414C 92.6313 9.54609 92.8652 9.61797 93.0633 9.653911L93.0633 9.653911L93.0211 9.84609C 92.7813 9.80391 92.4934 9.73789 92.25311 9.653911C 91.6172 9.419921 90.7051 8.74219 90.7051 7.428131C 90.7051 6.50391 91.2332 5.92813 91.9352 5.92813C 92.65511 5.92813 93.1652 6.53398 93.1652 7.24805C 93.1652 7.86602 92.7273 8.35781 92.0852 8.35781C 91.9652 8.35781 91.8391 8.31602 91.707 8.25586z" stroke="#000000" stroke-width="0.4" fill="none" /><path id="1373" transform="matrix(1 0 0 -1 0 834)" d="M94.7371 9.61211C 95.3191 9.61211 95.4754 8.86797 95.4754 8.33984C 95.4754 8.21992 95.4691 8.076171 95.4512 7.94414C 95.3254 7.84805 95.1211 7.77617 94.9113 7.77617C 94.40701 7.77617 94.107 8.214061 94.107 8.74219C 94.107 9.09609 94.27541 9.61211 94.7371 9.61211zM94.8152 9.810161C 94.041 9.810161 93.591 9.10781 93.591 8.53203C 93.591 7.90195 94.0293 7.43398 94.6652 7.43398C 94.7793 7.43398 94.8934 7.45781 95.02541 7.53008L95.02541 7.53008L95.4273 7.74609C 95.2293 6.83398 94.5754 6.23398 93.7172 6.08984L93.7172 6.08984L93.74731 5.91016C 93.8973 5.91016 94.2633 5.96992 94.5871 6.10195C 95.3973 6.42617 96.00311 7.20586 96.00311 8.310161C 96.00311 9.12617 95.5652 9.810161 94.8152 9.810161z" stroke="#000000" stroke-width="0.4" fill="none" /><path id="1392" transform="matrix(1 0 0 -1 0 834)" d="M554.472 6.83984C 554.292 6.46211 554.2141 6.43789 553.89 6.43789L553.89 6.43789L552.768 6.43789L552.768 6.43789L553.6201 7.33203C 554.1721 7.91992 554.412 8.273829 554.412 8.79609C 554.412 9.42617 553.932 9.810161 553.404 9.810161C 553.056 9.810161 552.774 9.653911 552.594 9.45586L552.594 9.45586L552.252 8.96992L552.252 8.96992L552.384 8.85C 552.54 9.08398 552.792 9.40781 553.2 9.40781C 553.644 9.40781 553.908 9.11406 553.908 8.61016C 553.908 8.09414 553.53 7.60195 553.158 7.15781C 552.858 6.81016 552.522 6.46797 552.186 6.13789L552.186 6.13789L552.186 6L552.186 6L554.43 6C 554.502 6.26992 554.562 6.53398 554.64 6.78594z" stroke="#000000" stroke-width="0.4" fill="none" /><path id="1393" transform="matrix(1 0 0 -1 0 834)" d="M555.792 9.3L557.19 9.3L557.19 9.3L557.346 9.68984L557.346 9.68984L557.31 9.73789L557.31 9.73789L555.6 9.73789L555.6 9.73789L555.366 7.90781C 555.504 7.96211 555.732 8.028131 555.984 8.028131C 556.638 8.028131 556.962 7.65 556.962 7.121881C 556.962 6.67188 556.71 6.23398 556.2 6.23398C 555.834 6.23398 555.588 6.42617 555.462 6.53984C 555.402 6.58789 555.354 6.58203 555.3 6.53984C 555.234 6.48008 555.18 6.40195 555.174 6.34219C 555.162 6.26992 555.192 6.22188 555.27 6.13789C 555.36 6.05391 555.612 5.92813 555.888 5.92813C 556.206 5.93398 556.608 6.08984 556.932 6.35391C 557.298 6.65391 557.466 6.99609 557.466 7.35586C 557.466 7.84805 557.076 8.369921 556.308 8.369921C 556.146 8.369921 555.864 8.273829 555.636 8.18984z" stroke="#000000" stroke-width="0.4" fill="none" /><path id="1394" transform="matrix(1 0 0 -1 0 834)" d="M559.548 9.989841L559.212 9.989841L559.212 9.989841L557.91 5.73594L557.91 5.73594L558.246 5.73594z" stroke="#000000" stroke-width="0.4" fill="none" /><path id="1395" transform="matrix(1 0 0 -1 0 834)" d="M561.18 9.61211C 561.72 9.61211 561.8701 8.72383 561.8701 7.871881C 561.8701 7.03203 561.726 6.13203 561.186 6.13203C 560.664 6.13203 560.49 7.03789 560.49 7.87813C 560.49 8.712111 560.634 9.61211 561.18 9.61211zM561.186 9.810161C 560.286 9.810161 559.956 8.74219 559.956 7.86602C 559.956 6.91797 560.28 5.92813 561.186 5.92813C 562.086 5.92813 562.404 6.99609 562.404 7.871881C 562.404 8.79609 562.086 9.810161 561.186 9.810161z" stroke="#000000" stroke-width="0.4" fill="none" /><path id="1396" transform="matrix(1 0 0 -1 0 834)" d="M564 9.61211C 564.582 9.61211 564.738 8.86797 564.738 8.33984C 564.738 8.21992 564.732 8.076171 564.7141 7.94414C 564.588 7.84805 564.384 7.77617 564.174 7.77617C 563.67 7.77617 563.3701 8.214061 563.3701 8.74219C 563.3701 9.09609 563.538 9.61211 564 9.61211zM564.078 9.810161C 563.304 9.810161 562.854 9.10781 562.854 8.53203C 562.854 7.90195 563.292 7.43398 563.928 7.43398C 564.042 7.43398 564.156 7.45781 564.288 7.53008L564.288 7.53008L564.69 7.74609C 564.492 6.83398 563.838 6.23398 562.98 6.08984L562.98 6.08984L563.01 5.91016C 563.16 5.91016 563.526 5.96992 563.85 6.10195C 564.66 6.42617 565.2661 7.20586 565.2661 8.310161C 565.2661 9.12617 564.828 9.810161 564.078 9.810161z" stroke="#000000" stroke-width="0.4" fill="none" /><path id="1397" transform="matrix(1 0 0 -1 0 834)" d="M567.294 9.989841L566.958 9.989841L566.958 9.989841L565.656 5.73594L565.656 5.73594L565.992 5.73594z" stroke="#000000" stroke-width="0.4" fill="none" /><path id="1398" transform="matrix(1 0 0 -1 0 834)" d="M569.9641 6.83984C 569.784 6.46211 569.706 6.43789 569.382 6.43789L569.382 6.43789L568.26 6.43789L568.26 6.43789L569.112 7.33203C 569.664 7.91992 569.904 8.273829 569.904 8.79609C 569.904 9.42617 569.424 9.810161 568.896 9.810161C 568.548 9.810161 568.2661 9.653911 568.086 9.45586L568.086 9.45586L567.744 8.96992L567.744 8.96992L567.876 8.85C 568.032 9.08398 568.284 9.40781 568.692 9.40781C 569.136 9.40781 569.4 9.11406 569.4 8.61016C 569.4 8.09414 569.022 7.60195 568.65 7.15781C 568.35 6.81016 568.014 6.46797 567.678 6.13789L567.678 6.13789L567.678 6L567.678 6L569.9221 6C 569.994 6.26992 570.054 6.53398 570.132 6.78594z" stroke="#000000" stroke-width="0.4" fill="none" /><path id="1399" transform="matrix(1 0 0 -1 0 834)" d="M571.806 9.61211C 572.346 9.61211 572.496 8.72383 572.496 7.871881C 572.496 7.03203 572.352 6.13203 571.812 6.13203C 571.29 6.13203 571.116 7.03789 571.116 7.87813C 571.116 8.712111 571.26 9.61211 571.806 9.61211zM571.812 9.810161C 570.912 9.810161 570.582 8.74219 570.582 7.86602C 570.582 6.91797 570.906 5.92813 571.812 5.92813C 572.712 5.92813 573.03 6.99609 573.03 7.871881C 573.03 8.79609 572.712 9.810161 571.812 9.810161z" stroke="#000000" stroke-width="0.4" fill="none" /><path id="1400" transform="matrix(1 0 0 -1 0 834)" d="M575.556 6L575.556 6.16211C 575.01 6.20391 574.9741 6.25195 574.9741 6.68398L574.9741 6.68398L574.9741 9.810161C 574.644 9.67813 574.29 9.56406 573.906 9.49805L573.906 9.49805L573.906 9.36016L573.906 9.36016L574.194 9.34805C 574.458 9.33594 574.482 9.305861 574.482 8.99414L574.482 8.99414L574.482 6.68398C 574.482 6.25195 574.452 6.20391 573.906 6.16211L573.906 6.16211L573.906 6z" stroke="#000000" stroke-width="0.4" fill="none" /><path id="1401" transform="matrix(1 0 0 -1 0 834)" d="M578.814 9.73789L576.522 9.73789C 576.498 9.48008 576.468 9.180079 576.414 8.85L576.414 8.85L576.588 8.85C 576.732 9.24609 576.768 9.3 577.164 9.3L577.164 9.3L578.46 9.3C 577.986 8.25586 577.308 7.01406 576.678 5.99414L576.678 5.99414L576.72 5.92813L576.72 5.92813L577.164 5.98789C 577.74 7.22383 578.298 8.44805 578.862 9.66602z" stroke="#000000" stroke-width="0.4" fill="none" /><path id="1402" transform="matrix(1 0 0 -1 0 834)" d="M584.531 9.61211C 585.071 9.61211 585.221 8.72383 585.221 7.871881C 585.221 7.03203 585.077 6.13203 584.537 6.13203C 584.015 6.13203 583.841 7.03789 583.841 7.87813C 583.841 8.712111 583.985 9.61211 584.531 9.61211zM584.537 9.810161C 583.637 9.810161 583.307 8.74219 583.307 7.86602C 583.307 6.91797 583.631 5.92813 584.537 5.92813C 585.437 5.92813 585.755 6.99609 585.755 7.871881C 585.755 8.79609 585.437 9.810161 584.537 9.810161z" stroke="#000000" stroke-width="0.4" fill="none" /><path id="1403" transform="matrix(1 0 0 -1 0 834)" d="M588.449 6.83984C 588.269 6.46211 588.191 6.43789 587.867 6.43789L587.867 6.43789L586.7451 6.43789L586.7451 6.43789L587.597 7.33203C 588.149 7.91992 588.389 8.273829 588.389 8.79609C 588.389 9.42617 587.909 9.810161 587.381 9.810161C 587.033 9.810161 586.751 9.653911 586.571 9.45586L586.571 9.45586L586.229 8.96992L586.229 8.96992L586.361 8.85C 586.517 9.08398 586.769 9.40781 587.177 9.40781C 587.621 9.40781 587.885 9.11406 587.885 8.61016C 587.885 8.09414 587.507 7.60195 587.135 7.15781C 586.835 6.81016 586.499 6.46797 586.163 6.13789L586.163 6.13789L586.163 6L586.163 6L588.407 6C 588.479 6.26992 588.539 6.53398 588.617 6.78594z" stroke="#000000" stroke-width="0.4" fill="none" /><path id="1404" transform="matrix(1 0 0 -1 0 834)" d="M589.5471 5.92813C 589.739 5.92813 589.883 6.06602 589.883 6.27617C 589.883 6.46797 589.739 6.61797 589.5471 6.61797C 589.355 6.61797 589.211 6.46797 589.211 6.27617C 589.211 6.06602 589.355 5.92813 589.5471 5.92813zM589.541 8.466021C 589.3491 8.466021 589.211 8.328131 589.211 8.13008C 589.211 7.92617 589.3491 7.78203 589.541 7.78203C 589.733 7.78203 589.877 7.92617 589.877 8.13008C 589.877 8.328131 589.733 8.466021 589.541 8.466021z" stroke="#000000" stroke-width="0.4" fill="none" /><path id="1405" transform="matrix(1 0 0 -1 0 834)" d="M592.697 6.83984C 592.517 6.46211 592.439 6.43789 592.115 6.43789L592.115 6.43789L590.993 6.43789L590.993 6.43789L591.845 7.33203C 592.397 7.91992 592.637 8.273829 592.637 8.79609C 592.637 9.42617 592.157 9.810161 591.629 9.810161C 591.281 9.810161 590.999 9.653911 590.819 9.45586L590.819 9.45586L590.477 8.96992L590.477 8.96992L590.609 8.85C 590.765 9.08398 591.017 9.40781 591.425 9.40781C 591.869 9.40781 592.133 9.11406 592.133 8.61016C 592.133 8.09414 591.755 7.60195 591.383 7.15781C 591.083 6.81016 590.747 6.46797 590.411 6.13789L590.411 6.13789L590.411 6L590.411 6L592.655 6C 592.727 6.26992 592.787 6.53398 592.865 6.78594z" stroke="#000000" stroke-width="0.4" fill="none" /><path id="1406" transform="matrix(1 0 0 -1 0 834)" d="M594.479 9.61211C 595.061 9.61211 595.217 8.86797 595.217 8.33984C 595.217 8.21992 595.211 8.076171 595.1931 7.94414C 595.067 7.84805 594.863 7.77617 594.653 7.77617C 594.149 7.77617 593.8491 8.214061 593.8491 8.74219C 593.8491 9.09609 594.017 9.61211 594.479 9.61211zM594.557 9.810161C 593.783 9.810161 593.333 9.10781 593.333 8.53203C 593.333 7.90195 593.771 7.43398 594.407 7.43398C 594.521 7.43398 594.635 7.45781 594.767 7.53008L594.767 7.53008L595.169 7.74609C 594.971 6.83398 594.317 6.23398 593.459 6.08984L593.459 6.08984L593.489 5.91016C 593.639 5.91016 594.005 5.96992 594.329 6.10195C 595.139 6.42617 595.7451 7.20586 595.7451 8.310161C 595.7451 9.12617 595.307 9.810161 594.557 9.810161z" stroke="#000000" stroke-width="0.4" fill="none" /><path id="1407" transform="matrix(1 0 0 -1 0 834)" d="M596.675 5.92813C 596.867 5.92813 597.011 6.06602 597.011 6.27617C 597.011 6.46797 596.867 6.61797 596.675 6.61797C 596.483 6.61797 596.3391 6.46797 596.3391 6.27617C 596.3391 6.06602 596.483 5.92813 596.675 5.92813zM596.669 8.466021C 596.477 8.466021 596.3391 8.328131 596.3391 8.13008C 596.3391 7.92617 596.477 7.78203 596.669 7.78203C 596.861 7.78203 597.005 7.92617 597.005 8.13008C 597.005 8.328131 596.861 8.466021 596.669 8.466021z" stroke="#000000" stroke-width="0.4" fill="none" /><path id="1408" transform="matrix(1 0 0 -1 0 834)" d="M599.657 6L599.657 6.16211C 599.111 6.20391 599.075 6.25195 599.075 6.68398L599.075 6.68398L599.075 9.810161C 598.7451 9.67813 598.3911 9.56406 598.007 9.49805L598.007 9.49805L598.007 9.36016L598.007 9.36016L598.295 9.34805C 598.559 9.33594 598.583 9.305861 598.583 8.99414L598.583 8.99414L598.583 6.68398C 598.583 6.25195 598.553 6.20391 598.007 6.16211L598.007 6.16211L598.007 6z" stroke="#000000" stroke-width="0.4" fill="none" /><path id="1409" transform="matrix(1 0 0 -1 0 834)" d="M602.537 6L602.537 6.16211C 601.991 6.20391 601.955 6.25195 601.955 6.68398L601.955 6.68398L601.955 9.810161C 601.625 9.67813 601.271 9.56406 600.887 9.49805L600.887 9.49805L600.887 9.36016L600.887 9.36016L601.175 9.34805C 601.439 9.33594 601.463 9.305861 601.463 8.99414L601.463 8.99414L601.463 6.68398C 601.463 6.25195 601.433 6.20391 600.887 6.16211L600.887 6.16211L600.887 6z" stroke="#000000" stroke-width="0.4" fill="none" /><path id="1410" transform="matrix(1 0 0 -1 0 834)" d="M605.489 8.08203C 605.651 8.20195 605.897 8.33398 606.0891 8.33398C 606.527 8.33398 606.893 7.97383 606.893 7.33203C 606.893 6.65391 606.557 6.22188 606.053 6.22188C 605.8491 6.22188 605.621 6.31797 605.489 6.45586zM605.489 8.28008L605.489 8.75391C 605.207 8.63984 604.871 8.53789 604.619 8.49609L604.619 8.49609L604.619 8.351951C 604.991 8.30391 605.015 8.29219 605.015 7.90195L605.015 7.90195L605.015 5.18984C 605.015 4.79414 604.961 4.75781 604.577 4.72188L604.577 4.72188L604.577 4.56016L604.577 4.56016L605.999 4.56016L605.999 4.56016L605.999 4.72188C 605.531 4.76406 605.489 4.79414 605.489 5.25L605.489 5.25L605.489 6.03594C 605.567 5.99414 605.729 5.93398 605.903 5.92813C 606.683 6.07188 607.397 6.65391 607.397 7.56016C 607.397 8.153911 607.001 8.69414 606.335 8.69414C 606.263 8.69414 606.149 8.664061 606.041 8.60391z" stroke="#000000" stroke-width="0.4" fill="none" /><path id="1411" transform="matrix(1 0 0 -1 0 834)" d="M608.303 5.92813C 608.4951 5.92813 608.639 6.06602 608.639 6.27617C 608.639 6.46797 608.4951 6.61797 608.303 6.61797C 608.111 6.61797 607.967 6.46797 607.967 6.27617C 607.967 6.06602 608.111 5.92813 608.303 5.92813z" stroke="#000000" stroke-width="0.4" fill="none" /><path id="1412" transform="matrix(1 0 0 -1 0 834)" d="M615.125 6L615.125 6.15586C 614.783 6.19219 614.735 6.21602 614.735 6.61797L614.735 6.61797L614.735 7.77617C 614.735 8.36406 614.441 8.69414 613.973 8.69414C 613.805 8.69414 613.649 8.621881 613.523 8.53789C 613.373 8.44805 613.199 8.33398 613.025 8.20195C 612.905 8.51406 612.647 8.69414 612.359 8.69414C 612.167 8.69414 612.023 8.628131 611.867 8.53203C 611.687 8.417971 611.555 8.310161 611.429 8.226171L611.429 8.226171L611.429 8.712111C 611.165 8.59219 610.859 8.51406 610.595 8.466021L610.595 8.466021L610.595 8.328131C 610.9431 8.273829 610.961 8.24414 610.961 7.86016L610.961 7.86016L610.961 6.61797C 610.961 6.22813 610.907 6.19219 610.511 6.15586L610.511 6.15586L610.511 6L610.511 6L611.777 6L611.777 6L611.777 6.15586C 611.483 6.19219 611.435 6.22813 611.435 6.61797L611.435 6.61797L611.435 8.028131C 611.615 8.17813 611.8491 8.33984 612.0891 8.33984C 612.455 8.33984 612.611 8.09414 612.611 7.65L612.611 7.65L612.611 6.61797C 612.611 6.22188 612.557 6.19219 612.185 6.15586L612.185 6.15586L612.185 6L612.185 6L613.469 6L613.469 6L613.469 6.15586C 613.139 6.19219 613.085 6.22813 613.085 6.60586L613.085 6.60586L613.085 7.77617C 613.085 7.88984 613.079 7.95586 613.067 8.028131C 613.295 8.21992 613.523 8.33984 613.739 8.33984C 614.117 8.33984 614.267 8.069921 614.267 7.64414L614.267 7.64414L614.267 6.64219C 614.267 6.21602 614.201 6.19219 613.847 6.15586L613.847 6.15586L613.847 6z" stroke="#000000" stroke-width="0.4" fill="none" /><path id="1413" transform="matrix(1 0 0 -1 0 834)" d="M615.947 5.92813C 616.139 5.92813 616.283 6.06602 616.283 6.27617C 616.283 6.46797 616.139 6.61797 615.947 6.61797C 615.755 6.61797 615.611 6.46797 615.611 6.27617C 615.611 6.06602 615.755 5.92813 615.947 5.92813z" stroke="#000000" stroke-width="0.4" fill="none" /></g></g></svg>