<svg xmlns="http://www.w3.org/2000/svg" xmlns:xlink="http://www.w3.org/1999/xlink" id="body_1" preserveAspectRatio="xMinYMin meet" viewBox="0 0 872 1112"><defs><clipPath id="1"><path id="" clip-rule="evenodd" transform="matrix(1 0 0 1 0 0)" d="M0 834L0 0L0 0L654 0L654 0L654 834L654 834L0 834z" /></clipPath><clipPath id="2"><path id="" clip-rule="evenodd" transform="matrix(1 0 0 1 0 0)" d="M21 813L633 813L633 813L633 21L633 21L21 21z" /></clipPath><clipPath id="3"><path id="" clip-rule="evenodd" transform="matrix(1 0 0 1 0 0)" d="M137.311 264.78L348.94 264.78L348.94 264.78L348.94 131.551L348.94 131.551L137.311 131.551z" /></clipPath><clipPath id="4"><path id="" clip-rule="evenodd" transform="matrix(1 0 0 1 0 0)" d="M258.44 228.874L258.44 253.84C 267.182 260.044 282.252 264.142 299.376 264.142L299.376 264.142L299.376 264.142C 317.981 264.142 334.161 259.305 342.435 252.184L342.435 252.184L342.435 252.184L342.435 252.184L342.435 230.53C 334.161 223.41 317.981 218.573 299.376 218.573L299.376 218.573L299.376 218.573C 282.252 218.573 267.182 222.671 258.44 228.874" /></clipPath><clipPath id="5"><path id="" clip-rule="evenodd" transform="matrix(1 0 0 1 0 0)" d="M258.44 228.874L258.44 253.84C 267.182 260.044 282.252 264.142 299.376 264.142L299.376 264.142L299.376 264.142C 317.981 264.142 334.161 259.305 342.435 252.184L342.435 252.184L342.435 252.184L342.435 252.184L342.435 230.53C 334.161 223.41 317.981 218.573 299.376 218.573L299.376 218.573L299.376 218.573C 282.252 218.573 267.182 222.671 258.44 228.874" /></clipPath><clipPath id="6"><path id="" clip-rule="evenodd" transform="matrix(1 0 0 1 0 0)" d="M137.311 264.78L348.94 264.78L348.94 264.78L348.94 131.551L348.94 131.551L137.311 131.551z" /></clipPath><clipPath id="7"><path id="" clip-rule="evenodd" transform="matrix(1 0 0 1 0 0)" d="M354.851 168.625L393.119 168.625L393.119 168.625L393.119 111.7078L393.119 111.7078L354.851 111.7078z" /></clipPath><clipPath id="8"><path id="" clip-rule="evenodd" transform="matrix(1 0 0 1 0 0)" d="M354.851 168.625L393.119 168.625L393.119 168.625L393.119 111.7078L393.119 111.7078L354.851 111.7078z" /></clipPath><clipPath id="9"><path id="" clip-rule="evenodd" transform="matrix(1 0 0 1 0 0)" d="M123.047 172.512L148.6443 172.512L148.6443 172.512L148.6443 136.6538L148.6443 136.6538L123.047 136.6538z" /></clipPath><clipPath id="10"><path id="" clip-rule="evenodd" transform="matrix(1 0 0 1 0 0)" d="M123.047 172.512L148.6443 172.512L148.6443 172.512L148.6443 136.6538L148.6443 136.6538L123.047 136.6538z" /></clipPath><clipPath id="11"><path id="" clip-rule="evenodd" transform="matrix(1 0 0 1 0 0)" d="M282.354 172.512L307.9513 172.512L307.9513 172.512L307.9513 136.6538L307.9513 136.6538L282.354 136.6538z" /></clipPath><clipPath id="12"><path id="" clip-rule="evenodd" transform="matrix(1 0 0 1 0 0)" d="M282.354 172.512L307.9513 172.512L307.9513 172.512L307.9513 136.6538L307.9513 136.6538L282.354 136.6538z" /></clipPath><clipPath id="13"><path id="" clip-rule="evenodd" transform="matrix(1 0 0 1 0 0)" d="M223.205 484.539L290.3909 484.539L290.3909 484.539L290.3909 340.605L290.3909 340.605L223.205 340.605z" /></clipPath><clipPath id="14"><path id="" clip-rule="evenodd" transform="matrix(1 0 0 1 0 0)" d="M223.205 484.539L290.3909 484.539L290.3909 484.539L290.3909 340.605L290.3909 340.605L223.205 340.605z" /></clipPath><clipPath id="15"><path id="" clip-rule="evenodd" transform="matrix(1 0 0 1 0 0)" d="M223.204 485.172L333.755 485.172L333.755 485.172L333.755 340.605L333.755 340.605L223.204 340.605z" /></clipPath><clipPath id="16"><path id="" clip-rule="evenodd" transform="matrix(1 0 0 1 0 0)" d="M272.082 427.275L272.082 472.18C 278.428 479.739 287.919 484.539 298.525 484.539L298.525 484.539L298.525 484.539C 312.255 484.539 324.117 476.493 329.709 464.833L329.709 464.833L329.709 464.833L329.709 464.833L329.709 434.621C 324.117 422.962 312.255 414.916 298.525 414.916L298.525 414.916L298.525 414.916C 287.919 414.916 278.428 419.716 272.082 427.275" /></clipPath><clipPath id="17"><path id="" clip-rule="evenodd" transform="matrix(1 0 0 1 0 0)" d="M272.082 427.275L272.082 472.18C 278.428 479.739 287.919 484.539 298.525 484.539L298.525 484.539L298.525 484.539C 312.255 484.539 324.117 476.493 329.709 464.833L329.709 464.833L329.709 464.833L329.709 464.833L329.709 434.621C 324.117 422.962 312.255 414.916 298.525 414.916L298.525 414.916L298.525 414.916C 287.919 414.916 278.428 419.716 272.082 427.275" /></clipPath><clipPath id="18"><path id="" clip-rule="evenodd" transform="matrix(1 0 0 1 0 0)" d="M223.204 485.172L333.755 485.172L333.755 485.172L333.755 340.605L333.755 340.605L223.204 340.605z" /></clipPath><clipPath id="19"><path id="" clip-rule="evenodd" transform="matrix(1 0 0 1 0 0)" d="M245.963 384.366L271.122 384.366L271.122 384.366L271.122 380.3871L271.122 380.3871L245.963 380.3871z" /></clipPath><clipPath id="20"><path id="" clip-rule="evenodd" transform="matrix(1 0 0 1 0 0)" d="M245.963 384.366L271.122 384.366L271.122 384.366L271.122 380.387L271.122 380.387L245.963 380.387z" /></clipPath><clipPath id="21"><path id="" clip-rule="evenodd" transform="matrix(1 0 0 1 0 0)" d="M245.963 384.366L271.122 384.366L271.122 384.366L271.122 380.3871L271.122 380.3871L245.963 380.3871z" /></clipPath><clipPath id="22"><path id="" clip-rule="evenodd" transform="matrix(1 0 0 1 0 0)" d="M223.204 485.172L333.755 485.172L333.755 485.172L333.755 340.605L333.755 340.605L223.204 340.605z" /></clipPath><clipPath id="23"><path id="" clip-rule="evenodd" transform="matrix(1 0 0 1 0 0)" d="M354.846 384.275L390.8538 384.275L390.8538 384.275L390.8538 327.3578L390.8538 327.3578L354.846 327.3578z" /></clipPath><clipPath id="24"><path id="" clip-rule="evenodd" transform="matrix(1 0 0 1 0 0)" d="M354.846 384.275L390.8538 384.275L390.8538 384.275L390.8538 327.3578L390.8538 327.3578L354.846 327.3578z" /></clipPath><clipPath id="25"><path id="" clip-rule="evenodd" transform="matrix(1 0 0 1 0 0)" d="M177.12 412.681L202.7173 412.681L202.7173 412.681L202.7173 376.822L202.7173 376.822L177.12 376.822z" /></clipPath><clipPath id="26"><path id="" clip-rule="evenodd" transform="matrix(1 0 0 1 0 0)" d="M177.12 412.681L202.7173 412.681L202.7173 412.681L202.7173 376.822L202.7173 376.822L177.12 376.822z" /></clipPath><clipPath id="27"><path id="" clip-rule="evenodd" transform="matrix(1 0 0 1 0 0)" d="M177.12 448.539L202.7173 448.539L202.7173 448.539L202.7173 412.6808L202.7173 412.6808L177.12 412.6808z" /></clipPath><clipPath id="28"><path id="" clip-rule="evenodd" transform="matrix(1 0 0 1 0 0)" d="M177.12 448.539L202.7173 448.539L202.7173 448.539L202.7173 412.6808L202.7173 412.6808L177.12 412.6808z" /></clipPath><clipPath id="29"><path id="" clip-rule="evenodd" transform="matrix(1 0 0 1 0 0)" d="M138.964 704.145L232.598 704.145L232.598 704.145L232.598 571.043L232.598 571.043L138.964 571.043z" /></clipPath><clipPath id="30"><path id="" clip-rule="evenodd" transform="matrix(1 0 0 1 0 0)" d="M138.964 704.145L232.598 704.145L232.598 704.145L232.598 571.043L232.598 571.043L138.964 571.043z" /></clipPath><clipPath id="31"><path id="" clip-rule="evenodd" transform="matrix(1 0 0 1 0 0)" d="M236.922 704.145L366.004 704.145L366.004 704.145L366.004 571.043L366.004 571.043L236.922 571.043z" /></clipPath><clipPath id="32"><path id="" clip-rule="evenodd" transform="matrix(1 0 0 1 0 0)" d="M236.922 704.145L366.004 704.145L366.004 704.145L366.004 571.043L366.004 571.043L236.922 571.043z" /></clipPath><clipPath id="33"><path id="" clip-rule="evenodd" transform="matrix(1 0 0 1 0 0)" d="M138.964 704.145L366.004 704.145L366.004 704.145L366.004 571.043L366.004 571.043L138.964 571.043z" /></clipPath><clipPath id="34"><path id="" clip-rule="evenodd" transform="matrix(1 0 0 1 0 0)" d="M353.716 603.355L391.9832 603.355L391.9832 603.355L391.9832 546.439L391.9832 546.439L353.716 546.439z" /></clipPath><clipPath id="35"><path id="" clip-rule="evenodd" transform="matrix(1 0 0 1 0 0)" d="M353.716 603.355L391.9832 603.355L391.9832 603.355L391.9832 546.439L391.9832 546.439L353.716 546.439z" /></clipPath><clipPath id="36"><path id="" clip-rule="evenodd" transform="matrix(1 0 0 1 0 0)" d="M104.906 638.393L130.5033 638.393L130.5033 638.393L130.5033 602.5352L130.5033 602.5352L104.906 602.5352z" /></clipPath><clipPath id="37"><path id="" clip-rule="evenodd" transform="matrix(1 0 0 1 0 0)" d="M104.906 638.393L130.5033 638.393L130.5033 638.393L130.5033 602.5352L130.5033 602.5352L104.906 602.5352z" /></clipPath><clipPath id="38"><path id="" clip-rule="evenodd" transform="matrix(1 0 0 1 0 0)" d="M337.432 638.393L369.7468 638.393L369.7468 638.393L369.7468 602.5352L369.7468 602.5352L337.432 602.5352z" /></clipPath><clipPath id="39"><path id="" clip-rule="evenodd" transform="matrix(1 0 0 1 0 0)" d="M337.432 638.393L369.7468 638.393L369.7468 638.393L369.7468 602.5352L369.7468 602.5352L337.432 602.5352z" /></clipPath></defs><g transform="matrix(1.333333 0 0 1.333333 0 0)"><g clip-path="url(#1)"><g clip-path="url(#2)"><path id="1" transform="matrix(1 0 0 -1 0 834)" d="M91.866 67.4211L562.134 67.4211L562.134 74.92501L91.866 74.92501z" stroke="none" fill="#686868" fill-rule="nonzero" /><path id="2" transform="matrix(1 0 0 -1 0 834)" d="M91.866 526.984L562.134 526.984" stroke="#686868" stroke-width="1" fill="none" /><path id="3" transform="matrix(1 0 0 -1 0 834)" d="M91.866 307.016L562.134 307.016" stroke="#686868" stroke-width="1" fill="none" /></g><g transform="matrix(1.000323 0 0 0.9982197 146.964 131.551)"><g transform="matrix(1 0 0 1 0 0)"><image x="0" y="0" xlink:href="img_01.png" width="136" height="132" /></g></g><g clip-path="url(#3)"><path id="8" transform="matrix(1 0 0 -1 0 834)" d="M143.449 619.912C 143.903 620.588 144.302 621.508 144.62 622.607C 144.62 622.609 144.621 622.611 144.621 622.613C 144.644 622.6931 144.667 622.774 144.689 622.856C 144.695 622.876 144.7 622.895 144.705 622.915C 144.722 622.979 144.739 623.043 144.756 623.109C 144.766 623.148 144.776 623.188 144.786 623.228C 144.797 623.273 144.808 623.319 144.819 623.365C 144.834 623.427 144.849 623.49 144.864 623.554C 144.869 623.577 144.874 623.6 144.88 623.623C 145.242 625.231 145.443 627.102 145.443 629.055C 145.443 633.027 144.593 636.699 143.275 638.442C 143.542 638.71 143.821 638.932 144.11 639.101C 145.645 637.848 146.769 633.912 146.769 629.261C 146.769 624.61 145.645 620.674 144.11 619.421C 143.882 619.555 143.661 619.72 143.449 619.912" stroke="none" fill="#060606" fill-rule="nonzero" /><path id="9" transform="matrix(1 0 0 -1 0 834)" d="M141.179 634.627C 141.328 635.107 141.498 635.562 141.686 635.987C 141.499 635.561 141.33 635.104 141.18 634.622" stroke="none" fill="#060606" fill-rule="nonzero" /><path id="10" transform="matrix(1 0 0 -1 0 834)" d="M141.866 639C 141.95 639.078 142.036 639.148 142.122 639.209L142.122 639.209L142.122 639.208C 142.408 639.408 142.749 639.515 143.045 639.519C 143.333 639.515 143.622 639.415 143.905 639.22C 142.733 638.482 141.742 637.001 141.085 635.01L141.085 635.01L140.718 636.506L140.718 636.506L140.096 635.51C 140.544 637.1 141.157 638.327 141.866 639" stroke="none" fill="#060606" fill-rule="nonzero" /><path id="11" transform="matrix(1 0 0 -1 0 834)" d="M139.923 634.843L140.635 635.983L140.635 635.983L141.064 634.232L141.064 634.232L141.933 630.688L141.933 630.688L140.347 631.6201L140.347 631.6201L140.32 631.366L140.32 631.366L140.322 631.365C 140.25 630.676 140.213 629.969 140.213 629.262C 140.213 624.738 141.724 620.682 143.906 619.303C 143.621 619.107 143.33 619.007 143.041 619.003C 142.869 619.006 142.697 619.042 142.528 619.112C 142.034 619.317 141.445 619.828 140.907 620.78C 140.108 622.334 139.54 624.706 139.367 627.446C 139.337 628.015 139.32 628.6201 139.32 629.262C 139.32 630.052 139.353 630.84 139.418 631.603L139.418 631.603L139.414 631.603L139.414 631.603L139.421 631.778L139.421 631.778L137.757 631.369L137.757 631.369L139.922 634.838C 139.922 634.8391 139.923 634.841 139.923 634.843" stroke="none" fill="#060606" fill-rule="nonzero" /><path id="12" transform="matrix(1 0 0 -1 0 834)" d="M146.718 625.529C 146.288 622.458 145.337 620.088 144.159 619.217C 145.335 620.136 146.283 622.4951 146.718 625.529" stroke="none" fill="#060606" fill-rule="nonzero" /><path id="13" transform="matrix(1 0 0 -1 0 834)" d="M139.202 631.4641C 139.144 630.744 139.114 630.004 139.114 629.261C 139.114 623.49 140.869 618.795 143.026 618.795C 143.032 618.795 143.039 618.796 143.046 618.796C 143.052 618.796 143.058 618.795 143.064 618.795C 143.094 618.795 143.124 618.8 143.154 618.801C 143.161 618.802 143.167 618.802 143.173 618.803C 143.515 618.828 143.845 618.971 144.159 619.217C 145.335 620.136 146.284 622.494 146.718 625.528C 146.884 626.688 146.976 627.946 146.976 629.26C 146.976 634.933 145.28 639.563 143.173 639.718C 143.167 639.719 143.161 639.719 143.155 639.72C 143.125 639.722 143.094 639.726 143.064 639.726C 143.059 639.726 143.055 639.725 143.05 639.725C 143.042 639.725 143.034 639.726 143.026 639.726C 142.72 639.726 142.418 639.618 142.124 639.424C 142.101 639.409 142.077 639.398 142.054 639.382L142.054 639.382L142.055 639.38C 141.115 638.709 140.278 637.098 139.735 634.93L139.735 634.93L137.311 631.046M139.923 634.842L140.634 635.982L140.634 635.982L141.064 634.231L141.064 634.231L141.064 634.231L141.064 634.231L141.933 630.687L141.933 630.687L140.347 631.619L140.347 631.619L140.32 631.365L140.32 631.365L140.321 631.364C 140.25 630.675 140.212 629.969 140.212 629.261C 140.212 624.737 141.724 620.681 143.905 619.303C 143.62 619.106 143.33 619.006 143.04 619.002C 142.869 619.006 142.697 619.042 142.528 619.111C 142.034 619.316 141.444 619.827 140.906 620.779C 140.175 622.073 139.539 624.18 139.366 627.445C 139.336 628.014 139.32 628.619 139.32 629.261C 139.32 630.051 139.353 630.8391 139.418 631.602L139.418 631.602L139.414 631.602L139.414 631.602L139.42 631.777L139.42 631.777L137.757 631.368L137.757 631.368L137.754 631.368zM145.238 629.055C 145.238 625.305 144.494 621.871 143.296 620.056C 141.566 621.761 140.418 625.326 140.418 629.261C 140.418 629.931 140.453 630.5991 140.517 631.253L140.517 631.253L142.248 630.2661L142.248 630.2661L141.264 634.28L141.264 634.28L141.18 634.621L141.18 634.621L141.179 634.627C 141.328 635.106 141.498 635.561 141.685 635.986C 142.093 636.912 142.584 637.698 143.13 638.289C 144.412 636.57 145.238 632.9641 145.238 629.055M141.866 638.999C 141.951 639.077 142.036 639.147 142.123 639.208C 142.408 639.407 142.749 639.514 143.045 639.518C 143.333 639.514 143.622 639.414 143.905 639.219C 142.733 638.481 141.743 637 141.085 635.009L141.085 635.009L140.718 636.505L140.718 636.505L140.096 635.509L140.096 635.509L140.093 635.504C 140.553 637.152 141.172 638.359 141.866 638.999M144.11 619.42C 143.882 619.554 143.662 619.719 143.449 619.911C 143.449 619.912 143.449 619.912 143.449 619.912C 143.91 620.601 144.306 621.523 144.62 622.607C 144.62 622.609 144.621 622.61 144.622 622.612C 144.645 622.692 144.667 622.774 144.69 622.856C 144.695 622.875 144.7 622.895 144.706 622.914C 144.723 622.978 144.74 623.043 144.756 623.108C 144.766 623.148 144.776 623.187 144.786 623.227C 144.798 623.273 144.809 623.3181 144.82 623.364C 144.835 623.427 144.85 623.49 144.864 623.553C 144.869 623.576 144.875 623.6 144.88 623.623C 145.242 625.231 145.443 627.101 145.443 629.055C 145.443 633.026 144.593 636.699 143.275 638.441C 143.542 638.709 143.822 638.931 144.11 639.101C 145.645 637.848 146.77 633.912 146.77 629.26C 146.77 624.609 145.645 620.673 144.11 619.42" stroke="none" fill="#FFFFFF" fill-rule="nonzero" /><path id="14" transform="matrix(1 0 0 -1 0 834)" d="M286.981 617.146C 286.527 617.822 286.128 618.742 285.81 619.841C 285.81 619.843 285.809 619.845 285.809 619.847C 285.786 619.927 285.763 620.008 285.74 620.09C 285.735 620.11 285.73 620.129 285.725 620.149C 285.708 620.213 285.691 620.277 285.674 620.343C 285.664 620.382 285.654 620.4221 285.644 620.462C 285.633 620.507 285.622 620.553 285.611 620.5991C 285.596 620.661 285.581 620.7241 285.566 620.788C 285.561 620.811 285.556 620.834 285.55 620.857C 285.188 622.465 284.987 624.336 284.987 626.289C 284.987 630.261 285.837 633.933 287.155 635.676C 286.888 635.944 286.609 636.166 286.32 636.335C 284.785 635.082 283.661 631.146 283.661 626.4951C 283.661 621.844 284.785 617.908 286.32 616.655C 286.548 616.789 286.769 616.954 286.981 617.146" stroke="none" fill="#060606" fill-rule="nonzero" /><path id="15" transform="matrix(1 0 0 -1 0 834)" d="M289.251 631.861C 289.101 632.341 288.932 632.796 288.744 633.221C 288.931 632.795 289.1 632.338 289.25 631.856" stroke="none" fill="#060606" fill-rule="nonzero" /><path id="16" transform="matrix(1 0 0 -1 0 834)" d="M288.564 636.234C 288.48 636.312 288.394 636.382 288.308 636.4431L288.308 636.4431L288.308 636.442C 288.022 636.642 287.681 636.749 287.385 636.753C 287.097 636.749 286.808 636.649 286.525 636.454C 287.697 635.716 288.688 634.235 289.345 632.243L289.345 632.243L289.712 633.74L289.712 633.74L290.334 632.744C 289.886 634.334 289.273 635.561 288.564 636.234" stroke="none" fill="#060606" fill-rule="nonzero" /><path id="17" transform="matrix(1 0 0 -1 0 834)" d="M290.508 632.077L289.796 633.217L289.796 633.217L289.367 631.466L289.367 631.466L288.498 627.9221L288.498 627.9221L290.084 628.854L290.084 628.854L290.111 628.6L290.111 628.6L290.109 628.5991C 290.181 627.91 290.218 627.203 290.218 626.496C 290.218 621.972 288.707 617.916 286.525 616.537C 286.81 616.341 287.101 616.241 287.39 616.237C 287.562 616.24 287.734 616.276 287.903 616.346C 288.397 616.551 288.986 617.062 289.524 618.014C 290.323 619.5681 290.891 621.94 291.064 624.68C 291.094 625.249 291.111 625.854 291.111 626.496C 291.111 627.286 291.078 628.074 291.013 628.836L291.013 628.836L291.017 628.837L291.017 628.837L291.01 629.012L291.01 629.012L292.674 628.603L292.674 628.603L290.509 632.071C 290.509 632.073 290.508 632.075 290.508 632.077" stroke="none" fill="#060606" fill-rule="nonzero" /><path id="18" transform="matrix(1 0 0 -1 0 834)" d="M283.712 622.763C 284.142 619.692 285.093 617.323 286.271 616.451C 285.095 617.3701 284.147 619.729 283.712 622.763" stroke="none" fill="#060606" fill-rule="nonzero" /><path id="19" transform="matrix(1 0 0 -1 0 834)" d="M293.12 628.28L290.696 632.165C 290.153 634.333 289.315 635.9431 288.376 636.615L288.376 636.615L288.377 636.616C 288.353 636.632 288.33 636.644 288.306 636.659C 288.013 636.853 287.711 636.96 287.405 636.96C 287.397 636.96 287.389 636.959 287.38 636.959C 287.376 636.959 287.371 636.96 287.367 636.96C 287.336 636.96 287.306 636.956 287.276 636.954C 287.27 636.954 287.264 636.953 287.257 636.953C 285.151 636.7971 283.455 632.168 283.455 626.4951C 283.455 625.181 283.546 623.923 283.712 622.763C 284.147 619.728 285.096 617.3701 286.272 616.451C 286.586 616.206 286.916 616.063 287.257 616.037C 287.264 616.037 287.27 616.037 287.276 616.036C 287.306 616.034 287.336 616.03 287.367 616.03C 287.373 616.03 287.379 616.031 287.385 616.031C 287.392 616.031 287.398 616.03 287.405 616.03C 289.562 616.03 291.317 620.7241 291.317 626.4951C 291.317 627.239 291.286 627.979 291.229 628.699M292.676 628.602L292.674 628.603L292.674 628.603L291.01 629.012L291.01 629.012L291.017 628.837L291.017 628.837L291.013 628.836C 291.078 628.073 291.111 627.286 291.111 626.4951C 291.111 625.853 291.094 625.249 291.064 624.679C 290.891 621.415 290.255 619.307 289.524 618.014C 288.986 617.062 288.397 616.551 287.903 616.346C 287.734 616.276 287.562 616.24 287.391 616.237C 287.101 616.24 286.81 616.34 286.525 616.537C 288.707 617.916 290.218 621.971 290.218 626.4951C 290.218 627.203 290.181 627.91 290.109 628.5991L290.109 628.5991L290.111 628.6L290.111 628.6L290.084 628.854L290.084 628.854L288.498 627.9221L288.498 627.9221L289.367 631.466L289.367 631.466L289.796 633.217L289.796 633.217L290.508 632.077zM287.3 635.524C 287.847 634.932 288.338 634.147 288.745 633.221C 288.933 632.796 289.102 632.341 289.252 631.861L289.252 631.861L289.25 631.856L289.25 631.856L289.167 631.515L289.167 631.515L288.183 627.501L288.183 627.501L289.913 628.487C 289.978 627.834 290.013 627.165 290.013 626.4951C 290.013 622.561 288.865 618.9951 287.135 617.29C 285.936 619.106 285.193 622.54 285.193 626.289C 285.193 630.199 286.019 633.805 287.3 635.524M290.338 632.739L290.334 632.744L290.334 632.744L289.713 633.74L289.713 633.74L289.345 632.243C 288.688 634.235 287.698 635.715 286.526 636.453C 286.809 636.649 287.097 636.749 287.386 636.753C 287.682 636.749 288.023 636.642 288.308 636.442C 288.395 636.381 288.48 636.311 288.565 636.234C 289.259 635.594 289.878 634.387 290.338 632.739M283.661 626.4951C 283.661 631.146 284.785 635.082 286.321 636.336C 286.609 636.165 286.888 635.9431 287.156 635.676C 285.838 633.933 284.987 630.261 284.987 626.289C 284.987 624.336 285.189 622.465 285.551 620.857C 285.556 620.834 285.561 620.811 285.567 620.788C 285.581 620.7241 285.596 620.661 285.611 620.5991C 285.622 620.553 285.633 620.507 285.644 620.462C 285.654 620.4221 285.664 620.382 285.674 620.343C 285.691 620.278 285.708 620.213 285.725 620.149C 285.73 620.129 285.736 620.11 285.741 620.09C 285.763 620.008 285.786 619.927 285.809 619.847C 285.81 619.845 285.81 619.843 285.811 619.841C 286.125 618.758 286.521 617.836 286.982 617.147C 286.982 617.146 286.982 617.146 286.981 617.146C 286.769 616.954 286.549 616.789 286.321 616.654C 284.785 617.908 283.661 621.844 283.661 626.4951" stroke="none" fill="#FFFFFF" fill-rule="nonzero" /><path id="20" transform="matrix(1 0 0 -1 0 834)" d="M348.302 592.643C 348.302 580.06 326.397 569.859 299.376 569.859C 272.355 569.859 250.45 580.06 250.45 592.643C 250.45 605.226 272.355 615.427 299.376 615.427C 326.397 615.427 348.302 605.226 348.302 592.643" stroke="none" fill="#FFFFFF" fill-rule="nonzero" /></g><g clip-path="url(#4)"></g><g clip-path="url(#5)"><g transform="matrix(0.9999393 0 0 1.00316 258.44 190.97)"><g transform="matrix(1 0 0 1 0 0)"><image x="0" y="0" xlink:href="img_02.png" width="84" height="94" /></g></g></g><g clip-path="url(#6)"><path id="22" transform="matrix(1 0 0 -1 0 834)" d="M348.302 592.643C 348.302 580.06 326.397 569.859 299.376 569.859C 272.355 569.859 250.45 580.06 250.45 592.643C 250.45 605.226 272.355 615.427 299.376 615.427C 326.397 615.427 348.302 605.226 348.302 592.643z" stroke="#000000" stroke-width="0.7090001" fill="none" /></g><g clip-path="url(#7)"></g><g clip-path="url(#8)"><g transform="matrix(1.007045 0 0 1.008441 354.851 110.9224)"><g transform="matrix(1 0 0 1 0 0)"><image x="0" y="0" xlink:href="img_03.png" width="38" height="58" /></g></g></g><g clip-path="url(#9)"></g><g clip-path="url(#10)"><g transform="matrix(1.022789 0 0 0.9967948 122.04 135.6398)"><g transform="matrix(1 0 0 1 0 0)"><image x="0" y="0" xlink:href="img_04.png" width="27" height="38" /></g></g></g><g clip-path="url(#11)"></g><g clip-path="url(#12)"><g transform="matrix(-1.022789 0 0 0.9967948 308.958 135.6398)"><g transform="matrix(1 0 0 1 0 0)"><image x="0" y="0" xlink:href="img_04.png" width="27" height="38" /></g></g></g><g clip-path="url(#13)"></g><g clip-path="url(#14)"><g transform="matrix(1.002773 0 0 0.9995417 223.205 340.605)"><g transform="matrix(1 0 0 1 0 0)"><image x="0" y="0" xlink:href="img_05.png" width="67" height="144" /></g></g></g><g clip-path="url(#15)"><path id="419" transform="matrix(1 0 0 -1 0 834)" d="M333.126 384.272C 333.126 365.046 317.634 349.461 298.524 349.461C 279.414 349.461 263.922 365.046 263.922 384.272C 263.922 403.498 279.414 419.084 298.524 419.084C 317.634 419.084 333.126 403.498 333.126 384.272" stroke="none" fill="#FFFFFF" fill-rule="nonzero" /></g><g clip-path="url(#16)"></g><g clip-path="url(#17)"><g transform="matrix(1.011002 0 0 0.9983486 272.081 414.568)"><g transform="matrix(1 0 0 1 0 0)"><image x="0" y="0" xlink:href="img_06.png" width="57" height="109" /></g></g></g><g clip-path="url(#18)"><path id="421" transform="matrix(1 0 0 -1 0 834)" d="M333.1269 384.275C 333.1269 365.0491 317.6348 349.4632 298.5246 349.4632C 279.4145 349.4632 263.9223 365.0491 263.9223 384.275C 263.9223 403.5009 279.4145 419.0869 298.5246 419.0869C 317.6348 419.0869 333.1269 403.5009 333.1269 384.275z" stroke="#000000" stroke-width="0.6985003" fill="none" /></g><g clip-path="url(#19)"><g><g clip-path="url(#20)"><g clip-path="url(#21)"><path id="422" transform="matrix(1 0 0 -1 0 834)" d="M271.12 450.302C 269.324 451.277 267.036 452.26 264.323 452.902C 260.202 453.879 255.965 453.849 251.729 452.814C 249.805 452.345 247.88 451.666 245.961 450.783L245.961 450.783L246.161 450.085C 253.457 453.451 259.69 453.272 264.13 452.226C 266.807 451.596 269.078 450.607 270.855 449.634" stroke="none" fill="#FFFFFF" fill-rule="nonzero" fill-opacity="0.8" /></g></g></g></g><g clip-path="url(#22)"><path id="423" transform="matrix(1 0 0 -1 0 834)" d="M270.855 449.634C 273.619 448.12 275.184 446.645 275.209 446.62L275.209 446.62L275.691 447.13C 275.584 447.232 273.971 448.755 271.121 450.302" stroke="none" fill="#000000" fill-rule="nonzero" /><path id="424" transform="matrix(1 0 0 -1 0 834)" d="M246.162 450.085C 243.231 448.734 240.129 446.81 236.903 444.142L236.903 444.142L237.826 443.684L237.826 443.684L234.658 442.659L234.658 442.659L236.139 445.656L236.139 445.656L236.45 444.677C 239.582 447.27 242.764 449.311 245.963 450.784" stroke="none" fill="#000000" fill-rule="nonzero" /><path id="425" transform="matrix(1 0 0 -1 0 834)" d="M262.3531 441.4672L263.2264 439.7461L263.2264 439.7461L265.9043 439.7461L265.9043 439.7461L265.9043 441.4672L265.9043 441.4672L262.8306 441.6076" stroke="#FDFDFD" stroke-width="0.6985003" fill="none" /></g><g clip-path="url(#23)"></g><g clip-path="url(#24)"><g transform="matrix(1.000214 0 0 0.9990525 354.846 326.3449)"><g transform="matrix(1 0 0 1 0 0)"><image x="0" y="0" xlink:href="img_07.png" width="36" height="59" /></g></g></g><g clip-path="url(#25)"></g><g clip-path="url(#26)"><g transform="matrix(1.022789 0 0 0.9967948 176.114 375.8208)"><g transform="matrix(1 0 0 1 0 0)"><image x="0" y="0" xlink:href="img_08.png" width="27" height="38" /></g></g></g><g clip-path="url(#27)"></g><g clip-path="url(#28)"><g transform="matrix(1.023622 0 0 0.9967948 176.1 411.6798)"><g transform="matrix(1 0 0 1 0 0)"><image x="0" y="0" xlink:href="img_09.png" width="27" height="38" /></g></g></g><g clip-path="url(#29)"></g><g clip-path="url(#30)"><g transform="matrix(1.006817 0 0 1.000767 138.964 571.043)"><g transform="matrix(1 0 0 1 0 0)"><image x="0" y="0" xlink:href="img_10.png" width="93" height="133" /></g></g></g><g clip-path="url(#31)"></g><g clip-path="url(#32)"><g transform="matrix(1.000636 0 0 1.000767 236.922 571.043)"><g transform="matrix(1 0 0 1 0 0)"><image x="0" y="0" xlink:href="img_11.png" width="129" height="133" /></g></g></g><g clip-path="url(#33)"><path id="865" transform="matrix(1 0 0 -1 0 834)" d="M188.353 200.454C 196.419 196.533 204.902 191.317 213.004 184.384L213.004 184.384L211.236 182.904C 204.595 188.587 197.687 193.079 190.981 196.628" stroke="none" fill="#000000" fill-rule="nonzero" /><path id="866" transform="matrix(1 0 0 -1 0 834)" d="M190.98 196.628C 178.054 203.469 165.88 206.806 157.823 208.408L157.823 208.408L159.955 203.793C 156.771 206.452 151.723 209.248 147.681 211.039C 151.58 211.714 156.384 213.129 159.309 214.931L159.309 214.931L157.65 210.763C 165.183 209.281 176.303 206.313 188.352 200.455" stroke="none" fill="#FFFFFF" fill-rule="nonzero" /></g><g clip-path="url(#34)"></g><g clip-path="url(#35)"><g transform="matrix(1.007045 0 0 1.008441 353.716 545.6523)"><g transform="matrix(1 0 0 1 0 0)"><image x="0" y="0" xlink:href="img_03.png" width="38" height="58" /></g></g></g><g clip-path="url(#36)"></g><g clip-path="url(#37)"><g transform="matrix(1.022789 0 0 0.9967948 103.898 601.5328)"><g transform="matrix(1 0 0 1 0 0)"><image x="0" y="0" xlink:href="img_12.png" width="27" height="38" /></g></g></g><g clip-path="url(#38)"></g><g clip-path="url(#39)"><g transform="matrix(-1.010138 0 0 0.9967948 370.754 601.5328)"><g transform="matrix(1 0 0 1 0 0)"><image x="0" y="0" xlink:href="img_13.png" width="34" height="38" /></g></g></g><path id="1283" transform="matrix(1 0 0 -1 0 834)" d="M633 15L633 0M633 819L633 834M21 15L21 0M21 819L21 834M639 21L654 21M15 21L0 21M639 813L654 813M15 813L0 813" stroke="#000000" stroke-width="1.25" fill="none" /><path id="1284" transform="matrix(1 0 0 -1 0 834)" d="M633 15L633 0M633 819L633 834M21 15L21 0M21 819L21 834M639 21L654 21M15 21L0 21M639 813L654 813M15 813L0 813" stroke="#000000" stroke-width="0.25" fill="none" /><path id="1285" transform="matrix(1 0 0 -1 0 834)" d="M32.2781 9.28203C 32.2781 9.516021 32.2961 9.58203 32.3559 9.62383C 32.416 9.66602 32.5719 9.69609 32.8238 9.69609C 33.2262 9.69609 33.5738 9.62383 33.8441 9.45C 34.3238 9.167971 34.552 8.63398 34.552 8.016021C 34.552 7.05586 34.0359 6.21602 32.9141 6.21602C 32.4762 6.21602 32.2781 6.33008 32.2781 6.78594zM31.252 9.900001L31.252 9.726171C 31.7141 9.68984 31.7621 9.66602 31.7621 9.150001L31.7621 9.150001L31.7621 6.74414C 31.7621 6.23398 31.7141 6.19805 31.198 6.16211L31.198 6.16211L31.198 6L31.198 6L32.6199 6C 33.3578 6 33.952 6.15 34.402 6.49805C 34.8641 6.84609 35.1398 7.38008 35.1398 8.1C 35.1398 8.664061 34.9301 9.101951 34.6359 9.38984C 34.2641 9.74414 33.7 9.900001 32.9379 9.900001z" stroke="#000000" stroke-width="0.4" fill="none" /><path id="1286" transform="matrix(1 0 0 -1 0 834)" d="M38.3801 6.97813C 38.2898 6.70195 38.1758 6.51016 38.0738 6.38984C 37.9359 6.23398 37.732 6.20391 37.402 6.20391C 37.15 6.20391 36.9461 6.21602 36.8258 6.28203C 36.718 6.34219 36.6879 6.46211 36.6879 6.78594L36.6879 6.78594L36.6879 9.15586C 36.6879 9.66602 36.7418 9.69609 37.216 9.73203L37.216 9.73203L37.216 9.900001L37.216 9.900001L35.65 9.900001L35.65 9.900001L35.65 9.73203C 36.1359 9.69609 36.1777 9.66602 36.1777 9.15586L36.1777 9.15586L36.1777 6.75586C 36.1777 6.24609 36.1301 6.20391 35.6258 6.16797L35.6258 6.16797L35.6258 6L35.6258 6L38.3438 6C 38.398 6.18594 38.5238 6.75586 38.5598 6.94219z" stroke="#000000" stroke-width="0.4" fill="none" /><path id="1287" transform="matrix(1 0 0 -1 0 834)" d="M41.0918 9.023829C 41.0438 9.40195 41.0141 9.63594 40.9898 9.851951C 40.7617 9.92383 40.5098 9.989841 40.234 9.989841C 39.4598 9.989841 38.998 9.49805 38.998 8.921881C 38.998 8.24414 39.6039 7.94414 39.9879 7.73984C 40.4379 7.5 40.768 7.28984 40.768 6.84609C 40.768 6.40781 40.498 6.12617 40.048 6.12617C 39.4301 6.12617 39.1598 6.73203 39.0641 7.09805L39.0641 7.09805L38.8898 7.05586C 38.9258 6.767971 39.0039 6.25195 39.052 6.12617C 39.1059 6.09609 39.1961 6.05391 39.3461 6C 39.4961 5.95781 39.6879 5.91016 39.934 5.91016C 40.732 5.91016 41.266 6.41406 41.266 7.04414C 41.266 7.71602 40.6961 7.99805 40.2277 8.23789C 39.7539 8.48398 39.466 8.68789 39.466 9.12617C 39.466 9.45 39.6699 9.78594 40.132 9.78594C 40.6539 9.78594 40.8098 9.371881 40.918 8.98789z" stroke="#000000" stroke-width="0.4" fill="none" /><path id="1288" transform="matrix(1 0 0 -1 0 834)" d="M46.648 6L46.648 6.16797C 46.1258 6.21602 46.1078 6.24609 46.0898 6.88203L46.0898 6.88203L46.0301 9.05391C 46.0117 9.671881 46.0539 9.68398 46.582 9.73203L46.582 9.73203L46.582 9.900001L46.582 9.900001L45.5617 9.900001L45.5617 9.900001L44.1758 6.9L44.1758 6.9L42.8078 9.900001L42.8078 9.900001L41.8238 9.900001L41.8238 9.900001L41.8238 9.73203C 42.3699 9.67813 42.4 9.653911 42.3461 8.87383L42.3461 8.87383L42.2617 7.626171C 42.2141 7.00195 42.1777 6.73789 42.148 6.528131C 42.1059 6.27617 41.9859 6.21016 41.6379 6.16797L41.6379 6.16797L41.6379 6L41.6379 6L43.0359 6L43.0359 6L43.0359 6.16797C 42.6398 6.21016 42.4961 6.25195 42.484 6.53984C 42.4777 6.78008 42.4777 7.04414 42.502 7.53594L42.502 7.53594L42.5918 9.24609L42.5918 9.24609L42.6039 9.24609L42.6039 9.24609L43.948 6.04219L43.948 6.04219L44.068 6.04219L44.068 6.04219L45.532 9.33008L45.532 9.33008L45.5559 9.33008L45.5559 9.33008L45.5738 6.88203C 45.5801 6.24609 45.5559 6.21602 45.0699 6.16797L45.0699 6.16797L45.0699 6z" stroke="#000000" stroke-width="0.4" fill="none" /><path id="1289" transform="matrix(1 0 0 -1 0 834)" d="M51.8738 7.05586C 51.5738 6.45586 51.2496 6.12617 50.6379 6.12617C 49.7258 6.12617 49.0656 6.89414 49.0656 8.016021C 49.0656 8.92813 49.5996 9.773829 50.602 9.773829C 51.2496 9.773829 51.6098 9.516021 51.7656 8.88008L51.7656 8.88008L51.9457 8.921881C 51.9098 9.24609 51.8738 9.48594 51.8258 9.828131C 51.6578 9.85781 51.2496 9.989841 50.7637 9.989841C 49.4258 9.989841 48.4539 9.15586 48.4539 7.89609C 48.4539 6.94219 49.1078 5.91016 50.602 5.91016C 51.034 5.91016 51.5379 6.03008 51.7059 6.07188C 51.8137 6.26992 51.9637 6.71406 52.0477 6.98984z" stroke="#000000" stroke-width="0.4" fill="none" /><path id="1290" transform="matrix(1 0 0 -1 0 834)" d="M54.3398 9.773829C 55.1258 9.773829 55.7855 9.101951 55.7855 7.83594C 55.7855 6.68398 55.1855 6.12617 54.5195 6.12617C 53.6738 6.12617 53.0559 6.94805 53.0559 8.076171C 53.0559 9.19805 53.6676 9.773829 54.3398 9.773829zM54.4598 9.989841C 53.1996 9.989841 52.4438 8.98789 52.4438 7.90781C 52.4438 6.75586 53.3078 5.91016 54.3938 5.91016C 55.4918 5.91016 56.3977 6.70195 56.3977 7.99805C 56.3977 9.19805 55.4797 9.989841 54.4598 9.989841z" stroke="#000000" stroke-width="0.4" fill="none" /><path id="1291" transform="matrix(1 0 0 -1 0 834)" d="M61.8277 6L61.8277 6.16797C 61.3059 6.21602 61.2879 6.24609 61.2695 6.88203L61.2695 6.88203L61.2098 9.05391C 61.1918 9.671881 61.2336 9.68398 61.7617 9.73203L61.7617 9.73203L61.7617 9.900001L61.7617 9.900001L60.7418 9.900001L60.7418 9.900001L59.3559 6.9L59.3559 6.9L57.9879 9.900001L57.9879 9.900001L57.0035 9.900001L57.0035 9.900001L57.0035 9.73203C 57.5496 9.67813 57.5797 9.653911 57.5258 8.87383L57.5258 8.87383L57.4418 7.626171C 57.3938 7.00195 57.3578 6.73789 57.3277 6.528131C 57.2855 6.27617 57.1656 6.21016 56.8176 6.16797L56.8176 6.16797L56.8176 6L56.8176 6L58.2156 6L58.2156 6L58.2156 6.16797C 57.8195 6.21016 57.6758 6.25195 57.6637 6.53984C 57.6578 6.78008 57.6578 7.04414 57.6816 7.53594L57.6816 7.53594L57.7719 9.24609L57.7719 9.24609L57.7836 9.24609L57.7836 9.24609L59.1277 6.04219L59.1277 6.04219L59.2477 6.04219L59.2477 6.04219L60.7117 9.33008L60.7117 9.33008L60.7355 9.33008L60.7355 9.33008L60.7535 6.88203C 60.7598 6.24609 60.7355 6.21602 60.2496 6.16797L60.2496 6.16797L60.2496 6z" stroke="#000000" stroke-width="0.4" fill="none" /><path id="1292" transform="matrix(1 0 0 -1 0 834)" d="M63.8258 6L63.8258 6.16797C 63.3336 6.20391 63.2855 6.23398 63.2855 6.75L63.2855 6.75L63.2855 9.150001C 63.2855 9.66016 63.3336 9.69609 63.8258 9.73203L63.8258 9.73203L63.8258 9.900001L63.8258 9.900001L62.2355 9.900001L62.2355 9.900001L62.2355 9.73203C 62.7277 9.69609 62.7758 9.66016 62.7758 9.150001L62.7758 9.150001L62.7758 6.75C 62.7758 6.23984 62.7277 6.20391 62.2355 6.16797L62.2355 6.16797L62.2355 6z" stroke="#000000" stroke-width="0.4" fill="none" /><path id="1293" transform="matrix(1 0 0 -1 0 834)" d="M66.5074 9.023829C 66.4598 9.40195 66.4297 9.63594 66.4055 9.851951C 66.1777 9.92383 65.9258 9.989841 65.6496 9.989841C 64.8758 9.989841 64.4137 9.49805 64.4137 8.921881C 64.4137 8.24414 65.0195 7.94414 65.4035 7.73984C 65.8535 7.5 66.1836 7.28984 66.1836 6.84609C 66.1836 6.40781 65.9137 6.12617 65.46371 6.12617C 64.8457 6.12617 64.5758 6.73203 64.4797 7.09805L64.4797 7.09805L64.3055 7.05586C 64.3418 6.767971 64.4195 6.25195 64.46761 6.12617C 64.52151 6.09609 64.6117 6.05391 64.7617 6C 64.91171 5.95781 65.1035 5.91016 65.3496 5.91016C 66.1477 5.91016 66.6816 6.41406 66.6816 7.04414C 66.6816 7.71602 66.1117 7.99805 65.6438 8.23789C 65.1695 8.48398 64.8816 8.68789 64.8816 9.12617C 64.8816 9.45 65.0855 9.78594 65.5477 9.78594C 66.0695 9.78594 66.2258 9.371881 66.3336 8.98789z" stroke="#000000" stroke-width="0.4" fill="none" /><path id="1294" transform="matrix(1 0 0 -1 0 834)" d="M69.4055 7.68008L68.3016 7.68008C 68.4816 8.171881 68.6734 8.69414 68.8656 9.21016L68.8656 9.21016L68.8777 9.21016zM70.9355 6L70.9355 6.16797C 70.5457 6.20391 70.46761 6.25781 70.2758 6.77383C 69.89181 7.81797 69.4895 8.95781 69.11761 9.989841L69.11761 9.989841L68.9316 9.93594L68.9316 9.93594L67.68951 6.78594C 67.4797 6.25781 67.3957 6.22188 67.0176 6.16797L67.0176 6.16797L67.0176 6L67.0176 6L68.3195 6L68.3195 6L68.3195 6.16797C 67.8695 6.21016 67.81561 6.26992 67.9477 6.64805C 68.0258 6.9 68.1156 7.15195 68.2117 7.42188L68.2117 7.42188L69.4895 7.42188C 69.62151 7.05586 69.74181 6.73203 69.8195 6.49805C 69.8977 6.26406 69.8438 6.21602 69.4656 6.16797L69.4656 6.16797L69.4656 6z" stroke="#000000" stroke-width="0.4" fill="none" /><path id="1295" transform="matrix(1 0 0 -1 0 834)" d="M71.7273 5.92813C 71.9195 5.92813 72.06371 6.06602 72.06371 6.27617C 72.06371 6.46797 71.9195 6.61797 71.7273 6.61797C 71.5355 6.61797 71.3914 6.46797 71.3914 6.27617C 71.3914 6.06602 71.5355 5.92813 71.7273 5.92813z" stroke="#000000" stroke-width="0.4" fill="none" /><path id="1296" transform="matrix(1 0 0 -1 0 834)" d="M73.9234 6L73.9234 6.15586C 73.53951 6.19219 73.4977 6.22813 73.4977 6.63594L73.4977 6.63594L73.4977 8.70586C 73.2336 8.59805 72.9516 8.51992 72.6453 8.471881L72.6453 8.471881L72.6453 8.328131C 73.0055 8.26797 73.0234 8.24414 73.0234 7.871881L73.0234 7.871881L73.0234 6.63594C 73.0234 6.22813 72.9816 6.19219 72.6035 6.15586L72.6035 6.15586L72.6035 6zM73.2215 9.216021C 73.3953 9.216021 73.52731 9.36016 73.52731 9.52188C 73.52731 9.70195 73.3953 9.83398 73.2273 9.83398C 73.06561 9.83398 72.9215 9.70195 72.9215 9.52188C 72.9215 9.36016 73.06561 9.216021 73.2215 9.216021z" stroke="#000000" stroke-width="0.4" fill="none" /><path id="1297" transform="matrix(1 0 0 -1 0 834)" d="M77.1574 6L77.1574 6.15586C 76.8094 6.19219 76.7793 6.21602 76.7793 6.62383L76.7793 6.62383L76.7793 7.78203C 76.7793 8.36406 76.4793 8.69414 76.0055 8.69414C 75.8313 8.69414 75.67541 8.621881 75.5074 8.51406C 75.3574 8.41211 75.2254 8.32188 75.1055 8.23203L75.1055 8.23203L75.1055 8.712111C 74.8414 8.59219 74.5594 8.51992 74.27151 8.466021L74.27151 8.466021L74.27151 8.328131C 74.5953 8.26797 74.6313 8.25 74.6313 7.86602L74.6313 7.86602L74.6313 6.62383C 74.6313 6.22813 74.6016 6.19805 74.19341 6.15586L74.19341 6.15586L74.19341 6L74.19341 6L75.4953 6L75.4953 6L75.4953 6.15586C 75.1414 6.19219 75.1055 6.21602 75.1055 6.62383L75.1055 6.62383L75.1055 8.03398C 75.2855 8.18984 75.5195 8.33984 75.7594 8.33984C 76.1613 8.33984 76.3055 8.069921 76.3055 7.65586L76.3055 7.65586L76.3055 6.65391C 76.3055 6.23984 76.2633 6.19219 75.9094 6.15586L75.9094 6.15586L75.9094 6z" stroke="#000000" stroke-width="0.4" fill="none" /><path id="1298" transform="matrix(1 0 0 -1 0 834)" d="M79.4734 6.51016C 79.32931 6.40195 79.1133 6.30586 78.8973 6.30586C 78.5133 6.30586 78.0754 6.65391 78.0754 7.36797C 78.0754 8.23789 78.57931 8.471881 78.8555 8.471881C 79.0832 8.471881 79.32931 8.37617 79.4734 8.16602zM80.4035 6.30586L80.2113 6.32383C 79.9895 6.34805 79.9473 6.37813 79.9473 6.68984L79.9473 6.68984L79.9473 10.2719C 79.7254 10.1941 79.3234 10.1039 79.0113 10.0621L79.0113 10.0621L79.0113 9.917971C 79.44341 9.88789 79.4734 9.869921 79.4734 9.47383L79.4734 9.47383L79.4734 8.628131C 79.3355 8.67617 79.1613 8.69414 79.0773 8.69414C 78.2613 8.69414 77.5293 8.03984 77.5293 7.20586C 77.5293 6.36602 78.1594 5.92813 78.6395 5.92813C 78.7113 5.92813 78.87341 5.96406 79.1074 6.10195L79.1074 6.10195L79.4734 6.31797L79.4734 6.31797L79.4734 5.92813C 79.8215 6.05391 80.27151 6.13203 80.4035 6.15586z" stroke="#000000" stroke-width="0.4" fill="none" /><path id="1299" transform="matrix(1 0 0 -1 0 834)" d="M81.3813 8.24414C 81.4895 8.310161 81.6813 8.35781 81.84921 8.35781C 82.34731 8.35781 82.7676 7.96211 82.7676 7.278131C 82.7676 6.58203 82.4492 6.15586 81.9516 6.15586C 81.6336 6.16211 81.4535 6.37188 81.4176 6.49219C 81.3934 6.54609 81.3813 6.60586 81.3813 6.69609zM81.3813 8.42383L81.3813 10.2719C 81.1594 10.1941 80.7934 10.098 80.5113 10.0621L80.5113 10.0621L80.5113 9.92383C 80.8953 9.88789 80.9074 9.851951 80.9074 9.48008L80.9074 9.48008L80.9074 6.14414C 81.2375 5.98789 81.5434 5.92813 81.78951 5.92813C 82.59341 5.92813 83.2953 6.55195 83.2953 7.43398C 83.2953 8.14219 82.7555 8.69414 82.1133 8.69414C 82.0473 8.69414 81.9633 8.67617 81.86761 8.63398z" stroke="#000000" stroke-width="0.4" fill="none" /><path id="1300" transform="matrix(1 0 0 -1 0 834)" d="M89.90701 6L89.90701 6.16211C 89.3613 6.20391 89.3254 6.25195 89.3254 6.68398L89.3254 6.68398L89.3254 9.810161C 88.9953 9.67813 88.641 9.56406 88.257 9.49805L88.257 9.49805L88.257 9.36016L88.257 9.36016L88.5453 9.34805C 88.8094 9.33594 88.8332 9.305861 88.8332 8.99414L88.8332 8.99414L88.8332 6.68398C 88.8332 6.25195 88.8031 6.20391 88.257 6.16211L88.257 6.16211L88.257 6z" stroke="#000000" stroke-width="0.4" fill="none" /><path id="1301" transform="matrix(1 0 0 -1 0 834)" d="M92.9551 6.83984C 92.77541 6.46211 92.6973 6.43789 92.373 6.43789L92.373 6.43789L91.25121 6.43789L91.25121 6.43789L92.1031 7.33203C 92.65511 7.91992 92.8953 8.273829 92.8953 8.79609C 92.8953 9.42617 92.4152 9.810161 91.8871 9.810161C 91.5391 9.810161 91.257 9.653911 91.0773 9.45586L91.0773 9.45586L90.7352 8.96992L90.7352 8.96992L90.8672 8.85C 91.023 9.08398 91.27541 9.40781 91.6832 9.40781C 92.1273 9.40781 92.391 9.11406 92.391 8.61016C 92.391 8.09414 92.0133 7.60195 91.641 7.15781C 91.341 6.81016 91.0051 6.46797 90.6691 6.13789L90.6691 6.13789L90.6691 6L90.6691 6L92.9133 6C 92.9852 6.26992 93.0453 6.53398 93.123 6.78594z" stroke="#000000" stroke-width="0.4" fill="none" /><path id="1302" transform="matrix(1 0 0 -1 0 834)" d="M95.8352 6.83984C 95.65511 6.46211 95.5773 6.43789 95.25311 6.43789L95.25311 6.43789L94.1313 6.43789L94.1313 6.43789L94.9832 7.33203C 95.5352 7.91992 95.77541 8.273829 95.77541 8.79609C 95.77541 9.42617 95.2953 9.810161 94.7672 9.810161C 94.4191 9.810161 94.1371 9.653911 93.957 9.45586L93.957 9.45586L93.6152 8.96992L93.6152 8.96992L93.74731 8.85C 93.9031 9.08398 94.15511 9.40781 94.5633 9.40781C 95.007 9.40781 95.2711 9.11406 95.2711 8.61016C 95.2711 8.09414 94.8934 7.60195 94.5211 7.15781C 94.2211 6.81016 93.8852 6.46797 93.5492 6.13789L93.5492 6.13789L93.5492 6L93.5492 6L95.7934 6C 95.8652 6.26992 95.92541 6.53398 96.00311 6.78594z" stroke="#000000" stroke-width="0.4" fill="none" /><path id="1321" transform="matrix(1 0 0 -1 0 834)" d="M554.472 6.83984C 554.292 6.46211 554.2141 6.43789 553.89 6.43789L553.89 6.43789L552.768 6.43789L552.768 6.43789L553.6201 7.33203C 554.1721 7.91992 554.412 8.273829 554.412 8.79609C 554.412 9.42617 553.932 9.810161 553.404 9.810161C 553.056 9.810161 552.774 9.653911 552.594 9.45586L552.594 9.45586L552.252 8.96992L552.252 8.96992L552.384 8.85C 552.54 9.08398 552.792 9.40781 553.2 9.40781C 553.644 9.40781 553.908 9.11406 553.908 8.61016C 553.908 8.09414 553.53 7.60195 553.158 7.15781C 552.858 6.81016 552.522 6.46797 552.186 6.13789L552.186 6.13789L552.186 6L552.186 6L554.43 6C 554.502 6.26992 554.562 6.53398 554.64 6.78594z" stroke="#000000" stroke-width="0.4" fill="none" /><path id="1322" transform="matrix(1 0 0 -1 0 834)" d="M555.792 9.3L557.19 9.3L557.19 9.3L557.346 9.68984L557.346 9.68984L557.31 9.73789L557.31 9.73789L555.6 9.73789L555.6 9.73789L555.366 7.90781C 555.504 7.96211 555.732 8.028131 555.984 8.028131C 556.638 8.028131 556.962 7.65 556.962 7.121881C 556.962 6.67188 556.71 6.23398 556.2 6.23398C 555.834 6.23398 555.588 6.42617 555.462 6.53984C 555.402 6.58789 555.354 6.58203 555.3 6.53984C 555.234 6.48008 555.18 6.40195 555.174 6.34219C 555.162 6.26992 555.192 6.22188 555.27 6.13789C 555.36 6.05391 555.612 5.92813 555.888 5.92813C 556.206 5.93398 556.608 6.08984 556.932 6.35391C 557.298 6.65391 557.466 6.99609 557.466 7.35586C 557.466 7.84805 557.076 8.369921 556.308 8.369921C 556.146 8.369921 555.864 8.273829 555.636 8.18984z" stroke="#000000" stroke-width="0.4" fill="none" /><path id="1323" transform="matrix(1 0 0 -1 0 834)" d="M559.548 9.989841L559.212 9.989841L559.212 9.989841L557.91 5.73594L557.91 5.73594L558.246 5.73594z" stroke="#000000" stroke-width="0.4" fill="none" /><path id="1324" transform="matrix(1 0 0 -1 0 834)" d="M561.18 9.61211C 561.72 9.61211 561.8701 8.72383 561.8701 7.871881C 561.8701 7.03203 561.726 6.13203 561.186 6.13203C 560.664 6.13203 560.49 7.03789 560.49 7.87813C 560.49 8.712111 560.634 9.61211 561.18 9.61211zM561.186 9.810161C 560.286 9.810161 559.956 8.74219 559.956 7.86602C 559.956 6.91797 560.28 5.92813 561.186 5.92813C 562.086 5.92813 562.404 6.99609 562.404 7.871881C 562.404 8.79609 562.086 9.810161 561.186 9.810161z" stroke="#000000" stroke-width="0.4" fill="none" /><path id="1325" transform="matrix(1 0 0 -1 0 834)" d="M564 9.61211C 564.582 9.61211 564.738 8.86797 564.738 8.33984C 564.738 8.21992 564.732 8.076171 564.7141 7.94414C 564.588 7.84805 564.384 7.77617 564.174 7.77617C 563.67 7.77617 563.3701 8.214061 563.3701 8.74219C 563.3701 9.09609 563.538 9.61211 564 9.61211zM564.078 9.810161C 563.304 9.810161 562.854 9.10781 562.854 8.53203C 562.854 7.90195 563.292 7.43398 563.928 7.43398C 564.042 7.43398 564.156 7.45781 564.288 7.53008L564.288 7.53008L564.69 7.74609C 564.492 6.83398 563.838 6.23398 562.98 6.08984L562.98 6.08984L563.01 5.91016C 563.16 5.91016 563.526 5.96992 563.85 6.10195C 564.66 6.42617 565.2661 7.20586 565.2661 8.310161C 565.2661 9.12617 564.828 9.810161 564.078 9.810161z" stroke="#000000" stroke-width="0.4" fill="none" /><path id="1326" transform="matrix(1 0 0 -1 0 834)" d="M567.294 9.989841L566.958 9.989841L566.958 9.989841L565.656 5.73594L565.656 5.73594L565.992 5.73594z" stroke="#000000" stroke-width="0.4" fill="none" /><path id="1327" transform="matrix(1 0 0 -1 0 834)" d="M569.9641 6.83984C 569.784 6.46211 569.706 6.43789 569.382 6.43789L569.382 6.43789L568.26 6.43789L568.26 6.43789L569.112 7.33203C 569.664 7.91992 569.904 8.273829 569.904 8.79609C 569.904 9.42617 569.424 9.810161 568.896 9.810161C 568.548 9.810161 568.2661 9.653911 568.086 9.45586L568.086 9.45586L567.744 8.96992L567.744 8.96992L567.876 8.85C 568.032 9.08398 568.284 9.40781 568.692 9.40781C 569.136 9.40781 569.4 9.11406 569.4 8.61016C 569.4 8.09414 569.022 7.60195 568.65 7.15781C 568.35 6.81016 568.014 6.46797 567.678 6.13789L567.678 6.13789L567.678 6L567.678 6L569.9221 6C 569.994 6.26992 570.054 6.53398 570.132 6.78594z" stroke="#000000" stroke-width="0.4" fill="none" /><path id="1328" transform="matrix(1 0 0 -1 0 834)" d="M571.806 9.61211C 572.346 9.61211 572.496 8.72383 572.496 7.871881C 572.496 7.03203 572.352 6.13203 571.812 6.13203C 571.29 6.13203 571.116 7.03789 571.116 7.87813C 571.116 8.712111 571.26 9.61211 571.806 9.61211zM571.812 9.810161C 570.912 9.810161 570.582 8.74219 570.582 7.86602C 570.582 6.91797 570.906 5.92813 571.812 5.92813C 572.712 5.92813 573.03 6.99609 573.03 7.871881C 573.03 8.79609 572.712 9.810161 571.812 9.810161z" stroke="#000000" stroke-width="0.4" fill="none" /><path id="1329" transform="matrix(1 0 0 -1 0 834)" d="M575.556 6L575.556 6.16211C 575.01 6.20391 574.9741 6.25195 574.9741 6.68398L574.9741 6.68398L574.9741 9.810161C 574.644 9.67813 574.29 9.56406 573.906 9.49805L573.906 9.49805L573.906 9.36016L573.906 9.36016L574.194 9.34805C 574.458 9.33594 574.482 9.305861 574.482 8.99414L574.482 8.99414L574.482 6.68398C 574.482 6.25195 574.452 6.20391 573.906 6.16211L573.906 6.16211L573.906 6z" stroke="#000000" stroke-width="0.4" fill="none" /><path id="1330" transform="matrix(1 0 0 -1 0 834)" d="M578.814 9.73789L576.522 9.73789C 576.498 9.48008 576.468 9.180079 576.414 8.85L576.414 8.85L576.588 8.85C 576.732 9.24609 576.768 9.3 577.164 9.3L577.164 9.3L578.46 9.3C 577.986 8.25586 577.308 7.01406 576.678 5.99414L576.678 5.99414L576.72 5.92813L576.72 5.92813L577.164 5.98789C 577.74 7.22383 578.298 8.44805 578.862 9.66602z" stroke="#000000" stroke-width="0.4" fill="none" /><path id="1331" transform="matrix(1 0 0 -1 0 834)" d="M584.531 9.61211C 585.071 9.61211 585.221 8.72383 585.221 7.871881C 585.221 7.03203 585.077 6.13203 584.537 6.13203C 584.015 6.13203 583.841 7.03789 583.841 7.87813C 583.841 8.712111 583.985 9.61211 584.531 9.61211zM584.537 9.810161C 583.637 9.810161 583.307 8.74219 583.307 7.86602C 583.307 6.91797 583.631 5.92813 584.537 5.92813C 585.437 5.92813 585.755 6.99609 585.755 7.871881C 585.755 8.79609 585.437 9.810161 584.537 9.810161z" stroke="#000000" stroke-width="0.4" fill="none" /><path id="1332" transform="matrix(1 0 0 -1 0 834)" d="M588.449 6.83984C 588.269 6.46211 588.191 6.43789 587.867 6.43789L587.867 6.43789L586.7451 6.43789L586.7451 6.43789L587.597 7.33203C 588.149 7.91992 588.389 8.273829 588.389 8.79609C 588.389 9.42617 587.909 9.810161 587.381 9.810161C 587.033 9.810161 586.751 9.653911 586.571 9.45586L586.571 9.45586L586.229 8.96992L586.229 8.96992L586.361 8.85C 586.517 9.08398 586.769 9.40781 587.177 9.40781C 587.621 9.40781 587.885 9.11406 587.885 8.61016C 587.885 8.09414 587.507 7.60195 587.135 7.15781C 586.835 6.81016 586.499 6.46797 586.163 6.13789L586.163 6.13789L586.163 6L586.163 6L588.407 6C 588.479 6.26992 588.539 6.53398 588.617 6.78594z" stroke="#000000" stroke-width="0.4" fill="none" /><path id="1333" transform="matrix(1 0 0 -1 0 834)" d="M589.5471 5.92813C 589.739 5.92813 589.883 6.06602 589.883 6.27617C 589.883 6.46797 589.739 6.61797 589.5471 6.61797C 589.355 6.61797 589.211 6.46797 589.211 6.27617C 589.211 6.06602 589.355 5.92813 589.5471 5.92813zM589.541 8.466021C 589.3491 8.466021 589.211 8.328131 589.211 8.13008C 589.211 7.92617 589.3491 7.78203 589.541 7.78203C 589.733 7.78203 589.877 7.92617 589.877 8.13008C 589.877 8.328131 589.733 8.466021 589.541 8.466021z" stroke="#000000" stroke-width="0.4" fill="none" /><path id="1334" transform="matrix(1 0 0 -1 0 834)" d="M592.697 6.83984C 592.517 6.46211 592.439 6.43789 592.115 6.43789L592.115 6.43789L590.993 6.43789L590.993 6.43789L591.845 7.33203C 592.397 7.91992 592.637 8.273829 592.637 8.79609C 592.637 9.42617 592.157 9.810161 591.629 9.810161C 591.281 9.810161 590.999 9.653911 590.819 9.45586L590.819 9.45586L590.477 8.96992L590.477 8.96992L590.609 8.85C 590.765 9.08398 591.017 9.40781 591.425 9.40781C 591.869 9.40781 592.133 9.11406 592.133 8.61016C 592.133 8.09414 591.755 7.60195 591.383 7.15781C 591.083 6.81016 590.747 6.46797 590.411 6.13789L590.411 6.13789L590.411 6L590.411 6L592.655 6C 592.727 6.26992 592.787 6.53398 592.865 6.78594z" stroke="#000000" stroke-width="0.4" fill="none" /><path id="1335" transform="matrix(1 0 0 -1 0 834)" d="M594.785 7.35L593.603 7.35C 593.999 8.016021 594.389 8.58594 594.773 9.119921L594.773 9.119921L594.785 9.119921zM595.841 7.06797L595.841 7.35L595.841 7.35L595.265 7.35L595.265 7.35L595.265 9.79219L595.265 9.79219L595.025 9.79219C 594.407 8.976171 593.795 8.08789 593.225 7.23594L593.225 7.23594L593.225 7.06797L593.225 7.06797L594.785 7.06797L594.785 7.06797L594.785 6.63594C 594.785 6.23984 594.761 6.20391 594.239 6.16211L594.239 6.16211L594.239 6L594.239 6L595.775 6L595.775 6L595.775 6.16211C 595.289 6.20391 595.265 6.23398 595.265 6.63594L595.265 6.63594L595.265 7.06797z" stroke="#000000" stroke-width="0.4" fill="none" /><path id="1336" transform="matrix(1 0 0 -1 0 834)" d="M596.675 5.92813C 596.867 5.92813 597.011 6.06602 597.011 6.27617C 597.011 6.46797 596.867 6.61797 596.675 6.61797C 596.483 6.61797 596.3391 6.46797 596.3391 6.27617C 596.3391 6.06602 596.483 5.92813 596.675 5.92813zM596.669 8.466021C 596.477 8.466021 596.3391 8.328131 596.3391 8.13008C 596.3391 7.92617 596.477 7.78203 596.669 7.78203C 596.861 7.78203 597.005 7.92617 597.005 8.13008C 597.005 8.328131 596.861 8.466021 596.669 8.466021z" stroke="#000000" stroke-width="0.4" fill="none" /><path id="1337" transform="matrix(1 0 0 -1 0 834)" d="M599.657 6L599.657 6.16211C 599.111 6.20391 599.075 6.25195 599.075 6.68398L599.075 6.68398L599.075 9.810161C 598.7451 9.67813 598.3911 9.56406 598.007 9.49805L598.007 9.49805L598.007 9.36016L598.007 9.36016L598.295 9.34805C 598.559 9.33594 598.583 9.305861 598.583 8.99414L598.583 8.99414L598.583 6.68398C 598.583 6.25195 598.553 6.20391 598.007 6.16211L598.007 6.16211L598.007 6z" stroke="#000000" stroke-width="0.4" fill="none" /><path id="1338" transform="matrix(1 0 0 -1 0 834)" d="M601.667 9.61211C 602.207 9.61211 602.357 8.72383 602.357 7.871881C 602.357 7.03203 602.213 6.13203 601.673 6.13203C 601.151 6.13203 600.977 7.03789 600.977 7.87813C 600.977 8.712111 601.121 9.61211 601.667 9.61211zM601.673 9.810161C 600.773 9.810161 600.4431 8.74219 600.4431 7.86602C 600.4431 6.91797 600.767 5.92813 601.673 5.92813C 602.573 5.92813 602.8911 6.99609 602.8911 7.871881C 602.8911 8.79609 602.573 9.810161 601.673 9.810161z" stroke="#000000" stroke-width="0.4" fill="none" /><path id="1339" transform="matrix(1 0 0 -1 0 834)" d="M605.489 8.08203C 605.651 8.20195 605.897 8.33398 606.0891 8.33398C 606.527 8.33398 606.893 7.97383 606.893 7.33203C 606.893 6.65391 606.557 6.22188 606.053 6.22188C 605.8491 6.22188 605.621 6.31797 605.489 6.45586zM605.489 8.28008L605.489 8.75391C 605.207 8.63984 604.871 8.53789 604.619 8.49609L604.619 8.49609L604.619 8.351951C 604.991 8.30391 605.015 8.29219 605.015 7.90195L605.015 7.90195L605.015 5.18984C 605.015 4.79414 604.961 4.75781 604.577 4.72188L604.577 4.72188L604.577 4.56016L604.577 4.56016L605.999 4.56016L605.999 4.56016L605.999 4.72188C 605.531 4.76406 605.489 4.79414 605.489 5.25L605.489 5.25L605.489 6.03594C 605.567 5.99414 605.729 5.93398 605.903 5.92813C 606.683 6.07188 607.397 6.65391 607.397 7.56016C 607.397 8.153911 607.001 8.69414 606.335 8.69414C 606.263 8.69414 606.149 8.664061 606.041 8.60391z" stroke="#000000" stroke-width="0.4" fill="none" /><path id="1340" transform="matrix(1 0 0 -1 0 834)" d="M608.303 5.92813C 608.4951 5.92813 608.639 6.06602 608.639 6.27617C 608.639 6.46797 608.4951 6.61797 608.303 6.61797C 608.111 6.61797 607.967 6.46797 607.967 6.27617C 607.967 6.06602 608.111 5.92813 608.303 5.92813z" stroke="#000000" stroke-width="0.4" fill="none" /><path id="1341" transform="matrix(1 0 0 -1 0 834)" d="M615.125 6L615.125 6.15586C 614.783 6.19219 614.735 6.21602 614.735 6.61797L614.735 6.61797L614.735 7.77617C 614.735 8.36406 614.441 8.69414 613.973 8.69414C 613.805 8.69414 613.649 8.621881 613.523 8.53789C 613.373 8.44805 613.199 8.33398 613.025 8.20195C 612.905 8.51406 612.647 8.69414 612.359 8.69414C 612.167 8.69414 612.023 8.628131 611.867 8.53203C 611.687 8.417971 611.555 8.310161 611.429 8.226171L611.429 8.226171L611.429 8.712111C 611.165 8.59219 610.859 8.51406 610.595 8.466021L610.595 8.466021L610.595 8.328131C 610.9431 8.273829 610.961 8.24414 610.961 7.86016L610.961 7.86016L610.961 6.61797C 610.961 6.22813 610.907 6.19219 610.511 6.15586L610.511 6.15586L610.511 6L610.511 6L611.777 6L611.777 6L611.777 6.15586C 611.483 6.19219 611.435 6.22813 611.435 6.61797L611.435 6.61797L611.435 8.028131C 611.615 8.17813 611.8491 8.33984 612.0891 8.33984C 612.455 8.33984 612.611 8.09414 612.611 7.65L612.611 7.65L612.611 6.61797C 612.611 6.22188 612.557 6.19219 612.185 6.15586L612.185 6.15586L612.185 6L612.185 6L613.469 6L613.469 6L613.469 6.15586C 613.139 6.19219 613.085 6.22813 613.085 6.60586L613.085 6.60586L613.085 7.77617C 613.085 7.88984 613.079 7.95586 613.067 8.028131C 613.295 8.21992 613.523 8.33984 613.739 8.33984C 614.117 8.33984 614.267 8.069921 614.267 7.64414L614.267 7.64414L614.267 6.64219C 614.267 6.21602 614.201 6.19219 613.847 6.15586L613.847 6.15586L613.847 6z" stroke="#000000" stroke-width="0.4" fill="none" /><path id="1342" transform="matrix(1 0 0 -1 0 834)" d="M615.947 5.92813C 616.139 5.92813 616.283 6.06602 616.283 6.27617C 616.283 6.46797 616.139 6.61797 615.947 6.61797C 615.755 6.61797 615.611 6.46797 615.611 6.27617C 615.611 6.06602 615.755 5.92813 615.947 5.92813z" stroke="#000000" stroke-width="0.4" fill="none" /></g></g></svg>