<svg xmlns="http://www.w3.org/2000/svg" xmlns:xlink="http://www.w3.org/1999/xlink" id="body_1" preserveAspectRatio="xMinYMin meet" viewBox="0 0 872 1112"><defs><clipPath id="1"><path id="" clip-rule="evenodd" transform="matrix(1 0 0 1 0 0)" d="M0 834L0 0L0 0L654 0L654 0L654 834L654 834L0 834z" /></clipPath><clipPath id="2"><path id="" clip-rule="evenodd" transform="matrix(1 0 0 1 0 0)" d="M21 813L633 813L633 813L633 21L633 21L21 21z" /></clipPath><clipPath id="3"><path id="" clip-rule="evenodd" transform="matrix(1 0 0 1 0 0)" d="M236.366 266.93L337.939 266.93L337.939 266.93L337.939 142.392L337.939 142.392L236.366 142.392z" /></clipPath><clipPath id="4"><path id="" clip-rule="evenodd" transform="matrix(1 0 0 1 0 0)" d="M236.366 266.93L337.939 266.93L337.939 266.93L337.939 142.392L337.939 142.392L236.366 142.392z" /></clipPath><clipPath id="5"><path id="" clip-rule="evenodd" transform="matrix(1 0 0 1 0 0)" d="M121.63 267.523L205.8378 267.523L205.8378 267.523L205.8378 149.004L205.8378 149.004L121.63 149.004z" /></clipPath><clipPath id="6"><path id="" clip-rule="evenodd" transform="matrix(1 0 0 1 0 0)" d="M121.63 267.523L205.8378 267.523L205.8378 267.523L205.8378 149.004L205.8378 149.004L121.63 149.004z" /></clipPath><clipPath id="7"><path id="" clip-rule="evenodd" transform="matrix(1 0 0 1 0 0)" d="M121.63 267.523L351.266 267.523L351.266 267.523L351.266 131.093L351.266 131.093L121.63 131.093z" /></clipPath><clipPath id="8"><path id="" clip-rule="evenodd" transform="matrix(1 0 0 1 0 0)" d="M200.386 160.793C 191.555 163.936 185.227 172.424 185.227 182.403L185.227 182.403L185.227 182.403C 185.227 195.056 195.402 205.313 207.953 205.313L207.953 205.313L207.953 205.313C 220.504 205.313 230.678 195.056 230.678 182.403L230.678 182.403L230.678 182.403C 230.678 172.424 224.351 163.936 215.519 160.793L215.519 160.793L215.519 160.793z" /></clipPath><clipPath id="9"><path id="" clip-rule="evenodd" transform="matrix(1 0 0 1 0 0)" d="M200.386 160.793C 191.555 163.936 185.227 172.424 185.227 182.403L185.227 182.403L185.227 182.403C 185.227 195.056 195.402 205.313 207.953 205.313L207.953 205.313L207.953 205.313C 220.504 205.313 230.678 195.056 230.678 182.403L230.678 182.403L230.678 182.403C 230.678 172.424 224.351 163.936 215.519 160.793L215.519 160.793L215.519 160.793z" /></clipPath><clipPath id="10"><path id="" clip-rule="evenodd" transform="matrix(1 0 0 1 0 0)" d="M121.63 267.523L351.266 267.523L351.266 267.523L351.266 131.093L351.266 131.093L121.63 131.093z" /></clipPath><clipPath id="11"><path id="" clip-rule="evenodd" transform="matrix(1 0 0 1 0 0)" d="M312.894 158.294C 310.103 160.544 307.84 163.428 306.319 166.732L306.319 166.732L306.319 166.732L306.319 166.732L306.319 186.391C 310.001 194.389 318.038 199.935 327.361 199.935L327.361 199.935L327.361 199.935C 336.722 199.935 344.788 194.339 348.449 186.2859L348.449 186.2859L348.449 186.2859L348.449 186.2859L348.449 166.835C 346.928 163.489 344.646 160.567 341.826 158.294L341.826 158.294L341.826 158.294z" /></clipPath><clipPath id="12"><path id="" clip-rule="evenodd" transform="matrix(1 0 0 1 0 0)" d="M312.894 158.294C 310.103 160.544 307.84 163.428 306.319 166.732L306.319 166.732L306.319 166.732L306.319 166.732L306.319 186.391C 310.001 194.389 318.038 199.935 327.361 199.935L327.361 199.935L327.361 199.935C 336.722 199.935 344.788 194.339 348.449 186.2859L348.449 186.2859L348.449 186.2859L348.449 186.2859L348.449 166.835C 346.928 163.489 344.646 160.567 341.826 158.294L341.826 158.294L341.826 158.294z" /></clipPath><clipPath id="13"><path id="" clip-rule="evenodd" transform="matrix(1 0 0 1 0 0)" d="M121.63 267.523L351.266 267.523L351.266 267.523L351.266 131.093L351.266 131.093L121.63 131.093z" /></clipPath><clipPath id="14"><path id="" clip-rule="evenodd" transform="matrix(1 0 0 1 0 0)" d="M121.63 267.523L351.266 267.523L351.266 267.523L351.266 131.093L351.266 131.093L121.63 131.093z" /></clipPath><clipPath id="15"><path id="" clip-rule="evenodd" transform="matrix(1 0 0 1 0 0)" d="M121.63 267.523L351.266 267.523L351.266 267.523L351.266 131.093L351.266 131.093L121.63 131.093z" /></clipPath><clipPath id="16"><path id="" clip-rule="evenodd" transform="matrix(1 0 0 1 0 0)" d="M113.976 268.114L139.5729 268.114L139.5729 268.114L139.5729 232.255L139.5729 232.255L113.976 232.255z" /></clipPath><clipPath id="17"><path id="" clip-rule="evenodd" transform="matrix(1 0 0 1 0 0)" d="M113.976 268.114L139.5729 268.114L139.5729 268.114L139.5729 232.255L139.5729 232.255L113.976 232.255z" /></clipPath><clipPath id="18"><path id="" clip-rule="evenodd" transform="matrix(1 0 0 1 0 0)" d="M234.733 268.114L260.3299 268.114L260.3299 268.114L260.3299 232.255L260.3299 232.255L234.733 232.255z" /></clipPath><clipPath id="19"><path id="" clip-rule="evenodd" transform="matrix(1 0 0 1 0 0)" d="M234.733 268.114L260.3299 268.114L260.3299 268.114L260.3299 232.255L260.3299 232.255L234.733 232.255z" /></clipPath><clipPath id="20"><path id="" clip-rule="evenodd" transform="matrix(1 0 0 1 0 0)" d="M335.646 268.114L361.2429 268.114L361.2429 268.114L361.2429 232.255L361.2429 232.255L335.646 232.255z" /></clipPath><clipPath id="21"><path id="" clip-rule="evenodd" transform="matrix(1 0 0 1 0 0)" d="M335.646 268.114L361.2429 268.114L361.2429 268.114L361.2429 232.255L361.2429 232.255L335.646 232.255z" /></clipPath><clipPath id="22"><path id="" clip-rule="evenodd" transform="matrix(1 0 0 1 0 0)" d="M133.532 486.311L261.1 486.311L261.1 486.311L261.1 342.278L261.1 342.278L133.532 342.278z" /></clipPath><clipPath id="23"><path id="" clip-rule="evenodd" transform="matrix(1 0 0 1 0 0)" d="M133.532 486.311L261.1 486.311L261.1 486.311L261.1 342.278L261.1 342.278L133.532 342.278z" /></clipPath><clipPath id="24"><path id="" clip-rule="evenodd" transform="matrix(1 0 0 1 0 0)" d="M118.937 486.311L344.433 486.311L344.433 486.311L344.433 342.278L344.433 342.278L118.937 342.278z" /></clipPath><clipPath id="25"><path id="" clip-rule="evenodd" transform="matrix(1 0 0 1 0 0)" d="M254.579 393.704C 254.579 417.591 274.527 436.956 299.133 436.956L299.133 436.956L299.133 436.956C 323.74 436.956 343.687 417.591 343.687 393.704L343.687 393.704L343.687 393.704C 343.687 369.817 323.74 350.453 299.133 350.453L299.133 350.453L299.133 350.453C 274.527 350.453 254.579 369.817 254.579 393.704" /></clipPath><clipPath id="26"><path id="" clip-rule="evenodd" transform="matrix(1 0 0 1 0 0)" d="M254.579 393.704C 254.579 417.591 274.527 436.956 299.133 436.956L299.133 436.956L299.133 436.956C 323.74 436.956 343.687 417.591 343.687 393.704L343.687 393.704L343.687 393.704C 343.687 369.817 323.74 350.453 299.133 350.453L299.133 350.453L299.133 350.453C 274.527 350.453 254.579 369.817 254.579 393.704" /></clipPath><clipPath id="27"><path id="" clip-rule="evenodd" transform="matrix(1 0 0 1 0 0)" d="M118.937 486.311L344.433 486.311L344.433 486.311L344.433 342.278L344.433 342.278L118.937 342.278z" /></clipPath><clipPath id="28"><path id="" clip-rule="evenodd" transform="matrix(1 0 0 1 0 0)" d="M118.937 486.311L344.433 486.311L344.433 486.311L344.433 342.278L344.433 342.278L118.937 342.278z" /></clipPath><clipPath id="29"><path id="" clip-rule="evenodd" transform="matrix(1 0 0 1 0 0)" d="M355.366 387.531L392.6039 387.531L392.6039 387.531L392.6039 330.6142L392.6039 330.6142L355.366 330.6142z" /></clipPath><clipPath id="30"><path id="" clip-rule="evenodd" transform="matrix(1 0 0 1 0 0)" d="M355.366 387.531L392.6039 387.531L392.6039 387.531L392.6039 330.6142L392.6039 330.6142L355.366 330.6142z" /></clipPath><clipPath id="31"><path id="" clip-rule="evenodd" transform="matrix(1 0 0 1 0 0)" d="M113.693 487.019L139.2899 487.019L139.2899 487.019L139.2899 451.1608L139.2899 451.1608L113.693 451.1608z" /></clipPath><clipPath id="32"><path id="" clip-rule="evenodd" transform="matrix(1 0 0 1 0 0)" d="M113.693 487.019L139.2899 487.019L139.2899 487.019L139.2899 451.1608L139.2899 451.1608L113.693 451.1608z" /></clipPath><clipPath id="33"><path id="" clip-rule="evenodd" transform="matrix(1 0 0 1 0 0)" d="M295.11 487.019L320.7069 487.019L320.7069 487.019L320.7069 451.1608L320.7069 451.1608L295.11 451.1608z" /></clipPath><clipPath id="34"><path id="" clip-rule="evenodd" transform="matrix(1 0 0 1 0 0)" d="M295.11 487.019L320.7069 487.019L320.7069 487.019L320.7069 451.1608L320.7069 451.1608L295.11 451.1608z" /></clipPath><clipPath id="35"><path id="" clip-rule="evenodd" transform="matrix(1 0 0 1 0 0)" d="M133.898 677.539L189.6859 677.539L189.6859 677.539L189.6859 572.436L189.6859 572.436L133.898 572.436z" /></clipPath><clipPath id="36"><path id="" clip-rule="evenodd" transform="matrix(1 0 0 1 0 0)" d="M133.898 677.539L189.6859 677.539L189.6859 677.539L189.6859 572.436L189.6859 572.436L133.898 572.436z" /></clipPath><clipPath id="37"><path id="" clip-rule="evenodd" transform="matrix(1 0 0 1 0 0)" d="M189.685 677.233L246.5979 677.233L246.5979 677.233L246.5979 583.9982L246.5979 583.9982L189.685 583.9982z" /></clipPath><clipPath id="38"><path id="" clip-rule="evenodd" transform="matrix(1 0 0 1 0 0)" d="M189.685 677.233L246.5979 677.233L246.5979 677.233L246.5979 583.9982L246.5979 583.9982L189.685 583.9982z" /></clipPath><clipPath id="39"><path id="" clip-rule="evenodd" transform="matrix(1 0 0 1 0 0)" d="M279.281 677.234L345.5302 677.234L345.5302 677.234L345.5302 583.9981L345.5302 583.9981L279.281 583.9981z" /></clipPath><clipPath id="40"><path id="" clip-rule="evenodd" transform="matrix(1 0 0 1 0 0)" d="M279.281 677.234L345.5302 677.234L345.5302 677.234L345.5302 583.9981L345.5302 583.9981L279.281 583.9981z" /></clipPath><clipPath id="41"><path id="" clip-rule="evenodd" transform="matrix(1 0 0 1 0 0)" d="M95.5512 677.54L366.4012 677.54L366.4012 677.54L366.4012 568.727L366.4012 568.727L95.5512 568.727z" /></clipPath><clipPath id="42"><path id="" clip-rule="evenodd" transform="matrix(1 0 0 1 0 0)" d="M95.5512 677.54L366.4012 677.54L366.4012 677.54L366.4012 568.727L366.4012 568.727L95.5512 568.727z" /></clipPath><clipPath id="43"><path id="" clip-rule="evenodd" transform="matrix(1 0 0 1 0 0)" d="M96.259 638.02C 96.259 648.788 105.195 657.517 116.218 657.517L116.218 657.517L116.218 657.517C 123.629 657.517 130.097 653.572 133.539 647.713L133.539 647.713L133.539 647.713L133.539 647.713L133.539 628.327C 130.097 622.468 123.629 618.522 116.218 618.522L116.218 618.522L116.218 618.522C 105.195 618.522 96.259 627.251 96.259 638.02" /></clipPath><clipPath id="44"><path id="" clip-rule="evenodd" transform="matrix(1 0 0 1 0 0)" d="M96.259 638.02C 96.259 648.788 105.195 657.517 116.218 657.517L116.218 657.517L116.218 657.517C 123.629 657.517 130.097 653.572 133.539 647.713L133.539 647.713L133.539 647.713L133.539 647.713L133.539 628.327C 130.097 622.468 123.629 618.522 116.218 618.522L116.218 618.522L116.218 618.522C 105.195 618.522 96.259 627.251 96.259 638.02" /></clipPath><clipPath id="45"><path id="" clip-rule="evenodd" transform="matrix(1 0 0 1 0 0)" d="M95.5512 677.54L366.4012 677.54L366.4012 677.54L366.4012 568.727L366.4012 568.727L95.5512 568.727z" /></clipPath><clipPath id="46"><path id="" clip-rule="evenodd" transform="matrix(1 0 0 1 0 0)" d="M95.5512 677.54L366.4012 677.54L366.4012 677.54L366.4012 568.727L366.4012 568.727L95.5512 568.727z" /></clipPath><clipPath id="47"><path id="" clip-rule="evenodd" transform="matrix(1 0 0 1 0 0)" d="M238.507 644.695C 238.507 655.579 247.54 664.402 258.682 664.402L258.682 664.402L258.682 664.402C 267.221 664.402 274.522 659.219 277.465 651.897L277.465 651.897L277.465 651.897L277.465 651.897L277.465 637.493C 274.522 630.171 267.221 624.988 258.682 624.988L258.682 624.988L258.682 624.988C 247.54 624.988 238.507 633.811 238.507 644.695" /></clipPath><clipPath id="48"><path id="" clip-rule="evenodd" transform="matrix(1 0 0 1 0 0)" d="M238.507 644.695C 238.507 655.579 247.54 664.402 258.682 664.402L258.682 664.402L258.682 664.402C 267.221 664.402 274.522 659.219 277.465 651.897L277.465 651.897L277.465 651.897L277.465 651.897L277.465 637.493C 274.522 630.171 267.221 624.988 258.682 624.988L258.682 624.988L258.682 624.988C 247.54 624.988 238.507 633.811 238.507 644.695" /></clipPath><clipPath id="49"><path id="" clip-rule="evenodd" transform="matrix(1 0 0 1 0 0)" d="M95.5512 677.54L366.4012 677.54L366.4012 677.54L366.4012 568.727L366.4012 568.727L95.5512 568.727z" /></clipPath><clipPath id="50"><path id="" clip-rule="evenodd" transform="matrix(1 0 0 1 0 0)" d="M324.49 656.131C 324.49 667.246 333.714 676.257 345.091 676.257L345.091 676.257L345.091 676.257C 350.884 676.257 356.118 673.922 359.861 670.163L359.861 670.163L359.861 670.163L359.861 670.163L359.861 642.1C 356.118 638.341 350.884 636.005 345.091 636.005L345.091 636.005L345.091 636.005C 333.714 636.005 324.49 645.016 324.49 656.131" /></clipPath><clipPath id="51"><path id="" clip-rule="evenodd" transform="matrix(1 0 0 1 0 0)" d="M324.49 656.131C 324.49 667.246 333.714 676.257 345.091 676.257L345.091 676.257L345.091 676.257C 350.884 676.257 356.118 673.922 359.861 670.163L359.861 670.163L359.861 670.163L359.861 670.163L359.861 642.1C 356.118 638.341 350.884 636.005 345.091 636.005L345.091 636.005L345.091 636.005C 333.714 636.005 324.49 645.016 324.49 656.131" /></clipPath><clipPath id="52"><path id="" clip-rule="evenodd" transform="matrix(1 0 0 1 0 0)" d="M95.5512 677.54L366.4012 677.54L366.4012 677.54L366.4012 568.727L366.4012 568.727L95.5512 568.727z" /></clipPath><clipPath id="53"><path id="" clip-rule="evenodd" transform="matrix(1 0 0 1 0 0)" d="M95.5512 677.54L366.4012 677.54L366.4012 677.54L366.4012 568.727L366.4012 568.727L95.5512 568.727z" /></clipPath><clipPath id="54"><path id="" clip-rule="evenodd" transform="matrix(1 0 0 1 0 0)" d="M112.573 611.738L138.1699 611.738L138.1699 611.738L138.1699 575.8801L138.1699 575.8801L112.573 575.8801z" /></clipPath><clipPath id="55"><path id="" clip-rule="evenodd" transform="matrix(1 0 0 1 0 0)" d="M112.573 611.738L138.1699 611.738L138.1699 611.738L138.1699 575.8801L138.1699 575.8801L112.573 575.8801z" /></clipPath><clipPath id="56"><path id="" clip-rule="evenodd" transform="matrix(1 0 0 1 0 0)" d="M243.378 616.702L268.9749 616.702L268.9749 616.702L268.9749 580.8442L268.9749 580.8442L243.378 580.8442z" /></clipPath><clipPath id="57"><path id="" clip-rule="evenodd" transform="matrix(1 0 0 1 0 0)" d="M243.378 616.702L268.9749 616.702L268.9749 616.702L268.9749 580.8442L268.9749 580.8442L243.378 580.8442z" /></clipPath><clipPath id="58"><path id="" clip-rule="evenodd" transform="matrix(1 0 0 1 0 0)" d="M256.176 710.499L281.7729 710.499L281.7729 710.499L281.7729 674.6412L281.7729 674.6412L256.176 674.6412z" /></clipPath><clipPath id="59"><path id="" clip-rule="evenodd" transform="matrix(1 0 0 1 0 0)" d="M256.176 710.499L281.7729 710.499L281.7729 710.499L281.7729 674.6412L281.7729 674.6412L256.176 674.6412z" /></clipPath><clipPath id="60"><path id="" clip-rule="evenodd" transform="matrix(1 0 0 1 0 0)" d="M317.504 710.876L343.1013 710.876L343.1013 710.876L343.1013 675.017L343.1013 675.017L317.504 675.017z" /></clipPath><clipPath id="61"><path id="" clip-rule="evenodd" transform="matrix(1 0 0 1 0 0)" d="M317.504 710.876L343.1013 710.876L343.1013 710.876L343.1013 675.017L343.1013 675.017L317.504 675.017z" /></clipPath></defs><g transform="matrix(1.333333 0 0 1.333333 0 0)"><g clip-path="url(#1)"><g clip-path="url(#2)"><path id="1" transform="matrix(1 0 0 -1 0 834)" d="M91.866 67.4211L562.134 67.4211L562.134 74.92501L91.866 74.92501z" stroke="none" fill="#686868" fill-rule="nonzero" /><path id="2" transform="matrix(1 0 0 -1 0 834)" d="M562.134 526.984L91.866 526.984" stroke="#686868" stroke-width="1" fill="none" /><path id="3" transform="matrix(1 0 0 -1 0 834)" d="M562.134 307.016L91.866 307.016" stroke="#686868" stroke-width="1" fill="none" /></g><g clip-path="url(#3)"></g><g clip-path="url(#4)"><g transform="matrix(1.005673 0 0 1.004347 236.366 142.392)"><g transform="matrix(1 0 0 1 0 0)"><image x="0" y="0" xlink:href="img_01.png" width="101" height="124" /></g></g></g><g clip-path="url(#5)"></g><g clip-path="url(#6)"><g transform="matrix(1.002485 0 0 1.004398 121.63 149.0031)"><g transform="matrix(1 0 0 1 0 0)"><image x="0" y="0" xlink:href="img_02.png" width="84" height="118" /></g></g></g><path id="553" transform="matrix(1 0 0 -1 0 834)" d="M159.0167 647.4677L149.9416 647.4677" stroke="#000000" stroke-width="0.7998551" fill="none" /><path id="554" transform="matrix(1 0 0 -1 0 834)" d="M158.721 647.4641L158.343 648.36L160.449 647.4641L158.343 646.569z" stroke="none" fill="#000000" fill-rule="nonzero" /><path id="555" transform="matrix(1 0 0 -1 0 834)" d="M148.51 647.4641L150.616 648.36L150.239 647.4641L150.616 646.569z" stroke="none" fill="#000000" fill-rule="nonzero" /><g clip-path="url(#7)"><path id="556" transform="matrix(1 0 0 -1 0 834)" d="M185.228 651.598C 185.228 638.945 195.402 628.688 207.953 628.688C 220.504 628.688 230.679 638.945 230.679 651.598C 230.679 664.251 220.504 674.508 207.953 674.508C 195.402 674.508 185.228 664.251 185.228 651.598" stroke="none" fill="#FFFFFF" fill-rule="nonzero" /></g><g clip-path="url(#8)"></g><g clip-path="url(#9)"><g transform="matrix(1.00096 0 0 1.003266 173.282 160.793)"><g transform="matrix(1 0 0 1 0 0)"><image x="0" y="0" xlink:href="img_03.png" width="76" height="113" /></g></g></g><g clip-path="url(#10)"><path id="558" transform="matrix(1 0 0 -1 0 834)" d="M185.2272 651.6003C 185.2272 638.9483 195.4018 628.6909 207.9528 628.6909C 220.5038 628.6909 230.6784 638.9483 230.6784 651.6003C 230.6784 664.2544 220.5038 674.5107 207.9528 674.5107C 195.4018 674.5107 185.2272 664.2544 185.2272 651.6003z" stroke="#000000" stroke-width="0.7998551" fill="none" /><path id="559" transform="matrix(1 0 0 -1 0 834)" d="M304.176 657.439C 304.176 644.53 314.556 634.066 327.361 634.066C 340.166 634.066 350.546 644.53 350.546 657.439C 350.546 670.348 340.166 680.812 327.361 680.812C 314.556 680.812 304.176 670.348 304.176 657.439" stroke="none" fill="#FFFFFF" fill-rule="nonzero" /></g><g clip-path="url(#11)"></g><g clip-path="url(#12)"><g transform="matrix(1.003119 0 0 0.9993712 306.318 158.2943)"><g transform="matrix(1 0 0 1 0 0)"><image x="0" y="0" xlink:href="img_04.png" width="42" height="45" /></g></g></g><g clip-path="url(#13)"><path id="561" transform="matrix(1 0 0 -1 0 834)" d="M304.1767 657.4419C 304.1767 644.5328 314.5565 634.0686 327.3615 634.0686C 340.1654 634.0686 350.5462 644.5328 350.5462 657.4419C 350.5462 670.351 340.1654 680.8152 327.3615 680.8152C 314.5565 680.8152 304.1767 670.351 304.1767 657.4419z" stroke="#000000" stroke-width="0.7998551" fill="none" /><path id="562" transform="matrix(1 0 0 -1 0 834)" d="M335.3401 662.2915C 336.3778 661.8527 338.3767 661.3235 340.7252 662.3095" stroke="#000000" stroke-width="0.4799134" fill="none" /></g><path id="563" transform="matrix(1 0 0 -1 0 834)" d="M334.573 662.682L335.943 662.609L335.507 662.225L335.478 661.642z" stroke="none" fill="#000000" fill-rule="nonzero" /><path id="564" transform="matrix(1 0 0 -1 0 834)" d="M340.558 662.243L340.129 662.636L341.5 662.682L340.576 661.659z" stroke="none" fill="#000000" fill-rule="nonzero" /><g clip-path="url(#14)"><path id="565" transform="matrix(1 0 0 -1 0 834)" d="M313.7787 662.7593C 314.8174 662.3196 316.8153 661.7914 319.1638 662.7774" stroke="#000000" stroke-width="0.4799134" fill="none" /></g><path id="566" transform="matrix(1 0 0 -1 0 834)" d="M313.013 663.15L314.382 663.077L313.946 662.6931L313.917 662.11z" stroke="none" fill="#000000" fill-rule="nonzero" /><path id="567" transform="matrix(1 0 0 -1 0 834)" d="M318.997 662.711L318.568 663.103L319.939 663.15L319.015 662.127z" stroke="none" fill="#000000" fill-rule="nonzero" /><g clip-path="url(#15)"><path id="568" transform="matrix(1 0 0 -1 0 834)" d="M187.357 701.282C 185.022 701.282 183.13 699.374 183.13 697.02C 183.13 694.667 185.022 692.759 187.357 692.759C 189.692 692.759 191.585 694.667 191.585 697.02C 191.585 699.374 189.692 701.282 187.357 701.282M187.357 693.277C 185.319 693.277 183.667 694.942 183.667 696.997C 183.667 699.052 185.319 700.717 187.357 700.717C 189.395 700.717 191.047 699.052 191.047 696.997C 191.047 694.942 189.395 693.277 187.357 693.277" stroke="none" fill="#000000" fill-rule="nonzero" /><path id="570" transform="matrix(1 0 0 -1 0 834)" d="M304.176 701.031C 301.841 701.031 299.948 699.123 299.948 696.769C 299.948 694.415 301.841 692.507 304.176 692.507C 306.511 692.507 308.404 694.415 308.404 696.769C 308.404 699.123 306.511 701.031 304.176 701.031M304.176 693.025C 302.138 693.025 300.486 694.691 300.486 696.7451C 300.486 698.8 302.138 700.466 304.176 700.466C 306.214 700.466 307.866 698.8 307.866 696.7451C 307.866 694.691 306.214 693.025 304.176 693.025" stroke="none" fill="#000000" fill-rule="nonzero" /></g><g transform="matrix(1.009614 0 0 0.9985386 359.85 111.7083)"><g transform="matrix(1 0 0 1 0 0)"><image x="0" y="0" xlink:href="img_05.png" width="28" height="57" /></g></g><g clip-path="url(#16)"></g><g clip-path="url(#17)"><g transform="matrix(1.023622 0 0 0.9973868 112.956 231.2343)"><g transform="matrix(1 0 0 1 0 0)"><image x="0" y="0" xlink:href="img_06.png" width="27" height="38" /></g></g></g><g clip-path="url(#18)"></g><g clip-path="url(#19)"><g transform="matrix(1.023622 0 0 0.9967948 233.712 231.2438)"><g transform="matrix(1 0 0 1 0 0)"><image x="0" y="0" xlink:href="img_07.png" width="27" height="38" /></g></g></g><g clip-path="url(#20)"></g><g clip-path="url(#21)"><g transform="matrix(-1.023622 0 0 0.9967948 362.262 231.2438)"><g transform="matrix(1 0 0 1 0 0)"><image x="0" y="0" xlink:href="img_07.png" width="27" height="38" /></g></g></g><g clip-path="url(#22)"></g><g clip-path="url(#23)"><g transform="matrix(1.00448 0 0 1.000229 133.532 342.278)"><g transform="matrix(1 0 0 1 0 0)"><image x="0" y="0" xlink:href="img_08.png" width="127" height="144" /></g></g></g><g clip-path="url(#24)"><path id="1273" transform="matrix(1 0 0 -1 0 834)" d="M254.579 440.296C 254.579 416.409 274.527 397.044 299.133 397.044C 323.739 397.044 343.687 416.409 343.687 440.296C 343.687 464.183 323.739 483.548 299.133 483.548C 274.527 483.548 254.579 464.183 254.579 440.296" stroke="none" fill="#FFFFFF" fill-rule="nonzero" /></g><g clip-path="url(#25)"></g><g clip-path="url(#26)"><g transform="matrix(0.9977908 0 0 1.000017 235.273 320.452)"><g transform="matrix(1 0 0 1 0 0)"><image x="0" y="0" xlink:href="img_09.png" width="110" height="118" /></g></g></g><g clip-path="url(#27)"><path id="1275" transform="matrix(1 0 0 -1 0 834)" d="M254.5793 440.2956C 254.5793 416.4081 274.5267 397.0436 299.1333 397.0436C 323.7399 397.0436 343.6874 416.4081 343.6874 440.2956C 343.6874 464.1831 323.7399 483.5475 299.1333 483.5475C 274.5267 483.5475 254.5793 464.1831 254.5793 440.2956z" stroke="#000000" stroke-width="0.8289304" fill="none" /><path id="1276" transform="matrix(1 0 0 -1 0 834)" d="M165.3087 393.5285C 136.6712 394.5038 119.683 397.0515 119.683 399.9962C 119.683 401.604 126.3626 403.0818 136.6022 404.2511" stroke="#000000" stroke-width="0.8289304" fill="none" /></g><path id="1277" transform="matrix(1 0 0 -1 0 834)" d="M164.798 393.565L164.207 395.079L167.781 393.448L164.084 392.102z" stroke="none" fill="#000000" fill-rule="nonzero" /><g clip-path="url(#28)"><path id="1278" transform="matrix(1 0 0 -1 0 834)" d="M227.4802 393.763C 217.7957 393.3581 207.0091 393.1325 195.6379 393.1325C 187.2108 393.1325 179.1033 393.2567 171.5286 393.4852" stroke="#FFFFFF" stroke-width="0.8289304" fill="none" /><path id="1279" transform="matrix(1 0 0 -1 0 834)" d="M251.4049 404.6551C 263.934 403.4315 271.5909 401.7951 271.5909 399.9962C 271.5909 397.2328 253.5218 394.8516 227.4792 393.763" stroke="#000000" stroke-width="0.8289304" fill="none" /><path id="1280" transform="matrix(1 0 0 -1 0 834)" d="M195.8013 419.6661C 195.8013 419.6661 206.5341 423.6768 214.1038 418.1105" stroke="#FFFFFF" stroke-width="0.8289304" fill="none" /><path id="1281" transform="matrix(1 0 0 -1 0 834)" d="M196.2986 422.1369C 196.2986 422.1369 207.0314 426.1476 214.601 420.5804" stroke="#FFFFFF" stroke-width="0.8289304" fill="none" /><path id="1282" transform="matrix(1 0 0 -1 0 834)" d="M136.5931 409.8518C 136.5931 409.8518 144.728 416.9027 153.4869 414.0211" stroke="#000000" stroke-width="0.8289304" fill="none" /><path id="1283" transform="matrix(1 0 0 -1 0 834)" d="M136.2805 411.9522C 136.2805 411.9522 144.4154 419.0031 153.1744 416.1215" stroke="#000000" stroke-width="0.8289304" fill="none" /></g><g clip-path="url(#29)"></g><g clip-path="url(#30)"><g transform="matrix(1.006449 0 0 0.9985386 355.366 330.6143)"><g transform="matrix(1 0 0 1 0 0)"><image x="0" y="0" xlink:href="img_10.png" width="37" height="57" /></g></g></g><g clip-path="url(#31)"></g><g clip-path="url(#32)"><g transform="matrix(1.023622 0 0 0.9973868 112.672 450.1403)"><g transform="matrix(1 0 0 1 0 0)"><image x="0" y="0" xlink:href="img_06.png" width="27" height="38" /></g></g></g><g clip-path="url(#33)"></g><g clip-path="url(#34)"><g transform="matrix(-1.023622 0 0 0.9973868 321.728 450.1403)"><g transform="matrix(1 0 0 1 0 0)"><image x="0" y="0" xlink:href="img_06.png" width="27" height="38" /></g></g></g><g clip-path="url(#35)"></g><g clip-path="url(#36)"><g transform="matrix(0.9962126 0 0 1.000981 133.898 572.436)"><g transform="matrix(1 0 0 1 0 0)"><image x="0" y="0" xlink:href="img_11.png" width="56" height="105" /></g></g></g><g clip-path="url(#37)"></g><g clip-path="url(#38)"><g transform="matrix(0.9984789 0 0 1.002533 189.685 583.9974)"><g transform="matrix(1 0 0 1 0 0)"><image x="0" y="0" xlink:href="img_12.png" width="57" height="93" /></g></g></g><g clip-path="url(#39)"></g><g clip-path="url(#40)"><g transform="matrix(1.003777 0 0 1.002533 279.281 583.9974)"><g transform="matrix(1 0 0 1 0 0)"><image x="0" y="0" xlink:href="img_13.png" width="66" height="93" /></g></g></g><g clip-path="url(#41)"><path id="1649" transform="matrix(1 0 0 -1 0 834)" d="M143.4692 181.8495C 138.6919 178.855 132.7158 175.8535 125.2394 173.023" stroke="#000000" stroke-width="0.7865158" fill="none" /></g><path id="1650" transform="matrix(1 0 0 -1 0 834)" d="M123.043 172.213L125.748 174.746L125.69 173.201L126.788 172.088z" stroke="none" fill="#000000" fill-rule="nonzero" /><g clip-path="url(#42)"><path id="1651" transform="matrix(1 0 0 -1 0 834)" d="M162.4871 206.1223C 162.4871 206.1223 162.9141 194.0403 143.4692 181.8495" stroke="#FFFFFF" stroke-width="0.7865158" fill="none" /><path id="1652" transform="matrix(1 0 0 -1 0 834)" d="M96.259 195.981C 96.259 185.213 105.195 176.483 116.218 176.483C 127.241 176.483 136.177 185.213 136.177 195.981C 136.177 206.749 127.241 215.478 116.218 215.478C 105.195 215.478 96.259 206.749 96.259 195.981" stroke="none" fill="#FFFFFF" fill-rule="nonzero" /></g><g clip-path="url(#43)"></g><g clip-path="url(#44)"><g transform="matrix(0.9999268 0 0 1.002775 92.5427 599.2065)"><g transform="matrix(1 0 0 1 0 0)"><image x="0" y="0" xlink:href="img_14.png" width="41" height="60" /></g></g></g><g clip-path="url(#45)"><path id="1654" transform="matrix(1 0 0 -1 0 834)" d="M96.25961 195.9813C 96.25961 185.2137 105.1956 176.4841 116.218 176.4841C 127.2415 176.4841 136.1768 185.2137 136.1768 195.9813C 136.1768 206.7488 127.2415 215.4785 116.218 215.4785C 105.1956 215.4785 96.25961 206.7488 96.25961 195.9813z" stroke="#000000" stroke-width="0.7865158" fill="none" /><path id="1655" transform="matrix(1 0 0 -1 0 834)" d="M237.447 173.3946C 241.7771 170.745 247.0845 168.1378 253.5826 165.7501" stroke="#000000" stroke-width="0.7865158" fill="none" /></g><path id="1656" transform="matrix(1 0 0 -1 0 834)" d="M253.127 165.919L253.049 167.463L255.787 164.964L252.045 164.793z" stroke="none" fill="#000000" fill-rule="nonzero" /><g clip-path="url(#46)"><path id="1657" transform="matrix(1 0 0 -1 0 834)" d="M218.2915 195.9813C 218.2915 195.9813 219.5753 184.3243 237.447 173.3946" stroke="#FFFFFF" stroke-width="0.7865158" fill="none" /><path id="1658" transform="matrix(1 0 0 -1 0 834)" d="M238.508 189.305C 238.508 178.421 247.54 169.598 258.682 169.598C 269.823 169.598 278.855 178.421 278.855 189.305C 278.855 200.19 269.823 209.013 258.682 209.013C 247.54 209.013 238.508 200.19 238.508 189.305" stroke="none" fill="#FFFFFF" fill-rule="nonzero" /></g><g clip-path="url(#47)"></g><g clip-path="url(#48)"><g transform="matrix(0.9982877 0 0 1.003606 220.563 597.2318)"><g transform="matrix(1 0 0 1 0 0)"><image x="0" y="0" xlink:href="img_15.png" width="57" height="73" /></g></g></g><g clip-path="url(#49)"><path id="1660" transform="matrix(1 0 0 -1 0 834)" d="M238.5103 189.3063C 238.5103 178.4211 247.5407 169.5976 258.6826 169.5976C 269.8255 169.5976 278.8579 178.4211 278.8579 189.3063C 278.8579 200.1895 269.8255 209.0121 258.6826 209.0121C 247.5407 209.0121 238.5103 200.1895 238.5103 189.3063z" stroke="#000000" stroke-width="0.7865158" fill="none" /><path id="1661" transform="matrix(1 0 0 -1 0 834)" d="M324.489 177.868C 324.489 166.753 333.713 157.743 345.091 157.743C 356.469 157.743 365.693 166.753 365.693 177.868C 365.693 188.983 356.469 197.994 345.091 197.994C 333.713 197.994 324.489 188.983 324.489 177.868" stroke="none" fill="#FFFFFF" fill-rule="nonzero" /></g><g clip-path="url(#50)"></g><g clip-path="url(#51)"><g transform="matrix(0.9988855 0 0 1.010239 304.922 625.9902)"><g transform="matrix(1 0 0 1 0 0)"><image x="0" y="0" xlink:href="img_16.png" width="55" height="62" /></g></g></g><g clip-path="url(#52)"><path id="1663" transform="matrix(1 0 0 -1 0 834)" d="M324.4916 177.8677C 324.4916 166.7532 333.7153 157.7419 345.0939 157.7419C 356.4715 157.7419 365.6952 166.7532 365.6952 177.8677C 365.6952 188.9831 356.4715 197.9935 345.0939 197.9935C 333.7153 197.9935 324.4916 188.9831 324.4916 177.8677z" stroke="#000000" stroke-width="0.7865158" fill="none" /><path id="1664" transform="matrix(1 0 0 -1 0 834)" d="M335.2025 210.6062C 335.2025 210.6062 338.2629 208.3222 341.3395 210.6062C 344.4151 212.8902 348.2069 210.6062 348.2069 210.6062C 348.2069 210.6062 352.0059 208.6078 355.9505 210.6062C 356.9187 211.0974 357.6501 211.5184 358.2005 211.8761" stroke="#000000" stroke-width="0.7865158" fill="none" /></g><path id="1665" transform="matrix(1 0 0 -1 0 834)" d="M357.791 211.604L356.356 212.254L359.893 213.46L358.309 210.143z" stroke="none" fill="#000000" fill-rule="nonzero" /><g clip-path="url(#53)"><path id="1666" transform="matrix(1 0 0 -1 0 834)" d="M188.517 263.701C 186.221 263.701 184.36 261.883 184.36 259.64C 184.36 257.398 186.221 255.579 188.517 255.579C 190.813 255.579 192.674 257.398 192.674 259.64C 192.674 261.883 190.813 263.701 188.517 263.701M188.517 256.073C 186.513 256.073 184.888 257.66 184.888 259.618C 184.888 261.576 186.513 263.163 188.517 263.163C 190.521 263.163 192.146 261.576 192.146 259.618C 192.146 257.66 190.521 256.073 188.517 256.073" stroke="none" fill="#000000" fill-rule="nonzero" /><path id="1668" transform="matrix(1 0 0 -1 0 834)" d="M339.357 263.724C 337.061 263.724 335.2 261.906 335.2 259.663C 335.2 257.421 337.061 255.602 339.357 255.602C 341.653 255.602 343.514 257.421 343.514 259.663C 343.514 261.906 341.653 263.724 339.357 263.724M339.357 256.096C 337.353 256.096 335.729 257.683 335.729 259.641C 335.729 261.599 337.353 263.186 339.357 263.186C 341.361 263.186 342.986 261.599 342.986 259.641C 342.986 257.683 341.361 256.096 339.357 256.096" stroke="none" fill="#000000" fill-rule="nonzero" /></g><g transform="matrix(1.009614 0 0 0.9985386 359.85 552.3863)"><g transform="matrix(1 0 0 1 0 0)"><image x="0" y="0" xlink:href="img_05.png" width="28" height="57" /></g></g><g clip-path="url(#54)"></g><g clip-path="url(#55)"><g transform="matrix(1.023622 0 0 0.9973868 111.552 574.8583)"><g transform="matrix(1 0 0 1 0 0)"><image x="0" y="0" xlink:href="img_06.png" width="27" height="38" /></g></g></g><g clip-path="url(#56)"></g><g clip-path="url(#57)"><g transform="matrix(-1.023622 0 0 0.9973868 269.995 579.8233)"><g transform="matrix(1 0 0 1 0 0)"><image x="0" y="0" xlink:href="img_06.png" width="27" height="38" /></g></g></g><g clip-path="url(#58)"></g><g clip-path="url(#59)"><g transform="matrix(1.022789 0 0 0.9967948 255.17 673.6318)"><g transform="matrix(1 0 0 1 0 0)"><image x="0" y="0" xlink:href="img_17.png" width="27" height="38" /></g></g></g><g clip-path="url(#60)"></g><g clip-path="url(#61)"><g transform="matrix(-1.022789 0 0 0.9967948 344.107 674.0088)"><g transform="matrix(1 0 0 1 0 0)"><image x="0" y="0" xlink:href="img_17.png" width="27" height="38" /></g></g></g><path id="1761" transform="matrix(1 0 0 -1 0 834)" d="M633 15L633 0M633 819L633 834M21 15L21 0M21 819L21 834M639 21L654 21M15 21L0 21M639 813L654 813M15 813L0 813" stroke="#000000" stroke-width="1.25" fill="none" /><path id="1762" transform="matrix(1 0 0 -1 0 834)" d="M633 15L633 0M633 819L633 834M21 15L21 0M21 819L21 834M639 21L654 21M15 21L0 21M639 813L654 813M15 813L0 813" stroke="#000000" stroke-width="0.25" fill="none" /><path id="1763" transform="matrix(1 0 0 -1 0 834)" d="M32.2781 9.28203C 32.2781 9.516021 32.2961 9.58203 32.3559 9.62383C 32.416 9.66602 32.5719 9.69609 32.8238 9.69609C 33.2262 9.69609 33.5738 9.62383 33.8441 9.45C 34.3238 9.167971 34.552 8.63398 34.552 8.016021C 34.552 7.05586 34.0359 6.21602 32.9141 6.21602C 32.4762 6.21602 32.2781 6.33008 32.2781 6.78594zM31.252 9.900001L31.252 9.726171C 31.7141 9.68984 31.7621 9.66602 31.7621 9.150001L31.7621 9.150001L31.7621 6.74414C 31.7621 6.23398 31.7141 6.19805 31.198 6.16211L31.198 6.16211L31.198 6L31.198 6L32.6199 6C 33.3578 6 33.952 6.15 34.402 6.49805C 34.8641 6.84609 35.1398 7.38008 35.1398 8.1C 35.1398 8.664061 34.9301 9.101951 34.6359 9.38984C 34.2641 9.74414 33.7 9.900001 32.9379 9.900001z" stroke="#000000" stroke-width="0.4" fill="none" /><path id="1764" transform="matrix(1 0 0 -1 0 834)" d="M38.3801 6.97813C 38.2898 6.70195 38.1758 6.51016 38.0738 6.38984C 37.9359 6.23398 37.732 6.20391 37.402 6.20391C 37.15 6.20391 36.9461 6.21602 36.8258 6.28203C 36.718 6.34219 36.6879 6.46211 36.6879 6.78594L36.6879 6.78594L36.6879 9.15586C 36.6879 9.66602 36.7418 9.69609 37.216 9.73203L37.216 9.73203L37.216 9.900001L37.216 9.900001L35.65 9.900001L35.65 9.900001L35.65 9.73203C 36.1359 9.69609 36.1777 9.66602 36.1777 9.15586L36.1777 9.15586L36.1777 6.75586C 36.1777 6.24609 36.1301 6.20391 35.6258 6.16797L35.6258 6.16797L35.6258 6L35.6258 6L38.3438 6C 38.398 6.18594 38.5238 6.75586 38.5598 6.94219z" stroke="#000000" stroke-width="0.4" fill="none" /><path id="1765" transform="matrix(1 0 0 -1 0 834)" d="M41.0918 9.023829C 41.0438 9.40195 41.0141 9.63594 40.9898 9.851951C 40.7617 9.92383 40.5098 9.989841 40.234 9.989841C 39.4598 9.989841 38.998 9.49805 38.998 8.921881C 38.998 8.24414 39.6039 7.94414 39.9879 7.73984C 40.4379 7.5 40.768 7.28984 40.768 6.84609C 40.768 6.40781 40.498 6.12617 40.048 6.12617C 39.4301 6.12617 39.1598 6.73203 39.0641 7.09805L39.0641 7.09805L38.8898 7.05586C 38.9258 6.767971 39.0039 6.25195 39.052 6.12617C 39.1059 6.09609 39.1961 6.05391 39.3461 6C 39.4961 5.95781 39.6879 5.91016 39.934 5.91016C 40.732 5.91016 41.266 6.41406 41.266 7.04414C 41.266 7.71602 40.6961 7.99805 40.2277 8.23789C 39.7539 8.48398 39.466 8.68789 39.466 9.12617C 39.466 9.45 39.6699 9.78594 40.132 9.78594C 40.6539 9.78594 40.8098 9.371881 40.918 8.98789z" stroke="#000000" stroke-width="0.4" fill="none" /><path id="1766" transform="matrix(1 0 0 -1 0 834)" d="M46.648 6L46.648 6.16797C 46.1258 6.21602 46.1078 6.24609 46.0898 6.88203L46.0898 6.88203L46.0301 9.05391C 46.0117 9.671881 46.0539 9.68398 46.582 9.73203L46.582 9.73203L46.582 9.900001L46.582 9.900001L45.5617 9.900001L45.5617 9.900001L44.1758 6.9L44.1758 6.9L42.8078 9.900001L42.8078 9.900001L41.8238 9.900001L41.8238 9.900001L41.8238 9.73203C 42.3699 9.67813 42.4 9.653911 42.3461 8.87383L42.3461 8.87383L42.2617 7.626171C 42.2141 7.00195 42.1777 6.73789 42.148 6.528131C 42.1059 6.27617 41.9859 6.21016 41.6379 6.16797L41.6379 6.16797L41.6379 6L41.6379 6L43.0359 6L43.0359 6L43.0359 6.16797C 42.6398 6.21016 42.4961 6.25195 42.484 6.53984C 42.4777 6.78008 42.4777 7.04414 42.502 7.53594L42.502 7.53594L42.5918 9.24609L42.5918 9.24609L42.6039 9.24609L42.6039 9.24609L43.948 6.04219L43.948 6.04219L44.068 6.04219L44.068 6.04219L45.532 9.33008L45.532 9.33008L45.5559 9.33008L45.5559 9.33008L45.5738 6.88203C 45.5801 6.24609 45.5559 6.21602 45.0699 6.16797L45.0699 6.16797L45.0699 6z" stroke="#000000" stroke-width="0.4" fill="none" /><path id="1767" transform="matrix(1 0 0 -1 0 834)" d="M51.8738 7.05586C 51.5738 6.45586 51.2496 6.12617 50.6379 6.12617C 49.7258 6.12617 49.0656 6.89414 49.0656 8.016021C 49.0656 8.92813 49.5996 9.773829 50.602 9.773829C 51.2496 9.773829 51.6098 9.516021 51.7656 8.88008L51.7656 8.88008L51.9457 8.921881C 51.9098 9.24609 51.8738 9.48594 51.8258 9.828131C 51.6578 9.85781 51.2496 9.989841 50.7637 9.989841C 49.4258 9.989841 48.4539 9.15586 48.4539 7.89609C 48.4539 6.94219 49.1078 5.91016 50.602 5.91016C 51.034 5.91016 51.5379 6.03008 51.7059 6.07188C 51.8137 6.26992 51.9637 6.71406 52.0477 6.98984z" stroke="#000000" stroke-width="0.4" fill="none" /><path id="1768" transform="matrix(1 0 0 -1 0 834)" d="M54.3398 9.773829C 55.1258 9.773829 55.7855 9.101951 55.7855 7.83594C 55.7855 6.68398 55.1855 6.12617 54.5195 6.12617C 53.6738 6.12617 53.0559 6.94805 53.0559 8.076171C 53.0559 9.19805 53.6676 9.773829 54.3398 9.773829zM54.4598 9.989841C 53.1996 9.989841 52.4438 8.98789 52.4438 7.90781C 52.4438 6.75586 53.3078 5.91016 54.3938 5.91016C 55.4918 5.91016 56.3977 6.70195 56.3977 7.99805C 56.3977 9.19805 55.4797 9.989841 54.4598 9.989841z" stroke="#000000" stroke-width="0.4" fill="none" /><path id="1769" transform="matrix(1 0 0 -1 0 834)" d="M61.8277 6L61.8277 6.16797C 61.3059 6.21602 61.2879 6.24609 61.2695 6.88203L61.2695 6.88203L61.2098 9.05391C 61.1918 9.671881 61.2336 9.68398 61.7617 9.73203L61.7617 9.73203L61.7617 9.900001L61.7617 9.900001L60.7418 9.900001L60.7418 9.900001L59.3559 6.9L59.3559 6.9L57.9879 9.900001L57.9879 9.900001L57.0035 9.900001L57.0035 9.900001L57.0035 9.73203C 57.5496 9.67813 57.5797 9.653911 57.5258 8.87383L57.5258 8.87383L57.4418 7.626171C 57.3938 7.00195 57.3578 6.73789 57.3277 6.528131C 57.2855 6.27617 57.1656 6.21016 56.8176 6.16797L56.8176 6.16797L56.8176 6L56.8176 6L58.2156 6L58.2156 6L58.2156 6.16797C 57.8195 6.21016 57.6758 6.25195 57.6637 6.53984C 57.6578 6.78008 57.6578 7.04414 57.6816 7.53594L57.6816 7.53594L57.7719 9.24609L57.7719 9.24609L57.7836 9.24609L57.7836 9.24609L59.1277 6.04219L59.1277 6.04219L59.2477 6.04219L59.2477 6.04219L60.7117 9.33008L60.7117 9.33008L60.7355 9.33008L60.7355 9.33008L60.7535 6.88203C 60.7598 6.24609 60.7355 6.21602 60.2496 6.16797L60.2496 6.16797L60.2496 6z" stroke="#000000" stroke-width="0.4" fill="none" /><path id="1770" transform="matrix(1 0 0 -1 0 834)" d="M63.8258 6L63.8258 6.16797C 63.3336 6.20391 63.2855 6.23398 63.2855 6.75L63.2855 6.75L63.2855 9.150001C 63.2855 9.66016 63.3336 9.69609 63.8258 9.73203L63.8258 9.73203L63.8258 9.900001L63.8258 9.900001L62.2355 9.900001L62.2355 9.900001L62.2355 9.73203C 62.7277 9.69609 62.7758 9.66016 62.7758 9.150001L62.7758 9.150001L62.7758 6.75C 62.7758 6.23984 62.7277 6.20391 62.2355 6.16797L62.2355 6.16797L62.2355 6z" stroke="#000000" stroke-width="0.4" fill="none" /><path id="1771" transform="matrix(1 0 0 -1 0 834)" d="M66.5074 9.023829C 66.4598 9.40195 66.4297 9.63594 66.4055 9.851951C 66.1777 9.92383 65.9258 9.989841 65.6496 9.989841C 64.8758 9.989841 64.4137 9.49805 64.4137 8.921881C 64.4137 8.24414 65.0195 7.94414 65.4035 7.73984C 65.8535 7.5 66.1836 7.28984 66.1836 6.84609C 66.1836 6.40781 65.9137 6.12617 65.46371 6.12617C 64.8457 6.12617 64.5758 6.73203 64.4797 7.09805L64.4797 7.09805L64.3055 7.05586C 64.3418 6.767971 64.4195 6.25195 64.46761 6.12617C 64.52151 6.09609 64.6117 6.05391 64.7617 6C 64.91171 5.95781 65.1035 5.91016 65.3496 5.91016C 66.1477 5.91016 66.6816 6.41406 66.6816 7.04414C 66.6816 7.71602 66.1117 7.99805 65.6438 8.23789C 65.1695 8.48398 64.8816 8.68789 64.8816 9.12617C 64.8816 9.45 65.0855 9.78594 65.5477 9.78594C 66.0695 9.78594 66.2258 9.371881 66.3336 8.98789z" stroke="#000000" stroke-width="0.4" fill="none" /><path id="1772" transform="matrix(1 0 0 -1 0 834)" d="M69.4055 7.68008L68.3016 7.68008C 68.4816 8.171881 68.6734 8.69414 68.8656 9.21016L68.8656 9.21016L68.8777 9.21016zM70.9355 6L70.9355 6.16797C 70.5457 6.20391 70.46761 6.25781 70.2758 6.77383C 69.89181 7.81797 69.4895 8.95781 69.11761 9.989841L69.11761 9.989841L68.9316 9.93594L68.9316 9.93594L67.68951 6.78594C 67.4797 6.25781 67.3957 6.22188 67.0176 6.16797L67.0176 6.16797L67.0176 6L67.0176 6L68.3195 6L68.3195 6L68.3195 6.16797C 67.8695 6.21016 67.81561 6.26992 67.9477 6.64805C 68.0258 6.9 68.1156 7.15195 68.2117 7.42188L68.2117 7.42188L69.4895 7.42188C 69.62151 7.05586 69.74181 6.73203 69.8195 6.49805C 69.8977 6.26406 69.8438 6.21602 69.4656 6.16797L69.4656 6.16797L69.4656 6z" stroke="#000000" stroke-width="0.4" fill="none" /><path id="1773" transform="matrix(1 0 0 -1 0 834)" d="M71.7273 5.92813C 71.9195 5.92813 72.06371 6.06602 72.06371 6.27617C 72.06371 6.46797 71.9195 6.61797 71.7273 6.61797C 71.5355 6.61797 71.3914 6.46797 71.3914 6.27617C 71.3914 6.06602 71.5355 5.92813 71.7273 5.92813z" stroke="#000000" stroke-width="0.4" fill="none" /><path id="1774" transform="matrix(1 0 0 -1 0 834)" d="M73.9234 6L73.9234 6.15586C 73.53951 6.19219 73.4977 6.22813 73.4977 6.63594L73.4977 6.63594L73.4977 8.70586C 73.2336 8.59805 72.9516 8.51992 72.6453 8.471881L72.6453 8.471881L72.6453 8.328131C 73.0055 8.26797 73.0234 8.24414 73.0234 7.871881L73.0234 7.871881L73.0234 6.63594C 73.0234 6.22813 72.9816 6.19219 72.6035 6.15586L72.6035 6.15586L72.6035 6zM73.2215 9.216021C 73.3953 9.216021 73.52731 9.36016 73.52731 9.52188C 73.52731 9.70195 73.3953 9.83398 73.2273 9.83398C 73.06561 9.83398 72.9215 9.70195 72.9215 9.52188C 72.9215 9.36016 73.06561 9.216021 73.2215 9.216021z" stroke="#000000" stroke-width="0.4" fill="none" /><path id="1775" transform="matrix(1 0 0 -1 0 834)" d="M77.1574 6L77.1574 6.15586C 76.8094 6.19219 76.7793 6.21602 76.7793 6.62383L76.7793 6.62383L76.7793 7.78203C 76.7793 8.36406 76.4793 8.69414 76.0055 8.69414C 75.8313 8.69414 75.67541 8.621881 75.5074 8.51406C 75.3574 8.41211 75.2254 8.32188 75.1055 8.23203L75.1055 8.23203L75.1055 8.712111C 74.8414 8.59219 74.5594 8.51992 74.27151 8.466021L74.27151 8.466021L74.27151 8.328131C 74.5953 8.26797 74.6313 8.25 74.6313 7.86602L74.6313 7.86602L74.6313 6.62383C 74.6313 6.22813 74.6016 6.19805 74.19341 6.15586L74.19341 6.15586L74.19341 6L74.19341 6L75.4953 6L75.4953 6L75.4953 6.15586C 75.1414 6.19219 75.1055 6.21602 75.1055 6.62383L75.1055 6.62383L75.1055 8.03398C 75.2855 8.18984 75.5195 8.33984 75.7594 8.33984C 76.1613 8.33984 76.3055 8.069921 76.3055 7.65586L76.3055 7.65586L76.3055 6.65391C 76.3055 6.23984 76.2633 6.19219 75.9094 6.15586L75.9094 6.15586L75.9094 6z" stroke="#000000" stroke-width="0.4" fill="none" /><path id="1776" transform="matrix(1 0 0 -1 0 834)" d="M79.4734 6.51016C 79.32931 6.40195 79.1133 6.30586 78.8973 6.30586C 78.5133 6.30586 78.0754 6.65391 78.0754 7.36797C 78.0754 8.23789 78.57931 8.471881 78.8555 8.471881C 79.0832 8.471881 79.32931 8.37617 79.4734 8.16602zM80.4035 6.30586L80.2113 6.32383C 79.9895 6.34805 79.9473 6.37813 79.9473 6.68984L79.9473 6.68984L79.9473 10.2719C 79.7254 10.1941 79.3234 10.1039 79.0113 10.0621L79.0113 10.0621L79.0113 9.917971C 79.44341 9.88789 79.4734 9.869921 79.4734 9.47383L79.4734 9.47383L79.4734 8.628131C 79.3355 8.67617 79.1613 8.69414 79.0773 8.69414C 78.2613 8.69414 77.5293 8.03984 77.5293 7.20586C 77.5293 6.36602 78.1594 5.92813 78.6395 5.92813C 78.7113 5.92813 78.87341 5.96406 79.1074 6.10195L79.1074 6.10195L79.4734 6.31797L79.4734 6.31797L79.4734 5.92813C 79.8215 6.05391 80.27151 6.13203 80.4035 6.15586z" stroke="#000000" stroke-width="0.4" fill="none" /><path id="1777" transform="matrix(1 0 0 -1 0 834)" d="M81.3813 8.24414C 81.4895 8.310161 81.6813 8.35781 81.84921 8.35781C 82.34731 8.35781 82.7676 7.96211 82.7676 7.278131C 82.7676 6.58203 82.4492 6.15586 81.9516 6.15586C 81.6336 6.16211 81.4535 6.37188 81.4176 6.49219C 81.3934 6.54609 81.3813 6.60586 81.3813 6.69609zM81.3813 8.42383L81.3813 10.2719C 81.1594 10.1941 80.7934 10.098 80.5113 10.0621L80.5113 10.0621L80.5113 9.92383C 80.8953 9.88789 80.9074 9.851951 80.9074 9.48008L80.9074 9.48008L80.9074 6.14414C 81.2375 5.98789 81.5434 5.92813 81.78951 5.92813C 82.59341 5.92813 83.2953 6.55195 83.2953 7.43398C 83.2953 8.14219 82.7555 8.69414 82.1133 8.69414C 82.0473 8.69414 81.9633 8.67617 81.86761 8.63398z" stroke="#000000" stroke-width="0.4" fill="none" /><path id="1778" transform="matrix(1 0 0 -1 0 834)" d="M88.1133 8.976171C 88.2633 9.19805 88.50311 9.45 88.8332 9.45C 89.15121 9.45 89.4031 9.257811 89.4031 8.88594C 89.4031 8.44219 88.9953 8.20781 88.44341 8.03398L88.44341 8.03398L88.4852 7.86016C 88.5813 7.88984 88.7254 7.92617 88.8691 7.92617C 89.2113 7.92617 89.6313 7.70391 89.6313 7.15195C 89.6313 6.55781 89.3313 6.23984 88.90511 6.23984C 88.5633 6.23984 88.3172 6.40781 88.1613 6.54609C 88.1133 6.58789 88.0652 6.58203 88.0172 6.54609C 87.9633 6.50391 87.8852 6.42617 87.8793 6.34805C 87.8672 6.27617 87.891 6.21016 87.9754 6.13203C 88.0531 6.06016 88.2992 5.92813 88.5754 5.92813C 89.007 5.92813 90.1473 6.37188 90.1473 7.34414C 90.1473 7.78203 89.841 8.153911 89.3133 8.25586L89.3133 8.25586L89.3133 8.26797C 89.4871 8.38789 89.6313 8.49609 89.7211 8.59219C 89.8352 8.70586 89.90701 8.84414 89.90701 9.01797C 89.90701 9.47383 89.5531 9.810161 89.0133 9.810161C 88.6953 9.810161 88.4191 9.66016 88.25121 9.47383L88.25121 9.47383L87.9871 9.09609z" stroke="#000000" stroke-width="0.4" fill="none" /><path id="1779" transform="matrix(1 0 0 -1 0 834)" d="M92.9551 6.83984C 92.77541 6.46211 92.6973 6.43789 92.373 6.43789L92.373 6.43789L91.25121 6.43789L91.25121 6.43789L92.1031 7.33203C 92.65511 7.91992 92.8953 8.273829 92.8953 8.79609C 92.8953 9.42617 92.4152 9.810161 91.8871 9.810161C 91.5391 9.810161 91.257 9.653911 91.0773 9.45586L91.0773 9.45586L90.7352 8.96992L90.7352 8.96992L90.8672 8.85C 91.023 9.08398 91.27541 9.40781 91.6832 9.40781C 92.1273 9.40781 92.391 9.11406 92.391 8.61016C 92.391 8.09414 92.0133 7.60195 91.641 7.15781C 91.341 6.81016 91.0051 6.46797 90.6691 6.13789L90.6691 6.13789L90.6691 6L90.6691 6L92.9133 6C 92.9852 6.26992 93.0453 6.53398 93.123 6.78594z" stroke="#000000" stroke-width="0.4" fill="none" /><path id="1780" transform="matrix(1 0 0 -1 0 834)" d="M95.6672 6L95.6672 6.16211C 95.1211 6.20391 95.0852 6.25195 95.0852 6.68398L95.0852 6.68398L95.0852 9.810161C 94.7551 9.67813 94.40121 9.56406 94.0172 9.49805L94.0172 9.49805L94.0172 9.36016L94.0172 9.36016L94.30511 9.34805C 94.5691 9.33594 94.59341 9.305861 94.59341 8.99414L94.59341 8.99414L94.59341 6.68398C 94.59341 6.25195 94.5633 6.20391 94.0172 6.16211L94.0172 6.16211L94.0172 6z" stroke="#000000" stroke-width="0.4" fill="none" /><path id="1799" transform="matrix(1 0 0 -1 0 834)" d="M554.472 6.83984C 554.292 6.46211 554.2141 6.43789 553.89 6.43789L553.89 6.43789L552.768 6.43789L552.768 6.43789L553.6201 7.33203C 554.1721 7.91992 554.412 8.273829 554.412 8.79609C 554.412 9.42617 553.932 9.810161 553.404 9.810161C 553.056 9.810161 552.774 9.653911 552.594 9.45586L552.594 9.45586L552.252 8.96992L552.252 8.96992L552.384 8.85C 552.54 9.08398 552.792 9.40781 553.2 9.40781C 553.644 9.40781 553.908 9.11406 553.908 8.61016C 553.908 8.09414 553.53 7.60195 553.158 7.15781C 552.858 6.81016 552.522 6.46797 552.186 6.13789L552.186 6.13789L552.186 6L552.186 6L554.43 6C 554.502 6.26992 554.562 6.53398 554.64 6.78594z" stroke="#000000" stroke-width="0.4" fill="none" /><path id="1800" transform="matrix(1 0 0 -1 0 834)" d="M555.792 9.3L557.19 9.3L557.19 9.3L557.346 9.68984L557.346 9.68984L557.31 9.73789L557.31 9.73789L555.6 9.73789L555.6 9.73789L555.366 7.90781C 555.504 7.96211 555.732 8.028131 555.984 8.028131C 556.638 8.028131 556.962 7.65 556.962 7.121881C 556.962 6.67188 556.71 6.23398 556.2 6.23398C 555.834 6.23398 555.588 6.42617 555.462 6.53984C 555.402 6.58789 555.354 6.58203 555.3 6.53984C 555.234 6.48008 555.18 6.40195 555.174 6.34219C 555.162 6.26992 555.192 6.22188 555.27 6.13789C 555.36 6.05391 555.612 5.92813 555.888 5.92813C 556.206 5.93398 556.608 6.08984 556.932 6.35391C 557.298 6.65391 557.466 6.99609 557.466 7.35586C 557.466 7.84805 557.076 8.369921 556.308 8.369921C 556.146 8.369921 555.864 8.273829 555.636 8.18984z" stroke="#000000" stroke-width="0.4" fill="none" /><path id="1801" transform="matrix(1 0 0 -1 0 834)" d="M559.548 9.989841L559.212 9.989841L559.212 9.989841L557.91 5.73594L557.91 5.73594L558.246 5.73594z" stroke="#000000" stroke-width="0.4" fill="none" /><path id="1802" transform="matrix(1 0 0 -1 0 834)" d="M561.18 9.61211C 561.72 9.61211 561.8701 8.72383 561.8701 7.871881C 561.8701 7.03203 561.726 6.13203 561.186 6.13203C 560.664 6.13203 560.49 7.03789 560.49 7.87813C 560.49 8.712111 560.634 9.61211 561.18 9.61211zM561.186 9.810161C 560.286 9.810161 559.956 8.74219 559.956 7.86602C 559.956 6.91797 560.28 5.92813 561.186 5.92813C 562.086 5.92813 562.404 6.99609 562.404 7.871881C 562.404 8.79609 562.086 9.810161 561.186 9.810161z" stroke="#000000" stroke-width="0.4" fill="none" /><path id="1803" transform="matrix(1 0 0 -1 0 834)" d="M564 9.61211C 564.582 9.61211 564.738 8.86797 564.738 8.33984C 564.738 8.21992 564.732 8.076171 564.7141 7.94414C 564.588 7.84805 564.384 7.77617 564.174 7.77617C 563.67 7.77617 563.3701 8.214061 563.3701 8.74219C 563.3701 9.09609 563.538 9.61211 564 9.61211zM564.078 9.810161C 563.304 9.810161 562.854 9.10781 562.854 8.53203C 562.854 7.90195 563.292 7.43398 563.928 7.43398C 564.042 7.43398 564.156 7.45781 564.288 7.53008L564.288 7.53008L564.69 7.74609C 564.492 6.83398 563.838 6.23398 562.98 6.08984L562.98 6.08984L563.01 5.91016C 563.16 5.91016 563.526 5.96992 563.85 6.10195C 564.66 6.42617 565.2661 7.20586 565.2661 8.310161C 565.2661 9.12617 564.828 9.810161 564.078 9.810161z" stroke="#000000" stroke-width="0.4" fill="none" /><path id="1804" transform="matrix(1 0 0 -1 0 834)" d="M567.294 9.989841L566.958 9.989841L566.958 9.989841L565.656 5.73594L565.656 5.73594L565.992 5.73594z" stroke="#000000" stroke-width="0.4" fill="none" /><path id="1805" transform="matrix(1 0 0 -1 0 834)" d="M569.9641 6.83984C 569.784 6.46211 569.706 6.43789 569.382 6.43789L569.382 6.43789L568.26 6.43789L568.26 6.43789L569.112 7.33203C 569.664 7.91992 569.904 8.273829 569.904 8.79609C 569.904 9.42617 569.424 9.810161 568.896 9.810161C 568.548 9.810161 568.2661 9.653911 568.086 9.45586L568.086 9.45586L567.744 8.96992L567.744 8.96992L567.876 8.85C 568.032 9.08398 568.284 9.40781 568.692 9.40781C 569.136 9.40781 569.4 9.11406 569.4 8.61016C 569.4 8.09414 569.022 7.60195 568.65 7.15781C 568.35 6.81016 568.014 6.46797 567.678 6.13789L567.678 6.13789L567.678 6L567.678 6L569.9221 6C 569.994 6.26992 570.054 6.53398 570.132 6.78594z" stroke="#000000" stroke-width="0.4" fill="none" /><path id="1806" transform="matrix(1 0 0 -1 0 834)" d="M571.806 9.61211C 572.346 9.61211 572.496 8.72383 572.496 7.871881C 572.496 7.03203 572.352 6.13203 571.812 6.13203C 571.29 6.13203 571.116 7.03789 571.116 7.87813C 571.116 8.712111 571.26 9.61211 571.806 9.61211zM571.812 9.810161C 570.912 9.810161 570.582 8.74219 570.582 7.86602C 570.582 6.91797 570.906 5.92813 571.812 5.92813C 572.712 5.92813 573.03 6.99609 573.03 7.871881C 573.03 8.79609 572.712 9.810161 571.812 9.810161z" stroke="#000000" stroke-width="0.4" fill="none" /><path id="1807" transform="matrix(1 0 0 -1 0 834)" d="M575.556 6L575.556 6.16211C 575.01 6.20391 574.9741 6.25195 574.9741 6.68398L574.9741 6.68398L574.9741 9.810161C 574.644 9.67813 574.29 9.56406 573.906 9.49805L573.906 9.49805L573.906 9.36016L573.906 9.36016L574.194 9.34805C 574.458 9.33594 574.482 9.305861 574.482 8.99414L574.482 8.99414L574.482 6.68398C 574.482 6.25195 574.452 6.20391 573.906 6.16211L573.906 6.16211L573.906 6z" stroke="#000000" stroke-width="0.4" fill="none" /><path id="1808" transform="matrix(1 0 0 -1 0 834)" d="M578.814 9.73789L576.522 9.73789C 576.498 9.48008 576.468 9.180079 576.414 8.85L576.414 8.85L576.588 8.85C 576.732 9.24609 576.768 9.3 577.164 9.3L577.164 9.3L578.46 9.3C 577.986 8.25586 577.308 7.01406 576.678 5.99414L576.678 5.99414L576.72 5.92813L576.72 5.92813L577.164 5.98789C 577.74 7.22383 578.298 8.44805 578.862 9.66602z" stroke="#000000" stroke-width="0.4" fill="none" /><path id="1809" transform="matrix(1 0 0 -1 0 834)" d="M584.531 9.61211C 585.071 9.61211 585.221 8.72383 585.221 7.871881C 585.221 7.03203 585.077 6.13203 584.537 6.13203C 584.015 6.13203 583.841 7.03789 583.841 7.87813C 583.841 8.712111 583.985 9.61211 584.531 9.61211zM584.537 9.810161C 583.637 9.810161 583.307 8.74219 583.307 7.86602C 583.307 6.91797 583.631 5.92813 584.537 5.92813C 585.437 5.92813 585.755 6.99609 585.755 7.871881C 585.755 8.79609 585.437 9.810161 584.537 9.810161z" stroke="#000000" stroke-width="0.4" fill="none" /><path id="1810" transform="matrix(1 0 0 -1 0 834)" d="M588.449 6.83984C 588.269 6.46211 588.191 6.43789 587.867 6.43789L587.867 6.43789L586.7451 6.43789L586.7451 6.43789L587.597 7.33203C 588.149 7.91992 588.389 8.273829 588.389 8.79609C 588.389 9.42617 587.909 9.810161 587.381 9.810161C 587.033 9.810161 586.751 9.653911 586.571 9.45586L586.571 9.45586L586.229 8.96992L586.229 8.96992L586.361 8.85C 586.517 9.08398 586.769 9.40781 587.177 9.40781C 587.621 9.40781 587.885 9.11406 587.885 8.61016C 587.885 8.09414 587.507 7.60195 587.135 7.15781C 586.835 6.81016 586.499 6.46797 586.163 6.13789L586.163 6.13789L586.163 6L586.163 6L588.407 6C 588.479 6.26992 588.539 6.53398 588.617 6.78594z" stroke="#000000" stroke-width="0.4" fill="none" /><path id="1811" transform="matrix(1 0 0 -1 0 834)" d="M589.5471 5.92813C 589.739 5.92813 589.883 6.06602 589.883 6.27617C 589.883 6.46797 589.739 6.61797 589.5471 6.61797C 589.355 6.61797 589.211 6.46797 589.211 6.27617C 589.211 6.06602 589.355 5.92813 589.5471 5.92813zM589.541 8.466021C 589.3491 8.466021 589.211 8.328131 589.211 8.13008C 589.211 7.92617 589.3491 7.78203 589.541 7.78203C 589.733 7.78203 589.877 7.92617 589.877 8.13008C 589.877 8.328131 589.733 8.466021 589.541 8.466021z" stroke="#000000" stroke-width="0.4" fill="none" /><path id="1812" transform="matrix(1 0 0 -1 0 834)" d="M591.905 7.35L590.723 7.35C 591.119 8.016021 591.509 8.58594 591.893 9.119921L591.893 9.119921L591.905 9.119921zM592.961 7.06797L592.961 7.35L592.961 7.35L592.385 7.35L592.385 7.35L592.385 9.79219L592.385 9.79219L592.145 9.79219C 591.527 8.976171 590.915 8.08789 590.345 7.23594L590.345 7.23594L590.345 7.06797L590.345 7.06797L591.905 7.06797L591.905 7.06797L591.905 6.63594C 591.905 6.23984 591.881 6.20391 591.359 6.16211L591.359 6.16211L591.359 6L591.359 6L592.895 6L592.895 6L592.895 6.16211C 592.409 6.20391 592.385 6.23398 592.385 6.63594L592.385 6.63594L592.385 7.06797z" stroke="#000000" stroke-width="0.4" fill="none" /><path id="1813" transform="matrix(1 0 0 -1 0 834)" d="M594.017 9.3L595.415 9.3L595.415 9.3L595.571 9.68984L595.571 9.68984L595.535 9.73789L595.535 9.73789L593.825 9.73789L593.825 9.73789L593.591 7.90781C 593.729 7.96211 593.957 8.028131 594.209 8.028131C 594.863 8.028131 595.187 7.65 595.187 7.121881C 595.187 6.67188 594.935 6.23398 594.425 6.23398C 594.059 6.23398 593.813 6.42617 593.687 6.53984C 593.627 6.58789 593.579 6.58203 593.525 6.53984C 593.459 6.48008 593.405 6.40195 593.399 6.34219C 593.387 6.26992 593.417 6.22188 593.4951 6.13789C 593.585 6.05391 593.837 5.92813 594.113 5.92813C 594.431 5.93398 594.833 6.08984 595.157 6.35391C 595.523 6.65391 595.691 6.99609 595.691 7.35586C 595.691 7.84805 595.301 8.369921 594.533 8.369921C 594.371 8.369921 594.0891 8.273829 593.861 8.18984z" stroke="#000000" stroke-width="0.4" fill="none" /><path id="1814" transform="matrix(1 0 0 -1 0 834)" d="M596.675 5.92813C 596.867 5.92813 597.011 6.06602 597.011 6.27617C 597.011 6.46797 596.867 6.61797 596.675 6.61797C 596.483 6.61797 596.3391 6.46797 596.3391 6.27617C 596.3391 6.06602 596.483 5.92813 596.675 5.92813zM596.669 8.466021C 596.477 8.466021 596.3391 8.328131 596.3391 8.13008C 596.3391 7.92617 596.477 7.78203 596.669 7.78203C 596.861 7.78203 597.005 7.92617 597.005 8.13008C 597.005 8.328131 596.861 8.466021 596.669 8.466021z" stroke="#000000" stroke-width="0.4" fill="none" /><path id="1815" transform="matrix(1 0 0 -1 0 834)" d="M599.033 7.35L597.851 7.35C 598.247 8.016021 598.637 8.58594 599.021 9.119921L599.021 9.119921L599.033 9.119921zM600.0891 7.06797L600.0891 7.35L600.0891 7.35L599.513 7.35L599.513 7.35L599.513 9.79219L599.513 9.79219L599.273 9.79219C 598.655 8.976171 598.043 8.08789 597.473 7.23594L597.473 7.23594L597.473 7.06797L597.473 7.06797L599.033 7.06797L599.033 7.06797L599.033 6.63594C 599.033 6.23984 599.009 6.20391 598.487 6.16211L598.487 6.16211L598.487 6L598.487 6L600.023 6L600.023 6L600.023 6.16211C 599.537 6.20391 599.513 6.23398 599.513 6.63594L599.513 6.63594L599.513 7.06797z" stroke="#000000" stroke-width="0.4" fill="none" /><path id="1816" transform="matrix(1 0 0 -1 0 834)" d="M601.715 6.11992C 601.337 6.11992 600.983 6.42617 600.983 6.97813C 600.983 7.30781 601.187 7.60781 601.475 7.8C 601.937 7.56602 602.363 7.30781 602.363 6.85781C 602.363 6.39609 602.081 6.11992 601.715 6.11992zM601.661 9.61797C 601.937 9.61797 602.249 9.396091 602.249 8.89219C 602.249 8.53203 602.087 8.310161 601.883 8.14805C 601.457 8.35781 601.103 8.555861 601.103 9C 601.103 9.305861 601.307 9.61797 601.661 9.61797zM601.721 9.810161C 601.079 9.810161 600.653 9.33008 600.653 8.826171C 600.653 8.40586 600.911 8.11797 601.301 7.89609C 601.097 7.76406 600.869 7.60195 600.773 7.51211C 600.6411 7.38594 600.503 7.21797 600.503 6.94219C 600.503 6.3 601.013 5.92813 601.655 5.92813C 602.165 5.92813 602.843 6.31211 602.843 7.01406C 602.843 7.53594 602.465 7.82383 602.051 8.057811C 602.321 8.24414 602.483 8.38789 602.525 8.44219C 602.639 8.57383 602.699 8.74805 602.699 8.921881C 602.699 9.40781 602.291 9.810161 601.721 9.810161z" stroke="#000000" stroke-width="0.4" fill="none" /><path id="1817" transform="matrix(1 0 0 -1 0 834)" d="M605.489 8.08203C 605.651 8.20195 605.897 8.33398 606.0891 8.33398C 606.527 8.33398 606.893 7.97383 606.893 7.33203C 606.893 6.65391 606.557 6.22188 606.053 6.22188C 605.8491 6.22188 605.621 6.31797 605.489 6.45586zM605.489 8.28008L605.489 8.75391C 605.207 8.63984 604.871 8.53789 604.619 8.49609L604.619 8.49609L604.619 8.351951C 604.991 8.30391 605.015 8.29219 605.015 7.90195L605.015 7.90195L605.015 5.18984C 605.015 4.79414 604.961 4.75781 604.577 4.72188L604.577 4.72188L604.577 4.56016L604.577 4.56016L605.999 4.56016L605.999 4.56016L605.999 4.72188C 605.531 4.76406 605.489 4.79414 605.489 5.25L605.489 5.25L605.489 6.03594C 605.567 5.99414 605.729 5.93398 605.903 5.92813C 606.683 6.07188 607.397 6.65391 607.397 7.56016C 607.397 8.153911 607.001 8.69414 606.335 8.69414C 606.263 8.69414 606.149 8.664061 606.041 8.60391z" stroke="#000000" stroke-width="0.4" fill="none" /><path id="1818" transform="matrix(1 0 0 -1 0 834)" d="M608.303 5.92813C 608.4951 5.92813 608.639 6.06602 608.639 6.27617C 608.639 6.46797 608.4951 6.61797 608.303 6.61797C 608.111 6.61797 607.967 6.46797 607.967 6.27617C 607.967 6.06602 608.111 5.92813 608.303 5.92813z" stroke="#000000" stroke-width="0.4" fill="none" /><path id="1819" transform="matrix(1 0 0 -1 0 834)" d="M615.125 6L615.125 6.15586C 614.783 6.19219 614.735 6.21602 614.735 6.61797L614.735 6.61797L614.735 7.77617C 614.735 8.36406 614.441 8.69414 613.973 8.69414C 613.805 8.69414 613.649 8.621881 613.523 8.53789C 613.373 8.44805 613.199 8.33398 613.025 8.20195C 612.905 8.51406 612.647 8.69414 612.359 8.69414C 612.167 8.69414 612.023 8.628131 611.867 8.53203C 611.687 8.417971 611.555 8.310161 611.429 8.226171L611.429 8.226171L611.429 8.712111C 611.165 8.59219 610.859 8.51406 610.595 8.466021L610.595 8.466021L610.595 8.328131C 610.9431 8.273829 610.961 8.24414 610.961 7.86016L610.961 7.86016L610.961 6.61797C 610.961 6.22813 610.907 6.19219 610.511 6.15586L610.511 6.15586L610.511 6L610.511 6L611.777 6L611.777 6L611.777 6.15586C 611.483 6.19219 611.435 6.22813 611.435 6.61797L611.435 6.61797L611.435 8.028131C 611.615 8.17813 611.8491 8.33984 612.0891 8.33984C 612.455 8.33984 612.611 8.09414 612.611 7.65L612.611 7.65L612.611 6.61797C 612.611 6.22188 612.557 6.19219 612.185 6.15586L612.185 6.15586L612.185 6L612.185 6L613.469 6L613.469 6L613.469 6.15586C 613.139 6.19219 613.085 6.22813 613.085 6.60586L613.085 6.60586L613.085 7.77617C 613.085 7.88984 613.079 7.95586 613.067 8.028131C 613.295 8.21992 613.523 8.33984 613.739 8.33984C 614.117 8.33984 614.267 8.069921 614.267 7.64414L614.267 7.64414L614.267 6.64219C 614.267 6.21602 614.201 6.19219 613.847 6.15586L613.847 6.15586L613.847 6z" stroke="#000000" stroke-width="0.4" fill="none" /><path id="1820" transform="matrix(1 0 0 -1 0 834)" d="M615.947 5.92813C 616.139 5.92813 616.283 6.06602 616.283 6.27617C 616.283 6.46797 616.139 6.61797 615.947 6.61797C 615.755 6.61797 615.611 6.46797 615.611 6.27617C 615.611 6.06602 615.755 5.92813 615.947 5.92813z" stroke="#000000" stroke-width="0.4" fill="none" /></g></g></svg>