<svg xmlns="http://www.w3.org/2000/svg" xmlns:xlink="http://www.w3.org/1999/xlink" id="body_1" preserveAspectRatio="xMinYMin meet" viewBox="0 0 849 1177"><defs><clipPath id="1"><path id="" clip-rule="evenodd" transform="matrix(1 0 0 1 0 0)" d="M0 883L0 -0.8900146L0 -0.8900146L637.276 -0.8900146L637.276 -0.8900146L637.276 883L637.276 883L0 883z" /></clipPath><clipPath id="2"><path id="" clip-rule="evenodd" transform="matrix(1 0 0 1 0 0)" d="M21 801.3398L616.276 801.3398L616.276 801.3398L616.276 68.29877L616.276 68.29877L21 68.29877z" /></clipPath><clipPath id="3"><path id="" clip-rule="evenodd" transform="matrix(1 0 0 1 0 0)" d="M21 862L616.276 862L616.276 862L616.276 20.10992L616.276 20.10992L21 20.10992z" /></clipPath><clipPath id="4"><path id="" clip-rule="evenodd" transform="matrix(1 0 0 1 0 0)" d="M21 862L616.276 862L616.276 862L616.276 20.10992L616.276 20.10992L21 20.10992z" /></clipPath><clipPath id="5"><path id="" clip-rule="evenodd" transform="matrix(1 0 0 1 0 0)" d="M21 862L616.276 862L616.276 862L616.276 20.10992L616.276 20.10992L21 20.10992z" /></clipPath><clipPath id="6"><path id="" clip-rule="evenodd" transform="matrix(1 0 0 1 0 0)" d="M21 862L616.276 862L616.276 862L616.276 20.10992L616.276 20.10992L21 20.10992z" /></clipPath><clipPath id="7"><path id="" clip-rule="evenodd" transform="matrix(1 0 0 1 0 0)" d="M21 862L616.276 862L616.276 862L616.276 20.10992L616.276 20.10992L21 20.10992z" /></clipPath><clipPath id="8"><path id="" clip-rule="evenodd" transform="matrix(1 0 0 1 0 0)" d="M21 862L616.276 862L616.276 862L616.276 20.10992L616.276 20.10992L21 20.10992z" /></clipPath><clipPath id="9"><path id="" clip-rule="evenodd" transform="matrix(1 0 0 1 0 0)" d="M21 862L616.276 862L616.276 862L616.276 20.10992L616.276 20.10992L21 20.10992z" /></clipPath><clipPath id="10"><path id="" clip-rule="evenodd" transform="matrix(1 0 0 1 0 0)" d="M21 862L616.276 862L616.276 862L616.276 20.10992L616.276 20.10992L21 20.10992z" /></clipPath><clipPath id="11"><path id="" clip-rule="evenodd" transform="matrix(1 0 0 1 0 0)" d="M21 862L616.276 862L616.276 862L616.276 20.10992L616.276 20.10992L21 20.10992z" /></clipPath><clipPath id="12"><path id="" clip-rule="evenodd" transform="matrix(1 0 0 1 0 0)" d="M21 862L616.276 862L616.276 862L616.276 20.10992L616.276 20.10992L21 20.10992z" /></clipPath><clipPath id="13"><path id="" clip-rule="evenodd" transform="matrix(1 0 0 1 0 0)" d="M21 862L616.276 862L616.276 862L616.276 20.10992L616.276 20.10992L21 20.10992z" /></clipPath><clipPath id="14"><path id="" clip-rule="evenodd" transform="matrix(1 0 0 1 0 0)" d="M21 862L616.276 862L616.276 862L616.276 20.10992L616.276 20.10992L21 20.10992z" /></clipPath><clipPath id="15"><path id="" clip-rule="evenodd" transform="matrix(1 0 0 1 0 0)" d="M21 862L616.276 862L616.276 862L616.276 20.10992L616.276 20.10992L21 20.10992z" /></clipPath><clipPath id="16"><path id="" clip-rule="evenodd" transform="matrix(1 0 0 1 0 0)" d="M21 862L616.276 862L616.276 862L616.276 20.10992L616.276 20.10992L21 20.10992z" /></clipPath><clipPath id="17"><path id="" clip-rule="evenodd" transform="matrix(1 0 0 1 0 0)" d="M21 862L616.276 862L616.276 862L616.276 20.10992L616.276 20.10992L21 20.10992z" /></clipPath></defs><g transform="matrix(1.333333 0 0 1.333333 0 0)"><g clip-path="url(#1)"><g clip-path="url(#2)"><g transform="matrix(1.000605 0 0 1.000219 19.9279 67.1792)"><g transform="matrix(1 0 0 1 0 0)"><image x="0" y="0" xlink:href="img_01.png" width="597" height="734" /></g></g></g><g clip-path="url(#3)"></g><path id="5" transform="matrix(1 0 0 -1 0 883)" d="M336.692 108.772L387.7373 108.772L387.7373 129.4353L336.692 129.4353z" stroke="none" fill="#616161" fill-rule="nonzero" /><g clip-path="url(#4)"><path id="6" transform="matrix(1 0 0 -1 0 883)" d="M256.046 116.827C 256.046 118.491 255.406 120.217 253.637 120.217C 251.83 120.217 251.247 118.532 251.247 116.827C 251.247 115.121 251.869 113.497 253.657 113.497C 255.464 113.497 256.046 115.121 256.046 116.827M248.586 122.105L251.208 122.105L251.208 122.105L251.208 120.765L251.208 120.765L251.247 120.765C 251.908 121.881 252.996 122.389 254.24 122.389C 257.387 122.389 258.805 119.73 258.805 116.746C 258.805 113.944 257.328 111.325 254.395 111.325C 253.19 111.325 252.044 111.873 251.383 112.909L251.383 112.909L251.345 112.909L251.345 112.909L251.345 107.915L251.345 107.915L248.586 107.915z" stroke="none" fill="#000000" fill-rule="nonzero" /></g><path id="7" transform="matrix(1 0 0 -1 0 883)" d="M259.564 122.105L262.323 122.105L262.323 111.6101L259.564 111.6101zM262.323 123.729L259.564 123.729L259.564 126.104L262.323 126.104z" stroke="none" fill="#000000" fill-rule="nonzero" /><g clip-path="url(#5)"><path id="8" transform="matrix(1 0 0 -1 0 883)" d="M267.377 122.105L269.398 122.105L269.398 122.105L269.398 120.177L269.398 120.177L267.377 120.177L267.377 120.177L267.377 114.98C 267.377 114.005 267.61 113.762 268.542 113.762C 268.834 113.762 269.106 113.781 269.398 113.843L269.398 113.843L269.398 111.589C 268.931 111.508 268.329 111.488 267.785 111.488C 266.095 111.488 264.618 111.894 264.618 113.985L264.618 113.985L264.618 120.177L264.618 120.177L262.947 120.177L262.947 120.177L262.947 122.105L262.947 122.105L264.618 122.105L264.618 122.105L264.618 125.251L264.618 125.251L267.377 125.251" stroke="none" fill="#000000" fill-rule="nonzero" /><path id="9" transform="matrix(1 0 0 -1 0 883)" d="M276.882 116.746C 276.415 116.32 275.444 116.299 274.589 116.137C 273.734 115.954 272.957 115.65 272.957 114.594C 272.957 113.519 273.754 113.255 274.647 113.255C 276.804 113.255 276.882 115.041 276.882 115.67M270.509 118.878C 270.665 121.578 272.976 122.389 275.23 122.389C 277.231 122.389 279.64 121.923 279.64 119.406L279.64 119.406L279.64 113.945C 279.64 112.991 279.738 112.037 279.99 111.61L279.99 111.61L277.193 111.61C 277.095 111.935 277.018 112.28 276.998 112.625C 276.124 111.671 274.842 111.326 273.617 111.326C 271.714 111.326 270.198 112.321 270.198 114.472C 270.198 116.847 271.908 117.416 273.617 117.66C 275.308 117.924 276.882 117.863 276.882 119.04C 276.882 120.279 276.066 120.461 275.094 120.461C 274.045 120.461 273.365 120.014 273.268 118.878z" stroke="none" fill="#000000" fill-rule="nonzero" /></g><path id="10" transform="matrix(1 0 0 -1 0 883)" d="M280.709 111.61L283.468 111.61L283.468 126.1038L280.709 126.1038z" stroke="none" fill="#000000" fill-rule="nonzero" /><g clip-path="url(#6)"><path id="11" transform="matrix(1 0 0 -1 0 883)" d="M314.445 118.48C 314.27 119.658 313.551 120.286 312.404 120.286C 310.636 120.286 310.054 118.419 310.054 116.876C 310.054 115.374 310.617 113.568 312.346 113.568C 313.628 113.568 314.367 114.42 314.542 115.699L314.542 115.699L317.203 115.699C 316.854 112.918 315.008 111.395 312.366 111.395C 309.335 111.395 307.295 113.628 307.295 116.774C 307.295 120.044 309.16 122.459 312.424 122.459C 314.795 122.459 316.971 121.16 317.145 118.48" stroke="none" fill="#616161" fill-rule="nonzero" /></g><path id="12" transform="matrix(1 0 0 -1 0 883)" d="M317.858 122.175L320.6166 122.175L320.6166 111.6801L317.858 111.6801zM320.618 123.799L317.859 123.799L317.859 126.174L320.618 126.174z" stroke="none" fill="#616161" fill-rule="nonzero" /><g clip-path="url(#7)"><path id="13" transform="matrix(1 0 0 -1 0 883)" d="M327.9 116.815C 327.433 116.389 326.463 116.368 325.607 116.206C 324.753 116.024 323.975 115.719 323.975 114.663C 323.975 113.588 324.772 113.324 325.666 113.324C 327.822 113.324 327.9 115.11 327.9 115.74M321.527 118.947C 321.683 121.647 323.994 122.458 326.248 122.458C 328.25 122.458 330.659 121.992 330.659 119.475L330.659 119.475L330.659 114.014C 330.659 113.06 330.756 112.106 331.008 111.68L331.008 111.68L328.211 111.68C 328.113 112.004 328.036 112.349 328.017 112.694C 327.142 111.74 325.859 111.395 324.635 111.395C 322.732 111.395 321.217 112.39 321.217 114.542C 321.217 116.917 322.926 117.485 324.635 117.729C 326.326 117.993 327.9 117.932 327.9 119.109C 327.9 120.347 327.084 120.53 326.113 120.53C 325.063 120.53 324.383 120.084 324.287 118.947z" stroke="none" fill="#616161" fill-rule="nonzero" /></g><path id="14" transform="matrix(1 0 0 -1 0 883)" d="M331.77 111.68L334.529 111.68L334.529 126.1738L331.77 126.1738z" stroke="none" fill="#616161" fill-rule="nonzero" /><g clip-path="url(#8)"><path id="15" transform="matrix(1 0 0 -1 0 883)" d="M234.418 121.237C 234.222 122.691 232.889 123.797 231.361 123.797C 228.596 123.797 227.557 121.339 227.557 118.78C 227.557 116.342 228.596 113.885 231.361 113.885C 233.242 113.885 234.301 115.237 234.535 117.161L234.535 117.161L237.515 117.161C 237.201 113.516 234.791 111.181 231.361 111.181C 227.028 111.181 224.48 114.56 224.48 118.78C 224.48 123.122 227.028 126.501 231.361 126.501C 234.438 126.501 237.025 124.616 237.397 121.237" stroke="none" fill="#000000" fill-rule="nonzero" /><path id="16" transform="matrix(1 0 0 -1 0 883)" d="M244.664 116.781C 244.194 116.351 243.215 116.33 242.353 116.167C 241.491 115.982 240.709 115.676 240.709 114.612C 240.709 113.528 241.511 113.261 242.412 113.261C 244.585 113.261 244.664 115.062 244.664 115.696M238.241 118.929C 238.397 121.65 240.728 122.469 243 122.469C 245.016 122.469 247.444 121.998 247.444 119.461L247.444 119.461L247.444 113.957C 247.444 112.996 247.543 112.034 247.797 111.604L247.797 111.604L244.977 111.604C 244.879 111.932 244.801 112.28 244.781 112.628C 243.9 111.666 242.608 111.318 241.374 111.318C 239.455 111.318 237.927 112.321 237.927 114.489C 237.927 116.883 239.651 117.455 241.374 117.701C 243.077 117.968 244.664 117.906 244.664 119.093C 244.664 120.341 243.841 120.525 242.862 120.525C 241.805 120.525 241.119 120.075 241.022 118.929z" stroke="none" fill="#000000" fill-rule="nonzero" /><path id="17" transform="matrix(1 0 0 -1 0 883)" d="M287.337 116.454C 287.337 114.51 288.786 113.753 290.431 113.753C 291.508 113.753 293.153 114.081 293.153 115.574C 293.153 117.15 291.058 117.416 289.002 117.989C 286.925 118.561 284.83 119.401 284.83 122.142C 284.83 125.13 287.533 126.561 290.058 126.561C 292.977 126.561 295.66 125.232 295.66 121.855L295.66 121.855L292.683 121.855C 292.585 123.615 291.39 124.065 289.922 124.065C 288.943 124.065 287.806 123.636 287.806 122.409C 287.806 121.283 288.473 121.139 291.978 120.199C 292.996 119.932 296.129 119.258 296.129 115.943C 296.129 113.262 294.112 111.257 290.313 111.257C 287.22 111.257 284.321 112.853 284.36 116.454" stroke="none" fill="#616161" fill-rule="nonzero" /><path id="18" transform="matrix(1 0 0 -1 0 883)" d="M301.591 113.507C 303.49 113.507 304.058 115.206 304.058 116.884C 304.058 118.582 303.49 120.28 301.591 120.28C 299.711 120.28 299.143 118.582 299.143 116.884C 299.143 115.206 299.711 113.507 301.591 113.507M301.591 122.469C 304.783 122.469 306.839 120.259 306.839 116.884C 306.839 113.528 304.783 111.318 301.591 111.318C 298.418 111.318 296.362 113.528 296.362 116.884C 296.362 120.259 298.418 122.469 301.591 122.469" stroke="none" fill="#616161" fill-rule="nonzero" /><path id="19" transform="matrix(1 0 0 -1 0 883)" d="M341.065 119.092L345.61 119.092C 347.435 119.092 348.697 120.067 348.697 122.055C 348.697 124.044 347.435 125.018 345.61 125.018L345.61 125.018L341.065 125.018M339.744 126.195L345.901 126.195C 348.387 126.195 350.018 124.673 350.018 122.055C 350.018 119.437 348.387 117.916 345.901 117.916L345.901 117.916L341.065 117.916L341.065 117.916L341.065 111.706L341.065 111.706L339.744 111.706z" stroke="none" fill="#FFFFFF" fill-rule="nonzero" /><path id="20" transform="matrix(1 0 0 -1 0 883)" d="M351.925 116.941C 351.925 114.709 353.09 112.476 355.44 112.476C 357.79 112.476 358.956 114.709 358.956 116.941C 358.956 119.173 357.79 121.405 355.44 121.405C 353.09 121.405 351.925 119.173 351.925 116.941M360.179 116.941C 360.179 113.937 358.509 111.401 355.44 111.401C 352.371 111.401 350.701 113.937 350.701 116.941C 350.701 119.944 352.371 122.48 355.44 122.48C 358.509 122.48 360.179 119.944 360.179 116.941" stroke="none" fill="#FFFFFF" fill-rule="nonzero" /><path id="21" transform="matrix(1 0 0 -1 0 883)" d="M361.689 122.177L362.815 122.177L362.815 122.177L362.815 119.722L362.815 119.722L362.855 119.722C 363.476 121.406 364.835 122.4 366.641 122.319L366.641 122.319L366.641 121.041C 364.427 121.162 362.912 119.458 362.912 117.287L362.912 117.287L362.912 111.706L362.912 111.706L361.689 111.706" stroke="none" fill="#FFFFFF" fill-rule="nonzero" /></g><path id="22" transform="matrix(1 0 0 -1 0 883)" d="M370.472 126.222L381.521 126.222L381.521 125.039L376.66 125.039L376.66 111.659L375.333 111.659L375.333 125.039L370.472 125.039" stroke="none" fill="#FFFFFF" fill-rule="nonzero" /><path id="23" transform="matrix(1 0 0 -1 0 883)" d="M383.058 111.658L384.2877 111.658L384.2877 122.183L383.058 122.183z" stroke="none" fill="#FFFFFF" fill-rule="nonzero" /><g clip-path="url(#9)"><path id="24" transform="matrix(1 0 0 -1 0 883)" d="M384.445 124.166C 384.445 123.704 384.087 123.33 383.645 123.33C 383.204 123.33 382.845 123.704 382.845 124.166C 382.845 124.627 383.204 125.001 383.645 125.001C 384.087 125.001 384.445 124.627 384.445 124.166" stroke="none" fill="#FFFFFF" fill-rule="nonzero" /><path id="25" transform="matrix(1 0 0 -1 0 883)" d="M215.517 146.518L215.517 146.539C 215.517 148.264 216.846 149.676 218.739 149.676C 219.896 149.676 220.592 149.285 221.19 148.732L221.19 148.732L220.485 147.941C 219.986 148.396 219.45 148.699 218.735 148.699C 217.533 148.699 216.67 147.744 216.67 146.557L216.67 146.557L216.67 146.539C 216.67 145.35 217.533 144.375 218.735 144.375C 219.503 144.375 219.992 144.678 220.534 145.169L220.534 145.169L221.235 144.471C 220.582 143.813 219.869 143.393 218.696 143.393C 216.875 143.393 215.517 144.776 215.517 146.518" stroke="none" fill="#212121" fill-rule="nonzero" /></g><path id="26" transform="matrix(1 0 0 -1 0 883)" d="M222.451 143.5L223.5487 143.5L223.5487 149.573L222.451 149.573z" stroke="none" fill="#212121" fill-rule="nonzero" /><g clip-path="url(#10)"><path id="27" transform="matrix(1 0 0 -1 0 883)" d="M225.125 146.078L225.125 149.573L225.125 149.573L226.224 149.573L226.224 149.573L226.224 146.119C 226.224 144.991 226.822 144.385 227.808 144.385C 228.778 144.385 229.38 144.958 229.38 146.078L229.38 146.078L229.38 149.573L229.38 149.573L230.48 149.573L230.48 149.573L230.48 146.129C 230.48 144.315 229.424 143.402 227.787 143.402C 226.161 143.402 225.125 144.315 225.125 146.078" stroke="none" fill="#212121" fill-rule="nonzero" /><path id="28" transform="matrix(1 0 0 -1 0 883)" d="M234.323 144.475C 235.636 144.475 236.494 145.329 236.494 146.52L236.494 146.52L236.494 146.533C 236.494 147.723 235.636 148.599 234.323 148.599L234.323 148.599L233.09 148.599L233.09 148.599L233.09 144.475M231.99 149.569L234.323 149.569C 236.286 149.569 237.643 148.264 237.643 146.554L237.643 146.554L237.643 146.533C 237.643 144.827 236.286 143.501 234.323 143.501L234.323 143.501L231.99 143.501z" stroke="none" fill="#212121" fill-rule="nonzero" /></g><path id="29" transform="matrix(1 0 0 -1 0 883)" d="M242.338 145.91L241.255 148.34L240.185 145.91M240.765 149.615L241.784 149.615L244.533 143.501L243.372 143.501L242.738 144.964L239.781 144.964L239.14 143.501L238.011 143.501z" stroke="none" fill="#212121" fill-rule="nonzero" /><g clip-path="url(#11)"><path id="30" transform="matrix(1 0 0 -1 0 883)" d="M247.94 144.475C 249.254 144.475 250.113 145.329 250.113 146.52L250.113 146.52L250.113 146.533C 250.113 147.723 249.254 148.599 247.94 148.599L247.94 148.599L246.708 148.599L246.708 148.599L246.708 144.475M245.611 149.569L247.94 149.569C 249.906 149.569 251.267 148.264 251.267 146.554L251.267 146.554L251.267 146.533C 251.267 144.827 249.906 143.501 247.94 143.501L247.94 143.501L245.611 143.501z" stroke="none" fill="#212121" fill-rule="nonzero" /><path id="31" transform="matrix(1 0 0 -1 0 883)" d="M257.613 144.475C 258.927 144.475 259.783 145.329 259.783 146.52L259.783 146.52L259.783 146.533C 259.783 147.723 258.927 148.599 257.613 148.599L257.613 148.599L256.378 148.599L256.378 148.599L256.378 144.475M255.28 149.569L257.613 149.569C 259.577 149.569 260.936 148.264 260.936 146.554L260.936 146.554L260.936 146.533C 260.936 144.827 259.577 143.501 257.613 143.501L257.613 143.501L255.28 143.501z" stroke="none" fill="#212121" fill-rule="nonzero" /></g><path id="32" transform="matrix(1 0 0 -1 0 883)" d="M262.27 149.573L266.907 149.573L266.907 148.618L263.368 148.618L263.368 147.039L266.506 147.039L266.506 146.083L263.368 146.083L263.368 144.452L266.955 144.452L266.955 143.5L262.27 143.5" stroke="none" fill="#212121" fill-rule="nonzero" /><path id="33" transform="matrix(1 0 0 -1 0 883)" d="M270.94 149.573L272.113 149.573L274.017 146.703L275.922 149.573L277.092 149.573L277.092 143.5L275.988 143.5L275.988 147.853L274.017 144.991L273.979 144.991L272.02 147.836L272.02 143.5L270.94 143.5" stroke="none" fill="#212121" fill-rule="nonzero" /><path id="34" transform="matrix(1 0 0 -1 0 883)" d="M281.315 151.497L282.297 151.073L281.209 150.074L280.37 150.074zM278.697 149.574L283.334 149.574L283.334 148.618L279.796 148.618L279.796 147.039L282.931 147.039L282.931 146.085L279.796 146.085L279.796 144.457L283.379 144.457L283.379 143.501L278.697 143.501z" stroke="none" fill="#212121" fill-rule="nonzero" /><path id="35" transform="matrix(1 0 0 -1 0 883)" d="M286.492 146.592L284.302 149.573L285.599 149.573L287.148 147.391L288.716 149.573L289.976 149.573L287.796 146.605L290.068 143.5L288.774 143.5L287.127 145.801L285.47 143.5L284.211 143.5" stroke="none" fill="#212121" fill-rule="nonzero" /><path id="36" transform="matrix(1 0 0 -1 0 883)" d="M291.265 143.5L292.3642 143.5L292.3642 149.573L291.265 149.573z" stroke="none" fill="#212121" fill-rule="nonzero" /><g clip-path="url(#12)"><path id="37" transform="matrix(1 0 0 -1 0 883)" d="M293.76 146.518L293.76 146.539C 293.76 148.264 295.089 149.676 296.984 149.676C 298.135 149.676 298.833 149.285 299.434 148.732L299.434 148.732L298.729 147.941C 298.227 148.396 297.692 148.699 296.977 148.699C 295.779 148.699 294.914 147.744 294.914 146.557L294.914 146.557L294.914 146.539C 294.914 145.35 295.779 144.375 296.977 144.375C 297.747 144.375 298.234 144.678 298.771 145.169L298.771 145.169L299.476 144.471C 298.825 143.813 298.107 143.393 296.94 143.393C 295.121 143.393 293.76 144.776 293.76 146.518" stroke="none" fill="#212121" fill-rule="nonzero" /><path id="38" transform="matrix(1 0 0 -1 0 883)" d="M305.565 146.518L305.565 146.539C 305.565 147.715 304.68 148.699 303.437 148.699C 302.198 148.699 301.33 147.731 301.33 146.557L301.33 146.557L301.33 146.539C 301.33 145.355 302.215 144.375 303.458 144.375C 304.7 144.375 305.565 145.341 305.565 146.518M300.176 146.518L300.176 146.539C 300.176 148.245 301.537 149.676 303.458 149.676C 305.377 149.676 306.721 148.264 306.721 146.557L306.721 146.557L306.721 146.539C 306.721 144.827 305.36 143.393 303.437 143.393C 301.515 143.393 300.176 144.812 300.176 146.518" stroke="none" fill="#212121" fill-rule="nonzero" /><path id="39" transform="matrix(1 0 0 -1 0 883)" d="M189.249 158.254C 183.19 158.254 177.618 160.527 173.551 164.657C 169.53 168.739 167.313 174.284 167.313 180.265L167.313 180.265L167.313 180.383C 167.313 192.79 177.005 202.512 189.373 202.512C 197.197 202.512 201.87 199.783 206.479 195.682L206.479 195.682L206.771 195.421L206.771 195.421L203.933 192.589L203.933 192.589L203.657 192.851C 197.945 198.211 193.199 198.935 189.312 198.935C 184.404 198.935 179.873 197.047 176.556 193.617C 173.255 190.193 171.435 185.537 171.435 180.5L171.435 180.5L171.435 180.383C 171.435 169.98 179.314 161.831 189.373 161.831C 195.001 161.831 199.243 163.695 204.025 168.271L204.025 168.271L204.295 168.528L204.295 168.528L207.018 165.961L207.018 165.961L206.735 165.695C 199.886 159.139 194.053 158.254 189.249 158.254" stroke="none" fill="#212121" fill-rule="nonzero" /><path id="40" transform="matrix(1 0 0 -1 0 883)" d="M219.518 162.576L230.359 162.576C 236.068 162.576 240.954 164.358 244.491 167.729C 247.85 170.927 249.704 175.383 249.704 180.259L249.704 180.259L249.704 180.379C 249.704 185.249 247.85 189.711 244.489 192.956C 240.937 196.376 236.049 198.188 230.359 198.188L230.359 198.188L219.518 198.188M230.359 158.932L215.517 158.932L215.517 158.932L215.517 201.837L215.517 201.837L230.359 201.837C 243.958 201.837 253.824 192.86 253.824 180.502L253.824 180.502L253.824 180.379C 253.824 174.474 251.505 169.055 247.289 165.121C 242.997 161.132 236.987 158.932 230.359 158.932" stroke="none" fill="#212121" fill-rule="nonzero" /></g><path id="41" transform="matrix(1 0 0 -1 0 883)" d="M262.414 201.86L272.91 201.86L284.54 183.693L296.177 201.86L306.676 201.86L306.676 158.903L297.001 158.903L297.001 186.947L284.54 168.6L284.295 168.6L271.96 186.765L271.96 158.903L262.414 158.903" stroke="none" fill="#686868" fill-rule="nonzero" /><path id="42" transform="matrix(1 0 0 -1 0 883)" d="M329.694 180.749L314.894 201.858L326.276 201.858L335.571 187.931L344.932 201.858L355.997 201.858L341.2 180.872L356.631 158.907L345.245 158.907L335.318 173.634L325.327 158.907L314.263 158.907" stroke="none" fill="#686868" fill-rule="nonzero" /><path id="43" transform="matrix(1 0 0 -1 0 883)" d="M376.236 145.211L377.7212 145.211L377.7212 203.8352L376.236 203.8352z" stroke="none" fill="#999999" fill-rule="nonzero" /><g clip-path="url(#13)"><path id="44" transform="matrix(1 0 0 -1 0 883)" d="M428.525 145.931L428.525 145.931C 398.998 145.931 399.36 143.124 399.36 173.707L399.36 173.707L399.36 174.836C 399.36 205.451 401.263 203.139 428.525 203.139L428.525 203.139L428.525 203.139C 462.931 203.139 457.69 200.843 457.69 174.836L457.69 174.836L457.69 173.707C 457.69 145.403 460.739 145.931 428.525 145.931" stroke="none" fill="#FFFFFF" fill-rule="nonzero" /><path id="45" transform="matrix(1 0 0 -1 0 883)" d="M408.462 201.193C 404.422 201.193 401.136 198.003 401.136 194.082L401.136 194.082L401.136 154.589C 401.136 150.668 404.422 147.478 408.462 147.478L408.462 147.478L449.158 147.478C 453.198 147.478 456.485 150.668 456.485 154.589L456.485 154.589L456.485 194.082C 456.485 198.003 453.198 201.193 449.158 201.193M449.158 145.403L408.462 145.403C 403.243 145.403 398.997 149.524 398.997 154.589L398.997 154.589L398.997 194.082C 398.997 199.147 403.243 203.268 408.462 203.268L408.462 203.268L449.158 203.268C 454.377 203.268 458.623 199.147 458.623 194.082L458.623 194.082L458.623 154.589C 458.623 149.524 454.377 145.403 449.158 145.403" stroke="none" fill="#999999" fill-rule="nonzero" /></g><path id="46" transform="matrix(1 0 0 -1 0 883)" d="M408.862 151.817L410.2128 151.817L410.2128 157.7787L408.862 157.7787z" stroke="none" fill="#999999" fill-rule="nonzero" /><path id="47" transform="matrix(1 0 0 -1 0 883)" d="M411.4 157.779L412.742 157.779L415.306 153.779L415.323 153.779L415.323 157.779L416.588 157.779L416.588 151.817L415.237 151.817L412.682 155.808L412.665 155.808L412.665 151.817L411.4 151.817" stroke="none" fill="#999999" fill-rule="nonzero" /><g clip-path="url(#14)"><path id="48" transform="matrix(1 0 0 -1 0 883)" d="M419.125 152.919L420.329 152.919C 421.113 152.919 421.861 153.387 421.861 154.706C 421.861 155.909 421.431 156.677 420.089 156.677L420.089 156.677L419.125 156.677M417.774 157.779L420.424 157.779C 422.016 157.779 423.212 156.81 423.212 154.831C 423.212 153.103 422.3 151.817 420.424 151.817L420.424 151.817L417.774 151.817z" stroke="none" fill="#999999" fill-rule="nonzero" /></g><path id="49" transform="matrix(1 0 0 -1 0 883)" d="M424.148 157.779L428.743 157.779L428.743 156.677L425.499 156.677L425.499 155.399L428.476 155.399L428.476 154.381L425.499 154.381L425.499 152.919L428.811 152.919L428.811 151.817L424.148 151.817" stroke="none" fill="#999999" fill-rule="nonzero" /><g clip-path="url(#15)"><path id="50" transform="matrix(1 0 0 -1 0 883)" d="M431.074 154.973L432.124 154.973C 432.752 154.973 433.311 155.107 433.311 155.867C 433.311 156.627 432.752 156.76 432.124 156.76L432.124 156.76L431.074 156.76M429.723 157.779L432.494 157.779C 434.025 157.779 434.619 156.835 434.619 155.867C 434.619 154.898 434.025 153.955 432.494 153.955L432.494 153.955L431.074 153.955L431.074 153.955L431.074 151.817L431.074 151.817L429.723 151.817z" stroke="none" fill="#999999" fill-rule="nonzero" /></g><path id="51" transform="matrix(1 0 0 -1 0 883)" d="M435.46 157.779L440.055 157.779L440.055 156.677L436.811 156.677L436.811 155.399L439.788 155.399L439.788 154.381L436.811 154.381L436.811 152.919L440.123 152.919L440.123 151.817L435.46 151.817" stroke="none" fill="#999999" fill-rule="nonzero" /><g clip-path="url(#16)"><path id="52" transform="matrix(1 0 0 -1 0 883)" d="M442.385 152.919L443.59 152.919C 444.373 152.919 445.121 153.387 445.121 154.706C 445.121 155.909 444.691 156.677 443.349 156.677L443.349 156.677L442.385 156.677M441.034 157.779L443.684 157.779C 445.276 157.779 446.472 156.81 446.472 154.831C 446.472 153.103 445.56 151.817 443.684 151.817L443.684 151.817L441.034 151.817z" stroke="none" fill="#999999" fill-rule="nonzero" /></g><path id="53" transform="matrix(1 0 0 -1 0 883)" d="M447.409 151.817L448.7602 151.817L448.7602 157.7787L447.409 157.7787z" stroke="none" fill="#999999" fill-rule="nonzero" /><g clip-path="url(#17)"><path id="54" transform="matrix(1 0 0 -1 0 883)" d="M440.791 179.255C 440.974 179.27 441.177 179.216 441.338 179.086L441.338 179.086L442.41 178.23L442.41 178.23L443.017 177.739L443.017 177.739L442.554 177.131L442.554 177.131L441.742 176.074C 441.608 175.901 441.413 175.806 441.213 175.789C 441.018 175.779 440.822 175.835 440.659 175.96L440.659 175.96L439.589 176.818L439.589 176.818L438.983 177.304L438.983 177.304L439.447 177.911L439.447 177.911L440.262 178.968C 440.397 179.141 440.586 179.239 440.791 179.255" stroke="none" fill="#999999" fill-rule="nonzero" /><path id="55" transform="matrix(1 0 0 -1 0 883)" d="M441.696 181.044C 441.809 181.053 441.923 181.026 442.02 180.948L442.02 180.948L442.649 180.438L442.649 180.438L443.017 180.149L443.017 180.149L442.735 179.785L442.735 179.785L442.259 179.163C 442.181 179.062 442.067 179.002 441.947 178.998C 441.828 178.981 441.713 179.017 441.619 179.096L441.619 179.096L440.986 179.602L440.986 179.602L440.626 179.892L440.626 179.892L440.9 180.252L440.9 180.252L441.385 180.875C 441.464 180.98 441.579 181.038 441.696 181.044" stroke="none" fill="#999999" fill-rule="nonzero" /><path id="56" transform="matrix(1 0 0 -1 0 883)" d="M443.249 170.699C 443.386 170.714 443.534 170.673 443.651 170.573L443.651 170.573L444.445 169.937L444.445 169.937L444.901 169.576L444.901 169.576L444.553 169.128L444.553 169.128L443.951 168.343C 443.856 168.216 443.715 168.143 443.56 168.132C 443.422 168.115 443.282 168.164 443.154 168.258L443.154 168.258L442.36 168.89L442.36 168.89L441.91 169.26L441.91 169.26L442.252 169.701L442.252 169.701L442.861 170.485C 442.954 170.615 443.104 170.693 443.249 170.699" stroke="none" fill="#999999" fill-rule="nonzero" /><path id="57" transform="matrix(1 0 0 -1 0 883)" d="M438.819 176.438C 439.275 176.476 439.748 176.34 440.143 176.025L440.143 176.025L442.725 173.957L442.725 173.957L444.201 172.775L444.201 172.775L443.08 171.316L443.08 171.316L441.102 168.762C 440.791 168.342 440.314 168.109 439.834 168.068C 439.371 168.033 438.905 168.171 438.508 168.486L438.508 168.486L435.925 170.556L435.925 170.556L434.45 171.739L434.45 171.739L435.57 173.195L435.57 173.195L437.539 175.747C 437.857 176.171 438.332 176.404 438.819 176.438" stroke="none" fill="#999999" fill-rule="nonzero" /><path id="58" transform="matrix(1 0 0 -1 0 883)" d="M441.608 168.378C 441.901 168.401 442.201 168.314 442.453 168.108L442.453 168.108L444.116 166.779L444.116 166.779L445.071 166.017L445.071 166.017L444.343 165.079L444.343 165.079L443.081 163.439C 442.876 163.167 442.571 163.02 442.259 162.994C 441.965 162.969 441.66 163.055 441.414 163.26L441.414 163.26L439.746 164.591L439.746 164.591L438.795 165.351L438.795 165.351L439.517 166.293L439.517 166.293L440.791 167.93C 440.986 168.199 441.293 168.35 441.608 168.378" stroke="none" fill="#999999" fill-rule="nonzero" /><path id="59" transform="matrix(1 0 0 -1 0 883)" d="M437.928 164.52C 438.049 164.53 438.171 164.493 438.274 164.407L438.274 164.407L438.954 163.868L438.954 163.868L439.346 163.551L439.346 163.551L439.047 163.168L439.047 163.168L438.526 162.498C 438.447 162.382 438.314 162.322 438.191 162.312C 438.072 162.301 437.941 162.337 437.842 162.423L437.842 162.423L437.163 162.965L437.163 162.965L436.77 163.275L436.77 163.275L437.067 163.661L437.067 163.661L437.584 164.332C 437.672 164.448 437.796 164.508 437.928 164.52" stroke="none" fill="#999999" fill-rule="nonzero" /><path id="60" transform="matrix(1 0 0 -1 0 883)" d="M428.011 165.344C 428.139 165.35 428.273 165.319 428.383 165.228L428.383 165.228L429.125 164.634L429.125 164.634L429.553 164.295L429.553 164.295L429.231 163.873L429.231 163.873L428.662 163.141C 428.571 163.022 428.443 162.954 428.296 162.948C 428.168 162.932 428.032 162.969 427.915 163.06L427.915 163.06L427.177 163.655L427.177 163.655L426.754 163.993L426.754 163.993L427.077 164.411L427.077 164.411L427.64 165.148C 427.73 165.265 427.867 165.34 428.011 165.344" stroke="none" fill="#999999" fill-rule="nonzero" /><path id="61" transform="matrix(1 0 0 -1 0 883)" d="M424.407 167.496C 424.649 167.513 424.897 167.447 425.102 167.278L425.102 167.278L426.459 166.193L426.459 166.193L427.23 165.576L427.23 165.576L426.646 164.804L426.646 164.804L425.611 163.465C 425.439 163.244 425.194 163.124 424.937 163.109C 424.696 163.086 424.451 163.159 424.246 163.322L424.246 163.322L422.885 164.407L422.885 164.407L422.111 165.025L422.111 165.025L422.702 165.794L422.702 165.794L423.737 167.132C 423.906 167.349 424.14 167.477 424.407 167.496" stroke="none" fill="#999999" fill-rule="nonzero" /><path id="62" transform="matrix(1 0 0 -1 0 883)" d="M434.198 169.707C 434.586 169.747 434.997 169.626 435.337 169.361L435.337 169.361L437.552 167.582L437.552 167.582L438.82 166.573L438.82 166.573L437.849 165.319L437.849 165.319L436.166 163.131C 435.888 162.772 435.487 162.571 435.069 162.538C 434.677 162.506 434.274 162.624 433.936 162.889L433.936 162.889L431.722 164.669L431.722 164.669L430.457 165.685L430.457 165.685L431.419 166.933L431.419 166.933L433.103 169.12C 433.378 169.481 433.784 169.682 434.198 169.707" stroke="none" fill="#999999" fill-rule="nonzero" /><path id="63" transform="matrix(1 0 0 -1 0 883)" d="M435.253 189.05C 435.398 189.066 435.553 189.023 435.672 188.918L435.672 188.918L436.504 188.259L436.504 188.259L436.972 187.886L436.972 187.886L436.614 187.417L436.614 187.417L435.987 186.602C 435.879 186.465 435.736 186.388 435.577 186.377C 435.427 186.364 435.279 186.414 435.156 186.514L435.156 186.514L434.328 187.17L434.328 187.17L433.863 187.55L433.863 187.55L434.216 188.017L434.216 188.017L434.85 188.829C 434.944 188.961 435.099 189.036 435.253 189.05" stroke="none" fill="#999999" fill-rule="nonzero" /><path id="64" transform="matrix(1 0 0 -1 0 883)" d="M438.01 186.439C 438.151 186.444 438.31 186.387 438.428 186.279L438.428 186.279L439.241 185.563L439.241 185.563L439.693 185.157L439.693 185.157L439.3 184.699L439.3 184.699L438.622 183.905C 438.508 183.783 438.347 183.709 438.191 183.709C 438.049 183.699 437.895 183.751 437.771 183.858L437.771 183.858L436.971 184.571L436.971 184.571L436.507 184.98L436.507 184.98L436.905 185.433L436.905 185.433L437.579 186.23C 437.69 186.36 437.849 186.428 438.01 186.439" stroke="none" fill="#999999" fill-rule="nonzero" /><path id="65" transform="matrix(1 0 0 -1 0 883)" d="M427.51 197.892C 427.654 197.909 427.815 197.867 427.951 197.758L427.951 197.758L428.819 197.066L428.819 197.066L429.31 196.674L429.31 196.674L428.935 196.18L428.935 196.18L428.276 195.33C 428.168 195.192 428.011 195.113 427.846 195.097C 427.696 195.089 427.539 195.135 427.405 195.235L427.405 195.235L426.546 195.924L426.546 195.924L426.045 196.317L426.045 196.317L426.425 196.81L426.425 196.81L427.08 197.659C 427.188 197.805 427.349 197.88 427.51 197.892" stroke="none" fill="#999999" fill-rule="nonzero" /><path id="66" transform="matrix(1 0 0 -1 0 883)" d="M430.57 195.967C 430.802 195.99 431.036 195.923 431.247 195.76L431.247 195.76L432.555 194.709L432.555 194.709L433.305 194.108L433.305 194.108L432.736 193.367L432.736 193.367L431.735 192.065C 431.578 191.853 431.331 191.732 431.089 191.713C 430.851 191.697 430.61 191.768 430.409 191.921L430.409 191.921L429.096 192.975L429.096 192.975L428.349 193.582L428.349 193.582L428.918 194.322L428.918 194.322L429.924 195.619C 430.085 195.833 430.316 195.948 430.57 195.967" stroke="none" fill="#999999" fill-rule="nonzero" /><path id="67" transform="matrix(1 0 0 -1 0 883)" d="M433.133 192.658C 433.331 192.673 433.54 192.615 433.711 192.476L433.711 192.476L434.84 191.574L434.84 191.574L435.477 191.058L435.477 191.058L434.985 190.425L434.985 190.425L434.127 189.308C 433.991 189.131 433.784 189.031 433.576 189.012C 433.378 188.997 433.165 189.052 433 189.19L433 189.19L431.876 190.089L431.876 190.089L431.229 190.607L431.229 190.607L431.716 191.249L431.716 191.249L432.581 192.359C 432.716 192.537 432.919 192.641 433.133 192.658" stroke="none" fill="#999999" fill-rule="nonzero" /><path id="68" transform="matrix(1 0 0 -1 0 883)" d="M424.045 195.603C 424.298 195.624 424.55 195.551 424.757 195.381L424.757 195.381L426.16 194.26L426.16 194.26L426.963 193.619L426.963 193.619L426.356 192.825L426.356 192.825L425.289 191.441C 425.112 191.223 424.863 191.093 424.603 191.071C 424.351 191.052 424.089 191.122 423.875 191.296L423.875 191.296L422.481 192.42L422.481 192.42L421.676 193.056L421.676 193.056L422.289 193.85L422.289 193.85L423.355 195.231C 423.529 195.457 423.782 195.578 424.045 195.603" stroke="none" fill="#999999" fill-rule="nonzero" /><path id="69" transform="matrix(1 0 0 -1 0 883)" d="M420.529 188.481C 420.654 188.512 420.794 188.49 420.915 188.415L420.915 188.415L421.726 187.914L421.726 187.914L422.19 187.633L422.19 187.633L421.931 187.18L421.931 187.18L421.468 186.377C 421.387 186.255 421.261 186.169 421.129 186.139C 421.001 186.116 420.864 186.134 420.731 186.207L420.731 186.207L419.922 186.702L419.922 186.702L419.463 186.993L419.463 186.993L419.722 187.447L419.722 187.447L420.185 188.24C 420.266 188.368 420.385 188.455 420.529 188.481" stroke="none" fill="#999999" fill-rule="nonzero" /><path id="70" transform="matrix(1 0 0 -1 0 883)" d="M422.216 190.888C 422.337 190.903 422.47 190.871 422.584 190.787L422.584 190.787L423.316 190.243L423.316 190.243L423.73 189.935L423.73 189.935L423.44 189.519L423.44 189.519L422.92 188.8C 422.838 188.678 422.712 188.614 422.574 188.595C 422.454 188.585 422.322 188.614 422.212 188.694L422.212 188.694L421.475 189.246L421.475 189.246L421.06 189.559L421.06 189.559L421.356 189.969L421.356 189.969L421.879 190.693C 421.954 190.804 422.086 190.871 422.216 190.888" stroke="none" fill="#999999" fill-rule="nonzero" /><path id="71" transform="matrix(1 0 0 -1 0 883)" d="M418.343 175.387C 418.568 175.406 418.797 175.34 418.987 175.188L418.987 175.188L420.242 174.184L420.242 174.184L420.956 173.608L420.956 173.608L420.414 172.9L420.414 172.9L419.463 171.656C 419.296 171.453 419.075 171.335 418.835 171.323C 418.614 171.303 418.384 171.367 418.197 171.523L418.197 171.523L416.94 172.527L416.94 172.527L416.216 173.105L416.216 173.105L416.764 173.816L416.764 173.816L417.718 175.054C 417.88 175.257 418.105 175.374 418.343 175.387" stroke="none" fill="#999999" fill-rule="nonzero" /><path id="72" transform="matrix(1 0 0 -1 0 883)" d="M415.263 177.046C 415.424 177.056 415.597 177.01 415.731 176.9L415.731 176.9L416.646 176.173L416.646 176.173L417.16 175.757L417.16 175.757L416.763 175.237L416.763 175.237L416.073 174.342C 415.958 174.195 415.792 174.118 415.625 174.102C 415.461 174.089 415.296 174.135 415.162 174.245L415.162 174.245L414.251 174.98L414.251 174.98L413.728 175.393L413.728 175.393L414.129 175.902L414.129 175.902L414.816 176.806C 414.933 176.949 415.091 177.034 415.263 177.046" stroke="none" fill="#999999" fill-rule="nonzero" /><path id="73" transform="matrix(1 0 0 -1 0 883)" d="M414.307 181.095C 414.489 181.106 414.677 181.061 414.83 180.936L414.83 180.936L415.855 180.12L415.855 180.12L416.433 179.651L416.433 179.651L415.99 179.075L415.99 179.075L415.211 178.06C 415.088 177.898 414.9 177.81 414.708 177.79C 414.536 177.778 414.339 177.832 414.187 177.951L414.187 177.951L413.171 178.775L413.171 178.775L412.575 179.239L412.575 179.239L413.027 179.814L413.027 179.814L413.806 180.824C 413.932 180.993 414.11 181.081 414.307 181.095" stroke="none" fill="#999999" fill-rule="nonzero" /><path id="74" transform="matrix(1 0 0 -1 0 883)" d="M418.681 185.855C 418.826 185.878 418.976 185.839 419.108 185.745L419.108 185.745L419.962 185.131L419.962 185.131L420.454 184.778L420.454 184.778L420.123 184.301L420.123 184.301L419.543 183.461C 419.448 183.319 419.296 183.238 419.146 183.217C 419.003 183.2 418.85 183.233 418.713 183.328L418.713 183.328L417.864 183.94L417.864 183.94L417.379 184.292L417.379 184.292L417.712 184.768L417.712 184.768L418.293 185.617C 418.38 185.757 418.526 185.836 418.681 185.855" stroke="none" fill="#999999" fill-rule="nonzero" /><path id="75" transform="matrix(1 0 0 -1 0 883)" d="M417.452 182.95C 417.546 182.959 417.657 182.933 417.741 182.862L417.741 182.862L418.303 182.414L418.303 182.414L418.629 182.149L418.629 182.149L418.38 181.831L418.38 181.831L417.951 181.272C 417.88 181.184 417.778 181.135 417.674 181.124C 417.571 181.116 417.465 181.148 417.383 181.212L417.383 181.212L416.819 181.666L416.819 181.666L416.497 181.923L416.497 181.923L416.744 182.242L416.744 182.242L417.171 182.8C 417.247 182.892 417.342 182.947 417.452 182.95" stroke="none" fill="#999999" fill-rule="nonzero" /><path id="76" transform="matrix(1 0 0 -1 0 883)" d="M420.385 171.156C 420.672 171.176 420.974 171.1 421.227 170.89L421.227 170.89L422.858 169.585L422.858 169.585L423.791 168.83L423.791 168.83L423.087 167.906L423.087 167.906L421.836 166.293C 421.638 166.023 421.336 165.878 421.031 165.85C 420.74 165.827 420.44 165.916 420.191 166.118L420.191 166.118L418.55 167.428L418.55 167.428L417.616 168.179L417.616 168.179L418.329 169.101L418.329 169.101L419.571 170.72C 419.782 170.981 420.079 171.133 420.385 171.156" stroke="none" fill="#999999" fill-rule="nonzero" /><path id="77" transform="matrix(1 0 0 -1 0 883)" d="M429.264 172.634C 430.762 172.634 432.032 173.726 432.032 175.296C 432.032 175.718 431.995 176.203 431.79 176.551C 431.722 176.681 431.644 177.024 430.731 177.683C 430.259 178.029 428.967 178.034 428.455 178.343C 428.025 178.593 427.976 179.348 427.912 179.712C 427.811 180.338 428.025 181.675 427.8 182.267C 427.691 182.547 427.058 183.183 427.058 183.183C 427.058 183.183 428.631 182.73 428.907 181.499C 429.017 181.021 428.799 180.012 428.856 179.524C 428.885 179.296 429.031 178.915 429.207 178.786C 429.5 178.568 429.796 178.375 430.047 178.276C 430.147 178.249 430.241 178.216 430.334 178.188C 430.358 178.179 430.385 178.163 430.418 178.16C 431.387 177.901 432.052 176.697 432.052 176.697C 432.313 176.189 432.374 175.584 432.374 174.995C 432.374 173.246 431.033 171.955 429.368 171.955C 427.703 171.955 426.538 173.267 426.538 175.016C 426.538 175.917 426.677 176.154 427.226 176.768C 426.846 176.134 426.794 175.943 426.794 175.178C 426.794 173.616 427.764 172.634 429.264 172.634M433.541 174.023C 433.272 171.616 431.045 171.221 430.316 171.043C 428.757 170.66 426.426 171.133 426.041 173.687C 425.678 176.114 426.789 176.625 427.046 176.941C 427.071 176.974 425.903 175.613 426.604 173.771C 426.992 172.758 427.634 172.031 428.606 171.854C 430.484 171.508 433.29 172.457 432.46 176.411C 432.286 177.223 431.528 178.131 430.705 178.414C 430.429 178.506 429.849 178.591 429.622 178.775C 429.46 178.915 429.201 179.205 429.077 179.712C 428.894 180.492 429.456 181.314 429.483 182.479C 429.514 183.132 429.46 183.732 429.368 184.11C 429.313 184.348 429.236 184.849 428.856 185.045C 428.606 185.186 427.952 185.287 427.643 185.4C 426.138 185.988 425.629 187.833 425.629 187.833C 425.629 187.833 427.046 186.505 427.654 186.293C 428.186 186.103 429.075 185.893 429.719 185.677C 429.968 185.587 431.143 185.52 430.694 182.578C 430.623 182.127 430.111 181.408 430.014 180.966C 429.968 180.773 429.895 180.385 430.052 180.119C 430.469 179.417 431.075 179.855 431.794 179.384C 433.422 178.336 433.799 176.415 433.541 174.023M431.327 187.404C 431.986 187.404 432.511 186.845 432.511 186.157C 432.511 185.477 431.986 184.92 431.327 184.92C 430.683 184.92 430.147 185.477 430.147 186.157C 430.147 186.845 430.683 187.404 431.327 187.404M436.429 183.759L430.811 188.843L430.811 188.843L427.914 191.726L427.914 191.726L421.74 182.893C 420.167 180.339 420.52 177.505 421.771 176.243L421.771 176.243L429.171 168.581L429.171 168.581L430.464 167.412L430.464 167.412L432.913 170.994L432.913 170.994L437.192 177.27C 438.542 179.248 438.198 182.159 436.429 183.759" stroke="none" fill="#999999" fill-rule="nonzero" /><path id="78" transform="matrix(1 0 0 -1 0 883)" d="M421.655 176.137C 420.026 177.779 420.332 180.853 421.568 182.912L421.568 182.912L421.908 183.411L421.908 183.411L426.087 189.388L426.087 189.388L427.776 191.805L427.776 191.805L425.593 191.252L425.593 191.252L418.681 181.444C 417.498 179.497 417.817 176.98 419.46 175.327L419.46 175.327L427.775 166.65L427.775 166.65L430.175 167.315L430.175 167.315L427.45 170.137" stroke="none" fill="#999999" fill-rule="nonzero" /><path id="79" transform="matrix(1 0 0 -1 0 883)" d="M113.448 81.3242C 113.448 76.4211 109.473 72.4473 104.571 72.4473C 99.668 72.4473 95.6941 76.4211 95.6941 81.3242C 95.6941 86.2262 99.668 90.2012 104.571 90.2012C 109.473 90.2012 113.448 86.2262 113.448 81.3242" stroke="none" fill="#717171" fill-rule="nonzero" /><path id="80" transform="matrix(1 0 0 -1 0 883)" d="M105.353 83.402L105.353 84.243C 105.353 84.6527 105.626 84.7477 105.818 84.7477L105.818 84.7477L106.998 84.7477L106.998 84.7477L106.998 86.5496L106.998 86.5496L105.373 86.5566C 103.57 86.5566 103.16 85.21291 103.16 84.3527L103.16 84.3527L103.16 83.402L103.16 83.402L102.117 83.402L102.117 83.402L102.117 82.13091L102.117 82.13091L102.117 81.2988L102.117 81.2988L103.169 81.2988L103.169 81.2988L103.169 76.0406L103.169 76.0406L105.272 76.0406L105.272 76.0406L105.272 81.2988L105.272 81.2988L106.833 81.2988L106.833 81.2988L106.908 82.1246L106.908 82.1246L107.024 83.402" stroke="none" fill="#FFFFFF" fill-rule="nonzero" /><path id="81" transform="matrix(1 0 0 -1 0 883)" d="M344.92 82.1871C 344.92 77.3242 340.977 73.3813 336.114 73.3813C 331.25 73.3813 327.307 77.3242 327.307 82.1871C 327.307 87.05 331.25 90.993 336.114 90.993C 340.977 90.993 344.92 87.05 344.92 82.1871" stroke="none" fill="#717171" fill-rule="nonzero" /><path id="82" transform="matrix(1 0 0 -1 0 883)" d="M341.33 84.8738C 340.947 84.7059 340.534 84.5938 340.101 84.5426C 340.543 84.8027 340.882 85.2156 341.042 85.7078C 340.629 85.4668 340.17 85.2906 339.683 85.1969C 339.293 85.6059 338.737 85.8617 338.121 85.8617C 336.939 85.8617 335.981 84.9176 335.981 83.7547C 335.981 83.58981 336 83.4297 336.036 83.2746C 334.258 83.36291 332.681 84.2016 331.625 85.4766C 331.441 85.1648 331.335 84.8027 331.335 84.4168C 331.335 83.6867 331.714 83.0418 332.287 82.6637C 331.937 82.6746 331.606 82.7695 331.318 82.9277L331.318 82.9277L331.318 82.9008C 331.318 82.63091 331.371 82.3746 331.464 82.1379C 331.726 81.4766 332.314 80.9777 333.035 80.8348C 332.855 80.78671 332.666 80.7605 332.47 80.7605C 332.333 80.7605 332.199 80.7738 332.068 80.7988C 332.341 79.9617 333.131 79.3527 334.067 79.3355C 333.335 78.7707 332.412 78.4336 331.409 78.4336C 331.236 78.4336 331.066 78.4438 330.898 78.46291C 331.846 77.8656 332.971 77.51681 334.179 77.51681C 337.525 77.51681 339.581 79.8348 340.123 82.2387C 340.219 82.6637 340.269 83.0918 340.269 83.5105C 340.269 83.6016 340.267 83.6926 340.263 83.7828C 340.681 84.0797 341.044 84.4508 341.33 84.8738" stroke="none" fill="#FFFFFF" fill-rule="nonzero" /><path id="83" transform="matrix(1 0 0 -1 0 883)" d="M228.328 82.0715C 228.328 77.1863 224.368 73.2266 219.483 73.2266C 214.597 73.2266 210.637 77.1863 210.637 82.0715C 210.637 86.9563 214.597 90.9164 219.483 90.9164C 224.368 90.9164 228.328 86.9563 228.328 82.0715" stroke="none" fill="#717171" fill-rule="nonzero" /><path id="84" transform="matrix(1 0 0 -1 0 883)" d="M221.231 82.1578L218.401 80.6289L218.4 82.9828L218.4 83.6988L219.677 83.0039M224.616 84.2309C 224.616 84.2309 224.514 84.984 224.2 85.31561C 223.802 85.7496 223.355 85.7527 223.151 85.7777C 221.684 85.8879 219.485 85.8879 219.485 85.8879L219.485 85.8879L219.48 85.8879C 219.48 85.8879 217.28 85.8879 215.815 85.7777C 215.61 85.7527 215.164 85.7496 214.765 85.31561C 214.451 84.984 214.349 84.2309 214.349 84.2309C 214.349 84.2309 214.244 83.3469 214.244 82.46291L214.244 82.46291L214.244 82.3559L214.244 82.3559L214.244 81.634C 214.244 80.7488 214.349 79.8648 214.349 79.8648C 214.349 79.8648 214.451 79.11291 214.765 78.78091C 215.164 78.3457 215.688 78.3598 215.92 78.3148C 216.759 78.2309 219.482 78.2047 219.482 78.2047C 219.482 78.2047 221.684 78.20901 223.151 78.3188C 223.355 78.3438 223.802 78.3457 224.2 78.7816C 224.514 79.11291 224.616 79.8656 224.616 79.8656C 224.616 79.8656 224.721 80.7488 224.721 81.634L224.721 81.634L224.721 82.30981L224.721 82.30981L224.721 82.46291C 224.721 83.3469 224.616 84.2309 224.616 84.2309" stroke="none" fill="#FFFFFF" fill-rule="nonzero" /><path id="85" transform="matrix(1 0 0 -1 0 883)" d="M471.21 82.23791C 471.21 77.402 467.29 73.482 462.454 73.482C 457.619 73.482 453.699 77.402 453.699 82.23791C 453.699 87.073 457.619 90.993 462.454 90.993C 467.29 90.993 471.21 87.073 471.21 82.23791" stroke="none" fill="#717171" fill-rule="nonzero" /><path id="86" transform="matrix(1 0 0 -1 0 883)" d="M466.63 79.0563C 466.63 78.5082 466.183 78.0625 465.635 78.0625L465.635 78.0625L459.273 78.0625C 458.724 78.0625 458.279 78.5082 458.279 79.0563L458.279 79.0563L458.279 82.7645L458.279 82.7645L458.279 83.3023L458.279 83.3023L459.827 83.3023C 459.788 83.2074 459.755 83.1094 459.727 83.0094C 459.657 82.7645 459.618 82.5055 459.618 82.2383C 459.618 80.6742 460.891 79.40231 462.454 79.40231C 464.018 79.40231 465.29 80.6742 465.29 82.2383C 465.29 82.5055 465.251 82.7645 465.181 83.0094C 465.152 83.1094 465.119 83.2074 465.081 83.3023L465.081 83.3023L466.63 83.3023L466.63 83.3023L466.63 82.7645M460.974 83.3023C 461.307 83.7613 461.845 84.0633 462.454 84.0633C 463.063 84.0633 463.602 83.7613 463.934 83.3023C 463.974 83.24651 464.01 83.1883 464.044 83.12811C 464.193 82.8645 464.28 82.5613 464.28 82.2383C 464.28 81.2324 463.46 80.4133 462.454 80.4133C 461.448 80.4133 460.629 81.2324 460.629 82.2383C 460.629 82.5613 460.716 82.8645 460.865 83.12811C 460.898 83.1883 460.934 83.24651 460.974 83.3023M466.21 86.2273L466.439 86.2293L466.439 86.0004L466.439 84.4715L464.688 84.4652L464.682 86.2234zM465.635 87.4234L459.273 87.4234C 458.167 87.4234 457.269 86.5242 457.269 85.4191L457.269 85.4191L457.269 83.3023L457.269 83.3023L457.269 82.5223L457.269 82.5223L457.269 79.0563C 457.269 77.9512 458.167 77.0523 459.273 77.0523L459.273 77.0523L465.635 77.0523C 466.74 77.0523 467.64 77.9512 467.64 79.0563L467.64 79.0563L467.64 82.52151L467.64 82.52151L467.64 83.3023L467.64 83.3023L467.64 85.4191C 467.64 86.5242 466.74 87.4234 465.635 87.4234" stroke="none" fill="#FFFFFF" fill-rule="nonzero" /></g><path id="139" transform="matrix(1 0 0 -1 0 883)" d="M616.276 15L616.276 0M616.276 868.8901L616.276 883.8901M21 15L21 0M21 868.8901L21 883.8901M622.276 21L637.276 21M15 21L0 21M622.276 862.8901L637.276 862.8901M15 862.8901L0 862.8901" stroke="#000000" stroke-width="1.25" fill="none" /><path id="140" transform="matrix(1 0 0 -1 0 883)" d="M616.276 15L616.276 0M616.276 868.8901L616.276 883.8901M21 15L21 0M21 868.8901L21 883.8901M622.276 21L637.276 21M15 21L0 21M622.276 862.8901L637.276 862.8901M15 862.8901L0 862.8901" stroke="#000000" stroke-width="0.25" fill="none" /><path id="141" transform="matrix(1 0 0 -1 0 883)" d="M32.2781 9.28203C 32.2781 9.516021 32.2961 9.58203 32.3559 9.62383C 32.416 9.66602 32.5719 9.69609 32.8238 9.69609C 33.2262 9.69609 33.5738 9.62383 33.8441 9.45C 34.3238 9.167971 34.552 8.63398 34.552 8.016021C 34.552 7.05586 34.0359 6.21602 32.9141 6.21602C 32.4762 6.21602 32.2781 6.33008 32.2781 6.78594zM31.252 9.900001L31.252 9.726171C 31.7141 9.68984 31.7621 9.66602 31.7621 9.150001L31.7621 9.150001L31.7621 6.74414C 31.7621 6.23398 31.7141 6.19805 31.198 6.16211L31.198 6.16211L31.198 6L31.198 6L32.6199 6C 33.3578 6 33.952 6.15 34.402 6.49805C 34.8641 6.84609 35.1398 7.38008 35.1398 8.1C 35.1398 8.664061 34.9301 9.101951 34.6359 9.38984C 34.2641 9.74414 33.7 9.900001 32.9379 9.900001z" stroke="#000000" stroke-width="0.4" fill="none" /><path id="142" transform="matrix(1 0 0 -1 0 883)" d="M38.3801 6.97813C 38.2898 6.70195 38.1758 6.51016 38.0738 6.38984C 37.9359 6.23398 37.732 6.20391 37.402 6.20391C 37.15 6.20391 36.9461 6.21602 36.8258 6.28203C 36.718 6.34219 36.6879 6.46211 36.6879 6.78594L36.6879 6.78594L36.6879 9.15586C 36.6879 9.66602 36.7418 9.69609 37.216 9.73203L37.216 9.73203L37.216 9.900001L37.216 9.900001L35.65 9.900001L35.65 9.900001L35.65 9.73203C 36.1359 9.69609 36.1777 9.66602 36.1777 9.15586L36.1777 9.15586L36.1777 6.75586C 36.1777 6.24609 36.1301 6.20391 35.6258 6.16797L35.6258 6.16797L35.6258 6L35.6258 6L38.3438 6C 38.398 6.18594 38.5238 6.75586 38.5598 6.94219z" stroke="#000000" stroke-width="0.4" fill="none" /><path id="143" transform="matrix(1 0 0 -1 0 883)" d="M41.0918 9.023829C 41.0438 9.40195 41.0141 9.63594 40.9898 9.851951C 40.7617 9.92383 40.5098 9.989841 40.234 9.989841C 39.4598 9.989841 38.998 9.49805 38.998 8.921881C 38.998 8.24414 39.6039 7.94414 39.9879 7.73984C 40.4379 7.5 40.768 7.28984 40.768 6.84609C 40.768 6.40781 40.498 6.12617 40.048 6.12617C 39.4301 6.12617 39.1598 6.73203 39.0641 7.09805L39.0641 7.09805L38.8898 7.05586C 38.9258 6.767971 39.0039 6.25195 39.052 6.12617C 39.1059 6.09609 39.1961 6.05391 39.3461 6C 39.4961 5.95781 39.6879 5.91016 39.934 5.91016C 40.732 5.91016 41.266 6.41406 41.266 7.04414C 41.266 7.71602 40.6961 7.99805 40.2277 8.23789C 39.7539 8.48398 39.466 8.68789 39.466 9.12617C 39.466 9.45 39.6699 9.78594 40.132 9.78594C 40.6539 9.78594 40.8098 9.371881 40.918 8.98789z" stroke="#000000" stroke-width="0.4" fill="none" /><path id="144" transform="matrix(1 0 0 -1 0 883)" d="M46.648 6L46.648 6.16797C 46.1258 6.21602 46.1078 6.24609 46.0898 6.88203L46.0898 6.88203L46.0301 9.05391C 46.0117 9.671881 46.0539 9.68398 46.582 9.73203L46.582 9.73203L46.582 9.900001L46.582 9.900001L45.5617 9.900001L45.5617 9.900001L44.1758 6.9L44.1758 6.9L42.8078 9.900001L42.8078 9.900001L41.8238 9.900001L41.8238 9.900001L41.8238 9.73203C 42.3699 9.67813 42.4 9.653911 42.3461 8.87383L42.3461 8.87383L42.2617 7.626171C 42.2141 7.00195 42.1777 6.73789 42.148 6.528131C 42.1059 6.27617 41.9859 6.21016 41.6379 6.16797L41.6379 6.16797L41.6379 6L41.6379 6L43.0359 6L43.0359 6L43.0359 6.16797C 42.6398 6.21016 42.4961 6.25195 42.484 6.53984C 42.4777 6.78008 42.4777 7.04414 42.502 7.53594L42.502 7.53594L42.5918 9.24609L42.5918 9.24609L42.6039 9.24609L42.6039 9.24609L43.948 6.04219L43.948 6.04219L44.068 6.04219L44.068 6.04219L45.532 9.33008L45.532 9.33008L45.5559 9.33008L45.5559 9.33008L45.5738 6.88203C 45.5801 6.24609 45.5559 6.21602 45.0699 6.16797L45.0699 6.16797L45.0699 6z" stroke="#000000" stroke-width="0.4" fill="none" /><path id="145" transform="matrix(1 0 0 -1 0 883)" d="M51.8738 7.05586C 51.5738 6.45586 51.2496 6.12617 50.6379 6.12617C 49.7258 6.12617 49.0656 6.89414 49.0656 8.016021C 49.0656 8.92813 49.5996 9.773829 50.602 9.773829C 51.2496 9.773829 51.6098 9.516021 51.7656 8.88008L51.7656 8.88008L51.9457 8.921881C 51.9098 9.24609 51.8738 9.48594 51.8258 9.828131C 51.6578 9.85781 51.2496 9.989841 50.7637 9.989841C 49.4258 9.989841 48.4539 9.15586 48.4539 7.89609C 48.4539 6.94219 49.1078 5.91016 50.602 5.91016C 51.034 5.91016 51.5379 6.03008 51.7059 6.07188C 51.8137 6.26992 51.9637 6.71406 52.0477 6.98984z" stroke="#000000" stroke-width="0.4" fill="none" /><path id="146" transform="matrix(1 0 0 -1 0 883)" d="M54.3398 9.773829C 55.1258 9.773829 55.7855 9.101951 55.7855 7.83594C 55.7855 6.68398 55.1855 6.12617 54.5195 6.12617C 53.6738 6.12617 53.0559 6.94805 53.0559 8.076171C 53.0559 9.19805 53.6676 9.773829 54.3398 9.773829zM54.4598 9.989841C 53.1996 9.989841 52.4438 8.98789 52.4438 7.90781C 52.4438 6.75586 53.3078 5.91016 54.3938 5.91016C 55.4918 5.91016 56.3977 6.70195 56.3977 7.99805C 56.3977 9.19805 55.4797 9.989841 54.4598 9.989841z" stroke="#000000" stroke-width="0.4" fill="none" /><path id="147" transform="matrix(1 0 0 -1 0 883)" d="M61.8277 6L61.8277 6.16797C 61.3059 6.21602 61.2879 6.24609 61.2695 6.88203L61.2695 6.88203L61.2098 9.05391C 61.1918 9.671881 61.2336 9.68398 61.7617 9.73203L61.7617 9.73203L61.7617 9.900001L61.7617 9.900001L60.7418 9.900001L60.7418 9.900001L59.3559 6.9L59.3559 6.9L57.9879 9.900001L57.9879 9.900001L57.0035 9.900001L57.0035 9.900001L57.0035 9.73203C 57.5496 9.67813 57.5797 9.653911 57.5258 8.87383L57.5258 8.87383L57.4418 7.626171C 57.3938 7.00195 57.3578 6.73789 57.3277 6.528131C 57.2855 6.27617 57.1656 6.21016 56.8176 6.16797L56.8176 6.16797L56.8176 6L56.8176 6L58.2156 6L58.2156 6L58.2156 6.16797C 57.8195 6.21016 57.6758 6.25195 57.6637 6.53984C 57.6578 6.78008 57.6578 7.04414 57.6816 7.53594L57.6816 7.53594L57.7719 9.24609L57.7719 9.24609L57.7836 9.24609L57.7836 9.24609L59.1277 6.04219L59.1277 6.04219L59.2477 6.04219L59.2477 6.04219L60.7117 9.33008L60.7117 9.33008L60.7355 9.33008L60.7355 9.33008L60.7535 6.88203C 60.7598 6.24609 60.7355 6.21602 60.2496 6.16797L60.2496 6.16797L60.2496 6z" stroke="#000000" stroke-width="0.4" fill="none" /><path id="148" transform="matrix(1 0 0 -1 0 883)" d="M63.8258 6L63.8258 6.16797C 63.3336 6.20391 63.2855 6.23398 63.2855 6.75L63.2855 6.75L63.2855 9.150001C 63.2855 9.66016 63.3336 9.69609 63.8258 9.73203L63.8258 9.73203L63.8258 9.900001L63.8258 9.900001L62.2355 9.900001L62.2355 9.900001L62.2355 9.73203C 62.7277 9.69609 62.7758 9.66016 62.7758 9.150001L62.7758 9.150001L62.7758 6.75C 62.7758 6.23984 62.7277 6.20391 62.2355 6.16797L62.2355 6.16797L62.2355 6z" stroke="#000000" stroke-width="0.4" fill="none" /><path id="149" transform="matrix(1 0 0 -1 0 883)" d="M66.5074 9.023829C 66.4598 9.40195 66.4297 9.63594 66.4055 9.851951C 66.1777 9.92383 65.9258 9.989841 65.6496 9.989841C 64.8758 9.989841 64.4137 9.49805 64.4137 8.921881C 64.4137 8.24414 65.0195 7.94414 65.4035 7.73984C 65.8535 7.5 66.1836 7.28984 66.1836 6.84609C 66.1836 6.40781 65.9137 6.12617 65.46371 6.12617C 64.8457 6.12617 64.5758 6.73203 64.4797 7.09805L64.4797 7.09805L64.3055 7.05586C 64.3418 6.767971 64.4195 6.25195 64.46761 6.12617C 64.52151 6.09609 64.6117 6.05391 64.7617 6C 64.91171 5.95781 65.1035 5.91016 65.3496 5.91016C 66.1477 5.91016 66.6816 6.41406 66.6816 7.04414C 66.6816 7.71602 66.1117 7.99805 65.6438 8.23789C 65.1695 8.48398 64.8816 8.68789 64.8816 9.12617C 64.8816 9.45 65.0855 9.78594 65.5477 9.78594C 66.0695 9.78594 66.2258 9.371881 66.3336 8.98789z" stroke="#000000" stroke-width="0.4" fill="none" /><path id="150" transform="matrix(1 0 0 -1 0 883)" d="M69.4055 7.68008L68.3016 7.68008C 68.4816 8.171881 68.6734 8.69414 68.8656 9.21016L68.8656 9.21016L68.8777 9.21016zM70.9355 6L70.9355 6.16797C 70.5457 6.20391 70.46761 6.25781 70.2758 6.77383C 69.89181 7.81797 69.4895 8.95781 69.11761 9.989841L69.11761 9.989841L68.9316 9.93594L68.9316 9.93594L67.68951 6.78594C 67.4797 6.25781 67.3957 6.22188 67.0176 6.16797L67.0176 6.16797L67.0176 6L67.0176 6L68.3195 6L68.3195 6L68.3195 6.16797C 67.8695 6.21016 67.81561 6.26992 67.9477 6.64805C 68.0258 6.9 68.1156 7.15195 68.2117 7.42188L68.2117 7.42188L69.4895 7.42188C 69.62151 7.05586 69.74181 6.73203 69.8195 6.49805C 69.8977 6.26406 69.8438 6.21602 69.4656 6.16797L69.4656 6.16797L69.4656 6z" stroke="#000000" stroke-width="0.4" fill="none" /><path id="151" transform="matrix(1 0 0 -1 0 883)" d="M71.7273 5.92813C 71.9195 5.92813 72.06371 6.06602 72.06371 6.27617C 72.06371 6.46797 71.9195 6.61797 71.7273 6.61797C 71.5355 6.61797 71.3914 6.46797 71.3914 6.27617C 71.3914 6.06602 71.5355 5.92813 71.7273 5.92813z" stroke="#000000" stroke-width="0.4" fill="none" /><path id="152" transform="matrix(1 0 0 -1 0 883)" d="M73.9234 6L73.9234 6.15586C 73.53951 6.19219 73.4977 6.22813 73.4977 6.63594L73.4977 6.63594L73.4977 8.70586C 73.2336 8.59805 72.9516 8.51992 72.6453 8.471881L72.6453 8.471881L72.6453 8.328131C 73.0055 8.26797 73.0234 8.24414 73.0234 7.871881L73.0234 7.871881L73.0234 6.63594C 73.0234 6.22813 72.9816 6.19219 72.6035 6.15586L72.6035 6.15586L72.6035 6zM73.2215 9.216021C 73.3953 9.216021 73.52731 9.36016 73.52731 9.52188C 73.52731 9.70195 73.3953 9.83398 73.2273 9.83398C 73.06561 9.83398 72.9215 9.70195 72.9215 9.52188C 72.9215 9.36016 73.06561 9.216021 73.2215 9.216021z" stroke="#000000" stroke-width="0.4" fill="none" /><path id="153" transform="matrix(1 0 0 -1 0 883)" d="M77.1574 6L77.1574 6.15586C 76.8094 6.19219 76.7793 6.21602 76.7793 6.62383L76.7793 6.62383L76.7793 7.78203C 76.7793 8.36406 76.4793 8.69414 76.0055 8.69414C 75.8313 8.69414 75.67541 8.621881 75.5074 8.51406C 75.3574 8.41211 75.2254 8.32188 75.1055 8.23203L75.1055 8.23203L75.1055 8.712111C 74.8414 8.59219 74.5594 8.51992 74.27151 8.466021L74.27151 8.466021L74.27151 8.328131C 74.5953 8.26797 74.6313 8.25 74.6313 7.86602L74.6313 7.86602L74.6313 6.62383C 74.6313 6.22813 74.6016 6.19805 74.19341 6.15586L74.19341 6.15586L74.19341 6L74.19341 6L75.4953 6L75.4953 6L75.4953 6.15586C 75.1414 6.19219 75.1055 6.21602 75.1055 6.62383L75.1055 6.62383L75.1055 8.03398C 75.2855 8.18984 75.5195 8.33984 75.7594 8.33984C 76.1613 8.33984 76.3055 8.069921 76.3055 7.65586L76.3055 7.65586L76.3055 6.65391C 76.3055 6.23984 76.2633 6.19219 75.9094 6.15586L75.9094 6.15586L75.9094 6z" stroke="#000000" stroke-width="0.4" fill="none" /><path id="154" transform="matrix(1 0 0 -1 0 883)" d="M79.4734 6.51016C 79.32931 6.40195 79.1133 6.30586 78.8973 6.30586C 78.5133 6.30586 78.0754 6.65391 78.0754 7.36797C 78.0754 8.23789 78.57931 8.471881 78.8555 8.471881C 79.0832 8.471881 79.32931 8.37617 79.4734 8.16602zM80.4035 6.30586L80.2113 6.32383C 79.9895 6.34805 79.9473 6.37813 79.9473 6.68984L79.9473 6.68984L79.9473 10.2719C 79.7254 10.1941 79.3234 10.1039 79.0113 10.0621L79.0113 10.0621L79.0113 9.917971C 79.44341 9.88789 79.4734 9.869921 79.4734 9.47383L79.4734 9.47383L79.4734 8.628131C 79.3355 8.67617 79.1613 8.69414 79.0773 8.69414C 78.2613 8.69414 77.5293 8.03984 77.5293 7.20586C 77.5293 6.36602 78.1594 5.92813 78.6395 5.92813C 78.7113 5.92813 78.87341 5.96406 79.1074 6.10195L79.1074 6.10195L79.4734 6.31797L79.4734 6.31797L79.4734 5.92813C 79.8215 6.05391 80.27151 6.13203 80.4035 6.15586z" stroke="#000000" stroke-width="0.4" fill="none" /><path id="155" transform="matrix(1 0 0 -1 0 883)" d="M81.3813 8.24414C 81.4895 8.310161 81.6813 8.35781 81.84921 8.35781C 82.34731 8.35781 82.7676 7.96211 82.7676 7.278131C 82.7676 6.58203 82.4492 6.15586 81.9516 6.15586C 81.6336 6.16211 81.4535 6.37188 81.4176 6.49219C 81.3934 6.54609 81.3813 6.60586 81.3813 6.69609zM81.3813 8.42383L81.3813 10.2719C 81.1594 10.1941 80.7934 10.098 80.5113 10.0621L80.5113 10.0621L80.5113 9.92383C 80.8953 9.88789 80.9074 9.851951 80.9074 9.48008L80.9074 9.48008L80.9074 6.14414C 81.2375 5.98789 81.5434 5.92813 81.78951 5.92813C 82.59341 5.92813 83.2953 6.55195 83.2953 7.43398C 83.2953 8.14219 82.7555 8.69414 82.1133 8.69414C 82.0473 8.69414 81.9633 8.67617 81.86761 8.63398z" stroke="#000000" stroke-width="0.4" fill="none" /><path id="156" transform="matrix(1 0 0 -1 0 883)" d="M88.5152 9.3L89.9133 9.3L89.9133 9.3L90.0691 9.68984L90.0691 9.68984L90.0332 9.73789L90.0332 9.73789L88.323 9.73789L88.323 9.73789L88.0891 7.90781C 88.2273 7.96211 88.4551 8.028131 88.707 8.028131C 89.3613 8.028131 89.6852 7.65 89.6852 7.121881C 89.6852 6.67188 89.4332 6.23398 88.923 6.23398C 88.557 6.23398 88.3113 6.42617 88.1852 6.53984C 88.1254 6.58789 88.0773 6.58203 88.023 6.53984C 87.957 6.48008 87.9031 6.40195 87.8973 6.34219C 87.8852 6.26992 87.9152 6.22188 87.9934 6.13789C 88.0832 6.05391 88.3352 5.92813 88.6113 5.92813C 88.92931 5.93398 89.3313 6.08984 89.65511 6.35391C 90.0211 6.65391 90.1891 6.99609 90.1891 7.35586C 90.1891 7.84805 89.7992 8.369921 89.0313 8.369921C 88.8691 8.369921 88.5871 8.273829 88.3594 8.18984z" stroke="#000000" stroke-width="0.4" fill="none" /><path id="157" transform="matrix(1 0 0 -1 0 883)" d="M91.9172 9.61211C 92.457 9.61211 92.607 8.72383 92.607 7.871881C 92.607 7.03203 92.4633 6.13203 91.923 6.13203C 91.40121 6.13203 91.2273 7.03789 91.2273 7.87813C 91.2273 8.712111 91.3711 9.61211 91.9172 9.61211zM91.923 9.810161C 91.023 9.810161 90.69341 8.74219 90.69341 7.86602C 90.69341 6.91797 91.0172 5.92813 91.923 5.92813C 92.823 5.92813 93.141 6.99609 93.141 7.871881C 93.141 8.79609 92.823 9.810161 91.923 9.810161z" stroke="#000000" stroke-width="0.4" fill="none" /><path id="158" transform="matrix(1 0 0 -1 0 883)" d="M94.27541 9.3L95.673 9.3L95.673 9.3L95.82931 9.68984L95.82931 9.68984L95.7934 9.73789L95.7934 9.73789L94.0832 9.73789L94.0832 9.73789L93.84921 7.90781C 93.9871 7.96211 94.2152 8.028131 94.4672 8.028131C 95.1211 8.028131 95.4453 7.65 95.4453 7.121881C 95.4453 6.67188 95.19341 6.23398 94.6832 6.23398C 94.3172 6.23398 94.0711 6.42617 93.9453 6.53984C 93.8852 6.58789 93.8371 6.58203 93.7832 6.53984C 93.7172 6.48008 93.6633 6.40195 93.65701 6.34219C 93.6453 6.26992 93.67541 6.22188 93.75311 6.13789C 93.84341 6.05391 94.0953 5.92813 94.3711 5.92813C 94.6891 5.93398 95.091 6.08984 95.4152 6.35391C 95.7813 6.65391 95.9492 6.99609 95.9492 7.35586C 95.9492 7.84805 95.5594 8.369921 94.791 8.369921C 94.6293 8.369921 94.34731 8.273829 94.1191 8.18984z" stroke="#000000" stroke-width="0.4" fill="none" /><path id="177" transform="matrix(1 0 0 -1 0 883)" d="M537.748 6.83984C 537.5681 6.46211 537.49 6.43789 537.166 6.43789L537.166 6.43789L536.044 6.43789L536.044 6.43789L536.896 7.33203C 537.448 7.91992 537.688 8.273829 537.688 8.79609C 537.688 9.42617 537.208 9.810161 536.68 9.810161C 536.332 9.810161 536.05 9.653911 535.8701 9.45586L535.8701 9.45586L535.528 8.96992L535.528 8.96992L535.66 8.85C 535.816 9.08398 536.0681 9.40781 536.476 9.40781C 536.92 9.40781 537.184 9.11406 537.184 8.61016C 537.184 8.09414 536.806 7.60195 536.434 7.15781C 536.134 6.81016 535.798 6.46797 535.462 6.13789L535.462 6.13789L535.462 6L535.462 6L537.706 6C 537.778 6.26992 537.838 6.53398 537.916 6.78594z" stroke="#000000" stroke-width="0.4" fill="none" /><path id="178" transform="matrix(1 0 0 -1 0 883)" d="M539.067 9.3L540.465 9.3L540.465 9.3L540.621 9.68984L540.621 9.68984L540.585 9.73789L540.585 9.73789L538.875 9.73789L538.875 9.73789L538.6411 7.90781C 538.779 7.96211 539.007 8.028131 539.259 8.028131C 539.913 8.028131 540.237 7.65 540.237 7.121881C 540.237 6.67188 539.985 6.23398 539.475 6.23398C 539.109 6.23398 538.863 6.42617 538.737 6.53984C 538.677 6.58789 538.629 6.58203 538.575 6.53984C 538.509 6.48008 538.455 6.40195 538.449 6.34219C 538.437 6.26992 538.467 6.22188 538.545 6.13789C 538.635 6.05391 538.887 5.92813 539.163 5.92813C 539.481 5.93398 539.883 6.08984 540.207 6.35391C 540.573 6.65391 540.741 6.99609 540.741 7.35586C 540.741 7.84805 540.351 8.369921 539.583 8.369921C 539.421 8.369921 539.139 8.273829 538.911 8.18984z" stroke="#000000" stroke-width="0.4" fill="none" /><path id="179" transform="matrix(1 0 0 -1 0 883)" d="M542.823 9.989841L542.487 9.989841L542.487 9.989841L541.185 5.73594L541.185 5.73594L541.521 5.73594z" stroke="#000000" stroke-width="0.4" fill="none" /><path id="180" transform="matrix(1 0 0 -1 0 883)" d="M544.455 9.61211C 544.9951 9.61211 545.145 8.72383 545.145 7.871881C 545.145 7.03203 545.001 6.13203 544.461 6.13203C 543.939 6.13203 543.765 7.03789 543.765 7.87813C 543.765 8.712111 543.909 9.61211 544.455 9.61211zM544.461 9.810161C 543.561 9.810161 543.231 8.74219 543.231 7.86602C 543.231 6.91797 543.555 5.92813 544.461 5.92813C 545.361 5.92813 545.679 6.99609 545.679 7.871881C 545.679 8.79609 545.361 9.810161 544.461 9.810161z" stroke="#000000" stroke-width="0.4" fill="none" /><path id="181" transform="matrix(1 0 0 -1 0 883)" d="M547.275 9.61211C 547.857 9.61211 548.013 8.86797 548.013 8.33984C 548.013 8.21992 548.007 8.076171 547.989 7.94414C 547.863 7.84805 547.659 7.77617 547.449 7.77617C 546.945 7.77617 546.645 8.214061 546.645 8.74219C 546.645 9.09609 546.813 9.61211 547.275 9.61211zM547.353 9.810161C 546.579 9.810161 546.129 9.10781 546.129 8.53203C 546.129 7.90195 546.567 7.43398 547.203 7.43398C 547.317 7.43398 547.431 7.45781 547.563 7.53008L547.563 7.53008L547.965 7.74609C 547.767 6.83398 547.113 6.23398 546.255 6.08984L546.255 6.08984L546.285 5.91016C 546.435 5.91016 546.801 5.96992 547.125 6.10195C 547.935 6.42617 548.541 7.20586 548.541 8.310161C 548.541 9.12617 548.103 9.810161 547.353 9.810161z" stroke="#000000" stroke-width="0.4" fill="none" /><path id="182" transform="matrix(1 0 0 -1 0 883)" d="M550.569 9.989841L550.233 9.989841L550.233 9.989841L548.931 5.73594L548.931 5.73594L549.267 5.73594z" stroke="#000000" stroke-width="0.4" fill="none" /><path id="183" transform="matrix(1 0 0 -1 0 883)" d="M553.239 6.83984C 553.059 6.46211 552.981 6.43789 552.657 6.43789L552.657 6.43789L551.535 6.43789L551.535 6.43789L552.387 7.33203C 552.939 7.91992 553.179 8.273829 553.179 8.79609C 553.179 9.42617 552.699 9.810161 552.171 9.810161C 551.823 9.810161 551.541 9.653911 551.361 9.45586L551.361 9.45586L551.019 8.96992L551.019 8.96992L551.151 8.85C 551.307 9.08398 551.559 9.40781 551.967 9.40781C 552.411 9.40781 552.675 9.11406 552.675 8.61016C 552.675 8.09414 552.2971 7.60195 551.925 7.15781C 551.625 6.81016 551.289 6.46797 550.953 6.13789L550.953 6.13789L550.953 6L550.953 6L553.197 6C 553.269 6.26992 553.329 6.53398 553.407 6.78594z" stroke="#000000" stroke-width="0.4" fill="none" /><path id="184" transform="matrix(1 0 0 -1 0 883)" d="M555.081 9.61211C 555.621 9.61211 555.771 8.72383 555.771 7.871881C 555.771 7.03203 555.627 6.13203 555.087 6.13203C 554.565 6.13203 554.3911 7.03789 554.3911 7.87813C 554.3911 8.712111 554.535 9.61211 555.081 9.61211zM555.087 9.810161C 554.187 9.810161 553.857 8.74219 553.857 7.86602C 553.857 6.91797 554.181 5.92813 555.087 5.92813C 555.987 5.92813 556.305 6.99609 556.305 7.871881C 556.305 8.79609 555.987 9.810161 555.087 9.810161z" stroke="#000000" stroke-width="0.4" fill="none" /><path id="185" transform="matrix(1 0 0 -1 0 883)" d="M558.831 6L558.831 6.16211C 558.285 6.20391 558.249 6.25195 558.249 6.68398L558.249 6.68398L558.249 9.810161C 557.919 9.67813 557.565 9.56406 557.181 9.49805L557.181 9.49805L557.181 9.36016L557.181 9.36016L557.469 9.34805C 557.733 9.33594 557.757 9.305861 557.757 8.99414L557.757 8.99414L557.757 6.68398C 557.757 6.25195 557.727 6.20391 557.181 6.16211L557.181 6.16211L557.181 6z" stroke="#000000" stroke-width="0.4" fill="none" /><path id="186" transform="matrix(1 0 0 -1 0 883)" d="M562.0891 9.73789L559.7971 9.73789C 559.773 9.48008 559.743 9.180079 559.689 8.85L559.689 8.85L559.863 8.85C 560.007 9.24609 560.043 9.3 560.439 9.3L560.439 9.3L561.735 9.3C 561.261 8.25586 560.583 7.01406 559.953 5.99414L559.953 5.99414L559.9951 5.92813L559.9951 5.92813L560.439 5.98789C 561.015 7.22383 561.573 8.44805 562.137 9.66602z" stroke="#000000" stroke-width="0.4" fill="none" /><path id="187" transform="matrix(1 0 0 -1 0 883)" d="M567.807 9.61211C 568.347 9.61211 568.497 8.72383 568.497 7.871881C 568.497 7.03203 568.353 6.13203 567.813 6.13203C 567.291 6.13203 567.117 7.03789 567.117 7.87813C 567.117 8.712111 567.261 9.61211 567.807 9.61211zM567.813 9.810161C 566.913 9.810161 566.583 8.74219 566.583 7.86602C 566.583 6.91797 566.907 5.92813 567.813 5.92813C 568.713 5.92813 569.031 6.99609 569.031 7.871881C 569.031 8.79609 568.713 9.810161 567.813 9.810161z" stroke="#000000" stroke-width="0.4" fill="none" /><path id="188" transform="matrix(1 0 0 -1 0 883)" d="M571.725 6.83984C 571.545 6.46211 571.467 6.43789 571.143 6.43789L571.143 6.43789L570.021 6.43789L570.021 6.43789L570.873 7.33203C 571.425 7.91992 571.665 8.273829 571.665 8.79609C 571.665 9.42617 571.185 9.810161 570.657 9.810161C 570.309 9.810161 570.027 9.653911 569.847 9.45586L569.847 9.45586L569.505 8.96992L569.505 8.96992L569.637 8.85C 569.793 9.08398 570.045 9.40781 570.453 9.40781C 570.897 9.40781 571.161 9.11406 571.161 8.61016C 571.161 8.09414 570.783 7.60195 570.411 7.15781C 570.111 6.81016 569.775 6.46797 569.439 6.13789L569.439 6.13789L569.439 6L569.439 6L571.683 6C 571.755 6.26992 571.815 6.53398 571.893 6.78594z" stroke="#000000" stroke-width="0.4" fill="none" /><path id="189" transform="matrix(1 0 0 -1 0 883)" d="M572.823 5.92813C 573.015 5.92813 573.159 6.06602 573.159 6.27617C 573.159 6.46797 573.015 6.61797 572.823 6.61797C 572.631 6.61797 572.487 6.46797 572.487 6.27617C 572.487 6.06602 572.631 5.92813 572.823 5.92813zM572.817 8.466021C 572.625 8.466021 572.487 8.328131 572.487 8.13008C 572.487 7.92617 572.625 7.78203 572.817 7.78203C 573.009 7.78203 573.153 7.92617 573.153 8.13008C 573.153 8.328131 573.009 8.466021 572.817 8.466021z" stroke="#000000" stroke-width="0.4" fill="none" /><path id="190" transform="matrix(1 0 0 -1 0 883)" d="M574.413 9.3L575.811 9.3L575.811 9.3L575.967 9.68984L575.967 9.68984L575.931 9.73789L575.931 9.73789L574.221 9.73789L574.221 9.73789L573.987 7.90781C 574.125 7.96211 574.353 8.028131 574.605 8.028131C 575.259 8.028131 575.583 7.65 575.583 7.121881C 575.583 6.67188 575.331 6.23398 574.821 6.23398C 574.455 6.23398 574.209 6.42617 574.083 6.53984C 574.023 6.58789 573.975 6.58203 573.921 6.53984C 573.855 6.48008 573.801 6.40195 573.795 6.34219C 573.783 6.26992 573.813 6.22188 573.8911 6.13789C 573.981 6.05391 574.233 5.92813 574.509 5.92813C 574.827 5.93398 575.229 6.08984 575.553 6.35391C 575.919 6.65391 576.087 6.99609 576.087 7.35586C 576.087 7.84805 575.697 8.369921 574.929 8.369921C 574.767 8.369921 574.485 8.273829 574.257 8.18984z" stroke="#000000" stroke-width="0.4" fill="none" /><path id="191" transform="matrix(1 0 0 -1 0 883)" d="M577.863 6.11992C 577.485 6.11992 577.131 6.42617 577.131 6.97813C 577.131 7.30781 577.335 7.60781 577.623 7.8C 578.085 7.56602 578.511 7.30781 578.511 6.85781C 578.511 6.39609 578.229 6.11992 577.863 6.11992zM577.809 9.61797C 578.085 9.61797 578.397 9.396091 578.397 8.89219C 578.397 8.53203 578.235 8.310161 578.031 8.14805C 577.605 8.35781 577.251 8.555861 577.251 9C 577.251 9.305861 577.455 9.61797 577.809 9.61797zM577.869 9.810161C 577.227 9.810161 576.801 9.33008 576.801 8.826171C 576.801 8.40586 577.059 8.11797 577.449 7.89609C 577.2451 7.76406 577.017 7.60195 576.921 7.51211C 576.789 7.38594 576.651 7.21797 576.651 6.94219C 576.651 6.3 577.161 5.92813 577.803 5.92813C 578.313 5.92813 578.991 6.31211 578.991 7.01406C 578.991 7.53594 578.613 7.82383 578.199 8.057811C 578.469 8.24414 578.631 8.38789 578.673 8.44219C 578.787 8.57383 578.847 8.74805 578.847 8.921881C 578.847 9.40781 578.439 9.810161 577.869 9.810161z" stroke="#000000" stroke-width="0.4" fill="none" /><path id="192" transform="matrix(1 0 0 -1 0 883)" d="M579.951 5.92813C 580.143 5.92813 580.287 6.06602 580.287 6.27617C 580.287 6.46797 580.143 6.61797 579.951 6.61797C 579.759 6.61797 579.615 6.46797 579.615 6.27617C 579.615 6.06602 579.759 5.92813 579.951 5.92813zM579.945 8.466021C 579.753 8.466021 579.615 8.328131 579.615 8.13008C 579.615 7.92617 579.753 7.78203 579.945 7.78203C 580.137 7.78203 580.281 7.92617 580.281 8.13008C 580.281 8.328131 580.137 8.466021 579.945 8.466021z" stroke="#000000" stroke-width="0.4" fill="none" /><path id="193" transform="matrix(1 0 0 -1 0 883)" d="M582.933 6L582.933 6.16211C 582.387 6.20391 582.351 6.25195 582.351 6.68398L582.351 6.68398L582.351 9.810161C 582.021 9.67813 581.667 9.56406 581.283 9.49805L581.283 9.49805L581.283 9.36016L581.283 9.36016L581.571 9.34805C 581.835 9.33594 581.859 9.305861 581.859 8.99414L581.859 8.99414L581.859 6.68398C 581.859 6.25195 581.829 6.20391 581.283 6.16211L581.283 6.16211L581.283 6z" stroke="#000000" stroke-width="0.4" fill="none" /><path id="194" transform="matrix(1 0 0 -1 0 883)" d="M585.813 6L585.813 6.16211C 585.267 6.20391 585.231 6.25195 585.231 6.68398L585.231 6.68398L585.231 9.810161C 584.901 9.67813 584.5471 9.56406 584.163 9.49805L584.163 9.49805L584.163 9.36016L584.163 9.36016L584.451 9.34805C 584.715 9.33594 584.739 9.305861 584.739 8.99414L584.739 8.99414L584.739 6.68398C 584.739 6.25195 584.709 6.20391 584.163 6.16211L584.163 6.16211L584.163 6z" stroke="#000000" stroke-width="0.4" fill="none" /><path id="195" transform="matrix(1 0 0 -1 0 883)" d="M588.765 8.08203C 588.927 8.20195 589.173 8.33398 589.365 8.33398C 589.803 8.33398 590.169 7.97383 590.169 7.33203C 590.169 6.65391 589.833 6.22188 589.329 6.22188C 589.125 6.22188 588.897 6.31797 588.765 6.45586zM588.765 8.28008L588.765 8.75391C 588.483 8.63984 588.147 8.53789 587.895 8.49609L587.895 8.49609L587.895 8.351951C 588.267 8.30391 588.291 8.29219 588.291 7.90195L588.291 7.90195L588.291 5.18984C 588.291 4.79414 588.237 4.75781 587.853 4.72188L587.853 4.72188L587.853 4.56016L587.853 4.56016L589.275 4.56016L589.275 4.56016L589.275 4.72188C 588.807 4.76406 588.765 4.79414 588.765 5.25L588.765 5.25L588.765 6.03594C 588.843 5.99414 589.005 5.93398 589.179 5.92813C 589.959 6.07188 590.673 6.65391 590.673 7.56016C 590.673 8.153911 590.277 8.69414 589.611 8.69414C 589.539 8.69414 589.425 8.664061 589.317 8.60391z" stroke="#000000" stroke-width="0.4" fill="none" /><path id="196" transform="matrix(1 0 0 -1 0 883)" d="M591.579 5.92813C 591.771 5.92813 591.915 6.06602 591.915 6.27617C 591.915 6.46797 591.771 6.61797 591.579 6.61797C 591.387 6.61797 591.243 6.46797 591.243 6.27617C 591.243 6.06602 591.387 5.92813 591.579 5.92813z" stroke="#000000" stroke-width="0.4" fill="none" /><path id="197" transform="matrix(1 0 0 -1 0 883)" d="M598.401 6L598.401 6.15586C 598.059 6.19219 598.011 6.21602 598.011 6.61797L598.011 6.61797L598.011 7.77617C 598.011 8.36406 597.717 8.69414 597.249 8.69414C 597.081 8.69414 596.925 8.621881 596.799 8.53789C 596.649 8.44805 596.475 8.33398 596.301 8.20195C 596.181 8.51406 595.923 8.69414 595.635 8.69414C 595.4431 8.69414 595.299 8.628131 595.143 8.53203C 594.963 8.417971 594.831 8.310161 594.705 8.226171L594.705 8.226171L594.705 8.712111C 594.441 8.59219 594.135 8.51406 593.871 8.466021L593.871 8.466021L593.871 8.328131C 594.219 8.273829 594.237 8.24414 594.237 7.86016L594.237 7.86016L594.237 6.61797C 594.237 6.22813 594.183 6.19219 593.787 6.15586L593.787 6.15586L593.787 6L593.787 6L595.053 6L595.053 6L595.053 6.15586C 594.759 6.19219 594.711 6.22813 594.711 6.61797L594.711 6.61797L594.711 8.028131C 594.8911 8.17813 595.125 8.33984 595.365 8.33984C 595.731 8.33984 595.887 8.09414 595.887 7.65L595.887 7.65L595.887 6.61797C 595.887 6.22188 595.833 6.19219 595.461 6.15586L595.461 6.15586L595.461 6L595.461 6L596.7451 6L596.7451 6L596.7451 6.15586C 596.415 6.19219 596.361 6.22813 596.361 6.60586L596.361 6.60586L596.361 7.77617C 596.361 7.88984 596.355 7.95586 596.343 8.028131C 596.571 8.21992 596.799 8.33984 597.015 8.33984C 597.393 8.33984 597.543 8.069921 597.543 7.64414L597.543 7.64414L597.543 6.64219C 597.543 6.21602 597.477 6.19219 597.123 6.15586L597.123 6.15586L597.123 6z" stroke="#000000" stroke-width="0.4" fill="none" /><path id="198" transform="matrix(1 0 0 -1 0 883)" d="M599.223 5.92813C 599.415 5.92813 599.559 6.06602 599.559 6.27617C 599.559 6.46797 599.415 6.61797 599.223 6.61797C 599.031 6.61797 598.887 6.46797 598.887 6.27617C 598.887 6.06602 599.031 5.92813 599.223 5.92813z" stroke="#000000" stroke-width="0.4" fill="none" /></g></g></svg>