<svg xmlns="http://www.w3.org/2000/svg" xmlns:xlink="http://www.w3.org/1999/xlink" id="body_1" preserveAspectRatio="xMinYMin meet" viewBox="0 0 872 1112"><defs><clipPath id="1"><path id="" clip-rule="evenodd" transform="matrix(1 0 0 1 0 0)" d="M0 834L0 0L0 0L654 0L654 0L654 834L654 834L0 834z" /></clipPath><clipPath id="2"><path id="" clip-rule="evenodd" transform="matrix(1 0 0 1 0 0)" d="M21 813L633 813L633 813L633 21L633 21L21 21z" /></clipPath><clipPath id="3"><path id="" clip-rule="evenodd" transform="matrix(1 0 0 1 0 0)" d="M293.459 268.989L390.666 268.989L390.666 268.989L390.666 180.1019L390.666 180.1019L293.459 180.1019z" /></clipPath><clipPath id="4"><path id="" clip-rule="evenodd" transform="matrix(1 0 0 1 0 0)" d="M293.459 268.989L390.666 268.989L390.666 268.989L390.666 180.1019L390.666 180.1019L293.459 180.1019z" /></clipPath><clipPath id="5"><path id="" clip-rule="evenodd" transform="matrix(1 0 0 1 0 0)" d="M437.042 268.989L511.0865 268.989L511.0865 268.989L511.0865 180.1019L511.0865 180.1019L437.042 180.1019z" /></clipPath><clipPath id="6"><path id="" clip-rule="evenodd" transform="matrix(1 0 0 1 0 0)" d="M437.042 268.989L511.0865 268.989L511.0865 268.989L511.0865 180.1019L511.0865 180.1019L437.042 180.1019z" /></clipPath><clipPath id="7"><path id="" clip-rule="evenodd" transform="matrix(1 0 0 1 0 0)" d="M293.459 269.645L560.773 269.645L560.773 269.645L560.773 166.514L560.773 166.514L293.459 166.514z" /></clipPath><clipPath id="8"><path id="" clip-rule="evenodd" transform="matrix(1 0 0 1 0 0)" d="M383.386 199.542C 372.569 205.942 365.279 218.004 365.279 231.83L365.279 231.83L365.279 231.83C 365.279 252.353 381.344 268.989 401.161 268.989L401.161 268.989L401.161 268.989C 418.478 268.989 432.931 256.285 436.3 239.384L436.3 239.384L436.3 239.384L436.3 239.384L436.3 224.275C 434.189 213.686 427.727 204.744 418.936 199.542L418.936 199.542L418.936 199.542z" /></clipPath><clipPath id="9"><path id="" clip-rule="evenodd" transform="matrix(1 0 0 1 0 0)" d="M383.386 199.542C 372.569 205.942 365.279 218.004 365.279 231.83L365.279 231.83L365.279 231.83C 365.279 252.353 381.344 268.989 401.161 268.989L401.161 268.989L401.161 268.989C 418.478 268.989 432.931 256.285 436.3 239.384L436.3 239.384L436.3 239.384L436.3 239.384L436.3 224.275C 434.189 213.686 427.727 204.744 418.936 199.542L418.936 199.542L418.936 199.542z" /></clipPath><clipPath id="10"><path id="" clip-rule="evenodd" transform="matrix(1 0 0 1 0 0)" d="M293.459 269.645L560.773 269.645L560.773 269.645L560.773 166.514L560.773 166.514L293.459 166.514z" /></clipPath><clipPath id="11"><path id="" clip-rule="evenodd" transform="matrix(1 0 0 1 0 0)" d="M489.694 232.511C 489.694 252.625 505.415 268.938 524.826 268.989L524.826 268.989L524.826 268.989L524.826 268.989L525.009 268.989C 544.419 268.938 560.14 252.625 560.14 232.511L560.14 232.511L560.14 232.511C 560.14 212.365 544.3701 196.033 524.917 196.033L524.917 196.033L524.917 196.033C 505.464 196.033 489.694 212.365 489.694 232.511" /></clipPath><clipPath id="12"><path id="" clip-rule="evenodd" transform="matrix(1 0 0 1 0 0)" d="M489.694 232.511C 489.694 252.625 505.415 268.938 524.826 268.989L524.826 268.989L524.826 268.989L524.826 268.989L525.009 268.989C 544.419 268.938 560.14 252.625 560.14 232.511L560.14 232.511L560.14 232.511C 560.14 212.365 544.3701 196.033 524.917 196.033L524.917 196.033L524.917 196.033C 505.464 196.033 489.694 212.365 489.694 232.511" /></clipPath><clipPath id="13"><path id="" clip-rule="evenodd" transform="matrix(1 0 0 1 0 0)" d="M293.459 269.645L560.773 269.645L560.773 269.645L560.773 166.514L560.773 166.514L293.459 166.514z" /></clipPath><clipPath id="14"><path id="" clip-rule="evenodd" transform="matrix(1 0 0 1 0 0)" d="M455.545 233.636L471.7852 233.636L471.7852 233.636L471.7852 229.634L471.7852 229.634L455.545 229.634z" /></clipPath><clipPath id="15"><path id="" clip-rule="evenodd" transform="matrix(1 0 0 1 0 0)" d="M455.545 233.636L471.785 233.636L471.785 233.636L471.785 229.634L471.785 229.634L455.545 229.634z" /></clipPath><clipPath id="16"><path id="" clip-rule="evenodd" transform="matrix(1 0 0 1 0 0)" d="M455.545 233.636L471.7852 233.636L471.7852 233.636L471.7852 229.634L471.7852 229.634L455.545 229.634z" /></clipPath><clipPath id="17"><path id="" clip-rule="evenodd" transform="matrix(1 0 0 1 0 0)" d="M293.459 269.645L560.773 269.645L560.773 269.645L560.773 166.514L560.773 166.514L293.459 166.514z" /></clipPath><clipPath id="18"><path id="" clip-rule="evenodd" transform="matrix(1 0 0 1 0 0)" d="M333.873 486.967L437.995 486.967L437.995 486.967L437.995 351.715L437.995 351.715L333.873 351.715z" /></clipPath><clipPath id="19"><path id="" clip-rule="evenodd" transform="matrix(1 0 0 1 0 0)" d="M333.873 486.967L437.995 486.967L437.995 486.967L437.995 351.715L437.995 351.715L333.873 351.715z" /></clipPath><clipPath id="20"><path id="" clip-rule="evenodd" transform="matrix(1 0 0 1 0 0)" d="M390.408 448.462L400.0107 448.462L400.0107 448.462L400.0107 412.7179L400.0107 412.7179L390.408 412.7179z" /></clipPath><clipPath id="21"><path id="" clip-rule="evenodd" transform="matrix(1 0 0 1 0 0)" d="M390.408 448.462L400.011 448.462L400.011 448.462L400.011 412.718L400.011 412.718L390.408 412.718z" /></clipPath><clipPath id="22"><path id="" clip-rule="evenodd" transform="matrix(1 0 0 1 0 0)" d="M390.408 448.462L400.0111 448.462L400.0111 448.462L400.0111 412.7179L400.0111 412.7179L390.408 412.7179z" /></clipPath><clipPath id="23"><path id="" clip-rule="evenodd" transform="matrix(1 0 0 1 0 0)" d="M333.873 486.967L493.828 486.967L493.828 486.967L493.828 351.715L493.828 351.715L333.873 351.715z" /></clipPath><clipPath id="24"><path id="" clip-rule="evenodd" transform="matrix(1 0 0 1 0 0)" d="M411.111 431.519C 411.111 453.257 429.49 470.879 452.162 470.879L452.162 470.879L452.162 470.879C 474.834 470.879 493.213 453.257 493.213 431.519L493.213 431.519L493.213 431.519C 493.213 409.781 474.834 392.159 452.162 392.159L452.162 392.159L452.162 392.159C 429.49 392.159 411.111 409.781 411.111 431.519" /></clipPath><clipPath id="25"><path id="" clip-rule="evenodd" transform="matrix(1 0 0 1 0 0)" d="M411.111 431.519C 411.111 453.257 429.49 470.879 452.162 470.879L452.162 470.879L452.162 470.879C 474.834 470.879 493.213 453.257 493.213 431.519L493.213 431.519L493.213 431.519C 493.213 409.781 474.834 392.159 452.162 392.159L452.162 392.159L452.162 392.159C 429.49 392.159 411.111 409.781 411.111 431.519" /></clipPath><clipPath id="26"><path id="" clip-rule="evenodd" transform="matrix(1 0 0 1 0 0)" d="M333.873 486.967L493.828 486.967L493.828 486.967L493.828 351.715L493.828 351.715L333.873 351.715z" /></clipPath><clipPath id="27"><path id="" clip-rule="evenodd" transform="matrix(1 0 0 1 0 0)" d="M300.837 172.598L324.6409 172.598L324.6409 172.598L324.6409 139.2507L324.6409 139.2507L300.837 139.2507z" /></clipPath><clipPath id="28"><path id="" clip-rule="evenodd" transform="matrix(1 0 0 1 0 0)" d="M300.837 172.598L324.6409 172.598L324.6409 172.598L324.6409 139.2507L324.6409 139.2507L300.837 139.2507z" /></clipPath><clipPath id="29"><path id="" clip-rule="evenodd" transform="matrix(1 0 0 1 0 0)" d="M372.081 172.598L395.8841 172.598L395.8841 172.598L395.8841 139.2507L395.8841 139.2507L372.081 139.2507z" /></clipPath><clipPath id="30"><path id="" clip-rule="evenodd" transform="matrix(1 0 0 1 0 0)" d="M372.081 172.598L395.8841 172.598L395.8841 172.598L395.8841 139.2507L395.8841 139.2507L372.081 139.2507z" /></clipPath><clipPath id="31"><path id="" clip-rule="evenodd" transform="matrix(1 0 0 1 0 0)" d="M421.687 172.598L445.4909 172.598L445.4909 172.598L445.4909 139.2507L445.4909 139.2507L421.687 139.2507z" /></clipPath><clipPath id="32"><path id="" clip-rule="evenodd" transform="matrix(1 0 0 1 0 0)" d="M421.687 172.598L445.4909 172.598L445.4909 172.598L445.4909 139.2507L445.4909 139.2507L421.687 139.2507z" /></clipPath><clipPath id="33"><path id="" clip-rule="evenodd" transform="matrix(1 0 0 1 0 0)" d="M302.82 406.703L328.4173 406.703L328.4173 406.703L328.4173 370.8448L328.4173 370.8448L302.82 370.8448z" /></clipPath><clipPath id="34"><path id="" clip-rule="evenodd" transform="matrix(1 0 0 1 0 0)" d="M302.82 406.703L328.4173 406.703L328.4173 406.703L328.4173 370.8448L328.4173 370.8448L302.82 370.8448z" /></clipPath><clipPath id="35"><path id="" clip-rule="evenodd" transform="matrix(1 0 0 1 0 0)" d="M505.168 172.598L528.9711 172.598L528.9711 172.598L528.9711 139.2507L528.9711 139.2507L505.168 139.2507z" /></clipPath><clipPath id="36"><path id="" clip-rule="evenodd" transform="matrix(1 0 0 1 0 0)" d="M505.168 172.598L528.9711 172.598L528.9711 172.598L528.9711 139.2507L528.9711 139.2507L505.168 139.2507z" /></clipPath><clipPath id="37"><path id="" clip-rule="evenodd" transform="matrix(1 0 0 1 0 0)" d="M505.97 475.657L531.5673 475.657L531.5673 475.657L531.5673 439.798L531.5673 439.798L505.97 439.798z" /></clipPath><clipPath id="38"><path id="" clip-rule="evenodd" transform="matrix(1 0 0 1 0 0)" d="M505.97 475.657L531.5673 475.657L531.5673 475.657L531.5673 439.798L531.5673 439.798L505.97 439.798z" /></clipPath><clipPath id="39"><path id="" clip-rule="evenodd" transform="matrix(1 0 0 1 0 0)" d="M303.178 475.657L336.553 475.657L336.553 475.657L336.553 445.9609L336.553 445.9609L303.178 445.9609z" /></clipPath><clipPath id="40"><path id="" clip-rule="evenodd" transform="matrix(1 0 0 1 0 0)" d="M303.178 475.657L336.553 475.657L336.553 475.657L336.553 445.9609L336.553 445.9609L303.178 445.9609z" /></clipPath><clipPath id="41"><path id="" clip-rule="evenodd" transform="matrix(1 0 0 1 0 0)" d="M258.594 388.573L300.9698 388.573L300.9698 388.573L300.9698 331.657L300.9698 331.657L258.594 331.657z" /></clipPath><clipPath id="42"><path id="" clip-rule="evenodd" transform="matrix(1 0 0 1 0 0)" d="M258.594 388.573L300.9698 388.573L300.9698 388.573L300.9698 331.657L300.9698 331.657L258.594 331.657z" /></clipPath><clipPath id="43"><path id="" clip-rule="evenodd" transform="matrix(1 0 0 1 0 0)" d="M342.567 695.786L356.051 695.786L356.051 695.786L356.051 639.4079L356.051 639.4079L342.567 639.4079z" /></clipPath><clipPath id="44"><path id="" clip-rule="evenodd" transform="matrix(1 0 0 1 0 0)" d="M342.567 695.786L356.051 695.786L356.051 695.786L356.051 639.408L356.051 639.408L342.567 639.408z" /></clipPath><clipPath id="45"><path id="" clip-rule="evenodd" transform="matrix(1 0 0 1 0 0)" d="M342.567 695.786L356.051 695.786L356.051 695.786L356.051 639.4079L356.051 639.4079L342.567 639.4079z" /></clipPath><clipPath id="46"><path id="" clip-rule="evenodd" transform="matrix(1 0 0 1 0 0)" d="M309.827 695.786L323.3122 695.786L323.3122 695.786L323.3122 639.4079L323.3122 639.4079L309.827 639.4079z" /></clipPath><clipPath id="47"><path id="" clip-rule="evenodd" transform="matrix(1 0 0 1 0 0)" d="M309.827 695.786L323.312 695.786L323.312 695.786L323.312 639.408L323.312 639.408L309.827 639.408z" /></clipPath><clipPath id="48"><path id="" clip-rule="evenodd" transform="matrix(1 0 0 1 0 0)" d="M309.827 695.786L323.311 695.786L323.311 695.786L323.311 639.4079L323.311 639.4079L309.827 639.4079z" /></clipPath><clipPath id="49"><path id="" clip-rule="evenodd" transform="matrix(1 0 0 1 0 0)" d="M286.573 705.196L534.386 705.196L534.386 705.196L534.386 571.259L534.386 571.259L286.573 571.259z" /></clipPath><clipPath id="50"><path id="" clip-rule="evenodd" transform="matrix(1 0 0 1 0 0)" d="M358.551 631.106C 358.551 655.026 377.941 674.416 401.86 674.416L401.86 674.416L401.86 674.416C 420.926 674.416 437.114 662.096 442.899 644.984L442.899 644.984L442.899 644.984L442.899 644.984L442.899 617.229C 437.114 600.116 420.926 587.797 401.86 587.797L401.86 587.797L401.86 587.797C 377.941 587.797 358.551 607.187 358.551 631.106" /></clipPath><clipPath id="51"><path id="" clip-rule="evenodd" transform="matrix(1 0 0 1 0 0)" d="M358.551 631.106C 358.551 655.026 377.941 674.416 401.86 674.416L401.86 674.416L401.86 674.416C 420.926 674.416 437.114 662.096 442.899 644.984L442.899 644.984L442.899 644.984L442.899 644.984L442.899 617.229C 437.114 600.116 420.926 587.797 401.86 587.797L401.86 587.797L401.86 587.797C 377.941 587.797 358.551 607.187 358.551 631.106" /></clipPath><clipPath id="52"><path id="" clip-rule="evenodd" transform="matrix(1 0 0 1 0 0)" d="M286.573 705.196L534.386 705.196L534.386 705.196L534.386 571.259L534.386 571.259L286.573 571.259z" /></clipPath><clipPath id="53"><path id="" clip-rule="evenodd" transform="matrix(1 0 0 1 0 0)" d="M446.935 631.106C 446.935 655.038 466.336 674.438 490.268 674.438L490.268 674.438L490.268 674.438C 509.718 674.438 526.174 661.625 531.655 643.978L531.655 643.978L531.655 643.978L531.655 643.978L531.655 618.235C 526.174 600.588 509.718 587.774 490.268 587.774L490.268 587.774L490.268 587.774C 466.336 587.774 446.935 607.175 446.935 631.106" /></clipPath><clipPath id="54"><path id="" clip-rule="evenodd" transform="matrix(1 0 0 1 0 0)" d="M446.935 631.106C 446.935 655.038 466.336 674.438 490.268 674.438L490.268 674.438L490.268 674.438C 509.718 674.438 526.174 661.625 531.655 643.978L531.655 643.978L531.655 643.978L531.655 643.978L531.655 618.235C 526.174 600.588 509.718 587.774 490.268 587.774L490.268 587.774L490.268 587.774C 466.336 587.774 446.935 607.175 446.935 631.106" /></clipPath><clipPath id="55"><path id="" clip-rule="evenodd" transform="matrix(1 0 0 1 0 0)" d="M286.573 705.196L534.386 705.196L534.386 705.196L534.386 571.259L534.386 571.259L286.573 571.259z" /></clipPath><clipPath id="56"><path id="" clip-rule="evenodd" transform="matrix(1 0 0 1 0 0)" d="M467.003 649.762L470.2459 649.762L470.2459 649.762L470.2459 625.9237L470.2459 625.9237L467.003 625.9237z" /></clipPath><clipPath id="57"><path id="" clip-rule="evenodd" transform="matrix(1 0 0 1 0 0)" d="M467.003 649.762L470.246 649.762L470.246 649.762L470.246 625.924L470.246 625.924L467.003 625.924z" /></clipPath><clipPath id="58"><path id="" clip-rule="evenodd" transform="matrix(1 0 0 1 0 0)" d="M467.003 649.762L470.2459 649.762L470.2459 649.762L470.2459 625.9237L470.2459 625.9237L467.003 625.9237z" /></clipPath><clipPath id="59"><path id="" clip-rule="evenodd" transform="matrix(1 0 0 1 0 0)" d="M505.8 663.593L509.041 663.593L509.041 663.593L509.041 639.7559L509.041 639.7559L505.8 639.7559z" /></clipPath><clipPath id="60"><path id="" clip-rule="evenodd" transform="matrix(1 0 0 1 0 0)" d="M505.8 663.593L509.041 663.593L509.041 663.593L509.041 639.756L509.041 639.756L505.8 639.756z" /></clipPath><clipPath id="61"><path id="" clip-rule="evenodd" transform="matrix(1 0 0 1 0 0)" d="M505.8 663.593L509.041 663.593L509.041 663.593L509.041 639.7559L509.041 639.7559L505.8 639.7559z" /></clipPath><clipPath id="62"><path id="" clip-rule="evenodd" transform="matrix(1 0 0 1 0 0)" d="M286.573 705.196L534.386 705.196L534.386 705.196L534.386 571.259L534.386 571.259L286.573 571.259z" /></clipPath><clipPath id="63"><path id="" clip-rule="evenodd" transform="matrix(1 0 0 1 0 0)" d="M286.573 705.196L534.386 705.196L534.386 705.196L534.386 571.259L534.386 571.259L286.573 571.259z" /></clipPath><clipPath id="64"><path id="" clip-rule="evenodd" transform="matrix(1 0 0 1 0 0)" d="M384.883 706.046L410.4799 706.046L410.4799 706.046L410.4799 670.1878L410.4799 670.1878L384.883 670.1878z" /></clipPath><clipPath id="65"><path id="" clip-rule="evenodd" transform="matrix(1 0 0 1 0 0)" d="M384.883 706.046L410.4799 706.046L410.4799 706.046L410.4799 670.1878L410.4799 670.1878L384.883 670.1878z" /></clipPath><clipPath id="66"><path id="" clip-rule="evenodd" transform="matrix(1 0 0 1 0 0)" d="M442.228 706.046L467.8249 706.046L467.8249 706.046L467.8249 670.1878L467.8249 670.1878L442.228 670.1878z" /></clipPath><clipPath id="67"><path id="" clip-rule="evenodd" transform="matrix(1 0 0 1 0 0)" d="M442.228 706.046L467.8249 706.046L467.8249 706.046L467.8249 670.1878L467.8249 670.1878L442.228 670.1878z" /></clipPath><clipPath id="68"><path id="" clip-rule="evenodd" transform="matrix(1 0 0 1 0 0)" d="M512.527 706.046L538.1243 706.046L538.1243 706.046L538.1243 670.1878L538.1243 670.1878L512.527 670.1878z" /></clipPath><clipPath id="69"><path id="" clip-rule="evenodd" transform="matrix(1 0 0 1 0 0)" d="M512.527 706.046L538.1243 706.046L538.1243 706.046L538.1243 670.1878L538.1243 670.1878L512.527 670.1878z" /></clipPath><clipPath id="70"><path id="" clip-rule="evenodd" transform="matrix(1 0 0 1 0 0)" d="M263.079 706.046L288.6763 706.046L288.6763 706.046L288.6763 670.1878L288.6763 670.1878L263.079 670.1878z" /></clipPath><clipPath id="71"><path id="" clip-rule="evenodd" transform="matrix(1 0 0 1 0 0)" d="M263.079 706.046L288.6763 706.046L288.6763 706.046L288.6763 670.1878L288.6763 670.1878L263.079 670.1878z" /></clipPath></defs><g transform="matrix(1.333333 0 0 1.333333 0 0)"><g clip-path="url(#1)"><g clip-path="url(#2)"><path id="1" transform="matrix(1 0 0 -1 0 834)" d="M91.866 67.4211L562.134 67.4211L562.134 74.92501L91.866 74.92501z" stroke="none" fill="#686868" fill-rule="nonzero" /><path id="2" transform="matrix(1 0 0 -1 0 834)" d="M91.866 526.984L562.134 526.984" stroke="#686868" stroke-width="1" fill="none" /><path id="3" transform="matrix(1 0 0 -1 0 834)" d="M91.866 307.016L562.134 307.016" stroke="#686868" stroke-width="1" fill="none" /></g><path id="7" transform="matrix(1 0 0 -1 0 834)" d="M356.317 649.69L356.317 664.18L355.186 663.682L356.735 667.486L358.285 663.682L357.154 664.18L357.154 649.69" stroke="none" fill="#000000" fill-rule="nonzero" /><path id="8" transform="matrix(1 0 0 -1 0 834)" d="M334 649.69L334 664.18L332.869 663.682L334.418 667.486L335.968 663.682L334.837 664.18L334.837 649.69" stroke="none" fill="#000000" fill-rule="nonzero" /><g clip-path="url(#3)"></g><g clip-path="url(#4)"><g transform="matrix(1.002137 0 0 0.998736 293.459 180.1015)"><g transform="matrix(1 0 0 1 0 0)"><image x="0" y="0" xlink:href="img_01.png" width="97" height="89" /></g></g></g><g clip-path="url(#5)"></g><g clip-path="url(#6)"><g transform="matrix(1.000614 0 0 0.998736 437.042 180.1015)"><g transform="matrix(1 0 0 1 0 0)"><image x="0" y="0" xlink:href="img_02.png" width="74" height="89" /></g></g></g><g clip-path="url(#7)"><path id="11" transform="matrix(1 0 0 -1 0 834)" d="M437.04 602.171C 437.04 581.648 420.975 565.011 401.159 565.011C 381.342 565.011 365.277 581.648 365.277 602.171C 365.277 622.694 381.342 639.331 401.159 639.331C 420.975 639.331 437.04 622.694 437.04 602.171" stroke="none" fill="#FFFFFF" fill-rule="nonzero" /></g><g clip-path="url(#8)"></g><g clip-path="url(#9)"><g transform="matrix(1.000303 0 0 1.001762 365.279 199.542)"><g transform="matrix(1 0 0 1 0 0)"><image x="0" y="0" xlink:href="img_03.png" width="71" height="84" /></g></g></g><g clip-path="url(#10)"><path id="13" transform="matrix(1 0 0 -1 0 834)" d="M437.0406 602.1677C 437.0406 581.6448 420.9758 565.0076 401.1588 565.0076C 381.3419 565.0076 365.277 581.6448 365.277 602.1677C 365.277 622.6907 381.3419 639.3278 401.1588 639.3278C 420.9758 639.3278 437.0406 622.6907 437.0406 602.1677z" stroke="#000000" stroke-width="0.7031561" fill="none" /><path id="14" transform="matrix(1 0 0 -1 0 834)" d="M560.139 601.49C 560.139 581.343 544.369 565.012 524.916 565.012C 505.463 565.012 489.693 581.343 489.693 601.49C 489.693 621.636 505.463 637.968 524.916 637.968C 544.369 637.968 560.139 621.636 560.139 601.49" stroke="none" fill="#FFFFFF" fill-rule="nonzero" /></g><g clip-path="url(#11)"></g><g clip-path="url(#12)"><g transform="matrix(1.005886 0 0 1.004714 484.262 163.494)"><g transform="matrix(1 0 0 1 0 0)"><image x="0" y="0" xlink:href="img_04.png" width="87" height="105" /></g></g></g><g clip-path="url(#13)"><path id="16" transform="matrix(1 0 0 -1 0 834)" d="M560.1388 601.486C 560.1388 581.3395 544.3688 565.0087 524.9163 565.0087C 505.4628 565.0087 489.6927 581.3395 489.6927 601.486C 489.6927 621.6325 505.4628 637.9644 524.9163 637.9644C 544.3688 637.9644 560.1388 621.6325 560.1388 601.486z" stroke="#000000" stroke-width="0.7031561" fill="none" /></g><g clip-path="url(#14)"><g><g clip-path="url(#15)"><g clip-path="url(#16)"><path id="17" transform="matrix(1 0 0 -1 0 834)" d="M455.543 601.5991L459.009 603.514L458.673 602.43L459.931 602.549L468.56 603.364L468.04 604.366L468.041 604.366L471.783 603.132L468.318 601.217L468.654 602.301L467.395 602.182L458.766 601.367L459.286 600.364" stroke="none" fill="#FFFFFF" fill-rule="nonzero" fill-opacity="0.8" /></g></g></g></g><g clip-path="url(#17)"><path id="18" transform="matrix(1 0 0 -1 0 834)" d="M320.305 655.752C 318.252 655.752 316.588 654.029 316.588 651.903C 316.588 649.777 318.252 648.054 320.305 648.054C 322.357 648.054 324.021 649.777 324.021 651.903C 324.021 654.029 322.357 655.752 320.305 655.752M320.305 648.522C 318.513 648.522 317.06 650.026 317.06 651.882C 317.06 653.737 318.513 655.241 320.305 655.241C 322.096 655.241 323.549 653.737 323.549 651.882C 323.549 650.026 322.096 648.522 320.305 648.522" stroke="none" fill="#000000" fill-rule="nonzero" /><path id="20" transform="matrix(1 0 0 -1 0 834)" d="M461.42 655.752C 459.368 655.752 457.704 654.029 457.704 651.903C 457.704 649.777 459.368 648.054 461.42 648.054C 463.473 648.054 465.136 649.777 465.136 651.903C 465.136 654.029 463.473 655.752 461.42 655.752M461.42 648.522C 459.629 648.522 458.176 650.026 458.176 651.882C 458.176 653.737 459.629 655.241 461.42 655.241C 463.212 655.241 464.664 653.737 464.664 651.882C 464.664 650.026 463.212 648.522 461.42 648.522" stroke="none" fill="#000000" fill-rule="nonzero" /></g><g clip-path="url(#18)"></g><g clip-path="url(#19)"><g transform="matrix(1.001173 0 0 1.001874 333.873 351.714)"><g transform="matrix(1 0 0 1 0 0)"><image x="0" y="0" xlink:href="img_05.png" width="104" height="135" /></g></g></g><g clip-path="url(#20)"><g><g clip-path="url(#21)"><g clip-path="url(#22)"><path id="23" transform="matrix(1 0 0 -1 0 834)" d="M395.204 385.539L390.407 396.454L393.588 395.157L393.599 421.282L396.841 421.281L396.829 395.156L400.01 396.45" stroke="none" fill="#FFFFFF" fill-rule="nonzero" fill-opacity="0.8" /></g></g></g></g><g clip-path="url(#23)"><path id="24" transform="matrix(1 0 0 -1 0 834)" d="M493.212 402.481C 493.212 380.744 474.833 363.121 452.161 363.121C 429.489 363.121 411.111 380.744 411.111 402.481C 411.111 424.219 429.489 441.841 452.161 441.841C 474.833 441.841 493.212 424.219 493.212 402.481" stroke="none" fill="#FFFFFF" fill-rule="nonzero" /></g><g clip-path="url(#24)"></g><g clip-path="url(#25)"><g transform="matrix(1.005284 0 0 1.003815 406.011 351.584)"><g transform="matrix(1 0 0 1 0 0)"><image x="0" y="0" xlink:href="img_06.png" width="95" height="135" /></g></g></g><g clip-path="url(#26)"><path id="26" transform="matrix(1 0 0 -1 0 834)" d="M493.2126 402.4814C 493.2126 380.7434 474.833 363.1219 452.1621 363.1219C 429.4901 363.1219 411.1106 380.7434 411.1106 402.4814C 411.1106 424.2195 429.4901 441.8409 452.1621 441.8409C 474.833 441.8409 493.2126 424.2195 493.2126 402.4814z" stroke="#000000" stroke-width="0.6841105" fill="none" /><path id="27" transform="matrix(1 0 0 -1 0 834)" d="M405.398 428.215C 403.401 428.215 401.782 426.663 401.782 424.748C 401.782 422.834 403.401 421.281 405.398 421.281C 407.395 421.281 409.014 422.834 409.014 424.748C 409.014 426.663 407.395 428.215 405.398 428.215M405.398 421.703C 403.655 421.703 402.242 423.058 402.242 424.729C 402.242 426.4 403.655 427.755 405.398 427.755C 407.141 427.755 408.555 426.4 408.555 424.729C 408.555 423.058 407.141 421.703 405.398 421.703" stroke="none" fill="#FFFFFF" fill-rule="nonzero" /><path id="29" transform="matrix(1 0 0 -1 0 834)" d="M482.128 414.658C 480.131 414.658 478.512 413.106 478.512 411.191C 478.512 409.277 480.131 407.725 482.128 407.725C 484.125 407.725 485.744 409.277 485.744 411.191C 485.744 413.106 484.125 414.658 482.128 414.658M482.128 408.146C 480.385 408.146 478.972 409.501 478.972 411.172C 478.972 412.844 480.385 414.199 482.128 414.199C 483.871 414.199 485.284 412.844 485.284 411.172C 485.284 409.501 483.871 408.146 482.128 408.146" stroke="none" fill="#FFFFFF" fill-rule="nonzero" /></g><g transform="matrix(1.009614 0 0 0.9985386 266.08 111.6883)"><g transform="matrix(1 0 0 1 0 0)"><image x="0" y="0" xlink:href="img_07.png" width="28" height="57" /></g></g><g clip-path="url(#27)"></g><g clip-path="url(#28)"><g transform="matrix(0.9936078 0 0 1.010809 299.821 138.2337)"><g transform="matrix(1 0 0 1 0 0)"><image x="0" y="0" xlink:href="img_08.png" width="26" height="35" /></g></g></g><g clip-path="url(#29)"></g><g clip-path="url(#30)"><g transform="matrix(-0.9935847 0 0 1.010852 396.893 138.2362)"><g transform="matrix(1 0 0 1 0 0)"><image x="0" y="0" xlink:href="img_09.png" width="26" height="35" /></g></g></g><path id="864" transform="matrix(1 0 0 -1 0 834)" d="M421.687 661.402L445.4909 661.402L445.4909 694.749L421.687 694.749z" stroke="none" fill="#FFFFFF" fill-rule="nonzero" /><g clip-path="url(#31)"></g><g clip-path="url(#32)"><g transform="matrix(0.9935847 0 0 1.010043 420.668 138.2475)"><g transform="matrix(1 0 0 1 0 0)"><image x="0" y="0" xlink:href="img_10.png" width="26" height="35" /></g></g></g><path id="866" transform="matrix(1 0 0 -1 0 834)" d="M302.82 427.296L328.4173 427.296L328.4173 463.1538L302.82 463.1538z" stroke="none" fill="#FFFFFF" fill-rule="nonzero" /><g clip-path="url(#33)"></g><g clip-path="url(#34)"><g transform="matrix(1.022789 0 0 0.9967948 301.803 369.8288)"><g transform="matrix(1 0 0 1 0 0)"><image x="0" y="0" xlink:href="img_11.png" width="27" height="38" /></g></g></g><path id="868" transform="matrix(1 0 0 -1 0 834)" d="M505.167 661.402L528.9705 661.402L528.9705 694.749L505.167 694.749z" stroke="none" fill="#FFFFFF" fill-rule="nonzero" /><g clip-path="url(#35)"></g><g clip-path="url(#36)"><g transform="matrix(-0.9935154 0 0 1.010277 529.983 138.2473)"><g transform="matrix(1 0 0 1 0 0)"><image x="0" y="0" xlink:href="img_12.png" width="26" height="35" /></g></g></g><path id="870" transform="matrix(1 0 0 -1 0 834)" d="M505.97 358.344L531.5673 358.344L531.5673 394.2018L505.97 394.2018z" stroke="none" fill="#FFFFFF" fill-rule="nonzero" /><g clip-path="url(#37)"></g><g clip-path="url(#38)"><g transform="matrix(-1.022789 0 0 0.9967948 532.574 438.7798)"><g transform="matrix(1 0 0 1 0 0)"><image x="0" y="0" xlink:href="img_13.png" width="27" height="38" /></g></g></g><path id="872" transform="matrix(1 0 0 -1 0 834)" d="M302.82 358.344L340.0962 358.344L340.0962 394.2018L302.82 394.2018z" stroke="none" fill="#FFFFFF" fill-rule="nonzero" /><g clip-path="url(#39)"></g><g clip-path="url(#40)"><g transform="matrix(1.01134 0 0 1.010997 303.179 445.9611)"><g transform="matrix(1 0 0 1 0 0)"><image x="0" y="0" xlink:href="img_14.png" width="33" height="30" /></g></g></g><g clip-path="url(#41)"></g><g clip-path="url(#42)"><g transform="matrix(1.008969 0 0 0.998961 258.594 330.6413)"><g transform="matrix(1 0 0 1 0 0)"><image x="0" y="0" xlink:href="img_15.png" width="42" height="59" /></g></g></g><g transform="matrix(0.9983744 0 0 0.9995298 286.573 571.259)"><g transform="matrix(1 0 0 1 0 0)"><image x="0" y="0" xlink:href="img_16.png" width="94" height="134" /></g></g><g clip-path="url(#43)"><g><g clip-path="url(#44)"><g clip-path="url(#45)"><path id="876" transform="matrix(1 0 0 -1 0 834)" d="M352.73 165.009L349.493 168.246C 347.682 170.057 346.684 172.465 346.684 175.027L346.684 175.027L346.684 187.912L346.684 187.912L349.051 186.906L349.051 186.906L345.809 194.591L345.809 194.591L342.567 186.906L342.567 186.906L344.934 187.912L344.934 187.912L344.934 175.027C 344.934 171.998 346.113 169.15 348.255 167.008L348.255 167.008L351.492 163.771C 353.303 161.96 354.301 159.551 354.301 156.99L354.301 156.99L354.301 138.213L354.301 138.213L356.052 138.213L356.052 138.213L356.052 156.99C 356.052 160.019 354.872 162.867 352.73 165.009" stroke="none" fill="#FFFFFF" fill-rule="nonzero" fill-opacity="0.8" /></g></g></g></g><g clip-path="url(#46)"><g><g clip-path="url(#47)"><g clip-path="url(#48)"><path id="877" transform="matrix(1 0 0 -1 0 834)" d="M313.149 165.009L316.386 168.246C 318.197 170.057 319.195 172.465 319.195 175.027L319.195 175.027L319.195 187.912L319.195 187.912L316.828 186.906L316.828 186.906L320.07 194.591L320.07 194.591L323.312 186.906L323.312 186.906L320.945 187.912L320.945 187.912L320.945 175.027C 320.945 171.998 319.766 169.15 317.624 167.008L317.624 167.008L314.387 163.771C 312.576 161.96 311.578 159.551 311.578 156.99L311.578 156.99L311.578 138.213L311.578 138.213L309.827 138.213L309.827 138.213L309.827 156.99C 309.827 160.019 311.007 162.867 313.149 165.009" stroke="none" fill="#FFFFFF" fill-rule="nonzero" fill-opacity="0.8" /></g></g></g></g><g clip-path="url(#49)"><path id="878" transform="matrix(1 0 0 -1 0 834)" d="M445.17 202.894C 445.17 178.975 425.779 159.584 401.86 159.584C 377.941 159.584 358.55 178.975 358.55 202.894C 358.55 226.813 377.941 246.204 401.86 246.204C 425.779 246.204 445.17 226.813 445.17 202.894" stroke="none" fill="#FFFFFF" fill-rule="nonzero" /></g><g clip-path="url(#50)"></g><g clip-path="url(#51)"><g transform="matrix(1.004148 0 0 1.005526 358.551 585.935)"><g transform="matrix(1 0 0 1 0 0)"><image x="0" y="0" xlink:href="img_17.png" width="84" height="114" /></g></g></g><g clip-path="url(#52)"><path id="880" transform="matrix(1 0 0 -1 0 834)" d="M445.17 202.894C 445.17 178.975 425.779 159.584 401.86 159.584C 377.941 159.584 358.55 178.975 358.55 202.894C 358.55 226.813 377.941 246.204 401.86 246.204C 425.779 246.204 445.17 226.813 445.17 202.894z" stroke="#000000" stroke-width="0.875" fill="none" /><path id="881" transform="matrix(1 0 0 -1 0 834)" d="M533.5991 202.894C 533.5991 178.963 514.199 159.562 490.267 159.562C 466.336 159.562 446.936 178.963 446.936 202.894C 446.936 226.826 466.336 246.226 490.267 246.226C 514.199 246.226 533.5991 226.826 533.5991 202.894" stroke="none" fill="#FFFFFF" fill-rule="nonzero" /></g><g clip-path="url(#53)"></g><g clip-path="url(#54)"><g transform="matrix(1.001945 0 0 1.002593 445.488 567.758)"><g transform="matrix(1 0 0 1 0 0)"><image x="0" y="0" xlink:href="img_18.png" width="86" height="140" /></g></g></g><g clip-path="url(#55)"><path id="883" transform="matrix(1 0 0 -1 0 834)" d="M533.5991 202.894C 533.5991 178.963 514.199 159.562 490.267 159.562C 466.336 159.562 446.936 178.963 446.936 202.894C 446.936 226.826 466.336 246.226 490.267 246.226C 514.199 246.226 533.5991 226.826 533.5991 202.894z" stroke="#000000" stroke-width="0.875" fill="none" /><path id="884" transform="matrix(1 0 0 -1 0 834)" d="M462.012 226.361C 462.012 226.361 462.129 227.843 461.37 228.894" stroke="#000000" stroke-width="0.175" fill="none" /><path id="885" transform="matrix(1 0 0 -1 0 834)" d="M504.311 208.961C 504.311 208.961 502.935 210.161 501.344 210.182" stroke="#FFFFFF" stroke-width="0.175" fill="none" /><path id="886" transform="matrix(1 0 0 -1 0 834)" d="M498.435 203.77C 498.435 203.77 497.463 204.895 496.182 205.094" stroke="#FFFFFF" stroke-width="0.175" fill="none" /><path id="887" transform="matrix(1 0 0 -1 0 834)" d="M456.422 227.583C 456.422 227.583 455.852 226.054 457.072 225.49" stroke="#000000" stroke-width="0.175" fill="none" /><path id="888" transform="matrix(1 0 0 -1 0 834)" d="M462.836 226.648C 462.836 226.648 462.953 228.13 462.194 229.181" stroke="#000000" stroke-width="0.175" fill="none" /><path id="889" transform="matrix(1 0 0 -1 0 834)" d="M455.814 227.348C 455.814 227.348 455.244 225.819 456.464 225.255" stroke="#000000" stroke-width="0.175" fill="none" /><path id="890" transform="matrix(1 0 0 -1 0 834)" d="M513.767 214.737C 513.767 214.737 514.777 215.828 514.832 217.123" stroke="#000000" stroke-width="0.175" fill="none" /><path id="891" transform="matrix(1 0 0 -1 0 834)" d="M510.134 219.159C 510.134 219.159 508.739 218.311 509.348 217.114" stroke="#000000" stroke-width="0.175" fill="none" /><path id="892" transform="matrix(1 0 0 -1 0 834)" d="M514.591 214.452C 514.591 214.452 515.601 215.543 515.656 216.838" stroke="#000000" stroke-width="0.175" fill="none" /><path id="893" transform="matrix(1 0 0 -1 0 834)" d="M509.512 219.351C 509.512 219.351 508.117 218.503 508.726 217.306" stroke="#000000" stroke-width="0.175" fill="none" /><path id="894" transform="matrix(1 0 0 -1 0 834)" d="M488.657 200.5C 488.657 200.5 488.916 199.036 489.914 198.21" stroke="#FFFFFF" stroke-width="0.175" fill="none" /><path id="895" transform="matrix(1 0 0 -1 0 834)" d="M488.106 200.27C 488.106 200.27 488.365 198.806 489.363 197.98" stroke="#FFFFFF" stroke-width="0.175" fill="none" /><path id="896" transform="matrix(1 0 0 -1 0 834)" d="M484.465 217.105C 484.465 217.105 485.312 218.327 485.185 219.617" stroke="#FFFFFF" stroke-width="0.175" fill="none" /><path id="897" transform="matrix(1 0 0 -1 0 834)" d="M485.018 216.88C 485.018 216.88 485.865 218.102 485.738 219.392" stroke="#FFFFFF" stroke-width="0.175" fill="none" /><path id="898" transform="matrix(1 0 0 -1 0 834)" d="M504.617 209.48C 504.617 209.48 503.241 210.68 501.65 210.701" stroke="#FFFFFF" stroke-width="0.175" fill="none" /><path id="899" transform="matrix(1 0 0 -1 0 834)" d="M492.666 203.076C 492.666 203.076 491.341 203.049 490.477 202.284" stroke="#FFFFFF" stroke-width="0.175" fill="none" /><path id="900" transform="matrix(1 0 0 -1 0 834)" d="M492.577 203.504C 492.577 203.504 491.252 203.477 490.388 202.712" stroke="#FFFFFF" stroke-width="0.175" fill="none" /><path id="901" transform="matrix(1 0 0 -1 0 834)" d="M498.7 204.172C 498.7 204.172 497.728 205.297 496.447 205.496" stroke="#FFFFFF" stroke-width="0.175" fill="none" /><path id="902" transform="matrix(1 0 0 -1 0 834)" d="M499.148 207.21C 499.148 207.21 499.293 205.211 500.942 205.205" stroke="#FFFFFF" stroke-width="0.175" fill="none" /><path id="903" transform="matrix(1 0 0 -1 0 834)" d="M498.589 206.637C 498.589 206.637 498.734 204.638 500.383 204.632" stroke="#FFFFFF" stroke-width="0.175" fill="none" /><path id="904" transform="matrix(1 0 0 -1 0 834)" d="M469.187 224.513C 469.187 224.513 470.624 225.639 470.944 227.197" stroke="#000000" stroke-width="0.175" fill="none" /><path id="905" transform="matrix(1 0 0 -1 0 834)" d="M469.639 224.115C 469.639 224.115 471.076 225.241 471.396 226.799" stroke="#000000" stroke-width="0.175" fill="none" /><path id="906" transform="matrix(1 0 0 -1 0 834)" d="M468.437 229.913C 468.437 229.913 466.447 230.147 466.131 228.527" stroke="#000000" stroke-width="0.175" fill="none" /><path id="907" transform="matrix(1 0 0 -1 0 834)" d="M467.98 230.57C 467.98 230.57 465.99 230.804 465.674 229.184" stroke="#000000" stroke-width="0.175" fill="none" /><path id="908" transform="matrix(1 0 0 -1 0 834)" d="M478.523 223.019C 478.523 223.019 479.96 224.145 480.28 225.703" stroke="#FFFFFF" stroke-width="0.175" fill="none" /><path id="909" transform="matrix(1 0 0 -1 0 834)" d="M478.975 222.621C 478.975 222.621 480.412 223.747 480.732 225.305" stroke="#FFFFFF" stroke-width="0.175" fill="none" /><path id="910" transform="matrix(1 0 0 -1 0 834)" d="M477.773 227.194C 477.773 227.194 475.783 227.428 475.467 225.808" stroke="#000000" stroke-width="0.175" fill="none" /><path id="911" transform="matrix(1 0 0 -1 0 834)" d="M477.316 227.851C 477.316 227.851 475.326 228.085 475.01 226.465" stroke="#000000" stroke-width="0.175" fill="none" /></g><g clip-path="url(#56)"><g><g clip-path="url(#57)"><g clip-path="url(#58)"><path id="912" transform="matrix(1 0 0 -1 0 834)" d="M468.625 208.076L467.004 204.233L468.187 204.736L468.187 187.578L467.004 188.081L468.625 184.238L470.245 188.081L469.062 187.578L469.062 204.431L469.062 204.736L470.245 204.233" stroke="none" fill="#FFFFFF" fill-rule="nonzero" fill-opacity="0.8" /></g></g></g></g><g clip-path="url(#59)"><g><g clip-path="url(#60)"><g clip-path="url(#61)"><path id="913" transform="matrix(1 0 0 -1 0 834)" d="M507.421 194.244L505.8 190.402L506.984 190.904L506.984 173.746L505.8 174.249L507.421 170.407L509.041 174.247L509.041 174.248L507.859 173.746L507.859 190.6L507.859 190.904L509.041 190.402L509.041 190.404" stroke="none" fill="#FFFFFF" fill-rule="nonzero" fill-opacity="0.8" /></g></g></g></g><g clip-path="url(#62)"><path id="914" transform="matrix(1 0 0 -1 0 834)" d="M419.99 237.782C 417.435 237.782 415.363 235.71 415.363 233.155C 415.363 230.599 417.435 228.528 419.99 228.528C 422.545 228.528 424.617 230.599 424.617 233.155C 424.617 235.71 422.545 237.782 419.99 237.782M419.99 229.09C 417.759 229.09 415.951 230.898 415.951 233.129C 415.951 235.36 417.759 237.168 419.99 237.168C 422.221 237.168 424.029 235.36 424.029 233.129C 424.029 230.898 422.221 229.09 419.99 229.09" stroke="none" fill="#000000" fill-rule="nonzero" /></g><g clip-path="url(#63)"><path id="916" transform="matrix(1 0 0 -1 0 834)" d="M509.194 237.943C 506.639 237.943 504.567 235.871 504.567 233.316C 504.567 230.76 506.639 228.689 509.194 228.689C 511.749 228.689 513.821 230.76 513.821 233.316C 513.821 235.871 511.749 237.943 509.194 237.943M509.194 229.251C 506.963 229.251 505.155 231.059 505.155 233.29C 505.155 235.521 506.963 237.329 509.194 237.329C 511.425 237.329 513.233 235.521 513.233 233.29C 513.233 231.059 511.425 229.251 509.194 229.251" stroke="none" fill="#000000" fill-rule="nonzero" /></g><g transform="matrix(1.009614 0 0 0.9985386 265.881 551.4163)"><g transform="matrix(1 0 0 1 0 0)"><image x="0" y="0" xlink:href="img_07.png" width="28" height="57" /></g></g><path id="1431" transform="matrix(1 0 0 -1 0 834)" d="M384.883 127.954L410.4799 127.954L410.4799 163.8122L384.883 163.8122z" stroke="none" fill="#FFFFFF" fill-rule="nonzero" /><g clip-path="url(#64)"></g><g clip-path="url(#65)"><g transform="matrix(-1.022789 0 0 0.9967948 411.486 669.1758)"><g transform="matrix(1 0 0 1 0 0)"><image x="0" y="0" xlink:href="img_19.png" width="27" height="38" /></g></g></g><path id="1433" transform="matrix(1 0 0 -1 0 834)" d="M442.228 127.954L467.8249 127.954L467.8249 163.8122L442.228 163.8122z" stroke="none" fill="#FFFFFF" fill-rule="nonzero" /><g clip-path="url(#66)"></g><g clip-path="url(#67)"><g transform="matrix(1.022789 0 0 0.9971526 441.21 669.1712)"><g transform="matrix(1 0 0 1 0 0)"><image x="0" y="0" xlink:href="img_20.png" width="27" height="38" /></g></g></g><path id="1435" transform="matrix(1 0 0 -1 0 834)" d="M512.528 127.954L538.1249 127.954L538.1249 163.8122L512.528 163.8122z" stroke="none" fill="#FFFFFF" fill-rule="nonzero" /><g clip-path="url(#68)"></g><g clip-path="url(#69)"><g transform="matrix(-1.022789 0 0 0.9965578 539.143 669.1828)"><g transform="matrix(1 0 0 1 0 0)"><image x="0" y="0" xlink:href="img_21.png" width="27" height="38" /></g></g></g><path id="1437" transform="matrix(1 0 0 -1 0 834)" d="M263.079 127.954L288.6763 127.954L288.6763 163.8122L263.079 163.8122z" stroke="none" fill="#FFFFFF" fill-rule="nonzero" /><g clip-path="url(#70)"></g><g clip-path="url(#71)"><g transform="matrix(1.022789 0 0 0.9973868 262.073 669.1683)"><g transform="matrix(1 0 0 1 0 0)"><image x="0" y="0" xlink:href="img_22.png" width="27" height="38" /></g></g></g><path id="1439" transform="matrix(1 0 0 -1 0 834)" d="M633 15L633 0M633 819L633 834M21 15L21 0M21 819L21 834M639 21L654 21M15 21L0 21M639 813L654 813M15 813L0 813" stroke="#000000" stroke-width="1.25" fill="none" /><path id="1440" transform="matrix(1 0 0 -1 0 834)" d="M633 15L633 0M633 819L633 834M21 15L21 0M21 819L21 834M639 21L654 21M15 21L0 21M639 813L654 813M15 813L0 813" stroke="#000000" stroke-width="0.25" fill="none" /><path id="1441" transform="matrix(1 0 0 -1 0 834)" d="M32.2781 9.28203C 32.2781 9.516021 32.2961 9.58203 32.3559 9.62383C 32.416 9.66602 32.5719 9.69609 32.8238 9.69609C 33.2262 9.69609 33.5738 9.62383 33.8441 9.45C 34.3238 9.167971 34.552 8.63398 34.552 8.016021C 34.552 7.05586 34.0359 6.21602 32.9141 6.21602C 32.4762 6.21602 32.2781 6.33008 32.2781 6.78594zM31.252 9.900001L31.252 9.726171C 31.7141 9.68984 31.7621 9.66602 31.7621 9.150001L31.7621 9.150001L31.7621 6.74414C 31.7621 6.23398 31.7141 6.19805 31.198 6.16211L31.198 6.16211L31.198 6L31.198 6L32.6199 6C 33.3578 6 33.952 6.15 34.402 6.49805C 34.8641 6.84609 35.1398 7.38008 35.1398 8.1C 35.1398 8.664061 34.9301 9.101951 34.6359 9.38984C 34.2641 9.74414 33.7 9.900001 32.9379 9.900001z" stroke="#000000" stroke-width="0.4" fill="none" /><path id="1442" transform="matrix(1 0 0 -1 0 834)" d="M38.3801 6.97813C 38.2898 6.70195 38.1758 6.51016 38.0738 6.38984C 37.9359 6.23398 37.732 6.20391 37.402 6.20391C 37.15 6.20391 36.9461 6.21602 36.8258 6.28203C 36.718 6.34219 36.6879 6.46211 36.6879 6.78594L36.6879 6.78594L36.6879 9.15586C 36.6879 9.66602 36.7418 9.69609 37.216 9.73203L37.216 9.73203L37.216 9.900001L37.216 9.900001L35.65 9.900001L35.65 9.900001L35.65 9.73203C 36.1359 9.69609 36.1777 9.66602 36.1777 9.15586L36.1777 9.15586L36.1777 6.75586C 36.1777 6.24609 36.1301 6.20391 35.6258 6.16797L35.6258 6.16797L35.6258 6L35.6258 6L38.3438 6C 38.398 6.18594 38.5238 6.75586 38.5598 6.94219z" stroke="#000000" stroke-width="0.4" fill="none" /><path id="1443" transform="matrix(1 0 0 -1 0 834)" d="M41.0918 9.023829C 41.0438 9.40195 41.0141 9.63594 40.9898 9.851951C 40.7617 9.92383 40.5098 9.989841 40.234 9.989841C 39.4598 9.989841 38.998 9.49805 38.998 8.921881C 38.998 8.24414 39.6039 7.94414 39.9879 7.73984C 40.4379 7.5 40.768 7.28984 40.768 6.84609C 40.768 6.40781 40.498 6.12617 40.048 6.12617C 39.4301 6.12617 39.1598 6.73203 39.0641 7.09805L39.0641 7.09805L38.8898 7.05586C 38.9258 6.767971 39.0039 6.25195 39.052 6.12617C 39.1059 6.09609 39.1961 6.05391 39.3461 6C 39.4961 5.95781 39.6879 5.91016 39.934 5.91016C 40.732 5.91016 41.266 6.41406 41.266 7.04414C 41.266 7.71602 40.6961 7.99805 40.2277 8.23789C 39.7539 8.48398 39.466 8.68789 39.466 9.12617C 39.466 9.45 39.6699 9.78594 40.132 9.78594C 40.6539 9.78594 40.8098 9.371881 40.918 8.98789z" stroke="#000000" stroke-width="0.4" fill="none" /><path id="1444" transform="matrix(1 0 0 -1 0 834)" d="M46.648 6L46.648 6.16797C 46.1258 6.21602 46.1078 6.24609 46.0898 6.88203L46.0898 6.88203L46.0301 9.05391C 46.0117 9.671881 46.0539 9.68398 46.582 9.73203L46.582 9.73203L46.582 9.900001L46.582 9.900001L45.5617 9.900001L45.5617 9.900001L44.1758 6.9L44.1758 6.9L42.8078 9.900001L42.8078 9.900001L41.8238 9.900001L41.8238 9.900001L41.8238 9.73203C 42.3699 9.67813 42.4 9.653911 42.3461 8.87383L42.3461 8.87383L42.2617 7.626171C 42.2141 7.00195 42.1777 6.73789 42.148 6.528131C 42.1059 6.27617 41.9859 6.21016 41.6379 6.16797L41.6379 6.16797L41.6379 6L41.6379 6L43.0359 6L43.0359 6L43.0359 6.16797C 42.6398 6.21016 42.4961 6.25195 42.484 6.53984C 42.4777 6.78008 42.4777 7.04414 42.502 7.53594L42.502 7.53594L42.5918 9.24609L42.5918 9.24609L42.6039 9.24609L42.6039 9.24609L43.948 6.04219L43.948 6.04219L44.068 6.04219L44.068 6.04219L45.532 9.33008L45.532 9.33008L45.5559 9.33008L45.5559 9.33008L45.5738 6.88203C 45.5801 6.24609 45.5559 6.21602 45.0699 6.16797L45.0699 6.16797L45.0699 6z" stroke="#000000" stroke-width="0.4" fill="none" /><path id="1445" transform="matrix(1 0 0 -1 0 834)" d="M51.8738 7.05586C 51.5738 6.45586 51.2496 6.12617 50.6379 6.12617C 49.7258 6.12617 49.0656 6.89414 49.0656 8.016021C 49.0656 8.92813 49.5996 9.773829 50.602 9.773829C 51.2496 9.773829 51.6098 9.516021 51.7656 8.88008L51.7656 8.88008L51.9457 8.921881C 51.9098 9.24609 51.8738 9.48594 51.8258 9.828131C 51.6578 9.85781 51.2496 9.989841 50.7637 9.989841C 49.4258 9.989841 48.4539 9.15586 48.4539 7.89609C 48.4539 6.94219 49.1078 5.91016 50.602 5.91016C 51.034 5.91016 51.5379 6.03008 51.7059 6.07188C 51.8137 6.26992 51.9637 6.71406 52.0477 6.98984z" stroke="#000000" stroke-width="0.4" fill="none" /><path id="1446" transform="matrix(1 0 0 -1 0 834)" d="M54.3398 9.773829C 55.1258 9.773829 55.7855 9.101951 55.7855 7.83594C 55.7855 6.68398 55.1855 6.12617 54.5195 6.12617C 53.6738 6.12617 53.0559 6.94805 53.0559 8.076171C 53.0559 9.19805 53.6676 9.773829 54.3398 9.773829zM54.4598 9.989841C 53.1996 9.989841 52.4438 8.98789 52.4438 7.90781C 52.4438 6.75586 53.3078 5.91016 54.3938 5.91016C 55.4918 5.91016 56.3977 6.70195 56.3977 7.99805C 56.3977 9.19805 55.4797 9.989841 54.4598 9.989841z" stroke="#000000" stroke-width="0.4" fill="none" /><path id="1447" transform="matrix(1 0 0 -1 0 834)" d="M61.8277 6L61.8277 6.16797C 61.3059 6.21602 61.2879 6.24609 61.2695 6.88203L61.2695 6.88203L61.2098 9.05391C 61.1918 9.671881 61.2336 9.68398 61.7617 9.73203L61.7617 9.73203L61.7617 9.900001L61.7617 9.900001L60.7418 9.900001L60.7418 9.900001L59.3559 6.9L59.3559 6.9L57.9879 9.900001L57.9879 9.900001L57.0035 9.900001L57.0035 9.900001L57.0035 9.73203C 57.5496 9.67813 57.5797 9.653911 57.5258 8.87383L57.5258 8.87383L57.4418 7.626171C 57.3938 7.00195 57.3578 6.73789 57.3277 6.528131C 57.2855 6.27617 57.1656 6.21016 56.8176 6.16797L56.8176 6.16797L56.8176 6L56.8176 6L58.2156 6L58.2156 6L58.2156 6.16797C 57.8195 6.21016 57.6758 6.25195 57.6637 6.53984C 57.6578 6.78008 57.6578 7.04414 57.6816 7.53594L57.6816 7.53594L57.7719 9.24609L57.7719 9.24609L57.7836 9.24609L57.7836 9.24609L59.1277 6.04219L59.1277 6.04219L59.2477 6.04219L59.2477 6.04219L60.7117 9.33008L60.7117 9.33008L60.7355 9.33008L60.7355 9.33008L60.7535 6.88203C 60.7598 6.24609 60.7355 6.21602 60.2496 6.16797L60.2496 6.16797L60.2496 6z" stroke="#000000" stroke-width="0.4" fill="none" /><path id="1448" transform="matrix(1 0 0 -1 0 834)" d="M63.8258 6L63.8258 6.16797C 63.3336 6.20391 63.2855 6.23398 63.2855 6.75L63.2855 6.75L63.2855 9.150001C 63.2855 9.66016 63.3336 9.69609 63.8258 9.73203L63.8258 9.73203L63.8258 9.900001L63.8258 9.900001L62.2355 9.900001L62.2355 9.900001L62.2355 9.73203C 62.7277 9.69609 62.7758 9.66016 62.7758 9.150001L62.7758 9.150001L62.7758 6.75C 62.7758 6.23984 62.7277 6.20391 62.2355 6.16797L62.2355 6.16797L62.2355 6z" stroke="#000000" stroke-width="0.4" fill="none" /><path id="1449" transform="matrix(1 0 0 -1 0 834)" d="M66.5074 9.023829C 66.4598 9.40195 66.4297 9.63594 66.4055 9.851951C 66.1777 9.92383 65.9258 9.989841 65.6496 9.989841C 64.8758 9.989841 64.4137 9.49805 64.4137 8.921881C 64.4137 8.24414 65.0195 7.94414 65.4035 7.73984C 65.8535 7.5 66.1836 7.28984 66.1836 6.84609C 66.1836 6.40781 65.9137 6.12617 65.46371 6.12617C 64.8457 6.12617 64.5758 6.73203 64.4797 7.09805L64.4797 7.09805L64.3055 7.05586C 64.3418 6.767971 64.4195 6.25195 64.46761 6.12617C 64.52151 6.09609 64.6117 6.05391 64.7617 6C 64.91171 5.95781 65.1035 5.91016 65.3496 5.91016C 66.1477 5.91016 66.6816 6.41406 66.6816 7.04414C 66.6816 7.71602 66.1117 7.99805 65.6438 8.23789C 65.1695 8.48398 64.8816 8.68789 64.8816 9.12617C 64.8816 9.45 65.0855 9.78594 65.5477 9.78594C 66.0695 9.78594 66.2258 9.371881 66.3336 8.98789z" stroke="#000000" stroke-width="0.4" fill="none" /><path id="1450" transform="matrix(1 0 0 -1 0 834)" d="M69.4055 7.68008L68.3016 7.68008C 68.4816 8.171881 68.6734 8.69414 68.8656 9.21016L68.8656 9.21016L68.8777 9.21016zM70.9355 6L70.9355 6.16797C 70.5457 6.20391 70.46761 6.25781 70.2758 6.77383C 69.89181 7.81797 69.4895 8.95781 69.11761 9.989841L69.11761 9.989841L68.9316 9.93594L68.9316 9.93594L67.68951 6.78594C 67.4797 6.25781 67.3957 6.22188 67.0176 6.16797L67.0176 6.16797L67.0176 6L67.0176 6L68.3195 6L68.3195 6L68.3195 6.16797C 67.8695 6.21016 67.81561 6.26992 67.9477 6.64805C 68.0258 6.9 68.1156 7.15195 68.2117 7.42188L68.2117 7.42188L69.4895 7.42188C 69.62151 7.05586 69.74181 6.73203 69.8195 6.49805C 69.8977 6.26406 69.8438 6.21602 69.4656 6.16797L69.4656 6.16797L69.4656 6z" stroke="#000000" stroke-width="0.4" fill="none" /><path id="1451" transform="matrix(1 0 0 -1 0 834)" d="M71.7273 5.92813C 71.9195 5.92813 72.06371 6.06602 72.06371 6.27617C 72.06371 6.46797 71.9195 6.61797 71.7273 6.61797C 71.5355 6.61797 71.3914 6.46797 71.3914 6.27617C 71.3914 6.06602 71.5355 5.92813 71.7273 5.92813z" stroke="#000000" stroke-width="0.4" fill="none" /><path id="1452" transform="matrix(1 0 0 -1 0 834)" d="M73.9234 6L73.9234 6.15586C 73.53951 6.19219 73.4977 6.22813 73.4977 6.63594L73.4977 6.63594L73.4977 8.70586C 73.2336 8.59805 72.9516 8.51992 72.6453 8.471881L72.6453 8.471881L72.6453 8.328131C 73.0055 8.26797 73.0234 8.24414 73.0234 7.871881L73.0234 7.871881L73.0234 6.63594C 73.0234 6.22813 72.9816 6.19219 72.6035 6.15586L72.6035 6.15586L72.6035 6zM73.2215 9.216021C 73.3953 9.216021 73.52731 9.36016 73.52731 9.52188C 73.52731 9.70195 73.3953 9.83398 73.2273 9.83398C 73.06561 9.83398 72.9215 9.70195 72.9215 9.52188C 72.9215 9.36016 73.06561 9.216021 73.2215 9.216021z" stroke="#000000" stroke-width="0.4" fill="none" /><path id="1453" transform="matrix(1 0 0 -1 0 834)" d="M77.1574 6L77.1574 6.15586C 76.8094 6.19219 76.7793 6.21602 76.7793 6.62383L76.7793 6.62383L76.7793 7.78203C 76.7793 8.36406 76.4793 8.69414 76.0055 8.69414C 75.8313 8.69414 75.67541 8.621881 75.5074 8.51406C 75.3574 8.41211 75.2254 8.32188 75.1055 8.23203L75.1055 8.23203L75.1055 8.712111C 74.8414 8.59219 74.5594 8.51992 74.27151 8.466021L74.27151 8.466021L74.27151 8.328131C 74.5953 8.26797 74.6313 8.25 74.6313 7.86602L74.6313 7.86602L74.6313 6.62383C 74.6313 6.22813 74.6016 6.19805 74.19341 6.15586L74.19341 6.15586L74.19341 6L74.19341 6L75.4953 6L75.4953 6L75.4953 6.15586C 75.1414 6.19219 75.1055 6.21602 75.1055 6.62383L75.1055 6.62383L75.1055 8.03398C 75.2855 8.18984 75.5195 8.33984 75.7594 8.33984C 76.1613 8.33984 76.3055 8.069921 76.3055 7.65586L76.3055 7.65586L76.3055 6.65391C 76.3055 6.23984 76.2633 6.19219 75.9094 6.15586L75.9094 6.15586L75.9094 6z" stroke="#000000" stroke-width="0.4" fill="none" /><path id="1454" transform="matrix(1 0 0 -1 0 834)" d="M79.4734 6.51016C 79.32931 6.40195 79.1133 6.30586 78.8973 6.30586C 78.5133 6.30586 78.0754 6.65391 78.0754 7.36797C 78.0754 8.23789 78.57931 8.471881 78.8555 8.471881C 79.0832 8.471881 79.32931 8.37617 79.4734 8.16602zM80.4035 6.30586L80.2113 6.32383C 79.9895 6.34805 79.9473 6.37813 79.9473 6.68984L79.9473 6.68984L79.9473 10.2719C 79.7254 10.1941 79.3234 10.1039 79.0113 10.0621L79.0113 10.0621L79.0113 9.917971C 79.44341 9.88789 79.4734 9.869921 79.4734 9.47383L79.4734 9.47383L79.4734 8.628131C 79.3355 8.67617 79.1613 8.69414 79.0773 8.69414C 78.2613 8.69414 77.5293 8.03984 77.5293 7.20586C 77.5293 6.36602 78.1594 5.92813 78.6395 5.92813C 78.7113 5.92813 78.87341 5.96406 79.1074 6.10195L79.1074 6.10195L79.4734 6.31797L79.4734 6.31797L79.4734 5.92813C 79.8215 6.05391 80.27151 6.13203 80.4035 6.15586z" stroke="#000000" stroke-width="0.4" fill="none" /><path id="1455" transform="matrix(1 0 0 -1 0 834)" d="M81.3813 8.24414C 81.4895 8.310161 81.6813 8.35781 81.84921 8.35781C 82.34731 8.35781 82.7676 7.96211 82.7676 7.278131C 82.7676 6.58203 82.4492 6.15586 81.9516 6.15586C 81.6336 6.16211 81.4535 6.37188 81.4176 6.49219C 81.3934 6.54609 81.3813 6.60586 81.3813 6.69609zM81.3813 8.42383L81.3813 10.2719C 81.1594 10.1941 80.7934 10.098 80.5113 10.0621L80.5113 10.0621L80.5113 9.92383C 80.8953 9.88789 80.9074 9.851951 80.9074 9.48008L80.9074 9.48008L80.9074 6.14414C 81.2375 5.98789 81.5434 5.92813 81.78951 5.92813C 82.59341 5.92813 83.2953 6.55195 83.2953 7.43398C 83.2953 8.14219 82.7555 8.69414 82.1133 8.69414C 82.0473 8.69414 81.9633 8.67617 81.86761 8.63398z" stroke="#000000" stroke-width="0.4" fill="none" /><path id="1456" transform="matrix(1 0 0 -1 0 834)" d="M89.2832 7.35L88.1012 7.35C 88.49731 8.016021 88.8871 8.58594 89.2711 9.119921L89.2711 9.119921L89.2832 9.119921zM90.3391 7.06797L90.3391 7.35L90.3391 7.35L89.7633 7.35L89.7633 7.35L89.7633 9.79219L89.7633 9.79219L89.523 9.79219C 88.90511 8.976171 88.2934 8.08789 87.723 7.23594L87.723 7.23594L87.723 7.06797L87.723 7.06797L89.2832 7.06797L89.2832 7.06797L89.2832 6.63594C 89.2832 6.23984 89.2594 6.20391 88.7371 6.16211L88.7371 6.16211L88.7371 6L88.7371 6L90.273 6L90.273 6L90.273 6.16211C 89.7871 6.20391 89.7633 6.23398 89.7633 6.63594L89.7633 6.63594L89.7633 7.06797z" stroke="#000000" stroke-width="0.4" fill="none" /><path id="1457" transform="matrix(1 0 0 -1 0 834)" d="M92.7871 6L92.7871 6.16211C 92.241 6.20391 92.2051 6.25195 92.2051 6.68398L92.2051 6.68398L92.2051 9.810161C 91.8754 9.67813 91.5211 9.56406 91.1371 9.49805L91.1371 9.49805L91.1371 9.36016L91.1371 9.36016L91.42541 9.34805C 91.6891 9.33594 91.7133 9.305861 91.7133 8.99414L91.7133 8.99414L91.7133 6.68398C 91.7133 6.25195 91.6832 6.20391 91.1371 6.16211L91.1371 6.16211L91.1371 6z" stroke="#000000" stroke-width="0.4" fill="none" /><path id="1458" transform="matrix(1 0 0 -1 0 834)" d="M95.8352 6.83984C 95.65511 6.46211 95.5773 6.43789 95.25311 6.43789L95.25311 6.43789L94.1313 6.43789L94.1313 6.43789L94.9832 7.33203C 95.5352 7.91992 95.77541 8.273829 95.77541 8.79609C 95.77541 9.42617 95.2953 9.810161 94.7672 9.810161C 94.4191 9.810161 94.1371 9.653911 93.957 9.45586L93.957 9.45586L93.6152 8.96992L93.6152 8.96992L93.74731 8.85C 93.9031 9.08398 94.15511 9.40781 94.5633 9.40781C 95.007 9.40781 95.2711 9.11406 95.2711 8.61016C 95.2711 8.09414 94.8934 7.60195 94.5211 7.15781C 94.2211 6.81016 93.8852 6.46797 93.5492 6.13789L93.5492 6.13789L93.5492 6L93.5492 6L95.7934 6C 95.8652 6.26992 95.92541 6.53398 96.00311 6.78594z" stroke="#000000" stroke-width="0.4" fill="none" /><path id="1477" transform="matrix(1 0 0 -1 0 834)" d="M554.472 6.83984C 554.292 6.46211 554.2141 6.43789 553.89 6.43789L553.89 6.43789L552.768 6.43789L552.768 6.43789L553.6201 7.33203C 554.1721 7.91992 554.412 8.273829 554.412 8.79609C 554.412 9.42617 553.932 9.810161 553.404 9.810161C 553.056 9.810161 552.774 9.653911 552.594 9.45586L552.594 9.45586L552.252 8.96992L552.252 8.96992L552.384 8.85C 552.54 9.08398 552.792 9.40781 553.2 9.40781C 553.644 9.40781 553.908 9.11406 553.908 8.61016C 553.908 8.09414 553.53 7.60195 553.158 7.15781C 552.858 6.81016 552.522 6.46797 552.186 6.13789L552.186 6.13789L552.186 6L552.186 6L554.43 6C 554.502 6.26992 554.562 6.53398 554.64 6.78594z" stroke="#000000" stroke-width="0.4" fill="none" /><path id="1478" transform="matrix(1 0 0 -1 0 834)" d="M555.792 9.3L557.19 9.3L557.19 9.3L557.346 9.68984L557.346 9.68984L557.31 9.73789L557.31 9.73789L555.6 9.73789L555.6 9.73789L555.366 7.90781C 555.504 7.96211 555.732 8.028131 555.984 8.028131C 556.638 8.028131 556.962 7.65 556.962 7.121881C 556.962 6.67188 556.71 6.23398 556.2 6.23398C 555.834 6.23398 555.588 6.42617 555.462 6.53984C 555.402 6.58789 555.354 6.58203 555.3 6.53984C 555.234 6.48008 555.18 6.40195 555.174 6.34219C 555.162 6.26992 555.192 6.22188 555.27 6.13789C 555.36 6.05391 555.612 5.92813 555.888 5.92813C 556.206 5.93398 556.608 6.08984 556.932 6.35391C 557.298 6.65391 557.466 6.99609 557.466 7.35586C 557.466 7.84805 557.076 8.369921 556.308 8.369921C 556.146 8.369921 555.864 8.273829 555.636 8.18984z" stroke="#000000" stroke-width="0.4" fill="none" /><path id="1479" transform="matrix(1 0 0 -1 0 834)" d="M559.548 9.989841L559.212 9.989841L559.212 9.989841L557.91 5.73594L557.91 5.73594L558.246 5.73594z" stroke="#000000" stroke-width="0.4" fill="none" /><path id="1480" transform="matrix(1 0 0 -1 0 834)" d="M561.18 9.61211C 561.72 9.61211 561.8701 8.72383 561.8701 7.871881C 561.8701 7.03203 561.726 6.13203 561.186 6.13203C 560.664 6.13203 560.49 7.03789 560.49 7.87813C 560.49 8.712111 560.634 9.61211 561.18 9.61211zM561.186 9.810161C 560.286 9.810161 559.956 8.74219 559.956 7.86602C 559.956 6.91797 560.28 5.92813 561.186 5.92813C 562.086 5.92813 562.404 6.99609 562.404 7.871881C 562.404 8.79609 562.086 9.810161 561.186 9.810161z" stroke="#000000" stroke-width="0.4" fill="none" /><path id="1481" transform="matrix(1 0 0 -1 0 834)" d="M564 9.61211C 564.582 9.61211 564.738 8.86797 564.738 8.33984C 564.738 8.21992 564.732 8.076171 564.7141 7.94414C 564.588 7.84805 564.384 7.77617 564.174 7.77617C 563.67 7.77617 563.3701 8.214061 563.3701 8.74219C 563.3701 9.09609 563.538 9.61211 564 9.61211zM564.078 9.810161C 563.304 9.810161 562.854 9.10781 562.854 8.53203C 562.854 7.90195 563.292 7.43398 563.928 7.43398C 564.042 7.43398 564.156 7.45781 564.288 7.53008L564.288 7.53008L564.69 7.74609C 564.492 6.83398 563.838 6.23398 562.98 6.08984L562.98 6.08984L563.01 5.91016C 563.16 5.91016 563.526 5.96992 563.85 6.10195C 564.66 6.42617 565.2661 7.20586 565.2661 8.310161C 565.2661 9.12617 564.828 9.810161 564.078 9.810161z" stroke="#000000" stroke-width="0.4" fill="none" /><path id="1482" transform="matrix(1 0 0 -1 0 834)" d="M567.294 9.989841L566.958 9.989841L566.958 9.989841L565.656 5.73594L565.656 5.73594L565.992 5.73594z" stroke="#000000" stroke-width="0.4" fill="none" /><path id="1483" transform="matrix(1 0 0 -1 0 834)" d="M569.9641 6.83984C 569.784 6.46211 569.706 6.43789 569.382 6.43789L569.382 6.43789L568.26 6.43789L568.26 6.43789L569.112 7.33203C 569.664 7.91992 569.904 8.273829 569.904 8.79609C 569.904 9.42617 569.424 9.810161 568.896 9.810161C 568.548 9.810161 568.2661 9.653911 568.086 9.45586L568.086 9.45586L567.744 8.96992L567.744 8.96992L567.876 8.85C 568.032 9.08398 568.284 9.40781 568.692 9.40781C 569.136 9.40781 569.4 9.11406 569.4 8.61016C 569.4 8.09414 569.022 7.60195 568.65 7.15781C 568.35 6.81016 568.014 6.46797 567.678 6.13789L567.678 6.13789L567.678 6L567.678 6L569.9221 6C 569.994 6.26992 570.054 6.53398 570.132 6.78594z" stroke="#000000" stroke-width="0.4" fill="none" /><path id="1484" transform="matrix(1 0 0 -1 0 834)" d="M571.806 9.61211C 572.346 9.61211 572.496 8.72383 572.496 7.871881C 572.496 7.03203 572.352 6.13203 571.812 6.13203C 571.29 6.13203 571.116 7.03789 571.116 7.87813C 571.116 8.712111 571.26 9.61211 571.806 9.61211zM571.812 9.810161C 570.912 9.810161 570.582 8.74219 570.582 7.86602C 570.582 6.91797 570.906 5.92813 571.812 5.92813C 572.712 5.92813 573.03 6.99609 573.03 7.871881C 573.03 8.79609 572.712 9.810161 571.812 9.810161z" stroke="#000000" stroke-width="0.4" fill="none" /><path id="1485" transform="matrix(1 0 0 -1 0 834)" d="M575.556 6L575.556 6.16211C 575.01 6.20391 574.9741 6.25195 574.9741 6.68398L574.9741 6.68398L574.9741 9.810161C 574.644 9.67813 574.29 9.56406 573.906 9.49805L573.906 9.49805L573.906 9.36016L573.906 9.36016L574.194 9.34805C 574.458 9.33594 574.482 9.305861 574.482 8.99414L574.482 8.99414L574.482 6.68398C 574.482 6.25195 574.452 6.20391 573.906 6.16211L573.906 6.16211L573.906 6z" stroke="#000000" stroke-width="0.4" fill="none" /><path id="1486" transform="matrix(1 0 0 -1 0 834)" d="M578.814 9.73789L576.522 9.73789C 576.498 9.48008 576.468 9.180079 576.414 8.85L576.414 8.85L576.588 8.85C 576.732 9.24609 576.768 9.3 577.164 9.3L577.164 9.3L578.46 9.3C 577.986 8.25586 577.308 7.01406 576.678 5.99414L576.678 5.99414L576.72 5.92813L576.72 5.92813L577.164 5.98789C 577.74 7.22383 578.298 8.44805 578.862 9.66602z" stroke="#000000" stroke-width="0.4" fill="none" /><path id="1487" transform="matrix(1 0 0 -1 0 834)" d="M584.531 9.61211C 585.071 9.61211 585.221 8.72383 585.221 7.871881C 585.221 7.03203 585.077 6.13203 584.537 6.13203C 584.015 6.13203 583.841 7.03789 583.841 7.87813C 583.841 8.712111 583.985 9.61211 584.531 9.61211zM584.537 9.810161C 583.637 9.810161 583.307 8.74219 583.307 7.86602C 583.307 6.91797 583.631 5.92813 584.537 5.92813C 585.437 5.92813 585.755 6.99609 585.755 7.871881C 585.755 8.79609 585.437 9.810161 584.537 9.810161z" stroke="#000000" stroke-width="0.4" fill="none" /><path id="1488" transform="matrix(1 0 0 -1 0 834)" d="M588.449 6.83984C 588.269 6.46211 588.191 6.43789 587.867 6.43789L587.867 6.43789L586.7451 6.43789L586.7451 6.43789L587.597 7.33203C 588.149 7.91992 588.389 8.273829 588.389 8.79609C 588.389 9.42617 587.909 9.810161 587.381 9.810161C 587.033 9.810161 586.751 9.653911 586.571 9.45586L586.571 9.45586L586.229 8.96992L586.229 8.96992L586.361 8.85C 586.517 9.08398 586.769 9.40781 587.177 9.40781C 587.621 9.40781 587.885 9.11406 587.885 8.61016C 587.885 8.09414 587.507 7.60195 587.135 7.15781C 586.835 6.81016 586.499 6.46797 586.163 6.13789L586.163 6.13789L586.163 6L586.163 6L588.407 6C 588.479 6.26992 588.539 6.53398 588.617 6.78594z" stroke="#000000" stroke-width="0.4" fill="none" /><path id="1489" transform="matrix(1 0 0 -1 0 834)" d="M589.5471 5.92813C 589.739 5.92813 589.883 6.06602 589.883 6.27617C 589.883 6.46797 589.739 6.61797 589.5471 6.61797C 589.355 6.61797 589.211 6.46797 589.211 6.27617C 589.211 6.06602 589.355 5.92813 589.5471 5.92813zM589.541 8.466021C 589.3491 8.466021 589.211 8.328131 589.211 8.13008C 589.211 7.92617 589.3491 7.78203 589.541 7.78203C 589.733 7.78203 589.877 7.92617 589.877 8.13008C 589.877 8.328131 589.733 8.466021 589.541 8.466021z" stroke="#000000" stroke-width="0.4" fill="none" /><path id="1490" transform="matrix(1 0 0 -1 0 834)" d="M591.137 9.3L592.535 9.3L592.535 9.3L592.691 9.68984L592.691 9.68984L592.655 9.73789L592.655 9.73789L590.945 9.73789L590.945 9.73789L590.711 7.90781C 590.8491 7.96211 591.077 8.028131 591.329 8.028131C 591.983 8.028131 592.307 7.65 592.307 7.121881C 592.307 6.67188 592.055 6.23398 591.545 6.23398C 591.179 6.23398 590.933 6.42617 590.807 6.53984C 590.747 6.58789 590.699 6.58203 590.645 6.53984C 590.579 6.48008 590.525 6.40195 590.519 6.34219C 590.507 6.26992 590.537 6.22188 590.615 6.13789C 590.705 6.05391 590.957 5.92813 591.233 5.92813C 591.551 5.93398 591.953 6.08984 592.277 6.35391C 592.643 6.65391 592.811 6.99609 592.811 7.35586C 592.811 7.84805 592.421 8.369921 591.653 8.369921C 591.491 8.369921 591.209 8.273829 590.981 8.18984z" stroke="#000000" stroke-width="0.4" fill="none" /><path id="1491" transform="matrix(1 0 0 -1 0 834)" d="M593.616 8.976171C 593.7661 9.19805 594.006 9.45 594.336 9.45C 594.654 9.45 594.906 9.257811 594.906 8.88594C 594.906 8.44219 594.498 8.20781 593.946 8.03398L593.946 8.03398L593.988 7.86016C 594.084 7.88984 594.228 7.92617 594.372 7.92617C 594.7141 7.92617 595.134 7.70391 595.134 7.15195C 595.134 6.55781 594.834 6.23984 594.408 6.23984C 594.066 6.23984 593.82 6.40781 593.664 6.54609C 593.616 6.58789 593.5681 6.58203 593.52 6.54609C 593.466 6.50391 593.388 6.42617 593.382 6.34805C 593.3701 6.27617 593.394 6.21016 593.478 6.13203C 593.556 6.06016 593.802 5.92813 594.078 5.92813C 594.51 5.92813 595.65 6.37188 595.65 7.34414C 595.65 7.78203 595.344 8.153911 594.816 8.25586L594.816 8.25586L594.816 8.26797C 594.99 8.38789 595.134 8.49609 595.2241 8.59219C 595.338 8.70586 595.41 8.84414 595.41 9.01797C 595.41 9.47383 595.056 9.810161 594.5161 9.810161C 594.198 9.810161 593.9221 9.66016 593.754 9.47383L593.754 9.47383L593.49 9.09609z" stroke="#000000" stroke-width="0.4" fill="none" /><path id="1492" transform="matrix(1 0 0 -1 0 834)" d="M596.675 5.92813C 596.867 5.92813 597.011 6.06602 597.011 6.27617C 597.011 6.46797 596.867 6.61797 596.675 6.61797C 596.483 6.61797 596.3391 6.46797 596.3391 6.27617C 596.3391 6.06602 596.483 5.92813 596.675 5.92813zM596.669 8.466021C 596.477 8.466021 596.3391 8.328131 596.3391 8.13008C 596.3391 7.92617 596.477 7.78203 596.669 7.78203C 596.861 7.78203 597.005 7.92617 597.005 8.13008C 597.005 8.328131 596.861 8.466021 596.669 8.466021z" stroke="#000000" stroke-width="0.4" fill="none" /><path id="1493" transform="matrix(1 0 0 -1 0 834)" d="M599.033 7.35L597.851 7.35C 598.247 8.016021 598.637 8.58594 599.021 9.119921L599.021 9.119921L599.033 9.119921zM600.0891 7.06797L600.0891 7.35L600.0891 7.35L599.513 7.35L599.513 7.35L599.513 9.79219L599.513 9.79219L599.273 9.79219C 598.655 8.976171 598.043 8.08789 597.473 7.23594L597.473 7.23594L597.473 7.06797L597.473 7.06797L599.033 7.06797L599.033 7.06797L599.033 6.63594C 599.033 6.23984 599.009 6.20391 598.487 6.16211L598.487 6.16211L598.487 6L598.487 6L600.023 6L600.023 6L600.023 6.16211C 599.537 6.20391 599.513 6.23398 599.513 6.63594L599.513 6.63594L599.513 7.06797z" stroke="#000000" stroke-width="0.4" fill="none" /><path id="1494" transform="matrix(1 0 0 -1 0 834)" d="M600.743 8.976171C 600.893 9.19805 601.133 9.45 601.463 9.45C 601.781 9.45 602.033 9.257811 602.033 8.88594C 602.033 8.44219 601.625 8.20781 601.073 8.03398L601.073 8.03398L601.115 7.86016C 601.211 7.88984 601.355 7.92617 601.499 7.92617C 601.841 7.92617 602.261 7.70391 602.261 7.15195C 602.261 6.55781 601.961 6.23984 601.535 6.23984C 601.1931 6.23984 600.947 6.40781 600.791 6.54609C 600.743 6.58789 600.695 6.58203 600.647 6.54609C 600.593 6.50391 600.515 6.42617 600.509 6.34805C 600.497 6.27617 600.521 6.21016 600.605 6.13203C 600.683 6.06016 600.929 5.92813 601.205 5.92813C 601.637 5.92813 602.777 6.37188 602.777 7.34414C 602.777 7.78203 602.471 8.153911 601.9431 8.25586L601.9431 8.25586L601.9431 8.26797C 602.117 8.38789 602.261 8.49609 602.351 8.59219C 602.465 8.70586 602.537 8.84414 602.537 9.01797C 602.537 9.47383 602.183 9.810161 601.643 9.810161C 601.325 9.810161 601.049 9.66016 600.881 9.47383L600.881 9.47383L600.617 9.09609z" stroke="#000000" stroke-width="0.4" fill="none" /><path id="1495" transform="matrix(1 0 0 -1 0 834)" d="M605.489 8.08203C 605.651 8.20195 605.897 8.33398 606.0891 8.33398C 606.527 8.33398 606.893 7.97383 606.893 7.33203C 606.893 6.65391 606.557 6.22188 606.053 6.22188C 605.8491 6.22188 605.621 6.31797 605.489 6.45586zM605.489 8.28008L605.489 8.75391C 605.207 8.63984 604.871 8.53789 604.619 8.49609L604.619 8.49609L604.619 8.351951C 604.991 8.30391 605.015 8.29219 605.015 7.90195L605.015 7.90195L605.015 5.18984C 605.015 4.79414 604.961 4.75781 604.577 4.72188L604.577 4.72188L604.577 4.56016L604.577 4.56016L605.999 4.56016L605.999 4.56016L605.999 4.72188C 605.531 4.76406 605.489 4.79414 605.489 5.25L605.489 5.25L605.489 6.03594C 605.567 5.99414 605.729 5.93398 605.903 5.92813C 606.683 6.07188 607.397 6.65391 607.397 7.56016C 607.397 8.153911 607.001 8.69414 606.335 8.69414C 606.263 8.69414 606.149 8.664061 606.041 8.60391z" stroke="#000000" stroke-width="0.4" fill="none" /><path id="1496" transform="matrix(1 0 0 -1 0 834)" d="M608.303 5.92813C 608.4951 5.92813 608.639 6.06602 608.639 6.27617C 608.639 6.46797 608.4951 6.61797 608.303 6.61797C 608.111 6.61797 607.967 6.46797 607.967 6.27617C 607.967 6.06602 608.111 5.92813 608.303 5.92813z" stroke="#000000" stroke-width="0.4" fill="none" /><path id="1497" transform="matrix(1 0 0 -1 0 834)" d="M615.125 6L615.125 6.15586C 614.783 6.19219 614.735 6.21602 614.735 6.61797L614.735 6.61797L614.735 7.77617C 614.735 8.36406 614.441 8.69414 613.973 8.69414C 613.805 8.69414 613.649 8.621881 613.523 8.53789C 613.373 8.44805 613.199 8.33398 613.025 8.20195C 612.905 8.51406 612.647 8.69414 612.359 8.69414C 612.167 8.69414 612.023 8.628131 611.867 8.53203C 611.687 8.417971 611.555 8.310161 611.429 8.226171L611.429 8.226171L611.429 8.712111C 611.165 8.59219 610.859 8.51406 610.595 8.466021L610.595 8.466021L610.595 8.328131C 610.9431 8.273829 610.961 8.24414 610.961 7.86016L610.961 7.86016L610.961 6.61797C 610.961 6.22813 610.907 6.19219 610.511 6.15586L610.511 6.15586L610.511 6L610.511 6L611.777 6L611.777 6L611.777 6.15586C 611.483 6.19219 611.435 6.22813 611.435 6.61797L611.435 6.61797L611.435 8.028131C 611.615 8.17813 611.8491 8.33984 612.0891 8.33984C 612.455 8.33984 612.611 8.09414 612.611 7.65L612.611 7.65L612.611 6.61797C 612.611 6.22188 612.557 6.19219 612.185 6.15586L612.185 6.15586L612.185 6L612.185 6L613.469 6L613.469 6L613.469 6.15586C 613.139 6.19219 613.085 6.22813 613.085 6.60586L613.085 6.60586L613.085 7.77617C 613.085 7.88984 613.079 7.95586 613.067 8.028131C 613.295 8.21992 613.523 8.33984 613.739 8.33984C 614.117 8.33984 614.267 8.069921 614.267 7.64414L614.267 7.64414L614.267 6.64219C 614.267 6.21602 614.201 6.19219 613.847 6.15586L613.847 6.15586L613.847 6z" stroke="#000000" stroke-width="0.4" fill="none" /><path id="1498" transform="matrix(1 0 0 -1 0 834)" d="M615.947 5.92813C 616.139 5.92813 616.283 6.06602 616.283 6.27617C 616.283 6.46797 616.139 6.61797 615.947 6.61797C 615.755 6.61797 615.611 6.46797 615.611 6.27617C 615.611 6.06602 615.755 5.92813 615.947 5.92813z" stroke="#000000" stroke-width="0.4" fill="none" /></g></g></svg>