<svg xmlns="http://www.w3.org/2000/svg" xmlns:xlink="http://www.w3.org/1999/xlink" id="body_1" preserveAspectRatio="xMinYMin meet" viewBox="0 0 872 1112"><defs><clipPath id="1"><path id="" clip-rule="evenodd" transform="matrix(1 0 0 1 0 0)" d="M0 834L0 0L0 0L654 0L654 0L654 834L654 834L0 834z" /></clipPath><clipPath id="2"><path id="" clip-rule="evenodd" transform="matrix(1 0 0 1 0 0)" d="M21 813L633 813L633 813L633 21L633 21L21 21z" /></clipPath><clipPath id="3"><path id="" clip-rule="evenodd" transform="matrix(1 0 0 1 0 0)" d="M312.827 482.973L521.5991 482.973L521.5991 482.973L521.5991 359.948L521.5991 359.948L312.827 359.948z" /></clipPath><clipPath id="4"><path id="" clip-rule="evenodd" transform="matrix(1 0 0 1 0 0)" d="M378.826 461.447C 378.826 472.698 387.947 481.818 399.198 481.818L399.198 481.818L399.198 481.818C 407.03 481.818 413.83 477.399 417.239 470.918L417.239 470.918L417.239 470.918L417.239 470.918L417.239 451.975C 413.83 445.493 407.03 441.074 399.198 441.074L399.198 441.074L399.198 441.074C 387.947 441.074 378.826 450.195 378.826 461.447" /></clipPath><clipPath id="5"><path id="" clip-rule="evenodd" transform="matrix(1 0 0 1 0 0)" d="M378.826 461.447C 378.826 472.698 387.947 481.818 399.198 481.818L399.198 481.818L399.198 481.818C 407.03 481.818 413.83 477.399 417.239 470.918L417.239 470.918L417.239 470.918L417.239 470.918L417.239 451.975C 413.83 445.493 407.03 441.074 399.198 441.074L399.198 441.074L399.198 441.074C 387.947 441.074 378.826 450.195 378.826 461.447" /></clipPath><clipPath id="6"><path id="" clip-rule="evenodd" transform="matrix(1 0 0 1 0 0)" d="M312.827 482.973L521.5991 482.973L521.5991 482.973L521.5991 359.948L521.5991 359.948L312.827 359.948z" /></clipPath><clipPath id="7"><path id="" clip-rule="evenodd" transform="matrix(1 0 0 1 0 0)" d="M468.455 401.622L481.5741 401.622L481.5741 401.622L481.5741 398.6751L481.5741 398.6751L468.455 398.6751z" /></clipPath><clipPath id="8"><path id="" clip-rule="evenodd" transform="matrix(1 0 0 1 0 0)" d="M468.455 401.622L481.574 401.622L481.574 401.622L481.574 398.675L481.574 398.675L468.455 398.675z" /></clipPath><clipPath id="9"><path id="" clip-rule="evenodd" transform="matrix(1 0 0 1 0 0)" d="M468.455 401.622L481.5738 401.622L481.5738 401.622L481.5738 398.6751L481.5738 398.6751L468.455 398.6751z" /></clipPath><clipPath id="10"><path id="" clip-rule="evenodd" transform="matrix(1 0 0 1 0 0)" d="M468.455 401.622L481.5741 401.622L481.5741 401.622L481.5741 398.6751L481.5741 398.6751L468.455 398.6751z" /></clipPath><clipPath id="11"><path id="" clip-rule="evenodd" transform="matrix(1 0 0 1 0 0)" d="M312.827 482.973L521.5991 482.973L521.5991 482.973L521.5991 359.948L521.5991 359.948L312.827 359.948z" /></clipPath><clipPath id="12"><path id="" clip-rule="evenodd" transform="matrix(1 0 0 1 0 0)" d="M425.662 461.884C 425.662 473.135 434.783 482.257 446.035 482.257L446.035 482.257L446.035 482.257C 457.285 482.257 466.406 473.135 466.406 461.884L466.406 461.884L466.406 461.884C 466.406 450.633 457.285 441.512 446.035 441.512L446.035 441.512L446.035 441.512C 434.783 441.512 425.662 450.633 425.662 461.884" /></clipPath><clipPath id="13"><path id="" clip-rule="evenodd" transform="matrix(1 0 0 1 0 0)" d="M425.662 461.884C 425.662 473.135 434.783 482.257 446.035 482.257L446.035 482.257L446.035 482.257C 457.285 482.257 466.406 473.135 466.406 461.884L466.406 461.884L466.406 461.884C 466.406 450.633 457.285 441.512 446.035 441.512L446.035 441.512L446.035 441.512C 434.783 441.512 425.662 450.633 425.662 461.884" /></clipPath><clipPath id="14"><path id="" clip-rule="evenodd" transform="matrix(1 0 0 1 0 0)" d="M312.827 482.973L521.5991 482.973L521.5991 482.973L521.5991 359.948L521.5991 359.948L312.827 359.948z" /></clipPath><clipPath id="15"><path id="" clip-rule="evenodd" transform="matrix(1 0 0 1 0 0)" d="M299.22 704.126L399.66 704.126L399.66 704.126L399.66 576.484L399.66 576.484L299.22 576.484z" /></clipPath><clipPath id="16"><path id="" clip-rule="evenodd" transform="matrix(1 0 0 1 0 0)" d="M299.22 704.126L399.66 704.126L399.66 704.126L399.66 576.484L399.66 576.484L299.22 576.484z" /></clipPath><clipPath id="17"><path id="" clip-rule="evenodd" transform="matrix(1 0 0 1 0 0)" d="M398.875 703.603L506.509 703.603L506.509 703.603L506.509 575.306L506.509 575.306L398.875 575.306z" /></clipPath><clipPath id="18"><path id="" clip-rule="evenodd" transform="matrix(1 0 0 1 0 0)" d="M398.875 703.603L506.509 703.603L506.509 703.603L506.509 575.306L506.509 575.306L398.875 575.306z" /></clipPath><clipPath id="19"><path id="" clip-rule="evenodd" transform="matrix(1 0 0 1 0 0)" d="M299.22 704.126L506.509 704.126L506.509 704.126L506.509 575.306L506.509 575.306L299.22 575.306z" /></clipPath><clipPath id="20"><path id="" clip-rule="evenodd" transform="matrix(1 0 0 1 0 0)" d="M261.396 388.094L298.6339 388.094L298.6339 388.094L298.6339 331.1768L298.6339 331.1768L261.396 331.1768z" /></clipPath><clipPath id="21"><path id="" clip-rule="evenodd" transform="matrix(1 0 0 1 0 0)" d="M261.396 388.094L298.6339 388.094L298.6339 388.094L298.6339 331.1768L298.6339 331.1768L261.396 331.1768z" /></clipPath><clipPath id="22"><path id="" clip-rule="evenodd" transform="matrix(1 0 0 1 0 0)" d="M261.396 608.062L298.6339 608.062L298.6339 608.062L298.6339 551.1448L298.6339 551.1448L261.396 551.1448z" /></clipPath><clipPath id="23"><path id="" clip-rule="evenodd" transform="matrix(1 0 0 1 0 0)" d="M261.396 608.062L298.6339 608.062L298.6339 608.062L298.6339 551.1448L298.6339 551.1448L261.396 551.1448z" /></clipPath><clipPath id="24"><path id="" clip-rule="evenodd" transform="matrix(1 0 0 1 0 0)" d="M308.074 400.909L333.6717 400.909L333.6717 400.909L333.6717 365.0512L333.6717 365.0512L308.074 365.0512z" /></clipPath><clipPath id="25"><path id="" clip-rule="evenodd" transform="matrix(1 0 0 1 0 0)" d="M308.074 400.909L333.6717 400.909L333.6717 400.909L333.6717 365.0512L333.6717 365.0512L308.074 365.0512z" /></clipPath><clipPath id="26"><path id="" clip-rule="evenodd" transform="matrix(1 0 0 1 0 0)" d="M516.496 400.909L542.0921 400.909L542.0921 400.909L542.0921 365.0512L542.0921 365.0512L516.496 365.0512z" /></clipPath><clipPath id="27"><path id="" clip-rule="evenodd" transform="matrix(1 0 0 1 0 0)" d="M516.496 400.909L542.0921 400.909L542.0921 400.909L542.0921 365.0512L542.0921 365.0512L516.496 365.0512z" /></clipPath><clipPath id="28"><path id="" clip-rule="evenodd" transform="matrix(1 0 0 1 0 0)" d="M286.322 705.492L311.9193 705.492L311.9193 705.492L311.9193 669.6338L311.9193 669.6338L286.322 669.6338z" /></clipPath><clipPath id="29"><path id="" clip-rule="evenodd" transform="matrix(1 0 0 1 0 0)" d="M286.322 705.492L311.9193 705.492L311.9193 705.492L311.9193 669.6338L311.9193 669.6338L286.322 669.6338z" /></clipPath><clipPath id="30"><path id="" clip-rule="evenodd" transform="matrix(1 0 0 1 0 0)" d="M427.063 400.909L452.6603 400.909L452.6603 400.909L452.6603 365.0512L452.6603 365.0512L427.063 365.0512z" /></clipPath><clipPath id="31"><path id="" clip-rule="evenodd" transform="matrix(1 0 0 1 0 0)" d="M427.063 400.909L452.6603 400.909L452.6603 400.909L452.6603 365.0512L452.6603 365.0512L427.063 365.0512z" /></clipPath><clipPath id="32"><path id="" clip-rule="evenodd" transform="matrix(1 0 0 1 0 0)" d="M389.787 400.909L415.3839 400.909L415.3839 400.909L415.3839 365.0512L415.3839 365.0512L389.787 365.0512z" /></clipPath><clipPath id="33"><path id="" clip-rule="evenodd" transform="matrix(1 0 0 1 0 0)" d="M389.787 400.909L415.3839 400.909L415.3839 400.909L415.3839 365.0512L415.3839 365.0512L389.787 365.0512z" /></clipPath><clipPath id="34"><path id="" clip-rule="evenodd" transform="matrix(1 0 0 1 0 0)" d="M508.417 705.492L534.0139 705.492L534.0139 705.492L534.0139 669.6338L534.0139 669.6338L508.417 669.6338z" /></clipPath><clipPath id="35"><path id="" clip-rule="evenodd" transform="matrix(1 0 0 1 0 0)" d="M508.417 705.492L534.0139 705.492L534.0139 705.492L534.0139 669.6338L534.0139 669.6338L508.417 669.6338z" /></clipPath><clipPath id="36"><path id="" clip-rule="evenodd" transform="matrix(1 0 0 1 0 0)" d="M299.079 267.048L412.806 267.048L412.806 267.048L412.806 139.105L412.806 139.105L299.079 139.105z" /></clipPath><clipPath id="37"><path id="" clip-rule="evenodd" transform="matrix(1 0 0 1 0 0)" d="M299.079 267.048L412.806 267.048L412.806 267.048L412.806 139.105L412.806 139.105L299.079 139.105z" /></clipPath><clipPath id="38"><path id="" clip-rule="evenodd" transform="matrix(1 0 0 1 0 0)" d="M409.472 266.726L536.194 266.726L536.194 266.726L536.194 136.938L536.194 136.938L409.472 136.938z" /></clipPath><clipPath id="39"><path id="" clip-rule="evenodd" transform="matrix(1 0 0 1 0 0)" d="M409.472 266.726L536.194 266.726L536.194 266.726L536.194 136.938L536.194 136.938L409.472 136.938z" /></clipPath><clipPath id="40"><path id="" clip-rule="evenodd" transform="matrix(1 0 0 1 0 0)" d="M299.079 267.048L536.194 267.048L536.194 267.048L536.194 136.938L536.194 136.938L299.079 136.938z" /></clipPath><clipPath id="41"><path id="" clip-rule="evenodd" transform="matrix(1 0 0 1 0 0)" d="M299.079 267.048L536.194 267.048L536.194 267.048L536.194 136.938L536.194 136.938L299.079 136.938z" /></clipPath><clipPath id="42"><path id="" clip-rule="evenodd" transform="matrix(1 0 0 1 0 0)" d="M260.392 168.625L301.2025 168.625L301.2025 168.625L301.2025 112.0711L301.2025 112.0711L260.392 112.0711z" /></clipPath><clipPath id="43"><path id="" clip-rule="evenodd" transform="matrix(1 0 0 1 0 0)" d="M260.392 168.625L301.2025 168.625L301.2025 168.625L301.2025 112.0711L301.2025 112.0711L260.392 112.0711z" /></clipPath><clipPath id="44"><path id="" clip-rule="evenodd" transform="matrix(1 0 0 1 0 0)" d="M277.819 262.795L303.4159 262.795L303.4159 262.795L303.4159 226.9372L303.4159 226.9372L277.819 226.9372z" /></clipPath><clipPath id="45"><path id="" clip-rule="evenodd" transform="matrix(1 0 0 1 0 0)" d="M277.819 262.795L303.4159 262.795L303.4159 262.795L303.4159 226.9372L303.4159 226.9372L277.819 226.9372z" /></clipPath><clipPath id="46"><path id="" clip-rule="evenodd" transform="matrix(1 0 0 1 0 0)" d="M516.496 262.795L542.0921 262.795L542.0921 262.795L542.0921 226.9372L542.0921 226.9372L516.496 226.9372z" /></clipPath><clipPath id="47"><path id="" clip-rule="evenodd" transform="matrix(1 0 0 1 0 0)" d="M516.496 262.795L542.0921 262.795L542.0921 262.795L542.0921 226.9372L542.0921 226.9372L516.496 226.9372z" /></clipPath></defs><g transform="matrix(1.333333 0 0 1.333333 0 0)"><g clip-path="url(#1)"><g clip-path="url(#2)"><path id="1" transform="matrix(1 0 0 -1 0 834)" d="M91.866 67.4211L562.134 67.4211L562.134 74.92501L91.866 74.92501z" stroke="none" fill="#686868" fill-rule="nonzero" /><path id="2" transform="matrix(1 0 0 -1 0 834)" d="M91.866 526.984L562.134 526.984" stroke="#686868" stroke-width="1" fill="none" /><path id="3" transform="matrix(1 0 0 -1 0 834)" d="M91.866 307.016L562.134 307.016" stroke="#686868" stroke-width="1" fill="none" /></g><g transform="matrix(0.9975895 0 0 0.9992622 446.779 359.948)"><g transform="matrix(1 0 0 1 0 0)"><image x="0" y="0" xlink:href="img_01.png" width="75" height="122" /></g></g><g transform="matrix(1.001152 0 0 1.00357 312.827 360.387)"><g transform="matrix(1 0 0 1 0 0)"><image x="0" y="0" xlink:href="img_02.png" width="85" height="121" /></g></g><path id="9" transform="matrix(1 0 0 -1 0 834)" d="M361.195 432.41L371.237 428.605" stroke="#000000" stroke-width="0.796" fill="none" /><path id="10" transform="matrix(1 0 0 -1 0 834)" d="M369.669 427.623L370.776 428.779L370.713 430.379L373.457 427.763z" stroke="none" fill="#000000" fill-rule="nonzero" /><g clip-path="url(#3)"><path id="11" transform="matrix(1 0 0 -1 0 834)" d="M378.826 372.553C 378.826 361.302 387.947 352.181 399.198 352.181C 410.449 352.181 419.57 361.302 419.57 372.553C 419.57 383.804 410.449 392.925 399.198 392.925C 387.947 392.925 378.826 383.804 378.826 372.553" stroke="none" fill="#FFFFFF" fill-rule="nonzero" /></g><g clip-path="url(#4)"></g><g clip-path="url(#5)"><g transform="matrix(1.008548 0 0 1.00357 343.615 419.553)"><g transform="matrix(1 0 0 1 0 0)"><image x="0" y="0" xlink:href="img_03.png" width="73" height="121" /></g></g></g><g clip-path="url(#6)"><path id="13" transform="matrix(1 0 0 -1 0 834)" d="M378.826 372.553C 378.826 361.302 387.947 352.181 399.198 352.181C 410.449 352.181 419.57 361.302 419.57 372.553C 419.57 383.804 410.449 392.925 399.198 392.925C 387.947 392.925 378.826 383.804 378.826 372.553z" stroke="#000000" stroke-width="0.796" fill="none" /></g><g clip-path="url(#7)"><g><g clip-path="url(#8)"><g clip-path="url(#9)"><path id="14" transform="matrix(1 0 0 -1 0 834)" d="M470.83 433.869L481.567 433.7" stroke="#000000" stroke-width="0.796" fill="none" stroke-opacity="0.8" /></g><g clip-path="url(#10)"><path id="15" transform="matrix(1 0 0 -1 0 834)" d="M468.456 433.907L471.924 432.378L471.322 433.862L471.971 435.325z" stroke="none" fill="#000000" fill-rule="nonzero" fill-opacity="0.8" /></g></g></g></g><g clip-path="url(#11)"><path id="16" transform="matrix(1 0 0 -1 0 834)" d="M466.407 372.116C 466.407 360.865 457.286 351.744 446.035 351.744C 434.784 351.744 425.663 360.865 425.663 372.116C 425.663 383.367 434.784 392.488 446.035 392.488C 457.286 392.488 466.407 383.367 466.407 372.116" stroke="none" fill="#FFFFFF" fill-rule="nonzero" /></g><g clip-path="url(#12)"></g><g clip-path="url(#13)"><g transform="matrix(1.007846 0 0 1.005394 424.974 415.394)"><g transform="matrix(1 0 0 1 0 0)"><image x="0" y="0" xlink:href="img_04.png" width="82" height="137" /></g></g></g><g clip-path="url(#14)"><path id="18" transform="matrix(1 0 0 -1 0 834)" d="M466.407 372.116C 466.407 360.865 457.286 351.744 446.035 351.744C 434.784 351.744 425.663 360.865 425.663 372.116C 425.663 383.367 434.784 392.488 446.035 392.488C 457.286 392.488 466.407 383.367 466.407 372.116z" stroke="#000000" stroke-width="0.796" fill="none" /></g><g clip-path="url(#15)"></g><g clip-path="url(#16)"><g transform="matrix(1.0044 0 0 1.005063 299.22 576.484)"><g transform="matrix(1 0 0 1 0 0)"><image x="0" y="0" xlink:href="img_05.png" width="100" height="127" /></g></g></g><g clip-path="url(#17)"></g><g clip-path="url(#18)"><g transform="matrix(1.005916 0 0 1.00232 398.876 575.307)"><g transform="matrix(1 0 0 1 0 0)"><image x="0" y="0" xlink:href="img_06.png" width="107" height="128" /></g></g></g><path id="36" transform="matrix(1 0 0 -1 0 834)" d="M349.441 177.869L349.441 157.056" stroke="#FFFFFF" stroke-width="0.654" fill="none" /><path id="37" transform="matrix(1 0 0 -1 0 834)" d="M348.23 176.95L349.441 177.464L350.652 176.95L349.441 179.82z" stroke="none" fill="#FFFFFF" fill-rule="nonzero" /><path id="38" transform="matrix(1 0 0 -1 0 834)" d="M348.23 157.974L349.441 157.46L350.652 157.974L349.441 155.104z" stroke="none" fill="#FFFFFF" fill-rule="nonzero" /><g clip-path="url(#19)"><path id="39" transform="matrix(1 0 0 -1 0 834)" d="M494.689 161.515C 494.689 161.515 497.974 166.063 496.766 170.302" stroke="#000000" stroke-width="0.654" fill="none" /><path id="40" transform="matrix(1 0 0 -1 0 834)" d="M496.379 161.515C 496.379 161.515 499.664 166.063 498.456 170.302" stroke="#000000" stroke-width="0.654" fill="none" /><path id="41" transform="matrix(1 0 0 -1 0 834)" d="M404.542 203.254C 404.542 203.254 404.363 197.647 407.736 194.809" stroke="#000000" stroke-width="0.654" fill="none" /><path id="42" transform="matrix(1 0 0 -1 0 834)" d="M403.141 202.308C 403.141 202.308 402.962 196.701 406.335 193.863" stroke="#000000" stroke-width="0.654" fill="none" /></g><g clip-path="url(#20)"></g><g clip-path="url(#21)"><g transform="matrix(1.006449 0 0 0.9985386 261.396 331.1773)"><g transform="matrix(1 0 0 1 0 0)"><image x="0" y="0" xlink:href="img_07.png" width="37" height="57" /></g></g></g><g clip-path="url(#22)"></g><g clip-path="url(#23)"><g transform="matrix(1.006449 0 0 0.9985386 261.396 551.1453)"><g transform="matrix(1 0 0 1 0 0)"><image x="0" y="0" xlink:href="img_07.png" width="37" height="57" /></g></g></g><g clip-path="url(#24)"></g><g clip-path="url(#25)"><g transform="matrix(1.023622 0 0 0.9973868 307.053 364.0303)"><g transform="matrix(1 0 0 1 0 0)"><image x="0" y="0" xlink:href="img_08.png" width="27" height="38" /></g></g></g><g clip-path="url(#26)"></g><g clip-path="url(#27)"><g transform="matrix(-1.023622 0 0 0.9973868 543.113 364.0303)"><g transform="matrix(1 0 0 1 0 0)"><image x="0" y="0" xlink:href="img_08.png" width="27" height="38" /></g></g></g><g clip-path="url(#28)"></g><g clip-path="url(#29)"><g transform="matrix(1.023622 0 0 0.9973868 285.301 668.6123)"><g transform="matrix(1 0 0 1 0 0)"><image x="0" y="0" xlink:href="img_08.png" width="27" height="38" /></g></g></g><g clip-path="url(#30)"></g><g clip-path="url(#31)"><g transform="matrix(1.022789 0 0 0.9967948 426.055 364.0378)"><g transform="matrix(1 0 0 1 0 0)"><image x="0" y="0" xlink:href="img_09.png" width="27" height="38" /></g></g></g><g clip-path="url(#32)"></g><g clip-path="url(#33)"><g transform="matrix(-1.022789 0 0 0.9967948 416.392 364.0378)"><g transform="matrix(1 0 0 1 0 0)"><image x="0" y="0" xlink:href="img_09.png" width="27" height="38" /></g></g></g><g clip-path="url(#34)"></g><g clip-path="url(#35)"><g transform="matrix(-1.022789 0 0 0.9967948 535.022 668.6198)"><g transform="matrix(1 0 0 1 0 0)"><image x="0" y="0" xlink:href="img_09.png" width="27" height="38" /></g></g></g><g clip-path="url(#36)"></g><g clip-path="url(#37)"><g transform="matrix(1.006434 0 0 0.9995548 299.079 139.104)"><g transform="matrix(1 0 0 1 0 0)"><image x="0" y="0" xlink:href="img_10.png" width="113" height="128" /></g></g></g><g clip-path="url(#38)"></g><g clip-path="url(#39)"><g transform="matrix(1.00573 0 0 0.9983693 409.472 136.937)"><g transform="matrix(1 0 0 1 0 0)"><image x="0" y="0" xlink:href="img_11.png" width="126" height="130" /></g></g></g><g clip-path="url(#40)"><path id="1015" transform="matrix(1 0 0 -1 0 834)" d="M408.024 618.706C 408.024 618.706 407.841 613.687 402.751 613.159" stroke="#000000" stroke-width="0.722" fill="none" /><path id="1016" transform="matrix(1 0 0 -1 0 834)" d="M409.506 617.545C 409.506 617.545 409.322 612.526 404.233 611.998" stroke="#000000" stroke-width="0.722" fill="none" /><path id="1017" transform="matrix(1 0 0 -1 0 834)" d="M307.417 611.106C 307.417 611.106 302.515 612.199 302.92 617.299" stroke="#000000" stroke-width="0.722" fill="none" /><path id="1018" transform="matrix(1 0 0 -1 0 834)" d="M306.006 609.86C 306.006 609.86 301.104 610.953 301.509 616.053" stroke="#000000" stroke-width="0.722" fill="none" /><path id="1019" transform="matrix(1 0 0 -1 0 834)" d="M320.627 664.312C 323.332 664.514 328.144 664.059 332.242 659.382" stroke="#000000" stroke-width="0.722" fill="none" /></g><path id="1020" transform="matrix(1 0 0 -1 0 834)" d="M321.832 663.105L321.073 664.345L321.439 665.751L318.499 663.963z" stroke="none" fill="#000000" fill-rule="nonzero" /><path id="1021" transform="matrix(1 0 0 -1 0 834)" d="M330.544 659.327L331.944 659.716L332.637 660.993L333.566 657.679z" stroke="none" fill="#000000" fill-rule="nonzero" /><g clip-path="url(#41)"><path id="1022" transform="matrix(1 0 0 -1 0 834)" d="M379.554 662.27C 381.302 664.344 384.992 667.465 391.201 667.124" stroke="#000000" stroke-width="0.722" fill="none" /></g><path id="1023" transform="matrix(1 0 0 -1 0 834)" d="M381.26 662.286L379.843 662.611L379.094 663.856L378.316 660.504z" stroke="none" fill="#000000" fill-rule="nonzero" /><path id="1024" transform="matrix(1 0 0 -1 0 834)" d="M390.053 665.871L390.755 667.144L390.326 668.532L393.344 666.878z" stroke="none" fill="#000000" fill-rule="nonzero" /><g clip-path="url(#42)"></g><g clip-path="url(#43)"><g transform="matrix(0.9953878 0 0 1.010032 260.393 112.0712)"><g transform="matrix(1 0 0 1 0 0)"><image x="0" y="0" xlink:href="img_12.png" width="41" height="57" /></g></g></g><g clip-path="url(#44)"></g><g clip-path="url(#45)"><g transform="matrix(1.023622 0 0 0.9973868 276.798 225.9153)"><g transform="matrix(1 0 0 1 0 0)"><image x="0" y="0" xlink:href="img_08.png" width="27" height="38" /></g></g></g><g clip-path="url(#46)"></g><g clip-path="url(#47)"><g transform="matrix(-1.023622 0 0 0.9973868 543.113 225.9153)"><g transform="matrix(1 0 0 1 0 0)"><image x="0" y="0" xlink:href="img_08.png" width="27" height="38" /></g></g></g><path id="1314" transform="matrix(1 0 0 -1 0 834)" d="M633 15L633 0M633 819L633 834M21 15L21 0M21 819L21 834M639 21L654 21M15 21L0 21M639 813L654 813M15 813L0 813" stroke="#000000" stroke-width="1.25" fill="none" /><path id="1315" transform="matrix(1 0 0 -1 0 834)" d="M633 15L633 0M633 819L633 834M21 15L21 0M21 819L21 834M639 21L654 21M15 21L0 21M639 813L654 813M15 813L0 813" stroke="#000000" stroke-width="0.25" fill="none" /><path id="1316" transform="matrix(1 0 0 -1 0 834)" d="M32.2781 9.28203C 32.2781 9.516021 32.2961 9.58203 32.3559 9.62383C 32.416 9.66602 32.5719 9.69609 32.8238 9.69609C 33.2262 9.69609 33.5738 9.62383 33.8441 9.45C 34.3238 9.167971 34.552 8.63398 34.552 8.016021C 34.552 7.05586 34.0359 6.21602 32.9141 6.21602C 32.4762 6.21602 32.2781 6.33008 32.2781 6.78594zM31.252 9.900001L31.252 9.726171C 31.7141 9.68984 31.7621 9.66602 31.7621 9.150001L31.7621 9.150001L31.7621 6.74414C 31.7621 6.23398 31.7141 6.19805 31.198 6.16211L31.198 6.16211L31.198 6L31.198 6L32.6199 6C 33.3578 6 33.952 6.15 34.402 6.49805C 34.8641 6.84609 35.1398 7.38008 35.1398 8.1C 35.1398 8.664061 34.9301 9.101951 34.6359 9.38984C 34.2641 9.74414 33.7 9.900001 32.9379 9.900001z" stroke="#000000" stroke-width="0.4" fill="none" /><path id="1317" transform="matrix(1 0 0 -1 0 834)" d="M38.3801 6.97813C 38.2898 6.70195 38.1758 6.51016 38.0738 6.38984C 37.9359 6.23398 37.732 6.20391 37.402 6.20391C 37.15 6.20391 36.9461 6.21602 36.8258 6.28203C 36.718 6.34219 36.6879 6.46211 36.6879 6.78594L36.6879 6.78594L36.6879 9.15586C 36.6879 9.66602 36.7418 9.69609 37.216 9.73203L37.216 9.73203L37.216 9.900001L37.216 9.900001L35.65 9.900001L35.65 9.900001L35.65 9.73203C 36.1359 9.69609 36.1777 9.66602 36.1777 9.15586L36.1777 9.15586L36.1777 6.75586C 36.1777 6.24609 36.1301 6.20391 35.6258 6.16797L35.6258 6.16797L35.6258 6L35.6258 6L38.3438 6C 38.398 6.18594 38.5238 6.75586 38.5598 6.94219z" stroke="#000000" stroke-width="0.4" fill="none" /><path id="1318" transform="matrix(1 0 0 -1 0 834)" d="M41.0918 9.023829C 41.0438 9.40195 41.0141 9.63594 40.9898 9.851951C 40.7617 9.92383 40.5098 9.989841 40.234 9.989841C 39.4598 9.989841 38.998 9.49805 38.998 8.921881C 38.998 8.24414 39.6039 7.94414 39.9879 7.73984C 40.4379 7.5 40.768 7.28984 40.768 6.84609C 40.768 6.40781 40.498 6.12617 40.048 6.12617C 39.4301 6.12617 39.1598 6.73203 39.0641 7.09805L39.0641 7.09805L38.8898 7.05586C 38.9258 6.767971 39.0039 6.25195 39.052 6.12617C 39.1059 6.09609 39.1961 6.05391 39.3461 6C 39.4961 5.95781 39.6879 5.91016 39.934 5.91016C 40.732 5.91016 41.266 6.41406 41.266 7.04414C 41.266 7.71602 40.6961 7.99805 40.2277 8.23789C 39.7539 8.48398 39.466 8.68789 39.466 9.12617C 39.466 9.45 39.6699 9.78594 40.132 9.78594C 40.6539 9.78594 40.8098 9.371881 40.918 8.98789z" stroke="#000000" stroke-width="0.4" fill="none" /><path id="1319" transform="matrix(1 0 0 -1 0 834)" d="M46.648 6L46.648 6.16797C 46.1258 6.21602 46.1078 6.24609 46.0898 6.88203L46.0898 6.88203L46.0301 9.05391C 46.0117 9.671881 46.0539 9.68398 46.582 9.73203L46.582 9.73203L46.582 9.900001L46.582 9.900001L45.5617 9.900001L45.5617 9.900001L44.1758 6.9L44.1758 6.9L42.8078 9.900001L42.8078 9.900001L41.8238 9.900001L41.8238 9.900001L41.8238 9.73203C 42.3699 9.67813 42.4 9.653911 42.3461 8.87383L42.3461 8.87383L42.2617 7.626171C 42.2141 7.00195 42.1777 6.73789 42.148 6.528131C 42.1059 6.27617 41.9859 6.21016 41.6379 6.16797L41.6379 6.16797L41.6379 6L41.6379 6L43.0359 6L43.0359 6L43.0359 6.16797C 42.6398 6.21016 42.4961 6.25195 42.484 6.53984C 42.4777 6.78008 42.4777 7.04414 42.502 7.53594L42.502 7.53594L42.5918 9.24609L42.5918 9.24609L42.6039 9.24609L42.6039 9.24609L43.948 6.04219L43.948 6.04219L44.068 6.04219L44.068 6.04219L45.532 9.33008L45.532 9.33008L45.5559 9.33008L45.5559 9.33008L45.5738 6.88203C 45.5801 6.24609 45.5559 6.21602 45.0699 6.16797L45.0699 6.16797L45.0699 6z" stroke="#000000" stroke-width="0.4" fill="none" /><path id="1320" transform="matrix(1 0 0 -1 0 834)" d="M51.8738 7.05586C 51.5738 6.45586 51.2496 6.12617 50.6379 6.12617C 49.7258 6.12617 49.0656 6.89414 49.0656 8.016021C 49.0656 8.92813 49.5996 9.773829 50.602 9.773829C 51.2496 9.773829 51.6098 9.516021 51.7656 8.88008L51.7656 8.88008L51.9457 8.921881C 51.9098 9.24609 51.8738 9.48594 51.8258 9.828131C 51.6578 9.85781 51.2496 9.989841 50.7637 9.989841C 49.4258 9.989841 48.4539 9.15586 48.4539 7.89609C 48.4539 6.94219 49.1078 5.91016 50.602 5.91016C 51.034 5.91016 51.5379 6.03008 51.7059 6.07188C 51.8137 6.26992 51.9637 6.71406 52.0477 6.98984z" stroke="#000000" stroke-width="0.4" fill="none" /><path id="1321" transform="matrix(1 0 0 -1 0 834)" d="M54.3398 9.773829C 55.1258 9.773829 55.7855 9.101951 55.7855 7.83594C 55.7855 6.68398 55.1855 6.12617 54.5195 6.12617C 53.6738 6.12617 53.0559 6.94805 53.0559 8.076171C 53.0559 9.19805 53.6676 9.773829 54.3398 9.773829zM54.4598 9.989841C 53.1996 9.989841 52.4438 8.98789 52.4438 7.90781C 52.4438 6.75586 53.3078 5.91016 54.3938 5.91016C 55.4918 5.91016 56.3977 6.70195 56.3977 7.99805C 56.3977 9.19805 55.4797 9.989841 54.4598 9.989841z" stroke="#000000" stroke-width="0.4" fill="none" /><path id="1322" transform="matrix(1 0 0 -1 0 834)" d="M61.8277 6L61.8277 6.16797C 61.3059 6.21602 61.2879 6.24609 61.2695 6.88203L61.2695 6.88203L61.2098 9.05391C 61.1918 9.671881 61.2336 9.68398 61.7617 9.73203L61.7617 9.73203L61.7617 9.900001L61.7617 9.900001L60.7418 9.900001L60.7418 9.900001L59.3559 6.9L59.3559 6.9L57.9879 9.900001L57.9879 9.900001L57.0035 9.900001L57.0035 9.900001L57.0035 9.73203C 57.5496 9.67813 57.5797 9.653911 57.5258 8.87383L57.5258 8.87383L57.4418 7.626171C 57.3938 7.00195 57.3578 6.73789 57.3277 6.528131C 57.2855 6.27617 57.1656 6.21016 56.8176 6.16797L56.8176 6.16797L56.8176 6L56.8176 6L58.2156 6L58.2156 6L58.2156 6.16797C 57.8195 6.21016 57.6758 6.25195 57.6637 6.53984C 57.6578 6.78008 57.6578 7.04414 57.6816 7.53594L57.6816 7.53594L57.7719 9.24609L57.7719 9.24609L57.7836 9.24609L57.7836 9.24609L59.1277 6.04219L59.1277 6.04219L59.2477 6.04219L59.2477 6.04219L60.7117 9.33008L60.7117 9.33008L60.7355 9.33008L60.7355 9.33008L60.7535 6.88203C 60.7598 6.24609 60.7355 6.21602 60.2496 6.16797L60.2496 6.16797L60.2496 6z" stroke="#000000" stroke-width="0.4" fill="none" /><path id="1323" transform="matrix(1 0 0 -1 0 834)" d="M63.8258 6L63.8258 6.16797C 63.3336 6.20391 63.2855 6.23398 63.2855 6.75L63.2855 6.75L63.2855 9.150001C 63.2855 9.66016 63.3336 9.69609 63.8258 9.73203L63.8258 9.73203L63.8258 9.900001L63.8258 9.900001L62.2355 9.900001L62.2355 9.900001L62.2355 9.73203C 62.7277 9.69609 62.7758 9.66016 62.7758 9.150001L62.7758 9.150001L62.7758 6.75C 62.7758 6.23984 62.7277 6.20391 62.2355 6.16797L62.2355 6.16797L62.2355 6z" stroke="#000000" stroke-width="0.4" fill="none" /><path id="1324" transform="matrix(1 0 0 -1 0 834)" d="M66.5074 9.023829C 66.4598 9.40195 66.4297 9.63594 66.4055 9.851951C 66.1777 9.92383 65.9258 9.989841 65.6496 9.989841C 64.8758 9.989841 64.4137 9.49805 64.4137 8.921881C 64.4137 8.24414 65.0195 7.94414 65.4035 7.73984C 65.8535 7.5 66.1836 7.28984 66.1836 6.84609C 66.1836 6.40781 65.9137 6.12617 65.46371 6.12617C 64.8457 6.12617 64.5758 6.73203 64.4797 7.09805L64.4797 7.09805L64.3055 7.05586C 64.3418 6.767971 64.4195 6.25195 64.46761 6.12617C 64.52151 6.09609 64.6117 6.05391 64.7617 6C 64.91171 5.95781 65.1035 5.91016 65.3496 5.91016C 66.1477 5.91016 66.6816 6.41406 66.6816 7.04414C 66.6816 7.71602 66.1117 7.99805 65.6438 8.23789C 65.1695 8.48398 64.8816 8.68789 64.8816 9.12617C 64.8816 9.45 65.0855 9.78594 65.5477 9.78594C 66.0695 9.78594 66.2258 9.371881 66.3336 8.98789z" stroke="#000000" stroke-width="0.4" fill="none" /><path id="1325" transform="matrix(1 0 0 -1 0 834)" d="M69.4055 7.68008L68.3016 7.68008C 68.4816 8.171881 68.6734 8.69414 68.8656 9.21016L68.8656 9.21016L68.8777 9.21016zM70.9355 6L70.9355 6.16797C 70.5457 6.20391 70.46761 6.25781 70.2758 6.77383C 69.89181 7.81797 69.4895 8.95781 69.11761 9.989841L69.11761 9.989841L68.9316 9.93594L68.9316 9.93594L67.68951 6.78594C 67.4797 6.25781 67.3957 6.22188 67.0176 6.16797L67.0176 6.16797L67.0176 6L67.0176 6L68.3195 6L68.3195 6L68.3195 6.16797C 67.8695 6.21016 67.81561 6.26992 67.9477 6.64805C 68.0258 6.9 68.1156 7.15195 68.2117 7.42188L68.2117 7.42188L69.4895 7.42188C 69.62151 7.05586 69.74181 6.73203 69.8195 6.49805C 69.8977 6.26406 69.8438 6.21602 69.4656 6.16797L69.4656 6.16797L69.4656 6z" stroke="#000000" stroke-width="0.4" fill="none" /><path id="1326" transform="matrix(1 0 0 -1 0 834)" d="M71.7273 5.92813C 71.9195 5.92813 72.06371 6.06602 72.06371 6.27617C 72.06371 6.46797 71.9195 6.61797 71.7273 6.61797C 71.5355 6.61797 71.3914 6.46797 71.3914 6.27617C 71.3914 6.06602 71.5355 5.92813 71.7273 5.92813z" stroke="#000000" stroke-width="0.4" fill="none" /><path id="1327" transform="matrix(1 0 0 -1 0 834)" d="M73.9234 6L73.9234 6.15586C 73.53951 6.19219 73.4977 6.22813 73.4977 6.63594L73.4977 6.63594L73.4977 8.70586C 73.2336 8.59805 72.9516 8.51992 72.6453 8.471881L72.6453 8.471881L72.6453 8.328131C 73.0055 8.26797 73.0234 8.24414 73.0234 7.871881L73.0234 7.871881L73.0234 6.63594C 73.0234 6.22813 72.9816 6.19219 72.6035 6.15586L72.6035 6.15586L72.6035 6zM73.2215 9.216021C 73.3953 9.216021 73.52731 9.36016 73.52731 9.52188C 73.52731 9.70195 73.3953 9.83398 73.2273 9.83398C 73.06561 9.83398 72.9215 9.70195 72.9215 9.52188C 72.9215 9.36016 73.06561 9.216021 73.2215 9.216021z" stroke="#000000" stroke-width="0.4" fill="none" /><path id="1328" transform="matrix(1 0 0 -1 0 834)" d="M77.1574 6L77.1574 6.15586C 76.8094 6.19219 76.7793 6.21602 76.7793 6.62383L76.7793 6.62383L76.7793 7.78203C 76.7793 8.36406 76.4793 8.69414 76.0055 8.69414C 75.8313 8.69414 75.67541 8.621881 75.5074 8.51406C 75.3574 8.41211 75.2254 8.32188 75.1055 8.23203L75.1055 8.23203L75.1055 8.712111C 74.8414 8.59219 74.5594 8.51992 74.27151 8.466021L74.27151 8.466021L74.27151 8.328131C 74.5953 8.26797 74.6313 8.25 74.6313 7.86602L74.6313 7.86602L74.6313 6.62383C 74.6313 6.22813 74.6016 6.19805 74.19341 6.15586L74.19341 6.15586L74.19341 6L74.19341 6L75.4953 6L75.4953 6L75.4953 6.15586C 75.1414 6.19219 75.1055 6.21602 75.1055 6.62383L75.1055 6.62383L75.1055 8.03398C 75.2855 8.18984 75.5195 8.33984 75.7594 8.33984C 76.1613 8.33984 76.3055 8.069921 76.3055 7.65586L76.3055 7.65586L76.3055 6.65391C 76.3055 6.23984 76.2633 6.19219 75.9094 6.15586L75.9094 6.15586L75.9094 6z" stroke="#000000" stroke-width="0.4" fill="none" /><path id="1329" transform="matrix(1 0 0 -1 0 834)" d="M79.4734 6.51016C 79.32931 6.40195 79.1133 6.30586 78.8973 6.30586C 78.5133 6.30586 78.0754 6.65391 78.0754 7.36797C 78.0754 8.23789 78.57931 8.471881 78.8555 8.471881C 79.0832 8.471881 79.32931 8.37617 79.4734 8.16602zM80.4035 6.30586L80.2113 6.32383C 79.9895 6.34805 79.9473 6.37813 79.9473 6.68984L79.9473 6.68984L79.9473 10.2719C 79.7254 10.1941 79.3234 10.1039 79.0113 10.0621L79.0113 10.0621L79.0113 9.917971C 79.44341 9.88789 79.4734 9.869921 79.4734 9.47383L79.4734 9.47383L79.4734 8.628131C 79.3355 8.67617 79.1613 8.69414 79.0773 8.69414C 78.2613 8.69414 77.5293 8.03984 77.5293 7.20586C 77.5293 6.36602 78.1594 5.92813 78.6395 5.92813C 78.7113 5.92813 78.87341 5.96406 79.1074 6.10195L79.1074 6.10195L79.4734 6.31797L79.4734 6.31797L79.4734 5.92813C 79.8215 6.05391 80.27151 6.13203 80.4035 6.15586z" stroke="#000000" stroke-width="0.4" fill="none" /><path id="1330" transform="matrix(1 0 0 -1 0 834)" d="M81.3813 8.24414C 81.4895 8.310161 81.6813 8.35781 81.84921 8.35781C 82.34731 8.35781 82.7676 7.96211 82.7676 7.278131C 82.7676 6.58203 82.4492 6.15586 81.9516 6.15586C 81.6336 6.16211 81.4535 6.37188 81.4176 6.49219C 81.3934 6.54609 81.3813 6.60586 81.3813 6.69609zM81.3813 8.42383L81.3813 10.2719C 81.1594 10.1941 80.7934 10.098 80.5113 10.0621L80.5113 10.0621L80.5113 9.92383C 80.8953 9.88789 80.9074 9.851951 80.9074 9.48008L80.9074 9.48008L80.9074 6.14414C 81.2375 5.98789 81.5434 5.92813 81.78951 5.92813C 82.59341 5.92813 83.2953 6.55195 83.2953 7.43398C 83.2953 8.14219 82.7555 8.69414 82.1133 8.69414C 82.0473 8.69414 81.9633 8.67617 81.86761 8.63398z" stroke="#000000" stroke-width="0.4" fill="none" /><path id="1331" transform="matrix(1 0 0 -1 0 834)" d="M88.1133 8.976171C 88.2633 9.19805 88.50311 9.45 88.8332 9.45C 89.15121 9.45 89.4031 9.257811 89.4031 8.88594C 89.4031 8.44219 88.9953 8.20781 88.44341 8.03398L88.44341 8.03398L88.4852 7.86016C 88.5813 7.88984 88.7254 7.92617 88.8691 7.92617C 89.2113 7.92617 89.6313 7.70391 89.6313 7.15195C 89.6313 6.55781 89.3313 6.23984 88.90511 6.23984C 88.5633 6.23984 88.3172 6.40781 88.1613 6.54609C 88.1133 6.58789 88.0652 6.58203 88.0172 6.54609C 87.9633 6.50391 87.8852 6.42617 87.8793 6.34805C 87.8672 6.27617 87.891 6.21016 87.9754 6.13203C 88.0531 6.06016 88.2992 5.92813 88.5754 5.92813C 89.007 5.92813 90.1473 6.37188 90.1473 7.34414C 90.1473 7.78203 89.841 8.153911 89.3133 8.25586L89.3133 8.25586L89.3133 8.26797C 89.4871 8.38789 89.6313 8.49609 89.7211 8.59219C 89.8352 8.70586 89.90701 8.84414 89.90701 9.01797C 89.90701 9.47383 89.5531 9.810161 89.0133 9.810161C 88.6953 9.810161 88.4191 9.66016 88.25121 9.47383L88.25121 9.47383L87.9871 9.09609z" stroke="#000000" stroke-width="0.4" fill="none" /><path id="1332" transform="matrix(1 0 0 -1 0 834)" d="M91.9172 9.61211C 92.457 9.61211 92.607 8.72383 92.607 7.871881C 92.607 7.03203 92.4633 6.13203 91.923 6.13203C 91.40121 6.13203 91.2273 7.03789 91.2273 7.87813C 91.2273 8.712111 91.3711 9.61211 91.9172 9.61211zM91.923 9.810161C 91.023 9.810161 90.69341 8.74219 90.69341 7.86602C 90.69341 6.91797 91.0172 5.92813 91.923 5.92813C 92.823 5.92813 93.141 6.99609 93.141 7.871881C 93.141 8.79609 92.823 9.810161 91.923 9.810161z" stroke="#000000" stroke-width="0.4" fill="none" /><path id="1333" transform="matrix(1 0 0 -1 0 834)" d="M94.7313 8.02188C 95.27731 8.02188 95.5293 7.53008 95.5293 7.03203C 95.5293 6.63594 95.3852 6.13203 94.9172 6.13203C 94.42541 6.13203 94.1191 6.719921 94.1191 7.43984C 94.1191 7.59609 94.1254 7.73984 94.15511 7.85391C 94.2992 7.93203 94.50311 8.02188 94.7313 8.02188zM94.1852 8.057811C 94.3652 8.89219 94.923 9.26992 95.2891 9.44414C 95.5113 9.54609 95.7453 9.61797 95.94341 9.653911L95.94341 9.653911L95.90121 9.84609C 95.6613 9.80391 95.373 9.73789 95.1332 9.653911C 94.49731 9.419921 93.5852 8.74219 93.5852 7.428131C 93.5852 6.50391 94.1133 5.92813 94.8152 5.92813C 95.5352 5.92813 96.0453 6.53398 96.0453 7.24805C 96.0453 7.86602 95.607 8.35781 94.9652 8.35781C 94.8453 8.35781 94.7191 8.31602 94.5871 8.25586z" stroke="#000000" stroke-width="0.4" fill="none" /><path id="1352" transform="matrix(1 0 0 -1 0 834)" d="M554.472 6.83984C 554.292 6.46211 554.2141 6.43789 553.89 6.43789L553.89 6.43789L552.768 6.43789L552.768 6.43789L553.6201 7.33203C 554.1721 7.91992 554.412 8.273829 554.412 8.79609C 554.412 9.42617 553.932 9.810161 553.404 9.810161C 553.056 9.810161 552.774 9.653911 552.594 9.45586L552.594 9.45586L552.252 8.96992L552.252 8.96992L552.384 8.85C 552.54 9.08398 552.792 9.40781 553.2 9.40781C 553.644 9.40781 553.908 9.11406 553.908 8.61016C 553.908 8.09414 553.53 7.60195 553.158 7.15781C 552.858 6.81016 552.522 6.46797 552.186 6.13789L552.186 6.13789L552.186 6L552.186 6L554.43 6C 554.502 6.26992 554.562 6.53398 554.64 6.78594z" stroke="#000000" stroke-width="0.4" fill="none" /><path id="1353" transform="matrix(1 0 0 -1 0 834)" d="M555.792 9.3L557.19 9.3L557.19 9.3L557.346 9.68984L557.346 9.68984L557.31 9.73789L557.31 9.73789L555.6 9.73789L555.6 9.73789L555.366 7.90781C 555.504 7.96211 555.732 8.028131 555.984 8.028131C 556.638 8.028131 556.962 7.65 556.962 7.121881C 556.962 6.67188 556.71 6.23398 556.2 6.23398C 555.834 6.23398 555.588 6.42617 555.462 6.53984C 555.402 6.58789 555.354 6.58203 555.3 6.53984C 555.234 6.48008 555.18 6.40195 555.174 6.34219C 555.162 6.26992 555.192 6.22188 555.27 6.13789C 555.36 6.05391 555.612 5.92813 555.888 5.92813C 556.206 5.93398 556.608 6.08984 556.932 6.35391C 557.298 6.65391 557.466 6.99609 557.466 7.35586C 557.466 7.84805 557.076 8.369921 556.308 8.369921C 556.146 8.369921 555.864 8.273829 555.636 8.18984z" stroke="#000000" stroke-width="0.4" fill="none" /><path id="1354" transform="matrix(1 0 0 -1 0 834)" d="M559.548 9.989841L559.212 9.989841L559.212 9.989841L557.91 5.73594L557.91 5.73594L558.246 5.73594z" stroke="#000000" stroke-width="0.4" fill="none" /><path id="1355" transform="matrix(1 0 0 -1 0 834)" d="M561.18 9.61211C 561.72 9.61211 561.8701 8.72383 561.8701 7.871881C 561.8701 7.03203 561.726 6.13203 561.186 6.13203C 560.664 6.13203 560.49 7.03789 560.49 7.87813C 560.49 8.712111 560.634 9.61211 561.18 9.61211zM561.186 9.810161C 560.286 9.810161 559.956 8.74219 559.956 7.86602C 559.956 6.91797 560.28 5.92813 561.186 5.92813C 562.086 5.92813 562.404 6.99609 562.404 7.871881C 562.404 8.79609 562.086 9.810161 561.186 9.810161z" stroke="#000000" stroke-width="0.4" fill="none" /><path id="1356" transform="matrix(1 0 0 -1 0 834)" d="M564 9.61211C 564.582 9.61211 564.738 8.86797 564.738 8.33984C 564.738 8.21992 564.732 8.076171 564.7141 7.94414C 564.588 7.84805 564.384 7.77617 564.174 7.77617C 563.67 7.77617 563.3701 8.214061 563.3701 8.74219C 563.3701 9.09609 563.538 9.61211 564 9.61211zM564.078 9.810161C 563.304 9.810161 562.854 9.10781 562.854 8.53203C 562.854 7.90195 563.292 7.43398 563.928 7.43398C 564.042 7.43398 564.156 7.45781 564.288 7.53008L564.288 7.53008L564.69 7.74609C 564.492 6.83398 563.838 6.23398 562.98 6.08984L562.98 6.08984L563.01 5.91016C 563.16 5.91016 563.526 5.96992 563.85 6.10195C 564.66 6.42617 565.2661 7.20586 565.2661 8.310161C 565.2661 9.12617 564.828 9.810161 564.078 9.810161z" stroke="#000000" stroke-width="0.4" fill="none" /><path id="1357" transform="matrix(1 0 0 -1 0 834)" d="M567.294 9.989841L566.958 9.989841L566.958 9.989841L565.656 5.73594L565.656 5.73594L565.992 5.73594z" stroke="#000000" stroke-width="0.4" fill="none" /><path id="1358" transform="matrix(1 0 0 -1 0 834)" d="M569.9641 6.83984C 569.784 6.46211 569.706 6.43789 569.382 6.43789L569.382 6.43789L568.26 6.43789L568.26 6.43789L569.112 7.33203C 569.664 7.91992 569.904 8.273829 569.904 8.79609C 569.904 9.42617 569.424 9.810161 568.896 9.810161C 568.548 9.810161 568.2661 9.653911 568.086 9.45586L568.086 9.45586L567.744 8.96992L567.744 8.96992L567.876 8.85C 568.032 9.08398 568.284 9.40781 568.692 9.40781C 569.136 9.40781 569.4 9.11406 569.4 8.61016C 569.4 8.09414 569.022 7.60195 568.65 7.15781C 568.35 6.81016 568.014 6.46797 567.678 6.13789L567.678 6.13789L567.678 6L567.678 6L569.9221 6C 569.994 6.26992 570.054 6.53398 570.132 6.78594z" stroke="#000000" stroke-width="0.4" fill="none" /><path id="1359" transform="matrix(1 0 0 -1 0 834)" d="M571.806 9.61211C 572.346 9.61211 572.496 8.72383 572.496 7.871881C 572.496 7.03203 572.352 6.13203 571.812 6.13203C 571.29 6.13203 571.116 7.03789 571.116 7.87813C 571.116 8.712111 571.26 9.61211 571.806 9.61211zM571.812 9.810161C 570.912 9.810161 570.582 8.74219 570.582 7.86602C 570.582 6.91797 570.906 5.92813 571.812 5.92813C 572.712 5.92813 573.03 6.99609 573.03 7.871881C 573.03 8.79609 572.712 9.810161 571.812 9.810161z" stroke="#000000" stroke-width="0.4" fill="none" /><path id="1360" transform="matrix(1 0 0 -1 0 834)" d="M575.556 6L575.556 6.16211C 575.01 6.20391 574.9741 6.25195 574.9741 6.68398L574.9741 6.68398L574.9741 9.810161C 574.644 9.67813 574.29 9.56406 573.906 9.49805L573.906 9.49805L573.906 9.36016L573.906 9.36016L574.194 9.34805C 574.458 9.33594 574.482 9.305861 574.482 8.99414L574.482 8.99414L574.482 6.68398C 574.482 6.25195 574.452 6.20391 573.906 6.16211L573.906 6.16211L573.906 6z" stroke="#000000" stroke-width="0.4" fill="none" /><path id="1361" transform="matrix(1 0 0 -1 0 834)" d="M578.814 9.73789L576.522 9.73789C 576.498 9.48008 576.468 9.180079 576.414 8.85L576.414 8.85L576.588 8.85C 576.732 9.24609 576.768 9.3 577.164 9.3L577.164 9.3L578.46 9.3C 577.986 8.25586 577.308 7.01406 576.678 5.99414L576.678 5.99414L576.72 5.92813L576.72 5.92813L577.164 5.98789C 577.74 7.22383 578.298 8.44805 578.862 9.66602z" stroke="#000000" stroke-width="0.4" fill="none" /><path id="1362" transform="matrix(1 0 0 -1 0 834)" d="M584.531 9.61211C 585.071 9.61211 585.221 8.72383 585.221 7.871881C 585.221 7.03203 585.077 6.13203 584.537 6.13203C 584.015 6.13203 583.841 7.03789 583.841 7.87813C 583.841 8.712111 583.985 9.61211 584.531 9.61211zM584.537 9.810161C 583.637 9.810161 583.307 8.74219 583.307 7.86602C 583.307 6.91797 583.631 5.92813 584.537 5.92813C 585.437 5.92813 585.755 6.99609 585.755 7.871881C 585.755 8.79609 585.437 9.810161 584.537 9.810161z" stroke="#000000" stroke-width="0.4" fill="none" /><path id="1363" transform="matrix(1 0 0 -1 0 834)" d="M588.449 6.83984C 588.269 6.46211 588.191 6.43789 587.867 6.43789L587.867 6.43789L586.7451 6.43789L586.7451 6.43789L587.597 7.33203C 588.149 7.91992 588.389 8.273829 588.389 8.79609C 588.389 9.42617 587.909 9.810161 587.381 9.810161C 587.033 9.810161 586.751 9.653911 586.571 9.45586L586.571 9.45586L586.229 8.96992L586.229 8.96992L586.361 8.85C 586.517 9.08398 586.769 9.40781 587.177 9.40781C 587.621 9.40781 587.885 9.11406 587.885 8.61016C 587.885 8.09414 587.507 7.60195 587.135 7.15781C 586.835 6.81016 586.499 6.46797 586.163 6.13789L586.163 6.13789L586.163 6L586.163 6L588.407 6C 588.479 6.26992 588.539 6.53398 588.617 6.78594z" stroke="#000000" stroke-width="0.4" fill="none" /><path id="1364" transform="matrix(1 0 0 -1 0 834)" d="M589.5471 5.92813C 589.739 5.92813 589.883 6.06602 589.883 6.27617C 589.883 6.46797 589.739 6.61797 589.5471 6.61797C 589.355 6.61797 589.211 6.46797 589.211 6.27617C 589.211 6.06602 589.355 5.92813 589.5471 5.92813zM589.541 8.466021C 589.3491 8.466021 589.211 8.328131 589.211 8.13008C 589.211 7.92617 589.3491 7.78203 589.541 7.78203C 589.733 7.78203 589.877 7.92617 589.877 8.13008C 589.877 8.328131 589.733 8.466021 589.541 8.466021z" stroke="#000000" stroke-width="0.4" fill="none" /><path id="1365" transform="matrix(1 0 0 -1 0 834)" d="M591.905 7.35L590.723 7.35C 591.119 8.016021 591.509 8.58594 591.893 9.119921L591.893 9.119921L591.905 9.119921zM592.961 7.06797L592.961 7.35L592.961 7.35L592.385 7.35L592.385 7.35L592.385 9.79219L592.385 9.79219L592.145 9.79219C 591.527 8.976171 590.915 8.08789 590.345 7.23594L590.345 7.23594L590.345 7.06797L590.345 7.06797L591.905 7.06797L591.905 7.06797L591.905 6.63594C 591.905 6.23984 591.881 6.20391 591.359 6.16211L591.359 6.16211L591.359 6L591.359 6L592.895 6L592.895 6L592.895 6.16211C 592.409 6.20391 592.385 6.23398 592.385 6.63594L592.385 6.63594L592.385 7.06797z" stroke="#000000" stroke-width="0.4" fill="none" /><path id="1366" transform="matrix(1 0 0 -1 0 834)" d="M594.785 7.35L593.603 7.35C 593.999 8.016021 594.389 8.58594 594.773 9.119921L594.773 9.119921L594.785 9.119921zM595.841 7.06797L595.841 7.35L595.841 7.35L595.265 7.35L595.265 7.35L595.265 9.79219L595.265 9.79219L595.025 9.79219C 594.407 8.976171 593.795 8.08789 593.225 7.23594L593.225 7.23594L593.225 7.06797L593.225 7.06797L594.785 7.06797L594.785 7.06797L594.785 6.63594C 594.785 6.23984 594.761 6.20391 594.239 6.16211L594.239 6.16211L594.239 6L594.239 6L595.775 6L595.775 6L595.775 6.16211C 595.289 6.20391 595.265 6.23398 595.265 6.63594L595.265 6.63594L595.265 7.06797z" stroke="#000000" stroke-width="0.4" fill="none" /><path id="1367" transform="matrix(1 0 0 -1 0 834)" d="M596.675 5.92813C 596.867 5.92813 597.011 6.06602 597.011 6.27617C 597.011 6.46797 596.867 6.61797 596.675 6.61797C 596.483 6.61797 596.3391 6.46797 596.3391 6.27617C 596.3391 6.06602 596.483 5.92813 596.675 5.92813zM596.669 8.466021C 596.477 8.466021 596.3391 8.328131 596.3391 8.13008C 596.3391 7.92617 596.477 7.78203 596.669 7.78203C 596.861 7.78203 597.005 7.92617 597.005 8.13008C 597.005 8.328131 596.861 8.466021 596.669 8.466021z" stroke="#000000" stroke-width="0.4" fill="none" /><path id="1368" transform="matrix(1 0 0 -1 0 834)" d="M599.657 6L599.657 6.16211C 599.111 6.20391 599.075 6.25195 599.075 6.68398L599.075 6.68398L599.075 9.810161C 598.7451 9.67813 598.3911 9.56406 598.007 9.49805L598.007 9.49805L598.007 9.36016L598.007 9.36016L598.295 9.34805C 598.559 9.33594 598.583 9.305861 598.583 8.99414L598.583 8.99414L598.583 6.68398C 598.583 6.25195 598.553 6.20391 598.007 6.16211L598.007 6.16211L598.007 6z" stroke="#000000" stroke-width="0.4" fill="none" /><path id="1369" transform="matrix(1 0 0 -1 0 834)" d="M601.913 7.35L600.731 7.35C 601.127 8.016021 601.517 8.58594 601.901 9.119921L601.901 9.119921L601.913 9.119921zM602.969 7.06797L602.969 7.35L602.969 7.35L602.393 7.35L602.393 7.35L602.393 9.79219L602.393 9.79219L602.153 9.79219C 601.535 8.976171 600.923 8.08789 600.353 7.23594L600.353 7.23594L600.353 7.06797L600.353 7.06797L601.913 7.06797L601.913 7.06797L601.913 6.63594C 601.913 6.23984 601.889 6.20391 601.367 6.16211L601.367 6.16211L601.367 6L601.367 6L602.903 6L602.903 6L602.903 6.16211C 602.417 6.20391 602.393 6.23398 602.393 6.63594L602.393 6.63594L602.393 7.06797z" stroke="#000000" stroke-width="0.4" fill="none" /><path id="1370" transform="matrix(1 0 0 -1 0 834)" d="M605.489 8.08203C 605.651 8.20195 605.897 8.33398 606.0891 8.33398C 606.527 8.33398 606.893 7.97383 606.893 7.33203C 606.893 6.65391 606.557 6.22188 606.053 6.22188C 605.8491 6.22188 605.621 6.31797 605.489 6.45586zM605.489 8.28008L605.489 8.75391C 605.207 8.63984 604.871 8.53789 604.619 8.49609L604.619 8.49609L604.619 8.351951C 604.991 8.30391 605.015 8.29219 605.015 7.90195L605.015 7.90195L605.015 5.18984C 605.015 4.79414 604.961 4.75781 604.577 4.72188L604.577 4.72188L604.577 4.56016L604.577 4.56016L605.999 4.56016L605.999 4.56016L605.999 4.72188C 605.531 4.76406 605.489 4.79414 605.489 5.25L605.489 5.25L605.489 6.03594C 605.567 5.99414 605.729 5.93398 605.903 5.92813C 606.683 6.07188 607.397 6.65391 607.397 7.56016C 607.397 8.153911 607.001 8.69414 606.335 8.69414C 606.263 8.69414 606.149 8.664061 606.041 8.60391z" stroke="#000000" stroke-width="0.4" fill="none" /><path id="1371" transform="matrix(1 0 0 -1 0 834)" d="M608.303 5.92813C 608.4951 5.92813 608.639 6.06602 608.639 6.27617C 608.639 6.46797 608.4951 6.61797 608.303 6.61797C 608.111 6.61797 607.967 6.46797 607.967 6.27617C 607.967 6.06602 608.111 5.92813 608.303 5.92813z" stroke="#000000" stroke-width="0.4" fill="none" /><path id="1372" transform="matrix(1 0 0 -1 0 834)" d="M615.125 6L615.125 6.15586C 614.783 6.19219 614.735 6.21602 614.735 6.61797L614.735 6.61797L614.735 7.77617C 614.735 8.36406 614.441 8.69414 613.973 8.69414C 613.805 8.69414 613.649 8.621881 613.523 8.53789C 613.373 8.44805 613.199 8.33398 613.025 8.20195C 612.905 8.51406 612.647 8.69414 612.359 8.69414C 612.167 8.69414 612.023 8.628131 611.867 8.53203C 611.687 8.417971 611.555 8.310161 611.429 8.226171L611.429 8.226171L611.429 8.712111C 611.165 8.59219 610.859 8.51406 610.595 8.466021L610.595 8.466021L610.595 8.328131C 610.9431 8.273829 610.961 8.24414 610.961 7.86016L610.961 7.86016L610.961 6.61797C 610.961 6.22813 610.907 6.19219 610.511 6.15586L610.511 6.15586L610.511 6L610.511 6L611.777 6L611.777 6L611.777 6.15586C 611.483 6.19219 611.435 6.22813 611.435 6.61797L611.435 6.61797L611.435 8.028131C 611.615 8.17813 611.8491 8.33984 612.0891 8.33984C 612.455 8.33984 612.611 8.09414 612.611 7.65L612.611 7.65L612.611 6.61797C 612.611 6.22188 612.557 6.19219 612.185 6.15586L612.185 6.15586L612.185 6L612.185 6L613.469 6L613.469 6L613.469 6.15586C 613.139 6.19219 613.085 6.22813 613.085 6.60586L613.085 6.60586L613.085 7.77617C 613.085 7.88984 613.079 7.95586 613.067 8.028131C 613.295 8.21992 613.523 8.33984 613.739 8.33984C 614.117 8.33984 614.267 8.069921 614.267 7.64414L614.267 7.64414L614.267 6.64219C 614.267 6.21602 614.201 6.19219 613.847 6.15586L613.847 6.15586L613.847 6z" stroke="#000000" stroke-width="0.4" fill="none" /><path id="1373" transform="matrix(1 0 0 -1 0 834)" d="M615.947 5.92813C 616.139 5.92813 616.283 6.06602 616.283 6.27617C 616.283 6.46797 616.139 6.61797 615.947 6.61797C 615.755 6.61797 615.611 6.46797 615.611 6.27617C 615.611 6.06602 615.755 5.92813 615.947 5.92813z" stroke="#000000" stroke-width="0.4" fill="none" /></g></g></svg>