<svg xmlns="http://www.w3.org/2000/svg" xmlns:xlink="http://www.w3.org/1999/xlink" id="body_1" preserveAspectRatio="xMinYMin meet" viewBox="0 0 872 1112"><defs><clipPath id="1"><path id="" clip-rule="evenodd" transform="matrix(1 0 0 1 0 0)" d="M0 834L0 0L0 0L654 0L654 0L654 834L654 834L0 834z" /></clipPath><clipPath id="2"><path id="" clip-rule="evenodd" transform="matrix(1 0 0 1 0 0)" d="M21 813L633 813L633 813L633 21L633 21L21 21z" /></clipPath><clipPath id="3"><path id="" clip-rule="evenodd" transform="matrix(1 0 0 1 0 0)" d="M382.086 217.468L408.62 217.468L408.62 217.468L408.62 188.015L408.62 188.015L382.086 188.015z" /></clipPath><clipPath id="4"><path id="" clip-rule="evenodd" transform="matrix(1 0 0 1 0 0)" d="M382.086 217.468L408.62 217.468L408.62 217.468L408.62 188.015L408.62 188.015L382.086 188.015z" /></clipPath><clipPath id="5"><path id="" clip-rule="evenodd" transform="matrix(1 0 0 1 0 0)" d="M382.086 217.468L408.62 217.468L408.62 217.468L408.62 188.0141L408.62 188.0141L382.086 188.0141z" /></clipPath><clipPath id="6"><path id="" clip-rule="evenodd" transform="matrix(1 0 0 1 0 0)" d="M346.417 270.016L475.411 270.016L475.411 270.016L475.411 128.709L475.411 128.709L346.417 128.709z" /></clipPath><clipPath id="7"><path id="" clip-rule="evenodd" transform="matrix(1 0 0 1 0 0)" d="M420.661 242.32C 420.661 257.263 432.774 269.376 447.717 269.376L447.717 269.376L447.717 269.376C 462.659 269.376 474.772 257.263 474.772 242.32L474.772 242.32L474.772 242.32C 474.772 227.378 462.659 215.264 447.717 215.264L447.717 215.264L447.717 215.264C 432.774 215.264 420.661 227.378 420.661 242.32" /></clipPath><clipPath id="8"><path id="" clip-rule="evenodd" transform="matrix(1 0 0 1 0 0)" d="M420.661 242.32C 420.661 257.263 432.774 269.376 447.717 269.376L447.717 269.376L447.717 269.376C 462.659 269.376 474.772 257.263 474.772 242.32L474.772 242.32L474.772 242.32C 474.772 227.378 462.659 215.264 447.717 215.264L447.717 215.264L447.717 215.264C 432.774 215.264 420.661 227.378 420.661 242.32" /></clipPath><clipPath id="9"><path id="" clip-rule="evenodd" transform="matrix(1 0 0 1 0 0)" d="M346.417 270.016L475.411 270.016L475.411 270.016L475.411 128.709L475.411 128.709L346.417 128.709z" /></clipPath><clipPath id="10"><path id="" clip-rule="evenodd" transform="matrix(1 0 0 1 0 0)" d="M261.519 168.625L298.7967 168.625L298.7967 168.625L298.7967 111.7078L298.7967 111.7078L261.519 111.7078z" /></clipPath><clipPath id="11"><path id="" clip-rule="evenodd" transform="matrix(1 0 0 1 0 0)" d="M261.519 168.625L298.7967 168.625L298.7967 168.625L298.7967 111.7078L298.7967 111.7078L261.519 111.7078z" /></clipPath><clipPath id="12"><path id="" clip-rule="evenodd" transform="matrix(1 0 0 1 0 0)" d="M436.088 190.383L461.6853 190.383L461.6853 190.383L461.6853 154.383L461.6853 154.383L436.088 154.383z" /></clipPath><clipPath id="13"><path id="" clip-rule="evenodd" transform="matrix(1 0 0 1 0 0)" d="M436.088 190.383L461.6853 190.383L461.6853 190.383L461.6853 154.383L461.6853 154.383L436.088 154.383z" /></clipPath><clipPath id="14"><path id="" clip-rule="evenodd" transform="matrix(1 0 0 1 0 0)" d="M338.098 437.896L363.9609 437.896L363.9609 437.896L363.9609 409.1858L363.9609 409.1858L338.098 409.1858z" /></clipPath><clipPath id="15"><path id="" clip-rule="evenodd" transform="matrix(1 0 0 1 0 0)" d="M338.098 437.896L363.961 437.896L363.961 437.896L363.961 409.186L363.961 409.186L338.098 409.186z" /></clipPath><clipPath id="16"><path id="" clip-rule="evenodd" transform="matrix(1 0 0 1 0 0)" d="M338.098 437.896L363.9609 437.896L363.9609 437.896L363.9609 409.187L363.9609 409.187L338.098 409.187z" /></clipPath><clipPath id="17"><path id="" clip-rule="evenodd" transform="matrix(1 0 0 1 0 0)" d="M303.331 489.459L555.874 489.459L555.874 489.459L555.874 339.897L555.874 339.897L303.331 339.897z" /></clipPath><clipPath id="18"><path id="" clip-rule="evenodd" transform="matrix(1 0 0 1 0 0)" d="M375.698 462.119C 375.698 476.684 387.505 488.491 402.07 488.491L402.07 488.491L402.07 488.491C 416.634 488.491 428.441 476.684 428.441 462.119L428.441 462.119L428.441 462.119C 428.441 447.554 416.634 435.747 402.07 435.747L402.07 435.747L402.07 435.747C 387.505 435.747 375.698 447.554 375.698 462.119" /></clipPath><clipPath id="19"><path id="" clip-rule="evenodd" transform="matrix(1 0 0 1 0 0)" d="M375.698 462.119C 375.698 476.684 387.505 488.491 402.07 488.491L402.07 488.491L402.07 488.491C 416.634 488.491 428.441 476.684 428.441 462.119L428.441 462.119L428.441 462.119C 428.441 447.554 416.634 435.747 402.07 435.747L402.07 435.747L402.07 435.747C 387.505 435.747 375.698 447.554 375.698 462.119" /></clipPath><clipPath id="20"><path id="" clip-rule="evenodd" transform="matrix(1 0 0 1 0 0)" d="M303.331 489.459L555.874 489.459L555.874 489.459L555.874 339.897L555.874 339.897L303.331 339.897z" /></clipPath><clipPath id="21"><path id="" clip-rule="evenodd" transform="matrix(1 0 0 1 0 0)" d="M462.465 426.293L468.6963 426.293L468.6963 426.293L468.6963 398.6571L468.6963 398.6571L462.465 398.6571z" /></clipPath><clipPath id="22"><path id="" clip-rule="evenodd" transform="matrix(1 0 0 1 0 0)" d="M462.465 426.293L468.696 426.293L468.696 426.293L468.696 398.657L468.696 398.657L462.465 398.657z" /></clipPath><clipPath id="23"><path id="" clip-rule="evenodd" transform="matrix(1 0 0 1 0 0)" d="M462.465 426.293L468.6963 426.293L468.6963 426.293L468.6963 398.6571L468.6963 398.6571L462.465 398.6571z" /></clipPath><clipPath id="24"><path id="" clip-rule="evenodd" transform="matrix(1 0 0 1 0 0)" d="M303.331 489.459L555.874 489.459L555.874 489.459L555.874 339.897L555.874 339.897L303.331 339.897z" /></clipPath><clipPath id="25"><path id="" clip-rule="evenodd" transform="matrix(1 0 0 1 0 0)" d="M502.933 458.537L502.933 468.841C 505.436 480.184 516.042 488.702 528.744 488.702L528.744 488.702L528.744 488.702C 539.413 488.702 548.603 482.693 552.755 474.048L552.755 474.048L552.755 474.048L552.755 474.048L552.755 453.331C 548.603 444.685 539.413 438.676 528.744 438.676L528.744 438.676L528.744 438.676C 516.042 438.676 505.436 447.194 502.933 458.537" /></clipPath><clipPath id="26"><path id="" clip-rule="evenodd" transform="matrix(1 0 0 1 0 0)" d="M502.933 458.537L502.933 468.841C 505.436 480.184 516.042 488.702 528.744 488.702L528.744 488.702L528.744 488.702C 539.413 488.702 548.603 482.693 552.755 474.048L552.755 474.048L552.755 474.048L552.755 474.048L552.755 453.331C 548.603 444.685 539.413 438.676 528.744 438.676L528.744 438.676L528.744 438.676C 516.042 438.676 505.436 447.194 502.933 458.537" /></clipPath><clipPath id="27"><path id="" clip-rule="evenodd" transform="matrix(1 0 0 1 0 0)" d="M303.331 489.459L555.874 489.459L555.874 489.459L555.874 339.897L555.874 339.897L303.331 339.897z" /></clipPath><clipPath id="28"><path id="" clip-rule="evenodd" transform="matrix(1 0 0 1 0 0)" d="M303.331 489.459L555.874 489.459L555.874 489.459L555.874 339.897L555.874 339.897L303.331 339.897z" /></clipPath><clipPath id="29"><path id="" clip-rule="evenodd" transform="matrix(1 0 0 1 0 0)" d="M261.68 383.208L298.9179 383.208L298.9179 383.208L298.9179 326.2912L298.9179 326.2912L261.68 326.2912z" /></clipPath><clipPath id="30"><path id="" clip-rule="evenodd" transform="matrix(1 0 0 1 0 0)" d="M261.68 383.208L298.9179 383.208L298.9179 383.208L298.9179 326.2912L298.9179 326.2912L261.68 326.2912z" /></clipPath><clipPath id="31"><path id="" clip-rule="evenodd" transform="matrix(1 0 0 1 0 0)" d="M364.843 393.473L390.4399 393.473L390.4399 393.473L390.4399 360.1359L390.4399 360.1359L364.843 360.1359z" /></clipPath><clipPath id="32"><path id="" clip-rule="evenodd" transform="matrix(1 0 0 1 0 0)" d="M364.843 393.473L390.4399 393.473L390.4399 393.473L390.4399 360.1359L390.4399 360.1359L364.843 360.1359z" /></clipPath><clipPath id="33"><path id="" clip-rule="evenodd" transform="matrix(1 0 0 1 0 0)" d="M496.937 393.473L522.5339 393.473L522.5339 393.473L522.5339 360.1359L522.5339 360.1359L496.937 360.1359z" /></clipPath><clipPath id="34"><path id="" clip-rule="evenodd" transform="matrix(1 0 0 1 0 0)" d="M496.937 393.473L522.5339 393.473L522.5339 393.473L522.5339 360.1359L522.5339 360.1359L496.937 360.1359z" /></clipPath><clipPath id="35"><path id="" clip-rule="evenodd" transform="matrix(1 0 0 1 0 0)" d="M425.009 395.993L450.6059 395.993L450.6059 395.993L450.6059 360.1352L450.6059 360.1352L425.009 360.1352z" /></clipPath><clipPath id="36"><path id="" clip-rule="evenodd" transform="matrix(1 0 0 1 0 0)" d="M425.009 395.993L450.6059 395.993L450.6059 395.993L450.6059 360.1352L450.6059 360.1352L425.009 360.1352z" /></clipPath><clipPath id="37"><path id="" clip-rule="evenodd" transform="matrix(1 0 0 1 0 0)" d="M279.308 709.672L547.11 709.672L547.11 709.672L547.11 568.259L547.11 568.259L279.308 568.259z" /></clipPath><clipPath id="38"><path id="" clip-rule="evenodd" transform="matrix(1 0 0 1 0 0)" d="M352.099 615.097C 352.099 629.211 363.541 640.654 377.655 640.654L377.655 640.654L377.655 640.654C 389.287 640.654 399.104 632.882 402.198 622.248L402.198 622.248L402.198 622.248L402.198 622.248L402.198 607.945C 399.104 597.312 389.287 589.539 377.655 589.539L377.655 589.539L377.655 589.539C 363.541 589.539 352.099 600.982 352.099 615.097" /></clipPath><clipPath id="39"><path id="" clip-rule="evenodd" transform="matrix(1 0 0 1 0 0)" d="M352.099 615.097C 352.099 629.211 363.541 640.654 377.655 640.654L377.655 640.654L377.655 640.654C 389.287 640.654 399.104 632.882 402.198 622.248L402.198 622.248L402.198 622.248L402.198 622.248L402.198 607.945C 399.104 597.312 389.287 589.539 377.655 589.539L377.655 589.539L377.655 589.539C 363.541 589.539 352.099 600.982 352.099 615.097" /></clipPath><clipPath id="40"><path id="" clip-rule="evenodd" transform="matrix(1 0 0 1 0 0)" d="M279.308 709.672L547.11 709.672L547.11 709.672L547.11 568.259L547.11 568.259L279.308 568.259z" /></clipPath><clipPath id="41"><path id="" clip-rule="evenodd" transform="matrix(1 0 0 1 0 0)" d="M495.36 615.097C 495.36 629.211 506.803 640.654 520.917 640.654L520.917 640.654L520.917 640.654C 535.032 640.654 546.4741 629.211 546.4741 615.097L546.4741 615.097L546.4741 615.097C 546.4741 600.982 535.032 589.539 520.917 589.539L520.917 589.539L520.917 589.539C 506.803 589.539 495.36 600.982 495.36 615.097" /></clipPath><clipPath id="42"><path id="" clip-rule="evenodd" transform="matrix(1 0 0 1 0 0)" d="M495.36 615.097C 495.36 629.211 506.803 640.654 520.917 640.654L520.917 640.654L520.917 640.654C 535.032 640.654 546.4741 629.211 546.4741 615.097L546.4741 615.097L546.4741 615.097C 546.4741 600.982 535.032 589.539 520.917 589.539L520.917 589.539L520.917 589.539C 506.803 589.539 495.36 600.982 495.36 615.097" /></clipPath><clipPath id="43"><path id="" clip-rule="evenodd" transform="matrix(1 0 0 1 0 0)" d="M279.308 709.672L547.11 709.672L547.11 709.672L547.11 568.259L547.11 568.259L279.308 568.259z" /></clipPath><clipPath id="44"><path id="" clip-rule="evenodd" transform="matrix(1 0 0 1 0 0)" d="M279.308 709.672L547.11 709.672L547.11 709.672L547.11 568.259L547.11 568.259L279.308 568.259z" /></clipPath><clipPath id="45"><path id="" clip-rule="evenodd" transform="matrix(1 0 0 1 0 0)" d="M323.714 650.637L343.057 650.637L343.057 650.637L343.057 619.9827L343.057 619.9827L323.714 619.9827z" /></clipPath><clipPath id="46"><path id="" clip-rule="evenodd" transform="matrix(1 0 0 1 0 0)" d="M323.714 650.637L343.057 650.637L343.057 650.637L343.057 619.983L343.057 619.983L323.714 619.983z" /></clipPath><clipPath id="47"><path id="" clip-rule="evenodd" transform="matrix(1 0 0 1 0 0)" d="M323.714 650.637L343.057 650.637L343.057 650.637L343.057 619.9827L343.057 619.9827L323.714 619.9827z" /></clipPath><clipPath id="48"><path id="" clip-rule="evenodd" transform="matrix(1 0 0 1 0 0)" d="M447.44 678.423L466.1142 678.423L466.1142 678.423L466.1142 670.914L466.1142 670.914L447.44 670.914z" /></clipPath><clipPath id="49"><path id="" clip-rule="evenodd" transform="matrix(1 0 0 1 0 0)" d="M447.44 678.423L466.114 678.423L466.114 678.423L466.114 670.914L466.114 670.914L447.44 670.914z" /></clipPath><clipPath id="50"><path id="" clip-rule="evenodd" transform="matrix(1 0 0 1 0 0)" d="M447.44 678.423L466.1142 678.423L466.1142 678.423L466.1142 670.9148L466.1142 670.9148L447.44 670.9148z" /></clipPath><clipPath id="51"><path id="" clip-rule="evenodd" transform="matrix(1 0 0 1 0 0)" d="M447.44 678.423L466.1142 678.423L466.1142 678.423L466.1142 670.914L466.1142 670.914L447.44 670.914z" /></clipPath><clipPath id="52"><path id="" clip-rule="evenodd" transform="matrix(1 0 0 1 0 0)" d="M279.308 709.672L547.11 709.672L547.11 709.672L547.11 568.259L547.11 568.259L279.308 568.259z" /></clipPath><clipPath id="53"><path id="" clip-rule="evenodd" transform="matrix(1 0 0 1 0 0)" d="M488.516 679.168L508.4539 679.168L508.4539 679.168L508.4539 671.566L508.4539 671.566L488.516 671.566z" /></clipPath><clipPath id="54"><path id="" clip-rule="evenodd" transform="matrix(1 0 0 1 0 0)" d="M488.516 679.168L508.454 679.168L508.454 679.168L508.454 671.566L508.454 671.566L488.516 671.566z" /></clipPath><clipPath id="55"><path id="" clip-rule="evenodd" transform="matrix(1 0 0 1 0 0)" d="M488.516 679.168L508.4539 679.168L508.4539 679.168L508.4539 671.5649L508.4539 671.5649L488.516 671.5649z" /></clipPath><clipPath id="56"><path id="" clip-rule="evenodd" transform="matrix(1 0 0 1 0 0)" d="M488.516 679.168L508.4539 679.168L508.4539 679.168L508.4539 671.566L508.4539 671.566L488.516 671.566z" /></clipPath><clipPath id="57"><path id="" clip-rule="evenodd" transform="matrix(1 0 0 1 0 0)" d="M279.308 709.672L547.11 709.672L547.11 709.672L547.11 568.259L547.11 568.259L279.308 568.259z" /></clipPath><clipPath id="58"><path id="" clip-rule="evenodd" transform="matrix(1 0 0 1 0 0)" d="M261.226 607.853L298.4647 607.853L298.4647 607.853L298.4647 550.937L298.4647 550.937L261.226 550.937z" /></clipPath><clipPath id="59"><path id="" clip-rule="evenodd" transform="matrix(1 0 0 1 0 0)" d="M261.226 607.853L298.4647 607.853L298.4647 607.853L298.4647 550.937L298.4647 550.937L261.226 550.937z" /></clipPath><clipPath id="60"><path id="" clip-rule="evenodd" transform="matrix(1 0 0 1 0 0)" d="M377.032 708.051L402.6289 708.051L402.6289 708.051L402.6289 672.192L402.6289 672.192L377.032 672.192z" /></clipPath><clipPath id="61"><path id="" clip-rule="evenodd" transform="matrix(1 0 0 1 0 0)" d="M377.032 708.051L402.6289 708.051L402.6289 708.051L402.6289 672.192L402.6289 672.192L377.032 672.192z" /></clipPath><clipPath id="62"><path id="" clip-rule="evenodd" transform="matrix(1 0 0 1 0 0)" d="M410.055 707.275L435.0518 707.275L435.0518 707.275L435.0518 672.1922L435.0518 672.1922L410.055 672.1922z" /></clipPath><clipPath id="63"><path id="" clip-rule="evenodd" transform="matrix(1 0 0 1 0 0)" d="M410.055 707.275L435.0518 707.275L435.0518 707.275L435.0518 672.1922L435.0518 672.1922L410.055 672.1922z" /></clipPath><clipPath id="64"><path id="" clip-rule="evenodd" transform="matrix(1 0 0 1 0 0)" d="M517.436 707.275L542.4329 707.275L542.4329 707.275L542.4329 672.1922L542.4329 672.1922L517.436 672.1922z" /></clipPath><clipPath id="65"><path id="" clip-rule="evenodd" transform="matrix(1 0 0 1 0 0)" d="M517.436 707.275L542.4329 707.275L542.4329 707.275L542.4329 672.1922L542.4329 672.1922L517.436 672.1922z" /></clipPath><clipPath id="66"><path id="" clip-rule="evenodd" transform="matrix(1 0 0 1 0 0)" d="M325.452 190.242L351.0489 190.242L351.0489 190.242L351.0489 154.383L351.0489 154.383L325.452 154.383z" /></clipPath><clipPath id="67"><path id="" clip-rule="evenodd" transform="matrix(1 0 0 1 0 0)" d="M325.452 190.242L351.0489 190.242L351.0489 190.242L351.0489 154.383L351.0489 154.383L325.452 154.383z" /></clipPath><clipPath id="68"><path id="" clip-rule="evenodd" transform="matrix(1 0 0 1 0 0)" d="M308.291 395.993L333.8879 395.993L333.8879 395.993L333.8879 360.1352L333.8879 360.1352L308.291 360.1352z" /></clipPath><clipPath id="69"><path id="" clip-rule="evenodd" transform="matrix(1 0 0 1 0 0)" d="M308.291 395.993L333.8879 395.993L333.8879 395.993L333.8879 360.1352L333.8879 360.1352L308.291 360.1352z" /></clipPath><clipPath id="70"><path id="" clip-rule="evenodd" transform="matrix(1 0 0 1 0 0)" d="M267.104 707.985L292.7013 707.985L292.7013 707.985L292.7013 672.126L292.7013 672.126L267.104 672.126z" /></clipPath><clipPath id="71"><path id="" clip-rule="evenodd" transform="matrix(1 0 0 1 0 0)" d="M267.104 707.985L292.7013 707.985L292.7013 707.985L292.7013 672.126L292.7013 672.126L267.104 672.126z" /></clipPath></defs><g transform="matrix(1.333333 0 0 1.333333 0 0)"><g clip-path="url(#1)"><g clip-path="url(#2)"><path id="1" transform="matrix(1 0 0 -1 0 834)" d="M91.866 67.4211L562.134 67.4211L562.134 74.92501L91.866 74.92501z" stroke="none" fill="#686868" fill-rule="nonzero" /><path id="2" transform="matrix(1 0 0 -1 0 834)" d="M562.134 526.984L91.866 526.984" stroke="#686868" stroke-width="1" fill="none" /><path id="3" transform="matrix(1 0 0 -1 0 834)" d="M562.134 307.016L91.866 307.016" stroke="#686868" stroke-width="1" fill="none" /></g><g transform="matrix(1.00685 0 0 0.9991773 346.417 128.709)"><g transform="matrix(1 0 0 1 0 0)"><image x="0" y="0" xlink:href="img_01.png" width="93" height="141" /></g></g><g clip-path="url(#3)"><g><g clip-path="url(#4)"><g clip-path="url(#5)"><path id="8" transform="matrix(1 0 0 -1 0 834)" d="M382.338 641.556C 382.579 642.2141 383.228 642.746 383.889 643.133C 387.655 645.34 392.518 646.394 397.081 645.8391C 399.36 645.562 401.568 644.923 403.595 644.012C 404.61 643.556 405.582 643.031 406.498 642.445C 407.278 641.946 408.352 641.369 408.558 640.502C 408.731 639.769 408.498 638.968 408.381 638.238C 408.214 637.203 408.076 635.965 407.263 635.125C 406.493 634.331 405.344 633.851 404.217 633.508C 401.739 632.755 399.083 632.49 396.448 632.453C 396.491 633.704 396.534 634.955 396.577 636.206C 399.815 635.792 403.231 636.441 405.94 637.986C 405.922 637.976 404.53 638.926 404.384 639.009C 403.816 639.332 403.219 639.6201 402.601 639.871C 401.377 640.369 400.059 640.706 398.739 640.968C 397.097 641.294 395.404 641.4221 393.719 641.36C 391.091 641.263 388.476 640.744 386.061 639.873C 385.591 639.704 385.13 639.503 384.7 639.265C 384.717 639.246 387.406 636.327 393.92 636.241L393.92 636.241L393.003 624.26L393.003 624.26L395.598 625.267L395.598 625.267L391.587 616.531L391.587 616.531L386.925 625.037L386.925 625.037L389.585 624.171L389.585 624.171L389.665 633.33C 388.502 633.5891 387.355 633.931 386.248 634.325C 384.981 634.776 383.49 635.263 382.674 636.247C 382.413 636.561 382.292 636.912 382.231 637.276C 382.171 637.637 382.17 638.011 382.15 638.376C 382.094 639.393 381.976 640.573 382.338 641.556" stroke="none" fill="#FFFFFF" fill-rule="nonzero" fill-opacity="0.8" /></g></g></g></g><g clip-path="url(#6)"><path id="9" transform="matrix(1 0 0 -1 0 834)" d="M420.661 591.68C 420.661 576.738 432.774 564.624 447.717 564.624C 462.659 564.624 474.772 576.738 474.772 591.68C 474.772 606.622 462.659 618.736 447.717 618.736C 432.774 618.736 420.661 606.622 420.661 591.68" stroke="none" fill="#FFFFFF" fill-rule="nonzero" /></g><g clip-path="url(#7)"></g><g clip-path="url(#8)"><g transform="matrix(1.00685 0 0 0.9991773 404.069 156.824)"><g transform="matrix(1 0 0 1 0 0)"><image x="0" y="0" xlink:href="img_02.png" width="93" height="141" /></g></g></g><g clip-path="url(#9)"><path id="11" transform="matrix(1 0 0 -1 0 834)" d="M420.661 591.68C 420.661 576.738 432.774 564.624 447.717 564.624C 462.659 564.624 474.772 576.738 474.772 591.68C 474.772 606.622 462.659 618.736 447.717 618.736C 432.774 618.736 420.661 606.622 420.661 591.68z" stroke="#000000" stroke-width="0.71" fill="none" /></g><g clip-path="url(#10)"></g><g clip-path="url(#11)"><g transform="matrix(1.007506 0 0 0.9995859 261.519 111.7086)"><g transform="matrix(1 0 0 1 0 0)"><image x="0" y="0" xlink:href="img_03.png" width="37" height="57" /></g></g></g><g clip-path="url(#12)"></g><g clip-path="url(#13)"><g transform="matrix(-1.022785 0 0 1.000429 462.696 153.3747)"><g transform="matrix(1 0 0 1 0 0)"><image x="0" y="0" xlink:href="img_04.png" width="27" height="38" /></g></g></g><g transform="matrix(1.002968 0 0 1.00235 303.331 351.38)"><g transform="matrix(1 0 0 1 0 0)"><image x="0" y="0" xlink:href="img_05.png" width="91" height="137" /></g></g><g transform="matrix(1.006571 0 0 1.00235 428.441 351.38)"><g transform="matrix(1 0 0 1 0 0)"><image x="0" y="0" xlink:href="img_06.png" width="98" height="137" /></g></g><g clip-path="url(#14)"><g><g clip-path="url(#15)"><g clip-path="url(#16)"><path id="26" transform="matrix(1 0 0 -1 0 834)" d="M338.344 420.496C 338.579 421.137 339.211 421.656 339.855 422.033C 343.527 424.185 348.266 425.211 352.714 424.671C 354.935 424.401 357.088 423.778 359.064 422.89C 360.053 422.445 361 421.934 361.893 421.363C 362.654 420.876 363.7 420.314 363.901 419.469C 364.07 418.754 363.843 417.973 363.728 417.262C 363.566 416.253 363.432 415.046 362.639 414.228C 361.888 413.453 360.768 412.986 359.67 412.652C 357.255 411.917 354.666 411.659 352.097 411.623C 352.139 412.842 352.181 414.062 352.223 415.282C 355.38 414.878 358.709 415.51 361.349 417.016C 361.332 417.007 359.975 417.933 359.833 418.013C 359.279 418.328 358.697 418.609 358.095 418.854C 356.902 419.339 355.617 419.668 354.33 419.923C 352.73 420.241 351.079 420.365 349.437 420.305C 346.876 420.211 344.327 419.705 341.973 418.855C 341.515 418.69 341.065 418.495 340.646 418.263C 340.663 418.245 343.284 415.399 349.633 415.316L349.633 415.316L348.74 403.637L348.74 403.637L351.269 404.619L351.269 404.619L347.359 396.104L347.359 396.104L342.815 404.394L342.815 404.394L345.407 403.551L345.407 403.551L345.486 412.478C 344.353 412.731 343.234 413.064 342.155 413.448C 340.92 413.887 339.467 414.362 338.671 415.322C 338.417 415.627 338.3 415.969 338.24 416.325C 338.181 416.676 338.18 417.041 338.16 417.396C 338.106 418.388 337.991 419.538 338.344 420.496" stroke="none" fill="#FFFFFF" fill-rule="nonzero" fill-opacity="0.8" /></g></g></g></g><g clip-path="url(#17)"><path id="27" transform="matrix(1 0 0 -1 0 834)" d="M375.698 371.881C 375.698 357.316 387.505 345.509 402.07 345.509C 416.634 345.509 428.442 357.316 428.442 371.881C 428.442 386.446 416.634 398.253 402.07 398.253C 387.505 398.253 375.698 386.446 375.698 371.881" stroke="none" fill="#FFFFFF" fill-rule="nonzero" /></g><g clip-path="url(#18)"></g><g clip-path="url(#19)"><g transform="matrix(1.002968 0 0 1.00235 359.525 378.785)"><g transform="matrix(1 0 0 1 0 0)"><image x="0" y="0" xlink:href="img_07.png" width="91" height="137" /></g></g></g><g clip-path="url(#20)"><path id="29" transform="matrix(1 0 0 -1 0 834)" d="M375.698 371.881C 375.698 357.316 387.505 345.509 402.07 345.509C 416.634 345.509 428.442 357.316 428.442 371.881C 428.442 386.446 416.634 398.253 402.07 398.253C 387.505 398.253 375.698 386.446 375.698 371.881z" stroke="#000000" stroke-width="0.841" fill="none" /></g><g clip-path="url(#21)"><g><g clip-path="url(#22)"><g clip-path="url(#23)"><path id="31" transform="matrix(1 0 0 -1 0 834)" d="M465.581 407.707L465.581 430.32" stroke="#FFFFFF" stroke-width="1.683" fill="none" stroke-opacity="0.8" /><path id="32" transform="matrix(1 0 0 -1 0 834)" d="M465.581 435.343L462.465 427.957L465.581 429.281L468.697 427.957z" stroke="none" fill="#FFFFFF" fill-rule="nonzero" fill-opacity="0.8" /></g></g></g></g><g clip-path="url(#24)"><path id="33" transform="matrix(1 0 0 -1 0 834)" d="M502.372 370.311C 502.372 356.497 514.179 345.298 528.744 345.298C 543.308 345.298 555.116 356.497 555.116 370.311C 555.116 384.125 543.308 395.324 528.744 395.324C 514.179 395.324 502.372 384.125 502.372 370.311" stroke="none" fill="#FFFFFF" fill-rule="nonzero" /></g><g clip-path="url(#25)"></g><g clip-path="url(#26)"><g transform="matrix(0.996454 0 0 1.005193 502.932 424.2267)"><g transform="matrix(1 0 0 1 0 0)"><image x="0" y="0" xlink:href="img_08.png" width="50" height="69" /></g></g></g><g clip-path="url(#27)"><path id="35" transform="matrix(1 0 0 -1 0 834)" d="M502.372 370.311C 502.372 356.497 514.179 345.298 528.744 345.298C 543.308 345.298 555.116 356.497 555.116 370.311C 555.116 384.125 543.308 395.324 528.744 395.324C 514.179 395.324 502.372 384.125 502.372 370.311z" stroke="#000000" stroke-width="0.841" fill="none" /><path id="36" transform="matrix(1 0 0 -1 0 834)" d="M349.014 492.262C 346.351 492.262 344.193 490.104 344.193 487.441C 344.193 484.779 346.351 482.62 349.014 482.62C 351.677 482.62 353.835 484.779 353.835 487.441C 353.835 490.104 351.677 492.262 349.014 492.262M349.014 483.206C 346.69 483.206 344.806 485.09 344.806 487.414C 344.806 489.739 346.69 491.623 349.014 491.623C 351.338 491.623 353.222 489.739 353.222 487.414C 353.222 485.09 351.338 483.206 349.014 483.206" stroke="none" fill="#000000" fill-rule="nonzero" /></g><g clip-path="url(#28)"><path id="38" transform="matrix(1 0 0 -1 0 834)" d="M477.763 492.236C 475.1 492.236 472.942 490.078 472.942 487.415C 472.942 484.753 475.1 482.594 477.763 482.594C 480.426 482.594 482.584 484.753 482.584 487.415C 482.584 490.078 480.426 492.236 477.763 492.236M477.763 483.18C 475.439 483.18 473.555 485.064 473.555 487.388C 473.555 489.713 475.439 491.597 477.763 491.597C 480.087 491.597 481.971 489.713 481.971 487.388C 481.971 485.064 480.087 483.18 477.763 483.18" stroke="none" fill="#000000" fill-rule="nonzero" /></g><g clip-path="url(#29)"></g><g clip-path="url(#30)"><g transform="matrix(1.006449 0 0 0.9985386 261.679 326.2913)"><g transform="matrix(1 0 0 1 0 0)"><image x="0" y="0" xlink:href="img_09.png" width="37" height="57" /></g></g></g><g clip-path="url(#31)"></g><g clip-path="url(#32)"><g transform="matrix(-1.022789 0 0 1.010214 391.447 359.1215)"><g transform="matrix(1 0 0 1 0 0)"><image x="0" y="0" xlink:href="img_10.png" width="27" height="35" /></g></g></g><g clip-path="url(#33)"></g><g clip-path="url(#34)"><g transform="matrix(-1.022789 0 0 1.010214 523.541 359.1215)"><g transform="matrix(1 0 0 1 0 0)"><image x="0" y="0" xlink:href="img_10.png" width="27" height="35" /></g></g></g><g clip-path="url(#35)"></g><g clip-path="url(#36)"><g transform="matrix(1.022789 0 0 0.9967948 424.001 359.1218)"><g transform="matrix(1 0 0 1 0 0)"><image x="0" y="0" xlink:href="img_11.png" width="27" height="38" /></g></g></g><g transform="matrix(0.998206 0 0 1.001922 279.308 568.26)"><g transform="matrix(1 0 0 1 0 0)"><image x="0" y="0" xlink:href="img_12.png" width="102" height="141" /></g></g><g transform="matrix(1.001854 0 0 1.001922 413.225 568.401)"><g transform="matrix(1 0 0 1 0 0)"><image x="0" y="0" xlink:href="img_13.png" width="130" height="141" /></g></g><g clip-path="url(#37)"><path id="200" transform="matrix(1 0 0 -1 0 834)" d="M403.212 218.903C 403.212 204.788 391.77 193.346 377.655 193.346C 363.54 193.346 352.098 204.788 352.098 218.903C 352.098 233.018 363.54 244.46 377.655 244.46C 391.77 244.46 403.212 233.018 403.212 218.903" stroke="none" fill="#FFFFFF" fill-rule="nonzero" /></g><g clip-path="url(#38)"></g><g clip-path="url(#39)"><g transform="matrix(1.000431 0 0 0.9970845 351.176 570.118)"><g transform="matrix(1 0 0 1 0 0)"><image x="0" y="0" xlink:href="img_14.png" width="51" height="71" /></g></g></g><g clip-path="url(#40)"><path id="202" transform="matrix(1 0 0 -1 0 834)" d="M403.212 218.903C 403.212 204.788 391.77 193.346 377.655 193.346C 363.54 193.346 352.098 204.788 352.098 218.903C 352.098 233.018 363.54 244.46 377.655 244.46C 391.77 244.46 403.212 233.018 403.212 218.903z" stroke="#000000" stroke-width="0.707" fill="none" /><path id="203" transform="matrix(1 0 0 -1 0 834)" d="M546.4741 218.903C 546.4741 204.788 535.032 193.346 520.917 193.346C 506.802 193.346 495.36 204.788 495.36 218.903C 495.36 233.018 506.802 244.46 520.917 244.46C 535.032 244.46 546.4741 233.018 546.4741 218.903" stroke="none" fill="#FFFFFF" fill-rule="nonzero" /></g><g clip-path="url(#41)"></g><g clip-path="url(#42)"><g transform="matrix(1.009373 0 0 1.007937 494.98 570.4967)"><g transform="matrix(1 0 0 1 0 0)"><image x="0" y="0" xlink:href="img_15.png" width="52" height="74" /></g></g></g><g clip-path="url(#43)"><path id="205" transform="matrix(1 0 0 -1 0 834)" d="M546.4741 218.903C 546.4741 204.788 535.032 193.346 520.917 193.346C 506.802 193.346 495.36 204.788 495.36 218.903C 495.36 233.018 506.802 244.46 520.917 244.46C 535.032 244.46 546.4741 233.018 546.4741 218.903z" stroke="#000000" stroke-width="0.707" fill="none" /><path id="206" transform="matrix(1 0 0 -1 0 834)" d="M352.589 248.074C 350.525 248.074 348.852 246.401 348.852 244.337C 348.852 242.273 350.525 240.6 352.589 240.6C 354.653 240.6 356.326 242.273 356.326 244.337C 356.326 246.401 354.653 248.074 352.589 248.074M352.589 241.054C 350.787 241.054 349.327 242.515 349.327 244.316C 349.327 246.118 350.787 247.578 352.589 247.578C 354.391 247.578 355.851 246.118 355.851 244.316C 355.851 242.515 354.391 241.054 352.589 241.054" stroke="none" fill="#000000" fill-rule="nonzero" /></g><g clip-path="url(#44)"><path id="208" transform="matrix(1 0 0 -1 0 834)" d="M500.425 248.053C 498.361 248.053 496.688 246.38 496.688 244.316C 496.688 242.252 498.361 240.579 500.425 240.579C 502.489 240.579 504.162 242.252 504.162 244.316C 504.162 246.38 502.489 248.053 500.425 248.053M500.425 241.033C 498.623 241.033 497.163 242.493 497.163 244.295C 497.163 246.097 498.623 247.557 500.425 247.557C 502.227 247.557 503.687 246.097 503.687 244.295C 503.687 242.493 502.227 241.033 500.425 241.033" stroke="none" fill="#000000" fill-rule="nonzero" /></g><g clip-path="url(#45)"><g><g clip-path="url(#46)"><g clip-path="url(#47)"><path id="210" transform="matrix(1 0 0 -1 0 834)" d="M323.815 208.903C 323.952 209.594 324.393 210.172 324.851 210.601C 327.464 213.043 330.943 214.335 334.298 213.95C 335.974 213.757 337.62 213.187 339.149 212.327C 339.916 211.896 340.654 211.393 341.355 210.824C 341.953 210.34 342.769 209.786 342.97 208.896C 343.139 208.144 343.017 207.305 342.974 206.544C 342.913 205.465 342.886 204.177 342.343 203.273C 341.83 202.418 341.021 201.874 340.221 201.472C 338.461 200.589 336.542 200.205 334.625 200.057C 334.583 201.355 334.541 202.653 334.498 203.951C 336.881 203.655 339.33 204.469 341.212 206.182C 341.199 206.171 340.129 207.097 340.019 207.177C 339.585 207.488 339.134 207.762 338.669 207.997C 337.749 208.461 336.769 208.756 335.792 208.973C 334.578 209.243 333.337 209.305 332.114 209.171C 330.206 208.962 328.332 208.316 326.625 207.314C 326.293 207.119 325.969 206.892 325.669 206.628C 325.683 206.609 327.813 203.696 332.561 203.877L332.561 203.877L332.599 191.428L332.599 191.428L334.43 192.578L334.43 192.578L332.023 183.363L332.023 183.363L328.128 191.981L328.128 191.981L330.115 191.194L330.115 191.194L329.635 200.685C 328.773 200.906 327.917 201.212 327.088 201.574C 326.139 201.989 325.025 202.432 324.372 203.418C 324.164 203.732 324.055 204.09 323.989 204.465C 323.924 204.837 323.901 205.224 323.865 205.601C 323.764 206.652 323.609 207.87 323.815 208.903" stroke="none" fill="#FFFFFF" fill-rule="nonzero" fill-opacity="0.8" /></g></g></g></g><g clip-path="url(#48)"><g><g clip-path="url(#49)"><g clip-path="url(#50)"><path id="211" transform="matrix(1 0 0 -1 0 834)" d="M447.793 162.732C 451.29 160.866 455.9 159.098 461.977 157.706" stroke="#FFFFFF" stroke-width="0.707" stroke-linecap="round" fill="none" stroke-opacity="0.8" /></g><g clip-path="url(#51)"><path id="212" transform="matrix(1 0 0 -1 0 834)" d="M461.128 157.91L459.5 155.577L466.113 156.861L460.578 160.702z" stroke="none" fill="#FFFFFF" fill-rule="nonzero" fill-opacity="0.8" /></g></g></g></g><g clip-path="url(#52)"><path id="213" transform="matrix(1 0 0 -1 0 834)" d="M436.841 174.68C 436.841 174.68 437.41 168.283 447.768 162.746" stroke="#000000" stroke-width="0.707" stroke-linecap="round" fill="none" /></g><g clip-path="url(#53)"><g><g clip-path="url(#54)"><g clip-path="url(#55)"><path id="214" transform="matrix(1 0 0 -1 0 834)" d="M508.1 162.081C 504.31 160.189 499.295 158.397 492.664 156.997" stroke="#FFFFFF" stroke-width="0.707" stroke-linecap="round" fill="none" stroke-opacity="0.8" /></g><g clip-path="url(#56)"><path id="215" transform="matrix(1 0 0 -1 0 834)" d="M488.516 156.21L495.11 154.831L493.516 157.187L494.106 159.971z" stroke="none" fill="#FFFFFF" fill-rule="nonzero" fill-opacity="0.8" /></g></g></g></g><g clip-path="url(#57)"><path id="216" transform="matrix(1 0 0 -1 0 834)" d="M519.807 174.029C 519.807 174.029 519.199 167.632 508.127 162.095" stroke="#000000" stroke-width="0.707" stroke-linecap="round" fill="none" /></g><g clip-path="url(#58)"></g><g clip-path="url(#59)"><g transform="matrix(1.006449 0 0 0.9985386 261.226 550.9373)"><g transform="matrix(1 0 0 1 0 0)"><image x="0" y="0" xlink:href="img_09.png" width="37" height="57" /></g></g></g><g clip-path="url(#60)"></g><g clip-path="url(#61)"><g transform="matrix(-1.022767 0 0 1.017211 403.633 671.4312)"><g transform="matrix(1 0 0 1 0 0)"><image x="0" y="0" xlink:href="img_16.png" width="27" height="37" /></g></g></g><g clip-path="url(#62)"></g><g clip-path="url(#63)"><g transform="matrix(1.00007 0 0 0.9962623 409.051 671.4313)"><g transform="matrix(1 0 0 1 0 0)"><image x="0" y="0" xlink:href="img_17.png" width="27" height="37" /></g></g></g><g clip-path="url(#64)"></g><g clip-path="url(#65)"><g transform="matrix(-1.00007 0 0 0.9962623 543.437 671.4313)"><g transform="matrix(1 0 0 1 0 0)"><image x="0" y="0" xlink:href="img_17.png" width="27" height="37" /></g></g></g><g clip-path="url(#66)"></g><g clip-path="url(#67)"><g transform="matrix(1.022789 0 0 0.9967948 324.435 153.3728)"><g transform="matrix(1 0 0 1 0 0)"><image x="0" y="0" xlink:href="img_18.png" width="27" height="38" /></g></g></g><g clip-path="url(#68)"></g><g clip-path="url(#69)"><g transform="matrix(1.022789 0 0 0.9967948 307.274 359.1248)"><g transform="matrix(1 0 0 1 0 0)"><image x="0" y="0" xlink:href="img_18.png" width="27" height="38" /></g></g></g><g clip-path="url(#70)"></g><g clip-path="url(#71)"><g transform="matrix(1.022789 0 0 0.9967948 266.087 671.1148)"><g transform="matrix(1 0 0 1 0 0)"><image x="0" y="0" xlink:href="img_18.png" width="27" height="38" /></g></g></g><path id="1533" transform="matrix(1 0 0 -1 0 834)" d="M633 15L633 0M633 819L633 834M21 15L21 0M21 819L21 834M639 21L654 21M15 21L0 21M639 813L654 813M15 813L0 813" stroke="#000000" stroke-width="1.25" fill="none" /><path id="1534" transform="matrix(1 0 0 -1 0 834)" d="M633 15L633 0M633 819L633 834M21 15L21 0M21 819L21 834M639 21L654 21M15 21L0 21M639 813L654 813M15 813L0 813" stroke="#000000" stroke-width="0.25" fill="none" /><path id="1535" transform="matrix(1 0 0 -1 0 834)" d="M32.2781 9.28203C 32.2781 9.516021 32.2961 9.58203 32.3559 9.62383C 32.416 9.66602 32.5719 9.69609 32.8238 9.69609C 33.2262 9.69609 33.5738 9.62383 33.8441 9.45C 34.3238 9.167971 34.552 8.63398 34.552 8.016021C 34.552 7.05586 34.0359 6.21602 32.9141 6.21602C 32.4762 6.21602 32.2781 6.33008 32.2781 6.78594zM31.252 9.900001L31.252 9.726171C 31.7141 9.68984 31.7621 9.66602 31.7621 9.150001L31.7621 9.150001L31.7621 6.74414C 31.7621 6.23398 31.7141 6.19805 31.198 6.16211L31.198 6.16211L31.198 6L31.198 6L32.6199 6C 33.3578 6 33.952 6.15 34.402 6.49805C 34.8641 6.84609 35.1398 7.38008 35.1398 8.1C 35.1398 8.664061 34.9301 9.101951 34.6359 9.38984C 34.2641 9.74414 33.7 9.900001 32.9379 9.900001z" stroke="#000000" stroke-width="0.4" fill="none" /><path id="1536" transform="matrix(1 0 0 -1 0 834)" d="M38.3801 6.97813C 38.2898 6.70195 38.1758 6.51016 38.0738 6.38984C 37.9359 6.23398 37.732 6.20391 37.402 6.20391C 37.15 6.20391 36.9461 6.21602 36.8258 6.28203C 36.718 6.34219 36.6879 6.46211 36.6879 6.78594L36.6879 6.78594L36.6879 9.15586C 36.6879 9.66602 36.7418 9.69609 37.216 9.73203L37.216 9.73203L37.216 9.900001L37.216 9.900001L35.65 9.900001L35.65 9.900001L35.65 9.73203C 36.1359 9.69609 36.1777 9.66602 36.1777 9.15586L36.1777 9.15586L36.1777 6.75586C 36.1777 6.24609 36.1301 6.20391 35.6258 6.16797L35.6258 6.16797L35.6258 6L35.6258 6L38.3438 6C 38.398 6.18594 38.5238 6.75586 38.5598 6.94219z" stroke="#000000" stroke-width="0.4" fill="none" /><path id="1537" transform="matrix(1 0 0 -1 0 834)" d="M41.0918 9.023829C 41.0438 9.40195 41.0141 9.63594 40.9898 9.851951C 40.7617 9.92383 40.5098 9.989841 40.234 9.989841C 39.4598 9.989841 38.998 9.49805 38.998 8.921881C 38.998 8.24414 39.6039 7.94414 39.9879 7.73984C 40.4379 7.5 40.768 7.28984 40.768 6.84609C 40.768 6.40781 40.498 6.12617 40.048 6.12617C 39.4301 6.12617 39.1598 6.73203 39.0641 7.09805L39.0641 7.09805L38.8898 7.05586C 38.9258 6.767971 39.0039 6.25195 39.052 6.12617C 39.1059 6.09609 39.1961 6.05391 39.3461 6C 39.4961 5.95781 39.6879 5.91016 39.934 5.91016C 40.732 5.91016 41.266 6.41406 41.266 7.04414C 41.266 7.71602 40.6961 7.99805 40.2277 8.23789C 39.7539 8.48398 39.466 8.68789 39.466 9.12617C 39.466 9.45 39.6699 9.78594 40.132 9.78594C 40.6539 9.78594 40.8098 9.371881 40.918 8.98789z" stroke="#000000" stroke-width="0.4" fill="none" /><path id="1538" transform="matrix(1 0 0 -1 0 834)" d="M46.648 6L46.648 6.16797C 46.1258 6.21602 46.1078 6.24609 46.0898 6.88203L46.0898 6.88203L46.0301 9.05391C 46.0117 9.671881 46.0539 9.68398 46.582 9.73203L46.582 9.73203L46.582 9.900001L46.582 9.900001L45.5617 9.900001L45.5617 9.900001L44.1758 6.9L44.1758 6.9L42.8078 9.900001L42.8078 9.900001L41.8238 9.900001L41.8238 9.900001L41.8238 9.73203C 42.3699 9.67813 42.4 9.653911 42.3461 8.87383L42.3461 8.87383L42.2617 7.626171C 42.2141 7.00195 42.1777 6.73789 42.148 6.528131C 42.1059 6.27617 41.9859 6.21016 41.6379 6.16797L41.6379 6.16797L41.6379 6L41.6379 6L43.0359 6L43.0359 6L43.0359 6.16797C 42.6398 6.21016 42.4961 6.25195 42.484 6.53984C 42.4777 6.78008 42.4777 7.04414 42.502 7.53594L42.502 7.53594L42.5918 9.24609L42.5918 9.24609L42.6039 9.24609L42.6039 9.24609L43.948 6.04219L43.948 6.04219L44.068 6.04219L44.068 6.04219L45.532 9.33008L45.532 9.33008L45.5559 9.33008L45.5559 9.33008L45.5738 6.88203C 45.5801 6.24609 45.5559 6.21602 45.0699 6.16797L45.0699 6.16797L45.0699 6z" stroke="#000000" stroke-width="0.4" fill="none" /><path id="1539" transform="matrix(1 0 0 -1 0 834)" d="M51.8738 7.05586C 51.5738 6.45586 51.2496 6.12617 50.6379 6.12617C 49.7258 6.12617 49.0656 6.89414 49.0656 8.016021C 49.0656 8.92813 49.5996 9.773829 50.602 9.773829C 51.2496 9.773829 51.6098 9.516021 51.7656 8.88008L51.7656 8.88008L51.9457 8.921881C 51.9098 9.24609 51.8738 9.48594 51.8258 9.828131C 51.6578 9.85781 51.2496 9.989841 50.7637 9.989841C 49.4258 9.989841 48.4539 9.15586 48.4539 7.89609C 48.4539 6.94219 49.1078 5.91016 50.602 5.91016C 51.034 5.91016 51.5379 6.03008 51.7059 6.07188C 51.8137 6.26992 51.9637 6.71406 52.0477 6.98984z" stroke="#000000" stroke-width="0.4" fill="none" /><path id="1540" transform="matrix(1 0 0 -1 0 834)" d="M54.3398 9.773829C 55.1258 9.773829 55.7855 9.101951 55.7855 7.83594C 55.7855 6.68398 55.1855 6.12617 54.5195 6.12617C 53.6738 6.12617 53.0559 6.94805 53.0559 8.076171C 53.0559 9.19805 53.6676 9.773829 54.3398 9.773829zM54.4598 9.989841C 53.1996 9.989841 52.4438 8.98789 52.4438 7.90781C 52.4438 6.75586 53.3078 5.91016 54.3938 5.91016C 55.4918 5.91016 56.3977 6.70195 56.3977 7.99805C 56.3977 9.19805 55.4797 9.989841 54.4598 9.989841z" stroke="#000000" stroke-width="0.4" fill="none" /><path id="1541" transform="matrix(1 0 0 -1 0 834)" d="M61.8277 6L61.8277 6.16797C 61.3059 6.21602 61.2879 6.24609 61.2695 6.88203L61.2695 6.88203L61.2098 9.05391C 61.1918 9.671881 61.2336 9.68398 61.7617 9.73203L61.7617 9.73203L61.7617 9.900001L61.7617 9.900001L60.7418 9.900001L60.7418 9.900001L59.3559 6.9L59.3559 6.9L57.9879 9.900001L57.9879 9.900001L57.0035 9.900001L57.0035 9.900001L57.0035 9.73203C 57.5496 9.67813 57.5797 9.653911 57.5258 8.87383L57.5258 8.87383L57.4418 7.626171C 57.3938 7.00195 57.3578 6.73789 57.3277 6.528131C 57.2855 6.27617 57.1656 6.21016 56.8176 6.16797L56.8176 6.16797L56.8176 6L56.8176 6L58.2156 6L58.2156 6L58.2156 6.16797C 57.8195 6.21016 57.6758 6.25195 57.6637 6.53984C 57.6578 6.78008 57.6578 7.04414 57.6816 7.53594L57.6816 7.53594L57.7719 9.24609L57.7719 9.24609L57.7836 9.24609L57.7836 9.24609L59.1277 6.04219L59.1277 6.04219L59.2477 6.04219L59.2477 6.04219L60.7117 9.33008L60.7117 9.33008L60.7355 9.33008L60.7355 9.33008L60.7535 6.88203C 60.7598 6.24609 60.7355 6.21602 60.2496 6.16797L60.2496 6.16797L60.2496 6z" stroke="#000000" stroke-width="0.4" fill="none" /><path id="1542" transform="matrix(1 0 0 -1 0 834)" d="M63.8258 6L63.8258 6.16797C 63.3336 6.20391 63.2855 6.23398 63.2855 6.75L63.2855 6.75L63.2855 9.150001C 63.2855 9.66016 63.3336 9.69609 63.8258 9.73203L63.8258 9.73203L63.8258 9.900001L63.8258 9.900001L62.2355 9.900001L62.2355 9.900001L62.2355 9.73203C 62.7277 9.69609 62.7758 9.66016 62.7758 9.150001L62.7758 9.150001L62.7758 6.75C 62.7758 6.23984 62.7277 6.20391 62.2355 6.16797L62.2355 6.16797L62.2355 6z" stroke="#000000" stroke-width="0.4" fill="none" /><path id="1543" transform="matrix(1 0 0 -1 0 834)" d="M66.5074 9.023829C 66.4598 9.40195 66.4297 9.63594 66.4055 9.851951C 66.1777 9.92383 65.9258 9.989841 65.6496 9.989841C 64.8758 9.989841 64.4137 9.49805 64.4137 8.921881C 64.4137 8.24414 65.0195 7.94414 65.4035 7.73984C 65.8535 7.5 66.1836 7.28984 66.1836 6.84609C 66.1836 6.40781 65.9137 6.12617 65.46371 6.12617C 64.8457 6.12617 64.5758 6.73203 64.4797 7.09805L64.4797 7.09805L64.3055 7.05586C 64.3418 6.767971 64.4195 6.25195 64.46761 6.12617C 64.52151 6.09609 64.6117 6.05391 64.7617 6C 64.91171 5.95781 65.1035 5.91016 65.3496 5.91016C 66.1477 5.91016 66.6816 6.41406 66.6816 7.04414C 66.6816 7.71602 66.1117 7.99805 65.6438 8.23789C 65.1695 8.48398 64.8816 8.68789 64.8816 9.12617C 64.8816 9.45 65.0855 9.78594 65.5477 9.78594C 66.0695 9.78594 66.2258 9.371881 66.3336 8.98789z" stroke="#000000" stroke-width="0.4" fill="none" /><path id="1544" transform="matrix(1 0 0 -1 0 834)" d="M69.4055 7.68008L68.3016 7.68008C 68.4816 8.171881 68.6734 8.69414 68.8656 9.21016L68.8656 9.21016L68.8777 9.21016zM70.9355 6L70.9355 6.16797C 70.5457 6.20391 70.46761 6.25781 70.2758 6.77383C 69.89181 7.81797 69.4895 8.95781 69.11761 9.989841L69.11761 9.989841L68.9316 9.93594L68.9316 9.93594L67.68951 6.78594C 67.4797 6.25781 67.3957 6.22188 67.0176 6.16797L67.0176 6.16797L67.0176 6L67.0176 6L68.3195 6L68.3195 6L68.3195 6.16797C 67.8695 6.21016 67.81561 6.26992 67.9477 6.64805C 68.0258 6.9 68.1156 7.15195 68.2117 7.42188L68.2117 7.42188L69.4895 7.42188C 69.62151 7.05586 69.74181 6.73203 69.8195 6.49805C 69.8977 6.26406 69.8438 6.21602 69.4656 6.16797L69.4656 6.16797L69.4656 6z" stroke="#000000" stroke-width="0.4" fill="none" /><path id="1545" transform="matrix(1 0 0 -1 0 834)" d="M71.7273 5.92813C 71.9195 5.92813 72.06371 6.06602 72.06371 6.27617C 72.06371 6.46797 71.9195 6.61797 71.7273 6.61797C 71.5355 6.61797 71.3914 6.46797 71.3914 6.27617C 71.3914 6.06602 71.5355 5.92813 71.7273 5.92813z" stroke="#000000" stroke-width="0.4" fill="none" /><path id="1546" transform="matrix(1 0 0 -1 0 834)" d="M73.9234 6L73.9234 6.15586C 73.53951 6.19219 73.4977 6.22813 73.4977 6.63594L73.4977 6.63594L73.4977 8.70586C 73.2336 8.59805 72.9516 8.51992 72.6453 8.471881L72.6453 8.471881L72.6453 8.328131C 73.0055 8.26797 73.0234 8.24414 73.0234 7.871881L73.0234 7.871881L73.0234 6.63594C 73.0234 6.22813 72.9816 6.19219 72.6035 6.15586L72.6035 6.15586L72.6035 6zM73.2215 9.216021C 73.3953 9.216021 73.52731 9.36016 73.52731 9.52188C 73.52731 9.70195 73.3953 9.83398 73.2273 9.83398C 73.06561 9.83398 72.9215 9.70195 72.9215 9.52188C 72.9215 9.36016 73.06561 9.216021 73.2215 9.216021z" stroke="#000000" stroke-width="0.4" fill="none" /><path id="1547" transform="matrix(1 0 0 -1 0 834)" d="M77.1574 6L77.1574 6.15586C 76.8094 6.19219 76.7793 6.21602 76.7793 6.62383L76.7793 6.62383L76.7793 7.78203C 76.7793 8.36406 76.4793 8.69414 76.0055 8.69414C 75.8313 8.69414 75.67541 8.621881 75.5074 8.51406C 75.3574 8.41211 75.2254 8.32188 75.1055 8.23203L75.1055 8.23203L75.1055 8.712111C 74.8414 8.59219 74.5594 8.51992 74.27151 8.466021L74.27151 8.466021L74.27151 8.328131C 74.5953 8.26797 74.6313 8.25 74.6313 7.86602L74.6313 7.86602L74.6313 6.62383C 74.6313 6.22813 74.6016 6.19805 74.19341 6.15586L74.19341 6.15586L74.19341 6L74.19341 6L75.4953 6L75.4953 6L75.4953 6.15586C 75.1414 6.19219 75.1055 6.21602 75.1055 6.62383L75.1055 6.62383L75.1055 8.03398C 75.2855 8.18984 75.5195 8.33984 75.7594 8.33984C 76.1613 8.33984 76.3055 8.069921 76.3055 7.65586L76.3055 7.65586L76.3055 6.65391C 76.3055 6.23984 76.2633 6.19219 75.9094 6.15586L75.9094 6.15586L75.9094 6z" stroke="#000000" stroke-width="0.4" fill="none" /><path id="1548" transform="matrix(1 0 0 -1 0 834)" d="M79.4734 6.51016C 79.32931 6.40195 79.1133 6.30586 78.8973 6.30586C 78.5133 6.30586 78.0754 6.65391 78.0754 7.36797C 78.0754 8.23789 78.57931 8.471881 78.8555 8.471881C 79.0832 8.471881 79.32931 8.37617 79.4734 8.16602zM80.4035 6.30586L80.2113 6.32383C 79.9895 6.34805 79.9473 6.37813 79.9473 6.68984L79.9473 6.68984L79.9473 10.2719C 79.7254 10.1941 79.3234 10.1039 79.0113 10.0621L79.0113 10.0621L79.0113 9.917971C 79.44341 9.88789 79.4734 9.869921 79.4734 9.47383L79.4734 9.47383L79.4734 8.628131C 79.3355 8.67617 79.1613 8.69414 79.0773 8.69414C 78.2613 8.69414 77.5293 8.03984 77.5293 7.20586C 77.5293 6.36602 78.1594 5.92813 78.6395 5.92813C 78.7113 5.92813 78.87341 5.96406 79.1074 6.10195L79.1074 6.10195L79.4734 6.31797L79.4734 6.31797L79.4734 5.92813C 79.8215 6.05391 80.27151 6.13203 80.4035 6.15586z" stroke="#000000" stroke-width="0.4" fill="none" /><path id="1549" transform="matrix(1 0 0 -1 0 834)" d="M81.3813 8.24414C 81.4895 8.310161 81.6813 8.35781 81.84921 8.35781C 82.34731 8.35781 82.7676 7.96211 82.7676 7.278131C 82.7676 6.58203 82.4492 6.15586 81.9516 6.15586C 81.6336 6.16211 81.4535 6.37188 81.4176 6.49219C 81.3934 6.54609 81.3813 6.60586 81.3813 6.69609zM81.3813 8.42383L81.3813 10.2719C 81.1594 10.1941 80.7934 10.098 80.5113 10.0621L80.5113 10.0621L80.5113 9.92383C 80.8953 9.88789 80.9074 9.851951 80.9074 9.48008L80.9074 9.48008L80.9074 6.14414C 81.2375 5.98789 81.5434 5.92813 81.78951 5.92813C 82.59341 5.92813 83.2953 6.55195 83.2953 7.43398C 83.2953 8.14219 82.7555 8.69414 82.1133 8.69414C 82.0473 8.69414 81.9633 8.67617 81.86761 8.63398z" stroke="#000000" stroke-width="0.4" fill="none" /><path id="1550" transform="matrix(1 0 0 -1 0 834)" d="M90.0754 6.83984C 89.8953 6.46211 89.8172 6.43789 89.4934 6.43789L89.4934 6.43789L88.3711 6.43789L88.3711 6.43789L89.223 7.33203C 89.77541 7.91992 90.0152 8.273829 90.0152 8.79609C 90.0152 9.42617 89.5352 9.810161 89.007 9.810161C 88.6594 9.810161 88.3773 9.653911 88.1973 9.45586L88.1973 9.45586L87.8551 8.96992L87.8551 8.96992L87.9871 8.85C 88.1434 9.08398 88.3953 9.40781 88.8031 9.40781C 89.24731 9.40781 89.5113 9.11406 89.5113 8.61016C 89.5113 8.09414 89.1332 7.60195 88.7613 7.15781C 88.4613 6.81016 88.1254 6.46797 87.7891 6.13789L87.7891 6.13789L87.7891 6L87.7891 6L90.0332 6C 90.1051 6.26992 90.1652 6.53398 90.2434 6.78594z" stroke="#000000" stroke-width="0.4" fill="none" /><path id="1551" transform="matrix(1 0 0 -1 0 834)" d="M90.9934 8.976171C 91.1434 9.19805 91.3832 9.45 91.7133 9.45C 92.0313 9.45 92.2832 9.257811 92.2832 8.88594C 92.2832 8.44219 91.8754 8.20781 91.323 8.03398L91.323 8.03398L91.3652 7.86016C 91.4613 7.88984 91.6051 7.92617 91.7492 7.92617C 92.091 7.92617 92.5113 7.70391 92.5113 7.15195C 92.5113 6.55781 92.2113 6.23984 91.7852 6.23984C 91.44341 6.23984 91.1973 6.40781 91.041 6.54609C 90.9934 6.58789 90.9453 6.58203 90.8973 6.54609C 90.84341 6.50391 90.7652 6.42617 90.7594 6.34805C 90.74731 6.27617 90.7711 6.21016 90.8551 6.13203C 90.9332 6.06016 91.17931 5.92813 91.4551 5.92813C 91.8871 5.92813 93.02731 6.37188 93.02731 7.34414C 93.02731 7.78203 92.7211 8.153911 92.19341 8.25586L92.19341 8.25586L92.19341 8.26797C 92.3672 8.38789 92.5113 8.49609 92.6012 8.59219C 92.7152 8.70586 92.7871 8.84414 92.7871 9.01797C 92.7871 9.47383 92.4332 9.810161 91.8934 9.810161C 91.5754 9.810161 91.2992 9.66016 91.1313 9.47383L91.1313 9.47383L90.8672 9.09609z" stroke="#000000" stroke-width="0.4" fill="none" /><path id="1552" transform="matrix(1 0 0 -1 0 834)" d="M96.0453 9.73789L93.75311 9.73789C 93.7293 9.48008 93.6992 9.180079 93.6453 8.85L93.6453 8.85L93.8191 8.85C 93.9633 9.24609 93.9992 9.3 94.3953 9.3L94.3953 9.3L95.691 9.3C 95.2172 8.25586 94.5391 7.01406 93.9094 5.99414L93.9094 5.99414L93.9512 5.92813L93.9512 5.92813L94.3953 5.98789C 94.9711 7.22383 95.5293 8.44805 96.09341 9.66602z" stroke="#000000" stroke-width="0.4" fill="none" /><path id="1571" transform="matrix(1 0 0 -1 0 834)" d="M554.472 6.83984C 554.292 6.46211 554.2141 6.43789 553.89 6.43789L553.89 6.43789L552.768 6.43789L552.768 6.43789L553.6201 7.33203C 554.1721 7.91992 554.412 8.273829 554.412 8.79609C 554.412 9.42617 553.932 9.810161 553.404 9.810161C 553.056 9.810161 552.774 9.653911 552.594 9.45586L552.594 9.45586L552.252 8.96992L552.252 8.96992L552.384 8.85C 552.54 9.08398 552.792 9.40781 553.2 9.40781C 553.644 9.40781 553.908 9.11406 553.908 8.61016C 553.908 8.09414 553.53 7.60195 553.158 7.15781C 552.858 6.81016 552.522 6.46797 552.186 6.13789L552.186 6.13789L552.186 6L552.186 6L554.43 6C 554.502 6.26992 554.562 6.53398 554.64 6.78594z" stroke="#000000" stroke-width="0.4" fill="none" /><path id="1572" transform="matrix(1 0 0 -1 0 834)" d="M555.792 9.3L557.19 9.3L557.19 9.3L557.346 9.68984L557.346 9.68984L557.31 9.73789L557.31 9.73789L555.6 9.73789L555.6 9.73789L555.366 7.90781C 555.504 7.96211 555.732 8.028131 555.984 8.028131C 556.638 8.028131 556.962 7.65 556.962 7.121881C 556.962 6.67188 556.71 6.23398 556.2 6.23398C 555.834 6.23398 555.588 6.42617 555.462 6.53984C 555.402 6.58789 555.354 6.58203 555.3 6.53984C 555.234 6.48008 555.18 6.40195 555.174 6.34219C 555.162 6.26992 555.192 6.22188 555.27 6.13789C 555.36 6.05391 555.612 5.92813 555.888 5.92813C 556.206 5.93398 556.608 6.08984 556.932 6.35391C 557.298 6.65391 557.466 6.99609 557.466 7.35586C 557.466 7.84805 557.076 8.369921 556.308 8.369921C 556.146 8.369921 555.864 8.273829 555.636 8.18984z" stroke="#000000" stroke-width="0.4" fill="none" /><path id="1573" transform="matrix(1 0 0 -1 0 834)" d="M559.548 9.989841L559.212 9.989841L559.212 9.989841L557.91 5.73594L557.91 5.73594L558.246 5.73594z" stroke="#000000" stroke-width="0.4" fill="none" /><path id="1574" transform="matrix(1 0 0 -1 0 834)" d="M561.18 9.61211C 561.72 9.61211 561.8701 8.72383 561.8701 7.871881C 561.8701 7.03203 561.726 6.13203 561.186 6.13203C 560.664 6.13203 560.49 7.03789 560.49 7.87813C 560.49 8.712111 560.634 9.61211 561.18 9.61211zM561.186 9.810161C 560.286 9.810161 559.956 8.74219 559.956 7.86602C 559.956 6.91797 560.28 5.92813 561.186 5.92813C 562.086 5.92813 562.404 6.99609 562.404 7.871881C 562.404 8.79609 562.086 9.810161 561.186 9.810161z" stroke="#000000" stroke-width="0.4" fill="none" /><path id="1575" transform="matrix(1 0 0 -1 0 834)" d="M564 9.61211C 564.582 9.61211 564.738 8.86797 564.738 8.33984C 564.738 8.21992 564.732 8.076171 564.7141 7.94414C 564.588 7.84805 564.384 7.77617 564.174 7.77617C 563.67 7.77617 563.3701 8.214061 563.3701 8.74219C 563.3701 9.09609 563.538 9.61211 564 9.61211zM564.078 9.810161C 563.304 9.810161 562.854 9.10781 562.854 8.53203C 562.854 7.90195 563.292 7.43398 563.928 7.43398C 564.042 7.43398 564.156 7.45781 564.288 7.53008L564.288 7.53008L564.69 7.74609C 564.492 6.83398 563.838 6.23398 562.98 6.08984L562.98 6.08984L563.01 5.91016C 563.16 5.91016 563.526 5.96992 563.85 6.10195C 564.66 6.42617 565.2661 7.20586 565.2661 8.310161C 565.2661 9.12617 564.828 9.810161 564.078 9.810161z" stroke="#000000" stroke-width="0.4" fill="none" /><path id="1576" transform="matrix(1 0 0 -1 0 834)" d="M567.294 9.989841L566.958 9.989841L566.958 9.989841L565.656 5.73594L565.656 5.73594L565.992 5.73594z" stroke="#000000" stroke-width="0.4" fill="none" /><path id="1577" transform="matrix(1 0 0 -1 0 834)" d="M569.9641 6.83984C 569.784 6.46211 569.706 6.43789 569.382 6.43789L569.382 6.43789L568.26 6.43789L568.26 6.43789L569.112 7.33203C 569.664 7.91992 569.904 8.273829 569.904 8.79609C 569.904 9.42617 569.424 9.810161 568.896 9.810161C 568.548 9.810161 568.2661 9.653911 568.086 9.45586L568.086 9.45586L567.744 8.96992L567.744 8.96992L567.876 8.85C 568.032 9.08398 568.284 9.40781 568.692 9.40781C 569.136 9.40781 569.4 9.11406 569.4 8.61016C 569.4 8.09414 569.022 7.60195 568.65 7.15781C 568.35 6.81016 568.014 6.46797 567.678 6.13789L567.678 6.13789L567.678 6L567.678 6L569.9221 6C 569.994 6.26992 570.054 6.53398 570.132 6.78594z" stroke="#000000" stroke-width="0.4" fill="none" /><path id="1578" transform="matrix(1 0 0 -1 0 834)" d="M571.806 9.61211C 572.346 9.61211 572.496 8.72383 572.496 7.871881C 572.496 7.03203 572.352 6.13203 571.812 6.13203C 571.29 6.13203 571.116 7.03789 571.116 7.87813C 571.116 8.712111 571.26 9.61211 571.806 9.61211zM571.812 9.810161C 570.912 9.810161 570.582 8.74219 570.582 7.86602C 570.582 6.91797 570.906 5.92813 571.812 5.92813C 572.712 5.92813 573.03 6.99609 573.03 7.871881C 573.03 8.79609 572.712 9.810161 571.812 9.810161z" stroke="#000000" stroke-width="0.4" fill="none" /><path id="1579" transform="matrix(1 0 0 -1 0 834)" d="M575.556 6L575.556 6.16211C 575.01 6.20391 574.9741 6.25195 574.9741 6.68398L574.9741 6.68398L574.9741 9.810161C 574.644 9.67813 574.29 9.56406 573.906 9.49805L573.906 9.49805L573.906 9.36016L573.906 9.36016L574.194 9.34805C 574.458 9.33594 574.482 9.305861 574.482 8.99414L574.482 8.99414L574.482 6.68398C 574.482 6.25195 574.452 6.20391 573.906 6.16211L573.906 6.16211L573.906 6z" stroke="#000000" stroke-width="0.4" fill="none" /><path id="1580" transform="matrix(1 0 0 -1 0 834)" d="M578.814 9.73789L576.522 9.73789C 576.498 9.48008 576.468 9.180079 576.414 8.85L576.414 8.85L576.588 8.85C 576.732 9.24609 576.768 9.3 577.164 9.3L577.164 9.3L578.46 9.3C 577.986 8.25586 577.308 7.01406 576.678 5.99414L576.678 5.99414L576.72 5.92813L576.72 5.92813L577.164 5.98789C 577.74 7.22383 578.298 8.44805 578.862 9.66602z" stroke="#000000" stroke-width="0.4" fill="none" /><path id="1581" transform="matrix(1 0 0 -1 0 834)" d="M584.531 9.61211C 585.071 9.61211 585.221 8.72383 585.221 7.871881C 585.221 7.03203 585.077 6.13203 584.537 6.13203C 584.015 6.13203 583.841 7.03789 583.841 7.87813C 583.841 8.712111 583.985 9.61211 584.531 9.61211zM584.537 9.810161C 583.637 9.810161 583.307 8.74219 583.307 7.86602C 583.307 6.91797 583.631 5.92813 584.537 5.92813C 585.437 5.92813 585.755 6.99609 585.755 7.871881C 585.755 8.79609 585.437 9.810161 584.537 9.810161z" stroke="#000000" stroke-width="0.4" fill="none" /><path id="1582" transform="matrix(1 0 0 -1 0 834)" d="M588.449 6.83984C 588.269 6.46211 588.191 6.43789 587.867 6.43789L587.867 6.43789L586.7451 6.43789L586.7451 6.43789L587.597 7.33203C 588.149 7.91992 588.389 8.273829 588.389 8.79609C 588.389 9.42617 587.909 9.810161 587.381 9.810161C 587.033 9.810161 586.751 9.653911 586.571 9.45586L586.571 9.45586L586.229 8.96992L586.229 8.96992L586.361 8.85C 586.517 9.08398 586.769 9.40781 587.177 9.40781C 587.621 9.40781 587.885 9.11406 587.885 8.61016C 587.885 8.09414 587.507 7.60195 587.135 7.15781C 586.835 6.81016 586.499 6.46797 586.163 6.13789L586.163 6.13789L586.163 6L586.163 6L588.407 6C 588.479 6.26992 588.539 6.53398 588.617 6.78594z" stroke="#000000" stroke-width="0.4" fill="none" /><path id="1583" transform="matrix(1 0 0 -1 0 834)" d="M589.5471 5.92813C 589.739 5.92813 589.883 6.06602 589.883 6.27617C 589.883 6.46797 589.739 6.61797 589.5471 6.61797C 589.355 6.61797 589.211 6.46797 589.211 6.27617C 589.211 6.06602 589.355 5.92813 589.5471 5.92813zM589.541 8.466021C 589.3491 8.466021 589.211 8.328131 589.211 8.13008C 589.211 7.92617 589.3491 7.78203 589.541 7.78203C 589.733 7.78203 589.877 7.92617 589.877 8.13008C 589.877 8.328131 589.733 8.466021 589.541 8.466021z" stroke="#000000" stroke-width="0.4" fill="none" /><path id="1584" transform="matrix(1 0 0 -1 0 834)" d="M590.735 8.976171C 590.885 9.19805 591.125 9.45 591.455 9.45C 591.773 9.45 592.025 9.257811 592.025 8.88594C 592.025 8.44219 591.617 8.20781 591.065 8.03398L591.065 8.03398L591.107 7.86016C 591.203 7.88984 591.347 7.92617 591.491 7.92617C 591.833 7.92617 592.253 7.70391 592.253 7.15195C 592.253 6.55781 591.953 6.23984 591.527 6.23984C 591.185 6.23984 590.939 6.40781 590.783 6.54609C 590.735 6.58789 590.687 6.58203 590.639 6.54609C 590.585 6.50391 590.507 6.42617 590.501 6.34805C 590.489 6.27617 590.513 6.21016 590.597 6.13203C 590.675 6.06016 590.921 5.92813 591.197 5.92813C 591.629 5.92813 592.769 6.37188 592.769 7.34414C 592.769 7.78203 592.463 8.153911 591.935 8.25586L591.935 8.25586L591.935 8.26797C 592.109 8.38789 592.253 8.49609 592.343 8.59219C 592.457 8.70586 592.529 8.84414 592.529 9.01797C 592.529 9.47383 592.175 9.810161 591.635 9.810161C 591.317 9.810161 591.041 9.66016 590.873 9.47383L590.873 9.47383L590.609 9.09609z" stroke="#000000" stroke-width="0.4" fill="none" /><path id="1585" transform="matrix(1 0 0 -1 0 834)" d="M595.788 9.73789L593.496 9.73789C 593.472 9.48008 593.442 9.180079 593.388 8.85L593.388 8.85L593.562 8.85C 593.706 9.24609 593.742 9.3 594.138 9.3L594.138 9.3L595.434 9.3C 594.96 8.25586 594.282 7.01406 593.652 5.99414L593.652 5.99414L593.694 5.92813L593.694 5.92813L594.138 5.98789C 594.7141 7.22383 595.272 8.44805 595.836 9.66602z" stroke="#000000" stroke-width="0.4" fill="none" /><path id="1586" transform="matrix(1 0 0 -1 0 834)" d="M596.675 5.92813C 596.867 5.92813 597.011 6.06602 597.011 6.27617C 597.011 6.46797 596.867 6.61797 596.675 6.61797C 596.483 6.61797 596.3391 6.46797 596.3391 6.27617C 596.3391 6.06602 596.483 5.92813 596.675 5.92813zM596.669 8.466021C 596.477 8.466021 596.3391 8.328131 596.3391 8.13008C 596.3391 7.92617 596.477 7.78203 596.669 7.78203C 596.861 7.78203 597.005 7.92617 597.005 8.13008C 597.005 8.328131 596.861 8.466021 596.669 8.466021z" stroke="#000000" stroke-width="0.4" fill="none" /><path id="1587" transform="matrix(1 0 0 -1 0 834)" d="M597.863 8.976171C 598.013 9.19805 598.253 9.45 598.583 9.45C 598.901 9.45 599.153 9.257811 599.153 8.88594C 599.153 8.44219 598.7451 8.20781 598.1931 8.03398L598.1931 8.03398L598.235 7.86016C 598.331 7.88984 598.475 7.92617 598.619 7.92617C 598.961 7.92617 599.381 7.70391 599.381 7.15195C 599.381 6.55781 599.081 6.23984 598.655 6.23984C 598.313 6.23984 598.067 6.40781 597.911 6.54609C 597.863 6.58789 597.815 6.58203 597.767 6.54609C 597.713 6.50391 597.635 6.42617 597.629 6.34805C 597.617 6.27617 597.6411 6.21016 597.725 6.13203C 597.803 6.06016 598.049 5.92813 598.325 5.92813C 598.757 5.92813 599.897 6.37188 599.897 7.34414C 599.897 7.78203 599.591 8.153911 599.063 8.25586L599.063 8.25586L599.063 8.26797C 599.237 8.38789 599.381 8.49609 599.471 8.59219C 599.585 8.70586 599.657 8.84414 599.657 9.01797C 599.657 9.47383 599.303 9.810161 598.763 9.810161C 598.445 9.810161 598.169 9.66016 598.001 9.47383L598.001 9.47383L597.737 9.09609z" stroke="#000000" stroke-width="0.4" fill="none" /><path id="1588" transform="matrix(1 0 0 -1 0 834)" d="M602.705 6.83984C 602.525 6.46211 602.447 6.43789 602.123 6.43789L602.123 6.43789L601.001 6.43789L601.001 6.43789L601.853 7.33203C 602.405 7.91992 602.645 8.273829 602.645 8.79609C 602.645 9.42617 602.165 9.810161 601.637 9.810161C 601.289 9.810161 601.007 9.653911 600.827 9.45586L600.827 9.45586L600.485 8.96992L600.485 8.96992L600.617 8.85C 600.773 9.08398 601.025 9.40781 601.433 9.40781C 601.877 9.40781 602.1411 9.11406 602.1411 8.61016C 602.1411 8.09414 601.763 7.60195 601.3911 7.15781C 601.091 6.81016 600.755 6.46797 600.419 6.13789L600.419 6.13789L600.419 6L600.419 6L602.663 6C 602.735 6.26992 602.795 6.53398 602.873 6.78594z" stroke="#000000" stroke-width="0.4" fill="none" /><path id="1589" transform="matrix(1 0 0 -1 0 834)" d="M605.489 8.08203C 605.651 8.20195 605.897 8.33398 606.0891 8.33398C 606.527 8.33398 606.893 7.97383 606.893 7.33203C 606.893 6.65391 606.557 6.22188 606.053 6.22188C 605.8491 6.22188 605.621 6.31797 605.489 6.45586zM605.489 8.28008L605.489 8.75391C 605.207 8.63984 604.871 8.53789 604.619 8.49609L604.619 8.49609L604.619 8.351951C 604.991 8.30391 605.015 8.29219 605.015 7.90195L605.015 7.90195L605.015 5.18984C 605.015 4.79414 604.961 4.75781 604.577 4.72188L604.577 4.72188L604.577 4.56016L604.577 4.56016L605.999 4.56016L605.999 4.56016L605.999 4.72188C 605.531 4.76406 605.489 4.79414 605.489 5.25L605.489 5.25L605.489 6.03594C 605.567 5.99414 605.729 5.93398 605.903 5.92813C 606.683 6.07188 607.397 6.65391 607.397 7.56016C 607.397 8.153911 607.001 8.69414 606.335 8.69414C 606.263 8.69414 606.149 8.664061 606.041 8.60391z" stroke="#000000" stroke-width="0.4" fill="none" /><path id="1590" transform="matrix(1 0 0 -1 0 834)" d="M608.303 5.92813C 608.4951 5.92813 608.639 6.06602 608.639 6.27617C 608.639 6.46797 608.4951 6.61797 608.303 6.61797C 608.111 6.61797 607.967 6.46797 607.967 6.27617C 607.967 6.06602 608.111 5.92813 608.303 5.92813z" stroke="#000000" stroke-width="0.4" fill="none" /><path id="1591" transform="matrix(1 0 0 -1 0 834)" d="M615.125 6L615.125 6.15586C 614.783 6.19219 614.735 6.21602 614.735 6.61797L614.735 6.61797L614.735 7.77617C 614.735 8.36406 614.441 8.69414 613.973 8.69414C 613.805 8.69414 613.649 8.621881 613.523 8.53789C 613.373 8.44805 613.199 8.33398 613.025 8.20195C 612.905 8.51406 612.647 8.69414 612.359 8.69414C 612.167 8.69414 612.023 8.628131 611.867 8.53203C 611.687 8.417971 611.555 8.310161 611.429 8.226171L611.429 8.226171L611.429 8.712111C 611.165 8.59219 610.859 8.51406 610.595 8.466021L610.595 8.466021L610.595 8.328131C 610.9431 8.273829 610.961 8.24414 610.961 7.86016L610.961 7.86016L610.961 6.61797C 610.961 6.22813 610.907 6.19219 610.511 6.15586L610.511 6.15586L610.511 6L610.511 6L611.777 6L611.777 6L611.777 6.15586C 611.483 6.19219 611.435 6.22813 611.435 6.61797L611.435 6.61797L611.435 8.028131C 611.615 8.17813 611.8491 8.33984 612.0891 8.33984C 612.455 8.33984 612.611 8.09414 612.611 7.65L612.611 7.65L612.611 6.61797C 612.611 6.22188 612.557 6.19219 612.185 6.15586L612.185 6.15586L612.185 6L612.185 6L613.469 6L613.469 6L613.469 6.15586C 613.139 6.19219 613.085 6.22813 613.085 6.60586L613.085 6.60586L613.085 7.77617C 613.085 7.88984 613.079 7.95586 613.067 8.028131C 613.295 8.21992 613.523 8.33984 613.739 8.33984C 614.117 8.33984 614.267 8.069921 614.267 7.64414L614.267 7.64414L614.267 6.64219C 614.267 6.21602 614.201 6.19219 613.847 6.15586L613.847 6.15586L613.847 6z" stroke="#000000" stroke-width="0.4" fill="none" /><path id="1592" transform="matrix(1 0 0 -1 0 834)" d="M615.947 5.92813C 616.139 5.92813 616.283 6.06602 616.283 6.27617C 616.283 6.46797 616.139 6.61797 615.947 6.61797C 615.755 6.61797 615.611 6.46797 615.611 6.27617C 615.611 6.06602 615.755 5.92813 615.947 5.92813z" stroke="#000000" stroke-width="0.4" fill="none" /></g></g></svg>