<svg xmlns="http://www.w3.org/2000/svg" xmlns:xlink="http://www.w3.org/1999/xlink" id="body_1" preserveAspectRatio="xMinYMin meet" viewBox="0 0 872 1112"><defs><clipPath id="1"><path id="" clip-rule="evenodd" transform="matrix(1 0 0 1 0 0)" d="M0 834L0 0L0 0L654 0L654 0L654 834L654 834L0 834z" /></clipPath><clipPath id="2"><path id="" clip-rule="evenodd" transform="matrix(1 0 0 1 0 0)" d="M21 813L633 813L633 813L633 21L633 21L21 21z" /></clipPath><clipPath id="3"><path id="" clip-rule="evenodd" transform="matrix(1 0 0 1 0 0)" d="M334.001 484.872L444.614 484.872L444.614 484.872L444.614 351.52L444.614 351.52L334.001 351.52z" /></clipPath><clipPath id="4"><path id="" clip-rule="evenodd" transform="matrix(1 0 0 1 0 0)" d="M334.001 484.872L444.614 484.872L444.614 484.872L444.614 351.52L444.614 351.52L334.001 351.52z" /></clipPath><clipPath id="5"><path id="" clip-rule="evenodd" transform="matrix(1 0 0 1 0 0)" d="M334.001 485.882L487.772 485.882L487.772 485.882L487.772 351.52L487.772 351.52L334.001 351.52z" /></clipPath><clipPath id="6"><path id="" clip-rule="evenodd" transform="matrix(1 0 0 1 0 0)" d="M374.224 384.292L377.6291 384.292L377.6291 384.292L377.6291 372.6732L377.6291 372.6732L374.224 372.6732z" /></clipPath><clipPath id="7"><path id="" clip-rule="evenodd" transform="matrix(1 0 0 1 0 0)" d="M374.224 384.292L377.629 384.292L377.629 384.292L377.629 372.673L377.629 372.673L374.224 372.673z" /></clipPath><clipPath id="8"><path id="" clip-rule="evenodd" transform="matrix(1 0 0 1 0 0)" d="M374.224 384.292L377.6291 384.292L377.6291 384.292L377.6291 372.6732L377.6291 372.6732L374.224 372.6732z" /></clipPath><clipPath id="9"><path id="" clip-rule="evenodd" transform="matrix(1 0 0 1 0 0)" d="M334.001 485.882L487.772 485.882L487.772 485.882L487.772 351.52L487.772 351.52L334.001 351.52z" /></clipPath><clipPath id="10"><path id="" clip-rule="evenodd" transform="matrix(1 0 0 1 0 0)" d="M443.038 415.833C 424.391 418.241 410.052 432.755 410.052 450.299L410.052 450.299L410.052 450.299C 410.052 469.528 427.273 485.116 448.517 485.116L448.517 485.116L448.517 485.116C 469.76 485.116 486.981 469.528 486.981 450.299L486.981 450.299L486.981 450.299C 486.981 432.755 472.643 418.241 453.995 415.833L453.995 415.833L453.995 415.833z" /></clipPath><clipPath id="11"><path id="" clip-rule="evenodd" transform="matrix(1 0 0 1 0 0)" d="M443.038 415.833C 424.391 418.241 410.052 432.755 410.052 450.299L410.052 450.299L410.052 450.299C 410.052 469.528 427.273 485.116 448.517 485.116L448.517 485.116L448.517 485.116C 469.76 485.116 486.981 469.528 486.981 450.299L486.981 450.299L486.981 450.299C 486.981 432.755 472.643 418.241 453.995 415.833L453.995 415.833L453.995 415.833z" /></clipPath><clipPath id="12"><path id="" clip-rule="evenodd" transform="matrix(1 0 0 1 0 0)" d="M334.001 485.882L487.772 485.882L487.772 485.882L487.772 351.52L487.772 351.52L334.001 351.52z" /></clipPath><clipPath id="13"><path id="" clip-rule="evenodd" transform="matrix(1 0 0 1 0 0)" d="M384.962 194.241L399.48 194.241L399.48 194.241L399.48 177.675L399.48 177.675L384.962 177.675z" /></clipPath><clipPath id="14"><path id="" clip-rule="evenodd" transform="matrix(1 0 0 1 0 0)" d="M384.962 194.241L399.48 194.241L399.48 194.241L399.48 177.675L399.48 177.675L384.962 177.675z" /></clipPath><clipPath id="15"><path id="" clip-rule="evenodd" transform="matrix(1 0 0 1 0 0)" d="M384.962 194.241L399.48 194.241L399.48 194.241L399.48 177.675L399.48 177.675L384.962 177.675z" /></clipPath><clipPath id="16"><path id="" clip-rule="evenodd" transform="matrix(1 0 0 1 0 0)" d="M361.433 267.407L452.676 267.407L452.676 267.407L452.676 132.6819L452.676 132.6819L361.433 132.6819z" /></clipPath><clipPath id="17"><path id="" clip-rule="evenodd" transform="matrix(1 0 0 1 0 0)" d="M361.433 267.407L452.676 267.407L452.676 267.407L452.676 132.6819L452.676 132.6819L361.433 132.6819z" /></clipPath><clipPath id="18"><path id="" clip-rule="evenodd" transform="matrix(1 0 0 1 0 0)" d="M361.433 268.224L495.392 268.224L495.392 268.224L495.392 132.681L495.392 132.681L361.433 132.681z" /></clipPath><clipPath id="19"><path id="" clip-rule="evenodd" transform="matrix(1 0 0 1 0 0)" d="M432.482 216.57C 431.628 217.55 430.835 218.585 430.109 219.668L430.109 219.668L430.109 219.668L430.109 219.668L430.109 253.89C 435.632 262.1299 445.029 267.555 455.694 267.555L455.694 267.555L455.694 267.555C 470.475 267.555 482.821 257.136 485.791 243.242L485.791 243.242L485.791 243.242L485.791 243.242L485.791 230.316C 484.682 225.1299 482.268 220.427 478.907 216.57L478.907 216.57L478.907 216.57z" /></clipPath><clipPath id="20"><path id="" clip-rule="evenodd" transform="matrix(1 0 0 1 0 0)" d="M432.482 216.57C 431.628 217.55 430.835 218.585 430.109 219.668L430.109 219.668L430.109 219.668L430.109 219.668L430.109 253.89C 435.632 262.1299 445.029 267.555 455.694 267.555L455.694 267.555L455.694 267.555C 470.475 267.555 482.821 257.136 485.791 243.242L485.791 243.242L485.791 243.242L485.791 243.242L485.791 230.316C 484.682 225.1299 482.268 220.427 478.907 216.57L478.907 216.57L478.907 216.57z" /></clipPath><clipPath id="21"><path id="" clip-rule="evenodd" transform="matrix(1 0 0 1 0 0)" d="M361.433 268.224L495.392 268.224L495.392 268.224L495.392 132.681L495.392 132.681L361.433 132.681z" /></clipPath><clipPath id="22"><path id="" clip-rule="evenodd" transform="matrix(1 0 0 1 0 0)" d="M402.4 199.6L450.0461 199.6L450.0461 199.6L450.0461 178.3719L450.0461 178.3719L402.4 178.3719z" /></clipPath><clipPath id="23"><path id="" clip-rule="evenodd" transform="matrix(1 0 0 1 0 0)" d="M402.4 199.6L450.046 199.6L450.046 199.6L450.046 178.372L450.046 178.372L402.4 178.372z" /></clipPath><clipPath id="24"><path id="" clip-rule="evenodd" transform="matrix(1 0 0 1 0 0)" d="M402.4 199.6L450.0461 199.6L450.0461 199.6L450.0461 178.3719L450.0461 178.3719L402.4 178.3719z" /></clipPath><clipPath id="25"><path id="" clip-rule="evenodd" transform="matrix(1 0 0 1 0 0)" d="M361.433 268.224L495.392 268.224L495.392 268.224L495.392 132.681L495.392 132.681L361.433 132.681z" /></clipPath><clipPath id="26"><path id="" clip-rule="evenodd" transform="matrix(1 0 0 1 0 0)" d="M321.062 705.959L388.6261 705.959L388.6261 705.959L388.6261 566.6689L388.6261 566.6689L321.062 566.6689z" /></clipPath><clipPath id="27"><path id="" clip-rule="evenodd" transform="matrix(1 0 0 1 0 0)" d="M321.062 705.959L388.6261 705.959L388.6261 705.959L388.6261 566.6689L388.6261 566.6689L321.062 566.6689z" /></clipPath><clipPath id="28"><path id="" clip-rule="evenodd" transform="matrix(1 0 0 1 0 0)" d="M423.132 706.622L504.8078 706.622L504.8078 706.622L504.8078 575.932L504.8078 575.932L423.132 575.932z" /></clipPath><clipPath id="29"><path id="" clip-rule="evenodd" transform="matrix(1 0 0 1 0 0)" d="M423.132 706.622L504.8078 706.622L504.8078 706.622L504.8078 575.932L504.8078 575.932L423.132 575.932z" /></clipPath><clipPath id="30"><path id="" clip-rule="evenodd" transform="matrix(1 0 0 1 0 0)" d="M321.061 707.551L523.0161 707.551L523.0161 707.551L523.0161 566.6689L523.0161 566.6689L321.061 566.6689z" /></clipPath><clipPath id="31"><path id="" clip-rule="evenodd" transform="matrix(1 0 0 1 0 0)" d="M367.391 657.332L367.391 688.574C 371.87 698.528 380.497 705.268 390.403 705.268L390.403 705.268L390.403 705.268C 404.917 705.268 416.683 690.799 416.683 672.953L416.683 672.953L416.683 672.953C 416.683 655.107 404.917 640.639 390.403 640.639L390.403 640.639L390.403 640.639C 380.497 640.639 371.87 647.379 367.391 657.332" /></clipPath><clipPath id="32"><path id="" clip-rule="evenodd" transform="matrix(1 0 0 1 0 0)" d="M367.391 657.332L367.391 688.574C 371.87 698.528 380.497 705.268 390.403 705.268L390.403 705.268L390.403 705.268C 404.917 705.268 416.683 690.799 416.683 672.953L416.683 672.953L416.683 672.953C 416.683 655.107 404.917 640.639 390.403 640.639L390.403 640.639L390.403 640.639C 380.497 640.639 371.87 647.379 367.391 657.332" /></clipPath><clipPath id="33"><path id="" clip-rule="evenodd" transform="matrix(1 0 0 1 0 0)" d="M321.061 707.551L523.0161 707.551L523.0161 707.551L523.0161 566.6689L523.0161 566.6689L321.061 566.6689z" /></clipPath><clipPath id="34"><path id="" clip-rule="evenodd" transform="matrix(1 0 0 1 0 0)" d="M446.133 615.008L447.7807 615.008L447.7807 615.008L447.7807 613.1471L447.7807 613.1471L446.133 613.1471z" /></clipPath><clipPath id="35"><path id="" clip-rule="evenodd" transform="matrix(1 0 0 1 0 0)" d="M446.133 615.008L447.781 615.008L447.781 615.008L447.781 613.147L447.781 613.147L446.133 613.147z" /></clipPath><clipPath id="36"><path id="" clip-rule="evenodd" transform="matrix(1 0 0 1 0 0)" d="M446.133 615.008L447.7818 615.008L447.7818 615.008L447.7818 613.1471L447.7818 613.1471L446.133 613.1471z" /></clipPath><clipPath id="37"><path id="" clip-rule="evenodd" transform="matrix(1 0 0 1 0 0)" d="M321.061 707.551L523.0161 707.551L523.0161 707.551L523.0161 566.6689L523.0161 566.6689L321.061 566.6689z" /></clipPath><clipPath id="38"><path id="" clip-rule="evenodd" transform="matrix(1 0 0 1 0 0)" d="M466.29 675.153C 466.29 692.625 478.838 706.789 494.316 706.789L494.316 706.789L494.316 706.789C 509.794 706.789 522.341 692.625 522.341 675.153L522.341 675.153L522.341 675.153C 522.341 657.68 509.794 643.515 494.316 643.515L494.316 643.515L494.316 643.515C 478.838 643.515 466.29 657.68 466.29 675.153" /></clipPath><clipPath id="39"><path id="" clip-rule="evenodd" transform="matrix(1 0 0 1 0 0)" d="M466.29 675.153C 466.29 692.625 478.838 706.789 494.316 706.789L494.316 706.789L494.316 706.789C 509.794 706.789 522.341 692.625 522.341 675.153L522.341 675.153L522.341 675.153C 522.341 657.68 509.794 643.515 494.316 643.515L494.316 643.515L494.316 643.515C 478.838 643.515 466.29 657.68 466.29 675.153" /></clipPath><clipPath id="40"><path id="" clip-rule="evenodd" transform="matrix(1 0 0 1 0 0)" d="M321.061 707.551L523.0161 707.551L523.0161 707.551L523.0161 566.6689L523.0161 566.6689L321.061 566.6689z" /></clipPath><clipPath id="41"><path id="" clip-rule="evenodd" transform="matrix(1 0 0 1 0 0)" d="M354.413 602.629L358.0841 602.629L358.0841 602.629L358.0841 587.7282L358.0841 587.7282L354.413 587.7282z" /></clipPath><clipPath id="42"><path id="" clip-rule="evenodd" transform="matrix(1 0 0 1 0 0)" d="M354.413 602.629L358.084 602.629L358.084 602.629L358.084 587.728L358.084 587.728L354.413 587.728z" /></clipPath><clipPath id="43"><path id="" clip-rule="evenodd" transform="matrix(1 0 0 1 0 0)" d="M354.413 602.629L358.0853 602.629L358.0853 602.629L358.0853 587.7282L358.0853 587.7282L354.413 587.7282z" /></clipPath><clipPath id="44"><path id="" clip-rule="evenodd" transform="matrix(1 0 0 1 0 0)" d="M354.413 602.629L358.0841 602.629L358.0841 602.629L358.0841 587.7282L358.0841 587.7282L354.413 587.7282z" /></clipPath><clipPath id="45"><path id="" clip-rule="evenodd" transform="matrix(1 0 0 1 0 0)" d="M321.061 707.551L523.0161 707.551L523.0161 707.551L523.0161 566.6689L523.0161 566.6689L321.061 566.6689z" /></clipPath><clipPath id="46"><path id="" clip-rule="evenodd" transform="matrix(1 0 0 1 0 0)" d="M271.157 168.625L299.5031 168.625L299.5031 168.625L299.5031 111.7078L299.5031 111.7078L271.157 111.7078z" /></clipPath><clipPath id="47"><path id="" clip-rule="evenodd" transform="matrix(1 0 0 1 0 0)" d="M271.157 168.625L299.5031 168.625L299.5031 168.625L299.5031 111.7078L299.5031 111.7078L271.157 111.7078z" /></clipPath><clipPath id="48"><path id="" clip-rule="evenodd" transform="matrix(1 0 0 1 0 0)" d="M258.826 374.967L300.8217 374.967L300.8217 374.967L300.8217 338.7643L300.8217 338.7643L258.826 338.7643z" /></clipPath><clipPath id="49"><path id="" clip-rule="evenodd" transform="matrix(1 0 0 1 0 0)" d="M258.826 374.967L300.8217 374.967L300.8217 374.967L300.8217 338.7643L300.8217 338.7643L258.826 338.7643z" /></clipPath><clipPath id="50"><path id="" clip-rule="evenodd" transform="matrix(1 0 0 1 0 0)" d="M258.826 597.437L301.203 597.437L301.203 597.437L301.203 562.7718L301.203 562.7718L258.826 562.7718z" /></clipPath><clipPath id="51"><path id="" clip-rule="evenodd" transform="matrix(1 0 0 1 0 0)" d="M258.826 597.437L301.203 597.437L301.203 597.437L301.203 562.7718L301.203 562.7718L258.826 562.7718z" /></clipPath><clipPath id="52"><path id="" clip-rule="evenodd" transform="matrix(1 0 0 1 0 0)" d="M351.052 175.205L376.6489 175.205L376.6489 175.205L376.6489 139.3467L376.6489 139.3467L351.052 139.3467z" /></clipPath><clipPath id="53"><path id="" clip-rule="evenodd" transform="matrix(1 0 0 1 0 0)" d="M351.052 175.205L376.6489 175.205L376.6489 175.205L376.6489 139.3467L376.6489 139.3467L351.052 139.3467z" /></clipPath><clipPath id="54"><path id="" clip-rule="evenodd" transform="matrix(1 0 0 1 0 0)" d="M456.359 175.205L481.9559 175.205L481.9559 175.205L481.9559 139.3467L481.9559 139.3467L456.359 139.3467z" /></clipPath><clipPath id="55"><path id="" clip-rule="evenodd" transform="matrix(1 0 0 1 0 0)" d="M456.359 175.205L481.9559 175.205L481.9559 175.205L481.9559 139.3467L481.9559 139.3467L456.359 139.3467z" /></clipPath><clipPath id="56"><path id="" clip-rule="evenodd" transform="matrix(1 0 0 1 0 0)" d="M293.693 452.858L319.2899 452.858L319.2899 452.858L319.2899 417.0006L319.2899 417.0006L293.693 417.0006z" /></clipPath><clipPath id="57"><path id="" clip-rule="evenodd" transform="matrix(1 0 0 1 0 0)" d="M293.693 452.858L319.2899 452.858L319.2899 452.858L319.2899 417.0006L319.2899 417.0006L293.693 417.0006z" /></clipPath><clipPath id="58"><path id="" clip-rule="evenodd" transform="matrix(1 0 0 1 0 0)" d="M280.015 644.42L314.0021 644.42L314.0021 644.42L314.0021 608.5622L314.0021 608.5622L280.015 608.5622z" /></clipPath><clipPath id="59"><path id="" clip-rule="evenodd" transform="matrix(1 0 0 1 0 0)" d="M280.015 644.42L314.0021 644.42L314.0021 644.42L314.0021 608.5622L314.0021 608.5622L280.015 608.5622z" /></clipPath><clipPath id="60"><path id="" clip-rule="evenodd" transform="matrix(1 0 0 1 0 0)" d="M400.134 636.969L425.7309 636.969L425.7309 636.969L425.7309 601.1108L425.7309 601.1108L400.134 601.1108z" /></clipPath><clipPath id="61"><path id="" clip-rule="evenodd" transform="matrix(1 0 0 1 0 0)" d="M400.134 636.969L425.7309 636.969L425.7309 636.969L425.7309 601.1108L425.7309 601.1108L400.134 601.1108z" /></clipPath></defs><g transform="matrix(1.333333 0 0 1.333333 0 0)"><g clip-path="url(#1)"><g clip-path="url(#2)"><path id="1" transform="matrix(1 0 0 -1 0 834)" d="M91.866 67.4211L562.134 67.4211L562.134 74.92501L91.866 74.92501z" stroke="none" fill="#686868" fill-rule="nonzero" /><path id="2" transform="matrix(1 0 0 -1 0 834)" d="M562.134 526.984L91.866 526.984" stroke="#686868" stroke-width="1" fill="none" /><path id="3" transform="matrix(1 0 0 -1 0 834)" d="M562.134 307.016L91.866 307.016" stroke="#686868" stroke-width="1" fill="none" /></g><g clip-path="url(#3)"></g><g clip-path="url(#4)"><g transform="matrix(1.005564 0 0 1.002647 334.001 351.519)"><g transform="matrix(1 0 0 1 0 0)"><image x="0" y="0" xlink:href="img_01.png" width="110" height="133" /></g></g></g><g clip-path="url(#5)"><path id="8" transform="matrix(1 0 0 -1 0 834)" d="M375.9409 449.8832C 374.3957 446.553 371.2586 442.5153 365.663 437.6627" stroke="#000000" stroke-width="0.8781927" fill="none" /></g><path id="9" transform="matrix(1 0 0 -1 0 834)" d="M365.514 439.64L366.064 438.014L367.655 437.269L363.684 435.996z" stroke="none" fill="#000000" fill-rule="nonzero" /><g clip-path="url(#6)"><g><g clip-path="url(#7)"><g clip-path="url(#8)"><path id="10" transform="matrix(1 0 0 -1 0 834)" d="M374.538 461.0282C 376.7425 458.8769 378.4634 455.3204 375.9419 449.8822" stroke="#FFFFFF" stroke-width="0.8781927" fill="none" stroke-opacity="0.8" /></g></g></g></g><g clip-path="url(#9)"><path id="11" transform="matrix(1 0 0 -1 0 834)" d="M370.1544 463.7699C 370.1544 463.7699 372.5427 462.9737 374.538 461.0282" stroke="#000000" stroke-width="0.8781927" fill="none" /><path id="12" transform="matrix(1 0 0 -1 0 834)" d="M410.054 383.701C 410.054 364.472 427.275 348.884 448.518 348.884C 469.762 348.884 486.983 364.472 486.983 383.701C 486.983 402.93 469.762 418.518 448.518 418.518C 427.275 418.518 410.054 402.93 410.054 383.701" stroke="none" fill="#FFFFFF" fill-rule="nonzero" /></g><g clip-path="url(#10)"></g><g clip-path="url(#11)"><g transform="matrix(0.9986681 0 0 1.005256 407.613 415.8329)"><g transform="matrix(1 0 0 1 0 0)"><image x="0" y="0" xlink:href="img_02.png" width="97" height="98" /></g></g></g><g clip-path="url(#12)"><path id="14" transform="matrix(1 0 0 -1 0 834)" d="M410.0548 383.7024C 410.0548 364.472 427.2774 348.8848 448.5208 348.8848C 469.7644 348.8848 486.9849 364.472 486.9849 383.7024C 486.9849 402.9307 469.7644 418.5189 448.5208 418.5189C 427.2774 418.5189 410.0548 402.9307 410.0548 383.7024z" stroke="#000000" stroke-width="0.8781927" fill="none" /></g><g clip-path="url(#13)"><g><g clip-path="url(#14)"><g clip-path="url(#15)"><path id="47" transform="matrix(1 0 0 -1 0 834)" d="M389.534 656.325L387.672 646.593L384.961 647.084L392.22 639.759L399.479 647.084L395.996 646.454L392.22 656.325" stroke="none" fill="#FFFFFF" fill-rule="nonzero" fill-opacity="0.8" /></g></g></g></g><g clip-path="url(#16)"></g><g clip-path="url(#17)"><g transform="matrix(1.002677 0 0 1.005418 361.433 132.681)"><g transform="matrix(1 0 0 1 0 0)"><image x="0" y="0" xlink:href="img_03.png" width="91" height="134" /></g></g></g><g clip-path="url(#18)"><path id="49" transform="matrix(1 0 0 -1 0 834)" d="M424.918 597.221C 424.918 580.2241 438.697 566.445 455.694 566.445C 472.692 566.445 486.471 580.2241 486.471 597.221C 486.471 614.218 472.692 627.997 455.694 627.997C 438.697 627.997 424.918 614.218 424.918 597.221" stroke="none" fill="#FFFFFF" fill-rule="nonzero" /></g><g clip-path="url(#19)"></g><g clip-path="url(#20)"><g transform="matrix(1.012395 0 0 1.009748 430.109 216.5709)"><g transform="matrix(1 0 0 1 0 0)"><image x="0" y="0" xlink:href="img_04.png" width="55" height="59" /></g></g></g><g clip-path="url(#21)"><path id="51" transform="matrix(1 0 0 -1 0 834)" d="M424.918 597.221C 424.918 580.2241 438.697 566.445 455.694 566.445C 472.692 566.445 486.471 580.2241 486.471 597.221C 486.471 614.218 472.692 627.997 455.694 627.997C 438.697 627.997 424.918 614.218 424.918 597.221z" stroke="#000000" stroke-width="0.743" fill="none" /><path id="52" transform="matrix(1 0 0 -1 0 834)" d="M449.907 635.13C 460.438 633.119 472.3 632.361 485.032 634.064" stroke="#000000" stroke-width="1.487" fill="none" /></g><path id="53" transform="matrix(1 0 0 -1 0 834)" d="M483.376 631.0471L484.121 633.944L482.553 636.491L489.417 634.744z" stroke="none" fill="#000000" fill-rule="nonzero" /><g clip-path="url(#22)"><g><g clip-path="url(#23)"><g clip-path="url(#24)"><path id="54" transform="matrix(1 0 0 -1 0 834)" d="M402.856 655.04C 402.856 655.04 421.554 640.544 449.907 635.13" stroke="#FFFFFF" stroke-width="1.487" fill="none" stroke-opacity="0.8" /></g></g></g></g><g clip-path="url(#25)"><path id="55" transform="matrix(1 0 0 -1 0 834)" d="M444.841 654.908C 444.841 654.908 467.947 646.4431 491.194 653.465" stroke="#000000" stroke-width="1.487" fill="none" /></g><path id="56" transform="matrix(1 0 0 -1 0 834)" d="M490.315 653.2L490.085 650.218L495.392 654.908L488.329 655.437z" stroke="none" fill="#000000" fill-rule="nonzero" /><g clip-path="url(#26)"></g><g clip-path="url(#27)"><g transform="matrix(1.008421 0 0 1.002086 321.062 566.67)"><g transform="matrix(1 0 0 1 0 0)"><image x="0" y="0" xlink:href="img_05.png" width="67" height="139" /></g></g></g><g clip-path="url(#28)"></g><g clip-path="url(#29)"><g transform="matrix(1.008352 0 0 1.005315 423.132 575.931)"><g transform="matrix(1 0 0 1 0 0)"><image x="0" y="0" xlink:href="img_06.png" width="81" height="130" /></g></g></g><g clip-path="url(#30)"><path id="329" transform="matrix(1 0 0 -1 0 834)" d="M364.123 161.047C 364.123 143.201 375.889 128.733 390.404 128.733C 404.918 128.733 416.684 143.201 416.684 161.047C 416.684 178.894 404.918 193.361 390.404 193.361C 375.889 193.361 364.123 178.894 364.123 161.047" stroke="none" fill="#FFFFFF" fill-rule="nonzero" /></g><g clip-path="url(#31)"></g><g clip-path="url(#32)"><g transform="matrix(1.011345 0 0 1.005912 367.391 630.9246)"><g transform="matrix(1 0 0 1 0 0)"><image x="0" y="0" xlink:href="img_07.png" width="55" height="114" /></g></g></g><g clip-path="url(#33)"><path id="331" transform="matrix(1 0 0 -1 0 834)" d="M364.1227 161.0494C 364.1227 143.2015 375.8895 128.7336 390.4033 128.7336C 404.918 128.7336 416.6847 143.2015 416.6847 161.0494C 416.6847 178.8951 404.918 193.3619 390.4033 193.3619C 375.8895 193.3619 364.1227 178.8951 364.1227 161.0494z" stroke="#000000" stroke-width="0.7493504" fill="none" /></g><g clip-path="url(#34)"><g><g clip-path="url(#35)"><g clip-path="url(#36)"><path id="332" transform="matrix(1 0 0 -1 0 834)" d="M446.133 219.923C 446.133 219.409 446.502 218.993 446.957 218.993C 447.413 218.993 447.782 219.409 447.782 219.923C 447.782 220.437 447.413 220.854 446.957 220.854C 446.502 220.854 446.133 220.437 446.133 219.923" stroke="none" fill="#FFFFFF" fill-rule="nonzero" fill-opacity="0.8" /></g></g></g></g><g clip-path="url(#37)"><path id="333" transform="matrix(1 0 0 -1 0 834)" d="M466.291 158.848C 466.291 141.375 478.838 127.211 494.316 127.211C 509.795 127.211 522.342 141.375 522.342 158.848C 522.342 176.321 509.795 190.485 494.316 190.485C 478.838 190.485 466.291 176.321 466.291 158.848" stroke="none" fill="#FFFFFF" fill-rule="nonzero" /></g><g clip-path="url(#38)"></g><g clip-path="url(#39)"><g transform="matrix(1.005896 0 0 1.004239 461.224 641.3145)"><g transform="matrix(1 0 0 1 0 0)"><image x="0" y="0" xlink:href="img_08.png" width="73" height="117" /></g></g></g><g clip-path="url(#40)"><path id="335" transform="matrix(1 0 0 -1 0 834)" d="M466.2903 158.8488C 466.2903 141.3753 478.8387 127.2107 494.3163 127.2107C 509.7949 127.2107 522.3423 141.3753 522.3423 158.8488C 522.3423 176.3212 509.7949 190.4857 494.3163 190.4857C 478.8387 190.4857 466.2903 176.3212 466.2903 158.8488z" stroke="#000000" stroke-width="0.7493504" fill="none" /></g><g clip-path="url(#41)"><g><g clip-path="url(#42)"><g clip-path="url(#43)"><path id="336" transform="matrix(1 0 0 -1 0 834)" d="M354.7873 246.2627C 354.7873 246.2627 355.0034 238.2259 356.8982 233.515" stroke="#FFFFFF" stroke-width="0.7493504" fill="none" stroke-opacity="0.8" /></g><g clip-path="url(#44)"><path id="337" transform="matrix(1 0 0 -1 0 834)" d="M358.084 231.372L355.212 233.764L356.706 233.992L357.598 235.364L358.085 231.372" stroke="none" fill="#FFFFFF" fill-rule="nonzero" fill-opacity="0.8" /></g></g></g></g><g clip-path="url(#45)"><path id="338" transform="matrix(1 0 0 -1 0 834)" d="M449.22 217.164L448.755 216.429C 450.852 215.552 452.499 214.631 453.314 213.887C 451.902 213.723 449.057 214.226 445.833 215.275L445.833 215.275L445.631 214.512C 445.851 214.434 446.073 214.356 446.299 214.28C 450.892 212.739 454.822 212.276 455.077 213.245C 455.081 213.26 455.08 213.277 455.082 213.294C 455.088 213.309 455.097 213.322 455.102 213.338C 455.318 214.163 452.804 215.757 449.22 217.164" stroke="none" fill="#000000" fill-rule="nonzero" /><path id="339" transform="matrix(1 0 0 -1 0 834)" d="M441.171 217.15C 440.144 217.707 439.402 218.257 438.892 218.723C 439.852 218.835 441.475 218.637 443.429 218.17L443.429 218.17L443.865 218.957C 440.202 219.978 437.345 220.187 437.129 219.366C 437.125 219.35 437.126 219.333 437.124 219.316C 437.117 219.301 437.108 219.288 437.104 219.272C 436.952 218.693 438.145 217.736 440.107 216.73L440.107 216.73L438.509 216.467L438.509 216.467L444.169 214.999L444.169 214.999L441.568 217.816" stroke="none" fill="#000000" fill-rule="nonzero" /><path id="340" transform="matrix(1 0 0 -1 0 834)" d="M453.283 215.208L452.609 214.44L452.609 214.44L453.29 213.911C 453.29 213.911 452.496 213.784 451.285 213.953L451.285 213.953L450.198 213.199C 450.198 213.199 454.87 212.134 455.063 213.284C 455.063 213.284 455.525 213.911 453.283 215.208" stroke="none" fill="#FFFFFF" fill-rule="nonzero" /><path id="341" transform="matrix(1 0 0 -1 0 834)" d="M372.986 241.056C 370.799 241.056 369.025 239.055 369.025 236.585C 369.025 234.116 370.799 232.114 372.986 232.114C 375.173 232.114 376.946 234.116 376.946 236.585C 376.946 239.055 375.173 241.056 372.986 241.056M372.986 232.658C 371.077 232.658 369.529 234.405 369.529 236.561C 369.529 238.716 371.077 240.464 372.986 240.464C 374.895 240.464 376.443 238.716 376.443 236.561C 376.443 234.405 374.895 232.658 372.986 232.658" stroke="none" fill="#000000" fill-rule="nonzero" /><path id="343" transform="matrix(1 0 0 -1 0 834)" d="M480.058 241.016C 477.87 241.016 476.097 239.014 476.097 236.545C 476.097 234.075 477.87 232.074 480.058 232.074C 482.245 232.074 484.018 234.075 484.018 236.545C 484.018 239.014 482.245 241.016 480.058 241.016M480.058 232.617C 478.148 232.617 476.6 234.364 476.6 236.52C 476.6 238.676 478.148 240.423 480.058 240.423C 481.967 240.423 483.515 238.676 483.515 236.52C 483.515 234.364 481.967 232.617 480.058 232.617" stroke="none" fill="#000000" fill-rule="nonzero" /></g><g clip-path="url(#46)"></g><g clip-path="url(#47)"><g transform="matrix(1.012375 0 0 1.001267 271.158 111.6158)"><g transform="matrix(1 0 0 1 0 0)"><image x="0" y="0" xlink:href="img_09.png" width="28" height="57" /></g></g></g><g clip-path="url(#48)"></g><g clip-path="url(#49)"><g transform="matrix(1.00017 0 0 1.005644 257.815 338.7638)"><g transform="matrix(1 0 0 1 0 0)"><image x="0" y="0" xlink:href="img_10.png" width="43" height="36" /></g></g></g><g clip-path="url(#50)"></g><g clip-path="url(#51)"><g transform="matrix(1.008969 0 0 1.019562 258.827 562.7719)"><g transform="matrix(1 0 0 1 0 0)"><image x="0" y="0" xlink:href="img_11.png" width="42" height="34" /></g></g></g><g clip-path="url(#52)"></g><g clip-path="url(#53)"><g transform="matrix(1.022248 0 0 0.9972106 350.052 138.325)"><g transform="matrix(1 0 0 1 0 0)"><image x="0" y="0" xlink:href="img_12.png" width="27" height="38" /></g></g></g><g clip-path="url(#54)"></g><g clip-path="url(#55)"><g transform="matrix(-1.022248 0 0 0.9972106 482.956 138.325)"><g transform="matrix(1 0 0 1 0 0)"><image x="0" y="0" xlink:href="img_12.png" width="27" height="38" /></g></g></g><g clip-path="url(#56)"></g><g clip-path="url(#57)"><g transform="matrix(1.022248 0 0 0.9972106 292.693 415.979)"><g transform="matrix(1 0 0 1 0 0)"><image x="0" y="0" xlink:href="img_12.png" width="27" height="38" /></g></g></g><g clip-path="url(#58)"></g><g clip-path="url(#59)"><g transform="matrix(1.000131 0 0 0.9972106 279.001 607.541)"><g transform="matrix(1 0 0 1 0 0)"><image x="0" y="0" xlink:href="img_13.png" width="36" height="38" /></g></g></g><path id="987" transform="matrix(1 0 0 -1 0 834)" d="M400.134 197.031L425.7309 197.031L425.7309 232.8892L400.134 232.8892z" stroke="none" fill="#FFFFFF" fill-rule="nonzero" /><g clip-path="url(#60)"></g><g clip-path="url(#61)"><g transform="matrix(1.023144 0 0 0.9971369 399.123 600.0948)"><g transform="matrix(1 0 0 1 0 0)"><image x="0" y="0" xlink:href="img_14.png" width="27" height="38" /></g></g></g><path id="989" transform="matrix(1 0 0 -1 0 834)" d="M633 15L633 0M633 819L633 834M21 15L21 0M21 819L21 834M639 21L654 21M15 21L0 21M639 813L654 813M15 813L0 813" stroke="#000000" stroke-width="1.25" fill="none" /><path id="990" transform="matrix(1 0 0 -1 0 834)" d="M633 15L633 0M633 819L633 834M21 15L21 0M21 819L21 834M639 21L654 21M15 21L0 21M639 813L654 813M15 813L0 813" stroke="#000000" stroke-width="0.25" fill="none" /><path id="991" transform="matrix(1 0 0 -1 0 834)" d="M32.2781 9.28203C 32.2781 9.516021 32.2961 9.58203 32.3559 9.62383C 32.416 9.66602 32.5719 9.69609 32.8238 9.69609C 33.2262 9.69609 33.5738 9.62383 33.8441 9.45C 34.3238 9.167971 34.552 8.63398 34.552 8.016021C 34.552 7.05586 34.0359 6.21602 32.9141 6.21602C 32.4762 6.21602 32.2781 6.33008 32.2781 6.78594zM31.252 9.900001L31.252 9.726171C 31.7141 9.68984 31.7621 9.66602 31.7621 9.150001L31.7621 9.150001L31.7621 6.74414C 31.7621 6.23398 31.7141 6.19805 31.198 6.16211L31.198 6.16211L31.198 6L31.198 6L32.6199 6C 33.3578 6 33.952 6.15 34.402 6.49805C 34.8641 6.84609 35.1398 7.38008 35.1398 8.1C 35.1398 8.664061 34.9301 9.101951 34.6359 9.38984C 34.2641 9.74414 33.7 9.900001 32.9379 9.900001z" stroke="#000000" stroke-width="0.4" fill="none" /><path id="992" transform="matrix(1 0 0 -1 0 834)" d="M38.3801 6.97813C 38.2898 6.70195 38.1758 6.51016 38.0738 6.38984C 37.9359 6.23398 37.732 6.20391 37.402 6.20391C 37.15 6.20391 36.9461 6.21602 36.8258 6.28203C 36.718 6.34219 36.6879 6.46211 36.6879 6.78594L36.6879 6.78594L36.6879 9.15586C 36.6879 9.66602 36.7418 9.69609 37.216 9.73203L37.216 9.73203L37.216 9.900001L37.216 9.900001L35.65 9.900001L35.65 9.900001L35.65 9.73203C 36.1359 9.69609 36.1777 9.66602 36.1777 9.15586L36.1777 9.15586L36.1777 6.75586C 36.1777 6.24609 36.1301 6.20391 35.6258 6.16797L35.6258 6.16797L35.6258 6L35.6258 6L38.3438 6C 38.398 6.18594 38.5238 6.75586 38.5598 6.94219z" stroke="#000000" stroke-width="0.4" fill="none" /><path id="993" transform="matrix(1 0 0 -1 0 834)" d="M41.0918 9.023829C 41.0438 9.40195 41.0141 9.63594 40.9898 9.851951C 40.7617 9.92383 40.5098 9.989841 40.234 9.989841C 39.4598 9.989841 38.998 9.49805 38.998 8.921881C 38.998 8.24414 39.6039 7.94414 39.9879 7.73984C 40.4379 7.5 40.768 7.28984 40.768 6.84609C 40.768 6.40781 40.498 6.12617 40.048 6.12617C 39.4301 6.12617 39.1598 6.73203 39.0641 7.09805L39.0641 7.09805L38.8898 7.05586C 38.9258 6.767971 39.0039 6.25195 39.052 6.12617C 39.1059 6.09609 39.1961 6.05391 39.3461 6C 39.4961 5.95781 39.6879 5.91016 39.934 5.91016C 40.732 5.91016 41.266 6.41406 41.266 7.04414C 41.266 7.71602 40.6961 7.99805 40.2277 8.23789C 39.7539 8.48398 39.466 8.68789 39.466 9.12617C 39.466 9.45 39.6699 9.78594 40.132 9.78594C 40.6539 9.78594 40.8098 9.371881 40.918 8.98789z" stroke="#000000" stroke-width="0.4" fill="none" /><path id="994" transform="matrix(1 0 0 -1 0 834)" d="M46.648 6L46.648 6.16797C 46.1258 6.21602 46.1078 6.24609 46.0898 6.88203L46.0898 6.88203L46.0301 9.05391C 46.0117 9.671881 46.0539 9.68398 46.582 9.73203L46.582 9.73203L46.582 9.900001L46.582 9.900001L45.5617 9.900001L45.5617 9.900001L44.1758 6.9L44.1758 6.9L42.8078 9.900001L42.8078 9.900001L41.8238 9.900001L41.8238 9.900001L41.8238 9.73203C 42.3699 9.67813 42.4 9.653911 42.3461 8.87383L42.3461 8.87383L42.2617 7.626171C 42.2141 7.00195 42.1777 6.73789 42.148 6.528131C 42.1059 6.27617 41.9859 6.21016 41.6379 6.16797L41.6379 6.16797L41.6379 6L41.6379 6L43.0359 6L43.0359 6L43.0359 6.16797C 42.6398 6.21016 42.4961 6.25195 42.484 6.53984C 42.4777 6.78008 42.4777 7.04414 42.502 7.53594L42.502 7.53594L42.5918 9.24609L42.5918 9.24609L42.6039 9.24609L42.6039 9.24609L43.948 6.04219L43.948 6.04219L44.068 6.04219L44.068 6.04219L45.532 9.33008L45.532 9.33008L45.5559 9.33008L45.5559 9.33008L45.5738 6.88203C 45.5801 6.24609 45.5559 6.21602 45.0699 6.16797L45.0699 6.16797L45.0699 6z" stroke="#000000" stroke-width="0.4" fill="none" /><path id="995" transform="matrix(1 0 0 -1 0 834)" d="M51.8738 7.05586C 51.5738 6.45586 51.2496 6.12617 50.6379 6.12617C 49.7258 6.12617 49.0656 6.89414 49.0656 8.016021C 49.0656 8.92813 49.5996 9.773829 50.602 9.773829C 51.2496 9.773829 51.6098 9.516021 51.7656 8.88008L51.7656 8.88008L51.9457 8.921881C 51.9098 9.24609 51.8738 9.48594 51.8258 9.828131C 51.6578 9.85781 51.2496 9.989841 50.7637 9.989841C 49.4258 9.989841 48.4539 9.15586 48.4539 7.89609C 48.4539 6.94219 49.1078 5.91016 50.602 5.91016C 51.034 5.91016 51.5379 6.03008 51.7059 6.07188C 51.8137 6.26992 51.9637 6.71406 52.0477 6.98984z" stroke="#000000" stroke-width="0.4" fill="none" /><path id="996" transform="matrix(1 0 0 -1 0 834)" d="M54.3398 9.773829C 55.1258 9.773829 55.7855 9.101951 55.7855 7.83594C 55.7855 6.68398 55.1855 6.12617 54.5195 6.12617C 53.6738 6.12617 53.0559 6.94805 53.0559 8.076171C 53.0559 9.19805 53.6676 9.773829 54.3398 9.773829zM54.4598 9.989841C 53.1996 9.989841 52.4438 8.98789 52.4438 7.90781C 52.4438 6.75586 53.3078 5.91016 54.3938 5.91016C 55.4918 5.91016 56.3977 6.70195 56.3977 7.99805C 56.3977 9.19805 55.4797 9.989841 54.4598 9.989841z" stroke="#000000" stroke-width="0.4" fill="none" /><path id="997" transform="matrix(1 0 0 -1 0 834)" d="M61.8277 6L61.8277 6.16797C 61.3059 6.21602 61.2879 6.24609 61.2695 6.88203L61.2695 6.88203L61.2098 9.05391C 61.1918 9.671881 61.2336 9.68398 61.7617 9.73203L61.7617 9.73203L61.7617 9.900001L61.7617 9.900001L60.7418 9.900001L60.7418 9.900001L59.3559 6.9L59.3559 6.9L57.9879 9.900001L57.9879 9.900001L57.0035 9.900001L57.0035 9.900001L57.0035 9.73203C 57.5496 9.67813 57.5797 9.653911 57.5258 8.87383L57.5258 8.87383L57.4418 7.626171C 57.3938 7.00195 57.3578 6.73789 57.3277 6.528131C 57.2855 6.27617 57.1656 6.21016 56.8176 6.16797L56.8176 6.16797L56.8176 6L56.8176 6L58.2156 6L58.2156 6L58.2156 6.16797C 57.8195 6.21016 57.6758 6.25195 57.6637 6.53984C 57.6578 6.78008 57.6578 7.04414 57.6816 7.53594L57.6816 7.53594L57.7719 9.24609L57.7719 9.24609L57.7836 9.24609L57.7836 9.24609L59.1277 6.04219L59.1277 6.04219L59.2477 6.04219L59.2477 6.04219L60.7117 9.33008L60.7117 9.33008L60.7355 9.33008L60.7355 9.33008L60.7535 6.88203C 60.7598 6.24609 60.7355 6.21602 60.2496 6.16797L60.2496 6.16797L60.2496 6z" stroke="#000000" stroke-width="0.4" fill="none" /><path id="998" transform="matrix(1 0 0 -1 0 834)" d="M63.8258 6L63.8258 6.16797C 63.3336 6.20391 63.2855 6.23398 63.2855 6.75L63.2855 6.75L63.2855 9.150001C 63.2855 9.66016 63.3336 9.69609 63.8258 9.73203L63.8258 9.73203L63.8258 9.900001L63.8258 9.900001L62.2355 9.900001L62.2355 9.900001L62.2355 9.73203C 62.7277 9.69609 62.7758 9.66016 62.7758 9.150001L62.7758 9.150001L62.7758 6.75C 62.7758 6.23984 62.7277 6.20391 62.2355 6.16797L62.2355 6.16797L62.2355 6z" stroke="#000000" stroke-width="0.4" fill="none" /><path id="999" transform="matrix(1 0 0 -1 0 834)" d="M66.5074 9.023829C 66.4598 9.40195 66.4297 9.63594 66.4055 9.851951C 66.1777 9.92383 65.9258 9.989841 65.6496 9.989841C 64.8758 9.989841 64.4137 9.49805 64.4137 8.921881C 64.4137 8.24414 65.0195 7.94414 65.4035 7.73984C 65.8535 7.5 66.1836 7.28984 66.1836 6.84609C 66.1836 6.40781 65.9137 6.12617 65.46371 6.12617C 64.8457 6.12617 64.5758 6.73203 64.4797 7.09805L64.4797 7.09805L64.3055 7.05586C 64.3418 6.767971 64.4195 6.25195 64.46761 6.12617C 64.52151 6.09609 64.6117 6.05391 64.7617 6C 64.91171 5.95781 65.1035 5.91016 65.3496 5.91016C 66.1477 5.91016 66.6816 6.41406 66.6816 7.04414C 66.6816 7.71602 66.1117 7.99805 65.6438 8.23789C 65.1695 8.48398 64.8816 8.68789 64.8816 9.12617C 64.8816 9.45 65.0855 9.78594 65.5477 9.78594C 66.0695 9.78594 66.2258 9.371881 66.3336 8.98789z" stroke="#000000" stroke-width="0.4" fill="none" /><path id="1000" transform="matrix(1 0 0 -1 0 834)" d="M69.4055 7.68008L68.3016 7.68008C 68.4816 8.171881 68.6734 8.69414 68.8656 9.21016L68.8656 9.21016L68.8777 9.21016zM70.9355 6L70.9355 6.16797C 70.5457 6.20391 70.46761 6.25781 70.2758 6.77383C 69.89181 7.81797 69.4895 8.95781 69.11761 9.989841L69.11761 9.989841L68.9316 9.93594L68.9316 9.93594L67.68951 6.78594C 67.4797 6.25781 67.3957 6.22188 67.0176 6.16797L67.0176 6.16797L67.0176 6L67.0176 6L68.3195 6L68.3195 6L68.3195 6.16797C 67.8695 6.21016 67.81561 6.26992 67.9477 6.64805C 68.0258 6.9 68.1156 7.15195 68.2117 7.42188L68.2117 7.42188L69.4895 7.42188C 69.62151 7.05586 69.74181 6.73203 69.8195 6.49805C 69.8977 6.26406 69.8438 6.21602 69.4656 6.16797L69.4656 6.16797L69.4656 6z" stroke="#000000" stroke-width="0.4" fill="none" /><path id="1001" transform="matrix(1 0 0 -1 0 834)" d="M71.7273 5.92813C 71.9195 5.92813 72.06371 6.06602 72.06371 6.27617C 72.06371 6.46797 71.9195 6.61797 71.7273 6.61797C 71.5355 6.61797 71.3914 6.46797 71.3914 6.27617C 71.3914 6.06602 71.5355 5.92813 71.7273 5.92813z" stroke="#000000" stroke-width="0.4" fill="none" /><path id="1002" transform="matrix(1 0 0 -1 0 834)" d="M73.9234 6L73.9234 6.15586C 73.53951 6.19219 73.4977 6.22813 73.4977 6.63594L73.4977 6.63594L73.4977 8.70586C 73.2336 8.59805 72.9516 8.51992 72.6453 8.471881L72.6453 8.471881L72.6453 8.328131C 73.0055 8.26797 73.0234 8.24414 73.0234 7.871881L73.0234 7.871881L73.0234 6.63594C 73.0234 6.22813 72.9816 6.19219 72.6035 6.15586L72.6035 6.15586L72.6035 6zM73.2215 9.216021C 73.3953 9.216021 73.52731 9.36016 73.52731 9.52188C 73.52731 9.70195 73.3953 9.83398 73.2273 9.83398C 73.06561 9.83398 72.9215 9.70195 72.9215 9.52188C 72.9215 9.36016 73.06561 9.216021 73.2215 9.216021z" stroke="#000000" stroke-width="0.4" fill="none" /><path id="1003" transform="matrix(1 0 0 -1 0 834)" d="M77.1574 6L77.1574 6.15586C 76.8094 6.19219 76.7793 6.21602 76.7793 6.62383L76.7793 6.62383L76.7793 7.78203C 76.7793 8.36406 76.4793 8.69414 76.0055 8.69414C 75.8313 8.69414 75.67541 8.621881 75.5074 8.51406C 75.3574 8.41211 75.2254 8.32188 75.1055 8.23203L75.1055 8.23203L75.1055 8.712111C 74.8414 8.59219 74.5594 8.51992 74.27151 8.466021L74.27151 8.466021L74.27151 8.328131C 74.5953 8.26797 74.6313 8.25 74.6313 7.86602L74.6313 7.86602L74.6313 6.62383C 74.6313 6.22813 74.6016 6.19805 74.19341 6.15586L74.19341 6.15586L74.19341 6L74.19341 6L75.4953 6L75.4953 6L75.4953 6.15586C 75.1414 6.19219 75.1055 6.21602 75.1055 6.62383L75.1055 6.62383L75.1055 8.03398C 75.2855 8.18984 75.5195 8.33984 75.7594 8.33984C 76.1613 8.33984 76.3055 8.069921 76.3055 7.65586L76.3055 7.65586L76.3055 6.65391C 76.3055 6.23984 76.2633 6.19219 75.9094 6.15586L75.9094 6.15586L75.9094 6z" stroke="#000000" stroke-width="0.4" fill="none" /><path id="1004" transform="matrix(1 0 0 -1 0 834)" d="M79.4734 6.51016C 79.32931 6.40195 79.1133 6.30586 78.8973 6.30586C 78.5133 6.30586 78.0754 6.65391 78.0754 7.36797C 78.0754 8.23789 78.57931 8.471881 78.8555 8.471881C 79.0832 8.471881 79.32931 8.37617 79.4734 8.16602zM80.4035 6.30586L80.2113 6.32383C 79.9895 6.34805 79.9473 6.37813 79.9473 6.68984L79.9473 6.68984L79.9473 10.2719C 79.7254 10.1941 79.3234 10.1039 79.0113 10.0621L79.0113 10.0621L79.0113 9.917971C 79.44341 9.88789 79.4734 9.869921 79.4734 9.47383L79.4734 9.47383L79.4734 8.628131C 79.3355 8.67617 79.1613 8.69414 79.0773 8.69414C 78.2613 8.69414 77.5293 8.03984 77.5293 7.20586C 77.5293 6.36602 78.1594 5.92813 78.6395 5.92813C 78.7113 5.92813 78.87341 5.96406 79.1074 6.10195L79.1074 6.10195L79.4734 6.31797L79.4734 6.31797L79.4734 5.92813C 79.8215 6.05391 80.27151 6.13203 80.4035 6.15586z" stroke="#000000" stroke-width="0.4" fill="none" /><path id="1005" transform="matrix(1 0 0 -1 0 834)" d="M81.3813 8.24414C 81.4895 8.310161 81.6813 8.35781 81.84921 8.35781C 82.34731 8.35781 82.7676 7.96211 82.7676 7.278131C 82.7676 6.58203 82.4492 6.15586 81.9516 6.15586C 81.6336 6.16211 81.4535 6.37188 81.4176 6.49219C 81.3934 6.54609 81.3813 6.60586 81.3813 6.69609zM81.3813 8.42383L81.3813 10.2719C 81.1594 10.1941 80.7934 10.098 80.5113 10.0621L80.5113 10.0621L80.5113 9.92383C 80.8953 9.88789 80.9074 9.851951 80.9074 9.48008L80.9074 9.48008L80.9074 6.14414C 81.2375 5.98789 81.5434 5.92813 81.78951 5.92813C 82.59341 5.92813 83.2953 6.55195 83.2953 7.43398C 83.2953 8.14219 82.7555 8.69414 82.1133 8.69414C 82.0473 8.69414 81.9633 8.67617 81.86761 8.63398z" stroke="#000000" stroke-width="0.4" fill="none" /><path id="1006" transform="matrix(1 0 0 -1 0 834)" d="M88.1133 8.976171C 88.2633 9.19805 88.50311 9.45 88.8332 9.45C 89.15121 9.45 89.4031 9.257811 89.4031 8.88594C 89.4031 8.44219 88.9953 8.20781 88.44341 8.03398L88.44341 8.03398L88.4852 7.86016C 88.5813 7.88984 88.7254 7.92617 88.8691 7.92617C 89.2113 7.92617 89.6313 7.70391 89.6313 7.15195C 89.6313 6.55781 89.3313 6.23984 88.90511 6.23984C 88.5633 6.23984 88.3172 6.40781 88.1613 6.54609C 88.1133 6.58789 88.0652 6.58203 88.0172 6.54609C 87.9633 6.50391 87.8852 6.42617 87.8793 6.34805C 87.8672 6.27617 87.891 6.21016 87.9754 6.13203C 88.0531 6.06016 88.2992 5.92813 88.5754 5.92813C 89.007 5.92813 90.1473 6.37188 90.1473 7.34414C 90.1473 7.78203 89.841 8.153911 89.3133 8.25586L89.3133 8.25586L89.3133 8.26797C 89.4871 8.38789 89.6313 8.49609 89.7211 8.59219C 89.8352 8.70586 89.90701 8.84414 89.90701 9.01797C 89.90701 9.47383 89.5531 9.810161 89.0133 9.810161C 88.6953 9.810161 88.4191 9.66016 88.25121 9.47383L88.25121 9.47383L87.9871 9.09609z" stroke="#000000" stroke-width="0.4" fill="none" /><path id="1007" transform="matrix(1 0 0 -1 0 834)" d="M91.9652 6.11992C 91.5871 6.11992 91.2332 6.42617 91.2332 6.97813C 91.2332 7.30781 91.4371 7.60781 91.7254 7.8C 92.1871 7.56602 92.6133 7.30781 92.6133 6.85781C 92.6133 6.39609 92.3313 6.11992 91.9652 6.11992zM91.9113 9.61797C 92.1871 9.61797 92.4992 9.396091 92.4992 8.89219C 92.4992 8.53203 92.3371 8.310161 92.1332 8.14805C 91.707 8.35781 91.3531 8.555861 91.3531 9C 91.3531 9.305861 91.557 9.61797 91.9113 9.61797zM91.9711 9.810161C 91.32931 9.810161 90.9031 9.33008 90.9031 8.826171C 90.9031 8.40586 91.1613 8.11797 91.5512 7.89609C 91.34731 7.76406 91.1191 7.60195 91.023 7.51211C 90.891 7.38594 90.75311 7.21797 90.75311 6.94219C 90.75311 6.3 91.2633 5.92813 91.90511 5.92813C 92.4152 5.92813 93.09341 6.31211 93.09341 7.01406C 93.09341 7.53594 92.7152 7.82383 92.3012 8.057811C 92.5711 8.24414 92.7332 8.38789 92.77541 8.44219C 92.8891 8.57383 92.9492 8.74805 92.9492 8.921881C 92.9492 9.40781 92.541 9.810161 91.9711 9.810161z" stroke="#000000" stroke-width="0.4" fill="none" /><path id="1008" transform="matrix(1 0 0 -1 0 834)" d="M95.6672 6L95.6672 6.16211C 95.1211 6.20391 95.0852 6.25195 95.0852 6.68398L95.0852 6.68398L95.0852 9.810161C 94.7551 9.67813 94.40121 9.56406 94.0172 9.49805L94.0172 9.49805L94.0172 9.36016L94.0172 9.36016L94.30511 9.34805C 94.5691 9.33594 94.59341 9.305861 94.59341 8.99414L94.59341 8.99414L94.59341 6.68398C 94.59341 6.25195 94.5633 6.20391 94.0172 6.16211L94.0172 6.16211L94.0172 6z" stroke="#000000" stroke-width="0.4" fill="none" /><path id="1027" transform="matrix(1 0 0 -1 0 834)" d="M554.472 6.83984C 554.292 6.46211 554.2141 6.43789 553.89 6.43789L553.89 6.43789L552.768 6.43789L552.768 6.43789L553.6201 7.33203C 554.1721 7.91992 554.412 8.273829 554.412 8.79609C 554.412 9.42617 553.932 9.810161 553.404 9.810161C 553.056 9.810161 552.774 9.653911 552.594 9.45586L552.594 9.45586L552.252 8.96992L552.252 8.96992L552.384 8.85C 552.54 9.08398 552.792 9.40781 553.2 9.40781C 553.644 9.40781 553.908 9.11406 553.908 8.61016C 553.908 8.09414 553.53 7.60195 553.158 7.15781C 552.858 6.81016 552.522 6.46797 552.186 6.13789L552.186 6.13789L552.186 6L552.186 6L554.43 6C 554.502 6.26992 554.562 6.53398 554.64 6.78594z" stroke="#000000" stroke-width="0.4" fill="none" /><path id="1028" transform="matrix(1 0 0 -1 0 834)" d="M555.792 9.3L557.19 9.3L557.19 9.3L557.346 9.68984L557.346 9.68984L557.31 9.73789L557.31 9.73789L555.6 9.73789L555.6 9.73789L555.366 7.90781C 555.504 7.96211 555.732 8.028131 555.984 8.028131C 556.638 8.028131 556.962 7.65 556.962 7.121881C 556.962 6.67188 556.71 6.23398 556.2 6.23398C 555.834 6.23398 555.588 6.42617 555.462 6.53984C 555.402 6.58789 555.354 6.58203 555.3 6.53984C 555.234 6.48008 555.18 6.40195 555.174 6.34219C 555.162 6.26992 555.192 6.22188 555.27 6.13789C 555.36 6.05391 555.612 5.92813 555.888 5.92813C 556.206 5.93398 556.608 6.08984 556.932 6.35391C 557.298 6.65391 557.466 6.99609 557.466 7.35586C 557.466 7.84805 557.076 8.369921 556.308 8.369921C 556.146 8.369921 555.864 8.273829 555.636 8.18984z" stroke="#000000" stroke-width="0.4" fill="none" /><path id="1029" transform="matrix(1 0 0 -1 0 834)" d="M559.548 9.989841L559.212 9.989841L559.212 9.989841L557.91 5.73594L557.91 5.73594L558.246 5.73594z" stroke="#000000" stroke-width="0.4" fill="none" /><path id="1030" transform="matrix(1 0 0 -1 0 834)" d="M561.18 9.61211C 561.72 9.61211 561.8701 8.72383 561.8701 7.871881C 561.8701 7.03203 561.726 6.13203 561.186 6.13203C 560.664 6.13203 560.49 7.03789 560.49 7.87813C 560.49 8.712111 560.634 9.61211 561.18 9.61211zM561.186 9.810161C 560.286 9.810161 559.956 8.74219 559.956 7.86602C 559.956 6.91797 560.28 5.92813 561.186 5.92813C 562.086 5.92813 562.404 6.99609 562.404 7.871881C 562.404 8.79609 562.086 9.810161 561.186 9.810161z" stroke="#000000" stroke-width="0.4" fill="none" /><path id="1031" transform="matrix(1 0 0 -1 0 834)" d="M564 9.61211C 564.582 9.61211 564.738 8.86797 564.738 8.33984C 564.738 8.21992 564.732 8.076171 564.7141 7.94414C 564.588 7.84805 564.384 7.77617 564.174 7.77617C 563.67 7.77617 563.3701 8.214061 563.3701 8.74219C 563.3701 9.09609 563.538 9.61211 564 9.61211zM564.078 9.810161C 563.304 9.810161 562.854 9.10781 562.854 8.53203C 562.854 7.90195 563.292 7.43398 563.928 7.43398C 564.042 7.43398 564.156 7.45781 564.288 7.53008L564.288 7.53008L564.69 7.74609C 564.492 6.83398 563.838 6.23398 562.98 6.08984L562.98 6.08984L563.01 5.91016C 563.16 5.91016 563.526 5.96992 563.85 6.10195C 564.66 6.42617 565.2661 7.20586 565.2661 8.310161C 565.2661 9.12617 564.828 9.810161 564.078 9.810161z" stroke="#000000" stroke-width="0.4" fill="none" /><path id="1032" transform="matrix(1 0 0 -1 0 834)" d="M567.294 9.989841L566.958 9.989841L566.958 9.989841L565.656 5.73594L565.656 5.73594L565.992 5.73594z" stroke="#000000" stroke-width="0.4" fill="none" /><path id="1033" transform="matrix(1 0 0 -1 0 834)" d="M569.9641 6.83984C 569.784 6.46211 569.706 6.43789 569.382 6.43789L569.382 6.43789L568.26 6.43789L568.26 6.43789L569.112 7.33203C 569.664 7.91992 569.904 8.273829 569.904 8.79609C 569.904 9.42617 569.424 9.810161 568.896 9.810161C 568.548 9.810161 568.2661 9.653911 568.086 9.45586L568.086 9.45586L567.744 8.96992L567.744 8.96992L567.876 8.85C 568.032 9.08398 568.284 9.40781 568.692 9.40781C 569.136 9.40781 569.4 9.11406 569.4 8.61016C 569.4 8.09414 569.022 7.60195 568.65 7.15781C 568.35 6.81016 568.014 6.46797 567.678 6.13789L567.678 6.13789L567.678 6L567.678 6L569.9221 6C 569.994 6.26992 570.054 6.53398 570.132 6.78594z" stroke="#000000" stroke-width="0.4" fill="none" /><path id="1034" transform="matrix(1 0 0 -1 0 834)" d="M571.806 9.61211C 572.346 9.61211 572.496 8.72383 572.496 7.871881C 572.496 7.03203 572.352 6.13203 571.812 6.13203C 571.29 6.13203 571.116 7.03789 571.116 7.87813C 571.116 8.712111 571.26 9.61211 571.806 9.61211zM571.812 9.810161C 570.912 9.810161 570.582 8.74219 570.582 7.86602C 570.582 6.91797 570.906 5.92813 571.812 5.92813C 572.712 5.92813 573.03 6.99609 573.03 7.871881C 573.03 8.79609 572.712 9.810161 571.812 9.810161z" stroke="#000000" stroke-width="0.4" fill="none" /><path id="1035" transform="matrix(1 0 0 -1 0 834)" d="M575.556 6L575.556 6.16211C 575.01 6.20391 574.9741 6.25195 574.9741 6.68398L574.9741 6.68398L574.9741 9.810161C 574.644 9.67813 574.29 9.56406 573.906 9.49805L573.906 9.49805L573.906 9.36016L573.906 9.36016L574.194 9.34805C 574.458 9.33594 574.482 9.305861 574.482 8.99414L574.482 8.99414L574.482 6.68398C 574.482 6.25195 574.452 6.20391 573.906 6.16211L573.906 6.16211L573.906 6z" stroke="#000000" stroke-width="0.4" fill="none" /><path id="1036" transform="matrix(1 0 0 -1 0 834)" d="M578.814 9.73789L576.522 9.73789C 576.498 9.48008 576.468 9.180079 576.414 8.85L576.414 8.85L576.588 8.85C 576.732 9.24609 576.768 9.3 577.164 9.3L577.164 9.3L578.46 9.3C 577.986 8.25586 577.308 7.01406 576.678 5.99414L576.678 5.99414L576.72 5.92813L576.72 5.92813L577.164 5.98789C 577.74 7.22383 578.298 8.44805 578.862 9.66602z" stroke="#000000" stroke-width="0.4" fill="none" /><path id="1037" transform="matrix(1 0 0 -1 0 834)" d="M584.531 9.61211C 585.071 9.61211 585.221 8.72383 585.221 7.871881C 585.221 7.03203 585.077 6.13203 584.537 6.13203C 584.015 6.13203 583.841 7.03789 583.841 7.87813C 583.841 8.712111 583.985 9.61211 584.531 9.61211zM584.537 9.810161C 583.637 9.810161 583.307 8.74219 583.307 7.86602C 583.307 6.91797 583.631 5.92813 584.537 5.92813C 585.437 5.92813 585.755 6.99609 585.755 7.871881C 585.755 8.79609 585.437 9.810161 584.537 9.810161z" stroke="#000000" stroke-width="0.4" fill="none" /><path id="1038" transform="matrix(1 0 0 -1 0 834)" d="M588.449 6.83984C 588.269 6.46211 588.191 6.43789 587.867 6.43789L587.867 6.43789L586.7451 6.43789L586.7451 6.43789L587.597 7.33203C 588.149 7.91992 588.389 8.273829 588.389 8.79609C 588.389 9.42617 587.909 9.810161 587.381 9.810161C 587.033 9.810161 586.751 9.653911 586.571 9.45586L586.571 9.45586L586.229 8.96992L586.229 8.96992L586.361 8.85C 586.517 9.08398 586.769 9.40781 587.177 9.40781C 587.621 9.40781 587.885 9.11406 587.885 8.61016C 587.885 8.09414 587.507 7.60195 587.135 7.15781C 586.835 6.81016 586.499 6.46797 586.163 6.13789L586.163 6.13789L586.163 6L586.163 6L588.407 6C 588.479 6.26992 588.539 6.53398 588.617 6.78594z" stroke="#000000" stroke-width="0.4" fill="none" /><path id="1039" transform="matrix(1 0 0 -1 0 834)" d="M589.5471 5.92813C 589.739 5.92813 589.883 6.06602 589.883 6.27617C 589.883 6.46797 589.739 6.61797 589.5471 6.61797C 589.355 6.61797 589.211 6.46797 589.211 6.27617C 589.211 6.06602 589.355 5.92813 589.5471 5.92813zM589.541 8.466021C 589.3491 8.466021 589.211 8.328131 589.211 8.13008C 589.211 7.92617 589.3491 7.78203 589.541 7.78203C 589.733 7.78203 589.877 7.92617 589.877 8.13008C 589.877 8.328131 589.733 8.466021 589.541 8.466021z" stroke="#000000" stroke-width="0.4" fill="none" /><path id="1040" transform="matrix(1 0 0 -1 0 834)" d="M591.137 9.3L592.535 9.3L592.535 9.3L592.691 9.68984L592.691 9.68984L592.655 9.73789L592.655 9.73789L590.945 9.73789L590.945 9.73789L590.711 7.90781C 590.8491 7.96211 591.077 8.028131 591.329 8.028131C 591.983 8.028131 592.307 7.65 592.307 7.121881C 592.307 6.67188 592.055 6.23398 591.545 6.23398C 591.179 6.23398 590.933 6.42617 590.807 6.53984C 590.747 6.58789 590.699 6.58203 590.645 6.53984C 590.579 6.48008 590.525 6.40195 590.519 6.34219C 590.507 6.26992 590.537 6.22188 590.615 6.13789C 590.705 6.05391 590.957 5.92813 591.233 5.92813C 591.551 5.93398 591.953 6.08984 592.277 6.35391C 592.643 6.65391 592.811 6.99609 592.811 7.35586C 592.811 7.84805 592.421 8.369921 591.653 8.369921C 591.491 8.369921 591.209 8.273829 590.981 8.18984z" stroke="#000000" stroke-width="0.4" fill="none" /><path id="1041" transform="matrix(1 0 0 -1 0 834)" d="M595.409 6L595.409 6.16211C 594.863 6.20391 594.827 6.25195 594.827 6.68398L594.827 6.68398L594.827 9.810161C 594.497 9.67813 594.143 9.56406 593.759 9.49805L593.759 9.49805L593.759 9.36016L593.759 9.36016L594.0471 9.34805C 594.311 9.33594 594.335 9.305861 594.335 8.99414L594.335 8.99414L594.335 6.68398C 594.335 6.25195 594.305 6.20391 593.759 6.16211L593.759 6.16211L593.759 6z" stroke="#000000" stroke-width="0.4" fill="none" /><path id="1042" transform="matrix(1 0 0 -1 0 834)" d="M596.675 5.92813C 596.867 5.92813 597.011 6.06602 597.011 6.27617C 597.011 6.46797 596.867 6.61797 596.675 6.61797C 596.483 6.61797 596.3391 6.46797 596.3391 6.27617C 596.3391 6.06602 596.483 5.92813 596.675 5.92813zM596.669 8.466021C 596.477 8.466021 596.3391 8.328131 596.3391 8.13008C 596.3391 7.92617 596.477 7.78203 596.669 7.78203C 596.861 7.78203 597.005 7.92617 597.005 8.13008C 597.005 8.328131 596.861 8.466021 596.669 8.466021z" stroke="#000000" stroke-width="0.4" fill="none" /><path id="1043" transform="matrix(1 0 0 -1 0 834)" d="M598.787 9.61211C 599.327 9.61211 599.477 8.72383 599.477 7.871881C 599.477 7.03203 599.333 6.13203 598.793 6.13203C 598.271 6.13203 598.097 7.03789 598.097 7.87813C 598.097 8.712111 598.241 9.61211 598.787 9.61211zM598.793 9.810161C 597.893 9.810161 597.563 8.74219 597.563 7.86602C 597.563 6.91797 597.887 5.92813 598.793 5.92813C 599.6931 5.92813 600.011 6.99609 600.011 7.871881C 600.011 8.79609 599.6931 9.810161 598.793 9.810161z" stroke="#000000" stroke-width="0.4" fill="none" /><path id="1044" transform="matrix(1 0 0 -1 0 834)" d="M601.667 9.61211C 602.207 9.61211 602.357 8.72383 602.357 7.871881C 602.357 7.03203 602.213 6.13203 601.673 6.13203C 601.151 6.13203 600.977 7.03789 600.977 7.87813C 600.977 8.712111 601.121 9.61211 601.667 9.61211zM601.673 9.810161C 600.773 9.810161 600.4431 8.74219 600.4431 7.86602C 600.4431 6.91797 600.767 5.92813 601.673 5.92813C 602.573 5.92813 602.8911 6.99609 602.8911 7.871881C 602.8911 8.79609 602.573 9.810161 601.673 9.810161z" stroke="#000000" stroke-width="0.4" fill="none" /><path id="1045" transform="matrix(1 0 0 -1 0 834)" d="M605.489 8.08203C 605.651 8.20195 605.897 8.33398 606.0891 8.33398C 606.527 8.33398 606.893 7.97383 606.893 7.33203C 606.893 6.65391 606.557 6.22188 606.053 6.22188C 605.8491 6.22188 605.621 6.31797 605.489 6.45586zM605.489 8.28008L605.489 8.75391C 605.207 8.63984 604.871 8.53789 604.619 8.49609L604.619 8.49609L604.619 8.351951C 604.991 8.30391 605.015 8.29219 605.015 7.90195L605.015 7.90195L605.015 5.18984C 605.015 4.79414 604.961 4.75781 604.577 4.72188L604.577 4.72188L604.577 4.56016L604.577 4.56016L605.999 4.56016L605.999 4.56016L605.999 4.72188C 605.531 4.76406 605.489 4.79414 605.489 5.25L605.489 5.25L605.489 6.03594C 605.567 5.99414 605.729 5.93398 605.903 5.92813C 606.683 6.07188 607.397 6.65391 607.397 7.56016C 607.397 8.153911 607.001 8.69414 606.335 8.69414C 606.263 8.69414 606.149 8.664061 606.041 8.60391z" stroke="#000000" stroke-width="0.4" fill="none" /><path id="1046" transform="matrix(1 0 0 -1 0 834)" d="M608.303 5.92813C 608.4951 5.92813 608.639 6.06602 608.639 6.27617C 608.639 6.46797 608.4951 6.61797 608.303 6.61797C 608.111 6.61797 607.967 6.46797 607.967 6.27617C 607.967 6.06602 608.111 5.92813 608.303 5.92813z" stroke="#000000" stroke-width="0.4" fill="none" /><path id="1047" transform="matrix(1 0 0 -1 0 834)" d="M615.125 6L615.125 6.15586C 614.783 6.19219 614.735 6.21602 614.735 6.61797L614.735 6.61797L614.735 7.77617C 614.735 8.36406 614.441 8.69414 613.973 8.69414C 613.805 8.69414 613.649 8.621881 613.523 8.53789C 613.373 8.44805 613.199 8.33398 613.025 8.20195C 612.905 8.51406 612.647 8.69414 612.359 8.69414C 612.167 8.69414 612.023 8.628131 611.867 8.53203C 611.687 8.417971 611.555 8.310161 611.429 8.226171L611.429 8.226171L611.429 8.712111C 611.165 8.59219 610.859 8.51406 610.595 8.466021L610.595 8.466021L610.595 8.328131C 610.9431 8.273829 610.961 8.24414 610.961 7.86016L610.961 7.86016L610.961 6.61797C 610.961 6.22813 610.907 6.19219 610.511 6.15586L610.511 6.15586L610.511 6L610.511 6L611.777 6L611.777 6L611.777 6.15586C 611.483 6.19219 611.435 6.22813 611.435 6.61797L611.435 6.61797L611.435 8.028131C 611.615 8.17813 611.8491 8.33984 612.0891 8.33984C 612.455 8.33984 612.611 8.09414 612.611 7.65L612.611 7.65L612.611 6.61797C 612.611 6.22188 612.557 6.19219 612.185 6.15586L612.185 6.15586L612.185 6L612.185 6L613.469 6L613.469 6L613.469 6.15586C 613.139 6.19219 613.085 6.22813 613.085 6.60586L613.085 6.60586L613.085 7.77617C 613.085 7.88984 613.079 7.95586 613.067 8.028131C 613.295 8.21992 613.523 8.33984 613.739 8.33984C 614.117 8.33984 614.267 8.069921 614.267 7.64414L614.267 7.64414L614.267 6.64219C 614.267 6.21602 614.201 6.19219 613.847 6.15586L613.847 6.15586L613.847 6z" stroke="#000000" stroke-width="0.4" fill="none" /><path id="1048" transform="matrix(1 0 0 -1 0 834)" d="M615.947 5.92813C 616.139 5.92813 616.283 6.06602 616.283 6.27617C 616.283 6.46797 616.139 6.61797 615.947 6.61797C 615.755 6.61797 615.611 6.46797 615.611 6.27617C 615.611 6.06602 615.755 5.92813 615.947 5.92813z" stroke="#000000" stroke-width="0.4" fill="none" /></g></g></svg>