<svg xmlns="http://www.w3.org/2000/svg" xmlns:xlink="http://www.w3.org/1999/xlink" id="body_1" preserveAspectRatio="xMinYMin meet" viewBox="0 0 872 1112"><defs><clipPath id="1"><path id="" clip-rule="evenodd" transform="matrix(1 0 0 1 0 0)" d="M0 834L0 0L0 0L654 0L654 0L654 834L654 834L0 834z" /></clipPath><clipPath id="2"><path id="" clip-rule="evenodd" transform="matrix(1 0 0 1 0 0)" d="M21 813L633 813L633 813L633 21L633 21L21 21z" /></clipPath><clipPath id="3"><path id="" clip-rule="evenodd" transform="matrix(1 0 0 1 0 0)" d="M175.595 481.168L270.2911 481.168L270.2911 481.168L270.2911 352.059L270.2911 352.059L175.595 352.059z" /></clipPath><clipPath id="4"><path id="" clip-rule="evenodd" transform="matrix(1 0 0 1 0 0)" d="M175.595 481.168L270.2911 481.168L270.2911 481.168L270.2911 352.059L270.2911 352.059L175.595 352.059z" /></clipPath><clipPath id="5"><path id="" clip-rule="evenodd" transform="matrix(1 0 0 1 0 0)" d="M175.594 481.942L312.428 481.942L312.428 481.942L312.428 352.058L312.428 352.058L175.594 352.058z" /></clipPath><clipPath id="6"><path id="" clip-rule="evenodd" transform="matrix(1 0 0 1 0 0)" d="M276.478 419.741C 261.463 421.88 249.917 434.791 249.917 450.398L249.917 450.398L249.917 450.398C 249.917 467.502 263.782 481.367 280.885 481.367L280.885 481.367L280.885 481.367C 297.988 481.367 311.854 467.502 311.854 450.398L311.854 450.398L311.854 450.398C 311.854 434.791 300.308 421.88 285.292 419.741L285.292 419.741L285.292 419.741z" /></clipPath><clipPath id="7"><path id="" clip-rule="evenodd" transform="matrix(1 0 0 1 0 0)" d="M276.478 419.741C 261.463 421.88 249.917 434.791 249.917 450.398L249.917 450.398L249.917 450.398C 249.917 467.502 263.782 481.367 280.885 481.367L280.885 481.367L280.885 481.367C 297.988 481.367 311.854 467.502 311.854 450.398L311.854 450.398L311.854 450.398C 311.854 434.791 300.308 421.88 285.292 419.741L285.292 419.741L285.292 419.741z" /></clipPath><clipPath id="8"><path id="" clip-rule="evenodd" transform="matrix(1 0 0 1 0 0)" d="M175.594 481.942L312.428 481.942L312.428 481.942L312.428 352.058L312.428 352.058L175.594 352.058z" /></clipPath><clipPath id="9"><path id="" clip-rule="evenodd" transform="matrix(1 0 0 1 0 0)" d="M355.84 388.594L392.69 388.594L392.69 388.594L392.69 332.2979L392.69 332.2979L355.84 332.2979z" /></clipPath><clipPath id="10"><path id="" clip-rule="evenodd" transform="matrix(1 0 0 1 0 0)" d="M355.84 388.594L392.69 388.594L392.69 388.594L392.69 332.2979L392.69 332.2979L355.84 332.2979z" /></clipPath><clipPath id="11"><path id="" clip-rule="evenodd" transform="matrix(1 0 0 1 0 0)" d="M118.295 413.923L143.8923 413.923L143.8923 413.923L143.8923 378.064L143.8923 378.064L118.295 378.064z" /></clipPath><clipPath id="12"><path id="" clip-rule="evenodd" transform="matrix(1 0 0 1 0 0)" d="M118.295 413.923L143.8923 413.923L143.8923 413.923L143.8923 378.064L143.8923 378.064L118.295 378.064z" /></clipPath><clipPath id="13"><path id="" clip-rule="evenodd" transform="matrix(1 0 0 1 0 0)" d="M115.602 449.781L146.584 449.781L146.584 449.781L146.584 413.9232L146.584 413.9232L115.602 413.9232z" /></clipPath><clipPath id="14"><path id="" clip-rule="evenodd" transform="matrix(1 0 0 1 0 0)" d="M115.602 449.781L146.584 449.781L146.584 449.781L146.584 413.9232L146.584 413.9232L115.602 413.9232z" /></clipPath><clipPath id="15"><path id="" clip-rule="evenodd" transform="matrix(1 0 0 1 0 0)" d="M318.521 449.781L349.5038 449.781L349.5038 449.781L349.5038 413.9232L349.5038 413.9232L318.521 413.9232z" /></clipPath><clipPath id="16"><path id="" clip-rule="evenodd" transform="matrix(1 0 0 1 0 0)" d="M318.521 449.781L349.5038 449.781L349.5038 449.781L349.5038 413.9232L349.5038 413.9232L318.521 413.9232z" /></clipPath><clipPath id="17"><path id="" clip-rule="evenodd" transform="matrix(1 0 0 1 0 0)" d="M321.781 413.923L347.3783 413.923L347.3783 413.923L347.3783 378.064L347.3783 378.064L321.781 378.064z" /></clipPath><clipPath id="18"><path id="" clip-rule="evenodd" transform="matrix(1 0 0 1 0 0)" d="M321.781 413.923L347.3783 413.923L347.3783 413.923L347.3783 378.064L347.3783 378.064L321.781 378.064z" /></clipPath><clipPath id="19"><path id="" clip-rule="evenodd" transform="matrix(1 0 0 1 0 0)" d="M189.788 705.567L320.539 705.567L320.539 705.567L320.539 571.488L320.539 571.488L189.788 571.488z" /></clipPath><clipPath id="20"><path id="" clip-rule="evenodd" transform="matrix(1 0 0 1 0 0)" d="M189.788 705.567L320.539 705.567L320.539 705.567L320.539 571.488L320.539 571.488L189.788 571.488z" /></clipPath><clipPath id="21"><path id="" clip-rule="evenodd" transform="matrix(1 0 0 1 0 0)" d="M189.788 705.567L320.539 705.567L320.539 705.567L320.539 571.488L320.539 571.488L189.788 571.488z" /></clipPath><clipPath id="22"><path id="" clip-rule="evenodd" transform="matrix(1 0 0 1 0 0)" d="M267.641 678.805C 267.641 693.24 279.343 704.941 293.778 704.941L293.778 704.941L293.778 704.941C 304.348 704.941 313.454 698.665 317.57 689.636L317.57 689.636L317.57 689.636L317.57 689.636L317.57 667.973C 313.454 658.945 304.348 652.669 293.778 652.669L293.778 652.669L293.778 652.669C 279.343 652.669 267.641 664.371 267.641 678.805" /></clipPath><clipPath id="23"><path id="" clip-rule="evenodd" transform="matrix(1 0 0 1 0 0)" d="M267.641 678.805C 267.641 693.24 279.343 704.941 293.778 704.941L293.778 704.941L293.778 704.941C 304.348 704.941 313.454 698.665 317.57 689.636L317.57 689.636L317.57 689.636L317.57 689.636L317.57 667.973C 313.454 658.945 304.348 652.669 293.778 652.669L293.778 652.669L293.778 652.669C 279.343 652.669 267.641 664.371 267.641 678.805" /></clipPath><clipPath id="24"><path id="" clip-rule="evenodd" transform="matrix(1 0 0 1 0 0)" d="M189.788 705.567L320.539 705.567L320.539 705.567L320.539 571.488L320.539 571.488L189.788 571.488z" /></clipPath><clipPath id="25"><path id="" clip-rule="evenodd" transform="matrix(1 0 0 1 0 0)" d="M356.264 608.563L393.096 608.563L393.096 608.563L393.096 552.2673L393.096 552.2673L356.264 552.2673z" /></clipPath><clipPath id="26"><path id="" clip-rule="evenodd" transform="matrix(1 0 0 1 0 0)" d="M356.264 608.563L393.096 608.563L393.096 608.563L393.096 552.2673L393.096 552.2673L356.264 552.2673z" /></clipPath><clipPath id="27"><path id="" clip-rule="evenodd" transform="matrix(1 0 0 1 0 0)" d="M154.158 628.89L179.7553 628.89L179.7553 628.89L179.7553 593.031L179.7553 593.031L154.158 593.031z" /></clipPath><clipPath id="28"><path id="" clip-rule="evenodd" transform="matrix(1 0 0 1 0 0)" d="M154.158 628.89L179.7553 628.89L179.7553 628.89L179.7553 593.031L179.7553 593.031L154.158 593.031z" /></clipPath><clipPath id="29"><path id="" clip-rule="evenodd" transform="matrix(1 0 0 1 0 0)" d="M154.158 693.378L179.7553 693.378L179.7553 693.378L179.7553 657.5198L179.7553 657.5198L154.158 657.5198z" /></clipPath><clipPath id="30"><path id="" clip-rule="evenodd" transform="matrix(1 0 0 1 0 0)" d="M154.158 693.378L179.7553 693.378L179.7553 693.378L179.7553 657.5198L179.7553 657.5198L154.158 657.5198z" /></clipPath><clipPath id="31"><path id="" clip-rule="evenodd" transform="matrix(1 0 0 1 0 0)" d="M301.895 628.89L327.4923 628.89L327.4923 628.89L327.4923 593.031L327.4923 593.031L301.895 593.031z" /></clipPath><clipPath id="32"><path id="" clip-rule="evenodd" transform="matrix(1 0 0 1 0 0)" d="M301.895 628.89L327.4923 628.89L327.4923 628.89L327.4923 593.031L327.4923 593.031L301.895 593.031z" /></clipPath><clipPath id="33"><path id="" clip-rule="evenodd" transform="matrix(1 0 0 1 0 0)" d="M168.369 261.449L364.054 261.449L364.054 261.449L364.054 140.339L364.054 140.339L168.369 140.339z" /></clipPath><clipPath id="34"><path id="" clip-rule="evenodd" transform="matrix(1 0 0 1 0 0)" d="M168.369 261.449L364.054 261.449L364.054 261.449L364.054 140.339L364.054 140.339L168.369 140.339z" /></clipPath><clipPath id="35"><path id="" clip-rule="evenodd" transform="matrix(1 0 0 1 0 0)" d="M229.123 241.655C 229.123 252.093 237.585 260.555 248.022 260.555L248.022 260.555L248.022 260.555C 258.46 260.555 266.922 252.093 266.922 241.655L266.922 241.655L266.922 241.655C 266.922 231.218 258.46 222.756 248.022 222.756L248.022 222.756L248.022 222.756C 237.585 222.756 229.123 231.218 229.123 241.655" /></clipPath><clipPath id="36"><path id="" clip-rule="evenodd" transform="matrix(1 0 0 1 0 0)" d="M229.123 241.655C 229.123 252.093 237.585 260.555 248.022 260.555L248.022 260.555L248.022 260.555C 258.46 260.555 266.922 252.093 266.922 241.655L266.922 241.655L266.922 241.655C 266.922 231.218 258.46 222.756 248.022 222.756L248.022 222.756L248.022 222.756C 237.585 222.756 229.123 231.218 229.123 241.655" /></clipPath><clipPath id="37"><path id="" clip-rule="evenodd" transform="matrix(1 0 0 1 0 0)" d="M168.369 261.449L364.054 261.449L364.054 261.449L364.054 140.339L364.054 140.339L168.369 140.339z" /></clipPath><clipPath id="38"><path id="" clip-rule="evenodd" transform="matrix(1 0 0 1 0 0)" d="M168.369 261.449L364.054 261.449L364.054 261.449L364.054 140.339L364.054 140.339L168.369 140.339z" /></clipPath><clipPath id="39"><path id="" clip-rule="evenodd" transform="matrix(1 0 0 1 0 0)" d="M324.482 240.021L324.482 242.673C 325.164 252.833 333.621 260.864 343.953 260.864L343.953 260.864L343.953 260.864C 354.732 260.864 363.469 252.126 363.469 241.347L363.469 241.347L363.469 241.347C 363.469 230.569 354.732 221.831 343.953 221.831L343.953 221.831L343.953 221.831C 333.621 221.831 325.164 229.862 324.482 240.021" /></clipPath><clipPath id="40"><path id="" clip-rule="evenodd" transform="matrix(1 0 0 1 0 0)" d="M324.482 240.021L324.482 242.673C 325.164 252.833 333.621 260.864 343.953 260.864L343.953 260.864L343.953 260.864C 354.732 260.864 363.469 252.126 363.469 241.347L363.469 241.347L363.469 241.347C 363.469 230.569 354.732 221.831 343.953 221.831L343.953 221.831L343.953 221.831C 333.621 221.831 325.164 229.862 324.482 240.021" /></clipPath><clipPath id="41"><path id="" clip-rule="evenodd" transform="matrix(1 0 0 1 0 0)" d="M168.369 261.449L364.054 261.449L364.054 261.449L364.054 140.339L364.054 140.339L168.369 140.339z" /></clipPath><clipPath id="42"><path id="" clip-rule="evenodd" transform="matrix(1 0 0 1 0 0)" d="M168.369 261.449L364.054 261.449L364.054 261.449L364.054 140.339L364.054 140.339L168.369 140.339z" /></clipPath><clipPath id="43"><path id="" clip-rule="evenodd" transform="matrix(1 0 0 1 0 0)" d="M360.375 167.775L388.7211 167.775L388.7211 167.775L388.7211 110.8578L388.7211 110.8578L360.375 110.8578z" /></clipPath><clipPath id="44"><path id="" clip-rule="evenodd" transform="matrix(1 0 0 1 0 0)" d="M360.375 167.775L388.7211 167.775L388.7211 167.775L388.7211 110.8578L388.7211 110.8578L360.375 110.8578z" /></clipPath><clipPath id="45"><path id="" clip-rule="evenodd" transform="matrix(1 0 0 1 0 0)" d="M140.892 175.175L166.4889 175.175L166.4889 175.175L166.4889 139.3172L166.4889 139.3172L140.892 139.3172z" /></clipPath><clipPath id="46"><path id="" clip-rule="evenodd" transform="matrix(1 0 0 1 0 0)" d="M140.892 175.175L166.4889 175.175L166.4889 175.175L166.4889 139.3172L166.4889 139.3172L140.892 139.3172z" /></clipPath><clipPath id="47"><path id="" clip-rule="evenodd" transform="matrix(1 0 0 1 0 0)" d="M248.203 175.175L273.7987 175.175L273.7987 175.175L273.7987 139.3172L273.7987 139.3172L248.203 139.3172z" /></clipPath><clipPath id="48"><path id="" clip-rule="evenodd" transform="matrix(1 0 0 1 0 0)" d="M248.203 175.175L273.7987 175.175L273.7987 175.175L273.7987 139.3172L273.7987 139.3172L248.203 139.3172z" /></clipPath><clipPath id="49"><path id="" clip-rule="evenodd" transform="matrix(1 0 0 1 0 0)" d="M222.606 175.175L248.2033 175.175L248.2033 175.175L248.2033 139.3172L248.2033 139.3172L222.606 139.3172z" /></clipPath><clipPath id="50"><path id="" clip-rule="evenodd" transform="matrix(1 0 0 1 0 0)" d="M222.606 175.175L248.2033 175.175L248.2033 175.175L248.2033 139.3172L248.2033 139.3172L222.606 139.3172z" /></clipPath></defs><g transform="matrix(1.333333 0 0 1.333333 0 0)"><g clip-path="url(#1)"><g clip-path="url(#2)"><path id="1" transform="matrix(1 0 0 -1 0 834)" d="M91.866 67.4211L562.134 67.4211L562.134 74.92501L91.866 74.92501z" stroke="none" fill="#686868" fill-rule="nonzero" /><path id="2" transform="matrix(1 0 0 -1 0 834)" d="M93.118 525.472L563.386 525.472" stroke="#686868" stroke-width="1" fill="none" /><path id="3" transform="matrix(1 0 0 -1 0 834)" d="M93.118 305.504L563.386 305.504" stroke="#686868" stroke-width="1" fill="none" /></g><g clip-path="url(#3)"></g><g clip-path="url(#4)"><g transform="matrix(1.007406 0 0 1.00203 175.595 348.9)"><g transform="matrix(1 0 0 1 0 0)"><image x="0" y="0" xlink:href="img_01.png" width="94" height="132" /></g></g></g><g clip-path="url(#5)"><path id="8" transform="matrix(1 0 0 -1 0 834)" d="M247.546 424.65C 247.384 424.108 247.691 423.537 248.233 423.374C 248.776 423.212 249.347 423.52 249.509 424.062C 249.671 424.604 249.364 425.175 248.821 425.338C 248.279 425.5 247.708 425.192 247.546 424.65" stroke="none" fill="#FFFFFF" fill-rule="nonzero" /><path id="9" transform="matrix(1 0 0 -1 0 834)" d="M247.208 425.562L244.909 428.854L245.546 428.989L243.76 430.114L244.201 428.049L244.546 428.601L246.845 425.309" stroke="none" fill="#FFFFFF" fill-rule="nonzero" /><path id="10" transform="matrix(1 0 0 -1 0 834)" d="M248.593 425.852L248.345 430.878L248.956 430.653L248.041 432.556L247.317 430.573L247.903 430.856L248.15 425.83" stroke="none" fill="#FFFFFF" fill-rule="nonzero" /><path id="11" transform="matrix(1 0 0 -1 0 834)" d="M253.289 430.14L253.632 432.223L251.9 431.015L252.543 430.911L249.3 425.764L249.675 425.528L252.918 430.675" stroke="none" fill="#FFFFFF" fill-rule="nonzero" /><path id="12" transform="matrix(1 0 0 -1 0 834)" d="M255.807 427.593L253.699 427.481L254.189 427.053L249.917 424.978L250.111 424.579L254.383 426.655L254.416 426.005" stroke="none" fill="#FFFFFF" fill-rule="nonzero" /><path id="13" transform="matrix(1 0 0 -1 0 834)" d="M194.873 426.82C 194.711 426.278 195.018 425.707 195.56 425.544C 196.103 425.382 196.674 425.69 196.836 426.232C 196.998 426.774 196.691 427.345 196.149 427.508C 195.606 427.67 195.035 427.362 194.873 426.82" stroke="none" fill="#FFFFFF" fill-rule="nonzero" /><path id="14" transform="matrix(1 0 0 -1 0 834)" d="M194.534 427.732L192.235 431.024L192.872 431.159L191.086 432.284L191.527 430.219L191.872 430.771L194.171 427.479" stroke="none" fill="#FFFFFF" fill-rule="nonzero" /><path id="15" transform="matrix(1 0 0 -1 0 834)" d="M195.919 428.022L195.671 433.048L196.282 432.823L195.367 434.726L194.643 432.743L195.229 433.026L195.476 428" stroke="none" fill="#FFFFFF" fill-rule="nonzero" /><path id="16" transform="matrix(1 0 0 -1 0 834)" d="M200.615 432.31L200.958 434.393L199.226 433.185L199.869 433.081L196.626 427.934L197.001 427.698L200.244 432.845" stroke="none" fill="#FFFFFF" fill-rule="nonzero" /><path id="17" transform="matrix(1 0 0 -1 0 834)" d="M203.133 429.763L201.025 429.651L201.515 429.223L197.243 427.148L197.437 426.749L201.709 428.825L201.742 428.175" stroke="none" fill="#FFFFFF" fill-rule="nonzero" /><path id="18" transform="matrix(1 0 0 -1 0 834)" d="M249.917 383.602C 249.917 366.499 263.782 352.634 280.886 352.634C 297.989 352.634 311.854 366.499 311.854 383.602C 311.854 400.705 297.989 414.571 280.886 414.571C 263.782 414.571 249.917 400.705 249.917 383.602" stroke="none" fill="#FFFFFF" fill-rule="nonzero" /></g><g clip-path="url(#6)"></g><g clip-path="url(#7)"><g transform="matrix(1.007481 0 0 1.006943 247.191 419.7406)"><g transform="matrix(1 0 0 1 0 0)"><image x="0" y="0" xlink:href="img_02.png" width="65" height="81" /></g></g></g><g clip-path="url(#8)"><path id="20" transform="matrix(1 0 0 -1 0 834)" d="M249.917 383.602C 249.917 366.499 263.782 352.634 280.886 352.634C 297.989 352.634 311.854 366.499 311.854 383.602C 311.854 400.705 297.989 414.571 280.886 414.571C 263.782 414.571 249.917 400.705 249.917 383.602z" stroke="#000000" stroke-width="0.639" fill="none" /></g><g clip-path="url(#9)"></g><g clip-path="url(#10)"><g transform="matrix(0.9959568 0 0 1.005773 355.84 332.2977)"><g transform="matrix(1 0 0 1 0 0)"><image x="0" y="0" xlink:href="img_03.png" width="37" height="56" /></g></g></g><g clip-path="url(#11)"></g><g clip-path="url(#12)"><g transform="matrix(1.022789 0 0 0.9973868 117.278 377.0433)"><g transform="matrix(1 0 0 1 0 0)"><image x="0" y="0" xlink:href="img_04.png" width="27" height="38" /></g></g></g><g clip-path="url(#13)"></g><g clip-path="url(#14)"><g transform="matrix(0.9998273 0 0 0.9967948 114.598 412.9078)"><g transform="matrix(1 0 0 1 0 0)"><image x="0" y="0" xlink:href="img_05.png" width="33" height="38" /></g></g></g><g clip-path="url(#15)"></g><g clip-path="url(#16)"><g transform="matrix(-0.9998273 0 0 0.9967948 350.507 412.9078)"><g transform="matrix(1 0 0 1 0 0)"><image x="0" y="0" xlink:href="img_05.png" width="33" height="38" /></g></g></g><g clip-path="url(#17)"></g><g clip-path="url(#18)"><g transform="matrix(-1.022789 0 0 0.9973868 348.395 377.0433)"><g transform="matrix(1 0 0 1 0 0)"><image x="0" y="0" xlink:href="img_04.png" width="27" height="38" /></g></g></g><g clip-path="url(#19)"><path id="366" transform="matrix(1 0 0 -1 0 834)" d="M208.566 225.594C 206.537 225.594 204.892 223.95 204.892 221.92C 204.892 219.891 206.537 218.246 208.566 218.246C 210.595 218.246 212.24 219.891 212.24 221.92C 212.24 223.95 210.595 225.594 208.566 225.594M208.566 218.693C 206.795 218.693 205.359 220.129 205.359 221.9C 205.359 223.671 206.795 225.107 208.566 225.107C 210.337 225.107 211.773 223.671 211.773 221.9C 211.773 220.129 210.337 218.693 208.566 218.693" stroke="none" fill="#000000" fill-rule="nonzero" /></g><g><g transform="matrix(1 0 0 1 206.848 608.067)"><path id="367" transform="matrix(1 0 0 1 0 0)" d="M1.435741 6.084L2.33022 6.084L2.33022 2.1294L1.563778 2.1294L0.5171994 2.616001L0.6692994 3.30966L1.423858 2.950799L1.436038 2.950799L1.435741 6.084zM1.435741 6.084z" stroke="none" fill="#000000" fill-rule="evenodd" /></g><g transform="matrix(0.9992303 0 0 1.003474 189.788 571.489)"><g transform="matrix(1 0 0 1 0 0)"><image x="0" y="0" xlink:href="img_06.png" width="96" height="133" /></g></g></g><g clip-path="url(#20)"><path id="369" transform="matrix(1 0 0 -1 0 834)" d="M237.751 185.502C 237.751 185.502 227.435 160.286 256.048 153.979" stroke="#FFFFFF" stroke-width="1.39" fill="none" /></g><path id="370" transform="matrix(1 0 0 -1 0 834)" d="M253.664 151.833L255.21 154.164L254.605 156.894L260.134 153.249z" stroke="none" fill="#FFFFFF" fill-rule="nonzero" /><g clip-path="url(#21)"><path id="371" transform="matrix(1 0 0 -1 0 834)" d="M267.641 155.195C 267.641 140.76 279.343 129.059 293.777 129.059C 308.212 129.059 319.914 140.76 319.914 155.195C 319.914 169.63 308.212 181.331 293.777 181.331C 279.343 181.331 267.641 169.63 267.641 155.195" stroke="none" fill="#FFFFFF" fill-rule="nonzero" /></g><g clip-path="url(#22)"></g><g clip-path="url(#23)"><g transform="matrix(1.00301 0 0 1.006052 255.384 622.8425)"><g transform="matrix(1 0 0 1 0 0)"><image x="0" y="0" xlink:href="img_07.png" width="62" height="86" /></g></g></g><g clip-path="url(#24)"><path id="373" transform="matrix(1 0 0 -1 0 834)" d="M267.641 155.195C 267.641 140.76 279.343 129.059 293.777 129.059C 308.212 129.059 319.914 140.76 319.914 155.195C 319.914 169.63 308.212 181.331 293.777 181.331C 279.343 181.331 267.641 169.63 267.641 155.195z" stroke="#000000" stroke-width="0.695" fill="none" /><path id="374" transform="matrix(1 0 0 -1 0 834)" d="M294.786 146.198C 294.425 146.367 293.995 146.211 293.825 145.85C 293.656 145.488 293.812 145.058 294.173 144.889C 294.535 144.72 294.965 144.876 295.134 145.237C 295.303 145.599 295.148 146.029 294.786 146.198" stroke="none" fill="#FFFFFF" fill-rule="nonzero" /><path id="375" transform="matrix(1 0 0 -1 0 834)" d="M295.457 146.34L297.991 147.604L298.019 147.146L298.988 148.276L297.502 148.182L297.852 147.884L295.318 146.62" stroke="none" fill="#FFFFFF" fill-rule="nonzero" /><path id="376" transform="matrix(1 0 0 -1 0 834)" d="M295.517 145.344L299.049 144.998L298.829 144.595L300.251 145.038L298.942 145.747L299.079 145.31L295.547 145.655" stroke="none" fill="#FFFFFF" fill-rule="nonzero" /><path id="377" transform="matrix(1 0 0 -1 0 834)" d="M298.024 141.626L299.442 141.172L298.777 142.504L298.639 142.067L295.382 144.861L295.179 144.623L298.435 141.83" stroke="none" fill="#FFFFFF" fill-rule="nonzero" /><path id="378" transform="matrix(1 0 0 -1 0 834)" d="M295.987 140.132L296.126 141.614L295.777 141.316L294.77 144.511L294.472 144.417L295.479 141.222L295.022 141.266" stroke="none" fill="#FFFFFF" fill-rule="nonzero" /><path id="379" transform="matrix(1 0 0 -1 0 834)" d="M277.774 169.375C 275.745 169.375 274.1 167.73 274.1 165.701C 274.1 163.672 275.745 162.027 277.774 162.027C 279.803 162.027 281.448 163.672 281.448 165.701C 281.448 167.73 279.803 169.375 277.774 169.375M277.774 162.474C 276.003 162.474 274.567 163.91 274.567 165.681C 274.567 167.452 276.003 168.888 277.774 168.888C 279.545 168.888 280.981 167.452 280.981 165.681C 280.981 163.91 279.545 162.474 277.774 162.474" stroke="none" fill="#FFFFFF" fill-rule="nonzero" /></g><g clip-path="url(#25)"></g><g clip-path="url(#26)"><g transform="matrix(0.995473 0 0 1.005286 356.264 552.266)"><g transform="matrix(1 0 0 1 0 0)"><image x="0" y="0" xlink:href="img_08.png" width="37" height="56" /></g></g></g><g clip-path="url(#27)"></g><g clip-path="url(#28)"><g transform="matrix(1.022789 0 0 0.9973868 153.141 592.0103)"><g transform="matrix(1 0 0 1 0 0)"><image x="0" y="0" xlink:href="img_09.png" width="27" height="38" /></g></g></g><g clip-path="url(#29)"></g><g clip-path="url(#30)"><g transform="matrix(1.022789 0 0 0.9967948 153.157 656.5098)"><g transform="matrix(1 0 0 1 0 0)"><image x="0" y="0" xlink:href="img_10.png" width="27" height="38" /></g></g></g><g clip-path="url(#31)"></g><g clip-path="url(#32)"><g transform="matrix(-1.022789 0 0 0.9967948 328.508 592.0248)"><g transform="matrix(1 0 0 1 0 0)"><image x="0" y="0" xlink:href="img_11.png" width="27" height="38" /></g></g></g><g transform="matrix(0.9971679 0 0 0.9992334 168.369 140.647)"><g transform="matrix(1 0 0 1 0 0)"><image x="0" y="0" xlink:href="img_12.png" width="84" height="120" /></g></g><g transform="matrix(1.008415 0 0 0.9992334 269.141 140.339)"><g transform="matrix(1 0 0 1 0 0)"><image x="0" y="0" xlink:href="img_13.png" width="71" height="120" /></g></g><g clip-path="url(#33)"><path id="967" transform="matrix(1 0 0 -1 0 834)" d="M197.984 650.152C 205.651 647.392 215.587 641.413 218.453 628.665" stroke="#FFFFFF" stroke-width="1.3" fill="none" /></g><path id="968" transform="matrix(1 0 0 -1 0 834)" d="M215.729 630.048L218.276 629.449L220.475 630.866L219.071 624.832z" stroke="none" fill="#FFFFFF" fill-rule="nonzero" /><g clip-path="url(#34)"><path id="969" transform="matrix(1 0 0 -1 0 834)" d="M188.421 652.433C 188.421 652.433 192.654 652.07 197.983 650.152" stroke="#000000" stroke-width="1.3" fill="none" /><path id="970" transform="matrix(1 0 0 -1 0 834)" d="M229.123 592.344C 229.123 581.906 237.585 573.444 248.023 573.444C 258.461 573.444 266.922 581.906 266.922 592.344C 266.922 602.782 258.461 611.244 248.023 611.244C 237.585 611.244 229.123 602.782 229.123 592.344" stroke="none" fill="#FFFFFF" fill-rule="nonzero" /></g><g clip-path="url(#35)"></g><g clip-path="url(#36)"><g transform="matrix(0.9993082 0 0 1.001774 208.76 188.4678)"><g transform="matrix(1 0 0 1 0 0)"><image x="0" y="0" xlink:href="img_14.png" width="73" height="97" /></g></g></g><g clip-path="url(#37)"><path id="972" transform="matrix(1 0 0 -1 0 834)" d="M229.123 592.344C 229.123 581.906 237.585 573.444 248.023 573.444C 258.461 573.444 266.922 581.906 266.922 592.344C 266.922 602.782 258.461 611.244 248.023 611.244C 237.585 611.244 229.123 602.782 229.123 592.344z" stroke="#000000" stroke-width="0.65" fill="none" /></g><path id="973" transform="matrix(1 0 0 -1 0 834)" d="M289.732 632.872L288.69 636.239L285.273 636.477L284.069 633.273L280.251 634.094L286.587 628.272L293.67 633.158" stroke="none" fill="#FFFFFF" fill-rule="nonzero" /><g clip-path="url(#38)"><path id="974" transform="matrix(1 0 0 -1 0 834)" d="M324.437 592.653C 324.437 581.875 333.174 573.137 343.953 573.137C 354.732 573.137 363.469 581.875 363.469 592.653C 363.469 603.431 354.732 612.169 343.953 612.169C 333.174 612.169 324.437 603.431 324.437 592.653" stroke="none" fill="#FFFFFF" fill-rule="nonzero" /></g><g clip-path="url(#39)"></g><g clip-path="url(#40)"><g transform="matrix(1.008265 0 0 0.9971747 324.482 198.1779)"><g transform="matrix(1 0 0 1 0 0)"><image x="0" y="0" xlink:href="img_15.png" width="43" height="75" /></g></g></g><g clip-path="url(#41)"><path id="976" transform="matrix(1 0 0 -1 0 834)" d="M324.437 592.653C 324.437 581.875 333.174 573.137 343.953 573.137C 354.732 573.137 363.469 581.875 363.469 592.653C 363.469 603.431 354.732 612.169 343.953 612.169C 333.174 612.169 324.437 603.431 324.437 592.653z" stroke="#000000" stroke-width="0.65" fill="none" /><path id="977" transform="matrix(1 0 0 -1 0 834)" d="M184.985 669.129C 183.087 669.129 181.548 667.59 181.548 665.692C 181.548 663.794 183.087 662.255 184.985 662.255C 186.883 662.255 188.422 663.794 188.422 665.692C 188.422 667.59 186.883 669.129 184.985 669.129M184.985 662.673C 183.328 662.673 181.985 664.0161 181.985 665.673C 181.985 667.33 183.328 668.673 184.985 668.673C 186.642 668.673 187.985 667.33 187.985 665.673C 187.985 664.0161 186.642 662.673 184.985 662.673" stroke="none" fill="#000000" fill-rule="nonzero" /></g><g clip-path="url(#42)"><path id="979" transform="matrix(1 0 0 -1 0 834)" d="M277.774 669.128C 275.876 669.128 274.337 667.59 274.337 665.692C 274.337 663.794 275.876 662.255 277.774 662.255C 279.672 662.255 281.21 663.794 281.21 665.692C 281.21 667.59 279.672 669.128 277.774 669.128M277.774 662.673C 276.117 662.673 274.774 664.0161 274.774 665.673C 274.774 667.33 276.117 668.673 277.774 668.673C 279.431 668.673 280.774 667.33 280.774 665.673C 280.774 664.0161 279.431 662.673 277.774 662.673" stroke="none" fill="#000000" fill-rule="nonzero" /></g><g clip-path="url(#43)"></g><g clip-path="url(#44)"><g transform="matrix(1.012375 0 0 1.001267 360.375 110.7688)"><g transform="matrix(1 0 0 1 0 0)"><image x="0" y="0" xlink:href="img_16.png" width="28" height="57" /></g></g></g><g clip-path="url(#45)"></g><g clip-path="url(#46)"><g transform="matrix(1.022789 0 0 0.9973868 139.874 138.2953)"><g transform="matrix(1 0 0 1 0 0)"><image x="0" y="0" xlink:href="img_04.png" width="27" height="38" /></g></g></g><g clip-path="url(#47)"></g><g clip-path="url(#48)"><g transform="matrix(1.022789 0 0 0.9967948 247.196 138.3148)"><g transform="matrix(1 0 0 1 0 0)"><image x="0" y="0" xlink:href="img_17.png" width="27" height="38" /></g></g></g><g clip-path="url(#49)"></g><g clip-path="url(#50)"><g transform="matrix(-1.022789 0 0 0.9967948 249.204 138.2978)"><g transform="matrix(1 0 0 1 0 0)"><image x="0" y="0" xlink:href="img_18.png" width="27" height="38" /></g></g></g><path id="1468" transform="matrix(1 0 0 -1 0 834)" d="M633 15L633 0M633 819L633 834M21 15L21 0M21 819L21 834M639 21L654 21M15 21L0 21M639 813L654 813M15 813L0 813" stroke="#000000" stroke-width="1.25" fill="none" /><path id="1469" transform="matrix(1 0 0 -1 0 834)" d="M633 15L633 0M633 819L633 834M21 15L21 0M21 819L21 834M639 21L654 21M15 21L0 21M639 813L654 813M15 813L0 813" stroke="#000000" stroke-width="0.25" fill="none" /><path id="1470" transform="matrix(1 0 0 -1 0 834)" d="M32.2781 9.28203C 32.2781 9.516021 32.2961 9.58203 32.3559 9.62383C 32.416 9.66602 32.5719 9.69609 32.8238 9.69609C 33.2262 9.69609 33.5738 9.62383 33.8441 9.45C 34.3238 9.167971 34.552 8.63398 34.552 8.016021C 34.552 7.05586 34.0359 6.21602 32.9141 6.21602C 32.4762 6.21602 32.2781 6.33008 32.2781 6.78594zM31.252 9.900001L31.252 9.726171C 31.7141 9.68984 31.7621 9.66602 31.7621 9.150001L31.7621 9.150001L31.7621 6.74414C 31.7621 6.23398 31.7141 6.19805 31.198 6.16211L31.198 6.16211L31.198 6L31.198 6L32.6199 6C 33.3578 6 33.952 6.15 34.402 6.49805C 34.8641 6.84609 35.1398 7.38008 35.1398 8.1C 35.1398 8.664061 34.9301 9.101951 34.6359 9.38984C 34.2641 9.74414 33.7 9.900001 32.9379 9.900001z" stroke="#000000" stroke-width="0.4" fill="none" /><path id="1471" transform="matrix(1 0 0 -1 0 834)" d="M38.3801 6.97813C 38.2898 6.70195 38.1758 6.51016 38.0738 6.38984C 37.9359 6.23398 37.732 6.20391 37.402 6.20391C 37.15 6.20391 36.9461 6.21602 36.8258 6.28203C 36.718 6.34219 36.6879 6.46211 36.6879 6.78594L36.6879 6.78594L36.6879 9.15586C 36.6879 9.66602 36.7418 9.69609 37.216 9.73203L37.216 9.73203L37.216 9.900001L37.216 9.900001L35.65 9.900001L35.65 9.900001L35.65 9.73203C 36.1359 9.69609 36.1777 9.66602 36.1777 9.15586L36.1777 9.15586L36.1777 6.75586C 36.1777 6.24609 36.1301 6.20391 35.6258 6.16797L35.6258 6.16797L35.6258 6L35.6258 6L38.3438 6C 38.398 6.18594 38.5238 6.75586 38.5598 6.94219z" stroke="#000000" stroke-width="0.4" fill="none" /><path id="1472" transform="matrix(1 0 0 -1 0 834)" d="M41.0918 9.023829C 41.0438 9.40195 41.0141 9.63594 40.9898 9.851951C 40.7617 9.92383 40.5098 9.989841 40.234 9.989841C 39.4598 9.989841 38.998 9.49805 38.998 8.921881C 38.998 8.24414 39.6039 7.94414 39.9879 7.73984C 40.4379 7.5 40.768 7.28984 40.768 6.84609C 40.768 6.40781 40.498 6.12617 40.048 6.12617C 39.4301 6.12617 39.1598 6.73203 39.0641 7.09805L39.0641 7.09805L38.8898 7.05586C 38.9258 6.767971 39.0039 6.25195 39.052 6.12617C 39.1059 6.09609 39.1961 6.05391 39.3461 6C 39.4961 5.95781 39.6879 5.91016 39.934 5.91016C 40.732 5.91016 41.266 6.41406 41.266 7.04414C 41.266 7.71602 40.6961 7.99805 40.2277 8.23789C 39.7539 8.48398 39.466 8.68789 39.466 9.12617C 39.466 9.45 39.6699 9.78594 40.132 9.78594C 40.6539 9.78594 40.8098 9.371881 40.918 8.98789z" stroke="#000000" stroke-width="0.4" fill="none" /><path id="1473" transform="matrix(1 0 0 -1 0 834)" d="M46.648 6L46.648 6.16797C 46.1258 6.21602 46.1078 6.24609 46.0898 6.88203L46.0898 6.88203L46.0301 9.05391C 46.0117 9.671881 46.0539 9.68398 46.582 9.73203L46.582 9.73203L46.582 9.900001L46.582 9.900001L45.5617 9.900001L45.5617 9.900001L44.1758 6.9L44.1758 6.9L42.8078 9.900001L42.8078 9.900001L41.8238 9.900001L41.8238 9.900001L41.8238 9.73203C 42.3699 9.67813 42.4 9.653911 42.3461 8.87383L42.3461 8.87383L42.2617 7.626171C 42.2141 7.00195 42.1777 6.73789 42.148 6.528131C 42.1059 6.27617 41.9859 6.21016 41.6379 6.16797L41.6379 6.16797L41.6379 6L41.6379 6L43.0359 6L43.0359 6L43.0359 6.16797C 42.6398 6.21016 42.4961 6.25195 42.484 6.53984C 42.4777 6.78008 42.4777 7.04414 42.502 7.53594L42.502 7.53594L42.5918 9.24609L42.5918 9.24609L42.6039 9.24609L42.6039 9.24609L43.948 6.04219L43.948 6.04219L44.068 6.04219L44.068 6.04219L45.532 9.33008L45.532 9.33008L45.5559 9.33008L45.5559 9.33008L45.5738 6.88203C 45.5801 6.24609 45.5559 6.21602 45.0699 6.16797L45.0699 6.16797L45.0699 6z" stroke="#000000" stroke-width="0.4" fill="none" /><path id="1474" transform="matrix(1 0 0 -1 0 834)" d="M51.8738 7.05586C 51.5738 6.45586 51.2496 6.12617 50.6379 6.12617C 49.7258 6.12617 49.0656 6.89414 49.0656 8.016021C 49.0656 8.92813 49.5996 9.773829 50.602 9.773829C 51.2496 9.773829 51.6098 9.516021 51.7656 8.88008L51.7656 8.88008L51.9457 8.921881C 51.9098 9.24609 51.8738 9.48594 51.8258 9.828131C 51.6578 9.85781 51.2496 9.989841 50.7637 9.989841C 49.4258 9.989841 48.4539 9.15586 48.4539 7.89609C 48.4539 6.94219 49.1078 5.91016 50.602 5.91016C 51.034 5.91016 51.5379 6.03008 51.7059 6.07188C 51.8137 6.26992 51.9637 6.71406 52.0477 6.98984z" stroke="#000000" stroke-width="0.4" fill="none" /><path id="1475" transform="matrix(1 0 0 -1 0 834)" d="M54.3398 9.773829C 55.1258 9.773829 55.7855 9.101951 55.7855 7.83594C 55.7855 6.68398 55.1855 6.12617 54.5195 6.12617C 53.6738 6.12617 53.0559 6.94805 53.0559 8.076171C 53.0559 9.19805 53.6676 9.773829 54.3398 9.773829zM54.4598 9.989841C 53.1996 9.989841 52.4438 8.98789 52.4438 7.90781C 52.4438 6.75586 53.3078 5.91016 54.3938 5.91016C 55.4918 5.91016 56.3977 6.70195 56.3977 7.99805C 56.3977 9.19805 55.4797 9.989841 54.4598 9.989841z" stroke="#000000" stroke-width="0.4" fill="none" /><path id="1476" transform="matrix(1 0 0 -1 0 834)" d="M61.8277 6L61.8277 6.16797C 61.3059 6.21602 61.2879 6.24609 61.2695 6.88203L61.2695 6.88203L61.2098 9.05391C 61.1918 9.671881 61.2336 9.68398 61.7617 9.73203L61.7617 9.73203L61.7617 9.900001L61.7617 9.900001L60.7418 9.900001L60.7418 9.900001L59.3559 6.9L59.3559 6.9L57.9879 9.900001L57.9879 9.900001L57.0035 9.900001L57.0035 9.900001L57.0035 9.73203C 57.5496 9.67813 57.5797 9.653911 57.5258 8.87383L57.5258 8.87383L57.4418 7.626171C 57.3938 7.00195 57.3578 6.73789 57.3277 6.528131C 57.2855 6.27617 57.1656 6.21016 56.8176 6.16797L56.8176 6.16797L56.8176 6L56.8176 6L58.2156 6L58.2156 6L58.2156 6.16797C 57.8195 6.21016 57.6758 6.25195 57.6637 6.53984C 57.6578 6.78008 57.6578 7.04414 57.6816 7.53594L57.6816 7.53594L57.7719 9.24609L57.7719 9.24609L57.7836 9.24609L57.7836 9.24609L59.1277 6.04219L59.1277 6.04219L59.2477 6.04219L59.2477 6.04219L60.7117 9.33008L60.7117 9.33008L60.7355 9.33008L60.7355 9.33008L60.7535 6.88203C 60.7598 6.24609 60.7355 6.21602 60.2496 6.16797L60.2496 6.16797L60.2496 6z" stroke="#000000" stroke-width="0.4" fill="none" /><path id="1477" transform="matrix(1 0 0 -1 0 834)" d="M63.8258 6L63.8258 6.16797C 63.3336 6.20391 63.2855 6.23398 63.2855 6.75L63.2855 6.75L63.2855 9.150001C 63.2855 9.66016 63.3336 9.69609 63.8258 9.73203L63.8258 9.73203L63.8258 9.900001L63.8258 9.900001L62.2355 9.900001L62.2355 9.900001L62.2355 9.73203C 62.7277 9.69609 62.7758 9.66016 62.7758 9.150001L62.7758 9.150001L62.7758 6.75C 62.7758 6.23984 62.7277 6.20391 62.2355 6.16797L62.2355 6.16797L62.2355 6z" stroke="#000000" stroke-width="0.4" fill="none" /><path id="1478" transform="matrix(1 0 0 -1 0 834)" d="M66.5074 9.023829C 66.4598 9.40195 66.4297 9.63594 66.4055 9.851951C 66.1777 9.92383 65.9258 9.989841 65.6496 9.989841C 64.8758 9.989841 64.4137 9.49805 64.4137 8.921881C 64.4137 8.24414 65.0195 7.94414 65.4035 7.73984C 65.8535 7.5 66.1836 7.28984 66.1836 6.84609C 66.1836 6.40781 65.9137 6.12617 65.46371 6.12617C 64.8457 6.12617 64.5758 6.73203 64.4797 7.09805L64.4797 7.09805L64.3055 7.05586C 64.3418 6.767971 64.4195 6.25195 64.46761 6.12617C 64.52151 6.09609 64.6117 6.05391 64.7617 6C 64.91171 5.95781 65.1035 5.91016 65.3496 5.91016C 66.1477 5.91016 66.6816 6.41406 66.6816 7.04414C 66.6816 7.71602 66.1117 7.99805 65.6438 8.23789C 65.1695 8.48398 64.8816 8.68789 64.8816 9.12617C 64.8816 9.45 65.0855 9.78594 65.5477 9.78594C 66.0695 9.78594 66.2258 9.371881 66.3336 8.98789z" stroke="#000000" stroke-width="0.4" fill="none" /><path id="1479" transform="matrix(1 0 0 -1 0 834)" d="M69.4055 7.68008L68.3016 7.68008C 68.4816 8.171881 68.6734 8.69414 68.8656 9.21016L68.8656 9.21016L68.8777 9.21016zM70.9355 6L70.9355 6.16797C 70.5457 6.20391 70.46761 6.25781 70.2758 6.77383C 69.89181 7.81797 69.4895 8.95781 69.11761 9.989841L69.11761 9.989841L68.9316 9.93594L68.9316 9.93594L67.68951 6.78594C 67.4797 6.25781 67.3957 6.22188 67.0176 6.16797L67.0176 6.16797L67.0176 6L67.0176 6L68.3195 6L68.3195 6L68.3195 6.16797C 67.8695 6.21016 67.81561 6.26992 67.9477 6.64805C 68.0258 6.9 68.1156 7.15195 68.2117 7.42188L68.2117 7.42188L69.4895 7.42188C 69.62151 7.05586 69.74181 6.73203 69.8195 6.49805C 69.8977 6.26406 69.8438 6.21602 69.4656 6.16797L69.4656 6.16797L69.4656 6z" stroke="#000000" stroke-width="0.4" fill="none" /><path id="1480" transform="matrix(1 0 0 -1 0 834)" d="M71.7273 5.92813C 71.9195 5.92813 72.06371 6.06602 72.06371 6.27617C 72.06371 6.46797 71.9195 6.61797 71.7273 6.61797C 71.5355 6.61797 71.3914 6.46797 71.3914 6.27617C 71.3914 6.06602 71.5355 5.92813 71.7273 5.92813z" stroke="#000000" stroke-width="0.4" fill="none" /><path id="1481" transform="matrix(1 0 0 -1 0 834)" d="M73.9234 6L73.9234 6.15586C 73.53951 6.19219 73.4977 6.22813 73.4977 6.63594L73.4977 6.63594L73.4977 8.70586C 73.2336 8.59805 72.9516 8.51992 72.6453 8.471881L72.6453 8.471881L72.6453 8.328131C 73.0055 8.26797 73.0234 8.24414 73.0234 7.871881L73.0234 7.871881L73.0234 6.63594C 73.0234 6.22813 72.9816 6.19219 72.6035 6.15586L72.6035 6.15586L72.6035 6zM73.2215 9.216021C 73.3953 9.216021 73.52731 9.36016 73.52731 9.52188C 73.52731 9.70195 73.3953 9.83398 73.2273 9.83398C 73.06561 9.83398 72.9215 9.70195 72.9215 9.52188C 72.9215 9.36016 73.06561 9.216021 73.2215 9.216021z" stroke="#000000" stroke-width="0.4" fill="none" /><path id="1482" transform="matrix(1 0 0 -1 0 834)" d="M77.1574 6L77.1574 6.15586C 76.8094 6.19219 76.7793 6.21602 76.7793 6.62383L76.7793 6.62383L76.7793 7.78203C 76.7793 8.36406 76.4793 8.69414 76.0055 8.69414C 75.8313 8.69414 75.67541 8.621881 75.5074 8.51406C 75.3574 8.41211 75.2254 8.32188 75.1055 8.23203L75.1055 8.23203L75.1055 8.712111C 74.8414 8.59219 74.5594 8.51992 74.27151 8.466021L74.27151 8.466021L74.27151 8.328131C 74.5953 8.26797 74.6313 8.25 74.6313 7.86602L74.6313 7.86602L74.6313 6.62383C 74.6313 6.22813 74.6016 6.19805 74.19341 6.15586L74.19341 6.15586L74.19341 6L74.19341 6L75.4953 6L75.4953 6L75.4953 6.15586C 75.1414 6.19219 75.1055 6.21602 75.1055 6.62383L75.1055 6.62383L75.1055 8.03398C 75.2855 8.18984 75.5195 8.33984 75.7594 8.33984C 76.1613 8.33984 76.3055 8.069921 76.3055 7.65586L76.3055 7.65586L76.3055 6.65391C 76.3055 6.23984 76.2633 6.19219 75.9094 6.15586L75.9094 6.15586L75.9094 6z" stroke="#000000" stroke-width="0.4" fill="none" /><path id="1483" transform="matrix(1 0 0 -1 0 834)" d="M79.4734 6.51016C 79.32931 6.40195 79.1133 6.30586 78.8973 6.30586C 78.5133 6.30586 78.0754 6.65391 78.0754 7.36797C 78.0754 8.23789 78.57931 8.471881 78.8555 8.471881C 79.0832 8.471881 79.32931 8.37617 79.4734 8.16602zM80.4035 6.30586L80.2113 6.32383C 79.9895 6.34805 79.9473 6.37813 79.9473 6.68984L79.9473 6.68984L79.9473 10.2719C 79.7254 10.1941 79.3234 10.1039 79.0113 10.0621L79.0113 10.0621L79.0113 9.917971C 79.44341 9.88789 79.4734 9.869921 79.4734 9.47383L79.4734 9.47383L79.4734 8.628131C 79.3355 8.67617 79.1613 8.69414 79.0773 8.69414C 78.2613 8.69414 77.5293 8.03984 77.5293 7.20586C 77.5293 6.36602 78.1594 5.92813 78.6395 5.92813C 78.7113 5.92813 78.87341 5.96406 79.1074 6.10195L79.1074 6.10195L79.4734 6.31797L79.4734 6.31797L79.4734 5.92813C 79.8215 6.05391 80.27151 6.13203 80.4035 6.15586z" stroke="#000000" stroke-width="0.4" fill="none" /><path id="1484" transform="matrix(1 0 0 -1 0 834)" d="M81.3813 8.24414C 81.4895 8.310161 81.6813 8.35781 81.84921 8.35781C 82.34731 8.35781 82.7676 7.96211 82.7676 7.278131C 82.7676 6.58203 82.4492 6.15586 81.9516 6.15586C 81.6336 6.16211 81.4535 6.37188 81.4176 6.49219C 81.3934 6.54609 81.3813 6.60586 81.3813 6.69609zM81.3813 8.42383L81.3813 10.2719C 81.1594 10.1941 80.7934 10.098 80.5113 10.0621L80.5113 10.0621L80.5113 9.92383C 80.8953 9.88789 80.9074 9.851951 80.9074 9.48008L80.9074 9.48008L80.9074 6.14414C 81.2375 5.98789 81.5434 5.92813 81.78951 5.92813C 82.59341 5.92813 83.2953 6.55195 83.2953 7.43398C 83.2953 8.14219 82.7555 8.69414 82.1133 8.69414C 82.0473 8.69414 81.9633 8.67617 81.86761 8.63398z" stroke="#000000" stroke-width="0.4" fill="none" /><path id="1485" transform="matrix(1 0 0 -1 0 834)" d="M89.2832 7.35L88.1012 7.35C 88.49731 8.016021 88.8871 8.58594 89.2711 9.119921L89.2711 9.119921L89.2832 9.119921zM90.3391 7.06797L90.3391 7.35L90.3391 7.35L89.7633 7.35L89.7633 7.35L89.7633 9.79219L89.7633 9.79219L89.523 9.79219C 88.90511 8.976171 88.2934 8.08789 87.723 7.23594L87.723 7.23594L87.723 7.06797L87.723 7.06797L89.2832 7.06797L89.2832 7.06797L89.2832 6.63594C 89.2832 6.23984 89.2594 6.20391 88.7371 6.16211L88.7371 6.16211L88.7371 6L88.7371 6L90.273 6L90.273 6L90.273 6.16211C 89.7871 6.20391 89.7633 6.23398 89.7633 6.63594L89.7633 6.63594L89.7633 7.06797z" stroke="#000000" stroke-width="0.4" fill="none" /><path id="1486" transform="matrix(1 0 0 -1 0 834)" d="M91.3953 9.3L92.7934 9.3L92.7934 9.3L92.9492 9.68984L92.9492 9.68984L92.9133 9.73789L92.9133 9.73789L91.2031 9.73789L91.2031 9.73789L90.9691 7.90781C 91.107 7.96211 91.3352 8.028131 91.5871 8.028131C 92.241 8.028131 92.5652 7.65 92.5652 7.121881C 92.5652 6.67188 92.3133 6.23398 91.8031 6.23398C 91.4371 6.23398 91.191 6.42617 91.0652 6.53984C 91.0051 6.58789 90.957 6.58203 90.9031 6.53984C 90.8371 6.48008 90.7832 6.40195 90.77731 6.34219C 90.7652 6.26992 90.7953 6.22188 90.873 6.13789C 90.9633 6.05391 91.2152 5.92813 91.491 5.92813C 91.8094 5.93398 92.2113 6.08984 92.5352 6.35391C 92.90121 6.65391 93.0691 6.99609 93.0691 7.35586C 93.0691 7.84805 92.67931 8.369921 91.9113 8.369921C 91.7492 8.369921 91.4672 8.273829 91.2391 8.18984z" stroke="#000000" stroke-width="0.4" fill="none" /><path id="1487" transform="matrix(1 0 0 -1 0 834)" d="M95.6672 6L95.6672 6.16211C 95.1211 6.20391 95.0852 6.25195 95.0852 6.68398L95.0852 6.68398L95.0852 9.810161C 94.7551 9.67813 94.40121 9.56406 94.0172 9.49805L94.0172 9.49805L94.0172 9.36016L94.0172 9.36016L94.30511 9.34805C 94.5691 9.33594 94.59341 9.305861 94.59341 8.99414L94.59341 8.99414L94.59341 6.68398C 94.59341 6.25195 94.5633 6.20391 94.0172 6.16211L94.0172 6.16211L94.0172 6z" stroke="#000000" stroke-width="0.4" fill="none" /><path id="1506" transform="matrix(1 0 0 -1 0 834)" d="M554.472 6.83984C 554.292 6.46211 554.2141 6.43789 553.89 6.43789L553.89 6.43789L552.768 6.43789L552.768 6.43789L553.6201 7.33203C 554.1721 7.91992 554.412 8.273829 554.412 8.79609C 554.412 9.42617 553.932 9.810161 553.404 9.810161C 553.056 9.810161 552.774 9.653911 552.594 9.45586L552.594 9.45586L552.252 8.96992L552.252 8.96992L552.384 8.85C 552.54 9.08398 552.792 9.40781 553.2 9.40781C 553.644 9.40781 553.908 9.11406 553.908 8.61016C 553.908 8.09414 553.53 7.60195 553.158 7.15781C 552.858 6.81016 552.522 6.46797 552.186 6.13789L552.186 6.13789L552.186 6L552.186 6L554.43 6C 554.502 6.26992 554.562 6.53398 554.64 6.78594z" stroke="#000000" stroke-width="0.4" fill="none" /><path id="1507" transform="matrix(1 0 0 -1 0 834)" d="M555.792 9.3L557.19 9.3L557.19 9.3L557.346 9.68984L557.346 9.68984L557.31 9.73789L557.31 9.73789L555.6 9.73789L555.6 9.73789L555.366 7.90781C 555.504 7.96211 555.732 8.028131 555.984 8.028131C 556.638 8.028131 556.962 7.65 556.962 7.121881C 556.962 6.67188 556.71 6.23398 556.2 6.23398C 555.834 6.23398 555.588 6.42617 555.462 6.53984C 555.402 6.58789 555.354 6.58203 555.3 6.53984C 555.234 6.48008 555.18 6.40195 555.174 6.34219C 555.162 6.26992 555.192 6.22188 555.27 6.13789C 555.36 6.05391 555.612 5.92813 555.888 5.92813C 556.206 5.93398 556.608 6.08984 556.932 6.35391C 557.298 6.65391 557.466 6.99609 557.466 7.35586C 557.466 7.84805 557.076 8.369921 556.308 8.369921C 556.146 8.369921 555.864 8.273829 555.636 8.18984z" stroke="#000000" stroke-width="0.4" fill="none" /><path id="1508" transform="matrix(1 0 0 -1 0 834)" d="M559.548 9.989841L559.212 9.989841L559.212 9.989841L557.91 5.73594L557.91 5.73594L558.246 5.73594z" stroke="#000000" stroke-width="0.4" fill="none" /><path id="1509" transform="matrix(1 0 0 -1 0 834)" d="M561.18 9.61211C 561.72 9.61211 561.8701 8.72383 561.8701 7.871881C 561.8701 7.03203 561.726 6.13203 561.186 6.13203C 560.664 6.13203 560.49 7.03789 560.49 7.87813C 560.49 8.712111 560.634 9.61211 561.18 9.61211zM561.186 9.810161C 560.286 9.810161 559.956 8.74219 559.956 7.86602C 559.956 6.91797 560.28 5.92813 561.186 5.92813C 562.086 5.92813 562.404 6.99609 562.404 7.871881C 562.404 8.79609 562.086 9.810161 561.186 9.810161z" stroke="#000000" stroke-width="0.4" fill="none" /><path id="1510" transform="matrix(1 0 0 -1 0 834)" d="M564 9.61211C 564.582 9.61211 564.738 8.86797 564.738 8.33984C 564.738 8.21992 564.732 8.076171 564.7141 7.94414C 564.588 7.84805 564.384 7.77617 564.174 7.77617C 563.67 7.77617 563.3701 8.214061 563.3701 8.74219C 563.3701 9.09609 563.538 9.61211 564 9.61211zM564.078 9.810161C 563.304 9.810161 562.854 9.10781 562.854 8.53203C 562.854 7.90195 563.292 7.43398 563.928 7.43398C 564.042 7.43398 564.156 7.45781 564.288 7.53008L564.288 7.53008L564.69 7.74609C 564.492 6.83398 563.838 6.23398 562.98 6.08984L562.98 6.08984L563.01 5.91016C 563.16 5.91016 563.526 5.96992 563.85 6.10195C 564.66 6.42617 565.2661 7.20586 565.2661 8.310161C 565.2661 9.12617 564.828 9.810161 564.078 9.810161z" stroke="#000000" stroke-width="0.4" fill="none" /><path id="1511" transform="matrix(1 0 0 -1 0 834)" d="M567.294 9.989841L566.958 9.989841L566.958 9.989841L565.656 5.73594L565.656 5.73594L565.992 5.73594z" stroke="#000000" stroke-width="0.4" fill="none" /><path id="1512" transform="matrix(1 0 0 -1 0 834)" d="M569.9641 6.83984C 569.784 6.46211 569.706 6.43789 569.382 6.43789L569.382 6.43789L568.26 6.43789L568.26 6.43789L569.112 7.33203C 569.664 7.91992 569.904 8.273829 569.904 8.79609C 569.904 9.42617 569.424 9.810161 568.896 9.810161C 568.548 9.810161 568.2661 9.653911 568.086 9.45586L568.086 9.45586L567.744 8.96992L567.744 8.96992L567.876 8.85C 568.032 9.08398 568.284 9.40781 568.692 9.40781C 569.136 9.40781 569.4 9.11406 569.4 8.61016C 569.4 8.09414 569.022 7.60195 568.65 7.15781C 568.35 6.81016 568.014 6.46797 567.678 6.13789L567.678 6.13789L567.678 6L567.678 6L569.9221 6C 569.994 6.26992 570.054 6.53398 570.132 6.78594z" stroke="#000000" stroke-width="0.4" fill="none" /><path id="1513" transform="matrix(1 0 0 -1 0 834)" d="M571.806 9.61211C 572.346 9.61211 572.496 8.72383 572.496 7.871881C 572.496 7.03203 572.352 6.13203 571.812 6.13203C 571.29 6.13203 571.116 7.03789 571.116 7.87813C 571.116 8.712111 571.26 9.61211 571.806 9.61211zM571.812 9.810161C 570.912 9.810161 570.582 8.74219 570.582 7.86602C 570.582 6.91797 570.906 5.92813 571.812 5.92813C 572.712 5.92813 573.03 6.99609 573.03 7.871881C 573.03 8.79609 572.712 9.810161 571.812 9.810161z" stroke="#000000" stroke-width="0.4" fill="none" /><path id="1514" transform="matrix(1 0 0 -1 0 834)" d="M575.556 6L575.556 6.16211C 575.01 6.20391 574.9741 6.25195 574.9741 6.68398L574.9741 6.68398L574.9741 9.810161C 574.644 9.67813 574.29 9.56406 573.906 9.49805L573.906 9.49805L573.906 9.36016L573.906 9.36016L574.194 9.34805C 574.458 9.33594 574.482 9.305861 574.482 8.99414L574.482 8.99414L574.482 6.68398C 574.482 6.25195 574.452 6.20391 573.906 6.16211L573.906 6.16211L573.906 6z" stroke="#000000" stroke-width="0.4" fill="none" /><path id="1515" transform="matrix(1 0 0 -1 0 834)" d="M578.814 9.73789L576.522 9.73789C 576.498 9.48008 576.468 9.180079 576.414 8.85L576.414 8.85L576.588 8.85C 576.732 9.24609 576.768 9.3 577.164 9.3L577.164 9.3L578.46 9.3C 577.986 8.25586 577.308 7.01406 576.678 5.99414L576.678 5.99414L576.72 5.92813L576.72 5.92813L577.164 5.98789C 577.74 7.22383 578.298 8.44805 578.862 9.66602z" stroke="#000000" stroke-width="0.4" fill="none" /><path id="1516" transform="matrix(1 0 0 -1 0 834)" d="M584.531 9.61211C 585.071 9.61211 585.221 8.72383 585.221 7.871881C 585.221 7.03203 585.077 6.13203 584.537 6.13203C 584.015 6.13203 583.841 7.03789 583.841 7.87813C 583.841 8.712111 583.985 9.61211 584.531 9.61211zM584.537 9.810161C 583.637 9.810161 583.307 8.74219 583.307 7.86602C 583.307 6.91797 583.631 5.92813 584.537 5.92813C 585.437 5.92813 585.755 6.99609 585.755 7.871881C 585.755 8.79609 585.437 9.810161 584.537 9.810161z" stroke="#000000" stroke-width="0.4" fill="none" /><path id="1517" transform="matrix(1 0 0 -1 0 834)" d="M588.449 6.83984C 588.269 6.46211 588.191 6.43789 587.867 6.43789L587.867 6.43789L586.7451 6.43789L586.7451 6.43789L587.597 7.33203C 588.149 7.91992 588.389 8.273829 588.389 8.79609C 588.389 9.42617 587.909 9.810161 587.381 9.810161C 587.033 9.810161 586.751 9.653911 586.571 9.45586L586.571 9.45586L586.229 8.96992L586.229 8.96992L586.361 8.85C 586.517 9.08398 586.769 9.40781 587.177 9.40781C 587.621 9.40781 587.885 9.11406 587.885 8.61016C 587.885 8.09414 587.507 7.60195 587.135 7.15781C 586.835 6.81016 586.499 6.46797 586.163 6.13789L586.163 6.13789L586.163 6L586.163 6L588.407 6C 588.479 6.26992 588.539 6.53398 588.617 6.78594z" stroke="#000000" stroke-width="0.4" fill="none" /><path id="1518" transform="matrix(1 0 0 -1 0 834)" d="M589.5471 5.92813C 589.739 5.92813 589.883 6.06602 589.883 6.27617C 589.883 6.46797 589.739 6.61797 589.5471 6.61797C 589.355 6.61797 589.211 6.46797 589.211 6.27617C 589.211 6.06602 589.355 5.92813 589.5471 5.92813zM589.541 8.466021C 589.3491 8.466021 589.211 8.328131 589.211 8.13008C 589.211 7.92617 589.3491 7.78203 589.541 7.78203C 589.733 7.78203 589.877 7.92617 589.877 8.13008C 589.877 8.328131 589.733 8.466021 589.541 8.466021z" stroke="#000000" stroke-width="0.4" fill="none" /><path id="1519" transform="matrix(1 0 0 -1 0 834)" d="M591.137 9.3L592.535 9.3L592.535 9.3L592.691 9.68984L592.691 9.68984L592.655 9.73789L592.655 9.73789L590.945 9.73789L590.945 9.73789L590.711 7.90781C 590.8491 7.96211 591.077 8.028131 591.329 8.028131C 591.983 8.028131 592.307 7.65 592.307 7.121881C 592.307 6.67188 592.055 6.23398 591.545 6.23398C 591.179 6.23398 590.933 6.42617 590.807 6.53984C 590.747 6.58789 590.699 6.58203 590.645 6.53984C 590.579 6.48008 590.525 6.40195 590.519 6.34219C 590.507 6.26992 590.537 6.22188 590.615 6.13789C 590.705 6.05391 590.957 5.92813 591.233 5.92813C 591.551 5.93398 591.953 6.08984 592.277 6.35391C 592.643 6.65391 592.811 6.99609 592.811 7.35586C 592.811 7.84805 592.421 8.369921 591.653 8.369921C 591.491 8.369921 591.209 8.273829 590.981 8.18984z" stroke="#000000" stroke-width="0.4" fill="none" /><path id="1520" transform="matrix(1 0 0 -1 0 834)" d="M595.788 9.73789L593.496 9.73789C 593.472 9.48008 593.442 9.180079 593.388 8.85L593.388 8.85L593.562 8.85C 593.706 9.24609 593.742 9.3 594.138 9.3L594.138 9.3L595.434 9.3C 594.96 8.25586 594.282 7.01406 593.652 5.99414L593.652 5.99414L593.694 5.92813L593.694 5.92813L594.138 5.98789C 594.7141 7.22383 595.272 8.44805 595.836 9.66602z" stroke="#000000" stroke-width="0.4" fill="none" /><path id="1521" transform="matrix(1 0 0 -1 0 834)" d="M596.675 5.92813C 596.867 5.92813 597.011 6.06602 597.011 6.27617C 597.011 6.46797 596.867 6.61797 596.675 6.61797C 596.483 6.61797 596.3391 6.46797 596.3391 6.27617C 596.3391 6.06602 596.483 5.92813 596.675 5.92813zM596.669 8.466021C 596.477 8.466021 596.3391 8.328131 596.3391 8.13008C 596.3391 7.92617 596.477 7.78203 596.669 7.78203C 596.861 7.78203 597.005 7.92617 597.005 8.13008C 597.005 8.328131 596.861 8.466021 596.669 8.466021z" stroke="#000000" stroke-width="0.4" fill="none" /><path id="1522" transform="matrix(1 0 0 -1 0 834)" d="M599.825 6.83984C 599.645 6.46211 599.567 6.43789 599.243 6.43789L599.243 6.43789L598.121 6.43789L598.121 6.43789L598.973 7.33203C 599.525 7.91992 599.765 8.273829 599.765 8.79609C 599.765 9.42617 599.285 9.810161 598.757 9.810161C 598.409 9.810161 598.127 9.653911 597.947 9.45586L597.947 9.45586L597.605 8.96992L597.605 8.96992L597.737 8.85C 597.893 9.08398 598.145 9.40781 598.553 9.40781C 598.997 9.40781 599.261 9.11406 599.261 8.61016C 599.261 8.09414 598.883 7.60195 598.511 7.15781C 598.211 6.81016 597.875 6.46797 597.539 6.13789L597.539 6.13789L597.539 6L597.539 6L599.783 6C 599.855 6.26992 599.915 6.53398 599.993 6.78594z" stroke="#000000" stroke-width="0.4" fill="none" /><path id="1523" transform="matrix(1 0 0 -1 0 834)" d="M601.667 9.61211C 602.207 9.61211 602.357 8.72383 602.357 7.871881C 602.357 7.03203 602.213 6.13203 601.673 6.13203C 601.151 6.13203 600.977 7.03789 600.977 7.87813C 600.977 8.712111 601.121 9.61211 601.667 9.61211zM601.673 9.810161C 600.773 9.810161 600.4431 8.74219 600.4431 7.86602C 600.4431 6.91797 600.767 5.92813 601.673 5.92813C 602.573 5.92813 602.8911 6.99609 602.8911 7.871881C 602.8911 8.79609 602.573 9.810161 601.673 9.810161z" stroke="#000000" stroke-width="0.4" fill="none" /><path id="1524" transform="matrix(1 0 0 -1 0 834)" d="M605.489 8.08203C 605.651 8.20195 605.897 8.33398 606.0891 8.33398C 606.527 8.33398 606.893 7.97383 606.893 7.33203C 606.893 6.65391 606.557 6.22188 606.053 6.22188C 605.8491 6.22188 605.621 6.31797 605.489 6.45586zM605.489 8.28008L605.489 8.75391C 605.207 8.63984 604.871 8.53789 604.619 8.49609L604.619 8.49609L604.619 8.351951C 604.991 8.30391 605.015 8.29219 605.015 7.90195L605.015 7.90195L605.015 5.18984C 605.015 4.79414 604.961 4.75781 604.577 4.72188L604.577 4.72188L604.577 4.56016L604.577 4.56016L605.999 4.56016L605.999 4.56016L605.999 4.72188C 605.531 4.76406 605.489 4.79414 605.489 5.25L605.489 5.25L605.489 6.03594C 605.567 5.99414 605.729 5.93398 605.903 5.92813C 606.683 6.07188 607.397 6.65391 607.397 7.56016C 607.397 8.153911 607.001 8.69414 606.335 8.69414C 606.263 8.69414 606.149 8.664061 606.041 8.60391z" stroke="#000000" stroke-width="0.4" fill="none" /><path id="1525" transform="matrix(1 0 0 -1 0 834)" d="M608.303 5.92813C 608.4951 5.92813 608.639 6.06602 608.639 6.27617C 608.639 6.46797 608.4951 6.61797 608.303 6.61797C 608.111 6.61797 607.967 6.46797 607.967 6.27617C 607.967 6.06602 608.111 5.92813 608.303 5.92813z" stroke="#000000" stroke-width="0.4" fill="none" /><path id="1526" transform="matrix(1 0 0 -1 0 834)" d="M615.125 6L615.125 6.15586C 614.783 6.19219 614.735 6.21602 614.735 6.61797L614.735 6.61797L614.735 7.77617C 614.735 8.36406 614.441 8.69414 613.973 8.69414C 613.805 8.69414 613.649 8.621881 613.523 8.53789C 613.373 8.44805 613.199 8.33398 613.025 8.20195C 612.905 8.51406 612.647 8.69414 612.359 8.69414C 612.167 8.69414 612.023 8.628131 611.867 8.53203C 611.687 8.417971 611.555 8.310161 611.429 8.226171L611.429 8.226171L611.429 8.712111C 611.165 8.59219 610.859 8.51406 610.595 8.466021L610.595 8.466021L610.595 8.328131C 610.9431 8.273829 610.961 8.24414 610.961 7.86016L610.961 7.86016L610.961 6.61797C 610.961 6.22813 610.907 6.19219 610.511 6.15586L610.511 6.15586L610.511 6L610.511 6L611.777 6L611.777 6L611.777 6.15586C 611.483 6.19219 611.435 6.22813 611.435 6.61797L611.435 6.61797L611.435 8.028131C 611.615 8.17813 611.8491 8.33984 612.0891 8.33984C 612.455 8.33984 612.611 8.09414 612.611 7.65L612.611 7.65L612.611 6.61797C 612.611 6.22188 612.557 6.19219 612.185 6.15586L612.185 6.15586L612.185 6L612.185 6L613.469 6L613.469 6L613.469 6.15586C 613.139 6.19219 613.085 6.22813 613.085 6.60586L613.085 6.60586L613.085 7.77617C 613.085 7.88984 613.079 7.95586 613.067 8.028131C 613.295 8.21992 613.523 8.33984 613.739 8.33984C 614.117 8.33984 614.267 8.069921 614.267 7.64414L614.267 7.64414L614.267 6.64219C 614.267 6.21602 614.201 6.19219 613.847 6.15586L613.847 6.15586L613.847 6z" stroke="#000000" stroke-width="0.4" fill="none" /><path id="1527" transform="matrix(1 0 0 -1 0 834)" d="M615.947 5.92813C 616.139 5.92813 616.283 6.06602 616.283 6.27617C 616.283 6.46797 616.139 6.61797 615.947 6.61797C 615.755 6.61797 615.611 6.46797 615.611 6.27617C 615.611 6.06602 615.755 5.92813 615.947 5.92813z" stroke="#000000" stroke-width="0.4" fill="none" /></g></g></svg>