<svg xmlns="http://www.w3.org/2000/svg" xmlns:xlink="http://www.w3.org/1999/xlink" id="body_1" preserveAspectRatio="xMinYMin meet" viewBox="0 0 872 1112"><defs><clipPath id="1"><path id="" clip-rule="evenodd" transform="matrix(1 0 0 1 0 0)" d="M0 834L0 0L0 0L654 0L654 0L654 834L654 834L0 834z" /></clipPath><clipPath id="2"><path id="" clip-rule="evenodd" transform="matrix(1 0 0 1 0 0)" d="M21 813L633 813L633 813L633 21L633 21L21 21z" /></clipPath><clipPath id="3"><path id="" clip-rule="evenodd" transform="matrix(1 0 0 1 0 0)" d="M206.821 201.454L259.9331 201.454L259.9331 201.454L259.9331 187.138L259.9331 187.138L206.821 187.138z" /></clipPath><clipPath id="4"><path id="" clip-rule="evenodd" transform="matrix(1 0 0 1 0 0)" d="M206.821 201.454L259.933 201.454L259.933 201.454L259.933 187.138L259.933 187.138L206.821 187.138z" /></clipPath><clipPath id="5"><path id="" clip-rule="evenodd" transform="matrix(1 0 0 1 0 0)" d="M206.821 201.454L259.9327 201.454L259.9327 201.454L259.9327 187.1372L259.9327 187.1372L206.821 187.1372z" /></clipPath><clipPath id="6"><path id="" clip-rule="evenodd" transform="matrix(1 0 0 1 0 0)" d="M185.692 269.541L303.614 269.541L303.614 269.541L303.614 130.734L303.614 130.734L185.692 130.734z" /></clipPath><clipPath id="7"><path id="" clip-rule="evenodd" transform="matrix(1 0 0 1 0 0)" d="M244.832 239.825C 244.832 255.879 257.845 268.893 273.899 268.893L273.899 268.893L273.899 268.893C 289.952 268.893 302.966 255.879 302.966 239.825L302.966 239.825L302.966 239.825C 302.966 223.773 289.952 210.759 273.899 210.759L273.899 210.759L273.899 210.759C 257.845 210.759 244.832 223.773 244.832 239.825" /></clipPath><clipPath id="8"><path id="" clip-rule="evenodd" transform="matrix(1 0 0 1 0 0)" d="M244.832 239.825C 244.832 255.879 257.845 268.893 273.899 268.893L273.899 268.893L273.899 268.893C 289.952 268.893 302.966 255.879 302.966 239.825L302.966 239.825L302.966 239.825C 302.966 223.773 289.952 210.759 273.899 210.759L273.899 210.759L273.899 210.759C 257.845 210.759 244.832 223.773 244.832 239.825" /></clipPath><clipPath id="9"><path id="" clip-rule="evenodd" transform="matrix(1 0 0 1 0 0)" d="M185.692 269.541L303.614 269.541L303.614 269.541L303.614 130.734L303.614 130.734L185.692 130.734z" /></clipPath><clipPath id="10"><path id="" clip-rule="evenodd" transform="matrix(1 0 0 1 0 0)" d="M189.321 489.771L273.7968 489.771L273.7968 489.771L273.7968 345.864L273.7968 345.864L189.321 345.864z" /></clipPath><clipPath id="11"><path id="" clip-rule="evenodd" transform="matrix(1 0 0 1 0 0)" d="M189.321 489.771L273.7968 489.771L273.7968 489.771L273.7968 345.864L273.7968 345.864L189.321 345.864z" /></clipPath><clipPath id="12"><path id="" clip-rule="evenodd" transform="matrix(1 0 0 1 0 0)" d="M250.3 428.332L276.298 428.332L276.298 428.332L276.298 407.7488L276.298 407.7488L250.3 407.7488z" /></clipPath><clipPath id="13"><path id="" clip-rule="evenodd" transform="matrix(1 0 0 1 0 0)" d="M250.3 428.332L276.298 428.332L276.298 428.332L276.298 407.749L276.298 407.749L250.3 407.749z" /></clipPath><clipPath id="14"><path id="" clip-rule="evenodd" transform="matrix(1 0 0 1 0 0)" d="M250.3 428.332L276.298 428.332L276.298 428.332L276.298 407.7488L276.298 407.7488L250.3 407.7488z" /></clipPath><clipPath id="15"><path id="" clip-rule="evenodd" transform="matrix(1 0 0 1 0 0)" d="M250.229 428.485L276.3692 428.485L276.3692 428.485L276.3692 407.5967L276.3692 407.5967L250.229 407.5967z" /></clipPath><clipPath id="16"><path id="" clip-rule="evenodd" transform="matrix(1 0 0 1 0 0)" d="M250.229 428.485L276.369 428.485L276.369 428.485L276.369 407.597L276.369 407.597L250.229 407.597z" /></clipPath><clipPath id="17"><path id="" clip-rule="evenodd" transform="matrix(1 0 0 1 0 0)" d="M250.229 428.485L276.3692 428.485L276.3692 428.485L276.3692 407.5979L276.3692 407.5979L250.229 407.5979z" /></clipPath><clipPath id="18"><path id="" clip-rule="evenodd" transform="matrix(1 0 0 1 0 0)" d="M189.321 490.367L287.3148 490.367L287.3148 490.367L287.3148 345.864L287.3148 345.864L189.321 345.864z" /></clipPath><clipPath id="19"><path id="" clip-rule="evenodd" transform="matrix(1 0 0 1 0 0)" d="M239.752 466.267C 239.752 479.225 250.257 489.729 263.215 489.729L263.215 489.729L263.215 489.729C 273.004 489.729 281.393 483.734 284.911 475.215L284.911 475.215L284.911 475.215L284.911 475.215L284.911 457.319C 281.393 448.799 273.004 442.804 263.215 442.804L263.215 442.804L263.215 442.804C 250.257 442.804 239.752 453.308 239.752 466.267" /></clipPath><clipPath id="20"><path id="" clip-rule="evenodd" transform="matrix(1 0 0 1 0 0)" d="M239.752 466.267C 239.752 479.225 250.257 489.729 263.215 489.729L263.215 489.729L263.215 489.729C 273.004 489.729 281.393 483.734 284.911 475.215L284.911 475.215L284.911 475.215L284.911 475.215L284.911 457.319C 281.393 448.799 273.004 442.804 263.215 442.804L263.215 442.804L263.215 442.804C 250.257 442.804 239.752 453.308 239.752 466.267" /></clipPath><clipPath id="21"><path id="" clip-rule="evenodd" transform="matrix(1 0 0 1 0 0)" d="M189.321 490.367L287.3148 490.367L287.3148 490.367L287.3148 345.864L287.3148 345.864L189.321 345.864z" /></clipPath><clipPath id="22"><path id="" clip-rule="evenodd" transform="matrix(1 0 0 1 0 0)" d="M355.282 168.625L392.5211 168.625L392.5211 168.625L392.5211 111.7078L392.5211 111.7078L355.282 111.7078z" /></clipPath><clipPath id="23"><path id="" clip-rule="evenodd" transform="matrix(1 0 0 1 0 0)" d="M355.282 168.625L392.5211 168.625L392.5211 168.625L392.5211 111.7078L392.5211 111.7078L355.282 111.7078z" /></clipPath><clipPath id="24"><path id="" clip-rule="evenodd" transform="matrix(1 0 0 1 0 0)" d="M355.447 385.595L392.8091 385.595L392.8091 385.595L392.8091 334.677L392.8091 334.677L355.447 334.677z" /></clipPath><clipPath id="25"><path id="" clip-rule="evenodd" transform="matrix(1 0 0 1 0 0)" d="M355.447 385.595L392.8091 385.595L392.8091 385.595L392.8091 334.677L392.8091 334.677L355.447 334.677z" /></clipPath><clipPath id="26"><path id="" clip-rule="evenodd" transform="matrix(1 0 0 1 0 0)" d="M307.583 482.764L333.1783 482.764L333.1783 482.764L333.1783 446.905L333.1783 446.905L307.583 446.905z" /></clipPath><clipPath id="27"><path id="" clip-rule="evenodd" transform="matrix(1 0 0 1 0 0)" d="M307.583 482.764L333.1783 482.764L333.1783 482.764L333.1783 446.905L333.1783 446.905L307.583 446.905z" /></clipPath><clipPath id="28"><path id="" clip-rule="evenodd" transform="matrix(1 0 0 1 0 0)" d="M262.58 599.139L265.6269 599.139L265.6269 599.139L265.6269 592.964L265.6269 592.964L262.58 592.964z" /></clipPath><clipPath id="29"><path id="" clip-rule="evenodd" transform="matrix(1 0 0 1 0 0)" d="M262.58 599.139L265.627 599.139L265.627 599.139L265.627 592.964L265.627 592.964L262.58 592.964z" /></clipPath><clipPath id="30"><path id="" clip-rule="evenodd" transform="matrix(1 0 0 1 0 0)" d="M262.58 599.139L265.6269 599.139L265.6269 599.139L265.6269 592.964L265.6269 592.964L262.58 592.964z" /></clipPath><clipPath id="31"><path id="" clip-rule="evenodd" transform="matrix(1 0 0 1 0 0)" d="M193.63 711.7L318.791 711.7L318.791 711.7L318.791 561.9819L318.791 561.9819L193.63 561.9819z" /></clipPath><clipPath id="32"><path id="" clip-rule="evenodd" transform="matrix(1 0 0 1 0 0)" d="M266.93 603.863L275.2198 603.863L275.2198 603.863L275.2198 600.1821L275.2198 600.1821L266.93 600.1821z" /></clipPath><clipPath id="33"><path id="" clip-rule="evenodd" transform="matrix(1 0 0 1 0 0)" d="M266.93 603.863L275.22 603.863L275.22 603.863L275.22 600.182L275.22 600.182L266.93 600.182z" /></clipPath><clipPath id="34"><path id="" clip-rule="evenodd" transform="matrix(1 0 0 1 0 0)" d="M266.93 603.863L275.2191 603.863L275.2191 603.863L275.2191 600.1821L275.2191 600.1821L266.93 600.1821z" /></clipPath><clipPath id="35"><path id="" clip-rule="evenodd" transform="matrix(1 0 0 1 0 0)" d="M250.346 634.273L260.5351 634.273L260.5351 634.273L260.5351 613.2667L260.5351 613.2667L250.346 613.2667z" /></clipPath><clipPath id="36"><path id="" clip-rule="evenodd" transform="matrix(1 0 0 1 0 0)" d="M250.346 634.273L260.535 634.273L260.535 634.273L260.535 613.267L260.535 613.267L250.346 613.267z" /></clipPath><clipPath id="37"><path id="" clip-rule="evenodd" transform="matrix(1 0 0 1 0 0)" d="M250.346 634.273L260.5351 634.273L260.5351 634.273L260.5351 613.2671L260.5351 613.2671L250.346 613.2671z" /></clipPath><clipPath id="38"><path id="" clip-rule="evenodd" transform="matrix(1 0 0 1 0 0)" d="M193.63 711.7L318.791 711.7L318.791 711.7L318.791 561.9819L318.791 561.9819L193.63 561.9819z" /></clipPath><clipPath id="39"><path id="" clip-rule="evenodd" transform="matrix(1 0 0 1 0 0)" d="M243.769 673.848C 243.769 694.376 260.41 711.018 280.939 711.018L280.939 711.018L280.939 711.018C 301.468 711.018 318.109 694.376 318.109 673.848L318.109 673.848L318.109 673.848C 318.109 653.319 301.468 636.678 280.939 636.678L280.939 636.678L280.939 636.678C 260.41 636.678 243.769 653.319 243.769 673.848" /></clipPath><clipPath id="40"><path id="" clip-rule="evenodd" transform="matrix(1 0 0 1 0 0)" d="M243.769 673.848C 243.769 694.376 260.41 711.018 280.939 711.018L280.939 711.018L280.939 711.018C 301.468 711.018 318.109 694.376 318.109 673.848L318.109 673.848L318.109 673.848C 318.109 653.319 301.468 636.678 280.939 636.678L280.939 636.678L280.939 636.678C 260.41 636.678 243.769 653.319 243.769 673.848" /></clipPath><clipPath id="41"><path id="" clip-rule="evenodd" transform="matrix(1 0 0 1 0 0)" d="M193.63 711.7L318.791 711.7L318.791 711.7L318.791 561.9819L318.791 561.9819L193.63 561.9819z" /></clipPath><clipPath id="42"><path id="" clip-rule="evenodd" transform="matrix(1 0 0 1 0 0)" d="M352.796 609.062L395.1718 609.062L395.1718 609.062L395.1718 558.8069L395.1718 558.8069L352.796 558.8069z" /></clipPath><clipPath id="43"><path id="" clip-rule="evenodd" transform="matrix(1 0 0 1 0 0)" d="M352.796 609.062L395.1718 609.062L395.1718 609.062L395.1718 558.8069L395.1718 558.8069L352.796 558.8069z" /></clipPath><clipPath id="44"><path id="" clip-rule="evenodd" transform="matrix(1 0 0 1 0 0)" d="M166.417 619.469L192.0139 619.469L192.0139 619.469L192.0139 583.61L192.0139 583.61L166.417 583.61z" /></clipPath><clipPath id="45"><path id="" clip-rule="evenodd" transform="matrix(1 0 0 1 0 0)" d="M166.417 619.469L192.0139 619.469L192.0139 619.469L192.0139 583.61L192.0139 583.61L166.417 583.61z" /></clipPath><clipPath id="46"><path id="" clip-rule="evenodd" transform="matrix(1 0 0 1 0 0)" d="M300.779 619.469L326.3763 619.469L326.3763 619.469L326.3763 583.61L326.3763 583.61L300.779 583.61z" /></clipPath><clipPath id="47"><path id="" clip-rule="evenodd" transform="matrix(1 0 0 1 0 0)" d="M300.779 619.469L326.3763 619.469L326.3763 619.469L326.3763 583.61L326.3763 583.61L300.779 583.61z" /></clipPath><clipPath id="48"><path id="" clip-rule="evenodd" transform="matrix(1 0 0 1 0 0)" d="M149.268 482.764L174.8649 482.764L174.8649 482.764L174.8649 446.905L174.8649 446.905L149.268 446.905z" /></clipPath><clipPath id="49"><path id="" clip-rule="evenodd" transform="matrix(1 0 0 1 0 0)" d="M149.268 482.764L174.8649 482.764L174.8649 482.764L174.8649 446.905L174.8649 446.905L149.268 446.905z" /></clipPath><clipPath id="50"><path id="" clip-rule="evenodd" transform="matrix(1 0 0 1 0 0)" d="M153.095 262.795L178.6923 262.795L178.6923 262.795L178.6923 226.9372L178.6923 226.9372L153.095 226.9372z" /></clipPath><clipPath id="51"><path id="" clip-rule="evenodd" transform="matrix(1 0 0 1 0 0)" d="M153.095 262.795L178.6923 262.795L178.6923 262.795L178.6923 226.9372L178.6923 226.9372L153.095 226.9372z" /></clipPath><clipPath id="52"><path id="" clip-rule="evenodd" transform="matrix(1 0 0 1 0 0)" d="M315.236 262.795L340.8329 262.795L340.8329 262.795L340.8329 226.9372L340.8329 226.9372L315.236 226.9372z" /></clipPath><clipPath id="53"><path id="" clip-rule="evenodd" transform="matrix(1 0 0 1 0 0)" d="M315.236 262.795L340.8329 262.795L340.8329 262.795L340.8329 226.9372L340.8329 226.9372L315.236 226.9372z" /></clipPath></defs><g transform="matrix(1.333333 0 0 1.333333 0 0)"><g clip-path="url(#1)"><g clip-path="url(#2)"><path id="1" transform="matrix(1 0 0 -1 0 834)" d="M91.866 67.4211L562.134 67.4211L562.134 74.92501L91.866 74.92501z" stroke="none" fill="#686868" fill-rule="nonzero" /><path id="2" transform="matrix(1 0 0 -1 0 834)" d="M91.866 526.984L562.134 526.984" stroke="#686868" stroke-width="1" fill="none" /><path id="3" transform="matrix(1 0 0 -1 0 834)" d="M91.866 307.016L562.134 307.016" stroke="#686868" stroke-width="1" fill="none" /></g><g transform="matrix(0.9995062 0 0 1.001109 185.693 130.734)"><g transform="matrix(1 0 0 1 0 0)"><image x="0" y="0" xlink:href="img_01.png" width="97" height="138" /></g></g><g clip-path="url(#3)"><g><g clip-path="url(#4)"><g clip-path="url(#5)"><path id="8" transform="matrix(1 0 0 -1 0 834)" d="M238.024 646.084L238.869 646.862L238.869 646.862L232.378 645.791L232.378 645.791L225.886 646.862L225.886 646.862L226.779 646.04L226.779 646.04L226.778 645.976C 215.3 645.218 206.821 642.5471 206.821 639.368C 206.821 635.689 218.184 632.691 232.407 632.55L232.407 632.55L232.407 635.593C 220.501 635.692 210.986 637.841 210.986 640.478C 210.986 642.657 217.482 644.501 226.454 645.133L226.454 645.133L225.886 644.61L225.886 644.61L232.378 645.681L232.378 645.681L238.869 644.61L238.869 644.61L238.185 645.24C 248.051 644.737 255.403 642.796 255.403 640.478C 255.403 637.814 245.695 635.649 233.621 635.591L233.621 635.591L233.621 632.546C 248.181 632.59 259.932 635.626 259.932 639.368C 259.932 642.725 250.478 645.513 238.024 646.084" stroke="none" fill="#FFFFFF" fill-rule="nonzero" fill-opacity="0.8" /></g></g></g></g><g clip-path="url(#6)"><path id="9" transform="matrix(1 0 0 -1 0 834)" d="M302.966 594.174C 302.966 578.121 289.952 565.107 273.899 565.107C 257.846 565.107 244.832 578.121 244.832 594.174C 244.832 610.227 257.846 623.241 273.899 623.241C 289.952 623.241 302.966 610.227 302.966 594.174" stroke="none" fill="#FFFFFF" fill-rule="nonzero" /></g><g clip-path="url(#7)"></g><g clip-path="url(#8)"><g transform="matrix(1.008188 0 0 0.9982981 233.682 178.608)"><g transform="matrix(1 0 0 1 0 0)"><image x="0" y="0" xlink:href="img_02.png" width="80" height="104" /></g></g></g><g clip-path="url(#9)"><path id="11" transform="matrix(1 0 0 -1 0 834)" d="M302.966 594.174C 302.966 578.121 289.952 565.107 273.899 565.107C 257.846 565.107 244.832 578.121 244.832 594.174C 244.832 610.227 257.846 623.241 273.899 623.241C 289.952 623.241 302.966 610.227 302.966 594.174z" stroke="#000000" stroke-width="0.72" fill="none" /></g><g clip-path="url(#10)"></g><g clip-path="url(#11)"><g transform="matrix(1.005669 0 0 0.9993542 189.321 345.863)"><g transform="matrix(1 0 0 1 0 0)"><image x="0" y="0" xlink:href="img_03.png" width="84" height="144" /></g></g></g><g clip-path="url(#12)"><g><g clip-path="url(#13)"><g clip-path="url(#14)"><path id="13" transform="matrix(1 0 0 -1 0 834)" d="M276.14 419.17C 275.182 423.049 270.11 425.252 264.201 424.676L264.201 424.676L264.197 424.692C 264.195 424.692 264.193 424.692 264.191 424.691L264.191 424.691L264.876 426.251L264.876 426.251L260.115 423.849C 253.677 421.857 249.409 417.084 250.459 412.829C 251.457 408.788 256.919 406.566 263.142 407.41L263.142 407.41L263.225 407.23C 263.227 407.23 263.229 407.231 263.231 407.231L263.231 407.231L262.871 405.668L262.871 405.668L267.029 408.327C 273.161 410.413 277.161 415.036 276.14 419.17M267.201 409.337L261.489 409.1L261.489 409.1L262.653 408.253C 257.297 407.681 252.677 409.657 251.811 413.163C 250.888 416.9 254.552 421.084 260.136 422.922L260.136 422.922L265.455 422.611L265.455 422.611L264.417 423.704C 264.42 423.704 264.423 423.704 264.426 423.705L264.426 423.705L264.405 423.705L264.405 423.705L264.388 423.788C 269.554 424.207 273.946 422.245 274.788 418.836C 275.67 415.266 272.366 411.288 267.201 409.337" stroke="none" fill="#000000" fill-rule="nonzero" fill-opacity="0.8" /></g></g></g></g><g clip-path="url(#15)"><g><g clip-path="url(#16)"><g clip-path="url(#17)"><path id="14" transform="matrix(1 0 0 -1 0 834)" d="M276.14 419.17C 275.182 423.049 270.11 425.252 264.201 424.676L264.201 424.676L264.197 424.692C 264.195 424.692 264.193 424.692 264.191 424.691L264.191 424.691L264.876 426.251L264.876 426.251L260.115 423.849C 253.677 421.857 249.409 417.084 250.459 412.829C 251.457 408.788 256.919 406.566 263.142 407.41L263.142 407.41L263.225 407.23C 263.227 407.23 263.229 407.231 263.231 407.231L263.231 407.231L262.871 405.668L262.871 405.668L267.029 408.327C 273.161 410.413 277.161 415.036 276.14 419.17zM267.201 409.337L261.489 409.1L261.489 409.1L262.653 408.253C 257.297 407.681 252.677 409.657 251.811 413.163C 250.888 416.9 254.552 421.084 260.136 422.922L260.136 422.922L265.455 422.611L265.455 422.611L264.417 423.704C 264.42 423.704 264.423 423.704 264.426 423.705L264.426 423.705L264.405 423.705L264.405 423.705L264.388 423.788C 269.554 424.207 273.946 422.245 274.788 418.836C 275.67 415.266 272.366 411.288 267.201 409.337z" stroke="#FFFFFF" stroke-width="0.141" fill="none" stroke-opacity="0.8" /></g></g></g></g><g clip-path="url(#18)"><path id="15" transform="matrix(1 0 0 -1 0 834)" d="M286.678 367.733C 286.678 354.775 276.173 344.27 263.215 344.27C 250.257 344.27 239.752 354.775 239.752 367.733C 239.752 380.691 250.257 391.196 263.215 391.196C 276.173 391.196 286.678 380.691 286.678 367.733" stroke="none" fill="#FFFFFF" fill-rule="nonzero" /></g><g clip-path="url(#19)"></g><g clip-path="url(#20)"><g transform="matrix(1.000407 0 0 1.006714 212.882 409.793)"><g transform="matrix(1 0 0 1 0 0)"><image x="0" y="0" xlink:href="img_04.png" width="72" height="105" /></g></g></g><g clip-path="url(#21)"><path id="17" transform="matrix(1 0 0 -1 0 834)" d="M286.678 367.733C 286.678 354.775 276.173 344.27 263.215 344.27C 250.257 344.27 239.752 354.775 239.752 367.733C 239.752 380.691 250.257 391.196 263.215 391.196C 276.173 391.196 286.678 380.691 286.678 367.733z" stroke="#000000" stroke-width="0.708" fill="none" /></g><g clip-path="url(#22)"></g><g clip-path="url(#23)"><g transform="matrix(1.006449 0 0 0.9985386 355.283 111.7083)"><g transform="matrix(1 0 0 1 0 0)"><image x="0" y="0" xlink:href="img_05.png" width="37" height="57" /></g></g></g><g clip-path="url(#24)"></g><g clip-path="url(#25)"><g transform="matrix(-1.009789 0 0 0.998402 392.809 334.6765)"><g transform="matrix(1 0 0 1 0 0)"><image x="0" y="0" xlink:href="img_06.png" width="37" height="51" /></g></g></g><g clip-path="url(#26)"></g><g clip-path="url(#27)"><g transform="matrix(-1.022789 0 0 0.9973868 334.188 445.8843)"><g transform="matrix(1 0 0 1 0 0)"><image x="0" y="0" xlink:href="img_07.png" width="27" height="38" /></g></g></g><g transform="matrix(1.006683 0 0 1.002624 193.63 561.982)"><g transform="matrix(1 0 0 1 0 0)"><image x="0" y="0" xlink:href="img_08.png" width="104" height="149" /></g></g><g clip-path="url(#28)"><g><g clip-path="url(#29)"><g clip-path="url(#30)"><path id="198" transform="matrix(1 0 0 -1 0 834)" d="M265.627 235.507C 265 236.526 264.497 237.565 264.119 238.446L264.119 238.446L265.219 238.385L265.219 238.385L262.769 241.036L262.769 241.036L262.58 237.432L262.58 237.432L263.402 238.195C 263.826 237.205 264.405 236.015 265.142 234.861" stroke="none" fill="#FFFFFF" fill-rule="nonzero" fill-opacity="0.8" /></g></g></g></g><g clip-path="url(#31)"><path id="199" transform="matrix(1 0 0 -1 0 834)" d="M266.93 232.561C 266.255 233.256 265.66 234.05 265.142 234.861L265.142 234.861L265.627 235.507C 266.133 234.685 266.719 233.877 267.385 233.175" stroke="none" fill="#000000" fill-rule="nonzero" /></g><g clip-path="url(#32)"><g><g clip-path="url(#33)"><g clip-path="url(#34)"><path id="200" transform="matrix(1 0 0 -1 0 834)" d="M267.385 233.175C 268.171 232.347 269.068 231.667 270.075 231.29C 271.462 230.769 272.543 230.764 273.289 231.272C 274.423 232.046 274.462 233.801 274.462 233.818L274.462 233.818L275.219 233.81C 275.218 233.722 275.18 231.649 273.72 230.649C 273.222 230.308 272.629 230.137 271.945 230.137C 271.31 230.137 270.596 230.285 269.809 230.58C 268.727 230.986 267.768 231.698 266.93 232.561" stroke="none" fill="#FFFFFF" fill-rule="nonzero" fill-opacity="0.8" /></g></g></g></g><g clip-path="url(#35)"><g><g clip-path="url(#36)"><g clip-path="url(#37)"><path id="201" transform="matrix(1 0 0 -1 0 834)" d="M255.093 201.239C 255.093 201.239 260.446 197.603 260.143 203.36C 259.913 207.73 254.389 215.474 251.739 218.953" stroke="#FFFFFF" stroke-width="0.758" fill="none" stroke-opacity="0.8" /><path id="202" transform="matrix(1 0 0 -1 0 834)" d="M253.495 218.97L252.022 218.579L251.281 217.247L250.346 220.733z" stroke="none" fill="#FFFFFF" fill-rule="nonzero" fill-opacity="0.8" /></g></g></g></g><g clip-path="url(#38)"><path id="203" transform="matrix(1 0 0 -1 0 834)" d="M318.109 160.152C 318.109 139.623 301.467 122.982 280.939 122.982C 260.41 122.982 243.769 139.623 243.769 160.152C 243.769 180.681 260.41 197.322 280.939 197.322C 301.467 197.322 318.109 180.681 318.109 160.152" stroke="none" fill="#FFFFFF" fill-rule="nonzero" /></g><g clip-path="url(#39)"></g><g clip-path="url(#40)"><g transform="matrix(1.003638 0 0 0.9984437 225.939 631.4786)"><g transform="matrix(1 0 0 1 0 0)"><image x="0" y="0" xlink:href="img_09.png" width="99" height="142" /></g></g></g><g clip-path="url(#41)"><path id="205" transform="matrix(1 0 0 -1 0 834)" d="M318.109 160.152C 318.109 139.623 301.467 122.982 280.939 122.982C 260.41 122.982 243.769 139.623 243.769 160.152C 243.769 180.681 260.41 197.322 280.939 197.322C 301.467 197.322 318.109 180.681 318.109 160.152z" stroke="#000000" stroke-width="0.758" fill="none" /></g><g clip-path="url(#42)"></g><g clip-path="url(#43)"><g transform="matrix(1.009002 0 0 1.009134 351.792 558.8073)"><g transform="matrix(1 0 0 1 0 0)"><image x="0" y="0" xlink:href="img_10.png" width="44" height="50" /></g></g></g><g clip-path="url(#44)"></g><g clip-path="url(#45)"><g transform="matrix(1.022789 0 0 0.9973868 165.412 582.5893)"><g transform="matrix(1 0 0 1 0 0)"><image x="0" y="0" xlink:href="img_11.png" width="27" height="38" /></g></g></g><g clip-path="url(#46)"></g><g clip-path="url(#47)"><g transform="matrix(-1.022789 0 0 0.9973868 327.382 582.5893)"><g transform="matrix(1 0 0 1 0 0)"><image x="0" y="0" xlink:href="img_11.png" width="27" height="38" /></g></g></g><g clip-path="url(#48)"></g><g clip-path="url(#49)"><g transform="matrix(1.022789 0 0 0.9967948 148.251 445.8948)"><g transform="matrix(1 0 0 1 0 0)"><image x="0" y="0" xlink:href="img_12.png" width="27" height="38" /></g></g></g><g clip-path="url(#50)"></g><g clip-path="url(#51)"><g transform="matrix(1.022789 0 0 0.9967948 152.077 225.9258)"><g transform="matrix(1 0 0 1 0 0)"><image x="0" y="0" xlink:href="img_12.png" width="27" height="38" /></g></g></g><g clip-path="url(#52)"></g><g clip-path="url(#53)"><g transform="matrix(-1.022789 0 0 0.9967948 341.85 225.9258)"><g transform="matrix(1 0 0 1 0 0)"><image x="0" y="0" xlink:href="img_12.png" width="27" height="38" /></g></g></g><path id="1302" transform="matrix(1 0 0 -1 0 834)" d="M633 15L633 0M633 819L633 834M21 15L21 0M21 819L21 834M639 21L654 21M15 21L0 21M639 813L654 813M15 813L0 813" stroke="#000000" stroke-width="1.25" fill="none" /><path id="1303" transform="matrix(1 0 0 -1 0 834)" d="M633 15L633 0M633 819L633 834M21 15L21 0M21 819L21 834M639 21L654 21M15 21L0 21M639 813L654 813M15 813L0 813" stroke="#000000" stroke-width="0.25" fill="none" /><path id="1304" transform="matrix(1 0 0 -1 0 834)" d="M32.2781 9.28203C 32.2781 9.516021 32.2961 9.58203 32.3559 9.62383C 32.416 9.66602 32.5719 9.69609 32.8238 9.69609C 33.2262 9.69609 33.5738 9.62383 33.8441 9.45C 34.3238 9.167971 34.552 8.63398 34.552 8.016021C 34.552 7.05586 34.0359 6.21602 32.9141 6.21602C 32.4762 6.21602 32.2781 6.33008 32.2781 6.78594zM31.252 9.900001L31.252 9.726171C 31.7141 9.68984 31.7621 9.66602 31.7621 9.150001L31.7621 9.150001L31.7621 6.74414C 31.7621 6.23398 31.7141 6.19805 31.198 6.16211L31.198 6.16211L31.198 6L31.198 6L32.6199 6C 33.3578 6 33.952 6.15 34.402 6.49805C 34.8641 6.84609 35.1398 7.38008 35.1398 8.1C 35.1398 8.664061 34.9301 9.101951 34.6359 9.38984C 34.2641 9.74414 33.7 9.900001 32.9379 9.900001z" stroke="#000000" stroke-width="0.4" fill="none" /><path id="1305" transform="matrix(1 0 0 -1 0 834)" d="M38.3801 6.97813C 38.2898 6.70195 38.1758 6.51016 38.0738 6.38984C 37.9359 6.23398 37.732 6.20391 37.402 6.20391C 37.15 6.20391 36.9461 6.21602 36.8258 6.28203C 36.718 6.34219 36.6879 6.46211 36.6879 6.78594L36.6879 6.78594L36.6879 9.15586C 36.6879 9.66602 36.7418 9.69609 37.216 9.73203L37.216 9.73203L37.216 9.900001L37.216 9.900001L35.65 9.900001L35.65 9.900001L35.65 9.73203C 36.1359 9.69609 36.1777 9.66602 36.1777 9.15586L36.1777 9.15586L36.1777 6.75586C 36.1777 6.24609 36.1301 6.20391 35.6258 6.16797L35.6258 6.16797L35.6258 6L35.6258 6L38.3438 6C 38.398 6.18594 38.5238 6.75586 38.5598 6.94219z" stroke="#000000" stroke-width="0.4" fill="none" /><path id="1306" transform="matrix(1 0 0 -1 0 834)" d="M41.0918 9.023829C 41.0438 9.40195 41.0141 9.63594 40.9898 9.851951C 40.7617 9.92383 40.5098 9.989841 40.234 9.989841C 39.4598 9.989841 38.998 9.49805 38.998 8.921881C 38.998 8.24414 39.6039 7.94414 39.9879 7.73984C 40.4379 7.5 40.768 7.28984 40.768 6.84609C 40.768 6.40781 40.498 6.12617 40.048 6.12617C 39.4301 6.12617 39.1598 6.73203 39.0641 7.09805L39.0641 7.09805L38.8898 7.05586C 38.9258 6.767971 39.0039 6.25195 39.052 6.12617C 39.1059 6.09609 39.1961 6.05391 39.3461 6C 39.4961 5.95781 39.6879 5.91016 39.934 5.91016C 40.732 5.91016 41.266 6.41406 41.266 7.04414C 41.266 7.71602 40.6961 7.99805 40.2277 8.23789C 39.7539 8.48398 39.466 8.68789 39.466 9.12617C 39.466 9.45 39.6699 9.78594 40.132 9.78594C 40.6539 9.78594 40.8098 9.371881 40.918 8.98789z" stroke="#000000" stroke-width="0.4" fill="none" /><path id="1307" transform="matrix(1 0 0 -1 0 834)" d="M46.648 6L46.648 6.16797C 46.1258 6.21602 46.1078 6.24609 46.0898 6.88203L46.0898 6.88203L46.0301 9.05391C 46.0117 9.671881 46.0539 9.68398 46.582 9.73203L46.582 9.73203L46.582 9.900001L46.582 9.900001L45.5617 9.900001L45.5617 9.900001L44.1758 6.9L44.1758 6.9L42.8078 9.900001L42.8078 9.900001L41.8238 9.900001L41.8238 9.900001L41.8238 9.73203C 42.3699 9.67813 42.4 9.653911 42.3461 8.87383L42.3461 8.87383L42.2617 7.626171C 42.2141 7.00195 42.1777 6.73789 42.148 6.528131C 42.1059 6.27617 41.9859 6.21016 41.6379 6.16797L41.6379 6.16797L41.6379 6L41.6379 6L43.0359 6L43.0359 6L43.0359 6.16797C 42.6398 6.21016 42.4961 6.25195 42.484 6.53984C 42.4777 6.78008 42.4777 7.04414 42.502 7.53594L42.502 7.53594L42.5918 9.24609L42.5918 9.24609L42.6039 9.24609L42.6039 9.24609L43.948 6.04219L43.948 6.04219L44.068 6.04219L44.068 6.04219L45.532 9.33008L45.532 9.33008L45.5559 9.33008L45.5559 9.33008L45.5738 6.88203C 45.5801 6.24609 45.5559 6.21602 45.0699 6.16797L45.0699 6.16797L45.0699 6z" stroke="#000000" stroke-width="0.4" fill="none" /><path id="1308" transform="matrix(1 0 0 -1 0 834)" d="M51.8738 7.05586C 51.5738 6.45586 51.2496 6.12617 50.6379 6.12617C 49.7258 6.12617 49.0656 6.89414 49.0656 8.016021C 49.0656 8.92813 49.5996 9.773829 50.602 9.773829C 51.2496 9.773829 51.6098 9.516021 51.7656 8.88008L51.7656 8.88008L51.9457 8.921881C 51.9098 9.24609 51.8738 9.48594 51.8258 9.828131C 51.6578 9.85781 51.2496 9.989841 50.7637 9.989841C 49.4258 9.989841 48.4539 9.15586 48.4539 7.89609C 48.4539 6.94219 49.1078 5.91016 50.602 5.91016C 51.034 5.91016 51.5379 6.03008 51.7059 6.07188C 51.8137 6.26992 51.9637 6.71406 52.0477 6.98984z" stroke="#000000" stroke-width="0.4" fill="none" /><path id="1309" transform="matrix(1 0 0 -1 0 834)" d="M54.3398 9.773829C 55.1258 9.773829 55.7855 9.101951 55.7855 7.83594C 55.7855 6.68398 55.1855 6.12617 54.5195 6.12617C 53.6738 6.12617 53.0559 6.94805 53.0559 8.076171C 53.0559 9.19805 53.6676 9.773829 54.3398 9.773829zM54.4598 9.989841C 53.1996 9.989841 52.4438 8.98789 52.4438 7.90781C 52.4438 6.75586 53.3078 5.91016 54.3938 5.91016C 55.4918 5.91016 56.3977 6.70195 56.3977 7.99805C 56.3977 9.19805 55.4797 9.989841 54.4598 9.989841z" stroke="#000000" stroke-width="0.4" fill="none" /><path id="1310" transform="matrix(1 0 0 -1 0 834)" d="M61.8277 6L61.8277 6.16797C 61.3059 6.21602 61.2879 6.24609 61.2695 6.88203L61.2695 6.88203L61.2098 9.05391C 61.1918 9.671881 61.2336 9.68398 61.7617 9.73203L61.7617 9.73203L61.7617 9.900001L61.7617 9.900001L60.7418 9.900001L60.7418 9.900001L59.3559 6.9L59.3559 6.9L57.9879 9.900001L57.9879 9.900001L57.0035 9.900001L57.0035 9.900001L57.0035 9.73203C 57.5496 9.67813 57.5797 9.653911 57.5258 8.87383L57.5258 8.87383L57.4418 7.626171C 57.3938 7.00195 57.3578 6.73789 57.3277 6.528131C 57.2855 6.27617 57.1656 6.21016 56.8176 6.16797L56.8176 6.16797L56.8176 6L56.8176 6L58.2156 6L58.2156 6L58.2156 6.16797C 57.8195 6.21016 57.6758 6.25195 57.6637 6.53984C 57.6578 6.78008 57.6578 7.04414 57.6816 7.53594L57.6816 7.53594L57.7719 9.24609L57.7719 9.24609L57.7836 9.24609L57.7836 9.24609L59.1277 6.04219L59.1277 6.04219L59.2477 6.04219L59.2477 6.04219L60.7117 9.33008L60.7117 9.33008L60.7355 9.33008L60.7355 9.33008L60.7535 6.88203C 60.7598 6.24609 60.7355 6.21602 60.2496 6.16797L60.2496 6.16797L60.2496 6z" stroke="#000000" stroke-width="0.4" fill="none" /><path id="1311" transform="matrix(1 0 0 -1 0 834)" d="M63.8258 6L63.8258 6.16797C 63.3336 6.20391 63.2855 6.23398 63.2855 6.75L63.2855 6.75L63.2855 9.150001C 63.2855 9.66016 63.3336 9.69609 63.8258 9.73203L63.8258 9.73203L63.8258 9.900001L63.8258 9.900001L62.2355 9.900001L62.2355 9.900001L62.2355 9.73203C 62.7277 9.69609 62.7758 9.66016 62.7758 9.150001L62.7758 9.150001L62.7758 6.75C 62.7758 6.23984 62.7277 6.20391 62.2355 6.16797L62.2355 6.16797L62.2355 6z" stroke="#000000" stroke-width="0.4" fill="none" /><path id="1312" transform="matrix(1 0 0 -1 0 834)" d="M66.5074 9.023829C 66.4598 9.40195 66.4297 9.63594 66.4055 9.851951C 66.1777 9.92383 65.9258 9.989841 65.6496 9.989841C 64.8758 9.989841 64.4137 9.49805 64.4137 8.921881C 64.4137 8.24414 65.0195 7.94414 65.4035 7.73984C 65.8535 7.5 66.1836 7.28984 66.1836 6.84609C 66.1836 6.40781 65.9137 6.12617 65.46371 6.12617C 64.8457 6.12617 64.5758 6.73203 64.4797 7.09805L64.4797 7.09805L64.3055 7.05586C 64.3418 6.767971 64.4195 6.25195 64.46761 6.12617C 64.52151 6.09609 64.6117 6.05391 64.7617 6C 64.91171 5.95781 65.1035 5.91016 65.3496 5.91016C 66.1477 5.91016 66.6816 6.41406 66.6816 7.04414C 66.6816 7.71602 66.1117 7.99805 65.6438 8.23789C 65.1695 8.48398 64.8816 8.68789 64.8816 9.12617C 64.8816 9.45 65.0855 9.78594 65.5477 9.78594C 66.0695 9.78594 66.2258 9.371881 66.3336 8.98789z" stroke="#000000" stroke-width="0.4" fill="none" /><path id="1313" transform="matrix(1 0 0 -1 0 834)" d="M69.4055 7.68008L68.3016 7.68008C 68.4816 8.171881 68.6734 8.69414 68.8656 9.21016L68.8656 9.21016L68.8777 9.21016zM70.9355 6L70.9355 6.16797C 70.5457 6.20391 70.46761 6.25781 70.2758 6.77383C 69.89181 7.81797 69.4895 8.95781 69.11761 9.989841L69.11761 9.989841L68.9316 9.93594L68.9316 9.93594L67.68951 6.78594C 67.4797 6.25781 67.3957 6.22188 67.0176 6.16797L67.0176 6.16797L67.0176 6L67.0176 6L68.3195 6L68.3195 6L68.3195 6.16797C 67.8695 6.21016 67.81561 6.26992 67.9477 6.64805C 68.0258 6.9 68.1156 7.15195 68.2117 7.42188L68.2117 7.42188L69.4895 7.42188C 69.62151 7.05586 69.74181 6.73203 69.8195 6.49805C 69.8977 6.26406 69.8438 6.21602 69.4656 6.16797L69.4656 6.16797L69.4656 6z" stroke="#000000" stroke-width="0.4" fill="none" /><path id="1314" transform="matrix(1 0 0 -1 0 834)" d="M71.7273 5.92813C 71.9195 5.92813 72.06371 6.06602 72.06371 6.27617C 72.06371 6.46797 71.9195 6.61797 71.7273 6.61797C 71.5355 6.61797 71.3914 6.46797 71.3914 6.27617C 71.3914 6.06602 71.5355 5.92813 71.7273 5.92813z" stroke="#000000" stroke-width="0.4" fill="none" /><path id="1315" transform="matrix(1 0 0 -1 0 834)" d="M73.9234 6L73.9234 6.15586C 73.53951 6.19219 73.4977 6.22813 73.4977 6.63594L73.4977 6.63594L73.4977 8.70586C 73.2336 8.59805 72.9516 8.51992 72.6453 8.471881L72.6453 8.471881L72.6453 8.328131C 73.0055 8.26797 73.0234 8.24414 73.0234 7.871881L73.0234 7.871881L73.0234 6.63594C 73.0234 6.22813 72.9816 6.19219 72.6035 6.15586L72.6035 6.15586L72.6035 6zM73.2215 9.216021C 73.3953 9.216021 73.52731 9.36016 73.52731 9.52188C 73.52731 9.70195 73.3953 9.83398 73.2273 9.83398C 73.06561 9.83398 72.9215 9.70195 72.9215 9.52188C 72.9215 9.36016 73.06561 9.216021 73.2215 9.216021z" stroke="#000000" stroke-width="0.4" fill="none" /><path id="1316" transform="matrix(1 0 0 -1 0 834)" d="M77.1574 6L77.1574 6.15586C 76.8094 6.19219 76.7793 6.21602 76.7793 6.62383L76.7793 6.62383L76.7793 7.78203C 76.7793 8.36406 76.4793 8.69414 76.0055 8.69414C 75.8313 8.69414 75.67541 8.621881 75.5074 8.51406C 75.3574 8.41211 75.2254 8.32188 75.1055 8.23203L75.1055 8.23203L75.1055 8.712111C 74.8414 8.59219 74.5594 8.51992 74.27151 8.466021L74.27151 8.466021L74.27151 8.328131C 74.5953 8.26797 74.6313 8.25 74.6313 7.86602L74.6313 7.86602L74.6313 6.62383C 74.6313 6.22813 74.6016 6.19805 74.19341 6.15586L74.19341 6.15586L74.19341 6L74.19341 6L75.4953 6L75.4953 6L75.4953 6.15586C 75.1414 6.19219 75.1055 6.21602 75.1055 6.62383L75.1055 6.62383L75.1055 8.03398C 75.2855 8.18984 75.5195 8.33984 75.7594 8.33984C 76.1613 8.33984 76.3055 8.069921 76.3055 7.65586L76.3055 7.65586L76.3055 6.65391C 76.3055 6.23984 76.2633 6.19219 75.9094 6.15586L75.9094 6.15586L75.9094 6z" stroke="#000000" stroke-width="0.4" fill="none" /><path id="1317" transform="matrix(1 0 0 -1 0 834)" d="M79.4734 6.51016C 79.32931 6.40195 79.1133 6.30586 78.8973 6.30586C 78.5133 6.30586 78.0754 6.65391 78.0754 7.36797C 78.0754 8.23789 78.57931 8.471881 78.8555 8.471881C 79.0832 8.471881 79.32931 8.37617 79.4734 8.16602zM80.4035 6.30586L80.2113 6.32383C 79.9895 6.34805 79.9473 6.37813 79.9473 6.68984L79.9473 6.68984L79.9473 10.2719C 79.7254 10.1941 79.3234 10.1039 79.0113 10.0621L79.0113 10.0621L79.0113 9.917971C 79.44341 9.88789 79.4734 9.869921 79.4734 9.47383L79.4734 9.47383L79.4734 8.628131C 79.3355 8.67617 79.1613 8.69414 79.0773 8.69414C 78.2613 8.69414 77.5293 8.03984 77.5293 7.20586C 77.5293 6.36602 78.1594 5.92813 78.6395 5.92813C 78.7113 5.92813 78.87341 5.96406 79.1074 6.10195L79.1074 6.10195L79.4734 6.31797L79.4734 6.31797L79.4734 5.92813C 79.8215 6.05391 80.27151 6.13203 80.4035 6.15586z" stroke="#000000" stroke-width="0.4" fill="none" /><path id="1318" transform="matrix(1 0 0 -1 0 834)" d="M81.3813 8.24414C 81.4895 8.310161 81.6813 8.35781 81.84921 8.35781C 82.34731 8.35781 82.7676 7.96211 82.7676 7.278131C 82.7676 6.58203 82.4492 6.15586 81.9516 6.15586C 81.6336 6.16211 81.4535 6.37188 81.4176 6.49219C 81.3934 6.54609 81.3813 6.60586 81.3813 6.69609zM81.3813 8.42383L81.3813 10.2719C 81.1594 10.1941 80.7934 10.098 80.5113 10.0621L80.5113 10.0621L80.5113 9.92383C 80.8953 9.88789 80.9074 9.851951 80.9074 9.48008L80.9074 9.48008L80.9074 6.14414C 81.2375 5.98789 81.5434 5.92813 81.78951 5.92813C 82.59341 5.92813 83.2953 6.55195 83.2953 7.43398C 83.2953 8.14219 82.7555 8.69414 82.1133 8.69414C 82.0473 8.69414 81.9633 8.67617 81.86761 8.63398z" stroke="#000000" stroke-width="0.4" fill="none" /><path id="1319" transform="matrix(1 0 0 -1 0 834)" d="M90.0754 6.83984C 89.8953 6.46211 89.8172 6.43789 89.4934 6.43789L89.4934 6.43789L88.3711 6.43789L88.3711 6.43789L89.223 7.33203C 89.77541 7.91992 90.0152 8.273829 90.0152 8.79609C 90.0152 9.42617 89.5352 9.810161 89.007 9.810161C 88.6594 9.810161 88.3773 9.653911 88.1973 9.45586L88.1973 9.45586L87.8551 8.96992L87.8551 8.96992L87.9871 8.85C 88.1434 9.08398 88.3953 9.40781 88.8031 9.40781C 89.24731 9.40781 89.5113 9.11406 89.5113 8.61016C 89.5113 8.09414 89.1332 7.60195 88.7613 7.15781C 88.4613 6.81016 88.1254 6.46797 87.7891 6.13789L87.7891 6.13789L87.7891 6L87.7891 6L90.0332 6C 90.1051 6.26992 90.1652 6.53398 90.2434 6.78594z" stroke="#000000" stroke-width="0.4" fill="none" /><path id="1320" transform="matrix(1 0 0 -1 0 834)" d="M91.3953 9.3L92.7934 9.3L92.7934 9.3L92.9492 9.68984L92.9492 9.68984L92.9133 9.73789L92.9133 9.73789L91.2031 9.73789L91.2031 9.73789L90.9691 7.90781C 91.107 7.96211 91.3352 8.028131 91.5871 8.028131C 92.241 8.028131 92.5652 7.65 92.5652 7.121881C 92.5652 6.67188 92.3133 6.23398 91.8031 6.23398C 91.4371 6.23398 91.191 6.42617 91.0652 6.53984C 91.0051 6.58789 90.957 6.58203 90.9031 6.53984C 90.8371 6.48008 90.7832 6.40195 90.77731 6.34219C 90.7652 6.26992 90.7953 6.22188 90.873 6.13789C 90.9633 6.05391 91.2152 5.92813 91.491 5.92813C 91.8094 5.93398 92.2113 6.08984 92.5352 6.35391C 92.90121 6.65391 93.0691 6.99609 93.0691 7.35586C 93.0691 7.84805 92.67931 8.369921 91.9113 8.369921C 91.7492 8.369921 91.4672 8.273829 91.2391 8.18984z" stroke="#000000" stroke-width="0.4" fill="none" /><path id="1321" transform="matrix(1 0 0 -1 0 834)" d="M94.7973 9.61211C 95.3371 9.61211 95.4871 8.72383 95.4871 7.871881C 95.4871 7.03203 95.34341 6.13203 94.8031 6.13203C 94.2813 6.13203 94.107 7.03789 94.107 7.87813C 94.107 8.712111 94.25121 9.61211 94.7973 9.61211zM94.8031 9.810161C 93.9031 9.810161 93.573 8.74219 93.573 7.86602C 93.573 6.91797 93.8973 5.92813 94.8031 5.92813C 95.7031 5.92813 96.0211 6.99609 96.0211 7.871881C 96.0211 8.79609 95.7031 9.810161 94.8031 9.810161z" stroke="#000000" stroke-width="0.4" fill="none" /><path id="1340" transform="matrix(1 0 0 -1 0 834)" d="M554.472 6.83984C 554.292 6.46211 554.2141 6.43789 553.89 6.43789L553.89 6.43789L552.768 6.43789L552.768 6.43789L553.6201 7.33203C 554.1721 7.91992 554.412 8.273829 554.412 8.79609C 554.412 9.42617 553.932 9.810161 553.404 9.810161C 553.056 9.810161 552.774 9.653911 552.594 9.45586L552.594 9.45586L552.252 8.96992L552.252 8.96992L552.384 8.85C 552.54 9.08398 552.792 9.40781 553.2 9.40781C 553.644 9.40781 553.908 9.11406 553.908 8.61016C 553.908 8.09414 553.53 7.60195 553.158 7.15781C 552.858 6.81016 552.522 6.46797 552.186 6.13789L552.186 6.13789L552.186 6L552.186 6L554.43 6C 554.502 6.26992 554.562 6.53398 554.64 6.78594z" stroke="#000000" stroke-width="0.4" fill="none" /><path id="1341" transform="matrix(1 0 0 -1 0 834)" d="M555.792 9.3L557.19 9.3L557.19 9.3L557.346 9.68984L557.346 9.68984L557.31 9.73789L557.31 9.73789L555.6 9.73789L555.6 9.73789L555.366 7.90781C 555.504 7.96211 555.732 8.028131 555.984 8.028131C 556.638 8.028131 556.962 7.65 556.962 7.121881C 556.962 6.67188 556.71 6.23398 556.2 6.23398C 555.834 6.23398 555.588 6.42617 555.462 6.53984C 555.402 6.58789 555.354 6.58203 555.3 6.53984C 555.234 6.48008 555.18 6.40195 555.174 6.34219C 555.162 6.26992 555.192 6.22188 555.27 6.13789C 555.36 6.05391 555.612 5.92813 555.888 5.92813C 556.206 5.93398 556.608 6.08984 556.932 6.35391C 557.298 6.65391 557.466 6.99609 557.466 7.35586C 557.466 7.84805 557.076 8.369921 556.308 8.369921C 556.146 8.369921 555.864 8.273829 555.636 8.18984z" stroke="#000000" stroke-width="0.4" fill="none" /><path id="1342" transform="matrix(1 0 0 -1 0 834)" d="M559.548 9.989841L559.212 9.989841L559.212 9.989841L557.91 5.73594L557.91 5.73594L558.246 5.73594z" stroke="#000000" stroke-width="0.4" fill="none" /><path id="1343" transform="matrix(1 0 0 -1 0 834)" d="M561.18 9.61211C 561.72 9.61211 561.8701 8.72383 561.8701 7.871881C 561.8701 7.03203 561.726 6.13203 561.186 6.13203C 560.664 6.13203 560.49 7.03789 560.49 7.87813C 560.49 8.712111 560.634 9.61211 561.18 9.61211zM561.186 9.810161C 560.286 9.810161 559.956 8.74219 559.956 7.86602C 559.956 6.91797 560.28 5.92813 561.186 5.92813C 562.086 5.92813 562.404 6.99609 562.404 7.871881C 562.404 8.79609 562.086 9.810161 561.186 9.810161z" stroke="#000000" stroke-width="0.4" fill="none" /><path id="1344" transform="matrix(1 0 0 -1 0 834)" d="M564 9.61211C 564.582 9.61211 564.738 8.86797 564.738 8.33984C 564.738 8.21992 564.732 8.076171 564.7141 7.94414C 564.588 7.84805 564.384 7.77617 564.174 7.77617C 563.67 7.77617 563.3701 8.214061 563.3701 8.74219C 563.3701 9.09609 563.538 9.61211 564 9.61211zM564.078 9.810161C 563.304 9.810161 562.854 9.10781 562.854 8.53203C 562.854 7.90195 563.292 7.43398 563.928 7.43398C 564.042 7.43398 564.156 7.45781 564.288 7.53008L564.288 7.53008L564.69 7.74609C 564.492 6.83398 563.838 6.23398 562.98 6.08984L562.98 6.08984L563.01 5.91016C 563.16 5.91016 563.526 5.96992 563.85 6.10195C 564.66 6.42617 565.2661 7.20586 565.2661 8.310161C 565.2661 9.12617 564.828 9.810161 564.078 9.810161z" stroke="#000000" stroke-width="0.4" fill="none" /><path id="1345" transform="matrix(1 0 0 -1 0 834)" d="M567.294 9.989841L566.958 9.989841L566.958 9.989841L565.656 5.73594L565.656 5.73594L565.992 5.73594z" stroke="#000000" stroke-width="0.4" fill="none" /><path id="1346" transform="matrix(1 0 0 -1 0 834)" d="M569.9641 6.83984C 569.784 6.46211 569.706 6.43789 569.382 6.43789L569.382 6.43789L568.26 6.43789L568.26 6.43789L569.112 7.33203C 569.664 7.91992 569.904 8.273829 569.904 8.79609C 569.904 9.42617 569.424 9.810161 568.896 9.810161C 568.548 9.810161 568.2661 9.653911 568.086 9.45586L568.086 9.45586L567.744 8.96992L567.744 8.96992L567.876 8.85C 568.032 9.08398 568.284 9.40781 568.692 9.40781C 569.136 9.40781 569.4 9.11406 569.4 8.61016C 569.4 8.09414 569.022 7.60195 568.65 7.15781C 568.35 6.81016 568.014 6.46797 567.678 6.13789L567.678 6.13789L567.678 6L567.678 6L569.9221 6C 569.994 6.26992 570.054 6.53398 570.132 6.78594z" stroke="#000000" stroke-width="0.4" fill="none" /><path id="1347" transform="matrix(1 0 0 -1 0 834)" d="M571.806 9.61211C 572.346 9.61211 572.496 8.72383 572.496 7.871881C 572.496 7.03203 572.352 6.13203 571.812 6.13203C 571.29 6.13203 571.116 7.03789 571.116 7.87813C 571.116 8.712111 571.26 9.61211 571.806 9.61211zM571.812 9.810161C 570.912 9.810161 570.582 8.74219 570.582 7.86602C 570.582 6.91797 570.906 5.92813 571.812 5.92813C 572.712 5.92813 573.03 6.99609 573.03 7.871881C 573.03 8.79609 572.712 9.810161 571.812 9.810161z" stroke="#000000" stroke-width="0.4" fill="none" /><path id="1348" transform="matrix(1 0 0 -1 0 834)" d="M575.556 6L575.556 6.16211C 575.01 6.20391 574.9741 6.25195 574.9741 6.68398L574.9741 6.68398L574.9741 9.810161C 574.644 9.67813 574.29 9.56406 573.906 9.49805L573.906 9.49805L573.906 9.36016L573.906 9.36016L574.194 9.34805C 574.458 9.33594 574.482 9.305861 574.482 8.99414L574.482 8.99414L574.482 6.68398C 574.482 6.25195 574.452 6.20391 573.906 6.16211L573.906 6.16211L573.906 6z" stroke="#000000" stroke-width="0.4" fill="none" /><path id="1349" transform="matrix(1 0 0 -1 0 834)" d="M578.814 9.73789L576.522 9.73789C 576.498 9.48008 576.468 9.180079 576.414 8.85L576.414 8.85L576.588 8.85C 576.732 9.24609 576.768 9.3 577.164 9.3L577.164 9.3L578.46 9.3C 577.986 8.25586 577.308 7.01406 576.678 5.99414L576.678 5.99414L576.72 5.92813L576.72 5.92813L577.164 5.98789C 577.74 7.22383 578.298 8.44805 578.862 9.66602z" stroke="#000000" stroke-width="0.4" fill="none" /><path id="1350" transform="matrix(1 0 0 -1 0 834)" d="M584.531 9.61211C 585.071 9.61211 585.221 8.72383 585.221 7.871881C 585.221 7.03203 585.077 6.13203 584.537 6.13203C 584.015 6.13203 583.841 7.03789 583.841 7.87813C 583.841 8.712111 583.985 9.61211 584.531 9.61211zM584.537 9.810161C 583.637 9.810161 583.307 8.74219 583.307 7.86602C 583.307 6.91797 583.631 5.92813 584.537 5.92813C 585.437 5.92813 585.755 6.99609 585.755 7.871881C 585.755 8.79609 585.437 9.810161 584.537 9.810161z" stroke="#000000" stroke-width="0.4" fill="none" /><path id="1351" transform="matrix(1 0 0 -1 0 834)" d="M588.449 6.83984C 588.269 6.46211 588.191 6.43789 587.867 6.43789L587.867 6.43789L586.7451 6.43789L586.7451 6.43789L587.597 7.33203C 588.149 7.91992 588.389 8.273829 588.389 8.79609C 588.389 9.42617 587.909 9.810161 587.381 9.810161C 587.033 9.810161 586.751 9.653911 586.571 9.45586L586.571 9.45586L586.229 8.96992L586.229 8.96992L586.361 8.85C 586.517 9.08398 586.769 9.40781 587.177 9.40781C 587.621 9.40781 587.885 9.11406 587.885 8.61016C 587.885 8.09414 587.507 7.60195 587.135 7.15781C 586.835 6.81016 586.499 6.46797 586.163 6.13789L586.163 6.13789L586.163 6L586.163 6L588.407 6C 588.479 6.26992 588.539 6.53398 588.617 6.78594z" stroke="#000000" stroke-width="0.4" fill="none" /><path id="1352" transform="matrix(1 0 0 -1 0 834)" d="M589.5471 5.92813C 589.739 5.92813 589.883 6.06602 589.883 6.27617C 589.883 6.46797 589.739 6.61797 589.5471 6.61797C 589.355 6.61797 589.211 6.46797 589.211 6.27617C 589.211 6.06602 589.355 5.92813 589.5471 5.92813zM589.541 8.466021C 589.3491 8.466021 589.211 8.328131 589.211 8.13008C 589.211 7.92617 589.3491 7.78203 589.541 7.78203C 589.733 7.78203 589.877 7.92617 589.877 8.13008C 589.877 8.328131 589.733 8.466021 589.541 8.466021z" stroke="#000000" stroke-width="0.4" fill="none" /><path id="1353" transform="matrix(1 0 0 -1 0 834)" d="M590.735 8.976171C 590.885 9.19805 591.125 9.45 591.455 9.45C 591.773 9.45 592.025 9.257811 592.025 8.88594C 592.025 8.44219 591.617 8.20781 591.065 8.03398L591.065 8.03398L591.107 7.86016C 591.203 7.88984 591.347 7.92617 591.491 7.92617C 591.833 7.92617 592.253 7.70391 592.253 7.15195C 592.253 6.55781 591.953 6.23984 591.527 6.23984C 591.185 6.23984 590.939 6.40781 590.783 6.54609C 590.735 6.58789 590.687 6.58203 590.639 6.54609C 590.585 6.50391 590.507 6.42617 590.501 6.34805C 590.489 6.27617 590.513 6.21016 590.597 6.13203C 590.675 6.06016 590.921 5.92813 591.197 5.92813C 591.629 5.92813 592.769 6.37188 592.769 7.34414C 592.769 7.78203 592.463 8.153911 591.935 8.25586L591.935 8.25586L591.935 8.26797C 592.109 8.38789 592.253 8.49609 592.343 8.59219C 592.457 8.70586 592.529 8.84414 592.529 9.01797C 592.529 9.47383 592.175 9.810161 591.635 9.810161C 591.317 9.810161 591.041 9.66016 590.873 9.47383L590.873 9.47383L590.609 9.09609z" stroke="#000000" stroke-width="0.4" fill="none" /><path id="1354" transform="matrix(1 0 0 -1 0 834)" d="M594.587 6.11992C 594.209 6.11992 593.855 6.42617 593.855 6.97813C 593.855 7.30781 594.059 7.60781 594.347 7.8C 594.809 7.56602 595.235 7.30781 595.235 6.85781C 595.235 6.39609 594.953 6.11992 594.587 6.11992zM594.533 9.61797C 594.809 9.61797 595.121 9.396091 595.121 8.89219C 595.121 8.53203 594.959 8.310161 594.755 8.14805C 594.329 8.35781 593.975 8.555861 593.975 9C 593.975 9.305861 594.179 9.61797 594.533 9.61797zM594.593 9.810161C 593.951 9.810161 593.525 9.33008 593.525 8.826171C 593.525 8.40586 593.783 8.11797 594.173 7.89609C 593.969 7.76406 593.741 7.60195 593.645 7.51211C 593.513 7.38594 593.375 7.21797 593.375 6.94219C 593.375 6.3 593.885 5.92813 594.527 5.92813C 595.037 5.92813 595.715 6.31211 595.715 7.01406C 595.715 7.53594 595.337 7.82383 594.923 8.057811C 595.1931 8.24414 595.355 8.38789 595.397 8.44219C 595.511 8.57383 595.571 8.74805 595.571 8.921881C 595.571 9.40781 595.163 9.810161 594.593 9.810161z" stroke="#000000" stroke-width="0.4" fill="none" /><path id="1355" transform="matrix(1 0 0 -1 0 834)" d="M596.675 5.92813C 596.867 5.92813 597.011 6.06602 597.011 6.27617C 597.011 6.46797 596.867 6.61797 596.675 6.61797C 596.483 6.61797 596.3391 6.46797 596.3391 6.27617C 596.3391 6.06602 596.483 5.92813 596.675 5.92813zM596.669 8.466021C 596.477 8.466021 596.3391 8.328131 596.3391 8.13008C 596.3391 7.92617 596.477 7.78203 596.669 7.78203C 596.861 7.78203 597.005 7.92617 597.005 8.13008C 597.005 8.328131 596.861 8.466021 596.669 8.466021z" stroke="#000000" stroke-width="0.4" fill="none" /><path id="1356" transform="matrix(1 0 0 -1 0 834)" d="M599.033 7.35L597.851 7.35C 598.247 8.016021 598.637 8.58594 599.021 9.119921L599.021 9.119921L599.033 9.119921zM600.0891 7.06797L600.0891 7.35L600.0891 7.35L599.513 7.35L599.513 7.35L599.513 9.79219L599.513 9.79219L599.273 9.79219C 598.655 8.976171 598.043 8.08789 597.473 7.23594L597.473 7.23594L597.473 7.06797L597.473 7.06797L599.033 7.06797L599.033 7.06797L599.033 6.63594C 599.033 6.23984 599.009 6.20391 598.487 6.16211L598.487 6.16211L598.487 6L598.487 6L600.023 6L600.023 6L600.023 6.16211C 599.537 6.20391 599.513 6.23398 599.513 6.63594L599.513 6.63594L599.513 7.06797z" stroke="#000000" stroke-width="0.4" fill="none" /><path id="1357" transform="matrix(1 0 0 -1 0 834)" d="M601.913 7.35L600.731 7.35C 601.127 8.016021 601.517 8.58594 601.901 9.119921L601.901 9.119921L601.913 9.119921zM602.969 7.06797L602.969 7.35L602.969 7.35L602.393 7.35L602.393 7.35L602.393 9.79219L602.393 9.79219L602.153 9.79219C 601.535 8.976171 600.923 8.08789 600.353 7.23594L600.353 7.23594L600.353 7.06797L600.353 7.06797L601.913 7.06797L601.913 7.06797L601.913 6.63594C 601.913 6.23984 601.889 6.20391 601.367 6.16211L601.367 6.16211L601.367 6L601.367 6L602.903 6L602.903 6L602.903 6.16211C 602.417 6.20391 602.393 6.23398 602.393 6.63594L602.393 6.63594L602.393 7.06797z" stroke="#000000" stroke-width="0.4" fill="none" /><path id="1358" transform="matrix(1 0 0 -1 0 834)" d="M605.489 8.08203C 605.651 8.20195 605.897 8.33398 606.0891 8.33398C 606.527 8.33398 606.893 7.97383 606.893 7.33203C 606.893 6.65391 606.557 6.22188 606.053 6.22188C 605.8491 6.22188 605.621 6.31797 605.489 6.45586zM605.489 8.28008L605.489 8.75391C 605.207 8.63984 604.871 8.53789 604.619 8.49609L604.619 8.49609L604.619 8.351951C 604.991 8.30391 605.015 8.29219 605.015 7.90195L605.015 7.90195L605.015 5.18984C 605.015 4.79414 604.961 4.75781 604.577 4.72188L604.577 4.72188L604.577 4.56016L604.577 4.56016L605.999 4.56016L605.999 4.56016L605.999 4.72188C 605.531 4.76406 605.489 4.79414 605.489 5.25L605.489 5.25L605.489 6.03594C 605.567 5.99414 605.729 5.93398 605.903 5.92813C 606.683 6.07188 607.397 6.65391 607.397 7.56016C 607.397 8.153911 607.001 8.69414 606.335 8.69414C 606.263 8.69414 606.149 8.664061 606.041 8.60391z" stroke="#000000" stroke-width="0.4" fill="none" /><path id="1359" transform="matrix(1 0 0 -1 0 834)" d="M608.303 5.92813C 608.4951 5.92813 608.639 6.06602 608.639 6.27617C 608.639 6.46797 608.4951 6.61797 608.303 6.61797C 608.111 6.61797 607.967 6.46797 607.967 6.27617C 607.967 6.06602 608.111 5.92813 608.303 5.92813z" stroke="#000000" stroke-width="0.4" fill="none" /><path id="1360" transform="matrix(1 0 0 -1 0 834)" d="M615.125 6L615.125 6.15586C 614.783 6.19219 614.735 6.21602 614.735 6.61797L614.735 6.61797L614.735 7.77617C 614.735 8.36406 614.441 8.69414 613.973 8.69414C 613.805 8.69414 613.649 8.621881 613.523 8.53789C 613.373 8.44805 613.199 8.33398 613.025 8.20195C 612.905 8.51406 612.647 8.69414 612.359 8.69414C 612.167 8.69414 612.023 8.628131 611.867 8.53203C 611.687 8.417971 611.555 8.310161 611.429 8.226171L611.429 8.226171L611.429 8.712111C 611.165 8.59219 610.859 8.51406 610.595 8.466021L610.595 8.466021L610.595 8.328131C 610.9431 8.273829 610.961 8.24414 610.961 7.86016L610.961 7.86016L610.961 6.61797C 610.961 6.22813 610.907 6.19219 610.511 6.15586L610.511 6.15586L610.511 6L610.511 6L611.777 6L611.777 6L611.777 6.15586C 611.483 6.19219 611.435 6.22813 611.435 6.61797L611.435 6.61797L611.435 8.028131C 611.615 8.17813 611.8491 8.33984 612.0891 8.33984C 612.455 8.33984 612.611 8.09414 612.611 7.65L612.611 7.65L612.611 6.61797C 612.611 6.22188 612.557 6.19219 612.185 6.15586L612.185 6.15586L612.185 6L612.185 6L613.469 6L613.469 6L613.469 6.15586C 613.139 6.19219 613.085 6.22813 613.085 6.60586L613.085 6.60586L613.085 7.77617C 613.085 7.88984 613.079 7.95586 613.067 8.028131C 613.295 8.21992 613.523 8.33984 613.739 8.33984C 614.117 8.33984 614.267 8.069921 614.267 7.64414L614.267 7.64414L614.267 6.64219C 614.267 6.21602 614.201 6.19219 613.847 6.15586L613.847 6.15586L613.847 6z" stroke="#000000" stroke-width="0.4" fill="none" /><path id="1361" transform="matrix(1 0 0 -1 0 834)" d="M615.947 5.92813C 616.139 5.92813 616.283 6.06602 616.283 6.27617C 616.283 6.46797 616.139 6.61797 615.947 6.61797C 615.755 6.61797 615.611 6.46797 615.611 6.27617C 615.611 6.06602 615.755 5.92813 615.947 5.92813z" stroke="#000000" stroke-width="0.4" fill="none" /></g></g></svg>