<svg xmlns="http://www.w3.org/2000/svg" xmlns:xlink="http://www.w3.org/1999/xlink" id="body_1" preserveAspectRatio="xMinYMin meet" viewBox="0 0 872 1112"><defs><clipPath id="1"><path id="" clip-rule="evenodd" transform="matrix(1 0 0 1 0 0)" d="M0 834L0 0L0 0L654 0L654 0L654 834L654 834L0 834z" /></clipPath><clipPath id="2"><path id="" clip-rule="evenodd" transform="matrix(1 0 0 1 0 0)" d="M21 813L633 813L633 813L633 21L633 21L21 21z" /></clipPath><clipPath id="3"><path id="" clip-rule="evenodd" transform="matrix(1 0 0 1 0 0)" d="M100.002 482.599L174.968 482.599L174.968 482.599L174.968 346.914L174.968 346.914L100.002 346.914z" /></clipPath><clipPath id="4"><path id="" clip-rule="evenodd" transform="matrix(1 0 0 1 0 0)" d="M100.002 482.599L174.968 482.599L174.968 482.599L174.968 346.914L174.968 346.914L100.002 346.914z" /></clipPath><clipPath id="5"><path id="" clip-rule="evenodd" transform="matrix(1 0 0 1 0 0)" d="M217.318 482.599L331.552 482.599L331.552 482.599L331.552 346.914L331.552 346.914L217.318 346.914z" /></clipPath><clipPath id="6"><path id="" clip-rule="evenodd" transform="matrix(1 0 0 1 0 0)" d="M217.318 482.599L331.552 482.599L331.552 482.599L331.552 346.914L331.552 346.914L217.318 346.914z" /></clipPath><clipPath id="7"><path id="" clip-rule="evenodd" transform="matrix(1 0 0 1 0 0)" d="M100.002 483.977L373.702 483.977L373.702 483.977L373.702 343.095L373.702 343.095L100.002 343.095z" /></clipPath><clipPath id="8"><path id="" clip-rule="evenodd" transform="matrix(1 0 0 1 0 0)" d="M161.889 435.557L161.889 459.735C 166.639 473.081 179.026 482.6 193.559 482.6L193.559 482.6L193.559 482.6C 212.195 482.6 227.302 466.95 227.302 447.646L227.302 447.646L227.302 447.646C 227.302 428.341 212.195 412.692 193.559 412.692L193.559 412.692L193.559 412.692C 179.026 412.692 166.639 422.21 161.889 435.557" /></clipPath><clipPath id="9"><path id="" clip-rule="evenodd" transform="matrix(1 0 0 1 0 0)" d="M161.889 435.557L161.889 459.735C 166.639 473.081 179.026 482.6 193.559 482.6L193.559 482.6L193.559 482.6C 212.195 482.6 227.302 466.95 227.302 447.646L227.302 447.646L227.302 447.646C 227.302 428.341 212.195 412.692 193.559 412.692L193.559 412.692L193.559 412.692C 179.026 412.692 166.639 422.21 161.889 435.557" /></clipPath><clipPath id="10"><path id="" clip-rule="evenodd" transform="matrix(1 0 0 1 0 0)" d="M100.002 483.977L373.702 483.977L373.702 483.977L373.702 343.095L373.702 343.095L100.002 343.095z" /></clipPath><clipPath id="11"><path id="" clip-rule="evenodd" transform="matrix(1 0 0 1 0 0)" d="M100.002 483.977L373.702 483.977L373.702 483.977L373.702 343.095L373.702 343.095L100.002 343.095z" /></clipPath><clipPath id="12"><path id="" clip-rule="evenodd" transform="matrix(1 0 0 1 0 0)" d="M305.087 440.271L305.087 455.022C 308.365 471.094 322.138 483.158 338.629 483.158L338.629 483.158L338.629 483.158C 357.563 483.158 372.912 467.259 372.912 447.646L372.912 447.646L372.912 447.646C 372.912 428.033 357.563 412.133 338.629 412.133L338.629 412.133L338.629 412.133C 322.138 412.133 308.365 424.198 305.087 440.271" /></clipPath><clipPath id="13"><path id="" clip-rule="evenodd" transform="matrix(1 0 0 1 0 0)" d="M305.087 440.271L305.087 455.022C 308.365 471.094 322.138 483.158 338.629 483.158L338.629 483.158L338.629 483.158C 357.563 483.158 372.912 467.259 372.912 447.646L372.912 447.646L372.912 447.646C 372.912 428.033 357.563 412.133 338.629 412.133L338.629 412.133L338.629 412.133C 322.138 412.133 308.365 424.198 305.087 440.271" /></clipPath><clipPath id="14"><path id="" clip-rule="evenodd" transform="matrix(1 0 0 1 0 0)" d="M100.002 483.977L373.702 483.977L373.702 483.977L373.702 343.095L373.702 343.095L100.002 343.095z" /></clipPath><clipPath id="15"><path id="" clip-rule="evenodd" transform="matrix(1 0 0 1 0 0)" d="M141.539 704.016L256.903 704.016L256.903 704.016L256.903 562.9919L256.903 562.9919L141.539 562.9919z" /></clipPath><clipPath id="16"><path id="" clip-rule="evenodd" transform="matrix(1 0 0 1 0 0)" d="M141.539 704.016L256.903 704.016L256.903 704.016L256.903 562.9919L256.903 562.9919L141.539 562.9919z" /></clipPath><clipPath id="17"><path id="" clip-rule="evenodd" transform="matrix(1 0 0 1 0 0)" d="M134.305 704.016L358.134 704.016L358.134 704.016L358.134 562.9919L358.134 562.9919L134.305 562.9919z" /></clipPath><clipPath id="18"><path id="" clip-rule="evenodd" transform="matrix(1 0 0 1 0 0)" d="M134.305 704.016L358.134 704.016L358.134 704.016L358.134 562.9919L358.134 562.9919L134.305 562.9919z" /></clipPath><clipPath id="19"><path id="" clip-rule="evenodd" transform="matrix(1 0 0 1 0 0)" d="M134.305 704.016L358.134 704.016L358.134 704.016L358.134 562.9919L358.134 562.9919L134.305 562.9919z" /></clipPath><clipPath id="20"><path id="" clip-rule="evenodd" transform="matrix(1 0 0 1 0 0)" d="M278.981 626.844C 266.521 633.044 257.626 643.39 255.328 655.463L255.328 655.463L255.328 655.463L255.328 655.463L255.328 667.885C 259.078 687.584 280.382 702.68 306.101 702.68L306.101 702.68L306.101 702.68C 334.465 702.68 357.459 684.321 357.459 661.673L357.459 661.673L357.459 661.673C 357.459 646.976 347.773 634.084 333.221 626.844L333.221 626.844L333.221 626.844z" /></clipPath><clipPath id="21"><path id="" clip-rule="evenodd" transform="matrix(1 0 0 1 0 0)" d="M278.981 626.844C 266.521 633.044 257.626 643.39 255.328 655.463L255.328 655.463L255.328 655.463L255.328 655.463L255.328 667.885C 259.078 687.584 280.382 702.68 306.101 702.68L306.101 702.68L306.101 702.68C 334.465 702.68 357.459 684.321 357.459 661.673L357.459 661.673L357.459 661.673C 357.459 646.976 347.773 634.084 333.221 626.844L333.221 626.844L333.221 626.844z" /></clipPath><clipPath id="22"><path id="" clip-rule="evenodd" transform="matrix(1 0 0 1 0 0)" d="M134.305 704.016L358.134 704.016L358.134 704.016L358.134 562.9919L358.134 562.9919L134.305 562.9919z" /></clipPath><clipPath id="23"><path id="" clip-rule="evenodd" transform="matrix(1 0 0 1 0 0)" d="M354.851 385.13L392.5518 385.13L392.5518 385.13L392.5518 328.2128L392.5518 328.2128L354.851 328.2128z" /></clipPath><clipPath id="24"><path id="" clip-rule="evenodd" transform="matrix(1 0 0 1 0 0)" d="M354.851 385.13L392.5518 385.13L392.5518 385.13L392.5518 328.2128L392.5518 328.2128L354.851 328.2128z" /></clipPath><clipPath id="25"><path id="" clip-rule="evenodd" transform="matrix(1 0 0 1 0 0)" d="M359.316 605.394L387.6621 605.394L387.6621 605.394L387.6621 548.6807L387.6621 548.6807L359.316 548.6807z" /></clipPath><clipPath id="26"><path id="" clip-rule="evenodd" transform="matrix(1 0 0 1 0 0)" d="M359.316 605.394L387.6621 605.394L387.6621 605.394L387.6621 548.6807L387.6621 548.6807L359.316 548.6807z" /></clipPath><clipPath id="27"><path id="" clip-rule="evenodd" transform="matrix(1 0 0 1 0 0)" d="M105.874 664.91L131.4701 664.91L131.4701 664.91L131.4701 629.051L131.4701 629.051L105.874 629.051z" /></clipPath><clipPath id="28"><path id="" clip-rule="evenodd" transform="matrix(1 0 0 1 0 0)" d="M105.874 664.91L131.4701 664.91L131.4701 664.91L131.4701 629.051L131.4701 629.051L105.874 629.051z" /></clipPath><clipPath id="29"><path id="" clip-rule="evenodd" transform="matrix(1 0 0 1 0 0)" d="M103.039 705.087L134.305 705.087L134.305 705.087L134.305 669.228L134.305 669.228L103.039 669.228z" /></clipPath><clipPath id="30"><path id="" clip-rule="evenodd" transform="matrix(1 0 0 1 0 0)" d="M103.039 705.087L134.305 705.087L134.305 705.087L134.305 669.228L134.305 669.228L103.039 669.228z" /></clipPath><clipPath id="31"><path id="" clip-rule="evenodd" transform="matrix(1 0 0 1 0 0)" d="M358.069 705.087L389.335 705.087L389.335 705.087L389.335 669.228L389.335 669.228L358.069 669.228z" /></clipPath><clipPath id="32"><path id="" clip-rule="evenodd" transform="matrix(1 0 0 1 0 0)" d="M358.069 705.087L389.335 705.087L389.335 705.087L389.335 669.228L389.335 669.228L358.069 669.228z" /></clipPath><clipPath id="33"><path id="" clip-rule="evenodd" transform="matrix(1 0 0 1 0 0)" d="M361.612 664.91L387.2089 664.91L387.2089 664.91L387.2089 629.051L387.2089 629.051L361.612 629.051z" /></clipPath><clipPath id="34"><path id="" clip-rule="evenodd" transform="matrix(1 0 0 1 0 0)" d="M361.612 664.91L387.2089 664.91L387.2089 664.91L387.2089 629.051L387.2089 629.051L361.612 629.051z" /></clipPath><clipPath id="35"><path id="" clip-rule="evenodd" transform="matrix(1 0 0 1 0 0)" d="M92.291 390.404L118.5961 390.404L118.5961 390.404L118.5961 358.6731L118.5961 358.6731L92.291 358.6731z" /></clipPath><clipPath id="36"><path id="" clip-rule="evenodd" transform="matrix(1 0 0 1 0 0)" d="M92.291 390.404L118.5961 390.404L118.5961 390.404L118.5961 358.6731L118.5961 358.6731L92.291 358.6731z" /></clipPath><clipPath id="37"><path id="" clip-rule="evenodd" transform="matrix(1 0 0 1 0 0)" d="M228.779 453.996L257.211 453.996L257.211 453.996L257.211 418.1378L257.211 418.1378L228.779 418.1378z" /></clipPath><clipPath id="38"><path id="" clip-rule="evenodd" transform="matrix(1 0 0 1 0 0)" d="M228.779 453.996L257.211 453.996L257.211 453.996L257.211 418.1378L257.211 418.1378L228.779 418.1378z" /></clipPath><clipPath id="39"><path id="" clip-rule="evenodd" transform="matrix(1 0 0 1 0 0)" d="M228.414 483.976L256.8449 483.976L256.8449 483.976L256.8449 450.303L256.8449 450.303L228.414 450.303z" /></clipPath><clipPath id="40"><path id="" clip-rule="evenodd" transform="matrix(1 0 0 1 0 0)" d="M228.414 483.976L256.8449 483.976L256.8449 483.976L256.8449 450.303L256.8449 450.303L228.414 450.303z" /></clipPath><clipPath id="41"><path id="" clip-rule="evenodd" transform="matrix(1 0 0 1 0 0)" d="M365.27 450.002L394.8891 450.002L394.8891 450.002L394.8891 414.1442L394.8891 414.1442L365.27 414.1442z" /></clipPath><clipPath id="42"><path id="" clip-rule="evenodd" transform="matrix(1 0 0 1 0 0)" d="M365.27 450.002L394.8891 450.002L394.8891 450.002L394.8891 414.1442L394.8891 414.1442L365.27 414.1442z" /></clipPath><clipPath id="43"><path id="" clip-rule="evenodd" transform="matrix(1 0 0 1 0 0)" d="M365.27 483.976L394.8891 483.976L394.8891 483.976L394.8891 450.303L394.8891 450.303L365.27 450.303z" /></clipPath><clipPath id="44"><path id="" clip-rule="evenodd" transform="matrix(1 0 0 1 0 0)" d="M365.27 483.976L394.8891 483.976L394.8891 483.976L394.8891 450.303L394.8891 450.303L365.27 450.303z" /></clipPath><clipPath id="45"><path id="" clip-rule="evenodd" transform="matrix(1 0 0 1 0 0)" d="M168.912 390.404L197.6827 390.404L197.6827 390.404L197.6827 358.6731L197.6827 358.6731L168.912 358.6731z" /></clipPath><clipPath id="46"><path id="" clip-rule="evenodd" transform="matrix(1 0 0 1 0 0)" d="M168.912 390.404L197.6827 390.404L197.6827 390.404L197.6827 358.6731L197.6827 358.6731L168.912 358.6731z" /></clipPath><clipPath id="47"><path id="" clip-rule="evenodd" transform="matrix(1 0 0 1 0 0)" d="M143.061 268.812L230.8173 268.812L230.8173 268.812L230.8173 145.332L230.8173 145.332L143.061 145.332z" /></clipPath><clipPath id="48"><path id="" clip-rule="evenodd" transform="matrix(1 0 0 1 0 0)" d="M143.061 268.812L230.8173 268.812L230.8173 268.812L230.8173 145.332L230.8173 145.332L143.061 145.332z" /></clipPath><clipPath id="49"><path id="" clip-rule="evenodd" transform="matrix(1 0 0 1 0 0)" d="M223.017 268.933L328.325 268.933L328.325 268.933L328.325 145.454L328.325 145.454L223.017 145.454z" /></clipPath><clipPath id="50"><path id="" clip-rule="evenodd" transform="matrix(1 0 0 1 0 0)" d="M223.017 268.933L328.325 268.933L328.325 268.933L328.325 145.454L328.325 145.454L223.017 145.454z" /></clipPath><clipPath id="51"><path id="" clip-rule="evenodd" transform="matrix(1 0 0 1 0 0)" d="M116.22 269.7029L356.406 269.7029L356.406 269.7029L356.406 135.981L356.406 135.981L116.22 135.981z" /></clipPath><clipPath id="52"><path id="" clip-rule="evenodd" transform="matrix(1 0 0 1 0 0)" d="M116.22 269.7029L356.406 269.7029L356.406 269.7029L356.406 135.981L356.406 135.981L116.22 135.981z" /></clipPath><clipPath id="53"><path id="" clip-rule="evenodd" transform="matrix(1 0 0 1 0 0)" d="M137.309 220.796C 125.729 222.588 116.866 232.59 116.866 244.6609L116.866 244.6609L116.866 244.6609C 116.866 257.999 127.688 268.812 141.039 268.812L141.039 268.812L141.039 268.812C 154.389 268.812 165.211 257.999 165.211 244.6609L165.211 244.6609L165.211 244.6609C 165.211 232.59 156.348 222.588 144.77 220.796L144.77 220.796L144.77 220.796z" /></clipPath><clipPath id="54"><path id="" clip-rule="evenodd" transform="matrix(1 0 0 1 0 0)" d="M137.309 220.796C 125.729 222.588 116.866 232.59 116.866 244.6609L116.866 244.6609L116.866 244.6609C 116.866 257.999 127.688 268.812 141.039 268.812L141.039 268.812L141.039 268.812C 154.389 268.812 165.211 257.999 165.211 244.6609L165.211 244.6609L165.211 244.6609C 165.211 232.59 156.348 222.588 144.77 220.796L144.77 220.796L144.77 220.796z" /></clipPath><clipPath id="55"><path id="" clip-rule="evenodd" transform="matrix(1 0 0 1 0 0)" d="M116.22 269.7029L356.406 269.7029L356.406 269.7029L356.406 135.981L356.406 135.981L116.22 135.981z" /></clipPath><clipPath id="56"><path id="" clip-rule="evenodd" transform="matrix(1 0 0 1 0 0)" d="M116.22 269.7029L356.406 269.7029L356.406 269.7029L356.406 135.981L356.406 135.981L116.22 135.981z" /></clipPath><clipPath id="57"><path id="" clip-rule="evenodd" transform="matrix(1 0 0 1 0 0)" d="M316.793 225.065L316.793 264.257C 320.856 267.273 325.89 269.0569 331.341 269.0569L331.341 269.0569L331.341 269.0569C 344.827 269.0569 355.759 258.134 355.759 244.6609L355.759 244.6609L355.759 244.6609C 355.759 231.187 344.827 220.265 331.341 220.265L331.341 220.265L331.341 220.265C 325.89 220.265 320.856 222.049 316.793 225.065" /></clipPath><clipPath id="58"><path id="" clip-rule="evenodd" transform="matrix(1 0 0 1 0 0)" d="M316.793 225.065L316.793 264.257C 320.856 267.273 325.89 269.0569 331.341 269.0569L331.341 269.0569L331.341 269.0569C 344.827 269.0569 355.759 258.134 355.759 244.6609L355.759 244.6609L355.759 244.6609C 355.759 231.187 344.827 220.265 331.341 220.265L331.341 220.265L331.341 220.265C 325.89 220.265 320.856 222.049 316.793 225.065" /></clipPath><clipPath id="59"><path id="" clip-rule="evenodd" transform="matrix(1 0 0 1 0 0)" d="M116.22 269.7029L356.406 269.7029L356.406 269.7029L356.406 135.981L356.406 135.981L116.22 135.981z" /></clipPath><clipPath id="60"><path id="" clip-rule="evenodd" transform="matrix(1 0 0 1 0 0)" d="M358.388 168.73L386.7353 168.73L386.7353 168.73L386.7353 111.8799L386.7353 111.8799L358.388 111.8799z" /></clipPath><clipPath id="61"><path id="" clip-rule="evenodd" transform="matrix(1 0 0 1 0 0)" d="M358.388 168.73L386.7353 168.73L386.7353 168.73L386.7353 111.8799L386.7353 111.8799L358.388 111.8799z" /></clipPath><clipPath id="62"><path id="" clip-rule="evenodd" transform="matrix(1 0 0 1 0 0)" d="M113.601 176.09L139.1979 176.09L139.1979 176.09L139.1979 140.2322L139.1979 140.2322L113.601 140.2322z" /></clipPath><clipPath id="63"><path id="" clip-rule="evenodd" transform="matrix(1 0 0 1 0 0)" d="M113.601 176.09L139.1979 176.09L139.1979 176.09L139.1979 140.2322L139.1979 140.2322L113.601 140.2322z" /></clipPath><clipPath id="64"><path id="" clip-rule="evenodd" transform="matrix(1 0 0 1 0 0)" d="M241.319 176.09L266.9159 176.09L266.9159 176.09L266.9159 136.4052L266.9159 136.4052L241.319 136.4052z" /></clipPath><clipPath id="65"><path id="" clip-rule="evenodd" transform="matrix(1 0 0 1 0 0)" d="M241.319 176.09L266.9159 176.09L266.9159 176.09L266.9159 136.4052L266.9159 136.4052L241.319 136.4052z" /></clipPath><clipPath id="66"><path id="" clip-rule="evenodd" transform="matrix(1 0 0 1 0 0)" d="M321.45 178.004L347.0469 178.004L347.0469 178.004L347.0469 138.3192L347.0469 138.3192L321.45 138.3192z" /></clipPath><clipPath id="67"><path id="" clip-rule="evenodd" transform="matrix(1 0 0 1 0 0)" d="M321.45 178.004L347.0469 178.004L347.0469 178.004L347.0469 138.3192L347.0469 138.3192L321.45 138.3192z" /></clipPath></defs><g transform="matrix(1.333333 0 0 1.333333 0 0)"><g clip-path="url(#1)"><g clip-path="url(#2)"><path id="1" transform="matrix(1 0 0 -1 0 834)" d="M91.866 67.4211L562.134 67.4211L562.134 74.92501L91.866 74.92501z" stroke="none" fill="#686868" fill-rule="nonzero" /><path id="2" transform="matrix(1 0 0 -1 0 834)" d="M93.118 525.472L563.386 525.472" stroke="#686868" stroke-width="1" fill="none" /><path id="3" transform="matrix(1 0 0 -1 0 834)" d="M93.118 305.504L563.386 305.504" stroke="#686868" stroke-width="1" fill="none" /></g><g clip-path="url(#3)"></g><g clip-path="url(#4)"><g transform="matrix(0.9995507 0 0 1.005074 100.002 346.914)"><g transform="matrix(1 0 0 1 0 0)"><image x="0" y="0" xlink:href="img_01.png" width="75" height="135" /></g></g></g><g clip-path="url(#5)"></g><g clip-path="url(#6)"><g transform="matrix(1.002053 0 0 1.005074 217.318 346.914)"><g transform="matrix(1 0 0 1 0 0)"><image x="0" y="0" xlink:href="img_02.png" width="114" height="135" /></g></g></g><path id="9" transform="matrix(1 0 0 -1 0 834)" d="M134.019 407.1874L117.5808 407.1874" stroke="#FFFFFF" stroke-width="0.8772056" fill="none" /><path id="10" transform="matrix(1 0 0 -1 0 834)" d="M114.962 407.19L118.813 408.872L118.122 407.19L118.813 405.507z" stroke="none" fill="#FFFFFF" fill-rule="nonzero" /><path id="11" transform="matrix(1 0 0 -1 0 834)" d="M139.4289 407.1874L155.8671 407.1874" stroke="#FFFFFF" stroke-width="0.8772056" fill="none" /><path id="12" transform="matrix(1 0 0 -1 0 834)" d="M155.325 407.19L154.634 408.872L158.485 407.19L154.634 405.507z" stroke="none" fill="#FFFFFF" fill-rule="nonzero" /><g clip-path="url(#7)"><path id="13" transform="matrix(1 0 0 -1 0 834)" d="M159.816 386.354C 159.816 367.05 174.923 351.4 193.559 351.4C 212.195 351.4 227.302 367.05 227.302 386.354C 227.302 405.658 212.195 421.307 193.559 421.307C 174.923 421.307 159.816 405.658 159.816 386.354" stroke="none" fill="#FFFFFF" fill-rule="nonzero" /></g><g clip-path="url(#8)"></g><g clip-path="url(#9)"><g transform="matrix(1.009635 0 0 0.9973748 161.889 411.7634)"><g transform="matrix(1 0 0 1 0 0)"><image x="0" y="0" xlink:href="img_03.png" width="66" height="95" /></g></g></g><g clip-path="url(#10)"><path id="15" transform="matrix(1 0 0 -1 0 834)" d="M159.8172 386.3517C 159.8172 367.0474 174.9242 351.3974 193.5589 351.3974C 212.1946 351.3974 227.3017 367.0474 227.3017 386.3517C 227.3017 405.6549 212.1946 421.3048 193.5589 421.3048C 174.9242 421.3048 159.8172 405.6549 159.8172 386.3517z" stroke="#000000" stroke-width="0.8772056" fill="none" /></g><path id="16" transform="matrix(1 0 0 -1 0 834)" d="M229.7242 429.9963L229.7242 418.77" stroke="#000000" stroke-width="0.8772056" fill="none" /><path id="17" transform="matrix(1 0 0 -1 0 834)" d="M228.102 420.048L229.726 419.333L231.35 420.048L229.726 416.059z" stroke="none" fill="#000000" fill-rule="nonzero" /><path id="18" transform="matrix(1 0 0 -1 0 834)" d="M313.3177 429.9963L313.3177 418.77" stroke="#000000" stroke-width="0.8772056" fill="none" /><path id="19" transform="matrix(1 0 0 -1 0 834)" d="M311.694 420.048L313.318 419.333L314.943 420.048L313.318 416.059z" stroke="none" fill="#000000" fill-rule="nonzero" /><g clip-path="url(#11)"><path id="20" transform="matrix(1 0 0 -1 0 834)" d="M304.347 386.354C 304.347 366.741 319.696 350.841 338.629 350.841C 357.563 350.841 372.912 366.741 372.912 386.354C 372.912 405.967 357.563 421.866 338.629 421.866C 319.696 421.866 304.347 405.967 304.347 386.354" stroke="none" fill="#FFFFFF" fill-rule="nonzero" /></g><g clip-path="url(#12)"></g><g clip-path="url(#13)"><g transform="matrix(1.007584 0 0 0.999962 305.087 410.8515)"><g transform="matrix(1 0 0 1 0 0)"><image x="0" y="0" xlink:href="img_04.png" width="68" height="92" /></g></g></g><g clip-path="url(#14)"><path id="22" transform="matrix(1 0 0 -1 0 834)" d="M304.3466 386.3517C 304.3466 366.738 319.6953 350.8387 338.6287 350.8387C 357.563 350.8387 372.9117 366.738 372.9117 386.3517C 372.9117 405.9642 357.563 421.8635 338.6287 421.8635C 319.6953 421.8635 304.3466 405.9642 304.3466 386.3517z" stroke="#000000" stroke-width="0.8772056" fill="none" /><path id="23" transform="matrix(1 0 0 -1 0 834)" d="M172.599 489.071C 170.038 489.071 167.963 486.921 167.963 484.269C 167.963 481.616 170.038 479.466 172.599 479.466C 175.159 479.466 177.235 481.616 177.235 484.269C 177.235 486.921 175.159 489.071 172.599 489.071M172.599 480.05C 170.364 480.05 168.552 481.927 168.552 484.242C 168.552 486.557 170.364 488.434 172.599 488.434C 174.834 488.434 176.646 486.557 176.646 484.242C 176.646 481.927 174.834 480.05 172.599 480.05" stroke="none" fill="#000000" fill-rule="nonzero" /><path id="25" transform="matrix(1 0 0 -1 0 834)" d="M319.294 489.046C 316.734 489.046 314.658 486.896 314.658 484.243C 314.658 481.591 316.734 479.44 319.294 479.44C 321.855 479.44 323.931 481.591 323.931 484.243C 323.931 486.896 321.855 489.046 319.294 489.046M319.294 480.024C 317.059 480.024 315.247 481.901 315.247 484.217C 315.247 486.532 317.059 488.409 319.294 488.409C 321.53 488.409 323.341 486.532 323.341 484.217C 323.341 481.901 321.53 480.024 319.294 480.024" stroke="none" fill="#000000" fill-rule="nonzero" /><path id="27" transform="matrix(1 0 0 -1 0 834)" d="M301.548 459.267C 298.988 459.267 296.912 457.116 296.912 454.464C 296.912 451.811 298.988 449.661 301.548 449.661C 304.109 449.661 306.185 451.811 306.185 454.464C 306.185 457.116 304.109 459.267 301.548 459.267M301.548 450.245C 299.313 450.245 297.501 452.122 297.501 454.438C 297.501 456.753 299.313 458.63 301.548 458.63C 303.784 458.63 305.596 456.753 305.596 454.438C 305.596 452.122 303.784 450.245 301.548 450.245" stroke="none" fill="#000000" fill-rule="nonzero" /><path id="29" transform="matrix(1 0 0 -1 0 834)" d="M354.558 407.19C 351.997 407.19 349.921 405.04 349.921 402.388C 349.921 399.735 351.997 397.585 354.558 397.585C 357.118 397.585 359.194 399.735 359.194 402.388C 359.194 405.04 357.118 407.19 354.558 407.19M354.558 398.168C 352.323 398.168 350.511 400.045 350.511 402.361C 350.511 404.676 352.323 406.554 354.558 406.554C 356.793 406.554 358.605 404.676 358.605 402.361C 358.605 400.045 356.793 398.168 354.558 398.168" stroke="none" fill="#000000" fill-rule="nonzero" /></g><g clip-path="url(#15)"></g><g clip-path="url(#16)"><g transform="matrix(1.003165 0 0 1.00017 141.539 562.992)"><g transform="matrix(1 0 0 1 0 0)"><image x="0" y="0" xlink:href="img_05.png" width="115" height="141" /></g></g></g><g clip-path="url(#17)"><path id="32" transform="matrix(1 0 0 -1 0 834)" d="M231.6325 213.3322C 238.5386 218.4143 248.1198 222.7985 259.9016 221.5704" stroke="#000000" stroke-width="1.499941" fill="none" /></g><path id="33" transform="matrix(1 0 0 -1 0 834)" d="M258.98 221.671L258.218 224.684L264.327 220.858L257.409 219.012z" stroke="none" fill="#000000" fill-rule="nonzero" /><g clip-path="url(#18)"><path id="34" transform="matrix(1 0 0 -1 0 834)" d="M219.141 200.4956C 219.141 200.4956 223.5581 207.3908 231.6315 213.3322" stroke="#FFFFFF" stroke-width="1.499941" fill="none" /><path id="35" transform="matrix(1 0 0 -1 0 834)" d="M166.8367 213.3322C 159.9689 218.4112 150.4428 222.7924 138.7299 221.5724" stroke="#000000" stroke-width="1.499941" fill="none" /></g><path id="36" transform="matrix(1 0 0 -1 0 834)" d="M134.305 220.858L140.413 224.686L139.651 221.672L141.224 219.014z" stroke="none" fill="#000000" fill-rule="nonzero" /><g clip-path="url(#19)"><path id="37" transform="matrix(1 0 0 -1 0 834)" d="M179.2661 200.4956C 179.2661 200.4956 174.8707 207.3908 166.8376 213.3322" stroke="#FFFFFF" stroke-width="1.499941" fill="none" /><path id="38" transform="matrix(1 0 0 -1 0 834)" d="M254.742 172.326C 254.742 149.679 277.736 131.32 306.1 131.32C 334.465 131.32 357.459 149.679 357.459 172.326C 357.459 194.973 334.465 213.333 306.1 213.333C 277.736 213.333 254.742 194.973 254.742 172.326" stroke="none" fill="#FFFFFF" fill-rule="nonzero" /></g><g clip-path="url(#20)"></g><g clip-path="url(#21)"><g transform="matrix(1.00703 0 0 1.008059 255.328 626.8446)"><g transform="matrix(1 0 0 1 0 0)"><image x="0" y="0" xlink:href="img_06.png" width="102" height="91" /></g></g></g><g clip-path="url(#22)"><path id="40" transform="matrix(1 0 0 -1 0 834)" d="M254.7415 172.3264C 254.7415 149.6792 277.7363 131.3196 306.101 131.3196C 334.4646 131.3196 357.4595 149.6792 357.4595 172.3264C 357.4595 194.9737 334.4646 213.3332 306.101 213.3332C 277.7363 213.3332 254.7415 194.9737 254.7415 172.3264z" stroke="#000000" stroke-width="0.7499703" fill="none" /><path id="41" transform="matrix(1 0 0 -1 0 834)" d="M177.015 233.566C 174.826 233.566 173.051 231.735 173.051 229.475C 173.051 227.216 174.826 225.384 177.015 225.384C 179.204 225.384 180.979 227.216 180.979 229.475C 180.979 231.735 179.204 233.566 177.015 233.566M177.015 225.881C 175.104 225.881 173.555 227.48 173.555 229.453C 173.555 231.425 175.104 233.024 177.015 233.024C 178.926 233.024 180.475 231.425 180.475 229.453C 180.475 227.48 178.926 225.881 177.015 225.881" stroke="none" fill="#000000" fill-rule="nonzero" /><path id="43" transform="matrix(1 0 0 -1 0 834)" d="M329.311 200.496C 327.122 200.496 325.347 198.664 325.347 196.405C 325.347 194.145 327.122 192.314 329.311 192.314C 331.5 192.314 333.275 194.145 333.275 196.405C 333.275 198.664 331.5 200.496 329.311 200.496M329.311 192.811C 327.4 192.811 325.851 194.41 325.851 196.382C 325.851 198.354 327.4 199.954 329.311 199.954C 331.222 199.954 332.771 198.354 332.771 196.382C 332.771 194.41 331.222 192.811 329.311 192.811" stroke="none" fill="#000000" fill-rule="nonzero" /></g><g clip-path="url(#23)"></g><g clip-path="url(#24)"><g transform="matrix(0.9921263 0 0 0.9934999 354.851 327.859)"><g transform="matrix(1 0 0 1 0 0)"><image x="0" y="0" xlink:href="img_07.png" width="38" height="58" /></g></g></g><g clip-path="url(#25)"></g><g clip-path="url(#26)"><g transform="matrix(1.012375 0 0 1.001267 359.316 548.3218)"><g transform="matrix(1 0 0 1 0 0)"><image x="0" y="0" xlink:href="img_08.png" width="28" height="57" /></g></g></g><g clip-path="url(#27)"></g><g clip-path="url(#28)"><g transform="matrix(1.022789 0 0 0.9973868 104.868 628.0303)"><g transform="matrix(1 0 0 1 0 0)"><image x="0" y="0" xlink:href="img_09.png" width="27" height="38" /></g></g></g><g clip-path="url(#29)"></g><g clip-path="url(#30)"><g transform="matrix(1.008694 0 0 0.9967948 102.03 668.2158)"><g transform="matrix(1 0 0 1 0 0)"><image x="0" y="0" xlink:href="img_10.png" width="33" height="38" /></g></g></g><g clip-path="url(#31)"></g><g clip-path="url(#32)"><g transform="matrix(-1.008694 0 0 0.9967948 390.343 668.2158)"><g transform="matrix(1 0 0 1 0 0)"><image x="0" y="0" xlink:href="img_10.png" width="33" height="38" /></g></g></g><g clip-path="url(#33)"></g><g clip-path="url(#34)"><g transform="matrix(-1.022789 0 0 0.9973868 388.215 628.0303)"><g transform="matrix(1 0 0 1 0 0)"><image x="0" y="0" xlink:href="img_09.png" width="27" height="38" /></g></g></g><g clip-path="url(#35)"></g><g clip-path="url(#36)"><g transform="matrix(-1.012615 0 0 0.9928334 119.632 358.6725)"><g transform="matrix(1 0 0 1 0 0)"><image x="0" y="0" xlink:href="img_11.png" width="27" height="33" /></g></g></g><g clip-path="url(#37)"></g><g clip-path="url(#38)"><g transform="matrix(1.01479 0 0 0.9967606 227.777 417.1261)"><g transform="matrix(1 0 0 1 0 0)"><image x="0" y="0" xlink:href="img_12.png" width="30" height="38" /></g></g></g><g clip-path="url(#39)"></g><g clip-path="url(#40)"><g transform="matrix(1.01513 0 0 1.020194 227.401 450.3034)"><g transform="matrix(1 0 0 1 0 0)"><image x="0" y="0" xlink:href="img_13.png" width="30" height="34" /></g></g></g><g clip-path="url(#41)"></g><g clip-path="url(#42)"><g transform="matrix(-1.020587 0 0 0.9967606 395.904 413.1321)"><g transform="matrix(1 0 0 1 0 0)"><image x="0" y="0" xlink:href="img_14.png" width="31" height="38" /></g></g></g><g clip-path="url(#43)"></g><g clip-path="url(#44)"><g transform="matrix(-1.020652 0 0 1.020194 395.902 450.3034)"><g transform="matrix(1 0 0 1 0 0)"><image x="0" y="0" xlink:href="img_15.png" width="31" height="34" /></g></g></g><g clip-path="url(#45)"></g><g clip-path="url(#46)"><g transform="matrix(0.9921277 0 0 0.9928334 168.912 358.6725)"><g transform="matrix(1 0 0 1 0 0)"><image x="0" y="0" xlink:href="img_16.png" width="29" height="33" /></g></g></g><g clip-path="url(#47)"></g><g clip-path="url(#48)"><g transform="matrix(0.9972353 0 0 1.003894 143.061 145.332)"><g transform="matrix(1 0 0 1 0 0)"><image x="0" y="0" xlink:href="img_17.png" width="88" height="123" /></g></g></g><g clip-path="url(#49)"></g><g clip-path="url(#50)"><g transform="matrix(1.002933 0 0 1.003894 223.017 145.454)"><g transform="matrix(1 0 0 1 0 0)"><image x="0" y="0" xlink:href="img_18.png" width="105" height="123" /></g></g></g><g clip-path="url(#51)"><path id="908" transform="matrix(1 0 0 -1 0 834)" d="M172.5466 651.2455C 170.2456 652.321 166.0897 653.6444 161.5837 652.0951" stroke="#000000" stroke-width="0.7179459" fill="none" /></g><path id="909" transform="matrix(1 0 0 -1 0 834)" d="M171.014 650.531L172.142 651.432L172.276 652.869L174.419 650.205z" stroke="none" fill="#000000" fill-rule="nonzero" /><path id="910" transform="matrix(1 0 0 -1 0 834)" d="M159.62 651.238L162.009 653.683L162.004 652.239L163.039 651.234z" stroke="none" fill="#000000" fill-rule="nonzero" /><g clip-path="url(#52)"><path id="911" transform="matrix(1 0 0 -1 0 834)" d="M116.866 589.3391C 116.866 576.001 127.689 565.189 141.039 565.189C 154.389 565.189 165.211 576.001 165.211 589.3391C 165.211 602.677 154.389 613.49 141.039 613.49C 127.689 613.49 116.866 602.677 116.866 589.3391" stroke="none" fill="#FFFFFF" fill-rule="nonzero" /></g><g clip-path="url(#53)"></g><g clip-path="url(#54)"><g transform="matrix(1.004635 0 0 1.007384 114.675 220.7956)"><g transform="matrix(1 0 0 1 0 0)"><image x="0" y="0" xlink:href="img_19.png" width="62" height="87" /></g></g></g><g clip-path="url(#55)"><path id="913" transform="matrix(1 0 0 -1 0 834)" d="M116.8666 589.3393C 116.8666 576.0013 127.6884 565.1891 141.0384 565.1891C 154.3884 565.1891 165.2113 576.0013 165.2113 589.3393C 165.2113 602.6773 154.3884 613.4905 141.0384 613.4905C 127.6884 613.4905 116.8666 602.6773 116.8666 589.3393z" stroke="#000000" stroke-width="0.7179459" fill="none" /></g><path id="915" transform="matrix(1 0 0 -1 0 834)" d="M252.7567 631.4094L252.7567 653.8983" stroke="#000000" stroke-width="0.7179459" fill="none" /><path id="916" transform="matrix(1 0 0 -1 0 834)" d="M252.757 653.456L251.427 652.892L252.757 656.04L254.086 652.892z" stroke="none" fill="#000000" fill-rule="nonzero" /><g clip-path="url(#56)"><path id="917" transform="matrix(1 0 0 -1 0 834)" d="M306.923 589.3391C 306.923 575.866 317.855 564.9431 331.341 564.9431C 344.827 564.9431 355.759 575.866 355.759 589.3391C 355.759 602.813 344.827 613.736 331.341 613.736C 317.855 613.736 306.923 602.813 306.923 589.3391" stroke="none" fill="#FFFFFF" fill-rule="nonzero" /></g><g clip-path="url(#57)"></g><g clip-path="url(#58)"><g transform="matrix(1.010406 0 0 1.000738 316.793 198.4813)"><g transform="matrix(1 0 0 1 0 0)"><image x="0" y="0" xlink:href="img_20.png" width="71" height="89" /></g></g></g><g clip-path="url(#59)"><path id="919" transform="matrix(1 0 0 -1 0 834)" d="M306.9231 589.3393C 306.9231 575.8663 317.855 564.9433 331.341 564.9433C 344.8271 564.9433 355.76 575.8663 355.76 589.3393C 355.76 602.8132 344.8271 613.7363 331.341 613.7363C 317.855 613.7363 306.9231 602.8132 306.9231 589.3393z" stroke="#000000" stroke-width="0.7179459" fill="none" /><path id="920" transform="matrix(1 0 0 -1 0 834)" d="M162.868 696.13C 160.773 696.13 159.074 694.432 159.074 692.3391C 159.074 690.2451 160.773 688.5471 162.868 688.5471C 164.964 688.5471 166.663 690.2451 166.663 692.3391C 166.663 694.432 164.964 696.13 162.868 696.13M162.868 689.008C 161.039 689.008 159.556 690.49 159.556 692.3181C 159.556 694.145 161.039 695.627 162.868 695.627C 164.698 695.627 166.181 694.145 166.181 692.3181C 166.181 690.49 164.698 689.008 162.868 689.008" stroke="none" fill="#000000" fill-rule="nonzero" /><path id="922" transform="matrix(1 0 0 -1 0 834)" d="M314.755 696.575C 312.66 696.575 310.961 694.877 310.961 692.783C 310.961 690.689 312.66 688.992 314.755 688.992C 316.851 688.992 318.55 690.689 318.55 692.783C 318.55 694.877 316.851 696.575 314.755 696.575M314.755 689.453C 312.926 689.453 311.443 690.934 311.443 692.762C 311.443 694.59 312.926 696.072 314.755 696.072C 316.585 696.072 318.068 694.59 318.068 692.762C 318.068 690.934 316.585 689.453 314.755 689.453" stroke="none" fill="#000000" fill-rule="nonzero" /></g><g clip-path="url(#60)"></g><g clip-path="url(#61)"><g transform="matrix(1.012375 0 0 1.001267 358.389 111.8788)"><g transform="matrix(1 0 0 1 0 0)"><image x="0" y="0" xlink:href="img_08.png" width="28" height="57" /></g></g></g><g clip-path="url(#62)"></g><g clip-path="url(#63)"><g transform="matrix(1.022789 0 0 0.9973868 112.594 139.2113)"><g transform="matrix(1 0 0 1 0 0)"><image x="0" y="0" xlink:href="img_21.png" width="27" height="38" /></g></g></g><g clip-path="url(#64)"></g><g clip-path="url(#65)"><g transform="matrix(-1.022789 0 0 1.017178 267.924 135.3987)"><g transform="matrix(1 0 0 1 0 0)"><image x="0" y="0" xlink:href="img_22.png" width="27" height="41" /></g></g></g><g clip-path="url(#66)"></g><g clip-path="url(#67)"><g transform="matrix(1.022789 0 0 1.017178 320.443 137.3007)"><g transform="matrix(1 0 0 1 0 0)"><image x="0" y="0" xlink:href="img_23.png" width="27" height="41" /></g></g></g><path id="1425" transform="matrix(1 0 0 -1 0 834)" d="M633 15L633 0M633 819L633 834M21 15L21 0M21 819L21 834M639 21L654 21M15 21L0 21M639 813L654 813M15 813L0 813" stroke="#000000" stroke-width="1.25" fill="none" /><path id="1426" transform="matrix(1 0 0 -1 0 834)" d="M633 15L633 0M633 819L633 834M21 15L21 0M21 819L21 834M639 21L654 21M15 21L0 21M639 813L654 813M15 813L0 813" stroke="#000000" stroke-width="0.25" fill="none" /><path id="1427" transform="matrix(1 0 0 -1 0 834)" d="M32.2781 9.28203C 32.2781 9.516021 32.2961 9.58203 32.3559 9.62383C 32.416 9.66602 32.5719 9.69609 32.8238 9.69609C 33.2262 9.69609 33.5738 9.62383 33.8441 9.45C 34.3238 9.167971 34.552 8.63398 34.552 8.016021C 34.552 7.05586 34.0359 6.21602 32.9141 6.21602C 32.4762 6.21602 32.2781 6.33008 32.2781 6.78594zM31.252 9.900001L31.252 9.726171C 31.7141 9.68984 31.7621 9.66602 31.7621 9.150001L31.7621 9.150001L31.7621 6.74414C 31.7621 6.23398 31.7141 6.19805 31.198 6.16211L31.198 6.16211L31.198 6L31.198 6L32.6199 6C 33.3578 6 33.952 6.15 34.402 6.49805C 34.8641 6.84609 35.1398 7.38008 35.1398 8.1C 35.1398 8.664061 34.9301 9.101951 34.6359 9.38984C 34.2641 9.74414 33.7 9.900001 32.9379 9.900001z" stroke="#000000" stroke-width="0.4" fill="none" /><path id="1428" transform="matrix(1 0 0 -1 0 834)" d="M38.3801 6.97813C 38.2898 6.70195 38.1758 6.51016 38.0738 6.38984C 37.9359 6.23398 37.732 6.20391 37.402 6.20391C 37.15 6.20391 36.9461 6.21602 36.8258 6.28203C 36.718 6.34219 36.6879 6.46211 36.6879 6.78594L36.6879 6.78594L36.6879 9.15586C 36.6879 9.66602 36.7418 9.69609 37.216 9.73203L37.216 9.73203L37.216 9.900001L37.216 9.900001L35.65 9.900001L35.65 9.900001L35.65 9.73203C 36.1359 9.69609 36.1777 9.66602 36.1777 9.15586L36.1777 9.15586L36.1777 6.75586C 36.1777 6.24609 36.1301 6.20391 35.6258 6.16797L35.6258 6.16797L35.6258 6L35.6258 6L38.3438 6C 38.398 6.18594 38.5238 6.75586 38.5598 6.94219z" stroke="#000000" stroke-width="0.4" fill="none" /><path id="1429" transform="matrix(1 0 0 -1 0 834)" d="M41.0918 9.023829C 41.0438 9.40195 41.0141 9.63594 40.9898 9.851951C 40.7617 9.92383 40.5098 9.989841 40.234 9.989841C 39.4598 9.989841 38.998 9.49805 38.998 8.921881C 38.998 8.24414 39.6039 7.94414 39.9879 7.73984C 40.4379 7.5 40.768 7.28984 40.768 6.84609C 40.768 6.40781 40.498 6.12617 40.048 6.12617C 39.4301 6.12617 39.1598 6.73203 39.0641 7.09805L39.0641 7.09805L38.8898 7.05586C 38.9258 6.767971 39.0039 6.25195 39.052 6.12617C 39.1059 6.09609 39.1961 6.05391 39.3461 6C 39.4961 5.95781 39.6879 5.91016 39.934 5.91016C 40.732 5.91016 41.266 6.41406 41.266 7.04414C 41.266 7.71602 40.6961 7.99805 40.2277 8.23789C 39.7539 8.48398 39.466 8.68789 39.466 9.12617C 39.466 9.45 39.6699 9.78594 40.132 9.78594C 40.6539 9.78594 40.8098 9.371881 40.918 8.98789z" stroke="#000000" stroke-width="0.4" fill="none" /><path id="1430" transform="matrix(1 0 0 -1 0 834)" d="M46.648 6L46.648 6.16797C 46.1258 6.21602 46.1078 6.24609 46.0898 6.88203L46.0898 6.88203L46.0301 9.05391C 46.0117 9.671881 46.0539 9.68398 46.582 9.73203L46.582 9.73203L46.582 9.900001L46.582 9.900001L45.5617 9.900001L45.5617 9.900001L44.1758 6.9L44.1758 6.9L42.8078 9.900001L42.8078 9.900001L41.8238 9.900001L41.8238 9.900001L41.8238 9.73203C 42.3699 9.67813 42.4 9.653911 42.3461 8.87383L42.3461 8.87383L42.2617 7.626171C 42.2141 7.00195 42.1777 6.73789 42.148 6.528131C 42.1059 6.27617 41.9859 6.21016 41.6379 6.16797L41.6379 6.16797L41.6379 6L41.6379 6L43.0359 6L43.0359 6L43.0359 6.16797C 42.6398 6.21016 42.4961 6.25195 42.484 6.53984C 42.4777 6.78008 42.4777 7.04414 42.502 7.53594L42.502 7.53594L42.5918 9.24609L42.5918 9.24609L42.6039 9.24609L42.6039 9.24609L43.948 6.04219L43.948 6.04219L44.068 6.04219L44.068 6.04219L45.532 9.33008L45.532 9.33008L45.5559 9.33008L45.5559 9.33008L45.5738 6.88203C 45.5801 6.24609 45.5559 6.21602 45.0699 6.16797L45.0699 6.16797L45.0699 6z" stroke="#000000" stroke-width="0.4" fill="none" /><path id="1431" transform="matrix(1 0 0 -1 0 834)" d="M51.8738 7.05586C 51.5738 6.45586 51.2496 6.12617 50.6379 6.12617C 49.7258 6.12617 49.0656 6.89414 49.0656 8.016021C 49.0656 8.92813 49.5996 9.773829 50.602 9.773829C 51.2496 9.773829 51.6098 9.516021 51.7656 8.88008L51.7656 8.88008L51.9457 8.921881C 51.9098 9.24609 51.8738 9.48594 51.8258 9.828131C 51.6578 9.85781 51.2496 9.989841 50.7637 9.989841C 49.4258 9.989841 48.4539 9.15586 48.4539 7.89609C 48.4539 6.94219 49.1078 5.91016 50.602 5.91016C 51.034 5.91016 51.5379 6.03008 51.7059 6.07188C 51.8137 6.26992 51.9637 6.71406 52.0477 6.98984z" stroke="#000000" stroke-width="0.4" fill="none" /><path id="1432" transform="matrix(1 0 0 -1 0 834)" d="M54.3398 9.773829C 55.1258 9.773829 55.7855 9.101951 55.7855 7.83594C 55.7855 6.68398 55.1855 6.12617 54.5195 6.12617C 53.6738 6.12617 53.0559 6.94805 53.0559 8.076171C 53.0559 9.19805 53.6676 9.773829 54.3398 9.773829zM54.4598 9.989841C 53.1996 9.989841 52.4438 8.98789 52.4438 7.90781C 52.4438 6.75586 53.3078 5.91016 54.3938 5.91016C 55.4918 5.91016 56.3977 6.70195 56.3977 7.99805C 56.3977 9.19805 55.4797 9.989841 54.4598 9.989841z" stroke="#000000" stroke-width="0.4" fill="none" /><path id="1433" transform="matrix(1 0 0 -1 0 834)" d="M61.8277 6L61.8277 6.16797C 61.3059 6.21602 61.2879 6.24609 61.2695 6.88203L61.2695 6.88203L61.2098 9.05391C 61.1918 9.671881 61.2336 9.68398 61.7617 9.73203L61.7617 9.73203L61.7617 9.900001L61.7617 9.900001L60.7418 9.900001L60.7418 9.900001L59.3559 6.9L59.3559 6.9L57.9879 9.900001L57.9879 9.900001L57.0035 9.900001L57.0035 9.900001L57.0035 9.73203C 57.5496 9.67813 57.5797 9.653911 57.5258 8.87383L57.5258 8.87383L57.4418 7.626171C 57.3938 7.00195 57.3578 6.73789 57.3277 6.528131C 57.2855 6.27617 57.1656 6.21016 56.8176 6.16797L56.8176 6.16797L56.8176 6L56.8176 6L58.2156 6L58.2156 6L58.2156 6.16797C 57.8195 6.21016 57.6758 6.25195 57.6637 6.53984C 57.6578 6.78008 57.6578 7.04414 57.6816 7.53594L57.6816 7.53594L57.7719 9.24609L57.7719 9.24609L57.7836 9.24609L57.7836 9.24609L59.1277 6.04219L59.1277 6.04219L59.2477 6.04219L59.2477 6.04219L60.7117 9.33008L60.7117 9.33008L60.7355 9.33008L60.7355 9.33008L60.7535 6.88203C 60.7598 6.24609 60.7355 6.21602 60.2496 6.16797L60.2496 6.16797L60.2496 6z" stroke="#000000" stroke-width="0.4" fill="none" /><path id="1434" transform="matrix(1 0 0 -1 0 834)" d="M63.8258 6L63.8258 6.16797C 63.3336 6.20391 63.2855 6.23398 63.2855 6.75L63.2855 6.75L63.2855 9.150001C 63.2855 9.66016 63.3336 9.69609 63.8258 9.73203L63.8258 9.73203L63.8258 9.900001L63.8258 9.900001L62.2355 9.900001L62.2355 9.900001L62.2355 9.73203C 62.7277 9.69609 62.7758 9.66016 62.7758 9.150001L62.7758 9.150001L62.7758 6.75C 62.7758 6.23984 62.7277 6.20391 62.2355 6.16797L62.2355 6.16797L62.2355 6z" stroke="#000000" stroke-width="0.4" fill="none" /><path id="1435" transform="matrix(1 0 0 -1 0 834)" d="M66.5074 9.023829C 66.4598 9.40195 66.4297 9.63594 66.4055 9.851951C 66.1777 9.92383 65.9258 9.989841 65.6496 9.989841C 64.8758 9.989841 64.4137 9.49805 64.4137 8.921881C 64.4137 8.24414 65.0195 7.94414 65.4035 7.73984C 65.8535 7.5 66.1836 7.28984 66.1836 6.84609C 66.1836 6.40781 65.9137 6.12617 65.46371 6.12617C 64.8457 6.12617 64.5758 6.73203 64.4797 7.09805L64.4797 7.09805L64.3055 7.05586C 64.3418 6.767971 64.4195 6.25195 64.46761 6.12617C 64.52151 6.09609 64.6117 6.05391 64.7617 6C 64.91171 5.95781 65.1035 5.91016 65.3496 5.91016C 66.1477 5.91016 66.6816 6.41406 66.6816 7.04414C 66.6816 7.71602 66.1117 7.99805 65.6438 8.23789C 65.1695 8.48398 64.8816 8.68789 64.8816 9.12617C 64.8816 9.45 65.0855 9.78594 65.5477 9.78594C 66.0695 9.78594 66.2258 9.371881 66.3336 8.98789z" stroke="#000000" stroke-width="0.4" fill="none" /><path id="1436" transform="matrix(1 0 0 -1 0 834)" d="M69.4055 7.68008L68.3016 7.68008C 68.4816 8.171881 68.6734 8.69414 68.8656 9.21016L68.8656 9.21016L68.8777 9.21016zM70.9355 6L70.9355 6.16797C 70.5457 6.20391 70.46761 6.25781 70.2758 6.77383C 69.89181 7.81797 69.4895 8.95781 69.11761 9.989841L69.11761 9.989841L68.9316 9.93594L68.9316 9.93594L67.68951 6.78594C 67.4797 6.25781 67.3957 6.22188 67.0176 6.16797L67.0176 6.16797L67.0176 6L67.0176 6L68.3195 6L68.3195 6L68.3195 6.16797C 67.8695 6.21016 67.81561 6.26992 67.9477 6.64805C 68.0258 6.9 68.1156 7.15195 68.2117 7.42188L68.2117 7.42188L69.4895 7.42188C 69.62151 7.05586 69.74181 6.73203 69.8195 6.49805C 69.8977 6.26406 69.8438 6.21602 69.4656 6.16797L69.4656 6.16797L69.4656 6z" stroke="#000000" stroke-width="0.4" fill="none" /><path id="1437" transform="matrix(1 0 0 -1 0 834)" d="M71.7273 5.92813C 71.9195 5.92813 72.06371 6.06602 72.06371 6.27617C 72.06371 6.46797 71.9195 6.61797 71.7273 6.61797C 71.5355 6.61797 71.3914 6.46797 71.3914 6.27617C 71.3914 6.06602 71.5355 5.92813 71.7273 5.92813z" stroke="#000000" stroke-width="0.4" fill="none" /><path id="1438" transform="matrix(1 0 0 -1 0 834)" d="M73.9234 6L73.9234 6.15586C 73.53951 6.19219 73.4977 6.22813 73.4977 6.63594L73.4977 6.63594L73.4977 8.70586C 73.2336 8.59805 72.9516 8.51992 72.6453 8.471881L72.6453 8.471881L72.6453 8.328131C 73.0055 8.26797 73.0234 8.24414 73.0234 7.871881L73.0234 7.871881L73.0234 6.63594C 73.0234 6.22813 72.9816 6.19219 72.6035 6.15586L72.6035 6.15586L72.6035 6zM73.2215 9.216021C 73.3953 9.216021 73.52731 9.36016 73.52731 9.52188C 73.52731 9.70195 73.3953 9.83398 73.2273 9.83398C 73.06561 9.83398 72.9215 9.70195 72.9215 9.52188C 72.9215 9.36016 73.06561 9.216021 73.2215 9.216021z" stroke="#000000" stroke-width="0.4" fill="none" /><path id="1439" transform="matrix(1 0 0 -1 0 834)" d="M77.1574 6L77.1574 6.15586C 76.8094 6.19219 76.7793 6.21602 76.7793 6.62383L76.7793 6.62383L76.7793 7.78203C 76.7793 8.36406 76.4793 8.69414 76.0055 8.69414C 75.8313 8.69414 75.67541 8.621881 75.5074 8.51406C 75.3574 8.41211 75.2254 8.32188 75.1055 8.23203L75.1055 8.23203L75.1055 8.712111C 74.8414 8.59219 74.5594 8.51992 74.27151 8.466021L74.27151 8.466021L74.27151 8.328131C 74.5953 8.26797 74.6313 8.25 74.6313 7.86602L74.6313 7.86602L74.6313 6.62383C 74.6313 6.22813 74.6016 6.19805 74.19341 6.15586L74.19341 6.15586L74.19341 6L74.19341 6L75.4953 6L75.4953 6L75.4953 6.15586C 75.1414 6.19219 75.1055 6.21602 75.1055 6.62383L75.1055 6.62383L75.1055 8.03398C 75.2855 8.18984 75.5195 8.33984 75.7594 8.33984C 76.1613 8.33984 76.3055 8.069921 76.3055 7.65586L76.3055 7.65586L76.3055 6.65391C 76.3055 6.23984 76.2633 6.19219 75.9094 6.15586L75.9094 6.15586L75.9094 6z" stroke="#000000" stroke-width="0.4" fill="none" /><path id="1440" transform="matrix(1 0 0 -1 0 834)" d="M79.4734 6.51016C 79.32931 6.40195 79.1133 6.30586 78.8973 6.30586C 78.5133 6.30586 78.0754 6.65391 78.0754 7.36797C 78.0754 8.23789 78.57931 8.471881 78.8555 8.471881C 79.0832 8.471881 79.32931 8.37617 79.4734 8.16602zM80.4035 6.30586L80.2113 6.32383C 79.9895 6.34805 79.9473 6.37813 79.9473 6.68984L79.9473 6.68984L79.9473 10.2719C 79.7254 10.1941 79.3234 10.1039 79.0113 10.0621L79.0113 10.0621L79.0113 9.917971C 79.44341 9.88789 79.4734 9.869921 79.4734 9.47383L79.4734 9.47383L79.4734 8.628131C 79.3355 8.67617 79.1613 8.69414 79.0773 8.69414C 78.2613 8.69414 77.5293 8.03984 77.5293 7.20586C 77.5293 6.36602 78.1594 5.92813 78.6395 5.92813C 78.7113 5.92813 78.87341 5.96406 79.1074 6.10195L79.1074 6.10195L79.4734 6.31797L79.4734 6.31797L79.4734 5.92813C 79.8215 6.05391 80.27151 6.13203 80.4035 6.15586z" stroke="#000000" stroke-width="0.4" fill="none" /><path id="1441" transform="matrix(1 0 0 -1 0 834)" d="M81.3813 8.24414C 81.4895 8.310161 81.6813 8.35781 81.84921 8.35781C 82.34731 8.35781 82.7676 7.96211 82.7676 7.278131C 82.7676 6.58203 82.4492 6.15586 81.9516 6.15586C 81.6336 6.16211 81.4535 6.37188 81.4176 6.49219C 81.3934 6.54609 81.3813 6.60586 81.3813 6.69609zM81.3813 8.42383L81.3813 10.2719C 81.1594 10.1941 80.7934 10.098 80.5113 10.0621L80.5113 10.0621L80.5113 9.92383C 80.8953 9.88789 80.9074 9.851951 80.9074 9.48008L80.9074 9.48008L80.9074 6.14414C 81.2375 5.98789 81.5434 5.92813 81.78951 5.92813C 82.59341 5.92813 83.2953 6.55195 83.2953 7.43398C 83.2953 8.14219 82.7555 8.69414 82.1133 8.69414C 82.0473 8.69414 81.9633 8.67617 81.86761 8.63398z" stroke="#000000" stroke-width="0.4" fill="none" /><path id="1442" transform="matrix(1 0 0 -1 0 834)" d="M89.2832 7.35L88.1012 7.35C 88.49731 8.016021 88.8871 8.58594 89.2711 9.119921L89.2711 9.119921L89.2832 9.119921zM90.3391 7.06797L90.3391 7.35L90.3391 7.35L89.7633 7.35L89.7633 7.35L89.7633 9.79219L89.7633 9.79219L89.523 9.79219C 88.90511 8.976171 88.2934 8.08789 87.723 7.23594L87.723 7.23594L87.723 7.06797L87.723 7.06797L89.2832 7.06797L89.2832 7.06797L89.2832 6.63594C 89.2832 6.23984 89.2594 6.20391 88.7371 6.16211L88.7371 6.16211L88.7371 6L88.7371 6L90.273 6L90.273 6L90.273 6.16211C 89.7871 6.20391 89.7633 6.23398 89.7633 6.63594L89.7633 6.63594L89.7633 7.06797z" stroke="#000000" stroke-width="0.4" fill="none" /><path id="1443" transform="matrix(1 0 0 -1 0 834)" d="M90.9934 8.976171C 91.1434 9.19805 91.3832 9.45 91.7133 9.45C 92.0313 9.45 92.2832 9.257811 92.2832 8.88594C 92.2832 8.44219 91.8754 8.20781 91.323 8.03398L91.323 8.03398L91.3652 7.86016C 91.4613 7.88984 91.6051 7.92617 91.7492 7.92617C 92.091 7.92617 92.5113 7.70391 92.5113 7.15195C 92.5113 6.55781 92.2113 6.23984 91.7852 6.23984C 91.44341 6.23984 91.1973 6.40781 91.041 6.54609C 90.9934 6.58789 90.9453 6.58203 90.8973 6.54609C 90.84341 6.50391 90.7652 6.42617 90.7594 6.34805C 90.74731 6.27617 90.7711 6.21016 90.8551 6.13203C 90.9332 6.06016 91.17931 5.92813 91.4551 5.92813C 91.8871 5.92813 93.02731 6.37188 93.02731 7.34414C 93.02731 7.78203 92.7211 8.153911 92.19341 8.25586L92.19341 8.25586L92.19341 8.26797C 92.3672 8.38789 92.5113 8.49609 92.6012 8.59219C 92.7152 8.70586 92.7871 8.84414 92.7871 9.01797C 92.7871 9.47383 92.4332 9.810161 91.8934 9.810161C 91.5754 9.810161 91.2992 9.66016 91.1313 9.47383L91.1313 9.47383L90.8672 9.09609z" stroke="#000000" stroke-width="0.4" fill="none" /><path id="1444" transform="matrix(1 0 0 -1 0 834)" d="M96.0453 9.73789L93.75311 9.73789C 93.7293 9.48008 93.6992 9.180079 93.6453 8.85L93.6453 8.85L93.8191 8.85C 93.9633 9.24609 93.9992 9.3 94.3953 9.3L94.3953 9.3L95.691 9.3C 95.2172 8.25586 94.5391 7.01406 93.9094 5.99414L93.9094 5.99414L93.9512 5.92813L93.9512 5.92813L94.3953 5.98789C 94.9711 7.22383 95.5293 8.44805 96.09341 9.66602z" stroke="#000000" stroke-width="0.4" fill="none" /><path id="1463" transform="matrix(1 0 0 -1 0 834)" d="M554.472 6.83984C 554.292 6.46211 554.2141 6.43789 553.89 6.43789L553.89 6.43789L552.768 6.43789L552.768 6.43789L553.6201 7.33203C 554.1721 7.91992 554.412 8.273829 554.412 8.79609C 554.412 9.42617 553.932 9.810161 553.404 9.810161C 553.056 9.810161 552.774 9.653911 552.594 9.45586L552.594 9.45586L552.252 8.96992L552.252 8.96992L552.384 8.85C 552.54 9.08398 552.792 9.40781 553.2 9.40781C 553.644 9.40781 553.908 9.11406 553.908 8.61016C 553.908 8.09414 553.53 7.60195 553.158 7.15781C 552.858 6.81016 552.522 6.46797 552.186 6.13789L552.186 6.13789L552.186 6L552.186 6L554.43 6C 554.502 6.26992 554.562 6.53398 554.64 6.78594z" stroke="#000000" stroke-width="0.4" fill="none" /><path id="1464" transform="matrix(1 0 0 -1 0 834)" d="M555.792 9.3L557.19 9.3L557.19 9.3L557.346 9.68984L557.346 9.68984L557.31 9.73789L557.31 9.73789L555.6 9.73789L555.6 9.73789L555.366 7.90781C 555.504 7.96211 555.732 8.028131 555.984 8.028131C 556.638 8.028131 556.962 7.65 556.962 7.121881C 556.962 6.67188 556.71 6.23398 556.2 6.23398C 555.834 6.23398 555.588 6.42617 555.462 6.53984C 555.402 6.58789 555.354 6.58203 555.3 6.53984C 555.234 6.48008 555.18 6.40195 555.174 6.34219C 555.162 6.26992 555.192 6.22188 555.27 6.13789C 555.36 6.05391 555.612 5.92813 555.888 5.92813C 556.206 5.93398 556.608 6.08984 556.932 6.35391C 557.298 6.65391 557.466 6.99609 557.466 7.35586C 557.466 7.84805 557.076 8.369921 556.308 8.369921C 556.146 8.369921 555.864 8.273829 555.636 8.18984z" stroke="#000000" stroke-width="0.4" fill="none" /><path id="1465" transform="matrix(1 0 0 -1 0 834)" d="M559.548 9.989841L559.212 9.989841L559.212 9.989841L557.91 5.73594L557.91 5.73594L558.246 5.73594z" stroke="#000000" stroke-width="0.4" fill="none" /><path id="1466" transform="matrix(1 0 0 -1 0 834)" d="M561.18 9.61211C 561.72 9.61211 561.8701 8.72383 561.8701 7.871881C 561.8701 7.03203 561.726 6.13203 561.186 6.13203C 560.664 6.13203 560.49 7.03789 560.49 7.87813C 560.49 8.712111 560.634 9.61211 561.18 9.61211zM561.186 9.810161C 560.286 9.810161 559.956 8.74219 559.956 7.86602C 559.956 6.91797 560.28 5.92813 561.186 5.92813C 562.086 5.92813 562.404 6.99609 562.404 7.871881C 562.404 8.79609 562.086 9.810161 561.186 9.810161z" stroke="#000000" stroke-width="0.4" fill="none" /><path id="1467" transform="matrix(1 0 0 -1 0 834)" d="M564 9.61211C 564.582 9.61211 564.738 8.86797 564.738 8.33984C 564.738 8.21992 564.732 8.076171 564.7141 7.94414C 564.588 7.84805 564.384 7.77617 564.174 7.77617C 563.67 7.77617 563.3701 8.214061 563.3701 8.74219C 563.3701 9.09609 563.538 9.61211 564 9.61211zM564.078 9.810161C 563.304 9.810161 562.854 9.10781 562.854 8.53203C 562.854 7.90195 563.292 7.43398 563.928 7.43398C 564.042 7.43398 564.156 7.45781 564.288 7.53008L564.288 7.53008L564.69 7.74609C 564.492 6.83398 563.838 6.23398 562.98 6.08984L562.98 6.08984L563.01 5.91016C 563.16 5.91016 563.526 5.96992 563.85 6.10195C 564.66 6.42617 565.2661 7.20586 565.2661 8.310161C 565.2661 9.12617 564.828 9.810161 564.078 9.810161z" stroke="#000000" stroke-width="0.4" fill="none" /><path id="1468" transform="matrix(1 0 0 -1 0 834)" d="M567.294 9.989841L566.958 9.989841L566.958 9.989841L565.656 5.73594L565.656 5.73594L565.992 5.73594z" stroke="#000000" stroke-width="0.4" fill="none" /><path id="1469" transform="matrix(1 0 0 -1 0 834)" d="M569.9641 6.83984C 569.784 6.46211 569.706 6.43789 569.382 6.43789L569.382 6.43789L568.26 6.43789L568.26 6.43789L569.112 7.33203C 569.664 7.91992 569.904 8.273829 569.904 8.79609C 569.904 9.42617 569.424 9.810161 568.896 9.810161C 568.548 9.810161 568.2661 9.653911 568.086 9.45586L568.086 9.45586L567.744 8.96992L567.744 8.96992L567.876 8.85C 568.032 9.08398 568.284 9.40781 568.692 9.40781C 569.136 9.40781 569.4 9.11406 569.4 8.61016C 569.4 8.09414 569.022 7.60195 568.65 7.15781C 568.35 6.81016 568.014 6.46797 567.678 6.13789L567.678 6.13789L567.678 6L567.678 6L569.9221 6C 569.994 6.26992 570.054 6.53398 570.132 6.78594z" stroke="#000000" stroke-width="0.4" fill="none" /><path id="1470" transform="matrix(1 0 0 -1 0 834)" d="M571.806 9.61211C 572.346 9.61211 572.496 8.72383 572.496 7.871881C 572.496 7.03203 572.352 6.13203 571.812 6.13203C 571.29 6.13203 571.116 7.03789 571.116 7.87813C 571.116 8.712111 571.26 9.61211 571.806 9.61211zM571.812 9.810161C 570.912 9.810161 570.582 8.74219 570.582 7.86602C 570.582 6.91797 570.906 5.92813 571.812 5.92813C 572.712 5.92813 573.03 6.99609 573.03 7.871881C 573.03 8.79609 572.712 9.810161 571.812 9.810161z" stroke="#000000" stroke-width="0.4" fill="none" /><path id="1471" transform="matrix(1 0 0 -1 0 834)" d="M575.556 6L575.556 6.16211C 575.01 6.20391 574.9741 6.25195 574.9741 6.68398L574.9741 6.68398L574.9741 9.810161C 574.644 9.67813 574.29 9.56406 573.906 9.49805L573.906 9.49805L573.906 9.36016L573.906 9.36016L574.194 9.34805C 574.458 9.33594 574.482 9.305861 574.482 8.99414L574.482 8.99414L574.482 6.68398C 574.482 6.25195 574.452 6.20391 573.906 6.16211L573.906 6.16211L573.906 6z" stroke="#000000" stroke-width="0.4" fill="none" /><path id="1472" transform="matrix(1 0 0 -1 0 834)" d="M578.814 9.73789L576.522 9.73789C 576.498 9.48008 576.468 9.180079 576.414 8.85L576.414 8.85L576.588 8.85C 576.732 9.24609 576.768 9.3 577.164 9.3L577.164 9.3L578.46 9.3C 577.986 8.25586 577.308 7.01406 576.678 5.99414L576.678 5.99414L576.72 5.92813L576.72 5.92813L577.164 5.98789C 577.74 7.22383 578.298 8.44805 578.862 9.66602z" stroke="#000000" stroke-width="0.4" fill="none" /><path id="1473" transform="matrix(1 0 0 -1 0 834)" d="M584.531 9.61211C 585.071 9.61211 585.221 8.72383 585.221 7.871881C 585.221 7.03203 585.077 6.13203 584.537 6.13203C 584.015 6.13203 583.841 7.03789 583.841 7.87813C 583.841 8.712111 583.985 9.61211 584.531 9.61211zM584.537 9.810161C 583.637 9.810161 583.307 8.74219 583.307 7.86602C 583.307 6.91797 583.631 5.92813 584.537 5.92813C 585.437 5.92813 585.755 6.99609 585.755 7.871881C 585.755 8.79609 585.437 9.810161 584.537 9.810161z" stroke="#000000" stroke-width="0.4" fill="none" /><path id="1474" transform="matrix(1 0 0 -1 0 834)" d="M588.449 6.83984C 588.269 6.46211 588.191 6.43789 587.867 6.43789L587.867 6.43789L586.7451 6.43789L586.7451 6.43789L587.597 7.33203C 588.149 7.91992 588.389 8.273829 588.389 8.79609C 588.389 9.42617 587.909 9.810161 587.381 9.810161C 587.033 9.810161 586.751 9.653911 586.571 9.45586L586.571 9.45586L586.229 8.96992L586.229 8.96992L586.361 8.85C 586.517 9.08398 586.769 9.40781 587.177 9.40781C 587.621 9.40781 587.885 9.11406 587.885 8.61016C 587.885 8.09414 587.507 7.60195 587.135 7.15781C 586.835 6.81016 586.499 6.46797 586.163 6.13789L586.163 6.13789L586.163 6L586.163 6L588.407 6C 588.479 6.26992 588.539 6.53398 588.617 6.78594z" stroke="#000000" stroke-width="0.4" fill="none" /><path id="1475" transform="matrix(1 0 0 -1 0 834)" d="M589.5471 5.92813C 589.739 5.92813 589.883 6.06602 589.883 6.27617C 589.883 6.46797 589.739 6.61797 589.5471 6.61797C 589.355 6.61797 589.211 6.46797 589.211 6.27617C 589.211 6.06602 589.355 5.92813 589.5471 5.92813zM589.541 8.466021C 589.3491 8.466021 589.211 8.328131 589.211 8.13008C 589.211 7.92617 589.3491 7.78203 589.541 7.78203C 589.733 7.78203 589.877 7.92617 589.877 8.13008C 589.877 8.328131 589.733 8.466021 589.541 8.466021z" stroke="#000000" stroke-width="0.4" fill="none" /><path id="1476" transform="matrix(1 0 0 -1 0 834)" d="M591.137 9.3L592.535 9.3L592.535 9.3L592.691 9.68984L592.691 9.68984L592.655 9.73789L592.655 9.73789L590.945 9.73789L590.945 9.73789L590.711 7.90781C 590.8491 7.96211 591.077 8.028131 591.329 8.028131C 591.983 8.028131 592.307 7.65 592.307 7.121881C 592.307 6.67188 592.055 6.23398 591.545 6.23398C 591.179 6.23398 590.933 6.42617 590.807 6.53984C 590.747 6.58789 590.699 6.58203 590.645 6.53984C 590.579 6.48008 590.525 6.40195 590.519 6.34219C 590.507 6.26992 590.537 6.22188 590.615 6.13789C 590.705 6.05391 590.957 5.92813 591.233 5.92813C 591.551 5.93398 591.953 6.08984 592.277 6.35391C 592.643 6.65391 592.811 6.99609 592.811 7.35586C 592.811 7.84805 592.421 8.369921 591.653 8.369921C 591.491 8.369921 591.209 8.273829 590.981 8.18984z" stroke="#000000" stroke-width="0.4" fill="none" /><path id="1477" transform="matrix(1 0 0 -1 0 834)" d="M594.473 8.02188C 595.019 8.02188 595.271 7.53008 595.271 7.03203C 595.271 6.63594 595.127 6.13203 594.659 6.13203C 594.167 6.13203 593.861 6.719921 593.861 7.43984C 593.861 7.59609 593.867 7.73984 593.897 7.85391C 594.041 7.93203 594.2451 8.02188 594.473 8.02188zM593.927 8.057811C 594.107 8.89219 594.665 9.26992 595.031 9.44414C 595.253 9.54609 595.487 9.61797 595.685 9.653911L595.685 9.653911L595.643 9.84609C 595.403 9.80391 595.115 9.73789 594.875 9.653911C 594.239 9.419921 593.327 8.74219 593.327 7.428131C 593.327 6.50391 593.855 5.92813 594.557 5.92813C 595.277 5.92813 595.787 6.53398 595.787 7.24805C 595.787 7.86602 595.3491 8.35781 594.707 8.35781C 594.587 8.35781 594.461 8.31602 594.329 8.25586z" stroke="#000000" stroke-width="0.4" fill="none" /><path id="1478" transform="matrix(1 0 0 -1 0 834)" d="M596.675 5.92813C 596.867 5.92813 597.011 6.06602 597.011 6.27617C 597.011 6.46797 596.867 6.61797 596.675 6.61797C 596.483 6.61797 596.3391 6.46797 596.3391 6.27617C 596.3391 6.06602 596.483 5.92813 596.675 5.92813zM596.669 8.466021C 596.477 8.466021 596.3391 8.328131 596.3391 8.13008C 596.3391 7.92617 596.477 7.78203 596.669 7.78203C 596.861 7.78203 597.005 7.92617 597.005 8.13008C 597.005 8.328131 596.861 8.466021 596.669 8.466021z" stroke="#000000" stroke-width="0.4" fill="none" /><path id="1479" transform="matrix(1 0 0 -1 0 834)" d="M598.787 9.61211C 599.327 9.61211 599.477 8.72383 599.477 7.871881C 599.477 7.03203 599.333 6.13203 598.793 6.13203C 598.271 6.13203 598.097 7.03789 598.097 7.87813C 598.097 8.712111 598.241 9.61211 598.787 9.61211zM598.793 9.810161C 597.893 9.810161 597.563 8.74219 597.563 7.86602C 597.563 6.91797 597.887 5.92813 598.793 5.92813C 599.6931 5.92813 600.011 6.99609 600.011 7.871881C 600.011 8.79609 599.6931 9.810161 598.793 9.810161z" stroke="#000000" stroke-width="0.4" fill="none" /><path id="1480" transform="matrix(1 0 0 -1 0 834)" d="M600.743 8.976171C 600.893 9.19805 601.133 9.45 601.463 9.45C 601.781 9.45 602.033 9.257811 602.033 8.88594C 602.033 8.44219 601.625 8.20781 601.073 8.03398L601.073 8.03398L601.115 7.86016C 601.211 7.88984 601.355 7.92617 601.499 7.92617C 601.841 7.92617 602.261 7.70391 602.261 7.15195C 602.261 6.55781 601.961 6.23984 601.535 6.23984C 601.1931 6.23984 600.947 6.40781 600.791 6.54609C 600.743 6.58789 600.695 6.58203 600.647 6.54609C 600.593 6.50391 600.515 6.42617 600.509 6.34805C 600.497 6.27617 600.521 6.21016 600.605 6.13203C 600.683 6.06016 600.929 5.92813 601.205 5.92813C 601.637 5.92813 602.777 6.37188 602.777 7.34414C 602.777 7.78203 602.471 8.153911 601.9431 8.25586L601.9431 8.25586L601.9431 8.26797C 602.117 8.38789 602.261 8.49609 602.351 8.59219C 602.465 8.70586 602.537 8.84414 602.537 9.01797C 602.537 9.47383 602.183 9.810161 601.643 9.810161C 601.325 9.810161 601.049 9.66016 600.881 9.47383L600.881 9.47383L600.617 9.09609z" stroke="#000000" stroke-width="0.4" fill="none" /><path id="1481" transform="matrix(1 0 0 -1 0 834)" d="M605.489 8.08203C 605.651 8.20195 605.897 8.33398 606.0891 8.33398C 606.527 8.33398 606.893 7.97383 606.893 7.33203C 606.893 6.65391 606.557 6.22188 606.053 6.22188C 605.8491 6.22188 605.621 6.31797 605.489 6.45586zM605.489 8.28008L605.489 8.75391C 605.207 8.63984 604.871 8.53789 604.619 8.49609L604.619 8.49609L604.619 8.351951C 604.991 8.30391 605.015 8.29219 605.015 7.90195L605.015 7.90195L605.015 5.18984C 605.015 4.79414 604.961 4.75781 604.577 4.72188L604.577 4.72188L604.577 4.56016L604.577 4.56016L605.999 4.56016L605.999 4.56016L605.999 4.72188C 605.531 4.76406 605.489 4.79414 605.489 5.25L605.489 5.25L605.489 6.03594C 605.567 5.99414 605.729 5.93398 605.903 5.92813C 606.683 6.07188 607.397 6.65391 607.397 7.56016C 607.397 8.153911 607.001 8.69414 606.335 8.69414C 606.263 8.69414 606.149 8.664061 606.041 8.60391z" stroke="#000000" stroke-width="0.4" fill="none" /><path id="1482" transform="matrix(1 0 0 -1 0 834)" d="M608.303 5.92813C 608.4951 5.92813 608.639 6.06602 608.639 6.27617C 608.639 6.46797 608.4951 6.61797 608.303 6.61797C 608.111 6.61797 607.967 6.46797 607.967 6.27617C 607.967 6.06602 608.111 5.92813 608.303 5.92813z" stroke="#000000" stroke-width="0.4" fill="none" /><path id="1483" transform="matrix(1 0 0 -1 0 834)" d="M615.125 6L615.125 6.15586C 614.783 6.19219 614.735 6.21602 614.735 6.61797L614.735 6.61797L614.735 7.77617C 614.735 8.36406 614.441 8.69414 613.973 8.69414C 613.805 8.69414 613.649 8.621881 613.523 8.53789C 613.373 8.44805 613.199 8.33398 613.025 8.20195C 612.905 8.51406 612.647 8.69414 612.359 8.69414C 612.167 8.69414 612.023 8.628131 611.867 8.53203C 611.687 8.417971 611.555 8.310161 611.429 8.226171L611.429 8.226171L611.429 8.712111C 611.165 8.59219 610.859 8.51406 610.595 8.466021L610.595 8.466021L610.595 8.328131C 610.9431 8.273829 610.961 8.24414 610.961 7.86016L610.961 7.86016L610.961 6.61797C 610.961 6.22813 610.907 6.19219 610.511 6.15586L610.511 6.15586L610.511 6L610.511 6L611.777 6L611.777 6L611.777 6.15586C 611.483 6.19219 611.435 6.22813 611.435 6.61797L611.435 6.61797L611.435 8.028131C 611.615 8.17813 611.8491 8.33984 612.0891 8.33984C 612.455 8.33984 612.611 8.09414 612.611 7.65L612.611 7.65L612.611 6.61797C 612.611 6.22188 612.557 6.19219 612.185 6.15586L612.185 6.15586L612.185 6L612.185 6L613.469 6L613.469 6L613.469 6.15586C 613.139 6.19219 613.085 6.22813 613.085 6.60586L613.085 6.60586L613.085 7.77617C 613.085 7.88984 613.079 7.95586 613.067 8.028131C 613.295 8.21992 613.523 8.33984 613.739 8.33984C 614.117 8.33984 614.267 8.069921 614.267 7.64414L614.267 7.64414L614.267 6.64219C 614.267 6.21602 614.201 6.19219 613.847 6.15586L613.847 6.15586L613.847 6z" stroke="#000000" stroke-width="0.4" fill="none" /><path id="1484" transform="matrix(1 0 0 -1 0 834)" d="M615.947 5.92813C 616.139 5.92813 616.283 6.06602 616.283 6.27617C 616.283 6.46797 616.139 6.61797 615.947 6.61797C 615.755 6.61797 615.611 6.46797 615.611 6.27617C 615.611 6.06602 615.755 5.92813 615.947 5.92813z" stroke="#000000" stroke-width="0.4" fill="none" /></g></g></svg>