<svg xmlns="http://www.w3.org/2000/svg" xmlns:xlink="http://www.w3.org/1999/xlink" id="body_1" preserveAspectRatio="xMinYMin meet" viewBox="0 0 872 1112"><defs><clipPath id="1"><path id="" clip-rule="evenodd" transform="matrix(1 0 0 1 0 0)" d="M0 834L0 0L0 0L654 0L654 0L654 834L654 834L0 834z" /></clipPath><clipPath id="2"><path id="" clip-rule="evenodd" transform="matrix(1 0 0 1 0 0)" d="M21 813L633 813L633 813L633 21L633 21L21 21z" /></clipPath><clipPath id="3"><path id="" clip-rule="evenodd" transform="matrix(1 0 0 1 0 0)" d="M321.754 268.758L425.133 268.758L425.133 268.758L425.133 130.516L425.133 130.516L321.754 130.516z" /></clipPath><clipPath id="4"><path id="" clip-rule="evenodd" transform="matrix(1 0 0 1 0 0)" d="M321.754 268.758L425.133 268.758L425.133 268.758L425.133 130.516L425.133 130.516L321.754 130.516z" /></clipPath><clipPath id="5"><path id="" clip-rule="evenodd" transform="matrix(1 0 0 1 0 0)" d="M321.754 269.7339L506.522 269.7339L506.522 269.7339L506.522 130.5159L506.522 130.5159L321.754 130.5159z" /></clipPath><clipPath id="6"><path id="" clip-rule="evenodd" transform="matrix(1 0 0 1 0 0)" d="M434.338 197.304L434.338 256.949C 441.929 264.478 452.379 269.129 463.915 269.129L463.915 269.129L463.915 269.129C 478.276 269.129 490.954 261.921 498.528 250.927L498.528 250.927L498.528 250.927L498.528 250.927L498.528 203.326C 490.954 192.332 478.276 185.124 463.915 185.124L463.915 185.124L463.915 185.124C 452.379 185.124 441.929 189.775 434.338 197.304" /></clipPath><clipPath id="7"><path id="" clip-rule="evenodd" transform="matrix(1 0 0 1 0 0)" d="M434.338 197.304L434.338 256.949C 441.929 264.478 452.379 269.129 463.915 269.129L463.915 269.129L463.915 269.129C 478.276 269.129 490.954 261.921 498.528 250.927L498.528 250.927L498.528 250.927L498.528 250.927L498.528 203.326C 490.954 192.332 478.276 185.124 463.915 185.124L463.915 185.124L463.915 185.124C 452.379 185.124 441.929 189.775 434.338 197.304" /></clipPath><clipPath id="8"><path id="" clip-rule="evenodd" transform="matrix(1 0 0 1 0 0)" d="M321.754 269.7339L506.522 269.7339L506.522 269.7339L506.522 130.5159L506.522 130.5159L321.754 130.5159z" /></clipPath><clipPath id="9"><path id="" clip-rule="evenodd" transform="matrix(1 0 0 1 0 0)" d="M261.396 168.625L298.6339 168.625L298.6339 168.625L298.6339 111.7078L298.6339 111.7078L261.396 111.7078z" /></clipPath><clipPath id="10"><path id="" clip-rule="evenodd" transform="matrix(1 0 0 1 0 0)" d="M261.396 168.625L298.6339 168.625L298.6339 168.625L298.6339 111.7078L298.6339 111.7078L261.396 111.7078z" /></clipPath><clipPath id="11"><path id="" clip-rule="evenodd" transform="matrix(1 0 0 1 0 0)" d="M302.953 176.025L333.4249 176.025L333.4249 176.025L333.4249 140.166L333.4249 140.166L302.953 140.166z" /></clipPath><clipPath id="12"><path id="" clip-rule="evenodd" transform="matrix(1 0 0 1 0 0)" d="M302.953 176.025L333.4249 176.025L333.4249 176.025L333.4249 140.166L333.4249 140.166L302.953 140.166z" /></clipPath><clipPath id="13"><path id="" clip-rule="evenodd" transform="matrix(1 0 0 1 0 0)" d="M402.165 176.025L432.638 176.025L432.638 176.025L432.638 140.166L432.638 140.166L402.165 140.166z" /></clipPath><clipPath id="14"><path id="" clip-rule="evenodd" transform="matrix(1 0 0 1 0 0)" d="M402.165 176.025L432.638 176.025L432.638 176.025L432.638 140.166L432.638 140.166L402.165 140.166z" /></clipPath><clipPath id="15"><path id="" clip-rule="evenodd" transform="matrix(1 0 0 1 0 0)" d="M343.857 479.754L489.181 479.754L489.181 479.754L489.181 346.81L489.181 346.81L343.857 346.81z" /></clipPath><clipPath id="16"><path id="" clip-rule="evenodd" transform="matrix(1 0 0 1 0 0)" d="M343.857 479.754L489.181 479.754L489.181 479.754L489.181 346.81L489.181 346.81L343.857 346.81z" /></clipPath><clipPath id="17"><path id="" clip-rule="evenodd" transform="matrix(1 0 0 1 0 0)" d="M434.642 369.194C 429.458 374.751 426.286 382.209 426.286 390.407L426.286 390.407L426.286 390.407C 426.286 407.585 440.212 421.51 457.389 421.51L457.389 421.51L457.389 421.51C 474.565 421.51 488.491 407.585 488.491 390.407L488.491 390.407L488.491 390.407C 488.491 382.209 485.319 374.751 480.135 369.194L480.135 369.194L480.135 369.194z" /></clipPath><clipPath id="18"><path id="" clip-rule="evenodd" transform="matrix(1 0 0 1 0 0)" d="M434.642 369.194C 429.458 374.751 426.286 382.209 426.286 390.407L426.286 390.407L426.286 390.407C 426.286 407.585 440.212 421.51 457.389 421.51L457.389 421.51L457.389 421.51C 474.565 421.51 488.491 407.585 488.491 390.407L488.491 390.407L488.491 390.407C 488.491 382.209 485.319 374.751 480.135 369.194L480.135 369.194L480.135 369.194z" /></clipPath><clipPath id="19"><path id="" clip-rule="evenodd" transform="matrix(1 0 0 1 0 0)" d="M343.857 479.754L489.181 479.754L489.181 479.754L489.181 346.81L489.181 346.81L343.857 346.81z" /></clipPath><clipPath id="20"><path id="" clip-rule="evenodd" transform="matrix(1 0 0 1 0 0)" d="M258.826 374.384L301.203 374.384L301.203 374.384L301.203 336.4641L301.203 336.4641L258.826 336.4641z" /></clipPath><clipPath id="21"><path id="" clip-rule="evenodd" transform="matrix(1 0 0 1 0 0)" d="M258.826 374.384L301.203 374.384L301.203 374.384L301.203 336.4641L301.203 336.4641L258.826 336.4641z" /></clipPath><clipPath id="22"><path id="" clip-rule="evenodd" transform="matrix(1 0 0 1 0 0)" d="M320.339 391.283L345.9359 391.283L345.9359 391.283L345.9359 355.4256L345.9359 355.4256L320.339 355.4256z" /></clipPath><clipPath id="23"><path id="" clip-rule="evenodd" transform="matrix(1 0 0 1 0 0)" d="M320.339 391.283L345.9359 391.283L345.9359 391.283L345.9359 355.4256L345.9359 355.4256L320.339 355.4256z" /></clipPath><clipPath id="24"><path id="" clip-rule="evenodd" transform="matrix(1 0 0 1 0 0)" d="M354.896 699.17L484.282 699.17L484.282 699.17L484.282 566.777L484.282 566.777L354.896 566.777z" /></clipPath><clipPath id="25"><path id="" clip-rule="evenodd" transform="matrix(1 0 0 1 0 0)" d="M428.84 653.754L428.84 684.306C 434.017 692.862 443.411 698.581 454.142 698.581L454.142 698.581L454.142 698.581C 470.462 698.581 483.693 685.352 483.693 669.03L483.693 669.03L483.693 669.03C 483.693 652.709 470.462 639.479 454.142 639.479L454.142 639.479L454.142 639.479C 443.411 639.479 434.017 645.198 428.84 653.754" /></clipPath><clipPath id="26"><path id="" clip-rule="evenodd" transform="matrix(1 0 0 1 0 0)" d="M428.84 653.754L428.84 684.306C 434.017 692.862 443.411 698.581 454.142 698.581L454.142 698.581L454.142 698.581C 470.462 698.581 483.693 685.352 483.693 669.03L483.693 669.03L483.693 669.03C 483.693 652.709 470.462 639.479 454.142 639.479L454.142 639.479L454.142 639.479C 443.411 639.479 434.017 645.198 428.84 653.754" /></clipPath><clipPath id="27"><path id="" clip-rule="evenodd" transform="matrix(1 0 0 1 0 0)" d="M354.896 699.17L484.282 699.17L484.282 699.17L484.282 566.777L484.282 566.777L354.896 566.777z" /></clipPath><clipPath id="28"><path id="" clip-rule="evenodd" transform="matrix(1 0 0 1 0 0)" d="M354.896 699.17L484.282 699.17L484.282 699.17L484.282 566.777L484.282 566.777L354.896 566.777z" /></clipPath><clipPath id="29"><path id="" clip-rule="evenodd" transform="matrix(1 0 0 1 0 0)" d="M354.896 699.17L484.282 699.17L484.282 699.17L484.282 566.777L484.282 566.777L354.896 566.777z" /></clipPath><clipPath id="30"><path id="" clip-rule="evenodd" transform="matrix(1 0 0 1 0 0)" d="M354.896 699.17L484.282 699.17L484.282 699.17L484.282 566.777L484.282 566.777L354.896 566.777z" /></clipPath><clipPath id="31"><path id="" clip-rule="evenodd" transform="matrix(1 0 0 1 0 0)" d="M304.663 661.663L330.2603 661.663L330.2603 661.663L330.2603 625.804L330.2603 625.804L304.663 625.804z" /></clipPath><clipPath id="32"><path id="" clip-rule="evenodd" transform="matrix(1 0 0 1 0 0)" d="M304.663 661.663L330.2603 661.663L330.2603 661.663L330.2603 625.804L330.2603 625.804L304.663 625.804z" /></clipPath><clipPath id="33"><path id="" clip-rule="evenodd" transform="matrix(1 0 0 1 0 0)" d="M304.663 697.521L330.2603 697.521L330.2603 697.521L330.2603 661.6628L330.2603 661.6628L304.663 661.6628z" /></clipPath><clipPath id="34"><path id="" clip-rule="evenodd" transform="matrix(1 0 0 1 0 0)" d="M304.663 697.521L330.2603 697.521L330.2603 697.521L330.2603 661.6628L330.2603 661.6628L304.663 661.6628z" /></clipPath><clipPath id="35"><path id="" clip-rule="evenodd" transform="matrix(1 0 0 1 0 0)" d="M503.599 664.29L529.1959 664.29L529.1959 664.29L529.1959 628.431L529.1959 628.431L503.599 628.431z" /></clipPath><clipPath id="36"><path id="" clip-rule="evenodd" transform="matrix(1 0 0 1 0 0)" d="M503.599 664.29L529.1959 664.29L529.1959 664.29L529.1959 628.431L529.1959 628.431L503.599 628.431z" /></clipPath></defs><g transform="matrix(1.333333 0 0 1.333333 0 0)"><g clip-path="url(#1)"><g clip-path="url(#2)"><path id="1" transform="matrix(1 0 0 -1 0 834)" d="M91.866 67.4211L562.134 67.4211L562.134 74.92501L91.866 74.92501z" stroke="none" fill="#686868" fill-rule="nonzero" /><path id="2" transform="matrix(1 0 0 -1 0 834)" d="M91.866 526.984L562.134 526.984" stroke="#686868" stroke-width="1" fill="none" /><path id="3" transform="matrix(1 0 0 -1 0 834)" d="M91.866 307.016L562.134 307.016" stroke="#686868" stroke-width="1" fill="none" /></g><g clip-path="url(#3)"></g><g clip-path="url(#4)"><g transform="matrix(1.00368 0 0 1.0026 321.754 123.381)"><g transform="matrix(1 0 0 1 0 0)"><image x="0" y="0" xlink:href="img_01.png" width="103" height="145" /></g></g></g><g clip-path="url(#5)"><path id="8" transform="matrix(1 0 0 -1 0 834)" d="M505.917 606.874C 505.917 583.677 487.112 564.872 463.915 564.872C 440.718 564.872 421.913 583.677 421.913 606.874C 421.913 630.071 440.718 648.876 463.915 648.876C 487.112 648.876 505.917 630.071 505.917 606.874" stroke="none" fill="#FFFFFF" fill-rule="nonzero" /></g><g clip-path="url(#6)"></g><g clip-path="url(#7)"><g transform="matrix(1.002964 0 0 1.002369 434.338 178.6632)"><g transform="matrix(1 0 0 1 0 0)"><image x="0" y="0" xlink:href="img_02.png" width="64" height="97" /></g></g></g><g clip-path="url(#8)"><path id="10" transform="matrix(1 0 0 -1 0 834)" d="M505.917 606.874C 505.917 583.677 487.112 564.872 463.915 564.872C 440.718 564.872 421.913 583.677 421.913 606.874C 421.913 630.071 440.718 648.876 463.915 648.876C 487.112 648.876 505.917 630.071 505.917 606.874z" stroke="#000000" stroke-width="0.673" fill="none" /><path id="11" transform="matrix(1 0 0 -1 0 834)" d="M372.573 618.057C 372.433 617.889 372.288 617.735 372.135 617.596L372.135 617.596L372.135 617.596C 371.634 617.14 370.971 616.822 370.352 616.697C 369.746 616.5891 369.092 616.645 368.402 616.868C 370.501 618.598 371.857 621.529 372.265 625.201L372.265 625.201L373.765 622.784L373.765 622.784L374.583 624.737C 374.418 621.836 373.731 619.492 372.573 618.057" stroke="none" fill="#FFFFFF" fill-rule="nonzero" /><path id="12" transform="matrix(1 0 0 -1 0 834)" d="M359.952 650.1201C 359.328 648.781 358.941 647.046 358.81 645.034C 358.809 645.033 358.809 645.032 358.809 645.031C 358.799 644.881 358.791 644.731 358.784 644.578C 358.783 644.546 358.782 644.514 358.78 644.482C 358.775 644.362 358.771 644.241 358.768 644.118C 358.766 644.051 358.765 643.983 358.763 643.915C 358.762 643.828 358.76 643.742 358.76 643.654C 358.759 643.546 358.759 643.437 358.759 643.327C 358.759 643.28 358.759 643.233 358.76 643.186C 358.761 643.03 358.764 642.873 358.768 642.715L358.768 642.715L358.768 642.715C 358.839 639.936 359.324 636.828 360.224 633.665C 362.159 626.863 365.731 620.91 369.344 618.45C 368.914 617.885 368.437 617.393 367.915 616.987C 364.084 618.523 359.808 624.817 357.542 632.785C 355.276 640.752 355.717 647.941 358.327 650.699C 358.87 650.56 359.413 650.365 359.952 650.1201" stroke="none" fill="#FFFFFF" fill-rule="nonzero" /><path id="13" transform="matrix(1 0 0 -1 0 834)" d="M374.622 625.948L373.685 623.712L373.685 623.712L371.93 626.541L371.93 626.541L368.383 632.265L368.383 632.265L372.162 631.3L372.162 631.3L372.095 631.746L372.095 631.746L372.091 631.747C 371.906 632.956 371.64 634.181 371.295 635.393C 369.091 643.143 363.946 649.488 358.699 650.981C 359.2 651.432 359.761 651.719 360.367 651.84C 360.727 651.903 361.106 651.909 361.494 651.857C 362.631 651.702 364.117 651.061 365.711 649.643C 368.136 647.304 370.478 643.479 372.174 638.8701C 372.519 637.898 372.851 636.859 373.166 635.749C 373.552 634.394 373.866 633.032 374.102 631.7L374.102 631.7L374.111 631.701L374.111 631.701L374.182 631.398L374.182 631.398L377.472 632.76L377.472 632.76L374.622 625.958C 374.622 625.955 374.622 625.951 374.622 625.948" stroke="none" fill="#FFFFFF" fill-rule="nonzero" /><path id="14" transform="matrix(1 0 0 -1 0 834)" d="M355.824 639.272C 355.245 644.669 356.087 649.076 358.124 651.028C 356.115 648.9951 355.273 644.609 355.824 639.272" stroke="none" fill="#FFFFFF" fill-rule="nonzero" /><path id="15" transform="matrix(1 0 0 -1 0 834)" d="M371.882 625.8181C 371.802 624.938 371.668 624.092 371.483 623.29C 371.666 624.093 371.798 624.942 371.877 625.826" stroke="none" fill="#FFFFFF" fill-rule="nonzero" /><path id="16" transform="matrix(1 0 0 -1 0 834)" d="M374.489 632.021C 374.258 633.278 373.961 634.557 373.598 635.831C 370.787 645.715 364.82 653.059 360.296 652.2C 360.283 652.198 360.269 652.1931 360.256 652.191C 360.243 652.188 360.229 652.188 360.216 652.185C 360.153 652.173 360.092 652.154 360.03 652.138C 360.017 652.135 360.004 652.133 359.991 652.129C 359.287 651.95 358.664 651.573 358.125 651.027C 356.115 648.9951 355.273 644.609 355.824 639.271C 356.039 637.198 356.463 634.981 357.111 632.703C 359.875 622.986 365.687 615.731 370.181 616.303C 370.194 616.304 370.207 616.306 370.219 616.307C 370.284 616.316 370.349 616.321 370.413 616.333C 370.423 616.335 370.432 616.3391 370.442 616.341C 370.459 616.344 370.476 616.345 370.493 616.348C 371.135 616.47 371.717 616.774 372.237 617.2241C 372.278 617.259 372.323 617.288 372.364 617.325L372.364 617.325L372.362 617.327C 374.004 618.851 374.976 621.942 375.059 625.872L375.059 625.872L378.251 633.491M374.622 625.948L373.685 623.712L373.685 623.712L371.931 626.541L371.931 626.541L368.383 632.265L368.383 632.265L372.162 631.3L372.162 631.3L372.095 631.746L372.095 631.746L372.092 631.747C 371.906 632.956 371.64 634.181 371.295 635.393C 369.092 643.143 363.946 649.488 358.699 650.981C 359.201 651.432 359.761 651.719 360.367 651.84C 360.728 651.903 361.106 651.909 361.494 651.857C 362.631 651.702 364.118 651.061 365.711 649.643C 367.87 647.721 370.225 644.373 372.174 638.8701C 372.519 637.898 372.851 636.859 373.167 635.749C 373.552 634.394 373.866 633.032 374.102 631.7L374.102 631.7L374.111 631.701L374.111 631.701L374.183 631.398L374.183 631.398L377.472 632.76L377.472 632.76L377.477 632.762zM360.656 633.747C 358.83 640.169 358.715 646.348 360.344 649.934C 364.803 647.702 368.947 642.051 370.864 635.311C 371.19 634.164 371.444 633.006 371.626 631.86L371.626 631.86L367.517 632.861L367.517 632.861L371.535 626.377L371.535 626.377L371.877 625.826L371.877 625.826L371.882 625.8181C 371.803 624.938 371.669 624.092 371.483 623.29C 371.08 621.54 370.432 619.999 369.574 618.768C 366.05 621.202 362.561 627.05 360.656 633.747M372.573 618.056C 372.433 617.889 372.287 617.734 372.135 617.595L372.135 617.595L372.135 617.595C 371.634 617.14 370.971 616.821 370.352 616.696C 369.746 616.5891 369.092 616.645 368.402 616.867C 370.501 618.597 371.857 621.528 372.265 625.201L372.265 625.201L373.765 622.783L373.765 622.783L374.583 624.736L374.583 624.736L374.588 624.746C 374.426 621.741 373.716 619.429 372.573 618.056M358.327 650.699C 358.87 650.56 359.413 650.365 359.952 650.1201C 359.953 650.1201 359.953 650.1201 359.953 650.119C 359.322 648.754 358.941 647.0161 358.81 645.034C 358.81 645.033 358.81 645.032 358.81 645.031C 358.8 644.881 358.792 644.73 358.785 644.578C 358.783 644.546 358.782 644.514 358.78 644.482C 358.776 644.362 358.772 644.24 358.768 644.118C 358.766 644.051 358.765 643.983 358.764 643.915C 358.762 643.828 358.761 643.741 358.76 643.654C 358.759 643.546 358.759 643.436 358.759 643.327C 358.759 643.28 358.76 643.233 358.76 643.186C 358.762 643.03 358.764 642.873 358.768 642.715L358.768 642.715L358.768 642.715C 358.839 639.936 359.325 636.828 360.224 633.665C 362.159 626.862 365.732 620.91 369.345 618.45C 368.915 617.885 368.437 617.393 367.915 616.987C 364.084 618.523 359.809 624.817 357.543 632.785C 355.277 640.752 355.717 647.941 358.327 650.699" stroke="none" fill="#060606" fill-rule="nonzero" /><path id="17" transform="matrix(1 0 0 -1 0 834)" d="M385.017 613.21C 385.157 613.042 385.302 612.888 385.455 612.749L385.455 612.749L385.455 612.749C 385.956 612.293 386.619 611.975 387.238 611.85C 387.844 611.742 388.498 611.798 389.188 612.021C 387.089 613.751 385.733 616.682 385.325 620.354L385.325 620.354L383.825 617.937L383.825 617.937L383.007 619.89C 383.172 616.989 383.859 614.645 385.017 613.21" stroke="none" fill="#FFFFFF" fill-rule="nonzero" /><path id="18" transform="matrix(1 0 0 -1 0 834)" d="M397.637 645.274C 398.261 643.935 398.648 642.2 398.779 640.188C 398.78 640.187 398.78 640.186 398.78 640.185C 398.79 640.035 398.798 639.885 398.805 639.732C 398.806 639.7 398.807 639.668 398.809 639.636C 398.814 639.5161 398.818 639.395 398.821 639.272C 398.823 639.205 398.825 639.137 398.826 639.069C 398.827 638.983 398.829 638.896 398.829 638.808C 398.83 638.7 398.83 638.591 398.83 638.481C 398.83 638.434 398.83 638.387 398.829 638.34C 398.828 638.184 398.825 638.027 398.821 637.869L398.821 637.869L398.821 637.869C 398.75 635.09 398.265 631.982 397.365 628.819C 395.43 622.017 391.858 616.064 388.245 613.604C 388.675 613.039 389.152 612.5471 389.674 612.1411C 393.505 613.677 397.781 619.971 400.047 627.939C 402.313 635.906 401.872 643.096 399.263 645.853C 398.719 645.7141 398.176 645.519 397.637 645.274" stroke="none" fill="#FFFFFF" fill-rule="nonzero" /><path id="19" transform="matrix(1 0 0 -1 0 834)" d="M382.967 621.102L383.904 618.866L383.904 618.866L385.658 621.695L385.658 621.695L389.206 627.419L389.206 627.419L385.427 626.454L385.427 626.454L385.494 626.9L385.494 626.9L385.497 626.901C 385.683 628.11 385.949 629.335 386.294 630.5471C 388.498 638.2971 393.643 644.642 398.89 646.135C 398.389 646.586 397.828 646.873 397.222 646.994C 396.862 647.057 396.483 647.063 396.095 647.011C 394.958 646.856 393.472 646.215 391.878 644.7971C 389.453 642.457 387.111 638.633 385.415 634.024C 385.07 633.052 384.738 632.013 384.423 630.903C 384.037 629.548 383.723 628.186 383.487 626.854L383.487 626.854L383.478 626.855L383.478 626.855L383.406 626.552L383.406 626.552L380.117 627.914L380.117 627.914L382.967 621.112C 382.967 621.109 382.967 621.105 382.967 621.102" stroke="none" fill="#FFFFFF" fill-rule="nonzero" /><path id="20" transform="matrix(1 0 0 -1 0 834)" d="M401.765 634.425C 402.344 639.822 401.502 644.229 399.465 646.181C 401.474 644.148 402.317 639.762 401.765 634.425" stroke="none" fill="#FFFFFF" fill-rule="nonzero" /><path id="21" transform="matrix(1 0 0 -1 0 834)" d="M385.707 620.972C 385.787 620.092 385.921 619.246 386.106 618.444C 385.923 619.247 385.791 620.096 385.712 620.98" stroke="none" fill="#FFFFFF" fill-rule="nonzero" /><path id="22" transform="matrix(1 0 0 -1 0 834)" d="M379.339 628.645L382.531 621.026C 382.614 617.097 383.585 614.005 385.228 612.481L385.228 612.481L385.226 612.479C 385.267 612.442 385.311 612.413 385.353 612.378C 385.873 611.929 386.455 611.624 387.097 611.503C 387.113 611.499 387.131 611.498 387.148 611.4951C 387.158 611.493 387.167 611.489 387.177 611.487C 387.24 611.475 387.305 611.471 387.37 611.462C 387.383 611.46 387.396 611.458 387.409 611.457C 391.903 610.885 397.715 618.14 400.479 627.857C 401.127 630.135 401.551 632.352 401.765 634.425C 402.317 639.763 401.475 644.149 399.465 646.181C 398.926 646.727 398.302 647.104 397.599 647.283C 397.586 647.287 397.573 647.289 397.56 647.293C 397.498 647.308 397.437 647.327 397.374 647.3391C 397.36 647.342 397.347 647.343 397.334 647.345C 397.32 647.348 397.307 647.352 397.293 647.355C 392.77 648.213 386.803 640.869 383.991 630.985C 383.629 629.711 383.331 628.432 383.101 627.175M380.113 627.916L380.118 627.914L380.118 627.914L383.407 626.552L383.407 626.552L383.479 626.855L383.479 626.855L383.487 626.854C 383.723 628.186 384.038 629.548 384.423 630.903C 384.739 632.013 385.071 633.052 385.415 634.024C 387.365 639.527 389.72 642.875 391.879 644.7971C 393.472 646.215 394.958 646.856 396.096 647.012C 396.484 647.064 396.862 647.057 397.222 646.994C 397.828 646.873 398.389 646.587 398.891 646.136C 393.644 644.642 388.498 638.2971 386.294 630.548C 385.949 629.335 385.684 628.11 385.498 626.901L385.498 626.901L385.494 626.9L385.494 626.9L385.427 626.455L385.427 626.455L389.207 627.419L389.207 627.419L385.659 621.695L385.659 621.695L383.904 618.866L383.904 618.866L382.967 621.102zM388.016 613.9221C 387.157 615.153 386.51 616.694 386.106 618.444C 385.921 619.246 385.787 620.092 385.707 620.972L385.707 620.972L385.713 620.98L385.713 620.98L386.054 621.532L386.054 621.532L390.073 628.015L390.073 628.015L385.964 627.014C 386.146 628.16 386.4 629.3181 386.726 630.466C 388.643 637.206 392.787 642.856 397.246 645.088C 398.875 641.502 398.76 635.323 396.934 628.901C 395.029 622.205 391.54 616.356 388.016 613.9221M383.002 619.901L383.007 619.89L383.007 619.89L383.825 617.937L383.825 617.937L385.325 620.355C 385.733 616.682 387.089 613.752 389.187 612.021C 388.498 611.799 387.844 611.743 387.238 611.85C 386.619 611.976 385.956 612.294 385.455 612.75L385.455 612.75L385.455 612.749C 385.302 612.888 385.157 613.043 385.017 613.211C 383.874 614.583 383.164 616.896 383.002 619.901M400.047 627.939C 397.781 619.971 393.506 613.677 389.675 612.1411C 389.153 612.5471 388.675 613.039 388.245 613.604C 391.858 616.064 395.43 622.017 397.365 628.819C 398.265 631.982 398.751 635.09 398.821 637.869L398.821 637.869L398.821 637.869C 398.825 638.027 398.828 638.185 398.829 638.341C 398.83 638.388 398.83 638.434 398.83 638.481C 398.831 638.591 398.83 638.7 398.829 638.808C 398.829 638.896 398.828 638.983 398.826 639.069C 398.825 639.137 398.823 639.205 398.821 639.272C 398.818 639.395 398.814 639.5161 398.809 639.637C 398.808 639.668 398.806 639.7 398.805 639.732C 398.798 639.884 398.79 640.036 398.78 640.185C 398.78 640.186 398.78 640.187 398.78 640.188C 398.648 642.17 398.268 643.908 397.636 645.274L397.636 645.274L397.637 645.274C 398.176 645.519 398.719 645.7141 399.263 645.853C 401.873 643.096 402.313 635.906 400.047 627.939" stroke="none" fill="#060606" fill-rule="nonzero" /></g><g clip-path="url(#9)"></g><g clip-path="url(#10)"><g transform="matrix(1.006449 0 0 0.9985386 261.396 111.7083)"><g transform="matrix(1 0 0 1 0 0)"><image x="0" y="0" xlink:href="img_03.png" width="37" height="57" /></g></g></g><g clip-path="url(#11)"></g><g clip-path="url(#12)"><g transform="matrix(1.0156 0 0 0.9973868 301.935 139.1453)"><g transform="matrix(1 0 0 1 0 0)"><image x="0" y="0" xlink:href="img_04.png" width="32" height="38" /></g></g></g><g clip-path="url(#13)"></g><g clip-path="url(#14)"><g transform="matrix(-1.0156 0 0 0.9973868 433.656 139.1453)"><g transform="matrix(1 0 0 1 0 0)"><image x="0" y="0" xlink:href="img_04.png" width="32" height="38" /></g></g></g><g transform="matrix(1.005162 0 0 1.00369 343.856 350.278)"><g transform="matrix(1 0 0 1 0 0)"><image x="0" y="0" xlink:href="img_05.png" width="105" height="129" /></g></g><g clip-path="url(#15)"><path id="454" transform="matrix(1 0 0 -1 0 834)" d="M361.018 485.735C 365.543 485.834 375.732 485.232 381.771 478.47" stroke="#000000" stroke-width="0.766" fill="none" /></g><path id="455" transform="matrix(1 0 0 -1 0 834)" d="M358.735 485.605L362.164 484.358L361.491 485.744L362.021 487.191z" stroke="none" fill="#000000" fill-rule="nonzero" /><path id="456" transform="matrix(1 0 0 -1 0 834)" d="M379.969 478.406L381.453 478.821L382.185 480.177L383.176 476.665z" stroke="none" fill="#000000" fill-rule="nonzero" /><g clip-path="url(#16)"><path id="457" transform="matrix(1 0 0 -1 0 834)" d="M426.286 443.593C 426.286 426.416 440.211 412.49 457.389 412.49C 474.566 412.49 488.491 426.416 488.491 443.593C 488.491 460.77 474.566 474.696 457.389 474.696C 440.211 474.696 426.286 460.77 426.286 443.593" stroke="none" fill="#FFFFFF" fill-rule="nonzero" /></g><g clip-path="url(#17)"></g><g clip-path="url(#18)"><g transform="matrix(1.001922 0 0 1.005646 423.24 369.194)"><g transform="matrix(1 0 0 1 0 0)"><image x="0" y="0" xlink:href="img_06.png" width="81" height="99" /></g></g></g><g clip-path="url(#19)"><path id="459" transform="matrix(1 0 0 -1 0 834)" d="M426.286 443.593C 426.286 426.416 440.211 412.49 457.389 412.49C 474.566 412.49 488.491 426.416 488.491 443.593C 488.491 460.77 474.566 474.696 457.389 474.696C 440.211 474.696 426.286 460.77 426.286 443.593z" stroke="#000000" stroke-width="0.766" fill="none" /></g><g clip-path="url(#20)"></g><g clip-path="url(#21)"><g transform="matrix(0.9943296 0 0 0.9978843 257.825 336.4654)"><g transform="matrix(1 0 0 1 0 0)"><image x="0" y="0" xlink:href="img_07.png" width="44" height="38" /></g></g></g><g clip-path="url(#22)"></g><g clip-path="url(#23)"><g transform="matrix(1.022789 0 0 0.9973868 319.321 354.4033)"><g transform="matrix(1 0 0 1 0 0)"><image x="0" y="0" xlink:href="img_08.png" width="27" height="38" /></g></g></g><g transform="matrix(1.008705 0 0 0.9985152 365.226 566.778)"><g transform="matrix(1 0 0 1 0 0)"><image x="0" y="0" xlink:href="img_09.png" width="77" height="132" /></g></g><g clip-path="url(#24)"><path id="915" transform="matrix(1 0 0 -1 0 834)" d="M424.59 164.97C 424.59 148.649 437.821 135.419 454.141 135.419C 470.462 135.419 483.693 148.649 483.693 164.97C 483.693 181.291 470.462 194.521 454.141 194.521C 437.821 194.521 424.59 181.291 424.59 164.97" stroke="none" fill="#FFFFFF" fill-rule="nonzero" /></g><g clip-path="url(#25)"></g><g clip-path="url(#26)"><g transform="matrix(0.9987684 0 0 1.003563 428.84 609.2514)"><g transform="matrix(1 0 0 1 0 0)"><image x="0" y="0" xlink:href="img_10.png" width="76" height="97" /></g></g></g><g clip-path="url(#27)"><path id="917" transform="matrix(1 0 0 -1 0 834)" d="M424.59 164.97C 424.59 148.649 437.821 135.419 454.141 135.419C 470.462 135.419 483.693 148.649 483.693 164.97C 483.693 181.291 470.462 194.521 454.141 194.521C 437.821 194.521 424.59 181.291 424.59 164.97z" stroke="#000000" stroke-width="0.654" fill="none" /></g><path id="918" transform="matrix(1 0 0 -1 0 834)" d="M377.387 175.299L358.8 175.299" stroke="#000000" stroke-width="1.308" fill="none" /><path id="919" transform="matrix(1 0 0 -1 0 834)" d="M354.896 175.299L360.635 172.878L359.607 175.299L360.635 177.72z" stroke="none" fill="#000000" fill-rule="nonzero" /><g clip-path="url(#28)"><path id="920" transform="matrix(1 0 0 -1 0 834)" d="M377.387 215.648C 375.478 215.648 373.931 214.101 373.931 212.193C 373.931 210.284 375.478 208.737 377.387 208.737C 379.295 208.737 380.842 210.284 380.842 212.193C 380.842 214.101 379.295 215.648 377.387 215.648M377.387 209.157C 375.721 209.157 374.37 210.507 374.37 212.173C 374.37 213.839 375.721 215.19 377.387 215.19C 379.053 215.19 380.403 213.839 380.403 212.173C 380.403 210.507 379.053 209.157 377.387 209.157" stroke="none" fill="#000000" fill-rule="nonzero" /></g><g clip-path="url(#29)"><path id="922" transform="matrix(1 0 0 -1 0 834)" d="M454.142 185.312C 452.233 185.312 450.686 183.765 450.686 181.857C 450.686 179.948 452.233 178.401 454.142 178.401C 456.05 178.401 457.597 179.948 457.597 181.857C 457.597 183.765 456.05 185.312 454.142 185.312M454.142 178.821C 452.476 178.821 451.125 180.171 451.125 181.837C 451.125 183.503 452.476 184.854 454.142 184.854C 455.808 184.854 457.158 183.503 457.158 181.837C 457.158 180.171 455.808 178.821 454.142 178.821" stroke="none" fill="#000000" fill-rule="nonzero" /></g><g clip-path="url(#30)"><path id="924" transform="matrix(1 0 0 -1 0 834)" d="M449.277 163.699C 449.782 163.673 450.13 164.055 450.054 164.553C 449.977 165.049 449.506 165.473 449.001 165.499C 448.495 165.525 448.148 165.143 448.223 164.646C 448.3 164.149 448.771 163.725 449.277 163.699" stroke="none" fill="#000000" fill-rule="nonzero" /><path id="925" transform="matrix(1 0 0 -1 0 834)" d="M448.663 163.22L446.859 160.57L446.504 161.086L446.273 159.325L447.79 160.132L447.207 160.312L449.01 162.962" stroke="none" fill="#000000" fill-rule="nonzero" /><path id="926" transform="matrix(1 0 0 -1 0 834)" d="M447.891 164.343L443.881 163.086L443.829 163.655L442.628 162.476L444.527 162.27L444.069 162.712L448.08 163.97" stroke="none" fill="#000000" fill-rule="nonzero" /><path id="927" transform="matrix(1 0 0 -1 0 834)" d="M442.58 167.464L440.746 167.323L442.4 166.095L442.238 166.666L447.692 164.965L447.741 165.335L442.286 167.036" stroke="none" fill="#000000" fill-rule="nonzero" /><path id="928" transform="matrix(1 0 0 -1 0 834)" d="M443.69 170.146L444.594 168.368L444.754 168.876L448.096 165.656L448.347 165.905L445.005 169.124L445.524 169.288" stroke="none" fill="#000000" fill-rule="nonzero" /></g><g transform="matrix(0.9959568 0 0 1.005773 261.518 546.8407)"><g transform="matrix(1 0 0 1 0 0)"><image x="0" y="0" xlink:href="img_11.png" width="37" height="56" /></g></g><g clip-path="url(#31)"></g><g clip-path="url(#32)"><g transform="matrix(1.022789 0 0 0.9973868 303.646 624.7843)"><g transform="matrix(1 0 0 1 0 0)"><image x="0" y="0" xlink:href="img_12.png" width="27" height="38" /></g></g></g><g clip-path="url(#33)"></g><g clip-path="url(#34)"><g transform="matrix(1.023622 0 0 0.9967948 303.644 660.6518)"><g transform="matrix(1 0 0 1 0 0)"><image x="0" y="0" xlink:href="img_13.png" width="27" height="38" /></g></g></g><g clip-path="url(#35)"></g><g clip-path="url(#36)"><g transform="matrix(-1.022789 0 0 0.9973868 530.201 627.4093)"><g transform="matrix(1 0 0 1 0 0)"><image x="0" y="0" xlink:href="img_14.png" width="27" height="38" /></g></g></g><path id="1313" transform="matrix(1 0 0 -1 0 834)" d="M633 15L633 0M633 819L633 834M21 15L21 0M21 819L21 834M639 21L654 21M15 21L0 21M639 813L654 813M15 813L0 813" stroke="#000000" stroke-width="1.25" fill="none" /><path id="1314" transform="matrix(1 0 0 -1 0 834)" d="M633 15L633 0M633 819L633 834M21 15L21 0M21 819L21 834M639 21L654 21M15 21L0 21M639 813L654 813M15 813L0 813" stroke="#000000" stroke-width="0.25" fill="none" /><path id="1315" transform="matrix(1 0 0 -1 0 834)" d="M32.2781 9.28203C 32.2781 9.516021 32.2961 9.58203 32.3559 9.62383C 32.416 9.66602 32.5719 9.69609 32.8238 9.69609C 33.2262 9.69609 33.5738 9.62383 33.8441 9.45C 34.3238 9.167971 34.552 8.63398 34.552 8.016021C 34.552 7.05586 34.0359 6.21602 32.9141 6.21602C 32.4762 6.21602 32.2781 6.33008 32.2781 6.78594zM31.252 9.900001L31.252 9.726171C 31.7141 9.68984 31.7621 9.66602 31.7621 9.150001L31.7621 9.150001L31.7621 6.74414C 31.7621 6.23398 31.7141 6.19805 31.198 6.16211L31.198 6.16211L31.198 6L31.198 6L32.6199 6C 33.3578 6 33.952 6.15 34.402 6.49805C 34.8641 6.84609 35.1398 7.38008 35.1398 8.1C 35.1398 8.664061 34.9301 9.101951 34.6359 9.38984C 34.2641 9.74414 33.7 9.900001 32.9379 9.900001z" stroke="#000000" stroke-width="0.4" fill="none" /><path id="1316" transform="matrix(1 0 0 -1 0 834)" d="M38.3801 6.97813C 38.2898 6.70195 38.1758 6.51016 38.0738 6.38984C 37.9359 6.23398 37.732 6.20391 37.402 6.20391C 37.15 6.20391 36.9461 6.21602 36.8258 6.28203C 36.718 6.34219 36.6879 6.46211 36.6879 6.78594L36.6879 6.78594L36.6879 9.15586C 36.6879 9.66602 36.7418 9.69609 37.216 9.73203L37.216 9.73203L37.216 9.900001L37.216 9.900001L35.65 9.900001L35.65 9.900001L35.65 9.73203C 36.1359 9.69609 36.1777 9.66602 36.1777 9.15586L36.1777 9.15586L36.1777 6.75586C 36.1777 6.24609 36.1301 6.20391 35.6258 6.16797L35.6258 6.16797L35.6258 6L35.6258 6L38.3438 6C 38.398 6.18594 38.5238 6.75586 38.5598 6.94219z" stroke="#000000" stroke-width="0.4" fill="none" /><path id="1317" transform="matrix(1 0 0 -1 0 834)" d="M41.0918 9.023829C 41.0438 9.40195 41.0141 9.63594 40.9898 9.851951C 40.7617 9.92383 40.5098 9.989841 40.234 9.989841C 39.4598 9.989841 38.998 9.49805 38.998 8.921881C 38.998 8.24414 39.6039 7.94414 39.9879 7.73984C 40.4379 7.5 40.768 7.28984 40.768 6.84609C 40.768 6.40781 40.498 6.12617 40.048 6.12617C 39.4301 6.12617 39.1598 6.73203 39.0641 7.09805L39.0641 7.09805L38.8898 7.05586C 38.9258 6.767971 39.0039 6.25195 39.052 6.12617C 39.1059 6.09609 39.1961 6.05391 39.3461 6C 39.4961 5.95781 39.6879 5.91016 39.934 5.91016C 40.732 5.91016 41.266 6.41406 41.266 7.04414C 41.266 7.71602 40.6961 7.99805 40.2277 8.23789C 39.7539 8.48398 39.466 8.68789 39.466 9.12617C 39.466 9.45 39.6699 9.78594 40.132 9.78594C 40.6539 9.78594 40.8098 9.371881 40.918 8.98789z" stroke="#000000" stroke-width="0.4" fill="none" /><path id="1318" transform="matrix(1 0 0 -1 0 834)" d="M46.648 6L46.648 6.16797C 46.1258 6.21602 46.1078 6.24609 46.0898 6.88203L46.0898 6.88203L46.0301 9.05391C 46.0117 9.671881 46.0539 9.68398 46.582 9.73203L46.582 9.73203L46.582 9.900001L46.582 9.900001L45.5617 9.900001L45.5617 9.900001L44.1758 6.9L44.1758 6.9L42.8078 9.900001L42.8078 9.900001L41.8238 9.900001L41.8238 9.900001L41.8238 9.73203C 42.3699 9.67813 42.4 9.653911 42.3461 8.87383L42.3461 8.87383L42.2617 7.626171C 42.2141 7.00195 42.1777 6.73789 42.148 6.528131C 42.1059 6.27617 41.9859 6.21016 41.6379 6.16797L41.6379 6.16797L41.6379 6L41.6379 6L43.0359 6L43.0359 6L43.0359 6.16797C 42.6398 6.21016 42.4961 6.25195 42.484 6.53984C 42.4777 6.78008 42.4777 7.04414 42.502 7.53594L42.502 7.53594L42.5918 9.24609L42.5918 9.24609L42.6039 9.24609L42.6039 9.24609L43.948 6.04219L43.948 6.04219L44.068 6.04219L44.068 6.04219L45.532 9.33008L45.532 9.33008L45.5559 9.33008L45.5559 9.33008L45.5738 6.88203C 45.5801 6.24609 45.5559 6.21602 45.0699 6.16797L45.0699 6.16797L45.0699 6z" stroke="#000000" stroke-width="0.4" fill="none" /><path id="1319" transform="matrix(1 0 0 -1 0 834)" d="M51.8738 7.05586C 51.5738 6.45586 51.2496 6.12617 50.6379 6.12617C 49.7258 6.12617 49.0656 6.89414 49.0656 8.016021C 49.0656 8.92813 49.5996 9.773829 50.602 9.773829C 51.2496 9.773829 51.6098 9.516021 51.7656 8.88008L51.7656 8.88008L51.9457 8.921881C 51.9098 9.24609 51.8738 9.48594 51.8258 9.828131C 51.6578 9.85781 51.2496 9.989841 50.7637 9.989841C 49.4258 9.989841 48.4539 9.15586 48.4539 7.89609C 48.4539 6.94219 49.1078 5.91016 50.602 5.91016C 51.034 5.91016 51.5379 6.03008 51.7059 6.07188C 51.8137 6.26992 51.9637 6.71406 52.0477 6.98984z" stroke="#000000" stroke-width="0.4" fill="none" /><path id="1320" transform="matrix(1 0 0 -1 0 834)" d="M54.3398 9.773829C 55.1258 9.773829 55.7855 9.101951 55.7855 7.83594C 55.7855 6.68398 55.1855 6.12617 54.5195 6.12617C 53.6738 6.12617 53.0559 6.94805 53.0559 8.076171C 53.0559 9.19805 53.6676 9.773829 54.3398 9.773829zM54.4598 9.989841C 53.1996 9.989841 52.4438 8.98789 52.4438 7.90781C 52.4438 6.75586 53.3078 5.91016 54.3938 5.91016C 55.4918 5.91016 56.3977 6.70195 56.3977 7.99805C 56.3977 9.19805 55.4797 9.989841 54.4598 9.989841z" stroke="#000000" stroke-width="0.4" fill="none" /><path id="1321" transform="matrix(1 0 0 -1 0 834)" d="M61.8277 6L61.8277 6.16797C 61.3059 6.21602 61.2879 6.24609 61.2695 6.88203L61.2695 6.88203L61.2098 9.05391C 61.1918 9.671881 61.2336 9.68398 61.7617 9.73203L61.7617 9.73203L61.7617 9.900001L61.7617 9.900001L60.7418 9.900001L60.7418 9.900001L59.3559 6.9L59.3559 6.9L57.9879 9.900001L57.9879 9.900001L57.0035 9.900001L57.0035 9.900001L57.0035 9.73203C 57.5496 9.67813 57.5797 9.653911 57.5258 8.87383L57.5258 8.87383L57.4418 7.626171C 57.3938 7.00195 57.3578 6.73789 57.3277 6.528131C 57.2855 6.27617 57.1656 6.21016 56.8176 6.16797L56.8176 6.16797L56.8176 6L56.8176 6L58.2156 6L58.2156 6L58.2156 6.16797C 57.8195 6.21016 57.6758 6.25195 57.6637 6.53984C 57.6578 6.78008 57.6578 7.04414 57.6816 7.53594L57.6816 7.53594L57.7719 9.24609L57.7719 9.24609L57.7836 9.24609L57.7836 9.24609L59.1277 6.04219L59.1277 6.04219L59.2477 6.04219L59.2477 6.04219L60.7117 9.33008L60.7117 9.33008L60.7355 9.33008L60.7355 9.33008L60.7535 6.88203C 60.7598 6.24609 60.7355 6.21602 60.2496 6.16797L60.2496 6.16797L60.2496 6z" stroke="#000000" stroke-width="0.4" fill="none" /><path id="1322" transform="matrix(1 0 0 -1 0 834)" d="M63.8258 6L63.8258 6.16797C 63.3336 6.20391 63.2855 6.23398 63.2855 6.75L63.2855 6.75L63.2855 9.150001C 63.2855 9.66016 63.3336 9.69609 63.8258 9.73203L63.8258 9.73203L63.8258 9.900001L63.8258 9.900001L62.2355 9.900001L62.2355 9.900001L62.2355 9.73203C 62.7277 9.69609 62.7758 9.66016 62.7758 9.150001L62.7758 9.150001L62.7758 6.75C 62.7758 6.23984 62.7277 6.20391 62.2355 6.16797L62.2355 6.16797L62.2355 6z" stroke="#000000" stroke-width="0.4" fill="none" /><path id="1323" transform="matrix(1 0 0 -1 0 834)" d="M66.5074 9.023829C 66.4598 9.40195 66.4297 9.63594 66.4055 9.851951C 66.1777 9.92383 65.9258 9.989841 65.6496 9.989841C 64.8758 9.989841 64.4137 9.49805 64.4137 8.921881C 64.4137 8.24414 65.0195 7.94414 65.4035 7.73984C 65.8535 7.5 66.1836 7.28984 66.1836 6.84609C 66.1836 6.40781 65.9137 6.12617 65.46371 6.12617C 64.8457 6.12617 64.5758 6.73203 64.4797 7.09805L64.4797 7.09805L64.3055 7.05586C 64.3418 6.767971 64.4195 6.25195 64.46761 6.12617C 64.52151 6.09609 64.6117 6.05391 64.7617 6C 64.91171 5.95781 65.1035 5.91016 65.3496 5.91016C 66.1477 5.91016 66.6816 6.41406 66.6816 7.04414C 66.6816 7.71602 66.1117 7.99805 65.6438 8.23789C 65.1695 8.48398 64.8816 8.68789 64.8816 9.12617C 64.8816 9.45 65.0855 9.78594 65.5477 9.78594C 66.0695 9.78594 66.2258 9.371881 66.3336 8.98789z" stroke="#000000" stroke-width="0.4" fill="none" /><path id="1324" transform="matrix(1 0 0 -1 0 834)" d="M69.4055 7.68008L68.3016 7.68008C 68.4816 8.171881 68.6734 8.69414 68.8656 9.21016L68.8656 9.21016L68.8777 9.21016zM70.9355 6L70.9355 6.16797C 70.5457 6.20391 70.46761 6.25781 70.2758 6.77383C 69.89181 7.81797 69.4895 8.95781 69.11761 9.989841L69.11761 9.989841L68.9316 9.93594L68.9316 9.93594L67.68951 6.78594C 67.4797 6.25781 67.3957 6.22188 67.0176 6.16797L67.0176 6.16797L67.0176 6L67.0176 6L68.3195 6L68.3195 6L68.3195 6.16797C 67.8695 6.21016 67.81561 6.26992 67.9477 6.64805C 68.0258 6.9 68.1156 7.15195 68.2117 7.42188L68.2117 7.42188L69.4895 7.42188C 69.62151 7.05586 69.74181 6.73203 69.8195 6.49805C 69.8977 6.26406 69.8438 6.21602 69.4656 6.16797L69.4656 6.16797L69.4656 6z" stroke="#000000" stroke-width="0.4" fill="none" /><path id="1325" transform="matrix(1 0 0 -1 0 834)" d="M71.7273 5.92813C 71.9195 5.92813 72.06371 6.06602 72.06371 6.27617C 72.06371 6.46797 71.9195 6.61797 71.7273 6.61797C 71.5355 6.61797 71.3914 6.46797 71.3914 6.27617C 71.3914 6.06602 71.5355 5.92813 71.7273 5.92813z" stroke="#000000" stroke-width="0.4" fill="none" /><path id="1326" transform="matrix(1 0 0 -1 0 834)" d="M73.9234 6L73.9234 6.15586C 73.53951 6.19219 73.4977 6.22813 73.4977 6.63594L73.4977 6.63594L73.4977 8.70586C 73.2336 8.59805 72.9516 8.51992 72.6453 8.471881L72.6453 8.471881L72.6453 8.328131C 73.0055 8.26797 73.0234 8.24414 73.0234 7.871881L73.0234 7.871881L73.0234 6.63594C 73.0234 6.22813 72.9816 6.19219 72.6035 6.15586L72.6035 6.15586L72.6035 6zM73.2215 9.216021C 73.3953 9.216021 73.52731 9.36016 73.52731 9.52188C 73.52731 9.70195 73.3953 9.83398 73.2273 9.83398C 73.06561 9.83398 72.9215 9.70195 72.9215 9.52188C 72.9215 9.36016 73.06561 9.216021 73.2215 9.216021z" stroke="#000000" stroke-width="0.4" fill="none" /><path id="1327" transform="matrix(1 0 0 -1 0 834)" d="M77.1574 6L77.1574 6.15586C 76.8094 6.19219 76.7793 6.21602 76.7793 6.62383L76.7793 6.62383L76.7793 7.78203C 76.7793 8.36406 76.4793 8.69414 76.0055 8.69414C 75.8313 8.69414 75.67541 8.621881 75.5074 8.51406C 75.3574 8.41211 75.2254 8.32188 75.1055 8.23203L75.1055 8.23203L75.1055 8.712111C 74.8414 8.59219 74.5594 8.51992 74.27151 8.466021L74.27151 8.466021L74.27151 8.328131C 74.5953 8.26797 74.6313 8.25 74.6313 7.86602L74.6313 7.86602L74.6313 6.62383C 74.6313 6.22813 74.6016 6.19805 74.19341 6.15586L74.19341 6.15586L74.19341 6L74.19341 6L75.4953 6L75.4953 6L75.4953 6.15586C 75.1414 6.19219 75.1055 6.21602 75.1055 6.62383L75.1055 6.62383L75.1055 8.03398C 75.2855 8.18984 75.5195 8.33984 75.7594 8.33984C 76.1613 8.33984 76.3055 8.069921 76.3055 7.65586L76.3055 7.65586L76.3055 6.65391C 76.3055 6.23984 76.2633 6.19219 75.9094 6.15586L75.9094 6.15586L75.9094 6z" stroke="#000000" stroke-width="0.4" fill="none" /><path id="1328" transform="matrix(1 0 0 -1 0 834)" d="M79.4734 6.51016C 79.32931 6.40195 79.1133 6.30586 78.8973 6.30586C 78.5133 6.30586 78.0754 6.65391 78.0754 7.36797C 78.0754 8.23789 78.57931 8.471881 78.8555 8.471881C 79.0832 8.471881 79.32931 8.37617 79.4734 8.16602zM80.4035 6.30586L80.2113 6.32383C 79.9895 6.34805 79.9473 6.37813 79.9473 6.68984L79.9473 6.68984L79.9473 10.2719C 79.7254 10.1941 79.3234 10.1039 79.0113 10.0621L79.0113 10.0621L79.0113 9.917971C 79.44341 9.88789 79.4734 9.869921 79.4734 9.47383L79.4734 9.47383L79.4734 8.628131C 79.3355 8.67617 79.1613 8.69414 79.0773 8.69414C 78.2613 8.69414 77.5293 8.03984 77.5293 7.20586C 77.5293 6.36602 78.1594 5.92813 78.6395 5.92813C 78.7113 5.92813 78.87341 5.96406 79.1074 6.10195L79.1074 6.10195L79.4734 6.31797L79.4734 6.31797L79.4734 5.92813C 79.8215 6.05391 80.27151 6.13203 80.4035 6.15586z" stroke="#000000" stroke-width="0.4" fill="none" /><path id="1329" transform="matrix(1 0 0 -1 0 834)" d="M81.3813 8.24414C 81.4895 8.310161 81.6813 8.35781 81.84921 8.35781C 82.34731 8.35781 82.7676 7.96211 82.7676 7.278131C 82.7676 6.58203 82.4492 6.15586 81.9516 6.15586C 81.6336 6.16211 81.4535 6.37188 81.4176 6.49219C 81.3934 6.54609 81.3813 6.60586 81.3813 6.69609zM81.3813 8.42383L81.3813 10.2719C 81.1594 10.1941 80.7934 10.098 80.5113 10.0621L80.5113 10.0621L80.5113 9.92383C 80.8953 9.88789 80.9074 9.851951 80.9074 9.48008L80.9074 9.48008L80.9074 6.14414C 81.2375 5.98789 81.5434 5.92813 81.78951 5.92813C 82.59341 5.92813 83.2953 6.55195 83.2953 7.43398C 83.2953 8.14219 82.7555 8.69414 82.1133 8.69414C 82.0473 8.69414 81.9633 8.67617 81.86761 8.63398z" stroke="#000000" stroke-width="0.4" fill="none" /><path id="1330" transform="matrix(1 0 0 -1 0 834)" d="M89.2832 7.35L88.1012 7.35C 88.49731 8.016021 88.8871 8.58594 89.2711 9.119921L89.2711 9.119921L89.2832 9.119921zM90.3391 7.06797L90.3391 7.35L90.3391 7.35L89.7633 7.35L89.7633 7.35L89.7633 9.79219L89.7633 9.79219L89.523 9.79219C 88.90511 8.976171 88.2934 8.08789 87.723 7.23594L87.723 7.23594L87.723 7.06797L87.723 7.06797L89.2832 7.06797L89.2832 7.06797L89.2832 6.63594C 89.2832 6.23984 89.2594 6.20391 88.7371 6.16211L88.7371 6.16211L88.7371 6L88.7371 6L90.273 6L90.273 6L90.273 6.16211C 89.7871 6.20391 89.7633 6.23398 89.7633 6.63594L89.7633 6.63594L89.7633 7.06797z" stroke="#000000" stroke-width="0.4" fill="none" /><path id="1331" transform="matrix(1 0 0 -1 0 834)" d="M91.3953 9.3L92.7934 9.3L92.7934 9.3L92.9492 9.68984L92.9492 9.68984L92.9133 9.73789L92.9133 9.73789L91.2031 9.73789L91.2031 9.73789L90.9691 7.90781C 91.107 7.96211 91.3352 8.028131 91.5871 8.028131C 92.241 8.028131 92.5652 7.65 92.5652 7.121881C 92.5652 6.67188 92.3133 6.23398 91.8031 6.23398C 91.4371 6.23398 91.191 6.42617 91.0652 6.53984C 91.0051 6.58789 90.957 6.58203 90.9031 6.53984C 90.8371 6.48008 90.7832 6.40195 90.77731 6.34219C 90.7652 6.26992 90.7953 6.22188 90.873 6.13789C 90.9633 6.05391 91.2152 5.92813 91.491 5.92813C 91.8094 5.93398 92.2113 6.08984 92.5352 6.35391C 92.90121 6.65391 93.0691 6.99609 93.0691 7.35586C 93.0691 7.84805 92.67931 8.369921 91.9113 8.369921C 91.7492 8.369921 91.4672 8.273829 91.2391 8.18984z" stroke="#000000" stroke-width="0.4" fill="none" /><path id="1332" transform="matrix(1 0 0 -1 0 834)" d="M95.8352 6.83984C 95.65511 6.46211 95.5773 6.43789 95.25311 6.43789L95.25311 6.43789L94.1313 6.43789L94.1313 6.43789L94.9832 7.33203C 95.5352 7.91992 95.77541 8.273829 95.77541 8.79609C 95.77541 9.42617 95.2953 9.810161 94.7672 9.810161C 94.4191 9.810161 94.1371 9.653911 93.957 9.45586L93.957 9.45586L93.6152 8.96992L93.6152 8.96992L93.74731 8.85C 93.9031 9.08398 94.15511 9.40781 94.5633 9.40781C 95.007 9.40781 95.2711 9.11406 95.2711 8.61016C 95.2711 8.09414 94.8934 7.60195 94.5211 7.15781C 94.2211 6.81016 93.8852 6.46797 93.5492 6.13789L93.5492 6.13789L93.5492 6L93.5492 6L95.7934 6C 95.8652 6.26992 95.92541 6.53398 96.00311 6.78594z" stroke="#000000" stroke-width="0.4" fill="none" /><path id="1351" transform="matrix(1 0 0 -1 0 834)" d="M554.472 6.83984C 554.292 6.46211 554.2141 6.43789 553.89 6.43789L553.89 6.43789L552.768 6.43789L552.768 6.43789L553.6201 7.33203C 554.1721 7.91992 554.412 8.273829 554.412 8.79609C 554.412 9.42617 553.932 9.810161 553.404 9.810161C 553.056 9.810161 552.774 9.653911 552.594 9.45586L552.594 9.45586L552.252 8.96992L552.252 8.96992L552.384 8.85C 552.54 9.08398 552.792 9.40781 553.2 9.40781C 553.644 9.40781 553.908 9.11406 553.908 8.61016C 553.908 8.09414 553.53 7.60195 553.158 7.15781C 552.858 6.81016 552.522 6.46797 552.186 6.13789L552.186 6.13789L552.186 6L552.186 6L554.43 6C 554.502 6.26992 554.562 6.53398 554.64 6.78594z" stroke="#000000" stroke-width="0.4" fill="none" /><path id="1352" transform="matrix(1 0 0 -1 0 834)" d="M555.792 9.3L557.19 9.3L557.19 9.3L557.346 9.68984L557.346 9.68984L557.31 9.73789L557.31 9.73789L555.6 9.73789L555.6 9.73789L555.366 7.90781C 555.504 7.96211 555.732 8.028131 555.984 8.028131C 556.638 8.028131 556.962 7.65 556.962 7.121881C 556.962 6.67188 556.71 6.23398 556.2 6.23398C 555.834 6.23398 555.588 6.42617 555.462 6.53984C 555.402 6.58789 555.354 6.58203 555.3 6.53984C 555.234 6.48008 555.18 6.40195 555.174 6.34219C 555.162 6.26992 555.192 6.22188 555.27 6.13789C 555.36 6.05391 555.612 5.92813 555.888 5.92813C 556.206 5.93398 556.608 6.08984 556.932 6.35391C 557.298 6.65391 557.466 6.99609 557.466 7.35586C 557.466 7.84805 557.076 8.369921 556.308 8.369921C 556.146 8.369921 555.864 8.273829 555.636 8.18984z" stroke="#000000" stroke-width="0.4" fill="none" /><path id="1353" transform="matrix(1 0 0 -1 0 834)" d="M559.548 9.989841L559.212 9.989841L559.212 9.989841L557.91 5.73594L557.91 5.73594L558.246 5.73594z" stroke="#000000" stroke-width="0.4" fill="none" /><path id="1354" transform="matrix(1 0 0 -1 0 834)" d="M561.18 9.61211C 561.72 9.61211 561.8701 8.72383 561.8701 7.871881C 561.8701 7.03203 561.726 6.13203 561.186 6.13203C 560.664 6.13203 560.49 7.03789 560.49 7.87813C 560.49 8.712111 560.634 9.61211 561.18 9.61211zM561.186 9.810161C 560.286 9.810161 559.956 8.74219 559.956 7.86602C 559.956 6.91797 560.28 5.92813 561.186 5.92813C 562.086 5.92813 562.404 6.99609 562.404 7.871881C 562.404 8.79609 562.086 9.810161 561.186 9.810161z" stroke="#000000" stroke-width="0.4" fill="none" /><path id="1355" transform="matrix(1 0 0 -1 0 834)" d="M564 9.61211C 564.582 9.61211 564.738 8.86797 564.738 8.33984C 564.738 8.21992 564.732 8.076171 564.7141 7.94414C 564.588 7.84805 564.384 7.77617 564.174 7.77617C 563.67 7.77617 563.3701 8.214061 563.3701 8.74219C 563.3701 9.09609 563.538 9.61211 564 9.61211zM564.078 9.810161C 563.304 9.810161 562.854 9.10781 562.854 8.53203C 562.854 7.90195 563.292 7.43398 563.928 7.43398C 564.042 7.43398 564.156 7.45781 564.288 7.53008L564.288 7.53008L564.69 7.74609C 564.492 6.83398 563.838 6.23398 562.98 6.08984L562.98 6.08984L563.01 5.91016C 563.16 5.91016 563.526 5.96992 563.85 6.10195C 564.66 6.42617 565.2661 7.20586 565.2661 8.310161C 565.2661 9.12617 564.828 9.810161 564.078 9.810161z" stroke="#000000" stroke-width="0.4" fill="none" /><path id="1356" transform="matrix(1 0 0 -1 0 834)" d="M567.294 9.989841L566.958 9.989841L566.958 9.989841L565.656 5.73594L565.656 5.73594L565.992 5.73594z" stroke="#000000" stroke-width="0.4" fill="none" /><path id="1357" transform="matrix(1 0 0 -1 0 834)" d="M569.9641 6.83984C 569.784 6.46211 569.706 6.43789 569.382 6.43789L569.382 6.43789L568.26 6.43789L568.26 6.43789L569.112 7.33203C 569.664 7.91992 569.904 8.273829 569.904 8.79609C 569.904 9.42617 569.424 9.810161 568.896 9.810161C 568.548 9.810161 568.2661 9.653911 568.086 9.45586L568.086 9.45586L567.744 8.96992L567.744 8.96992L567.876 8.85C 568.032 9.08398 568.284 9.40781 568.692 9.40781C 569.136 9.40781 569.4 9.11406 569.4 8.61016C 569.4 8.09414 569.022 7.60195 568.65 7.15781C 568.35 6.81016 568.014 6.46797 567.678 6.13789L567.678 6.13789L567.678 6L567.678 6L569.9221 6C 569.994 6.26992 570.054 6.53398 570.132 6.78594z" stroke="#000000" stroke-width="0.4" fill="none" /><path id="1358" transform="matrix(1 0 0 -1 0 834)" d="M571.806 9.61211C 572.346 9.61211 572.496 8.72383 572.496 7.871881C 572.496 7.03203 572.352 6.13203 571.812 6.13203C 571.29 6.13203 571.116 7.03789 571.116 7.87813C 571.116 8.712111 571.26 9.61211 571.806 9.61211zM571.812 9.810161C 570.912 9.810161 570.582 8.74219 570.582 7.86602C 570.582 6.91797 570.906 5.92813 571.812 5.92813C 572.712 5.92813 573.03 6.99609 573.03 7.871881C 573.03 8.79609 572.712 9.810161 571.812 9.810161z" stroke="#000000" stroke-width="0.4" fill="none" /><path id="1359" transform="matrix(1 0 0 -1 0 834)" d="M575.556 6L575.556 6.16211C 575.01 6.20391 574.9741 6.25195 574.9741 6.68398L574.9741 6.68398L574.9741 9.810161C 574.644 9.67813 574.29 9.56406 573.906 9.49805L573.906 9.49805L573.906 9.36016L573.906 9.36016L574.194 9.34805C 574.458 9.33594 574.482 9.305861 574.482 8.99414L574.482 8.99414L574.482 6.68398C 574.482 6.25195 574.452 6.20391 573.906 6.16211L573.906 6.16211L573.906 6z" stroke="#000000" stroke-width="0.4" fill="none" /><path id="1360" transform="matrix(1 0 0 -1 0 834)" d="M578.814 9.73789L576.522 9.73789C 576.498 9.48008 576.468 9.180079 576.414 8.85L576.414 8.85L576.588 8.85C 576.732 9.24609 576.768 9.3 577.164 9.3L577.164 9.3L578.46 9.3C 577.986 8.25586 577.308 7.01406 576.678 5.99414L576.678 5.99414L576.72 5.92813L576.72 5.92813L577.164 5.98789C 577.74 7.22383 578.298 8.44805 578.862 9.66602z" stroke="#000000" stroke-width="0.4" fill="none" /><path id="1361" transform="matrix(1 0 0 -1 0 834)" d="M584.531 9.61211C 585.071 9.61211 585.221 8.72383 585.221 7.871881C 585.221 7.03203 585.077 6.13203 584.537 6.13203C 584.015 6.13203 583.841 7.03789 583.841 7.87813C 583.841 8.712111 583.985 9.61211 584.531 9.61211zM584.537 9.810161C 583.637 9.810161 583.307 8.74219 583.307 7.86602C 583.307 6.91797 583.631 5.92813 584.537 5.92813C 585.437 5.92813 585.755 6.99609 585.755 7.871881C 585.755 8.79609 585.437 9.810161 584.537 9.810161z" stroke="#000000" stroke-width="0.4" fill="none" /><path id="1362" transform="matrix(1 0 0 -1 0 834)" d="M588.449 6.83984C 588.269 6.46211 588.191 6.43789 587.867 6.43789L587.867 6.43789L586.7451 6.43789L586.7451 6.43789L587.597 7.33203C 588.149 7.91992 588.389 8.273829 588.389 8.79609C 588.389 9.42617 587.909 9.810161 587.381 9.810161C 587.033 9.810161 586.751 9.653911 586.571 9.45586L586.571 9.45586L586.229 8.96992L586.229 8.96992L586.361 8.85C 586.517 9.08398 586.769 9.40781 587.177 9.40781C 587.621 9.40781 587.885 9.11406 587.885 8.61016C 587.885 8.09414 587.507 7.60195 587.135 7.15781C 586.835 6.81016 586.499 6.46797 586.163 6.13789L586.163 6.13789L586.163 6L586.163 6L588.407 6C 588.479 6.26992 588.539 6.53398 588.617 6.78594z" stroke="#000000" stroke-width="0.4" fill="none" /><path id="1363" transform="matrix(1 0 0 -1 0 834)" d="M589.5471 5.92813C 589.739 5.92813 589.883 6.06602 589.883 6.27617C 589.883 6.46797 589.739 6.61797 589.5471 6.61797C 589.355 6.61797 589.211 6.46797 589.211 6.27617C 589.211 6.06602 589.355 5.92813 589.5471 5.92813zM589.541 8.466021C 589.3491 8.466021 589.211 8.328131 589.211 8.13008C 589.211 7.92617 589.3491 7.78203 589.541 7.78203C 589.733 7.78203 589.877 7.92617 589.877 8.13008C 589.877 8.328131 589.733 8.466021 589.541 8.466021z" stroke="#000000" stroke-width="0.4" fill="none" /><path id="1364" transform="matrix(1 0 0 -1 0 834)" d="M591.137 9.3L592.535 9.3L592.535 9.3L592.691 9.68984L592.691 9.68984L592.655 9.73789L592.655 9.73789L590.945 9.73789L590.945 9.73789L590.711 7.90781C 590.8491 7.96211 591.077 8.028131 591.329 8.028131C 591.983 8.028131 592.307 7.65 592.307 7.121881C 592.307 6.67188 592.055 6.23398 591.545 6.23398C 591.179 6.23398 590.933 6.42617 590.807 6.53984C 590.747 6.58789 590.699 6.58203 590.645 6.53984C 590.579 6.48008 590.525 6.40195 590.519 6.34219C 590.507 6.26992 590.537 6.22188 590.615 6.13789C 590.705 6.05391 590.957 5.92813 591.233 5.92813C 591.551 5.93398 591.953 6.08984 592.277 6.35391C 592.643 6.65391 592.811 6.99609 592.811 7.35586C 592.811 7.84805 592.421 8.369921 591.653 8.369921C 591.491 8.369921 591.209 8.273829 590.981 8.18984z" stroke="#000000" stroke-width="0.4" fill="none" /><path id="1365" transform="matrix(1 0 0 -1 0 834)" d="M595.788 9.73789L593.496 9.73789C 593.472 9.48008 593.442 9.180079 593.388 8.85L593.388 8.85L593.562 8.85C 593.706 9.24609 593.742 9.3 594.138 9.3L594.138 9.3L595.434 9.3C 594.96 8.25586 594.282 7.01406 593.652 5.99414L593.652 5.99414L593.694 5.92813L593.694 5.92813L594.138 5.98789C 594.7141 7.22383 595.272 8.44805 595.836 9.66602z" stroke="#000000" stroke-width="0.4" fill="none" /><path id="1366" transform="matrix(1 0 0 -1 0 834)" d="M596.675 5.92813C 596.867 5.92813 597.011 6.06602 597.011 6.27617C 597.011 6.46797 596.867 6.61797 596.675 6.61797C 596.483 6.61797 596.3391 6.46797 596.3391 6.27617C 596.3391 6.06602 596.483 5.92813 596.675 5.92813zM596.669 8.466021C 596.477 8.466021 596.3391 8.328131 596.3391 8.13008C 596.3391 7.92617 596.477 7.78203 596.669 7.78203C 596.861 7.78203 597.005 7.92617 597.005 8.13008C 597.005 8.328131 596.861 8.466021 596.669 8.466021z" stroke="#000000" stroke-width="0.4" fill="none" /><path id="1367" transform="matrix(1 0 0 -1 0 834)" d="M599.825 6.83984C 599.645 6.46211 599.567 6.43789 599.243 6.43789L599.243 6.43789L598.121 6.43789L598.121 6.43789L598.973 7.33203C 599.525 7.91992 599.765 8.273829 599.765 8.79609C 599.765 9.42617 599.285 9.810161 598.757 9.810161C 598.409 9.810161 598.127 9.653911 597.947 9.45586L597.947 9.45586L597.605 8.96992L597.605 8.96992L597.737 8.85C 597.893 9.08398 598.145 9.40781 598.553 9.40781C 598.997 9.40781 599.261 9.11406 599.261 8.61016C 599.261 8.09414 598.883 7.60195 598.511 7.15781C 598.211 6.81016 597.875 6.46797 597.539 6.13789L597.539 6.13789L597.539 6L597.539 6L599.783 6C 599.855 6.26992 599.915 6.53398 599.993 6.78594z" stroke="#000000" stroke-width="0.4" fill="none" /><path id="1368" transform="matrix(1 0 0 -1 0 834)" d="M601.145 9.3L602.543 9.3L602.543 9.3L602.699 9.68984L602.699 9.68984L602.663 9.73789L602.663 9.73789L600.953 9.73789L600.953 9.73789L600.719 7.90781C 600.857 7.96211 601.085 8.028131 601.337 8.028131C 601.991 8.028131 602.315 7.65 602.315 7.121881C 602.315 6.67188 602.063 6.23398 601.553 6.23398C 601.187 6.23398 600.941 6.42617 600.815 6.53984C 600.755 6.58789 600.707 6.58203 600.653 6.53984C 600.587 6.48008 600.533 6.40195 600.527 6.34219C 600.515 6.26992 600.545 6.22188 600.623 6.13789C 600.713 6.05391 600.965 5.92813 601.241 5.92813C 601.559 5.93398 601.961 6.08984 602.285 6.35391C 602.651 6.65391 602.819 6.99609 602.819 7.35586C 602.819 7.84805 602.429 8.369921 601.661 8.369921C 601.499 8.369921 601.217 8.273829 600.989 8.18984z" stroke="#000000" stroke-width="0.4" fill="none" /><path id="1369" transform="matrix(1 0 0 -1 0 834)" d="M605.489 8.08203C 605.651 8.20195 605.897 8.33398 606.0891 8.33398C 606.527 8.33398 606.893 7.97383 606.893 7.33203C 606.893 6.65391 606.557 6.22188 606.053 6.22188C 605.8491 6.22188 605.621 6.31797 605.489 6.45586zM605.489 8.28008L605.489 8.75391C 605.207 8.63984 604.871 8.53789 604.619 8.49609L604.619 8.49609L604.619 8.351951C 604.991 8.30391 605.015 8.29219 605.015 7.90195L605.015 7.90195L605.015 5.18984C 605.015 4.79414 604.961 4.75781 604.577 4.72188L604.577 4.72188L604.577 4.56016L604.577 4.56016L605.999 4.56016L605.999 4.56016L605.999 4.72188C 605.531 4.76406 605.489 4.79414 605.489 5.25L605.489 5.25L605.489 6.03594C 605.567 5.99414 605.729 5.93398 605.903 5.92813C 606.683 6.07188 607.397 6.65391 607.397 7.56016C 607.397 8.153911 607.001 8.69414 606.335 8.69414C 606.263 8.69414 606.149 8.664061 606.041 8.60391z" stroke="#000000" stroke-width="0.4" fill="none" /><path id="1370" transform="matrix(1 0 0 -1 0 834)" d="M608.303 5.92813C 608.4951 5.92813 608.639 6.06602 608.639 6.27617C 608.639 6.46797 608.4951 6.61797 608.303 6.61797C 608.111 6.61797 607.967 6.46797 607.967 6.27617C 607.967 6.06602 608.111 5.92813 608.303 5.92813z" stroke="#000000" stroke-width="0.4" fill="none" /><path id="1371" transform="matrix(1 0 0 -1 0 834)" d="M615.125 6L615.125 6.15586C 614.783 6.19219 614.735 6.21602 614.735 6.61797L614.735 6.61797L614.735 7.77617C 614.735 8.36406 614.441 8.69414 613.973 8.69414C 613.805 8.69414 613.649 8.621881 613.523 8.53789C 613.373 8.44805 613.199 8.33398 613.025 8.20195C 612.905 8.51406 612.647 8.69414 612.359 8.69414C 612.167 8.69414 612.023 8.628131 611.867 8.53203C 611.687 8.417971 611.555 8.310161 611.429 8.226171L611.429 8.226171L611.429 8.712111C 611.165 8.59219 610.859 8.51406 610.595 8.466021L610.595 8.466021L610.595 8.328131C 610.9431 8.273829 610.961 8.24414 610.961 7.86016L610.961 7.86016L610.961 6.61797C 610.961 6.22813 610.907 6.19219 610.511 6.15586L610.511 6.15586L610.511 6L610.511 6L611.777 6L611.777 6L611.777 6.15586C 611.483 6.19219 611.435 6.22813 611.435 6.61797L611.435 6.61797L611.435 8.028131C 611.615 8.17813 611.8491 8.33984 612.0891 8.33984C 612.455 8.33984 612.611 8.09414 612.611 7.65L612.611 7.65L612.611 6.61797C 612.611 6.22188 612.557 6.19219 612.185 6.15586L612.185 6.15586L612.185 6L612.185 6L613.469 6L613.469 6L613.469 6.15586C 613.139 6.19219 613.085 6.22813 613.085 6.60586L613.085 6.60586L613.085 7.77617C 613.085 7.88984 613.079 7.95586 613.067 8.028131C 613.295 8.21992 613.523 8.33984 613.739 8.33984C 614.117 8.33984 614.267 8.069921 614.267 7.64414L614.267 7.64414L614.267 6.64219C 614.267 6.21602 614.201 6.19219 613.847 6.15586L613.847 6.15586L613.847 6z" stroke="#000000" stroke-width="0.4" fill="none" /><path id="1372" transform="matrix(1 0 0 -1 0 834)" d="M615.947 5.92813C 616.139 5.92813 616.283 6.06602 616.283 6.27617C 616.283 6.46797 616.139 6.61797 615.947 6.61797C 615.755 6.61797 615.611 6.46797 615.611 6.27617C 615.611 6.06602 615.755 5.92813 615.947 5.92813z" stroke="#000000" stroke-width="0.4" fill="none" /></g></g></svg>