<svg xmlns="http://www.w3.org/2000/svg" xmlns:xlink="http://www.w3.org/1999/xlink" id="body_1" preserveAspectRatio="xMinYMin meet" viewBox="0 0 872 1112"><defs><clipPath id="1"><path id="" clip-rule="evenodd" transform="matrix(1 0 0 1 0 0)" d="M0 834L0 0L0 0L654 0L654 0L654 834L654 834L0 834z" /></clipPath><clipPath id="2"><path id="" clip-rule="evenodd" transform="matrix(1 0 0 1 0 0)" d="M21 813L633 813L633 813L633 21L633 21L21 21z" /></clipPath><clipPath id="3"><path id="" clip-rule="evenodd" transform="matrix(1 0 0 1 0 0)" d="M101.365 267.506L200.2283 267.506L200.2283 267.506L200.2283 139.28L200.2283 139.28L101.365 139.28z" /></clipPath><clipPath id="4"><path id="" clip-rule="evenodd" transform="matrix(1 0 0 1 0 0)" d="M101.365 267.506L200.2283 267.506L200.2283 267.506L200.2283 139.28L200.2283 139.28L101.365 139.28z" /></clipPath><clipPath id="5"><path id="" clip-rule="evenodd" transform="matrix(1 0 0 1 0 0)" d="M243.405 267.049L339.5499 267.049L339.5499 267.049L339.5499 135.696L339.5499 135.696L243.405 135.696z" /></clipPath><clipPath id="6"><path id="" clip-rule="evenodd" transform="matrix(1 0 0 1 0 0)" d="M243.405 267.049L339.5499 267.049L339.5499 267.049L339.5499 135.696L339.5499 135.696L243.405 135.696z" /></clipPath><clipPath id="7"><path id="" clip-rule="evenodd" transform="matrix(1 0 0 1 0 0)" d="M101.365 267.614L390.75 267.614L390.75 267.614L390.75 135.696L390.75 135.696L101.365 135.696z" /></clipPath><clipPath id="8"><path id="" clip-rule="evenodd" transform="matrix(1 0 0 1 0 0)" d="M186.583 236.6609C 186.583 253.291 198.299 266.772 212.751 266.772L212.751 266.772L212.751 266.772C 227.203 266.772 238.919 253.291 238.919 236.6609L238.919 236.6609L238.919 236.6609C 238.919 220.031 227.203 206.549 212.751 206.549L212.751 206.549L212.751 206.549C 198.299 206.549 186.583 220.031 186.583 236.6609" /></clipPath><clipPath id="9"><path id="" clip-rule="evenodd" transform="matrix(1 0 0 1 0 0)" d="M186.583 236.6609C 186.583 253.291 198.299 266.772 212.751 266.772L212.751 266.772L212.751 266.772C 227.203 266.772 238.919 253.291 238.919 236.6609L238.919 236.6609L238.919 236.6609C 238.919 220.031 227.203 206.549 212.751 206.549L212.751 206.549L212.751 206.549C 198.299 206.549 186.583 220.031 186.583 236.6609" /></clipPath><clipPath id="10"><path id="" clip-rule="evenodd" transform="matrix(1 0 0 1 0 0)" d="M101.365 267.614L390.75 267.614L390.75 267.614L390.75 135.696L390.75 135.696L101.365 135.696z" /></clipPath><clipPath id="11"><path id="" clip-rule="evenodd" transform="matrix(1 0 0 1 0 0)" d="M256.352 223.222L259.3 223.222L259.3 223.222L259.3 206.088L259.3 206.088L256.352 206.088z" /></clipPath><clipPath id="12"><path id="" clip-rule="evenodd" transform="matrix(1 0 0 1 0 0)" d="M256.352 223.222L259.3 223.222L259.3 223.222L259.3 206.088L259.3 206.088L256.352 206.088z" /></clipPath><clipPath id="13"><path id="" clip-rule="evenodd" transform="matrix(1 0 0 1 0 0)" d="M256.352 223.222L259.3 223.222L259.3 223.222L259.3 206.0872L259.3 206.0872L256.352 206.0872z" /></clipPath><clipPath id="14"><path id="" clip-rule="evenodd" transform="matrix(1 0 0 1 0 0)" d="M256.352 223.222L259.3 223.222L259.3 223.222L259.3 206.088L259.3 206.088L256.352 206.088z" /></clipPath><clipPath id="15"><path id="" clip-rule="evenodd" transform="matrix(1 0 0 1 0 0)" d="M101.365 267.614L390.75 267.614L390.75 267.614L390.75 135.696L390.75 135.696L101.365 135.696z" /></clipPath><clipPath id="16"><path id="" clip-rule="evenodd" transform="matrix(1 0 0 1 0 0)" d="M319.827 220.921L326.1469 220.921L326.1469 220.921L326.1469 186.1628L326.1469 186.1628L319.827 186.1628z" /></clipPath><clipPath id="17"><path id="" clip-rule="evenodd" transform="matrix(1 0 0 1 0 0)" d="M319.827 220.921L326.147 220.921L326.147 220.921L326.147 186.163L326.147 186.163L319.827 186.163z" /></clipPath><clipPath id="18"><path id="" clip-rule="evenodd" transform="matrix(1 0 0 1 0 0)" d="M319.827 220.921L326.1461 220.921L326.1461 220.921L326.1461 186.1628L326.1461 186.1628L319.827 186.1628z" /></clipPath><clipPath id="19"><path id="" clip-rule="evenodd" transform="matrix(1 0 0 1 0 0)" d="M319.827 220.921L326.1469 220.921L326.1469 220.921L326.1469 186.1628L326.1469 186.1628L319.827 186.1628z" /></clipPath><clipPath id="20"><path id="" clip-rule="evenodd" transform="matrix(1 0 0 1 0 0)" d="M101.365 267.614L390.75 267.614L390.75 267.614L390.75 135.696L390.75 135.696L101.365 135.696z" /></clipPath><clipPath id="21"><path id="" clip-rule="evenodd" transform="matrix(1 0 0 1 0 0)" d="M337.649 223.273L337.649 253.242C 342.699 260.967 351.539 266.088 361.6 266.088L361.6 266.088L361.6 266.088C 370.145 266.088 377.809 262.396 383.018 256.549L383.018 256.549L383.018 256.549L383.018 256.549L383.018 219.965C 377.809 214.12 370.145 210.426 361.6 210.426L361.6 210.426L361.6 210.426C 351.539 210.426 342.699 215.547 337.649 223.273" /></clipPath><clipPath id="22"><path id="" clip-rule="evenodd" transform="matrix(1 0 0 1 0 0)" d="M337.649 223.273L337.649 253.242C 342.699 260.967 351.539 266.088 361.6 266.088L361.6 266.088L361.6 266.088C 370.145 266.088 377.809 262.396 383.018 256.549L383.018 256.549L383.018 256.549L383.018 256.549L383.018 219.965C 377.809 214.12 370.145 210.426 361.6 210.426L361.6 210.426L361.6 210.426C 351.539 210.426 342.699 215.547 337.649 223.273" /></clipPath><clipPath id="23"><path id="" clip-rule="evenodd" transform="matrix(1 0 0 1 0 0)" d="M101.365 267.614L390.75 267.614L390.75 267.614L390.75 135.696L390.75 135.696L101.365 135.696z" /></clipPath><clipPath id="24"><path id="" clip-rule="evenodd" transform="matrix(1 0 0 1 0 0)" d="M173.47 492.5L314.495 492.5L314.495 492.5L314.495 351.377L314.495 351.377L173.47 351.377z" /></clipPath><clipPath id="25"><path id="" clip-rule="evenodd" transform="matrix(1 0 0 1 0 0)" d="M216.363 441.325L233.0142 441.325L233.0142 441.325L233.0142 365L233.0142 365L216.363 365z" /></clipPath><clipPath id="26"><path id="" clip-rule="evenodd" transform="matrix(1 0 0 1 0 0)" d="M216.363 441.325L233.014 441.325L233.014 441.325L233.014 365L233.014 365L216.363 365z" /></clipPath><clipPath id="27"><path id="" clip-rule="evenodd" transform="matrix(1 0 0 1 0 0)" d="M216.363 441.325L233.0142 441.325L233.0142 441.325L233.0142 365.0012L233.0142 365.0012L216.363 365.0012z" /></clipPath><clipPath id="28"><path id="" clip-rule="evenodd" transform="matrix(1 0 0 1 0 0)" d="M173.47 492.5L314.495 492.5L314.495 492.5L314.495 351.377L314.495 351.377L173.47 351.377z" /></clipPath><clipPath id="29"><path id="" clip-rule="evenodd" transform="matrix(1 0 0 1 0 0)" d="M269.275 437.018C 265.194 439.452 261.751 442.843 259.255 446.882L259.255 446.882L259.255 446.882L259.255 446.882L259.255 477.84C 264.45 486.246 273.749 491.847 284.357 491.847L284.357 491.847L284.357 491.847C 300.641 491.847 313.843 478.646 313.843 462.361L313.843 462.361L313.843 462.361C 313.843 451.587 308.065 442.163 299.438 437.018L299.438 437.018L299.438 437.018z" /></clipPath><clipPath id="30"><path id="" clip-rule="evenodd" transform="matrix(1 0 0 1 0 0)" d="M269.275 437.018C 265.194 439.452 261.751 442.843 259.255 446.882L259.255 446.882L259.255 446.882L259.255 446.882L259.255 477.84C 264.45 486.246 273.749 491.847 284.357 491.847L284.357 491.847L284.357 491.847C 300.641 491.847 313.843 478.646 313.843 462.361L313.843 462.361L313.843 462.361C 313.843 451.587 308.065 442.163 299.438 437.018L299.438 437.018L299.438 437.018z" /></clipPath><clipPath id="31"><path id="" clip-rule="evenodd" transform="matrix(1 0 0 1 0 0)" d="M173.47 492.5L314.495 492.5L314.495 492.5L314.495 351.377L314.495 351.377L173.47 351.377z" /></clipPath><clipPath id="32"><path id="" clip-rule="evenodd" transform="matrix(1 0 0 1 0 0)" d="M109.771 708.464L217.275 708.464L217.275 708.464L217.275 574.634L217.275 574.634L109.771 574.634z" /></clipPath><clipPath id="33"><path id="" clip-rule="evenodd" transform="matrix(1 0 0 1 0 0)" d="M109.771 708.464L217.275 708.464L217.275 708.464L217.275 574.634L217.275 574.634L109.771 574.634z" /></clipPath><clipPath id="34"><path id="" clip-rule="evenodd" transform="matrix(1 0 0 1 0 0)" d="M247.404 708.809L362.659 708.809L362.659 708.809L362.659 571.988L362.659 571.988L247.404 571.988z" /></clipPath><clipPath id="35"><path id="" clip-rule="evenodd" transform="matrix(1 0 0 1 0 0)" d="M247.404 708.809L362.659 708.809L362.659 708.809L362.659 571.988L362.659 571.988L247.404 571.988z" /></clipPath><clipPath id="36"><path id="" clip-rule="evenodd" transform="matrix(1 0 0 1 0 0)" d="M158.656 686.354L178.5771 686.354L178.5771 686.354L178.5771 619.952L178.5771 619.952L158.656 619.952z" /></clipPath><clipPath id="37"><path id="" clip-rule="evenodd" transform="matrix(1 0 0 1 0 0)" d="M158.656 686.354L178.577 686.354L178.577 686.354L178.577 619.952L178.577 619.952L158.656 619.952z" /></clipPath><clipPath id="38"><path id="" clip-rule="evenodd" transform="matrix(1 0 0 1 0 0)" d="M158.656 686.354L178.5783 686.354L178.5783 686.354L178.5783 619.952L178.5783 619.952L158.656 619.952z" /></clipPath><clipPath id="39"><path id="" clip-rule="evenodd" transform="matrix(1 0 0 1 0 0)" d="M109.771 709.281L362.659 709.281L362.659 709.281L362.659 571.989L362.659 571.989L109.771 571.989z" /></clipPath><clipPath id="40"><path id="" clip-rule="evenodd" transform="matrix(1 0 0 1 0 0)" d="M130.979 686.72L160.486 686.72L160.486 686.72L160.486 620.104L160.486 620.104L130.979 620.104z" /></clipPath><clipPath id="41"><path id="" clip-rule="evenodd" transform="matrix(1 0 0 1 0 0)" d="M130.979 686.72L160.486 686.72L160.486 686.72L160.486 620.104L160.486 620.104L130.979 620.104z" /></clipPath><clipPath id="42"><path id="" clip-rule="evenodd" transform="matrix(1 0 0 1 0 0)" d="M130.979 686.72L160.486 686.72L160.486 686.72L160.486 620.104L160.486 620.104L130.979 620.104z" /></clipPath><clipPath id="43"><path id="" clip-rule="evenodd" transform="matrix(1 0 0 1 0 0)" d="M109.771 709.281L362.659 709.281L362.659 709.281L362.659 571.989L362.659 571.989L109.771 571.989z" /></clipPath><clipPath id="44"><path id="" clip-rule="evenodd" transform="matrix(1 0 0 1 0 0)" d="M109.771 709.281L362.659 709.281L362.659 709.281L362.659 571.989L362.659 571.989L109.771 571.989z" /></clipPath><clipPath id="45"><path id="" clip-rule="evenodd" transform="matrix(1 0 0 1 0 0)" d="M195.506 683.257C 195.506 697.2 206.001 708.502 218.947 708.502L218.947 708.502L218.947 708.502C 231.892 708.502 242.387 697.2 242.387 683.257L242.387 683.257L242.387 683.257C 242.387 669.315 231.892 658.013 218.947 658.013L218.947 658.013L218.947 658.013C 206.001 658.013 195.506 669.315 195.506 683.257" /></clipPath><clipPath id="46"><path id="" clip-rule="evenodd" transform="matrix(1 0 0 1 0 0)" d="M195.506 683.257C 195.506 697.2 206.001 708.502 218.947 708.502L218.947 708.502L218.947 708.502C 231.892 708.502 242.387 697.2 242.387 683.257L242.387 683.257L242.387 683.257C 242.387 669.315 231.892 658.013 218.947 658.013L218.947 658.013L218.947 658.013C 206.001 658.013 195.506 669.315 195.506 683.257" /></clipPath><clipPath id="47"><path id="" clip-rule="evenodd" transform="matrix(1 0 0 1 0 0)" d="M109.771 709.281L362.659 709.281L362.659 709.281L362.659 571.989L362.659 571.989L109.771 571.989z" /></clipPath><clipPath id="48"><path id="" clip-rule="evenodd" transform="matrix(1 0 0 1 0 0)" d="M252.355 592.968L254.6421 592.968L254.6421 592.968L254.6421 589.875L254.6421 589.875L252.355 589.875z" /></clipPath><clipPath id="49"><path id="" clip-rule="evenodd" transform="matrix(1 0 0 1 0 0)" d="M252.355 592.968L254.642 592.968L254.642 592.968L254.642 589.875L254.642 589.875L252.355 589.875z" /></clipPath><clipPath id="50"><path id="" clip-rule="evenodd" transform="matrix(1 0 0 1 0 0)" d="M252.355 592.968L254.6421 592.968L254.6421 592.968L254.6421 589.875L254.6421 589.875L252.355 589.875z" /></clipPath><clipPath id="51"><path id="" clip-rule="evenodd" transform="matrix(1 0 0 1 0 0)" d="M251.507 593.617L253.793 593.617L253.793 593.617L253.793 590.5233L253.793 590.5233L251.507 590.5233z" /></clipPath><clipPath id="52"><path id="" clip-rule="evenodd" transform="matrix(1 0 0 1 0 0)" d="M251.507 593.617L253.793 593.617L253.793 593.617L253.793 590.523L253.793 590.523L251.507 590.523z" /></clipPath><clipPath id="53"><path id="" clip-rule="evenodd" transform="matrix(1 0 0 1 0 0)" d="M251.507 593.617L253.793 593.617L253.793 593.617L253.793 590.5233L253.793 590.5233L251.507 590.5233z" /></clipPath><clipPath id="54"><path id="" clip-rule="evenodd" transform="matrix(1 0 0 1 0 0)" d="M271.877 590.471L273.5891 590.471L273.5891 590.471L273.5891 587.0358L273.5891 587.0358L271.877 587.0358z" /></clipPath><clipPath id="55"><path id="" clip-rule="evenodd" transform="matrix(1 0 0 1 0 0)" d="M271.877 590.471L273.589 590.471L273.589 590.471L273.589 587.036L273.589 587.036L271.877 587.036z" /></clipPath><clipPath id="56"><path id="" clip-rule="evenodd" transform="matrix(1 0 0 1 0 0)" d="M271.877 590.471L273.5891 590.471L273.5891 590.471L273.5891 587.0358L273.5891 587.0358L271.877 587.0358z" /></clipPath><clipPath id="57"><path id="" clip-rule="evenodd" transform="matrix(1 0 0 1 0 0)" d="M272.825 590.936L274.5379 590.936L274.5379 590.936L274.5379 587.502L274.5379 587.502L272.825 587.502z" /></clipPath><clipPath id="58"><path id="" clip-rule="evenodd" transform="matrix(1 0 0 1 0 0)" d="M272.825 590.936L274.538 590.936L274.538 590.936L274.538 587.502L274.538 587.502L272.825 587.502z" /></clipPath><clipPath id="59"><path id="" clip-rule="evenodd" transform="matrix(1 0 0 1 0 0)" d="M272.825 590.936L274.5379 590.936L274.5379 590.936L274.5379 587.502L274.5379 587.502L272.825 587.502z" /></clipPath><clipPath id="60"><path id="" clip-rule="evenodd" transform="matrix(1 0 0 1 0 0)" d="M265.609 581.563L267.7821 581.563L267.7821 581.563L267.7821 578.3712L267.7821 578.3712L265.609 578.3712z" /></clipPath><clipPath id="61"><path id="" clip-rule="evenodd" transform="matrix(1 0 0 1 0 0)" d="M265.609 581.563L267.782 581.563L267.782 581.563L267.782 578.371L267.782 578.371L265.609 578.371z" /></clipPath><clipPath id="62"><path id="" clip-rule="evenodd" transform="matrix(1 0 0 1 0 0)" d="M265.609 581.563L267.7821 581.563L267.7821 581.563L267.7821 578.3712L267.7821 578.3712L265.609 578.3712z" /></clipPath><clipPath id="63"><path id="" clip-rule="evenodd" transform="matrix(1 0 0 1 0 0)" d="M266.485 580.957L268.6581 580.957L268.6581 580.957L268.6581 577.766L268.6581 577.766L266.485 577.766z" /></clipPath><clipPath id="64"><path id="" clip-rule="evenodd" transform="matrix(1 0 0 1 0 0)" d="M266.485 580.957L268.658 580.957L268.658 580.957L268.658 577.766L268.658 577.766L266.485 577.766z" /></clipPath><clipPath id="65"><path id="" clip-rule="evenodd" transform="matrix(1 0 0 1 0 0)" d="M266.485 580.957L268.6581 580.957L268.6581 580.957L268.6581 577.766L268.6581 577.766L266.485 577.766z" /></clipPath><clipPath id="66"><path id="" clip-rule="evenodd" transform="matrix(1 0 0 1 0 0)" d="M254.748 585.707L255.632 585.707L255.632 585.707L255.632 581.939L255.632 581.939L254.748 581.939z" /></clipPath><clipPath id="67"><path id="" clip-rule="evenodd" transform="matrix(1 0 0 1 0 0)" d="M254.748 585.707L255.632 585.707L255.632 585.707L255.632 581.939L255.632 581.939L254.748 581.939z" /></clipPath><clipPath id="68"><path id="" clip-rule="evenodd" transform="matrix(1 0 0 1 0 0)" d="M254.748 585.707L255.632 585.707L255.632 585.707L255.632 581.939L255.632 581.939L254.748 581.939z" /></clipPath><clipPath id="69"><path id="" clip-rule="evenodd" transform="matrix(1 0 0 1 0 0)" d="M253.704 585.718L254.5872 585.718L254.5872 585.718L254.5872 581.95L254.5872 581.95L253.704 581.95z" /></clipPath><clipPath id="70"><path id="" clip-rule="evenodd" transform="matrix(1 0 0 1 0 0)" d="M253.704 585.718L254.587 585.718L254.587 585.718L254.587 581.95L254.587 581.95L253.704 581.95z" /></clipPath><clipPath id="71"><path id="" clip-rule="evenodd" transform="matrix(1 0 0 1 0 0)" d="M253.704 585.718L254.5872 585.718L254.5872 585.718L254.5872 581.95L254.5872 581.95L253.704 581.95z" /></clipPath><clipPath id="72"><path id="" clip-rule="evenodd" transform="matrix(1 0 0 1 0 0)" d="M330.638 588.08L332.9251 588.08L332.9251 588.08L332.9251 584.9871L332.9251 584.9871L330.638 584.9871z" /></clipPath><clipPath id="73"><path id="" clip-rule="evenodd" transform="matrix(1 0 0 1 0 0)" d="M330.638 588.08L332.925 588.08L332.925 588.08L332.925 584.987L332.925 584.987L330.638 584.987z" /></clipPath><clipPath id="74"><path id="" clip-rule="evenodd" transform="matrix(1 0 0 1 0 0)" d="M330.638 588.08L332.9251 588.08L332.9251 588.08L332.9251 584.9871L332.9251 584.9871L330.638 584.9871z" /></clipPath><clipPath id="75"><path id="" clip-rule="evenodd" transform="matrix(1 0 0 1 0 0)" d="M329.789 588.729L332.0761 588.729L332.0761 588.729L332.0761 585.636L332.0761 585.636L329.789 585.636z" /></clipPath><clipPath id="76"><path id="" clip-rule="evenodd" transform="matrix(1 0 0 1 0 0)" d="M329.789 588.729L332.076 588.729L332.076 588.729L332.076 585.636L332.076 585.636L329.789 585.636z" /></clipPath><clipPath id="77"><path id="" clip-rule="evenodd" transform="matrix(1 0 0 1 0 0)" d="M329.789 588.729L332.0761 588.729L332.0761 588.729L332.0761 585.636L332.0761 585.636L329.789 585.636z" /></clipPath><clipPath id="78"><path id="" clip-rule="evenodd" transform="matrix(1 0 0 1 0 0)" d="M345.891 592.542L348.382 592.542L348.382 592.542L348.382 589.6302L348.382 589.6302L345.891 589.6302z" /></clipPath><clipPath id="79"><path id="" clip-rule="evenodd" transform="matrix(1 0 0 1 0 0)" d="M345.891 592.542L348.382 592.542L348.382 592.542L348.382 589.63L348.382 589.63L345.891 589.63z" /></clipPath><clipPath id="80"><path id="" clip-rule="evenodd" transform="matrix(1 0 0 1 0 0)" d="M345.891 592.542L348.382 592.542L348.382 592.542L348.382 589.6302L348.382 589.6302L345.891 589.6302z" /></clipPath><clipPath id="81"><path id="" clip-rule="evenodd" transform="matrix(1 0 0 1 0 0)" d="M346.654 593.303L349.1462 593.303L349.1462 593.303L349.1462 590.3909L349.1462 590.3909L346.654 590.3909z" /></clipPath><clipPath id="82"><path id="" clip-rule="evenodd" transform="matrix(1 0 0 1 0 0)" d="M346.654 593.303L349.146 593.303L349.146 593.303L349.146 590.391L349.146 590.391L346.654 590.391z" /></clipPath><clipPath id="83"><path id="" clip-rule="evenodd" transform="matrix(1 0 0 1 0 0)" d="M346.654 593.303L349.1462 593.303L349.1462 593.303L349.1462 590.3909L349.1462 590.3909L346.654 590.3909z" /></clipPath><clipPath id="84"><path id="" clip-rule="evenodd" transform="matrix(1 0 0 1 0 0)" d="M343.891 580.568L346.0641 580.568L346.0641 580.568L346.0641 577.377L346.0641 577.377L343.891 577.377z" /></clipPath><clipPath id="85"><path id="" clip-rule="evenodd" transform="matrix(1 0 0 1 0 0)" d="M343.891 580.568L346.064 580.568L346.064 580.568L346.064 577.377L346.064 577.377L343.891 577.377z" /></clipPath><clipPath id="86"><path id="" clip-rule="evenodd" transform="matrix(1 0 0 1 0 0)" d="M343.891 580.568L346.0641 580.568L346.0641 580.568L346.0641 577.377L346.0641 577.377L343.891 577.377z" /></clipPath><clipPath id="87"><path id="" clip-rule="evenodd" transform="matrix(1 0 0 1 0 0)" d="M344.767 579.962L346.9408 579.962L346.9408 579.962L346.9408 576.771L346.9408 576.771L344.767 576.771z" /></clipPath><clipPath id="88"><path id="" clip-rule="evenodd" transform="matrix(1 0 0 1 0 0)" d="M344.767 579.962L346.941 579.962L346.941 579.962L346.941 576.771L346.941 576.771L344.767 576.771z" /></clipPath><clipPath id="89"><path id="" clip-rule="evenodd" transform="matrix(1 0 0 1 0 0)" d="M344.767 579.962L346.9408 579.962L346.9408 579.962L346.9408 576.771L346.9408 576.771L344.767 576.771z" /></clipPath><clipPath id="90"><path id="" clip-rule="evenodd" transform="matrix(1 0 0 1 0 0)" d="M337.058 578.522L338.5877 578.522L338.5877 578.522L338.5877 575.02L338.5877 575.02L337.058 575.02z" /></clipPath><clipPath id="91"><path id="" clip-rule="evenodd" transform="matrix(1 0 0 1 0 0)" d="M337.058 578.522L338.588 578.522L338.588 578.522L338.588 575.02L338.588 575.02L337.058 575.02z" /></clipPath><clipPath id="92"><path id="" clip-rule="evenodd" transform="matrix(1 0 0 1 0 0)" d="M337.058 578.522L338.5877 578.522L338.5877 578.522L338.5877 575.02L338.5877 575.02L337.058 575.02z" /></clipPath><clipPath id="93"><path id="" clip-rule="evenodd" transform="matrix(1 0 0 1 0 0)" d="M336.083 578.124L337.6127 578.124L337.6127 578.124L337.6127 574.6221L337.6127 574.6221L336.083 574.6221z" /></clipPath><clipPath id="94"><path id="" clip-rule="evenodd" transform="matrix(1 0 0 1 0 0)" d="M336.083 578.124L337.613 578.124L337.613 578.124L337.613 574.6219L337.613 574.6219L336.083 574.6219z" /></clipPath><clipPath id="95"><path id="" clip-rule="evenodd" transform="matrix(1 0 0 1 0 0)" d="M336.083 578.124L337.6127 578.124L337.6127 578.124L337.6127 574.6221L337.6127 574.6221L336.083 574.6221z" /></clipPath><clipPath id="96"><path id="" clip-rule="evenodd" transform="matrix(1 0 0 1 0 0)" d="M359.38 389.094L387.1589 389.094L387.1589 389.094L387.1589 334.11L387.1589 334.11L359.38 334.11z" /></clipPath><clipPath id="97"><path id="" clip-rule="evenodd" transform="matrix(1 0 0 1 0 0)" d="M359.38 389.094L387.1589 389.094L387.1589 389.094L387.1589 334.11L387.1589 334.11L359.38 334.11z" /></clipPath><clipPath id="98"><path id="" clip-rule="evenodd" transform="matrix(1 0 0 1 0 0)" d="M361.081 606.585L387.1591 606.585L387.1591 606.585L387.1591 554.078L387.1591 554.078L361.081 554.078z" /></clipPath><clipPath id="99"><path id="" clip-rule="evenodd" transform="matrix(1 0 0 1 0 0)" d="M361.081 606.585L387.1591 606.585L387.1591 606.585L387.1591 554.078L387.1591 554.078L361.081 554.078z" /></clipPath><clipPath id="100"><path id="" clip-rule="evenodd" transform="matrix(1 0 0 1 0 0)" d="M97.175 175.063L122.7719 175.063L122.7719 175.063L122.7719 139.204L122.7719 139.204L97.175 139.204z" /></clipPath><clipPath id="101"><path id="" clip-rule="evenodd" transform="matrix(1 0 0 1 0 0)" d="M97.175 175.063L122.7719 175.063L122.7719 175.063L122.7719 139.204L122.7719 139.204L97.175 139.204z" /></clipPath><clipPath id="102"><path id="" clip-rule="evenodd" transform="matrix(1 0 0 1 0 0)" d="M158.035 415.228L183.6307 415.228L183.6307 415.228L183.6307 379.3698L183.6307 379.3698L158.035 379.3698z" /></clipPath><clipPath id="103"><path id="" clip-rule="evenodd" transform="matrix(1 0 0 1 0 0)" d="M158.035 415.228L183.6307 415.228L183.6307 415.228L183.6307 379.3698L183.6307 379.3698L158.035 379.3698z" /></clipPath><clipPath id="104"><path id="" clip-rule="evenodd" transform="matrix(1 0 0 1 0 0)" d="M197.994 175.063L225.3768 175.063L225.3768 175.063L225.3768 139.204L225.3768 139.204L197.994 139.204z" /></clipPath><clipPath id="105"><path id="" clip-rule="evenodd" transform="matrix(1 0 0 1 0 0)" d="M197.994 175.063L225.3768 175.063L225.3768 175.063L225.3768 139.204L225.3768 139.204L197.994 139.204z" /></clipPath><clipPath id="106"><path id="" clip-rule="evenodd" transform="matrix(1 0 0 1 0 0)" d="M239.616 175.063L265.2129 175.063L265.2129 175.063L265.2129 139.204L265.2129 139.204L239.616 139.204z" /></clipPath><clipPath id="107"><path id="" clip-rule="evenodd" transform="matrix(1 0 0 1 0 0)" d="M239.616 175.063L265.2129 175.063L265.2129 175.063L265.2129 139.204L265.2129 139.204L239.616 139.204z" /></clipPath><clipPath id="108"><path id="" clip-rule="evenodd" transform="matrix(1 0 0 1 0 0)" d="M312.5 175.063L338.0969 175.063L338.0969 175.063L338.0969 139.204L338.0969 139.204L312.5 139.204z" /></clipPath><clipPath id="109"><path id="" clip-rule="evenodd" transform="matrix(1 0 0 1 0 0)" d="M312.5 175.063L338.0969 175.063L338.0969 175.063L338.0969 139.204L338.0969 139.204L312.5 139.204z" /></clipPath><clipPath id="110"><path id="" clip-rule="evenodd" transform="matrix(1 0 0 1 0 0)" d="M197.522 616.559L221.1622 616.559L221.1622 616.559L221.1622 586.7949L221.1622 586.7949L197.522 586.7949z" /></clipPath><clipPath id="111"><path id="" clip-rule="evenodd" transform="matrix(1 0 0 1 0 0)" d="M197.522 616.559L221.1622 616.559L221.1622 616.559L221.1622 586.7949L221.1622 586.7949L197.522 586.7949z" /></clipPath><clipPath id="112"><path id="" clip-rule="evenodd" transform="matrix(1 0 0 1 0 0)" d="M97.1469 616.559L120.7879 616.559L120.7879 616.559L120.7879 586.7949L120.7879 586.7949L97.1469 586.7949z" /></clipPath><clipPath id="113"><path id="" clip-rule="evenodd" transform="matrix(1 0 0 1 0 0)" d="M97.1469 616.559L120.7879 616.559L120.7879 616.559L120.7879 586.7949L120.7879 586.7949L97.1469 586.7949z" /></clipPath><clipPath id="114"><path id="" clip-rule="evenodd" transform="matrix(1 0 0 1 0 0)" d="M339.998 684.307L365.5949 684.307L365.5949 684.307L365.5949 656.109L365.5949 656.109L339.998 656.109z" /></clipPath><clipPath id="115"><path id="" clip-rule="evenodd" transform="matrix(1 0 0 1 0 0)" d="M339.998 684.307L365.5949 684.307L365.5949 684.307L365.5949 656.109L365.5949 656.109L339.998 656.109z" /></clipPath><clipPath id="116"><path id="" clip-rule="evenodd" transform="matrix(1 0 0 1 0 0)" d="M243.519 684.307L269.1159 684.307L269.1159 684.307L269.1159 656.109L269.1159 656.109L243.519 656.109z" /></clipPath><clipPath id="117"><path id="" clip-rule="evenodd" transform="matrix(1 0 0 1 0 0)" d="M243.519 684.307L269.1159 684.307L269.1159 684.307L269.1159 656.109L269.1159 656.109L243.519 656.109z" /></clipPath></defs><g transform="matrix(1.333333 0 0 1.333333 0 0)"><g clip-path="url(#1)"><g clip-path="url(#2)"><path id="1" transform="matrix(1 0 0 -1 0 834)" d="M91.866 67.4211L562.134 67.4211L562.134 74.92501L91.866 74.92501z" stroke="none" fill="#686868" fill-rule="nonzero" /><path id="2" transform="matrix(1 0 0 -1 0 834)" d="M91.866 526.984L562.134 526.984" stroke="#686868" stroke-width="1" fill="none" /><path id="3" transform="matrix(1 0 0 -1 0 834)" d="M91.866 307.016L562.134 307.016" stroke="#686868" stroke-width="1" fill="none" /></g><g clip-path="url(#3)"></g><g clip-path="url(#4)"><g transform="matrix(0.9986182 0 0 1.001766 101.365 139.28)"><g transform="matrix(1 0 0 1 0 0)"><image x="0" y="0" xlink:href="img_01.png" width="99" height="128" /></g></g></g><g clip-path="url(#5)"></g><g clip-path="url(#6)"><g transform="matrix(1.001514 0 0 1.002695 243.405 135.697)"><g transform="matrix(1 0 0 1 0 0)"><image x="0" y="0" xlink:href="img_02.png" width="96" height="131" /></g></g></g><g clip-path="url(#7)"><path id="9" transform="matrix(1 0 0 -1 0 834)" d="M148.045 626.114L151.045 625.222C 151.045 625.222 152.096 641.232 142.841 638.729C 142.841 638.729 148.764 636.332 148.045 626.114" stroke="none" fill="#D9D9D9" fill-rule="nonzero" /><path id="10" transform="matrix(1 0 0 -1 0 834)" d="M147.759 625.753L150.797 625.208C 150.797 625.208 152.713 639.175 143.117 638.628C 143.117 638.628 149.359 634.806 147.759 625.753" stroke="none" fill="#D9D9D9" fill-rule="nonzero" /><path id="11" transform="matrix(1 0 0 -1 0 834)" d="M139.559 634.171L136.758 634.011C 136.758 634.011 138.17 640.287 145.282 638.963C 145.282 638.963 139.63 638.715 139.559 634.171" stroke="none" fill="#FFFFFF" fill-rule="nonzero" /><path id="12" transform="matrix(1 0 0 -1 0 834)" d="M137.373 635.086L135.833 636.262L137.391 631.423L140.353 634.4L138.612 634.5681" stroke="none" fill="#FFFFFF" fill-rule="nonzero" /><path id="13" transform="matrix(1 0 0 -1 0 834)" d="M134.869 626.078L137.932 626.093C 137.932 626.093 137.334 618.807 142.9 616.178C 142.9 616.178 135.586 613.792 134.869 626.078" stroke="none" fill="#FFFFFF" fill-rule="nonzero" /><path id="14" transform="matrix(1 0 0 -1 0 834)" d="M146.157 620.105L147.929 618.704C 147.929 618.704 146.083 614.132 140.492 616.08C 140.492 616.08 145.473 617.114 146.157 620.105" stroke="none" fill="#D9D9D9" fill-rule="nonzero" /><path id="15" transform="matrix(1 0 0 -1 0 834)" d="M147.547 618.654L149.009 617.32L147.761 622.3391L144.615 619.634L146.343 619.295" stroke="none" fill="#D9D9D9" fill-rule="nonzero" /><path id="16" transform="matrix(1 0 0 -1 0 834)" d="M186.584 597.3391C 186.584 580.709 198.3 567.228 212.752 567.228C 227.204 567.228 238.921 580.709 238.921 597.3391C 238.921 613.97 227.204 627.452 212.752 627.452C 198.3 627.452 186.584 613.97 186.584 597.3391" stroke="none" fill="#FFFFFF" fill-rule="nonzero" /></g><g clip-path="url(#8)"></g><g clip-path="url(#9)"><g transform="matrix(1.008525 0 0 1.005693 185.922 205.8939)"><g transform="matrix(1 0 0 1 0 0)"><image x="0" y="0" xlink:href="img_03.png" width="53" height="68" /></g></g></g><g clip-path="url(#10)"><path id="18" transform="matrix(1 0 0 -1 0 834)" d="M186.5832 597.342C 186.5832 580.7099 198.2994 567.2302 212.7515 567.2302C 227.2045 567.2302 238.9207 580.7099 238.9207 597.342C 238.9207 613.9709 227.2045 627.4537 212.7515 627.4537C 198.2994 627.4537 186.5832 613.9709 186.5832 597.342z" stroke="#000000" stroke-width="0.8126649" fill="none" /><path id="19" transform="matrix(1 0 0 -1 0 834)" d="M257.4663 627.8818C 258.0577 635.8987 260.7071 646.2463 268.7501 656.2451" stroke="#000000" stroke-width="0.8126649" fill="none" /></g><path id="20" transform="matrix(1 0 0 -1 0 834)" d="M268.413 655.815L266.884 656.482L270.438 658.248L269.057 654.086z" stroke="none" fill="#000000" fill-rule="nonzero" /><g clip-path="url(#11)"><g><g clip-path="url(#12)"><g clip-path="url(#13)"><path id="21" transform="matrix(1 0 0 -1 0 834)" d="M258.0391 613.5075C 257.5918 616.4417 257.0701 621.5459 257.4663 627.8807" stroke="#FFFFFF" stroke-width="0.8126649" fill="none" stroke-opacity="0.8" /></g><g clip-path="url(#14)"><path id="22" transform="matrix(1 0 0 -1 0 834)" d="M258.544 610.778L256.352 614.45L257.955 614.078L259.3 615.146z" stroke="none" fill="#FFFFFF" fill-rule="nonzero" fill-opacity="0.8" /></g></g></g></g><g clip-path="url(#15)"><path id="23" transform="matrix(1 0 0 -1 0 834)" d="M320.1846 647.6149C 318.6669 650.7984 316.675 653.6876 314.0758 655.9926" stroke="#000000" stroke-width="0.8126649" fill="none" /></g><path id="24" transform="matrix(1 0 0 -1 0 834)" d="M312.071 657.564L315.856 656.631L314.47 655.634L314.131 653.793z" stroke="none" fill="#000000" fill-rule="nonzero" /><g clip-path="url(#16)"><g><g clip-path="url(#17)"><g clip-path="url(#18)"><path id="25" transform="matrix(1 0 0 -1 0 834)" d="M324.5375 615.8542C 325.009 621.8829 325.4656 636.5322 320.1836 647.6139" stroke="#FFFFFF" stroke-width="0.8126649" fill="none" stroke-opacity="0.8" /></g><g clip-path="url(#19)"><path id="26" transform="matrix(1 0 0 -1 0 834)" d="M324.262 613.08L323.155 617.3491L324.581 616.429L326.146 616.971z" stroke="none" fill="#FFFFFF" fill-rule="nonzero" fill-opacity="0.8" /></g></g></g></g><g clip-path="url(#20)"><path id="27" transform="matrix(1 0 0 -1 0 834)" d="M333.184 595.743C 333.184 580.372 345.907 567.912 361.602 567.912C 377.297 567.912 390.02 580.372 390.02 595.743C 390.02 611.114 377.297 623.574 361.602 623.574C 345.907 623.574 333.184 611.114 333.184 595.743" stroke="none" fill="#FFFFFF" fill-rule="nonzero" /></g><g clip-path="url(#21)"></g><g clip-path="url(#22)"><g transform="matrix(1.008213 0 0 1.003226 337.649 209.1702)"><g transform="matrix(1 0 0 1 0 0)"><image x="0" y="0" xlink:href="img_04.png" width="45" height="65" /></g></g></g><g clip-path="url(#23)"><path id="29" transform="matrix(1 0 0 -1 0 834)" d="M333.1831 595.7455C 333.1831 580.3728 345.9064 567.9139 361.6009 567.9139C 377.2963 567.9139 390.0196 580.3728 390.0196 595.7455C 390.0196 611.116 377.2963 623.5748 361.6009 623.5748C 345.9064 623.5748 333.1831 611.116 333.1831 595.7455z" stroke="#000000" stroke-width="0.8126649" fill="none" /><path id="30" transform="matrix(1 0 0 -1 0 834)" d="M191.513 675.285C 189.141 675.285 187.218 673.072 187.218 670.343C 187.218 667.613 189.141 665.4 191.513 665.4C 193.886 665.4 195.809 667.613 195.809 670.343C 195.809 673.072 193.886 675.285 191.513 675.285M191.513 666.001C 189.443 666.001 187.764 667.932 187.764 670.315C 187.764 672.698 189.443 674.63 191.513 674.63C 193.584 674.63 195.263 672.698 195.263 670.315C 195.263 667.932 193.584 666.001 191.513 666.001" stroke="none" fill="#000000" fill-rule="nonzero" /><path id="32" transform="matrix(1 0 0 -1 0 834)" d="M338.651 675.057C 336.279 675.057 334.356 672.844 334.356 670.114C 334.356 667.385 336.279 665.1721 338.651 665.1721C 341.023 665.1721 342.946 667.385 342.946 670.114C 342.946 672.844 341.023 675.057 338.651 675.057M338.651 665.773C 336.58 665.773 334.902 667.704 334.902 670.087C 334.902 672.47 336.58 674.402 338.651 674.402C 340.722 674.402 342.401 672.47 342.401 670.087C 342.401 667.704 340.722 665.773 338.651 665.773" stroke="none" fill="#000000" fill-rule="nonzero" /><path id="34" transform="matrix(1 0 0 -1 0 834)" d="M132.119 642.2L135.12 641.308C 135.12 641.308 136.17 657.3181 126.916 654.815C 126.916 654.815 132.839 652.418 132.119 642.2" stroke="none" fill="#D9D9D9" fill-rule="nonzero" /><path id="35" transform="matrix(1 0 0 -1 0 834)" d="M131.834 641.8391L134.872 641.294C 134.872 641.294 136.787 655.261 127.191 654.7141C 127.191 654.7141 133.433 650.893 131.834 641.8391" stroke="none" fill="#D9D9D9" fill-rule="nonzero" /><path id="36" transform="matrix(1 0 0 -1 0 834)" d="M123.633 650.257L120.832 650.097C 120.832 650.097 122.244 656.373 129.357 655.049C 129.357 655.049 123.704 654.801 123.633 650.257" stroke="none" fill="#000000" fill-rule="nonzero" /><path id="37" transform="matrix(1 0 0 -1 0 834)" d="M121.447 651.17L119.908 652.346L121.465 647.507L124.428 650.484L122.686 650.652" stroke="none" fill="#000000" fill-rule="nonzero" /><path id="38" transform="matrix(1 0 0 -1 0 834)" d="M118.943 642.164L122.007 642.179C 122.007 642.179 121.409 634.893 126.975 632.264C 126.975 632.264 119.661 629.878 118.943 642.164" stroke="none" fill="#FFFFFF" fill-rule="nonzero" /><path id="39" transform="matrix(1 0 0 -1 0 834)" d="M130.232 636.191L132.004 634.791C 132.004 634.791 130.158 630.218 124.567 632.166C 124.567 632.166 129.548 633.2 130.232 636.191" stroke="none" fill="#D9D9D9" fill-rule="nonzero" /><path id="40" transform="matrix(1 0 0 -1 0 834)" d="M131.621 634.739L133.084 633.405L131.836 638.425L128.69 635.72L130.417 635.38" stroke="none" fill="#D9D9D9" fill-rule="nonzero" /></g><g transform="matrix(1.004252 0 0 1.000593 173.47 351.377)"><g transform="matrix(1 0 0 1 0 0)"><image x="0" y="0" xlink:href="img_05.png" width="107" height="140" /></g></g><g clip-path="url(#24)"><path id="42" transform="matrix(1 0 0 -1 0 834)" d="M216.797 468.418C 213.908 470.574 210.518 472.28 206.552 473.411" stroke="#000000" stroke-width="1.45" fill="none" /></g><path id="43" transform="matrix(1 0 0 -1 0 834)" d="M209.139 475.508L207.412 473.157L207.906 470.282L202.328 474.357z" stroke="none" fill="#000000" fill-rule="nonzero" /><g clip-path="url(#25)"><g><g clip-path="url(#26)"><g clip-path="url(#27)"><path id="44" transform="matrix(1 0 0 -1 0 834)" d="M228.14 392.859C 228.14 392.859 242.879 448.954 216.797 468.418" stroke="#FFFFFF" stroke-width="1.45" fill="none" stroke-opacity="0.8" /></g></g></g></g><g clip-path="url(#28)"><path id="45" transform="matrix(1 0 0 -1 0 834)" d="M254.871 371.639C 254.871 355.354 268.072 342.153 284.357 342.153C 300.642 342.153 313.843 355.354 313.843 371.639C 313.843 387.924 300.642 401.125 284.357 401.125C 268.072 401.125 254.871 387.924 254.871 371.639" stroke="none" fill="#FFFFFF" fill-rule="nonzero" /></g><g clip-path="url(#29)"></g><g clip-path="url(#30)"><g transform="matrix(1.01135 0 0 1.000195 259.255 437.018)"><g transform="matrix(1 0 0 1 0 0)"><image x="0" y="0" xlink:href="img_06.png" width="66" height="87" /></g></g></g><g clip-path="url(#31)"><path id="47" transform="matrix(1 0 0 -1 0 834)" d="M254.871 371.639C 254.871 355.354 268.072 342.153 284.357 342.153C 300.642 342.153 313.843 355.354 313.843 371.639C 313.843 387.924 300.642 401.125 284.357 401.125C 268.072 401.125 254.871 387.924 254.871 371.639z" stroke="#000000" stroke-width="0.725" fill="none" /></g><g clip-path="url(#32)"></g><g clip-path="url(#33)"><g transform="matrix(1.00471 0 0 0.9987313 109.771 574.634)"><g transform="matrix(1 0 0 1 0 0)"><image x="0" y="0" xlink:href="img_07.png" width="107" height="134" /></g></g></g><g clip-path="url(#34)"></g><g clip-path="url(#35)"><g transform="matrix(1.002217 0 0 0.9987007 247.404 571.988)"><g transform="matrix(1 0 0 1 0 0)"><image x="0" y="0" xlink:href="img_08.png" width="115" height="137" /></g></g></g><g clip-path="url(#36)"><g><g clip-path="url(#37)"><g clip-path="url(#38)"><path id="50" transform="matrix(1 0 0 -1 0 834)" d="M176.1618 213.5986C 166.4618 196.6271 155.9329 173.7849 160.6095 160.9679C 160.6095 160.9679 166.9892 149.2035 178.5325 148.5118" stroke="#FFFFFF" stroke-width="1.616567" fill="none" stroke-opacity="0.8" /></g></g></g></g><g clip-path="url(#39)"><path id="51" transform="matrix(1 0 0 -1 0 834)" d="M186.9873 231.0373C 184.3973 227.1786 180.3583 220.9376 176.1618 213.5986" stroke="#000000" stroke-width="1.616567" fill="none" /></g><path id="52" transform="matrix(1 0 0 -1 0 834)" d="M186.413 230.16L183.246 230.95L189.848 235.194L188.081 227.171z" stroke="none" fill="#000000" fill-rule="nonzero" /><g clip-path="url(#40)"><g><g clip-path="url(#41)"><g clip-path="url(#42)"><path id="53" transform="matrix(1 0 0 -1 0 834)" d="M139.4 213.3876C 151.5915 195.5415 164.9103 171.3044 157.5848 158.9579C 157.5848 158.9579 146.6985 147.6267 131.0041 148.1644" stroke="#FFFFFF" stroke-width="1.616567" fill="none" stroke-opacity="0.8" /></g></g></g></g><g clip-path="url(#43)"><path id="54" transform="matrix(1 0 0 -1 0 834)" d="M126.1044 231.3134C 129.2054 227.4474 134.2008 220.9986 139.401 213.3876" stroke="#000000" stroke-width="1.616567" fill="none" /></g><path id="55" transform="matrix(1 0 0 -1 0 834)" d="M122.921 235.193L129.838 231.568L126.745 230.491L125.322 227.361z" stroke="none" fill="#000000" fill-rule="nonzero" /><g clip-path="url(#44)"><path id="56" transform="matrix(1 0 0 -1 0 834)" d="M195.505 150.741C 195.505 136.8 206 125.497 218.945 125.497C 231.891 125.497 242.386 136.8 242.386 150.741C 242.386 164.684 231.891 175.986 218.945 175.986C 206 175.986 195.505 164.684 195.505 150.741" stroke="none" fill="#FFFFFF" fill-rule="nonzero" /></g><g clip-path="url(#45)"></g><g clip-path="url(#46)"><g transform="matrix(1.007848 0 0 0.9992149 181.392 601.474)"><g transform="matrix(1 0 0 1 0 0)"><image x="0" y="0" xlink:href="img_09.png" width="86" height="121" /></g></g></g><g clip-path="url(#47)"><path id="58" transform="matrix(1 0 0 -1 0 834)" d="M195.5039 150.7421C 195.5039 136.8001 206 125.4979 218.9449 125.4979C 231.8899 125.4979 242.386 136.8001 242.386 150.7421C 242.386 164.684 231.8899 175.9872 218.9449 175.9872C 206 175.9872 195.5039 164.684 195.5039 150.7421z" stroke="#000000" stroke-width="0.8082853" fill="none" /><path id="59" transform="matrix(1 0 0 -1 0 834)" d="M137.216 250.404C 134.857 250.404 132.944 248.357 132.944 245.831C 132.944 243.306 134.857 241.259 137.216 241.259C 139.575 241.259 141.488 243.306 141.488 245.831C 141.488 248.357 139.575 250.404 137.216 250.404M137.216 241.814C 135.156 241.814 133.487 243.602 133.487 245.806C 133.487 248.01 135.156 249.797 137.216 249.797C 139.275 249.797 140.945 248.01 140.945 245.806C 140.945 243.602 139.275 241.814 137.216 241.814" stroke="none" fill="#000000" fill-rule="nonzero" /><path id="61" transform="matrix(1 0 0 -1 0 834)" d="M281.781 250.191C 279.422 250.191 277.509 248.144 277.509 245.618C 277.509 243.093 279.422 241.046 281.781 241.046C 284.141 241.046 286.054 243.093 286.054 245.618C 286.054 248.144 284.141 250.191 281.781 250.191M281.781 241.602C 279.721 241.602 278.052 243.389 278.052 245.593C 278.052 247.798 279.721 249.585 281.781 249.585C 283.841 249.585 285.511 247.798 285.511 245.593C 285.511 243.389 283.841 241.602 281.781 241.602" stroke="none" fill="#000000" fill-rule="nonzero" /></g><g clip-path="url(#48)"><g><g clip-path="url(#49)"><g clip-path="url(#50)"><path id="63" transform="matrix(1 0 0 -1 0 834)" d="M254.51 241.249C 254.51 241.249 252.489 242.59 252.61 244.104" stroke="none" fill="#FFFFFF" fill-rule="nonzero" /><path id="64" transform="matrix(1 0 0 -1 0 834)" d="M254.5098 241.2498C 254.5098 241.2498 252.4898 242.5908 252.6106 244.1055" stroke="#000000" stroke-width="0.484971" fill="none" /></g></g></g></g><g clip-path="url(#51)"><g><g clip-path="url(#52)"><g clip-path="url(#53)"><path id="65" transform="matrix(1 0 0 -1 0 834)" d="M253.661 240.6C 253.661 240.6 251.64 241.941 251.761 243.455" stroke="none" fill="#FFFFFF" fill-rule="nonzero" /><path id="66" transform="matrix(1 0 0 -1 0 834)" d="M253.6617 240.6025C 253.6617 240.6025 251.6407 241.9435 251.7614 243.4573" stroke="#000000" stroke-width="0.484971" fill="none" /></g></g></g></g><g clip-path="url(#54)"><g><g clip-path="url(#55)"><g clip-path="url(#56)"><path id="67" transform="matrix(1 0 0 -1 0 834)" d="M273.348 246.948C 273.348 246.948 273.266 244.405 271.979 243.764" stroke="none" fill="#FFFFFF" fill-rule="nonzero" /><path id="68" transform="matrix(1 0 0 -1 0 834)" d="M273.3477 246.95C 273.3477 246.95 273.2665 244.4064 271.9797 243.7654" stroke="#000000" stroke-width="0.484971" fill="none" /></g></g></g></g><g clip-path="url(#57)"><g><g clip-path="url(#58)"><g clip-path="url(#59)"><path id="69" transform="matrix(1 0 0 -1 0 834)" d="M274.296 246.483C 274.296 246.483 274.215 243.939 272.928 243.299" stroke="none" fill="#FFFFFF" fill-rule="nonzero" /><path id="70" transform="matrix(1 0 0 -1 0 834)" d="M274.2973 246.4847C 274.2973 246.4847 274.2152 243.9411 272.9284 243.3011" stroke="#000000" stroke-width="0.484971" fill="none" /></g></g></g></g><g clip-path="url(#60)"><g><g clip-path="url(#61)"><g clip-path="url(#62)"><path id="71" transform="matrix(1 0 0 -1 0 834)" d="M265.751 255.419C 265.751 255.419 267.71 253.977 267.521 252.471" stroke="none" fill="#FFFFFF" fill-rule="nonzero" /><path id="72" transform="matrix(1 0 0 -1 0 834)" d="M265.7517 255.4212C 265.7517 255.4212 267.7098 253.9788 267.5215 252.4734" stroke="#000000" stroke-width="0.484971" fill="none" /></g></g></g></g><g clip-path="url(#63)"><g><g clip-path="url(#64)"><g clip-path="url(#65)"><path id="73" transform="matrix(1 0 0 -1 0 834)" d="M266.627 256.025C 266.627 256.025 268.586 254.582 268.398 253.076" stroke="none" fill="#FFFFFF" fill-rule="nonzero" /><path id="74" transform="matrix(1 0 0 -1 0 834)" d="M266.6279 256.0271C 266.6279 256.0271 268.5861 254.5847 268.3977 253.0782" stroke="#000000" stroke-width="0.484971" fill="none" /></g></g></g></g><g clip-path="url(#66)"><g><g clip-path="url(#67)"><g clip-path="url(#68)"><path id="75" transform="matrix(1 0 0 -1 0 834)" d="M255.407 248.389C 255.407 248.389 254.473 250.73 255.384 251.894" stroke="none" fill="#FFFFFF" fill-rule="nonzero" /><path id="76" transform="matrix(1 0 0 -1 0 834)" d="M255.4073 248.3913C 255.4073 248.3913 254.4731 250.7322 255.3851 251.8964" stroke="#000000" stroke-width="0.484971" fill="none" /></g></g></g></g><g clip-path="url(#69)"><g><g clip-path="url(#70)"><g clip-path="url(#71)"><path id="77" transform="matrix(1 0 0 -1 0 834)" d="M254.363 248.379C 254.363 248.379 253.429 250.719 254.34 251.884" stroke="none" fill="#FFFFFF" fill-rule="nonzero" /><path id="78" transform="matrix(1 0 0 -1 0 834)" d="M254.363 248.381C 254.363 248.381 253.4288 250.7219 254.3408 251.8861" stroke="#000000" stroke-width="0.484971" fill="none" /></g></g></g></g><g clip-path="url(#72)"><g><g clip-path="url(#73)"><g clip-path="url(#74)"><path id="79" transform="matrix(1 0 0 -1 0 834)" d="M332.792 246.137C 332.792 246.137 330.771 247.478 330.893 248.991" stroke="none" fill="#FFFFFF" fill-rule="nonzero" /><path id="80" transform="matrix(1 0 0 -1 0 834)" d="M332.7921 246.1393C 332.7921 246.1393 330.7722 247.4804 330.8929 248.9941" stroke="#000000" stroke-width="0.484971" fill="none" /></g></g></g></g><g clip-path="url(#75)"><g><g clip-path="url(#76)"><g clip-path="url(#77)"><path id="81" transform="matrix(1 0 0 -1 0 834)" d="M331.943 245.488C 331.943 245.488 329.923 246.829 330.044 248.343" stroke="none" fill="#FFFFFF" fill-rule="nonzero" /><path id="82" transform="matrix(1 0 0 -1 0 834)" d="M331.944 245.49C 331.944 245.49 329.923 246.8311 330.0438 248.3448" stroke="#000000" stroke-width="0.484971" fill="none" /></g></g></g></g><g clip-path="url(#78)"><g><g clip-path="url(#79)"><g clip-path="url(#80)"><path id="83" transform="matrix(1 0 0 -1 0 834)" d="M348.157 244.273C 348.157 244.273 347.329 241.888 345.919 241.716" stroke="none" fill="#FFFFFF" fill-rule="nonzero" /><path id="84" transform="matrix(1 0 0 -1 0 834)" d="M348.1581 244.2751C 348.1581 244.2751 347.3292 241.8898 345.9188 241.7181" stroke="#000000" stroke-width="0.484971" fill="none" /></g></g></g></g><g clip-path="url(#81)"><g><g clip-path="url(#82)"><g clip-path="url(#83)"><path id="85" transform="matrix(1 0 0 -1 0 834)" d="M348.921 243.512C 348.921 243.512 348.092 241.127 346.682 240.955" stroke="none" fill="#FFFFFF" fill-rule="nonzero" /><path id="86" transform="matrix(1 0 0 -1 0 834)" d="M348.9212 243.5141C 348.9212 243.5141 348.0923 241.1288 346.6819 240.9571" stroke="#000000" stroke-width="0.484971" fill="none" /></g></g></g></g><g clip-path="url(#84)"><g><g clip-path="url(#85)"><g clip-path="url(#86)"><path id="87" transform="matrix(1 0 0 -1 0 834)" d="M344.034 256.414C 344.034 256.414 345.992 254.971 345.804 253.466" stroke="none" fill="#FFFFFF" fill-rule="nonzero" /><path id="88" transform="matrix(1 0 0 -1 0 834)" d="M344.034 256.4159C 344.034 256.4159 345.9922 254.9735 345.8038 253.468" stroke="#000000" stroke-width="0.484971" fill="none" /></g></g></g></g><g clip-path="url(#87)"><g><g clip-path="url(#88)"><g clip-path="url(#89)"><path id="89" transform="matrix(1 0 0 -1 0 834)" d="M344.91 257.02C 344.91 257.02 346.868 255.577 346.68 254.071" stroke="none" fill="#FFFFFF" fill-rule="nonzero" /><path id="90" transform="matrix(1 0 0 -1 0 834)" d="M344.9102 257.0218C 344.9102 257.0218 346.8684 255.5794 346.68 254.0729" stroke="#000000" stroke-width="0.484971" fill="none" /></g></g></g></g><g clip-path="url(#90)"><g><g clip-path="url(#91)"><g clip-path="url(#92)"><path id="91" transform="matrix(1 0 0 -1 0 834)" d="M337.301 255.48C 337.301 255.48 337.227 258.023 338.472 258.753" stroke="none" fill="#FFFFFF" fill-rule="nonzero" /><path id="92" transform="matrix(1 0 0 -1 0 834)" d="M337.3007 255.4822C 337.3007 255.4822 337.2273 258.0258 338.4725 258.7537" stroke="#000000" stroke-width="0.484971" fill="none" /></g></g></g></g><g clip-path="url(#93)"><g><g clip-path="url(#94)"><g clip-path="url(#95)"><path id="93" transform="matrix(1 0 0 -1 0 834)" d="M336.326 255.878C 336.326 255.878 336.252 258.421 337.497 259.151" stroke="none" fill="#FFFFFF" fill-rule="nonzero" /><path id="94" transform="matrix(1 0 0 -1 0 834)" d="M336.326 255.8803C 336.326 255.8803 336.2516 258.4238 337.4968 259.1517" stroke="#000000" stroke-width="0.484971" fill="none" /></g></g></g></g><g clip-path="url(#96)"></g><g clip-path="url(#97)"><g transform="matrix(0.9921251 0 0 0.9987643 359.38 334.1102)"><g transform="matrix(1 0 0 1 0 0)"><image x="0" y="0" xlink:href="img_10.png" width="28" height="56" /></g></g></g><g clip-path="url(#98)"></g><g clip-path="url(#99)"><g transform="matrix(1.003027 0 0 1.00974 361.081 554.0785)"><g transform="matrix(1 0 0 1 0 0)"><image x="0" y="0" xlink:href="img_11.png" width="26" height="52" /></g></g></g><g transform="matrix(1.021227 0 0 1.009978 356.861 117.7431)"><g transform="matrix(1 0 0 1 0 0)"><image x="0" y="0" xlink:href="img_12.png" width="33" height="51" /></g></g><g clip-path="url(#100)"></g><g clip-path="url(#101)"><g transform="matrix(1.022789 0 0 0.9967948 96.15881 138.1918)"><g transform="matrix(1 0 0 1 0 0)"><image x="0" y="0" xlink:href="img_13.png" width="27" height="38" /></g></g></g><g clip-path="url(#102)"></g><g clip-path="url(#103)"><g transform="matrix(1.022789 0 0 0.9967948 157.019 378.3578)"><g transform="matrix(1 0 0 1 0 0)"><image x="0" y="0" xlink:href="img_13.png" width="27" height="38" /></g></g></g><g clip-path="url(#104)"></g><g clip-path="url(#105)"><g transform="matrix(-1.014338 0 0 0.9967948 226.393 138.1918)"><g transform="matrix(1 0 0 1 0 0)"><image x="0" y="0" xlink:href="img_14.png" width="29" height="38" /></g></g></g><g clip-path="url(#106)"></g><g clip-path="url(#107)"><g transform="matrix(1.023622 0 0 0.9967948 238.596 138.1918)"><g transform="matrix(1 0 0 1 0 0)"><image x="0" y="0" xlink:href="img_15.png" width="27" height="38" /></g></g></g><g clip-path="url(#108)"></g><g clip-path="url(#109)"><g transform="matrix(-1.023622 0 0 0.9967948 339.117 138.1918)"><g transform="matrix(1 0 0 1 0 0)"><image x="0" y="0" xlink:href="img_15.png" width="27" height="38" /></g></g></g><g clip-path="url(#110)"></g><g clip-path="url(#111)"><g transform="matrix(-1.026016 0 0 0.9932313 222.167 585.7886)"><g transform="matrix(1 0 0 1 0 0)"><image x="0" y="0" xlink:href="img_16.png" width="25" height="32" /></g></g></g><g clip-path="url(#112)"></g><g clip-path="url(#113)"><g transform="matrix(1.026016 0 0 0.9932313 96.1425 585.7886)"><g transform="matrix(1 0 0 1 0 0)"><image x="0" y="0" xlink:href="img_16.png" width="25" height="32" /></g></g></g><g clip-path="url(#114)"></g><g clip-path="url(#115)"><g transform="matrix(-1.023248 0 0 1.00675 366.609 655.1065)"><g transform="matrix(1 0 0 1 0 0)"><image x="0" y="0" xlink:href="img_17.png" width="27" height="30" /></g></g></g><g clip-path="url(#116)"></g><g clip-path="url(#117)"><g transform="matrix(1.023248 0 0 1.00675 242.506 655.1065)"><g transform="matrix(1 0 0 1 0 0)"><image x="0" y="0" xlink:href="img_17.png" width="27" height="30" /></g></g></g><path id="1499" transform="matrix(1 0 0 -1 0 834)" d="M633 15L633 0M633 819L633 834M21 15L21 0M21 819L21 834M639 21L654 21M15 21L0 21M639 813L654 813M15 813L0 813" stroke="#000000" stroke-width="1.25" fill="none" /><path id="1500" transform="matrix(1 0 0 -1 0 834)" d="M633 15L633 0M633 819L633 834M21 15L21 0M21 819L21 834M639 21L654 21M15 21L0 21M639 813L654 813M15 813L0 813" stroke="#000000" stroke-width="0.25" fill="none" /><path id="1501" transform="matrix(1 0 0 -1 0 834)" d="M32.2781 9.28203C 32.2781 9.516021 32.2961 9.58203 32.3559 9.62383C 32.416 9.66602 32.5719 9.69609 32.8238 9.69609C 33.2262 9.69609 33.5738 9.62383 33.8441 9.45C 34.3238 9.167971 34.552 8.63398 34.552 8.016021C 34.552 7.05586 34.0359 6.21602 32.9141 6.21602C 32.4762 6.21602 32.2781 6.33008 32.2781 6.78594zM31.252 9.900001L31.252 9.726171C 31.7141 9.68984 31.7621 9.66602 31.7621 9.150001L31.7621 9.150001L31.7621 6.74414C 31.7621 6.23398 31.7141 6.19805 31.198 6.16211L31.198 6.16211L31.198 6L31.198 6L32.6199 6C 33.3578 6 33.952 6.15 34.402 6.49805C 34.8641 6.84609 35.1398 7.38008 35.1398 8.1C 35.1398 8.664061 34.9301 9.101951 34.6359 9.38984C 34.2641 9.74414 33.7 9.900001 32.9379 9.900001z" stroke="#000000" stroke-width="0.4" fill="none" /><path id="1502" transform="matrix(1 0 0 -1 0 834)" d="M38.3801 6.97813C 38.2898 6.70195 38.1758 6.51016 38.0738 6.38984C 37.9359 6.23398 37.732 6.20391 37.402 6.20391C 37.15 6.20391 36.9461 6.21602 36.8258 6.28203C 36.718 6.34219 36.6879 6.46211 36.6879 6.78594L36.6879 6.78594L36.6879 9.15586C 36.6879 9.66602 36.7418 9.69609 37.216 9.73203L37.216 9.73203L37.216 9.900001L37.216 9.900001L35.65 9.900001L35.65 9.900001L35.65 9.73203C 36.1359 9.69609 36.1777 9.66602 36.1777 9.15586L36.1777 9.15586L36.1777 6.75586C 36.1777 6.24609 36.1301 6.20391 35.6258 6.16797L35.6258 6.16797L35.6258 6L35.6258 6L38.3438 6C 38.398 6.18594 38.5238 6.75586 38.5598 6.94219z" stroke="#000000" stroke-width="0.4" fill="none" /><path id="1503" transform="matrix(1 0 0 -1 0 834)" d="M41.0918 9.023829C 41.0438 9.40195 41.0141 9.63594 40.9898 9.851951C 40.7617 9.92383 40.5098 9.989841 40.234 9.989841C 39.4598 9.989841 38.998 9.49805 38.998 8.921881C 38.998 8.24414 39.6039 7.94414 39.9879 7.73984C 40.4379 7.5 40.768 7.28984 40.768 6.84609C 40.768 6.40781 40.498 6.12617 40.048 6.12617C 39.4301 6.12617 39.1598 6.73203 39.0641 7.09805L39.0641 7.09805L38.8898 7.05586C 38.9258 6.767971 39.0039 6.25195 39.052 6.12617C 39.1059 6.09609 39.1961 6.05391 39.3461 6C 39.4961 5.95781 39.6879 5.91016 39.934 5.91016C 40.732 5.91016 41.266 6.41406 41.266 7.04414C 41.266 7.71602 40.6961 7.99805 40.2277 8.23789C 39.7539 8.48398 39.466 8.68789 39.466 9.12617C 39.466 9.45 39.6699 9.78594 40.132 9.78594C 40.6539 9.78594 40.8098 9.371881 40.918 8.98789z" stroke="#000000" stroke-width="0.4" fill="none" /><path id="1504" transform="matrix(1 0 0 -1 0 834)" d="M46.648 6L46.648 6.16797C 46.1258 6.21602 46.1078 6.24609 46.0898 6.88203L46.0898 6.88203L46.0301 9.05391C 46.0117 9.671881 46.0539 9.68398 46.582 9.73203L46.582 9.73203L46.582 9.900001L46.582 9.900001L45.5617 9.900001L45.5617 9.900001L44.1758 6.9L44.1758 6.9L42.8078 9.900001L42.8078 9.900001L41.8238 9.900001L41.8238 9.900001L41.8238 9.73203C 42.3699 9.67813 42.4 9.653911 42.3461 8.87383L42.3461 8.87383L42.2617 7.626171C 42.2141 7.00195 42.1777 6.73789 42.148 6.528131C 42.1059 6.27617 41.9859 6.21016 41.6379 6.16797L41.6379 6.16797L41.6379 6L41.6379 6L43.0359 6L43.0359 6L43.0359 6.16797C 42.6398 6.21016 42.4961 6.25195 42.484 6.53984C 42.4777 6.78008 42.4777 7.04414 42.502 7.53594L42.502 7.53594L42.5918 9.24609L42.5918 9.24609L42.6039 9.24609L42.6039 9.24609L43.948 6.04219L43.948 6.04219L44.068 6.04219L44.068 6.04219L45.532 9.33008L45.532 9.33008L45.5559 9.33008L45.5559 9.33008L45.5738 6.88203C 45.5801 6.24609 45.5559 6.21602 45.0699 6.16797L45.0699 6.16797L45.0699 6z" stroke="#000000" stroke-width="0.4" fill="none" /><path id="1505" transform="matrix(1 0 0 -1 0 834)" d="M51.8738 7.05586C 51.5738 6.45586 51.2496 6.12617 50.6379 6.12617C 49.7258 6.12617 49.0656 6.89414 49.0656 8.016021C 49.0656 8.92813 49.5996 9.773829 50.602 9.773829C 51.2496 9.773829 51.6098 9.516021 51.7656 8.88008L51.7656 8.88008L51.9457 8.921881C 51.9098 9.24609 51.8738 9.48594 51.8258 9.828131C 51.6578 9.85781 51.2496 9.989841 50.7637 9.989841C 49.4258 9.989841 48.4539 9.15586 48.4539 7.89609C 48.4539 6.94219 49.1078 5.91016 50.602 5.91016C 51.034 5.91016 51.5379 6.03008 51.7059 6.07188C 51.8137 6.26992 51.9637 6.71406 52.0477 6.98984z" stroke="#000000" stroke-width="0.4" fill="none" /><path id="1506" transform="matrix(1 0 0 -1 0 834)" d="M54.3398 9.773829C 55.1258 9.773829 55.7855 9.101951 55.7855 7.83594C 55.7855 6.68398 55.1855 6.12617 54.5195 6.12617C 53.6738 6.12617 53.0559 6.94805 53.0559 8.076171C 53.0559 9.19805 53.6676 9.773829 54.3398 9.773829zM54.4598 9.989841C 53.1996 9.989841 52.4438 8.98789 52.4438 7.90781C 52.4438 6.75586 53.3078 5.91016 54.3938 5.91016C 55.4918 5.91016 56.3977 6.70195 56.3977 7.99805C 56.3977 9.19805 55.4797 9.989841 54.4598 9.989841z" stroke="#000000" stroke-width="0.4" fill="none" /><path id="1507" transform="matrix(1 0 0 -1 0 834)" d="M61.8277 6L61.8277 6.16797C 61.3059 6.21602 61.2879 6.24609 61.2695 6.88203L61.2695 6.88203L61.2098 9.05391C 61.1918 9.671881 61.2336 9.68398 61.7617 9.73203L61.7617 9.73203L61.7617 9.900001L61.7617 9.900001L60.7418 9.900001L60.7418 9.900001L59.3559 6.9L59.3559 6.9L57.9879 9.900001L57.9879 9.900001L57.0035 9.900001L57.0035 9.900001L57.0035 9.73203C 57.5496 9.67813 57.5797 9.653911 57.5258 8.87383L57.5258 8.87383L57.4418 7.626171C 57.3938 7.00195 57.3578 6.73789 57.3277 6.528131C 57.2855 6.27617 57.1656 6.21016 56.8176 6.16797L56.8176 6.16797L56.8176 6L56.8176 6L58.2156 6L58.2156 6L58.2156 6.16797C 57.8195 6.21016 57.6758 6.25195 57.6637 6.53984C 57.6578 6.78008 57.6578 7.04414 57.6816 7.53594L57.6816 7.53594L57.7719 9.24609L57.7719 9.24609L57.7836 9.24609L57.7836 9.24609L59.1277 6.04219L59.1277 6.04219L59.2477 6.04219L59.2477 6.04219L60.7117 9.33008L60.7117 9.33008L60.7355 9.33008L60.7355 9.33008L60.7535 6.88203C 60.7598 6.24609 60.7355 6.21602 60.2496 6.16797L60.2496 6.16797L60.2496 6z" stroke="#000000" stroke-width="0.4" fill="none" /><path id="1508" transform="matrix(1 0 0 -1 0 834)" d="M63.8258 6L63.8258 6.16797C 63.3336 6.20391 63.2855 6.23398 63.2855 6.75L63.2855 6.75L63.2855 9.150001C 63.2855 9.66016 63.3336 9.69609 63.8258 9.73203L63.8258 9.73203L63.8258 9.900001L63.8258 9.900001L62.2355 9.900001L62.2355 9.900001L62.2355 9.73203C 62.7277 9.69609 62.7758 9.66016 62.7758 9.150001L62.7758 9.150001L62.7758 6.75C 62.7758 6.23984 62.7277 6.20391 62.2355 6.16797L62.2355 6.16797L62.2355 6z" stroke="#000000" stroke-width="0.4" fill="none" /><path id="1509" transform="matrix(1 0 0 -1 0 834)" d="M66.5074 9.023829C 66.4598 9.40195 66.4297 9.63594 66.4055 9.851951C 66.1777 9.92383 65.9258 9.989841 65.6496 9.989841C 64.8758 9.989841 64.4137 9.49805 64.4137 8.921881C 64.4137 8.24414 65.0195 7.94414 65.4035 7.73984C 65.8535 7.5 66.1836 7.28984 66.1836 6.84609C 66.1836 6.40781 65.9137 6.12617 65.46371 6.12617C 64.8457 6.12617 64.5758 6.73203 64.4797 7.09805L64.4797 7.09805L64.3055 7.05586C 64.3418 6.767971 64.4195 6.25195 64.46761 6.12617C 64.52151 6.09609 64.6117 6.05391 64.7617 6C 64.91171 5.95781 65.1035 5.91016 65.3496 5.91016C 66.1477 5.91016 66.6816 6.41406 66.6816 7.04414C 66.6816 7.71602 66.1117 7.99805 65.6438 8.23789C 65.1695 8.48398 64.8816 8.68789 64.8816 9.12617C 64.8816 9.45 65.0855 9.78594 65.5477 9.78594C 66.0695 9.78594 66.2258 9.371881 66.3336 8.98789z" stroke="#000000" stroke-width="0.4" fill="none" /><path id="1510" transform="matrix(1 0 0 -1 0 834)" d="M69.4055 7.68008L68.3016 7.68008C 68.4816 8.171881 68.6734 8.69414 68.8656 9.21016L68.8656 9.21016L68.8777 9.21016zM70.9355 6L70.9355 6.16797C 70.5457 6.20391 70.46761 6.25781 70.2758 6.77383C 69.89181 7.81797 69.4895 8.95781 69.11761 9.989841L69.11761 9.989841L68.9316 9.93594L68.9316 9.93594L67.68951 6.78594C 67.4797 6.25781 67.3957 6.22188 67.0176 6.16797L67.0176 6.16797L67.0176 6L67.0176 6L68.3195 6L68.3195 6L68.3195 6.16797C 67.8695 6.21016 67.81561 6.26992 67.9477 6.64805C 68.0258 6.9 68.1156 7.15195 68.2117 7.42188L68.2117 7.42188L69.4895 7.42188C 69.62151 7.05586 69.74181 6.73203 69.8195 6.49805C 69.8977 6.26406 69.8438 6.21602 69.4656 6.16797L69.4656 6.16797L69.4656 6z" stroke="#000000" stroke-width="0.4" fill="none" /><path id="1511" transform="matrix(1 0 0 -1 0 834)" d="M71.7273 5.92813C 71.9195 5.92813 72.06371 6.06602 72.06371 6.27617C 72.06371 6.46797 71.9195 6.61797 71.7273 6.61797C 71.5355 6.61797 71.3914 6.46797 71.3914 6.27617C 71.3914 6.06602 71.5355 5.92813 71.7273 5.92813z" stroke="#000000" stroke-width="0.4" fill="none" /><path id="1512" transform="matrix(1 0 0 -1 0 834)" d="M73.9234 6L73.9234 6.15586C 73.53951 6.19219 73.4977 6.22813 73.4977 6.63594L73.4977 6.63594L73.4977 8.70586C 73.2336 8.59805 72.9516 8.51992 72.6453 8.471881L72.6453 8.471881L72.6453 8.328131C 73.0055 8.26797 73.0234 8.24414 73.0234 7.871881L73.0234 7.871881L73.0234 6.63594C 73.0234 6.22813 72.9816 6.19219 72.6035 6.15586L72.6035 6.15586L72.6035 6zM73.2215 9.216021C 73.3953 9.216021 73.52731 9.36016 73.52731 9.52188C 73.52731 9.70195 73.3953 9.83398 73.2273 9.83398C 73.06561 9.83398 72.9215 9.70195 72.9215 9.52188C 72.9215 9.36016 73.06561 9.216021 73.2215 9.216021z" stroke="#000000" stroke-width="0.4" fill="none" /><path id="1513" transform="matrix(1 0 0 -1 0 834)" d="M77.1574 6L77.1574 6.15586C 76.8094 6.19219 76.7793 6.21602 76.7793 6.62383L76.7793 6.62383L76.7793 7.78203C 76.7793 8.36406 76.4793 8.69414 76.0055 8.69414C 75.8313 8.69414 75.67541 8.621881 75.5074 8.51406C 75.3574 8.41211 75.2254 8.32188 75.1055 8.23203L75.1055 8.23203L75.1055 8.712111C 74.8414 8.59219 74.5594 8.51992 74.27151 8.466021L74.27151 8.466021L74.27151 8.328131C 74.5953 8.26797 74.6313 8.25 74.6313 7.86602L74.6313 7.86602L74.6313 6.62383C 74.6313 6.22813 74.6016 6.19805 74.19341 6.15586L74.19341 6.15586L74.19341 6L74.19341 6L75.4953 6L75.4953 6L75.4953 6.15586C 75.1414 6.19219 75.1055 6.21602 75.1055 6.62383L75.1055 6.62383L75.1055 8.03398C 75.2855 8.18984 75.5195 8.33984 75.7594 8.33984C 76.1613 8.33984 76.3055 8.069921 76.3055 7.65586L76.3055 7.65586L76.3055 6.65391C 76.3055 6.23984 76.2633 6.19219 75.9094 6.15586L75.9094 6.15586L75.9094 6z" stroke="#000000" stroke-width="0.4" fill="none" /><path id="1514" transform="matrix(1 0 0 -1 0 834)" d="M79.4734 6.51016C 79.32931 6.40195 79.1133 6.30586 78.8973 6.30586C 78.5133 6.30586 78.0754 6.65391 78.0754 7.36797C 78.0754 8.23789 78.57931 8.471881 78.8555 8.471881C 79.0832 8.471881 79.32931 8.37617 79.4734 8.16602zM80.4035 6.30586L80.2113 6.32383C 79.9895 6.34805 79.9473 6.37813 79.9473 6.68984L79.9473 6.68984L79.9473 10.2719C 79.7254 10.1941 79.3234 10.1039 79.0113 10.0621L79.0113 10.0621L79.0113 9.917971C 79.44341 9.88789 79.4734 9.869921 79.4734 9.47383L79.4734 9.47383L79.4734 8.628131C 79.3355 8.67617 79.1613 8.69414 79.0773 8.69414C 78.2613 8.69414 77.5293 8.03984 77.5293 7.20586C 77.5293 6.36602 78.1594 5.92813 78.6395 5.92813C 78.7113 5.92813 78.87341 5.96406 79.1074 6.10195L79.1074 6.10195L79.4734 6.31797L79.4734 6.31797L79.4734 5.92813C 79.8215 6.05391 80.27151 6.13203 80.4035 6.15586z" stroke="#000000" stroke-width="0.4" fill="none" /><path id="1515" transform="matrix(1 0 0 -1 0 834)" d="M81.3813 8.24414C 81.4895 8.310161 81.6813 8.35781 81.84921 8.35781C 82.34731 8.35781 82.7676 7.96211 82.7676 7.278131C 82.7676 6.58203 82.4492 6.15586 81.9516 6.15586C 81.6336 6.16211 81.4535 6.37188 81.4176 6.49219C 81.3934 6.54609 81.3813 6.60586 81.3813 6.69609zM81.3813 8.42383L81.3813 10.2719C 81.1594 10.1941 80.7934 10.098 80.5113 10.0621L80.5113 10.0621L80.5113 9.92383C 80.8953 9.88789 80.9074 9.851951 80.9074 9.48008L80.9074 9.48008L80.9074 6.14414C 81.2375 5.98789 81.5434 5.92813 81.78951 5.92813C 82.59341 5.92813 83.2953 6.55195 83.2953 7.43398C 83.2953 8.14219 82.7555 8.69414 82.1133 8.69414C 82.0473 8.69414 81.9633 8.67617 81.86761 8.63398z" stroke="#000000" stroke-width="0.4" fill="none" /><path id="1516" transform="matrix(1 0 0 -1 0 834)" d="M88.1133 8.976171C 88.2633 9.19805 88.50311 9.45 88.8332 9.45C 89.15121 9.45 89.4031 9.257811 89.4031 8.88594C 89.4031 8.44219 88.9953 8.20781 88.44341 8.03398L88.44341 8.03398L88.4852 7.86016C 88.5813 7.88984 88.7254 7.92617 88.8691 7.92617C 89.2113 7.92617 89.6313 7.70391 89.6313 7.15195C 89.6313 6.55781 89.3313 6.23984 88.90511 6.23984C 88.5633 6.23984 88.3172 6.40781 88.1613 6.54609C 88.1133 6.58789 88.0652 6.58203 88.0172 6.54609C 87.9633 6.50391 87.8852 6.42617 87.8793 6.34805C 87.8672 6.27617 87.891 6.21016 87.9754 6.13203C 88.0531 6.06016 88.2992 5.92813 88.5754 5.92813C 89.007 5.92813 90.1473 6.37188 90.1473 7.34414C 90.1473 7.78203 89.841 8.153911 89.3133 8.25586L89.3133 8.25586L89.3133 8.26797C 89.4871 8.38789 89.6313 8.49609 89.7211 8.59219C 89.8352 8.70586 89.90701 8.84414 89.90701 9.01797C 89.90701 9.47383 89.5531 9.810161 89.0133 9.810161C 88.6953 9.810161 88.4191 9.66016 88.25121 9.47383L88.25121 9.47383L87.9871 9.09609z" stroke="#000000" stroke-width="0.4" fill="none" /><path id="1517" transform="matrix(1 0 0 -1 0 834)" d="M91.8512 8.02188C 92.3973 8.02188 92.6492 7.53008 92.6492 7.03203C 92.6492 6.63594 92.5051 6.13203 92.0371 6.13203C 91.5453 6.13203 91.2391 6.719921 91.2391 7.43984C 91.2391 7.59609 91.2453 7.73984 91.27541 7.85391C 91.4191 7.93203 91.623 8.02188 91.8512 8.02188zM91.30511 8.057811C 91.4852 8.89219 92.0434 9.26992 92.4094 9.44414C 92.6313 9.54609 92.8652 9.61797 93.0633 9.653911L93.0633 9.653911L93.0211 9.84609C 92.7813 9.80391 92.4934 9.73789 92.25311 9.653911C 91.6172 9.419921 90.7051 8.74219 90.7051 7.428131C 90.7051 6.50391 91.2332 5.92813 91.9352 5.92813C 92.65511 5.92813 93.1652 6.53398 93.1652 7.24805C 93.1652 7.86602 92.7273 8.35781 92.0852 8.35781C 91.9652 8.35781 91.8391 8.31602 91.707 8.25586z" stroke="#000000" stroke-width="0.4" fill="none" /><path id="1518" transform="matrix(1 0 0 -1 0 834)" d="M94.7973 9.61211C 95.3371 9.61211 95.4871 8.72383 95.4871 7.871881C 95.4871 7.03203 95.34341 6.13203 94.8031 6.13203C 94.2813 6.13203 94.107 7.03789 94.107 7.87813C 94.107 8.712111 94.25121 9.61211 94.7973 9.61211zM94.8031 9.810161C 93.9031 9.810161 93.573 8.74219 93.573 7.86602C 93.573 6.91797 93.8973 5.92813 94.8031 5.92813C 95.7031 5.92813 96.0211 6.99609 96.0211 7.871881C 96.0211 8.79609 95.7031 9.810161 94.8031 9.810161z" stroke="#000000" stroke-width="0.4" fill="none" /><path id="1537" transform="matrix(1 0 0 -1 0 834)" d="M554.472 6.83984C 554.292 6.46211 554.2141 6.43789 553.89 6.43789L553.89 6.43789L552.768 6.43789L552.768 6.43789L553.6201 7.33203C 554.1721 7.91992 554.412 8.273829 554.412 8.79609C 554.412 9.42617 553.932 9.810161 553.404 9.810161C 553.056 9.810161 552.774 9.653911 552.594 9.45586L552.594 9.45586L552.252 8.96992L552.252 8.96992L552.384 8.85C 552.54 9.08398 552.792 9.40781 553.2 9.40781C 553.644 9.40781 553.908 9.11406 553.908 8.61016C 553.908 8.09414 553.53 7.60195 553.158 7.15781C 552.858 6.81016 552.522 6.46797 552.186 6.13789L552.186 6.13789L552.186 6L552.186 6L554.43 6C 554.502 6.26992 554.562 6.53398 554.64 6.78594z" stroke="#000000" stroke-width="0.4" fill="none" /><path id="1538" transform="matrix(1 0 0 -1 0 834)" d="M555.792 9.3L557.19 9.3L557.19 9.3L557.346 9.68984L557.346 9.68984L557.31 9.73789L557.31 9.73789L555.6 9.73789L555.6 9.73789L555.366 7.90781C 555.504 7.96211 555.732 8.028131 555.984 8.028131C 556.638 8.028131 556.962 7.65 556.962 7.121881C 556.962 6.67188 556.71 6.23398 556.2 6.23398C 555.834 6.23398 555.588 6.42617 555.462 6.53984C 555.402 6.58789 555.354 6.58203 555.3 6.53984C 555.234 6.48008 555.18 6.40195 555.174 6.34219C 555.162 6.26992 555.192 6.22188 555.27 6.13789C 555.36 6.05391 555.612 5.92813 555.888 5.92813C 556.206 5.93398 556.608 6.08984 556.932 6.35391C 557.298 6.65391 557.466 6.99609 557.466 7.35586C 557.466 7.84805 557.076 8.369921 556.308 8.369921C 556.146 8.369921 555.864 8.273829 555.636 8.18984z" stroke="#000000" stroke-width="0.4" fill="none" /><path id="1539" transform="matrix(1 0 0 -1 0 834)" d="M559.548 9.989841L559.212 9.989841L559.212 9.989841L557.91 5.73594L557.91 5.73594L558.246 5.73594z" stroke="#000000" stroke-width="0.4" fill="none" /><path id="1540" transform="matrix(1 0 0 -1 0 834)" d="M561.18 9.61211C 561.72 9.61211 561.8701 8.72383 561.8701 7.871881C 561.8701 7.03203 561.726 6.13203 561.186 6.13203C 560.664 6.13203 560.49 7.03789 560.49 7.87813C 560.49 8.712111 560.634 9.61211 561.18 9.61211zM561.186 9.810161C 560.286 9.810161 559.956 8.74219 559.956 7.86602C 559.956 6.91797 560.28 5.92813 561.186 5.92813C 562.086 5.92813 562.404 6.99609 562.404 7.871881C 562.404 8.79609 562.086 9.810161 561.186 9.810161z" stroke="#000000" stroke-width="0.4" fill="none" /><path id="1541" transform="matrix(1 0 0 -1 0 834)" d="M564 9.61211C 564.582 9.61211 564.738 8.86797 564.738 8.33984C 564.738 8.21992 564.732 8.076171 564.7141 7.94414C 564.588 7.84805 564.384 7.77617 564.174 7.77617C 563.67 7.77617 563.3701 8.214061 563.3701 8.74219C 563.3701 9.09609 563.538 9.61211 564 9.61211zM564.078 9.810161C 563.304 9.810161 562.854 9.10781 562.854 8.53203C 562.854 7.90195 563.292 7.43398 563.928 7.43398C 564.042 7.43398 564.156 7.45781 564.288 7.53008L564.288 7.53008L564.69 7.74609C 564.492 6.83398 563.838 6.23398 562.98 6.08984L562.98 6.08984L563.01 5.91016C 563.16 5.91016 563.526 5.96992 563.85 6.10195C 564.66 6.42617 565.2661 7.20586 565.2661 8.310161C 565.2661 9.12617 564.828 9.810161 564.078 9.810161z" stroke="#000000" stroke-width="0.4" fill="none" /><path id="1542" transform="matrix(1 0 0 -1 0 834)" d="M567.294 9.989841L566.958 9.989841L566.958 9.989841L565.656 5.73594L565.656 5.73594L565.992 5.73594z" stroke="#000000" stroke-width="0.4" fill="none" /><path id="1543" transform="matrix(1 0 0 -1 0 834)" d="M569.9641 6.83984C 569.784 6.46211 569.706 6.43789 569.382 6.43789L569.382 6.43789L568.26 6.43789L568.26 6.43789L569.112 7.33203C 569.664 7.91992 569.904 8.273829 569.904 8.79609C 569.904 9.42617 569.424 9.810161 568.896 9.810161C 568.548 9.810161 568.2661 9.653911 568.086 9.45586L568.086 9.45586L567.744 8.96992L567.744 8.96992L567.876 8.85C 568.032 9.08398 568.284 9.40781 568.692 9.40781C 569.136 9.40781 569.4 9.11406 569.4 8.61016C 569.4 8.09414 569.022 7.60195 568.65 7.15781C 568.35 6.81016 568.014 6.46797 567.678 6.13789L567.678 6.13789L567.678 6L567.678 6L569.9221 6C 569.994 6.26992 570.054 6.53398 570.132 6.78594z" stroke="#000000" stroke-width="0.4" fill="none" /><path id="1544" transform="matrix(1 0 0 -1 0 834)" d="M571.806 9.61211C 572.346 9.61211 572.496 8.72383 572.496 7.871881C 572.496 7.03203 572.352 6.13203 571.812 6.13203C 571.29 6.13203 571.116 7.03789 571.116 7.87813C 571.116 8.712111 571.26 9.61211 571.806 9.61211zM571.812 9.810161C 570.912 9.810161 570.582 8.74219 570.582 7.86602C 570.582 6.91797 570.906 5.92813 571.812 5.92813C 572.712 5.92813 573.03 6.99609 573.03 7.871881C 573.03 8.79609 572.712 9.810161 571.812 9.810161z" stroke="#000000" stroke-width="0.4" fill="none" /><path id="1545" transform="matrix(1 0 0 -1 0 834)" d="M575.556 6L575.556 6.16211C 575.01 6.20391 574.9741 6.25195 574.9741 6.68398L574.9741 6.68398L574.9741 9.810161C 574.644 9.67813 574.29 9.56406 573.906 9.49805L573.906 9.49805L573.906 9.36016L573.906 9.36016L574.194 9.34805C 574.458 9.33594 574.482 9.305861 574.482 8.99414L574.482 8.99414L574.482 6.68398C 574.482 6.25195 574.452 6.20391 573.906 6.16211L573.906 6.16211L573.906 6z" stroke="#000000" stroke-width="0.4" fill="none" /><path id="1546" transform="matrix(1 0 0 -1 0 834)" d="M578.814 9.73789L576.522 9.73789C 576.498 9.48008 576.468 9.180079 576.414 8.85L576.414 8.85L576.588 8.85C 576.732 9.24609 576.768 9.3 577.164 9.3L577.164 9.3L578.46 9.3C 577.986 8.25586 577.308 7.01406 576.678 5.99414L576.678 5.99414L576.72 5.92813L576.72 5.92813L577.164 5.98789C 577.74 7.22383 578.298 8.44805 578.862 9.66602z" stroke="#000000" stroke-width="0.4" fill="none" /><path id="1547" transform="matrix(1 0 0 -1 0 834)" d="M584.531 9.61211C 585.071 9.61211 585.221 8.72383 585.221 7.871881C 585.221 7.03203 585.077 6.13203 584.537 6.13203C 584.015 6.13203 583.841 7.03789 583.841 7.87813C 583.841 8.712111 583.985 9.61211 584.531 9.61211zM584.537 9.810161C 583.637 9.810161 583.307 8.74219 583.307 7.86602C 583.307 6.91797 583.631 5.92813 584.537 5.92813C 585.437 5.92813 585.755 6.99609 585.755 7.871881C 585.755 8.79609 585.437 9.810161 584.537 9.810161z" stroke="#000000" stroke-width="0.4" fill="none" /><path id="1548" transform="matrix(1 0 0 -1 0 834)" d="M588.449 6.83984C 588.269 6.46211 588.191 6.43789 587.867 6.43789L587.867 6.43789L586.7451 6.43789L586.7451 6.43789L587.597 7.33203C 588.149 7.91992 588.389 8.273829 588.389 8.79609C 588.389 9.42617 587.909 9.810161 587.381 9.810161C 587.033 9.810161 586.751 9.653911 586.571 9.45586L586.571 9.45586L586.229 8.96992L586.229 8.96992L586.361 8.85C 586.517 9.08398 586.769 9.40781 587.177 9.40781C 587.621 9.40781 587.885 9.11406 587.885 8.61016C 587.885 8.09414 587.507 7.60195 587.135 7.15781C 586.835 6.81016 586.499 6.46797 586.163 6.13789L586.163 6.13789L586.163 6L586.163 6L588.407 6C 588.479 6.26992 588.539 6.53398 588.617 6.78594z" stroke="#000000" stroke-width="0.4" fill="none" /><path id="1549" transform="matrix(1 0 0 -1 0 834)" d="M589.5471 5.92813C 589.739 5.92813 589.883 6.06602 589.883 6.27617C 589.883 6.46797 589.739 6.61797 589.5471 6.61797C 589.355 6.61797 589.211 6.46797 589.211 6.27617C 589.211 6.06602 589.355 5.92813 589.5471 5.92813zM589.541 8.466021C 589.3491 8.466021 589.211 8.328131 589.211 8.13008C 589.211 7.92617 589.3491 7.78203 589.541 7.78203C 589.733 7.78203 589.877 7.92617 589.877 8.13008C 589.877 8.328131 589.733 8.466021 589.541 8.466021z" stroke="#000000" stroke-width="0.4" fill="none" /><path id="1550" transform="matrix(1 0 0 -1 0 834)" d="M591.905 7.35L590.723 7.35C 591.119 8.016021 591.509 8.58594 591.893 9.119921L591.893 9.119921L591.905 9.119921zM592.961 7.06797L592.961 7.35L592.961 7.35L592.385 7.35L592.385 7.35L592.385 9.79219L592.385 9.79219L592.145 9.79219C 591.527 8.976171 590.915 8.08789 590.345 7.23594L590.345 7.23594L590.345 7.06797L590.345 7.06797L591.905 7.06797L591.905 7.06797L591.905 6.63594C 591.905 6.23984 591.881 6.20391 591.359 6.16211L591.359 6.16211L591.359 6L591.359 6L592.895 6L592.895 6L592.895 6.16211C 592.409 6.20391 592.385 6.23398 592.385 6.63594L592.385 6.63594L592.385 7.06797z" stroke="#000000" stroke-width="0.4" fill="none" /><path id="1551" transform="matrix(1 0 0 -1 0 834)" d="M594.479 9.61211C 595.061 9.61211 595.217 8.86797 595.217 8.33984C 595.217 8.21992 595.211 8.076171 595.1931 7.94414C 595.067 7.84805 594.863 7.77617 594.653 7.77617C 594.149 7.77617 593.8491 8.214061 593.8491 8.74219C 593.8491 9.09609 594.017 9.61211 594.479 9.61211zM594.557 9.810161C 593.783 9.810161 593.333 9.10781 593.333 8.53203C 593.333 7.90195 593.771 7.43398 594.407 7.43398C 594.521 7.43398 594.635 7.45781 594.767 7.53008L594.767 7.53008L595.169 7.74609C 594.971 6.83398 594.317 6.23398 593.459 6.08984L593.459 6.08984L593.489 5.91016C 593.639 5.91016 594.005 5.96992 594.329 6.10195C 595.139 6.42617 595.7451 7.20586 595.7451 8.310161C 595.7451 9.12617 595.307 9.810161 594.557 9.810161z" stroke="#000000" stroke-width="0.4" fill="none" /><path id="1552" transform="matrix(1 0 0 -1 0 834)" d="M596.675 5.92813C 596.867 5.92813 597.011 6.06602 597.011 6.27617C 597.011 6.46797 596.867 6.61797 596.675 6.61797C 596.483 6.61797 596.3391 6.46797 596.3391 6.27617C 596.3391 6.06602 596.483 5.92813 596.675 5.92813zM596.669 8.466021C 596.477 8.466021 596.3391 8.328131 596.3391 8.13008C 596.3391 7.92617 596.477 7.78203 596.669 7.78203C 596.861 7.78203 597.005 7.92617 597.005 8.13008C 597.005 8.328131 596.861 8.466021 596.669 8.466021z" stroke="#000000" stroke-width="0.4" fill="none" /><path id="1553" transform="matrix(1 0 0 -1 0 834)" d="M599.657 6L599.657 6.16211C 599.111 6.20391 599.075 6.25195 599.075 6.68398L599.075 6.68398L599.075 9.810161C 598.7451 9.67813 598.3911 9.56406 598.007 9.49805L598.007 9.49805L598.007 9.36016L598.007 9.36016L598.295 9.34805C 598.559 9.33594 598.583 9.305861 598.583 8.99414L598.583 8.99414L598.583 6.68398C 598.583 6.25195 598.553 6.20391 598.007 6.16211L598.007 6.16211L598.007 6z" stroke="#000000" stroke-width="0.4" fill="none" /><path id="1554" transform="matrix(1 0 0 -1 0 834)" d="M600.743 8.976171C 600.893 9.19805 601.133 9.45 601.463 9.45C 601.781 9.45 602.033 9.257811 602.033 8.88594C 602.033 8.44219 601.625 8.20781 601.073 8.03398L601.073 8.03398L601.115 7.86016C 601.211 7.88984 601.355 7.92617 601.499 7.92617C 601.841 7.92617 602.261 7.70391 602.261 7.15195C 602.261 6.55781 601.961 6.23984 601.535 6.23984C 601.1931 6.23984 600.947 6.40781 600.791 6.54609C 600.743 6.58789 600.695 6.58203 600.647 6.54609C 600.593 6.50391 600.515 6.42617 600.509 6.34805C 600.497 6.27617 600.521 6.21016 600.605 6.13203C 600.683 6.06016 600.929 5.92813 601.205 5.92813C 601.637 5.92813 602.777 6.37188 602.777 7.34414C 602.777 7.78203 602.471 8.153911 601.9431 8.25586L601.9431 8.25586L601.9431 8.26797C 602.117 8.38789 602.261 8.49609 602.351 8.59219C 602.465 8.70586 602.537 8.84414 602.537 9.01797C 602.537 9.47383 602.183 9.810161 601.643 9.810161C 601.325 9.810161 601.049 9.66016 600.881 9.47383L600.881 9.47383L600.617 9.09609z" stroke="#000000" stroke-width="0.4" fill="none" /><path id="1555" transform="matrix(1 0 0 -1 0 834)" d="M605.489 8.08203C 605.651 8.20195 605.897 8.33398 606.0891 8.33398C 606.527 8.33398 606.893 7.97383 606.893 7.33203C 606.893 6.65391 606.557 6.22188 606.053 6.22188C 605.8491 6.22188 605.621 6.31797 605.489 6.45586zM605.489 8.28008L605.489 8.75391C 605.207 8.63984 604.871 8.53789 604.619 8.49609L604.619 8.49609L604.619 8.351951C 604.991 8.30391 605.015 8.29219 605.015 7.90195L605.015 7.90195L605.015 5.18984C 605.015 4.79414 604.961 4.75781 604.577 4.72188L604.577 4.72188L604.577 4.56016L604.577 4.56016L605.999 4.56016L605.999 4.56016L605.999 4.72188C 605.531 4.76406 605.489 4.79414 605.489 5.25L605.489 5.25L605.489 6.03594C 605.567 5.99414 605.729 5.93398 605.903 5.92813C 606.683 6.07188 607.397 6.65391 607.397 7.56016C 607.397 8.153911 607.001 8.69414 606.335 8.69414C 606.263 8.69414 606.149 8.664061 606.041 8.60391z" stroke="#000000" stroke-width="0.4" fill="none" /><path id="1556" transform="matrix(1 0 0 -1 0 834)" d="M608.303 5.92813C 608.4951 5.92813 608.639 6.06602 608.639 6.27617C 608.639 6.46797 608.4951 6.61797 608.303 6.61797C 608.111 6.61797 607.967 6.46797 607.967 6.27617C 607.967 6.06602 608.111 5.92813 608.303 5.92813z" stroke="#000000" stroke-width="0.4" fill="none" /><path id="1557" transform="matrix(1 0 0 -1 0 834)" d="M615.125 6L615.125 6.15586C 614.783 6.19219 614.735 6.21602 614.735 6.61797L614.735 6.61797L614.735 7.77617C 614.735 8.36406 614.441 8.69414 613.973 8.69414C 613.805 8.69414 613.649 8.621881 613.523 8.53789C 613.373 8.44805 613.199 8.33398 613.025 8.20195C 612.905 8.51406 612.647 8.69414 612.359 8.69414C 612.167 8.69414 612.023 8.628131 611.867 8.53203C 611.687 8.417971 611.555 8.310161 611.429 8.226171L611.429 8.226171L611.429 8.712111C 611.165 8.59219 610.859 8.51406 610.595 8.466021L610.595 8.466021L610.595 8.328131C 610.9431 8.273829 610.961 8.24414 610.961 7.86016L610.961 7.86016L610.961 6.61797C 610.961 6.22813 610.907 6.19219 610.511 6.15586L610.511 6.15586L610.511 6L610.511 6L611.777 6L611.777 6L611.777 6.15586C 611.483 6.19219 611.435 6.22813 611.435 6.61797L611.435 6.61797L611.435 8.028131C 611.615 8.17813 611.8491 8.33984 612.0891 8.33984C 612.455 8.33984 612.611 8.09414 612.611 7.65L612.611 7.65L612.611 6.61797C 612.611 6.22188 612.557 6.19219 612.185 6.15586L612.185 6.15586L612.185 6L612.185 6L613.469 6L613.469 6L613.469 6.15586C 613.139 6.19219 613.085 6.22813 613.085 6.60586L613.085 6.60586L613.085 7.77617C 613.085 7.88984 613.079 7.95586 613.067 8.028131C 613.295 8.21992 613.523 8.33984 613.739 8.33984C 614.117 8.33984 614.267 8.069921 614.267 7.64414L614.267 7.64414L614.267 6.64219C 614.267 6.21602 614.201 6.19219 613.847 6.15586L613.847 6.15586L613.847 6z" stroke="#000000" stroke-width="0.4" fill="none" /><path id="1558" transform="matrix(1 0 0 -1 0 834)" d="M615.947 5.92813C 616.139 5.92813 616.283 6.06602 616.283 6.27617C 616.283 6.46797 616.139 6.61797 615.947 6.61797C 615.755 6.61797 615.611 6.46797 615.611 6.27617C 615.611 6.06602 615.755 5.92813 615.947 5.92813z" stroke="#000000" stroke-width="0.4" fill="none" /></g></g></svg>