<svg xmlns="http://www.w3.org/2000/svg" xmlns:xlink="http://www.w3.org/1999/xlink" id="body_1" preserveAspectRatio="xMinYMin meet" viewBox="0 0 872 1112"><defs><clipPath id="1"><path id="" clip-rule="evenodd" transform="matrix(1 0 0 1 0 0)" d="M0 834L0 0L0 0L654 0L654 0L654 834L654 834L0 834z" /></clipPath><clipPath id="2"><path id="" clip-rule="evenodd" transform="matrix(1 0 0 1 0 0)" d="M21 813L633 813L633 813L633 21L633 21L21 21z" /></clipPath><clipPath id="3"><path id="" clip-rule="evenodd" transform="matrix(1 0 0 1 0 0)" d="M250.668 640.569L252.0551 640.569L252.0551 640.569L252.0551 617.2768L252.0551 617.2768L250.668 617.2768z" /></clipPath><clipPath id="4"><path id="" clip-rule="evenodd" transform="matrix(1 0 0 1 0 0)" d="M250.668 640.569L252.055 640.569L252.055 640.569L252.055 617.277L252.055 617.277L250.668 617.277z" /></clipPath><clipPath id="5"><path id="" clip-rule="evenodd" transform="matrix(1 0 0 1 0 0)" d="M250.668 640.569L252.0551 640.569L252.0551 640.569L252.0551 617.2768L252.0551 617.2768L250.668 617.2768z" /></clipPath><clipPath id="6"><path id="" clip-rule="evenodd" transform="matrix(1 0 0 1 0 0)" d="M250.668 640.569L252.0539 640.569L252.0539 640.569L252.0539 617.276L252.0539 617.276L250.668 617.276z" /></clipPath><clipPath id="7"><path id="" clip-rule="evenodd" transform="matrix(1 0 0 1 0 0)" d="M198.134 708.969L322.349 708.969L322.349 708.969L322.349 568.38L322.349 568.38L198.134 568.38z" /></clipPath><clipPath id="8"><path id="" clip-rule="evenodd" transform="matrix(1 0 0 1 0 0)" d="M209.709 644.468L209.709 684.894C 213.496 687.367 218.021 688.805 222.881 688.805L222.881 688.805L222.881 688.805C 236.204 688.805 247.005 678.004 247.005 664.681L247.005 664.681L247.005 664.681C 247.005 651.359 236.204 640.558 222.881 640.558L222.881 640.558L222.881 640.558C 218.021 640.558 213.496 641.996 209.709 644.468" /></clipPath><clipPath id="9"><path id="" clip-rule="evenodd" transform="matrix(1 0 0 1 0 0)" d="M209.709 644.468L209.709 684.894C 213.496 687.367 218.021 688.805 222.881 688.805L222.881 688.805L222.881 688.805C 236.204 688.805 247.005 678.004 247.005 664.681L247.005 664.681L247.005 664.681C 247.005 651.359 236.204 640.558 222.881 640.558L222.881 640.558L222.881 640.558C 218.021 640.558 213.496 641.996 209.709 644.468" /></clipPath><clipPath id="10"><path id="" clip-rule="evenodd" transform="matrix(1 0 0 1 0 0)" d="M198.134 708.969L322.349 708.969L322.349 708.969L322.349 568.38L322.349 568.38L198.134 568.38z" /></clipPath><clipPath id="11"><path id="" clip-rule="evenodd" transform="matrix(1 0 0 1 0 0)" d="M184.316 252.876L281.8699 252.876L281.8699 252.876L281.8699 127.299L281.8699 127.299L184.316 127.299z" /></clipPath><clipPath id="12"><path id="" clip-rule="evenodd" transform="matrix(1 0 0 1 0 0)" d="M184.316 252.876L281.8699 252.876L281.8699 252.876L281.8699 127.299L281.8699 127.299L184.316 127.299z" /></clipPath><clipPath id="13"><path id="" clip-rule="evenodd" transform="matrix(1 0 0 1 0 0)" d="M184.316 252.876L286.228 252.876L286.228 252.876L286.228 127.299L286.228 127.299L184.316 127.299z" /></clipPath><clipPath id="14"><path id="" clip-rule="evenodd" transform="matrix(1 0 0 1 0 0)" d="M243.886 181.304C 243.886 193.375 253.244 203.1609 264.789 203.1609L264.789 203.1609L264.789 203.1609C 276.333 203.1609 285.692 193.375 285.692 181.304L285.692 181.304L285.692 181.304C 285.692 169.232 276.333 159.446 264.789 159.446L264.789 159.446L264.789 159.446C 253.244 159.446 243.886 169.232 243.886 181.304" /></clipPath><clipPath id="15"><path id="" clip-rule="evenodd" transform="matrix(1 0 0 1 0 0)" d="M243.886 181.304C 243.886 193.375 253.244 203.1609 264.789 203.1609L264.789 203.1609L264.789 203.1609C 276.333 203.1609 285.692 193.375 285.692 181.304L285.692 181.304L285.692 181.304C 285.692 169.232 276.333 159.446 264.789 159.446L264.789 159.446L264.789 159.446C 253.244 159.446 243.886 169.232 243.886 181.304" /></clipPath><clipPath id="16"><path id="" clip-rule="evenodd" transform="matrix(1 0 0 1 0 0)" d="M184.316 252.876L286.228 252.876L286.228 252.876L286.228 127.299L286.228 127.299L184.316 127.299z" /></clipPath><clipPath id="17"><path id="" clip-rule="evenodd" transform="matrix(1 0 0 1 0 0)" d="M224.412 169.783L227.4378 169.783L227.4378 169.783L227.4378 159.4982L227.4378 159.4982L224.412 159.4982z" /></clipPath><clipPath id="18"><path id="" clip-rule="evenodd" transform="matrix(1 0 0 1 0 0)" d="M224.412 169.783L227.438 169.783L227.438 169.783L227.438 159.498L227.438 159.498L224.412 159.498z" /></clipPath><clipPath id="19"><path id="" clip-rule="evenodd" transform="matrix(1 0 0 1 0 0)" d="M224.412 169.783L227.4378 169.783L227.4378 169.783L227.4378 159.4982L227.4378 159.4982L224.412 159.4982z" /></clipPath><clipPath id="20"><path id="" clip-rule="evenodd" transform="matrix(1 0 0 1 0 0)" d="M226.853 482.888L311.153 482.888L311.153 482.888L311.153 355.232L311.153 355.232L226.853 355.232z" /></clipPath><clipPath id="21"><path id="" clip-rule="evenodd" transform="matrix(1 0 0 1 0 0)" d="M226.853 482.888L311.153 482.888L311.153 482.888L311.153 355.232L311.153 355.232L226.853 355.232z" /></clipPath><clipPath id="22"><path id="" clip-rule="evenodd" transform="matrix(1 0 0 1 0 0)" d="M131.915 483.599L338.224 483.599L338.224 483.599L338.224 347.827L338.224 347.827L131.915 347.827z" /></clipPath><clipPath id="23"><path id="" clip-rule="evenodd" transform="matrix(1 0 0 1 0 0)" d="M198.088 432.459C 196.456 433.607 194.954 434.927 193.607 436.392L193.607 436.392L193.607 436.392L193.607 436.392L193.607 473.996C 198.685 479.519 205.97 482.978 214.064 482.978L214.064 482.978L214.064 482.978C 229.409 482.978 241.849 470.539 241.849 455.194L241.849 455.194L241.849 455.194C 241.849 445.795 237.182 437.487 230.04 432.459L230.04 432.459L230.04 432.459z" /></clipPath><clipPath id="24"><path id="" clip-rule="evenodd" transform="matrix(1 0 0 1 0 0)" d="M198.088 432.459C 196.456 433.607 194.954 434.927 193.607 436.392L193.607 436.392L193.607 436.392L193.607 436.392L193.607 473.996C 198.685 479.519 205.97 482.978 214.064 482.978L214.064 482.978L214.064 482.978C 229.409 482.978 241.849 470.539 241.849 455.194L241.849 455.194L241.849 455.194C 241.849 445.795 237.182 437.487 230.04 432.459L230.04 432.459L230.04 432.459z" /></clipPath><clipPath id="25"><path id="" clip-rule="evenodd" transform="matrix(1 0 0 1 0 0)" d="M131.915 483.599L338.224 483.599L338.224 483.599L338.224 347.827L338.224 347.827L131.915 347.827z" /></clipPath><clipPath id="26"><path id="" clip-rule="evenodd" transform="matrix(1 0 0 1 0 0)" d="M259.175 389.237L266.273 389.237L266.273 389.237L266.273 365.9929L266.273 365.9929L259.175 365.9929z" /></clipPath><clipPath id="27"><path id="" clip-rule="evenodd" transform="matrix(1 0 0 1 0 0)" d="M259.175 389.237L266.273 389.237L266.273 389.237L266.273 365.993L266.273 365.993L259.175 365.993z" /></clipPath><clipPath id="28"><path id="" clip-rule="evenodd" transform="matrix(1 0 0 1 0 0)" d="M259.175 389.237L266.273 389.237L266.273 389.237L266.273 365.9929L266.273 365.9929L259.175 365.9929z" /></clipPath><clipPath id="29"><path id="" clip-rule="evenodd" transform="matrix(1 0 0 1 0 0)" d="M131.915 483.599L338.224 483.599L338.224 483.599L338.224 347.827L338.224 347.827L131.915 347.827z" /></clipPath><clipPath id="30"><path id="" clip-rule="evenodd" transform="matrix(1 0 0 1 0 0)" d="M301.525 429.674C 296.821 431.316 292.708 434.216 289.588 437.973L289.588 437.973L289.588 437.973L289.588 437.973L289.588 472.622C 294.565 478.615 302.072 482.43 310.47 482.43L310.47 482.43L310.47 482.43C 325.455 482.43 337.603 470.282 337.603 455.297L337.603 455.297L337.603 455.297C 337.603 443.447 330.006 433.37 319.416 429.674L319.416 429.674L319.416 429.674z" /></clipPath><clipPath id="31"><path id="" clip-rule="evenodd" transform="matrix(1 0 0 1 0 0)" d="M301.525 429.674C 296.821 431.316 292.708 434.216 289.588 437.973L289.588 437.973L289.588 437.973L289.588 437.973L289.588 472.622C 294.565 478.615 302.072 482.43 310.47 482.43L310.47 482.43L310.47 482.43C 325.455 482.43 337.603 470.282 337.603 455.297L337.603 455.297L337.603 455.297C 337.603 443.447 330.006 433.37 319.416 429.674L319.416 429.674L319.416 429.674z" /></clipPath><clipPath id="32"><path id="" clip-rule="evenodd" transform="matrix(1 0 0 1 0 0)" d="M131.915 483.599L338.224 483.599L338.224 483.599L338.224 347.827L338.224 347.827L131.915 347.827z" /></clipPath><clipPath id="33"><path id="" clip-rule="evenodd" transform="matrix(1 0 0 1 0 0)" d="M131.915 483.599L338.224 483.599L338.224 483.599L338.224 347.827L338.224 347.827L131.915 347.827z" /></clipPath><clipPath id="34"><path id="" clip-rule="evenodd" transform="matrix(1 0 0 1 0 0)" d="M355.346 167.197L390.921 167.197L390.921 167.197L390.921 112.824L390.921 112.824L355.346 112.824z" /></clipPath><clipPath id="35"><path id="" clip-rule="evenodd" transform="matrix(1 0 0 1 0 0)" d="M355.346 167.197L390.921 167.197L390.921 167.197L390.921 112.824L390.921 112.824L355.346 112.824z" /></clipPath><clipPath id="36"><path id="" clip-rule="evenodd" transform="matrix(1 0 0 1 0 0)" d="M344.859 378.065L385.9649 378.065L385.9649 378.065L385.9649 342.2072L385.9649 342.2072L344.859 342.2072z" /></clipPath><clipPath id="37"><path id="" clip-rule="evenodd" transform="matrix(1 0 0 1 0 0)" d="M344.859 378.065L385.9649 378.065L385.9649 378.065L385.9649 342.2072L385.9649 342.2072L344.859 342.2072z" /></clipPath><clipPath id="38"><path id="" clip-rule="evenodd" transform="matrix(1 0 0 1 0 0)" d="M357.614 608.563L387.8031 608.563L387.8031 608.563L387.8031 552.254L387.8031 552.254L357.614 552.254z" /></clipPath><clipPath id="39"><path id="" clip-rule="evenodd" transform="matrix(1 0 0 1 0 0)" d="M357.614 608.563L387.8031 608.563L387.8031 608.563L387.8031 552.254L387.8031 552.254L357.614 552.254z" /></clipPath><clipPath id="40"><path id="" clip-rule="evenodd" transform="matrix(1 0 0 1 0 0)" d="M208.569 378.065L234.1659 378.065L234.1659 378.065L234.1659 342.2072L234.1659 342.2072L208.569 342.2072z" /></clipPath><clipPath id="41"><path id="" clip-rule="evenodd" transform="matrix(1 0 0 1 0 0)" d="M208.569 378.065L234.1659 378.065L234.1659 378.065L234.1659 342.2072L234.1659 342.2072L208.569 342.2072z" /></clipPath><clipPath id="42"><path id="" clip-rule="evenodd" transform="matrix(1 0 0 1 0 0)" d="M207.122 409.358L235.6111 409.358L235.6111 409.358L235.6111 373.5006L235.6111 373.5006L207.122 373.5006z" /></clipPath><clipPath id="43"><path id="" clip-rule="evenodd" transform="matrix(1 0 0 1 0 0)" d="M207.122 409.358L235.6111 409.358L235.6111 409.358L235.6111 373.5006L235.6111 373.5006L207.122 373.5006z" /></clipPath><clipPath id="44"><path id="" clip-rule="evenodd" transform="matrix(1 0 0 1 0 0)" d="M151.149 682.323L166.465 682.323L166.465 682.323L166.465 648.8738L166.465 648.8738L151.149 648.8738z" /></clipPath><clipPath id="45"><path id="" clip-rule="evenodd" transform="matrix(1 0 0 1 0 0)" d="M151.149 682.323L166.465 682.323L166.465 682.323L166.465 648.8738L166.465 648.8738L151.149 648.8738z" /></clipPath><clipPath id="46"><path id="" clip-rule="evenodd" transform="matrix(1 0 0 1 0 0)" d="M145.838 646.464L171.4353 646.464L171.4353 646.464L171.4353 610.6058L171.4353 610.6058L145.838 610.6058z" /></clipPath><clipPath id="47"><path id="" clip-rule="evenodd" transform="matrix(1 0 0 1 0 0)" d="M145.838 646.464L171.4353 646.464L171.4353 646.464L171.4353 610.6058L171.4353 610.6058L145.838 610.6058z" /></clipPath><clipPath id="48"><path id="" clip-rule="evenodd" transform="matrix(1 0 0 1 0 0)" d="M103.205 395.993L128.8019 395.993L128.8019 395.993L128.8019 360.1352L128.8019 360.1352L103.205 360.1352z" /></clipPath><clipPath id="49"><path id="" clip-rule="evenodd" transform="matrix(1 0 0 1 0 0)" d="M103.205 395.993L128.8019 395.993L128.8019 395.993L128.8019 360.1352L128.8019 360.1352L103.205 360.1352z" /></clipPath><clipPath id="50"><path id="" clip-rule="evenodd" transform="matrix(1 0 0 1 0 0)" d="M163.016 180.165L188.6129 180.165L188.6129 180.165L188.6129 144.3072L188.6129 144.3072L163.016 144.3072z" /></clipPath><clipPath id="51"><path id="" clip-rule="evenodd" transform="matrix(1 0 0 1 0 0)" d="M163.016 180.165L188.6129 180.165L188.6129 180.165L188.6129 144.3072L188.6129 144.3072L163.016 144.3072z" /></clipPath><clipPath id="52"><path id="" clip-rule="evenodd" transform="matrix(1 0 0 1 0 0)" d="M282.53 184.417L308.1269 184.417L308.1269 184.417L308.1269 148.5596L308.1269 148.5596L282.53 148.5596z" /></clipPath><clipPath id="53"><path id="" clip-rule="evenodd" transform="matrix(1 0 0 1 0 0)" d="M282.53 184.417L308.1269 184.417L308.1269 184.417L308.1269 148.5596L308.1269 148.5596L282.53 148.5596z" /></clipPath></defs><g transform="matrix(1.333333 0 0 1.333333 0 0)"><g clip-path="url(#1)"><g clip-path="url(#2)"><path id="1" transform="matrix(1 0 0 -1 0 834)" d="M91.866 67.4211L562.134 67.4211L562.134 74.92501L91.866 74.92501z" stroke="none" fill="#686868" fill-rule="nonzero" /><path id="2" transform="matrix(1 0 0 -1 0 834)" d="M91.866 526.984L562.134 526.984" stroke="#686868" stroke-width="1" fill="none" /><path id="3" transform="matrix(1 0 0 -1 0 834)" d="M91.866 307.016L562.134 307.016" stroke="#686868" stroke-width="1" fill="none" /></g><g transform="matrix(1.006704 0 0 1.004207 229.732 568.38)"><g transform="matrix(1 0 0 1 0 0)"><image x="0" y="0" xlink:href="img_01.png" width="92" height="140" /></g></g><path id="9" transform="matrix(1 0 0 -1 0 834)" d="M251.361 193.43L251.361 183.519" stroke="#000000" stroke-width="1.386" fill="none" /><path id="10" transform="matrix(1 0 0 -1 0 834)" d="M248.794 185.466L251.361 184.375L253.928 185.466L251.361 179.38z" stroke="none" fill="#000000" fill-rule="nonzero" /><g clip-path="url(#3)"><g><g clip-path="url(#4)"><g clip-path="url(#5)"></g><g clip-path="url(#6)"><path id="12" transform="matrix(1 0 0 -1 0 834)" d="M251.361 216.723L251.361 193.43" stroke="#FFFFFF" stroke-width="1.386" fill="none" stroke-opacity="0.8" /></g></g></g></g><path id="14" transform="matrix(1 0 0 -1 0 834)" d="M251.361 219.034L251.361 216.723" stroke="#000000" stroke-width="1.386" fill="none" /><g clip-path="url(#7)"><path id="15" transform="matrix(1 0 0 -1 0 834)" d="M198.758 169.319C 198.758 155.996 209.559 145.196 222.881 145.196C 236.205 145.196 247.005 155.996 247.005 169.319C 247.005 182.642 236.205 193.442 222.881 193.442C 209.559 193.442 198.758 182.642 198.758 169.319" stroke="none" fill="#FFFFFF" fill-rule="nonzero" /></g><g clip-path="url(#8)"></g><g clip-path="url(#9)"><g transform="matrix(1.007393 0 0 1.006114 209.709 604.856)"><g transform="matrix(1 0 0 1 0 0)"><image x="0" y="0" xlink:href="img_02.png" width="69" height="105" /></g></g></g><g clip-path="url(#10)"><path id="17" transform="matrix(1 0 0 -1 0 834)" d="M198.758 169.319C 198.758 155.996 209.559 145.196 222.881 145.196C 236.205 145.196 247.005 155.996 247.005 169.319C 247.005 182.642 236.205 193.442 222.881 193.442C 209.559 193.442 198.758 182.642 198.758 169.319z" stroke="#000000" stroke-width="0.693" fill="none" /></g><g clip-path="url(#11)"></g><g clip-path="url(#12)"><g transform="matrix(1.005713 0 0 1.002194 184.316 123.593)"><g transform="matrix(1 0 0 1 0 0)"><image x="0" y="0" xlink:href="img_03.png" width="97" height="129" /></g></g></g><g clip-path="url(#13)"><path id="19" transform="matrix(1 0 0 -1 0 834)" d="M285.693 652.696C 285.693 640.625 276.334 630.8391 264.789 630.8391C 253.245 630.8391 243.886 640.625 243.886 652.696C 243.886 664.768 253.245 674.554 264.789 674.554C 276.334 674.554 285.693 664.768 285.693 652.696" stroke="none" fill="#FFFFFF" fill-rule="nonzero" /></g><g clip-path="url(#14)"></g><g clip-path="url(#15)"><g transform="matrix(1.005713 0 0 1.002194 218.747 137.417)"><g transform="matrix(1 0 0 1 0 0)"><image x="0" y="0" xlink:href="img_04.png" width="97" height="129" /></g></g></g><g clip-path="url(#16)"><path id="21" transform="matrix(1 0 0 -1 0 834)" d="M285.6931 652.6969C 285.6931 640.6255 276.3346 630.8389 264.79 630.8389C 253.2445 630.8389 243.886 640.6255 243.886 652.6969C 243.886 664.7683 253.2445 674.5539 264.79 674.5539C 276.3346 674.5539 285.6931 664.7683 285.6931 652.6969z" stroke="#000000" stroke-width="0.5955703" fill="none" /></g><g clip-path="url(#17)"><g><g clip-path="url(#18)"><g clip-path="url(#19)"><path id="22" transform="matrix(1 0 0 -1 0 834)" d="M224.412 666.7241L225.414 666.426L225.414 674.502L226.436 674.502L226.436 666.426L227.438 666.7241L225.925 664.216" stroke="none" fill="#FFFFFF" fill-rule="nonzero" fill-opacity="0.8" /></g></g></g></g><g transform="matrix(1.003585 0 0 1.005706 131.915 356.539)"><g transform="matrix(1 0 0 1 0 0)"><image x="0" y="0" xlink:href="img_05.png" width="84" height="126" /></g></g><g clip-path="url(#20)"></g><g clip-path="url(#21)"><g transform="matrix(1.003585 0 0 1.005165 226.853 355.232)"><g transform="matrix(1 0 0 1 0 0)"><image x="0" y="0" xlink:href="img_06.png" width="84" height="127" /></g></g></g><path id="25" transform="matrix(1 0 0 -1 0 834)" d="M135.859 455.397L153.153 455.858" stroke="none" fill="#FFFFFF" fill-rule="nonzero" /><path id="26" transform="matrix(1 0 0 -1 0 834)" d="M153.152 455.858L137.915 455.452" stroke="#000000" stroke-width="0.689" fill="none" /><path id="27" transform="matrix(1 0 0 -1 0 834)" d="M138.849 456.754L138.341 455.464L138.917 454.202L135.859 455.397z" stroke="none" fill="#000000" fill-rule="nonzero" /><g clip-path="url(#22)"><path id="28" transform="matrix(1 0 0 -1 0 834)" d="M186.279 378.806C 186.279 363.461 198.719 351.021 214.064 351.021C 229.409 351.021 241.849 363.461 241.849 378.806C 241.849 394.151 229.409 406.591 214.064 406.591C 198.719 406.591 186.279 394.151 186.279 378.806" stroke="none" fill="#FFFFFF" fill-rule="nonzero" /></g><g clip-path="url(#23)"></g><g clip-path="url(#24)"><g transform="matrix(1.007766 0 0 1.005394 193.607 432.4585)"><g transform="matrix(1 0 0 1 0 0)"><image x="0" y="0" xlink:href="img_07.png" width="56" height="85" /></g></g></g><g clip-path="url(#25)"><path id="30" transform="matrix(1 0 0 -1 0 834)" d="M186.279 378.806C 186.279 363.461 198.719 351.021 214.064 351.021C 229.409 351.021 241.849 363.461 241.849 378.806C 241.849 394.151 229.409 406.591 214.064 406.591C 198.719 406.591 186.279 394.151 186.279 378.806z" stroke="#000000" stroke-width="0.689" fill="none" /><path id="31" transform="matrix(1 0 0 -1 0 834)" d="M264.724 444.763C 264.294 443.757 263.775 442.838 263.17 442.038C 261.381 439.674 259.113 438.69 256.784 439.268C 255.216 439.658 253.747 440.727 252.497 442.355L252.497 442.355L252.094 440.474L252.094 440.474L248.657 449.447L248.657 449.447L249.501 448.977L249.501 448.977L250.981 448.151L250.981 448.151L255.482 445.639L255.482 445.639L253.177 443.846C 254.278 442.408 255.571 441.464 256.95 441.122C 257.329 441.028 257.706 440.981 258.078 440.981C 259.69 440.981 261.219 441.851 262.472 443.507C 262.956 444.147 263.376 444.875 263.731 445.671" stroke="none" fill="#000000" fill-rule="nonzero" /><path id="32" transform="matrix(1 0 0 -1 0 834)" d="M259.175 466.247C 258.84 466.408 258.499 466.532 258.151 466.618C 256.47 467.036 254.83 466.514 253.436 465.151L253.436 465.151L251.543 465.151C 251.669 465.34 251.797 465.525 251.931 465.702C 253.386 467.624 255.156 468.633 257.019 468.633C 257.447 468.633 257.881 468.58 258.317 468.471C 258.742 468.366 259.161 468.21 259.569 468.007" stroke="none" fill="#000000" fill-rule="nonzero" /></g><g clip-path="url(#26)"><g><g clip-path="url(#27)"><g clip-path="url(#28)"><path id="33" transform="matrix(1 0 0 -1 0 834)" d="M264.724 444.763C 266.911 449.876 266.817 457.242 264.228 462.693C 263.006 465.266 261.383 467.105 259.569 468.007L259.569 468.007L259.175 466.247C 260.799 465.468 262.254 463.832 263.347 461.53C 265.65 456.681 265.716 450.126 263.731 445.671" stroke="none" fill="#FFFFFF" fill-rule="nonzero" fill-opacity="0.8" /></g></g></g></g><g clip-path="url(#29)"><path id="34" transform="matrix(1 0 0 -1 0 834)" d="M283.338 378.703C 283.338 363.718 295.486 351.57 310.471 351.57C 325.456 351.57 337.604 363.718 337.604 378.703C 337.604 393.688 325.456 405.836 310.471 405.836C 295.486 405.836 283.338 393.688 283.338 378.703" stroke="none" fill="#FFFFFF" fill-rule="nonzero" /></g><g clip-path="url(#30)"></g><g clip-path="url(#31)"><g transform="matrix(0.997004 0 0 1.00586 289.588 429.6742)"><g transform="matrix(1 0 0 1 0 0)"><image x="0" y="0" xlink:href="img_08.png" width="50" height="80" /></g></g></g><g clip-path="url(#32)"><path id="36" transform="matrix(1 0 0 -1 0 834)" d="M283.338 378.703C 283.338 363.718 295.486 351.57 310.471 351.57C 325.456 351.57 337.604 363.718 337.604 378.703C 337.604 393.688 325.456 405.836 310.471 405.836C 295.486 405.836 283.338 393.688 283.338 378.703z" stroke="#000000" stroke-width="0.689" fill="none" /><path id="37" transform="matrix(1 0 0 -1 0 834)" d="M161.339 484.784C 159.327 484.784 157.696 483.152 157.696 481.14C 157.696 479.128 159.327 477.497 161.339 477.497C 163.351 477.497 164.982 479.128 164.982 481.14C 164.982 483.152 163.351 484.784 161.339 484.784M161.339 477.94C 159.583 477.94 158.159 479.364 158.159 481.12C 158.159 482.877 159.583 484.301 161.339 484.301C 163.095 484.301 164.519 482.877 164.519 481.12C 164.519 479.364 163.095 477.94 161.339 477.94" stroke="none" fill="#000000" fill-rule="nonzero" /></g><g clip-path="url(#33)"><path id="39" transform="matrix(1 0 0 -1 0 834)" d="M253.902 484.06C 251.89 484.06 250.259 482.428 250.259 480.416C 250.259 478.404 251.89 476.773 253.902 476.773C 255.914 476.773 257.545 478.404 257.545 480.416C 257.545 482.428 255.914 484.06 253.902 484.06M253.902 477.216C 252.145 477.216 250.722 478.64 250.722 480.396C 250.722 482.153 252.145 483.577 253.902 483.577C 255.658 483.577 257.082 482.153 257.082 480.396C 257.082 478.64 255.658 477.216 253.902 477.216" stroke="none" fill="#000000" fill-rule="nonzero" /></g><g clip-path="url(#34)"></g><g clip-path="url(#35)"><g transform="matrix(1.016423 0 0 1.006919 355.346 112.8234)"><g transform="matrix(1 0 0 1 0 0)"><image x="0" y="0" xlink:href="img_09.png" width="35" height="54" /></g></g></g><g clip-path="url(#36)"></g><g clip-path="url(#37)"><g transform="matrix(1.002838 0 0 0.996064 343.846 342.2067)"><g transform="matrix(1 0 0 1 0 0)"><image x="0" y="0" xlink:href="img_10.png" width="42" height="36" /></g></g></g><g clip-path="url(#38)"></g><g clip-path="url(#39)"><g transform="matrix(1.0063 0 0 1.005563 357.614 552.2539)"><g transform="matrix(1 0 0 1 0 0)"><image x="0" y="0" xlink:href="img_11.png" width="30" height="57" /></g></g></g><g clip-path="url(#40)"></g><g clip-path="url(#41)"><g transform="matrix(1.023122 0 0 1.006568 207.558 341.8329)"><g transform="matrix(1 0 0 1 0 0)"><image x="0" y="0" xlink:href="img_12.png" width="27" height="37" /></g></g></g><g clip-path="url(#42)"></g><g clip-path="url(#43)"><g transform="matrix(1.01707 0 0 0.996779 206.105 372.4984)"><g transform="matrix(1 0 0 1 0 0)"><image x="0" y="0" xlink:href="img_13.png" width="30" height="38" /></g></g></g><path id="1139" transform="matrix(1 0 0 -1 0 834)" d="M145.838 151.677L171.4353 151.677L171.4353 187.5352L145.838 187.5352z" stroke="none" fill="#FFFFFF" fill-rule="nonzero" /><g clip-path="url(#44)"></g><g clip-path="url(#45)"><g transform="matrix(1.021053 0 0 1.014094 151.149 648.8738)"><g transform="matrix(1 0 0 1 0 0)"><image x="0" y="0" xlink:href="img_14.png" width="15" height="34" /></g></g></g><g clip-path="url(#46)"></g><g clip-path="url(#47)"><g transform="matrix(1.022248 0 0 0.9972106 144.837 609.585)"><g transform="matrix(1 0 0 1 0 0)"><image x="0" y="0" xlink:href="img_15.png" width="27" height="38" /></g></g></g><g clip-path="url(#48)"></g><g clip-path="url(#49)"><g transform="matrix(1.022248 0 0 0.9972106 102.204 359.114)"><g transform="matrix(1 0 0 1 0 0)"><image x="0" y="0" xlink:href="img_15.png" width="27" height="38" /></g></g></g><g clip-path="url(#50)"></g><g clip-path="url(#51)"><g transform="matrix(1.022248 0 0 0.9972106 162.015 143.286)"><g transform="matrix(1 0 0 1 0 0)"><image x="0" y="0" xlink:href="img_15.png" width="27" height="38" /></g></g></g><g clip-path="url(#52)"></g><g clip-path="url(#53)"><g transform="matrix(-1.022248 0 0 0.9972106 309.127 147.538)"><g transform="matrix(1 0 0 1 0 0)"><image x="0" y="0" xlink:href="img_15.png" width="27" height="38" /></g></g></g><path id="1145" transform="matrix(1 0 0 -1 0 834)" d="M633 15L633 0M633 819L633 834M21 15L21 0M21 819L21 834M639 21L654 21M15 21L0 21M639 813L654 813M15 813L0 813" stroke="#000000" stroke-width="1.25" fill="none" /><path id="1146" transform="matrix(1 0 0 -1 0 834)" d="M633 15L633 0M633 819L633 834M21 15L21 0M21 819L21 834M639 21L654 21M15 21L0 21M639 813L654 813M15 813L0 813" stroke="#000000" stroke-width="0.25" fill="none" /><path id="1147" transform="matrix(1 0 0 -1 0 834)" d="M32.2781 9.28203C 32.2781 9.516021 32.2961 9.58203 32.3559 9.62383C 32.416 9.66602 32.5719 9.69609 32.8238 9.69609C 33.2262 9.69609 33.5738 9.62383 33.8441 9.45C 34.3238 9.167971 34.552 8.63398 34.552 8.016021C 34.552 7.05586 34.0359 6.21602 32.9141 6.21602C 32.4762 6.21602 32.2781 6.33008 32.2781 6.78594zM31.252 9.900001L31.252 9.726171C 31.7141 9.68984 31.7621 9.66602 31.7621 9.150001L31.7621 9.150001L31.7621 6.74414C 31.7621 6.23398 31.7141 6.19805 31.198 6.16211L31.198 6.16211L31.198 6L31.198 6L32.6199 6C 33.3578 6 33.952 6.15 34.402 6.49805C 34.8641 6.84609 35.1398 7.38008 35.1398 8.1C 35.1398 8.664061 34.9301 9.101951 34.6359 9.38984C 34.2641 9.74414 33.7 9.900001 32.9379 9.900001z" stroke="#000000" stroke-width="0.4" fill="none" /><path id="1148" transform="matrix(1 0 0 -1 0 834)" d="M38.3801 6.97813C 38.2898 6.70195 38.1758 6.51016 38.0738 6.38984C 37.9359 6.23398 37.732 6.20391 37.402 6.20391C 37.15 6.20391 36.9461 6.21602 36.8258 6.28203C 36.718 6.34219 36.6879 6.46211 36.6879 6.78594L36.6879 6.78594L36.6879 9.15586C 36.6879 9.66602 36.7418 9.69609 37.216 9.73203L37.216 9.73203L37.216 9.900001L37.216 9.900001L35.65 9.900001L35.65 9.900001L35.65 9.73203C 36.1359 9.69609 36.1777 9.66602 36.1777 9.15586L36.1777 9.15586L36.1777 6.75586C 36.1777 6.24609 36.1301 6.20391 35.6258 6.16797L35.6258 6.16797L35.6258 6L35.6258 6L38.3438 6C 38.398 6.18594 38.5238 6.75586 38.5598 6.94219z" stroke="#000000" stroke-width="0.4" fill="none" /><path id="1149" transform="matrix(1 0 0 -1 0 834)" d="M41.0918 9.023829C 41.0438 9.40195 41.0141 9.63594 40.9898 9.851951C 40.7617 9.92383 40.5098 9.989841 40.234 9.989841C 39.4598 9.989841 38.998 9.49805 38.998 8.921881C 38.998 8.24414 39.6039 7.94414 39.9879 7.73984C 40.4379 7.5 40.768 7.28984 40.768 6.84609C 40.768 6.40781 40.498 6.12617 40.048 6.12617C 39.4301 6.12617 39.1598 6.73203 39.0641 7.09805L39.0641 7.09805L38.8898 7.05586C 38.9258 6.767971 39.0039 6.25195 39.052 6.12617C 39.1059 6.09609 39.1961 6.05391 39.3461 6C 39.4961 5.95781 39.6879 5.91016 39.934 5.91016C 40.732 5.91016 41.266 6.41406 41.266 7.04414C 41.266 7.71602 40.6961 7.99805 40.2277 8.23789C 39.7539 8.48398 39.466 8.68789 39.466 9.12617C 39.466 9.45 39.6699 9.78594 40.132 9.78594C 40.6539 9.78594 40.8098 9.371881 40.918 8.98789z" stroke="#000000" stroke-width="0.4" fill="none" /><path id="1150" transform="matrix(1 0 0 -1 0 834)" d="M46.648 6L46.648 6.16797C 46.1258 6.21602 46.1078 6.24609 46.0898 6.88203L46.0898 6.88203L46.0301 9.05391C 46.0117 9.671881 46.0539 9.68398 46.582 9.73203L46.582 9.73203L46.582 9.900001L46.582 9.900001L45.5617 9.900001L45.5617 9.900001L44.1758 6.9L44.1758 6.9L42.8078 9.900001L42.8078 9.900001L41.8238 9.900001L41.8238 9.900001L41.8238 9.73203C 42.3699 9.67813 42.4 9.653911 42.3461 8.87383L42.3461 8.87383L42.2617 7.626171C 42.2141 7.00195 42.1777 6.73789 42.148 6.528131C 42.1059 6.27617 41.9859 6.21016 41.6379 6.16797L41.6379 6.16797L41.6379 6L41.6379 6L43.0359 6L43.0359 6L43.0359 6.16797C 42.6398 6.21016 42.4961 6.25195 42.484 6.53984C 42.4777 6.78008 42.4777 7.04414 42.502 7.53594L42.502 7.53594L42.5918 9.24609L42.5918 9.24609L42.6039 9.24609L42.6039 9.24609L43.948 6.04219L43.948 6.04219L44.068 6.04219L44.068 6.04219L45.532 9.33008L45.532 9.33008L45.5559 9.33008L45.5559 9.33008L45.5738 6.88203C 45.5801 6.24609 45.5559 6.21602 45.0699 6.16797L45.0699 6.16797L45.0699 6z" stroke="#000000" stroke-width="0.4" fill="none" /><path id="1151" transform="matrix(1 0 0 -1 0 834)" d="M51.8738 7.05586C 51.5738 6.45586 51.2496 6.12617 50.6379 6.12617C 49.7258 6.12617 49.0656 6.89414 49.0656 8.016021C 49.0656 8.92813 49.5996 9.773829 50.602 9.773829C 51.2496 9.773829 51.6098 9.516021 51.7656 8.88008L51.7656 8.88008L51.9457 8.921881C 51.9098 9.24609 51.8738 9.48594 51.8258 9.828131C 51.6578 9.85781 51.2496 9.989841 50.7637 9.989841C 49.4258 9.989841 48.4539 9.15586 48.4539 7.89609C 48.4539 6.94219 49.1078 5.91016 50.602 5.91016C 51.034 5.91016 51.5379 6.03008 51.7059 6.07188C 51.8137 6.26992 51.9637 6.71406 52.0477 6.98984z" stroke="#000000" stroke-width="0.4" fill="none" /><path id="1152" transform="matrix(1 0 0 -1 0 834)" d="M54.3398 9.773829C 55.1258 9.773829 55.7855 9.101951 55.7855 7.83594C 55.7855 6.68398 55.1855 6.12617 54.5195 6.12617C 53.6738 6.12617 53.0559 6.94805 53.0559 8.076171C 53.0559 9.19805 53.6676 9.773829 54.3398 9.773829zM54.4598 9.989841C 53.1996 9.989841 52.4438 8.98789 52.4438 7.90781C 52.4438 6.75586 53.3078 5.91016 54.3938 5.91016C 55.4918 5.91016 56.3977 6.70195 56.3977 7.99805C 56.3977 9.19805 55.4797 9.989841 54.4598 9.989841z" stroke="#000000" stroke-width="0.4" fill="none" /><path id="1153" transform="matrix(1 0 0 -1 0 834)" d="M61.8277 6L61.8277 6.16797C 61.3059 6.21602 61.2879 6.24609 61.2695 6.88203L61.2695 6.88203L61.2098 9.05391C 61.1918 9.671881 61.2336 9.68398 61.7617 9.73203L61.7617 9.73203L61.7617 9.900001L61.7617 9.900001L60.7418 9.900001L60.7418 9.900001L59.3559 6.9L59.3559 6.9L57.9879 9.900001L57.9879 9.900001L57.0035 9.900001L57.0035 9.900001L57.0035 9.73203C 57.5496 9.67813 57.5797 9.653911 57.5258 8.87383L57.5258 8.87383L57.4418 7.626171C 57.3938 7.00195 57.3578 6.73789 57.3277 6.528131C 57.2855 6.27617 57.1656 6.21016 56.8176 6.16797L56.8176 6.16797L56.8176 6L56.8176 6L58.2156 6L58.2156 6L58.2156 6.16797C 57.8195 6.21016 57.6758 6.25195 57.6637 6.53984C 57.6578 6.78008 57.6578 7.04414 57.6816 7.53594L57.6816 7.53594L57.7719 9.24609L57.7719 9.24609L57.7836 9.24609L57.7836 9.24609L59.1277 6.04219L59.1277 6.04219L59.2477 6.04219L59.2477 6.04219L60.7117 9.33008L60.7117 9.33008L60.7355 9.33008L60.7355 9.33008L60.7535 6.88203C 60.7598 6.24609 60.7355 6.21602 60.2496 6.16797L60.2496 6.16797L60.2496 6z" stroke="#000000" stroke-width="0.4" fill="none" /><path id="1154" transform="matrix(1 0 0 -1 0 834)" d="M63.8258 6L63.8258 6.16797C 63.3336 6.20391 63.2855 6.23398 63.2855 6.75L63.2855 6.75L63.2855 9.150001C 63.2855 9.66016 63.3336 9.69609 63.8258 9.73203L63.8258 9.73203L63.8258 9.900001L63.8258 9.900001L62.2355 9.900001L62.2355 9.900001L62.2355 9.73203C 62.7277 9.69609 62.7758 9.66016 62.7758 9.150001L62.7758 9.150001L62.7758 6.75C 62.7758 6.23984 62.7277 6.20391 62.2355 6.16797L62.2355 6.16797L62.2355 6z" stroke="#000000" stroke-width="0.4" fill="none" /><path id="1155" transform="matrix(1 0 0 -1 0 834)" d="M66.5074 9.023829C 66.4598 9.40195 66.4297 9.63594 66.4055 9.851951C 66.1777 9.92383 65.9258 9.989841 65.6496 9.989841C 64.8758 9.989841 64.4137 9.49805 64.4137 8.921881C 64.4137 8.24414 65.0195 7.94414 65.4035 7.73984C 65.8535 7.5 66.1836 7.28984 66.1836 6.84609C 66.1836 6.40781 65.9137 6.12617 65.46371 6.12617C 64.8457 6.12617 64.5758 6.73203 64.4797 7.09805L64.4797 7.09805L64.3055 7.05586C 64.3418 6.767971 64.4195 6.25195 64.46761 6.12617C 64.52151 6.09609 64.6117 6.05391 64.7617 6C 64.91171 5.95781 65.1035 5.91016 65.3496 5.91016C 66.1477 5.91016 66.6816 6.41406 66.6816 7.04414C 66.6816 7.71602 66.1117 7.99805 65.6438 8.23789C 65.1695 8.48398 64.8816 8.68789 64.8816 9.12617C 64.8816 9.45 65.0855 9.78594 65.5477 9.78594C 66.0695 9.78594 66.2258 9.371881 66.3336 8.98789z" stroke="#000000" stroke-width="0.4" fill="none" /><path id="1156" transform="matrix(1 0 0 -1 0 834)" d="M69.4055 7.68008L68.3016 7.68008C 68.4816 8.171881 68.6734 8.69414 68.8656 9.21016L68.8656 9.21016L68.8777 9.21016zM70.9355 6L70.9355 6.16797C 70.5457 6.20391 70.46761 6.25781 70.2758 6.77383C 69.89181 7.81797 69.4895 8.95781 69.11761 9.989841L69.11761 9.989841L68.9316 9.93594L68.9316 9.93594L67.68951 6.78594C 67.4797 6.25781 67.3957 6.22188 67.0176 6.16797L67.0176 6.16797L67.0176 6L67.0176 6L68.3195 6L68.3195 6L68.3195 6.16797C 67.8695 6.21016 67.81561 6.26992 67.9477 6.64805C 68.0258 6.9 68.1156 7.15195 68.2117 7.42188L68.2117 7.42188L69.4895 7.42188C 69.62151 7.05586 69.74181 6.73203 69.8195 6.49805C 69.8977 6.26406 69.8438 6.21602 69.4656 6.16797L69.4656 6.16797L69.4656 6z" stroke="#000000" stroke-width="0.4" fill="none" /><path id="1157" transform="matrix(1 0 0 -1 0 834)" d="M71.7273 5.92813C 71.9195 5.92813 72.06371 6.06602 72.06371 6.27617C 72.06371 6.46797 71.9195 6.61797 71.7273 6.61797C 71.5355 6.61797 71.3914 6.46797 71.3914 6.27617C 71.3914 6.06602 71.5355 5.92813 71.7273 5.92813z" stroke="#000000" stroke-width="0.4" fill="none" /><path id="1158" transform="matrix(1 0 0 -1 0 834)" d="M73.9234 6L73.9234 6.15586C 73.53951 6.19219 73.4977 6.22813 73.4977 6.63594L73.4977 6.63594L73.4977 8.70586C 73.2336 8.59805 72.9516 8.51992 72.6453 8.471881L72.6453 8.471881L72.6453 8.328131C 73.0055 8.26797 73.0234 8.24414 73.0234 7.871881L73.0234 7.871881L73.0234 6.63594C 73.0234 6.22813 72.9816 6.19219 72.6035 6.15586L72.6035 6.15586L72.6035 6zM73.2215 9.216021C 73.3953 9.216021 73.52731 9.36016 73.52731 9.52188C 73.52731 9.70195 73.3953 9.83398 73.2273 9.83398C 73.06561 9.83398 72.9215 9.70195 72.9215 9.52188C 72.9215 9.36016 73.06561 9.216021 73.2215 9.216021z" stroke="#000000" stroke-width="0.4" fill="none" /><path id="1159" transform="matrix(1 0 0 -1 0 834)" d="M77.1574 6L77.1574 6.15586C 76.8094 6.19219 76.7793 6.21602 76.7793 6.62383L76.7793 6.62383L76.7793 7.78203C 76.7793 8.36406 76.4793 8.69414 76.0055 8.69414C 75.8313 8.69414 75.67541 8.621881 75.5074 8.51406C 75.3574 8.41211 75.2254 8.32188 75.1055 8.23203L75.1055 8.23203L75.1055 8.712111C 74.8414 8.59219 74.5594 8.51992 74.27151 8.466021L74.27151 8.466021L74.27151 8.328131C 74.5953 8.26797 74.6313 8.25 74.6313 7.86602L74.6313 7.86602L74.6313 6.62383C 74.6313 6.22813 74.6016 6.19805 74.19341 6.15586L74.19341 6.15586L74.19341 6L74.19341 6L75.4953 6L75.4953 6L75.4953 6.15586C 75.1414 6.19219 75.1055 6.21602 75.1055 6.62383L75.1055 6.62383L75.1055 8.03398C 75.2855 8.18984 75.5195 8.33984 75.7594 8.33984C 76.1613 8.33984 76.3055 8.069921 76.3055 7.65586L76.3055 7.65586L76.3055 6.65391C 76.3055 6.23984 76.2633 6.19219 75.9094 6.15586L75.9094 6.15586L75.9094 6z" stroke="#000000" stroke-width="0.4" fill="none" /><path id="1160" transform="matrix(1 0 0 -1 0 834)" d="M79.4734 6.51016C 79.32931 6.40195 79.1133 6.30586 78.8973 6.30586C 78.5133 6.30586 78.0754 6.65391 78.0754 7.36797C 78.0754 8.23789 78.57931 8.471881 78.8555 8.471881C 79.0832 8.471881 79.32931 8.37617 79.4734 8.16602zM80.4035 6.30586L80.2113 6.32383C 79.9895 6.34805 79.9473 6.37813 79.9473 6.68984L79.9473 6.68984L79.9473 10.2719C 79.7254 10.1941 79.3234 10.1039 79.0113 10.0621L79.0113 10.0621L79.0113 9.917971C 79.44341 9.88789 79.4734 9.869921 79.4734 9.47383L79.4734 9.47383L79.4734 8.628131C 79.3355 8.67617 79.1613 8.69414 79.0773 8.69414C 78.2613 8.69414 77.5293 8.03984 77.5293 7.20586C 77.5293 6.36602 78.1594 5.92813 78.6395 5.92813C 78.7113 5.92813 78.87341 5.96406 79.1074 6.10195L79.1074 6.10195L79.4734 6.31797L79.4734 6.31797L79.4734 5.92813C 79.8215 6.05391 80.27151 6.13203 80.4035 6.15586z" stroke="#000000" stroke-width="0.4" fill="none" /><path id="1161" transform="matrix(1 0 0 -1 0 834)" d="M81.3813 8.24414C 81.4895 8.310161 81.6813 8.35781 81.84921 8.35781C 82.34731 8.35781 82.7676 7.96211 82.7676 7.278131C 82.7676 6.58203 82.4492 6.15586 81.9516 6.15586C 81.6336 6.16211 81.4535 6.37188 81.4176 6.49219C 81.3934 6.54609 81.3813 6.60586 81.3813 6.69609zM81.3813 8.42383L81.3813 10.2719C 81.1594 10.1941 80.7934 10.098 80.5113 10.0621L80.5113 10.0621L80.5113 9.92383C 80.8953 9.88789 80.9074 9.851951 80.9074 9.48008L80.9074 9.48008L80.9074 6.14414C 81.2375 5.98789 81.5434 5.92813 81.78951 5.92813C 82.59341 5.92813 83.2953 6.55195 83.2953 7.43398C 83.2953 8.14219 82.7555 8.69414 82.1133 8.69414C 82.0473 8.69414 81.9633 8.67617 81.86761 8.63398z" stroke="#000000" stroke-width="0.4" fill="none" /><path id="1162" transform="matrix(1 0 0 -1 0 834)" d="M88.1133 8.976171C 88.2633 9.19805 88.50311 9.45 88.8332 9.45C 89.15121 9.45 89.4031 9.257811 89.4031 8.88594C 89.4031 8.44219 88.9953 8.20781 88.44341 8.03398L88.44341 8.03398L88.4852 7.86016C 88.5813 7.88984 88.7254 7.92617 88.8691 7.92617C 89.2113 7.92617 89.6313 7.70391 89.6313 7.15195C 89.6313 6.55781 89.3313 6.23984 88.90511 6.23984C 88.5633 6.23984 88.3172 6.40781 88.1613 6.54609C 88.1133 6.58789 88.0652 6.58203 88.0172 6.54609C 87.9633 6.50391 87.8852 6.42617 87.8793 6.34805C 87.8672 6.27617 87.891 6.21016 87.9754 6.13203C 88.0531 6.06016 88.2992 5.92813 88.5754 5.92813C 89.007 5.92813 90.1473 6.37188 90.1473 7.34414C 90.1473 7.78203 89.841 8.153911 89.3133 8.25586L89.3133 8.25586L89.3133 8.26797C 89.4871 8.38789 89.6313 8.49609 89.7211 8.59219C 89.8352 8.70586 89.90701 8.84414 89.90701 9.01797C 89.90701 9.47383 89.5531 9.810161 89.0133 9.810161C 88.6953 9.810161 88.4191 9.66016 88.25121 9.47383L88.25121 9.47383L87.9871 9.09609z" stroke="#000000" stroke-width="0.4" fill="none" /><path id="1163" transform="matrix(1 0 0 -1 0 834)" d="M91.857 9.61211C 92.4391 9.61211 92.5953 8.86797 92.5953 8.33984C 92.5953 8.21992 92.5891 8.076171 92.5711 7.94414C 92.4453 7.84805 92.241 7.77617 92.0313 7.77617C 91.52731 7.77617 91.2273 8.214061 91.2273 8.74219C 91.2273 9.09609 91.3953 9.61211 91.857 9.61211zM91.9352 9.810161C 91.1613 9.810161 90.7113 9.10781 90.7113 8.53203C 90.7113 7.90195 91.1492 7.43398 91.7852 7.43398C 91.8992 7.43398 92.0133 7.45781 92.1453 7.53008L92.1453 7.53008L92.5473 7.74609C 92.34921 6.83398 91.6953 6.23398 90.8371 6.08984L90.8371 6.08984L90.8672 5.91016C 91.0172 5.91016 91.3832 5.96992 91.707 6.10195C 92.5172 6.42617 93.123 7.20586 93.123 8.310161C 93.123 9.12617 92.6852 9.810161 91.9352 9.810161z" stroke="#000000" stroke-width="0.4" fill="none" /><path id="1164" transform="matrix(1 0 0 -1 0 834)" d="M95.0434 7.35L93.8613 7.35C 94.257 8.016021 94.6473 8.58594 95.0313 9.119921L95.0313 9.119921L95.0434 9.119921zM96.09921 7.06797L96.09921 7.35L96.09921 7.35L95.523 7.35L95.523 7.35L95.523 9.79219L95.523 9.79219L95.2832 9.79219C 94.6652 8.976171 94.0531 8.08789 93.4832 7.23594L93.4832 7.23594L93.4832 7.06797L93.4832 7.06797L95.0434 7.06797L95.0434 7.06797L95.0434 6.63594C 95.0434 6.23984 95.0191 6.20391 94.49731 6.16211L94.49731 6.16211L94.49731 6L94.49731 6L96.0332 6L96.0332 6L96.0332 6.16211C 95.5473 6.20391 95.523 6.23398 95.523 6.63594L95.523 6.63594L95.523 7.06797z" stroke="#000000" stroke-width="0.4" fill="none" /><path id="1183" transform="matrix(1 0 0 -1 0 834)" d="M554.472 6.83984C 554.292 6.46211 554.2141 6.43789 553.89 6.43789L553.89 6.43789L552.768 6.43789L552.768 6.43789L553.6201 7.33203C 554.1721 7.91992 554.412 8.273829 554.412 8.79609C 554.412 9.42617 553.932 9.810161 553.404 9.810161C 553.056 9.810161 552.774 9.653911 552.594 9.45586L552.594 9.45586L552.252 8.96992L552.252 8.96992L552.384 8.85C 552.54 9.08398 552.792 9.40781 553.2 9.40781C 553.644 9.40781 553.908 9.11406 553.908 8.61016C 553.908 8.09414 553.53 7.60195 553.158 7.15781C 552.858 6.81016 552.522 6.46797 552.186 6.13789L552.186 6.13789L552.186 6L552.186 6L554.43 6C 554.502 6.26992 554.562 6.53398 554.64 6.78594z" stroke="#000000" stroke-width="0.4" fill="none" /><path id="1184" transform="matrix(1 0 0 -1 0 834)" d="M555.792 9.3L557.19 9.3L557.19 9.3L557.346 9.68984L557.346 9.68984L557.31 9.73789L557.31 9.73789L555.6 9.73789L555.6 9.73789L555.366 7.90781C 555.504 7.96211 555.732 8.028131 555.984 8.028131C 556.638 8.028131 556.962 7.65 556.962 7.121881C 556.962 6.67188 556.71 6.23398 556.2 6.23398C 555.834 6.23398 555.588 6.42617 555.462 6.53984C 555.402 6.58789 555.354 6.58203 555.3 6.53984C 555.234 6.48008 555.18 6.40195 555.174 6.34219C 555.162 6.26992 555.192 6.22188 555.27 6.13789C 555.36 6.05391 555.612 5.92813 555.888 5.92813C 556.206 5.93398 556.608 6.08984 556.932 6.35391C 557.298 6.65391 557.466 6.99609 557.466 7.35586C 557.466 7.84805 557.076 8.369921 556.308 8.369921C 556.146 8.369921 555.864 8.273829 555.636 8.18984z" stroke="#000000" stroke-width="0.4" fill="none" /><path id="1185" transform="matrix(1 0 0 -1 0 834)" d="M559.548 9.989841L559.212 9.989841L559.212 9.989841L557.91 5.73594L557.91 5.73594L558.246 5.73594z" stroke="#000000" stroke-width="0.4" fill="none" /><path id="1186" transform="matrix(1 0 0 -1 0 834)" d="M561.18 9.61211C 561.72 9.61211 561.8701 8.72383 561.8701 7.871881C 561.8701 7.03203 561.726 6.13203 561.186 6.13203C 560.664 6.13203 560.49 7.03789 560.49 7.87813C 560.49 8.712111 560.634 9.61211 561.18 9.61211zM561.186 9.810161C 560.286 9.810161 559.956 8.74219 559.956 7.86602C 559.956 6.91797 560.28 5.92813 561.186 5.92813C 562.086 5.92813 562.404 6.99609 562.404 7.871881C 562.404 8.79609 562.086 9.810161 561.186 9.810161z" stroke="#000000" stroke-width="0.4" fill="none" /><path id="1187" transform="matrix(1 0 0 -1 0 834)" d="M564 9.61211C 564.582 9.61211 564.738 8.86797 564.738 8.33984C 564.738 8.21992 564.732 8.076171 564.7141 7.94414C 564.588 7.84805 564.384 7.77617 564.174 7.77617C 563.67 7.77617 563.3701 8.214061 563.3701 8.74219C 563.3701 9.09609 563.538 9.61211 564 9.61211zM564.078 9.810161C 563.304 9.810161 562.854 9.10781 562.854 8.53203C 562.854 7.90195 563.292 7.43398 563.928 7.43398C 564.042 7.43398 564.156 7.45781 564.288 7.53008L564.288 7.53008L564.69 7.74609C 564.492 6.83398 563.838 6.23398 562.98 6.08984L562.98 6.08984L563.01 5.91016C 563.16 5.91016 563.526 5.96992 563.85 6.10195C 564.66 6.42617 565.2661 7.20586 565.2661 8.310161C 565.2661 9.12617 564.828 9.810161 564.078 9.810161z" stroke="#000000" stroke-width="0.4" fill="none" /><path id="1188" transform="matrix(1 0 0 -1 0 834)" d="M567.294 9.989841L566.958 9.989841L566.958 9.989841L565.656 5.73594L565.656 5.73594L565.992 5.73594z" stroke="#000000" stroke-width="0.4" fill="none" /><path id="1189" transform="matrix(1 0 0 -1 0 834)" d="M569.9641 6.83984C 569.784 6.46211 569.706 6.43789 569.382 6.43789L569.382 6.43789L568.26 6.43789L568.26 6.43789L569.112 7.33203C 569.664 7.91992 569.904 8.273829 569.904 8.79609C 569.904 9.42617 569.424 9.810161 568.896 9.810161C 568.548 9.810161 568.2661 9.653911 568.086 9.45586L568.086 9.45586L567.744 8.96992L567.744 8.96992L567.876 8.85C 568.032 9.08398 568.284 9.40781 568.692 9.40781C 569.136 9.40781 569.4 9.11406 569.4 8.61016C 569.4 8.09414 569.022 7.60195 568.65 7.15781C 568.35 6.81016 568.014 6.46797 567.678 6.13789L567.678 6.13789L567.678 6L567.678 6L569.9221 6C 569.994 6.26992 570.054 6.53398 570.132 6.78594z" stroke="#000000" stroke-width="0.4" fill="none" /><path id="1190" transform="matrix(1 0 0 -1 0 834)" d="M571.806 9.61211C 572.346 9.61211 572.496 8.72383 572.496 7.871881C 572.496 7.03203 572.352 6.13203 571.812 6.13203C 571.29 6.13203 571.116 7.03789 571.116 7.87813C 571.116 8.712111 571.26 9.61211 571.806 9.61211zM571.812 9.810161C 570.912 9.810161 570.582 8.74219 570.582 7.86602C 570.582 6.91797 570.906 5.92813 571.812 5.92813C 572.712 5.92813 573.03 6.99609 573.03 7.871881C 573.03 8.79609 572.712 9.810161 571.812 9.810161z" stroke="#000000" stroke-width="0.4" fill="none" /><path id="1191" transform="matrix(1 0 0 -1 0 834)" d="M575.556 6L575.556 6.16211C 575.01 6.20391 574.9741 6.25195 574.9741 6.68398L574.9741 6.68398L574.9741 9.810161C 574.644 9.67813 574.29 9.56406 573.906 9.49805L573.906 9.49805L573.906 9.36016L573.906 9.36016L574.194 9.34805C 574.458 9.33594 574.482 9.305861 574.482 8.99414L574.482 8.99414L574.482 6.68398C 574.482 6.25195 574.452 6.20391 573.906 6.16211L573.906 6.16211L573.906 6z" stroke="#000000" stroke-width="0.4" fill="none" /><path id="1192" transform="matrix(1 0 0 -1 0 834)" d="M578.814 9.73789L576.522 9.73789C 576.498 9.48008 576.468 9.180079 576.414 8.85L576.414 8.85L576.588 8.85C 576.732 9.24609 576.768 9.3 577.164 9.3L577.164 9.3L578.46 9.3C 577.986 8.25586 577.308 7.01406 576.678 5.99414L576.678 5.99414L576.72 5.92813L576.72 5.92813L577.164 5.98789C 577.74 7.22383 578.298 8.44805 578.862 9.66602z" stroke="#000000" stroke-width="0.4" fill="none" /><path id="1193" transform="matrix(1 0 0 -1 0 834)" d="M584.531 9.61211C 585.071 9.61211 585.221 8.72383 585.221 7.871881C 585.221 7.03203 585.077 6.13203 584.537 6.13203C 584.015 6.13203 583.841 7.03789 583.841 7.87813C 583.841 8.712111 583.985 9.61211 584.531 9.61211zM584.537 9.810161C 583.637 9.810161 583.307 8.74219 583.307 7.86602C 583.307 6.91797 583.631 5.92813 584.537 5.92813C 585.437 5.92813 585.755 6.99609 585.755 7.871881C 585.755 8.79609 585.437 9.810161 584.537 9.810161z" stroke="#000000" stroke-width="0.4" fill="none" /><path id="1194" transform="matrix(1 0 0 -1 0 834)" d="M588.449 6.83984C 588.269 6.46211 588.191 6.43789 587.867 6.43789L587.867 6.43789L586.7451 6.43789L586.7451 6.43789L587.597 7.33203C 588.149 7.91992 588.389 8.273829 588.389 8.79609C 588.389 9.42617 587.909 9.810161 587.381 9.810161C 587.033 9.810161 586.751 9.653911 586.571 9.45586L586.571 9.45586L586.229 8.96992L586.229 8.96992L586.361 8.85C 586.517 9.08398 586.769 9.40781 587.177 9.40781C 587.621 9.40781 587.885 9.11406 587.885 8.61016C 587.885 8.09414 587.507 7.60195 587.135 7.15781C 586.835 6.81016 586.499 6.46797 586.163 6.13789L586.163 6.13789L586.163 6L586.163 6L588.407 6C 588.479 6.26992 588.539 6.53398 588.617 6.78594z" stroke="#000000" stroke-width="0.4" fill="none" /><path id="1195" transform="matrix(1 0 0 -1 0 834)" d="M589.5471 5.92813C 589.739 5.92813 589.883 6.06602 589.883 6.27617C 589.883 6.46797 589.739 6.61797 589.5471 6.61797C 589.355 6.61797 589.211 6.46797 589.211 6.27617C 589.211 6.06602 589.355 5.92813 589.5471 5.92813zM589.541 8.466021C 589.3491 8.466021 589.211 8.328131 589.211 8.13008C 589.211 7.92617 589.3491 7.78203 589.541 7.78203C 589.733 7.78203 589.877 7.92617 589.877 8.13008C 589.877 8.328131 589.733 8.466021 589.541 8.466021z" stroke="#000000" stroke-width="0.4" fill="none" /><path id="1196" transform="matrix(1 0 0 -1 0 834)" d="M591.137 9.3L592.535 9.3L592.535 9.3L592.691 9.68984L592.691 9.68984L592.655 9.73789L592.655 9.73789L590.945 9.73789L590.945 9.73789L590.711 7.90781C 590.8491 7.96211 591.077 8.028131 591.329 8.028131C 591.983 8.028131 592.307 7.65 592.307 7.121881C 592.307 6.67188 592.055 6.23398 591.545 6.23398C 591.179 6.23398 590.933 6.42617 590.807 6.53984C 590.747 6.58789 590.699 6.58203 590.645 6.53984C 590.579 6.48008 590.525 6.40195 590.519 6.34219C 590.507 6.26992 590.537 6.22188 590.615 6.13789C 590.705 6.05391 590.957 5.92813 591.233 5.92813C 591.551 5.93398 591.953 6.08984 592.277 6.35391C 592.643 6.65391 592.811 6.99609 592.811 7.35586C 592.811 7.84805 592.421 8.369921 591.653 8.369921C 591.491 8.369921 591.209 8.273829 590.981 8.18984z" stroke="#000000" stroke-width="0.4" fill="none" /><path id="1197" transform="matrix(1 0 0 -1 0 834)" d="M595.577 6.83984C 595.397 6.46211 595.319 6.43789 594.9951 6.43789L594.9951 6.43789L593.873 6.43789L593.873 6.43789L594.725 7.33203C 595.277 7.91992 595.517 8.273829 595.517 8.79609C 595.517 9.42617 595.037 9.810161 594.509 9.810161C 594.161 9.810161 593.879 9.653911 593.699 9.45586L593.699 9.45586L593.357 8.96992L593.357 8.96992L593.489 8.85C 593.645 9.08398 593.897 9.40781 594.305 9.40781C 594.749 9.40781 595.013 9.11406 595.013 8.61016C 595.013 8.09414 594.635 7.60195 594.263 7.15781C 593.963 6.81016 593.627 6.46797 593.291 6.13789L593.291 6.13789L593.291 6L593.291 6L595.535 6C 595.607 6.26992 595.667 6.53398 595.7451 6.78594z" stroke="#000000" stroke-width="0.4" fill="none" /><path id="1198" transform="matrix(1 0 0 -1 0 834)" d="M596.675 5.92813C 596.867 5.92813 597.011 6.06602 597.011 6.27617C 597.011 6.46797 596.867 6.61797 596.675 6.61797C 596.483 6.61797 596.3391 6.46797 596.3391 6.27617C 596.3391 6.06602 596.483 5.92813 596.675 5.92813zM596.669 8.466021C 596.477 8.466021 596.3391 8.328131 596.3391 8.13008C 596.3391 7.92617 596.477 7.78203 596.669 7.78203C 596.861 7.78203 597.005 7.92617 597.005 8.13008C 597.005 8.328131 596.861 8.466021 596.669 8.466021z" stroke="#000000" stroke-width="0.4" fill="none" /><path id="1199" transform="matrix(1 0 0 -1 0 834)" d="M598.787 9.61211C 599.327 9.61211 599.477 8.72383 599.477 7.871881C 599.477 7.03203 599.333 6.13203 598.793 6.13203C 598.271 6.13203 598.097 7.03789 598.097 7.87813C 598.097 8.712111 598.241 9.61211 598.787 9.61211zM598.793 9.810161C 597.893 9.810161 597.563 8.74219 597.563 7.86602C 597.563 6.91797 597.887 5.92813 598.793 5.92813C 599.6931 5.92813 600.011 6.99609 600.011 7.871881C 600.011 8.79609 599.6931 9.810161 598.793 9.810161z" stroke="#000000" stroke-width="0.4" fill="none" /><path id="1200" transform="matrix(1 0 0 -1 0 834)" d="M602.915 9.73789L600.623 9.73789C 600.5991 9.48008 600.569 9.180079 600.515 8.85L600.515 8.85L600.689 8.85C 600.833 9.24609 600.869 9.3 601.265 9.3L601.265 9.3L602.561 9.3C 602.087 8.25586 601.409 7.01406 600.779 5.99414L600.779 5.99414L600.821 5.92813L600.821 5.92813L601.265 5.98789C 601.841 7.22383 602.399 8.44805 602.963 9.66602z" stroke="#000000" stroke-width="0.4" fill="none" /><path id="1201" transform="matrix(1 0 0 -1 0 834)" d="M605.489 8.08203C 605.651 8.20195 605.897 8.33398 606.0891 8.33398C 606.527 8.33398 606.893 7.97383 606.893 7.33203C 606.893 6.65391 606.557 6.22188 606.053 6.22188C 605.8491 6.22188 605.621 6.31797 605.489 6.45586zM605.489 8.28008L605.489 8.75391C 605.207 8.63984 604.871 8.53789 604.619 8.49609L604.619 8.49609L604.619 8.351951C 604.991 8.30391 605.015 8.29219 605.015 7.90195L605.015 7.90195L605.015 5.18984C 605.015 4.79414 604.961 4.75781 604.577 4.72188L604.577 4.72188L604.577 4.56016L604.577 4.56016L605.999 4.56016L605.999 4.56016L605.999 4.72188C 605.531 4.76406 605.489 4.79414 605.489 5.25L605.489 5.25L605.489 6.03594C 605.567 5.99414 605.729 5.93398 605.903 5.92813C 606.683 6.07188 607.397 6.65391 607.397 7.56016C 607.397 8.153911 607.001 8.69414 606.335 8.69414C 606.263 8.69414 606.149 8.664061 606.041 8.60391z" stroke="#000000" stroke-width="0.4" fill="none" /><path id="1202" transform="matrix(1 0 0 -1 0 834)" d="M608.303 5.92813C 608.4951 5.92813 608.639 6.06602 608.639 6.27617C 608.639 6.46797 608.4951 6.61797 608.303 6.61797C 608.111 6.61797 607.967 6.46797 607.967 6.27617C 607.967 6.06602 608.111 5.92813 608.303 5.92813z" stroke="#000000" stroke-width="0.4" fill="none" /><path id="1203" transform="matrix(1 0 0 -1 0 834)" d="M615.125 6L615.125 6.15586C 614.783 6.19219 614.735 6.21602 614.735 6.61797L614.735 6.61797L614.735 7.77617C 614.735 8.36406 614.441 8.69414 613.973 8.69414C 613.805 8.69414 613.649 8.621881 613.523 8.53789C 613.373 8.44805 613.199 8.33398 613.025 8.20195C 612.905 8.51406 612.647 8.69414 612.359 8.69414C 612.167 8.69414 612.023 8.628131 611.867 8.53203C 611.687 8.417971 611.555 8.310161 611.429 8.226171L611.429 8.226171L611.429 8.712111C 611.165 8.59219 610.859 8.51406 610.595 8.466021L610.595 8.466021L610.595 8.328131C 610.9431 8.273829 610.961 8.24414 610.961 7.86016L610.961 7.86016L610.961 6.61797C 610.961 6.22813 610.907 6.19219 610.511 6.15586L610.511 6.15586L610.511 6L610.511 6L611.777 6L611.777 6L611.777 6.15586C 611.483 6.19219 611.435 6.22813 611.435 6.61797L611.435 6.61797L611.435 8.028131C 611.615 8.17813 611.8491 8.33984 612.0891 8.33984C 612.455 8.33984 612.611 8.09414 612.611 7.65L612.611 7.65L612.611 6.61797C 612.611 6.22188 612.557 6.19219 612.185 6.15586L612.185 6.15586L612.185 6L612.185 6L613.469 6L613.469 6L613.469 6.15586C 613.139 6.19219 613.085 6.22813 613.085 6.60586L613.085 6.60586L613.085 7.77617C 613.085 7.88984 613.079 7.95586 613.067 8.028131C 613.295 8.21992 613.523 8.33984 613.739 8.33984C 614.117 8.33984 614.267 8.069921 614.267 7.64414L614.267 7.64414L614.267 6.64219C 614.267 6.21602 614.201 6.19219 613.847 6.15586L613.847 6.15586L613.847 6z" stroke="#000000" stroke-width="0.4" fill="none" /><path id="1204" transform="matrix(1 0 0 -1 0 834)" d="M615.947 5.92813C 616.139 5.92813 616.283 6.06602 616.283 6.27617C 616.283 6.46797 616.139 6.61797 615.947 6.61797C 615.755 6.61797 615.611 6.46797 615.611 6.27617C 615.611 6.06602 615.755 5.92813 615.947 5.92813z" stroke="#000000" stroke-width="0.4" fill="none" /></g></g></svg>