<svg xmlns="http://www.w3.org/2000/svg" xmlns:xlink="http://www.w3.org/1999/xlink" id="body_1" preserveAspectRatio="xMinYMin meet" viewBox="0 0 872 1112"><defs><clipPath id="1"><path id="" clip-rule="evenodd" transform="matrix(1 0 0 1 0 0)" d="M0 834L0 0L0 0L654 0L654 0L654 834L654 834L0 834z" /></clipPath><clipPath id="2"><path id="" clip-rule="evenodd" transform="matrix(1 0 0 1 0 0)" d="M21 813L633 813L633 813L633 21L633 21L21 21z" /></clipPath><clipPath id="3"><path id="" clip-rule="evenodd" transform="matrix(1 0 0 1 0 0)" d="M376.534 489.704L486.379 489.704L486.379 489.704L486.379 344.049L486.379 344.049L376.534 344.049z" /></clipPath><clipPath id="4"><path id="" clip-rule="evenodd" transform="matrix(1 0 0 1 0 0)" d="M376.534 489.704L486.379 489.704L486.379 489.704L486.379 344.049L486.379 344.049L376.534 344.049z" /></clipPath><clipPath id="5"><path id="" clip-rule="evenodd" transform="matrix(1 0 0 1 0 0)" d="M358.606 490.366L486.379 490.366L486.379 490.366L486.379 344.049L486.379 344.049L358.606 344.049z" /></clipPath><clipPath id="6"><path id="" clip-rule="evenodd" transform="matrix(1 0 0 1 0 0)" d="M359.29 455.681C 359.29 474.472 375.052 489.704 394.495 489.704L394.495 489.704L394.495 489.704C 413.938 489.704 429.701 474.472 429.701 455.681L429.701 455.681L429.701 455.681C 429.701 436.89 413.938 421.658 394.495 421.658L394.495 421.658L394.495 421.658C 375.052 421.658 359.29 436.89 359.29 455.681" /></clipPath><clipPath id="7"><path id="" clip-rule="evenodd" transform="matrix(1 0 0 1 0 0)" d="M359.29 455.681C 359.29 474.472 375.052 489.704 394.495 489.704L394.495 489.704L394.495 489.704C 413.938 489.704 429.701 474.472 429.701 455.681L429.701 455.681L429.701 455.681C 429.701 436.89 413.938 421.658 394.495 421.658L394.495 421.658L394.495 421.658C 375.052 421.658 359.29 436.89 359.29 455.681" /></clipPath><clipPath id="8"><path id="" clip-rule="evenodd" transform="matrix(1 0 0 1 0 0)" d="M358.606 490.366L486.379 490.366L486.379 490.366L486.379 344.049L486.379 344.049L358.606 344.049z" /></clipPath><clipPath id="9"><path id="" clip-rule="evenodd" transform="matrix(1 0 0 1 0 0)" d="M352.597 268.861L468.272 268.861L468.272 268.861L468.272 127.766L468.272 127.766L352.597 127.766z" /></clipPath><clipPath id="10"><path id="" clip-rule="evenodd" transform="matrix(1 0 0 1 0 0)" d="M352.597 268.861L468.272 268.861L468.272 268.861L468.272 127.766L468.272 127.766L352.597 127.766z" /></clipPath><clipPath id="11"><path id="" clip-rule="evenodd" transform="matrix(1 0 0 1 0 0)" d="M352.597 269.498L486.945 269.498L486.945 269.498L486.945 127.765L486.945 127.765L352.597 127.765z" /></clipPath><clipPath id="12"><path id="" clip-rule="evenodd" transform="matrix(1 0 0 1 0 0)" d="M430.523 239.5359C 430.523 255.732 443.018 268.86 458.43 268.86L458.43 268.86L458.43 268.86C 473.844 268.86 486.338 255.732 486.338 239.5359L486.338 239.5359L486.338 239.5359C 486.338 223.342 473.844 210.213 458.43 210.213L458.43 210.213L458.43 210.213C 443.018 210.213 430.523 223.342 430.523 239.5359" /></clipPath><clipPath id="13"><path id="" clip-rule="evenodd" transform="matrix(1 0 0 1 0 0)" d="M430.523 239.5359C 430.523 255.732 443.018 268.86 458.43 268.86L458.43 268.86L458.43 268.86C 473.844 268.86 486.338 255.732 486.338 239.5359L486.338 239.5359L486.338 239.5359C 486.338 223.342 473.844 210.213 458.43 210.213L458.43 210.213L458.43 210.213C 443.018 210.213 430.523 223.342 430.523 239.5359" /></clipPath><clipPath id="14"><path id="" clip-rule="evenodd" transform="matrix(1 0 0 1 0 0)" d="M352.597 269.498L486.945 269.498L486.945 269.498L486.945 127.765L486.945 127.765L352.597 127.765z" /></clipPath><clipPath id="15"><path id="" clip-rule="evenodd" transform="matrix(1 0 0 1 0 0)" d="M387.952 236.335L399.479 236.335L399.479 236.335L399.479 202.0569L399.479 202.0569L387.952 202.0569z" /></clipPath><clipPath id="16"><path id="" clip-rule="evenodd" transform="matrix(1 0 0 1 0 0)" d="M387.952 236.335L399.479 236.335L399.479 236.335L399.479 202.0569L399.479 202.0569L387.952 202.0569z" /></clipPath><clipPath id="17"><path id="" clip-rule="evenodd" transform="matrix(1 0 0 1 0 0)" d="M387.952 236.335L399.479 236.335L399.479 236.335L399.479 202.0569L399.479 202.0569L387.952 202.0569z" /></clipPath><clipPath id="18"><path id="" clip-rule="evenodd" transform="matrix(1 0 0 1 0 0)" d="M387.955 225.497L393.8781 225.497L393.8781 225.497L393.8781 216.3463L393.8781 216.3463L387.955 216.3463z" /></clipPath><clipPath id="19"><path id="" clip-rule="evenodd" transform="matrix(1 0 0 1 0 0)" d="M387.955 225.497L393.878 225.497L393.878 225.497L393.878 216.346L393.878 216.346L387.955 216.346z" /></clipPath><clipPath id="20"><path id="" clip-rule="evenodd" transform="matrix(1 0 0 1 0 0)" d="M387.9 225.5L387.9 216.3L387.9 216.3L393.9 216.3L393.9 216.3L393.9 225.5z" /></clipPath><clipPath id="21"><path id="" clip-rule="evenodd" transform="matrix(1 0 0 1 0 0)" d="M423.237 218.639L433.8421 218.639L433.8421 218.639L433.8421 184.3609L433.8421 184.3609L423.237 184.3609z" /></clipPath><clipPath id="22"><path id="" clip-rule="evenodd" transform="matrix(1 0 0 1 0 0)" d="M423.237 218.639L433.842 218.639L433.842 218.639L433.842 184.361L433.842 184.361L423.237 184.361z" /></clipPath><clipPath id="23"><path id="" clip-rule="evenodd" transform="matrix(1 0 0 1 0 0)" d="M423.237 218.639L433.8421 218.639L433.8421 218.639L433.8421 184.3609L433.8421 184.3609L423.237 184.3609z" /></clipPath><clipPath id="24"><path id="" clip-rule="evenodd" transform="matrix(1 0 0 1 0 0)" d="M428.385 207.805L433.842 207.805L433.842 207.805L433.842 198.6327L433.842 198.6327L428.385 198.6327z" /></clipPath><clipPath id="25"><path id="" clip-rule="evenodd" transform="matrix(1 0 0 1 0 0)" d="M428.385 207.805L433.842 207.805L433.842 207.805L433.842 198.633L433.842 198.633L428.385 198.633z" /></clipPath><clipPath id="26"><path id="" clip-rule="evenodd" transform="matrix(1 0 0 1 0 0)" d="M428.3 207.9L428.3 198.6L428.3 198.6L433.9 198.6L433.9 198.6L433.9 207.9z" /></clipPath><clipPath id="27"><path id="" clip-rule="evenodd" transform="matrix(1 0 0 1 0 0)" d="M261.661 168.876L299.5032 168.876L299.5032 168.876L299.5032 112.8372L299.5032 112.8372L261.661 112.8372z" /></clipPath><clipPath id="28"><path id="" clip-rule="evenodd" transform="matrix(1 0 0 1 0 0)" d="M261.661 168.876L299.5032 168.876L299.5032 168.876L299.5032 112.8372L299.5032 112.8372L261.661 112.8372z" /></clipPath><clipPath id="29"><path id="" clip-rule="evenodd" transform="matrix(1 0 0 1 0 0)" d="M265.488 386.999L299.079 386.999L299.079 386.999L299.079 335.6584L299.079 335.6584L265.488 335.6584z" /></clipPath><clipPath id="30"><path id="" clip-rule="evenodd" transform="matrix(1 0 0 1 0 0)" d="M265.488 386.999L299.079 386.999L299.079 386.999L299.079 335.6584L299.079 335.6584L265.488 335.6584z" /></clipPath><clipPath id="31"><path id="" clip-rule="evenodd" transform="matrix(1 0 0 1 0 0)" d="M327 176.2759L352.5969 176.2759L352.5969 176.2759L352.5969 140.417L352.5969 140.417L327 140.417z" /></clipPath><clipPath id="32"><path id="" clip-rule="evenodd" transform="matrix(1 0 0 1 0 0)" d="M327 176.2759L352.5969 176.2759L352.5969 176.2759L352.5969 140.417L352.5969 140.417L327 140.417z" /></clipPath><clipPath id="33"><path id="" clip-rule="evenodd" transform="matrix(1 0 0 1 0 0)" d="M465.793 176.775L493.5719 176.775L493.5719 176.775L493.5719 140.9172L493.5719 140.9172L465.793 140.9172z" /></clipPath><clipPath id="34"><path id="" clip-rule="evenodd" transform="matrix(1 0 0 1 0 0)" d="M465.793 176.775L493.5719 176.775L493.5719 176.775L493.5719 140.9172L493.5719 140.9172L465.793 140.9172z" /></clipPath><clipPath id="35"><path id="" clip-rule="evenodd" transform="matrix(1 0 0 1 0 0)" d="M339.799 398.898L365.3963 398.898L365.3963 398.898L365.3963 363.0398L365.3963 363.0398L339.799 363.0398z" /></clipPath><clipPath id="36"><path id="" clip-rule="evenodd" transform="matrix(1 0 0 1 0 0)" d="M339.799 398.898L365.3963 398.898L365.3963 398.898L365.3963 363.0398L365.3963 363.0398L339.799 363.0398z" /></clipPath><clipPath id="37"><path id="" clip-rule="evenodd" transform="matrix(1 0 0 1 0 0)" d="M465.793 398.898L493.5719 398.898L493.5719 398.898L493.5719 363.0398L493.5719 363.0398L465.793 363.0398z" /></clipPath><clipPath id="38"><path id="" clip-rule="evenodd" transform="matrix(1 0 0 1 0 0)" d="M465.793 398.898L493.5719 398.898L493.5719 398.898L493.5719 363.0398L493.5719 363.0398L465.793 363.0398z" /></clipPath><clipPath id="39"><path id="" clip-rule="evenodd" transform="matrix(1 0 0 1 0 0)" d="M365.32 707.763L462.9212 707.763L462.9212 707.763L462.9212 565.819L462.9212 565.819L365.32 565.819z" /></clipPath><clipPath id="40"><path id="" clip-rule="evenodd" transform="matrix(1 0 0 1 0 0)" d="M365.32 707.763L462.9212 707.763L462.9212 707.763L462.9212 565.819L462.9212 565.819L365.32 565.819z" /></clipPath><clipPath id="41"><path id="" clip-rule="evenodd" transform="matrix(1 0 0 1 0 0)" d="M354.853 707.763L462.921 707.763L462.921 707.763L462.921 565.819L462.921 565.819L354.853 565.819z" /></clipPath><clipPath id="42"><path id="" clip-rule="evenodd" transform="matrix(1 0 0 1 0 0)" d="M355.537 670.81C 355.537 687.446 369.706 700.932 387.185 700.932L387.185 700.932L387.185 700.932C 404.664 700.932 418.834 687.446 418.834 670.81L418.834 670.81L418.834 670.81C 418.834 654.175 404.664 640.689 387.185 640.689L387.185 640.689L387.185 640.689C 369.706 640.689 355.537 654.175 355.537 670.81" /></clipPath><clipPath id="43"><path id="" clip-rule="evenodd" transform="matrix(1 0 0 1 0 0)" d="M355.537 670.81C 355.537 687.446 369.706 700.932 387.185 700.932L387.185 700.932L387.185 700.932C 404.664 700.932 418.834 687.446 418.834 670.81L418.834 670.81L418.834 670.81C 418.834 654.175 404.664 640.689 387.185 640.689L387.185 640.689L387.185 640.689C 369.706 640.689 355.537 654.175 355.537 670.81" /></clipPath><clipPath id="44"><path id="" clip-rule="evenodd" transform="matrix(1 0 0 1 0 0)" d="M354.853 707.763L462.921 707.763L462.921 707.763L462.921 565.819L462.921 565.819L354.853 565.819z" /></clipPath><clipPath id="45"><path id="" clip-rule="evenodd" transform="matrix(1 0 0 1 0 0)" d="M409.222 605.62L412.8263 605.62L412.8263 605.62L412.8263 597.136L412.8263 597.136L409.222 597.136z" /></clipPath><clipPath id="46"><path id="" clip-rule="evenodd" transform="matrix(1 0 0 1 0 0)" d="M409.222 605.62L412.826 605.62L412.826 605.62L412.826 597.136L412.826 597.136L409.222 597.136z" /></clipPath><clipPath id="47"><path id="" clip-rule="evenodd" transform="matrix(1 0 0 1 0 0)" d="M409.222 605.62L412.8263 605.62L412.8263 605.62L412.8263 597.136L412.8263 597.136L409.222 597.136z" /></clipPath><clipPath id="48"><path id="" clip-rule="evenodd" transform="matrix(1 0 0 1 0 0)" d="M258.826 602.247L301.203 602.247L301.203 602.247L301.203 563.368L301.203 563.368L258.826 563.368z" /></clipPath><clipPath id="49"><path id="" clip-rule="evenodd" transform="matrix(1 0 0 1 0 0)" d="M258.826 602.247L301.203 602.247L301.203 602.247L301.203 563.368L301.203 563.368L258.826 563.368z" /></clipPath><clipPath id="50"><path id="" clip-rule="evenodd" transform="matrix(1 0 0 1 0 0)" d="M346.701 615.962L372.2979 615.962L372.2979 615.962L372.2979 580.103L372.2979 580.103L346.701 580.103z" /></clipPath><clipPath id="51"><path id="" clip-rule="evenodd" transform="matrix(1 0 0 1 0 0)" d="M346.701 615.962L372.2979 615.962L372.2979 615.962L372.2979 580.103L372.2979 580.103L346.701 580.103z" /></clipPath></defs><g transform="matrix(1.333333 0 0 1.333333 0 0)"><g clip-path="url(#1)"><g clip-path="url(#2)"><path id="1" transform="matrix(1 0 0 -1 0 834)" d="M91.866 67.4211L562.134 67.4211L562.134 74.92501L91.866 74.92501z" stroke="none" fill="#686868" fill-rule="nonzero" /><path id="2" transform="matrix(1 0 0 -1 0 834)" d="M562.134 526.984L91.866 526.984" stroke="#686868" stroke-width="1" fill="none" /><path id="3" transform="matrix(1 0 0 -1 0 834)" d="M562.134 307.016L91.866 307.016" stroke="#686868" stroke-width="1" fill="none" /></g><g clip-path="url(#3)"></g><g clip-path="url(#4)"><g transform="matrix(0.9985908 0 0 1.004517 376.534 344.049)"><g transform="matrix(1 0 0 1 0 0)"><image x="0" y="0" xlink:href="img_01.png" width="110" height="145" /></g></g></g><g clip-path="url(#5)"><path id="8" transform="matrix(1 0 0 -1 0 834)" d="M429.702 378.319C 429.702 359.528 413.939 344.295 394.496 344.295C 375.053 344.295 359.291 359.528 359.291 378.319C 359.291 397.109 375.053 412.342 394.496 412.342C 413.939 412.342 429.702 397.109 429.702 378.319" stroke="none" fill="#FFFFFF" fill-rule="nonzero" /></g><g clip-path="url(#6)"></g><g clip-path="url(#7)"><g transform="matrix(1.002177 0 0 1.00634 351.53 395.734)"><g transform="matrix(1 0 0 1 0 0)"><image x="0" y="0" xlink:href="img_02.png" width="78" height="103" /></g></g></g><g clip-path="url(#8)"><path id="10" transform="matrix(1 0 0 -1 0 834)" d="M429.7009 378.3185C 429.7009 359.5279 413.9394 344.2955 394.496 344.2955C 375.0527 344.2955 359.2912 359.5279 359.2912 378.3185C 359.2912 397.1092 375.0527 412.3416 394.496 412.3416C 413.9394 412.3416 429.7009 397.1092 429.7009 378.3185z" stroke="#000000" stroke-width="0.7596496" fill="none" /><path id="11" transform="matrix(1 0 0 -1 0 834)" d="M448.6 384.286C 448.6 388.654 451.936 392.321 456.394 393.257L456.394 393.257L456.394 393.275C 456.395 393.276 456.397 393.276 456.398 393.277L456.398 393.277L455.61 394.752L455.61 394.752L459.555 393.45C 464.661 393.023 468.674 389.077 468.674 384.286C 468.674 379.736 465.054 375.948 460.316 375.213L460.316 375.213L460.288 375C 460.286 375 460.284 375 460.282 375L460.282 375L460.832 373.436L460.832 373.436L457.285 375.167C 452.387 375.774 448.6 379.632 448.6 384.286M456.974 376.194L461.226 377.439L461.226 377.439L460.523 376.235C 464.572 377.032 467.617 380.339 467.617 384.286C 467.617 388.494 464.157 391.974 459.709 392.462L459.709 392.462L455.846 390.738L455.846 390.738L456.412 392.169C 456.41 392.169 456.407 392.168 456.405 392.168L456.405 392.168L456.42 392.173L456.42 392.173L456.418 392.266C 452.536 391.358 449.656 388.125 449.656 384.286C 449.656 380.266 452.814 376.911 456.974 376.194" stroke="none" fill="#000000" fill-rule="nonzero" /><path id="12" transform="matrix(1 0 0 -1 0 834)" d="M459.693 417.316C 459.693 421.684 463.03 425.35 467.488 426.287L467.488 426.287L467.488 426.305C 467.489 426.305 467.491 426.305 467.493 426.306L467.493 426.306L466.704 427.782L466.704 427.782L470.65 426.48C 475.755 426.053 479.768 422.106 479.768 417.316C 479.768 412.766 476.148 408.977 471.41 408.242L471.41 408.242L471.381 408.029C 471.38 408.029 471.378 408.029 471.377 408.029L471.377 408.029L471.926 406.465L471.926 406.465L468.379 408.196C 463.481 408.804 459.693 412.661 459.693 417.316M468.068 409.223L472.32 410.469L472.32 410.469L471.617 409.265C 475.666 410.062 478.711 413.368 478.711 417.316C 478.711 421.523 475.251 425.004 470.803 425.491L470.803 425.491L466.939 423.767L466.939 423.767L467.506 425.199C 467.504 425.198 467.502 425.198 467.499 425.197L467.499 425.197L467.514 425.203L467.514 425.203L467.512 425.295C 463.63 424.387 460.75 421.154 460.75 417.316C 460.75 413.296 463.908 409.941 468.068 409.223" stroke="none" fill="#000000" fill-rule="nonzero" /></g><g clip-path="url(#9)"></g><g clip-path="url(#10)"><g transform="matrix(1.00587 0 0 1.000674 352.597 127.766)"><g transform="matrix(1 0 0 1 0 0)"><image x="0" y="0" xlink:href="img_03.png" width="115" height="141" /></g></g></g><g clip-path="url(#11)"><path id="14" transform="matrix(1 0 0 -1 0 834)" d="M486.339 594.463C 486.339 578.267 473.845 565.139 458.432 565.139C 443.018 565.139 430.524 578.267 430.524 594.463C 430.524 610.657 443.018 623.786 458.432 623.786C 473.845 623.786 486.339 610.657 486.339 594.463" stroke="none" fill="#FFFFFF" fill-rule="nonzero" /></g><g clip-path="url(#12)"></g><g clip-path="url(#13)"><g transform="matrix(1.003843 0 0 1.009331 425.104 196.6215)"><g transform="matrix(1 0 0 1 0 0)"><image x="0" y="0" xlink:href="img_04.png" width="61" height="74" /></g></g></g><g clip-path="url(#14)"><path id="16" transform="matrix(1 0 0 -1 0 834)" d="M486.3387 594.4598C 486.3387 578.2649 473.8437 565.1359 458.4307 565.1359C 443.0178 565.1359 430.5237 578.2649 430.5237 594.4598C 430.5237 610.6548 443.0178 623.7838 458.4307 623.7838C 473.8437 623.7838 486.3387 610.6548 486.3387 594.4598z" stroke="#000000" stroke-width="0.6740993" fill="none" /></g><g clip-path="url(#15)"><g><g clip-path="url(#16)"><g clip-path="url(#17)"><path id="17" transform="matrix(1 0 0 -1 0 834)" d="M392.32 618.76L389.355 618.761C 389.355 618.761 388.675 604.532 391.478 597.743L391.478 597.743L394.026 598.1411C 394.026 598.1411 391.821 608.075 392.32 618.76" stroke="none" fill="#A9A9A9" fill-rule="nonzero" fill-opacity="0.8" /><path id="18" transform="matrix(1 0 0 -1 0 834)" d="M392.319 618.7574L389.3542 618.7585C 389.3542 618.7585 388.6744 604.5289 391.4773 597.7401L391.4773 597.7401L394.0257 598.1377C 394.0257 598.1377 391.8206 608.0725 392.319 618.7574z" stroke="#000000" stroke-width="0.1348206" fill="none" stroke-opacity="0.8" /><path id="19" transform="matrix(1 0 0 -1 0 834)" d="M399.468 615.462L395.686 615.792C 395.686 615.792 394.705 602.953 391.478 597.743L391.478 597.743L395.852 597.786C 395.852 597.786 399.718 608.734 399.468 615.462" stroke="none" fill="#FFFFFF" fill-rule="nonzero" fill-opacity="0.8" /><path id="20" transform="matrix(1 0 0 -1 0 834)" d="M392.691 609.932L389.284 609.932C 389.284 609.932 388.604 624.161 391.407 630.95L391.407 630.95L393.956 630.552C 393.956 630.552 391.182 620.203 392.691 609.932" stroke="none" fill="#A9A9A9" fill-rule="nonzero" fill-opacity="0.8" /><path id="21" transform="matrix(1 0 0 -1 0 834)" d="M392.6906 609.9283L389.285 609.9283C 389.285 609.9283 388.6032 624.1589 391.4081 630.9468L391.4081 630.9468L393.9555 630.5491C 393.9555 630.5491 391.1818 620.2003 392.6906 609.9283z" stroke="#000000" stroke-width="0.1348206" fill="none" stroke-opacity="0.8" /><path id="22" transform="matrix(1 0 0 -1 0 834)" d="M398.257 623.259L394.521 622.267C 394.521 622.267 394.634 625.74 391.407 630.95L391.407 630.95L395.596 631.9431C 395.596 631.9431 397.465 629.834 398.257 623.259" stroke="none" fill="#FFFFFF" fill-rule="nonzero" fill-opacity="0.8" /><path id="23" transform="matrix(1 0 0 -1 0 834)" d="M395.613 624.075L393.516 625.082L396.537 616.322L399.282 625.506L397.196 624.177" stroke="none" fill="#FFFFFF" fill-rule="nonzero" fill-opacity="0.8" /></g><g clip-path="url(#18)"><g><g clip-path="url(#19)"><g clip-path="url(#20)"><path id="24" transform="matrix(1 0 0 -1 0 834)" d="M389.412 609.196L388.061 608.623L390.7 617.441L393.775 609.263L392.487 609.395" stroke="none" fill="#A9A9A9" fill-rule="nonzero" fill-opacity="0.8" /><path id="25" transform="matrix(1 0 0 -1 0 834)" d="M389.4107 609.1935L388.06 608.6207L388.06 608.6207L390.6991 617.4386L390.6991 617.4386L393.776 609.2592L393.776 609.2592L392.4867 609.3914" stroke="#000000" stroke-width="0.1348206" fill="none" stroke-opacity="0.8" /></g></g></g></g></g></g></g><g clip-path="url(#21)"><g><g clip-path="url(#22)"><g clip-path="url(#23)"><path id="26" transform="matrix(1 0 0 -1 0 834)" d="M429.821 636.456L432.548 636.457C 432.548 636.457 433.173 622.228 430.595 615.439L430.595 615.439L428.252 615.837C 428.252 615.837 430.28 625.771 429.821 636.456" stroke="none" fill="#A9A9A9" fill-rule="nonzero" fill-opacity="0.8" /><path id="27" transform="matrix(1 0 0 -1 0 834)" d="M429.8206 636.4537L432.5474 636.4547C 432.5474 636.4547 433.1725 622.2252 430.5949 615.4363L430.5949 615.4363L428.2514 615.8339C 428.2514 615.8339 430.2799 625.7677 429.8206 636.4537z" stroke="#000000" stroke-width="0.1348206" fill="none" stroke-opacity="0.8" /><path id="28" transform="matrix(1 0 0 -1 0 834)" d="M423.249 633.159L426.726 633.488C 426.726 633.488 427.628 620.649 430.595 615.439L430.595 615.439L426.573 615.482C 426.573 615.482 423.02 626.431 423.249 633.159" stroke="none" fill="#FFFFFF" fill-rule="nonzero" fill-opacity="0.8" /><path id="29" transform="matrix(1 0 0 -1 0 834)" d="M429.48 627.628L432.612 627.628C 432.612 627.628 433.238 641.857 430.66 648.646L430.66 648.646L428.317 648.248C 428.317 648.248 430.867 637.9 429.48 627.628" stroke="none" fill="#A9A9A9" fill-rule="nonzero" fill-opacity="0.8" /><path id="30" transform="matrix(1 0 0 -1 0 834)" d="M429.4792 627.6255L432.6127 627.6255C 432.6127 627.6255 433.2369 641.8541 430.6593 648.643L430.6593 648.643L428.3167 648.2454C 428.3167 648.2454 430.867 637.8965 429.4792 627.6255z" stroke="#000000" stroke-width="0.1348206" fill="none" stroke-opacity="0.8" /><path id="31" transform="matrix(1 0 0 -1 0 834)" d="M424.363 640.955L427.798 639.963C 427.798 639.963 427.694 643.436 430.661 648.646L430.661 648.646L426.809 649.639C 426.809 649.639 425.091 647.53 424.363 640.955" stroke="none" fill="#FFFFFF" fill-rule="nonzero" fill-opacity="0.8" /><path id="32" transform="matrix(1 0 0 -1 0 834)" d="M426.793 641.771L428.721 642.778L425.944 634.018L423.42 643.202L425.338 641.874" stroke="none" fill="#FFFFFF" fill-rule="nonzero" fill-opacity="0.8" /></g><g clip-path="url(#24)"><g><g clip-path="url(#25)"><g clip-path="url(#26)"><path id="33" transform="matrix(1 0 0 -1 0 834)" d="M432.496 626.8911L433.739 626.3181L431.312 635.136L428.484 626.957L429.669 627.0891" stroke="none" fill="#A9A9A9" fill-rule="nonzero" fill-opacity="0.8" /><path id="34" transform="matrix(1 0 0 -1 0 834)" d="M432.4957 626.8888L433.7382 626.316L433.7382 626.316L431.3108 635.1339L431.3108 635.1339L428.4835 626.9543L428.4835 626.9543L429.6694 627.0865" stroke="#000000" stroke-width="0.1348206" fill="none" stroke-opacity="0.8" /></g></g></g></g></g></g></g><g clip-path="url(#27)"></g><g clip-path="url(#28)"><g transform="matrix(0.9958552 0 0 1.00089 261.661 112.8363)"><g transform="matrix(1 0 0 1 0 0)"><image x="0" y="0" xlink:href="img_05.png" width="38" height="57" /></g></g></g><g clip-path="url(#29)"></g><g clip-path="url(#30)"><g transform="matrix(1.017897 0 0 1.006682 265.488 335.6572)"><g transform="matrix(1 0 0 1 0 0)"><image x="0" y="0" xlink:href="img_06.png" width="33" height="51" /></g></g></g><g clip-path="url(#31)"></g><g clip-path="url(#32)"><g transform="matrix(1.022789 0 0 0.9967948 325.984 139.4048)"><g transform="matrix(1 0 0 1 0 0)"><image x="0" y="0" xlink:href="img_07.png" width="27" height="38" /></g></g></g><g clip-path="url(#33)"></g><g clip-path="url(#34)"><g transform="matrix(-0.9932801 0 0 0.9967948 494.589 139.9048)"><g transform="matrix(1 0 0 1 0 0)"><image x="0" y="0" xlink:href="img_08.png" width="30" height="38" /></g></g></g><g clip-path="url(#35)"></g><g clip-path="url(#36)"><g transform="matrix(1.022789 0 0 0.9967948 338.782 362.0278)"><g transform="matrix(1 0 0 1 0 0)"><image x="0" y="0" xlink:href="img_07.png" width="27" height="38" /></g></g></g><g clip-path="url(#37)"></g><g clip-path="url(#38)"><g transform="matrix(-0.9932801 0 0 0.9967948 494.589 362.0278)"><g transform="matrix(1 0 0 1 0 0)"><image x="0" y="0" xlink:href="img_08.png" width="30" height="38" /></g></g></g><g clip-path="url(#39)"></g><g clip-path="url(#40)"><g transform="matrix(1.006199 0 0 0.9996056 365.32 565.819)"><g transform="matrix(1 0 0 1 0 0)"><image x="0" y="0" xlink:href="img_09.png" width="97" height="142" /></g></g></g><g clip-path="url(#41)"><path id="853" transform="matrix(1 0 0 -1 0 834)" d="M418.834 163.189C 418.834 146.553 404.664 133.067 387.186 133.067C 369.706 133.067 355.537 146.553 355.537 163.189C 355.537 179.825 369.706 193.311 387.186 193.311C 404.664 193.311 418.834 179.825 418.834 163.189" stroke="none" fill="#FFFFFF" fill-rule="nonzero" /></g><g clip-path="url(#42)"></g><g clip-path="url(#43)"><g transform="matrix(1.00337 0 0 1.00167 348.827 637.0217)"><g transform="matrix(1 0 0 1 0 0)"><image x="0" y="0" xlink:href="img_10.png" width="81" height="118" /></g></g></g><g clip-path="url(#44)"><path id="855" transform="matrix(1 0 0 -1 0 834)" d="M418.8359 163.1881C 418.8359 146.5527 404.665 133.0675 387.1874 133.0675C 369.7087 133.0675 355.5389 146.5527 355.5389 163.1881C 355.5389 179.8244 369.7087 193.3107 387.1874 193.3107C 404.665 193.3107 418.8359 179.8244 418.8359 163.1881z" stroke="#000000" stroke-width="0.7601383" fill="none" /></g><g clip-path="url(#45)"><g><g clip-path="url(#46)"><g clip-path="url(#47)"><path id="856" transform="matrix(1 0 0 -1 0 834)" d="M411.024 228.38L409.223 229.948L410.416 229.762L410.416 234.81L411.632 234.81L411.632 229.762L412.826 229.948" stroke="none" fill="#FFFFFF" fill-rule="nonzero" fill-opacity="0.8" /><path id="857" transform="matrix(1 0 0 -1 0 834)" d="M410.416 230.434L410.416 235.481L409.223 235.295L411.024 236.863L412.826 235.295L411.632 235.481L411.632 230.434" stroke="none" fill="#FFFFFF" fill-rule="nonzero" fill-opacity="0.8" /></g></g></g></g><g clip-path="url(#48)"></g><g clip-path="url(#49)"><g transform="matrix(1.008893 0 0 0.9968872 257.819 563.3684)"><g transform="matrix(1 0 0 1 0 0)"><image x="0" y="0" xlink:href="img_11.png" width="44" height="39" /></g></g></g><g clip-path="url(#50)"></g><g clip-path="url(#51)"><g transform="matrix(1.022789 0 0 0.9967948 345.684 579.0918)"><g transform="matrix(1 0 0 1 0 0)"><image x="0" y="0" xlink:href="img_07.png" width="27" height="38" /></g></g></g><path id="1138" transform="matrix(1 0 0 -1 0 834)" d="M633 15L633 0M633 819L633 834M21 15L21 0M21 819L21 834M639 21L654 21M15 21L0 21M639 813L654 813M15 813L0 813" stroke="#000000" stroke-width="1.25" fill="none" /><path id="1139" transform="matrix(1 0 0 -1 0 834)" d="M633 15L633 0M633 819L633 834M21 15L21 0M21 819L21 834M639 21L654 21M15 21L0 21M639 813L654 813M15 813L0 813" stroke="#000000" stroke-width="0.25" fill="none" /><path id="1140" transform="matrix(1 0 0 -1 0 834)" d="M32.2781 9.28203C 32.2781 9.516021 32.2961 9.58203 32.3559 9.62383C 32.416 9.66602 32.5719 9.69609 32.8238 9.69609C 33.2262 9.69609 33.5738 9.62383 33.8441 9.45C 34.3238 9.167971 34.552 8.63398 34.552 8.016021C 34.552 7.05586 34.0359 6.21602 32.9141 6.21602C 32.4762 6.21602 32.2781 6.33008 32.2781 6.78594zM31.252 9.900001L31.252 9.726171C 31.7141 9.68984 31.7621 9.66602 31.7621 9.150001L31.7621 9.150001L31.7621 6.74414C 31.7621 6.23398 31.7141 6.19805 31.198 6.16211L31.198 6.16211L31.198 6L31.198 6L32.6199 6C 33.3578 6 33.952 6.15 34.402 6.49805C 34.8641 6.84609 35.1398 7.38008 35.1398 8.1C 35.1398 8.664061 34.9301 9.101951 34.6359 9.38984C 34.2641 9.74414 33.7 9.900001 32.9379 9.900001z" stroke="#000000" stroke-width="0.4" fill="none" /><path id="1141" transform="matrix(1 0 0 -1 0 834)" d="M38.3801 6.97813C 38.2898 6.70195 38.1758 6.51016 38.0738 6.38984C 37.9359 6.23398 37.732 6.20391 37.402 6.20391C 37.15 6.20391 36.9461 6.21602 36.8258 6.28203C 36.718 6.34219 36.6879 6.46211 36.6879 6.78594L36.6879 6.78594L36.6879 9.15586C 36.6879 9.66602 36.7418 9.69609 37.216 9.73203L37.216 9.73203L37.216 9.900001L37.216 9.900001L35.65 9.900001L35.65 9.900001L35.65 9.73203C 36.1359 9.69609 36.1777 9.66602 36.1777 9.15586L36.1777 9.15586L36.1777 6.75586C 36.1777 6.24609 36.1301 6.20391 35.6258 6.16797L35.6258 6.16797L35.6258 6L35.6258 6L38.3438 6C 38.398 6.18594 38.5238 6.75586 38.5598 6.94219z" stroke="#000000" stroke-width="0.4" fill="none" /><path id="1142" transform="matrix(1 0 0 -1 0 834)" d="M41.0918 9.023829C 41.0438 9.40195 41.0141 9.63594 40.9898 9.851951C 40.7617 9.92383 40.5098 9.989841 40.234 9.989841C 39.4598 9.989841 38.998 9.49805 38.998 8.921881C 38.998 8.24414 39.6039 7.94414 39.9879 7.73984C 40.4379 7.5 40.768 7.28984 40.768 6.84609C 40.768 6.40781 40.498 6.12617 40.048 6.12617C 39.4301 6.12617 39.1598 6.73203 39.0641 7.09805L39.0641 7.09805L38.8898 7.05586C 38.9258 6.767971 39.0039 6.25195 39.052 6.12617C 39.1059 6.09609 39.1961 6.05391 39.3461 6C 39.4961 5.95781 39.6879 5.91016 39.934 5.91016C 40.732 5.91016 41.266 6.41406 41.266 7.04414C 41.266 7.71602 40.6961 7.99805 40.2277 8.23789C 39.7539 8.48398 39.466 8.68789 39.466 9.12617C 39.466 9.45 39.6699 9.78594 40.132 9.78594C 40.6539 9.78594 40.8098 9.371881 40.918 8.98789z" stroke="#000000" stroke-width="0.4" fill="none" /><path id="1143" transform="matrix(1 0 0 -1 0 834)" d="M46.648 6L46.648 6.16797C 46.1258 6.21602 46.1078 6.24609 46.0898 6.88203L46.0898 6.88203L46.0301 9.05391C 46.0117 9.671881 46.0539 9.68398 46.582 9.73203L46.582 9.73203L46.582 9.900001L46.582 9.900001L45.5617 9.900001L45.5617 9.900001L44.1758 6.9L44.1758 6.9L42.8078 9.900001L42.8078 9.900001L41.8238 9.900001L41.8238 9.900001L41.8238 9.73203C 42.3699 9.67813 42.4 9.653911 42.3461 8.87383L42.3461 8.87383L42.2617 7.626171C 42.2141 7.00195 42.1777 6.73789 42.148 6.528131C 42.1059 6.27617 41.9859 6.21016 41.6379 6.16797L41.6379 6.16797L41.6379 6L41.6379 6L43.0359 6L43.0359 6L43.0359 6.16797C 42.6398 6.21016 42.4961 6.25195 42.484 6.53984C 42.4777 6.78008 42.4777 7.04414 42.502 7.53594L42.502 7.53594L42.5918 9.24609L42.5918 9.24609L42.6039 9.24609L42.6039 9.24609L43.948 6.04219L43.948 6.04219L44.068 6.04219L44.068 6.04219L45.532 9.33008L45.532 9.33008L45.5559 9.33008L45.5559 9.33008L45.5738 6.88203C 45.5801 6.24609 45.5559 6.21602 45.0699 6.16797L45.0699 6.16797L45.0699 6z" stroke="#000000" stroke-width="0.4" fill="none" /><path id="1144" transform="matrix(1 0 0 -1 0 834)" d="M51.8738 7.05586C 51.5738 6.45586 51.2496 6.12617 50.6379 6.12617C 49.7258 6.12617 49.0656 6.89414 49.0656 8.016021C 49.0656 8.92813 49.5996 9.773829 50.602 9.773829C 51.2496 9.773829 51.6098 9.516021 51.7656 8.88008L51.7656 8.88008L51.9457 8.921881C 51.9098 9.24609 51.8738 9.48594 51.8258 9.828131C 51.6578 9.85781 51.2496 9.989841 50.7637 9.989841C 49.4258 9.989841 48.4539 9.15586 48.4539 7.89609C 48.4539 6.94219 49.1078 5.91016 50.602 5.91016C 51.034 5.91016 51.5379 6.03008 51.7059 6.07188C 51.8137 6.26992 51.9637 6.71406 52.0477 6.98984z" stroke="#000000" stroke-width="0.4" fill="none" /><path id="1145" transform="matrix(1 0 0 -1 0 834)" d="M54.3398 9.773829C 55.1258 9.773829 55.7855 9.101951 55.7855 7.83594C 55.7855 6.68398 55.1855 6.12617 54.5195 6.12617C 53.6738 6.12617 53.0559 6.94805 53.0559 8.076171C 53.0559 9.19805 53.6676 9.773829 54.3398 9.773829zM54.4598 9.989841C 53.1996 9.989841 52.4438 8.98789 52.4438 7.90781C 52.4438 6.75586 53.3078 5.91016 54.3938 5.91016C 55.4918 5.91016 56.3977 6.70195 56.3977 7.99805C 56.3977 9.19805 55.4797 9.989841 54.4598 9.989841z" stroke="#000000" stroke-width="0.4" fill="none" /><path id="1146" transform="matrix(1 0 0 -1 0 834)" d="M61.8277 6L61.8277 6.16797C 61.3059 6.21602 61.2879 6.24609 61.2695 6.88203L61.2695 6.88203L61.2098 9.05391C 61.1918 9.671881 61.2336 9.68398 61.7617 9.73203L61.7617 9.73203L61.7617 9.900001L61.7617 9.900001L60.7418 9.900001L60.7418 9.900001L59.3559 6.9L59.3559 6.9L57.9879 9.900001L57.9879 9.900001L57.0035 9.900001L57.0035 9.900001L57.0035 9.73203C 57.5496 9.67813 57.5797 9.653911 57.5258 8.87383L57.5258 8.87383L57.4418 7.626171C 57.3938 7.00195 57.3578 6.73789 57.3277 6.528131C 57.2855 6.27617 57.1656 6.21016 56.8176 6.16797L56.8176 6.16797L56.8176 6L56.8176 6L58.2156 6L58.2156 6L58.2156 6.16797C 57.8195 6.21016 57.6758 6.25195 57.6637 6.53984C 57.6578 6.78008 57.6578 7.04414 57.6816 7.53594L57.6816 7.53594L57.7719 9.24609L57.7719 9.24609L57.7836 9.24609L57.7836 9.24609L59.1277 6.04219L59.1277 6.04219L59.2477 6.04219L59.2477 6.04219L60.7117 9.33008L60.7117 9.33008L60.7355 9.33008L60.7355 9.33008L60.7535 6.88203C 60.7598 6.24609 60.7355 6.21602 60.2496 6.16797L60.2496 6.16797L60.2496 6z" stroke="#000000" stroke-width="0.4" fill="none" /><path id="1147" transform="matrix(1 0 0 -1 0 834)" d="M63.8258 6L63.8258 6.16797C 63.3336 6.20391 63.2855 6.23398 63.2855 6.75L63.2855 6.75L63.2855 9.150001C 63.2855 9.66016 63.3336 9.69609 63.8258 9.73203L63.8258 9.73203L63.8258 9.900001L63.8258 9.900001L62.2355 9.900001L62.2355 9.900001L62.2355 9.73203C 62.7277 9.69609 62.7758 9.66016 62.7758 9.150001L62.7758 9.150001L62.7758 6.75C 62.7758 6.23984 62.7277 6.20391 62.2355 6.16797L62.2355 6.16797L62.2355 6z" stroke="#000000" stroke-width="0.4" fill="none" /><path id="1148" transform="matrix(1 0 0 -1 0 834)" d="M66.5074 9.023829C 66.4598 9.40195 66.4297 9.63594 66.4055 9.851951C 66.1777 9.92383 65.9258 9.989841 65.6496 9.989841C 64.8758 9.989841 64.4137 9.49805 64.4137 8.921881C 64.4137 8.24414 65.0195 7.94414 65.4035 7.73984C 65.8535 7.5 66.1836 7.28984 66.1836 6.84609C 66.1836 6.40781 65.9137 6.12617 65.46371 6.12617C 64.8457 6.12617 64.5758 6.73203 64.4797 7.09805L64.4797 7.09805L64.3055 7.05586C 64.3418 6.767971 64.4195 6.25195 64.46761 6.12617C 64.52151 6.09609 64.6117 6.05391 64.7617 6C 64.91171 5.95781 65.1035 5.91016 65.3496 5.91016C 66.1477 5.91016 66.6816 6.41406 66.6816 7.04414C 66.6816 7.71602 66.1117 7.99805 65.6438 8.23789C 65.1695 8.48398 64.8816 8.68789 64.8816 9.12617C 64.8816 9.45 65.0855 9.78594 65.5477 9.78594C 66.0695 9.78594 66.2258 9.371881 66.3336 8.98789z" stroke="#000000" stroke-width="0.4" fill="none" /><path id="1149" transform="matrix(1 0 0 -1 0 834)" d="M69.4055 7.68008L68.3016 7.68008C 68.4816 8.171881 68.6734 8.69414 68.8656 9.21016L68.8656 9.21016L68.8777 9.21016zM70.9355 6L70.9355 6.16797C 70.5457 6.20391 70.46761 6.25781 70.2758 6.77383C 69.89181 7.81797 69.4895 8.95781 69.11761 9.989841L69.11761 9.989841L68.9316 9.93594L68.9316 9.93594L67.68951 6.78594C 67.4797 6.25781 67.3957 6.22188 67.0176 6.16797L67.0176 6.16797L67.0176 6L67.0176 6L68.3195 6L68.3195 6L68.3195 6.16797C 67.8695 6.21016 67.81561 6.26992 67.9477 6.64805C 68.0258 6.9 68.1156 7.15195 68.2117 7.42188L68.2117 7.42188L69.4895 7.42188C 69.62151 7.05586 69.74181 6.73203 69.8195 6.49805C 69.8977 6.26406 69.8438 6.21602 69.4656 6.16797L69.4656 6.16797L69.4656 6z" stroke="#000000" stroke-width="0.4" fill="none" /><path id="1150" transform="matrix(1 0 0 -1 0 834)" d="M71.7273 5.92813C 71.9195 5.92813 72.06371 6.06602 72.06371 6.27617C 72.06371 6.46797 71.9195 6.61797 71.7273 6.61797C 71.5355 6.61797 71.3914 6.46797 71.3914 6.27617C 71.3914 6.06602 71.5355 5.92813 71.7273 5.92813z" stroke="#000000" stroke-width="0.4" fill="none" /><path id="1151" transform="matrix(1 0 0 -1 0 834)" d="M73.9234 6L73.9234 6.15586C 73.53951 6.19219 73.4977 6.22813 73.4977 6.63594L73.4977 6.63594L73.4977 8.70586C 73.2336 8.59805 72.9516 8.51992 72.6453 8.471881L72.6453 8.471881L72.6453 8.328131C 73.0055 8.26797 73.0234 8.24414 73.0234 7.871881L73.0234 7.871881L73.0234 6.63594C 73.0234 6.22813 72.9816 6.19219 72.6035 6.15586L72.6035 6.15586L72.6035 6zM73.2215 9.216021C 73.3953 9.216021 73.52731 9.36016 73.52731 9.52188C 73.52731 9.70195 73.3953 9.83398 73.2273 9.83398C 73.06561 9.83398 72.9215 9.70195 72.9215 9.52188C 72.9215 9.36016 73.06561 9.216021 73.2215 9.216021z" stroke="#000000" stroke-width="0.4" fill="none" /><path id="1152" transform="matrix(1 0 0 -1 0 834)" d="M77.1574 6L77.1574 6.15586C 76.8094 6.19219 76.7793 6.21602 76.7793 6.62383L76.7793 6.62383L76.7793 7.78203C 76.7793 8.36406 76.4793 8.69414 76.0055 8.69414C 75.8313 8.69414 75.67541 8.621881 75.5074 8.51406C 75.3574 8.41211 75.2254 8.32188 75.1055 8.23203L75.1055 8.23203L75.1055 8.712111C 74.8414 8.59219 74.5594 8.51992 74.27151 8.466021L74.27151 8.466021L74.27151 8.328131C 74.5953 8.26797 74.6313 8.25 74.6313 7.86602L74.6313 7.86602L74.6313 6.62383C 74.6313 6.22813 74.6016 6.19805 74.19341 6.15586L74.19341 6.15586L74.19341 6L74.19341 6L75.4953 6L75.4953 6L75.4953 6.15586C 75.1414 6.19219 75.1055 6.21602 75.1055 6.62383L75.1055 6.62383L75.1055 8.03398C 75.2855 8.18984 75.5195 8.33984 75.7594 8.33984C 76.1613 8.33984 76.3055 8.069921 76.3055 7.65586L76.3055 7.65586L76.3055 6.65391C 76.3055 6.23984 76.2633 6.19219 75.9094 6.15586L75.9094 6.15586L75.9094 6z" stroke="#000000" stroke-width="0.4" fill="none" /><path id="1153" transform="matrix(1 0 0 -1 0 834)" d="M79.4734 6.51016C 79.32931 6.40195 79.1133 6.30586 78.8973 6.30586C 78.5133 6.30586 78.0754 6.65391 78.0754 7.36797C 78.0754 8.23789 78.57931 8.471881 78.8555 8.471881C 79.0832 8.471881 79.32931 8.37617 79.4734 8.16602zM80.4035 6.30586L80.2113 6.32383C 79.9895 6.34805 79.9473 6.37813 79.9473 6.68984L79.9473 6.68984L79.9473 10.2719C 79.7254 10.1941 79.3234 10.1039 79.0113 10.0621L79.0113 10.0621L79.0113 9.917971C 79.44341 9.88789 79.4734 9.869921 79.4734 9.47383L79.4734 9.47383L79.4734 8.628131C 79.3355 8.67617 79.1613 8.69414 79.0773 8.69414C 78.2613 8.69414 77.5293 8.03984 77.5293 7.20586C 77.5293 6.36602 78.1594 5.92813 78.6395 5.92813C 78.7113 5.92813 78.87341 5.96406 79.1074 6.10195L79.1074 6.10195L79.4734 6.31797L79.4734 6.31797L79.4734 5.92813C 79.8215 6.05391 80.27151 6.13203 80.4035 6.15586z" stroke="#000000" stroke-width="0.4" fill="none" /><path id="1154" transform="matrix(1 0 0 -1 0 834)" d="M81.3813 8.24414C 81.4895 8.310161 81.6813 8.35781 81.84921 8.35781C 82.34731 8.35781 82.7676 7.96211 82.7676 7.278131C 82.7676 6.58203 82.4492 6.15586 81.9516 6.15586C 81.6336 6.16211 81.4535 6.37188 81.4176 6.49219C 81.3934 6.54609 81.3813 6.60586 81.3813 6.69609zM81.3813 8.42383L81.3813 10.2719C 81.1594 10.1941 80.7934 10.098 80.5113 10.0621L80.5113 10.0621L80.5113 9.92383C 80.8953 9.88789 80.9074 9.851951 80.9074 9.48008L80.9074 9.48008L80.9074 6.14414C 81.2375 5.98789 81.5434 5.92813 81.78951 5.92813C 82.59341 5.92813 83.2953 6.55195 83.2953 7.43398C 83.2953 8.14219 82.7555 8.69414 82.1133 8.69414C 82.0473 8.69414 81.9633 8.67617 81.86761 8.63398z" stroke="#000000" stroke-width="0.4" fill="none" /><path id="1155" transform="matrix(1 0 0 -1 0 834)" d="M88.1133 8.976171C 88.2633 9.19805 88.50311 9.45 88.8332 9.45C 89.15121 9.45 89.4031 9.257811 89.4031 8.88594C 89.4031 8.44219 88.9953 8.20781 88.44341 8.03398L88.44341 8.03398L88.4852 7.86016C 88.5813 7.88984 88.7254 7.92617 88.8691 7.92617C 89.2113 7.92617 89.6313 7.70391 89.6313 7.15195C 89.6313 6.55781 89.3313 6.23984 88.90511 6.23984C 88.5633 6.23984 88.3172 6.40781 88.1613 6.54609C 88.1133 6.58789 88.0652 6.58203 88.0172 6.54609C 87.9633 6.50391 87.8852 6.42617 87.8793 6.34805C 87.8672 6.27617 87.891 6.21016 87.9754 6.13203C 88.0531 6.06016 88.2992 5.92813 88.5754 5.92813C 89.007 5.92813 90.1473 6.37188 90.1473 7.34414C 90.1473 7.78203 89.841 8.153911 89.3133 8.25586L89.3133 8.25586L89.3133 8.26797C 89.4871 8.38789 89.6313 8.49609 89.7211 8.59219C 89.8352 8.70586 89.90701 8.84414 89.90701 9.01797C 89.90701 9.47383 89.5531 9.810161 89.0133 9.810161C 88.6953 9.810161 88.4191 9.66016 88.25121 9.47383L88.25121 9.47383L87.9871 9.09609z" stroke="#000000" stroke-width="0.4" fill="none" /><path id="1156" transform="matrix(1 0 0 -1 0 834)" d="M93.1652 9.73789L90.873 9.73789C 90.84921 9.48008 90.8191 9.180079 90.7652 8.85L90.7652 8.85L90.9391 8.85C 91.0832 9.24609 91.1191 9.3 91.5152 9.3L91.5152 9.3L92.8113 9.3C 92.3371 8.25586 91.6594 7.01406 91.0293 5.99414L91.0293 5.99414L91.0711 5.92813L91.0711 5.92813L91.5152 5.98789C 92.091 7.22383 92.6492 8.44805 93.2133 9.66602z" stroke="#000000" stroke-width="0.4" fill="none" /><path id="1157" transform="matrix(1 0 0 -1 0 834)" d="M93.873 8.976171C 94.023 9.19805 94.2633 9.45 94.59341 9.45C 94.9113 9.45 95.1633 9.257811 95.1633 8.88594C 95.1633 8.44219 94.7551 8.20781 94.2031 8.03398L94.2031 8.03398L94.2453 7.86016C 94.341 7.88984 94.4852 7.92617 94.6293 7.92617C 94.9711 7.92617 95.391 7.70391 95.391 7.15195C 95.391 6.55781 95.091 6.23984 94.6652 6.23984C 94.323 6.23984 94.0773 6.40781 93.9211 6.54609C 93.873 6.58789 93.8254 6.58203 93.77731 6.54609C 93.723 6.50391 93.6453 6.42617 93.6391 6.34805C 93.6273 6.27617 93.65121 6.21016 93.7352 6.13203C 93.8133 6.06016 94.0594 5.92813 94.3352 5.92813C 94.7672 5.92813 95.90701 6.37188 95.90701 7.34414C 95.90701 7.78203 95.6012 8.153911 95.073 8.25586L95.073 8.25586L95.073 8.26797C 95.24731 8.38789 95.391 8.49609 95.4813 8.59219C 95.5953 8.70586 95.6672 8.84414 95.6672 9.01797C 95.6672 9.47383 95.3133 9.810161 94.773 9.810161C 94.4551 9.810161 94.17931 9.66016 94.0113 9.47383L94.0113 9.47383L93.74731 9.09609z" stroke="#000000" stroke-width="0.4" fill="none" /><path id="1176" transform="matrix(1 0 0 -1 0 834)" d="M554.472 6.83984C 554.292 6.46211 554.2141 6.43789 553.89 6.43789L553.89 6.43789L552.768 6.43789L552.768 6.43789L553.6201 7.33203C 554.1721 7.91992 554.412 8.273829 554.412 8.79609C 554.412 9.42617 553.932 9.810161 553.404 9.810161C 553.056 9.810161 552.774 9.653911 552.594 9.45586L552.594 9.45586L552.252 8.96992L552.252 8.96992L552.384 8.85C 552.54 9.08398 552.792 9.40781 553.2 9.40781C 553.644 9.40781 553.908 9.11406 553.908 8.61016C 553.908 8.09414 553.53 7.60195 553.158 7.15781C 552.858 6.81016 552.522 6.46797 552.186 6.13789L552.186 6.13789L552.186 6L552.186 6L554.43 6C 554.502 6.26992 554.562 6.53398 554.64 6.78594z" stroke="#000000" stroke-width="0.4" fill="none" /><path id="1177" transform="matrix(1 0 0 -1 0 834)" d="M555.792 9.3L557.19 9.3L557.19 9.3L557.346 9.68984L557.346 9.68984L557.31 9.73789L557.31 9.73789L555.6 9.73789L555.6 9.73789L555.366 7.90781C 555.504 7.96211 555.732 8.028131 555.984 8.028131C 556.638 8.028131 556.962 7.65 556.962 7.121881C 556.962 6.67188 556.71 6.23398 556.2 6.23398C 555.834 6.23398 555.588 6.42617 555.462 6.53984C 555.402 6.58789 555.354 6.58203 555.3 6.53984C 555.234 6.48008 555.18 6.40195 555.174 6.34219C 555.162 6.26992 555.192 6.22188 555.27 6.13789C 555.36 6.05391 555.612 5.92813 555.888 5.92813C 556.206 5.93398 556.608 6.08984 556.932 6.35391C 557.298 6.65391 557.466 6.99609 557.466 7.35586C 557.466 7.84805 557.076 8.369921 556.308 8.369921C 556.146 8.369921 555.864 8.273829 555.636 8.18984z" stroke="#000000" stroke-width="0.4" fill="none" /><path id="1178" transform="matrix(1 0 0 -1 0 834)" d="M559.548 9.989841L559.212 9.989841L559.212 9.989841L557.91 5.73594L557.91 5.73594L558.246 5.73594z" stroke="#000000" stroke-width="0.4" fill="none" /><path id="1179" transform="matrix(1 0 0 -1 0 834)" d="M561.18 9.61211C 561.72 9.61211 561.8701 8.72383 561.8701 7.871881C 561.8701 7.03203 561.726 6.13203 561.186 6.13203C 560.664 6.13203 560.49 7.03789 560.49 7.87813C 560.49 8.712111 560.634 9.61211 561.18 9.61211zM561.186 9.810161C 560.286 9.810161 559.956 8.74219 559.956 7.86602C 559.956 6.91797 560.28 5.92813 561.186 5.92813C 562.086 5.92813 562.404 6.99609 562.404 7.871881C 562.404 8.79609 562.086 9.810161 561.186 9.810161z" stroke="#000000" stroke-width="0.4" fill="none" /><path id="1180" transform="matrix(1 0 0 -1 0 834)" d="M564 9.61211C 564.582 9.61211 564.738 8.86797 564.738 8.33984C 564.738 8.21992 564.732 8.076171 564.7141 7.94414C 564.588 7.84805 564.384 7.77617 564.174 7.77617C 563.67 7.77617 563.3701 8.214061 563.3701 8.74219C 563.3701 9.09609 563.538 9.61211 564 9.61211zM564.078 9.810161C 563.304 9.810161 562.854 9.10781 562.854 8.53203C 562.854 7.90195 563.292 7.43398 563.928 7.43398C 564.042 7.43398 564.156 7.45781 564.288 7.53008L564.288 7.53008L564.69 7.74609C 564.492 6.83398 563.838 6.23398 562.98 6.08984L562.98 6.08984L563.01 5.91016C 563.16 5.91016 563.526 5.96992 563.85 6.10195C 564.66 6.42617 565.2661 7.20586 565.2661 8.310161C 565.2661 9.12617 564.828 9.810161 564.078 9.810161z" stroke="#000000" stroke-width="0.4" fill="none" /><path id="1181" transform="matrix(1 0 0 -1 0 834)" d="M567.294 9.989841L566.958 9.989841L566.958 9.989841L565.656 5.73594L565.656 5.73594L565.992 5.73594z" stroke="#000000" stroke-width="0.4" fill="none" /><path id="1182" transform="matrix(1 0 0 -1 0 834)" d="M569.9641 6.83984C 569.784 6.46211 569.706 6.43789 569.382 6.43789L569.382 6.43789L568.26 6.43789L568.26 6.43789L569.112 7.33203C 569.664 7.91992 569.904 8.273829 569.904 8.79609C 569.904 9.42617 569.424 9.810161 568.896 9.810161C 568.548 9.810161 568.2661 9.653911 568.086 9.45586L568.086 9.45586L567.744 8.96992L567.744 8.96992L567.876 8.85C 568.032 9.08398 568.284 9.40781 568.692 9.40781C 569.136 9.40781 569.4 9.11406 569.4 8.61016C 569.4 8.09414 569.022 7.60195 568.65 7.15781C 568.35 6.81016 568.014 6.46797 567.678 6.13789L567.678 6.13789L567.678 6L567.678 6L569.9221 6C 569.994 6.26992 570.054 6.53398 570.132 6.78594z" stroke="#000000" stroke-width="0.4" fill="none" /><path id="1183" transform="matrix(1 0 0 -1 0 834)" d="M571.806 9.61211C 572.346 9.61211 572.496 8.72383 572.496 7.871881C 572.496 7.03203 572.352 6.13203 571.812 6.13203C 571.29 6.13203 571.116 7.03789 571.116 7.87813C 571.116 8.712111 571.26 9.61211 571.806 9.61211zM571.812 9.810161C 570.912 9.810161 570.582 8.74219 570.582 7.86602C 570.582 6.91797 570.906 5.92813 571.812 5.92813C 572.712 5.92813 573.03 6.99609 573.03 7.871881C 573.03 8.79609 572.712 9.810161 571.812 9.810161z" stroke="#000000" stroke-width="0.4" fill="none" /><path id="1184" transform="matrix(1 0 0 -1 0 834)" d="M575.556 6L575.556 6.16211C 575.01 6.20391 574.9741 6.25195 574.9741 6.68398L574.9741 6.68398L574.9741 9.810161C 574.644 9.67813 574.29 9.56406 573.906 9.49805L573.906 9.49805L573.906 9.36016L573.906 9.36016L574.194 9.34805C 574.458 9.33594 574.482 9.305861 574.482 8.99414L574.482 8.99414L574.482 6.68398C 574.482 6.25195 574.452 6.20391 573.906 6.16211L573.906 6.16211L573.906 6z" stroke="#000000" stroke-width="0.4" fill="none" /><path id="1185" transform="matrix(1 0 0 -1 0 834)" d="M578.814 9.73789L576.522 9.73789C 576.498 9.48008 576.468 9.180079 576.414 8.85L576.414 8.85L576.588 8.85C 576.732 9.24609 576.768 9.3 577.164 9.3L577.164 9.3L578.46 9.3C 577.986 8.25586 577.308 7.01406 576.678 5.99414L576.678 5.99414L576.72 5.92813L576.72 5.92813L577.164 5.98789C 577.74 7.22383 578.298 8.44805 578.862 9.66602z" stroke="#000000" stroke-width="0.4" fill="none" /><path id="1186" transform="matrix(1 0 0 -1 0 834)" d="M584.531 9.61211C 585.071 9.61211 585.221 8.72383 585.221 7.871881C 585.221 7.03203 585.077 6.13203 584.537 6.13203C 584.015 6.13203 583.841 7.03789 583.841 7.87813C 583.841 8.712111 583.985 9.61211 584.531 9.61211zM584.537 9.810161C 583.637 9.810161 583.307 8.74219 583.307 7.86602C 583.307 6.91797 583.631 5.92813 584.537 5.92813C 585.437 5.92813 585.755 6.99609 585.755 7.871881C 585.755 8.79609 585.437 9.810161 584.537 9.810161z" stroke="#000000" stroke-width="0.4" fill="none" /><path id="1187" transform="matrix(1 0 0 -1 0 834)" d="M588.449 6.83984C 588.269 6.46211 588.191 6.43789 587.867 6.43789L587.867 6.43789L586.7451 6.43789L586.7451 6.43789L587.597 7.33203C 588.149 7.91992 588.389 8.273829 588.389 8.79609C 588.389 9.42617 587.909 9.810161 587.381 9.810161C 587.033 9.810161 586.751 9.653911 586.571 9.45586L586.571 9.45586L586.229 8.96992L586.229 8.96992L586.361 8.85C 586.517 9.08398 586.769 9.40781 587.177 9.40781C 587.621 9.40781 587.885 9.11406 587.885 8.61016C 587.885 8.09414 587.507 7.60195 587.135 7.15781C 586.835 6.81016 586.499 6.46797 586.163 6.13789L586.163 6.13789L586.163 6L586.163 6L588.407 6C 588.479 6.26992 588.539 6.53398 588.617 6.78594z" stroke="#000000" stroke-width="0.4" fill="none" /><path id="1188" transform="matrix(1 0 0 -1 0 834)" d="M589.5471 5.92813C 589.739 5.92813 589.883 6.06602 589.883 6.27617C 589.883 6.46797 589.739 6.61797 589.5471 6.61797C 589.355 6.61797 589.211 6.46797 589.211 6.27617C 589.211 6.06602 589.355 5.92813 589.5471 5.92813zM589.541 8.466021C 589.3491 8.466021 589.211 8.328131 589.211 8.13008C 589.211 7.92617 589.3491 7.78203 589.541 7.78203C 589.733 7.78203 589.877 7.92617 589.877 8.13008C 589.877 8.328131 589.733 8.466021 589.541 8.466021z" stroke="#000000" stroke-width="0.4" fill="none" /><path id="1189" transform="matrix(1 0 0 -1 0 834)" d="M591.137 9.3L592.535 9.3L592.535 9.3L592.691 9.68984L592.691 9.68984L592.655 9.73789L592.655 9.73789L590.945 9.73789L590.945 9.73789L590.711 7.90781C 590.8491 7.96211 591.077 8.028131 591.329 8.028131C 591.983 8.028131 592.307 7.65 592.307 7.121881C 592.307 6.67188 592.055 6.23398 591.545 6.23398C 591.179 6.23398 590.933 6.42617 590.807 6.53984C 590.747 6.58789 590.699 6.58203 590.645 6.53984C 590.579 6.48008 590.525 6.40195 590.519 6.34219C 590.507 6.26992 590.537 6.22188 590.615 6.13789C 590.705 6.05391 590.957 5.92813 591.233 5.92813C 591.551 5.93398 591.953 6.08984 592.277 6.35391C 592.643 6.65391 592.811 6.99609 592.811 7.35586C 592.811 7.84805 592.421 8.369921 591.653 8.369921C 591.491 8.369921 591.209 8.273829 590.981 8.18984z" stroke="#000000" stroke-width="0.4" fill="none" /><path id="1190" transform="matrix(1 0 0 -1 0 834)" d="M594.539 9.61211C 595.079 9.61211 595.229 8.72383 595.229 7.871881C 595.229 7.03203 595.085 6.13203 594.545 6.13203C 594.023 6.13203 593.8491 7.03789 593.8491 7.87813C 593.8491 8.712111 593.993 9.61211 594.539 9.61211zM594.545 9.810161C 593.645 9.810161 593.315 8.74219 593.315 7.86602C 593.315 6.91797 593.639 5.92813 594.545 5.92813C 595.445 5.92813 595.763 6.99609 595.763 7.871881C 595.763 8.79609 595.445 9.810161 594.545 9.810161z" stroke="#000000" stroke-width="0.4" fill="none" /><path id="1191" transform="matrix(1 0 0 -1 0 834)" d="M596.675 5.92813C 596.867 5.92813 597.011 6.06602 597.011 6.27617C 597.011 6.46797 596.867 6.61797 596.675 6.61797C 596.483 6.61797 596.3391 6.46797 596.3391 6.27617C 596.3391 6.06602 596.483 5.92813 596.675 5.92813zM596.669 8.466021C 596.477 8.466021 596.3391 8.328131 596.3391 8.13008C 596.3391 7.92617 596.477 7.78203 596.669 7.78203C 596.861 7.78203 597.005 7.92617 597.005 8.13008C 597.005 8.328131 596.861 8.466021 596.669 8.466021z" stroke="#000000" stroke-width="0.4" fill="none" /><path id="1192" transform="matrix(1 0 0 -1 0 834)" d="M599.657 6L599.657 6.16211C 599.111 6.20391 599.075 6.25195 599.075 6.68398L599.075 6.68398L599.075 9.810161C 598.7451 9.67813 598.3911 9.56406 598.007 9.49805L598.007 9.49805L598.007 9.36016L598.007 9.36016L598.295 9.34805C 598.559 9.33594 598.583 9.305861 598.583 8.99414L598.583 8.99414L598.583 6.68398C 598.583 6.25195 598.553 6.20391 598.007 6.16211L598.007 6.16211L598.007 6z" stroke="#000000" stroke-width="0.4" fill="none" /><path id="1193" transform="matrix(1 0 0 -1 0 834)" d="M601.607 9.61211C 602.189 9.61211 602.345 8.86797 602.345 8.33984C 602.345 8.21992 602.3391 8.076171 602.321 7.94414C 602.195 7.84805 601.991 7.77617 601.781 7.77617C 601.277 7.77617 600.977 8.214061 600.977 8.74219C 600.977 9.09609 601.145 9.61211 601.607 9.61211zM601.685 9.810161C 600.911 9.810161 600.461 9.10781 600.461 8.53203C 600.461 7.90195 600.899 7.43398 601.535 7.43398C 601.649 7.43398 601.763 7.45781 601.895 7.53008L601.895 7.53008L602.2971 7.74609C 602.0991 6.83398 601.445 6.23398 600.587 6.08984L600.587 6.08984L600.617 5.91016C 600.767 5.91016 601.133 5.96992 601.457 6.10195C 602.267 6.42617 602.873 7.20586 602.873 8.310161C 602.873 9.12617 602.435 9.810161 601.685 9.810161z" stroke="#000000" stroke-width="0.4" fill="none" /><path id="1194" transform="matrix(1 0 0 -1 0 834)" d="M605.489 8.08203C 605.651 8.20195 605.897 8.33398 606.0891 8.33398C 606.527 8.33398 606.893 7.97383 606.893 7.33203C 606.893 6.65391 606.557 6.22188 606.053 6.22188C 605.8491 6.22188 605.621 6.31797 605.489 6.45586zM605.489 8.28008L605.489 8.75391C 605.207 8.63984 604.871 8.53789 604.619 8.49609L604.619 8.49609L604.619 8.351951C 604.991 8.30391 605.015 8.29219 605.015 7.90195L605.015 7.90195L605.015 5.18984C 605.015 4.79414 604.961 4.75781 604.577 4.72188L604.577 4.72188L604.577 4.56016L604.577 4.56016L605.999 4.56016L605.999 4.56016L605.999 4.72188C 605.531 4.76406 605.489 4.79414 605.489 5.25L605.489 5.25L605.489 6.03594C 605.567 5.99414 605.729 5.93398 605.903 5.92813C 606.683 6.07188 607.397 6.65391 607.397 7.56016C 607.397 8.153911 607.001 8.69414 606.335 8.69414C 606.263 8.69414 606.149 8.664061 606.041 8.60391z" stroke="#000000" stroke-width="0.4" fill="none" /><path id="1195" transform="matrix(1 0 0 -1 0 834)" d="M608.303 5.92813C 608.4951 5.92813 608.639 6.06602 608.639 6.27617C 608.639 6.46797 608.4951 6.61797 608.303 6.61797C 608.111 6.61797 607.967 6.46797 607.967 6.27617C 607.967 6.06602 608.111 5.92813 608.303 5.92813z" stroke="#000000" stroke-width="0.4" fill="none" /><path id="1196" transform="matrix(1 0 0 -1 0 834)" d="M615.125 6L615.125 6.15586C 614.783 6.19219 614.735 6.21602 614.735 6.61797L614.735 6.61797L614.735 7.77617C 614.735 8.36406 614.441 8.69414 613.973 8.69414C 613.805 8.69414 613.649 8.621881 613.523 8.53789C 613.373 8.44805 613.199 8.33398 613.025 8.20195C 612.905 8.51406 612.647 8.69414 612.359 8.69414C 612.167 8.69414 612.023 8.628131 611.867 8.53203C 611.687 8.417971 611.555 8.310161 611.429 8.226171L611.429 8.226171L611.429 8.712111C 611.165 8.59219 610.859 8.51406 610.595 8.466021L610.595 8.466021L610.595 8.328131C 610.9431 8.273829 610.961 8.24414 610.961 7.86016L610.961 7.86016L610.961 6.61797C 610.961 6.22813 610.907 6.19219 610.511 6.15586L610.511 6.15586L610.511 6L610.511 6L611.777 6L611.777 6L611.777 6.15586C 611.483 6.19219 611.435 6.22813 611.435 6.61797L611.435 6.61797L611.435 8.028131C 611.615 8.17813 611.8491 8.33984 612.0891 8.33984C 612.455 8.33984 612.611 8.09414 612.611 7.65L612.611 7.65L612.611 6.61797C 612.611 6.22188 612.557 6.19219 612.185 6.15586L612.185 6.15586L612.185 6L612.185 6L613.469 6L613.469 6L613.469 6.15586C 613.139 6.19219 613.085 6.22813 613.085 6.60586L613.085 6.60586L613.085 7.77617C 613.085 7.88984 613.079 7.95586 613.067 8.028131C 613.295 8.21992 613.523 8.33984 613.739 8.33984C 614.117 8.33984 614.267 8.069921 614.267 7.64414L614.267 7.64414L614.267 6.64219C 614.267 6.21602 614.201 6.19219 613.847 6.15586L613.847 6.15586L613.847 6z" stroke="#000000" stroke-width="0.4" fill="none" /><path id="1197" transform="matrix(1 0 0 -1 0 834)" d="M615.947 5.92813C 616.139 5.92813 616.283 6.06602 616.283 6.27617C 616.283 6.46797 616.139 6.61797 615.947 6.61797C 615.755 6.61797 615.611 6.46797 615.611 6.27617C 615.611 6.06602 615.755 5.92813 615.947 5.92813z" stroke="#000000" stroke-width="0.4" fill="none" /></g></g></svg>