<svg xmlns="http://www.w3.org/2000/svg" xmlns:xlink="http://www.w3.org/1999/xlink" id="body_1" preserveAspectRatio="xMinYMin meet" viewBox="0 0 872 1112"><defs><clipPath id="1"><path id="" clip-rule="evenodd" transform="matrix(1 0 0 1 0 0)" d="M0 834L0 0L0 0L654 0L654 0L654 834L654 834L0 834z" /></clipPath><clipPath id="2"><path id="" clip-rule="evenodd" transform="matrix(1 0 0 1 0 0)" d="M21 813L633 813L633 813L633 21L633 21L21 21z" /></clipPath><clipPath id="3"><path id="" clip-rule="evenodd" transform="matrix(1 0 0 1 0 0)" d="M333.273 490.322L479.646 490.322L479.646 490.322L479.646 348.928L479.646 348.928L333.273 348.928z" /></clipPath><clipPath id="4"><path id="" clip-rule="evenodd" transform="matrix(1 0 0 1 0 0)" d="M420.404 406.303C 420.404 420.793 430.922 432.827 444.739 435.189L444.739 435.189L444.739 435.189L444.739 435.189L454.684 435.189C 468.5 432.827 479.018 420.793 479.018 406.303L479.018 406.303L479.018 406.303C 479.018 390.117 465.897 376.996 449.711 376.996L449.711 376.996L449.711 376.996C 433.525 376.996 420.404 390.117 420.404 406.303" /></clipPath><clipPath id="5"><path id="" clip-rule="evenodd" transform="matrix(1 0 0 1 0 0)" d="M420.404 406.303C 420.404 420.793 430.922 432.827 444.739 435.189L444.739 435.189L444.739 435.189L444.739 435.189L454.684 435.189C 468.5 432.827 479.018 420.793 479.018 406.303L479.018 406.303L479.018 406.303C 479.018 390.117 465.897 376.996 449.711 376.996L449.711 376.996L449.711 376.996C 433.525 376.996 420.404 390.117 420.404 406.303" /></clipPath><clipPath id="6"><path id="" clip-rule="evenodd" transform="matrix(1 0 0 1 0 0)" d="M333.273 490.322L479.646 490.322L479.646 490.322L479.646 348.928L479.646 348.928L333.273 348.928z" /></clipPath><clipPath id="7"><path id="" clip-rule="evenodd" transform="matrix(1 0 0 1 0 0)" d="M378.726 444.049L383.0678 444.049L383.0678 444.049L383.0678 435.0541L383.0678 435.0541L378.726 435.0541z" /></clipPath><clipPath id="8"><path id="" clip-rule="evenodd" transform="matrix(1 0 0 1 0 0)" d="M378.726 444.049L383.068 444.049L383.068 444.049L383.068 435.054L383.068 435.054L378.726 435.054z" /></clipPath><clipPath id="9"><path id="" clip-rule="evenodd" transform="matrix(1 0 0 1 0 0)" d="M378.726 444.049L383.0678 444.049L383.0678 444.049L383.0678 435.0541L383.0678 435.0541L378.726 435.0541z" /></clipPath><clipPath id="10"><path id="" clip-rule="evenodd" transform="matrix(1 0 0 1 0 0)" d="M382.574 436.896L386.6291 436.896L386.6291 436.896L386.6291 428.755L386.6291 428.755L382.574 428.755z" /></clipPath><clipPath id="11"><path id="" clip-rule="evenodd" transform="matrix(1 0 0 1 0 0)" d="M382.574 436.896L386.629 436.896L386.629 436.896L386.629 428.755L386.629 428.755L382.574 428.755z" /></clipPath><clipPath id="12"><path id="" clip-rule="evenodd" transform="matrix(1 0 0 1 0 0)" d="M382.574 436.896L386.6291 436.896L386.6291 436.896L386.6291 428.755L386.6291 428.755L382.574 428.755z" /></clipPath><clipPath id="13"><path id="" clip-rule="evenodd" transform="matrix(1 0 0 1 0 0)" d="M333.273 490.322L479.646 490.322L479.646 490.322L479.646 348.928L479.646 348.928L333.273 348.928z" /></clipPath><clipPath id="14"><path id="" clip-rule="evenodd" transform="matrix(1 0 0 1 0 0)" d="M406.566 443.95L410.9082 443.95L410.9082 443.95L410.9082 434.9551L410.9082 434.9551L406.566 434.9551z" /></clipPath><clipPath id="15"><path id="" clip-rule="evenodd" transform="matrix(1 0 0 1 0 0)" d="M406.566 443.95L410.908 443.95L410.908 443.95L410.908 434.955L410.908 434.955L406.566 434.955z" /></clipPath><clipPath id="16"><path id="" clip-rule="evenodd" transform="matrix(1 0 0 1 0 0)" d="M406.566 443.95L410.9082 443.95L410.9082 443.95L410.9082 434.9551L410.9082 434.9551L406.566 434.9551z" /></clipPath><clipPath id="17"><path id="" clip-rule="evenodd" transform="matrix(1 0 0 1 0 0)" d="M410.414 436.796L414.4691 436.796L414.4691 436.796L414.4691 428.6558L414.4691 428.6558L410.414 428.6558z" /></clipPath><clipPath id="18"><path id="" clip-rule="evenodd" transform="matrix(1 0 0 1 0 0)" d="M410.414 436.796L414.469 436.796L414.469 436.796L414.469 428.656L414.469 428.656L410.414 428.656z" /></clipPath><clipPath id="19"><path id="" clip-rule="evenodd" transform="matrix(1 0 0 1 0 0)" d="M410.414 436.796L414.4691 436.796L414.4691 436.796L414.4691 428.6558L414.4691 428.6558L410.414 428.6558z" /></clipPath><clipPath id="20"><path id="" clip-rule="evenodd" transform="matrix(1 0 0 1 0 0)" d="M364.276 269.587L437.585 269.587L437.585 269.587L437.585 128.024L437.585 128.024L364.276 128.024z" /></clipPath><clipPath id="21"><path id="" clip-rule="evenodd" transform="matrix(1 0 0 1 0 0)" d="M364.276 269.587L437.585 269.587L437.585 269.587L437.585 128.024L437.585 128.024L364.276 128.024z" /></clipPath><clipPath id="22"><path id="" clip-rule="evenodd" transform="matrix(1 0 0 1 0 0)" d="M364.276 269.917L486.99 269.917L486.99 269.917L486.99 128.024L486.99 128.024L364.276 128.024z" /></clipPath><clipPath id="23"><path id="" clip-rule="evenodd" transform="matrix(1 0 0 1 0 0)" d="M383.199 192.577L423.3342 192.577L423.3342 192.577L423.3342 170.17L423.3342 170.17L383.199 170.17z" /></clipPath><clipPath id="24"><path id="" clip-rule="evenodd" transform="matrix(1 0 0 1 0 0)" d="M383.199 192.577L423.334 192.577L423.334 192.577L423.334 170.17L423.334 170.17L383.199 170.17z" /></clipPath><clipPath id="25"><path id="" clip-rule="evenodd" transform="matrix(1 0 0 1 0 0)" d="M383.199 192.577L423.3345 192.577L423.3345 192.577L423.3345 170.17L423.3345 170.17L383.199 170.17z" /></clipPath><clipPath id="26"><path id="" clip-rule="evenodd" transform="matrix(1 0 0 1 0 0)" d="M364.276 269.917L486.99 269.917L486.99 269.917L486.99 128.024L486.99 128.024L364.276 128.024z" /></clipPath><clipPath id="27"><path id="" clip-rule="evenodd" transform="matrix(1 0 0 1 0 0)" d="M383.954 160.6L403.9071 160.6L403.9071 160.6L403.9071 156.2859L403.9071 156.2859L383.954 156.2859z" /></clipPath><clipPath id="28"><path id="" clip-rule="evenodd" transform="matrix(1 0 0 1 0 0)" d="M383.954 160.6L403.907 160.6L403.907 160.6L403.907 156.2859L403.907 156.2859L383.954 156.2859z" /></clipPath><clipPath id="29"><path id="" clip-rule="evenodd" transform="matrix(1 0 0 1 0 0)" d="M383.954 160.6L403.9079 160.6L403.9079 160.6L403.9079 156.2871L403.9079 156.2871L383.954 156.2871z" /></clipPath><clipPath id="30"><path id="" clip-rule="evenodd" transform="matrix(1 0 0 1 0 0)" d="M364.276 269.917L486.99 269.917L486.99 269.917L486.99 128.024L486.99 128.024L364.276 128.024z" /></clipPath><clipPath id="31"><path id="" clip-rule="evenodd" transform="matrix(1 0 0 1 0 0)" d="M424.185 171.166C 424.185 184.515 435.008 195.338 448.357 195.338L448.357 195.338L448.357 195.338C 461.706 195.338 472.529 184.515 472.529 171.166L472.529 171.166L472.529 171.166C 472.529 157.817 461.706 146.994 448.357 146.994L448.357 146.994L448.357 146.994C 435.008 146.994 424.185 157.817 424.185 171.166" /></clipPath><clipPath id="32"><path id="" clip-rule="evenodd" transform="matrix(1 0 0 1 0 0)" d="M424.185 171.166C 424.185 184.515 435.008 195.338 448.357 195.338L448.357 195.338L448.357 195.338C 461.706 195.338 472.529 184.515 472.529 171.166L472.529 171.166L472.529 171.166C 472.529 157.817 461.706 146.994 448.357 146.994L448.357 146.994L448.357 146.994C 435.008 146.994 424.185 157.817 424.185 171.166" /></clipPath><clipPath id="33"><path id="" clip-rule="evenodd" transform="matrix(1 0 0 1 0 0)" d="M364.276 269.917L486.99 269.917L486.99 269.917L486.99 128.024L486.99 128.024L364.276 128.024z" /></clipPath><clipPath id="34"><path id="" clip-rule="evenodd" transform="matrix(1 0 0 1 0 0)" d="M444.361 204.191C 436.712 206.965 430.388 212.749 426.656 220.2029L426.656 220.2029L426.656 220.2029L426.656 220.2029L426.656 251.398C 431.961 261.993 442.505 269.214 454.645 269.214L454.645 269.214L454.645 269.214C 466.664 269.214 477.119 262.137 482.475 251.714L482.475 251.714L482.475 251.714L482.475 251.714L482.475 219.887C 478.724 212.585 472.47 206.926 464.929 204.191L464.929 204.191L464.929 204.191z" /></clipPath><clipPath id="35"><path id="" clip-rule="evenodd" transform="matrix(1 0 0 1 0 0)" d="M444.361 204.191C 436.712 206.965 430.388 212.749 426.656 220.2029L426.656 220.2029L426.656 220.2029L426.656 220.2029L426.656 251.398C 431.961 261.993 442.505 269.214 454.645 269.214L454.645 269.214L454.645 269.214C 466.664 269.214 477.119 262.137 482.475 251.714L482.475 251.714L482.475 251.714L482.475 251.714L482.475 219.887C 478.724 212.585 472.47 206.926 464.929 204.191L464.929 204.191L464.929 204.191z" /></clipPath><clipPath id="36"><path id="" clip-rule="evenodd" transform="matrix(1 0 0 1 0 0)" d="M364.276 269.917L486.99 269.917L486.99 269.917L486.99 128.024L486.99 128.024L364.276 128.024z" /></clipPath><clipPath id="37"><path id="" clip-rule="evenodd" transform="matrix(1 0 0 1 0 0)" d="M259.822 380.387L301.204 380.387L301.204 380.387L301.204 336.071L301.204 336.071L259.822 336.071z" /></clipPath><clipPath id="38"><path id="" clip-rule="evenodd" transform="matrix(1 0 0 1 0 0)" d="M259.822 380.387L301.204 380.387L301.204 380.387L301.204 336.071L301.204 336.071L259.822 336.071z" /></clipPath><clipPath id="39"><path id="" clip-rule="evenodd" transform="matrix(1 0 0 1 0 0)" d="M343.257 709.457L451.969 709.457L451.969 709.457L451.969 566.235L451.969 566.235L343.257 566.235z" /></clipPath><clipPath id="40"><path id="" clip-rule="evenodd" transform="matrix(1 0 0 1 0 0)" d="M343.257 709.457L451.969 709.457L451.969 709.457L451.969 566.235L451.969 566.235L343.257 566.235z" /></clipPath><clipPath id="41"><path id="" clip-rule="evenodd" transform="matrix(1 0 0 1 0 0)" d="M392.427 658.709L401.7321 658.709L401.7321 658.709L401.7321 634.8442L401.7321 634.8442L392.427 634.8442z" /></clipPath><clipPath id="42"><path id="" clip-rule="evenodd" transform="matrix(1 0 0 1 0 0)" d="M392.427 658.709L401.732 658.709L401.732 658.709L401.732 634.844L401.732 634.844L392.427 634.844z" /></clipPath><clipPath id="43"><path id="" clip-rule="evenodd" transform="matrix(1 0 0 1 0 0)" d="M392.427 658.709L401.7329 658.709L401.7329 658.709L401.7329 634.8442L401.7329 634.8442L392.427 634.8442z" /></clipPath><clipPath id="44"><path id="" clip-rule="evenodd" transform="matrix(1 0 0 1 0 0)" d="M392.427 658.709L401.7321 658.709L401.7321 658.709L401.7321 634.8442L401.7321 634.8442L392.427 634.8442z" /></clipPath><clipPath id="45"><path id="" clip-rule="evenodd" transform="matrix(1 0 0 1 0 0)" d="M343.257 710.427L480.213 710.427L480.213 710.427L480.213 566.234L480.213 566.234L343.257 566.234z" /></clipPath><clipPath id="46"><path id="" clip-rule="evenodd" transform="matrix(1 0 0 1 0 0)" d="M424.372 682.184C 424.372 697.425 436.728 709.78 451.969 709.78L451.969 709.78L451.969 709.78C 467.21 709.78 479.565 697.425 479.565 682.184L479.565 682.184L479.565 682.184C 479.565 666.942 467.21 654.587 451.969 654.587L451.969 654.587L451.969 654.587C 436.728 654.587 424.372 666.942 424.372 682.184" /></clipPath><clipPath id="47"><path id="" clip-rule="evenodd" transform="matrix(1 0 0 1 0 0)" d="M424.372 682.184C 424.372 697.425 436.728 709.78 451.969 709.78L451.969 709.78L451.969 709.78C 467.21 709.78 479.565 697.425 479.565 682.184L479.565 682.184L479.565 682.184C 479.565 666.942 467.21 654.587 451.969 654.587L451.969 654.587L451.969 654.587C 436.728 654.587 424.372 666.942 424.372 682.184" /></clipPath><clipPath id="48"><path id="" clip-rule="evenodd" transform="matrix(1 0 0 1 0 0)" d="M343.257 710.427L480.213 710.427L480.213 710.427L480.213 566.234L480.213 566.234L343.257 566.234z" /></clipPath><clipPath id="49"><path id="" clip-rule="evenodd" transform="matrix(1 0 0 1 0 0)" d="M261.396 599.947L298.6339 599.947L298.6339 599.947L298.6339 543.0302L298.6339 543.0302L261.396 543.0302z" /></clipPath><clipPath id="50"><path id="" clip-rule="evenodd" transform="matrix(1 0 0 1 0 0)" d="M261.396 599.947L298.6339 599.947L298.6339 599.947L298.6339 543.0302L298.6339 543.0302L261.396 543.0302z" /></clipPath><clipPath id="51"><path id="" clip-rule="evenodd" transform="matrix(1 0 0 1 0 0)" d="M452.065 619.616L477.6623 619.616L477.6623 619.616L477.6623 583.7578L477.6623 583.7578L452.065 583.7578z" /></clipPath><clipPath id="52"><path id="" clip-rule="evenodd" transform="matrix(1 0 0 1 0 0)" d="M452.065 619.616L477.6623 619.616L477.6623 619.616L477.6623 583.7578L477.6623 583.7578L452.065 583.7578z" /></clipPath><clipPath id="53"><path id="" clip-rule="evenodd" transform="matrix(1 0 0 1 0 0)" d="M329.576 187.616L355.1729 187.616L355.1729 187.616L355.1729 151.7582L355.1729 151.7582L329.576 151.7582z" /></clipPath><clipPath id="54"><path id="" clip-rule="evenodd" transform="matrix(1 0 0 1 0 0)" d="M329.576 187.616L355.1729 187.616L355.1729 187.616L355.1729 151.7582L355.1729 151.7582L329.576 151.7582z" /></clipPath><clipPath id="55"><path id="" clip-rule="evenodd" transform="matrix(1 0 0 1 0 0)" d="M329.576 403.616L355.1729 403.616L355.1729 403.616L355.1729 367.7582L355.1729 367.7582L329.576 367.7582z" /></clipPath><clipPath id="56"><path id="" clip-rule="evenodd" transform="matrix(1 0 0 1 0 0)" d="M329.576 403.616L355.1729 403.616L355.1729 403.616L355.1729 367.7582L355.1729 367.7582L329.576 367.7582z" /></clipPath><clipPath id="57"><path id="" clip-rule="evenodd" transform="matrix(1 0 0 1 0 0)" d="M329.576 619.616L355.1729 619.616L355.1729 619.616L355.1729 583.7578L355.1729 583.7578L329.576 583.7578z" /></clipPath><clipPath id="58"><path id="" clip-rule="evenodd" transform="matrix(1 0 0 1 0 0)" d="M329.576 619.616L355.1729 619.616L355.1729 619.616L355.1729 583.7578L355.1729 583.7578L329.576 583.7578z" /></clipPath></defs><g transform="matrix(1.333333 0 0 1.333333 0 0)"><g clip-path="url(#1)"><g clip-path="url(#2)"><path id="1" transform="matrix(1 0 0 -1 0 834)" d="M91.866 67.4211L562.134 67.4211L562.134 74.92501L91.866 74.92501z" stroke="none" fill="#686868" fill-rule="nonzero" /><path id="2" transform="matrix(1 0 0 -1 0 834)" d="M562.134 526.984L91.866 526.984" stroke="#686868" stroke-width="1" fill="none" /><path id="3" transform="matrix(1 0 0 -1 0 834)" d="M562.134 307.016L91.866 307.016" stroke="#686868" stroke-width="1" fill="none" /></g><g transform="matrix(1.004602 0 0 1.002787 333.272 348.929)"><g transform="matrix(1 0 0 1 0 0)"><image x="0" y="0" xlink:href="img_01.png" width="113" height="141" /></g></g><g clip-path="url(#3)"><path id="8" transform="matrix(1 0 0 -1 0 834)" d="M479.018 427.697C 479.018 411.511 465.897 398.39 449.711 398.39C 433.526 398.39 420.405 411.511 420.405 427.697C 420.405 443.883 433.526 457.004 449.711 457.004C 465.897 457.004 479.018 443.883 479.018 427.697" stroke="none" fill="#FFFFFF" fill-rule="nonzero" /></g><g clip-path="url(#4)"></g><g clip-path="url(#5)"><g transform="matrix(1.000856 0 0 0.9985632 419.12 359.2982)"><g transform="matrix(1 0 0 1 0 0)"><image x="0" y="0" xlink:href="img_02.png" width="62" height="76" /></g></g></g><g clip-path="url(#6)"><path id="10" transform="matrix(1 0 0 -1 0 834)" d="M479.018 427.697C 479.018 411.511 465.897 398.39 449.711 398.39C 433.526 398.39 420.405 411.511 420.405 427.697C 420.405 443.883 433.526 457.004 449.711 457.004C 465.897 457.004 479.018 443.883 479.018 427.697z" stroke="#000000" stroke-width="0.698" fill="none" /><path id="11" transform="matrix(1 0 0 -1 0 834)" d="M383.651 396.228L385.652 396.227C 385.652 396.227 386.111 408.692 384.219 414.639L384.219 414.639L382.5 414.291C 382.5 414.291 383.987 405.588 383.651 396.228" stroke="none" fill="#B3B3B3" fill-rule="nonzero" /><path id="12" transform="matrix(1 0 0 -1 0 834)" d="M383.651 396.228L385.652 396.227C 385.652 396.227 386.111 408.692 384.219 414.639L384.219 414.639L382.5 414.291C 382.5 414.291 383.987 405.588 383.651 396.228z" stroke="#000000" stroke-width="0.14" fill="none" /><path id="13" transform="matrix(1 0 0 -1 0 834)" d="M378.828 399.117L381.38 398.828C 381.38 398.828 382.042 410.075 384.219 414.639L384.219 414.639L381.268 414.602C 381.268 414.602 378.66 405.011 378.828 399.117" stroke="none" fill="#FFFFFF" fill-rule="nonzero" /><path id="14" transform="matrix(1 0 0 -1 0 834)" d="M378.828 399.117L381.38 398.828C 381.38 398.828 382.042 410.075 384.219 414.639L384.219 414.639L381.268 414.602C 381.268 414.602 378.66 405.011 378.828 399.117z" stroke="#FFFFFF" stroke-width="0.14" fill="none" /><path id="15" transform="matrix(1 0 0 -1 0 834)" d="M383.401 403.962L385.699 403.962C 385.699 403.962 386.158 391.497 384.267 385.55L384.267 385.55L382.547 385.898C 382.547 385.898 384.419 394.964 383.401 403.962" stroke="none" fill="#B3B3B3" fill-rule="nonzero" /><path id="16" transform="matrix(1 0 0 -1 0 834)" d="M379.645 392.287L382.166 393.156C 382.166 393.156 382.09 390.114 384.267 385.55L384.267 385.55L381.44 384.68C 381.44 384.68 380.18 386.528 379.645 392.287" stroke="none" fill="#FFFFFF" fill-rule="nonzero" /><path id="17" transform="matrix(1 0 0 -1 0 834)" d="M379.645 392.287L382.166 393.156C 382.166 393.156 382.09 390.114 384.267 385.55L384.267 385.55L381.44 384.68C 381.44 384.68 380.18 386.528 379.645 392.287z" stroke="#FFFFFF" stroke-width="0.14" fill="none" /></g><g clip-path="url(#7)"><g><g clip-path="url(#8)"><g clip-path="url(#9)"><path id="18" transform="matrix(1 0 0 -1 0 834)" d="M381.429 391.572L382.844 390.69L380.806 398.364L378.954 390.319L380.361 391.482" stroke="none" fill="#FFFFFF" fill-rule="nonzero" /><path id="19" transform="matrix(1 0 0 -1 0 834)" d="M381.429 391.572L382.844 390.69L382.844 390.69L380.806 398.364L380.806 398.364L378.954 390.319L378.954 390.319L380.361 391.482" stroke="#000000" stroke-width="0.279" fill="none" /></g></g></g></g><g clip-path="url(#10)"><g><g clip-path="url(#11)"><g clip-path="url(#12)"><path id="20" transform="matrix(1 0 0 -1 0 834)" d="M385.614 404.607L386.526 405.109L384.745 397.384L382.67 404.549L383.539 404.434" stroke="none" fill="#B3B3B3" fill-rule="nonzero" /><path id="21" transform="matrix(1 0 0 -1 0 834)" d="M385.614 404.607L386.526 405.109L386.526 405.109L384.745 397.384L384.745 397.384L382.67 404.549L382.67 404.549L383.539 404.434" stroke="#000000" stroke-width="0.14" fill="none" /></g></g></g></g><g clip-path="url(#13)"><path id="22" transform="matrix(1 0 0 -1 0 834)" d="M411.491 396.328L413.492 396.327C 413.492 396.327 413.951 408.792 412.059 414.739L412.059 414.739L410.34 414.391C 410.34 414.391 411.827 405.688 411.491 396.328" stroke="none" fill="#B3B3B3" fill-rule="nonzero" /><path id="23" transform="matrix(1 0 0 -1 0 834)" d="M411.491 396.328L413.492 396.327C 413.492 396.327 413.951 408.792 412.059 414.739L412.059 414.739L410.34 414.391C 410.34 414.391 411.827 405.688 411.491 396.328z" stroke="#000000" stroke-width="0.14" fill="none" /><path id="24" transform="matrix(1 0 0 -1 0 834)" d="M406.668 399.217L409.22 398.928C 409.22 398.928 409.882 410.175 412.059 414.739L412.059 414.739L409.108 414.702C 409.108 414.702 406.5 405.111 406.668 399.217" stroke="none" fill="#FFFFFF" fill-rule="nonzero" /><path id="25" transform="matrix(1 0 0 -1 0 834)" d="M406.668 399.217L409.22 398.928C 409.22 398.928 409.882 410.175 412.059 414.739L412.059 414.739L409.108 414.702C 409.108 414.702 406.5 405.111 406.668 399.217z" stroke="#FFFFFF" stroke-width="0.14" fill="none" /><path id="26" transform="matrix(1 0 0 -1 0 834)" d="M411.241 404.061L413.539 404.061C 413.539 404.061 413.998 391.596 412.107 385.649L412.107 385.649L410.387 385.997C 410.387 385.997 412.259 395.063 411.241 404.061" stroke="none" fill="#B3B3B3" fill-rule="nonzero" /><path id="27" transform="matrix(1 0 0 -1 0 834)" d="M407.485 392.387L410.006 393.256C 410.006 393.256 409.93 390.214 412.107 385.65L412.107 385.65L409.28 384.78C 409.28 384.78 408.02 386.628 407.485 392.387" stroke="none" fill="#FFFFFF" fill-rule="nonzero" /><path id="28" transform="matrix(1 0 0 -1 0 834)" d="M407.485 392.387L410.006 393.256C 410.006 393.256 409.93 390.214 412.107 385.65L412.107 385.65L409.28 384.78C 409.28 384.78 408.02 386.628 407.485 392.387z" stroke="#FFFFFF" stroke-width="0.14" fill="none" /></g><g clip-path="url(#14)"><g><g clip-path="url(#15)"><g clip-path="url(#16)"><path id="29" transform="matrix(1 0 0 -1 0 834)" d="M409.269 391.671L410.684 390.789L408.646 398.463L406.794 390.418L408.201 391.581" stroke="none" fill="#FFFFFF" fill-rule="nonzero" /><path id="30" transform="matrix(1 0 0 -1 0 834)" d="M409.269 391.671L410.684 390.789L410.684 390.789L408.646 398.463L408.646 398.463L406.794 390.418L406.794 390.418L408.201 391.581" stroke="#000000" stroke-width="0.279" fill="none" /></g></g></g></g><g clip-path="url(#17)"><g><g clip-path="url(#18)"><g clip-path="url(#19)"><path id="31" transform="matrix(1 0 0 -1 0 834)" d="M413.454 404.706L414.366 405.208L412.585 397.484L410.51 404.648L411.379 404.533" stroke="none" fill="#B3B3B3" fill-rule="nonzero" /><path id="32" transform="matrix(1 0 0 -1 0 834)" d="M413.454 404.706L414.366 405.208L414.366 405.208L412.585 397.484L412.585 397.484L410.51 404.648L410.51 404.648L411.379 404.533" stroke="#000000" stroke-width="0.14" fill="none" /></g></g></g></g><g clip-path="url(#20)"></g><g clip-path="url(#21)"><g transform="matrix(1.004231 0 0 1.003986 364.276 128.024)"><g transform="matrix(1 0 0 1 0 0)"><image x="0" y="0" xlink:href="img_03.png" width="73" height="141" /></g></g></g><g clip-path="url(#22)"><path id="50" transform="matrix(1 0 0 -1 0 834)" d="M423.004 642.131C 426.467 640.514 429.935 638.894 433.392 637.234" stroke="#000000" stroke-width="1.562" fill="none" /></g><path id="51" transform="matrix(1 0 0 -1 0 834)" d="M430.153 635.5681L432.516 637.639L432.665 640.778L437.585 635.195z" stroke="none" fill="#000000" fill-rule="nonzero" /><g clip-path="url(#23)"><g><g clip-path="url(#24)"><g clip-path="url(#25)"><path id="52" transform="matrix(1 0 0 -1 0 834)" d="M383.64 663.185C 396.066 654.706 409.498 648.438 423.004 642.131" stroke="#FFFFFF" stroke-width="1.562" fill="none" stroke-opacity="0.8" /></g></g></g></g><g clip-path="url(#26)"><path id="53" transform="matrix(1 0 0 -1 0 834)" d="M384.202 674.1411C 382.99 673.733 381.831 673.255 380.746 672.689C 380.742 672.687 380.738 672.685 380.734 672.683C 375.844 670.128 379.129 666.325 382.387 664.049C 382.803 663.759 383.221 663.471 383.639 663.185" stroke="#000000" stroke-width="1.562" fill="none" /></g><g clip-path="url(#27)"><g><g clip-path="url(#28)"><g clip-path="url(#29)"><path id="54" transform="matrix(1 0 0 -1 0 834)" d="M403.844 676.935C 397.779 676.445 390.318 676.197 384.202 674.1411" stroke="#FFFFFF" stroke-width="1.562" fill="none" stroke-opacity="0.8" /></g></g></g></g><g clip-path="url(#30)"><path id="55" transform="matrix(1 0 0 -1 0 834)" d="M424.185 662.834C 424.185 649.484 435.007 638.662 448.357 638.662C 461.706 638.662 472.528 649.484 472.528 662.834C 472.528 676.184 461.706 687.006 448.357 687.006C 435.007 687.006 424.185 676.184 424.185 662.834" stroke="none" fill="#FFFFFF" fill-rule="nonzero" /></g><g clip-path="url(#31)"></g><g clip-path="url(#32)"><g transform="matrix(1.007198 0 0 1.005208 423.419 146.126)"><g transform="matrix(1 0 0 1 0 0)"><image x="0" y="0" xlink:href="img_04.png" width="51" height="101" /></g></g></g><g clip-path="url(#33)"><path id="57" transform="matrix(1 0 0 -1 0 834)" d="M424.185 662.834C 424.185 649.484 435.007 638.662 448.357 638.662C 461.706 638.662 472.528 649.484 472.528 662.834C 472.528 676.184 461.706 687.006 448.357 687.006C 435.007 687.006 424.185 676.184 424.185 662.834z" stroke="#000000" stroke-width="0.781" fill="none" /><path id="58" transform="matrix(1 0 0 -1 0 834)" d="M486.287 598.2C 486.287 579.746 472.121 564.786 454.645 564.786C 437.17 564.786 423.004 579.746 423.004 598.2C 423.004 616.654 437.17 631.614 454.645 631.614C 472.121 631.614 486.287 616.654 486.287 598.2" stroke="none" fill="#FFFFFF" fill-rule="nonzero" /></g><g clip-path="url(#34)"></g><g clip-path="url(#35)"><g transform="matrix(0.9967768 0 0 1.007305 426.656 204.1907)"><g transform="matrix(1 0 0 1 0 0)"><image x="0" y="0" xlink:href="img_05.png" width="56" height="83" /></g></g></g><g clip-path="url(#36)"><path id="60" transform="matrix(1 0 0 -1 0 834)" d="M486.287 598.2C 486.287 579.746 472.121 564.786 454.645 564.786C 437.17 564.786 423.004 579.746 423.004 598.2C 423.004 616.654 437.17 631.614 454.645 631.614C 472.121 631.614 486.287 616.654 486.287 598.2z" stroke="#000000" stroke-width="0.781" fill="none" /></g><g transform="matrix(1.009614 0 0 0.9985386 265.881 111.9173)"><g transform="matrix(1 0 0 1 0 0)"><image x="0" y="0" xlink:href="img_06.png" width="28" height="57" /></g></g><g clip-path="url(#37)"></g><g clip-path="url(#38)"><g transform="matrix(1.01259 0 0 1.007164 259.822 336.0708)"><g transform="matrix(1 0 0 1 0 0)"><image x="0" y="0" xlink:href="img_07.png" width="41" height="44" /></g></g></g><g clip-path="url(#39)"></g><g clip-path="url(#40)"><g transform="matrix(1.006583 0 0 1.001559 343.258 566.234)"><g transform="matrix(1 0 0 1 0 0)"><image x="0" y="0" xlink:href="img_08.png" width="108" height="143" /></g></g></g><g clip-path="url(#41)"><g><g clip-path="url(#42)"><g clip-path="url(#43)"><path id="1129" transform="matrix(1 0 0 -1 0 834)" d="M401.296 198.585C 401.296 198.585 392.275 191.687 395.537 179.332" stroke="#FFFFFF" stroke-width="1.438" fill="none" stroke-opacity="0.8" /></g><g clip-path="url(#44)"><path id="1130" transform="matrix(1 0 0 -1 0 834)" d="M395.311 180.195L392.427 180.407L396.981 175.291L397.466 182.124z" stroke="none" fill="#FFFFFF" fill-rule="nonzero" fill-opacity="0.8" /></g></g></g></g><g clip-path="url(#45)"><path id="1131" transform="matrix(1 0 0 -1 0 834)" d="M424.372 151.817C 424.372 136.576 436.727 124.22 451.969 124.22C 467.21 124.22 479.565 136.576 479.565 151.817C 479.565 167.058 467.21 179.414 451.969 179.414C 436.727 179.414 424.372 167.058 424.372 151.817" stroke="none" fill="#FFFFFF" fill-rule="nonzero" /></g><g clip-path="url(#46)"></g><g clip-path="url(#47)"><g transform="matrix(1.003564 0 0 0.9999496 405.375 599.14)"><g transform="matrix(1 0 0 1 0 0)"><image x="0" y="0" xlink:href="img_09.png" width="90" height="119" /></g></g></g><g clip-path="url(#48)"><path id="1133" transform="matrix(1 0 0 -1 0 834)" d="M424.372 151.817C 424.372 136.576 436.727 124.22 451.969 124.22C 467.21 124.22 479.565 136.576 479.565 151.817C 479.565 167.058 467.21 179.414 451.969 179.414C 436.727 179.414 424.372 167.058 424.372 151.817z" stroke="#000000" stroke-width="0.719" fill="none" /></g><g clip-path="url(#49)"></g><g clip-path="url(#50)"><g transform="matrix(1.006449 0 0 0.9985386 261.396 543.0303)"><g transform="matrix(1 0 0 1 0 0)"><image x="0" y="0" xlink:href="img_10.png" width="37" height="57" /></g></g></g><path id="1208" transform="matrix(1 0 0 -1 0 834)" d="M452.064 214.383L477.6609 214.383L477.6609 250.2404L452.064 250.2404z" stroke="none" fill="#FFFFFF" fill-rule="nonzero" /><g clip-path="url(#51)"></g><g clip-path="url(#52)"><g transform="matrix(-1.022681 0 0 0.9971263 478.667 582.7372)"><g transform="matrix(1 0 0 1 0 0)"><image x="0" y="0" xlink:href="img_11.png" width="27" height="38" /></g></g></g><g clip-path="url(#53)"></g><g clip-path="url(#54)"><g transform="matrix(1.022789 0 0 0.9967948 328.56 150.7478)"><g transform="matrix(1 0 0 1 0 0)"><image x="0" y="0" xlink:href="img_12.png" width="27" height="38" /></g></g></g><g clip-path="url(#55)"></g><g clip-path="url(#56)"><g transform="matrix(1.022789 0 0 0.9967948 328.56 366.7478)"><g transform="matrix(1 0 0 1 0 0)"><image x="0" y="0" xlink:href="img_12.png" width="27" height="38" /></g></g></g><g clip-path="url(#57)"></g><g clip-path="url(#58)"><g transform="matrix(1.022789 0 0 0.9967948 328.56 582.7478)"><g transform="matrix(1 0 0 1 0 0)"><image x="0" y="0" xlink:href="img_12.png" width="27" height="38" /></g></g></g><path id="1213" transform="matrix(1 0 0 -1 0 834)" d="M633 15L633 0M633 819L633 834M21 15L21 0M21 819L21 834M639 21L654 21M15 21L0 21M639 813L654 813M15 813L0 813" stroke="#000000" stroke-width="1.25" fill="none" /><path id="1214" transform="matrix(1 0 0 -1 0 834)" d="M633 15L633 0M633 819L633 834M21 15L21 0M21 819L21 834M639 21L654 21M15 21L0 21M639 813L654 813M15 813L0 813" stroke="#000000" stroke-width="0.25" fill="none" /><path id="1215" transform="matrix(1 0 0 -1 0 834)" d="M32.2781 9.28203C 32.2781 9.516021 32.2961 9.58203 32.3559 9.62383C 32.416 9.66602 32.5719 9.69609 32.8238 9.69609C 33.2262 9.69609 33.5738 9.62383 33.8441 9.45C 34.3238 9.167971 34.552 8.63398 34.552 8.016021C 34.552 7.05586 34.0359 6.21602 32.9141 6.21602C 32.4762 6.21602 32.2781 6.33008 32.2781 6.78594zM31.252 9.900001L31.252 9.726171C 31.7141 9.68984 31.7621 9.66602 31.7621 9.150001L31.7621 9.150001L31.7621 6.74414C 31.7621 6.23398 31.7141 6.19805 31.198 6.16211L31.198 6.16211L31.198 6L31.198 6L32.6199 6C 33.3578 6 33.952 6.15 34.402 6.49805C 34.8641 6.84609 35.1398 7.38008 35.1398 8.1C 35.1398 8.664061 34.9301 9.101951 34.6359 9.38984C 34.2641 9.74414 33.7 9.900001 32.9379 9.900001z" stroke="#000000" stroke-width="0.4" fill="none" /><path id="1216" transform="matrix(1 0 0 -1 0 834)" d="M38.3801 6.97813C 38.2898 6.70195 38.1758 6.51016 38.0738 6.38984C 37.9359 6.23398 37.732 6.20391 37.402 6.20391C 37.15 6.20391 36.9461 6.21602 36.8258 6.28203C 36.718 6.34219 36.6879 6.46211 36.6879 6.78594L36.6879 6.78594L36.6879 9.15586C 36.6879 9.66602 36.7418 9.69609 37.216 9.73203L37.216 9.73203L37.216 9.900001L37.216 9.900001L35.65 9.900001L35.65 9.900001L35.65 9.73203C 36.1359 9.69609 36.1777 9.66602 36.1777 9.15586L36.1777 9.15586L36.1777 6.75586C 36.1777 6.24609 36.1301 6.20391 35.6258 6.16797L35.6258 6.16797L35.6258 6L35.6258 6L38.3438 6C 38.398 6.18594 38.5238 6.75586 38.5598 6.94219z" stroke="#000000" stroke-width="0.4" fill="none" /><path id="1217" transform="matrix(1 0 0 -1 0 834)" d="M41.0918 9.023829C 41.0438 9.40195 41.0141 9.63594 40.9898 9.851951C 40.7617 9.92383 40.5098 9.989841 40.234 9.989841C 39.4598 9.989841 38.998 9.49805 38.998 8.921881C 38.998 8.24414 39.6039 7.94414 39.9879 7.73984C 40.4379 7.5 40.768 7.28984 40.768 6.84609C 40.768 6.40781 40.498 6.12617 40.048 6.12617C 39.4301 6.12617 39.1598 6.73203 39.0641 7.09805L39.0641 7.09805L38.8898 7.05586C 38.9258 6.767971 39.0039 6.25195 39.052 6.12617C 39.1059 6.09609 39.1961 6.05391 39.3461 6C 39.4961 5.95781 39.6879 5.91016 39.934 5.91016C 40.732 5.91016 41.266 6.41406 41.266 7.04414C 41.266 7.71602 40.6961 7.99805 40.2277 8.23789C 39.7539 8.48398 39.466 8.68789 39.466 9.12617C 39.466 9.45 39.6699 9.78594 40.132 9.78594C 40.6539 9.78594 40.8098 9.371881 40.918 8.98789z" stroke="#000000" stroke-width="0.4" fill="none" /><path id="1218" transform="matrix(1 0 0 -1 0 834)" d="M46.648 6L46.648 6.16797C 46.1258 6.21602 46.1078 6.24609 46.0898 6.88203L46.0898 6.88203L46.0301 9.05391C 46.0117 9.671881 46.0539 9.68398 46.582 9.73203L46.582 9.73203L46.582 9.900001L46.582 9.900001L45.5617 9.900001L45.5617 9.900001L44.1758 6.9L44.1758 6.9L42.8078 9.900001L42.8078 9.900001L41.8238 9.900001L41.8238 9.900001L41.8238 9.73203C 42.3699 9.67813 42.4 9.653911 42.3461 8.87383L42.3461 8.87383L42.2617 7.626171C 42.2141 7.00195 42.1777 6.73789 42.148 6.528131C 42.1059 6.27617 41.9859 6.21016 41.6379 6.16797L41.6379 6.16797L41.6379 6L41.6379 6L43.0359 6L43.0359 6L43.0359 6.16797C 42.6398 6.21016 42.4961 6.25195 42.484 6.53984C 42.4777 6.78008 42.4777 7.04414 42.502 7.53594L42.502 7.53594L42.5918 9.24609L42.5918 9.24609L42.6039 9.24609L42.6039 9.24609L43.948 6.04219L43.948 6.04219L44.068 6.04219L44.068 6.04219L45.532 9.33008L45.532 9.33008L45.5559 9.33008L45.5559 9.33008L45.5738 6.88203C 45.5801 6.24609 45.5559 6.21602 45.0699 6.16797L45.0699 6.16797L45.0699 6z" stroke="#000000" stroke-width="0.4" fill="none" /><path id="1219" transform="matrix(1 0 0 -1 0 834)" d="M51.8738 7.05586C 51.5738 6.45586 51.2496 6.12617 50.6379 6.12617C 49.7258 6.12617 49.0656 6.89414 49.0656 8.016021C 49.0656 8.92813 49.5996 9.773829 50.602 9.773829C 51.2496 9.773829 51.6098 9.516021 51.7656 8.88008L51.7656 8.88008L51.9457 8.921881C 51.9098 9.24609 51.8738 9.48594 51.8258 9.828131C 51.6578 9.85781 51.2496 9.989841 50.7637 9.989841C 49.4258 9.989841 48.4539 9.15586 48.4539 7.89609C 48.4539 6.94219 49.1078 5.91016 50.602 5.91016C 51.034 5.91016 51.5379 6.03008 51.7059 6.07188C 51.8137 6.26992 51.9637 6.71406 52.0477 6.98984z" stroke="#000000" stroke-width="0.4" fill="none" /><path id="1220" transform="matrix(1 0 0 -1 0 834)" d="M54.3398 9.773829C 55.1258 9.773829 55.7855 9.101951 55.7855 7.83594C 55.7855 6.68398 55.1855 6.12617 54.5195 6.12617C 53.6738 6.12617 53.0559 6.94805 53.0559 8.076171C 53.0559 9.19805 53.6676 9.773829 54.3398 9.773829zM54.4598 9.989841C 53.1996 9.989841 52.4438 8.98789 52.4438 7.90781C 52.4438 6.75586 53.3078 5.91016 54.3938 5.91016C 55.4918 5.91016 56.3977 6.70195 56.3977 7.99805C 56.3977 9.19805 55.4797 9.989841 54.4598 9.989841z" stroke="#000000" stroke-width="0.4" fill="none" /><path id="1221" transform="matrix(1 0 0 -1 0 834)" d="M61.8277 6L61.8277 6.16797C 61.3059 6.21602 61.2879 6.24609 61.2695 6.88203L61.2695 6.88203L61.2098 9.05391C 61.1918 9.671881 61.2336 9.68398 61.7617 9.73203L61.7617 9.73203L61.7617 9.900001L61.7617 9.900001L60.7418 9.900001L60.7418 9.900001L59.3559 6.9L59.3559 6.9L57.9879 9.900001L57.9879 9.900001L57.0035 9.900001L57.0035 9.900001L57.0035 9.73203C 57.5496 9.67813 57.5797 9.653911 57.5258 8.87383L57.5258 8.87383L57.4418 7.626171C 57.3938 7.00195 57.3578 6.73789 57.3277 6.528131C 57.2855 6.27617 57.1656 6.21016 56.8176 6.16797L56.8176 6.16797L56.8176 6L56.8176 6L58.2156 6L58.2156 6L58.2156 6.16797C 57.8195 6.21016 57.6758 6.25195 57.6637 6.53984C 57.6578 6.78008 57.6578 7.04414 57.6816 7.53594L57.6816 7.53594L57.7719 9.24609L57.7719 9.24609L57.7836 9.24609L57.7836 9.24609L59.1277 6.04219L59.1277 6.04219L59.2477 6.04219L59.2477 6.04219L60.7117 9.33008L60.7117 9.33008L60.7355 9.33008L60.7355 9.33008L60.7535 6.88203C 60.7598 6.24609 60.7355 6.21602 60.2496 6.16797L60.2496 6.16797L60.2496 6z" stroke="#000000" stroke-width="0.4" fill="none" /><path id="1222" transform="matrix(1 0 0 -1 0 834)" d="M63.8258 6L63.8258 6.16797C 63.3336 6.20391 63.2855 6.23398 63.2855 6.75L63.2855 6.75L63.2855 9.150001C 63.2855 9.66016 63.3336 9.69609 63.8258 9.73203L63.8258 9.73203L63.8258 9.900001L63.8258 9.900001L62.2355 9.900001L62.2355 9.900001L62.2355 9.73203C 62.7277 9.69609 62.7758 9.66016 62.7758 9.150001L62.7758 9.150001L62.7758 6.75C 62.7758 6.23984 62.7277 6.20391 62.2355 6.16797L62.2355 6.16797L62.2355 6z" stroke="#000000" stroke-width="0.4" fill="none" /><path id="1223" transform="matrix(1 0 0 -1 0 834)" d="M66.5074 9.023829C 66.4598 9.40195 66.4297 9.63594 66.4055 9.851951C 66.1777 9.92383 65.9258 9.989841 65.6496 9.989841C 64.8758 9.989841 64.4137 9.49805 64.4137 8.921881C 64.4137 8.24414 65.0195 7.94414 65.4035 7.73984C 65.8535 7.5 66.1836 7.28984 66.1836 6.84609C 66.1836 6.40781 65.9137 6.12617 65.46371 6.12617C 64.8457 6.12617 64.5758 6.73203 64.4797 7.09805L64.4797 7.09805L64.3055 7.05586C 64.3418 6.767971 64.4195 6.25195 64.46761 6.12617C 64.52151 6.09609 64.6117 6.05391 64.7617 6C 64.91171 5.95781 65.1035 5.91016 65.3496 5.91016C 66.1477 5.91016 66.6816 6.41406 66.6816 7.04414C 66.6816 7.71602 66.1117 7.99805 65.6438 8.23789C 65.1695 8.48398 64.8816 8.68789 64.8816 9.12617C 64.8816 9.45 65.0855 9.78594 65.5477 9.78594C 66.0695 9.78594 66.2258 9.371881 66.3336 8.98789z" stroke="#000000" stroke-width="0.4" fill="none" /><path id="1224" transform="matrix(1 0 0 -1 0 834)" d="M69.4055 7.68008L68.3016 7.68008C 68.4816 8.171881 68.6734 8.69414 68.8656 9.21016L68.8656 9.21016L68.8777 9.21016zM70.9355 6L70.9355 6.16797C 70.5457 6.20391 70.46761 6.25781 70.2758 6.77383C 69.89181 7.81797 69.4895 8.95781 69.11761 9.989841L69.11761 9.989841L68.9316 9.93594L68.9316 9.93594L67.68951 6.78594C 67.4797 6.25781 67.3957 6.22188 67.0176 6.16797L67.0176 6.16797L67.0176 6L67.0176 6L68.3195 6L68.3195 6L68.3195 6.16797C 67.8695 6.21016 67.81561 6.26992 67.9477 6.64805C 68.0258 6.9 68.1156 7.15195 68.2117 7.42188L68.2117 7.42188L69.4895 7.42188C 69.62151 7.05586 69.74181 6.73203 69.8195 6.49805C 69.8977 6.26406 69.8438 6.21602 69.4656 6.16797L69.4656 6.16797L69.4656 6z" stroke="#000000" stroke-width="0.4" fill="none" /><path id="1225" transform="matrix(1 0 0 -1 0 834)" d="M71.7273 5.92813C 71.9195 5.92813 72.06371 6.06602 72.06371 6.27617C 72.06371 6.46797 71.9195 6.61797 71.7273 6.61797C 71.5355 6.61797 71.3914 6.46797 71.3914 6.27617C 71.3914 6.06602 71.5355 5.92813 71.7273 5.92813z" stroke="#000000" stroke-width="0.4" fill="none" /><path id="1226" transform="matrix(1 0 0 -1 0 834)" d="M73.9234 6L73.9234 6.15586C 73.53951 6.19219 73.4977 6.22813 73.4977 6.63594L73.4977 6.63594L73.4977 8.70586C 73.2336 8.59805 72.9516 8.51992 72.6453 8.471881L72.6453 8.471881L72.6453 8.328131C 73.0055 8.26797 73.0234 8.24414 73.0234 7.871881L73.0234 7.871881L73.0234 6.63594C 73.0234 6.22813 72.9816 6.19219 72.6035 6.15586L72.6035 6.15586L72.6035 6zM73.2215 9.216021C 73.3953 9.216021 73.52731 9.36016 73.52731 9.52188C 73.52731 9.70195 73.3953 9.83398 73.2273 9.83398C 73.06561 9.83398 72.9215 9.70195 72.9215 9.52188C 72.9215 9.36016 73.06561 9.216021 73.2215 9.216021z" stroke="#000000" stroke-width="0.4" fill="none" /><path id="1227" transform="matrix(1 0 0 -1 0 834)" d="M77.1574 6L77.1574 6.15586C 76.8094 6.19219 76.7793 6.21602 76.7793 6.62383L76.7793 6.62383L76.7793 7.78203C 76.7793 8.36406 76.4793 8.69414 76.0055 8.69414C 75.8313 8.69414 75.67541 8.621881 75.5074 8.51406C 75.3574 8.41211 75.2254 8.32188 75.1055 8.23203L75.1055 8.23203L75.1055 8.712111C 74.8414 8.59219 74.5594 8.51992 74.27151 8.466021L74.27151 8.466021L74.27151 8.328131C 74.5953 8.26797 74.6313 8.25 74.6313 7.86602L74.6313 7.86602L74.6313 6.62383C 74.6313 6.22813 74.6016 6.19805 74.19341 6.15586L74.19341 6.15586L74.19341 6L74.19341 6L75.4953 6L75.4953 6L75.4953 6.15586C 75.1414 6.19219 75.1055 6.21602 75.1055 6.62383L75.1055 6.62383L75.1055 8.03398C 75.2855 8.18984 75.5195 8.33984 75.7594 8.33984C 76.1613 8.33984 76.3055 8.069921 76.3055 7.65586L76.3055 7.65586L76.3055 6.65391C 76.3055 6.23984 76.2633 6.19219 75.9094 6.15586L75.9094 6.15586L75.9094 6z" stroke="#000000" stroke-width="0.4" fill="none" /><path id="1228" transform="matrix(1 0 0 -1 0 834)" d="M79.4734 6.51016C 79.32931 6.40195 79.1133 6.30586 78.8973 6.30586C 78.5133 6.30586 78.0754 6.65391 78.0754 7.36797C 78.0754 8.23789 78.57931 8.471881 78.8555 8.471881C 79.0832 8.471881 79.32931 8.37617 79.4734 8.16602zM80.4035 6.30586L80.2113 6.32383C 79.9895 6.34805 79.9473 6.37813 79.9473 6.68984L79.9473 6.68984L79.9473 10.2719C 79.7254 10.1941 79.3234 10.1039 79.0113 10.0621L79.0113 10.0621L79.0113 9.917971C 79.44341 9.88789 79.4734 9.869921 79.4734 9.47383L79.4734 9.47383L79.4734 8.628131C 79.3355 8.67617 79.1613 8.69414 79.0773 8.69414C 78.2613 8.69414 77.5293 8.03984 77.5293 7.20586C 77.5293 6.36602 78.1594 5.92813 78.6395 5.92813C 78.7113 5.92813 78.87341 5.96406 79.1074 6.10195L79.1074 6.10195L79.4734 6.31797L79.4734 6.31797L79.4734 5.92813C 79.8215 6.05391 80.27151 6.13203 80.4035 6.15586z" stroke="#000000" stroke-width="0.4" fill="none" /><path id="1229" transform="matrix(1 0 0 -1 0 834)" d="M81.3813 8.24414C 81.4895 8.310161 81.6813 8.35781 81.84921 8.35781C 82.34731 8.35781 82.7676 7.96211 82.7676 7.278131C 82.7676 6.58203 82.4492 6.15586 81.9516 6.15586C 81.6336 6.16211 81.4535 6.37188 81.4176 6.49219C 81.3934 6.54609 81.3813 6.60586 81.3813 6.69609zM81.3813 8.42383L81.3813 10.2719C 81.1594 10.1941 80.7934 10.098 80.5113 10.0621L80.5113 10.0621L80.5113 9.92383C 80.8953 9.88789 80.9074 9.851951 80.9074 9.48008L80.9074 9.48008L80.9074 6.14414C 81.2375 5.98789 81.5434 5.92813 81.78951 5.92813C 82.59341 5.92813 83.2953 6.55195 83.2953 7.43398C 83.2953 8.14219 82.7555 8.69414 82.1133 8.69414C 82.0473 8.69414 81.9633 8.67617 81.86761 8.63398z" stroke="#000000" stroke-width="0.4" fill="none" /><path id="1230" transform="matrix(1 0 0 -1 0 834)" d="M90.0754 6.83984C 89.8953 6.46211 89.8172 6.43789 89.4934 6.43789L89.4934 6.43789L88.3711 6.43789L88.3711 6.43789L89.223 7.33203C 89.77541 7.91992 90.0152 8.273829 90.0152 8.79609C 90.0152 9.42617 89.5352 9.810161 89.007 9.810161C 88.6594 9.810161 88.3773 9.653911 88.1973 9.45586L88.1973 9.45586L87.8551 8.96992L87.8551 8.96992L87.9871 8.85C 88.1434 9.08398 88.3953 9.40781 88.8031 9.40781C 89.24731 9.40781 89.5113 9.11406 89.5113 8.61016C 89.5113 8.09414 89.1332 7.60195 88.7613 7.15781C 88.4613 6.81016 88.1254 6.46797 87.7891 6.13789L87.7891 6.13789L87.7891 6L87.7891 6L90.0332 6C 90.1051 6.26992 90.1652 6.53398 90.2434 6.78594z" stroke="#000000" stroke-width="0.4" fill="none" /><path id="1231" transform="matrix(1 0 0 -1 0 834)" d="M91.9652 6.11992C 91.5871 6.11992 91.2332 6.42617 91.2332 6.97813C 91.2332 7.30781 91.4371 7.60781 91.7254 7.8C 92.1871 7.56602 92.6133 7.30781 92.6133 6.85781C 92.6133 6.39609 92.3313 6.11992 91.9652 6.11992zM91.9113 9.61797C 92.1871 9.61797 92.4992 9.396091 92.4992 8.89219C 92.4992 8.53203 92.3371 8.310161 92.1332 8.14805C 91.707 8.35781 91.3531 8.555861 91.3531 9C 91.3531 9.305861 91.557 9.61797 91.9113 9.61797zM91.9711 9.810161C 91.32931 9.810161 90.9031 9.33008 90.9031 8.826171C 90.9031 8.40586 91.1613 8.11797 91.5512 7.89609C 91.34731 7.76406 91.1191 7.60195 91.023 7.51211C 90.891 7.38594 90.75311 7.21797 90.75311 6.94219C 90.75311 6.3 91.2633 5.92813 91.90511 5.92813C 92.4152 5.92813 93.09341 6.31211 93.09341 7.01406C 93.09341 7.53594 92.7152 7.82383 92.3012 8.057811C 92.5711 8.24414 92.7332 8.38789 92.77541 8.44219C 92.8891 8.57383 92.9492 8.74805 92.9492 8.921881C 92.9492 9.40781 92.541 9.810161 91.9711 9.810161z" stroke="#000000" stroke-width="0.4" fill="none" /><path id="1232" transform="matrix(1 0 0 -1 0 834)" d="M95.6672 6L95.6672 6.16211C 95.1211 6.20391 95.0852 6.25195 95.0852 6.68398L95.0852 6.68398L95.0852 9.810161C 94.7551 9.67813 94.40121 9.56406 94.0172 9.49805L94.0172 9.49805L94.0172 9.36016L94.0172 9.36016L94.30511 9.34805C 94.5691 9.33594 94.59341 9.305861 94.59341 8.99414L94.59341 8.99414L94.59341 6.68398C 94.59341 6.25195 94.5633 6.20391 94.0172 6.16211L94.0172 6.16211L94.0172 6z" stroke="#000000" stroke-width="0.4" fill="none" /><path id="1251" transform="matrix(1 0 0 -1 0 834)" d="M554.472 6.83984C 554.292 6.46211 554.2141 6.43789 553.89 6.43789L553.89 6.43789L552.768 6.43789L552.768 6.43789L553.6201 7.33203C 554.1721 7.91992 554.412 8.273829 554.412 8.79609C 554.412 9.42617 553.932 9.810161 553.404 9.810161C 553.056 9.810161 552.774 9.653911 552.594 9.45586L552.594 9.45586L552.252 8.96992L552.252 8.96992L552.384 8.85C 552.54 9.08398 552.792 9.40781 553.2 9.40781C 553.644 9.40781 553.908 9.11406 553.908 8.61016C 553.908 8.09414 553.53 7.60195 553.158 7.15781C 552.858 6.81016 552.522 6.46797 552.186 6.13789L552.186 6.13789L552.186 6L552.186 6L554.43 6C 554.502 6.26992 554.562 6.53398 554.64 6.78594z" stroke="#000000" stroke-width="0.4" fill="none" /><path id="1252" transform="matrix(1 0 0 -1 0 834)" d="M555.792 9.3L557.19 9.3L557.19 9.3L557.346 9.68984L557.346 9.68984L557.31 9.73789L557.31 9.73789L555.6 9.73789L555.6 9.73789L555.366 7.90781C 555.504 7.96211 555.732 8.028131 555.984 8.028131C 556.638 8.028131 556.962 7.65 556.962 7.121881C 556.962 6.67188 556.71 6.23398 556.2 6.23398C 555.834 6.23398 555.588 6.42617 555.462 6.53984C 555.402 6.58789 555.354 6.58203 555.3 6.53984C 555.234 6.48008 555.18 6.40195 555.174 6.34219C 555.162 6.26992 555.192 6.22188 555.27 6.13789C 555.36 6.05391 555.612 5.92813 555.888 5.92813C 556.206 5.93398 556.608 6.08984 556.932 6.35391C 557.298 6.65391 557.466 6.99609 557.466 7.35586C 557.466 7.84805 557.076 8.369921 556.308 8.369921C 556.146 8.369921 555.864 8.273829 555.636 8.18984z" stroke="#000000" stroke-width="0.4" fill="none" /><path id="1253" transform="matrix(1 0 0 -1 0 834)" d="M559.548 9.989841L559.212 9.989841L559.212 9.989841L557.91 5.73594L557.91 5.73594L558.246 5.73594z" stroke="#000000" stroke-width="0.4" fill="none" /><path id="1254" transform="matrix(1 0 0 -1 0 834)" d="M561.18 9.61211C 561.72 9.61211 561.8701 8.72383 561.8701 7.871881C 561.8701 7.03203 561.726 6.13203 561.186 6.13203C 560.664 6.13203 560.49 7.03789 560.49 7.87813C 560.49 8.712111 560.634 9.61211 561.18 9.61211zM561.186 9.810161C 560.286 9.810161 559.956 8.74219 559.956 7.86602C 559.956 6.91797 560.28 5.92813 561.186 5.92813C 562.086 5.92813 562.404 6.99609 562.404 7.871881C 562.404 8.79609 562.086 9.810161 561.186 9.810161z" stroke="#000000" stroke-width="0.4" fill="none" /><path id="1255" transform="matrix(1 0 0 -1 0 834)" d="M564 9.61211C 564.582 9.61211 564.738 8.86797 564.738 8.33984C 564.738 8.21992 564.732 8.076171 564.7141 7.94414C 564.588 7.84805 564.384 7.77617 564.174 7.77617C 563.67 7.77617 563.3701 8.214061 563.3701 8.74219C 563.3701 9.09609 563.538 9.61211 564 9.61211zM564.078 9.810161C 563.304 9.810161 562.854 9.10781 562.854 8.53203C 562.854 7.90195 563.292 7.43398 563.928 7.43398C 564.042 7.43398 564.156 7.45781 564.288 7.53008L564.288 7.53008L564.69 7.74609C 564.492 6.83398 563.838 6.23398 562.98 6.08984L562.98 6.08984L563.01 5.91016C 563.16 5.91016 563.526 5.96992 563.85 6.10195C 564.66 6.42617 565.2661 7.20586 565.2661 8.310161C 565.2661 9.12617 564.828 9.810161 564.078 9.810161z" stroke="#000000" stroke-width="0.4" fill="none" /><path id="1256" transform="matrix(1 0 0 -1 0 834)" d="M567.294 9.989841L566.958 9.989841L566.958 9.989841L565.656 5.73594L565.656 5.73594L565.992 5.73594z" stroke="#000000" stroke-width="0.4" fill="none" /><path id="1257" transform="matrix(1 0 0 -1 0 834)" d="M569.9641 6.83984C 569.784 6.46211 569.706 6.43789 569.382 6.43789L569.382 6.43789L568.26 6.43789L568.26 6.43789L569.112 7.33203C 569.664 7.91992 569.904 8.273829 569.904 8.79609C 569.904 9.42617 569.424 9.810161 568.896 9.810161C 568.548 9.810161 568.2661 9.653911 568.086 9.45586L568.086 9.45586L567.744 8.96992L567.744 8.96992L567.876 8.85C 568.032 9.08398 568.284 9.40781 568.692 9.40781C 569.136 9.40781 569.4 9.11406 569.4 8.61016C 569.4 8.09414 569.022 7.60195 568.65 7.15781C 568.35 6.81016 568.014 6.46797 567.678 6.13789L567.678 6.13789L567.678 6L567.678 6L569.9221 6C 569.994 6.26992 570.054 6.53398 570.132 6.78594z" stroke="#000000" stroke-width="0.4" fill="none" /><path id="1258" transform="matrix(1 0 0 -1 0 834)" d="M571.806 9.61211C 572.346 9.61211 572.496 8.72383 572.496 7.871881C 572.496 7.03203 572.352 6.13203 571.812 6.13203C 571.29 6.13203 571.116 7.03789 571.116 7.87813C 571.116 8.712111 571.26 9.61211 571.806 9.61211zM571.812 9.810161C 570.912 9.810161 570.582 8.74219 570.582 7.86602C 570.582 6.91797 570.906 5.92813 571.812 5.92813C 572.712 5.92813 573.03 6.99609 573.03 7.871881C 573.03 8.79609 572.712 9.810161 571.812 9.810161z" stroke="#000000" stroke-width="0.4" fill="none" /><path id="1259" transform="matrix(1 0 0 -1 0 834)" d="M575.556 6L575.556 6.16211C 575.01 6.20391 574.9741 6.25195 574.9741 6.68398L574.9741 6.68398L574.9741 9.810161C 574.644 9.67813 574.29 9.56406 573.906 9.49805L573.906 9.49805L573.906 9.36016L573.906 9.36016L574.194 9.34805C 574.458 9.33594 574.482 9.305861 574.482 8.99414L574.482 8.99414L574.482 6.68398C 574.482 6.25195 574.452 6.20391 573.906 6.16211L573.906 6.16211L573.906 6z" stroke="#000000" stroke-width="0.4" fill="none" /><path id="1260" transform="matrix(1 0 0 -1 0 834)" d="M578.814 9.73789L576.522 9.73789C 576.498 9.48008 576.468 9.180079 576.414 8.85L576.414 8.85L576.588 8.85C 576.732 9.24609 576.768 9.3 577.164 9.3L577.164 9.3L578.46 9.3C 577.986 8.25586 577.308 7.01406 576.678 5.99414L576.678 5.99414L576.72 5.92813L576.72 5.92813L577.164 5.98789C 577.74 7.22383 578.298 8.44805 578.862 9.66602z" stroke="#000000" stroke-width="0.4" fill="none" /><path id="1261" transform="matrix(1 0 0 -1 0 834)" d="M584.531 9.61211C 585.071 9.61211 585.221 8.72383 585.221 7.871881C 585.221 7.03203 585.077 6.13203 584.537 6.13203C 584.015 6.13203 583.841 7.03789 583.841 7.87813C 583.841 8.712111 583.985 9.61211 584.531 9.61211zM584.537 9.810161C 583.637 9.810161 583.307 8.74219 583.307 7.86602C 583.307 6.91797 583.631 5.92813 584.537 5.92813C 585.437 5.92813 585.755 6.99609 585.755 7.871881C 585.755 8.79609 585.437 9.810161 584.537 9.810161z" stroke="#000000" stroke-width="0.4" fill="none" /><path id="1262" transform="matrix(1 0 0 -1 0 834)" d="M588.449 6.83984C 588.269 6.46211 588.191 6.43789 587.867 6.43789L587.867 6.43789L586.7451 6.43789L586.7451 6.43789L587.597 7.33203C 588.149 7.91992 588.389 8.273829 588.389 8.79609C 588.389 9.42617 587.909 9.810161 587.381 9.810161C 587.033 9.810161 586.751 9.653911 586.571 9.45586L586.571 9.45586L586.229 8.96992L586.229 8.96992L586.361 8.85C 586.517 9.08398 586.769 9.40781 587.177 9.40781C 587.621 9.40781 587.885 9.11406 587.885 8.61016C 587.885 8.09414 587.507 7.60195 587.135 7.15781C 586.835 6.81016 586.499 6.46797 586.163 6.13789L586.163 6.13789L586.163 6L586.163 6L588.407 6C 588.479 6.26992 588.539 6.53398 588.617 6.78594z" stroke="#000000" stroke-width="0.4" fill="none" /><path id="1263" transform="matrix(1 0 0 -1 0 834)" d="M589.5471 5.92813C 589.739 5.92813 589.883 6.06602 589.883 6.27617C 589.883 6.46797 589.739 6.61797 589.5471 6.61797C 589.355 6.61797 589.211 6.46797 589.211 6.27617C 589.211 6.06602 589.355 5.92813 589.5471 5.92813zM589.541 8.466021C 589.3491 8.466021 589.211 8.328131 589.211 8.13008C 589.211 7.92617 589.3491 7.78203 589.541 7.78203C 589.733 7.78203 589.877 7.92617 589.877 8.13008C 589.877 8.328131 589.733 8.466021 589.541 8.466021z" stroke="#000000" stroke-width="0.4" fill="none" /><path id="1264" transform="matrix(1 0 0 -1 0 834)" d="M591.905 7.35L590.723 7.35C 591.119 8.016021 591.509 8.58594 591.893 9.119921L591.893 9.119921L591.905 9.119921zM592.961 7.06797L592.961 7.35L592.961 7.35L592.385 7.35L592.385 7.35L592.385 9.79219L592.385 9.79219L592.145 9.79219C 591.527 8.976171 590.915 8.08789 590.345 7.23594L590.345 7.23594L590.345 7.06797L590.345 7.06797L591.905 7.06797L591.905 7.06797L591.905 6.63594C 591.905 6.23984 591.881 6.20391 591.359 6.16211L591.359 6.16211L591.359 6L591.359 6L592.895 6L592.895 6L592.895 6.16211C 592.409 6.20391 592.385 6.23398 592.385 6.63594L592.385 6.63594L592.385 7.06797z" stroke="#000000" stroke-width="0.4" fill="none" /><path id="1265" transform="matrix(1 0 0 -1 0 834)" d="M595.409 6L595.409 6.16211C 594.863 6.20391 594.827 6.25195 594.827 6.68398L594.827 6.68398L594.827 9.810161C 594.497 9.67813 594.143 9.56406 593.759 9.49805L593.759 9.49805L593.759 9.36016L593.759 9.36016L594.0471 9.34805C 594.311 9.33594 594.335 9.305861 594.335 8.99414L594.335 8.99414L594.335 6.68398C 594.335 6.25195 594.305 6.20391 593.759 6.16211L593.759 6.16211L593.759 6z" stroke="#000000" stroke-width="0.4" fill="none" /><path id="1266" transform="matrix(1 0 0 -1 0 834)" d="M596.675 5.92813C 596.867 5.92813 597.011 6.06602 597.011 6.27617C 597.011 6.46797 596.867 6.61797 596.675 6.61797C 596.483 6.61797 596.3391 6.46797 596.3391 6.27617C 596.3391 6.06602 596.483 5.92813 596.675 5.92813zM596.669 8.466021C 596.477 8.466021 596.3391 8.328131 596.3391 8.13008C 596.3391 7.92617 596.477 7.78203 596.669 7.78203C 596.861 7.78203 597.005 7.92617 597.005 8.13008C 597.005 8.328131 596.861 8.466021 596.669 8.466021z" stroke="#000000" stroke-width="0.4" fill="none" /><path id="1267" transform="matrix(1 0 0 -1 0 834)" d="M598.265 9.3L599.663 9.3L599.663 9.3L599.819 9.68984L599.819 9.68984L599.783 9.73789L599.783 9.73789L598.073 9.73789L598.073 9.73789L597.8391 7.90781C 597.977 7.96211 598.205 8.028131 598.457 8.028131C 599.111 8.028131 599.435 7.65 599.435 7.121881C 599.435 6.67188 599.183 6.23398 598.673 6.23398C 598.307 6.23398 598.061 6.42617 597.935 6.53984C 597.875 6.58789 597.827 6.58203 597.773 6.53984C 597.707 6.48008 597.653 6.40195 597.647 6.34219C 597.635 6.26992 597.665 6.22188 597.743 6.13789C 597.833 6.05391 598.085 5.92813 598.361 5.92813C 598.679 5.93398 599.081 6.08984 599.405 6.35391C 599.771 6.65391 599.939 6.99609 599.939 7.35586C 599.939 7.84805 599.549 8.369921 598.781 8.369921C 598.619 8.369921 598.337 8.273829 598.109 8.18984z" stroke="#000000" stroke-width="0.4" fill="none" /><path id="1268" transform="matrix(1 0 0 -1 0 834)" d="M600.743 8.976171C 600.893 9.19805 601.133 9.45 601.463 9.45C 601.781 9.45 602.033 9.257811 602.033 8.88594C 602.033 8.44219 601.625 8.20781 601.073 8.03398L601.073 8.03398L601.115 7.86016C 601.211 7.88984 601.355 7.92617 601.499 7.92617C 601.841 7.92617 602.261 7.70391 602.261 7.15195C 602.261 6.55781 601.961 6.23984 601.535 6.23984C 601.1931 6.23984 600.947 6.40781 600.791 6.54609C 600.743 6.58789 600.695 6.58203 600.647 6.54609C 600.593 6.50391 600.515 6.42617 600.509 6.34805C 600.497 6.27617 600.521 6.21016 600.605 6.13203C 600.683 6.06016 600.929 5.92813 601.205 5.92813C 601.637 5.92813 602.777 6.37188 602.777 7.34414C 602.777 7.78203 602.471 8.153911 601.9431 8.25586L601.9431 8.25586L601.9431 8.26797C 602.117 8.38789 602.261 8.49609 602.351 8.59219C 602.465 8.70586 602.537 8.84414 602.537 9.01797C 602.537 9.47383 602.183 9.810161 601.643 9.810161C 601.325 9.810161 601.049 9.66016 600.881 9.47383L600.881 9.47383L600.617 9.09609z" stroke="#000000" stroke-width="0.4" fill="none" /><path id="1269" transform="matrix(1 0 0 -1 0 834)" d="M605.489 8.08203C 605.651 8.20195 605.897 8.33398 606.0891 8.33398C 606.527 8.33398 606.893 7.97383 606.893 7.33203C 606.893 6.65391 606.557 6.22188 606.053 6.22188C 605.8491 6.22188 605.621 6.31797 605.489 6.45586zM605.489 8.28008L605.489 8.75391C 605.207 8.63984 604.871 8.53789 604.619 8.49609L604.619 8.49609L604.619 8.351951C 604.991 8.30391 605.015 8.29219 605.015 7.90195L605.015 7.90195L605.015 5.18984C 605.015 4.79414 604.961 4.75781 604.577 4.72188L604.577 4.72188L604.577 4.56016L604.577 4.56016L605.999 4.56016L605.999 4.56016L605.999 4.72188C 605.531 4.76406 605.489 4.79414 605.489 5.25L605.489 5.25L605.489 6.03594C 605.567 5.99414 605.729 5.93398 605.903 5.92813C 606.683 6.07188 607.397 6.65391 607.397 7.56016C 607.397 8.153911 607.001 8.69414 606.335 8.69414C 606.263 8.69414 606.149 8.664061 606.041 8.60391z" stroke="#000000" stroke-width="0.4" fill="none" /><path id="1270" transform="matrix(1 0 0 -1 0 834)" d="M608.303 5.92813C 608.4951 5.92813 608.639 6.06602 608.639 6.27617C 608.639 6.46797 608.4951 6.61797 608.303 6.61797C 608.111 6.61797 607.967 6.46797 607.967 6.27617C 607.967 6.06602 608.111 5.92813 608.303 5.92813z" stroke="#000000" stroke-width="0.4" fill="none" /><path id="1271" transform="matrix(1 0 0 -1 0 834)" d="M615.125 6L615.125 6.15586C 614.783 6.19219 614.735 6.21602 614.735 6.61797L614.735 6.61797L614.735 7.77617C 614.735 8.36406 614.441 8.69414 613.973 8.69414C 613.805 8.69414 613.649 8.621881 613.523 8.53789C 613.373 8.44805 613.199 8.33398 613.025 8.20195C 612.905 8.51406 612.647 8.69414 612.359 8.69414C 612.167 8.69414 612.023 8.628131 611.867 8.53203C 611.687 8.417971 611.555 8.310161 611.429 8.226171L611.429 8.226171L611.429 8.712111C 611.165 8.59219 610.859 8.51406 610.595 8.466021L610.595 8.466021L610.595 8.328131C 610.9431 8.273829 610.961 8.24414 610.961 7.86016L610.961 7.86016L610.961 6.61797C 610.961 6.22813 610.907 6.19219 610.511 6.15586L610.511 6.15586L610.511 6L610.511 6L611.777 6L611.777 6L611.777 6.15586C 611.483 6.19219 611.435 6.22813 611.435 6.61797L611.435 6.61797L611.435 8.028131C 611.615 8.17813 611.8491 8.33984 612.0891 8.33984C 612.455 8.33984 612.611 8.09414 612.611 7.65L612.611 7.65L612.611 6.61797C 612.611 6.22188 612.557 6.19219 612.185 6.15586L612.185 6.15586L612.185 6L612.185 6L613.469 6L613.469 6L613.469 6.15586C 613.139 6.19219 613.085 6.22813 613.085 6.60586L613.085 6.60586L613.085 7.77617C 613.085 7.88984 613.079 7.95586 613.067 8.028131C 613.295 8.21992 613.523 8.33984 613.739 8.33984C 614.117 8.33984 614.267 8.069921 614.267 7.64414L614.267 7.64414L614.267 6.64219C 614.267 6.21602 614.201 6.19219 613.847 6.15586L613.847 6.15586L613.847 6z" stroke="#000000" stroke-width="0.4" fill="none" /><path id="1272" transform="matrix(1 0 0 -1 0 834)" d="M615.947 5.92813C 616.139 5.92813 616.283 6.06602 616.283 6.27617C 616.283 6.46797 616.139 6.61797 615.947 6.61797C 615.755 6.61797 615.611 6.46797 615.611 6.27617C 615.611 6.06602 615.755 5.92813 615.947 5.92813z" stroke="#000000" stroke-width="0.4" fill="none" /></g></g></svg>