<svg xmlns="http://www.w3.org/2000/svg" xmlns:xlink="http://www.w3.org/1999/xlink" id="body_1" preserveAspectRatio="xMinYMin meet" viewBox="0 0 872 1112"><defs><clipPath id="1"><path id="" clip-rule="evenodd" transform="matrix(1 0 0 1 0 0)" d="M0 834L0 0L0 0L654 0L654 0L654 834L654 834L0 834z" /></clipPath><clipPath id="2"><path id="" clip-rule="evenodd" transform="matrix(1 0 0 1 0 0)" d="M21 813L633 813L633 813L633 21L633 21L21 21z" /></clipPath><clipPath id="3"><path id="" clip-rule="evenodd" transform="matrix(1 0 0 1 0 0)" d="M342.836 268.812L418.4231 268.812L418.4231 268.812L418.4231 132.492L418.4231 132.492L342.836 132.492z" /></clipPath><clipPath id="4"><path id="" clip-rule="evenodd" transform="matrix(1 0 0 1 0 0)" d="M342.836 268.812L418.4231 268.812L418.4231 268.812L418.4231 132.492L418.4231 132.492L342.836 132.492z" /></clipPath><clipPath id="5"><path id="" clip-rule="evenodd" transform="matrix(1 0 0 1 0 0)" d="M342.835 269.033L488.999 269.033L488.999 269.033L488.999 132.492L488.999 132.492L342.835 132.492z" /></clipPath><clipPath id="6"><path id="" clip-rule="evenodd" transform="matrix(1 0 0 1 0 0)" d="M416.326 203.299L416.326 254.207C 423.804 262.891 435.036 268.413 447.592 268.413L447.592 268.413L447.592 268.413C 456.252 268.413 464.282 265.787 470.884 261.308L470.884 261.308L470.884 261.308L470.884 261.308L470.884 196.197C 464.282 191.719 456.252 189.091 447.592 189.091L447.592 189.091L447.592 189.091C 435.036 189.091 423.804 194.615 416.326 203.299" /></clipPath><clipPath id="7"><path id="" clip-rule="evenodd" transform="matrix(1 0 0 1 0 0)" d="M416.326 203.299L416.326 254.207C 423.804 262.891 435.036 268.413 447.592 268.413L447.592 268.413L447.592 268.413C 456.252 268.413 464.282 265.787 470.884 261.308L470.884 261.308L470.884 261.308L470.884 261.308L470.884 196.197C 464.282 191.719 456.252 189.091 447.592 189.091L447.592 189.091L447.592 189.091C 435.036 189.091 423.804 194.615 416.326 203.299" /></clipPath><clipPath id="8"><path id="" clip-rule="evenodd" transform="matrix(1 0 0 1 0 0)" d="M342.835 269.033L488.999 269.033L488.999 269.033L488.999 132.492L488.999 132.492L342.835 132.492z" /></clipPath><clipPath id="9"><path id="" clip-rule="evenodd" transform="matrix(1 0 0 1 0 0)" d="M342.835 269.033L488.999 269.033L488.999 269.033L488.999 132.492L488.999 132.492L342.835 132.492z" /></clipPath><clipPath id="10"><path id="" clip-rule="evenodd" transform="matrix(1 0 0 1 0 0)" d="M258.97 157.066L301.3462 157.066L301.3462 157.066L301.3462 124.6801L301.3462 124.6801L258.97 124.6801z" /></clipPath><clipPath id="11"><path id="" clip-rule="evenodd" transform="matrix(1 0 0 1 0 0)" d="M258.97 157.066L301.3462 157.066L301.3462 157.066L301.3462 124.6801L301.3462 124.6801L258.97 124.6801z" /></clipPath><clipPath id="12"><path id="" clip-rule="evenodd" transform="matrix(1 0 0 1 0 0)" d="M314.202 176.329L339.7989 176.329L339.7989 176.329L339.7989 140.4981L339.7989 140.4981L314.202 140.4981z" /></clipPath><clipPath id="13"><path id="" clip-rule="evenodd" transform="matrix(1 0 0 1 0 0)" d="M314.202 176.329L339.7989 176.329L339.7989 176.329L339.7989 140.4981L339.7989 140.4981L314.202 140.4981z" /></clipPath><clipPath id="14"><path id="" clip-rule="evenodd" transform="matrix(1 0 0 1 0 0)" d="M339.914 488.467L422.9769 488.467L422.9769 488.467L422.9769 363.493L422.9769 363.493L339.914 363.493z" /></clipPath><clipPath id="15"><path id="" clip-rule="evenodd" transform="matrix(1 0 0 1 0 0)" d="M339.914 488.467L422.9769 488.467L422.9769 488.467L422.9769 363.493L422.9769 363.493L339.914 363.493z" /></clipPath><clipPath id="16"><path id="" clip-rule="evenodd" transform="matrix(1 0 0 1 0 0)" d="M339.914 488.645L488.859 488.645L488.859 488.645L488.859 363.493L488.859 363.493L339.914 363.493z" /></clipPath><clipPath id="17"><path id="" clip-rule="evenodd" transform="matrix(1 0 0 1 0 0)" d="M413.995 427.073L413.995 468.207C 420.946 480.088 433.735 488.053 448.361 488.053L448.361 488.053L448.361 488.053C 461.092 488.053 472.432 482.018 479.741 472.618L479.741 472.618L479.741 472.618L479.741 472.618L479.741 422.663C 472.432 413.263 461.092 407.226 448.361 407.226L448.361 407.226L448.361 407.226C 433.735 407.226 420.946 415.193 413.995 427.073" /></clipPath><clipPath id="18"><path id="" clip-rule="evenodd" transform="matrix(1 0 0 1 0 0)" d="M413.995 427.073L413.995 468.207C 420.946 480.088 433.735 488.053 448.361 488.053L448.361 488.053L448.361 488.053C 461.092 488.053 472.432 482.018 479.741 472.618L479.741 472.618L479.741 472.618L479.741 472.618L479.741 422.663C 472.432 413.263 461.092 407.226 448.361 407.226L448.361 407.226L448.361 407.226C 433.735 407.226 420.946 415.193 413.995 427.073" /></clipPath><clipPath id="19"><path id="" clip-rule="evenodd" transform="matrix(1 0 0 1 0 0)" d="M339.914 488.645L488.859 488.645L488.859 488.645L488.859 363.493L488.859 363.493L339.914 363.493z" /></clipPath><clipPath id="20"><path id="" clip-rule="evenodd" transform="matrix(1 0 0 1 0 0)" d="M261.396 389.172L298.6339 389.172L298.6339 389.172L298.6339 332.3142L298.6339 332.3142L261.396 332.3142z" /></clipPath><clipPath id="21"><path id="" clip-rule="evenodd" transform="matrix(1 0 0 1 0 0)" d="M261.396 389.172L298.6339 389.172L298.6339 389.172L298.6339 332.3142L298.6339 332.3142L261.396 332.3142z" /></clipPath><clipPath id="22"><path id="" clip-rule="evenodd" transform="matrix(1 0 0 1 0 0)" d="M323.88 397.588L349.4769 397.588L349.4769 397.588L349.4769 361.7571L349.4769 361.7571L323.88 361.7571z" /></clipPath><clipPath id="23"><path id="" clip-rule="evenodd" transform="matrix(1 0 0 1 0 0)" d="M323.88 397.588L349.4769 397.588L349.4769 397.588L349.4769 361.7571L349.4769 361.7571L323.88 361.7571z" /></clipPath><clipPath id="24"><path id="" clip-rule="evenodd" transform="matrix(1 0 0 1 0 0)" d="M414.449 397.588L440.0459 397.588L440.0459 397.588L440.0459 361.7571L440.0459 361.7571L414.449 361.7571z" /></clipPath><clipPath id="25"><path id="" clip-rule="evenodd" transform="matrix(1 0 0 1 0 0)" d="M414.449 397.588L440.0459 397.588L440.0459 397.588L440.0459 361.7571L440.0459 361.7571L414.449 361.7571z" /></clipPath><clipPath id="26"><path id="" clip-rule="evenodd" transform="matrix(1 0 0 1 0 0)" d="M336.397 708.922L409.7322 708.922L409.7322 708.922L409.7322 571.479L409.7322 571.479L336.397 571.479z" /></clipPath><clipPath id="27"><path id="" clip-rule="evenodd" transform="matrix(1 0 0 1 0 0)" d="M336.397 708.922L409.7322 708.922L409.7322 708.922L409.7322 571.479L409.7322 571.479L336.397 571.479z" /></clipPath><clipPath id="28"><path id="" clip-rule="evenodd" transform="matrix(1 0 0 1 0 0)" d="M336.397 710.009L493.961 710.009L493.961 710.009L493.961 571.479L493.961 571.479L336.397 571.479z" /></clipPath><clipPath id="29"><path id="" clip-rule="evenodd" transform="matrix(1 0 0 1 0 0)" d="M412.465 632.198L412.465 694.274C 420.965 703.545 433.219 709.364 446.843 709.364L446.843 709.364L446.843 709.364C 456.31 709.364 465.116 706.554 472.461 701.728L472.461 701.728L472.461 701.728L472.461 701.728L472.461 624.744C 465.116 619.918 456.31 617.107 446.843 617.107L446.843 617.107L446.843 617.107C 433.219 617.107 420.965 622.927 412.465 632.198" /></clipPath><clipPath id="30"><path id="" clip-rule="evenodd" transform="matrix(1 0 0 1 0 0)" d="M412.465 632.198L412.465 694.274C 420.965 703.545 433.219 709.364 446.843 709.364L446.843 709.364L446.843 709.364C 456.31 709.364 465.116 706.554 472.461 701.728L472.461 701.728L472.461 701.728L472.461 701.728L472.461 624.744C 465.116 619.918 456.31 617.107 446.843 617.107L446.843 617.107L446.843 617.107C 433.219 617.107 420.965 622.927 412.465 632.198" /></clipPath><clipPath id="31"><path id="" clip-rule="evenodd" transform="matrix(1 0 0 1 0 0)" d="M336.397 710.009L493.961 710.009L493.961 710.009L493.961 571.479L493.961 571.479L336.397 571.479z" /></clipPath><clipPath id="32"><path id="" clip-rule="evenodd" transform="matrix(1 0 0 1 0 0)" d="M258.826 598.301L301.203 598.301L301.203 598.301L301.203 563.6357L301.203 563.6357L258.826 563.6357z" /></clipPath><clipPath id="33"><path id="" clip-rule="evenodd" transform="matrix(1 0 0 1 0 0)" d="M258.826 598.301L301.203 598.301L301.203 598.301L301.203 563.6357L301.203 563.6357L258.826 563.6357z" /></clipPath><clipPath id="34"><path id="" clip-rule="evenodd" transform="matrix(1 0 0 1 0 0)" d="M309.85 611.035L335.4469 611.035L335.4469 611.035L335.4469 575.2034L335.4469 575.2034L309.85 575.2034z" /></clipPath><clipPath id="35"><path id="" clip-rule="evenodd" transform="matrix(1 0 0 1 0 0)" d="M309.85 611.035L335.4469 611.035L335.4469 611.035L335.4469 575.2034L335.4469 575.2034L309.85 575.2034z" /></clipPath></defs><g transform="matrix(1.333333 0 0 1.333333 0 0)"><g clip-path="url(#1)"><g clip-path="url(#2)"><path id="1" transform="matrix(1 0 0 -1 0 834)" d="M91.866 67.4211L562.134 67.4211L562.134 74.92501L91.866 74.92501z" stroke="none" fill="#686868" fill-rule="nonzero" /><path id="2" transform="matrix(1 0 0 -1 0 834)" d="M91.866 526.984L562.134 526.984" stroke="#686868" stroke-width="1" fill="none" /><path id="3" transform="matrix(1 0 0 -1 0 834)" d="M91.866 307.016L562.134 307.016" stroke="#686868" stroke-width="1" fill="none" /></g><g clip-path="url(#3)"></g><g clip-path="url(#4)"><g transform="matrix(1.007832 0 0 1.002353 342.836 132.493)"><g transform="matrix(1 0 0 1 0 0)"><image x="0" y="0" xlink:href="img_01.png" width="75" height="136" /></g></g></g><g clip-path="url(#5)"><path id="8" transform="matrix(1 0 0 -1 0 834)" d="M488.362 605.247C 488.362 583.343 470.109 565.587 447.592 565.587C 425.075 565.587 406.821 583.343 406.821 605.247C 406.821 627.151 425.075 644.908 447.592 644.908C 470.109 644.908 488.362 627.151 488.362 605.247" stroke="none" fill="#FFFFFF" fill-rule="nonzero" /></g><g clip-path="url(#6)"></g><g clip-path="url(#7)"><g transform="matrix(1.010357 0 0 1.004047 416.325 189.0914)"><g transform="matrix(1 0 0 1 0 0)"><image x="0" y="0" xlink:href="img_02.png" width="54" height="98" /></g></g></g><g clip-path="url(#8)"><path id="10" transform="matrix(1 0 0 -1 0 834)" d="M488.3589 605.2477C 488.3589 583.344 470.1056 565.5873 447.5893 565.5873C 425.072 565.5873 406.8187 583.344 406.8187 605.2477C 406.8187 627.1514 425.072 644.909 447.5893 644.909C 470.1056 644.909 488.3589 627.1514 488.3589 605.2477z" stroke="#000000" stroke-width="0.707741" fill="none" /></g><path id="11" transform="matrix(1 0 0 -1 0 834)" d="M379.303 655.186L382.241 655.666L381.703 654.955L381.552 654.354L381.707 653.473" stroke="none" fill="#000000" fill-rule="nonzero" /><g clip-path="url(#9)"><path id="12" transform="matrix(1 0 0 -1 0 834)" d="M372.0468 661.3777C 370.5676 663.6854 369.712 666.4123 369.712 669.3325C 369.712 677.6472 376.6412 684.3879 385.1885 684.3879C 393.7358 684.3879 400.664 677.6472 400.664 669.3325C 400.664 661.0178 393.7358 654.278 385.1885 654.278C 383.6293 654.278 382.1248 654.5019 380.7055 654.919" stroke="#000000" stroke-width="0.707741" fill="none" /></g><g clip-path="url(#10)"></g><g clip-path="url(#11)"><g transform="matrix(1.008969 0 0 1.012028 258.97 124.6811)"><g transform="matrix(1 0 0 1 0 0)"><image x="0" y="0" xlink:href="img_03.png" width="42" height="32" /></g></g></g><g clip-path="url(#12)"></g><g clip-path="url(#13)"><g transform="matrix(1.023622 0 0 0.9962026 313.181 139.4913)"><g transform="matrix(1 0 0 1 0 0)"><image x="0" y="0" xlink:href="img_04.png" width="27" height="38" /></g></g></g><g clip-path="url(#14)"></g><g clip-path="url(#15)"><g transform="matrix(1.00076 0 0 0.999792 339.914 363.492)"><g transform="matrix(1 0 0 1 0 0)"><image x="0" y="0" xlink:href="img_05.png" width="83" height="125" /></g></g></g><g clip-path="url(#16)"><path id="313" transform="matrix(1 0 0 -1 0 834)" d="M488.274 386.36C 488.274 364.04 470.404 345.946 448.361 345.946C 426.318 345.946 408.448 364.04 408.448 386.36C 408.448 408.68 426.318 426.773 448.361 426.773C 470.404 426.773 488.274 408.68 488.274 386.36" stroke="none" fill="#FFFFFF" fill-rule="nonzero" /></g><g clip-path="url(#17)"></g><g clip-path="url(#18)"><g transform="matrix(1.011462 0 0 0.9991677 413.996 406.3144)"><g transform="matrix(1 0 0 1 0 0)"><image x="0" y="0" xlink:href="img_06.png" width="65" height="99" /></g></g></g><g clip-path="url(#19)"><path id="315" transform="matrix(1 0 0 -1 0 834)" d="M488.2745 386.3601C 488.2745 364.041 470.4045 345.9469 448.3607 345.9469C 426.3178 345.9469 408.4478 364.041 408.4478 386.3601C 408.4478 408.6803 426.3178 426.7744 448.3607 426.7744C 470.4045 426.7744 488.2745 408.6803 488.2745 386.3601z" stroke="#000000" stroke-width="0.6489295" fill="none" /></g><path id="316" transform="matrix(1 0 0 -1 0 834)" d="M464.0861 382.1984L464.9298 384.4986" stroke="#FFFFFF" stroke-width="0.3893575" fill="none" /><path id="317" transform="matrix(1 0 0 -1 0 834)" d="M464.8036 381.4669L467.9737 381.7476" stroke="#FFFFFF" stroke-width="0.3893575" fill="none" /><path id="318" transform="matrix(1 0 0 -1 0 834)" d="M465.059 382.461L466.6172 384.1696" stroke="#FFFFFF" stroke-width="0.3893575" fill="none" /><path id="319" transform="matrix(1 0 0 -1 0 834)" d="M427.6942 370.6147L427.418 368.1776" stroke="#000000" stroke-width="0.3893575" fill="none" /><path id="320" transform="matrix(1 0 0 -1 0 834)" d="M426.8227 371.151L423.8116 370.1095" stroke="#000000" stroke-width="0.3893575" fill="none" /><path id="321" transform="matrix(1 0 0 -1 0 834)" d="M426.8098 370.1226L425.7017 368.087" stroke="#000000" stroke-width="0.3893575" fill="none" /><path id="322" transform="matrix(1 0 0 -1 0 834)" d="M393.4946 418.0745L393.4946 402.491" stroke="#FFFFFF" stroke-width="0.778716" fill="none" /><path id="323" transform="matrix(1 0 0 -1 0 834)" d="M393.494 417.586L392.052 416.966L393.494 420.427L394.936 416.966z" stroke="none" fill="#FFFFFF" fill-rule="nonzero" /><path id="324" transform="matrix(1 0 0 -1 0 834)" d="M388.0437 418.0624L388.0437 402.4789" stroke="#FFFFFF" stroke-width="0.778716" fill="none" /><path id="325" transform="matrix(1 0 0 -1 0 834)" d="M386.602 403.586L388.044 402.966L389.486 403.586L388.044 400.125z" stroke="none" fill="#FFFFFF" fill-rule="nonzero" /><path id="326" transform="matrix(1 0 0 -1 0 834)" d="M374.7958 409.4008L374.7958 397.3009" stroke="#FFFFFF" stroke-width="0.778716" fill="none" /><path id="327" transform="matrix(1 0 0 -1 0 834)" d="M374.796 408.913L373.354 408.293L374.796 411.754L376.238 408.293z" stroke="none" fill="#FFFFFF" fill-rule="nonzero" /><path id="328" transform="matrix(1 0 0 -1 0 834)" d="M370.4023 409.8476L370.4023 397.7477" stroke="#FFFFFF" stroke-width="0.778716" fill="none" /><path id="329" transform="matrix(1 0 0 -1 0 834)" d="M368.961 398.855L370.402 398.235L371.844 398.855L370.402 395.394z" stroke="none" fill="#FFFFFF" fill-rule="nonzero" /><g clip-path="url(#20)"></g><g clip-path="url(#21)"><g transform="matrix(1.006449 0 0 0.9985386 261.396 332.3143)"><g transform="matrix(1 0 0 1 0 0)"><image x="0" y="0" xlink:href="img_07.png" width="37" height="57" /></g></g></g><g clip-path="url(#22)"></g><g clip-path="url(#23)"><g transform="matrix(1.023622 0 0 0.9962026 322.86 360.7513)"><g transform="matrix(1 0 0 1 0 0)"><image x="0" y="0" xlink:href="img_08.png" width="27" height="38" /></g></g></g><g clip-path="url(#24)"></g><g clip-path="url(#25)"><g transform="matrix(-1.023622 0 0 0.9962026 441.066 360.7513)"><g transform="matrix(1 0 0 1 0 0)"><image x="0" y="0" xlink:href="img_08.png" width="27" height="38" /></g></g></g><g clip-path="url(#26)"></g><g clip-path="url(#27)"><g transform="matrix(1.004591 0 0 1.003234 336.397 571.479)"><g transform="matrix(1 0 0 1 0 0)"><image x="0" y="0" xlink:href="img_09.png" width="73" height="137" /></g></g></g><g clip-path="url(#28)"><path id="661" transform="matrix(1 0 0 -1 0 834)" d="M493.314 170.764C 493.314 145.288 472.508 124.636 446.844 124.636C 421.18 124.636 400.375 145.288 400.375 170.764C 400.375 196.241 421.18 216.893 446.844 216.893C 472.508 216.893 493.314 196.241 493.314 170.764" stroke="none" fill="#FFFFFF" fill-rule="nonzero" /></g><g clip-path="url(#29)"></g><g clip-path="url(#30)"><g transform="matrix(0.9999233 0 0 0.9986637 412.466 617.106)"><g transform="matrix(1 0 0 1 0 0)"><image x="0" y="0" xlink:href="img_10.png" width="60" height="110" /></g></g></g><g clip-path="url(#31)"><path id="663" transform="matrix(1 0 0 -1 0 834)" d="M493.3157 170.7645C 493.3157 145.2885 472.5095 124.6358 446.8453 124.6358C 421.1802 124.6358 400.375 145.2885 400.375 170.7645C 400.375 196.2404 421.1802 216.8931 446.8453 216.8931C 472.5095 216.8931 493.3157 196.2404 493.3157 170.7645z" stroke="#000000" stroke-width="0.7203873" fill="none" /><path id="664" transform="matrix(1 0 0 -1 0 834)" d="M405.855 213.834C 405.855 217.613 403.189 220.785 399.627 221.595L399.627 221.595L399.627 221.61C 399.626 221.611 399.625 221.611 399.623 221.611L399.623 221.611L400.253 222.888L400.253 222.888L397.101 221.762C 393.022 221.393 389.816 217.978 389.816 213.834C 389.816 209.898 392.708 206.621 396.494 205.986L396.494 205.986L396.516 205.802C 396.518 205.802 396.519 205.802 396.52 205.801L396.52 205.801L396.081 204.448L396.081 204.448L398.915 205.946C 402.829 206.471 405.855 209.808 405.855 213.834M399.164 206.834L395.766 207.912L395.766 207.912L396.329 206.87C 393.093 207.559 390.66 210.42 390.66 213.834C 390.66 217.474 393.425 220.485 396.979 220.906L396.979 220.906L400.065 219.415L400.065 219.415L399.613 220.654C 399.614 220.653 399.616 220.653 399.618 220.652L399.618 220.652L399.606 220.657L399.606 220.657L399.608 220.737C 402.71 219.952 405.011 217.155 405.011 213.834C 405.011 210.357 402.488 207.455 399.164 206.834" stroke="none" fill="#000000" fill-rule="nonzero" /></g><g clip-path="url(#32)"></g><g clip-path="url(#33)"><g transform="matrix(1.008969 0 0 1.019562 258.827 563.6359)"><g transform="matrix(1 0 0 1 0 0)"><image x="0" y="0" xlink:href="img_11.png" width="42" height="34" /></g></g></g><g clip-path="url(#34)"></g><g clip-path="url(#35)"><g transform="matrix(1.023622 0 0 0.9962026 308.83 574.1853)"><g transform="matrix(1 0 0 1 0 0)"><image x="0" y="0" xlink:href="img_12.png" width="27" height="38" /></g></g></g><path id="988" transform="matrix(1 0 0 -1 0 834)" d="M633 15L633 0M633 819L633 834M21 15L21 0M21 819L21 834M639 21L654 21M15 21L0 21M639 813L654 813M15 813L0 813" stroke="#000000" stroke-width="1.25" fill="none" /><path id="989" transform="matrix(1 0 0 -1 0 834)" d="M633 15L633 0M633 819L633 834M21 15L21 0M21 819L21 834M639 21L654 21M15 21L0 21M639 813L654 813M15 813L0 813" stroke="#000000" stroke-width="0.25" fill="none" /><path id="990" transform="matrix(1 0 0 -1 0 834)" d="M32.2781 9.28203C 32.2781 9.516021 32.2961 9.58203 32.3559 9.62383C 32.416 9.66602 32.5719 9.69609 32.8238 9.69609C 33.2262 9.69609 33.5738 9.62383 33.8441 9.45C 34.3238 9.167971 34.552 8.63398 34.552 8.016021C 34.552 7.05586 34.0359 6.21602 32.9141 6.21602C 32.4762 6.21602 32.2781 6.33008 32.2781 6.78594zM31.252 9.900001L31.252 9.726171C 31.7141 9.68984 31.7621 9.66602 31.7621 9.150001L31.7621 9.150001L31.7621 6.74414C 31.7621 6.23398 31.7141 6.19805 31.198 6.16211L31.198 6.16211L31.198 6L31.198 6L32.6199 6C 33.3578 6 33.952 6.15 34.402 6.49805C 34.8641 6.84609 35.1398 7.38008 35.1398 8.1C 35.1398 8.664061 34.9301 9.101951 34.6359 9.38984C 34.2641 9.74414 33.7 9.900001 32.9379 9.900001z" stroke="#000000" stroke-width="0.4" fill="none" /><path id="991" transform="matrix(1 0 0 -1 0 834)" d="M38.3801 6.97813C 38.2898 6.70195 38.1758 6.51016 38.0738 6.38984C 37.9359 6.23398 37.732 6.20391 37.402 6.20391C 37.15 6.20391 36.9461 6.21602 36.8258 6.28203C 36.718 6.34219 36.6879 6.46211 36.6879 6.78594L36.6879 6.78594L36.6879 9.15586C 36.6879 9.66602 36.7418 9.69609 37.216 9.73203L37.216 9.73203L37.216 9.900001L37.216 9.900001L35.65 9.900001L35.65 9.900001L35.65 9.73203C 36.1359 9.69609 36.1777 9.66602 36.1777 9.15586L36.1777 9.15586L36.1777 6.75586C 36.1777 6.24609 36.1301 6.20391 35.6258 6.16797L35.6258 6.16797L35.6258 6L35.6258 6L38.3438 6C 38.398 6.18594 38.5238 6.75586 38.5598 6.94219z" stroke="#000000" stroke-width="0.4" fill="none" /><path id="992" transform="matrix(1 0 0 -1 0 834)" d="M41.0918 9.023829C 41.0438 9.40195 41.0141 9.63594 40.9898 9.851951C 40.7617 9.92383 40.5098 9.989841 40.234 9.989841C 39.4598 9.989841 38.998 9.49805 38.998 8.921881C 38.998 8.24414 39.6039 7.94414 39.9879 7.73984C 40.4379 7.5 40.768 7.28984 40.768 6.84609C 40.768 6.40781 40.498 6.12617 40.048 6.12617C 39.4301 6.12617 39.1598 6.73203 39.0641 7.09805L39.0641 7.09805L38.8898 7.05586C 38.9258 6.767971 39.0039 6.25195 39.052 6.12617C 39.1059 6.09609 39.1961 6.05391 39.3461 6C 39.4961 5.95781 39.6879 5.91016 39.934 5.91016C 40.732 5.91016 41.266 6.41406 41.266 7.04414C 41.266 7.71602 40.6961 7.99805 40.2277 8.23789C 39.7539 8.48398 39.466 8.68789 39.466 9.12617C 39.466 9.45 39.6699 9.78594 40.132 9.78594C 40.6539 9.78594 40.8098 9.371881 40.918 8.98789z" stroke="#000000" stroke-width="0.4" fill="none" /><path id="993" transform="matrix(1 0 0 -1 0 834)" d="M46.648 6L46.648 6.16797C 46.1258 6.21602 46.1078 6.24609 46.0898 6.88203L46.0898 6.88203L46.0301 9.05391C 46.0117 9.671881 46.0539 9.68398 46.582 9.73203L46.582 9.73203L46.582 9.900001L46.582 9.900001L45.5617 9.900001L45.5617 9.900001L44.1758 6.9L44.1758 6.9L42.8078 9.900001L42.8078 9.900001L41.8238 9.900001L41.8238 9.900001L41.8238 9.73203C 42.3699 9.67813 42.4 9.653911 42.3461 8.87383L42.3461 8.87383L42.2617 7.626171C 42.2141 7.00195 42.1777 6.73789 42.148 6.528131C 42.1059 6.27617 41.9859 6.21016 41.6379 6.16797L41.6379 6.16797L41.6379 6L41.6379 6L43.0359 6L43.0359 6L43.0359 6.16797C 42.6398 6.21016 42.4961 6.25195 42.484 6.53984C 42.4777 6.78008 42.4777 7.04414 42.502 7.53594L42.502 7.53594L42.5918 9.24609L42.5918 9.24609L42.6039 9.24609L42.6039 9.24609L43.948 6.04219L43.948 6.04219L44.068 6.04219L44.068 6.04219L45.532 9.33008L45.532 9.33008L45.5559 9.33008L45.5559 9.33008L45.5738 6.88203C 45.5801 6.24609 45.5559 6.21602 45.0699 6.16797L45.0699 6.16797L45.0699 6z" stroke="#000000" stroke-width="0.4" fill="none" /><path id="994" transform="matrix(1 0 0 -1 0 834)" d="M51.8738 7.05586C 51.5738 6.45586 51.2496 6.12617 50.6379 6.12617C 49.7258 6.12617 49.0656 6.89414 49.0656 8.016021C 49.0656 8.92813 49.5996 9.773829 50.602 9.773829C 51.2496 9.773829 51.6098 9.516021 51.7656 8.88008L51.7656 8.88008L51.9457 8.921881C 51.9098 9.24609 51.8738 9.48594 51.8258 9.828131C 51.6578 9.85781 51.2496 9.989841 50.7637 9.989841C 49.4258 9.989841 48.4539 9.15586 48.4539 7.89609C 48.4539 6.94219 49.1078 5.91016 50.602 5.91016C 51.034 5.91016 51.5379 6.03008 51.7059 6.07188C 51.8137 6.26992 51.9637 6.71406 52.0477 6.98984z" stroke="#000000" stroke-width="0.4" fill="none" /><path id="995" transform="matrix(1 0 0 -1 0 834)" d="M54.3398 9.773829C 55.1258 9.773829 55.7855 9.101951 55.7855 7.83594C 55.7855 6.68398 55.1855 6.12617 54.5195 6.12617C 53.6738 6.12617 53.0559 6.94805 53.0559 8.076171C 53.0559 9.19805 53.6676 9.773829 54.3398 9.773829zM54.4598 9.989841C 53.1996 9.989841 52.4438 8.98789 52.4438 7.90781C 52.4438 6.75586 53.3078 5.91016 54.3938 5.91016C 55.4918 5.91016 56.3977 6.70195 56.3977 7.99805C 56.3977 9.19805 55.4797 9.989841 54.4598 9.989841z" stroke="#000000" stroke-width="0.4" fill="none" /><path id="996" transform="matrix(1 0 0 -1 0 834)" d="M61.8277 6L61.8277 6.16797C 61.3059 6.21602 61.2879 6.24609 61.2695 6.88203L61.2695 6.88203L61.2098 9.05391C 61.1918 9.671881 61.2336 9.68398 61.7617 9.73203L61.7617 9.73203L61.7617 9.900001L61.7617 9.900001L60.7418 9.900001L60.7418 9.900001L59.3559 6.9L59.3559 6.9L57.9879 9.900001L57.9879 9.900001L57.0035 9.900001L57.0035 9.900001L57.0035 9.73203C 57.5496 9.67813 57.5797 9.653911 57.5258 8.87383L57.5258 8.87383L57.4418 7.626171C 57.3938 7.00195 57.3578 6.73789 57.3277 6.528131C 57.2855 6.27617 57.1656 6.21016 56.8176 6.16797L56.8176 6.16797L56.8176 6L56.8176 6L58.2156 6L58.2156 6L58.2156 6.16797C 57.8195 6.21016 57.6758 6.25195 57.6637 6.53984C 57.6578 6.78008 57.6578 7.04414 57.6816 7.53594L57.6816 7.53594L57.7719 9.24609L57.7719 9.24609L57.7836 9.24609L57.7836 9.24609L59.1277 6.04219L59.1277 6.04219L59.2477 6.04219L59.2477 6.04219L60.7117 9.33008L60.7117 9.33008L60.7355 9.33008L60.7355 9.33008L60.7535 6.88203C 60.7598 6.24609 60.7355 6.21602 60.2496 6.16797L60.2496 6.16797L60.2496 6z" stroke="#000000" stroke-width="0.4" fill="none" /><path id="997" transform="matrix(1 0 0 -1 0 834)" d="M63.8258 6L63.8258 6.16797C 63.3336 6.20391 63.2855 6.23398 63.2855 6.75L63.2855 6.75L63.2855 9.150001C 63.2855 9.66016 63.3336 9.69609 63.8258 9.73203L63.8258 9.73203L63.8258 9.900001L63.8258 9.900001L62.2355 9.900001L62.2355 9.900001L62.2355 9.73203C 62.7277 9.69609 62.7758 9.66016 62.7758 9.150001L62.7758 9.150001L62.7758 6.75C 62.7758 6.23984 62.7277 6.20391 62.2355 6.16797L62.2355 6.16797L62.2355 6z" stroke="#000000" stroke-width="0.4" fill="none" /><path id="998" transform="matrix(1 0 0 -1 0 834)" d="M66.5074 9.023829C 66.4598 9.40195 66.4297 9.63594 66.4055 9.851951C 66.1777 9.92383 65.9258 9.989841 65.6496 9.989841C 64.8758 9.989841 64.4137 9.49805 64.4137 8.921881C 64.4137 8.24414 65.0195 7.94414 65.4035 7.73984C 65.8535 7.5 66.1836 7.28984 66.1836 6.84609C 66.1836 6.40781 65.9137 6.12617 65.46371 6.12617C 64.8457 6.12617 64.5758 6.73203 64.4797 7.09805L64.4797 7.09805L64.3055 7.05586C 64.3418 6.767971 64.4195 6.25195 64.46761 6.12617C 64.52151 6.09609 64.6117 6.05391 64.7617 6C 64.91171 5.95781 65.1035 5.91016 65.3496 5.91016C 66.1477 5.91016 66.6816 6.41406 66.6816 7.04414C 66.6816 7.71602 66.1117 7.99805 65.6438 8.23789C 65.1695 8.48398 64.8816 8.68789 64.8816 9.12617C 64.8816 9.45 65.0855 9.78594 65.5477 9.78594C 66.0695 9.78594 66.2258 9.371881 66.3336 8.98789z" stroke="#000000" stroke-width="0.4" fill="none" /><path id="999" transform="matrix(1 0 0 -1 0 834)" d="M69.4055 7.68008L68.3016 7.68008C 68.4816 8.171881 68.6734 8.69414 68.8656 9.21016L68.8656 9.21016L68.8777 9.21016zM70.9355 6L70.9355 6.16797C 70.5457 6.20391 70.46761 6.25781 70.2758 6.77383C 69.89181 7.81797 69.4895 8.95781 69.11761 9.989841L69.11761 9.989841L68.9316 9.93594L68.9316 9.93594L67.68951 6.78594C 67.4797 6.25781 67.3957 6.22188 67.0176 6.16797L67.0176 6.16797L67.0176 6L67.0176 6L68.3195 6L68.3195 6L68.3195 6.16797C 67.8695 6.21016 67.81561 6.26992 67.9477 6.64805C 68.0258 6.9 68.1156 7.15195 68.2117 7.42188L68.2117 7.42188L69.4895 7.42188C 69.62151 7.05586 69.74181 6.73203 69.8195 6.49805C 69.8977 6.26406 69.8438 6.21602 69.4656 6.16797L69.4656 6.16797L69.4656 6z" stroke="#000000" stroke-width="0.4" fill="none" /><path id="1000" transform="matrix(1 0 0 -1 0 834)" d="M71.7273 5.92813C 71.9195 5.92813 72.06371 6.06602 72.06371 6.27617C 72.06371 6.46797 71.9195 6.61797 71.7273 6.61797C 71.5355 6.61797 71.3914 6.46797 71.3914 6.27617C 71.3914 6.06602 71.5355 5.92813 71.7273 5.92813z" stroke="#000000" stroke-width="0.4" fill="none" /><path id="1001" transform="matrix(1 0 0 -1 0 834)" d="M73.9234 6L73.9234 6.15586C 73.53951 6.19219 73.4977 6.22813 73.4977 6.63594L73.4977 6.63594L73.4977 8.70586C 73.2336 8.59805 72.9516 8.51992 72.6453 8.471881L72.6453 8.471881L72.6453 8.328131C 73.0055 8.26797 73.0234 8.24414 73.0234 7.871881L73.0234 7.871881L73.0234 6.63594C 73.0234 6.22813 72.9816 6.19219 72.6035 6.15586L72.6035 6.15586L72.6035 6zM73.2215 9.216021C 73.3953 9.216021 73.52731 9.36016 73.52731 9.52188C 73.52731 9.70195 73.3953 9.83398 73.2273 9.83398C 73.06561 9.83398 72.9215 9.70195 72.9215 9.52188C 72.9215 9.36016 73.06561 9.216021 73.2215 9.216021z" stroke="#000000" stroke-width="0.4" fill="none" /><path id="1002" transform="matrix(1 0 0 -1 0 834)" d="M77.1574 6L77.1574 6.15586C 76.8094 6.19219 76.7793 6.21602 76.7793 6.62383L76.7793 6.62383L76.7793 7.78203C 76.7793 8.36406 76.4793 8.69414 76.0055 8.69414C 75.8313 8.69414 75.67541 8.621881 75.5074 8.51406C 75.3574 8.41211 75.2254 8.32188 75.1055 8.23203L75.1055 8.23203L75.1055 8.712111C 74.8414 8.59219 74.5594 8.51992 74.27151 8.466021L74.27151 8.466021L74.27151 8.328131C 74.5953 8.26797 74.6313 8.25 74.6313 7.86602L74.6313 7.86602L74.6313 6.62383C 74.6313 6.22813 74.6016 6.19805 74.19341 6.15586L74.19341 6.15586L74.19341 6L74.19341 6L75.4953 6L75.4953 6L75.4953 6.15586C 75.1414 6.19219 75.1055 6.21602 75.1055 6.62383L75.1055 6.62383L75.1055 8.03398C 75.2855 8.18984 75.5195 8.33984 75.7594 8.33984C 76.1613 8.33984 76.3055 8.069921 76.3055 7.65586L76.3055 7.65586L76.3055 6.65391C 76.3055 6.23984 76.2633 6.19219 75.9094 6.15586L75.9094 6.15586L75.9094 6z" stroke="#000000" stroke-width="0.4" fill="none" /><path id="1003" transform="matrix(1 0 0 -1 0 834)" d="M79.4734 6.51016C 79.32931 6.40195 79.1133 6.30586 78.8973 6.30586C 78.5133 6.30586 78.0754 6.65391 78.0754 7.36797C 78.0754 8.23789 78.57931 8.471881 78.8555 8.471881C 79.0832 8.471881 79.32931 8.37617 79.4734 8.16602zM80.4035 6.30586L80.2113 6.32383C 79.9895 6.34805 79.9473 6.37813 79.9473 6.68984L79.9473 6.68984L79.9473 10.2719C 79.7254 10.1941 79.3234 10.1039 79.0113 10.0621L79.0113 10.0621L79.0113 9.917971C 79.44341 9.88789 79.4734 9.869921 79.4734 9.47383L79.4734 9.47383L79.4734 8.628131C 79.3355 8.67617 79.1613 8.69414 79.0773 8.69414C 78.2613 8.69414 77.5293 8.03984 77.5293 7.20586C 77.5293 6.36602 78.1594 5.92813 78.6395 5.92813C 78.7113 5.92813 78.87341 5.96406 79.1074 6.10195L79.1074 6.10195L79.4734 6.31797L79.4734 6.31797L79.4734 5.92813C 79.8215 6.05391 80.27151 6.13203 80.4035 6.15586z" stroke="#000000" stroke-width="0.4" fill="none" /><path id="1004" transform="matrix(1 0 0 -1 0 834)" d="M81.3813 8.24414C 81.4895 8.310161 81.6813 8.35781 81.84921 8.35781C 82.34731 8.35781 82.7676 7.96211 82.7676 7.278131C 82.7676 6.58203 82.4492 6.15586 81.9516 6.15586C 81.6336 6.16211 81.4535 6.37188 81.4176 6.49219C 81.3934 6.54609 81.3813 6.60586 81.3813 6.69609zM81.3813 8.42383L81.3813 10.2719C 81.1594 10.1941 80.7934 10.098 80.5113 10.0621L80.5113 10.0621L80.5113 9.92383C 80.8953 9.88789 80.9074 9.851951 80.9074 9.48008L80.9074 9.48008L80.9074 6.14414C 81.2375 5.98789 81.5434 5.92813 81.78951 5.92813C 82.59341 5.92813 83.2953 6.55195 83.2953 7.43398C 83.2953 8.14219 82.7555 8.69414 82.1133 8.69414C 82.0473 8.69414 81.9633 8.67617 81.86761 8.63398z" stroke="#000000" stroke-width="0.4" fill="none" /><path id="1005" transform="matrix(1 0 0 -1 0 834)" d="M88.1133 8.976171C 88.2633 9.19805 88.50311 9.45 88.8332 9.45C 89.15121 9.45 89.4031 9.257811 89.4031 8.88594C 89.4031 8.44219 88.9953 8.20781 88.44341 8.03398L88.44341 8.03398L88.4852 7.86016C 88.5813 7.88984 88.7254 7.92617 88.8691 7.92617C 89.2113 7.92617 89.6313 7.70391 89.6313 7.15195C 89.6313 6.55781 89.3313 6.23984 88.90511 6.23984C 88.5633 6.23984 88.3172 6.40781 88.1613 6.54609C 88.1133 6.58789 88.0652 6.58203 88.0172 6.54609C 87.9633 6.50391 87.8852 6.42617 87.8793 6.34805C 87.8672 6.27617 87.891 6.21016 87.9754 6.13203C 88.0531 6.06016 88.2992 5.92813 88.5754 5.92813C 89.007 5.92813 90.1473 6.37188 90.1473 7.34414C 90.1473 7.78203 89.841 8.153911 89.3133 8.25586L89.3133 8.25586L89.3133 8.26797C 89.4871 8.38789 89.6313 8.49609 89.7211 8.59219C 89.8352 8.70586 89.90701 8.84414 89.90701 9.01797C 89.90701 9.47383 89.5531 9.810161 89.0133 9.810161C 88.6953 9.810161 88.4191 9.66016 88.25121 9.47383L88.25121 9.47383L87.9871 9.09609z" stroke="#000000" stroke-width="0.4" fill="none" /><path id="1006" transform="matrix(1 0 0 -1 0 834)" d="M90.9934 8.976171C 91.1434 9.19805 91.3832 9.45 91.7133 9.45C 92.0313 9.45 92.2832 9.257811 92.2832 8.88594C 92.2832 8.44219 91.8754 8.20781 91.323 8.03398L91.323 8.03398L91.3652 7.86016C 91.4613 7.88984 91.6051 7.92617 91.7492 7.92617C 92.091 7.92617 92.5113 7.70391 92.5113 7.15195C 92.5113 6.55781 92.2113 6.23984 91.7852 6.23984C 91.44341 6.23984 91.1973 6.40781 91.041 6.54609C 90.9934 6.58789 90.9453 6.58203 90.8973 6.54609C 90.84341 6.50391 90.7652 6.42617 90.7594 6.34805C 90.74731 6.27617 90.7711 6.21016 90.8551 6.13203C 90.9332 6.06016 91.17931 5.92813 91.4551 5.92813C 91.8871 5.92813 93.02731 6.37188 93.02731 7.34414C 93.02731 7.78203 92.7211 8.153911 92.19341 8.25586L92.19341 8.25586L92.19341 8.26797C 92.3672 8.38789 92.5113 8.49609 92.6012 8.59219C 92.7152 8.70586 92.7871 8.84414 92.7871 9.01797C 92.7871 9.47383 92.4332 9.810161 91.8934 9.810161C 91.5754 9.810161 91.2992 9.66016 91.1313 9.47383L91.1313 9.47383L90.8672 9.09609z" stroke="#000000" stroke-width="0.4" fill="none" /><path id="1007" transform="matrix(1 0 0 -1 0 834)" d="M94.8453 6.11992C 94.4672 6.11992 94.1133 6.42617 94.1133 6.97813C 94.1133 7.30781 94.3172 7.60781 94.6051 7.8C 95.0672 7.56602 95.4934 7.30781 95.4934 6.85781C 95.4934 6.39609 95.2113 6.11992 94.8453 6.11992zM94.791 9.61797C 95.0672 9.61797 95.3793 9.396091 95.3793 8.89219C 95.3793 8.53203 95.2172 8.310161 95.0133 8.14805C 94.5871 8.35781 94.2332 8.555861 94.2332 9C 94.2332 9.305861 94.4371 9.61797 94.791 9.61797zM94.8512 9.810161C 94.2094 9.810161 93.7832 9.33008 93.7832 8.826171C 93.7832 8.40586 94.041 8.11797 94.4313 7.89609C 94.2273 7.76406 93.9992 7.60195 93.9031 7.51211C 93.7711 7.38594 93.6332 7.21797 93.6332 6.94219C 93.6332 6.3 94.1434 5.92813 94.7852 5.92813C 95.2953 5.92813 95.973 6.31211 95.973 7.01406C 95.973 7.53594 95.5953 7.82383 95.1813 8.057811C 95.4512 8.24414 95.6133 8.38789 95.65511 8.44219C 95.7691 8.57383 95.82931 8.74805 95.82931 8.921881C 95.82931 9.40781 95.4211 9.810161 94.8512 9.810161z" stroke="#000000" stroke-width="0.4" fill="none" /><path id="1026" transform="matrix(1 0 0 -1 0 834)" d="M554.472 6.83984C 554.292 6.46211 554.2141 6.43789 553.89 6.43789L553.89 6.43789L552.768 6.43789L552.768 6.43789L553.6201 7.33203C 554.1721 7.91992 554.412 8.273829 554.412 8.79609C 554.412 9.42617 553.932 9.810161 553.404 9.810161C 553.056 9.810161 552.774 9.653911 552.594 9.45586L552.594 9.45586L552.252 8.96992L552.252 8.96992L552.384 8.85C 552.54 9.08398 552.792 9.40781 553.2 9.40781C 553.644 9.40781 553.908 9.11406 553.908 8.61016C 553.908 8.09414 553.53 7.60195 553.158 7.15781C 552.858 6.81016 552.522 6.46797 552.186 6.13789L552.186 6.13789L552.186 6L552.186 6L554.43 6C 554.502 6.26992 554.562 6.53398 554.64 6.78594z" stroke="#000000" stroke-width="0.4" fill="none" /><path id="1027" transform="matrix(1 0 0 -1 0 834)" d="M555.792 9.3L557.19 9.3L557.19 9.3L557.346 9.68984L557.346 9.68984L557.31 9.73789L557.31 9.73789L555.6 9.73789L555.6 9.73789L555.366 7.90781C 555.504 7.96211 555.732 8.028131 555.984 8.028131C 556.638 8.028131 556.962 7.65 556.962 7.121881C 556.962 6.67188 556.71 6.23398 556.2 6.23398C 555.834 6.23398 555.588 6.42617 555.462 6.53984C 555.402 6.58789 555.354 6.58203 555.3 6.53984C 555.234 6.48008 555.18 6.40195 555.174 6.34219C 555.162 6.26992 555.192 6.22188 555.27 6.13789C 555.36 6.05391 555.612 5.92813 555.888 5.92813C 556.206 5.93398 556.608 6.08984 556.932 6.35391C 557.298 6.65391 557.466 6.99609 557.466 7.35586C 557.466 7.84805 557.076 8.369921 556.308 8.369921C 556.146 8.369921 555.864 8.273829 555.636 8.18984z" stroke="#000000" stroke-width="0.4" fill="none" /><path id="1028" transform="matrix(1 0 0 -1 0 834)" d="M559.548 9.989841L559.212 9.989841L559.212 9.989841L557.91 5.73594L557.91 5.73594L558.246 5.73594z" stroke="#000000" stroke-width="0.4" fill="none" /><path id="1029" transform="matrix(1 0 0 -1 0 834)" d="M561.18 9.61211C 561.72 9.61211 561.8701 8.72383 561.8701 7.871881C 561.8701 7.03203 561.726 6.13203 561.186 6.13203C 560.664 6.13203 560.49 7.03789 560.49 7.87813C 560.49 8.712111 560.634 9.61211 561.18 9.61211zM561.186 9.810161C 560.286 9.810161 559.956 8.74219 559.956 7.86602C 559.956 6.91797 560.28 5.92813 561.186 5.92813C 562.086 5.92813 562.404 6.99609 562.404 7.871881C 562.404 8.79609 562.086 9.810161 561.186 9.810161z" stroke="#000000" stroke-width="0.4" fill="none" /><path id="1030" transform="matrix(1 0 0 -1 0 834)" d="M564 9.61211C 564.582 9.61211 564.738 8.86797 564.738 8.33984C 564.738 8.21992 564.732 8.076171 564.7141 7.94414C 564.588 7.84805 564.384 7.77617 564.174 7.77617C 563.67 7.77617 563.3701 8.214061 563.3701 8.74219C 563.3701 9.09609 563.538 9.61211 564 9.61211zM564.078 9.810161C 563.304 9.810161 562.854 9.10781 562.854 8.53203C 562.854 7.90195 563.292 7.43398 563.928 7.43398C 564.042 7.43398 564.156 7.45781 564.288 7.53008L564.288 7.53008L564.69 7.74609C 564.492 6.83398 563.838 6.23398 562.98 6.08984L562.98 6.08984L563.01 5.91016C 563.16 5.91016 563.526 5.96992 563.85 6.10195C 564.66 6.42617 565.2661 7.20586 565.2661 8.310161C 565.2661 9.12617 564.828 9.810161 564.078 9.810161z" stroke="#000000" stroke-width="0.4" fill="none" /><path id="1031" transform="matrix(1 0 0 -1 0 834)" d="M567.294 9.989841L566.958 9.989841L566.958 9.989841L565.656 5.73594L565.656 5.73594L565.992 5.73594z" stroke="#000000" stroke-width="0.4" fill="none" /><path id="1032" transform="matrix(1 0 0 -1 0 834)" d="M569.9641 6.83984C 569.784 6.46211 569.706 6.43789 569.382 6.43789L569.382 6.43789L568.26 6.43789L568.26 6.43789L569.112 7.33203C 569.664 7.91992 569.904 8.273829 569.904 8.79609C 569.904 9.42617 569.424 9.810161 568.896 9.810161C 568.548 9.810161 568.2661 9.653911 568.086 9.45586L568.086 9.45586L567.744 8.96992L567.744 8.96992L567.876 8.85C 568.032 9.08398 568.284 9.40781 568.692 9.40781C 569.136 9.40781 569.4 9.11406 569.4 8.61016C 569.4 8.09414 569.022 7.60195 568.65 7.15781C 568.35 6.81016 568.014 6.46797 567.678 6.13789L567.678 6.13789L567.678 6L567.678 6L569.9221 6C 569.994 6.26992 570.054 6.53398 570.132 6.78594z" stroke="#000000" stroke-width="0.4" fill="none" /><path id="1033" transform="matrix(1 0 0 -1 0 834)" d="M571.806 9.61211C 572.346 9.61211 572.496 8.72383 572.496 7.871881C 572.496 7.03203 572.352 6.13203 571.812 6.13203C 571.29 6.13203 571.116 7.03789 571.116 7.87813C 571.116 8.712111 571.26 9.61211 571.806 9.61211zM571.812 9.810161C 570.912 9.810161 570.582 8.74219 570.582 7.86602C 570.582 6.91797 570.906 5.92813 571.812 5.92813C 572.712 5.92813 573.03 6.99609 573.03 7.871881C 573.03 8.79609 572.712 9.810161 571.812 9.810161z" stroke="#000000" stroke-width="0.4" fill="none" /><path id="1034" transform="matrix(1 0 0 -1 0 834)" d="M575.556 6L575.556 6.16211C 575.01 6.20391 574.9741 6.25195 574.9741 6.68398L574.9741 6.68398L574.9741 9.810161C 574.644 9.67813 574.29 9.56406 573.906 9.49805L573.906 9.49805L573.906 9.36016L573.906 9.36016L574.194 9.34805C 574.458 9.33594 574.482 9.305861 574.482 8.99414L574.482 8.99414L574.482 6.68398C 574.482 6.25195 574.452 6.20391 573.906 6.16211L573.906 6.16211L573.906 6z" stroke="#000000" stroke-width="0.4" fill="none" /><path id="1035" transform="matrix(1 0 0 -1 0 834)" d="M578.814 9.73789L576.522 9.73789C 576.498 9.48008 576.468 9.180079 576.414 8.85L576.414 8.85L576.588 8.85C 576.732 9.24609 576.768 9.3 577.164 9.3L577.164 9.3L578.46 9.3C 577.986 8.25586 577.308 7.01406 576.678 5.99414L576.678 5.99414L576.72 5.92813L576.72 5.92813L577.164 5.98789C 577.74 7.22383 578.298 8.44805 578.862 9.66602z" stroke="#000000" stroke-width="0.4" fill="none" /><path id="1036" transform="matrix(1 0 0 -1 0 834)" d="M584.531 9.61211C 585.071 9.61211 585.221 8.72383 585.221 7.871881C 585.221 7.03203 585.077 6.13203 584.537 6.13203C 584.015 6.13203 583.841 7.03789 583.841 7.87813C 583.841 8.712111 583.985 9.61211 584.531 9.61211zM584.537 9.810161C 583.637 9.810161 583.307 8.74219 583.307 7.86602C 583.307 6.91797 583.631 5.92813 584.537 5.92813C 585.437 5.92813 585.755 6.99609 585.755 7.871881C 585.755 8.79609 585.437 9.810161 584.537 9.810161z" stroke="#000000" stroke-width="0.4" fill="none" /><path id="1037" transform="matrix(1 0 0 -1 0 834)" d="M588.449 6.83984C 588.269 6.46211 588.191 6.43789 587.867 6.43789L587.867 6.43789L586.7451 6.43789L586.7451 6.43789L587.597 7.33203C 588.149 7.91992 588.389 8.273829 588.389 8.79609C 588.389 9.42617 587.909 9.810161 587.381 9.810161C 587.033 9.810161 586.751 9.653911 586.571 9.45586L586.571 9.45586L586.229 8.96992L586.229 8.96992L586.361 8.85C 586.517 9.08398 586.769 9.40781 587.177 9.40781C 587.621 9.40781 587.885 9.11406 587.885 8.61016C 587.885 8.09414 587.507 7.60195 587.135 7.15781C 586.835 6.81016 586.499 6.46797 586.163 6.13789L586.163 6.13789L586.163 6L586.163 6L588.407 6C 588.479 6.26992 588.539 6.53398 588.617 6.78594z" stroke="#000000" stroke-width="0.4" fill="none" /><path id="1038" transform="matrix(1 0 0 -1 0 834)" d="M589.5471 5.92813C 589.739 5.92813 589.883 6.06602 589.883 6.27617C 589.883 6.46797 589.739 6.61797 589.5471 6.61797C 589.355 6.61797 589.211 6.46797 589.211 6.27617C 589.211 6.06602 589.355 5.92813 589.5471 5.92813zM589.541 8.466021C 589.3491 8.466021 589.211 8.328131 589.211 8.13008C 589.211 7.92617 589.3491 7.78203 589.541 7.78203C 589.733 7.78203 589.877 7.92617 589.877 8.13008C 589.877 8.328131 589.733 8.466021 589.541 8.466021z" stroke="#000000" stroke-width="0.4" fill="none" /><path id="1039" transform="matrix(1 0 0 -1 0 834)" d="M591.905 7.35L590.723 7.35C 591.119 8.016021 591.509 8.58594 591.893 9.119921L591.893 9.119921L591.905 9.119921zM592.961 7.06797L592.961 7.35L592.961 7.35L592.385 7.35L592.385 7.35L592.385 9.79219L592.385 9.79219L592.145 9.79219C 591.527 8.976171 590.915 8.08789 590.345 7.23594L590.345 7.23594L590.345 7.06797L590.345 7.06797L591.905 7.06797L591.905 7.06797L591.905 6.63594C 591.905 6.23984 591.881 6.20391 591.359 6.16211L591.359 6.16211L591.359 6L591.359 6L592.895 6L592.895 6L592.895 6.16211C 592.409 6.20391 592.385 6.23398 592.385 6.63594L592.385 6.63594L592.385 7.06797z" stroke="#000000" stroke-width="0.4" fill="none" /><path id="1040" transform="matrix(1 0 0 -1 0 834)" d="M595.788 9.73789L593.496 9.73789C 593.472 9.48008 593.442 9.180079 593.388 8.85L593.388 8.85L593.562 8.85C 593.706 9.24609 593.742 9.3 594.138 9.3L594.138 9.3L595.434 9.3C 594.96 8.25586 594.282 7.01406 593.652 5.99414L593.652 5.99414L593.694 5.92813L593.694 5.92813L594.138 5.98789C 594.7141 7.22383 595.272 8.44805 595.836 9.66602z" stroke="#000000" stroke-width="0.4" fill="none" /><path id="1041" transform="matrix(1 0 0 -1 0 834)" d="M596.675 5.92813C 596.867 5.92813 597.011 6.06602 597.011 6.27617C 597.011 6.46797 596.867 6.61797 596.675 6.61797C 596.483 6.61797 596.3391 6.46797 596.3391 6.27617C 596.3391 6.06602 596.483 5.92813 596.675 5.92813zM596.669 8.466021C 596.477 8.466021 596.3391 8.328131 596.3391 8.13008C 596.3391 7.92617 596.477 7.78203 596.669 7.78203C 596.861 7.78203 597.005 7.92617 597.005 8.13008C 597.005 8.328131 596.861 8.466021 596.669 8.466021z" stroke="#000000" stroke-width="0.4" fill="none" /><path id="1042" transform="matrix(1 0 0 -1 0 834)" d="M599.657 6L599.657 6.16211C 599.111 6.20391 599.075 6.25195 599.075 6.68398L599.075 6.68398L599.075 9.810161C 598.7451 9.67813 598.3911 9.56406 598.007 9.49805L598.007 9.49805L598.007 9.36016L598.007 9.36016L598.295 9.34805C 598.559 9.33594 598.583 9.305861 598.583 8.99414L598.583 8.99414L598.583 6.68398C 598.583 6.25195 598.553 6.20391 598.007 6.16211L598.007 6.16211L598.007 6z" stroke="#000000" stroke-width="0.4" fill="none" /><path id="1043" transform="matrix(1 0 0 -1 0 834)" d="M602.705 6.83984C 602.525 6.46211 602.447 6.43789 602.123 6.43789L602.123 6.43789L601.001 6.43789L601.001 6.43789L601.853 7.33203C 602.405 7.91992 602.645 8.273829 602.645 8.79609C 602.645 9.42617 602.165 9.810161 601.637 9.810161C 601.289 9.810161 601.007 9.653911 600.827 9.45586L600.827 9.45586L600.485 8.96992L600.485 8.96992L600.617 8.85C 600.773 9.08398 601.025 9.40781 601.433 9.40781C 601.877 9.40781 602.1411 9.11406 602.1411 8.61016C 602.1411 8.09414 601.763 7.60195 601.3911 7.15781C 601.091 6.81016 600.755 6.46797 600.419 6.13789L600.419 6.13789L600.419 6L600.419 6L602.663 6C 602.735 6.26992 602.795 6.53398 602.873 6.78594z" stroke="#000000" stroke-width="0.4" fill="none" /><path id="1044" transform="matrix(1 0 0 -1 0 834)" d="M605.489 8.08203C 605.651 8.20195 605.897 8.33398 606.0891 8.33398C 606.527 8.33398 606.893 7.97383 606.893 7.33203C 606.893 6.65391 606.557 6.22188 606.053 6.22188C 605.8491 6.22188 605.621 6.31797 605.489 6.45586zM605.489 8.28008L605.489 8.75391C 605.207 8.63984 604.871 8.53789 604.619 8.49609L604.619 8.49609L604.619 8.351951C 604.991 8.30391 605.015 8.29219 605.015 7.90195L605.015 7.90195L605.015 5.18984C 605.015 4.79414 604.961 4.75781 604.577 4.72188L604.577 4.72188L604.577 4.56016L604.577 4.56016L605.999 4.56016L605.999 4.56016L605.999 4.72188C 605.531 4.76406 605.489 4.79414 605.489 5.25L605.489 5.25L605.489 6.03594C 605.567 5.99414 605.729 5.93398 605.903 5.92813C 606.683 6.07188 607.397 6.65391 607.397 7.56016C 607.397 8.153911 607.001 8.69414 606.335 8.69414C 606.263 8.69414 606.149 8.664061 606.041 8.60391z" stroke="#000000" stroke-width="0.4" fill="none" /><path id="1045" transform="matrix(1 0 0 -1 0 834)" d="M608.303 5.92813C 608.4951 5.92813 608.639 6.06602 608.639 6.27617C 608.639 6.46797 608.4951 6.61797 608.303 6.61797C 608.111 6.61797 607.967 6.46797 607.967 6.27617C 607.967 6.06602 608.111 5.92813 608.303 5.92813z" stroke="#000000" stroke-width="0.4" fill="none" /><path id="1046" transform="matrix(1 0 0 -1 0 834)" d="M615.125 6L615.125 6.15586C 614.783 6.19219 614.735 6.21602 614.735 6.61797L614.735 6.61797L614.735 7.77617C 614.735 8.36406 614.441 8.69414 613.973 8.69414C 613.805 8.69414 613.649 8.621881 613.523 8.53789C 613.373 8.44805 613.199 8.33398 613.025 8.20195C 612.905 8.51406 612.647 8.69414 612.359 8.69414C 612.167 8.69414 612.023 8.628131 611.867 8.53203C 611.687 8.417971 611.555 8.310161 611.429 8.226171L611.429 8.226171L611.429 8.712111C 611.165 8.59219 610.859 8.51406 610.595 8.466021L610.595 8.466021L610.595 8.328131C 610.9431 8.273829 610.961 8.24414 610.961 7.86016L610.961 7.86016L610.961 6.61797C 610.961 6.22813 610.907 6.19219 610.511 6.15586L610.511 6.15586L610.511 6L610.511 6L611.777 6L611.777 6L611.777 6.15586C 611.483 6.19219 611.435 6.22813 611.435 6.61797L611.435 6.61797L611.435 8.028131C 611.615 8.17813 611.8491 8.33984 612.0891 8.33984C 612.455 8.33984 612.611 8.09414 612.611 7.65L612.611 7.65L612.611 6.61797C 612.611 6.22188 612.557 6.19219 612.185 6.15586L612.185 6.15586L612.185 6L612.185 6L613.469 6L613.469 6L613.469 6.15586C 613.139 6.19219 613.085 6.22813 613.085 6.60586L613.085 6.60586L613.085 7.77617C 613.085 7.88984 613.079 7.95586 613.067 8.028131C 613.295 8.21992 613.523 8.33984 613.739 8.33984C 614.117 8.33984 614.267 8.069921 614.267 7.64414L614.267 7.64414L614.267 6.64219C 614.267 6.21602 614.201 6.19219 613.847 6.15586L613.847 6.15586L613.847 6z" stroke="#000000" stroke-width="0.4" fill="none" /><path id="1047" transform="matrix(1 0 0 -1 0 834)" d="M615.947 5.92813C 616.139 5.92813 616.283 6.06602 616.283 6.27617C 616.283 6.46797 616.139 6.61797 615.947 6.61797C 615.755 6.61797 615.611 6.46797 615.611 6.27617C 615.611 6.06602 615.755 5.92813 615.947 5.92813z" stroke="#000000" stroke-width="0.4" fill="none" /></g></g></svg>