<svg xmlns="http://www.w3.org/2000/svg" xmlns:xlink="http://www.w3.org/1999/xlink" id="body_1" preserveAspectRatio="xMinYMin meet" viewBox="0 0 872 1112"><defs><clipPath id="1"><path id="" clip-rule="evenodd" transform="matrix(1 0 0 1 0 0)" d="M0 834L0 0L0 0L654 0L654 0L654 834L654 834L0 834z" /></clipPath><clipPath id="2"><path id="" clip-rule="evenodd" transform="matrix(1 0 0 1 0 0)" d="M21 813L633 813L633 813L633 21L633 21L21 21z" /></clipPath><clipPath id="3"><path id="" clip-rule="evenodd" transform="matrix(1 0 0 1 0 0)" d="M123.047 267.633L210.0501 267.633L210.0501 267.633L210.0501 134.781L210.0501 134.781L123.047 134.781z" /></clipPath><clipPath id="4"><path id="" clip-rule="evenodd" transform="matrix(1 0 0 1 0 0)" d="M123.047 267.633L210.0501 267.633L210.0501 267.633L210.0501 134.781L210.0501 134.781L123.047 134.781z" /></clipPath><clipPath id="5"><path id="" clip-rule="evenodd" transform="matrix(1 0 0 1 0 0)" d="M233.773 267.32L319.1511 267.32L319.1511 267.32L319.1511 131.551L319.1511 131.551L233.773 131.551z" /></clipPath><clipPath id="6"><path id="" clip-rule="evenodd" transform="matrix(1 0 0 1 0 0)" d="M233.773 267.32L319.1511 267.32L319.1511 267.32L319.1511 131.551L319.1511 131.551L233.773 131.551z" /></clipPath><clipPath id="7"><path id="" clip-rule="evenodd" transform="matrix(1 0 0 1 0 0)" d="M123.047 268.181L352.796 268.181L352.796 268.181L352.796 131.551L352.796 131.551L123.047 131.551z" /></clipPath><clipPath id="8"><path id="" clip-rule="evenodd" transform="matrix(1 0 0 1 0 0)" d="M302.017 230.554L302.017 249.508C 305.651 259.996 315.144 267.477 326.283 267.477L326.283 267.477L326.283 267.477C 340.56 267.477 352.133 255.189 352.133 240.031L352.133 240.031L352.133 240.031C 352.133 224.872 340.56 212.584 326.283 212.584L326.283 212.584L326.283 212.584C 315.144 212.584 305.651 220.064 302.017 230.554" /></clipPath><clipPath id="9"><path id="" clip-rule="evenodd" transform="matrix(1 0 0 1 0 0)" d="M302.017 230.554L302.017 249.508C 305.651 259.996 315.144 267.477 326.283 267.477L326.283 267.477L326.283 267.477C 340.56 267.477 352.133 255.189 352.133 240.031L352.133 240.031L352.133 240.031C 352.133 224.872 340.56 212.584 326.283 212.584L326.283 212.584L326.283 212.584C 315.144 212.584 305.651 220.064 302.017 230.554" /></clipPath><clipPath id="10"><path id="" clip-rule="evenodd" transform="matrix(1 0 0 1 0 0)" d="M123.047 268.181L352.796 268.181L352.796 268.181L352.796 131.551L352.796 131.551L123.047 131.551z" /></clipPath><clipPath id="11"><path id="" clip-rule="evenodd" transform="matrix(1 0 0 1 0 0)" d="M123.047 268.181L352.796 268.181L352.796 268.181L352.796 131.551L352.796 131.551L123.047 131.551z" /></clipPath><clipPath id="12"><path id="" clip-rule="evenodd" transform="matrix(1 0 0 1 0 0)" d="M176.352 488.881L288.233 488.881L288.233 488.881L288.233 342.827L288.233 342.827L176.352 342.827z" /></clipPath><clipPath id="13"><path id="" clip-rule="evenodd" transform="matrix(1 0 0 1 0 0)" d="M176.352 488.881L288.233 488.881L288.233 488.881L288.233 342.827L288.233 342.827L176.352 342.827z" /></clipPath><clipPath id="14"><path id="" clip-rule="evenodd" transform="matrix(1 0 0 1 0 0)" d="M205.327 425.492L230.8782 425.492L230.8782 425.492L230.8782 417.8354L230.8782 417.8354L205.327 417.8354z" /></clipPath><clipPath id="15"><path id="" clip-rule="evenodd" transform="matrix(1 0 0 1 0 0)" d="M205.327 425.492L230.878 425.492L230.878 425.492L230.878 417.835L230.878 417.835L205.327 417.835z" /></clipPath><clipPath id="16"><path id="" clip-rule="evenodd" transform="matrix(1 0 0 1 0 0)" d="M205.327 425.492L230.8782 425.492L230.8782 425.492L230.8782 417.8357L230.8782 417.8357L205.327 417.8357z" /></clipPath><clipPath id="17"><path id="" clip-rule="evenodd" transform="matrix(1 0 0 1 0 0)" d="M232.293 425.845L260.9641 425.845L260.9641 425.845L260.9641 420.236L260.9641 420.236L232.293 420.236z" /></clipPath><clipPath id="18"><path id="" clip-rule="evenodd" transform="matrix(1 0 0 1 0 0)" d="M232.293 425.845L260.964 425.845L260.964 425.845L260.964 420.236L260.964 420.236L232.293 420.236z" /></clipPath><clipPath id="19"><path id="" clip-rule="evenodd" transform="matrix(1 0 0 1 0 0)" d="M232.293 425.845L260.9641 425.845L260.9641 425.845L260.9641 420.236L260.9641 420.236L232.293 420.236z" /></clipPath><clipPath id="20"><path id="" clip-rule="evenodd" transform="matrix(1 0 0 1 0 0)" d="M176.352 489.548L298.795 489.548L298.795 489.548L298.795 342.826L298.795 342.826L176.352 342.826z" /></clipPath><clipPath id="21"><path id="" clip-rule="evenodd" transform="matrix(1 0 0 1 0 0)" d="M253.188 464.8C 253.188 478.1 263.257 488.881 275.68 488.881L275.68 488.881L275.68 488.881C 288.102 488.881 298.172 478.1 298.172 464.8L298.172 464.8L298.172 464.8C 298.172 451.501 288.102 440.72 275.68 440.72L275.68 440.72L275.68 440.72C 263.257 440.72 253.188 451.501 253.188 464.8" /></clipPath><clipPath id="22"><path id="" clip-rule="evenodd" transform="matrix(1 0 0 1 0 0)" d="M253.188 464.8C 253.188 478.1 263.257 488.881 275.68 488.881L275.68 488.881L275.68 488.881C 288.102 488.881 298.172 478.1 298.172 464.8L298.172 464.8L298.172 464.8C 298.172 451.501 288.102 440.72 275.68 440.72L275.68 440.72L275.68 440.72C 263.257 440.72 253.188 451.501 253.188 464.8" /></clipPath><clipPath id="23"><path id="" clip-rule="evenodd" transform="matrix(1 0 0 1 0 0)" d="M276.771 456.764L277.464 456.764L277.464 456.764L277.464 453.2019L277.464 453.2019L276.771 453.2019z" /></clipPath><clipPath id="24"><path id="" clip-rule="evenodd" transform="matrix(1 0 0 1 0 0)" d="M276.771 456.764L277.464 456.764L277.464 456.764L277.464 453.202L277.464 453.202L276.771 453.202z" /></clipPath><clipPath id="25"><path id="" clip-rule="evenodd" transform="matrix(1 0 0 1 0 0)" d="M276.754 456.764L277.4462 456.764L277.4462 456.764L277.4462 453.2019L277.4462 453.2019L276.754 453.2019z" /></clipPath><clipPath id="26"><path id="" clip-rule="evenodd" transform="matrix(1 0 0 1 0 0)" d="M276.754 456.764L277.446 456.764L277.446 456.764L277.446 453.202L277.446 453.202L276.754 453.202z" /></clipPath><clipPath id="27"><path id="" clip-rule="evenodd" transform="matrix(1 0 0 1 0 0)" d="M276.771 456.764L277.464 456.764L277.464 456.764L277.464 453.2019L277.464 453.2019L276.771 453.2019z" /></clipPath><clipPath id="28"><path id="" clip-rule="evenodd" transform="matrix(1 0 0 1 0 0)" d="M280.448 458.862L283.2011 458.862L283.2011 458.862L283.2011 455.7307L283.2011 455.7307L280.448 455.7307z" /></clipPath><clipPath id="29"><path id="" clip-rule="evenodd" transform="matrix(1 0 0 1 0 0)" d="M280.448 458.862L283.201 458.862L283.201 458.862L283.201 455.731L283.201 455.731L280.448 455.731z" /></clipPath><clipPath id="30"><path id="" clip-rule="evenodd" transform="matrix(1 0 0 1 0 0)" d="M280.448 458.862L283.2019 458.862L283.2019 458.862L283.2019 455.7307L283.2019 455.7307L280.448 455.7307z" /></clipPath><clipPath id="31"><path id="" clip-rule="evenodd" transform="matrix(1 0 0 1 0 0)" d="M280.448 458.862L283.202 458.862L283.202 458.862L283.202 455.731L283.202 455.731L280.448 455.731z" /></clipPath><clipPath id="32"><path id="" clip-rule="evenodd" transform="matrix(1 0 0 1 0 0)" d="M280.448 458.862L283.2011 458.862L283.2011 458.862L283.2011 455.7307L283.2011 455.7307L280.448 455.7307z" /></clipPath><clipPath id="33"><path id="" clip-rule="evenodd" transform="matrix(1 0 0 1 0 0)" d="M270.991 459.005L273.8859 459.005L273.8859 459.005L273.8859 456.0198L273.8859 456.0198L270.991 456.0198z" /></clipPath><clipPath id="34"><path id="" clip-rule="evenodd" transform="matrix(1 0 0 1 0 0)" d="M270.991 459.005L273.886 459.005L273.886 459.005L273.886 456.02L273.886 456.02L270.991 456.02z" /></clipPath><clipPath id="35"><path id="" clip-rule="evenodd" transform="matrix(1 0 0 1 0 0)" d="M270.992 459.005L273.8869 459.005L273.8869 459.005L273.8869 456.0198L273.8869 456.0198L270.992 456.0198z" /></clipPath><clipPath id="36"><path id="" clip-rule="evenodd" transform="matrix(1 0 0 1 0 0)" d="M270.992 459.005L273.887 459.005L273.887 459.005L273.887 456.02L273.887 456.02L270.992 456.02z" /></clipPath><clipPath id="37"><path id="" clip-rule="evenodd" transform="matrix(1 0 0 1 0 0)" d="M270.991 459.005L273.8859 459.005L273.8859 459.005L273.8859 456.0198L273.8859 456.0198L270.991 456.0198z" /></clipPath><clipPath id="38"><path id="" clip-rule="evenodd" transform="matrix(1 0 0 1 0 0)" d="M176.352 489.548L298.795 489.548L298.795 489.548L298.795 342.826L298.795 342.826L176.352 342.826z" /></clipPath><clipPath id="39"><path id="" clip-rule="evenodd" transform="matrix(1 0 0 1 0 0)" d="M118.838 704.099L217.7013 704.099L217.7013 704.099L217.7013 569.149L217.7013 569.149L118.838 569.149z" /></clipPath><clipPath id="40"><path id="" clip-rule="evenodd" transform="matrix(1 0 0 1 0 0)" d="M118.838 704.099L217.7013 704.099L217.7013 704.099L217.7013 569.149L217.7013 569.149L118.838 569.149z" /></clipPath><clipPath id="41"><path id="" clip-rule="evenodd" transform="matrix(1 0 0 1 0 0)" d="M211.287 704.041L310.1499 704.041L310.1499 704.041L310.1499 569.091L310.1499 569.091L211.287 569.091z" /></clipPath><clipPath id="42"><path id="" clip-rule="evenodd" transform="matrix(1 0 0 1 0 0)" d="M211.287 704.041L310.1499 704.041L310.1499 704.041L310.1499 569.091L310.1499 569.091L211.287 569.091z" /></clipPath><clipPath id="43"><path id="" clip-rule="evenodd" transform="matrix(1 0 0 1 0 0)" d="M118.838 704.717L348.415 704.717L348.415 704.717L348.415 569.092L348.415 569.092L118.838 569.092z" /></clipPath><clipPath id="44"><path id="" clip-rule="evenodd" transform="matrix(1 0 0 1 0 0)" d="M293.783 676.991C 293.783 691.931 305.862 704.042 320.762 704.042L320.762 704.042L320.762 704.042C 335.662 704.042 347.741 691.931 347.741 676.991L347.741 676.991L347.741 676.991C 347.741 662.053 335.662 649.942 320.762 649.942L320.762 649.942L320.762 649.942C 305.862 649.942 293.783 662.053 293.783 676.991" /></clipPath><clipPath id="45"><path id="" clip-rule="evenodd" transform="matrix(1 0 0 1 0 0)" d="M293.783 676.991C 293.783 691.931 305.862 704.042 320.762 704.042L320.762 704.042L320.762 704.042C 335.662 704.042 347.741 691.931 347.741 676.991L347.741 676.991L347.741 676.991C 347.741 662.053 335.662 649.942 320.762 649.942L320.762 649.942L320.762 649.942C 305.862 649.942 293.783 662.053 293.783 676.991" /></clipPath><clipPath id="46"><path id="" clip-rule="evenodd" transform="matrix(1 0 0 1 0 0)" d="M118.838 704.717L348.415 704.717L348.415 704.717L348.415 569.092L348.415 569.092L118.838 569.092z" /></clipPath><clipPath id="47"><path id="" clip-rule="evenodd" transform="matrix(1 0 0 1 0 0)" d="M356.622 166.705L390.638 166.705L390.638 166.705L390.638 114.7148L390.638 114.7148L356.622 114.7148z" /></clipPath><clipPath id="48"><path id="" clip-rule="evenodd" transform="matrix(1 0 0 1 0 0)" d="M356.622 166.705L390.638 166.705L390.638 166.705L390.638 114.7148L390.638 114.7148L356.622 114.7148z" /></clipPath><clipPath id="49"><path id="" clip-rule="evenodd" transform="matrix(1 0 0 1 0 0)" d="M347.409 388.594L384.6668 388.594L384.6668 388.594L384.6668 331.678L384.6668 331.678L347.409 331.678z" /></clipPath><clipPath id="50"><path id="" clip-rule="evenodd" transform="matrix(1 0 0 1 0 0)" d="M347.409 388.594L384.6668 388.594L384.6668 388.594L384.6668 331.678L384.6668 331.678L347.409 331.678z" /></clipPath><clipPath id="51"><path id="" clip-rule="evenodd" transform="matrix(1 0 0 1 0 0)" d="M357.331 605.558L390.2861 605.558L390.2861 605.558L390.2861 555.1892L390.2861 555.1892L357.331 555.1892z" /></clipPath><clipPath id="52"><path id="" clip-rule="evenodd" transform="matrix(1 0 0 1 0 0)" d="M357.331 605.558L390.2861 605.558L390.2861 605.558L390.2861 555.1892L390.2861 555.1892L357.331 555.1892z" /></clipPath><clipPath id="53"><path id="" clip-rule="evenodd" transform="matrix(1 0 0 1 0 0)" d="M208.455 615.962L234.0519 615.962L234.0519 615.962L234.0519 580.103L234.0519 580.103L208.455 580.103z" /></clipPath><clipPath id="54"><path id="" clip-rule="evenodd" transform="matrix(1 0 0 1 0 0)" d="M208.455 615.962L234.0519 615.962L234.0519 615.962L234.0519 580.103L234.0519 580.103L208.455 580.103z" /></clipPath><clipPath id="55"><path id="" clip-rule="evenodd" transform="matrix(1 0 0 1 0 0)" d="M145.64 417L171.2361 417L171.2361 417L171.2361 381.141L171.2361 381.141L145.64 381.141z" /></clipPath><clipPath id="56"><path id="" clip-rule="evenodd" transform="matrix(1 0 0 1 0 0)" d="M145.64 417L171.2361 417L171.2361 417L171.2361 381.141L171.2361 381.141L145.64 381.141z" /></clipPath><clipPath id="57"><path id="" clip-rule="evenodd" transform="matrix(1 0 0 1 0 0)" d="M305.173 417L333.0101 417L333.0101 417L333.0101 381.141L333.0101 381.141L305.173 381.141z" /></clipPath><clipPath id="58"><path id="" clip-rule="evenodd" transform="matrix(1 0 0 1 0 0)" d="M305.173 417L333.0101 417L333.0101 417L333.0101 381.141L333.0101 381.141L305.173 381.141z" /></clipPath><clipPath id="59"><path id="" clip-rule="evenodd" transform="matrix(1 0 0 1 0 0)" d="M106.04 615.962L131.6361 615.962L131.6361 615.962L131.6361 580.103L131.6361 580.103L106.04 580.103z" /></clipPath><clipPath id="60"><path id="" clip-rule="evenodd" transform="matrix(1 0 0 1 0 0)" d="M106.04 615.962L131.6361 615.962L131.6361 615.962L131.6361 580.103L131.6361 580.103L106.04 580.103z" /></clipPath><clipPath id="61"><path id="" clip-rule="evenodd" transform="matrix(1 0 0 1 0 0)" d="M97.45 176.025L123.0469 176.025L123.0469 176.025L123.0469 140.166L123.0469 140.166L97.45 140.166z" /></clipPath><clipPath id="62"><path id="" clip-rule="evenodd" transform="matrix(1 0 0 1 0 0)" d="M97.45 176.025L123.0469 176.025L123.0469 176.025L123.0469 140.166L123.0469 140.166L97.45 140.166z" /></clipPath><clipPath id="63"><path id="" clip-rule="evenodd" transform="matrix(1 0 0 1 0 0)" d="M352.796 709.111L378.3929 709.111L378.3929 709.111L378.3929 673.252L378.3929 673.252L352.796 673.252z" /></clipPath><clipPath id="64"><path id="" clip-rule="evenodd" transform="matrix(1 0 0 1 0 0)" d="M352.796 709.111L378.3929 709.111L378.3929 709.111L378.3929 673.252L378.3929 673.252L352.796 673.252z" /></clipPath><clipPath id="65"><path id="" clip-rule="evenodd" transform="matrix(1 0 0 1 0 0)" d="M229.559 176.025L255.1559 176.025L255.1559 176.025L255.1559 140.166L255.1559 140.166L229.559 140.166z" /></clipPath><clipPath id="66"><path id="" clip-rule="evenodd" transform="matrix(1 0 0 1 0 0)" d="M229.559 176.025L255.1559 176.025L255.1559 176.025L255.1559 140.166L255.1559 140.166L229.559 140.166z" /></clipPath><clipPath id="67"><path id="" clip-rule="evenodd" transform="matrix(1 0 0 1 0 0)" d="M318.609 178.748L347.409 178.748L347.409 178.748L347.409 142.8898L347.409 142.8898L318.609 142.8898z" /></clipPath><clipPath id="68"><path id="" clip-rule="evenodd" transform="matrix(1 0 0 1 0 0)" d="M318.609 178.748L347.409 178.748L347.409 178.748L347.409 142.8898L347.409 142.8898L318.609 142.8898z" /></clipPath><clipPath id="69"><path id="" clip-rule="evenodd" transform="matrix(1 0 0 1 0 0)" d="M208.455 709.111L237.255 709.111L237.255 709.111L237.255 673.252L237.255 673.252L208.455 673.252z" /></clipPath><clipPath id="70"><path id="" clip-rule="evenodd" transform="matrix(1 0 0 1 0 0)" d="M208.455 709.111L237.255 709.111L237.255 709.111L237.255 673.252L237.255 673.252L208.455 673.252z" /></clipPath><clipPath id="71"><path id="" clip-rule="evenodd" transform="matrix(1 0 0 1 0 0)" d="M146.698 452.858L163.682 452.858L163.682 452.858L163.682 420.1182L163.682 420.1182L146.698 420.1182z" /></clipPath><clipPath id="72"><path id="" clip-rule="evenodd" transform="matrix(1 0 0 1 0 0)" d="M146.698 452.858L163.682 452.858L163.682 452.858L163.682 420.1182L163.682 420.1182L146.698 420.1182z" /></clipPath><clipPath id="73"><path id="" clip-rule="evenodd" transform="matrix(1 0 0 1 0 0)" d="M314.966 454.427L331.95 454.427L331.95 454.427L331.95 420.118L331.95 420.118L314.966 420.118z" /></clipPath><clipPath id="74"><path id="" clip-rule="evenodd" transform="matrix(1 0 0 1 0 0)" d="M314.966 454.427L331.95 454.427L331.95 454.427L331.95 420.118L331.95 420.118L314.966 420.118z" /></clipPath></defs><g transform="matrix(1.333333 0 0 1.333333 0 0)"><g clip-path="url(#1)"><g clip-path="url(#2)"><path id="1" transform="matrix(1 0 0 -1 0 834)" d="M91.866 67.4211L562.134 67.4211L562.134 74.92501L91.866 74.92501z" stroke="none" fill="#686868" fill-rule="nonzero" /><path id="2" transform="matrix(1 0 0 -1 0 834)" d="M91.866 526.984L562.134 526.984" stroke="#686868" stroke-width="1" fill="none" /><path id="3" transform="matrix(1 0 0 -1 0 834)" d="M91.866 307.016L562.134 307.016" stroke="#686868" stroke-width="1" fill="none" /></g><g clip-path="url(#3)"></g><g clip-path="url(#4)"><g transform="matrix(1.000036 0 0 0.9988949 123.047 134.7809)"><g transform="matrix(1 0 0 1 0 0)"><image x="0" y="0" xlink:href="img_01.png" width="87" height="133" /></g></g></g><g clip-path="url(#5)"></g><g clip-path="url(#6)"><g transform="matrix(1.004447 0 0 0.9983014 233.773 131.552)"><g transform="matrix(1 0 0 1 0 0)"><image x="0" y="0" xlink:href="img_02.png" width="85" height="136" /></g></g></g><g clip-path="url(#7)"><path id="9" transform="matrix(1 0 0 -1 0 834)" d="M300.434 593.97C 300.434 578.811 312.007 566.523 326.283 566.523C 340.559 566.523 352.132 578.811 352.132 593.97C 352.132 609.128 340.559 621.416 326.283 621.416C 312.007 621.416 300.434 609.128 300.434 593.97" stroke="none" fill="#FFFFFF" fill-rule="nonzero" /></g><g clip-path="url(#8)"></g><g clip-path="url(#9)"><g transform="matrix(1.005092 0 0 1.005115 302.017 203.2115)"><g transform="matrix(1 0 0 1 0 0)"><image x="0" y="0" xlink:href="img_03.png" width="65" height="74" /></g></g></g><g clip-path="url(#10)"><path id="11" transform="matrix(1 0 0 -1 0 834)" d="M300.4333 593.9725C 300.4333 578.814 312.0072 566.5256 326.2823 566.5256C 340.5582 566.5256 352.1322 578.814 352.1322 593.9725C 352.1322 609.13 340.5582 621.4185 326.2823 621.4185C 312.0072 621.4185 300.4333 609.13 300.4333 593.9725z" stroke="#000000" stroke-width="0.7375303" fill="none" /></g><path id="13" transform="matrix(1 0 0 -1 0 834)" d="M257.9547 642.7628L218.3403 642.7628" stroke="#000000" stroke-width="0.7375303" fill="none" /><path id="14" transform="matrix(1 0 0 -1 0 834)" d="M216.139 642.76L219.376 644.209L218.796 642.76L219.376 641.312z" stroke="none" fill="#000000" fill-rule="nonzero" /><path id="16" transform="matrix(1 0 0 -1 0 834)" d="M239.4432 612.0207L218.3394 612.0207" stroke="#000000" stroke-width="0.7375303" fill="none" /><path id="17" transform="matrix(1 0 0 -1 0 834)" d="M216.139 612.018L219.376 613.467L218.796 612.018L219.376 610.57z" stroke="none" fill="#000000" fill-rule="nonzero" /><g clip-path="url(#11)"><path id="18" transform="matrix(1 0 0 -1 0 834)" d="M143.209 680.896C 141.056 680.896 139.311 679.045 139.311 676.761C 139.311 674.478 141.056 672.627 143.209 672.627C 145.361 672.627 147.107 674.478 147.107 676.761C 147.107 679.045 145.361 680.896 143.209 680.896M143.209 673.129C 141.329 673.129 139.806 674.7451 139.806 676.739C 139.806 678.732 141.329 680.348 143.209 680.348C 145.088 680.348 146.611 678.732 146.611 676.739C 146.611 674.7451 145.088 673.129 143.209 673.129" stroke="none" fill="#000000" fill-rule="nonzero" /><path id="20" transform="matrix(1 0 0 -1 0 834)" d="M263.386 682.698C 261.234 682.698 259.488 680.847 259.488 678.564C 259.488 676.28 261.234 674.429 263.386 674.429C 265.539 674.429 267.284 676.28 267.284 678.564C 267.284 680.847 265.539 682.698 263.386 682.698M263.386 674.932C 261.507 674.932 259.984 676.548 259.984 678.541C 259.984 680.534 261.507 682.15 263.386 682.15C 265.266 682.15 266.789 680.534 266.789 678.541C 266.789 676.548 265.266 674.932 263.386 674.932" stroke="none" fill="#000000" fill-rule="nonzero" /></g><g clip-path="url(#12)"></g><g clip-path="url(#13)"><g transform="matrix(0.9989464 0 0 1.00037 176.352 342.826)"><g transform="matrix(1 0 0 1 0 0)"><image x="0" y="0" xlink:href="img_04.png" width="112" height="146" /></g></g></g><g clip-path="url(#14)"><g><g clip-path="url(#15)"><g clip-path="url(#16)"><path id="23" transform="matrix(1 0 0 -1 0 834)" d="M205.411 415.804L230.879 409.059" stroke="none" fill="#000000" fill-rule="nonzero" fill-opacity="0.8" /><path id="24" transform="matrix(1 0 0 -1 0 834)" d="M205.4102 415.8033L228.87 409.5905" stroke="#FFFFFF" stroke-width="0.6931946" fill="none" stroke-opacity="0.8" /><path id="25" transform="matrix(1 0 0 -1 0 834)" d="M227.616 408.507L228.454 409.7L228.233 411.175L230.878 409.059z" stroke="none" fill="#FFFFFF" fill-rule="nonzero" fill-opacity="0.8" /></g></g></g></g><g clip-path="url(#17)"><g><g clip-path="url(#18)"><g clip-path="url(#19)"><path id="26" transform="matrix(1 0 0 -1 0 834)" d="M260.915 413.396L232.293 409.059" stroke="none" fill="#000000" fill-rule="nonzero" fill-opacity="0.8" /><path id="27" transform="matrix(1 0 0 -1 0 834)" d="M234.3418 409.3692L260.9147 413.396" stroke="#FFFFFF" stroke-width="0.6931946" fill="none" stroke-opacity="0.8" /><path id="28" transform="matrix(1 0 0 -1 0 834)" d="M235.486 408.155L232.293 409.059L235.126 410.876L234.766 409.434z" stroke="none" fill="#FFFFFF" fill-rule="nonzero" fill-opacity="0.8" /></g></g></g></g><g clip-path="url(#20)"><path id="29" transform="matrix(1 0 0 -1 0 834)" d="M253.187 369.198C 253.187 355.9 263.257 345.118 275.679 345.118C 288.101 345.118 298.171 355.9 298.171 369.198C 298.171 382.498 288.101 393.279 275.679 393.279C 263.257 393.279 253.187 382.498 253.187 369.198" stroke="none" fill="#FFFFFF" fill-rule="nonzero" /></g><g clip-path="url(#21)"></g><g clip-path="url(#22)"><g transform="matrix(1.006216 0 0 1.001861 244.61 394.416)"><g transform="matrix(1 0 0 1 0 0)"><image x="0" y="0" xlink:href="img_05.png" width="64" height="108" /></g></g></g><g clip-path="url(#23)"><g><g clip-path="url(#24)"><g clip-path="url(#25)"><g><g clip-path="url(#26)"><g clip-path="url(#27)"><path id="32" transform="matrix(1 0 0 -1 0 834)" d="M277.1177 377.2356L277.1177 380.798" stroke="#FFFFFF" stroke-width="0.6931946" fill="none" stroke-opacity="0.8" /></g></g></g></g></g></g></g><g clip-path="url(#28)"><g><g clip-path="url(#29)"><g clip-path="url(#30)"><g><g clip-path="url(#31)"><g clip-path="url(#32)"><path id="33" transform="matrix(1 0 0 -1 0 834)" d="M280.704 375.388L282.946 378.019" stroke="none" fill="#000000" fill-rule="nonzero" fill-opacity="0.8" /><path id="34" transform="matrix(1 0 0 -1 0 834)" d="M280.7041 375.3876L282.946 378.0194" stroke="#FFFFFF" stroke-width="0.6931946" fill="none" stroke-opacity="0.8" /></g></g></g></g></g></g></g><g clip-path="url(#33)"><g><g clip-path="url(#34)"><g clip-path="url(#35)"><g><g clip-path="url(#36)"><g clip-path="url(#37)"><path id="35" transform="matrix(1 0 0 -1 0 834)" d="M273.649 375.265L271.23 377.71" stroke="none" fill="#000000" fill-rule="nonzero" fill-opacity="0.8" /><path id="36" transform="matrix(1 0 0 -1 0 834)" d="M273.6491 375.2646L271.2305 377.7102" stroke="#FFFFFF" stroke-width="0.6931946" fill="none" stroke-opacity="0.8" /></g></g></g></g></g></g></g><g clip-path="url(#38)"><path id="37" transform="matrix(1 0 0 -1 0 834)" d="M253.1875 369.1985C 253.1875 355.9 263.257 345.1185 275.6785 345.1185C 288.1009 345.1185 298.1704 355.9 298.1704 369.1985C 298.1704 382.4981 288.1009 393.2786 275.6785 393.2786C 263.257 393.2786 253.1875 382.4981 253.1875 369.1985z" stroke="#000000" stroke-width="0.6931946" fill="none" /></g><g clip-path="url(#39)"></g><g clip-path="url(#40)"><g transform="matrix(0.9986202 0 0 0.9996296 118.838 569.149)"><g transform="matrix(1 0 0 1 0 0)"><image x="0" y="0" xlink:href="img_06.png" width="99" height="135" /></g></g></g><g clip-path="url(#41)"></g><g clip-path="url(#42)"><g transform="matrix(0.9986202 0 0 0.9996296 211.287 569.092)"><g transform="matrix(1 0 0 1 0 0)"><image x="0" y="0" xlink:href="img_07.png" width="99" height="135" /></g></g></g><path id="40" transform="matrix(1 0 0 -1 0 834)" d="M235.899 207.946L251.828 178.029" stroke="none" fill="#000000" fill-rule="nonzero" /><path id="41" transform="matrix(1 0 0 -1 0 834)" d="M251.8274 178.0279L236.949 205.9715" stroke="#FFFFFF" stroke-width="0.7478892" fill="none" /><path id="42" transform="matrix(1 0 0 -1 0 834)" d="M235.899 207.946L238.666 205.697L237.168 205.563L236.223 204.389z" stroke="none" fill="#FFFFFF" fill-rule="nonzero" /><g clip-path="url(#43)"><path id="43" transform="matrix(1 0 0 -1 0 834)" d="M293.782 157.009C 293.782 142.07 305.861 129.959 320.761 129.959C 335.661 129.959 347.74 142.07 347.74 157.009C 347.74 171.948 335.661 184.059 320.761 184.059C 305.861 184.059 293.782 171.948 293.782 157.009" stroke="none" fill="#FFFFFF" fill-rule="nonzero" /></g><g clip-path="url(#44)"></g><g clip-path="url(#45)"><g transform="matrix(0.9966949 0 0 1.003374 290.328 627.3441)"><g transform="matrix(1 0 0 1 0 0)"><image x="0" y="0" xlink:href="img_08.png" width="59" height="80" /></g></g></g><g clip-path="url(#46)"><path id="45" transform="matrix(1 0 0 -1 0 834)" d="M293.7823 157.0084C 293.7823 142.0689 305.8615 129.959 320.7619 129.959C 335.6614 129.959 347.7405 142.0689 347.7405 157.0084C 347.7405 171.948 335.6614 184.0578 320.7619 184.0578C 305.8615 184.0578 293.7823 171.948 293.7823 157.0084z" stroke="#000000" stroke-width="0.7478892" fill="none" /><path id="46" transform="matrix(1 0 0 -1 0 834)" d="M147.42 227.791C 145.236 227.791 143.466 226.016 143.466 223.827C 143.466 221.639 145.236 219.864 147.42 219.864C 149.602 219.864 151.372 221.639 151.372 223.827C 151.372 226.016 149.602 227.791 147.42 227.791M147.42 220.346C 145.514 220.346 143.969 221.895 143.969 223.805C 143.969 225.716 145.514 227.265 147.42 227.265C 149.325 227.265 150.87 225.716 150.87 223.805C 150.87 221.895 149.325 220.346 147.42 220.346" stroke="none" fill="#000000" fill-rule="nonzero" /><path id="48" transform="matrix(1 0 0 -1 0 834)" d="M287.982 229.52C 285.799 229.52 284.029 227.746 284.029 225.557C 284.029 223.368 285.799 221.593 287.982 221.593C 290.165 221.593 291.935 223.368 291.935 225.557C 291.935 227.746 290.165 229.52 287.982 229.52M287.982 222.075C 286.076 222.075 284.531 223.624 284.531 225.535C 284.531 227.446 286.076 228.995 287.982 228.995C 289.888 228.995 291.432 227.446 291.432 225.535C 291.432 223.624 289.888 222.075 287.982 222.075" stroke="none" fill="#000000" fill-rule="nonzero" /></g><g clip-path="url(#47)"></g><g clip-path="url(#48)"><g transform="matrix(1.000462 0 0 0.9998212 356.622 114.7142)"><g transform="matrix(1 0 0 1 0 0)"><image x="0" y="0" xlink:href="img_09.png" width="34" height="52" /></g></g></g><g clip-path="url(#49)"></g><g clip-path="url(#50)"><g transform="matrix(1.006965 0 0 0.9990509 347.409 331.6771)"><g transform="matrix(1 0 0 1 0 0)"><image x="0" y="0" xlink:href="img_10.png" width="37" height="57" /></g></g></g><g clip-path="url(#51)"></g><g clip-path="url(#52)"><g transform="matrix(0.9986424 0 0 1.007396 357.331 555.1892)"><g transform="matrix(1 0 0 1 0 0)"><image x="0" y="0" xlink:href="img_11.png" width="33" height="50" /></g></g></g><path id="1333" transform="matrix(1 0 0 -1 0 834)" d="M208.455 218.038L234.0519 218.038L234.0519 253.8962L208.455 253.8962z" stroke="none" fill="#FFFFFF" fill-rule="nonzero" /><g clip-path="url(#53)"></g><g clip-path="url(#54)"><g transform="matrix(1.022337 0 0 0.9969764 207.449 579.0969)"><g transform="matrix(1 0 0 1 0 0)"><image x="0" y="0" xlink:href="img_12.png" width="27" height="38" /></g></g></g><g clip-path="url(#55)"></g><g clip-path="url(#56)"><g transform="matrix(1.022248 0 0 0.9972106 144.639 380.121)"><g transform="matrix(1 0 0 1 0 0)"><image x="0" y="0" xlink:href="img_13.png" width="27" height="38" /></g></g></g><g clip-path="url(#57)"></g><g clip-path="url(#58)"><g transform="matrix(-0.9953034 0 0 0.9972106 334.029 380.121)"><g transform="matrix(1 0 0 1 0 0)"><image x="0" y="0" xlink:href="img_14.png" width="30" height="38" /></g></g></g><g clip-path="url(#59)"></g><g clip-path="url(#60)"><g transform="matrix(1.022789 0 0 0.9973868 105.033 579.0823)"><g transform="matrix(1 0 0 1 0 0)"><image x="0" y="0" xlink:href="img_15.png" width="27" height="38" /></g></g></g><g clip-path="url(#61)"></g><g clip-path="url(#62)"><g transform="matrix(1.022789 0 0 0.9973868 96.4438 139.1453)"><g transform="matrix(1 0 0 1 0 0)"><image x="0" y="0" xlink:href="img_15.png" width="27" height="38" /></g></g></g><g clip-path="url(#63)"></g><g clip-path="url(#64)"><g transform="matrix(-1.022426 0 0 0.9969843 379.4 672.2446)"><g transform="matrix(1 0 0 1 0 0)"><image x="0" y="0" xlink:href="img_16.png" width="27" height="38" /></g></g></g><path id="1340" transform="matrix(1 0 0 -1 0 834)" d="M229.56 657.975L255.1569 657.975L255.1569 693.8328L229.56 693.8328z" stroke="none" fill="#FFFFFF" fill-rule="nonzero" /><g clip-path="url(#65)"></g><g clip-path="url(#66)"><g transform="matrix(1.022337 0 0 0.9969764 228.554 139.1599)"><g transform="matrix(1 0 0 1 0 0)"><image x="0" y="0" xlink:href="img_12.png" width="27" height="38" /></g></g></g><g clip-path="url(#67)"></g><g clip-path="url(#68)"><g transform="matrix(-0.9939097 0 0 0.9967948 348.41 141.8888)"><g transform="matrix(1 0 0 1 0 0)"><image x="0" y="0" xlink:href="img_17.png" width="31" height="38" /></g></g></g><g clip-path="url(#69)"></g><g clip-path="url(#70)"><g transform="matrix(1.011303 0 0 0.9969843 207.918 672.2446)"><g transform="matrix(1 0 0 1 0 0)"><image x="0" y="0" xlink:href="img_18.png" width="30" height="38" /></g></g></g><path id="1344" transform="matrix(1 0 0 -1 0 834)" d="M145.639 381.142L171.2359 381.142L171.2359 416.9994L145.639 416.9994z" stroke="none" fill="#FFFFFF" fill-rule="nonzero" /><g clip-path="url(#71)"></g><g clip-path="url(#72)"><g transform="matrix(0.9990295 0 0 0.9934471 146.698 420.1178)"><g transform="matrix(1 0 0 1 0 0)"><image x="0" y="0" xlink:href="img_19.png" width="17" height="34" /></g></g></g><path id="1346" transform="matrix(1 0 0 -1 0 834)" d="M305.173 379.573L333.0089 379.573L333.0089 418.5679L305.173 418.5679z" stroke="none" fill="#FFFFFF" fill-rule="nonzero" /><g clip-path="url(#73)"></g><g clip-path="url(#74)"><g transform="matrix(-0.9990295 0 0 1.008977 331.95 420.1178)"><g transform="matrix(1 0 0 1 0 0)"><image x="0" y="0" xlink:href="img_20.png" width="17" height="35" /></g></g></g><path id="1348" transform="matrix(1 0 0 -1 0 834)" d="M633 15L633 0M633 819L633 834M21 15L21 0M21 819L21 834M639 21L654 21M15 21L0 21M639 813L654 813M15 813L0 813" stroke="#000000" stroke-width="1.25" fill="none" /><path id="1349" transform="matrix(1 0 0 -1 0 834)" d="M633 15L633 0M633 819L633 834M21 15L21 0M21 819L21 834M639 21L654 21M15 21L0 21M639 813L654 813M15 813L0 813" stroke="#000000" stroke-width="0.25" fill="none" /><path id="1350" transform="matrix(1 0 0 -1 0 834)" d="M32.2781 9.28203C 32.2781 9.516021 32.2961 9.58203 32.3559 9.62383C 32.416 9.66602 32.5719 9.69609 32.8238 9.69609C 33.2262 9.69609 33.5738 9.62383 33.8441 9.45C 34.3238 9.167971 34.552 8.63398 34.552 8.016021C 34.552 7.05586 34.0359 6.21602 32.9141 6.21602C 32.4762 6.21602 32.2781 6.33008 32.2781 6.78594zM31.252 9.900001L31.252 9.726171C 31.7141 9.68984 31.7621 9.66602 31.7621 9.150001L31.7621 9.150001L31.7621 6.74414C 31.7621 6.23398 31.7141 6.19805 31.198 6.16211L31.198 6.16211L31.198 6L31.198 6L32.6199 6C 33.3578 6 33.952 6.15 34.402 6.49805C 34.8641 6.84609 35.1398 7.38008 35.1398 8.1C 35.1398 8.664061 34.9301 9.101951 34.6359 9.38984C 34.2641 9.74414 33.7 9.900001 32.9379 9.900001z" stroke="#000000" stroke-width="0.4" fill="none" /><path id="1351" transform="matrix(1 0 0 -1 0 834)" d="M38.3801 6.97813C 38.2898 6.70195 38.1758 6.51016 38.0738 6.38984C 37.9359 6.23398 37.732 6.20391 37.402 6.20391C 37.15 6.20391 36.9461 6.21602 36.8258 6.28203C 36.718 6.34219 36.6879 6.46211 36.6879 6.78594L36.6879 6.78594L36.6879 9.15586C 36.6879 9.66602 36.7418 9.69609 37.216 9.73203L37.216 9.73203L37.216 9.900001L37.216 9.900001L35.65 9.900001L35.65 9.900001L35.65 9.73203C 36.1359 9.69609 36.1777 9.66602 36.1777 9.15586L36.1777 9.15586L36.1777 6.75586C 36.1777 6.24609 36.1301 6.20391 35.6258 6.16797L35.6258 6.16797L35.6258 6L35.6258 6L38.3438 6C 38.398 6.18594 38.5238 6.75586 38.5598 6.94219z" stroke="#000000" stroke-width="0.4" fill="none" /><path id="1352" transform="matrix(1 0 0 -1 0 834)" d="M41.0918 9.023829C 41.0438 9.40195 41.0141 9.63594 40.9898 9.851951C 40.7617 9.92383 40.5098 9.989841 40.234 9.989841C 39.4598 9.989841 38.998 9.49805 38.998 8.921881C 38.998 8.24414 39.6039 7.94414 39.9879 7.73984C 40.4379 7.5 40.768 7.28984 40.768 6.84609C 40.768 6.40781 40.498 6.12617 40.048 6.12617C 39.4301 6.12617 39.1598 6.73203 39.0641 7.09805L39.0641 7.09805L38.8898 7.05586C 38.9258 6.767971 39.0039 6.25195 39.052 6.12617C 39.1059 6.09609 39.1961 6.05391 39.3461 6C 39.4961 5.95781 39.6879 5.91016 39.934 5.91016C 40.732 5.91016 41.266 6.41406 41.266 7.04414C 41.266 7.71602 40.6961 7.99805 40.2277 8.23789C 39.7539 8.48398 39.466 8.68789 39.466 9.12617C 39.466 9.45 39.6699 9.78594 40.132 9.78594C 40.6539 9.78594 40.8098 9.371881 40.918 8.98789z" stroke="#000000" stroke-width="0.4" fill="none" /><path id="1353" transform="matrix(1 0 0 -1 0 834)" d="M46.648 6L46.648 6.16797C 46.1258 6.21602 46.1078 6.24609 46.0898 6.88203L46.0898 6.88203L46.0301 9.05391C 46.0117 9.671881 46.0539 9.68398 46.582 9.73203L46.582 9.73203L46.582 9.900001L46.582 9.900001L45.5617 9.900001L45.5617 9.900001L44.1758 6.9L44.1758 6.9L42.8078 9.900001L42.8078 9.900001L41.8238 9.900001L41.8238 9.900001L41.8238 9.73203C 42.3699 9.67813 42.4 9.653911 42.3461 8.87383L42.3461 8.87383L42.2617 7.626171C 42.2141 7.00195 42.1777 6.73789 42.148 6.528131C 42.1059 6.27617 41.9859 6.21016 41.6379 6.16797L41.6379 6.16797L41.6379 6L41.6379 6L43.0359 6L43.0359 6L43.0359 6.16797C 42.6398 6.21016 42.4961 6.25195 42.484 6.53984C 42.4777 6.78008 42.4777 7.04414 42.502 7.53594L42.502 7.53594L42.5918 9.24609L42.5918 9.24609L42.6039 9.24609L42.6039 9.24609L43.948 6.04219L43.948 6.04219L44.068 6.04219L44.068 6.04219L45.532 9.33008L45.532 9.33008L45.5559 9.33008L45.5559 9.33008L45.5738 6.88203C 45.5801 6.24609 45.5559 6.21602 45.0699 6.16797L45.0699 6.16797L45.0699 6z" stroke="#000000" stroke-width="0.4" fill="none" /><path id="1354" transform="matrix(1 0 0 -1 0 834)" d="M51.8738 7.05586C 51.5738 6.45586 51.2496 6.12617 50.6379 6.12617C 49.7258 6.12617 49.0656 6.89414 49.0656 8.016021C 49.0656 8.92813 49.5996 9.773829 50.602 9.773829C 51.2496 9.773829 51.6098 9.516021 51.7656 8.88008L51.7656 8.88008L51.9457 8.921881C 51.9098 9.24609 51.8738 9.48594 51.8258 9.828131C 51.6578 9.85781 51.2496 9.989841 50.7637 9.989841C 49.4258 9.989841 48.4539 9.15586 48.4539 7.89609C 48.4539 6.94219 49.1078 5.91016 50.602 5.91016C 51.034 5.91016 51.5379 6.03008 51.7059 6.07188C 51.8137 6.26992 51.9637 6.71406 52.0477 6.98984z" stroke="#000000" stroke-width="0.4" fill="none" /><path id="1355" transform="matrix(1 0 0 -1 0 834)" d="M54.3398 9.773829C 55.1258 9.773829 55.7855 9.101951 55.7855 7.83594C 55.7855 6.68398 55.1855 6.12617 54.5195 6.12617C 53.6738 6.12617 53.0559 6.94805 53.0559 8.076171C 53.0559 9.19805 53.6676 9.773829 54.3398 9.773829zM54.4598 9.989841C 53.1996 9.989841 52.4438 8.98789 52.4438 7.90781C 52.4438 6.75586 53.3078 5.91016 54.3938 5.91016C 55.4918 5.91016 56.3977 6.70195 56.3977 7.99805C 56.3977 9.19805 55.4797 9.989841 54.4598 9.989841z" stroke="#000000" stroke-width="0.4" fill="none" /><path id="1356" transform="matrix(1 0 0 -1 0 834)" d="M61.8277 6L61.8277 6.16797C 61.3059 6.21602 61.2879 6.24609 61.2695 6.88203L61.2695 6.88203L61.2098 9.05391C 61.1918 9.671881 61.2336 9.68398 61.7617 9.73203L61.7617 9.73203L61.7617 9.900001L61.7617 9.900001L60.7418 9.900001L60.7418 9.900001L59.3559 6.9L59.3559 6.9L57.9879 9.900001L57.9879 9.900001L57.0035 9.900001L57.0035 9.900001L57.0035 9.73203C 57.5496 9.67813 57.5797 9.653911 57.5258 8.87383L57.5258 8.87383L57.4418 7.626171C 57.3938 7.00195 57.3578 6.73789 57.3277 6.528131C 57.2855 6.27617 57.1656 6.21016 56.8176 6.16797L56.8176 6.16797L56.8176 6L56.8176 6L58.2156 6L58.2156 6L58.2156 6.16797C 57.8195 6.21016 57.6758 6.25195 57.6637 6.53984C 57.6578 6.78008 57.6578 7.04414 57.6816 7.53594L57.6816 7.53594L57.7719 9.24609L57.7719 9.24609L57.7836 9.24609L57.7836 9.24609L59.1277 6.04219L59.1277 6.04219L59.2477 6.04219L59.2477 6.04219L60.7117 9.33008L60.7117 9.33008L60.7355 9.33008L60.7355 9.33008L60.7535 6.88203C 60.7598 6.24609 60.7355 6.21602 60.2496 6.16797L60.2496 6.16797L60.2496 6z" stroke="#000000" stroke-width="0.4" fill="none" /><path id="1357" transform="matrix(1 0 0 -1 0 834)" d="M63.8258 6L63.8258 6.16797C 63.3336 6.20391 63.2855 6.23398 63.2855 6.75L63.2855 6.75L63.2855 9.150001C 63.2855 9.66016 63.3336 9.69609 63.8258 9.73203L63.8258 9.73203L63.8258 9.900001L63.8258 9.900001L62.2355 9.900001L62.2355 9.900001L62.2355 9.73203C 62.7277 9.69609 62.7758 9.66016 62.7758 9.150001L62.7758 9.150001L62.7758 6.75C 62.7758 6.23984 62.7277 6.20391 62.2355 6.16797L62.2355 6.16797L62.2355 6z" stroke="#000000" stroke-width="0.4" fill="none" /><path id="1358" transform="matrix(1 0 0 -1 0 834)" d="M66.5074 9.023829C 66.4598 9.40195 66.4297 9.63594 66.4055 9.851951C 66.1777 9.92383 65.9258 9.989841 65.6496 9.989841C 64.8758 9.989841 64.4137 9.49805 64.4137 8.921881C 64.4137 8.24414 65.0195 7.94414 65.4035 7.73984C 65.8535 7.5 66.1836 7.28984 66.1836 6.84609C 66.1836 6.40781 65.9137 6.12617 65.46371 6.12617C 64.8457 6.12617 64.5758 6.73203 64.4797 7.09805L64.4797 7.09805L64.3055 7.05586C 64.3418 6.767971 64.4195 6.25195 64.46761 6.12617C 64.52151 6.09609 64.6117 6.05391 64.7617 6C 64.91171 5.95781 65.1035 5.91016 65.3496 5.91016C 66.1477 5.91016 66.6816 6.41406 66.6816 7.04414C 66.6816 7.71602 66.1117 7.99805 65.6438 8.23789C 65.1695 8.48398 64.8816 8.68789 64.8816 9.12617C 64.8816 9.45 65.0855 9.78594 65.5477 9.78594C 66.0695 9.78594 66.2258 9.371881 66.3336 8.98789z" stroke="#000000" stroke-width="0.4" fill="none" /><path id="1359" transform="matrix(1 0 0 -1 0 834)" d="M69.4055 7.68008L68.3016 7.68008C 68.4816 8.171881 68.6734 8.69414 68.8656 9.21016L68.8656 9.21016L68.8777 9.21016zM70.9355 6L70.9355 6.16797C 70.5457 6.20391 70.46761 6.25781 70.2758 6.77383C 69.89181 7.81797 69.4895 8.95781 69.11761 9.989841L69.11761 9.989841L68.9316 9.93594L68.9316 9.93594L67.68951 6.78594C 67.4797 6.25781 67.3957 6.22188 67.0176 6.16797L67.0176 6.16797L67.0176 6L67.0176 6L68.3195 6L68.3195 6L68.3195 6.16797C 67.8695 6.21016 67.81561 6.26992 67.9477 6.64805C 68.0258 6.9 68.1156 7.15195 68.2117 7.42188L68.2117 7.42188L69.4895 7.42188C 69.62151 7.05586 69.74181 6.73203 69.8195 6.49805C 69.8977 6.26406 69.8438 6.21602 69.4656 6.16797L69.4656 6.16797L69.4656 6z" stroke="#000000" stroke-width="0.4" fill="none" /><path id="1360" transform="matrix(1 0 0 -1 0 834)" d="M71.7273 5.92813C 71.9195 5.92813 72.06371 6.06602 72.06371 6.27617C 72.06371 6.46797 71.9195 6.61797 71.7273 6.61797C 71.5355 6.61797 71.3914 6.46797 71.3914 6.27617C 71.3914 6.06602 71.5355 5.92813 71.7273 5.92813z" stroke="#000000" stroke-width="0.4" fill="none" /><path id="1361" transform="matrix(1 0 0 -1 0 834)" d="M73.9234 6L73.9234 6.15586C 73.53951 6.19219 73.4977 6.22813 73.4977 6.63594L73.4977 6.63594L73.4977 8.70586C 73.2336 8.59805 72.9516 8.51992 72.6453 8.471881L72.6453 8.471881L72.6453 8.328131C 73.0055 8.26797 73.0234 8.24414 73.0234 7.871881L73.0234 7.871881L73.0234 6.63594C 73.0234 6.22813 72.9816 6.19219 72.6035 6.15586L72.6035 6.15586L72.6035 6zM73.2215 9.216021C 73.3953 9.216021 73.52731 9.36016 73.52731 9.52188C 73.52731 9.70195 73.3953 9.83398 73.2273 9.83398C 73.06561 9.83398 72.9215 9.70195 72.9215 9.52188C 72.9215 9.36016 73.06561 9.216021 73.2215 9.216021z" stroke="#000000" stroke-width="0.4" fill="none" /><path id="1362" transform="matrix(1 0 0 -1 0 834)" d="M77.1574 6L77.1574 6.15586C 76.8094 6.19219 76.7793 6.21602 76.7793 6.62383L76.7793 6.62383L76.7793 7.78203C 76.7793 8.36406 76.4793 8.69414 76.0055 8.69414C 75.8313 8.69414 75.67541 8.621881 75.5074 8.51406C 75.3574 8.41211 75.2254 8.32188 75.1055 8.23203L75.1055 8.23203L75.1055 8.712111C 74.8414 8.59219 74.5594 8.51992 74.27151 8.466021L74.27151 8.466021L74.27151 8.328131C 74.5953 8.26797 74.6313 8.25 74.6313 7.86602L74.6313 7.86602L74.6313 6.62383C 74.6313 6.22813 74.6016 6.19805 74.19341 6.15586L74.19341 6.15586L74.19341 6L74.19341 6L75.4953 6L75.4953 6L75.4953 6.15586C 75.1414 6.19219 75.1055 6.21602 75.1055 6.62383L75.1055 6.62383L75.1055 8.03398C 75.2855 8.18984 75.5195 8.33984 75.7594 8.33984C 76.1613 8.33984 76.3055 8.069921 76.3055 7.65586L76.3055 7.65586L76.3055 6.65391C 76.3055 6.23984 76.2633 6.19219 75.9094 6.15586L75.9094 6.15586L75.9094 6z" stroke="#000000" stroke-width="0.4" fill="none" /><path id="1363" transform="matrix(1 0 0 -1 0 834)" d="M79.4734 6.51016C 79.32931 6.40195 79.1133 6.30586 78.8973 6.30586C 78.5133 6.30586 78.0754 6.65391 78.0754 7.36797C 78.0754 8.23789 78.57931 8.471881 78.8555 8.471881C 79.0832 8.471881 79.32931 8.37617 79.4734 8.16602zM80.4035 6.30586L80.2113 6.32383C 79.9895 6.34805 79.9473 6.37813 79.9473 6.68984L79.9473 6.68984L79.9473 10.2719C 79.7254 10.1941 79.3234 10.1039 79.0113 10.0621L79.0113 10.0621L79.0113 9.917971C 79.44341 9.88789 79.4734 9.869921 79.4734 9.47383L79.4734 9.47383L79.4734 8.628131C 79.3355 8.67617 79.1613 8.69414 79.0773 8.69414C 78.2613 8.69414 77.5293 8.03984 77.5293 7.20586C 77.5293 6.36602 78.1594 5.92813 78.6395 5.92813C 78.7113 5.92813 78.87341 5.96406 79.1074 6.10195L79.1074 6.10195L79.4734 6.31797L79.4734 6.31797L79.4734 5.92813C 79.8215 6.05391 80.27151 6.13203 80.4035 6.15586z" stroke="#000000" stroke-width="0.4" fill="none" /><path id="1364" transform="matrix(1 0 0 -1 0 834)" d="M81.3813 8.24414C 81.4895 8.310161 81.6813 8.35781 81.84921 8.35781C 82.34731 8.35781 82.7676 7.96211 82.7676 7.278131C 82.7676 6.58203 82.4492 6.15586 81.9516 6.15586C 81.6336 6.16211 81.4535 6.37188 81.4176 6.49219C 81.3934 6.54609 81.3813 6.60586 81.3813 6.69609zM81.3813 8.42383L81.3813 10.2719C 81.1594 10.1941 80.7934 10.098 80.5113 10.0621L80.5113 10.0621L80.5113 9.92383C 80.8953 9.88789 80.9074 9.851951 80.9074 9.48008L80.9074 9.48008L80.9074 6.14414C 81.2375 5.98789 81.5434 5.92813 81.78951 5.92813C 82.59341 5.92813 83.2953 6.55195 83.2953 7.43398C 83.2953 8.14219 82.7555 8.69414 82.1133 8.69414C 82.0473 8.69414 81.9633 8.67617 81.86761 8.63398z" stroke="#000000" stroke-width="0.4" fill="none" /><path id="1365" transform="matrix(1 0 0 -1 0 834)" d="M88.1133 8.976171C 88.2633 9.19805 88.50311 9.45 88.8332 9.45C 89.15121 9.45 89.4031 9.257811 89.4031 8.88594C 89.4031 8.44219 88.9953 8.20781 88.44341 8.03398L88.44341 8.03398L88.4852 7.86016C 88.5813 7.88984 88.7254 7.92617 88.8691 7.92617C 89.2113 7.92617 89.6313 7.70391 89.6313 7.15195C 89.6313 6.55781 89.3313 6.23984 88.90511 6.23984C 88.5633 6.23984 88.3172 6.40781 88.1613 6.54609C 88.1133 6.58789 88.0652 6.58203 88.0172 6.54609C 87.9633 6.50391 87.8852 6.42617 87.8793 6.34805C 87.8672 6.27617 87.891 6.21016 87.9754 6.13203C 88.0531 6.06016 88.2992 5.92813 88.5754 5.92813C 89.007 5.92813 90.1473 6.37188 90.1473 7.34414C 90.1473 7.78203 89.841 8.153911 89.3133 8.25586L89.3133 8.25586L89.3133 8.26797C 89.4871 8.38789 89.6313 8.49609 89.7211 8.59219C 89.8352 8.70586 89.90701 8.84414 89.90701 9.01797C 89.90701 9.47383 89.5531 9.810161 89.0133 9.810161C 88.6953 9.810161 88.4191 9.66016 88.25121 9.47383L88.25121 9.47383L87.9871 9.09609z" stroke="#000000" stroke-width="0.4" fill="none" /><path id="1366" transform="matrix(1 0 0 -1 0 834)" d="M91.857 9.61211C 92.4391 9.61211 92.5953 8.86797 92.5953 8.33984C 92.5953 8.21992 92.5891 8.076171 92.5711 7.94414C 92.4453 7.84805 92.241 7.77617 92.0313 7.77617C 91.52731 7.77617 91.2273 8.214061 91.2273 8.74219C 91.2273 9.09609 91.3953 9.61211 91.857 9.61211zM91.9352 9.810161C 91.1613 9.810161 90.7113 9.10781 90.7113 8.53203C 90.7113 7.90195 91.1492 7.43398 91.7852 7.43398C 91.8992 7.43398 92.0133 7.45781 92.1453 7.53008L92.1453 7.53008L92.5473 7.74609C 92.34921 6.83398 91.6953 6.23398 90.8371 6.08984L90.8371 6.08984L90.8672 5.91016C 91.0172 5.91016 91.3832 5.96992 91.707 6.10195C 92.5172 6.42617 93.123 7.20586 93.123 8.310161C 93.123 9.12617 92.6852 9.810161 91.9352 9.810161z" stroke="#000000" stroke-width="0.4" fill="none" /><path id="1367" transform="matrix(1 0 0 -1 0 834)" d="M94.7973 9.61211C 95.3371 9.61211 95.4871 8.72383 95.4871 7.871881C 95.4871 7.03203 95.34341 6.13203 94.8031 6.13203C 94.2813 6.13203 94.107 7.03789 94.107 7.87813C 94.107 8.712111 94.25121 9.61211 94.7973 9.61211zM94.8031 9.810161C 93.9031 9.810161 93.573 8.74219 93.573 7.86602C 93.573 6.91797 93.8973 5.92813 94.8031 5.92813C 95.7031 5.92813 96.0211 6.99609 96.0211 7.871881C 96.0211 8.79609 95.7031 9.810161 94.8031 9.810161z" stroke="#000000" stroke-width="0.4" fill="none" /><path id="1386" transform="matrix(1 0 0 -1 0 834)" d="M554.472 6.83984C 554.292 6.46211 554.2141 6.43789 553.89 6.43789L553.89 6.43789L552.768 6.43789L552.768 6.43789L553.6201 7.33203C 554.1721 7.91992 554.412 8.273829 554.412 8.79609C 554.412 9.42617 553.932 9.810161 553.404 9.810161C 553.056 9.810161 552.774 9.653911 552.594 9.45586L552.594 9.45586L552.252 8.96992L552.252 8.96992L552.384 8.85C 552.54 9.08398 552.792 9.40781 553.2 9.40781C 553.644 9.40781 553.908 9.11406 553.908 8.61016C 553.908 8.09414 553.53 7.60195 553.158 7.15781C 552.858 6.81016 552.522 6.46797 552.186 6.13789L552.186 6.13789L552.186 6L552.186 6L554.43 6C 554.502 6.26992 554.562 6.53398 554.64 6.78594z" stroke="#000000" stroke-width="0.4" fill="none" /><path id="1387" transform="matrix(1 0 0 -1 0 834)" d="M555.792 9.3L557.19 9.3L557.19 9.3L557.346 9.68984L557.346 9.68984L557.31 9.73789L557.31 9.73789L555.6 9.73789L555.6 9.73789L555.366 7.90781C 555.504 7.96211 555.732 8.028131 555.984 8.028131C 556.638 8.028131 556.962 7.65 556.962 7.121881C 556.962 6.67188 556.71 6.23398 556.2 6.23398C 555.834 6.23398 555.588 6.42617 555.462 6.53984C 555.402 6.58789 555.354 6.58203 555.3 6.53984C 555.234 6.48008 555.18 6.40195 555.174 6.34219C 555.162 6.26992 555.192 6.22188 555.27 6.13789C 555.36 6.05391 555.612 5.92813 555.888 5.92813C 556.206 5.93398 556.608 6.08984 556.932 6.35391C 557.298 6.65391 557.466 6.99609 557.466 7.35586C 557.466 7.84805 557.076 8.369921 556.308 8.369921C 556.146 8.369921 555.864 8.273829 555.636 8.18984z" stroke="#000000" stroke-width="0.4" fill="none" /><path id="1388" transform="matrix(1 0 0 -1 0 834)" d="M559.548 9.989841L559.212 9.989841L559.212 9.989841L557.91 5.73594L557.91 5.73594L558.246 5.73594z" stroke="#000000" stroke-width="0.4" fill="none" /><path id="1389" transform="matrix(1 0 0 -1 0 834)" d="M561.18 9.61211C 561.72 9.61211 561.8701 8.72383 561.8701 7.871881C 561.8701 7.03203 561.726 6.13203 561.186 6.13203C 560.664 6.13203 560.49 7.03789 560.49 7.87813C 560.49 8.712111 560.634 9.61211 561.18 9.61211zM561.186 9.810161C 560.286 9.810161 559.956 8.74219 559.956 7.86602C 559.956 6.91797 560.28 5.92813 561.186 5.92813C 562.086 5.92813 562.404 6.99609 562.404 7.871881C 562.404 8.79609 562.086 9.810161 561.186 9.810161z" stroke="#000000" stroke-width="0.4" fill="none" /><path id="1390" transform="matrix(1 0 0 -1 0 834)" d="M564 9.61211C 564.582 9.61211 564.738 8.86797 564.738 8.33984C 564.738 8.21992 564.732 8.076171 564.7141 7.94414C 564.588 7.84805 564.384 7.77617 564.174 7.77617C 563.67 7.77617 563.3701 8.214061 563.3701 8.74219C 563.3701 9.09609 563.538 9.61211 564 9.61211zM564.078 9.810161C 563.304 9.810161 562.854 9.10781 562.854 8.53203C 562.854 7.90195 563.292 7.43398 563.928 7.43398C 564.042 7.43398 564.156 7.45781 564.288 7.53008L564.288 7.53008L564.69 7.74609C 564.492 6.83398 563.838 6.23398 562.98 6.08984L562.98 6.08984L563.01 5.91016C 563.16 5.91016 563.526 5.96992 563.85 6.10195C 564.66 6.42617 565.2661 7.20586 565.2661 8.310161C 565.2661 9.12617 564.828 9.810161 564.078 9.810161z" stroke="#000000" stroke-width="0.4" fill="none" /><path id="1391" transform="matrix(1 0 0 -1 0 834)" d="M567.294 9.989841L566.958 9.989841L566.958 9.989841L565.656 5.73594L565.656 5.73594L565.992 5.73594z" stroke="#000000" stroke-width="0.4" fill="none" /><path id="1392" transform="matrix(1 0 0 -1 0 834)" d="M569.9641 6.83984C 569.784 6.46211 569.706 6.43789 569.382 6.43789L569.382 6.43789L568.26 6.43789L568.26 6.43789L569.112 7.33203C 569.664 7.91992 569.904 8.273829 569.904 8.79609C 569.904 9.42617 569.424 9.810161 568.896 9.810161C 568.548 9.810161 568.2661 9.653911 568.086 9.45586L568.086 9.45586L567.744 8.96992L567.744 8.96992L567.876 8.85C 568.032 9.08398 568.284 9.40781 568.692 9.40781C 569.136 9.40781 569.4 9.11406 569.4 8.61016C 569.4 8.09414 569.022 7.60195 568.65 7.15781C 568.35 6.81016 568.014 6.46797 567.678 6.13789L567.678 6.13789L567.678 6L567.678 6L569.9221 6C 569.994 6.26992 570.054 6.53398 570.132 6.78594z" stroke="#000000" stroke-width="0.4" fill="none" /><path id="1393" transform="matrix(1 0 0 -1 0 834)" d="M571.806 9.61211C 572.346 9.61211 572.496 8.72383 572.496 7.871881C 572.496 7.03203 572.352 6.13203 571.812 6.13203C 571.29 6.13203 571.116 7.03789 571.116 7.87813C 571.116 8.712111 571.26 9.61211 571.806 9.61211zM571.812 9.810161C 570.912 9.810161 570.582 8.74219 570.582 7.86602C 570.582 6.91797 570.906 5.92813 571.812 5.92813C 572.712 5.92813 573.03 6.99609 573.03 7.871881C 573.03 8.79609 572.712 9.810161 571.812 9.810161z" stroke="#000000" stroke-width="0.4" fill="none" /><path id="1394" transform="matrix(1 0 0 -1 0 834)" d="M575.556 6L575.556 6.16211C 575.01 6.20391 574.9741 6.25195 574.9741 6.68398L574.9741 6.68398L574.9741 9.810161C 574.644 9.67813 574.29 9.56406 573.906 9.49805L573.906 9.49805L573.906 9.36016L573.906 9.36016L574.194 9.34805C 574.458 9.33594 574.482 9.305861 574.482 8.99414L574.482 8.99414L574.482 6.68398C 574.482 6.25195 574.452 6.20391 573.906 6.16211L573.906 6.16211L573.906 6z" stroke="#000000" stroke-width="0.4" fill="none" /><path id="1395" transform="matrix(1 0 0 -1 0 834)" d="M578.814 9.73789L576.522 9.73789C 576.498 9.48008 576.468 9.180079 576.414 8.85L576.414 8.85L576.588 8.85C 576.732 9.24609 576.768 9.3 577.164 9.3L577.164 9.3L578.46 9.3C 577.986 8.25586 577.308 7.01406 576.678 5.99414L576.678 5.99414L576.72 5.92813L576.72 5.92813L577.164 5.98789C 577.74 7.22383 578.298 8.44805 578.862 9.66602z" stroke="#000000" stroke-width="0.4" fill="none" /><path id="1396" transform="matrix(1 0 0 -1 0 834)" d="M584.531 9.61211C 585.071 9.61211 585.221 8.72383 585.221 7.871881C 585.221 7.03203 585.077 6.13203 584.537 6.13203C 584.015 6.13203 583.841 7.03789 583.841 7.87813C 583.841 8.712111 583.985 9.61211 584.531 9.61211zM584.537 9.810161C 583.637 9.810161 583.307 8.74219 583.307 7.86602C 583.307 6.91797 583.631 5.92813 584.537 5.92813C 585.437 5.92813 585.755 6.99609 585.755 7.871881C 585.755 8.79609 585.437 9.810161 584.537 9.810161z" stroke="#000000" stroke-width="0.4" fill="none" /><path id="1397" transform="matrix(1 0 0 -1 0 834)" d="M588.449 6.83984C 588.269 6.46211 588.191 6.43789 587.867 6.43789L587.867 6.43789L586.7451 6.43789L586.7451 6.43789L587.597 7.33203C 588.149 7.91992 588.389 8.273829 588.389 8.79609C 588.389 9.42617 587.909 9.810161 587.381 9.810161C 587.033 9.810161 586.751 9.653911 586.571 9.45586L586.571 9.45586L586.229 8.96992L586.229 8.96992L586.361 8.85C 586.517 9.08398 586.769 9.40781 587.177 9.40781C 587.621 9.40781 587.885 9.11406 587.885 8.61016C 587.885 8.09414 587.507 7.60195 587.135 7.15781C 586.835 6.81016 586.499 6.46797 586.163 6.13789L586.163 6.13789L586.163 6L586.163 6L588.407 6C 588.479 6.26992 588.539 6.53398 588.617 6.78594z" stroke="#000000" stroke-width="0.4" fill="none" /><path id="1398" transform="matrix(1 0 0 -1 0 834)" d="M589.5471 5.92813C 589.739 5.92813 589.883 6.06602 589.883 6.27617C 589.883 6.46797 589.739 6.61797 589.5471 6.61797C 589.355 6.61797 589.211 6.46797 589.211 6.27617C 589.211 6.06602 589.355 5.92813 589.5471 5.92813zM589.541 8.466021C 589.3491 8.466021 589.211 8.328131 589.211 8.13008C 589.211 7.92617 589.3491 7.78203 589.541 7.78203C 589.733 7.78203 589.877 7.92617 589.877 8.13008C 589.877 8.328131 589.733 8.466021 589.541 8.466021z" stroke="#000000" stroke-width="0.4" fill="none" /><path id="1399" transform="matrix(1 0 0 -1 0 834)" d="M591.137 9.3L592.535 9.3L592.535 9.3L592.691 9.68984L592.691 9.68984L592.655 9.73789L592.655 9.73789L590.945 9.73789L590.945 9.73789L590.711 7.90781C 590.8491 7.96211 591.077 8.028131 591.329 8.028131C 591.983 8.028131 592.307 7.65 592.307 7.121881C 592.307 6.67188 592.055 6.23398 591.545 6.23398C 591.179 6.23398 590.933 6.42617 590.807 6.53984C 590.747 6.58789 590.699 6.58203 590.645 6.53984C 590.579 6.48008 590.525 6.40195 590.519 6.34219C 590.507 6.26992 590.537 6.22188 590.615 6.13789C 590.705 6.05391 590.957 5.92813 591.233 5.92813C 591.551 5.93398 591.953 6.08984 592.277 6.35391C 592.643 6.65391 592.811 6.99609 592.811 7.35586C 592.811 7.84805 592.421 8.369921 591.653 8.369921C 591.491 8.369921 591.209 8.273829 590.981 8.18984z" stroke="#000000" stroke-width="0.4" fill="none" /><path id="1400" transform="matrix(1 0 0 -1 0 834)" d="M595.409 6L595.409 6.16211C 594.863 6.20391 594.827 6.25195 594.827 6.68398L594.827 6.68398L594.827 9.810161C 594.497 9.67813 594.143 9.56406 593.759 9.49805L593.759 9.49805L593.759 9.36016L593.759 9.36016L594.0471 9.34805C 594.311 9.33594 594.335 9.305861 594.335 8.99414L594.335 8.99414L594.335 6.68398C 594.335 6.25195 594.305 6.20391 593.759 6.16211L593.759 6.16211L593.759 6z" stroke="#000000" stroke-width="0.4" fill="none" /><path id="1401" transform="matrix(1 0 0 -1 0 834)" d="M596.675 5.92813C 596.867 5.92813 597.011 6.06602 597.011 6.27617C 597.011 6.46797 596.867 6.61797 596.675 6.61797C 596.483 6.61797 596.3391 6.46797 596.3391 6.27617C 596.3391 6.06602 596.483 5.92813 596.675 5.92813zM596.669 8.466021C 596.477 8.466021 596.3391 8.328131 596.3391 8.13008C 596.3391 7.92617 596.477 7.78203 596.669 7.78203C 596.861 7.78203 597.005 7.92617 597.005 8.13008C 597.005 8.328131 596.861 8.466021 596.669 8.466021z" stroke="#000000" stroke-width="0.4" fill="none" /><path id="1402" transform="matrix(1 0 0 -1 0 834)" d="M599.033 7.35L597.851 7.35C 598.247 8.016021 598.637 8.58594 599.021 9.119921L599.021 9.119921L599.033 9.119921zM600.0891 7.06797L600.0891 7.35L600.0891 7.35L599.513 7.35L599.513 7.35L599.513 9.79219L599.513 9.79219L599.273 9.79219C 598.655 8.976171 598.043 8.08789 597.473 7.23594L597.473 7.23594L597.473 7.06797L597.473 7.06797L599.033 7.06797L599.033 7.06797L599.033 6.63594C 599.033 6.23984 599.009 6.20391 598.487 6.16211L598.487 6.16211L598.487 6L598.487 6L600.023 6L600.023 6L600.023 6.16211C 599.537 6.20391 599.513 6.23398 599.513 6.63594L599.513 6.63594L599.513 7.06797z" stroke="#000000" stroke-width="0.4" fill="none" /><path id="1403" transform="matrix(1 0 0 -1 0 834)" d="M602.915 9.73789L600.623 9.73789C 600.5991 9.48008 600.569 9.180079 600.515 8.85L600.515 8.85L600.689 8.85C 600.833 9.24609 600.869 9.3 601.265 9.3L601.265 9.3L602.561 9.3C 602.087 8.25586 601.409 7.01406 600.779 5.99414L600.779 5.99414L600.821 5.92813L600.821 5.92813L601.265 5.98789C 601.841 7.22383 602.399 8.44805 602.963 9.66602z" stroke="#000000" stroke-width="0.4" fill="none" /><path id="1404" transform="matrix(1 0 0 -1 0 834)" d="M605.489 8.08203C 605.651 8.20195 605.897 8.33398 606.0891 8.33398C 606.527 8.33398 606.893 7.97383 606.893 7.33203C 606.893 6.65391 606.557 6.22188 606.053 6.22188C 605.8491 6.22188 605.621 6.31797 605.489 6.45586zM605.489 8.28008L605.489 8.75391C 605.207 8.63984 604.871 8.53789 604.619 8.49609L604.619 8.49609L604.619 8.351951C 604.991 8.30391 605.015 8.29219 605.015 7.90195L605.015 7.90195L605.015 5.18984C 605.015 4.79414 604.961 4.75781 604.577 4.72188L604.577 4.72188L604.577 4.56016L604.577 4.56016L605.999 4.56016L605.999 4.56016L605.999 4.72188C 605.531 4.76406 605.489 4.79414 605.489 5.25L605.489 5.25L605.489 6.03594C 605.567 5.99414 605.729 5.93398 605.903 5.92813C 606.683 6.07188 607.397 6.65391 607.397 7.56016C 607.397 8.153911 607.001 8.69414 606.335 8.69414C 606.263 8.69414 606.149 8.664061 606.041 8.60391z" stroke="#000000" stroke-width="0.4" fill="none" /><path id="1405" transform="matrix(1 0 0 -1 0 834)" d="M608.303 5.92813C 608.4951 5.92813 608.639 6.06602 608.639 6.27617C 608.639 6.46797 608.4951 6.61797 608.303 6.61797C 608.111 6.61797 607.967 6.46797 607.967 6.27617C 607.967 6.06602 608.111 5.92813 608.303 5.92813z" stroke="#000000" stroke-width="0.4" fill="none" /><path id="1406" transform="matrix(1 0 0 -1 0 834)" d="M615.125 6L615.125 6.15586C 614.783 6.19219 614.735 6.21602 614.735 6.61797L614.735 6.61797L614.735 7.77617C 614.735 8.36406 614.441 8.69414 613.973 8.69414C 613.805 8.69414 613.649 8.621881 613.523 8.53789C 613.373 8.44805 613.199 8.33398 613.025 8.20195C 612.905 8.51406 612.647 8.69414 612.359 8.69414C 612.167 8.69414 612.023 8.628131 611.867 8.53203C 611.687 8.417971 611.555 8.310161 611.429 8.226171L611.429 8.226171L611.429 8.712111C 611.165 8.59219 610.859 8.51406 610.595 8.466021L610.595 8.466021L610.595 8.328131C 610.9431 8.273829 610.961 8.24414 610.961 7.86016L610.961 7.86016L610.961 6.61797C 610.961 6.22813 610.907 6.19219 610.511 6.15586L610.511 6.15586L610.511 6L610.511 6L611.777 6L611.777 6L611.777 6.15586C 611.483 6.19219 611.435 6.22813 611.435 6.61797L611.435 6.61797L611.435 8.028131C 611.615 8.17813 611.8491 8.33984 612.0891 8.33984C 612.455 8.33984 612.611 8.09414 612.611 7.65L612.611 7.65L612.611 6.61797C 612.611 6.22188 612.557 6.19219 612.185 6.15586L612.185 6.15586L612.185 6L612.185 6L613.469 6L613.469 6L613.469 6.15586C 613.139 6.19219 613.085 6.22813 613.085 6.60586L613.085 6.60586L613.085 7.77617C 613.085 7.88984 613.079 7.95586 613.067 8.028131C 613.295 8.21992 613.523 8.33984 613.739 8.33984C 614.117 8.33984 614.267 8.069921 614.267 7.64414L614.267 7.64414L614.267 6.64219C 614.267 6.21602 614.201 6.19219 613.847 6.15586L613.847 6.15586L613.847 6z" stroke="#000000" stroke-width="0.4" fill="none" /><path id="1407" transform="matrix(1 0 0 -1 0 834)" d="M615.947 5.92813C 616.139 5.92813 616.283 6.06602 616.283 6.27617C 616.283 6.46797 616.139 6.61797 615.947 6.61797C 615.755 6.61797 615.611 6.46797 615.611 6.27617C 615.611 6.06602 615.755 5.92813 615.947 5.92813z" stroke="#000000" stroke-width="0.4" fill="none" /></g></g></svg>