<svg xmlns="http://www.w3.org/2000/svg" xmlns:xlink="http://www.w3.org/1999/xlink" id="body_1" preserveAspectRatio="xMinYMin meet" viewBox="0 0 872 1112"><defs><clipPath id="1"><path id="" clip-rule="evenodd" transform="matrix(1 0 0 1 0 0)" d="M0 834L0 0L0 0L654 0L654 0L654 834L654 834L0 834z" /></clipPath><clipPath id="2"><path id="" clip-rule="evenodd" transform="matrix(1 0 0 1 0 0)" d="M21 813L633 813L633 813L633 21L633 21L21 21z" /></clipPath><clipPath id="3"><path id="" clip-rule="evenodd" transform="matrix(1 0 0 1 0 0)" d="M139.573 266.264L311.42 266.264L311.42 266.264L311.42 136.349L311.42 136.349L139.573 136.349z" /></clipPath><clipPath id="4"><path id="" clip-rule="evenodd" transform="matrix(1 0 0 1 0 0)" d="M225.289 225.438L225.289 248.245C 232.258 257.989 247.886 264.779 266.047 264.779L266.047 264.779L266.047 264.779C 288.843 264.779 307.648 254.081 310.347 240.267L310.347 240.267L310.347 240.267L310.347 240.267L310.347 233.415C 307.648 219.602 288.843 208.904 266.047 208.904L266.047 208.904L266.047 208.904C 247.886 208.904 232.258 215.694 225.289 225.438" /></clipPath><clipPath id="5"><path id="" clip-rule="evenodd" transform="matrix(1 0 0 1 0 0)" d="M225.289 225.438L225.289 248.245C 232.258 257.989 247.886 264.779 266.047 264.779L266.047 264.779L266.047 264.779C 288.843 264.779 307.648 254.081 310.347 240.267L310.347 240.267L310.347 240.267L310.347 240.267L310.347 233.415C 307.648 219.602 288.843 208.904 266.047 208.904L266.047 208.904L266.047 208.904C 247.886 208.904 232.258 215.694 225.289 225.438" /></clipPath><clipPath id="6"><path id="" clip-rule="evenodd" transform="matrix(1 0 0 1 0 0)" d="M139.573 266.264L311.42 266.264L311.42 266.264L311.42 136.349L311.42 136.349L139.573 136.349z" /></clipPath><clipPath id="7"><path id="" clip-rule="evenodd" transform="matrix(1 0 0 1 0 0)" d="M139.916 266.264L226.348 266.264L226.348 266.264L226.348 136.349L226.348 136.349L139.916 136.349z" /></clipPath><clipPath id="8"><path id="" clip-rule="evenodd" transform="matrix(1 0 0 1 0 0)" d="M139.916 266.264L226.348 266.264L226.348 266.264L226.348 136.349L226.348 136.349L139.916 136.349z" /></clipPath><clipPath id="9"><path id="" clip-rule="evenodd" transform="matrix(1 0 0 1 0 0)" d="M275.795 232.037L277.7469 232.037L277.7469 232.037L277.7469 230.2667L277.7469 230.2667L275.795 230.2667z" /></clipPath><clipPath id="10"><path id="" clip-rule="evenodd" transform="matrix(1 0 0 1 0 0)" d="M275.795 232.037L277.747 232.037L277.747 232.037L277.747 230.267L277.747 230.267L275.795 230.267z" /></clipPath><clipPath id="11"><path id="" clip-rule="evenodd" transform="matrix(1 0 0 1 0 0)" d="M275.795 232.037L277.7469 232.037L277.7469 232.037L277.7469 230.2671L277.7469 230.2671L275.795 230.2671z" /></clipPath><clipPath id="12"><path id="" clip-rule="evenodd" transform="matrix(1 0 0 1 0 0)" d="M278.366 231.949L283.8058 231.949L283.8058 231.949L283.8058 230.5342L283.8058 230.5342L278.366 230.5342z" /></clipPath><clipPath id="13"><path id="" clip-rule="evenodd" transform="matrix(1 0 0 1 0 0)" d="M278.366 231.949L283.806 231.949L283.806 231.949L283.806 230.534L283.806 230.534L278.366 230.534z" /></clipPath><clipPath id="14"><path id="" clip-rule="evenodd" transform="matrix(1 0 0 1 0 0)" d="M278.366 231.949L283.8058 231.949L283.8058 231.949L283.8058 230.5345L283.8058 230.5345L278.366 230.5345z" /></clipPath><clipPath id="15"><path id="" clip-rule="evenodd" transform="matrix(1 0 0 1 0 0)" d="M277.237 237.584L280.073 237.584L280.073 237.584L280.073 232.216L280.073 232.216L277.237 232.216z" /></clipPath><clipPath id="16"><path id="" clip-rule="evenodd" transform="matrix(1 0 0 1 0 0)" d="M277.237 237.584L280.073 237.584L280.073 237.584L280.073 232.216L280.073 232.216L277.237 232.216z" /></clipPath><clipPath id="17"><path id="" clip-rule="evenodd" transform="matrix(1 0 0 1 0 0)" d="M277.237 237.584L280.073 237.584L280.073 237.584L280.073 232.216L280.073 232.216L277.237 232.216z" /></clipPath><clipPath id="18"><path id="" clip-rule="evenodd" transform="matrix(1 0 0 1 0 0)" d="M278.086 235.815L282.7161 235.815L282.7161 235.815L282.7161 231.531L282.7161 231.531L278.086 231.531z" /></clipPath><clipPath id="19"><path id="" clip-rule="evenodd" transform="matrix(1 0 0 1 0 0)" d="M278.086 235.815L282.716 235.815L282.716 235.815L282.716 231.531L282.716 231.531L278.086 231.531z" /></clipPath><clipPath id="20"><path id="" clip-rule="evenodd" transform="matrix(1 0 0 1 0 0)" d="M278.086 235.815L282.7161 235.815L282.7161 235.815L282.7161 231.531L282.7161 231.531L278.086 231.531z" /></clipPath><clipPath id="21"><path id="" clip-rule="evenodd" transform="matrix(1 0 0 1 0 0)" d="M274.576 239.089L276.5787 239.089L276.5787 239.089L276.5787 232.457L276.5787 232.457L274.576 232.457z" /></clipPath><clipPath id="22"><path id="" clip-rule="evenodd" transform="matrix(1 0 0 1 0 0)" d="M274.576 239.089L276.579 239.089L276.579 239.089L276.579 232.457L276.579 232.457L274.576 232.457z" /></clipPath><clipPath id="23"><path id="" clip-rule="evenodd" transform="matrix(1 0 0 1 0 0)" d="M274.576 239.089L276.5787 239.089L276.5787 239.089L276.5787 232.457L276.5787 232.457L274.576 232.457z" /></clipPath><clipPath id="24"><path id="" clip-rule="evenodd" transform="matrix(1 0 0 1 0 0)" d="M271.453 236.06L275.7569 236.06L275.7569 236.06L275.7569 231.8326L275.7569 231.8326L271.453 231.8326z" /></clipPath><clipPath id="25"><path id="" clip-rule="evenodd" transform="matrix(1 0 0 1 0 0)" d="M271.453 236.06L275.757 236.06L275.757 236.06L275.757 231.833L275.757 231.833L271.453 231.833z" /></clipPath><clipPath id="26"><path id="" clip-rule="evenodd" transform="matrix(1 0 0 1 0 0)" d="M271.453 236.06L275.7569 236.06L275.7569 236.06L275.7569 231.8326L275.7569 231.8326L271.453 231.8326z" /></clipPath><clipPath id="27"><path id="" clip-rule="evenodd" transform="matrix(1 0 0 1 0 0)" d="M235.246 233.306L237.253 233.306L237.253 233.306L237.253 231.4861L237.253 231.4861L235.246 231.4861z" /></clipPath><clipPath id="28"><path id="" clip-rule="evenodd" transform="matrix(1 0 0 1 0 0)" d="M235.246 233.306L237.253 233.306L237.253 233.306L237.253 231.486L237.253 231.486L235.246 231.486z" /></clipPath><clipPath id="29"><path id="" clip-rule="evenodd" transform="matrix(1 0 0 1 0 0)" d="M235.246 233.306L237.253 233.306L237.253 233.306L237.253 231.4872L237.253 231.4872L235.246 231.4872z" /></clipPath><clipPath id="30"><path id="" clip-rule="evenodd" transform="matrix(1 0 0 1 0 0)" d="M237.631 231.8799L242.9021 231.8799L242.9021 231.8799L242.9021 229.7839L242.9021 229.7839L237.631 229.7839z" /></clipPath><clipPath id="31"><path id="" clip-rule="evenodd" transform="matrix(1 0 0 1 0 0)" d="M237.631 231.8799L242.902 231.8799L242.902 231.8799L242.902 229.784L242.902 229.784L237.631 229.784z" /></clipPath><clipPath id="32"><path id="" clip-rule="evenodd" transform="matrix(1 0 0 1 0 0)" d="M237.631 231.8799L242.9021 231.8799L242.9021 231.8799L242.9021 229.7839L242.9021 229.7839L237.631 229.7839z" /></clipPath><clipPath id="33"><path id="" clip-rule="evenodd" transform="matrix(1 0 0 1 0 0)" d="M237.264 237.116L242.3808 237.116L242.3808 237.116L242.3808 233.0578L242.3808 233.0578L237.264 233.0578z" /></clipPath><clipPath id="34"><path id="" clip-rule="evenodd" transform="matrix(1 0 0 1 0 0)" d="M237.264 237.116L242.381 237.116L242.381 237.116L242.381 233.058L242.381 233.058L237.264 233.058z" /></clipPath><clipPath id="35"><path id="" clip-rule="evenodd" transform="matrix(1 0 0 1 0 0)" d="M237.264 237.116L242.3808 237.116L242.3808 237.116L242.3808 233.0578L242.3808 233.0578L237.264 233.0578z" /></clipPath><clipPath id="36"><path id="" clip-rule="evenodd" transform="matrix(1 0 0 1 0 0)" d="M237.782 234.498L244.0109 234.498L244.0109 234.498L244.0109 232.1199L244.0109 232.1199L237.782 232.1199z" /></clipPath><clipPath id="37"><path id="" clip-rule="evenodd" transform="matrix(1 0 0 1 0 0)" d="M237.782 234.498L244.011 234.498L244.011 234.498L244.011 232.12L244.011 232.12L237.782 232.12z" /></clipPath><clipPath id="38"><path id="" clip-rule="evenodd" transform="matrix(1 0 0 1 0 0)" d="M237.782 234.498L244.0109 234.498L244.0109 234.498L244.0109 232.1199L244.0109 232.1199L237.782 232.1199z" /></clipPath><clipPath id="39"><path id="" clip-rule="evenodd" transform="matrix(1 0 0 1 0 0)" d="M236.302 240.497L238.677 240.497L238.677 240.497L238.677 233.7552L238.677 233.7552L236.302 233.7552z" /></clipPath><clipPath id="40"><path id="" clip-rule="evenodd" transform="matrix(1 0 0 1 0 0)" d="M236.302 240.497L238.677 240.497L238.677 240.497L238.677 233.7549L238.677 233.7549L236.302 233.7549z" /></clipPath><clipPath id="41"><path id="" clip-rule="evenodd" transform="matrix(1 0 0 1 0 0)" d="M236.302 240.497L238.677 240.497L238.677 240.497L238.677 233.7552L238.677 233.7552L236.302 233.7552z" /></clipPath><clipPath id="42"><path id="" clip-rule="evenodd" transform="matrix(1 0 0 1 0 0)" d="M233.429 239.05L235.7482 239.05L235.7482 239.05L235.7482 233.548L235.7482 233.548L233.429 233.548z" /></clipPath><clipPath id="43"><path id="" clip-rule="evenodd" transform="matrix(1 0 0 1 0 0)" d="M233.429 239.05L235.748 239.05L235.748 239.05L235.748 233.548L235.748 233.548L233.429 233.548z" /></clipPath><clipPath id="44"><path id="" clip-rule="evenodd" transform="matrix(1 0 0 1 0 0)" d="M233.429 239.05L235.7482 239.05L235.7482 239.05L235.7482 233.548L235.7482 233.548L233.429 233.548z" /></clipPath><clipPath id="45"><path id="" clip-rule="evenodd" transform="matrix(1 0 0 1 0 0)" d="M139.573 266.264L311.42 266.264L311.42 266.264L311.42 136.349L311.42 136.349L139.573 136.349z" /></clipPath><clipPath id="46"><path id="" clip-rule="evenodd" transform="matrix(1 0 0 1 0 0)" d="M247 487.121L338.9051 487.121L338.9051 487.121L338.9051 351.965L338.9051 351.965L247 351.965z" /></clipPath><clipPath id="47"><path id="" clip-rule="evenodd" transform="matrix(1 0 0 1 0 0)" d="M247 487.121L338.9051 487.121L338.9051 487.121L338.9051 351.965L338.9051 351.965L247 351.965z" /></clipPath><clipPath id="48"><path id="" clip-rule="evenodd" transform="matrix(1 0 0 1 0 0)" d="M178.478 392.354L178.478 423.51C 183.804 432.001 193.352 437.661 204.246 437.661L204.246 437.661L204.246 437.661C 220.952 437.661 234.494 424.351 234.494 407.932L234.494 407.932L234.494 407.932C 234.494 391.513 220.952 378.204 204.246 378.204L204.246 378.204L204.246 378.204C 193.352 378.204 183.804 383.862 178.478 392.354" /></clipPath><clipPath id="49"><path id="" clip-rule="evenodd" transform="matrix(1 0 0 1 0 0)" d="M178.478 392.354L178.478 423.51C 183.804 432.001 193.352 437.661 204.246 437.661L204.246 437.661L204.246 437.661C 220.952 437.661 234.494 424.351 234.494 407.932L234.494 407.932L234.494 407.932C 234.494 391.513 220.952 378.204 204.246 378.204L204.246 378.204L204.246 378.204C 193.352 378.204 183.804 383.862 178.478 392.354" /></clipPath><clipPath id="50"><path id="" clip-rule="evenodd" transform="matrix(1 0 0 1 0 0)" d="M173.246 487.121L338.905 487.121L338.905 487.121L338.905 350.311L338.905 350.311L173.246 350.311z" /></clipPath><clipPath id="51"><path id="" clip-rule="evenodd" transform="matrix(1 0 0 1 0 0)" d="M354.214 168.125L391.0011 168.125L391.0011 168.125L391.0011 114.409L391.0011 114.409L354.214 114.409z" /></clipPath><clipPath id="52"><path id="" clip-rule="evenodd" transform="matrix(1 0 0 1 0 0)" d="M354.214 168.125L391.0011 168.125L391.0011 168.125L391.0011 114.409L391.0011 114.409L354.214 114.409z" /></clipPath><clipPath id="53"><path id="" clip-rule="evenodd" transform="matrix(1 0 0 1 0 0)" d="M352.796 376.968L395.1718 376.968L395.1718 376.968L395.1718 342.3032L395.1718 342.3032L352.796 342.3032z" /></clipPath><clipPath id="54"><path id="" clip-rule="evenodd" transform="matrix(1 0 0 1 0 0)" d="M352.796 376.968L395.1718 376.968L395.1718 376.968L395.1718 342.3032L395.1718 342.3032L352.796 342.3032z" /></clipPath><clipPath id="55"><path id="" clip-rule="evenodd" transform="matrix(1 0 0 1 0 0)" d="M238.592 705.635L326.9994 705.635L326.9994 705.635L326.9994 561.85L326.9994 561.85L238.592 561.85z" /></clipPath><clipPath id="56"><path id="" clip-rule="evenodd" transform="matrix(1 0 0 1 0 0)" d="M238.592 705.635L326.9994 705.635L326.9994 705.635L326.9994 561.85L326.9994 561.85L238.592 561.85z" /></clipPath><clipPath id="57"><path id="" clip-rule="evenodd" transform="matrix(1 0 0 1 0 0)" d="M168.057 705.636L327 705.636L327 705.636L327 561.85L327 561.85L168.057 561.85z" /></clipPath><clipPath id="58"><path id="" clip-rule="evenodd" transform="matrix(1 0 0 1 0 0)" d="M168.954 638.256L168.954 645.992C 170.899 661.563 184.44 673.62 200.854 673.62L200.854 673.62L200.854 673.62C 218.604 673.62 232.993 659.519 232.993 642.124L232.993 642.124L232.993 642.124C 232.993 624.729 218.604 610.628 200.854 610.628L200.854 610.628L200.854 610.628C 184.44 610.628 170.899 622.685 168.954 638.256" /></clipPath><clipPath id="59"><path id="" clip-rule="evenodd" transform="matrix(1 0 0 1 0 0)" d="M168.954 638.256L168.954 645.992C 170.899 661.563 184.44 673.62 200.854 673.62L200.854 673.62L200.854 673.62C 218.604 673.62 232.993 659.519 232.993 642.124L232.993 642.124L232.993 642.124C 232.993 624.729 218.604 610.628 200.854 610.628L200.854 610.628L200.854 610.628C 184.44 610.628 170.899 622.685 168.954 638.256" /></clipPath><clipPath id="60"><path id="" clip-rule="evenodd" transform="matrix(1 0 0 1 0 0)" d="M168.057 705.636L327 705.636L327 705.636L327 561.85L327 561.85L168.057 561.85z" /></clipPath><clipPath id="61"><path id="" clip-rule="evenodd" transform="matrix(1 0 0 1 0 0)" d="M352.796 600.189L395.1718 600.189L395.1718 600.189L395.1718 565.5238L395.1718 565.5238L352.796 565.5238z" /></clipPath><clipPath id="62"><path id="" clip-rule="evenodd" transform="matrix(1 0 0 1 0 0)" d="M352.796 600.189L395.1718 600.189L395.1718 600.189L395.1718 565.5238L395.1718 565.5238L352.796 565.5238z" /></clipPath><clipPath id="63"><path id="" clip-rule="evenodd" transform="matrix(1 0 0 1 0 0)" d="M108.896 188.386L128.5058 188.386L128.5058 188.386L128.5058 155.5981L128.5058 155.5981L108.896 155.5981z" /></clipPath><clipPath id="64"><path id="" clip-rule="evenodd" transform="matrix(1 0 0 1 0 0)" d="M108.896 188.386L128.5058 188.386L128.5058 188.386L128.5058 155.5981L128.5058 155.5981L108.896 155.5981z" /></clipPath><clipPath id="65"><path id="" clip-rule="evenodd" transform="matrix(1 0 0 1 0 0)" d="M141 416.145L164.1262 416.145L164.1262 416.145L164.1262 390.2122L164.1262 390.2122L141 390.2122z" /></clipPath><clipPath id="66"><path id="" clip-rule="evenodd" transform="matrix(1 0 0 1 0 0)" d="M141 416.145L164.1262 416.145L164.1262 416.145L164.1262 390.2122L164.1262 390.2122L141 390.2122z" /></clipPath><clipPath id="67"><path id="" clip-rule="evenodd" transform="matrix(1 0 0 1 0 0)" d="M107.173 232.64L132.7699 232.64L132.7699 232.64L132.7699 196.781L132.7699 196.781L107.173 196.781z" /></clipPath><clipPath id="68"><path id="" clip-rule="evenodd" transform="matrix(1 0 0 1 0 0)" d="M107.173 232.64L132.7699 232.64L132.7699 232.64L132.7699 196.781L132.7699 196.781L107.173 196.781z" /></clipPath><clipPath id="69"><path id="" clip-rule="evenodd" transform="matrix(1 0 0 1 0 0)" d="M141 452.359L166.5969 452.359L166.5969 452.359L166.5969 416.5L166.5969 416.5L141 416.5z" /></clipPath><clipPath id="70"><path id="" clip-rule="evenodd" transform="matrix(1 0 0 1 0 0)" d="M141 452.359L166.5969 452.359L166.5969 452.359L166.5969 416.5L166.5969 416.5L141 416.5z" /></clipPath><clipPath id="71"><path id="" clip-rule="evenodd" transform="matrix(1 0 0 1 0 0)" d="M314.202 228.26L339.7993 228.26L339.7993 228.26L339.7993 192.4022L339.7993 192.4022L314.202 192.4022z" /></clipPath><clipPath id="72"><path id="" clip-rule="evenodd" transform="matrix(1 0 0 1 0 0)" d="M314.202 228.26L339.7993 228.26L339.7993 228.26L339.7993 192.4022L339.7993 192.4022L314.202 192.4022z" /></clipPath><clipPath id="73"><path id="" clip-rule="evenodd" transform="matrix(1 0 0 1 0 0)" d="M136.653 672.827L162.2499 672.827L162.2499 672.827L162.2499 636.968L162.2499 636.968L136.653 636.968z" /></clipPath><clipPath id="74"><path id="" clip-rule="evenodd" transform="matrix(1 0 0 1 0 0)" d="M136.653 672.827L162.2499 672.827L162.2499 672.827L162.2499 636.968L162.2499 636.968L136.653 636.968z" /></clipPath><clipPath id="75"><path id="" clip-rule="evenodd" transform="matrix(1 0 0 1 0 0)" d="M235.667 188.386L255.2768 188.386L255.2768 188.386L255.2768 155.5981L255.2768 155.5981L235.667 155.5981z" /></clipPath><clipPath id="76"><path id="" clip-rule="evenodd" transform="matrix(1 0 0 1 0 0)" d="M235.667 188.386L255.2768 188.386L255.2768 188.386L255.2768 155.5981L255.2768 155.5981L235.667 155.5981z" /></clipPath><clipPath id="77"><path id="" clip-rule="evenodd" transform="matrix(1 0 0 1 0 0)" d="M136.653 634.914L159.7788 634.914L159.7788 634.914L159.7788 608.9808L159.7788 608.9808L136.653 608.9808z" /></clipPath><clipPath id="78"><path id="" clip-rule="evenodd" transform="matrix(1 0 0 1 0 0)" d="M136.653 634.914L159.7788 634.914L159.7788 634.914L159.7788 608.9808L159.7788 608.9808L136.653 608.9808z" /></clipPath></defs><g transform="matrix(1.333333 0 0 1.333333 0 0)"><g clip-path="url(#1)"><g clip-path="url(#2)"><path id="1" transform="matrix(1 0 0 -1 0 834)" d="M91.866 67.4211L562.134 67.4211L562.134 74.92501L91.866 74.92501z" stroke="none" fill="#686868" fill-rule="nonzero" /><path id="2" transform="matrix(1 0 0 -1 0 834)" d="M93.118 525.472L563.386 525.472" stroke="#686868" stroke-width="1" fill="none" /><path id="3" transform="matrix(1 0 0 -1 0 834)" d="M93.118 305.504L563.386 305.504" stroke="#686868" stroke-width="1" fill="none" /></g><g clip-path="url(#3)"><path id="7" transform="matrix(1 0 0 -1 0 834)" d="M310.68 597.159C 310.68 581.729 290.697 569.221 266.046 569.221C 241.396 569.221 221.413 581.729 221.413 597.159C 221.413 612.588 241.396 625.096 266.046 625.096C 290.697 625.096 310.68 612.588 310.68 597.159" stroke="none" fill="#FFFFFF" fill-rule="nonzero" /></g><g clip-path="url(#4)"></g><g clip-path="url(#5)"><g transform="matrix(1.000692 0 0 0.998341 225.289 154.357)"><g transform="matrix(1 0 0 1 0 0)"><image x="0" y="0" xlink:href="img_01.png" width="85" height="132" /></g></g></g><g clip-path="url(#6)"><path id="9" transform="matrix(1 0 0 -1 0 834)" d="M310.6802 597.159C 310.6802 581.7299 290.6967 569.2216 266.0464 569.2216C 241.3962 569.2216 221.4137 581.7299 221.4137 597.159C 221.4137 612.5891 241.3962 625.0963 266.0464 625.0963C 290.6967 625.0963 310.6802 612.5891 310.6802 597.159z" stroke="#000000" stroke-width="0.8223605" fill="none" /></g><g clip-path="url(#7)"></g><g clip-path="url(#8)"><g transform="matrix(1.005023 0 0 0.9993462 139.916 136.349)"><g transform="matrix(1 0 0 1 0 0)"><image x="0" y="0" xlink:href="img_02.png" width="86" height="130" /></g></g></g><path id="11" transform="matrix(1 0 0 -1 0 834)" d="M165.623 600.6152L177.5322 592.5046" stroke="#FFFFFF" stroke-width="0.8223605" fill="none" /><path id="12" transform="matrix(1 0 0 -1 0 834)" d="M175.694 592.03L177.126 592.781L177.523 594.236L179.495 591.168z" stroke="none" fill="#FFFFFF" fill-rule="nonzero" /><path id="13" transform="matrix(1 0 0 -1 0 834)" d="M160.5283 604.0839L165.623 600.6152" stroke="#000000" stroke-width="0.8223605" fill="none" /><path id="14" transform="matrix(1 0 0 -1 0 834)" d="M182.5734 624.8719L205.5828 610.5552" stroke="#FFFFFF" stroke-width="0.8223605" fill="none" /><path id="15" transform="matrix(1 0 0 -1 0 834)" d="M203.768 610.009L205.163 610.814L205.491 612.284L207.605 609.295z" stroke="none" fill="#FFFFFF" fill-rule="nonzero" /><g clip-path="url(#9)"><g><g clip-path="url(#10)"><g clip-path="url(#11)"><path id="16" transform="matrix(1 0 0 -1 0 834)" d="M277.744 602.923C 277.698 603.41 277.226 603.771 276.688 603.729C 276.151 603.688 275.753 603.259 275.798 602.772C 275.844 602.286 276.317 601.924 276.854 601.966C 277.391 602.007 277.79 602.436 277.744 602.923" stroke="none" fill="#FFFFFF" fill-rule="nonzero" fill-opacity="0.8" /></g></g></g></g><g clip-path="url(#12)"><g><g clip-path="url(#13)"><g clip-path="url(#14)"><path id="17" transform="matrix(1 0 0 -1 0 834)" d="M282.188 602.556L278.367 602.735L278.389 603.118L282.21 602.938L281.997 603.466L283.807 602.6721L283.807 602.671L281.916 602.051" stroke="none" fill="#FFFFFF" fill-rule="nonzero" fill-opacity="0.8" /></g></g></g></g><g clip-path="url(#15)"><g><g clip-path="url(#16)"><g clip-path="url(#17)"><path id="18" transform="matrix(1 0 0 -1 0 834)" d="M280.073 596.416L278.596 597.654L279.216 597.667L277.238 601.625L277.238 601.626L277.622 601.784L279.601 597.825L280.021 598.239" stroke="none" fill="#FFFFFF" fill-rule="nonzero" fill-opacity="0.8" /></g></g></g></g><g clip-path="url(#18)"><g><g clip-path="url(#19)"><g clip-path="url(#20)"><path id="19" transform="matrix(1 0 0 -1 0 834)" d="M282.716 598.186L280.861 598.8911L281.439 599.096L278.086 602.202L278.086 602.203L278.388 602.47L281.741 599.363L281.979 599.882" stroke="none" fill="#FFFFFF" fill-rule="nonzero" fill-opacity="0.8" /></g></g></g></g><g clip-path="url(#21)"><g><g clip-path="url(#22)"><g clip-path="url(#23)"><path id="20" transform="matrix(1 0 0 -1 0 834)" d="M275.001 594.911L274.576 596.69L274.576 596.6931L275.092 596.381L276.165 601.544L276.579 601.473L276.579 601.471L275.507 596.31L276.113 596.43" stroke="none" fill="#FFFFFF" fill-rule="nonzero" fill-opacity="0.8" /></g></g></g></g><g clip-path="url(#24)"><g><g clip-path="url(#25)"><g clip-path="url(#26)"><path id="21" transform="matrix(1 0 0 -1 0 834)" d="M271.453 597.941L272.13 599.657L272.386 599.145L275.446 602.168L275.757 601.909L272.697 598.886L273.282 598.699L271.453 597.94" stroke="none" fill="#FFFFFF" fill-rule="nonzero" fill-opacity="0.8" /></g></g></g></g><g clip-path="url(#27)"><g><g clip-path="url(#28)"><g clip-path="url(#29)"><path id="22" transform="matrix(1 0 0 -1 0 834)" d="M237.123 602.052C 236.849 602.489 236.237 602.642 235.755 602.394C 235.273 602.146 235.104 601.591 235.377 601.154C 235.651 600.717 236.264 600.564 236.746 600.812C 237.228 601.06 237.396 601.616 237.123 602.052" stroke="none" fill="#FFFFFF" fill-rule="nonzero" fill-opacity="0.8" /></g></g></g></g><g clip-path="url(#30)"><g><g clip-path="url(#31)"><g clip-path="url(#32)"><path id="23" transform="matrix(1 0 0 -1 0 834)" d="M237.792 602.119L237.632 602.485L241.284 603.805L240.835 604.216L242.902 604.179L241.431 602.863L241.445 603.44" stroke="none" fill="#FFFFFF" fill-rule="nonzero" fill-opacity="0.8" /></g></g></g></g><g clip-path="url(#33)"><g><g clip-path="url(#34)"><g clip-path="url(#35)"><path id="24" transform="matrix(1 0 0 -1 0 834)" d="M240.416 597.4641L240.988 597.718L237.264 600.643L237.264 600.644L237.548 600.941L241.272 598.015L241.468 598.565L242.381 596.885L242.381 596.884" stroke="none" fill="#FFFFFF" fill-rule="nonzero" fill-opacity="0.8" /></g></g></g></g><g clip-path="url(#36)"><g><g clip-path="url(#37)"><g clip-path="url(#38)"><path id="25" transform="matrix(1 0 0 -1 0 834)" d="M242.388 599.918L237.784 601.513L237.939 601.88L242.543 600.285L242.519 600.863L244.012 599.566L241.945 599.502" stroke="none" fill="#FFFFFF" fill-rule="nonzero" fill-opacity="0.8" /></g></g></g></g><g clip-path="url(#39)"><g><g clip-path="url(#40)"><g clip-path="url(#41)"><path id="26" transform="matrix(1 0 0 -1 0 834)" d="M238.361 593.502L237.119 595L237.749 594.911L236.303 600.148L236.303 600.149L236.724 600.244L238.17 595.006L238.678 595.354L238.678 595.351" stroke="none" fill="#FFFFFF" fill-rule="nonzero" fill-opacity="0.8" /></g></g></g></g><g clip-path="url(#42)"><g><g clip-path="url(#43)"><g clip-path="url(#44)"><path id="27" transform="matrix(1 0 0 -1 0 834)" d="M233.611 594.95L233.429 596.816L233.912 596.439L235.336 600.452L235.748 600.332L235.748 600.33L234.325 596.3181L234.96 596.3701" stroke="none" fill="#FFFFFF" fill-rule="nonzero" fill-opacity="0.8" /></g></g></g></g><g clip-path="url(#45)"><path id="28" transform="matrix(1 0 0 -1 0 834)" d="M294.867 588.043C 292.467 588.043 290.521 586.279 290.521 584.104C 290.521 581.928 292.467 580.164 294.867 580.164C 297.268 580.164 299.214 581.928 299.214 584.104C 299.214 586.279 297.268 588.043 294.867 588.043M294.867 580.643C 292.772 580.643 291.073 582.183 291.073 584.082C 291.073 585.981 292.772 587.52 294.867 587.52C 296.963 587.52 298.661 585.981 298.661 584.082C 298.661 582.183 296.963 580.643 294.867 580.643" stroke="none" fill="#000000" fill-rule="nonzero" /><path id="30" transform="matrix(1 0 0 -1 0 834)" d="M144.312 693.298C 141.911 693.298 139.965 691.535 139.965 689.359C 139.965 687.184 141.911 685.42 144.312 685.42C 146.712 685.42 148.658 687.184 148.658 689.359C 148.658 691.535 146.712 693.298 144.312 693.298M144.312 685.899C 142.216 685.899 140.517 687.439 140.517 689.338C 140.517 691.237 142.216 692.776 144.312 692.776C 146.407 692.776 148.106 691.237 148.106 689.338C 148.106 687.439 146.407 685.899 144.312 685.899" stroke="none" fill="#000000" fill-rule="nonzero" /></g><g clip-path="url(#46)"></g><g clip-path="url(#47)"><g transform="matrix(0.9989706 0 0 1.001156 247 351.965)"><g transform="matrix(1 0 0 1 0 0)"><image x="0" y="0" xlink:href="img_03.png" width="92" height="135" /></g></g></g><g clip-path="url(#48)"></g><g clip-path="url(#49)"><g transform="matrix(1.00201 0 0 1.003105 178.478 365.72)"><g transform="matrix(1 0 0 1 0 0)"><image x="0" y="0" xlink:href="img_04.png" width="102" height="114" /></g></g></g><g clip-path="url(#50)"><path id="34" transform="matrix(1 0 0 -1 0 834)" d="M173.9976 426.0671C 173.9976 409.6477 187.54 396.3391 204.2466 396.3391C 220.9512 396.3391 234.4946 409.6477 234.4946 426.0671C 234.4946 442.4855 220.9512 455.7961 204.2466 455.7961C 187.54 455.7961 173.9976 442.4855 173.9976 426.0671z" stroke="#000000" stroke-width="0.834637" fill="none" /><path id="35" transform="matrix(1 0 0 -1 0 834)" d="M198.537 452.829C 196.1 452.829 194.125 450.888 194.125 448.493C 194.125 446.098 196.1 444.157 198.537 444.157C 200.973 444.157 202.948 446.098 202.948 448.493C 202.948 450.888 200.973 452.829 198.537 452.829M198.537 444.684C 196.41 444.684 194.686 446.379 194.686 448.469C 194.686 450.559 196.41 452.254 198.537 452.254C 200.664 452.254 202.388 450.559 202.388 448.469C 202.388 446.379 200.664 444.684 198.537 444.684" stroke="none" fill="#000000" fill-rule="nonzero" /><path id="37" transform="matrix(1 0 0 -1 0 834)" d="M251.411 482.034C 248.975 482.034 247 480.093 247 477.698C 247 475.304 248.975 473.363 251.411 473.363C 253.847 473.363 255.822 475.304 255.822 477.698C 255.822 480.093 253.847 482.034 251.411 482.034M251.411 473.89C 249.284 473.89 247.56 475.584 247.56 477.675C 247.56 479.765 249.284 481.459 251.411 481.459C 253.538 481.459 255.262 479.765 255.262 477.675C 255.262 475.584 253.538 473.89 251.411 473.89" stroke="none" fill="#000000" fill-rule="nonzero" /><path id="39" transform="matrix(1 0 0 -1 0 834)" d="M277.1401 460.5714C 278.3556 460.5069 279.1232 460.3473 279.1474 460.1075C 279.4127 457.4804 275.0008 457.525 273.524 457.5032C 266.9748 457.409 260.6716 457.1454 254.1858 456.3096C 251.2799 455.9359 248.3325 455.6137 245.4377 455.0864" stroke="#000000" stroke-width="0.834637" fill="none" /></g><path id="40" transform="matrix(1 0 0 -1 0 834)" d="M243 454.584L246.276 456.797L245.945 455.179L246.899 453.821z" stroke="none" fill="#000000" fill-rule="nonzero" /><g clip-path="url(#51)"></g><g clip-path="url(#52)"><g transform="matrix(0.9942217 0 0 1.013319 354.214 114.4098)"><g transform="matrix(1 0 0 1 0 0)"><image x="0" y="0" xlink:href="img_05.png" width="37" height="54" /></g></g></g><g clip-path="url(#53)"></g><g clip-path="url(#54)"><g transform="matrix(1.008969 0 0 1.019562 352.797 342.3029)"><g transform="matrix(1 0 0 1 0 0)"><image x="0" y="0" xlink:href="img_06.png" width="42" height="34" /></g></g></g><g clip-path="url(#55)"></g><g clip-path="url(#56)"><g transform="matrix(1.004642 0 0 0.998507 238.592 561.851)"><g transform="matrix(1 0 0 1 0 0)"><image x="0" y="0" xlink:href="img_07.png" width="88" height="144" /></g></g></g><g clip-path="url(#57)"><path id="807" transform="matrix(1 0 0 -1 0 834)" d="M259.7523 234.1851C 260.926 233.9466 261.6452 233.6942 261.6281 233.4853C 261.421 231.1887 257.126 231.8906 255.6816 232.0964C 249.2816 233.0012 243.0887 233.7238 236.6159 233.9832C 233.621 234.104 230.5917 234.2782 227.5826 234.2485" stroke="#000000" stroke-width="0.7300508" fill="none" /></g><path id="808" transform="matrix(1 0 0 -1 0 834)" d="M225.405 234.186L228.576 235.585L228.034 234.247L228.641 232.936z" stroke="none" fill="#000000" fill-rule="nonzero" /><g clip-path="url(#58)"></g><g clip-path="url(#59)"><g transform="matrix(1.002432 0 0 1.006261 168.954 598.766)"><g transform="matrix(1 0 0 1 0 0)"><image x="0" y="0" xlink:href="img_08.png" width="111" height="115" /></g></g></g><g clip-path="url(#60)"><path id="810" transform="matrix(1 0 0 -1 0 834)" d="M168.714 191.8769C 168.714 174.4824 183.1039 160.3803 200.8533 160.3803C 218.6038 160.3803 232.9917 174.4824 232.9917 191.8769C 232.9917 209.2724 218.6038 223.3735 200.8533 223.3735C 183.1039 223.3735 168.714 209.2724 168.714 191.8769z" stroke="#000000" stroke-width="0.7300508" fill="none" /><path id="811" transform="matrix(1 0 0 -1 0 834)" d="M193.424 213.435C 191.293 213.435 189.566 211.742 189.566 209.654C 189.566 207.565 191.293 205.872 193.424 205.872C 195.555 205.872 197.283 207.565 197.283 209.654C 197.283 211.742 195.555 213.435 193.424 213.435M193.424 206.332C 191.564 206.332 190.056 207.81 190.056 209.633C 190.056 211.456 191.564 212.934 193.424 212.934C 195.285 212.934 196.793 211.456 196.793 209.633C 196.793 207.81 195.285 206.332 193.424 206.332" stroke="none" fill="#000000" fill-rule="nonzero" /><path id="813" transform="matrix(1 0 0 -1 0 834)" d="M243.62 248.102C 241.489 248.102 239.761 246.409 239.761 244.32C 239.761 242.232 241.489 240.539 243.62 240.539C 245.751 240.539 247.479 242.232 247.479 244.32C 247.479 246.409 245.751 248.102 243.62 248.102M243.62 240.998C 241.76 240.998 240.252 242.476 240.252 244.299C 240.252 246.122 241.76 247.6 243.62 247.6C 245.48 247.6 246.988 246.122 246.988 244.299C 246.988 242.476 245.48 240.998 243.62 240.998" stroke="none" fill="#000000" fill-rule="nonzero" /></g><g clip-path="url(#61)"></g><g clip-path="url(#62)"><g transform="matrix(1.008969 0 0 1.019562 352.797 565.5239)"><g transform="matrix(1 0 0 1 0 0)"><image x="0" y="0" xlink:href="img_09.png" width="42" height="34" /></g></g></g><g clip-path="url(#63)"></g><g clip-path="url(#64)"><g transform="matrix(1.0321 0 0 0.99395 108.896 155.5987)"><g transform="matrix(1 0 0 1 0 0)"><image x="0" y="0" xlink:href="img_10.png" width="19" height="34" /></g></g></g><g clip-path="url(#65)"></g><g clip-path="url(#66)"><g transform="matrix(1.005829 0 0 0.9984815 139.986 390.213)"><g transform="matrix(1 0 0 1 0 0)"><image x="0" y="0" xlink:href="img_11.png" width="24" height="27" /></g></g></g><path id="1164" transform="matrix(1 0 0 -1 0 834)" d="M107.173 601.36L132.7699 601.36L132.7699 637.2178L107.173 637.2178z" stroke="none" fill="#FFFFFF" fill-rule="nonzero" /><g clip-path="url(#67)"></g><g clip-path="url(#68)"><g transform="matrix(1.023622 0 0 0.9965578 106.154 195.7798)"><g transform="matrix(1 0 0 1 0 0)"><image x="0" y="0" xlink:href="img_12.png" width="27" height="38" /></g></g></g><path id="1166" transform="matrix(1 0 0 -1 0 834)" d="M141 381.642L166.5969 381.642L166.5969 417.4994L141 417.4994z" stroke="none" fill="#FFFFFF" fill-rule="nonzero" /><g clip-path="url(#69)"></g><g clip-path="url(#70)"><g transform="matrix(1.023622 0 0 0.9965578 139.981 415.4988)"><g transform="matrix(1 0 0 1 0 0)"><image x="0" y="0" xlink:href="img_12.png" width="27" height="38" /></g></g></g><path id="1168" transform="matrix(1 0 0 -1 0 834)" d="M314.202 605.74L339.7989 605.74L339.7989 641.5982L314.202 641.5982z" stroke="none" fill="#FFFFFF" fill-rule="nonzero" /><g clip-path="url(#71)"></g><g clip-path="url(#72)"><g transform="matrix(-1.023622 0 0 0.9965578 340.818 191.4008)"><g transform="matrix(1 0 0 1 0 0)"><image x="0" y="0" xlink:href="img_12.png" width="27" height="38" /></g></g></g><g clip-path="url(#73)"></g><g clip-path="url(#74)"><g transform="matrix(1.023622 0 0 0.9965578 135.634 635.9668)"><g transform="matrix(1 0 0 1 0 0)"><image x="0" y="0" xlink:href="img_12.png" width="27" height="38" /></g></g></g><g clip-path="url(#75)"></g><g clip-path="url(#76)"><g transform="matrix(-1.0321 0 0 0.99395 255.277 155.5987)"><g transform="matrix(1 0 0 1 0 0)"><image x="0" y="0" xlink:href="img_10.png" width="19" height="34" /></g></g></g><g clip-path="url(#77)"></g><g clip-path="url(#78)"><g transform="matrix(1.005829 0 0 0.9984815 135.639 608.98)"><g transform="matrix(1 0 0 1 0 0)"><image x="0" y="0" xlink:href="img_11.png" width="24" height="27" /></g></g></g><path id="1173" transform="matrix(1 0 0 -1 0 834)" d="M633 15L633 0M633 819L633 834M21 15L21 0M21 819L21 834M639 21L654 21M15 21L0 21M639 813L654 813M15 813L0 813" stroke="#000000" stroke-width="1.25" fill="none" /><path id="1174" transform="matrix(1 0 0 -1 0 834)" d="M633 15L633 0M633 819L633 834M21 15L21 0M21 819L21 834M639 21L654 21M15 21L0 21M639 813L654 813M15 813L0 813" stroke="#000000" stroke-width="0.25" fill="none" /><path id="1175" transform="matrix(1 0 0 -1 0 834)" d="M32.2781 9.28203C 32.2781 9.516021 32.2961 9.58203 32.3559 9.62383C 32.416 9.66602 32.5719 9.69609 32.8238 9.69609C 33.2262 9.69609 33.5738 9.62383 33.8441 9.45C 34.3238 9.167971 34.552 8.63398 34.552 8.016021C 34.552 7.05586 34.0359 6.21602 32.9141 6.21602C 32.4762 6.21602 32.2781 6.33008 32.2781 6.78594zM31.252 9.900001L31.252 9.726171C 31.7141 9.68984 31.7621 9.66602 31.7621 9.150001L31.7621 9.150001L31.7621 6.74414C 31.7621 6.23398 31.7141 6.19805 31.198 6.16211L31.198 6.16211L31.198 6L31.198 6L32.6199 6C 33.3578 6 33.952 6.15 34.402 6.49805C 34.8641 6.84609 35.1398 7.38008 35.1398 8.1C 35.1398 8.664061 34.9301 9.101951 34.6359 9.38984C 34.2641 9.74414 33.7 9.900001 32.9379 9.900001z" stroke="#000000" stroke-width="0.4" fill="none" /><path id="1176" transform="matrix(1 0 0 -1 0 834)" d="M38.3801 6.97813C 38.2898 6.70195 38.1758 6.51016 38.0738 6.38984C 37.9359 6.23398 37.732 6.20391 37.402 6.20391C 37.15 6.20391 36.9461 6.21602 36.8258 6.28203C 36.718 6.34219 36.6879 6.46211 36.6879 6.78594L36.6879 6.78594L36.6879 9.15586C 36.6879 9.66602 36.7418 9.69609 37.216 9.73203L37.216 9.73203L37.216 9.900001L37.216 9.900001L35.65 9.900001L35.65 9.900001L35.65 9.73203C 36.1359 9.69609 36.1777 9.66602 36.1777 9.15586L36.1777 9.15586L36.1777 6.75586C 36.1777 6.24609 36.1301 6.20391 35.6258 6.16797L35.6258 6.16797L35.6258 6L35.6258 6L38.3438 6C 38.398 6.18594 38.5238 6.75586 38.5598 6.94219z" stroke="#000000" stroke-width="0.4" fill="none" /><path id="1177" transform="matrix(1 0 0 -1 0 834)" d="M41.0918 9.023829C 41.0438 9.40195 41.0141 9.63594 40.9898 9.851951C 40.7617 9.92383 40.5098 9.989841 40.234 9.989841C 39.4598 9.989841 38.998 9.49805 38.998 8.921881C 38.998 8.24414 39.6039 7.94414 39.9879 7.73984C 40.4379 7.5 40.768 7.28984 40.768 6.84609C 40.768 6.40781 40.498 6.12617 40.048 6.12617C 39.4301 6.12617 39.1598 6.73203 39.0641 7.09805L39.0641 7.09805L38.8898 7.05586C 38.9258 6.767971 39.0039 6.25195 39.052 6.12617C 39.1059 6.09609 39.1961 6.05391 39.3461 6C 39.4961 5.95781 39.6879 5.91016 39.934 5.91016C 40.732 5.91016 41.266 6.41406 41.266 7.04414C 41.266 7.71602 40.6961 7.99805 40.2277 8.23789C 39.7539 8.48398 39.466 8.68789 39.466 9.12617C 39.466 9.45 39.6699 9.78594 40.132 9.78594C 40.6539 9.78594 40.8098 9.371881 40.918 8.98789z" stroke="#000000" stroke-width="0.4" fill="none" /><path id="1178" transform="matrix(1 0 0 -1 0 834)" d="M46.648 6L46.648 6.16797C 46.1258 6.21602 46.1078 6.24609 46.0898 6.88203L46.0898 6.88203L46.0301 9.05391C 46.0117 9.671881 46.0539 9.68398 46.582 9.73203L46.582 9.73203L46.582 9.900001L46.582 9.900001L45.5617 9.900001L45.5617 9.900001L44.1758 6.9L44.1758 6.9L42.8078 9.900001L42.8078 9.900001L41.8238 9.900001L41.8238 9.900001L41.8238 9.73203C 42.3699 9.67813 42.4 9.653911 42.3461 8.87383L42.3461 8.87383L42.2617 7.626171C 42.2141 7.00195 42.1777 6.73789 42.148 6.528131C 42.1059 6.27617 41.9859 6.21016 41.6379 6.16797L41.6379 6.16797L41.6379 6L41.6379 6L43.0359 6L43.0359 6L43.0359 6.16797C 42.6398 6.21016 42.4961 6.25195 42.484 6.53984C 42.4777 6.78008 42.4777 7.04414 42.502 7.53594L42.502 7.53594L42.5918 9.24609L42.5918 9.24609L42.6039 9.24609L42.6039 9.24609L43.948 6.04219L43.948 6.04219L44.068 6.04219L44.068 6.04219L45.532 9.33008L45.532 9.33008L45.5559 9.33008L45.5559 9.33008L45.5738 6.88203C 45.5801 6.24609 45.5559 6.21602 45.0699 6.16797L45.0699 6.16797L45.0699 6z" stroke="#000000" stroke-width="0.4" fill="none" /><path id="1179" transform="matrix(1 0 0 -1 0 834)" d="M51.8738 7.05586C 51.5738 6.45586 51.2496 6.12617 50.6379 6.12617C 49.7258 6.12617 49.0656 6.89414 49.0656 8.016021C 49.0656 8.92813 49.5996 9.773829 50.602 9.773829C 51.2496 9.773829 51.6098 9.516021 51.7656 8.88008L51.7656 8.88008L51.9457 8.921881C 51.9098 9.24609 51.8738 9.48594 51.8258 9.828131C 51.6578 9.85781 51.2496 9.989841 50.7637 9.989841C 49.4258 9.989841 48.4539 9.15586 48.4539 7.89609C 48.4539 6.94219 49.1078 5.91016 50.602 5.91016C 51.034 5.91016 51.5379 6.03008 51.7059 6.07188C 51.8137 6.26992 51.9637 6.71406 52.0477 6.98984z" stroke="#000000" stroke-width="0.4" fill="none" /><path id="1180" transform="matrix(1 0 0 -1 0 834)" d="M54.3398 9.773829C 55.1258 9.773829 55.7855 9.101951 55.7855 7.83594C 55.7855 6.68398 55.1855 6.12617 54.5195 6.12617C 53.6738 6.12617 53.0559 6.94805 53.0559 8.076171C 53.0559 9.19805 53.6676 9.773829 54.3398 9.773829zM54.4598 9.989841C 53.1996 9.989841 52.4438 8.98789 52.4438 7.90781C 52.4438 6.75586 53.3078 5.91016 54.3938 5.91016C 55.4918 5.91016 56.3977 6.70195 56.3977 7.99805C 56.3977 9.19805 55.4797 9.989841 54.4598 9.989841z" stroke="#000000" stroke-width="0.4" fill="none" /><path id="1181" transform="matrix(1 0 0 -1 0 834)" d="M61.8277 6L61.8277 6.16797C 61.3059 6.21602 61.2879 6.24609 61.2695 6.88203L61.2695 6.88203L61.2098 9.05391C 61.1918 9.671881 61.2336 9.68398 61.7617 9.73203L61.7617 9.73203L61.7617 9.900001L61.7617 9.900001L60.7418 9.900001L60.7418 9.900001L59.3559 6.9L59.3559 6.9L57.9879 9.900001L57.9879 9.900001L57.0035 9.900001L57.0035 9.900001L57.0035 9.73203C 57.5496 9.67813 57.5797 9.653911 57.5258 8.87383L57.5258 8.87383L57.4418 7.626171C 57.3938 7.00195 57.3578 6.73789 57.3277 6.528131C 57.2855 6.27617 57.1656 6.21016 56.8176 6.16797L56.8176 6.16797L56.8176 6L56.8176 6L58.2156 6L58.2156 6L58.2156 6.16797C 57.8195 6.21016 57.6758 6.25195 57.6637 6.53984C 57.6578 6.78008 57.6578 7.04414 57.6816 7.53594L57.6816 7.53594L57.7719 9.24609L57.7719 9.24609L57.7836 9.24609L57.7836 9.24609L59.1277 6.04219L59.1277 6.04219L59.2477 6.04219L59.2477 6.04219L60.7117 9.33008L60.7117 9.33008L60.7355 9.33008L60.7355 9.33008L60.7535 6.88203C 60.7598 6.24609 60.7355 6.21602 60.2496 6.16797L60.2496 6.16797L60.2496 6z" stroke="#000000" stroke-width="0.4" fill="none" /><path id="1182" transform="matrix(1 0 0 -1 0 834)" d="M63.8258 6L63.8258 6.16797C 63.3336 6.20391 63.2855 6.23398 63.2855 6.75L63.2855 6.75L63.2855 9.150001C 63.2855 9.66016 63.3336 9.69609 63.8258 9.73203L63.8258 9.73203L63.8258 9.900001L63.8258 9.900001L62.2355 9.900001L62.2355 9.900001L62.2355 9.73203C 62.7277 9.69609 62.7758 9.66016 62.7758 9.150001L62.7758 9.150001L62.7758 6.75C 62.7758 6.23984 62.7277 6.20391 62.2355 6.16797L62.2355 6.16797L62.2355 6z" stroke="#000000" stroke-width="0.4" fill="none" /><path id="1183" transform="matrix(1 0 0 -1 0 834)" d="M66.5074 9.023829C 66.4598 9.40195 66.4297 9.63594 66.4055 9.851951C 66.1777 9.92383 65.9258 9.989841 65.6496 9.989841C 64.8758 9.989841 64.4137 9.49805 64.4137 8.921881C 64.4137 8.24414 65.0195 7.94414 65.4035 7.73984C 65.8535 7.5 66.1836 7.28984 66.1836 6.84609C 66.1836 6.40781 65.9137 6.12617 65.46371 6.12617C 64.8457 6.12617 64.5758 6.73203 64.4797 7.09805L64.4797 7.09805L64.3055 7.05586C 64.3418 6.767971 64.4195 6.25195 64.46761 6.12617C 64.52151 6.09609 64.6117 6.05391 64.7617 6C 64.91171 5.95781 65.1035 5.91016 65.3496 5.91016C 66.1477 5.91016 66.6816 6.41406 66.6816 7.04414C 66.6816 7.71602 66.1117 7.99805 65.6438 8.23789C 65.1695 8.48398 64.8816 8.68789 64.8816 9.12617C 64.8816 9.45 65.0855 9.78594 65.5477 9.78594C 66.0695 9.78594 66.2258 9.371881 66.3336 8.98789z" stroke="#000000" stroke-width="0.4" fill="none" /><path id="1184" transform="matrix(1 0 0 -1 0 834)" d="M69.4055 7.68008L68.3016 7.68008C 68.4816 8.171881 68.6734 8.69414 68.8656 9.21016L68.8656 9.21016L68.8777 9.21016zM70.9355 6L70.9355 6.16797C 70.5457 6.20391 70.46761 6.25781 70.2758 6.77383C 69.89181 7.81797 69.4895 8.95781 69.11761 9.989841L69.11761 9.989841L68.9316 9.93594L68.9316 9.93594L67.68951 6.78594C 67.4797 6.25781 67.3957 6.22188 67.0176 6.16797L67.0176 6.16797L67.0176 6L67.0176 6L68.3195 6L68.3195 6L68.3195 6.16797C 67.8695 6.21016 67.81561 6.26992 67.9477 6.64805C 68.0258 6.9 68.1156 7.15195 68.2117 7.42188L68.2117 7.42188L69.4895 7.42188C 69.62151 7.05586 69.74181 6.73203 69.8195 6.49805C 69.8977 6.26406 69.8438 6.21602 69.4656 6.16797L69.4656 6.16797L69.4656 6z" stroke="#000000" stroke-width="0.4" fill="none" /><path id="1185" transform="matrix(1 0 0 -1 0 834)" d="M71.7273 5.92813C 71.9195 5.92813 72.06371 6.06602 72.06371 6.27617C 72.06371 6.46797 71.9195 6.61797 71.7273 6.61797C 71.5355 6.61797 71.3914 6.46797 71.3914 6.27617C 71.3914 6.06602 71.5355 5.92813 71.7273 5.92813z" stroke="#000000" stroke-width="0.4" fill="none" /><path id="1186" transform="matrix(1 0 0 -1 0 834)" d="M73.9234 6L73.9234 6.15586C 73.53951 6.19219 73.4977 6.22813 73.4977 6.63594L73.4977 6.63594L73.4977 8.70586C 73.2336 8.59805 72.9516 8.51992 72.6453 8.471881L72.6453 8.471881L72.6453 8.328131C 73.0055 8.26797 73.0234 8.24414 73.0234 7.871881L73.0234 7.871881L73.0234 6.63594C 73.0234 6.22813 72.9816 6.19219 72.6035 6.15586L72.6035 6.15586L72.6035 6zM73.2215 9.216021C 73.3953 9.216021 73.52731 9.36016 73.52731 9.52188C 73.52731 9.70195 73.3953 9.83398 73.2273 9.83398C 73.06561 9.83398 72.9215 9.70195 72.9215 9.52188C 72.9215 9.36016 73.06561 9.216021 73.2215 9.216021z" stroke="#000000" stroke-width="0.4" fill="none" /><path id="1187" transform="matrix(1 0 0 -1 0 834)" d="M77.1574 6L77.1574 6.15586C 76.8094 6.19219 76.7793 6.21602 76.7793 6.62383L76.7793 6.62383L76.7793 7.78203C 76.7793 8.36406 76.4793 8.69414 76.0055 8.69414C 75.8313 8.69414 75.67541 8.621881 75.5074 8.51406C 75.3574 8.41211 75.2254 8.32188 75.1055 8.23203L75.1055 8.23203L75.1055 8.712111C 74.8414 8.59219 74.5594 8.51992 74.27151 8.466021L74.27151 8.466021L74.27151 8.328131C 74.5953 8.26797 74.6313 8.25 74.6313 7.86602L74.6313 7.86602L74.6313 6.62383C 74.6313 6.22813 74.6016 6.19805 74.19341 6.15586L74.19341 6.15586L74.19341 6L74.19341 6L75.4953 6L75.4953 6L75.4953 6.15586C 75.1414 6.19219 75.1055 6.21602 75.1055 6.62383L75.1055 6.62383L75.1055 8.03398C 75.2855 8.18984 75.5195 8.33984 75.7594 8.33984C 76.1613 8.33984 76.3055 8.069921 76.3055 7.65586L76.3055 7.65586L76.3055 6.65391C 76.3055 6.23984 76.2633 6.19219 75.9094 6.15586L75.9094 6.15586L75.9094 6z" stroke="#000000" stroke-width="0.4" fill="none" /><path id="1188" transform="matrix(1 0 0 -1 0 834)" d="M79.4734 6.51016C 79.32931 6.40195 79.1133 6.30586 78.8973 6.30586C 78.5133 6.30586 78.0754 6.65391 78.0754 7.36797C 78.0754 8.23789 78.57931 8.471881 78.8555 8.471881C 79.0832 8.471881 79.32931 8.37617 79.4734 8.16602zM80.4035 6.30586L80.2113 6.32383C 79.9895 6.34805 79.9473 6.37813 79.9473 6.68984L79.9473 6.68984L79.9473 10.2719C 79.7254 10.1941 79.3234 10.1039 79.0113 10.0621L79.0113 10.0621L79.0113 9.917971C 79.44341 9.88789 79.4734 9.869921 79.4734 9.47383L79.4734 9.47383L79.4734 8.628131C 79.3355 8.67617 79.1613 8.69414 79.0773 8.69414C 78.2613 8.69414 77.5293 8.03984 77.5293 7.20586C 77.5293 6.36602 78.1594 5.92813 78.6395 5.92813C 78.7113 5.92813 78.87341 5.96406 79.1074 6.10195L79.1074 6.10195L79.4734 6.31797L79.4734 6.31797L79.4734 5.92813C 79.8215 6.05391 80.27151 6.13203 80.4035 6.15586z" stroke="#000000" stroke-width="0.4" fill="none" /><path id="1189" transform="matrix(1 0 0 -1 0 834)" d="M81.3813 8.24414C 81.4895 8.310161 81.6813 8.35781 81.84921 8.35781C 82.34731 8.35781 82.7676 7.96211 82.7676 7.278131C 82.7676 6.58203 82.4492 6.15586 81.9516 6.15586C 81.6336 6.16211 81.4535 6.37188 81.4176 6.49219C 81.3934 6.54609 81.3813 6.60586 81.3813 6.69609zM81.3813 8.42383L81.3813 10.2719C 81.1594 10.1941 80.7934 10.098 80.5113 10.0621L80.5113 10.0621L80.5113 9.92383C 80.8953 9.88789 80.9074 9.851951 80.9074 9.48008L80.9074 9.48008L80.9074 6.14414C 81.2375 5.98789 81.5434 5.92813 81.78951 5.92813C 82.59341 5.92813 83.2953 6.55195 83.2953 7.43398C 83.2953 8.14219 82.7555 8.69414 82.1133 8.69414C 82.0473 8.69414 81.9633 8.67617 81.86761 8.63398z" stroke="#000000" stroke-width="0.4" fill="none" /><path id="1190" transform="matrix(1 0 0 -1 0 834)" d="M89.2832 7.35L88.1012 7.35C 88.49731 8.016021 88.8871 8.58594 89.2711 9.119921L89.2711 9.119921L89.2832 9.119921zM90.3391 7.06797L90.3391 7.35L90.3391 7.35L89.7633 7.35L89.7633 7.35L89.7633 9.79219L89.7633 9.79219L89.523 9.79219C 88.90511 8.976171 88.2934 8.08789 87.723 7.23594L87.723 7.23594L87.723 7.06797L87.723 7.06797L89.2832 7.06797L89.2832 7.06797L89.2832 6.63594C 89.2832 6.23984 89.2594 6.20391 88.7371 6.16211L88.7371 6.16211L88.7371 6L88.7371 6L90.273 6L90.273 6L90.273 6.16211C 89.7871 6.20391 89.7633 6.23398 89.7633 6.63594L89.7633 6.63594L89.7633 7.06797z" stroke="#000000" stroke-width="0.4" fill="none" /><path id="1191" transform="matrix(1 0 0 -1 0 834)" d="M92.9551 6.83984C 92.77541 6.46211 92.6973 6.43789 92.373 6.43789L92.373 6.43789L91.25121 6.43789L91.25121 6.43789L92.1031 7.33203C 92.65511 7.91992 92.8953 8.273829 92.8953 8.79609C 92.8953 9.42617 92.4152 9.810161 91.8871 9.810161C 91.5391 9.810161 91.257 9.653911 91.0773 9.45586L91.0773 9.45586L90.7352 8.96992L90.7352 8.96992L90.8672 8.85C 91.023 9.08398 91.27541 9.40781 91.6832 9.40781C 92.1273 9.40781 92.391 9.11406 92.391 8.61016C 92.391 8.09414 92.0133 7.60195 91.641 7.15781C 91.341 6.81016 91.0051 6.46797 90.6691 6.13789L90.6691 6.13789L90.6691 6L90.6691 6L92.9133 6C 92.9852 6.26992 93.0453 6.53398 93.123 6.78594z" stroke="#000000" stroke-width="0.4" fill="none" /><path id="1192" transform="matrix(1 0 0 -1 0 834)" d="M94.7371 9.61211C 95.3191 9.61211 95.4754 8.86797 95.4754 8.33984C 95.4754 8.21992 95.4691 8.076171 95.4512 7.94414C 95.3254 7.84805 95.1211 7.77617 94.9113 7.77617C 94.40701 7.77617 94.107 8.214061 94.107 8.74219C 94.107 9.09609 94.27541 9.61211 94.7371 9.61211zM94.8152 9.810161C 94.041 9.810161 93.591 9.10781 93.591 8.53203C 93.591 7.90195 94.0293 7.43398 94.6652 7.43398C 94.7793 7.43398 94.8934 7.45781 95.02541 7.53008L95.02541 7.53008L95.4273 7.74609C 95.2293 6.83398 94.5754 6.23398 93.7172 6.08984L93.7172 6.08984L93.74731 5.91016C 93.8973 5.91016 94.2633 5.96992 94.5871 6.10195C 95.3973 6.42617 96.00311 7.20586 96.00311 8.310161C 96.00311 9.12617 95.5652 9.810161 94.8152 9.810161z" stroke="#000000" stroke-width="0.4" fill="none" /><path id="1211" transform="matrix(1 0 0 -1 0 834)" d="M554.472 6.83984C 554.292 6.46211 554.2141 6.43789 553.89 6.43789L553.89 6.43789L552.768 6.43789L552.768 6.43789L553.6201 7.33203C 554.1721 7.91992 554.412 8.273829 554.412 8.79609C 554.412 9.42617 553.932 9.810161 553.404 9.810161C 553.056 9.810161 552.774 9.653911 552.594 9.45586L552.594 9.45586L552.252 8.96992L552.252 8.96992L552.384 8.85C 552.54 9.08398 552.792 9.40781 553.2 9.40781C 553.644 9.40781 553.908 9.11406 553.908 8.61016C 553.908 8.09414 553.53 7.60195 553.158 7.15781C 552.858 6.81016 552.522 6.46797 552.186 6.13789L552.186 6.13789L552.186 6L552.186 6L554.43 6C 554.502 6.26992 554.562 6.53398 554.64 6.78594z" stroke="#000000" stroke-width="0.4" fill="none" /><path id="1212" transform="matrix(1 0 0 -1 0 834)" d="M555.792 9.3L557.19 9.3L557.19 9.3L557.346 9.68984L557.346 9.68984L557.31 9.73789L557.31 9.73789L555.6 9.73789L555.6 9.73789L555.366 7.90781C 555.504 7.96211 555.732 8.028131 555.984 8.028131C 556.638 8.028131 556.962 7.65 556.962 7.121881C 556.962 6.67188 556.71 6.23398 556.2 6.23398C 555.834 6.23398 555.588 6.42617 555.462 6.53984C 555.402 6.58789 555.354 6.58203 555.3 6.53984C 555.234 6.48008 555.18 6.40195 555.174 6.34219C 555.162 6.26992 555.192 6.22188 555.27 6.13789C 555.36 6.05391 555.612 5.92813 555.888 5.92813C 556.206 5.93398 556.608 6.08984 556.932 6.35391C 557.298 6.65391 557.466 6.99609 557.466 7.35586C 557.466 7.84805 557.076 8.369921 556.308 8.369921C 556.146 8.369921 555.864 8.273829 555.636 8.18984z" stroke="#000000" stroke-width="0.4" fill="none" /><path id="1213" transform="matrix(1 0 0 -1 0 834)" d="M559.548 9.989841L559.212 9.989841L559.212 9.989841L557.91 5.73594L557.91 5.73594L558.246 5.73594z" stroke="#000000" stroke-width="0.4" fill="none" /><path id="1214" transform="matrix(1 0 0 -1 0 834)" d="M561.18 9.61211C 561.72 9.61211 561.8701 8.72383 561.8701 7.871881C 561.8701 7.03203 561.726 6.13203 561.186 6.13203C 560.664 6.13203 560.49 7.03789 560.49 7.87813C 560.49 8.712111 560.634 9.61211 561.18 9.61211zM561.186 9.810161C 560.286 9.810161 559.956 8.74219 559.956 7.86602C 559.956 6.91797 560.28 5.92813 561.186 5.92813C 562.086 5.92813 562.404 6.99609 562.404 7.871881C 562.404 8.79609 562.086 9.810161 561.186 9.810161z" stroke="#000000" stroke-width="0.4" fill="none" /><path id="1215" transform="matrix(1 0 0 -1 0 834)" d="M564 9.61211C 564.582 9.61211 564.738 8.86797 564.738 8.33984C 564.738 8.21992 564.732 8.076171 564.7141 7.94414C 564.588 7.84805 564.384 7.77617 564.174 7.77617C 563.67 7.77617 563.3701 8.214061 563.3701 8.74219C 563.3701 9.09609 563.538 9.61211 564 9.61211zM564.078 9.810161C 563.304 9.810161 562.854 9.10781 562.854 8.53203C 562.854 7.90195 563.292 7.43398 563.928 7.43398C 564.042 7.43398 564.156 7.45781 564.288 7.53008L564.288 7.53008L564.69 7.74609C 564.492 6.83398 563.838 6.23398 562.98 6.08984L562.98 6.08984L563.01 5.91016C 563.16 5.91016 563.526 5.96992 563.85 6.10195C 564.66 6.42617 565.2661 7.20586 565.2661 8.310161C 565.2661 9.12617 564.828 9.810161 564.078 9.810161z" stroke="#000000" stroke-width="0.4" fill="none" /><path id="1216" transform="matrix(1 0 0 -1 0 834)" d="M567.294 9.989841L566.958 9.989841L566.958 9.989841L565.656 5.73594L565.656 5.73594L565.992 5.73594z" stroke="#000000" stroke-width="0.4" fill="none" /><path id="1217" transform="matrix(1 0 0 -1 0 834)" d="M569.9641 6.83984C 569.784 6.46211 569.706 6.43789 569.382 6.43789L569.382 6.43789L568.26 6.43789L568.26 6.43789L569.112 7.33203C 569.664 7.91992 569.904 8.273829 569.904 8.79609C 569.904 9.42617 569.424 9.810161 568.896 9.810161C 568.548 9.810161 568.2661 9.653911 568.086 9.45586L568.086 9.45586L567.744 8.96992L567.744 8.96992L567.876 8.85C 568.032 9.08398 568.284 9.40781 568.692 9.40781C 569.136 9.40781 569.4 9.11406 569.4 8.61016C 569.4 8.09414 569.022 7.60195 568.65 7.15781C 568.35 6.81016 568.014 6.46797 567.678 6.13789L567.678 6.13789L567.678 6L567.678 6L569.9221 6C 569.994 6.26992 570.054 6.53398 570.132 6.78594z" stroke="#000000" stroke-width="0.4" fill="none" /><path id="1218" transform="matrix(1 0 0 -1 0 834)" d="M571.806 9.61211C 572.346 9.61211 572.496 8.72383 572.496 7.871881C 572.496 7.03203 572.352 6.13203 571.812 6.13203C 571.29 6.13203 571.116 7.03789 571.116 7.87813C 571.116 8.712111 571.26 9.61211 571.806 9.61211zM571.812 9.810161C 570.912 9.810161 570.582 8.74219 570.582 7.86602C 570.582 6.91797 570.906 5.92813 571.812 5.92813C 572.712 5.92813 573.03 6.99609 573.03 7.871881C 573.03 8.79609 572.712 9.810161 571.812 9.810161z" stroke="#000000" stroke-width="0.4" fill="none" /><path id="1219" transform="matrix(1 0 0 -1 0 834)" d="M575.556 6L575.556 6.16211C 575.01 6.20391 574.9741 6.25195 574.9741 6.68398L574.9741 6.68398L574.9741 9.810161C 574.644 9.67813 574.29 9.56406 573.906 9.49805L573.906 9.49805L573.906 9.36016L573.906 9.36016L574.194 9.34805C 574.458 9.33594 574.482 9.305861 574.482 8.99414L574.482 8.99414L574.482 6.68398C 574.482 6.25195 574.452 6.20391 573.906 6.16211L573.906 6.16211L573.906 6z" stroke="#000000" stroke-width="0.4" fill="none" /><path id="1220" transform="matrix(1 0 0 -1 0 834)" d="M578.814 9.73789L576.522 9.73789C 576.498 9.48008 576.468 9.180079 576.414 8.85L576.414 8.85L576.588 8.85C 576.732 9.24609 576.768 9.3 577.164 9.3L577.164 9.3L578.46 9.3C 577.986 8.25586 577.308 7.01406 576.678 5.99414L576.678 5.99414L576.72 5.92813L576.72 5.92813L577.164 5.98789C 577.74 7.22383 578.298 8.44805 578.862 9.66602z" stroke="#000000" stroke-width="0.4" fill="none" /><path id="1221" transform="matrix(1 0 0 -1 0 834)" d="M584.531 9.61211C 585.071 9.61211 585.221 8.72383 585.221 7.871881C 585.221 7.03203 585.077 6.13203 584.537 6.13203C 584.015 6.13203 583.841 7.03789 583.841 7.87813C 583.841 8.712111 583.985 9.61211 584.531 9.61211zM584.537 9.810161C 583.637 9.810161 583.307 8.74219 583.307 7.86602C 583.307 6.91797 583.631 5.92813 584.537 5.92813C 585.437 5.92813 585.755 6.99609 585.755 7.871881C 585.755 8.79609 585.437 9.810161 584.537 9.810161z" stroke="#000000" stroke-width="0.4" fill="none" /><path id="1222" transform="matrix(1 0 0 -1 0 834)" d="M588.449 6.83984C 588.269 6.46211 588.191 6.43789 587.867 6.43789L587.867 6.43789L586.7451 6.43789L586.7451 6.43789L587.597 7.33203C 588.149 7.91992 588.389 8.273829 588.389 8.79609C 588.389 9.42617 587.909 9.810161 587.381 9.810161C 587.033 9.810161 586.751 9.653911 586.571 9.45586L586.571 9.45586L586.229 8.96992L586.229 8.96992L586.361 8.85C 586.517 9.08398 586.769 9.40781 587.177 9.40781C 587.621 9.40781 587.885 9.11406 587.885 8.61016C 587.885 8.09414 587.507 7.60195 587.135 7.15781C 586.835 6.81016 586.499 6.46797 586.163 6.13789L586.163 6.13789L586.163 6L586.163 6L588.407 6C 588.479 6.26992 588.539 6.53398 588.617 6.78594z" stroke="#000000" stroke-width="0.4" fill="none" /><path id="1223" transform="matrix(1 0 0 -1 0 834)" d="M589.5471 5.92813C 589.739 5.92813 589.883 6.06602 589.883 6.27617C 589.883 6.46797 589.739 6.61797 589.5471 6.61797C 589.355 6.61797 589.211 6.46797 589.211 6.27617C 589.211 6.06602 589.355 5.92813 589.5471 5.92813zM589.541 8.466021C 589.3491 8.466021 589.211 8.328131 589.211 8.13008C 589.211 7.92617 589.3491 7.78203 589.541 7.78203C 589.733 7.78203 589.877 7.92617 589.877 8.13008C 589.877 8.328131 589.733 8.466021 589.541 8.466021z" stroke="#000000" stroke-width="0.4" fill="none" /><path id="1224" transform="matrix(1 0 0 -1 0 834)" d="M591.137 9.3L592.535 9.3L592.535 9.3L592.691 9.68984L592.691 9.68984L592.655 9.73789L592.655 9.73789L590.945 9.73789L590.945 9.73789L590.711 7.90781C 590.8491 7.96211 591.077 8.028131 591.329 8.028131C 591.983 8.028131 592.307 7.65 592.307 7.121881C 592.307 6.67188 592.055 6.23398 591.545 6.23398C 591.179 6.23398 590.933 6.42617 590.807 6.53984C 590.747 6.58789 590.699 6.58203 590.645 6.53984C 590.579 6.48008 590.525 6.40195 590.519 6.34219C 590.507 6.26992 590.537 6.22188 590.615 6.13789C 590.705 6.05391 590.957 5.92813 591.233 5.92813C 591.551 5.93398 591.953 6.08984 592.277 6.35391C 592.643 6.65391 592.811 6.99609 592.811 7.35586C 592.811 7.84805 592.421 8.369921 591.653 8.369921C 591.491 8.369921 591.209 8.273829 590.981 8.18984z" stroke="#000000" stroke-width="0.4" fill="none" /><path id="1225" transform="matrix(1 0 0 -1 0 834)" d="M594.017 9.3L595.415 9.3L595.415 9.3L595.571 9.68984L595.571 9.68984L595.535 9.73789L595.535 9.73789L593.825 9.73789L593.825 9.73789L593.591 7.90781C 593.729 7.96211 593.957 8.028131 594.209 8.028131C 594.863 8.028131 595.187 7.65 595.187 7.121881C 595.187 6.67188 594.935 6.23398 594.425 6.23398C 594.059 6.23398 593.813 6.42617 593.687 6.53984C 593.627 6.58789 593.579 6.58203 593.525 6.53984C 593.459 6.48008 593.405 6.40195 593.399 6.34219C 593.387 6.26992 593.417 6.22188 593.4951 6.13789C 593.585 6.05391 593.837 5.92813 594.113 5.92813C 594.431 5.93398 594.833 6.08984 595.157 6.35391C 595.523 6.65391 595.691 6.99609 595.691 7.35586C 595.691 7.84805 595.301 8.369921 594.533 8.369921C 594.371 8.369921 594.0891 8.273829 593.861 8.18984z" stroke="#000000" stroke-width="0.4" fill="none" /><path id="1226" transform="matrix(1 0 0 -1 0 834)" d="M596.675 5.92813C 596.867 5.92813 597.011 6.06602 597.011 6.27617C 597.011 6.46797 596.867 6.61797 596.675 6.61797C 596.483 6.61797 596.3391 6.46797 596.3391 6.27617C 596.3391 6.06602 596.483 5.92813 596.675 5.92813zM596.669 8.466021C 596.477 8.466021 596.3391 8.328131 596.3391 8.13008C 596.3391 7.92617 596.477 7.78203 596.669 7.78203C 596.861 7.78203 597.005 7.92617 597.005 8.13008C 597.005 8.328131 596.861 8.466021 596.669 8.466021z" stroke="#000000" stroke-width="0.4" fill="none" /><path id="1227" transform="matrix(1 0 0 -1 0 834)" d="M599.657 6L599.657 6.16211C 599.111 6.20391 599.075 6.25195 599.075 6.68398L599.075 6.68398L599.075 9.810161C 598.7451 9.67813 598.3911 9.56406 598.007 9.49805L598.007 9.49805L598.007 9.36016L598.007 9.36016L598.295 9.34805C 598.559 9.33594 598.583 9.305861 598.583 8.99414L598.583 8.99414L598.583 6.68398C 598.583 6.25195 598.553 6.20391 598.007 6.16211L598.007 6.16211L598.007 6z" stroke="#000000" stroke-width="0.4" fill="none" /><path id="1228" transform="matrix(1 0 0 -1 0 834)" d="M601.715 6.11992C 601.337 6.11992 600.983 6.42617 600.983 6.97813C 600.983 7.30781 601.187 7.60781 601.475 7.8C 601.937 7.56602 602.363 7.30781 602.363 6.85781C 602.363 6.39609 602.081 6.11992 601.715 6.11992zM601.661 9.61797C 601.937 9.61797 602.249 9.396091 602.249 8.89219C 602.249 8.53203 602.087 8.310161 601.883 8.14805C 601.457 8.35781 601.103 8.555861 601.103 9C 601.103 9.305861 601.307 9.61797 601.661 9.61797zM601.721 9.810161C 601.079 9.810161 600.653 9.33008 600.653 8.826171C 600.653 8.40586 600.911 8.11797 601.301 7.89609C 601.097 7.76406 600.869 7.60195 600.773 7.51211C 600.6411 7.38594 600.503 7.21797 600.503 6.94219C 600.503 6.3 601.013 5.92813 601.655 5.92813C 602.165 5.92813 602.843 6.31211 602.843 7.01406C 602.843 7.53594 602.465 7.82383 602.051 8.057811C 602.321 8.24414 602.483 8.38789 602.525 8.44219C 602.639 8.57383 602.699 8.74805 602.699 8.921881C 602.699 9.40781 602.291 9.810161 601.721 9.810161z" stroke="#000000" stroke-width="0.4" fill="none" /><path id="1229" transform="matrix(1 0 0 -1 0 834)" d="M605.489 8.08203C 605.651 8.20195 605.897 8.33398 606.0891 8.33398C 606.527 8.33398 606.893 7.97383 606.893 7.33203C 606.893 6.65391 606.557 6.22188 606.053 6.22188C 605.8491 6.22188 605.621 6.31797 605.489 6.45586zM605.489 8.28008L605.489 8.75391C 605.207 8.63984 604.871 8.53789 604.619 8.49609L604.619 8.49609L604.619 8.351951C 604.991 8.30391 605.015 8.29219 605.015 7.90195L605.015 7.90195L605.015 5.18984C 605.015 4.79414 604.961 4.75781 604.577 4.72188L604.577 4.72188L604.577 4.56016L604.577 4.56016L605.999 4.56016L605.999 4.56016L605.999 4.72188C 605.531 4.76406 605.489 4.79414 605.489 5.25L605.489 5.25L605.489 6.03594C 605.567 5.99414 605.729 5.93398 605.903 5.92813C 606.683 6.07188 607.397 6.65391 607.397 7.56016C 607.397 8.153911 607.001 8.69414 606.335 8.69414C 606.263 8.69414 606.149 8.664061 606.041 8.60391z" stroke="#000000" stroke-width="0.4" fill="none" /><path id="1230" transform="matrix(1 0 0 -1 0 834)" d="M608.303 5.92813C 608.4951 5.92813 608.639 6.06602 608.639 6.27617C 608.639 6.46797 608.4951 6.61797 608.303 6.61797C 608.111 6.61797 607.967 6.46797 607.967 6.27617C 607.967 6.06602 608.111 5.92813 608.303 5.92813z" stroke="#000000" stroke-width="0.4" fill="none" /><path id="1231" transform="matrix(1 0 0 -1 0 834)" d="M615.125 6L615.125 6.15586C 614.783 6.19219 614.735 6.21602 614.735 6.61797L614.735 6.61797L614.735 7.77617C 614.735 8.36406 614.441 8.69414 613.973 8.69414C 613.805 8.69414 613.649 8.621881 613.523 8.53789C 613.373 8.44805 613.199 8.33398 613.025 8.20195C 612.905 8.51406 612.647 8.69414 612.359 8.69414C 612.167 8.69414 612.023 8.628131 611.867 8.53203C 611.687 8.417971 611.555 8.310161 611.429 8.226171L611.429 8.226171L611.429 8.712111C 611.165 8.59219 610.859 8.51406 610.595 8.466021L610.595 8.466021L610.595 8.328131C 610.9431 8.273829 610.961 8.24414 610.961 7.86016L610.961 7.86016L610.961 6.61797C 610.961 6.22813 610.907 6.19219 610.511 6.15586L610.511 6.15586L610.511 6L610.511 6L611.777 6L611.777 6L611.777 6.15586C 611.483 6.19219 611.435 6.22813 611.435 6.61797L611.435 6.61797L611.435 8.028131C 611.615 8.17813 611.8491 8.33984 612.0891 8.33984C 612.455 8.33984 612.611 8.09414 612.611 7.65L612.611 7.65L612.611 6.61797C 612.611 6.22188 612.557 6.19219 612.185 6.15586L612.185 6.15586L612.185 6L612.185 6L613.469 6L613.469 6L613.469 6.15586C 613.139 6.19219 613.085 6.22813 613.085 6.60586L613.085 6.60586L613.085 7.77617C 613.085 7.88984 613.079 7.95586 613.067 8.028131C 613.295 8.21992 613.523 8.33984 613.739 8.33984C 614.117 8.33984 614.267 8.069921 614.267 7.64414L614.267 7.64414L614.267 6.64219C 614.267 6.21602 614.201 6.19219 613.847 6.15586L613.847 6.15586L613.847 6z" stroke="#000000" stroke-width="0.4" fill="none" /><path id="1232" transform="matrix(1 0 0 -1 0 834)" d="M615.947 5.92813C 616.139 5.92813 616.283 6.06602 616.283 6.27617C 616.283 6.46797 616.139 6.61797 615.947 6.61797C 615.755 6.61797 615.611 6.46797 615.611 6.27617C 615.611 6.06602 615.755 5.92813 615.947 5.92813z" stroke="#000000" stroke-width="0.4" fill="none" /></g></g></svg>