<svg xmlns="http://www.w3.org/2000/svg" xmlns:xlink="http://www.w3.org/1999/xlink" id="body_1" preserveAspectRatio="xMinYMin meet" viewBox="0 0 872 1112"><defs><clipPath id="1"><path id="" clip-rule="evenodd" transform="matrix(1 0 0 1 0 0)" d="M0 834L0 0L0 0L654 0L654 0L654 834L654 834L0 834z" /></clipPath><clipPath id="2"><path id="" clip-rule="evenodd" transform="matrix(1 0 0 1 0 0)" d="M21 813L633 813L633 813L633 21L633 21L21 21z" /></clipPath><clipPath id="3"><path id="" clip-rule="evenodd" transform="matrix(1 0 0 1 0 0)" d="M370.116 270.3069L471.467 270.3069L471.467 270.3069L471.467 132.303L471.467 132.303L370.116 132.303z" /></clipPath><clipPath id="4"><path id="" clip-rule="evenodd" transform="matrix(1 0 0 1 0 0)" d="M370.116 270.3069L471.467 270.3069L471.467 270.3069L471.467 132.303L471.467 132.303L370.116 132.303z" /></clipPath><clipPath id="5"><path id="" clip-rule="evenodd" transform="matrix(1 0 0 1 0 0)" d="M339.189 270.3069L479.503 270.3069L479.503 270.3069L479.503 132.303L479.503 132.303L339.189 132.303z" /></clipPath><clipPath id="6"><path id="" clip-rule="evenodd" transform="matrix(1 0 0 1 0 0)" d="M341.075 188.171L341.075 204.257C 344.528 215.757 355.197 224.137 367.822 224.137L367.822 224.137L367.822 224.137C 380.092 224.137 390.515 216.219 394.261 205.216L394.261 205.216L394.261 205.216L394.261 205.216L394.261 187.211C 390.515 176.207 380.092 168.291 367.822 168.291L367.822 168.291L367.822 168.291C 355.197 168.291 344.528 176.671 341.075 188.171" /></clipPath><clipPath id="7"><path id="" clip-rule="evenodd" transform="matrix(1 0 0 1 0 0)" d="M341.075 188.171L341.075 204.257C 344.528 215.757 355.197 224.137 367.822 224.137L367.822 224.137L367.822 224.137C 380.092 224.137 390.515 216.219 394.261 205.216L394.261 205.216L394.261 205.216L394.261 205.216L394.261 187.211C 390.515 176.207 380.092 168.291 367.822 168.291L367.822 168.291L367.822 168.291C 355.197 168.291 344.528 176.671 341.075 188.171" /></clipPath><clipPath id="8"><path id="" clip-rule="evenodd" transform="matrix(1 0 0 1 0 0)" d="M339.189 270.3069L479.503 270.3069L479.503 270.3069L479.503 132.303L479.503 132.303L339.189 132.303z" /></clipPath><clipPath id="9"><path id="" clip-rule="evenodd" transform="matrix(1 0 0 1 0 0)" d="M339.189 270.3069L479.503 270.3069L479.503 270.3069L479.503 132.303L479.503 132.303L339.189 132.303z" /></clipPath><clipPath id="10"><path id="" clip-rule="evenodd" transform="matrix(1 0 0 1 0 0)" d="M401.424 246.949L429.0443 246.949L429.0443 246.949L429.0443 228.547L429.0443 228.547L401.424 228.547z" /></clipPath><clipPath id="11"><path id="" clip-rule="evenodd" transform="matrix(1 0 0 1 0 0)" d="M401.424 246.949L429.044 246.949L429.044 246.949L429.044 228.547L429.044 228.547L401.424 228.547z" /></clipPath><clipPath id="12"><path id="" clip-rule="evenodd" transform="matrix(1 0 0 1 0 0)" d="M401.424 246.949L429.0439 246.949L429.0439 246.949L429.0439 228.547L429.0439 228.547L401.424 228.547z" /></clipPath><clipPath id="13"><path id="" clip-rule="evenodd" transform="matrix(1 0 0 1 0 0)" d="M465.285 230.902L479.5049 230.902L479.5049 230.902L479.5049 220.718L479.5049 220.718L465.285 220.718z" /></clipPath><clipPath id="14"><path id="" clip-rule="evenodd" transform="matrix(1 0 0 1 0 0)" d="M465.285 230.902L479.505 230.902L479.505 230.902L479.505 220.718L479.505 220.718L465.285 220.718z" /></clipPath><clipPath id="15"><path id="" clip-rule="evenodd" transform="matrix(1 0 0 1 0 0)" d="M465.285 230.902L479.5049 230.902L479.5049 230.902L479.5049 220.718L479.5049 220.718L465.285 220.718z" /></clipPath><clipPath id="16"><path id="" clip-rule="evenodd" transform="matrix(1 0 0 1 0 0)" d="M451.962 239.071L465.9229 239.071L465.9229 239.071L465.9229 228.3948L465.9229 228.3948L451.962 228.3948z" /></clipPath><clipPath id="17"><path id="" clip-rule="evenodd" transform="matrix(1 0 0 1 0 0)" d="M451.962 239.071L465.923 239.071L465.923 239.071L465.923 228.395L465.923 228.395L451.962 228.395z" /></clipPath><clipPath id="18"><path id="" clip-rule="evenodd" transform="matrix(1 0 0 1 0 0)" d="M451.962 239.071L465.9229 239.071L465.9229 239.071L465.9229 228.3948L465.9229 228.3948L451.962 228.3948z" /></clipPath><clipPath id="19"><path id="" clip-rule="evenodd" transform="matrix(1 0 0 1 0 0)" d="M258.826 157.5L301.203 157.5L301.203 157.5L301.203 122.8352L301.203 122.8352L258.826 122.8352z" /></clipPath><clipPath id="20"><path id="" clip-rule="evenodd" transform="matrix(1 0 0 1 0 0)" d="M258.826 157.5L301.203 157.5L301.203 157.5L301.203 122.8352L301.203 122.8352L258.826 122.8352z" /></clipPath><clipPath id="21"><path id="" clip-rule="evenodd" transform="matrix(1 0 0 1 0 0)" d="M314.202 232.2549L339.7989 232.2549L339.7989 232.2549L339.7989 196.3968L339.7989 196.3968L314.202 196.3968z" /></clipPath><clipPath id="22"><path id="" clip-rule="evenodd" transform="matrix(1 0 0 1 0 0)" d="M314.202 232.2549L339.7989 232.2549L339.7989 232.2549L339.7989 196.3968L339.7989 196.3968L314.202 196.3968z" /></clipPath><clipPath id="23"><path id="" clip-rule="evenodd" transform="matrix(1 0 0 1 0 0)" d="M314.202 268.114L339.7989 268.114L339.7989 268.114L339.7989 232.255L339.7989 232.255L314.202 232.255z" /></clipPath><clipPath id="24"><path id="" clip-rule="evenodd" transform="matrix(1 0 0 1 0 0)" d="M314.202 268.114L339.7989 268.114L339.7989 268.114L339.7989 232.255L339.7989 232.255L314.202 232.255z" /></clipPath><clipPath id="25"><path id="" clip-rule="evenodd" transform="matrix(1 0 0 1 0 0)" d="M483.047 268.114L508.6443 268.114L508.6443 268.114L508.6443 232.255L508.6443 232.255L483.047 232.255z" /></clipPath><clipPath id="26"><path id="" clip-rule="evenodd" transform="matrix(1 0 0 1 0 0)" d="M483.047 268.114L508.6443 268.114L508.6443 268.114L508.6443 232.255L508.6443 232.255L483.047 232.255z" /></clipPath><clipPath id="27"><path id="" clip-rule="evenodd" transform="matrix(1 0 0 1 0 0)" d="M483.047 232.2549L508.6443 232.2549L508.6443 232.2549L508.6443 196.3968L508.6443 196.3968L483.047 196.3968z" /></clipPath><clipPath id="28"><path id="" clip-rule="evenodd" transform="matrix(1 0 0 1 0 0)" d="M483.047 232.2549L508.6443 232.2549L508.6443 232.2549L508.6443 196.3968L508.6443 196.3968L483.047 196.3968z" /></clipPath><clipPath id="29"><path id="" clip-rule="evenodd" transform="matrix(1 0 0 1 0 0)" d="M271.746 708.609L350.2101 708.609L350.2101 708.609L350.2101 601.921L350.2101 601.921L271.746 601.921z" /></clipPath><clipPath id="30"><path id="" clip-rule="evenodd" transform="matrix(1 0 0 1 0 0)" d="M271.746 708.609L350.2101 708.609L350.2101 708.609L350.2101 601.921L350.2101 601.921L271.746 601.921z" /></clipPath><clipPath id="31"><path id="" clip-rule="evenodd" transform="matrix(1 0 0 1 0 0)" d="M440.663 708.665L497.5212 708.665L497.5212 708.665L497.5212 602.318L497.5212 602.318L440.663 602.318z" /></clipPath><clipPath id="32"><path id="" clip-rule="evenodd" transform="matrix(1 0 0 1 0 0)" d="M440.663 708.665L497.5212 708.665L497.5212 708.665L497.5212 602.318L497.5212 602.318L440.663 602.318z" /></clipPath><clipPath id="33"><path id="" clip-rule="evenodd" transform="matrix(1 0 0 1 0 0)" d="M271.746 708.665L554.858 708.665L554.858 708.665L554.858 593.598L554.858 593.598L271.746 593.598z" /></clipPath><clipPath id="34"><path id="" clip-rule="evenodd" transform="matrix(1 0 0 1 0 0)" d="M501.437 641.182C 501.437 655.671 513.218 667.418 527.751 667.418L527.751 667.418L527.751 667.418C 532.993 667.418 537.875 665.891 541.976 663.257L541.976 663.257L541.976 663.257L541.976 663.257L541.976 619.108C 537.875 616.475 532.993 614.947 527.751 614.947L527.751 614.947L527.751 614.947C 513.218 614.947 501.437 626.693 501.437 641.182" /></clipPath><clipPath id="35"><path id="" clip-rule="evenodd" transform="matrix(1 0 0 1 0 0)" d="M501.437 641.182C 501.437 655.671 513.218 667.418 527.751 667.418L527.751 667.418L527.751 667.418C 532.993 667.418 537.875 665.891 541.976 663.257L541.976 663.257L541.976 663.257L541.976 663.257L541.976 619.108C 537.875 616.475 532.993 614.947 527.751 614.947L527.751 614.947L527.751 614.947C 513.218 614.947 501.437 626.693 501.437 641.182" /></clipPath><clipPath id="36"><path id="" clip-rule="evenodd" transform="matrix(1 0 0 1 0 0)" d="M271.746 708.665L554.858 708.665L554.858 708.665L554.858 593.598L554.858 593.598L271.746 593.598z" /></clipPath><clipPath id="37"><path id="" clip-rule="evenodd" transform="matrix(1 0 0 1 0 0)" d="M346.489 637.136C 346.489 654.028 360.224 667.721 377.167 667.721L377.167 667.721L377.167 667.721C 384.166 667.721 390.618 665.384 395.78 661.451L395.78 661.451L395.78 661.451L395.78 661.451L395.78 612.82C 390.618 608.887 384.166 606.549 377.167 606.549L377.167 606.549L377.167 606.549C 360.224 606.549 346.489 620.243 346.489 637.136" /></clipPath><clipPath id="38"><path id="" clip-rule="evenodd" transform="matrix(1 0 0 1 0 0)" d="M346.489 637.136C 346.489 654.028 360.224 667.721 377.167 667.721L377.167 667.721L377.167 667.721C 384.166 667.721 390.618 665.384 395.78 661.451L395.78 661.451L395.78 661.451L395.78 661.451L395.78 612.82C 390.618 608.887 384.166 606.549 377.167 606.549L377.167 606.549L377.167 606.549C 360.224 606.549 346.489 620.243 346.489 637.136" /></clipPath><clipPath id="39"><path id="" clip-rule="evenodd" transform="matrix(1 0 0 1 0 0)" d="M271.746 708.665L554.858 708.665L554.858 708.665L554.858 593.598L554.858 593.598L271.746 593.598z" /></clipPath><clipPath id="40"><path id="" clip-rule="evenodd" transform="matrix(1 0 0 1 0 0)" d="M258.826 708.827L284.4229 708.827L284.4229 708.827L284.4229 672.968L284.4229 672.968L258.826 672.968z" /></clipPath><clipPath id="41"><path id="" clip-rule="evenodd" transform="matrix(1 0 0 1 0 0)" d="M258.826 708.827L284.4229 708.827L284.4229 708.827L284.4229 672.968L284.4229 672.968L258.826 672.968z" /></clipPath><clipPath id="42"><path id="" clip-rule="evenodd" transform="matrix(1 0 0 1 0 0)" d="M320.229 708.827L345.8263 708.827L345.8263 708.827L345.8263 672.968L345.8263 672.968L320.229 672.968z" /></clipPath><clipPath id="43"><path id="" clip-rule="evenodd" transform="matrix(1 0 0 1 0 0)" d="M320.229 708.827L345.8263 708.827L345.8263 708.827L345.8263 672.968L345.8263 672.968L320.229 672.968z" /></clipPath><clipPath id="44"><path id="" clip-rule="evenodd" transform="matrix(1 0 0 1 0 0)" d="M414.098 708.827L439.6949 708.827L439.6949 708.827L439.6949 672.968L439.6949 672.968L414.098 672.968z" /></clipPath><clipPath id="45"><path id="" clip-rule="evenodd" transform="matrix(1 0 0 1 0 0)" d="M414.098 708.827L439.6949 708.827L439.6949 708.827L439.6949 672.968L439.6949 672.968L414.098 672.968z" /></clipPath><clipPath id="46"><path id="" clip-rule="evenodd" transform="matrix(1 0 0 1 0 0)" d="M517.063 710.244L542.6603 710.244L542.6603 710.244L542.6603 674.3858L542.6603 674.3858L517.063 674.3858z" /></clipPath><clipPath id="47"><path id="" clip-rule="evenodd" transform="matrix(1 0 0 1 0 0)" d="M517.063 710.244L542.6603 710.244L542.6603 710.244L542.6603 674.3858L542.6603 674.3858L517.063 674.3858z" /></clipPath><clipPath id="48"><path id="" clip-rule="evenodd" transform="matrix(1 0 0 1 0 0)" d="M341.882 489.567L435.3781 489.567L435.3781 489.567L435.3781 351.538L435.3781 351.538L341.882 351.538z" /></clipPath><clipPath id="49"><path id="" clip-rule="evenodd" transform="matrix(1 0 0 1 0 0)" d="M341.882 489.567L435.3781 489.567L435.3781 489.567L435.3781 351.538L435.3781 351.538L341.882 351.538z" /></clipPath><clipPath id="50"><path id="" clip-rule="evenodd" transform="matrix(1 0 0 1 0 0)" d="M380.713 451.993L394.706 451.993L394.706 451.993L394.706 392.1418L394.706 392.1418L380.713 392.1418z" /></clipPath><clipPath id="51"><path id="" clip-rule="evenodd" transform="matrix(1 0 0 1 0 0)" d="M380.713 451.993L394.706 451.993L394.706 451.993L394.706 392.142L394.706 392.142L380.713 392.142z" /></clipPath><clipPath id="52"><path id="" clip-rule="evenodd" transform="matrix(1 0 0 1 0 0)" d="M380.713 451.993L394.706 451.993L394.706 451.993L394.706 392.1422L394.706 392.1422L380.713 392.1422z" /></clipPath><clipPath id="53"><path id="" clip-rule="evenodd" transform="matrix(1 0 0 1 0 0)" d="M341.882 489.567L491.551 489.567L491.551 489.567L491.551 351.538L491.551 351.538L341.882 351.538z" /></clipPath><clipPath id="54"><path id="" clip-rule="evenodd" transform="matrix(1 0 0 1 0 0)" d="M414.869 424.014C 414.869 444.963 431.883 461.946 452.871 461.946L452.871 461.946L452.871 461.946C 468.613 461.946 482.119 452.393 487.887 438.777L487.887 438.777L487.887 438.777L487.887 438.777L487.887 409.252C 482.119 395.636 468.613 386.083 452.871 386.083L452.871 386.083L452.871 386.083C 431.883 386.083 414.869 403.066 414.869 424.014" /></clipPath><clipPath id="55"><path id="" clip-rule="evenodd" transform="matrix(1 0 0 1 0 0)" d="M414.869 424.014C 414.869 444.963 431.883 461.946 452.871 461.946L452.871 461.946L452.871 461.946C 468.613 461.946 482.119 452.393 487.887 438.777L487.887 438.777L487.887 438.777L487.887 438.777L487.887 409.252C 482.119 395.636 468.613 386.083 452.871 386.083L452.871 386.083L452.871 386.083C 431.883 386.083 414.869 403.066 414.869 424.014" /></clipPath><clipPath id="56"><path id="" clip-rule="evenodd" transform="matrix(1 0 0 1 0 0)" d="M341.882 489.567L491.551 489.567L491.551 489.567L491.551 351.538L491.551 351.538L341.882 351.538z" /></clipPath><clipPath id="57"><path id="" clip-rule="evenodd" transform="matrix(1 0 0 1 0 0)" d="M265.881 388.594L294.1501 388.594L294.1501 388.594L294.1501 331.678L294.1501 331.678L265.881 331.678z" /></clipPath><clipPath id="58"><path id="" clip-rule="evenodd" transform="matrix(1 0 0 1 0 0)" d="M265.881 388.594L294.1501 388.594L294.1501 388.594L294.1501 331.678L294.1501 331.678L265.881 331.678z" /></clipPath><clipPath id="59"><path id="" clip-rule="evenodd" transform="matrix(1 0 0 1 0 0)" d="M339.898 390.497L365.4949 390.497L365.4949 390.497L365.4949 354.638L365.4949 354.638L339.898 354.638z" /></clipPath><clipPath id="60"><path id="" clip-rule="evenodd" transform="matrix(1 0 0 1 0 0)" d="M339.898 390.497L365.4949 390.497L365.4949 390.497L365.4949 354.638L365.4949 354.638L339.898 354.638z" /></clipPath><clipPath id="61"><path id="" clip-rule="evenodd" transform="matrix(1 0 0 1 0 0)" d="M408.779 390.497L434.3763 390.497L434.3763 390.497L434.3763 354.638L434.3763 354.638L408.779 354.638z" /></clipPath><clipPath id="62"><path id="" clip-rule="evenodd" transform="matrix(1 0 0 1 0 0)" d="M408.779 390.497L434.3763 390.497L434.3763 390.497L434.3763 354.638L434.3763 354.638L408.779 354.638z" /></clipPath></defs><g transform="matrix(1.333333 0 0 1.333333 0 0)"><g clip-path="url(#1)"><g clip-path="url(#2)"><path id="1" transform="matrix(1 0 0 -1 0 834)" d="M91.866 67.4211L562.134 67.4211L562.134 74.92501L91.866 74.92501z" stroke="none" fill="#686868" fill-rule="nonzero" /><path id="2" transform="matrix(1 0 0 -1 0 834)" d="M91.866 526.984L562.134 526.984" stroke="#686868" stroke-width="1" fill="none" /><path id="3" transform="matrix(1 0 0 -1 0 834)" d="M91.866 307.016L562.134 307.016" stroke="#686868" stroke-width="1" fill="none" /></g><g clip-path="url(#3)"></g><g clip-path="url(#4)"><g transform="matrix(1.003475 0 0 0.9999685 370.116 130.677)"><g transform="matrix(1 0 0 1 0 0)"><image x="0" y="0" xlink:href="img_01.png" width="101" height="159" /></g></g></g><g clip-path="url(#5)"><path id="8" transform="matrix(1 0 0 -1 0 834)" d="M395.745 637.787C 395.745 622.366 383.243 609.864 367.822 609.864C 352.401 609.864 339.899 622.366 339.899 637.787C 339.899 653.208 352.401 665.71 367.822 665.71C 383.243 665.71 395.745 653.208 395.745 637.787" stroke="none" fill="#FFFFFF" fill-rule="nonzero" /></g><g clip-path="url(#6)"></g><g clip-path="url(#7)"><g transform="matrix(1.003528 0 0 1.0059 341.075 157.6422)"><g transform="matrix(1 0 0 1 0 0)"><image x="0" y="0" xlink:href="img_02.png" width="53" height="72" /></g></g></g><g clip-path="url(#8)"><path id="10" transform="matrix(1 0 0 -1 0 834)" d="M395.745 637.787C 395.745 622.366 383.243 609.864 367.822 609.864C 352.401 609.864 339.899 622.366 339.899 637.787C 339.899 653.208 352.401 665.71 367.822 665.71C 383.243 665.71 395.745 653.208 395.745 637.787z" stroke="#000000" stroke-width="0.789" fill="none" /><path id="11" transform="matrix(1 0 0 -1 0 834)" d="M447.714 653.405C 445.411 653.405 443.545 651.538 443.545 649.235C 443.545 646.933 445.411 645.066 447.714 645.066C 450.017 645.066 451.883 646.933 451.883 649.235C 451.883 651.538 450.017 653.405 447.714 653.405M447.714 645.573C 445.704 645.573 444.075 647.202 444.075 649.212C 444.075 651.222 445.704 652.852 447.714 652.852C 449.724 652.852 451.353 651.222 451.353 649.212C 451.353 647.202 449.724 645.573 447.714 645.573" stroke="none" fill="#000000" fill-rule="nonzero" /></g><g clip-path="url(#9)"><path id="13" transform="matrix(1 0 0 -1 0 834)" d="M378.459 657.574C 376.156 657.574 374.29 655.707 374.29 653.404C 374.29 651.102 376.156 649.235 378.459 649.235C 380.762 649.235 382.628 651.102 382.628 653.404C 382.628 655.707 380.762 657.574 378.459 657.574M378.459 649.742C 376.449 649.742 374.82 651.371 374.82 653.381C 374.82 655.392 376.449 657.021 378.459 657.021C 380.469 657.021 382.098 655.392 382.098 653.381C 382.098 651.371 380.469 649.742 378.459 649.742" stroke="none" fill="#000000" fill-rule="nonzero" /></g><g clip-path="url(#10)"><g><g clip-path="url(#11)"><g clip-path="url(#12)"><path id="15" transform="matrix(1 0 0 -1 0 834)" d="M419.783 604.932L422.247 603L414.655 597.657L401.423 588.345L402.21 587.051L416.763 596.076L423.942 600.526L424.804 597.602L429.044 605.453" stroke="none" fill="#FFFFFF" fill-rule="nonzero" fill-opacity="0.8" /></g></g></g></g><g clip-path="url(#13)"><g><g clip-path="url(#14)"><g clip-path="url(#15)"><path id="16" transform="matrix(1 0 0 -1 0 834)" d="M470.243 612.762L472.707 610.83L466.489 606.455L465.286 605.608L465.923 603.0991L467.224 603.906L474.403 608.356L475.264 605.432L479.504 613.283" stroke="none" fill="#000000" fill-rule="nonzero" fill-opacity="0.8" /></g></g></g></g><g clip-path="url(#16)"><g><g clip-path="url(#17)"><g clip-path="url(#18)"><path id="17" transform="matrix(1 0 0 -1 0 834)" d="M465.291 605.605L451.962 596.2241L452.749 594.929L465.923 603.098z" stroke="none" fill="#FFFFFF" fill-rule="nonzero" fill-opacity="0.8" /></g></g></g></g><g clip-path="url(#19)"></g><g clip-path="url(#20)"><g transform="matrix(1.008969 0 0 1.019562 258.827 122.8349)"><g transform="matrix(1 0 0 1 0 0)"><image x="0" y="0" xlink:href="img_03.png" width="42" height="34" /></g></g></g><g clip-path="url(#21)"></g><g clip-path="url(#22)"><g transform="matrix(1.022789 0 0 0.9967948 313.201 195.3839)"><g transform="matrix(1 0 0 1 0 0)"><image x="0" y="0" xlink:href="img_04.png" width="27" height="38" /></g></g></g><g clip-path="url(#23)"></g><g clip-path="url(#24)"><g transform="matrix(1.022789 0 0 0.9967948 313.191 231.2398)"><g transform="matrix(1 0 0 1 0 0)"><image x="0" y="0" xlink:href="img_05.png" width="27" height="38" /></g></g></g><g clip-path="url(#25)"></g><g clip-path="url(#26)"><g transform="matrix(-1.022789 0 0 0.9967948 509.655 231.2398)"><g transform="matrix(1 0 0 1 0 0)"><image x="0" y="0" xlink:href="img_05.png" width="27" height="38" /></g></g></g><g clip-path="url(#27)"></g><g clip-path="url(#28)"><g transform="matrix(-1.022789 0 0 0.9967948 509.644 195.3839)"><g transform="matrix(1 0 0 1 0 0)"><image x="0" y="0" xlink:href="img_04.png" width="27" height="38" /></g></g></g><g clip-path="url(#29)"></g><g clip-path="url(#30)"><g transform="matrix(1.005956 0 0 1.006491 271.746 601.921)"><g transform="matrix(1 0 0 1 0 0)"><image x="0" y="0" xlink:href="img_06.png" width="78" height="106" /></g></g></g><g clip-path="url(#31)"></g><g clip-path="url(#32)"><g transform="matrix(0.9975158 0 0 1.003283 440.663 602.317)"><g transform="matrix(1 0 0 1 0 0)"><image x="0" y="0" xlink:href="img_07.png" width="57" height="106" /></g></g></g><g clip-path="url(#33)"><path id="557" transform="matrix(1 0 0 -1 0 834)" d="M346.271 168.895L347.323 175.378L347.323 175.378L345.718 173.279C 343.366 178.815 339.171 181.382 335.997 182.563C 332.399 183.901 329.374 183.805 329.247 183.801L329.247 183.801L328.529 182.305C 328.645 182.309 339.929 182.602 344.405 172.191L344.405 172.191L342.498 171.299" stroke="none" fill="#000000" fill-rule="nonzero" /><path id="558" transform="matrix(1 0 0 -1 0 834)" d="M485.239 159.875C 479.153 161.52 475.362 163.972 475.198 164.079L475.198 164.079L475.899 166.221C 475.973 166.172 479.481 163.929 485.079 162.348" stroke="none" fill="#FFFFFF" fill-rule="nonzero" /><path id="559" transform="matrix(1 0 0 -1 0 834)" d="M485.239 159.875C 485.466 159.814 485.696 159.753 485.93 159.695C 491.655 158.248 500.359 157.373 509.88 161.1L509.88 161.1L509.721 157.594L509.721 157.594L515.609 165.15L515.609 165.15L507.672 165.838L507.672 165.838L509.297 163.321C 499.889 159.677 491.224 160.613 485.079 162.348L485.079 162.348L485.238 159.874L485.238 159.874L485.127 162.319" stroke="none" fill="#000000" fill-rule="nonzero" /><path id="560" transform="matrix(1 0 0 -1 0 834)" d="M324.573 238.014C 321.999 238.014 319.913 235.935 319.913 233.369C 319.913 230.803 321.999 228.723 324.573 228.723C 327.146 228.723 329.232 230.803 329.232 233.369C 329.232 235.935 327.146 238.014 324.573 238.014M324.573 229.288C 322.326 229.288 320.505 231.104 320.505 233.343C 320.505 235.583 322.326 237.398 324.573 237.398C 326.819 237.398 328.64 235.583 328.64 233.343C 328.64 231.104 326.819 229.288 324.573 229.288" stroke="none" fill="#000000" fill-rule="nonzero" /><path id="562" transform="matrix(1 0 0 -1 0 834)" d="M497.796 238.63C 495.223 238.63 493.136 236.55 493.136 233.984C 493.136 231.418 495.223 229.339 497.796 229.339C 500.369 229.339 502.455 231.418 502.455 233.984C 502.455 236.55 500.369 238.63 497.796 238.63M497.796 229.903C 495.55 229.903 493.729 231.719 493.729 233.959C 493.729 236.198 495.55 238.014 497.796 238.014C 500.042 238.014 501.863 236.198 501.863 233.959C 501.863 231.719 500.042 229.903 497.796 229.903" stroke="none" fill="#000000" fill-rule="nonzero" /><path id="564" transform="matrix(1 0 0 -1 0 834)" d="M554.066 192.818C 554.066 178.329 542.284 166.583 527.752 166.583C 513.219 166.583 501.438 178.329 501.438 192.818C 501.438 207.308 513.219 219.054 527.752 219.054C 542.284 219.054 554.066 207.308 554.066 192.818" stroke="none" fill="#FFFFFF" fill-rule="nonzero" /></g><g clip-path="url(#34)"></g><g clip-path="url(#35)"><g transform="matrix(0.9994268 0 0 1.001141 471.018 584.942)"><g transform="matrix(1 0 0 1 0 0)"><image x="0" y="0" xlink:href="img_08.png" width="71" height="106" /></g></g></g><g clip-path="url(#36)"><path id="566" transform="matrix(1 0 0 -1 0 834)" d="M554.0623 192.8179C 554.0623 178.3295 542.2818 166.5831 527.7482 166.5831C 513.2156 166.5831 501.435 178.3295 501.435 192.8179C 501.435 207.3082 513.2156 219.0547 527.7482 219.0547C 542.2818 219.0547 554.0623 207.3082 554.0623 192.8179z" stroke="#000000" stroke-width="0.8815796" fill="none" /><path id="567" transform="matrix(1 0 0 -1 0 834)" d="M407.846 196.865C 407.846 179.973 394.111 166.279 377.168 166.279C 360.225 166.279 346.491 179.973 346.491 196.865C 346.491 213.757 360.225 227.451 377.168 227.451C 394.111 227.451 407.846 213.757 407.846 196.865" stroke="none" fill="#FFFFFF" fill-rule="nonzero" /></g><g clip-path="url(#37)"></g><g clip-path="url(#38)"><g transform="matrix(1.009805 0 0 1.002208 320.045 579.887)"><g transform="matrix(1 0 0 1 0 0)"><image x="0" y="0" xlink:href="img_09.png" width="75" height="106" /></g></g></g><g clip-path="url(#39)"><path id="569" transform="matrix(1 0 0 -1 0 834)" d="M407.8438 196.8658C 407.8438 179.9731 394.1083 166.2795 377.1661 166.2795C 360.2229 166.2795 346.4885 179.9731 346.4885 196.8658C 346.4885 213.7566 360.2229 227.4511 377.1661 227.4511C 394.1083 227.4511 407.8438 213.7566 407.8438 196.8658z" stroke="#000000" stroke-width="0.8815796" fill="none" /></g><g transform="matrix(1.009614 0 0 0.9985386 265.881 546.6853)"><g transform="matrix(1 0 0 1 0 0)"><image x="0" y="0" xlink:href="img_10.png" width="28" height="57" /></g></g><g clip-path="url(#40)"></g><g clip-path="url(#41)"><g transform="matrix(1.023622 0 0 0.9973868 257.806 671.9483)"><g transform="matrix(1 0 0 1 0 0)"><image x="0" y="0" xlink:href="img_11.png" width="27" height="38" /></g></g></g><g clip-path="url(#42)"></g><g clip-path="url(#43)"><g transform="matrix(-1.022789 0 0 0.9971526 346.836 671.9552)"><g transform="matrix(1 0 0 1 0 0)"><image x="0" y="0" xlink:href="img_12.png" width="27" height="38" /></g></g></g><path id="1043" transform="matrix(1 0 0 -1 0 834)" d="M414.098 125.173L439.6949 125.173L439.6949 161.0308L414.098 161.0308z" stroke="none" fill="#FFFFFF" fill-rule="nonzero" /><g clip-path="url(#44)"></g><g clip-path="url(#45)"><g transform="matrix(1.022789 0 0 0.9971526 413.08 671.9532)"><g transform="matrix(1 0 0 1 0 0)"><image x="0" y="0" xlink:href="img_13.png" width="27" height="38" /></g></g></g><g clip-path="url(#46)"></g><g clip-path="url(#47)"><g transform="matrix(-1.022789 0 0 0.9965578 543.673 673.3848)"><g transform="matrix(1 0 0 1 0 0)"><image x="0" y="0" xlink:href="img_14.png" width="27" height="38" /></g></g></g><g clip-path="url(#48)"></g><g clip-path="url(#49)"><g transform="matrix(1.005335 0 0 1.00021 341.882 351.538)"><g transform="matrix(1 0 0 1 0 0)"><image x="0" y="0" xlink:href="img_15.png" width="93" height="138" /></g></g></g><g clip-path="url(#50)"><g><g clip-path="url(#51)"><g clip-path="url(#52)"><path id="1047" transform="matrix(1 0 0 -1 0 834)" d="M394.706 439.493C 394.65 439.477 394.618 439.474 394.618 439.474L394.618 439.474L393.987 441.858C 392.569 441.599 380.437 437.985 384.989 391.155L384.989 391.155L380.713 392.192L380.713 392.192L387.568 382.007L387.568 382.007L392.025 393.17L392.025 393.17L388.044 391.413C 383.732 435.788 394.595 439.461 394.706 439.493" stroke="none" fill="#F8F8F8" fill-rule="nonzero" fill-opacity="0.8" /></g></g></g></g><g clip-path="url(#53)"><path id="1048" transform="matrix(1 0 0 -1 0 834)" d="M490.873 409.985C 490.873 389.036 473.859 372.053 452.871 372.053C 431.884 372.053 414.87 389.036 414.87 409.985C 414.87 430.934 431.884 447.917 452.871 447.917C 473.859 447.917 490.873 430.934 490.873 409.985" stroke="none" fill="#FFFFFF" fill-rule="nonzero" /></g><g clip-path="url(#54)"></g><g clip-path="url(#55)"><g transform="matrix(1.000251 0 0 1.003827 414.869 362.074)"><g transform="matrix(1 0 0 1 0 0)"><image x="0" y="0" xlink:href="img_16.png" width="73" height="104" /></g></g></g><g clip-path="url(#56)"><path id="1050" transform="matrix(1 0 0 -1 0 834)" d="M490.8742 409.9845C 490.8742 389.0358 473.8596 372.0524 452.8723 372.0524C 431.884 372.0524 414.8704 389.0358 414.8704 409.9845C 414.8704 430.9332 431.884 447.9165 452.8723 447.9165C 473.8596 447.9165 490.8742 430.9332 490.8742 409.9845z" stroke="#000000" stroke-width="0.7540011" fill="none" /></g><g clip-path="url(#57)"></g><g clip-path="url(#58)"><g transform="matrix(1.009614 0 0 0.9985386 265.881 331.6773)"><g transform="matrix(1 0 0 1 0 0)"><image x="0" y="0" xlink:href="img_10.png" width="28" height="57" /></g></g></g><g clip-path="url(#59)"></g><g clip-path="url(#60)"><g transform="matrix(1.022789 0 0 0.9971526 338.89 353.6252)"><g transform="matrix(1 0 0 1 0 0)"><image x="0" y="0" xlink:href="img_17.png" width="27" height="38" /></g></g></g><g clip-path="url(#61)"></g><g clip-path="url(#62)"><g transform="matrix(-1.022789 0 0 0.9971526 435.379 353.6172)"><g transform="matrix(1 0 0 1 0 0)"><image x="0" y="0" xlink:href="img_18.png" width="27" height="38" /></g></g></g><path id="1372" transform="matrix(1 0 0 -1 0 834)" d="M633 15L633 0M633 819L633 834M21 15L21 0M21 819L21 834M639 21L654 21M15 21L0 21M639 813L654 813M15 813L0 813" stroke="#000000" stroke-width="1.25" fill="none" /><path id="1373" transform="matrix(1 0 0 -1 0 834)" d="M633 15L633 0M633 819L633 834M21 15L21 0M21 819L21 834M639 21L654 21M15 21L0 21M639 813L654 813M15 813L0 813" stroke="#000000" stroke-width="0.25" fill="none" /><path id="1374" transform="matrix(1 0 0 -1 0 834)" d="M32.2781 9.28203C 32.2781 9.516021 32.2961 9.58203 32.3559 9.62383C 32.416 9.66602 32.5719 9.69609 32.8238 9.69609C 33.2262 9.69609 33.5738 9.62383 33.8441 9.45C 34.3238 9.167971 34.552 8.63398 34.552 8.016021C 34.552 7.05586 34.0359 6.21602 32.9141 6.21602C 32.4762 6.21602 32.2781 6.33008 32.2781 6.78594zM31.252 9.900001L31.252 9.726171C 31.7141 9.68984 31.7621 9.66602 31.7621 9.150001L31.7621 9.150001L31.7621 6.74414C 31.7621 6.23398 31.7141 6.19805 31.198 6.16211L31.198 6.16211L31.198 6L31.198 6L32.6199 6C 33.3578 6 33.952 6.15 34.402 6.49805C 34.8641 6.84609 35.1398 7.38008 35.1398 8.1C 35.1398 8.664061 34.9301 9.101951 34.6359 9.38984C 34.2641 9.74414 33.7 9.900001 32.9379 9.900001z" stroke="#000000" stroke-width="0.4" fill="none" /><path id="1375" transform="matrix(1 0 0 -1 0 834)" d="M38.3801 6.97813C 38.2898 6.70195 38.1758 6.51016 38.0738 6.38984C 37.9359 6.23398 37.732 6.20391 37.402 6.20391C 37.15 6.20391 36.9461 6.21602 36.8258 6.28203C 36.718 6.34219 36.6879 6.46211 36.6879 6.78594L36.6879 6.78594L36.6879 9.15586C 36.6879 9.66602 36.7418 9.69609 37.216 9.73203L37.216 9.73203L37.216 9.900001L37.216 9.900001L35.65 9.900001L35.65 9.900001L35.65 9.73203C 36.1359 9.69609 36.1777 9.66602 36.1777 9.15586L36.1777 9.15586L36.1777 6.75586C 36.1777 6.24609 36.1301 6.20391 35.6258 6.16797L35.6258 6.16797L35.6258 6L35.6258 6L38.3438 6C 38.398 6.18594 38.5238 6.75586 38.5598 6.94219z" stroke="#000000" stroke-width="0.4" fill="none" /><path id="1376" transform="matrix(1 0 0 -1 0 834)" d="M41.0918 9.023829C 41.0438 9.40195 41.0141 9.63594 40.9898 9.851951C 40.7617 9.92383 40.5098 9.989841 40.234 9.989841C 39.4598 9.989841 38.998 9.49805 38.998 8.921881C 38.998 8.24414 39.6039 7.94414 39.9879 7.73984C 40.4379 7.5 40.768 7.28984 40.768 6.84609C 40.768 6.40781 40.498 6.12617 40.048 6.12617C 39.4301 6.12617 39.1598 6.73203 39.0641 7.09805L39.0641 7.09805L38.8898 7.05586C 38.9258 6.767971 39.0039 6.25195 39.052 6.12617C 39.1059 6.09609 39.1961 6.05391 39.3461 6C 39.4961 5.95781 39.6879 5.91016 39.934 5.91016C 40.732 5.91016 41.266 6.41406 41.266 7.04414C 41.266 7.71602 40.6961 7.99805 40.2277 8.23789C 39.7539 8.48398 39.466 8.68789 39.466 9.12617C 39.466 9.45 39.6699 9.78594 40.132 9.78594C 40.6539 9.78594 40.8098 9.371881 40.918 8.98789z" stroke="#000000" stroke-width="0.4" fill="none" /><path id="1377" transform="matrix(1 0 0 -1 0 834)" d="M46.648 6L46.648 6.16797C 46.1258 6.21602 46.1078 6.24609 46.0898 6.88203L46.0898 6.88203L46.0301 9.05391C 46.0117 9.671881 46.0539 9.68398 46.582 9.73203L46.582 9.73203L46.582 9.900001L46.582 9.900001L45.5617 9.900001L45.5617 9.900001L44.1758 6.9L44.1758 6.9L42.8078 9.900001L42.8078 9.900001L41.8238 9.900001L41.8238 9.900001L41.8238 9.73203C 42.3699 9.67813 42.4 9.653911 42.3461 8.87383L42.3461 8.87383L42.2617 7.626171C 42.2141 7.00195 42.1777 6.73789 42.148 6.528131C 42.1059 6.27617 41.9859 6.21016 41.6379 6.16797L41.6379 6.16797L41.6379 6L41.6379 6L43.0359 6L43.0359 6L43.0359 6.16797C 42.6398 6.21016 42.4961 6.25195 42.484 6.53984C 42.4777 6.78008 42.4777 7.04414 42.502 7.53594L42.502 7.53594L42.5918 9.24609L42.5918 9.24609L42.6039 9.24609L42.6039 9.24609L43.948 6.04219L43.948 6.04219L44.068 6.04219L44.068 6.04219L45.532 9.33008L45.532 9.33008L45.5559 9.33008L45.5559 9.33008L45.5738 6.88203C 45.5801 6.24609 45.5559 6.21602 45.0699 6.16797L45.0699 6.16797L45.0699 6z" stroke="#000000" stroke-width="0.4" fill="none" /><path id="1378" transform="matrix(1 0 0 -1 0 834)" d="M51.8738 7.05586C 51.5738 6.45586 51.2496 6.12617 50.6379 6.12617C 49.7258 6.12617 49.0656 6.89414 49.0656 8.016021C 49.0656 8.92813 49.5996 9.773829 50.602 9.773829C 51.2496 9.773829 51.6098 9.516021 51.7656 8.88008L51.7656 8.88008L51.9457 8.921881C 51.9098 9.24609 51.8738 9.48594 51.8258 9.828131C 51.6578 9.85781 51.2496 9.989841 50.7637 9.989841C 49.4258 9.989841 48.4539 9.15586 48.4539 7.89609C 48.4539 6.94219 49.1078 5.91016 50.602 5.91016C 51.034 5.91016 51.5379 6.03008 51.7059 6.07188C 51.8137 6.26992 51.9637 6.71406 52.0477 6.98984z" stroke="#000000" stroke-width="0.4" fill="none" /><path id="1379" transform="matrix(1 0 0 -1 0 834)" d="M54.3398 9.773829C 55.1258 9.773829 55.7855 9.101951 55.7855 7.83594C 55.7855 6.68398 55.1855 6.12617 54.5195 6.12617C 53.6738 6.12617 53.0559 6.94805 53.0559 8.076171C 53.0559 9.19805 53.6676 9.773829 54.3398 9.773829zM54.4598 9.989841C 53.1996 9.989841 52.4438 8.98789 52.4438 7.90781C 52.4438 6.75586 53.3078 5.91016 54.3938 5.91016C 55.4918 5.91016 56.3977 6.70195 56.3977 7.99805C 56.3977 9.19805 55.4797 9.989841 54.4598 9.989841z" stroke="#000000" stroke-width="0.4" fill="none" /><path id="1380" transform="matrix(1 0 0 -1 0 834)" d="M61.8277 6L61.8277 6.16797C 61.3059 6.21602 61.2879 6.24609 61.2695 6.88203L61.2695 6.88203L61.2098 9.05391C 61.1918 9.671881 61.2336 9.68398 61.7617 9.73203L61.7617 9.73203L61.7617 9.900001L61.7617 9.900001L60.7418 9.900001L60.7418 9.900001L59.3559 6.9L59.3559 6.9L57.9879 9.900001L57.9879 9.900001L57.0035 9.900001L57.0035 9.900001L57.0035 9.73203C 57.5496 9.67813 57.5797 9.653911 57.5258 8.87383L57.5258 8.87383L57.4418 7.626171C 57.3938 7.00195 57.3578 6.73789 57.3277 6.528131C 57.2855 6.27617 57.1656 6.21016 56.8176 6.16797L56.8176 6.16797L56.8176 6L56.8176 6L58.2156 6L58.2156 6L58.2156 6.16797C 57.8195 6.21016 57.6758 6.25195 57.6637 6.53984C 57.6578 6.78008 57.6578 7.04414 57.6816 7.53594L57.6816 7.53594L57.7719 9.24609L57.7719 9.24609L57.7836 9.24609L57.7836 9.24609L59.1277 6.04219L59.1277 6.04219L59.2477 6.04219L59.2477 6.04219L60.7117 9.33008L60.7117 9.33008L60.7355 9.33008L60.7355 9.33008L60.7535 6.88203C 60.7598 6.24609 60.7355 6.21602 60.2496 6.16797L60.2496 6.16797L60.2496 6z" stroke="#000000" stroke-width="0.4" fill="none" /><path id="1381" transform="matrix(1 0 0 -1 0 834)" d="M63.8258 6L63.8258 6.16797C 63.3336 6.20391 63.2855 6.23398 63.2855 6.75L63.2855 6.75L63.2855 9.150001C 63.2855 9.66016 63.3336 9.69609 63.8258 9.73203L63.8258 9.73203L63.8258 9.900001L63.8258 9.900001L62.2355 9.900001L62.2355 9.900001L62.2355 9.73203C 62.7277 9.69609 62.7758 9.66016 62.7758 9.150001L62.7758 9.150001L62.7758 6.75C 62.7758 6.23984 62.7277 6.20391 62.2355 6.16797L62.2355 6.16797L62.2355 6z" stroke="#000000" stroke-width="0.4" fill="none" /><path id="1382" transform="matrix(1 0 0 -1 0 834)" d="M66.5074 9.023829C 66.4598 9.40195 66.4297 9.63594 66.4055 9.851951C 66.1777 9.92383 65.9258 9.989841 65.6496 9.989841C 64.8758 9.989841 64.4137 9.49805 64.4137 8.921881C 64.4137 8.24414 65.0195 7.94414 65.4035 7.73984C 65.8535 7.5 66.1836 7.28984 66.1836 6.84609C 66.1836 6.40781 65.9137 6.12617 65.46371 6.12617C 64.8457 6.12617 64.5758 6.73203 64.4797 7.09805L64.4797 7.09805L64.3055 7.05586C 64.3418 6.767971 64.4195 6.25195 64.46761 6.12617C 64.52151 6.09609 64.6117 6.05391 64.7617 6C 64.91171 5.95781 65.1035 5.91016 65.3496 5.91016C 66.1477 5.91016 66.6816 6.41406 66.6816 7.04414C 66.6816 7.71602 66.1117 7.99805 65.6438 8.23789C 65.1695 8.48398 64.8816 8.68789 64.8816 9.12617C 64.8816 9.45 65.0855 9.78594 65.5477 9.78594C 66.0695 9.78594 66.2258 9.371881 66.3336 8.98789z" stroke="#000000" stroke-width="0.4" fill="none" /><path id="1383" transform="matrix(1 0 0 -1 0 834)" d="M69.4055 7.68008L68.3016 7.68008C 68.4816 8.171881 68.6734 8.69414 68.8656 9.21016L68.8656 9.21016L68.8777 9.21016zM70.9355 6L70.9355 6.16797C 70.5457 6.20391 70.46761 6.25781 70.2758 6.77383C 69.89181 7.81797 69.4895 8.95781 69.11761 9.989841L69.11761 9.989841L68.9316 9.93594L68.9316 9.93594L67.68951 6.78594C 67.4797 6.25781 67.3957 6.22188 67.0176 6.16797L67.0176 6.16797L67.0176 6L67.0176 6L68.3195 6L68.3195 6L68.3195 6.16797C 67.8695 6.21016 67.81561 6.26992 67.9477 6.64805C 68.0258 6.9 68.1156 7.15195 68.2117 7.42188L68.2117 7.42188L69.4895 7.42188C 69.62151 7.05586 69.74181 6.73203 69.8195 6.49805C 69.8977 6.26406 69.8438 6.21602 69.4656 6.16797L69.4656 6.16797L69.4656 6z" stroke="#000000" stroke-width="0.4" fill="none" /><path id="1384" transform="matrix(1 0 0 -1 0 834)" d="M71.7273 5.92813C 71.9195 5.92813 72.06371 6.06602 72.06371 6.27617C 72.06371 6.46797 71.9195 6.61797 71.7273 6.61797C 71.5355 6.61797 71.3914 6.46797 71.3914 6.27617C 71.3914 6.06602 71.5355 5.92813 71.7273 5.92813z" stroke="#000000" stroke-width="0.4" fill="none" /><path id="1385" transform="matrix(1 0 0 -1 0 834)" d="M73.9234 6L73.9234 6.15586C 73.53951 6.19219 73.4977 6.22813 73.4977 6.63594L73.4977 6.63594L73.4977 8.70586C 73.2336 8.59805 72.9516 8.51992 72.6453 8.471881L72.6453 8.471881L72.6453 8.328131C 73.0055 8.26797 73.0234 8.24414 73.0234 7.871881L73.0234 7.871881L73.0234 6.63594C 73.0234 6.22813 72.9816 6.19219 72.6035 6.15586L72.6035 6.15586L72.6035 6zM73.2215 9.216021C 73.3953 9.216021 73.52731 9.36016 73.52731 9.52188C 73.52731 9.70195 73.3953 9.83398 73.2273 9.83398C 73.06561 9.83398 72.9215 9.70195 72.9215 9.52188C 72.9215 9.36016 73.06561 9.216021 73.2215 9.216021z" stroke="#000000" stroke-width="0.4" fill="none" /><path id="1386" transform="matrix(1 0 0 -1 0 834)" d="M77.1574 6L77.1574 6.15586C 76.8094 6.19219 76.7793 6.21602 76.7793 6.62383L76.7793 6.62383L76.7793 7.78203C 76.7793 8.36406 76.4793 8.69414 76.0055 8.69414C 75.8313 8.69414 75.67541 8.621881 75.5074 8.51406C 75.3574 8.41211 75.2254 8.32188 75.1055 8.23203L75.1055 8.23203L75.1055 8.712111C 74.8414 8.59219 74.5594 8.51992 74.27151 8.466021L74.27151 8.466021L74.27151 8.328131C 74.5953 8.26797 74.6313 8.25 74.6313 7.86602L74.6313 7.86602L74.6313 6.62383C 74.6313 6.22813 74.6016 6.19805 74.19341 6.15586L74.19341 6.15586L74.19341 6L74.19341 6L75.4953 6L75.4953 6L75.4953 6.15586C 75.1414 6.19219 75.1055 6.21602 75.1055 6.62383L75.1055 6.62383L75.1055 8.03398C 75.2855 8.18984 75.5195 8.33984 75.7594 8.33984C 76.1613 8.33984 76.3055 8.069921 76.3055 7.65586L76.3055 7.65586L76.3055 6.65391C 76.3055 6.23984 76.2633 6.19219 75.9094 6.15586L75.9094 6.15586L75.9094 6z" stroke="#000000" stroke-width="0.4" fill="none" /><path id="1387" transform="matrix(1 0 0 -1 0 834)" d="M79.4734 6.51016C 79.32931 6.40195 79.1133 6.30586 78.8973 6.30586C 78.5133 6.30586 78.0754 6.65391 78.0754 7.36797C 78.0754 8.23789 78.57931 8.471881 78.8555 8.471881C 79.0832 8.471881 79.32931 8.37617 79.4734 8.16602zM80.4035 6.30586L80.2113 6.32383C 79.9895 6.34805 79.9473 6.37813 79.9473 6.68984L79.9473 6.68984L79.9473 10.2719C 79.7254 10.1941 79.3234 10.1039 79.0113 10.0621L79.0113 10.0621L79.0113 9.917971C 79.44341 9.88789 79.4734 9.869921 79.4734 9.47383L79.4734 9.47383L79.4734 8.628131C 79.3355 8.67617 79.1613 8.69414 79.0773 8.69414C 78.2613 8.69414 77.5293 8.03984 77.5293 7.20586C 77.5293 6.36602 78.1594 5.92813 78.6395 5.92813C 78.7113 5.92813 78.87341 5.96406 79.1074 6.10195L79.1074 6.10195L79.4734 6.31797L79.4734 6.31797L79.4734 5.92813C 79.8215 6.05391 80.27151 6.13203 80.4035 6.15586z" stroke="#000000" stroke-width="0.4" fill="none" /><path id="1388" transform="matrix(1 0 0 -1 0 834)" d="M81.3813 8.24414C 81.4895 8.310161 81.6813 8.35781 81.84921 8.35781C 82.34731 8.35781 82.7676 7.96211 82.7676 7.278131C 82.7676 6.58203 82.4492 6.15586 81.9516 6.15586C 81.6336 6.16211 81.4535 6.37188 81.4176 6.49219C 81.3934 6.54609 81.3813 6.60586 81.3813 6.69609zM81.3813 8.42383L81.3813 10.2719C 81.1594 10.1941 80.7934 10.098 80.5113 10.0621L80.5113 10.0621L80.5113 9.92383C 80.8953 9.88789 80.9074 9.851951 80.9074 9.48008L80.9074 9.48008L80.9074 6.14414C 81.2375 5.98789 81.5434 5.92813 81.78951 5.92813C 82.59341 5.92813 83.2953 6.55195 83.2953 7.43398C 83.2953 8.14219 82.7555 8.69414 82.1133 8.69414C 82.0473 8.69414 81.9633 8.67617 81.86761 8.63398z" stroke="#000000" stroke-width="0.4" fill="none" /><path id="1389" transform="matrix(1 0 0 -1 0 834)" d="M88.1133 8.976171C 88.2633 9.19805 88.50311 9.45 88.8332 9.45C 89.15121 9.45 89.4031 9.257811 89.4031 8.88594C 89.4031 8.44219 88.9953 8.20781 88.44341 8.03398L88.44341 8.03398L88.4852 7.86016C 88.5813 7.88984 88.7254 7.92617 88.8691 7.92617C 89.2113 7.92617 89.6313 7.70391 89.6313 7.15195C 89.6313 6.55781 89.3313 6.23984 88.90511 6.23984C 88.5633 6.23984 88.3172 6.40781 88.1613 6.54609C 88.1133 6.58789 88.0652 6.58203 88.0172 6.54609C 87.9633 6.50391 87.8852 6.42617 87.8793 6.34805C 87.8672 6.27617 87.891 6.21016 87.9754 6.13203C 88.0531 6.06016 88.2992 5.92813 88.5754 5.92813C 89.007 5.92813 90.1473 6.37188 90.1473 7.34414C 90.1473 7.78203 89.841 8.153911 89.3133 8.25586L89.3133 8.25586L89.3133 8.26797C 89.4871 8.38789 89.6313 8.49609 89.7211 8.59219C 89.8352 8.70586 89.90701 8.84414 89.90701 9.01797C 89.90701 9.47383 89.5531 9.810161 89.0133 9.810161C 88.6953 9.810161 88.4191 9.66016 88.25121 9.47383L88.25121 9.47383L87.9871 9.09609z" stroke="#000000" stroke-width="0.4" fill="none" /><path id="1390" transform="matrix(1 0 0 -1 0 834)" d="M91.857 9.61211C 92.4391 9.61211 92.5953 8.86797 92.5953 8.33984C 92.5953 8.21992 92.5891 8.076171 92.5711 7.94414C 92.4453 7.84805 92.241 7.77617 92.0313 7.77617C 91.52731 7.77617 91.2273 8.214061 91.2273 8.74219C 91.2273 9.09609 91.3953 9.61211 91.857 9.61211zM91.9352 9.810161C 91.1613 9.810161 90.7113 9.10781 90.7113 8.53203C 90.7113 7.90195 91.1492 7.43398 91.7852 7.43398C 91.8992 7.43398 92.0133 7.45781 92.1453 7.53008L92.1453 7.53008L92.5473 7.74609C 92.34921 6.83398 91.6953 6.23398 90.8371 6.08984L90.8371 6.08984L90.8672 5.91016C 91.0172 5.91016 91.3832 5.96992 91.707 6.10195C 92.5172 6.42617 93.123 7.20586 93.123 8.310161C 93.123 9.12617 92.6852 9.810161 91.9352 9.810161z" stroke="#000000" stroke-width="0.4" fill="none" /><path id="1391" transform="matrix(1 0 0 -1 0 834)" d="M94.7313 8.02188C 95.27731 8.02188 95.5293 7.53008 95.5293 7.03203C 95.5293 6.63594 95.3852 6.13203 94.9172 6.13203C 94.42541 6.13203 94.1191 6.719921 94.1191 7.43984C 94.1191 7.59609 94.1254 7.73984 94.15511 7.85391C 94.2992 7.93203 94.50311 8.02188 94.7313 8.02188zM94.1852 8.057811C 94.3652 8.89219 94.923 9.26992 95.2891 9.44414C 95.5113 9.54609 95.7453 9.61797 95.94341 9.653911L95.94341 9.653911L95.90121 9.84609C 95.6613 9.80391 95.373 9.73789 95.1332 9.653911C 94.49731 9.419921 93.5852 8.74219 93.5852 7.428131C 93.5852 6.50391 94.1133 5.92813 94.8152 5.92813C 95.5352 5.92813 96.0453 6.53398 96.0453 7.24805C 96.0453 7.86602 95.607 8.35781 94.9652 8.35781C 94.8453 8.35781 94.7191 8.31602 94.5871 8.25586z" stroke="#000000" stroke-width="0.4" fill="none" /><path id="1410" transform="matrix(1 0 0 -1 0 834)" d="M554.472 6.83984C 554.292 6.46211 554.2141 6.43789 553.89 6.43789L553.89 6.43789L552.768 6.43789L552.768 6.43789L553.6201 7.33203C 554.1721 7.91992 554.412 8.273829 554.412 8.79609C 554.412 9.42617 553.932 9.810161 553.404 9.810161C 553.056 9.810161 552.774 9.653911 552.594 9.45586L552.594 9.45586L552.252 8.96992L552.252 8.96992L552.384 8.85C 552.54 9.08398 552.792 9.40781 553.2 9.40781C 553.644 9.40781 553.908 9.11406 553.908 8.61016C 553.908 8.09414 553.53 7.60195 553.158 7.15781C 552.858 6.81016 552.522 6.46797 552.186 6.13789L552.186 6.13789L552.186 6L552.186 6L554.43 6C 554.502 6.26992 554.562 6.53398 554.64 6.78594z" stroke="#000000" stroke-width="0.4" fill="none" /><path id="1411" transform="matrix(1 0 0 -1 0 834)" d="M555.792 9.3L557.19 9.3L557.19 9.3L557.346 9.68984L557.346 9.68984L557.31 9.73789L557.31 9.73789L555.6 9.73789L555.6 9.73789L555.366 7.90781C 555.504 7.96211 555.732 8.028131 555.984 8.028131C 556.638 8.028131 556.962 7.65 556.962 7.121881C 556.962 6.67188 556.71 6.23398 556.2 6.23398C 555.834 6.23398 555.588 6.42617 555.462 6.53984C 555.402 6.58789 555.354 6.58203 555.3 6.53984C 555.234 6.48008 555.18 6.40195 555.174 6.34219C 555.162 6.26992 555.192 6.22188 555.27 6.13789C 555.36 6.05391 555.612 5.92813 555.888 5.92813C 556.206 5.93398 556.608 6.08984 556.932 6.35391C 557.298 6.65391 557.466 6.99609 557.466 7.35586C 557.466 7.84805 557.076 8.369921 556.308 8.369921C 556.146 8.369921 555.864 8.273829 555.636 8.18984z" stroke="#000000" stroke-width="0.4" fill="none" /><path id="1412" transform="matrix(1 0 0 -1 0 834)" d="M559.548 9.989841L559.212 9.989841L559.212 9.989841L557.91 5.73594L557.91 5.73594L558.246 5.73594z" stroke="#000000" stroke-width="0.4" fill="none" /><path id="1413" transform="matrix(1 0 0 -1 0 834)" d="M561.18 9.61211C 561.72 9.61211 561.8701 8.72383 561.8701 7.871881C 561.8701 7.03203 561.726 6.13203 561.186 6.13203C 560.664 6.13203 560.49 7.03789 560.49 7.87813C 560.49 8.712111 560.634 9.61211 561.18 9.61211zM561.186 9.810161C 560.286 9.810161 559.956 8.74219 559.956 7.86602C 559.956 6.91797 560.28 5.92813 561.186 5.92813C 562.086 5.92813 562.404 6.99609 562.404 7.871881C 562.404 8.79609 562.086 9.810161 561.186 9.810161z" stroke="#000000" stroke-width="0.4" fill="none" /><path id="1414" transform="matrix(1 0 0 -1 0 834)" d="M564 9.61211C 564.582 9.61211 564.738 8.86797 564.738 8.33984C 564.738 8.21992 564.732 8.076171 564.7141 7.94414C 564.588 7.84805 564.384 7.77617 564.174 7.77617C 563.67 7.77617 563.3701 8.214061 563.3701 8.74219C 563.3701 9.09609 563.538 9.61211 564 9.61211zM564.078 9.810161C 563.304 9.810161 562.854 9.10781 562.854 8.53203C 562.854 7.90195 563.292 7.43398 563.928 7.43398C 564.042 7.43398 564.156 7.45781 564.288 7.53008L564.288 7.53008L564.69 7.74609C 564.492 6.83398 563.838 6.23398 562.98 6.08984L562.98 6.08984L563.01 5.91016C 563.16 5.91016 563.526 5.96992 563.85 6.10195C 564.66 6.42617 565.2661 7.20586 565.2661 8.310161C 565.2661 9.12617 564.828 9.810161 564.078 9.810161z" stroke="#000000" stroke-width="0.4" fill="none" /><path id="1415" transform="matrix(1 0 0 -1 0 834)" d="M567.294 9.989841L566.958 9.989841L566.958 9.989841L565.656 5.73594L565.656 5.73594L565.992 5.73594z" stroke="#000000" stroke-width="0.4" fill="none" /><path id="1416" transform="matrix(1 0 0 -1 0 834)" d="M569.9641 6.83984C 569.784 6.46211 569.706 6.43789 569.382 6.43789L569.382 6.43789L568.26 6.43789L568.26 6.43789L569.112 7.33203C 569.664 7.91992 569.904 8.273829 569.904 8.79609C 569.904 9.42617 569.424 9.810161 568.896 9.810161C 568.548 9.810161 568.2661 9.653911 568.086 9.45586L568.086 9.45586L567.744 8.96992L567.744 8.96992L567.876 8.85C 568.032 9.08398 568.284 9.40781 568.692 9.40781C 569.136 9.40781 569.4 9.11406 569.4 8.61016C 569.4 8.09414 569.022 7.60195 568.65 7.15781C 568.35 6.81016 568.014 6.46797 567.678 6.13789L567.678 6.13789L567.678 6L567.678 6L569.9221 6C 569.994 6.26992 570.054 6.53398 570.132 6.78594z" stroke="#000000" stroke-width="0.4" fill="none" /><path id="1417" transform="matrix(1 0 0 -1 0 834)" d="M571.806 9.61211C 572.346 9.61211 572.496 8.72383 572.496 7.871881C 572.496 7.03203 572.352 6.13203 571.812 6.13203C 571.29 6.13203 571.116 7.03789 571.116 7.87813C 571.116 8.712111 571.26 9.61211 571.806 9.61211zM571.812 9.810161C 570.912 9.810161 570.582 8.74219 570.582 7.86602C 570.582 6.91797 570.906 5.92813 571.812 5.92813C 572.712 5.92813 573.03 6.99609 573.03 7.871881C 573.03 8.79609 572.712 9.810161 571.812 9.810161z" stroke="#000000" stroke-width="0.4" fill="none" /><path id="1418" transform="matrix(1 0 0 -1 0 834)" d="M575.556 6L575.556 6.16211C 575.01 6.20391 574.9741 6.25195 574.9741 6.68398L574.9741 6.68398L574.9741 9.810161C 574.644 9.67813 574.29 9.56406 573.906 9.49805L573.906 9.49805L573.906 9.36016L573.906 9.36016L574.194 9.34805C 574.458 9.33594 574.482 9.305861 574.482 8.99414L574.482 8.99414L574.482 6.68398C 574.482 6.25195 574.452 6.20391 573.906 6.16211L573.906 6.16211L573.906 6z" stroke="#000000" stroke-width="0.4" fill="none" /><path id="1419" transform="matrix(1 0 0 -1 0 834)" d="M578.814 9.73789L576.522 9.73789C 576.498 9.48008 576.468 9.180079 576.414 8.85L576.414 8.85L576.588 8.85C 576.732 9.24609 576.768 9.3 577.164 9.3L577.164 9.3L578.46 9.3C 577.986 8.25586 577.308 7.01406 576.678 5.99414L576.678 5.99414L576.72 5.92813L576.72 5.92813L577.164 5.98789C 577.74 7.22383 578.298 8.44805 578.862 9.66602z" stroke="#000000" stroke-width="0.4" fill="none" /><path id="1420" transform="matrix(1 0 0 -1 0 834)" d="M584.531 9.61211C 585.071 9.61211 585.221 8.72383 585.221 7.871881C 585.221 7.03203 585.077 6.13203 584.537 6.13203C 584.015 6.13203 583.841 7.03789 583.841 7.87813C 583.841 8.712111 583.985 9.61211 584.531 9.61211zM584.537 9.810161C 583.637 9.810161 583.307 8.74219 583.307 7.86602C 583.307 6.91797 583.631 5.92813 584.537 5.92813C 585.437 5.92813 585.755 6.99609 585.755 7.871881C 585.755 8.79609 585.437 9.810161 584.537 9.810161z" stroke="#000000" stroke-width="0.4" fill="none" /><path id="1421" transform="matrix(1 0 0 -1 0 834)" d="M588.449 6.83984C 588.269 6.46211 588.191 6.43789 587.867 6.43789L587.867 6.43789L586.7451 6.43789L586.7451 6.43789L587.597 7.33203C 588.149 7.91992 588.389 8.273829 588.389 8.79609C 588.389 9.42617 587.909 9.810161 587.381 9.810161C 587.033 9.810161 586.751 9.653911 586.571 9.45586L586.571 9.45586L586.229 8.96992L586.229 8.96992L586.361 8.85C 586.517 9.08398 586.769 9.40781 587.177 9.40781C 587.621 9.40781 587.885 9.11406 587.885 8.61016C 587.885 8.09414 587.507 7.60195 587.135 7.15781C 586.835 6.81016 586.499 6.46797 586.163 6.13789L586.163 6.13789L586.163 6L586.163 6L588.407 6C 588.479 6.26992 588.539 6.53398 588.617 6.78594z" stroke="#000000" stroke-width="0.4" fill="none" /><path id="1422" transform="matrix(1 0 0 -1 0 834)" d="M589.5471 5.92813C 589.739 5.92813 589.883 6.06602 589.883 6.27617C 589.883 6.46797 589.739 6.61797 589.5471 6.61797C 589.355 6.61797 589.211 6.46797 589.211 6.27617C 589.211 6.06602 589.355 5.92813 589.5471 5.92813zM589.541 8.466021C 589.3491 8.466021 589.211 8.328131 589.211 8.13008C 589.211 7.92617 589.3491 7.78203 589.541 7.78203C 589.733 7.78203 589.877 7.92617 589.877 8.13008C 589.877 8.328131 589.733 8.466021 589.541 8.466021z" stroke="#000000" stroke-width="0.4" fill="none" /><path id="1423" transform="matrix(1 0 0 -1 0 834)" d="M591.137 9.3L592.535 9.3L592.535 9.3L592.691 9.68984L592.691 9.68984L592.655 9.73789L592.655 9.73789L590.945 9.73789L590.945 9.73789L590.711 7.90781C 590.8491 7.96211 591.077 8.028131 591.329 8.028131C 591.983 8.028131 592.307 7.65 592.307 7.121881C 592.307 6.67188 592.055 6.23398 591.545 6.23398C 591.179 6.23398 590.933 6.42617 590.807 6.53984C 590.747 6.58789 590.699 6.58203 590.645 6.53984C 590.579 6.48008 590.525 6.40195 590.519 6.34219C 590.507 6.26992 590.537 6.22188 590.615 6.13789C 590.705 6.05391 590.957 5.92813 591.233 5.92813C 591.551 5.93398 591.953 6.08984 592.277 6.35391C 592.643 6.65391 592.811 6.99609 592.811 7.35586C 592.811 7.84805 592.421 8.369921 591.653 8.369921C 591.491 8.369921 591.209 8.273829 590.981 8.18984z" stroke="#000000" stroke-width="0.4" fill="none" /><path id="1424" transform="matrix(1 0 0 -1 0 834)" d="M595.577 6.83984C 595.397 6.46211 595.319 6.43789 594.9951 6.43789L594.9951 6.43789L593.873 6.43789L593.873 6.43789L594.725 7.33203C 595.277 7.91992 595.517 8.273829 595.517 8.79609C 595.517 9.42617 595.037 9.810161 594.509 9.810161C 594.161 9.810161 593.879 9.653911 593.699 9.45586L593.699 9.45586L593.357 8.96992L593.357 8.96992L593.489 8.85C 593.645 9.08398 593.897 9.40781 594.305 9.40781C 594.749 9.40781 595.013 9.11406 595.013 8.61016C 595.013 8.09414 594.635 7.60195 594.263 7.15781C 593.963 6.81016 593.627 6.46797 593.291 6.13789L593.291 6.13789L593.291 6L593.291 6L595.535 6C 595.607 6.26992 595.667 6.53398 595.7451 6.78594z" stroke="#000000" stroke-width="0.4" fill="none" /><path id="1425" transform="matrix(1 0 0 -1 0 834)" d="M596.675 5.92813C 596.867 5.92813 597.011 6.06602 597.011 6.27617C 597.011 6.46797 596.867 6.61797 596.675 6.61797C 596.483 6.61797 596.3391 6.46797 596.3391 6.27617C 596.3391 6.06602 596.483 5.92813 596.675 5.92813zM596.669 8.466021C 596.477 8.466021 596.3391 8.328131 596.3391 8.13008C 596.3391 7.92617 596.477 7.78203 596.669 7.78203C 596.861 7.78203 597.005 7.92617 597.005 8.13008C 597.005 8.328131 596.861 8.466021 596.669 8.466021z" stroke="#000000" stroke-width="0.4" fill="none" /><path id="1426" transform="matrix(1 0 0 -1 0 834)" d="M599.657 6L599.657 6.16211C 599.111 6.20391 599.075 6.25195 599.075 6.68398L599.075 6.68398L599.075 9.810161C 598.7451 9.67813 598.3911 9.56406 598.007 9.49805L598.007 9.49805L598.007 9.36016L598.007 9.36016L598.295 9.34805C 598.559 9.33594 598.583 9.305861 598.583 8.99414L598.583 8.99414L598.583 6.68398C 598.583 6.25195 598.553 6.20391 598.007 6.16211L598.007 6.16211L598.007 6z" stroke="#000000" stroke-width="0.4" fill="none" /><path id="1427" transform="matrix(1 0 0 -1 0 834)" d="M601.715 6.11992C 601.337 6.11992 600.983 6.42617 600.983 6.97813C 600.983 7.30781 601.187 7.60781 601.475 7.8C 601.937 7.56602 602.363 7.30781 602.363 6.85781C 602.363 6.39609 602.081 6.11992 601.715 6.11992zM601.661 9.61797C 601.937 9.61797 602.249 9.396091 602.249 8.89219C 602.249 8.53203 602.087 8.310161 601.883 8.14805C 601.457 8.35781 601.103 8.555861 601.103 9C 601.103 9.305861 601.307 9.61797 601.661 9.61797zM601.721 9.810161C 601.079 9.810161 600.653 9.33008 600.653 8.826171C 600.653 8.40586 600.911 8.11797 601.301 7.89609C 601.097 7.76406 600.869 7.60195 600.773 7.51211C 600.6411 7.38594 600.503 7.21797 600.503 6.94219C 600.503 6.3 601.013 5.92813 601.655 5.92813C 602.165 5.92813 602.843 6.31211 602.843 7.01406C 602.843 7.53594 602.465 7.82383 602.051 8.057811C 602.321 8.24414 602.483 8.38789 602.525 8.44219C 602.639 8.57383 602.699 8.74805 602.699 8.921881C 602.699 9.40781 602.291 9.810161 601.721 9.810161z" stroke="#000000" stroke-width="0.4" fill="none" /><path id="1428" transform="matrix(1 0 0 -1 0 834)" d="M605.489 8.08203C 605.651 8.20195 605.897 8.33398 606.0891 8.33398C 606.527 8.33398 606.893 7.97383 606.893 7.33203C 606.893 6.65391 606.557 6.22188 606.053 6.22188C 605.8491 6.22188 605.621 6.31797 605.489 6.45586zM605.489 8.28008L605.489 8.75391C 605.207 8.63984 604.871 8.53789 604.619 8.49609L604.619 8.49609L604.619 8.351951C 604.991 8.30391 605.015 8.29219 605.015 7.90195L605.015 7.90195L605.015 5.18984C 605.015 4.79414 604.961 4.75781 604.577 4.72188L604.577 4.72188L604.577 4.56016L604.577 4.56016L605.999 4.56016L605.999 4.56016L605.999 4.72188C 605.531 4.76406 605.489 4.79414 605.489 5.25L605.489 5.25L605.489 6.03594C 605.567 5.99414 605.729 5.93398 605.903 5.92813C 606.683 6.07188 607.397 6.65391 607.397 7.56016C 607.397 8.153911 607.001 8.69414 606.335 8.69414C 606.263 8.69414 606.149 8.664061 606.041 8.60391z" stroke="#000000" stroke-width="0.4" fill="none" /><path id="1429" transform="matrix(1 0 0 -1 0 834)" d="M608.303 5.92813C 608.4951 5.92813 608.639 6.06602 608.639 6.27617C 608.639 6.46797 608.4951 6.61797 608.303 6.61797C 608.111 6.61797 607.967 6.46797 607.967 6.27617C 607.967 6.06602 608.111 5.92813 608.303 5.92813z" stroke="#000000" stroke-width="0.4" fill="none" /><path id="1430" transform="matrix(1 0 0 -1 0 834)" d="M615.125 6L615.125 6.15586C 614.783 6.19219 614.735 6.21602 614.735 6.61797L614.735 6.61797L614.735 7.77617C 614.735 8.36406 614.441 8.69414 613.973 8.69414C 613.805 8.69414 613.649 8.621881 613.523 8.53789C 613.373 8.44805 613.199 8.33398 613.025 8.20195C 612.905 8.51406 612.647 8.69414 612.359 8.69414C 612.167 8.69414 612.023 8.628131 611.867 8.53203C 611.687 8.417971 611.555 8.310161 611.429 8.226171L611.429 8.226171L611.429 8.712111C 611.165 8.59219 610.859 8.51406 610.595 8.466021L610.595 8.466021L610.595 8.328131C 610.9431 8.273829 610.961 8.24414 610.961 7.86016L610.961 7.86016L610.961 6.61797C 610.961 6.22813 610.907 6.19219 610.511 6.15586L610.511 6.15586L610.511 6L610.511 6L611.777 6L611.777 6L611.777 6.15586C 611.483 6.19219 611.435 6.22813 611.435 6.61797L611.435 6.61797L611.435 8.028131C 611.615 8.17813 611.8491 8.33984 612.0891 8.33984C 612.455 8.33984 612.611 8.09414 612.611 7.65L612.611 7.65L612.611 6.61797C 612.611 6.22188 612.557 6.19219 612.185 6.15586L612.185 6.15586L612.185 6L612.185 6L613.469 6L613.469 6L613.469 6.15586C 613.139 6.19219 613.085 6.22813 613.085 6.60586L613.085 6.60586L613.085 7.77617C 613.085 7.88984 613.079 7.95586 613.067 8.028131C 613.295 8.21992 613.523 8.33984 613.739 8.33984C 614.117 8.33984 614.267 8.069921 614.267 7.64414L614.267 7.64414L614.267 6.64219C 614.267 6.21602 614.201 6.19219 613.847 6.15586L613.847 6.15586L613.847 6z" stroke="#000000" stroke-width="0.4" fill="none" /><path id="1431" transform="matrix(1 0 0 -1 0 834)" d="M615.947 5.92813C 616.139 5.92813 616.283 6.06602 616.283 6.27617C 616.283 6.46797 616.139 6.61797 615.947 6.61797C 615.755 6.61797 615.611 6.46797 615.611 6.27617C 615.611 6.06602 615.755 5.92813 615.947 5.92813z" stroke="#000000" stroke-width="0.4" fill="none" /></g></g></svg>