<svg xmlns="http://www.w3.org/2000/svg" xmlns:xlink="http://www.w3.org/1999/xlink" id="body_1" preserveAspectRatio="xMinYMin meet" viewBox="0 0 872 1112"><defs><clipPath id="1"><path id="" clip-rule="evenodd" transform="matrix(1 0 0 1 0 0)" d="M0 834L0 0L0 0L654 0L654 0L654 834L654 834L0 834z" /></clipPath><clipPath id="2"><path id="" clip-rule="evenodd" transform="matrix(1 0 0 1 0 0)" d="M21 813L633 813L633 813L633 21L633 21L21 21z" /></clipPath><clipPath id="3"><path id="" clip-rule="evenodd" transform="matrix(1 0 0 1 0 0)" d="M370.978 266.077L449.4288 266.077L449.4288 266.077L449.4288 131.343L449.4288 131.343L370.978 131.343z" /></clipPath><clipPath id="4"><path id="" clip-rule="evenodd" transform="matrix(1 0 0 1 0 0)" d="M370.978 266.077L449.4288 266.077L449.4288 266.077L449.4288 131.343L449.4288 131.343L370.978 131.343z" /></clipPath><clipPath id="5"><path id="" clip-rule="evenodd" transform="matrix(1 0 0 1 0 0)" d="M451.983 266.487L535.3064 266.487L535.3064 266.487L535.3064 131.754L535.3064 131.754L451.983 131.754z" /></clipPath><clipPath id="6"><path id="" clip-rule="evenodd" transform="matrix(1 0 0 1 0 0)" d="M451.983 266.487L535.3064 266.487L535.3064 266.487L535.3064 131.754L535.3064 131.754L451.983 131.754z" /></clipPath><clipPath id="7"><path id="" clip-rule="evenodd" transform="matrix(1 0 0 1 0 0)" d="M299.342 266.077L367.3154 266.077L367.3154 266.077L367.3154 131.343L367.3154 131.343L299.342 131.343z" /></clipPath><clipPath id="8"><path id="" clip-rule="evenodd" transform="matrix(1 0 0 1 0 0)" d="M299.342 266.077L367.3154 266.077L367.3154 266.077L367.3154 131.343L367.3154 131.343L299.342 131.343z" /></clipPath><clipPath id="9"><path id="" clip-rule="evenodd" transform="matrix(1 0 0 1 0 0)" d="M296.953 266.488L535.306 266.488L535.306 266.488L535.306 131.342L535.306 131.342L296.953 131.342z" /></clipPath><clipPath id="10"><path id="" clip-rule="evenodd" transform="matrix(1 0 0 1 0 0)" d="M304.875 201.403L322.6 201.403L322.6 201.403L322.6 196.0159L322.6 196.0159L304.875 196.0159z" /></clipPath><clipPath id="11"><path id="" clip-rule="evenodd" transform="matrix(1 0 0 1 0 0)" d="M304.875 201.403L322.6 201.403L322.6 201.403L322.6 196.016L322.6 196.016L304.875 196.016z" /></clipPath><clipPath id="12"><path id="" clip-rule="evenodd" transform="matrix(1 0 0 1 0 0)" d="M304.875 201.403L322.6 201.403L322.6 201.403L322.6 196.0159L322.6 196.0159L304.875 196.0159z" /></clipPath><clipPath id="13"><path id="" clip-rule="evenodd" transform="matrix(1 0 0 1 0 0)" d="M348.65 201.839L362.0109 201.839L362.0109 201.839L362.0109 196.4531L362.0109 196.4531L348.65 196.4531z" /></clipPath><clipPath id="14"><path id="" clip-rule="evenodd" transform="matrix(1 0 0 1 0 0)" d="M348.65 201.839L362.011 201.839L362.011 201.839L362.011 196.4529L362.011 196.4529L348.65 196.4529z" /></clipPath><clipPath id="15"><path id="" clip-rule="evenodd" transform="matrix(1 0 0 1 0 0)" d="M348.65 201.839L362.0109 201.839L362.0109 201.839L362.0109 196.4519L362.0109 196.4519L348.65 196.4519z" /></clipPath><clipPath id="16"><path id="" clip-rule="evenodd" transform="matrix(1 0 0 1 0 0)" d="M348.65 201.839L362.0109 201.839L362.0109 201.839L362.0109 196.4531L362.0109 196.4531L348.65 196.4531z" /></clipPath><clipPath id="17"><path id="" clip-rule="evenodd" transform="matrix(1 0 0 1 0 0)" d="M296.953 266.488L535.306 266.488L535.306 266.488L535.306 131.342L535.306 131.342L296.953 131.342z" /></clipPath><clipPath id="18"><path id="" clip-rule="evenodd" transform="matrix(1 0 0 1 0 0)" d="M296.953 266.488L535.306 266.488L535.306 266.488L535.306 131.342L535.306 131.342L296.953 131.342z" /></clipPath><clipPath id="19"><path id="" clip-rule="evenodd" transform="matrix(1 0 0 1 0 0)" d="M296.953 266.488L535.306 266.488L535.306 266.488L535.306 131.342L535.306 131.342L296.953 131.342z" /></clipPath><clipPath id="20"><path id="" clip-rule="evenodd" transform="matrix(1 0 0 1 0 0)" d="M341.849 190.452L346.4103 190.452L346.4103 190.452L346.4103 185.9781L346.4103 185.9781L341.849 185.9781z" /></clipPath><clipPath id="21"><path id="" clip-rule="evenodd" transform="matrix(1 0 0 1 0 0)" d="M341.849 190.452L346.41 190.452L346.41 190.452L346.41 185.978L346.41 185.978L341.849 185.978z" /></clipPath><clipPath id="22"><path id="" clip-rule="evenodd" transform="matrix(1 0 0 1 0 0)" d="M341.849 190.452L346.4111 190.452L346.4111 190.452L346.4111 185.9789L346.4111 185.9789L341.849 185.9789z" /></clipPath><clipPath id="23"><path id="" clip-rule="evenodd" transform="matrix(1 0 0 1 0 0)" d="M325.504 189.886L329.6333 189.886L329.6333 189.886L329.6333 184.9442L329.6333 184.9442L325.504 184.9442z" /></clipPath><clipPath id="24"><path id="" clip-rule="evenodd" transform="matrix(1 0 0 1 0 0)" d="M325.504 189.886L329.633 189.886L329.633 189.886L329.633 184.944L329.633 184.944L325.504 184.944z" /></clipPath><clipPath id="25"><path id="" clip-rule="evenodd" transform="matrix(1 0 0 1 0 0)" d="M325.504 189.886L329.6329 189.886L329.6329 189.886L329.6329 184.9449L329.6329 184.9449L325.504 184.9449z" /></clipPath><clipPath id="26"><path id="" clip-rule="evenodd" transform="matrix(1 0 0 1 0 0)" d="M323.99 203.398L328.5513 203.398L328.5513 203.398L328.5513 198.9238L328.5513 198.9238L323.99 198.9238z" /></clipPath><clipPath id="27"><path id="" clip-rule="evenodd" transform="matrix(1 0 0 1 0 0)" d="M323.99 203.398L328.551 203.398L328.551 203.398L328.551 198.924L328.551 198.924L323.99 198.924z" /></clipPath><clipPath id="28"><path id="" clip-rule="evenodd" transform="matrix(1 0 0 1 0 0)" d="M323.99 203.398L328.5521 203.398L328.5521 203.398L328.5521 198.9249L328.5521 198.9249L323.99 198.9249z" /></clipPath><clipPath id="29"><path id="" clip-rule="evenodd" transform="matrix(1 0 0 1 0 0)" d="M343.743 204.82L347.8731 204.82L347.8731 204.82L347.8731 199.8782L347.8731 199.8782L343.743 199.8782z" /></clipPath><clipPath id="30"><path id="" clip-rule="evenodd" transform="matrix(1 0 0 1 0 0)" d="M343.743 204.82L347.873 204.82L347.873 204.82L347.873 199.878L347.873 199.878L343.743 199.878z" /></clipPath><clipPath id="31"><path id="" clip-rule="evenodd" transform="matrix(1 0 0 1 0 0)" d="M343.743 204.82L347.8719 204.82L347.8719 204.82L347.8719 199.879L347.8719 199.879L343.743 199.879z" /></clipPath><clipPath id="32"><path id="" clip-rule="evenodd" transform="matrix(1 0 0 1 0 0)" d="M321.363 195.021L326.881 195.021L326.881 195.021L326.881 193.9178L326.881 193.9178L321.363 193.9178z" /></clipPath><clipPath id="33"><path id="" clip-rule="evenodd" transform="matrix(1 0 0 1 0 0)" d="M321.363 195.021L326.881 195.021L326.881 195.021L326.881 193.918L326.881 193.918L321.363 193.918z" /></clipPath><clipPath id="34"><path id="" clip-rule="evenodd" transform="matrix(1 0 0 1 0 0)" d="M321.363 195.021L326.881 195.021L326.881 195.021L326.881 193.9178L326.881 193.9178L321.363 193.9178z" /></clipPath><clipPath id="35"><path id="" clip-rule="evenodd" transform="matrix(1 0 0 1 0 0)" d="M344.872 195.267L350.3701 195.267L350.3701 195.267L350.3701 194.4271L350.3701 194.4271L344.872 194.4271z" /></clipPath><clipPath id="36"><path id="" clip-rule="evenodd" transform="matrix(1 0 0 1 0 0)" d="M344.872 195.267L350.37 195.267L350.37 195.267L350.37 194.427L350.37 194.427L344.872 194.427z" /></clipPath><clipPath id="37"><path id="" clip-rule="evenodd" transform="matrix(1 0 0 1 0 0)" d="M344.872 195.267L350.3701 195.267L350.3701 195.267L350.3701 194.4271L350.3701 194.4271L344.872 194.4271z" /></clipPath><clipPath id="38"><path id="" clip-rule="evenodd" transform="matrix(1 0 0 1 0 0)" d="M367.771 488.717L523.529 488.717L523.529 488.717L523.529 351.311L523.529 351.311L367.771 351.311z" /></clipPath><clipPath id="39"><path id="" clip-rule="evenodd" transform="matrix(1 0 0 1 0 0)" d="M367.772 488.085L457.1931 488.085L457.1931 488.085L457.1931 351.311L457.1931 351.311L367.772 351.311z" /></clipPath><clipPath id="40"><path id="" clip-rule="evenodd" transform="matrix(1 0 0 1 0 0)" d="M367.772 488.085L457.1931 488.085L457.1931 488.085L457.1931 351.311L457.1931 351.311L367.772 351.311z" /></clipPath><clipPath id="41"><path id="" clip-rule="evenodd" transform="matrix(1 0 0 1 0 0)" d="M367.771 488.717L523.529 488.717L523.529 488.717L523.529 351.311L523.529 351.311L367.771 351.311z" /></clipPath><clipPath id="42"><path id="" clip-rule="evenodd" transform="matrix(1 0 0 1 0 0)" d="M454.011 409.533C 447.389 414.685 442.281 421.756 439.485 429.934L439.485 429.934L439.485 429.934L439.485 429.934L439.485 458.74C 445.325 475.826 461.263 488.085 480.009 488.085L480.009 488.085L480.009 488.085C 503.703 488.085 522.911 468.498 522.911 444.337L522.911 444.337L522.911 444.337C 522.911 430.142 516.281 417.526 506.006 409.533L506.006 409.533L506.006 409.533z" /></clipPath><clipPath id="43"><path id="" clip-rule="evenodd" transform="matrix(1 0 0 1 0 0)" d="M454.011 409.533C 447.389 414.685 442.281 421.756 439.485 429.934L439.485 429.934L439.485 429.934L439.485 429.934L439.485 458.74C 445.325 475.826 461.263 488.085 480.009 488.085L480.009 488.085L480.009 488.085C 503.703 488.085 522.911 468.498 522.911 444.337L522.911 444.337L522.911 444.337C 522.911 430.142 516.281 417.526 506.006 409.533L506.006 409.533L506.006 409.533z" /></clipPath><clipPath id="44"><path id="" clip-rule="evenodd" transform="matrix(1 0 0 1 0 0)" d="M367.771 488.717L523.529 488.717L523.529 488.717L523.529 351.311L523.529 351.311L367.771 351.311z" /></clipPath><clipPath id="45"><path id="" clip-rule="evenodd" transform="matrix(1 0 0 1 0 0)" d="M262.582 166.074L300.85 166.074L300.85 166.074L300.85 109.1572L300.85 109.1572L262.582 109.1572z" /></clipPath><clipPath id="46"><path id="" clip-rule="evenodd" transform="matrix(1 0 0 1 0 0)" d="M262.582 166.074L300.85 166.074L300.85 166.074L300.85 109.1572L300.85 109.1572L262.582 109.1572z" /></clipPath><clipPath id="47"><path id="" clip-rule="evenodd" transform="matrix(1 0 0 1 0 0)" d="M258.826 376.789L301.203 376.789L301.203 376.789L301.203 342.1249L301.203 342.1249L258.826 342.1249z" /></clipPath><clipPath id="48"><path id="" clip-rule="evenodd" transform="matrix(1 0 0 1 0 0)" d="M258.826 376.789L301.203 376.789L301.203 376.789L301.203 342.1249L301.203 342.1249L258.826 342.1249z" /></clipPath><clipPath id="49"><path id="" clip-rule="evenodd" transform="matrix(1 0 0 1 0 0)" d="M262.37 200.508L287.9673 200.508L287.9673 200.508L287.9673 164.649L287.9673 164.649L262.37 164.649z" /></clipPath><clipPath id="50"><path id="" clip-rule="evenodd" transform="matrix(1 0 0 1 0 0)" d="M262.37 200.508L287.9673 200.508L287.9673 200.508L287.9673 164.649L287.9673 164.649L262.37 164.649z" /></clipPath><clipPath id="51"><path id="" clip-rule="evenodd" transform="matrix(1 0 0 1 0 0)" d="M262.37 236.366L287.9673 236.366L287.9673 236.366L287.9673 200.5082L287.9673 200.5082L262.37 200.5082z" /></clipPath><clipPath id="52"><path id="" clip-rule="evenodd" transform="matrix(1 0 0 1 0 0)" d="M262.37 236.366L287.9673 236.366L287.9673 236.366L287.9673 200.5082L287.9673 200.5082L262.37 200.5082z" /></clipPath><clipPath id="53"><path id="" clip-rule="evenodd" transform="matrix(1 0 0 1 0 0)" d="M262.37 272.225L292.1341 272.225L292.1341 272.225L292.1341 236.366L292.1341 236.366L262.37 236.366z" /></clipPath><clipPath id="54"><path id="" clip-rule="evenodd" transform="matrix(1 0 0 1 0 0)" d="M262.37 272.225L292.1341 272.225L292.1341 272.225L292.1341 236.366L292.1341 236.366L262.37 236.366z" /></clipPath><clipPath id="55"><path id="" clip-rule="evenodd" transform="matrix(1 0 0 1 0 0)" d="M530.527 266.622L560.2911 266.622L560.2911 266.622L560.2911 230.7642L560.2911 230.7642L530.527 230.7642z" /></clipPath><clipPath id="56"><path id="" clip-rule="evenodd" transform="matrix(1 0 0 1 0 0)" d="M530.527 266.622L560.2911 266.622L560.2911 266.622L560.2911 230.7642L560.2911 230.7642L530.527 230.7642z" /></clipPath><clipPath id="57"><path id="" clip-rule="evenodd" transform="matrix(1 0 0 1 0 0)" d="M531.576 227.366L557.1729 227.366L557.1729 227.366L557.1729 191.5082L557.1729 191.5082L531.576 191.5082z" /></clipPath><clipPath id="58"><path id="" clip-rule="evenodd" transform="matrix(1 0 0 1 0 0)" d="M531.576 227.366L557.1729 227.366L557.1729 227.366L557.1729 191.5082L557.1729 191.5082L531.576 191.5082z" /></clipPath><clipPath id="59"><path id="" clip-rule="evenodd" transform="matrix(1 0 0 1 0 0)" d="M530.868 191.508L556.465 191.508L556.465 191.508L556.465 155.649L556.465 155.649L530.868 155.649z" /></clipPath><clipPath id="60"><path id="" clip-rule="evenodd" transform="matrix(1 0 0 1 0 0)" d="M530.868 191.508L556.465 191.508L556.465 191.508L556.465 155.649L556.465 155.649L530.868 155.649z" /></clipPath><clipPath id="61"><path id="" clip-rule="evenodd" transform="matrix(1 0 0 1 0 0)" d="M330.643 417L356.2399 417L356.2399 417L356.2399 381.141L356.2399 381.141L330.643 381.141z" /></clipPath><clipPath id="62"><path id="" clip-rule="evenodd" transform="matrix(1 0 0 1 0 0)" d="M330.643 417L356.2399 417L356.2399 417L356.2399 381.141L356.2399 381.141L330.643 381.141z" /></clipPath><clipPath id="63"><path id="" clip-rule="evenodd" transform="matrix(1 0 0 1 0 0)" d="M330.643 452.717L356.2399 452.717L356.2399 452.717L356.2399 417.0014L356.2399 417.0014L330.643 417.0014z" /></clipPath><clipPath id="64"><path id="" clip-rule="evenodd" transform="matrix(1 0 0 1 0 0)" d="M330.643 452.717L356.2399 452.717L356.2399 452.717L356.2399 417.0014L356.2399 417.0014L330.643 417.0014z" /></clipPath><clipPath id="65"><path id="" clip-rule="evenodd" transform="matrix(1 0 0 1 0 0)" d="M340.719 706.984L415.3217 706.984L415.3217 706.984L415.3217 571.52L415.3217 571.52L340.719 571.52z" /></clipPath><clipPath id="66"><path id="" clip-rule="evenodd" transform="matrix(1 0 0 1 0 0)" d="M340.719 706.984L415.3217 706.984L415.3217 706.984L415.3217 571.52L415.3217 571.52L340.719 571.52z" /></clipPath><clipPath id="67"><path id="" clip-rule="evenodd" transform="matrix(1 0 0 1 0 0)" d="M431.249 706.952L505.8517 706.952L505.8517 706.952L505.8517 571.488L505.8517 571.488L431.249 571.488z" /></clipPath><clipPath id="68"><path id="" clip-rule="evenodd" transform="matrix(1 0 0 1 0 0)" d="M431.249 706.952L505.8517 706.952L505.8517 706.952L505.8517 571.488L505.8517 571.488L431.249 571.488z" /></clipPath><clipPath id="69"><path id="" clip-rule="evenodd" transform="matrix(1 0 0 1 0 0)" d="M363.267 646.488L367.5119 646.488L367.5119 646.488L367.5119 642.3911L367.5119 642.3911L363.267 642.3911z" /></clipPath><clipPath id="70"><path id="" clip-rule="evenodd" transform="matrix(1 0 0 1 0 0)" d="M363.267 646.488L367.512 646.488L367.512 646.488L367.512 642.391L367.512 642.391L363.267 642.391z" /></clipPath><clipPath id="71"><path id="" clip-rule="evenodd" transform="matrix(1 0 0 1 0 0)" d="M363.267 646.488L367.5107 646.488L367.5107 646.488L367.5107 642.3911L367.5107 642.3911L363.267 642.3911z" /></clipPath><clipPath id="72"><path id="" clip-rule="evenodd" transform="matrix(1 0 0 1 0 0)" d="M362.827 642.146L367.952 642.146L367.952 642.146L367.952 634.7538L367.952 634.7538L362.827 634.7538z" /></clipPath><clipPath id="73"><path id="" clip-rule="evenodd" transform="matrix(1 0 0 1 0 0)" d="M362.827 642.146L367.952 642.146L367.952 642.146L367.952 634.754L367.952 634.754L362.827 634.754z" /></clipPath><clipPath id="74"><path id="" clip-rule="evenodd" transform="matrix(1 0 0 1 0 0)" d="M362.827 642.146L367.9532 642.146L367.9532 642.146L367.9532 634.7538L367.9532 634.7538L362.827 634.7538z" /></clipPath><clipPath id="75"><path id="" clip-rule="evenodd" transform="matrix(1 0 0 1 0 0)" d="M362.827 642.146L367.952 642.146L367.952 642.146L367.952 634.7538L367.952 634.7538L362.827 634.7538z" /></clipPath><clipPath id="76"><path id="" clip-rule="evenodd" transform="matrix(1 0 0 1 0 0)" d="M362.827 654.081L367.952 654.081L367.952 654.081L367.952 646.6892L367.952 646.6892L362.827 646.6892z" /></clipPath><clipPath id="77"><path id="" clip-rule="evenodd" transform="matrix(1 0 0 1 0 0)" d="M362.827 654.081L367.952 654.081L367.952 654.081L367.952 646.689L367.952 646.689L362.827 646.689z" /></clipPath><clipPath id="78"><path id="" clip-rule="evenodd" transform="matrix(1 0 0 1 0 0)" d="M362.827 654.081L367.9532 654.081L367.9532 654.081L367.9532 646.6892L367.9532 646.6892L362.827 646.6892z" /></clipPath><clipPath id="79"><path id="" clip-rule="evenodd" transform="matrix(1 0 0 1 0 0)" d="M362.827 654.081L367.952 654.081L367.952 654.081L367.952 646.6892L367.952 646.6892L362.827 646.6892z" /></clipPath><clipPath id="80"><path id="" clip-rule="evenodd" transform="matrix(1 0 0 1 0 0)" d="M340.719 706.984L505.851 706.984L505.851 706.984L505.851 571.488L505.851 571.488L340.719 571.488z" /></clipPath><clipPath id="81"><path id="" clip-rule="evenodd" transform="matrix(1 0 0 1 0 0)" d="M260.881 608.563L299.149 608.563L299.149 608.563L299.149 551.6462L299.149 551.6462L260.881 551.6462z" /></clipPath><clipPath id="82"><path id="" clip-rule="evenodd" transform="matrix(1 0 0 1 0 0)" d="M260.881 608.563L299.149 608.563L299.149 608.563L299.149 551.6462L299.149 551.6462L260.881 551.6462z" /></clipPath><clipPath id="83"><path id="" clip-rule="evenodd" transform="matrix(1 0 0 1 0 0)" d="M317.079 615.962L344.5173 615.962L344.5173 615.962L344.5173 580.103L344.5173 580.103L317.079 580.103z" /></clipPath><clipPath id="84"><path id="" clip-rule="evenodd" transform="matrix(1 0 0 1 0 0)" d="M317.079 615.962L344.5173 615.962L344.5173 615.962L344.5173 580.103L344.5173 580.103L317.079 580.103z" /></clipPath><clipPath id="85"><path id="" clip-rule="evenodd" transform="matrix(1 0 0 1 0 0)" d="M505.922 615.962L535.6862 615.962L535.6862 615.962L535.6862 580.103L535.6862 580.103L505.922 580.103z" /></clipPath><clipPath id="86"><path id="" clip-rule="evenodd" transform="matrix(1 0 0 1 0 0)" d="M505.922 615.962L535.6862 615.962L535.6862 615.962L535.6862 580.103L535.6862 580.103L505.922 580.103z" /></clipPath></defs><g transform="matrix(1.333333 0 0 1.333333 0 0)"><g clip-path="url(#1)"><g clip-path="url(#2)"><path id="1" transform="matrix(1 0 0 -1 0 834)" d="M91.866 67.4211L562.134 67.4211L562.134 74.92501L91.866 74.92501z" stroke="none" fill="#686868" fill-rule="nonzero" /><path id="2" transform="matrix(1 0 0 -1 0 834)" d="M562.134 526.984L91.866 526.984" stroke="#686868" stroke-width="1" fill="none" /><path id="3" transform="matrix(1 0 0 -1 0 834)" d="M562.134 307.016L91.866 307.016" stroke="#686868" stroke-width="1" fill="none" /></g><g clip-path="url(#3)"></g><g clip-path="url(#4)"><g transform="matrix(1.005782 0 0 1.005478 370.978 131.343)"><g transform="matrix(1 0 0 1 0 0)"><image x="0" y="0" xlink:href="img_01.png" width="78" height="134" /></g></g></g><g clip-path="url(#5)"></g><g clip-path="url(#6)"><g transform="matrix(1.003901 0 0 1.005478 451.983 131.754)"><g transform="matrix(1 0 0 1 0 0)"><image x="0" y="0" xlink:href="img_02.png" width="83" height="134" /></g></g></g><g clip-path="url(#7)"></g><g clip-path="url(#8)"><g transform="matrix(0.9996279 0 0 1.005478 299.342 131.343)"><g transform="matrix(1 0 0 1 0 0)"><image x="0" y="0" xlink:href="img_03.png" width="68" height="134" /></g></g></g><g clip-path="url(#9)"><path id="10" transform="matrix(1 0 0 -1 0 834)" d="M304.8761 635.2875L297.8929 635.2875" stroke="#000000" stroke-width="1.342791" fill="none" /></g><g clip-path="url(#10)"><g><g clip-path="url(#11)"><g clip-path="url(#12)"><path id="11" transform="matrix(1 0 0 -1 0 834)" d="M318.592 635.2875L304.8761 635.2875" stroke="#FFFFFF" stroke-width="1.342791" fill="none" stroke-opacity="0.8" /><path id="12" transform="matrix(1 0 0 -1 0 834)" d="M317.763 635.29L316.707 637.983L322.6 635.29L316.707 632.597" stroke="none" fill="#FFFFFF" fill-rule="nonzero" fill-opacity="0.8" /></g></g></g></g><g clip-path="url(#13)"><g><g clip-path="url(#14)"><g clip-path="url(#15)"><path id="13" transform="matrix(1 0 0 -1 0 834)" d="M352.6577 634.8508L362.0112 634.8508" stroke="#FFFFFF" stroke-width="1.342791" fill="none" stroke-opacity="0.8" /></g><g clip-path="url(#16)"><path id="14" transform="matrix(1 0 0 -1 0 834)" d="M354.545 632.161L348.651 634.854L354.545 637.548L353.489 634.854L354.545 632.161" stroke="none" fill="#FFFFFF" fill-rule="nonzero" fill-opacity="0.8" /></g></g></g></g><path id="15" transform="matrix(1 0 0 -1 0 834)" d="M367.6955 634.8508L362.1178 634.8508" stroke="#000000" stroke-width="1.342791" fill="none" /><g clip-path="url(#17)"><path id="16" transform="matrix(1 0 0 -1 0 834)" d="M374.4685 657.2944C 371.6499 657.5148 369.7999 657.8851 369.7999 658.3062C 369.7999 658.9822 374.5799 659.5303 380.4745 659.5303C 386.371 659.5303 391.15 658.9822 391.15 658.3062C 391.15 657.9641 389.9269 657.6552 387.9569 657.4327" stroke="#000000" stroke-width="0.6713946" fill="none" /></g><path id="17" transform="matrix(1 0 0 -1 0 834)" d="M386.758 657.319L388.446 658.309L388.203 657.471L388.591 656.7z" stroke="none" fill="#000000" fill-rule="nonzero" /><g clip-path="url(#18)"><path id="18" transform="matrix(1 0 0 -1 0 834)" d="M448.2975 656.3699C 450.9809 656.5446 452.7454 656.8721 452.7492 657.2684C 452.7559 657.9059 448.215 658.48 442.6075 658.5507C 436.999 658.6214 432.4475 658.1617 432.4408 657.5242C 432.4369 657.206 433.5727 656.9023 435.4111 656.6703" stroke="#000000" stroke-width="0.6713946" fill="none" /></g><path id="19" transform="matrix(1 0 0 -1 0 834)" d="M435.166 656.711L434.931 657.551L436.609 656.541L434.771 655.944z" stroke="none" fill="#000000" fill-rule="nonzero" /><g clip-path="url(#19)"><path id="20" transform="matrix(1 0 0 -1 0 834)" d="M316.111 679.065C 314.151 679.065 312.562 677.344 312.562 675.221C 312.562 673.098 314.151 671.377 316.111 671.377C 318.07 671.377 319.659 673.098 319.659 675.221C 319.659 677.344 318.07 679.065 316.111 679.065M316.111 671.845C 314.4 671.845 313.013 673.347 313.013 675.2C 313.013 677.053 314.4 678.555 316.111 678.555C 317.821 678.555 319.208 677.053 319.208 675.2C 319.208 673.347 317.821 671.845 316.111 671.845" stroke="none" fill="#000000" fill-rule="nonzero" /><path id="22" transform="matrix(1 0 0 -1 0 834)" d="M389.805 679.275C 387.845 679.275 386.257 677.554 386.257 675.43C 386.257 673.308 387.845 671.587 389.805 671.587C 391.765 671.587 393.354 673.308 393.354 675.43C 393.354 677.554 391.765 679.275 389.805 679.275M389.805 672.054C 388.095 672.054 386.707 673.556 386.707 675.409C 386.707 677.263 388.095 678.765 389.805 678.765C 391.516 678.765 392.903 677.263 392.903 675.409C 392.903 673.556 391.516 672.054 389.805 672.054" stroke="none" fill="#000000" fill-rule="nonzero" /><path id="24" transform="matrix(1 0 0 -1 0 834)" d="M473.974 679.275C 472.014 679.275 470.425 677.554 470.425 675.43C 470.425 673.308 472.014 671.587 473.974 671.587C 475.934 671.587 477.523 673.308 477.523 675.43C 477.523 677.554 475.934 679.275 473.974 679.275M473.974 672.054C 472.263 672.054 470.876 673.556 470.876 675.409C 470.876 677.263 472.263 678.765 473.974 678.765C 475.685 678.765 477.071 677.263 477.071 675.409C 477.071 673.556 475.685 672.054 473.974 672.054" stroke="none" fill="#000000" fill-rule="nonzero" /></g><g clip-path="url(#20)"><g><g clip-path="url(#21)"><g clip-path="url(#22)"><path id="26" transform="matrix(1 0 0 -1 0 834)" d="M342.0695 643.8185L346.189 647.7464" stroke="#FFFFFF" stroke-width="0.6713946" fill="none" stroke-opacity="0.8" /></g></g></g></g><g clip-path="url(#23)"><g><g clip-path="url(#24)"><g clip-path="url(#25)"><path id="27" transform="matrix(1 0 0 -1 0 834)" d="M325.7557 648.8123L329.3827 644.3519" stroke="#FFFFFF" stroke-width="0.6713946" fill="none" stroke-opacity="0.8" /></g></g></g></g><g clip-path="url(#26)"><g><g clip-path="url(#27)"><g clip-path="url(#28)"><path id="28" transform="matrix(1 0 0 -1 0 834)" d="M324.212 630.8729L328.3296 634.7998" stroke="#FFFFFF" stroke-width="0.6713946" fill="none" stroke-opacity="0.8" /></g></g></g></g><g clip-path="url(#29)"><g><g clip-path="url(#30)"><g clip-path="url(#31)"><path id="29" transform="matrix(1 0 0 -1 0 834)" d="M343.9963 633.8795L347.6213 629.418" stroke="#FFFFFF" stroke-width="0.6713946" fill="none" stroke-opacity="0.8" /></g></g></g></g><g clip-path="url(#32)"><g><g clip-path="url(#33)"><g clip-path="url(#34)"><path id="30" transform="matrix(1 0 0 -1 0 834)" d="M321.3838 639.7168L326.8607 639.3393" stroke="#FFFFFF" stroke-width="0.6713946" fill="none" stroke-opacity="0.8" /></g></g></g></g><g clip-path="url(#35)"><g><g clip-path="url(#36)"><g clip-path="url(#37)"><path id="31" transform="matrix(1 0 0 -1 0 834)" d="M344.8776 639.0939L350.3632 639.2062" stroke="#FFFFFF" stroke-width="0.6713946" fill="none" stroke-opacity="0.8" /></g></g></g></g><g clip-path="url(#38)"><path id="32" transform="matrix(1 0 0 -1 0 834)" d="M383.886 464.738C 381.878 464.738 380.25 463.078 380.25 461.031C 380.25 458.983 381.878 457.323 383.886 457.323C 385.893 457.323 387.521 458.983 387.521 461.031C 387.521 463.078 385.893 464.738 383.886 464.738M383.886 457.774C 382.133 457.774 380.712 459.223 380.712 461.01C 380.712 462.798 382.133 464.246 383.886 464.246C 385.638 464.246 387.059 462.798 387.059 461.01C 387.059 459.223 385.638 457.774 383.886 457.774" stroke="none" fill="#000000" fill-rule="nonzero" /></g><g clip-path="url(#39)"></g><g clip-path="url(#40)"><g><g transform="matrix(0.980681 0 0 1 756.9885 744.0976)"><path id="33" transform="matrix(1 0 0 1 0 0)" d="M1.420732 6.020401L2.305861 6.020401L2.305861 2.10714L1.547431 2.10714L0.5117928 2.588655L0.6623029 3.275063L1.408974 2.919953L1.421026 2.919953L1.420732 6.020401zM1.420732 6.020401z" stroke="none" fill="#000000" fill-rule="evenodd" /></g><g transform="matrix(1.004728 0 0 0.9983504 367.772 351.311)"><g transform="matrix(1 0 0 1 0 0)"><image x="0" y="0" xlink:href="img_04.png" width="89" height="137" /></g></g></g></g><path id="35" transform="matrix(1 0 0 -1 0 834)" d="M422.1392 445.6425L384.3575 445.6425" stroke="#000000" stroke-width="1.375704" fill="none" /><path id="36" transform="matrix(1 0 0 -1 0 834)" d="M380.251 445.64L386.289 448.238L385.207 445.64L386.289 443.043z" stroke="none" fill="#000000" fill-rule="nonzero" /><g clip-path="url(#41)"><path id="37" transform="matrix(1 0 0 -1 0 834)" d="M437.106 389.662C 437.106 365.501 456.314 345.914 480.008 345.914C 503.703 345.914 522.911 365.501 522.911 389.662C 522.911 413.823 503.703 433.41 480.008 433.41C 456.314 433.41 437.106 413.823 437.106 389.662" stroke="none" fill="#FFFFFF" fill-rule="nonzero" /></g><g clip-path="url(#42)"></g><g clip-path="url(#43)"><g transform="matrix(1.007068 0 0 0.9984707 439.485 409.533)"><g transform="matrix(1 0 0 1 0 0)"><image x="0" y="0" xlink:href="img_05.png" width="103" height="136" /></g></g></g><g clip-path="url(#44)"><path id="39" transform="matrix(1 0 0 -1 0 834)" d="M437.1067 389.6644C 437.1067 365.5028 456.3144 345.9165 480.0089 345.9165C 503.7034 345.9165 522.9111 365.5028 522.9111 389.6644C 522.9111 413.8259 503.7034 433.4122 480.0089 433.4122C 456.3144 433.4122 437.1067 413.8259 437.1067 389.6644z" stroke="#000000" stroke-width="0.6878508" fill="none" /><path id="40" transform="matrix(1 0 0 -1 0 834)" d="M468.118 411.861C 466.111 411.861 464.483 410.201 464.483 408.153C 464.483 406.106 466.111 404.446 468.118 404.446C 470.126 404.446 471.754 406.106 471.754 408.153C 471.754 410.201 470.126 411.861 468.118 411.861M468.118 404.896C 466.366 404.896 464.945 406.345 464.945 408.133C 464.945 409.92 466.366 411.369 468.118 411.369C 469.871 411.369 471.292 409.92 471.292 408.133C 471.292 406.345 469.871 404.896 468.118 404.896" stroke="none" fill="#000000" fill-rule="nonzero" /></g><g clip-path="url(#45)"></g><g clip-path="url(#46)"><g transform="matrix(1.007045 0 0 1.008441 262.582 108.3713)"><g transform="matrix(1 0 0 1 0 0)"><image x="0" y="0" xlink:href="img_06.png" width="38" height="58" /></g></g></g><g clip-path="url(#47)"></g><g clip-path="url(#48)"><g transform="matrix(1.008969 0 0 1.019562 258.827 342.1249)"><g transform="matrix(1 0 0 1 0 0)"><image x="0" y="0" xlink:href="img_07.png" width="42" height="34" /></g></g></g><g clip-path="url(#49)"></g><g clip-path="url(#50)"><g transform="matrix(1.022789 0 0 0.9967948 261.363 163.6358)"><g transform="matrix(1 0 0 1 0 0)"><image x="0" y="0" xlink:href="img_08.png" width="27" height="38" /></g></g></g><g clip-path="url(#51)"></g><g clip-path="url(#52)"><g transform="matrix(1.022789 0 0 0.9967948 261.362 199.5078)"><g transform="matrix(1 0 0 1 0 0)"><image x="0" y="0" xlink:href="img_09.png" width="27" height="38" /></g></g></g><g clip-path="url(#53)"></g><g clip-path="url(#54)"><g transform="matrix(0.9935875 0 0 0.9965685 261.353 235.3643)"><g transform="matrix(1 0 0 1 0 0)"><image x="0" y="0" xlink:href="img_10.png" width="32" height="38" /></g></g></g><g clip-path="url(#55)"></g><g clip-path="url(#56)"><g transform="matrix(-0.9930938 0 0 0.9967948 561.3 229.7618)"><g transform="matrix(1 0 0 1 0 0)"><image x="0" y="0" xlink:href="img_11.png" width="32" height="38" /></g></g></g><g clip-path="url(#57)"></g><g clip-path="url(#58)"><g transform="matrix(-1.022789 0 0 0.9967948 558.181 190.5078)"><g transform="matrix(1 0 0 1 0 0)"><image x="0" y="0" xlink:href="img_09.png" width="27" height="38" /></g></g></g><g clip-path="url(#59)"></g><g clip-path="url(#60)"><g transform="matrix(-1.022789 0 0 0.9967948 557.472 154.6358)"><g transform="matrix(1 0 0 1 0 0)"><image x="0" y="0" xlink:href="img_08.png" width="27" height="38" /></g></g></g><g clip-path="url(#61)"></g><g clip-path="url(#62)"><g transform="matrix(1.022789 0 0 0.9967948 329.635 380.1278)"><g transform="matrix(1 0 0 1 0 0)"><image x="0" y="0" xlink:href="img_08.png" width="27" height="38" /></g></g></g><g clip-path="url(#63)"></g><g clip-path="url(#64)"><g transform="matrix(1.022789 0 0 1.020084 329.626 415.9899)"><g transform="matrix(1 0 0 1 0 0)"><image x="0" y="0" xlink:href="img_12.png" width="27" height="37" /></g></g></g><g clip-path="url(#65)"></g><g clip-path="url(#66)"><g transform="matrix(1.008151 0 0 1.003445 340.719 571.519)"><g transform="matrix(1 0 0 1 0 0)"><image x="0" y="0" xlink:href="img_13.png" width="74" height="135" /></g></g></g><g clip-path="url(#67)"></g><g clip-path="url(#68)"><g transform="matrix(1.008151 0 0 1.003445 431.249 571.488)"><g transform="matrix(1 0 0 1 0 0)"><image x="0" y="0" xlink:href="img_14.png" width="74" height="135" /></g></g></g><g clip-path="url(#69)"><g><g clip-path="url(#70)"><g clip-path="url(#71)"><path id="1348" transform="matrix(1 0 0 -1 0 834)" d="M367.443 189.56C 367.443 188.466 366.523 187.579 365.39 187.579C 364.256 187.579 363.337 188.466 363.337 189.56C 363.337 190.655 364.256 191.542 365.39 191.542C 366.523 191.542 367.443 190.655 367.443 189.56" stroke="none" fill="#FFFFFF" fill-rule="nonzero" fill-opacity="0.8" /><path id="1349" transform="matrix(1 0 0 -1 0 834)" d="M367.4452 189.5598C 367.4452 188.4665 366.5262 187.5785 365.3925 187.5785C 364.2588 187.5785 363.3398 188.4665 363.3398 189.5598C 363.3398 190.654 364.2588 191.541 365.3925 191.541C 366.5262 191.541 367.4452 190.654 367.4452 189.5598z" stroke="#000000" stroke-width="0.1384106" fill="none" stroke-opacity="0.8" /></g></g></g></g><g clip-path="url(#72)"><g><g clip-path="url(#73)"><g clip-path="url(#74)"><path id="1350" transform="matrix(1 0 0 -1 0 834)" d="M365.3915 191.8524L365.3915 195.2571" stroke="#FFFFFF" stroke-width="1.384106" fill="none" stroke-opacity="0.8" /></g><g clip-path="url(#75)"><path id="1351" transform="matrix(1 0 0 -1 0 834)" d="M365.389 194.432L362.826 193.382L365.389 199.245L367.952 193.382z" stroke="none" fill="#FFFFFF" fill-rule="nonzero" fill-opacity="0.8" /></g></g></g></g><g clip-path="url(#76)"><g><g clip-path="url(#77)"><g clip-path="url(#78)"><path id="1352" transform="matrix(1 0 0 -1 0 834)" d="M365.3915 187.3103L365.3915 183.9067" stroke="#FFFFFF" stroke-width="1.384106" fill="none" stroke-opacity="0.8" /></g><g clip-path="url(#79)"><path id="1353" transform="matrix(1 0 0 -1 0 834)" d="M365.389 179.919L362.826 185.782L365.389 184.732L367.952 185.782L365.389 179.919" stroke="none" fill="#FFFFFF" fill-rule="nonzero" fill-opacity="0.8" /></g></g></g></g><g clip-path="url(#80)"><path id="1354" transform="matrix(1 0 0 -1 0 834)" d="M356.036 252.905C 354.016 252.905 352.379 251.325 352.379 249.375C 352.379 247.425 354.016 245.845 356.036 245.845C 358.057 245.845 359.694 247.425 359.694 249.375C 359.694 251.325 358.057 252.905 356.036 252.905M356.036 246.274C 354.273 246.274 352.843 247.654 352.843 249.355C 352.843 251.057 354.273 252.438 356.036 252.438C 357.8 252.438 359.229 251.057 359.229 249.355C 359.229 247.654 357.8 246.274 356.036 246.274" stroke="none" fill="#000000" fill-rule="nonzero" /><path id="1356" transform="matrix(1 0 0 -1 0 834)" d="M446.557 252.775C 444.536 252.775 442.899 251.194 442.899 249.244C 442.899 247.294 444.536 245.714 446.557 245.714C 448.577 245.714 450.214 247.294 450.214 249.244C 450.214 251.194 448.577 252.775 446.557 252.775M446.557 246.143C 444.793 246.143 443.364 247.523 443.364 249.225C 443.364 250.927 444.793 252.307 446.557 252.307C 448.32 252.307 449.75 250.927 449.75 249.225C 449.75 247.523 448.32 246.143 446.557 246.143" stroke="none" fill="#000000" fill-rule="nonzero" /></g><g clip-path="url(#81)"></g><g clip-path="url(#82)"><g transform="matrix(1.007045 0 0 1.008441 260.881 550.8594)"><g transform="matrix(1 0 0 1 0 0)"><image x="0" y="0" xlink:href="img_06.png" width="38" height="58" /></g></g></g><g clip-path="url(#83)"></g><g clip-path="url(#84)"><g transform="matrix(1.01589 0 0 0.9973868 316.077 579.0823)"><g transform="matrix(1 0 0 1 0 0)"><image x="0" y="0" xlink:href="img_15.png" width="29" height="38" /></g></g></g><g clip-path="url(#85)"></g><g clip-path="url(#86)"><g transform="matrix(-0.9937969 0 0 0.9973868 536.704 579.0823)"><g transform="matrix(1 0 0 1 0 0)"><image x="0" y="0" xlink:href="img_16.png" width="32" height="38" /></g></g></g><path id="1452" transform="matrix(1 0 0 -1 0 834)" d="M633 15L633 0M633 819L633 834M21 15L21 0M21 819L21 834M639 21L654 21M15 21L0 21M639 813L654 813M15 813L0 813" stroke="#000000" stroke-width="1.25" fill="none" /><path id="1453" transform="matrix(1 0 0 -1 0 834)" d="M633 15L633 0M633 819L633 834M21 15L21 0M21 819L21 834M639 21L654 21M15 21L0 21M639 813L654 813M15 813L0 813" stroke="#000000" stroke-width="0.25" fill="none" /><path id="1454" transform="matrix(1 0 0 -1 0 834)" d="M32.2781 9.28203C 32.2781 9.516021 32.2961 9.58203 32.3559 9.62383C 32.416 9.66602 32.5719 9.69609 32.8238 9.69609C 33.2262 9.69609 33.5738 9.62383 33.8441 9.45C 34.3238 9.167971 34.552 8.63398 34.552 8.016021C 34.552 7.05586 34.0359 6.21602 32.9141 6.21602C 32.4762 6.21602 32.2781 6.33008 32.2781 6.78594zM31.252 9.900001L31.252 9.726171C 31.7141 9.68984 31.7621 9.66602 31.7621 9.150001L31.7621 9.150001L31.7621 6.74414C 31.7621 6.23398 31.7141 6.19805 31.198 6.16211L31.198 6.16211L31.198 6L31.198 6L32.6199 6C 33.3578 6 33.952 6.15 34.402 6.49805C 34.8641 6.84609 35.1398 7.38008 35.1398 8.1C 35.1398 8.664061 34.9301 9.101951 34.6359 9.38984C 34.2641 9.74414 33.7 9.900001 32.9379 9.900001z" stroke="#000000" stroke-width="0.4" fill="none" /><path id="1455" transform="matrix(1 0 0 -1 0 834)" d="M38.3801 6.97813C 38.2898 6.70195 38.1758 6.51016 38.0738 6.38984C 37.9359 6.23398 37.732 6.20391 37.402 6.20391C 37.15 6.20391 36.9461 6.21602 36.8258 6.28203C 36.718 6.34219 36.6879 6.46211 36.6879 6.78594L36.6879 6.78594L36.6879 9.15586C 36.6879 9.66602 36.7418 9.69609 37.216 9.73203L37.216 9.73203L37.216 9.900001L37.216 9.900001L35.65 9.900001L35.65 9.900001L35.65 9.73203C 36.1359 9.69609 36.1777 9.66602 36.1777 9.15586L36.1777 9.15586L36.1777 6.75586C 36.1777 6.24609 36.1301 6.20391 35.6258 6.16797L35.6258 6.16797L35.6258 6L35.6258 6L38.3438 6C 38.398 6.18594 38.5238 6.75586 38.5598 6.94219z" stroke="#000000" stroke-width="0.4" fill="none" /><path id="1456" transform="matrix(1 0 0 -1 0 834)" d="M41.0918 9.023829C 41.0438 9.40195 41.0141 9.63594 40.9898 9.851951C 40.7617 9.92383 40.5098 9.989841 40.234 9.989841C 39.4598 9.989841 38.998 9.49805 38.998 8.921881C 38.998 8.24414 39.6039 7.94414 39.9879 7.73984C 40.4379 7.5 40.768 7.28984 40.768 6.84609C 40.768 6.40781 40.498 6.12617 40.048 6.12617C 39.4301 6.12617 39.1598 6.73203 39.0641 7.09805L39.0641 7.09805L38.8898 7.05586C 38.9258 6.767971 39.0039 6.25195 39.052 6.12617C 39.1059 6.09609 39.1961 6.05391 39.3461 6C 39.4961 5.95781 39.6879 5.91016 39.934 5.91016C 40.732 5.91016 41.266 6.41406 41.266 7.04414C 41.266 7.71602 40.6961 7.99805 40.2277 8.23789C 39.7539 8.48398 39.466 8.68789 39.466 9.12617C 39.466 9.45 39.6699 9.78594 40.132 9.78594C 40.6539 9.78594 40.8098 9.371881 40.918 8.98789z" stroke="#000000" stroke-width="0.4" fill="none" /><path id="1457" transform="matrix(1 0 0 -1 0 834)" d="M46.648 6L46.648 6.16797C 46.1258 6.21602 46.1078 6.24609 46.0898 6.88203L46.0898 6.88203L46.0301 9.05391C 46.0117 9.671881 46.0539 9.68398 46.582 9.73203L46.582 9.73203L46.582 9.900001L46.582 9.900001L45.5617 9.900001L45.5617 9.900001L44.1758 6.9L44.1758 6.9L42.8078 9.900001L42.8078 9.900001L41.8238 9.900001L41.8238 9.900001L41.8238 9.73203C 42.3699 9.67813 42.4 9.653911 42.3461 8.87383L42.3461 8.87383L42.2617 7.626171C 42.2141 7.00195 42.1777 6.73789 42.148 6.528131C 42.1059 6.27617 41.9859 6.21016 41.6379 6.16797L41.6379 6.16797L41.6379 6L41.6379 6L43.0359 6L43.0359 6L43.0359 6.16797C 42.6398 6.21016 42.4961 6.25195 42.484 6.53984C 42.4777 6.78008 42.4777 7.04414 42.502 7.53594L42.502 7.53594L42.5918 9.24609L42.5918 9.24609L42.6039 9.24609L42.6039 9.24609L43.948 6.04219L43.948 6.04219L44.068 6.04219L44.068 6.04219L45.532 9.33008L45.532 9.33008L45.5559 9.33008L45.5559 9.33008L45.5738 6.88203C 45.5801 6.24609 45.5559 6.21602 45.0699 6.16797L45.0699 6.16797L45.0699 6z" stroke="#000000" stroke-width="0.4" fill="none" /><path id="1458" transform="matrix(1 0 0 -1 0 834)" d="M51.8738 7.05586C 51.5738 6.45586 51.2496 6.12617 50.6379 6.12617C 49.7258 6.12617 49.0656 6.89414 49.0656 8.016021C 49.0656 8.92813 49.5996 9.773829 50.602 9.773829C 51.2496 9.773829 51.6098 9.516021 51.7656 8.88008L51.7656 8.88008L51.9457 8.921881C 51.9098 9.24609 51.8738 9.48594 51.8258 9.828131C 51.6578 9.85781 51.2496 9.989841 50.7637 9.989841C 49.4258 9.989841 48.4539 9.15586 48.4539 7.89609C 48.4539 6.94219 49.1078 5.91016 50.602 5.91016C 51.034 5.91016 51.5379 6.03008 51.7059 6.07188C 51.8137 6.26992 51.9637 6.71406 52.0477 6.98984z" stroke="#000000" stroke-width="0.4" fill="none" /><path id="1459" transform="matrix(1 0 0 -1 0 834)" d="M54.3398 9.773829C 55.1258 9.773829 55.7855 9.101951 55.7855 7.83594C 55.7855 6.68398 55.1855 6.12617 54.5195 6.12617C 53.6738 6.12617 53.0559 6.94805 53.0559 8.076171C 53.0559 9.19805 53.6676 9.773829 54.3398 9.773829zM54.4598 9.989841C 53.1996 9.989841 52.4438 8.98789 52.4438 7.90781C 52.4438 6.75586 53.3078 5.91016 54.3938 5.91016C 55.4918 5.91016 56.3977 6.70195 56.3977 7.99805C 56.3977 9.19805 55.4797 9.989841 54.4598 9.989841z" stroke="#000000" stroke-width="0.4" fill="none" /><path id="1460" transform="matrix(1 0 0 -1 0 834)" d="M61.8277 6L61.8277 6.16797C 61.3059 6.21602 61.2879 6.24609 61.2695 6.88203L61.2695 6.88203L61.2098 9.05391C 61.1918 9.671881 61.2336 9.68398 61.7617 9.73203L61.7617 9.73203L61.7617 9.900001L61.7617 9.900001L60.7418 9.900001L60.7418 9.900001L59.3559 6.9L59.3559 6.9L57.9879 9.900001L57.9879 9.900001L57.0035 9.900001L57.0035 9.900001L57.0035 9.73203C 57.5496 9.67813 57.5797 9.653911 57.5258 8.87383L57.5258 8.87383L57.4418 7.626171C 57.3938 7.00195 57.3578 6.73789 57.3277 6.528131C 57.2855 6.27617 57.1656 6.21016 56.8176 6.16797L56.8176 6.16797L56.8176 6L56.8176 6L58.2156 6L58.2156 6L58.2156 6.16797C 57.8195 6.21016 57.6758 6.25195 57.6637 6.53984C 57.6578 6.78008 57.6578 7.04414 57.6816 7.53594L57.6816 7.53594L57.7719 9.24609L57.7719 9.24609L57.7836 9.24609L57.7836 9.24609L59.1277 6.04219L59.1277 6.04219L59.2477 6.04219L59.2477 6.04219L60.7117 9.33008L60.7117 9.33008L60.7355 9.33008L60.7355 9.33008L60.7535 6.88203C 60.7598 6.24609 60.7355 6.21602 60.2496 6.16797L60.2496 6.16797L60.2496 6z" stroke="#000000" stroke-width="0.4" fill="none" /><path id="1461" transform="matrix(1 0 0 -1 0 834)" d="M63.8258 6L63.8258 6.16797C 63.3336 6.20391 63.2855 6.23398 63.2855 6.75L63.2855 6.75L63.2855 9.150001C 63.2855 9.66016 63.3336 9.69609 63.8258 9.73203L63.8258 9.73203L63.8258 9.900001L63.8258 9.900001L62.2355 9.900001L62.2355 9.900001L62.2355 9.73203C 62.7277 9.69609 62.7758 9.66016 62.7758 9.150001L62.7758 9.150001L62.7758 6.75C 62.7758 6.23984 62.7277 6.20391 62.2355 6.16797L62.2355 6.16797L62.2355 6z" stroke="#000000" stroke-width="0.4" fill="none" /><path id="1462" transform="matrix(1 0 0 -1 0 834)" d="M66.5074 9.023829C 66.4598 9.40195 66.4297 9.63594 66.4055 9.851951C 66.1777 9.92383 65.9258 9.989841 65.6496 9.989841C 64.8758 9.989841 64.4137 9.49805 64.4137 8.921881C 64.4137 8.24414 65.0195 7.94414 65.4035 7.73984C 65.8535 7.5 66.1836 7.28984 66.1836 6.84609C 66.1836 6.40781 65.9137 6.12617 65.46371 6.12617C 64.8457 6.12617 64.5758 6.73203 64.4797 7.09805L64.4797 7.09805L64.3055 7.05586C 64.3418 6.767971 64.4195 6.25195 64.46761 6.12617C 64.52151 6.09609 64.6117 6.05391 64.7617 6C 64.91171 5.95781 65.1035 5.91016 65.3496 5.91016C 66.1477 5.91016 66.6816 6.41406 66.6816 7.04414C 66.6816 7.71602 66.1117 7.99805 65.6438 8.23789C 65.1695 8.48398 64.8816 8.68789 64.8816 9.12617C 64.8816 9.45 65.0855 9.78594 65.5477 9.78594C 66.0695 9.78594 66.2258 9.371881 66.3336 8.98789z" stroke="#000000" stroke-width="0.4" fill="none" /><path id="1463" transform="matrix(1 0 0 -1 0 834)" d="M69.4055 7.68008L68.3016 7.68008C 68.4816 8.171881 68.6734 8.69414 68.8656 9.21016L68.8656 9.21016L68.8777 9.21016zM70.9355 6L70.9355 6.16797C 70.5457 6.20391 70.46761 6.25781 70.2758 6.77383C 69.89181 7.81797 69.4895 8.95781 69.11761 9.989841L69.11761 9.989841L68.9316 9.93594L68.9316 9.93594L67.68951 6.78594C 67.4797 6.25781 67.3957 6.22188 67.0176 6.16797L67.0176 6.16797L67.0176 6L67.0176 6L68.3195 6L68.3195 6L68.3195 6.16797C 67.8695 6.21016 67.81561 6.26992 67.9477 6.64805C 68.0258 6.9 68.1156 7.15195 68.2117 7.42188L68.2117 7.42188L69.4895 7.42188C 69.62151 7.05586 69.74181 6.73203 69.8195 6.49805C 69.8977 6.26406 69.8438 6.21602 69.4656 6.16797L69.4656 6.16797L69.4656 6z" stroke="#000000" stroke-width="0.4" fill="none" /><path id="1464" transform="matrix(1 0 0 -1 0 834)" d="M71.7273 5.92813C 71.9195 5.92813 72.06371 6.06602 72.06371 6.27617C 72.06371 6.46797 71.9195 6.61797 71.7273 6.61797C 71.5355 6.61797 71.3914 6.46797 71.3914 6.27617C 71.3914 6.06602 71.5355 5.92813 71.7273 5.92813z" stroke="#000000" stroke-width="0.4" fill="none" /><path id="1465" transform="matrix(1 0 0 -1 0 834)" d="M73.9234 6L73.9234 6.15586C 73.53951 6.19219 73.4977 6.22813 73.4977 6.63594L73.4977 6.63594L73.4977 8.70586C 73.2336 8.59805 72.9516 8.51992 72.6453 8.471881L72.6453 8.471881L72.6453 8.328131C 73.0055 8.26797 73.0234 8.24414 73.0234 7.871881L73.0234 7.871881L73.0234 6.63594C 73.0234 6.22813 72.9816 6.19219 72.6035 6.15586L72.6035 6.15586L72.6035 6zM73.2215 9.216021C 73.3953 9.216021 73.52731 9.36016 73.52731 9.52188C 73.52731 9.70195 73.3953 9.83398 73.2273 9.83398C 73.06561 9.83398 72.9215 9.70195 72.9215 9.52188C 72.9215 9.36016 73.06561 9.216021 73.2215 9.216021z" stroke="#000000" stroke-width="0.4" fill="none" /><path id="1466" transform="matrix(1 0 0 -1 0 834)" d="M77.1574 6L77.1574 6.15586C 76.8094 6.19219 76.7793 6.21602 76.7793 6.62383L76.7793 6.62383L76.7793 7.78203C 76.7793 8.36406 76.4793 8.69414 76.0055 8.69414C 75.8313 8.69414 75.67541 8.621881 75.5074 8.51406C 75.3574 8.41211 75.2254 8.32188 75.1055 8.23203L75.1055 8.23203L75.1055 8.712111C 74.8414 8.59219 74.5594 8.51992 74.27151 8.466021L74.27151 8.466021L74.27151 8.328131C 74.5953 8.26797 74.6313 8.25 74.6313 7.86602L74.6313 7.86602L74.6313 6.62383C 74.6313 6.22813 74.6016 6.19805 74.19341 6.15586L74.19341 6.15586L74.19341 6L74.19341 6L75.4953 6L75.4953 6L75.4953 6.15586C 75.1414 6.19219 75.1055 6.21602 75.1055 6.62383L75.1055 6.62383L75.1055 8.03398C 75.2855 8.18984 75.5195 8.33984 75.7594 8.33984C 76.1613 8.33984 76.3055 8.069921 76.3055 7.65586L76.3055 7.65586L76.3055 6.65391C 76.3055 6.23984 76.2633 6.19219 75.9094 6.15586L75.9094 6.15586L75.9094 6z" stroke="#000000" stroke-width="0.4" fill="none" /><path id="1467" transform="matrix(1 0 0 -1 0 834)" d="M79.4734 6.51016C 79.32931 6.40195 79.1133 6.30586 78.8973 6.30586C 78.5133 6.30586 78.0754 6.65391 78.0754 7.36797C 78.0754 8.23789 78.57931 8.471881 78.8555 8.471881C 79.0832 8.471881 79.32931 8.37617 79.4734 8.16602zM80.4035 6.30586L80.2113 6.32383C 79.9895 6.34805 79.9473 6.37813 79.9473 6.68984L79.9473 6.68984L79.9473 10.2719C 79.7254 10.1941 79.3234 10.1039 79.0113 10.0621L79.0113 10.0621L79.0113 9.917971C 79.44341 9.88789 79.4734 9.869921 79.4734 9.47383L79.4734 9.47383L79.4734 8.628131C 79.3355 8.67617 79.1613 8.69414 79.0773 8.69414C 78.2613 8.69414 77.5293 8.03984 77.5293 7.20586C 77.5293 6.36602 78.1594 5.92813 78.6395 5.92813C 78.7113 5.92813 78.87341 5.96406 79.1074 6.10195L79.1074 6.10195L79.4734 6.31797L79.4734 6.31797L79.4734 5.92813C 79.8215 6.05391 80.27151 6.13203 80.4035 6.15586z" stroke="#000000" stroke-width="0.4" fill="none" /><path id="1468" transform="matrix(1 0 0 -1 0 834)" d="M81.3813 8.24414C 81.4895 8.310161 81.6813 8.35781 81.84921 8.35781C 82.34731 8.35781 82.7676 7.96211 82.7676 7.278131C 82.7676 6.58203 82.4492 6.15586 81.9516 6.15586C 81.6336 6.16211 81.4535 6.37188 81.4176 6.49219C 81.3934 6.54609 81.3813 6.60586 81.3813 6.69609zM81.3813 8.42383L81.3813 10.2719C 81.1594 10.1941 80.7934 10.098 80.5113 10.0621L80.5113 10.0621L80.5113 9.92383C 80.8953 9.88789 80.9074 9.851951 80.9074 9.48008L80.9074 9.48008L80.9074 6.14414C 81.2375 5.98789 81.5434 5.92813 81.78951 5.92813C 82.59341 5.92813 83.2953 6.55195 83.2953 7.43398C 83.2953 8.14219 82.7555 8.69414 82.1133 8.69414C 82.0473 8.69414 81.9633 8.67617 81.86761 8.63398z" stroke="#000000" stroke-width="0.4" fill="none" /><path id="1469" transform="matrix(1 0 0 -1 0 834)" d="M89.90701 6L89.90701 6.16211C 89.3613 6.20391 89.3254 6.25195 89.3254 6.68398L89.3254 6.68398L89.3254 9.810161C 88.9953 9.67813 88.641 9.56406 88.257 9.49805L88.257 9.49805L88.257 9.36016L88.257 9.36016L88.5453 9.34805C 88.8094 9.33594 88.8332 9.305861 88.8332 8.99414L88.8332 8.99414L88.8332 6.68398C 88.8332 6.25195 88.8031 6.20391 88.257 6.16211L88.257 6.16211L88.257 6z" stroke="#000000" stroke-width="0.4" fill="none" /><path id="1470" transform="matrix(1 0 0 -1 0 834)" d="M92.7871 6L92.7871 6.16211C 92.241 6.20391 92.2051 6.25195 92.2051 6.68398L92.2051 6.68398L92.2051 9.810161C 91.8754 9.67813 91.5211 9.56406 91.1371 9.49805L91.1371 9.49805L91.1371 9.36016L91.1371 9.36016L91.42541 9.34805C 91.6891 9.33594 91.7133 9.305861 91.7133 8.99414L91.7133 8.99414L91.7133 6.68398C 91.7133 6.25195 91.6832 6.20391 91.1371 6.16211L91.1371 6.16211L91.1371 6z" stroke="#000000" stroke-width="0.4" fill="none" /><path id="1471" transform="matrix(1 0 0 -1 0 834)" d="M94.7371 9.61211C 95.3191 9.61211 95.4754 8.86797 95.4754 8.33984C 95.4754 8.21992 95.4691 8.076171 95.4512 7.94414C 95.3254 7.84805 95.1211 7.77617 94.9113 7.77617C 94.40701 7.77617 94.107 8.214061 94.107 8.74219C 94.107 9.09609 94.27541 9.61211 94.7371 9.61211zM94.8152 9.810161C 94.041 9.810161 93.591 9.10781 93.591 8.53203C 93.591 7.90195 94.0293 7.43398 94.6652 7.43398C 94.7793 7.43398 94.8934 7.45781 95.02541 7.53008L95.02541 7.53008L95.4273 7.74609C 95.2293 6.83398 94.5754 6.23398 93.7172 6.08984L93.7172 6.08984L93.74731 5.91016C 93.8973 5.91016 94.2633 5.96992 94.5871 6.10195C 95.3973 6.42617 96.00311 7.20586 96.00311 8.310161C 96.00311 9.12617 95.5652 9.810161 94.8152 9.810161z" stroke="#000000" stroke-width="0.4" fill="none" /><path id="1490" transform="matrix(1 0 0 -1 0 834)" d="M554.472 6.83984C 554.292 6.46211 554.2141 6.43789 553.89 6.43789L553.89 6.43789L552.768 6.43789L552.768 6.43789L553.6201 7.33203C 554.1721 7.91992 554.412 8.273829 554.412 8.79609C 554.412 9.42617 553.932 9.810161 553.404 9.810161C 553.056 9.810161 552.774 9.653911 552.594 9.45586L552.594 9.45586L552.252 8.96992L552.252 8.96992L552.384 8.85C 552.54 9.08398 552.792 9.40781 553.2 9.40781C 553.644 9.40781 553.908 9.11406 553.908 8.61016C 553.908 8.09414 553.53 7.60195 553.158 7.15781C 552.858 6.81016 552.522 6.46797 552.186 6.13789L552.186 6.13789L552.186 6L552.186 6L554.43 6C 554.502 6.26992 554.562 6.53398 554.64 6.78594z" stroke="#000000" stroke-width="0.4" fill="none" /><path id="1491" transform="matrix(1 0 0 -1 0 834)" d="M555.792 9.3L557.19 9.3L557.19 9.3L557.346 9.68984L557.346 9.68984L557.31 9.73789L557.31 9.73789L555.6 9.73789L555.6 9.73789L555.366 7.90781C 555.504 7.96211 555.732 8.028131 555.984 8.028131C 556.638 8.028131 556.962 7.65 556.962 7.121881C 556.962 6.67188 556.71 6.23398 556.2 6.23398C 555.834 6.23398 555.588 6.42617 555.462 6.53984C 555.402 6.58789 555.354 6.58203 555.3 6.53984C 555.234 6.48008 555.18 6.40195 555.174 6.34219C 555.162 6.26992 555.192 6.22188 555.27 6.13789C 555.36 6.05391 555.612 5.92813 555.888 5.92813C 556.206 5.93398 556.608 6.08984 556.932 6.35391C 557.298 6.65391 557.466 6.99609 557.466 7.35586C 557.466 7.84805 557.076 8.369921 556.308 8.369921C 556.146 8.369921 555.864 8.273829 555.636 8.18984z" stroke="#000000" stroke-width="0.4" fill="none" /><path id="1492" transform="matrix(1 0 0 -1 0 834)" d="M559.548 9.989841L559.212 9.989841L559.212 9.989841L557.91 5.73594L557.91 5.73594L558.246 5.73594z" stroke="#000000" stroke-width="0.4" fill="none" /><path id="1493" transform="matrix(1 0 0 -1 0 834)" d="M561.18 9.61211C 561.72 9.61211 561.8701 8.72383 561.8701 7.871881C 561.8701 7.03203 561.726 6.13203 561.186 6.13203C 560.664 6.13203 560.49 7.03789 560.49 7.87813C 560.49 8.712111 560.634 9.61211 561.18 9.61211zM561.186 9.810161C 560.286 9.810161 559.956 8.74219 559.956 7.86602C 559.956 6.91797 560.28 5.92813 561.186 5.92813C 562.086 5.92813 562.404 6.99609 562.404 7.871881C 562.404 8.79609 562.086 9.810161 561.186 9.810161z" stroke="#000000" stroke-width="0.4" fill="none" /><path id="1494" transform="matrix(1 0 0 -1 0 834)" d="M564 9.61211C 564.582 9.61211 564.738 8.86797 564.738 8.33984C 564.738 8.21992 564.732 8.076171 564.7141 7.94414C 564.588 7.84805 564.384 7.77617 564.174 7.77617C 563.67 7.77617 563.3701 8.214061 563.3701 8.74219C 563.3701 9.09609 563.538 9.61211 564 9.61211zM564.078 9.810161C 563.304 9.810161 562.854 9.10781 562.854 8.53203C 562.854 7.90195 563.292 7.43398 563.928 7.43398C 564.042 7.43398 564.156 7.45781 564.288 7.53008L564.288 7.53008L564.69 7.74609C 564.492 6.83398 563.838 6.23398 562.98 6.08984L562.98 6.08984L563.01 5.91016C 563.16 5.91016 563.526 5.96992 563.85 6.10195C 564.66 6.42617 565.2661 7.20586 565.2661 8.310161C 565.2661 9.12617 564.828 9.810161 564.078 9.810161z" stroke="#000000" stroke-width="0.4" fill="none" /><path id="1495" transform="matrix(1 0 0 -1 0 834)" d="M567.294 9.989841L566.958 9.989841L566.958 9.989841L565.656 5.73594L565.656 5.73594L565.992 5.73594z" stroke="#000000" stroke-width="0.4" fill="none" /><path id="1496" transform="matrix(1 0 0 -1 0 834)" d="M569.9641 6.83984C 569.784 6.46211 569.706 6.43789 569.382 6.43789L569.382 6.43789L568.26 6.43789L568.26 6.43789L569.112 7.33203C 569.664 7.91992 569.904 8.273829 569.904 8.79609C 569.904 9.42617 569.424 9.810161 568.896 9.810161C 568.548 9.810161 568.2661 9.653911 568.086 9.45586L568.086 9.45586L567.744 8.96992L567.744 8.96992L567.876 8.85C 568.032 9.08398 568.284 9.40781 568.692 9.40781C 569.136 9.40781 569.4 9.11406 569.4 8.61016C 569.4 8.09414 569.022 7.60195 568.65 7.15781C 568.35 6.81016 568.014 6.46797 567.678 6.13789L567.678 6.13789L567.678 6L567.678 6L569.9221 6C 569.994 6.26992 570.054 6.53398 570.132 6.78594z" stroke="#000000" stroke-width="0.4" fill="none" /><path id="1497" transform="matrix(1 0 0 -1 0 834)" d="M571.806 9.61211C 572.346 9.61211 572.496 8.72383 572.496 7.871881C 572.496 7.03203 572.352 6.13203 571.812 6.13203C 571.29 6.13203 571.116 7.03789 571.116 7.87813C 571.116 8.712111 571.26 9.61211 571.806 9.61211zM571.812 9.810161C 570.912 9.810161 570.582 8.74219 570.582 7.86602C 570.582 6.91797 570.906 5.92813 571.812 5.92813C 572.712 5.92813 573.03 6.99609 573.03 7.871881C 573.03 8.79609 572.712 9.810161 571.812 9.810161z" stroke="#000000" stroke-width="0.4" fill="none" /><path id="1498" transform="matrix(1 0 0 -1 0 834)" d="M575.556 6L575.556 6.16211C 575.01 6.20391 574.9741 6.25195 574.9741 6.68398L574.9741 6.68398L574.9741 9.810161C 574.644 9.67813 574.29 9.56406 573.906 9.49805L573.906 9.49805L573.906 9.36016L573.906 9.36016L574.194 9.34805C 574.458 9.33594 574.482 9.305861 574.482 8.99414L574.482 8.99414L574.482 6.68398C 574.482 6.25195 574.452 6.20391 573.906 6.16211L573.906 6.16211L573.906 6z" stroke="#000000" stroke-width="0.4" fill="none" /><path id="1499" transform="matrix(1 0 0 -1 0 834)" d="M578.814 9.73789L576.522 9.73789C 576.498 9.48008 576.468 9.180079 576.414 8.85L576.414 8.85L576.588 8.85C 576.732 9.24609 576.768 9.3 577.164 9.3L577.164 9.3L578.46 9.3C 577.986 8.25586 577.308 7.01406 576.678 5.99414L576.678 5.99414L576.72 5.92813L576.72 5.92813L577.164 5.98789C 577.74 7.22383 578.298 8.44805 578.862 9.66602z" stroke="#000000" stroke-width="0.4" fill="none" /><path id="1500" transform="matrix(1 0 0 -1 0 834)" d="M584.531 9.61211C 585.071 9.61211 585.221 8.72383 585.221 7.871881C 585.221 7.03203 585.077 6.13203 584.537 6.13203C 584.015 6.13203 583.841 7.03789 583.841 7.87813C 583.841 8.712111 583.985 9.61211 584.531 9.61211zM584.537 9.810161C 583.637 9.810161 583.307 8.74219 583.307 7.86602C 583.307 6.91797 583.631 5.92813 584.537 5.92813C 585.437 5.92813 585.755 6.99609 585.755 7.871881C 585.755 8.79609 585.437 9.810161 584.537 9.810161z" stroke="#000000" stroke-width="0.4" fill="none" /><path id="1501" transform="matrix(1 0 0 -1 0 834)" d="M588.449 6.83984C 588.269 6.46211 588.191 6.43789 587.867 6.43789L587.867 6.43789L586.7451 6.43789L586.7451 6.43789L587.597 7.33203C 588.149 7.91992 588.389 8.273829 588.389 8.79609C 588.389 9.42617 587.909 9.810161 587.381 9.810161C 587.033 9.810161 586.751 9.653911 586.571 9.45586L586.571 9.45586L586.229 8.96992L586.229 8.96992L586.361 8.85C 586.517 9.08398 586.769 9.40781 587.177 9.40781C 587.621 9.40781 587.885 9.11406 587.885 8.61016C 587.885 8.09414 587.507 7.60195 587.135 7.15781C 586.835 6.81016 586.499 6.46797 586.163 6.13789L586.163 6.13789L586.163 6L586.163 6L588.407 6C 588.479 6.26992 588.539 6.53398 588.617 6.78594z" stroke="#000000" stroke-width="0.4" fill="none" /><path id="1502" transform="matrix(1 0 0 -1 0 834)" d="M589.5471 5.92813C 589.739 5.92813 589.883 6.06602 589.883 6.27617C 589.883 6.46797 589.739 6.61797 589.5471 6.61797C 589.355 6.61797 589.211 6.46797 589.211 6.27617C 589.211 6.06602 589.355 5.92813 589.5471 5.92813zM589.541 8.466021C 589.3491 8.466021 589.211 8.328131 589.211 8.13008C 589.211 7.92617 589.3491 7.78203 589.541 7.78203C 589.733 7.78203 589.877 7.92617 589.877 8.13008C 589.877 8.328131 589.733 8.466021 589.541 8.466021z" stroke="#000000" stroke-width="0.4" fill="none" /><path id="1503" transform="matrix(1 0 0 -1 0 834)" d="M592.697 6.83984C 592.517 6.46211 592.439 6.43789 592.115 6.43789L592.115 6.43789L590.993 6.43789L590.993 6.43789L591.845 7.33203C 592.397 7.91992 592.637 8.273829 592.637 8.79609C 592.637 9.42617 592.157 9.810161 591.629 9.810161C 591.281 9.810161 590.999 9.653911 590.819 9.45586L590.819 9.45586L590.477 8.96992L590.477 8.96992L590.609 8.85C 590.765 9.08398 591.017 9.40781 591.425 9.40781C 591.869 9.40781 592.133 9.11406 592.133 8.61016C 592.133 8.09414 591.755 7.60195 591.383 7.15781C 591.083 6.81016 590.747 6.46797 590.411 6.13789L590.411 6.13789L590.411 6L590.411 6L592.655 6C 592.727 6.26992 592.787 6.53398 592.865 6.78594z" stroke="#000000" stroke-width="0.4" fill="none" /><path id="1504" transform="matrix(1 0 0 -1 0 834)" d="M593.616 8.976171C 593.7661 9.19805 594.006 9.45 594.336 9.45C 594.654 9.45 594.906 9.257811 594.906 8.88594C 594.906 8.44219 594.498 8.20781 593.946 8.03398L593.946 8.03398L593.988 7.86016C 594.084 7.88984 594.228 7.92617 594.372 7.92617C 594.7141 7.92617 595.134 7.70391 595.134 7.15195C 595.134 6.55781 594.834 6.23984 594.408 6.23984C 594.066 6.23984 593.82 6.40781 593.664 6.54609C 593.616 6.58789 593.5681 6.58203 593.52 6.54609C 593.466 6.50391 593.388 6.42617 593.382 6.34805C 593.3701 6.27617 593.394 6.21016 593.478 6.13203C 593.556 6.06016 593.802 5.92813 594.078 5.92813C 594.51 5.92813 595.65 6.37188 595.65 7.34414C 595.65 7.78203 595.344 8.153911 594.816 8.25586L594.816 8.25586L594.816 8.26797C 594.99 8.38789 595.134 8.49609 595.2241 8.59219C 595.338 8.70586 595.41 8.84414 595.41 9.01797C 595.41 9.47383 595.056 9.810161 594.5161 9.810161C 594.198 9.810161 593.9221 9.66016 593.754 9.47383L593.754 9.47383L593.49 9.09609z" stroke="#000000" stroke-width="0.4" fill="none" /><path id="1505" transform="matrix(1 0 0 -1 0 834)" d="M596.675 5.92813C 596.867 5.92813 597.011 6.06602 597.011 6.27617C 597.011 6.46797 596.867 6.61797 596.675 6.61797C 596.483 6.61797 596.3391 6.46797 596.3391 6.27617C 596.3391 6.06602 596.483 5.92813 596.675 5.92813zM596.669 8.466021C 596.477 8.466021 596.3391 8.328131 596.3391 8.13008C 596.3391 7.92617 596.477 7.78203 596.669 7.78203C 596.861 7.78203 597.005 7.92617 597.005 8.13008C 597.005 8.328131 596.861 8.466021 596.669 8.466021z" stroke="#000000" stroke-width="0.4" fill="none" /><path id="1506" transform="matrix(1 0 0 -1 0 834)" d="M598.265 9.3L599.663 9.3L599.663 9.3L599.819 9.68984L599.819 9.68984L599.783 9.73789L599.783 9.73789L598.073 9.73789L598.073 9.73789L597.8391 7.90781C 597.977 7.96211 598.205 8.028131 598.457 8.028131C 599.111 8.028131 599.435 7.65 599.435 7.121881C 599.435 6.67188 599.183 6.23398 598.673 6.23398C 598.307 6.23398 598.061 6.42617 597.935 6.53984C 597.875 6.58789 597.827 6.58203 597.773 6.53984C 597.707 6.48008 597.653 6.40195 597.647 6.34219C 597.635 6.26992 597.665 6.22188 597.743 6.13789C 597.833 6.05391 598.085 5.92813 598.361 5.92813C 598.679 5.93398 599.081 6.08984 599.405 6.35391C 599.771 6.65391 599.939 6.99609 599.939 7.35586C 599.939 7.84805 599.549 8.369921 598.781 8.369921C 598.619 8.369921 598.337 8.273829 598.109 8.18984z" stroke="#000000" stroke-width="0.4" fill="none" /><path id="1507" transform="matrix(1 0 0 -1 0 834)" d="M601.607 9.61211C 602.189 9.61211 602.345 8.86797 602.345 8.33984C 602.345 8.21992 602.3391 8.076171 602.321 7.94414C 602.195 7.84805 601.991 7.77617 601.781 7.77617C 601.277 7.77617 600.977 8.214061 600.977 8.74219C 600.977 9.09609 601.145 9.61211 601.607 9.61211zM601.685 9.810161C 600.911 9.810161 600.461 9.10781 600.461 8.53203C 600.461 7.90195 600.899 7.43398 601.535 7.43398C 601.649 7.43398 601.763 7.45781 601.895 7.53008L601.895 7.53008L602.2971 7.74609C 602.0991 6.83398 601.445 6.23398 600.587 6.08984L600.587 6.08984L600.617 5.91016C 600.767 5.91016 601.133 5.96992 601.457 6.10195C 602.267 6.42617 602.873 7.20586 602.873 8.310161C 602.873 9.12617 602.435 9.810161 601.685 9.810161z" stroke="#000000" stroke-width="0.4" fill="none" /><path id="1508" transform="matrix(1 0 0 -1 0 834)" d="M605.489 8.08203C 605.651 8.20195 605.897 8.33398 606.0891 8.33398C 606.527 8.33398 606.893 7.97383 606.893 7.33203C 606.893 6.65391 606.557 6.22188 606.053 6.22188C 605.8491 6.22188 605.621 6.31797 605.489 6.45586zM605.489 8.28008L605.489 8.75391C 605.207 8.63984 604.871 8.53789 604.619 8.49609L604.619 8.49609L604.619 8.351951C 604.991 8.30391 605.015 8.29219 605.015 7.90195L605.015 7.90195L605.015 5.18984C 605.015 4.79414 604.961 4.75781 604.577 4.72188L604.577 4.72188L604.577 4.56016L604.577 4.56016L605.999 4.56016L605.999 4.56016L605.999 4.72188C 605.531 4.76406 605.489 4.79414 605.489 5.25L605.489 5.25L605.489 6.03594C 605.567 5.99414 605.729 5.93398 605.903 5.92813C 606.683 6.07188 607.397 6.65391 607.397 7.56016C 607.397 8.153911 607.001 8.69414 606.335 8.69414C 606.263 8.69414 606.149 8.664061 606.041 8.60391z" stroke="#000000" stroke-width="0.4" fill="none" /><path id="1509" transform="matrix(1 0 0 -1 0 834)" d="M608.303 5.92813C 608.4951 5.92813 608.639 6.06602 608.639 6.27617C 608.639 6.46797 608.4951 6.61797 608.303 6.61797C 608.111 6.61797 607.967 6.46797 607.967 6.27617C 607.967 6.06602 608.111 5.92813 608.303 5.92813z" stroke="#000000" stroke-width="0.4" fill="none" /><path id="1510" transform="matrix(1 0 0 -1 0 834)" d="M615.125 6L615.125 6.15586C 614.783 6.19219 614.735 6.21602 614.735 6.61797L614.735 6.61797L614.735 7.77617C 614.735 8.36406 614.441 8.69414 613.973 8.69414C 613.805 8.69414 613.649 8.621881 613.523 8.53789C 613.373 8.44805 613.199 8.33398 613.025 8.20195C 612.905 8.51406 612.647 8.69414 612.359 8.69414C 612.167 8.69414 612.023 8.628131 611.867 8.53203C 611.687 8.417971 611.555 8.310161 611.429 8.226171L611.429 8.226171L611.429 8.712111C 611.165 8.59219 610.859 8.51406 610.595 8.466021L610.595 8.466021L610.595 8.328131C 610.9431 8.273829 610.961 8.24414 610.961 7.86016L610.961 7.86016L610.961 6.61797C 610.961 6.22813 610.907 6.19219 610.511 6.15586L610.511 6.15586L610.511 6L610.511 6L611.777 6L611.777 6L611.777 6.15586C 611.483 6.19219 611.435 6.22813 611.435 6.61797L611.435 6.61797L611.435 8.028131C 611.615 8.17813 611.8491 8.33984 612.0891 8.33984C 612.455 8.33984 612.611 8.09414 612.611 7.65L612.611 7.65L612.611 6.61797C 612.611 6.22188 612.557 6.19219 612.185 6.15586L612.185 6.15586L612.185 6L612.185 6L613.469 6L613.469 6L613.469 6.15586C 613.139 6.19219 613.085 6.22813 613.085 6.60586L613.085 6.60586L613.085 7.77617C 613.085 7.88984 613.079 7.95586 613.067 8.028131C 613.295 8.21992 613.523 8.33984 613.739 8.33984C 614.117 8.33984 614.267 8.069921 614.267 7.64414L614.267 7.64414L614.267 6.64219C 614.267 6.21602 614.201 6.19219 613.847 6.15586L613.847 6.15586L613.847 6z" stroke="#000000" stroke-width="0.4" fill="none" /><path id="1511" transform="matrix(1 0 0 -1 0 834)" d="M615.947 5.92813C 616.139 5.92813 616.283 6.06602 616.283 6.27617C 616.283 6.46797 616.139 6.61797 615.947 6.61797C 615.755 6.61797 615.611 6.46797 615.611 6.27617C 615.611 6.06602 615.755 5.92813 615.947 5.92813z" stroke="#000000" stroke-width="0.4" fill="none" /></g></g></svg>