<svg xmlns="http://www.w3.org/2000/svg" xmlns:xlink="http://www.w3.org/1999/xlink" id="body_1" preserveAspectRatio="xMinYMin meet" viewBox="0 0 872 1112"><defs><clipPath id="1"><path id="" clip-rule="evenodd" transform="matrix(1 0 0 1 0 0)" d="M0 834L0 0L0 0L654 0L654 0L654 834L654 834L0 834z" /></clipPath><clipPath id="2"><path id="" clip-rule="evenodd" transform="matrix(1 0 0 1 0 0)" d="M21 813L633 813L633 813L633 21L633 21L21 21z" /></clipPath><clipPath id="3"><path id="" clip-rule="evenodd" transform="matrix(1 0 0 1 0 0)" d="M334.823 485.134L441.576 485.134L441.576 485.134L441.576 346.984L441.576 346.984L334.823 346.984z" /></clipPath><clipPath id="4"><path id="" clip-rule="evenodd" transform="matrix(1 0 0 1 0 0)" d="M334.823 485.134L441.576 485.134L441.576 485.134L441.576 346.984L441.576 346.984L334.823 346.984z" /></clipPath><clipPath id="5"><path id="" clip-rule="evenodd" transform="matrix(1 0 0 1 0 0)" d="M355.051 433.424L359.883 433.424L359.883 433.424L359.883 407.915L359.883 407.915L355.051 407.915z" /></clipPath><clipPath id="6"><path id="" clip-rule="evenodd" transform="matrix(1 0 0 1 0 0)" d="M355.051 433.424L359.883 433.424L359.883 433.424L359.883 407.915L359.883 407.915L355.051 407.915z" /></clipPath><clipPath id="7"><path id="" clip-rule="evenodd" transform="matrix(1 0 0 1 0 0)" d="M355.051 433.424L359.8827 433.424L359.8827 433.424L359.8827 407.9162L359.8827 407.9162L355.051 407.9162z" /></clipPath><clipPath id="8"><path id="" clip-rule="evenodd" transform="matrix(1 0 0 1 0 0)" d="M355.051 433.424L359.883 433.424L359.883 433.424L359.883 407.915L359.883 407.915L355.051 407.915z" /></clipPath><clipPath id="9"><path id="" clip-rule="evenodd" transform="matrix(1 0 0 1 0 0)" d="M334.822 485.99L473.976 485.99L473.976 485.99L473.976 346.984L473.976 346.984L334.822 346.984z" /></clipPath><clipPath id="10"><path id="" clip-rule="evenodd" transform="matrix(1 0 0 1 0 0)" d="M413.591 428.867L419.6602 428.867L419.6602 428.867L419.6602 408.0963L419.6602 408.0963L413.591 408.0963z" /></clipPath><clipPath id="11"><path id="" clip-rule="evenodd" transform="matrix(1 0 0 1 0 0)" d="M413.591 428.867L419.66 428.867L419.66 428.867L419.66 408.096L419.66 408.096L413.591 408.096z" /></clipPath><clipPath id="12"><path id="" clip-rule="evenodd" transform="matrix(1 0 0 1 0 0)" d="M413.591 428.867L419.6602 428.867L419.6602 428.867L419.6602 408.0967L419.6602 408.0967L413.591 408.0967z" /></clipPath><clipPath id="13"><path id="" clip-rule="evenodd" transform="matrix(1 0 0 1 0 0)" d="M344.123 438.239L346.4718 438.239L346.4718 438.239L346.4718 435.78L346.4718 435.78L344.123 435.78z" /></clipPath><clipPath id="14"><path id="" clip-rule="evenodd" transform="matrix(1 0 0 1 0 0)" d="M344.123 438.239L346.472 438.239L346.472 438.239L346.472 435.78L346.472 435.78L344.123 435.78z" /></clipPath><clipPath id="15"><path id="" clip-rule="evenodd" transform="matrix(1 0 0 1 0 0)" d="M344.123 438.239L346.4718 438.239L346.4718 438.239L346.4718 435.78L346.4718 435.78L344.123 435.78z" /></clipPath><clipPath id="16"><path id="" clip-rule="evenodd" transform="matrix(1 0 0 1 0 0)" d="M431.395 435.165L433.745 435.165L433.745 435.165L433.745 432.7072L433.745 432.7072L431.395 432.7072z" /></clipPath><clipPath id="17"><path id="" clip-rule="evenodd" transform="matrix(1 0 0 1 0 0)" d="M431.395 435.165L433.745 435.165L433.745 435.165L433.745 432.707L433.745 432.707L431.395 432.707z" /></clipPath><clipPath id="18"><path id="" clip-rule="evenodd" transform="matrix(1 0 0 1 0 0)" d="M431.395 435.165L433.7442 435.165L433.7442 435.165L433.7442 432.706L433.7442 432.706L431.395 432.706z" /></clipPath><clipPath id="19"><path id="" clip-rule="evenodd" transform="matrix(1 0 0 1 0 0)" d="M334.822 485.99L473.976 485.99L473.976 485.99L473.976 346.984L473.976 346.984L334.822 346.984z" /></clipPath><clipPath id="20"><path id="" clip-rule="evenodd" transform="matrix(1 0 0 1 0 0)" d="M428.377 447.758L428.377 472.303C 432.472 480.054 440.324 485.298 449.339 485.298L449.339 485.298L449.339 485.298C 459.477 485.298 468.145 478.668 471.651 469.298L471.651 469.298L471.651 469.298L471.651 469.298L471.651 450.763C 468.145 441.393 459.477 434.763 449.339 434.763L449.339 434.763L449.339 434.763C 440.324 434.763 432.472 440.007 428.377 447.758" /></clipPath><clipPath id="21"><path id="" clip-rule="evenodd" transform="matrix(1 0 0 1 0 0)" d="M428.377 447.758L428.377 472.303C 432.472 480.054 440.324 485.298 449.339 485.298L449.339 485.298L449.339 485.298C 459.477 485.298 468.145 478.668 471.651 469.298L471.651 469.298L471.651 469.298L471.651 469.298L471.651 450.763C 468.145 441.393 459.477 434.763 449.339 434.763L449.339 434.763L449.339 434.763C 440.324 434.763 432.472 440.007 428.377 447.758" /></clipPath><clipPath id="22"><path id="" clip-rule="evenodd" transform="matrix(1 0 0 1 0 0)" d="M334.822 485.99L473.976 485.99L473.976 485.99L473.976 346.984L473.976 346.984L334.822 346.984z" /></clipPath><clipPath id="23"><path id="" clip-rule="evenodd" transform="matrix(1 0 0 1 0 0)" d="M317.123 264.913L418.918 264.913L418.918 264.913L418.918 123.992L418.918 123.992L317.123 123.992z" /></clipPath><clipPath id="24"><path id="" clip-rule="evenodd" transform="matrix(1 0 0 1 0 0)" d="M317.123 264.913L418.918 264.913L418.918 264.913L418.918 123.992L418.918 123.992L317.123 123.992z" /></clipPath><clipPath id="25"><path id="" clip-rule="evenodd" transform="matrix(1 0 0 1 0 0)" d="M417.324 264.913L515.1103 264.913L515.1103 264.913L515.1103 123.992L515.1103 123.992L417.324 123.992z" /></clipPath><clipPath id="26"><path id="" clip-rule="evenodd" transform="matrix(1 0 0 1 0 0)" d="M417.324 264.913L515.1103 264.913L515.1103 264.913L515.1103 123.992L515.1103 123.992L417.324 123.992z" /></clipPath><clipPath id="27"><path id="" clip-rule="evenodd" transform="matrix(1 0 0 1 0 0)" d="M352.753 160.601L354.8557 160.601L354.8557 160.601L354.8557 148.4471L354.8557 148.4471L352.753 148.4471z" /></clipPath><clipPath id="28"><path id="" clip-rule="evenodd" transform="matrix(1 0 0 1 0 0)" d="M352.753 160.601L354.856 160.601L354.856 160.601L354.856 148.447L354.856 148.447L352.753 148.447z" /></clipPath><clipPath id="29"><path id="" clip-rule="evenodd" transform="matrix(1 0 0 1 0 0)" d="M352.753 160.601L354.8557 160.601L354.8557 160.601L354.8557 148.4467L354.8557 148.4467L352.753 148.4467z" /></clipPath><clipPath id="30"><path id="" clip-rule="evenodd" transform="matrix(1 0 0 1 0 0)" d="M343.309 171.803L344.9032 171.803L344.9032 171.803L344.9032 170.046L344.9032 170.046L343.309 170.046z" /></clipPath><clipPath id="31"><path id="" clip-rule="evenodd" transform="matrix(1 0 0 1 0 0)" d="M343.309 171.803L344.903 171.803L344.903 171.803L344.903 170.046L344.903 170.046L343.309 170.046z" /></clipPath><clipPath id="32"><path id="" clip-rule="evenodd" transform="matrix(1 0 0 1 0 0)" d="M343.309 171.803L344.9032 171.803L344.9032 171.803L344.9032 170.046L344.9032 170.046L343.309 170.046z" /></clipPath><clipPath id="33"><path id="" clip-rule="evenodd" transform="matrix(1 0 0 1 0 0)" d="M313.424 265.697L543.52 265.697L543.52 265.697L543.52 123.992L543.52 123.992L313.424 123.992z" /></clipPath><clipPath id="34"><path id="" clip-rule="evenodd" transform="matrix(1 0 0 1 0 0)" d="M314.135 239.591C 314.135 253.577 324.42 264.914 337.108 264.914L337.108 264.914L337.108 264.914C 349.796 264.914 360.081 253.577 360.081 239.591L360.081 239.591L360.081 239.591C 360.081 225.605 349.796 214.268 337.108 214.268L337.108 214.268L337.108 214.268C 324.42 214.268 314.135 225.605 314.135 239.591" /></clipPath><clipPath id="35"><path id="" clip-rule="evenodd" transform="matrix(1 0 0 1 0 0)" d="M314.135 239.591C 314.135 253.577 324.42 264.914 337.108 264.914L337.108 264.914L337.108 264.914C 349.796 264.914 360.081 253.577 360.081 239.591L360.081 239.591L360.081 239.591C 360.081 225.605 349.796 214.268 337.108 214.268L337.108 214.268L337.108 214.268C 324.42 214.268 314.135 225.605 314.135 239.591" /></clipPath><clipPath id="36"><path id="" clip-rule="evenodd" transform="matrix(1 0 0 1 0 0)" d="M313.424 265.697L543.52 265.697L543.52 265.697L543.52 123.992L543.52 123.992L313.424 123.992z" /></clipPath><clipPath id="37"><path id="" clip-rule="evenodd" transform="matrix(1 0 0 1 0 0)" d="M444.737 202.365L457.9921 202.365L457.9921 202.365L457.9921 194.4532L457.9921 194.4532L444.737 194.4532z" /></clipPath><clipPath id="38"><path id="" clip-rule="evenodd" transform="matrix(1 0 0 1 0 0)" d="M444.737 202.365L457.992 202.365L457.992 202.365L457.992 194.4529L457.992 194.4529L444.737 194.4529z" /></clipPath><clipPath id="39"><path id="" clip-rule="evenodd" transform="matrix(1 0 0 1 0 0)" d="M444.737 202.365L457.9921 202.365L457.9921 202.365L457.9921 194.4532L457.9921 194.4532L444.737 194.4532z" /></clipPath><clipPath id="40"><path id="" clip-rule="evenodd" transform="matrix(1 0 0 1 0 0)" d="M444.737 202.365L457.9921 202.365L457.9921 202.365L457.9921 194.4521L457.9921 194.4521L444.737 194.4521z" /></clipPath><clipPath id="41"><path id="" clip-rule="evenodd" transform="matrix(1 0 0 1 0 0)" d="M444.737 202.365L457.9921 202.365L457.9921 202.365L457.9921 194.4532L457.9921 194.4532L444.737 194.4532z" /></clipPath><clipPath id="42"><path id="" clip-rule="evenodd" transform="matrix(1 0 0 1 0 0)" d="M313.424 265.697L543.52 265.697L543.52 265.697L543.52 123.992L543.52 123.992L313.424 123.992z" /></clipPath><clipPath id="43"><path id="" clip-rule="evenodd" transform="matrix(1 0 0 1 0 0)" d="M487.947 228.399L487.947 240.368C 490.47 254.364 501.673 264.914 515.111 264.914L515.111 264.914L515.111 264.914C 528.556 264.914 539.764 254.354 542.281 240.347L542.281 240.347L542.281 240.347L542.281 240.347L542.281 228.42C 539.764 214.413 528.556 203.853 515.111 203.853L515.111 203.853L515.111 203.853C 501.673 203.853 490.47 214.403 487.947 228.399" /></clipPath><clipPath id="44"><path id="" clip-rule="evenodd" transform="matrix(1 0 0 1 0 0)" d="M487.947 228.399L487.947 240.368C 490.47 254.364 501.673 264.914 515.111 264.914L515.111 264.914L515.111 264.914C 528.556 264.914 539.764 254.354 542.281 240.347L542.281 240.347L542.281 240.347L542.281 240.347L542.281 228.42C 539.764 214.413 528.556 203.853 515.111 203.853L515.111 203.853L515.111 203.853C 501.673 203.853 490.47 214.403 487.947 228.399" /></clipPath><clipPath id="45"><path id="" clip-rule="evenodd" transform="matrix(1 0 0 1 0 0)" d="M513.225 241.385L515.7781 241.385L515.7781 241.385L515.7781 240.5139L515.7781 240.5139L513.225 240.5139z" /></clipPath><clipPath id="46"><path id="" clip-rule="evenodd" transform="matrix(1 0 0 1 0 0)" d="M513.225 241.385L515.778 241.385L515.778 241.385L515.778 240.514L515.778 240.514L513.225 240.514z" /></clipPath><clipPath id="47"><path id="" clip-rule="evenodd" transform="matrix(1 0 0 1 0 0)" d="M513.2 241.4L513.2 240.5L513.2 240.5L515.8 240.5L515.8 240.5L515.8 241.4z" /></clipPath><clipPath id="48"><path id="" clip-rule="evenodd" transform="matrix(1 0 0 1 0 0)" d="M513.226 241.335L515.778 241.335L515.778 241.335L515.778 240.465L515.778 240.465L513.226 240.465z" /></clipPath><clipPath id="49"><path id="" clip-rule="evenodd" transform="matrix(1 0 0 1 0 0)" d="M513.225 241.385L515.7781 241.385L515.7781 241.385L515.7781 240.5139L515.7781 240.5139L513.225 240.5139z" /></clipPath><clipPath id="50"><path id="" clip-rule="evenodd" transform="matrix(1 0 0 1 0 0)" d="M512.006 247.239L514.2322 247.239L514.2322 247.239L514.2322 244.5078L514.2322 244.5078L512.006 244.5078z" /></clipPath><clipPath id="51"><path id="" clip-rule="evenodd" transform="matrix(1 0 0 1 0 0)" d="M512.006 247.239L514.232 247.239L514.232 247.239L514.232 244.508L514.232 244.508L512.006 244.508z" /></clipPath><clipPath id="52"><path id="" clip-rule="evenodd" transform="matrix(1 0 0 1 0 0)" d="M512.008 247.239L514.2319 247.239L514.2319 247.239L514.2319 244.507L514.2319 244.507L512.008 244.507z" /></clipPath><clipPath id="53"><path id="" clip-rule="evenodd" transform="matrix(1 0 0 1 0 0)" d="M512.008 247.239L514.232 247.239L514.232 247.239L514.232 244.507L514.232 244.507L512.008 244.507z" /></clipPath><clipPath id="54"><path id="" clip-rule="evenodd" transform="matrix(1 0 0 1 0 0)" d="M512.006 247.239L514.2322 247.239L514.2322 247.239L514.2322 244.5081L514.2322 244.5081L512.006 244.5081z" /></clipPath><clipPath id="55"><path id="" clip-rule="evenodd" transform="matrix(1 0 0 1 0 0)" d="M506.977 248.237L508.4192 248.237L508.4192 248.237L508.4192 245.2928L508.4192 245.2928L506.977 245.2928z" /></clipPath><clipPath id="56"><path id="" clip-rule="evenodd" transform="matrix(1 0 0 1 0 0)" d="M506.977 248.237L508.419 248.237L508.419 248.237L508.419 245.293L508.419 245.293L506.977 245.293z" /></clipPath><clipPath id="57"><path id="" clip-rule="evenodd" transform="matrix(1 0 0 1 0 0)" d="M506.979 248.237L508.4212 248.237L508.4212 248.237L508.4212 245.2928L508.4212 245.2928L506.979 245.2928z" /></clipPath><clipPath id="58"><path id="" clip-rule="evenodd" transform="matrix(1 0 0 1 0 0)" d="M506.979 248.237L508.421 248.237L508.421 248.237L508.421 245.293L508.421 245.293L506.979 245.293z" /></clipPath><clipPath id="59"><path id="" clip-rule="evenodd" transform="matrix(1 0 0 1 0 0)" d="M506.977 248.237L508.4192 248.237L508.4192 248.237L508.4192 245.2928L508.4192 245.2928L506.977 245.2928z" /></clipPath><clipPath id="60"><path id="" clip-rule="evenodd" transform="matrix(1 0 0 1 0 0)" d="M313.424 265.697L543.52 265.697L543.52 265.697L543.52 123.992L543.52 123.992L313.424 123.992z" /></clipPath><clipPath id="61"><path id="" clip-rule="evenodd" transform="matrix(1 0 0 1 0 0)" d="M324.04 708.866L402.0091 708.866L402.0091 708.866L402.0091 573.413L402.0091 573.413L324.04 573.413z" /></clipPath><clipPath id="62"><path id="" clip-rule="evenodd" transform="matrix(1 0 0 1 0 0)" d="M324.04 708.866L402.0091 708.866L402.0091 708.866L402.0091 573.413L402.0091 573.413L324.04 573.413z" /></clipPath><clipPath id="63"><path id="" clip-rule="evenodd" transform="matrix(1 0 0 1 0 0)" d="M401.61 708.016L494.032 708.016L494.032 708.016L494.032 574.055L494.032 574.055L401.61 574.055z" /></clipPath><clipPath id="64"><path id="" clip-rule="evenodd" transform="matrix(1 0 0 1 0 0)" d="M401.61 708.016L494.032 708.016L494.032 708.016L494.032 574.055L494.032 574.055L401.61 574.055z" /></clipPath><clipPath id="65"><path id="" clip-rule="evenodd" transform="matrix(1 0 0 1 0 0)" d="M345.507 632.921L346.548 632.921L346.548 632.921L346.548 631.7468L346.548 631.7468L345.507 631.7468z" /></clipPath><clipPath id="66"><path id="" clip-rule="evenodd" transform="matrix(1 0 0 1 0 0)" d="M345.507 632.921L346.548 632.921L346.548 632.921L346.548 631.747L346.548 631.747L345.507 631.747z" /></clipPath><clipPath id="67"><path id="" clip-rule="evenodd" transform="matrix(1 0 0 1 0 0)" d="M345.507 632.921L346.5488 632.921L346.5488 632.921L346.5488 631.7479L346.5488 631.7479L345.507 631.7479z" /></clipPath><clipPath id="68"><path id="" clip-rule="evenodd" transform="matrix(1 0 0 1 0 0)" d="M311.538 709.583L514.701 709.583L514.701 709.583L514.701 573.413L514.701 573.413L311.538 573.413z" /></clipPath><clipPath id="69"><path id="" clip-rule="evenodd" transform="matrix(1 0 0 1 0 0)" d="M312.173 682.293C 312.173 696.97 322.896 708.867 336.124 708.867L336.124 708.867L336.124 708.867C 349.351 708.867 360.075 696.97 360.075 682.293L360.075 682.293L360.075 682.293C 360.075 667.617 349.351 655.719 336.124 655.719L336.124 655.719L336.124 655.719C 322.896 655.719 312.173 667.617 312.173 682.293" /></clipPath><clipPath id="70"><path id="" clip-rule="evenodd" transform="matrix(1 0 0 1 0 0)" d="M312.173 682.293C 312.173 696.97 322.896 708.867 336.124 708.867L336.124 708.867L336.124 708.867C 349.351 708.867 360.075 696.97 360.075 682.293L360.075 682.293L360.075 682.293C 360.075 667.617 349.351 655.719 336.124 655.719L336.124 655.719L336.124 655.719C 322.896 655.719 312.173 667.617 312.173 682.293" /></clipPath><clipPath id="71"><path id="" clip-rule="evenodd" transform="matrix(1 0 0 1 0 0)" d="M311.538 709.583L514.701 709.583L514.701 709.583L514.701 573.413L514.701 573.413L311.538 573.413z" /></clipPath><clipPath id="72"><path id="" clip-rule="evenodd" transform="matrix(1 0 0 1 0 0)" d="M418.233 620.135L420.1639 620.135L420.1639 620.135L420.1639 617.96L420.1639 617.96L418.233 617.96z" /></clipPath><clipPath id="73"><path id="" clip-rule="evenodd" transform="matrix(1 0 0 1 0 0)" d="M418.233 620.135L420.164 620.135L420.164 620.135L420.164 617.96L420.164 617.96L418.233 617.96z" /></clipPath><clipPath id="74"><path id="" clip-rule="evenodd" transform="matrix(1 0 0 1 0 0)" d="M418.233 620.135L420.1639 620.135L420.1639 620.135L420.1639 617.96L420.1639 617.96L418.233 617.96z" /></clipPath><clipPath id="75"><path id="" clip-rule="evenodd" transform="matrix(1 0 0 1 0 0)" d="M479.431 623.397L481.3623 623.397L481.3623 623.397L481.3623 621.222L481.3623 621.222L479.431 621.222z" /></clipPath><clipPath id="76"><path id="" clip-rule="evenodd" transform="matrix(1 0 0 1 0 0)" d="M479.431 623.397L481.362 623.397L481.362 623.397L481.362 621.222L481.362 621.222L479.431 621.222z" /></clipPath><clipPath id="77"><path id="" clip-rule="evenodd" transform="matrix(1 0 0 1 0 0)" d="M479.431 623.397L481.3623 623.397L481.3623 623.397L481.3623 621.222L481.3623 621.222L479.431 621.222z" /></clipPath><clipPath id="78"><path id="" clip-rule="evenodd" transform="matrix(1 0 0 1 0 0)" d="M311.538 709.583L514.701 709.583L514.701 709.583L514.701 573.413L514.701 573.413L311.538 573.413z" /></clipPath><clipPath id="79"><path id="" clip-rule="evenodd" transform="matrix(1 0 0 1 0 0)" d="M473.205 658.266C 471.513 659.828 470.007 661.636 468.728 663.641L468.728 663.641L468.728 663.641L468.728 663.641L468.728 696.472C 473.268 703.589 480.681 708.225 489.055 708.225L489.055 708.225L489.055 708.225C 497.645 708.225 505.224 703.346 509.728 695.917L509.728 695.917L509.728 695.917L509.728 695.917L509.728 664.196C 508.378 661.969 506.752 659.971 504.905 658.266L504.905 658.266L504.905 658.266z" /></clipPath><clipPath id="80"><path id="" clip-rule="evenodd" transform="matrix(1 0 0 1 0 0)" d="M473.205 658.266C 471.513 659.828 470.007 661.636 468.728 663.641L468.728 663.641L468.728 663.641L468.728 663.641L468.728 696.472C 473.268 703.589 480.681 708.225 489.055 708.225L489.055 708.225L489.055 708.225C 497.645 708.225 505.224 703.346 509.728 695.917L509.728 695.917L509.728 695.917L509.728 695.917L509.728 664.196C 508.378 661.969 506.752 659.971 504.905 658.266L504.905 658.266L504.905 658.266z" /></clipPath><clipPath id="81"><path id="" clip-rule="evenodd" transform="matrix(1 0 0 1 0 0)" d="M311.538 709.583L514.701 709.583L514.701 709.583L514.701 573.413L514.701 573.413L311.538 573.413z" /></clipPath><clipPath id="82"><path id="" clip-rule="evenodd" transform="matrix(1 0 0 1 0 0)" d="M462.207 632.253L481.5781 632.253L481.5781 632.253L481.5781 624.8948L481.5781 624.8948L462.207 624.8948z" /></clipPath><clipPath id="83"><path id="" clip-rule="evenodd" transform="matrix(1 0 0 1 0 0)" d="M462.207 632.253L481.578 632.253L481.578 632.253L481.578 624.895L481.578 624.895L462.207 624.895z" /></clipPath><clipPath id="84"><path id="" clip-rule="evenodd" transform="matrix(1 0 0 1 0 0)" d="M462.207 632.253L481.5781 632.253L481.5781 632.253L481.5781 624.8948L481.5781 624.8948L462.207 624.8948z" /></clipPath><clipPath id="85"><path id="" clip-rule="evenodd" transform="matrix(1 0 0 1 0 0)" d="M311.538 709.583L514.701 709.583L514.701 709.583L514.701 573.413L514.701 573.413L311.538 573.413z" /></clipPath><clipPath id="86"><path id="" clip-rule="evenodd" transform="matrix(1 0 0 1 0 0)" d="M259.535 168.625L301.2038 168.625L301.2038 168.625L301.2038 114.543L301.2038 114.543L259.535 114.543z" /></clipPath><clipPath id="87"><path id="" clip-rule="evenodd" transform="matrix(1 0 0 1 0 0)" d="M259.535 168.625L301.2038 168.625L301.2038 168.625L301.2038 114.543L301.2038 114.543L259.535 114.543z" /></clipPath><clipPath id="88"><path id="" clip-rule="evenodd" transform="matrix(1 0 0 1 0 0)" d="M262.155 388.594L299.3929 388.594L299.3929 388.594L299.3929 331.678L299.3929 331.678L262.155 331.678z" /></clipPath><clipPath id="89"><path id="" clip-rule="evenodd" transform="matrix(1 0 0 1 0 0)" d="M262.155 388.594L299.3929 388.594L299.3929 388.594L299.3929 331.678L299.3929 331.678L262.155 331.678z" /></clipPath><clipPath id="90"><path id="" clip-rule="evenodd" transform="matrix(1 0 0 1 0 0)" d="M270.449 608.563L298.7951 608.563L298.7951 608.563L298.7951 552.281L298.7951 552.281L270.449 552.281z" /></clipPath><clipPath id="91"><path id="" clip-rule="evenodd" transform="matrix(1 0 0 1 0 0)" d="M270.449 608.563L298.7951 608.563L298.7951 608.563L298.7951 552.281L298.7951 552.281L270.449 552.281z" /></clipPath><clipPath id="92"><path id="" clip-rule="evenodd" transform="matrix(1 0 0 1 0 0)" d="M273.591 687.876L290.575 687.876L290.575 687.876L290.575 655.1358L290.575 655.1358L273.591 655.1358z" /></clipPath><clipPath id="93"><path id="" clip-rule="evenodd" transform="matrix(1 0 0 1 0 0)" d="M273.591 687.876L290.575 687.876L290.575 687.876L290.575 655.1358L290.575 655.1358L273.591 655.1358z" /></clipPath><clipPath id="94"><path id="" clip-rule="evenodd" transform="matrix(1 0 0 1 0 0)" d="M272.533 652.018L298.1303 652.018L298.1303 652.018L298.1303 616.159L298.1303 616.159L272.533 616.159z" /></clipPath><clipPath id="95"><path id="" clip-rule="evenodd" transform="matrix(1 0 0 1 0 0)" d="M272.533 652.018L298.1303 652.018L298.1303 652.018L298.1303 616.159L298.1303 616.159L272.533 616.159z" /></clipPath><clipPath id="96"><path id="" clip-rule="evenodd" transform="matrix(1 0 0 1 0 0)" d="M488.915 608.563L514.5123 608.563L514.5123 608.563L514.5123 572.704L514.5123 572.704L488.915 572.704z" /></clipPath><clipPath id="97"><path id="" clip-rule="evenodd" transform="matrix(1 0 0 1 0 0)" d="M488.915 608.563L514.5123 608.563L514.5123 608.563L514.5123 572.704L514.5123 572.704L488.915 572.704z" /></clipPath><clipPath id="98"><path id="" clip-rule="evenodd" transform="matrix(1 0 0 1 0 0)" d="M285.331 452.858L310.9283 452.858L310.9283 452.858L310.9283 417.0006L310.9283 417.0006L285.331 417.0006z" /></clipPath><clipPath id="99"><path id="" clip-rule="evenodd" transform="matrix(1 0 0 1 0 0)" d="M285.331 452.858L310.9283 452.858L310.9283 452.858L310.9283 417.0006L310.9283 417.0006L285.331 417.0006z" /></clipPath><clipPath id="100"><path id="" clip-rule="evenodd" transform="matrix(1 0 0 1 0 0)" d="M486.166 452.858L511.0258 452.858L511.0258 452.858L511.0258 417.0006L511.0258 417.0006L486.166 417.0006z" /></clipPath><clipPath id="101"><path id="" clip-rule="evenodd" transform="matrix(1 0 0 1 0 0)" d="M486.166 452.858L511.0258 452.858L511.0258 452.858L511.0258 417.0006L511.0258 417.0006L486.166 417.0006z" /></clipPath><clipPath id="102"><path id="" clip-rule="evenodd" transform="matrix(1 0 0 1 0 0)" d="M275.607 223.86L301.2039 223.86L301.2039 223.86L301.2039 188.001L301.2039 188.001L275.607 188.001z" /></clipPath><clipPath id="103"><path id="" clip-rule="evenodd" transform="matrix(1 0 0 1 0 0)" d="M275.607 223.86L301.2039 223.86L301.2039 223.86L301.2039 188.001L301.2039 188.001L275.607 188.001z" /></clipPath><clipPath id="104"><path id="" clip-rule="evenodd" transform="matrix(1 0 0 1 0 0)" d="M507.85 197.031L532.7102 197.031L532.7102 197.031L532.7102 161.1732L532.7102 161.1732L507.85 161.1732z" /></clipPath><clipPath id="105"><path id="" clip-rule="evenodd" transform="matrix(1 0 0 1 0 0)" d="M507.85 197.031L532.7102 197.031L532.7102 197.031L532.7102 161.1732L532.7102 161.1732L507.85 161.1732z" /></clipPath><clipPath id="106"><path id="" clip-rule="evenodd" transform="matrix(1 0 0 1 0 0)" d="M383.689 608.563L413.3148 608.563L413.3148 608.563L413.3148 572.704L413.3148 572.704L383.689 572.704z" /></clipPath><clipPath id="107"><path id="" clip-rule="evenodd" transform="matrix(1 0 0 1 0 0)" d="M383.689 608.563L413.3148 608.563L413.3148 608.563L413.3148 572.704L413.3148 572.704L383.689 572.704z" /></clipPath><clipPath id="108"><path id="" clip-rule="evenodd" transform="matrix(1 0 0 1 0 0)" d="M276.666 260.427L293.65 260.427L293.65 260.427L293.65 227.6872L293.65 227.6872L276.666 227.6872z" /></clipPath><clipPath id="109"><path id="" clip-rule="evenodd" transform="matrix(1 0 0 1 0 0)" d="M276.666 260.427L293.65 260.427L293.65 260.427L293.65 227.6872L293.65 227.6872L276.666 227.6872z" /></clipPath></defs><g transform="matrix(1.333333 0 0 1.333333 0 0)"><g clip-path="url(#1)"><g clip-path="url(#2)"><path id="1" transform="matrix(1 0 0 -1 0 834)" d="M91.866 67.4211L562.134 67.4211L562.134 74.92501L91.866 74.92501z" stroke="none" fill="#686868" fill-rule="nonzero" /><path id="2" transform="matrix(1 0 0 -1 0 834)" d="M562.134 526.984L91.866 526.984" stroke="#686868" stroke-width="1" fill="none" /><path id="3" transform="matrix(1 0 0 -1 0 834)" d="M562.134 307.016L91.866 307.016" stroke="#686868" stroke-width="1" fill="none" /></g><g clip-path="url(#3)"></g><g clip-path="url(#4)"><g transform="matrix(0.9976916 0 0 1.001087 334.823 346.984)"><g transform="matrix(1 0 0 1 0 0)"><image x="0" y="0" xlink:href="img_01.png" width="107" height="138" /></g></g></g><g clip-path="url(#5)"><g><g clip-path="url(#6)"><g clip-path="url(#7)"><path id="8" transform="matrix(1 0 0 -1 0 834)" d="M355.3164 425.8166C 358.5375 422.277 362.1984 415.032 356.6533 402.6254" stroke="#FFFFFF" stroke-width="0.7342038" fill="none" stroke-opacity="0.8" /></g><g clip-path="url(#8)"><path id="9" transform="matrix(1 0 0 -1 0 834)" d="M355.675 400.575L355.882 404.229L356.846 403.057L358.32 402.97z" stroke="none" fill="#FFFFFF" fill-rule="nonzero" fill-opacity="0.8" /></g></g></g></g><g clip-path="url(#9)"><path id="10" transform="matrix(1 0 0 -1 0 834)" d="M353.8202 427.2576C 354.2805 426.8721 354.7926 426.3934 355.3174 425.8166" stroke="#000000" stroke-width="0.7342038" fill="none" /></g><path id="11" transform="matrix(1 0 0 -1 0 834)" d="M352.004 428.543L355.427 427.79L354.178 426.965L353.878 425.452z" stroke="none" fill="#000000" fill-rule="nonzero" /><g clip-path="url(#10)"><g><g clip-path="url(#11)"><g clip-path="url(#12)"><path id="12" transform="matrix(1 0 0 -1 0 834)" d="M418.6664 423.856C 417.137 420.478 414.4436 413.4939 415.0818 407.3842" stroke="#FFFFFF" stroke-width="0.7342038" fill="none" stroke-opacity="0.8" /><path id="13" transform="matrix(1 0 0 -1 0 834)" d="M418.479 423.427L417.005 423.521L419.661 425.904L419.438 422.251z" stroke="none" fill="#FFFFFF" fill-rule="nonzero" fill-opacity="0.8" /><path id="14" transform="matrix(1 0 0 -1 0 834)" d="M415.49 405.132L413.591 408.205L413.591 408.206L415.03 407.858L416.268 408.7L415.49 405.132" stroke="none" fill="#FFFFFF" fill-rule="nonzero" fill-opacity="0.8" /></g></g></g></g><g clip-path="url(#13)"><g><g clip-path="url(#14)"><g clip-path="url(#15)"><path id="15" transform="matrix(1 0 0 -1 0 834)" d="M344.123 396.989C 344.123 396.311 344.65 395.76 345.298 395.76C 345.947 395.76 346.473 396.311 346.473 396.989C 346.473 397.668 345.947 398.219 345.298 398.219C 344.65 398.219 344.123 397.668 344.123 396.989" stroke="none" fill="#FFFFFF" fill-rule="nonzero" fill-opacity="0.8" /></g></g></g></g><g clip-path="url(#16)"><g><g clip-path="url(#17)"><g clip-path="url(#18)"><path id="16" transform="matrix(1 0 0 -1 0 834)" d="M431.396 400.063C 431.396 399.384 431.921 398.834 432.57 398.834C 433.219 398.834 433.745 399.384 433.745 400.063C 433.745 400.742 433.219 401.292 432.57 401.292C 431.921 401.292 431.396 400.742 431.396 400.063" stroke="none" fill="#FFFFFF" fill-rule="nonzero" fill-opacity="0.8" /></g></g></g></g><g clip-path="url(#19)"><path id="17" transform="matrix(1 0 0 -1 0 834)" d="M473.317 373.968C 473.317 360.013 462.583 348.701 449.341 348.701C 436.1 348.701 425.365 360.013 425.365 373.968C 425.365 387.923 436.1 399.236 449.341 399.236C 462.583 399.236 473.317 387.923 473.317 373.968" stroke="none" fill="#FFFFFF" fill-rule="nonzero" /></g><g clip-path="url(#20)"></g><g clip-path="url(#21)"><g transform="matrix(1.006393 0 0 1.000041 428.377 432.5407)"><g transform="matrix(1 0 0 1 0 0)"><image x="0" y="0" xlink:href="img_02.png" width="43" height="56" /></g></g></g><g clip-path="url(#22)"><path id="19" transform="matrix(1 0 0 -1 0 834)" d="M473.3168 373.9658C 473.3168 360.0107 462.5823 348.6984 449.3412 348.6984C 436.0991 348.6984 425.3647 360.0107 425.3647 373.9658C 425.3647 387.9207 436.0991 399.233 449.3412 399.233C 462.5823 399.233 473.3168 387.9207 473.3168 373.9658z" stroke="#000000" stroke-width="0.7342038" fill="none" /></g><g clip-path="url(#23)"></g><g clip-path="url(#24)"><g transform="matrix(0.9979903 0 0 0.9994397 317.123 123.9919)"><g transform="matrix(1 0 0 1 0 0)"><image x="0" y="0" xlink:href="img_03.png" width="102" height="141" /></g></g></g><g clip-path="url(#25)"></g><g clip-path="url(#26)"><g transform="matrix(0.9978316 0 0 0.9994397 417.324 123.9919)"><g transform="matrix(1 0 0 1 0 0)"><image x="0" y="0" xlink:href="img_04.png" width="98" height="141" /></g></g></g><g clip-path="url(#27)"><g><g clip-path="url(#28)"><g clip-path="url(#29)"><path id="35" transform="matrix(1 0 0 -1 0 834)" d="M353.207 673.4L354.402 685.554" stroke="none" fill="#000000" fill-rule="nonzero" fill-opacity="0.8" /><path id="36" transform="matrix(1 0 0 -1 0 834)" d="M354.2957 684.4665L353.3149 674.4833" stroke="#FFFFFF" stroke-width="0.4739669" fill="none" stroke-opacity="0.8" /><path id="37" transform="matrix(1 0 0 -1 0 834)" d="M354.275 684.244L353.636 684.031L354.403 685.554L354.857 683.885z" stroke="none" fill="#FFFFFF" fill-rule="nonzero" fill-opacity="0.8" /><path id="38" transform="matrix(1 0 0 -1 0 834)" d="M353.207 673.4L352.753 675.069L353.335 674.71L353.974 674.923z" stroke="none" fill="#FFFFFF" fill-rule="nonzero" fill-opacity="0.8" /></g></g></g></g><g clip-path="url(#30)"><g><g clip-path="url(#31)"><g clip-path="url(#32)"><path id="39" transform="matrix(1 0 0 -1 0 834)" d="M343.31 663.076C 343.31 662.591 343.667 662.198 344.107 662.198C 344.547 662.198 344.904 662.591 344.904 663.076C 344.904 663.561 344.547 663.955 344.107 663.955C 343.667 663.955 343.31 663.561 343.31 663.076" stroke="none" fill="#FFFFFF" fill-rule="nonzero" fill-opacity="0.8" /></g></g></g></g><g clip-path="url(#33)"><path id="40" transform="matrix(1 0 0 -1 0 834)" d="M314.135 594.41C 314.135 580.425 324.421 569.087 337.109 569.087C 349.796 569.087 360.082 580.425 360.082 594.41C 360.082 608.395 349.796 619.733 337.109 619.733C 324.421 619.733 314.135 608.395 314.135 594.41" stroke="none" fill="#FFFFFF" fill-rule="nonzero" /></g><g clip-path="url(#34)"></g><g clip-path="url(#35)"><g transform="matrix(0.9979237 0 0 1.004717 301.095 210.8571)"><g transform="matrix(1 0 0 1 0 0)"><image x="0" y="0" xlink:href="img_05.png" width="72" height="99" /></g></g></g><g clip-path="url(#36)"><path id="42" transform="matrix(1 0 0 -1 0 834)" d="M314.1355 594.4073C 314.1355 580.4226 324.4205 569.0867 337.1086 569.0867C 349.7968 569.0867 360.0809 580.4226 360.0809 594.4073C 360.0809 608.3932 349.7968 619.7323 337.1086 619.7323C 324.4205 619.7323 314.1355 608.3932 314.1355 594.4073z" stroke="#000000" stroke-width="0.7899441" fill="none" /></g><g clip-path="url(#37)"><g><g clip-path="url(#38)"><g clip-path="url(#39)"><path id="43" transform="matrix(1 0 0 -1 0 834)" d="M457.993 631.634L444.738 639.546" stroke="none" fill="#000000" fill-rule="nonzero" fill-opacity="0.8" /></g><g clip-path="url(#40)"><path id="44" transform="matrix(1 0 0 -1 0 834)" d="M446.1894 638.6782L456.541 632.4985" stroke="#FFFFFF" stroke-width="0.7899441" fill="none" stroke-opacity="0.8" /></g><g clip-path="url(#41)"><path id="45" transform="matrix(1 0 0 -1 0 834)" d="M444.739 639.5471L447.361 639.2661L446.491 638.502L446.386 637.281z" stroke="none" fill="#FFFFFF" fill-rule="nonzero" fill-opacity="0.8" /><path id="46" transform="matrix(1 0 0 -1 0 834)" d="M455.371 631.916L456.242 632.68L456.347 633.901L457.993 631.635z" stroke="none" fill="#FFFFFF" fill-rule="nonzero" fill-opacity="0.8" /></g></g></g></g><g clip-path="url(#42)"><path id="47" transform="matrix(1 0 0 -1 0 834)" d="M487.415 599.617C 487.415 582.755 499.815 569.087 515.112 569.087C 530.409 569.087 542.809 582.755 542.809 599.617C 542.809 616.478 530.409 630.147 515.112 630.147C 499.815 630.147 487.415 616.478 487.415 599.617" stroke="none" fill="#FFFFFF" fill-rule="nonzero" /></g><g clip-path="url(#43)"></g><g clip-path="url(#44)"><g transform="matrix(1.006185 0 0 1.002904 487.946 201.7122)"><g transform="matrix(1 0 0 1 0 0)"><image x="0" y="0" xlink:href="img_06.png" width="54" height="75" /></g></g></g><g clip-path="url(#45)"><g><g clip-path="url(#46)"><g clip-path="url(#47)"><g><g clip-path="url(#48)"><g clip-path="url(#49)"><path id="50" transform="matrix(1 0 0 -1 0 834)" d="M513.2262 593.0494L515.7786 593.0494" stroke="#FFFFFF" stroke-width="0.7899441" fill="none" stroke-opacity="0.8" /></g></g></g></g></g></g></g><g clip-path="url(#50)"><g><g clip-path="url(#51)"><g clip-path="url(#52)"><g><g clip-path="url(#53)"><g clip-path="url(#54)"><path id="51" transform="matrix(1 0 0 -1 0 834)" d="M512.314 589.218L513.927 587.036" stroke="none" fill="#000000" fill-rule="nonzero" fill-opacity="0.8" /><path id="52" transform="matrix(1 0 0 -1 0 834)" d="M512.3148 589.2155L513.9273 587.0343" stroke="#FFFFFF" stroke-width="0.7899441" fill="none" stroke-opacity="0.8" /></g></g></g></g></g></g></g><g clip-path="url(#55)"><g><g clip-path="url(#56)"><g clip-path="url(#57)"><g><g clip-path="url(#58)"><g clip-path="url(#59)"><path id="53" transform="matrix(1 0 0 -1 0 834)" d="M508.04 588.591L507.36 585.879" stroke="none" fill="#000000" fill-rule="nonzero" fill-opacity="0.8" /><path id="54" transform="matrix(1 0 0 -1 0 834)" d="M508.0395 588.5905L507.3602 585.8777" stroke="#FFFFFF" stroke-width="0.7899441" fill="none" stroke-opacity="0.8" /></g></g></g></g></g></g></g><g clip-path="url(#60)"><path id="55" transform="matrix(1 0 0 -1 0 834)" d="M487.4142 599.615C 487.4142 582.7537 499.815 569.0867 515.1118 569.0867C 530.4075 569.0867 542.8083 582.7537 542.8083 599.615C 542.8083 616.4772 530.4075 630.1453 515.1118 630.1453C 499.815 630.1453 487.4142 616.4772 487.4142 599.615z" stroke="#000000" stroke-width="0.7899441" fill="none" /></g><g clip-path="url(#61)"></g><g clip-path="url(#62)"><g transform="matrix(0.9996039 0 0 1.003363 324.039 573.413)"><g transform="matrix(1 0 0 1 0 0)"><image x="0" y="0" xlink:href="img_07.png" width="78" height="135" /></g></g></g><g clip-path="url(#63)"></g><g clip-path="url(#64)"><g transform="matrix(1.004593 0 0 0.999709 401.609 574.055)"><g transform="matrix(1 0 0 1 0 0)"><image x="0" y="0" xlink:href="img_08.png" width="92" height="134" /></g></g></g><path id="546" transform="matrix(1 0 0 -1 0 834)" d="M344.696 226.076L349.731 221.676" stroke="none" fill="#FFFFFF" fill-rule="nonzero" /><path id="547" transform="matrix(1 0 0 -1 0 834)" d="M345.3968 225.4647L349.0323 222.2865" stroke="#000000" stroke-width="0.423564" fill="none" /><path id="548" transform="matrix(1 0 0 -1 0 834)" d="M344.696 226.076L346.061 225.666L345.541 225.338L345.388 224.689z" stroke="none" fill="#000000" fill-rule="nonzero" /><path id="549" transform="matrix(1 0 0 -1 0 834)" d="M348.368 222.086L348.888 222.413L349.04 223.063L349.732 221.676z" stroke="none" fill="#000000" fill-rule="nonzero" /><g clip-path="url(#65)"><g><g clip-path="url(#66)"><g clip-path="url(#67)"><path id="550" transform="matrix(1 0 0 -1 0 834)" d="M345.507 201.665C 345.507 201.341 345.74 201.079 346.028 201.079C 346.316 201.079 346.549 201.341 346.549 201.665C 346.549 201.989 346.316 202.252 346.028 202.252C 345.74 202.252 345.507 201.989 345.507 201.665" stroke="none" fill="#FFFFFF" fill-rule="nonzero" fill-opacity="0.8" /></g></g></g></g><g clip-path="url(#68)"><path id="551" transform="matrix(1 0 0 -1 0 834)" d="M360.075 151.707C 360.075 137.031 349.352 125.134 336.124 125.134C 322.896 125.134 312.173 137.031 312.173 151.707C 312.173 166.384 322.896 178.282 336.124 178.282C 349.352 178.282 360.075 166.384 360.075 151.707" stroke="none" fill="#FFFFFF" fill-rule="nonzero" /></g><g clip-path="url(#69)"></g><g clip-path="url(#70)"><g transform="matrix(0.9962184 0 0 0.9984905 306.037 652.5583)"><g transform="matrix(1 0 0 1 0 0)"><image x="0" y="0" xlink:href="img_09.png" width="60" height="104" /></g></g></g><g clip-path="url(#71)"><path id="553" transform="matrix(1 0 0 -1 0 834)" d="M360.0742 151.7075C 360.0742 137.0308 349.3521 125.1329 336.1233 125.1329C 322.8963 125.1329 312.1732 137.0308 312.1732 151.7075C 312.1732 166.3831 322.8963 178.281 336.1233 178.281C 349.3521 178.281 360.0742 166.3831 360.0742 151.7075z" stroke="#000000" stroke-width="0.7059395" fill="none" /><path id="554" transform="matrix(1 0 0 -1 0 834)" d="M410.435 213.138C 408.111 213.405 406.355 213.785 405.102 214.155C 407.149 214.761 411.014 215.232 415.769 215.444C 415.687 215.65 415.64 215.876 415.64 216.115C 415.64 216.274 415.661 216.428 415.699 216.574C 407.475 216.356 401.274 215.385 401.274 214.22C 401.274 214.198 401.285 214.177 401.289 214.155C 401.285 214.134 401.274 214.113 401.274 214.091C 401.274 213.299 404.136 212.598 408.548 212.161L408.548 212.161L405.52 211.156L405.52 211.156L417.495 211.696L417.495 211.696L410.876 214.143" stroke="none" fill="#000000" fill-rule="nonzero" /><path id="555" transform="matrix(1 0 0 -1 0 834)" d="M440.016 214.22C 440.016 215.404 433.61 216.388 425.186 216.584C 425.225 216.435 425.247 216.278 425.247 216.115C 425.247 215.882 425.204 215.662 425.125 215.461C 430.061 215.258 434.084 214.777 436.188 214.155C 433.477 213.353 427.58 212.786 420.648 212.746L420.648 212.746L420.645 211.7C 421.122 211.695 421.602 211.691 422.089 211.691C 431.989 211.691 440.016 212.765 440.016 214.091C 440.016 214.113 440.004 214.134 440 214.155C 440.004 214.177 440.016 214.198 440.016 214.22" stroke="none" fill="#000000" fill-rule="nonzero" /></g><g clip-path="url(#72)"><g><g clip-path="url(#73)"><g clip-path="url(#74)"><path id="556" transform="matrix(1 0 0 -1 0 834)" d="M418.233 214.953C 418.233 214.352 418.666 213.865 419.199 213.865C 419.732 213.865 420.165 214.352 420.165 214.953C 420.165 215.554 419.732 216.041 419.199 216.041C 418.666 216.041 418.233 215.554 418.233 214.953" stroke="none" fill="#FFFFFF" fill-rule="nonzero" fill-opacity="0.8" /></g></g></g></g><g clip-path="url(#75)"><g><g clip-path="url(#76)"><g clip-path="url(#77)"><path id="557" transform="matrix(1 0 0 -1 0 834)" d="M479.432 211.691C 479.432 211.091 479.865 210.604 480.398 210.604C 480.932 210.604 481.364 211.091 481.364 211.691C 481.364 212.292 480.932 212.779 480.398 212.779C 479.865 212.779 479.432 212.292 479.432 211.691" stroke="none" fill="#FFFFFF" fill-rule="nonzero" fill-opacity="0.8" /></g></g></g></g><g clip-path="url(#78)"><path id="558" transform="matrix(1 0 0 -1 0 834)" d="M464.046 153.943C 464.046 138.386 475.243 125.775 489.056 125.775C 502.869 125.775 514.067 138.386 514.067 153.943C 514.067 169.5 502.869 182.112 489.056 182.112C 475.243 182.112 464.046 169.5 464.046 153.943" stroke="none" fill="#FFFFFF" fill-rule="nonzero" /></g><g clip-path="url(#79)"></g><g clip-path="url(#80)"><g transform="matrix(0.9999756 0 0 1.00768 468.728 658.2659)"><g transform="matrix(1 0 0 1 0 0)"><image x="0" y="0" xlink:href="img_10.png" width="41" height="56" /></g></g></g><g clip-path="url(#81)"><path id="560" transform="matrix(1 0 0 -1 0 834)" d="M464.0464 153.9428C 464.0464 138.3858 475.2426 125.7749 489.0555 125.7749C 502.8685 125.7749 514.0666 138.3858 514.0666 153.9428C 514.0666 169.4998 502.8685 182.1117 489.0555 182.1117C 475.2426 182.1117 464.0464 169.4998 464.0464 153.9428z" stroke="#000000" stroke-width="0.7059395" fill="none" /></g><g clip-path="url(#82)"><g><g clip-path="url(#83)"><g clip-path="url(#84)"><path id="561" transform="matrix(1 0 0 -1 0 834)" d="M470.128 209.105C 465.35 208.404 462.207 207.214 462.207 205.864C 462.207 205.829 462.218 205.794 462.223 205.759C 462.218 205.724 462.207 205.689 462.207 205.655C 462.207 203.497 470.233 201.748 480.134 201.748C 480.621 201.748 481.1 201.755 481.578 201.763L481.578 201.763L481.575 203.465C 474.643 203.531 468.746 204.454 466.035 205.759C 467.481 206.455 469.836 207.043 472.771 207.45" stroke="none" fill="#FFFFFF" fill-rule="nonzero" fill-opacity="0.8" /></g></g></g></g><g clip-path="url(#85)"><path id="562" transform="matrix(1 0 0 -1 0 834)" d="M472.771 207.449C 474.003 207.62 475.336 207.758 476.748 207.86L476.748 207.86L476.317 209.68C 474.068 209.574 471.976 209.376 470.129 209.105" stroke="none" fill="#000000" fill-rule="nonzero" /><path id="563" transform="matrix(1 0 0 -1 0 834)" d="M500.948 205.863C 500.948 207.903 493.777 209.577 484.63 209.754L484.63 209.754L484.836 207.955C 490.327 207.679 494.845 206.854 497.121 205.758C 495.867 205.155 494.111 204.538 491.787 204.103L491.787 204.103L491.346 205.739L491.346 205.739L484.727 201.757L484.727 201.757L496.702 200.876L496.702 200.876L493.673 202.512C 498.086 203.223 500.948 204.365 500.948 205.654C 500.948 205.689 500.937 205.723 500.932 205.758C 500.937 205.794 500.948 205.828 500.948 205.863" stroke="none" fill="#000000" fill-rule="nonzero" /><path id="564" transform="matrix(1 0 0 -1 0 834)" d="M332.255 243.682C 330.195 243.682 328.524 241.801 328.524 239.48C 328.524 237.159 330.195 235.278 332.255 235.278C 334.316 235.278 335.986 237.159 335.986 239.48C 335.986 241.801 334.316 243.682 332.255 243.682M332.255 235.788C 330.456 235.788 328.998 237.431 328.998 239.457C 328.998 241.482 330.456 243.125 332.255 243.125C 334.054 243.125 335.512 241.482 335.512 239.457C 335.512 237.431 334.054 235.788 332.255 235.788" stroke="none" fill="#000000" fill-rule="nonzero" /><path id="566" transform="matrix(1 0 0 -1 0 834)" d="M420.645 243.658C 418.584 243.658 416.913 241.777 416.913 239.456C 416.913 237.135 418.584 235.254 420.645 235.254C 422.705 235.254 424.376 237.135 424.376 239.456C 424.376 241.777 422.705 243.658 420.645 243.658M420.645 235.764C 418.846 235.764 417.388 237.407 417.388 239.433C 417.388 241.459 418.846 243.101 420.645 243.101C 422.443 243.101 423.902 241.459 423.902 239.433C 423.902 237.407 422.443 235.764 420.645 235.764" stroke="none" fill="#000000" fill-rule="nonzero" /></g><g clip-path="url(#86)"></g><g clip-path="url(#87)"><g transform="matrix(1.0165 0 0 1.001518 259.535 114.543)"><g transform="matrix(1 0 0 1 0 0)"><image x="0" y="0" xlink:href="img_11.png" width="42" height="54" /></g></g></g><g clip-path="url(#88)"></g><g clip-path="url(#89)"><g transform="matrix(1.006449 0 0 0.9985386 262.155 331.6773)"><g transform="matrix(1 0 0 1 0 0)"><image x="0" y="0" xlink:href="img_12.png" width="37" height="57" /></g></g></g><g clip-path="url(#90)"></g><g clip-path="url(#91)"><g transform="matrix(1.012375 0 0 1.001267 270.449 552.2798)"><g transform="matrix(1 0 0 1 0 0)"><image x="0" y="0" xlink:href="img_13.png" width="28" height="57" /></g></g></g><path id="1452" transform="matrix(1 0 0 -1 0 834)" d="M272.532 146.123L298.1289 146.123L298.1289 181.9808L272.532 181.9808z" stroke="none" fill="#FFFFFF" fill-rule="nonzero" /><g clip-path="url(#92)"></g><g clip-path="url(#93)"><g transform="matrix(0.9990295 0 0 0.9934471 273.591 655.1368)"><g transform="matrix(1 0 0 1 0 0)"><image x="0" y="0" xlink:href="img_14.png" width="17" height="34" /></g></g></g><g clip-path="url(#94)"></g><g clip-path="url(#95)"><g transform="matrix(1.022248 0 0 0.9972106 271.532 615.139)"><g transform="matrix(1 0 0 1 0 0)"><image x="0" y="0" xlink:href="img_15.png" width="27" height="38" /></g></g></g><g clip-path="url(#96)"></g><g clip-path="url(#97)"><g transform="matrix(-1.023967 0 0 0.9974105 515.534 571.6954)"><g transform="matrix(1 0 0 1 0 0)"><image x="0" y="0" xlink:href="img_16.png" width="27" height="38" /></g></g></g><g clip-path="url(#98)"></g><g clip-path="url(#99)"><g transform="matrix(1.023052 0 0 0.9972106 284.326 415.981)"><g transform="matrix(1 0 0 1 0 0)"><image x="0" y="0" xlink:href="img_17.png" width="27" height="38" /></g></g></g><g clip-path="url(#100)"></g><g clip-path="url(#101)"><g transform="matrix(-0.9957074 0 0 0.9972106 512.029 415.981)"><g transform="matrix(1 0 0 1 0 0)"><image x="0" y="0" xlink:href="img_18.png" width="27" height="38" /></g></g></g><g clip-path="url(#102)"></g><g clip-path="url(#103)"><g transform="matrix(1.022248 0 0 0.9972106 274.606 186.98)"><g transform="matrix(1 0 0 1 0 0)"><image x="0" y="0" xlink:href="img_15.png" width="27" height="38" /></g></g></g><g clip-path="url(#104)"></g><g clip-path="url(#105)"><g transform="matrix(0.9957074 0 0 0.9966369 506.834 160.1618)"><g transform="matrix(1 0 0 1 0 0)"><image x="0" y="0" xlink:href="img_19.png" width="27" height="38" /></g></g></g><g clip-path="url(#106)"></g><g clip-path="url(#107)"><g transform="matrix(1.02182 0 0 0.9974105 383.689 571.6954)"><g transform="matrix(1 0 0 1 0 0)"><image x="0" y="0" xlink:href="img_20.png" width="30" height="38" /></g></g></g><path id="1461" transform="matrix(1 0 0 -1 0 834)" d="M275.607 573.573L301.2039 573.573L301.2039 609.4308L275.607 609.4308z" stroke="none" fill="#FFFFFF" fill-rule="nonzero" /><g clip-path="url(#108)"></g><g clip-path="url(#109)"><g transform="matrix(0.9990295 0 0 0.9934471 276.666 227.6868)"><g transform="matrix(1 0 0 1 0 0)"><image x="0" y="0" xlink:href="img_14.png" width="17" height="34" /></g></g></g><path id="1463" transform="matrix(1 0 0 -1 0 834)" d="M633 15L633 0M633 819L633 834M21 15L21 0M21 819L21 834M639 21L654 21M15 21L0 21M639 813L654 813M15 813L0 813" stroke="#000000" stroke-width="1.25" fill="none" /><path id="1464" transform="matrix(1 0 0 -1 0 834)" d="M633 15L633 0M633 819L633 834M21 15L21 0M21 819L21 834M639 21L654 21M15 21L0 21M639 813L654 813M15 813L0 813" stroke="#000000" stroke-width="0.25" fill="none" /><path id="1465" transform="matrix(1 0 0 -1 0 834)" d="M32.2781 9.28203C 32.2781 9.516021 32.2961 9.58203 32.3559 9.62383C 32.416 9.66602 32.5719 9.69609 32.8238 9.69609C 33.2262 9.69609 33.5738 9.62383 33.8441 9.45C 34.3238 9.167971 34.552 8.63398 34.552 8.016021C 34.552 7.05586 34.0359 6.21602 32.9141 6.21602C 32.4762 6.21602 32.2781 6.33008 32.2781 6.78594zM31.252 9.900001L31.252 9.726171C 31.7141 9.68984 31.7621 9.66602 31.7621 9.150001L31.7621 9.150001L31.7621 6.74414C 31.7621 6.23398 31.7141 6.19805 31.198 6.16211L31.198 6.16211L31.198 6L31.198 6L32.6199 6C 33.3578 6 33.952 6.15 34.402 6.49805C 34.8641 6.84609 35.1398 7.38008 35.1398 8.1C 35.1398 8.664061 34.9301 9.101951 34.6359 9.38984C 34.2641 9.74414 33.7 9.900001 32.9379 9.900001z" stroke="#000000" stroke-width="0.4" fill="none" /><path id="1466" transform="matrix(1 0 0 -1 0 834)" d="M38.3801 6.97813C 38.2898 6.70195 38.1758 6.51016 38.0738 6.38984C 37.9359 6.23398 37.732 6.20391 37.402 6.20391C 37.15 6.20391 36.9461 6.21602 36.8258 6.28203C 36.718 6.34219 36.6879 6.46211 36.6879 6.78594L36.6879 6.78594L36.6879 9.15586C 36.6879 9.66602 36.7418 9.69609 37.216 9.73203L37.216 9.73203L37.216 9.900001L37.216 9.900001L35.65 9.900001L35.65 9.900001L35.65 9.73203C 36.1359 9.69609 36.1777 9.66602 36.1777 9.15586L36.1777 9.15586L36.1777 6.75586C 36.1777 6.24609 36.1301 6.20391 35.6258 6.16797L35.6258 6.16797L35.6258 6L35.6258 6L38.3438 6C 38.398 6.18594 38.5238 6.75586 38.5598 6.94219z" stroke="#000000" stroke-width="0.4" fill="none" /><path id="1467" transform="matrix(1 0 0 -1 0 834)" d="M41.0918 9.023829C 41.0438 9.40195 41.0141 9.63594 40.9898 9.851951C 40.7617 9.92383 40.5098 9.989841 40.234 9.989841C 39.4598 9.989841 38.998 9.49805 38.998 8.921881C 38.998 8.24414 39.6039 7.94414 39.9879 7.73984C 40.4379 7.5 40.768 7.28984 40.768 6.84609C 40.768 6.40781 40.498 6.12617 40.048 6.12617C 39.4301 6.12617 39.1598 6.73203 39.0641 7.09805L39.0641 7.09805L38.8898 7.05586C 38.9258 6.767971 39.0039 6.25195 39.052 6.12617C 39.1059 6.09609 39.1961 6.05391 39.3461 6C 39.4961 5.95781 39.6879 5.91016 39.934 5.91016C 40.732 5.91016 41.266 6.41406 41.266 7.04414C 41.266 7.71602 40.6961 7.99805 40.2277 8.23789C 39.7539 8.48398 39.466 8.68789 39.466 9.12617C 39.466 9.45 39.6699 9.78594 40.132 9.78594C 40.6539 9.78594 40.8098 9.371881 40.918 8.98789z" stroke="#000000" stroke-width="0.4" fill="none" /><path id="1468" transform="matrix(1 0 0 -1 0 834)" d="M46.648 6L46.648 6.16797C 46.1258 6.21602 46.1078 6.24609 46.0898 6.88203L46.0898 6.88203L46.0301 9.05391C 46.0117 9.671881 46.0539 9.68398 46.582 9.73203L46.582 9.73203L46.582 9.900001L46.582 9.900001L45.5617 9.900001L45.5617 9.900001L44.1758 6.9L44.1758 6.9L42.8078 9.900001L42.8078 9.900001L41.8238 9.900001L41.8238 9.900001L41.8238 9.73203C 42.3699 9.67813 42.4 9.653911 42.3461 8.87383L42.3461 8.87383L42.2617 7.626171C 42.2141 7.00195 42.1777 6.73789 42.148 6.528131C 42.1059 6.27617 41.9859 6.21016 41.6379 6.16797L41.6379 6.16797L41.6379 6L41.6379 6L43.0359 6L43.0359 6L43.0359 6.16797C 42.6398 6.21016 42.4961 6.25195 42.484 6.53984C 42.4777 6.78008 42.4777 7.04414 42.502 7.53594L42.502 7.53594L42.5918 9.24609L42.5918 9.24609L42.6039 9.24609L42.6039 9.24609L43.948 6.04219L43.948 6.04219L44.068 6.04219L44.068 6.04219L45.532 9.33008L45.532 9.33008L45.5559 9.33008L45.5559 9.33008L45.5738 6.88203C 45.5801 6.24609 45.5559 6.21602 45.0699 6.16797L45.0699 6.16797L45.0699 6z" stroke="#000000" stroke-width="0.4" fill="none" /><path id="1469" transform="matrix(1 0 0 -1 0 834)" d="M51.8738 7.05586C 51.5738 6.45586 51.2496 6.12617 50.6379 6.12617C 49.7258 6.12617 49.0656 6.89414 49.0656 8.016021C 49.0656 8.92813 49.5996 9.773829 50.602 9.773829C 51.2496 9.773829 51.6098 9.516021 51.7656 8.88008L51.7656 8.88008L51.9457 8.921881C 51.9098 9.24609 51.8738 9.48594 51.8258 9.828131C 51.6578 9.85781 51.2496 9.989841 50.7637 9.989841C 49.4258 9.989841 48.4539 9.15586 48.4539 7.89609C 48.4539 6.94219 49.1078 5.91016 50.602 5.91016C 51.034 5.91016 51.5379 6.03008 51.7059 6.07188C 51.8137 6.26992 51.9637 6.71406 52.0477 6.98984z" stroke="#000000" stroke-width="0.4" fill="none" /><path id="1470" transform="matrix(1 0 0 -1 0 834)" d="M54.3398 9.773829C 55.1258 9.773829 55.7855 9.101951 55.7855 7.83594C 55.7855 6.68398 55.1855 6.12617 54.5195 6.12617C 53.6738 6.12617 53.0559 6.94805 53.0559 8.076171C 53.0559 9.19805 53.6676 9.773829 54.3398 9.773829zM54.4598 9.989841C 53.1996 9.989841 52.4438 8.98789 52.4438 7.90781C 52.4438 6.75586 53.3078 5.91016 54.3938 5.91016C 55.4918 5.91016 56.3977 6.70195 56.3977 7.99805C 56.3977 9.19805 55.4797 9.989841 54.4598 9.989841z" stroke="#000000" stroke-width="0.4" fill="none" /><path id="1471" transform="matrix(1 0 0 -1 0 834)" d="M61.8277 6L61.8277 6.16797C 61.3059 6.21602 61.2879 6.24609 61.2695 6.88203L61.2695 6.88203L61.2098 9.05391C 61.1918 9.671881 61.2336 9.68398 61.7617 9.73203L61.7617 9.73203L61.7617 9.900001L61.7617 9.900001L60.7418 9.900001L60.7418 9.900001L59.3559 6.9L59.3559 6.9L57.9879 9.900001L57.9879 9.900001L57.0035 9.900001L57.0035 9.900001L57.0035 9.73203C 57.5496 9.67813 57.5797 9.653911 57.5258 8.87383L57.5258 8.87383L57.4418 7.626171C 57.3938 7.00195 57.3578 6.73789 57.3277 6.528131C 57.2855 6.27617 57.1656 6.21016 56.8176 6.16797L56.8176 6.16797L56.8176 6L56.8176 6L58.2156 6L58.2156 6L58.2156 6.16797C 57.8195 6.21016 57.6758 6.25195 57.6637 6.53984C 57.6578 6.78008 57.6578 7.04414 57.6816 7.53594L57.6816 7.53594L57.7719 9.24609L57.7719 9.24609L57.7836 9.24609L57.7836 9.24609L59.1277 6.04219L59.1277 6.04219L59.2477 6.04219L59.2477 6.04219L60.7117 9.33008L60.7117 9.33008L60.7355 9.33008L60.7355 9.33008L60.7535 6.88203C 60.7598 6.24609 60.7355 6.21602 60.2496 6.16797L60.2496 6.16797L60.2496 6z" stroke="#000000" stroke-width="0.4" fill="none" /><path id="1472" transform="matrix(1 0 0 -1 0 834)" d="M63.8258 6L63.8258 6.16797C 63.3336 6.20391 63.2855 6.23398 63.2855 6.75L63.2855 6.75L63.2855 9.150001C 63.2855 9.66016 63.3336 9.69609 63.8258 9.73203L63.8258 9.73203L63.8258 9.900001L63.8258 9.900001L62.2355 9.900001L62.2355 9.900001L62.2355 9.73203C 62.7277 9.69609 62.7758 9.66016 62.7758 9.150001L62.7758 9.150001L62.7758 6.75C 62.7758 6.23984 62.7277 6.20391 62.2355 6.16797L62.2355 6.16797L62.2355 6z" stroke="#000000" stroke-width="0.4" fill="none" /><path id="1473" transform="matrix(1 0 0 -1 0 834)" d="M66.5074 9.023829C 66.4598 9.40195 66.4297 9.63594 66.4055 9.851951C 66.1777 9.92383 65.9258 9.989841 65.6496 9.989841C 64.8758 9.989841 64.4137 9.49805 64.4137 8.921881C 64.4137 8.24414 65.0195 7.94414 65.4035 7.73984C 65.8535 7.5 66.1836 7.28984 66.1836 6.84609C 66.1836 6.40781 65.9137 6.12617 65.46371 6.12617C 64.8457 6.12617 64.5758 6.73203 64.4797 7.09805L64.4797 7.09805L64.3055 7.05586C 64.3418 6.767971 64.4195 6.25195 64.46761 6.12617C 64.52151 6.09609 64.6117 6.05391 64.7617 6C 64.91171 5.95781 65.1035 5.91016 65.3496 5.91016C 66.1477 5.91016 66.6816 6.41406 66.6816 7.04414C 66.6816 7.71602 66.1117 7.99805 65.6438 8.23789C 65.1695 8.48398 64.8816 8.68789 64.8816 9.12617C 64.8816 9.45 65.0855 9.78594 65.5477 9.78594C 66.0695 9.78594 66.2258 9.371881 66.3336 8.98789z" stroke="#000000" stroke-width="0.4" fill="none" /><path id="1474" transform="matrix(1 0 0 -1 0 834)" d="M69.4055 7.68008L68.3016 7.68008C 68.4816 8.171881 68.6734 8.69414 68.8656 9.21016L68.8656 9.21016L68.8777 9.21016zM70.9355 6L70.9355 6.16797C 70.5457 6.20391 70.46761 6.25781 70.2758 6.77383C 69.89181 7.81797 69.4895 8.95781 69.11761 9.989841L69.11761 9.989841L68.9316 9.93594L68.9316 9.93594L67.68951 6.78594C 67.4797 6.25781 67.3957 6.22188 67.0176 6.16797L67.0176 6.16797L67.0176 6L67.0176 6L68.3195 6L68.3195 6L68.3195 6.16797C 67.8695 6.21016 67.81561 6.26992 67.9477 6.64805C 68.0258 6.9 68.1156 7.15195 68.2117 7.42188L68.2117 7.42188L69.4895 7.42188C 69.62151 7.05586 69.74181 6.73203 69.8195 6.49805C 69.8977 6.26406 69.8438 6.21602 69.4656 6.16797L69.4656 6.16797L69.4656 6z" stroke="#000000" stroke-width="0.4" fill="none" /><path id="1475" transform="matrix(1 0 0 -1 0 834)" d="M71.7273 5.92813C 71.9195 5.92813 72.06371 6.06602 72.06371 6.27617C 72.06371 6.46797 71.9195 6.61797 71.7273 6.61797C 71.5355 6.61797 71.3914 6.46797 71.3914 6.27617C 71.3914 6.06602 71.5355 5.92813 71.7273 5.92813z" stroke="#000000" stroke-width="0.4" fill="none" /><path id="1476" transform="matrix(1 0 0 -1 0 834)" d="M73.9234 6L73.9234 6.15586C 73.53951 6.19219 73.4977 6.22813 73.4977 6.63594L73.4977 6.63594L73.4977 8.70586C 73.2336 8.59805 72.9516 8.51992 72.6453 8.471881L72.6453 8.471881L72.6453 8.328131C 73.0055 8.26797 73.0234 8.24414 73.0234 7.871881L73.0234 7.871881L73.0234 6.63594C 73.0234 6.22813 72.9816 6.19219 72.6035 6.15586L72.6035 6.15586L72.6035 6zM73.2215 9.216021C 73.3953 9.216021 73.52731 9.36016 73.52731 9.52188C 73.52731 9.70195 73.3953 9.83398 73.2273 9.83398C 73.06561 9.83398 72.9215 9.70195 72.9215 9.52188C 72.9215 9.36016 73.06561 9.216021 73.2215 9.216021z" stroke="#000000" stroke-width="0.4" fill="none" /><path id="1477" transform="matrix(1 0 0 -1 0 834)" d="M77.1574 6L77.1574 6.15586C 76.8094 6.19219 76.7793 6.21602 76.7793 6.62383L76.7793 6.62383L76.7793 7.78203C 76.7793 8.36406 76.4793 8.69414 76.0055 8.69414C 75.8313 8.69414 75.67541 8.621881 75.5074 8.51406C 75.3574 8.41211 75.2254 8.32188 75.1055 8.23203L75.1055 8.23203L75.1055 8.712111C 74.8414 8.59219 74.5594 8.51992 74.27151 8.466021L74.27151 8.466021L74.27151 8.328131C 74.5953 8.26797 74.6313 8.25 74.6313 7.86602L74.6313 7.86602L74.6313 6.62383C 74.6313 6.22813 74.6016 6.19805 74.19341 6.15586L74.19341 6.15586L74.19341 6L74.19341 6L75.4953 6L75.4953 6L75.4953 6.15586C 75.1414 6.19219 75.1055 6.21602 75.1055 6.62383L75.1055 6.62383L75.1055 8.03398C 75.2855 8.18984 75.5195 8.33984 75.7594 8.33984C 76.1613 8.33984 76.3055 8.069921 76.3055 7.65586L76.3055 7.65586L76.3055 6.65391C 76.3055 6.23984 76.2633 6.19219 75.9094 6.15586L75.9094 6.15586L75.9094 6z" stroke="#000000" stroke-width="0.4" fill="none" /><path id="1478" transform="matrix(1 0 0 -1 0 834)" d="M79.4734 6.51016C 79.32931 6.40195 79.1133 6.30586 78.8973 6.30586C 78.5133 6.30586 78.0754 6.65391 78.0754 7.36797C 78.0754 8.23789 78.57931 8.471881 78.8555 8.471881C 79.0832 8.471881 79.32931 8.37617 79.4734 8.16602zM80.4035 6.30586L80.2113 6.32383C 79.9895 6.34805 79.9473 6.37813 79.9473 6.68984L79.9473 6.68984L79.9473 10.2719C 79.7254 10.1941 79.3234 10.1039 79.0113 10.0621L79.0113 10.0621L79.0113 9.917971C 79.44341 9.88789 79.4734 9.869921 79.4734 9.47383L79.4734 9.47383L79.4734 8.628131C 79.3355 8.67617 79.1613 8.69414 79.0773 8.69414C 78.2613 8.69414 77.5293 8.03984 77.5293 7.20586C 77.5293 6.36602 78.1594 5.92813 78.6395 5.92813C 78.7113 5.92813 78.87341 5.96406 79.1074 6.10195L79.1074 6.10195L79.4734 6.31797L79.4734 6.31797L79.4734 5.92813C 79.8215 6.05391 80.27151 6.13203 80.4035 6.15586z" stroke="#000000" stroke-width="0.4" fill="none" /><path id="1479" transform="matrix(1 0 0 -1 0 834)" d="M81.3813 8.24414C 81.4895 8.310161 81.6813 8.35781 81.84921 8.35781C 82.34731 8.35781 82.7676 7.96211 82.7676 7.278131C 82.7676 6.58203 82.4492 6.15586 81.9516 6.15586C 81.6336 6.16211 81.4535 6.37188 81.4176 6.49219C 81.3934 6.54609 81.3813 6.60586 81.3813 6.69609zM81.3813 8.42383L81.3813 10.2719C 81.1594 10.1941 80.7934 10.098 80.5113 10.0621L80.5113 10.0621L80.5113 9.92383C 80.8953 9.88789 80.9074 9.851951 80.9074 9.48008L80.9074 9.48008L80.9074 6.14414C 81.2375 5.98789 81.5434 5.92813 81.78951 5.92813C 82.59341 5.92813 83.2953 6.55195 83.2953 7.43398C 83.2953 8.14219 82.7555 8.69414 82.1133 8.69414C 82.0473 8.69414 81.9633 8.67617 81.86761 8.63398z" stroke="#000000" stroke-width="0.4" fill="none" /><path id="1480" transform="matrix(1 0 0 -1 0 834)" d="M88.1133 8.976171C 88.2633 9.19805 88.50311 9.45 88.8332 9.45C 89.15121 9.45 89.4031 9.257811 89.4031 8.88594C 89.4031 8.44219 88.9953 8.20781 88.44341 8.03398L88.44341 8.03398L88.4852 7.86016C 88.5813 7.88984 88.7254 7.92617 88.8691 7.92617C 89.2113 7.92617 89.6313 7.70391 89.6313 7.15195C 89.6313 6.55781 89.3313 6.23984 88.90511 6.23984C 88.5633 6.23984 88.3172 6.40781 88.1613 6.54609C 88.1133 6.58789 88.0652 6.58203 88.0172 6.54609C 87.9633 6.50391 87.8852 6.42617 87.8793 6.34805C 87.8672 6.27617 87.891 6.21016 87.9754 6.13203C 88.0531 6.06016 88.2992 5.92813 88.5754 5.92813C 89.007 5.92813 90.1473 6.37188 90.1473 7.34414C 90.1473 7.78203 89.841 8.153911 89.3133 8.25586L89.3133 8.25586L89.3133 8.26797C 89.4871 8.38789 89.6313 8.49609 89.7211 8.59219C 89.8352 8.70586 89.90701 8.84414 89.90701 9.01797C 89.90701 9.47383 89.5531 9.810161 89.0133 9.810161C 88.6953 9.810161 88.4191 9.66016 88.25121 9.47383L88.25121 9.47383L87.9871 9.09609z" stroke="#000000" stroke-width="0.4" fill="none" /><path id="1481" transform="matrix(1 0 0 -1 0 834)" d="M91.9652 6.11992C 91.5871 6.11992 91.2332 6.42617 91.2332 6.97813C 91.2332 7.30781 91.4371 7.60781 91.7254 7.8C 92.1871 7.56602 92.6133 7.30781 92.6133 6.85781C 92.6133 6.39609 92.3313 6.11992 91.9652 6.11992zM91.9113 9.61797C 92.1871 9.61797 92.4992 9.396091 92.4992 8.89219C 92.4992 8.53203 92.3371 8.310161 92.1332 8.14805C 91.707 8.35781 91.3531 8.555861 91.3531 9C 91.3531 9.305861 91.557 9.61797 91.9113 9.61797zM91.9711 9.810161C 91.32931 9.810161 90.9031 9.33008 90.9031 8.826171C 90.9031 8.40586 91.1613 8.11797 91.5512 7.89609C 91.34731 7.76406 91.1191 7.60195 91.023 7.51211C 90.891 7.38594 90.75311 7.21797 90.75311 6.94219C 90.75311 6.3 91.2633 5.92813 91.90511 5.92813C 92.4152 5.92813 93.09341 6.31211 93.09341 7.01406C 93.09341 7.53594 92.7152 7.82383 92.3012 8.057811C 92.5711 8.24414 92.7332 8.38789 92.77541 8.44219C 92.8891 8.57383 92.9492 8.74805 92.9492 8.921881C 92.9492 9.40781 92.541 9.810161 91.9711 9.810161z" stroke="#000000" stroke-width="0.4" fill="none" /><path id="1482" transform="matrix(1 0 0 -1 0 834)" d="M96.0453 9.73789L93.75311 9.73789C 93.7293 9.48008 93.6992 9.180079 93.6453 8.85L93.6453 8.85L93.8191 8.85C 93.9633 9.24609 93.9992 9.3 94.3953 9.3L94.3953 9.3L95.691 9.3C 95.2172 8.25586 94.5391 7.01406 93.9094 5.99414L93.9094 5.99414L93.9512 5.92813L93.9512 5.92813L94.3953 5.98789C 94.9711 7.22383 95.5293 8.44805 96.09341 9.66602z" stroke="#000000" stroke-width="0.4" fill="none" /><path id="1501" transform="matrix(1 0 0 -1 0 834)" d="M554.472 6.83984C 554.292 6.46211 554.2141 6.43789 553.89 6.43789L553.89 6.43789L552.768 6.43789L552.768 6.43789L553.6201 7.33203C 554.1721 7.91992 554.412 8.273829 554.412 8.79609C 554.412 9.42617 553.932 9.810161 553.404 9.810161C 553.056 9.810161 552.774 9.653911 552.594 9.45586L552.594 9.45586L552.252 8.96992L552.252 8.96992L552.384 8.85C 552.54 9.08398 552.792 9.40781 553.2 9.40781C 553.644 9.40781 553.908 9.11406 553.908 8.61016C 553.908 8.09414 553.53 7.60195 553.158 7.15781C 552.858 6.81016 552.522 6.46797 552.186 6.13789L552.186 6.13789L552.186 6L552.186 6L554.43 6C 554.502 6.26992 554.562 6.53398 554.64 6.78594z" stroke="#000000" stroke-width="0.4" fill="none" /><path id="1502" transform="matrix(1 0 0 -1 0 834)" d="M555.792 9.3L557.19 9.3L557.19 9.3L557.346 9.68984L557.346 9.68984L557.31 9.73789L557.31 9.73789L555.6 9.73789L555.6 9.73789L555.366 7.90781C 555.504 7.96211 555.732 8.028131 555.984 8.028131C 556.638 8.028131 556.962 7.65 556.962 7.121881C 556.962 6.67188 556.71 6.23398 556.2 6.23398C 555.834 6.23398 555.588 6.42617 555.462 6.53984C 555.402 6.58789 555.354 6.58203 555.3 6.53984C 555.234 6.48008 555.18 6.40195 555.174 6.34219C 555.162 6.26992 555.192 6.22188 555.27 6.13789C 555.36 6.05391 555.612 5.92813 555.888 5.92813C 556.206 5.93398 556.608 6.08984 556.932 6.35391C 557.298 6.65391 557.466 6.99609 557.466 7.35586C 557.466 7.84805 557.076 8.369921 556.308 8.369921C 556.146 8.369921 555.864 8.273829 555.636 8.18984z" stroke="#000000" stroke-width="0.4" fill="none" /><path id="1503" transform="matrix(1 0 0 -1 0 834)" d="M559.548 9.989841L559.212 9.989841L559.212 9.989841L557.91 5.73594L557.91 5.73594L558.246 5.73594z" stroke="#000000" stroke-width="0.4" fill="none" /><path id="1504" transform="matrix(1 0 0 -1 0 834)" d="M561.18 9.61211C 561.72 9.61211 561.8701 8.72383 561.8701 7.871881C 561.8701 7.03203 561.726 6.13203 561.186 6.13203C 560.664 6.13203 560.49 7.03789 560.49 7.87813C 560.49 8.712111 560.634 9.61211 561.18 9.61211zM561.186 9.810161C 560.286 9.810161 559.956 8.74219 559.956 7.86602C 559.956 6.91797 560.28 5.92813 561.186 5.92813C 562.086 5.92813 562.404 6.99609 562.404 7.871881C 562.404 8.79609 562.086 9.810161 561.186 9.810161z" stroke="#000000" stroke-width="0.4" fill="none" /><path id="1505" transform="matrix(1 0 0 -1 0 834)" d="M564 9.61211C 564.582 9.61211 564.738 8.86797 564.738 8.33984C 564.738 8.21992 564.732 8.076171 564.7141 7.94414C 564.588 7.84805 564.384 7.77617 564.174 7.77617C 563.67 7.77617 563.3701 8.214061 563.3701 8.74219C 563.3701 9.09609 563.538 9.61211 564 9.61211zM564.078 9.810161C 563.304 9.810161 562.854 9.10781 562.854 8.53203C 562.854 7.90195 563.292 7.43398 563.928 7.43398C 564.042 7.43398 564.156 7.45781 564.288 7.53008L564.288 7.53008L564.69 7.74609C 564.492 6.83398 563.838 6.23398 562.98 6.08984L562.98 6.08984L563.01 5.91016C 563.16 5.91016 563.526 5.96992 563.85 6.10195C 564.66 6.42617 565.2661 7.20586 565.2661 8.310161C 565.2661 9.12617 564.828 9.810161 564.078 9.810161z" stroke="#000000" stroke-width="0.4" fill="none" /><path id="1506" transform="matrix(1 0 0 -1 0 834)" d="M567.294 9.989841L566.958 9.989841L566.958 9.989841L565.656 5.73594L565.656 5.73594L565.992 5.73594z" stroke="#000000" stroke-width="0.4" fill="none" /><path id="1507" transform="matrix(1 0 0 -1 0 834)" d="M569.9641 6.83984C 569.784 6.46211 569.706 6.43789 569.382 6.43789L569.382 6.43789L568.26 6.43789L568.26 6.43789L569.112 7.33203C 569.664 7.91992 569.904 8.273829 569.904 8.79609C 569.904 9.42617 569.424 9.810161 568.896 9.810161C 568.548 9.810161 568.2661 9.653911 568.086 9.45586L568.086 9.45586L567.744 8.96992L567.744 8.96992L567.876 8.85C 568.032 9.08398 568.284 9.40781 568.692 9.40781C 569.136 9.40781 569.4 9.11406 569.4 8.61016C 569.4 8.09414 569.022 7.60195 568.65 7.15781C 568.35 6.81016 568.014 6.46797 567.678 6.13789L567.678 6.13789L567.678 6L567.678 6L569.9221 6C 569.994 6.26992 570.054 6.53398 570.132 6.78594z" stroke="#000000" stroke-width="0.4" fill="none" /><path id="1508" transform="matrix(1 0 0 -1 0 834)" d="M571.806 9.61211C 572.346 9.61211 572.496 8.72383 572.496 7.871881C 572.496 7.03203 572.352 6.13203 571.812 6.13203C 571.29 6.13203 571.116 7.03789 571.116 7.87813C 571.116 8.712111 571.26 9.61211 571.806 9.61211zM571.812 9.810161C 570.912 9.810161 570.582 8.74219 570.582 7.86602C 570.582 6.91797 570.906 5.92813 571.812 5.92813C 572.712 5.92813 573.03 6.99609 573.03 7.871881C 573.03 8.79609 572.712 9.810161 571.812 9.810161z" stroke="#000000" stroke-width="0.4" fill="none" /><path id="1509" transform="matrix(1 0 0 -1 0 834)" d="M575.556 6L575.556 6.16211C 575.01 6.20391 574.9741 6.25195 574.9741 6.68398L574.9741 6.68398L574.9741 9.810161C 574.644 9.67813 574.29 9.56406 573.906 9.49805L573.906 9.49805L573.906 9.36016L573.906 9.36016L574.194 9.34805C 574.458 9.33594 574.482 9.305861 574.482 8.99414L574.482 8.99414L574.482 6.68398C 574.482 6.25195 574.452 6.20391 573.906 6.16211L573.906 6.16211L573.906 6z" stroke="#000000" stroke-width="0.4" fill="none" /><path id="1510" transform="matrix(1 0 0 -1 0 834)" d="M578.814 9.73789L576.522 9.73789C 576.498 9.48008 576.468 9.180079 576.414 8.85L576.414 8.85L576.588 8.85C 576.732 9.24609 576.768 9.3 577.164 9.3L577.164 9.3L578.46 9.3C 577.986 8.25586 577.308 7.01406 576.678 5.99414L576.678 5.99414L576.72 5.92813L576.72 5.92813L577.164 5.98789C 577.74 7.22383 578.298 8.44805 578.862 9.66602z" stroke="#000000" stroke-width="0.4" fill="none" /><path id="1511" transform="matrix(1 0 0 -1 0 834)" d="M584.531 9.61211C 585.071 9.61211 585.221 8.72383 585.221 7.871881C 585.221 7.03203 585.077 6.13203 584.537 6.13203C 584.015 6.13203 583.841 7.03789 583.841 7.87813C 583.841 8.712111 583.985 9.61211 584.531 9.61211zM584.537 9.810161C 583.637 9.810161 583.307 8.74219 583.307 7.86602C 583.307 6.91797 583.631 5.92813 584.537 5.92813C 585.437 5.92813 585.755 6.99609 585.755 7.871881C 585.755 8.79609 585.437 9.810161 584.537 9.810161z" stroke="#000000" stroke-width="0.4" fill="none" /><path id="1512" transform="matrix(1 0 0 -1 0 834)" d="M588.449 6.83984C 588.269 6.46211 588.191 6.43789 587.867 6.43789L587.867 6.43789L586.7451 6.43789L586.7451 6.43789L587.597 7.33203C 588.149 7.91992 588.389 8.273829 588.389 8.79609C 588.389 9.42617 587.909 9.810161 587.381 9.810161C 587.033 9.810161 586.751 9.653911 586.571 9.45586L586.571 9.45586L586.229 8.96992L586.229 8.96992L586.361 8.85C 586.517 9.08398 586.769 9.40781 587.177 9.40781C 587.621 9.40781 587.885 9.11406 587.885 8.61016C 587.885 8.09414 587.507 7.60195 587.135 7.15781C 586.835 6.81016 586.499 6.46797 586.163 6.13789L586.163 6.13789L586.163 6L586.163 6L588.407 6C 588.479 6.26992 588.539 6.53398 588.617 6.78594z" stroke="#000000" stroke-width="0.4" fill="none" /><path id="1513" transform="matrix(1 0 0 -1 0 834)" d="M589.5471 5.92813C 589.739 5.92813 589.883 6.06602 589.883 6.27617C 589.883 6.46797 589.739 6.61797 589.5471 6.61797C 589.355 6.61797 589.211 6.46797 589.211 6.27617C 589.211 6.06602 589.355 5.92813 589.5471 5.92813zM589.541 8.466021C 589.3491 8.466021 589.211 8.328131 589.211 8.13008C 589.211 7.92617 589.3491 7.78203 589.541 7.78203C 589.733 7.78203 589.877 7.92617 589.877 8.13008C 589.877 8.328131 589.733 8.466021 589.541 8.466021z" stroke="#000000" stroke-width="0.4" fill="none" /><path id="1514" transform="matrix(1 0 0 -1 0 834)" d="M591.137 9.3L592.535 9.3L592.535 9.3L592.691 9.68984L592.691 9.68984L592.655 9.73789L592.655 9.73789L590.945 9.73789L590.945 9.73789L590.711 7.90781C 590.8491 7.96211 591.077 8.028131 591.329 8.028131C 591.983 8.028131 592.307 7.65 592.307 7.121881C 592.307 6.67188 592.055 6.23398 591.545 6.23398C 591.179 6.23398 590.933 6.42617 590.807 6.53984C 590.747 6.58789 590.699 6.58203 590.645 6.53984C 590.579 6.48008 590.525 6.40195 590.519 6.34219C 590.507 6.26992 590.537 6.22188 590.615 6.13789C 590.705 6.05391 590.957 5.92813 591.233 5.92813C 591.551 5.93398 591.953 6.08984 592.277 6.35391C 592.643 6.65391 592.811 6.99609 592.811 7.35586C 592.811 7.84805 592.421 8.369921 591.653 8.369921C 591.491 8.369921 591.209 8.273829 590.981 8.18984z" stroke="#000000" stroke-width="0.4" fill="none" /><path id="1515" transform="matrix(1 0 0 -1 0 834)" d="M595.409 6L595.409 6.16211C 594.863 6.20391 594.827 6.25195 594.827 6.68398L594.827 6.68398L594.827 9.810161C 594.497 9.67813 594.143 9.56406 593.759 9.49805L593.759 9.49805L593.759 9.36016L593.759 9.36016L594.0471 9.34805C 594.311 9.33594 594.335 9.305861 594.335 8.99414L594.335 8.99414L594.335 6.68398C 594.335 6.25195 594.305 6.20391 593.759 6.16211L593.759 6.16211L593.759 6z" stroke="#000000" stroke-width="0.4" fill="none" /><path id="1516" transform="matrix(1 0 0 -1 0 834)" d="M596.675 5.92813C 596.867 5.92813 597.011 6.06602 597.011 6.27617C 597.011 6.46797 596.867 6.61797 596.675 6.61797C 596.483 6.61797 596.3391 6.46797 596.3391 6.27617C 596.3391 6.06602 596.483 5.92813 596.675 5.92813zM596.669 8.466021C 596.477 8.466021 596.3391 8.328131 596.3391 8.13008C 596.3391 7.92617 596.477 7.78203 596.669 7.78203C 596.861 7.78203 597.005 7.92617 597.005 8.13008C 597.005 8.328131 596.861 8.466021 596.669 8.466021z" stroke="#000000" stroke-width="0.4" fill="none" /><path id="1517" transform="matrix(1 0 0 -1 0 834)" d="M599.825 6.83984C 599.645 6.46211 599.567 6.43789 599.243 6.43789L599.243 6.43789L598.121 6.43789L598.121 6.43789L598.973 7.33203C 599.525 7.91992 599.765 8.273829 599.765 8.79609C 599.765 9.42617 599.285 9.810161 598.757 9.810161C 598.409 9.810161 598.127 9.653911 597.947 9.45586L597.947 9.45586L597.605 8.96992L597.605 8.96992L597.737 8.85C 597.893 9.08398 598.145 9.40781 598.553 9.40781C 598.997 9.40781 599.261 9.11406 599.261 8.61016C 599.261 8.09414 598.883 7.60195 598.511 7.15781C 598.211 6.81016 597.875 6.46797 597.539 6.13789L597.539 6.13789L597.539 6L597.539 6L599.783 6C 599.855 6.26992 599.915 6.53398 599.993 6.78594z" stroke="#000000" stroke-width="0.4" fill="none" /><path id="1518" transform="matrix(1 0 0 -1 0 834)" d="M601.607 9.61211C 602.189 9.61211 602.345 8.86797 602.345 8.33984C 602.345 8.21992 602.3391 8.076171 602.321 7.94414C 602.195 7.84805 601.991 7.77617 601.781 7.77617C 601.277 7.77617 600.977 8.214061 600.977 8.74219C 600.977 9.09609 601.145 9.61211 601.607 9.61211zM601.685 9.810161C 600.911 9.810161 600.461 9.10781 600.461 8.53203C 600.461 7.90195 600.899 7.43398 601.535 7.43398C 601.649 7.43398 601.763 7.45781 601.895 7.53008L601.895 7.53008L602.2971 7.74609C 602.0991 6.83398 601.445 6.23398 600.587 6.08984L600.587 6.08984L600.617 5.91016C 600.767 5.91016 601.133 5.96992 601.457 6.10195C 602.267 6.42617 602.873 7.20586 602.873 8.310161C 602.873 9.12617 602.435 9.810161 601.685 9.810161z" stroke="#000000" stroke-width="0.4" fill="none" /><path id="1519" transform="matrix(1 0 0 -1 0 834)" d="M605.489 8.08203C 605.651 8.20195 605.897 8.33398 606.0891 8.33398C 606.527 8.33398 606.893 7.97383 606.893 7.33203C 606.893 6.65391 606.557 6.22188 606.053 6.22188C 605.8491 6.22188 605.621 6.31797 605.489 6.45586zM605.489 8.28008L605.489 8.75391C 605.207 8.63984 604.871 8.53789 604.619 8.49609L604.619 8.49609L604.619 8.351951C 604.991 8.30391 605.015 8.29219 605.015 7.90195L605.015 7.90195L605.015 5.18984C 605.015 4.79414 604.961 4.75781 604.577 4.72188L604.577 4.72188L604.577 4.56016L604.577 4.56016L605.999 4.56016L605.999 4.56016L605.999 4.72188C 605.531 4.76406 605.489 4.79414 605.489 5.25L605.489 5.25L605.489 6.03594C 605.567 5.99414 605.729 5.93398 605.903 5.92813C 606.683 6.07188 607.397 6.65391 607.397 7.56016C 607.397 8.153911 607.001 8.69414 606.335 8.69414C 606.263 8.69414 606.149 8.664061 606.041 8.60391z" stroke="#000000" stroke-width="0.4" fill="none" /><path id="1520" transform="matrix(1 0 0 -1 0 834)" d="M608.303 5.92813C 608.4951 5.92813 608.639 6.06602 608.639 6.27617C 608.639 6.46797 608.4951 6.61797 608.303 6.61797C 608.111 6.61797 607.967 6.46797 607.967 6.27617C 607.967 6.06602 608.111 5.92813 608.303 5.92813z" stroke="#000000" stroke-width="0.4" fill="none" /><path id="1521" transform="matrix(1 0 0 -1 0 834)" d="M615.125 6L615.125 6.15586C 614.783 6.19219 614.735 6.21602 614.735 6.61797L614.735 6.61797L614.735 7.77617C 614.735 8.36406 614.441 8.69414 613.973 8.69414C 613.805 8.69414 613.649 8.621881 613.523 8.53789C 613.373 8.44805 613.199 8.33398 613.025 8.20195C 612.905 8.51406 612.647 8.69414 612.359 8.69414C 612.167 8.69414 612.023 8.628131 611.867 8.53203C 611.687 8.417971 611.555 8.310161 611.429 8.226171L611.429 8.226171L611.429 8.712111C 611.165 8.59219 610.859 8.51406 610.595 8.466021L610.595 8.466021L610.595 8.328131C 610.9431 8.273829 610.961 8.24414 610.961 7.86016L610.961 7.86016L610.961 6.61797C 610.961 6.22813 610.907 6.19219 610.511 6.15586L610.511 6.15586L610.511 6L610.511 6L611.777 6L611.777 6L611.777 6.15586C 611.483 6.19219 611.435 6.22813 611.435 6.61797L611.435 6.61797L611.435 8.028131C 611.615 8.17813 611.8491 8.33984 612.0891 8.33984C 612.455 8.33984 612.611 8.09414 612.611 7.65L612.611 7.65L612.611 6.61797C 612.611 6.22188 612.557 6.19219 612.185 6.15586L612.185 6.15586L612.185 6L612.185 6L613.469 6L613.469 6L613.469 6.15586C 613.139 6.19219 613.085 6.22813 613.085 6.60586L613.085 6.60586L613.085 7.77617C 613.085 7.88984 613.079 7.95586 613.067 8.028131C 613.295 8.21992 613.523 8.33984 613.739 8.33984C 614.117 8.33984 614.267 8.069921 614.267 7.64414L614.267 7.64414L614.267 6.64219C 614.267 6.21602 614.201 6.19219 613.847 6.15586L613.847 6.15586L613.847 6z" stroke="#000000" stroke-width="0.4" fill="none" /><path id="1522" transform="matrix(1 0 0 -1 0 834)" d="M615.947 5.92813C 616.139 5.92813 616.283 6.06602 616.283 6.27617C 616.283 6.46797 616.139 6.61797 615.947 6.61797C 615.755 6.61797 615.611 6.46797 615.611 6.27617C 615.611 6.06602 615.755 5.92813 615.947 5.92813z" stroke="#000000" stroke-width="0.4" fill="none" /></g></g></svg>