<svg xmlns="http://www.w3.org/2000/svg" xmlns:xlink="http://www.w3.org/1999/xlink" id="body_1" preserveAspectRatio="xMinYMin meet" viewBox="0 0 872 1112"><defs><clipPath id="1"><path id="" clip-rule="evenodd" transform="matrix(1 0 0 1 0 0)" d="M0 834L0 0L0 0L654 0L654 0L654 834L654 834L0 834z" /></clipPath><clipPath id="2"><path id="" clip-rule="evenodd" transform="matrix(1 0 0 1 0 0)" d="M21 813L633 813L633 813L633 21L633 21L21 21z" /></clipPath><clipPath id="3"><path id="" clip-rule="evenodd" transform="matrix(1 0 0 1 0 0)" d="M180.634 266.598L257.968 266.598L257.968 266.598L257.968 132.016L257.968 132.016L180.634 132.016z" /></clipPath><clipPath id="4"><path id="" clip-rule="evenodd" transform="matrix(1 0 0 1 0 0)" d="M180.634 266.598L257.968 266.598L257.968 266.598L257.968 132.016L257.968 132.016L180.634 132.016z" /></clipPath><clipPath id="5"><path id="" clip-rule="evenodd" transform="matrix(1 0 0 1 0 0)" d="M180.634 266.598L306.405 266.598L306.405 266.598L306.405 132.016L306.405 132.016L180.634 132.016z" /></clipPath><clipPath id="6"><path id="" clip-rule="evenodd" transform="matrix(1 0 0 1 0 0)" d="M238.294 231.198C 238.294 249.836 253.403 264.946 272.041 264.946L272.041 264.946L272.041 264.946C 280.516 264.946 288.261 261.822 294.188 256.664L294.188 256.664L294.188 256.664L294.188 256.664L294.188 205.733C 288.261 200.573 280.516 197.45 272.041 197.45L272.041 197.45L272.041 197.45C 253.403 197.45 238.294 212.559 238.294 231.198" /></clipPath><clipPath id="7"><path id="" clip-rule="evenodd" transform="matrix(1 0 0 1 0 0)" d="M238.294 231.198C 238.294 249.836 253.403 264.946 272.041 264.946L272.041 264.946L272.041 264.946C 280.516 264.946 288.261 261.822 294.188 256.664L294.188 256.664L294.188 256.664L294.188 256.664L294.188 205.733C 288.261 200.573 280.516 197.45 272.041 197.45L272.041 197.45L272.041 197.45C 253.403 197.45 238.294 212.559 238.294 231.198" /></clipPath><clipPath id="8"><path id="" clip-rule="evenodd" transform="matrix(1 0 0 1 0 0)" d="M180.634 266.598L306.405 266.598L306.405 266.598L306.405 132.016L306.405 132.016L180.634 132.016z" /></clipPath><clipPath id="9"><path id="" clip-rule="evenodd" transform="matrix(1 0 0 1 0 0)" d="M352.796 168.711L395.1718 168.711L395.1718 168.711L395.1718 113.0411L395.1718 113.0411L352.796 113.0411z" /></clipPath><clipPath id="10"><path id="" clip-rule="evenodd" transform="matrix(1 0 0 1 0 0)" d="M352.796 168.711L395.1718 168.711L395.1718 168.711L395.1718 113.0411L395.1718 113.0411L352.796 113.0411z" /></clipPath><clipPath id="11"><path id="" clip-rule="evenodd" transform="matrix(1 0 0 1 0 0)" d="M167.268 176.7339L192.8649 176.7339L192.8649 176.7339L192.8649 140.8762L192.8649 140.8762L167.268 140.8762z" /></clipPath><clipPath id="12"><path id="" clip-rule="evenodd" transform="matrix(1 0 0 1 0 0)" d="M167.268 176.7339L192.8649 176.7339L192.8649 176.7339L192.8649 140.8762L192.8649 140.8762L167.268 140.8762z" /></clipPath><clipPath id="13"><path id="" clip-rule="evenodd" transform="matrix(1 0 0 1 0 0)" d="M102.539 472.417L349.253 472.417L349.253 472.417L349.253 355.004L349.253 355.004L102.539 355.004z" /></clipPath><clipPath id="14"><path id="" clip-rule="evenodd" transform="matrix(1 0 0 1 0 0)" d="M164.644 418.248C 164.644 437.298 180.087 452.742 199.138 452.742L199.138 452.742L199.138 452.742C 218.188 452.742 233.631 437.298 233.631 418.248L233.631 418.248L233.631 418.248C 233.631 399.197 218.188 383.754 199.138 383.754L199.138 383.754L199.138 383.754C 180.087 383.754 164.644 399.197 164.644 418.248" /></clipPath><clipPath id="15"><path id="" clip-rule="evenodd" transform="matrix(1 0 0 1 0 0)" d="M164.644 418.248C 164.644 437.298 180.087 452.742 199.138 452.742L199.138 452.742L199.138 452.742C 218.188 452.742 233.631 437.298 233.631 418.248L233.631 418.248L233.631 418.248C 233.631 399.197 218.188 383.754 199.138 383.754L199.138 383.754L199.138 383.754C 180.087 383.754 164.644 399.197 164.644 418.248" /></clipPath><clipPath id="16"><path id="" clip-rule="evenodd" transform="matrix(1 0 0 1 0 0)" d="M102.539 472.417L349.253 472.417L349.253 472.417L349.253 355.004L349.253 355.004L102.539 355.004z" /></clipPath><clipPath id="17"><path id="" clip-rule="evenodd" transform="matrix(1 0 0 1 0 0)" d="M102.539 472.417L349.253 472.417L349.253 472.417L349.253 355.004L349.253 355.004L102.539 355.004z" /></clipPath><clipPath id="18"><path id="" clip-rule="evenodd" transform="matrix(1 0 0 1 0 0)" d="M288.087 387.841C 288.087 404.495 301.587 417.995 318.241 417.995L318.241 417.995L318.241 417.995C 334.895 417.995 348.395 404.495 348.395 387.841L348.395 387.841L348.395 387.841C 348.395 371.188 334.895 357.688 318.241 357.688L318.241 357.688L318.241 357.688C 301.587 357.688 288.087 371.188 288.087 387.841" /></clipPath><clipPath id="19"><path id="" clip-rule="evenodd" transform="matrix(1 0 0 1 0 0)" d="M288.087 387.841C 288.087 404.495 301.587 417.995 318.241 417.995L318.241 417.995L318.241 417.995C 334.895 417.995 348.395 404.495 348.395 387.841L348.395 387.841L348.395 387.841C 348.395 371.188 334.895 357.688 318.241 357.688L318.241 357.688L318.241 357.688C 301.587 357.688 288.087 371.188 288.087 387.841" /></clipPath><clipPath id="20"><path id="" clip-rule="evenodd" transform="matrix(1 0 0 1 0 0)" d="M102.539 472.417L349.253 472.417L349.253 472.417L349.253 355.004L349.253 355.004L102.539 355.004z" /></clipPath><clipPath id="21"><path id="" clip-rule="evenodd" transform="matrix(1 0 0 1 0 0)" d="M102.539 472.417L349.253 472.417L349.253 472.417L349.253 355.004L349.253 355.004L102.539 355.004z" /></clipPath><clipPath id="22"><path id="" clip-rule="evenodd" transform="matrix(1 0 0 1 0 0)" d="M93.5672 488.434L119.1641 488.434L119.1641 488.434L119.1641 452.575L119.1641 452.575L93.5672 452.575z" /></clipPath><clipPath id="23"><path id="" clip-rule="evenodd" transform="matrix(1 0 0 1 0 0)" d="M93.5672 488.434L119.1641 488.434L119.1641 488.434L119.1641 452.575L119.1641 452.575L93.5672 452.575z" /></clipPath><clipPath id="24"><path id="" clip-rule="evenodd" transform="matrix(1 0 0 1 0 0)" d="M188.953 487.724L214.5487 487.724L214.5487 487.724L214.5487 451.8662L214.5487 451.8662L188.953 451.8662z" /></clipPath><clipPath id="25"><path id="" clip-rule="evenodd" transform="matrix(1 0 0 1 0 0)" d="M188.953 487.724L214.5487 487.724L214.5487 487.724L214.5487 451.8662L214.5487 451.8662L188.953 451.8662z" /></clipPath><clipPath id="26"><path id="" clip-rule="evenodd" transform="matrix(1 0 0 1 0 0)" d="M225.094 487.724L250.6909 487.724L250.6909 487.724L250.6909 451.8662L250.6909 451.8662L225.094 451.8662z" /></clipPath><clipPath id="27"><path id="" clip-rule="evenodd" transform="matrix(1 0 0 1 0 0)" d="M225.094 487.724L250.6909 487.724L250.6909 487.724L250.6909 451.8662L250.6909 451.8662L225.094 451.8662z" /></clipPath><clipPath id="28"><path id="" clip-rule="evenodd" transform="matrix(1 0 0 1 0 0)" d="M97.6602 708.554L183.67 708.554L183.67 708.554L183.67 598.304L183.67 598.304L97.6602 598.304z" /></clipPath><clipPath id="29"><path id="" clip-rule="evenodd" transform="matrix(1 0 0 1 0 0)" d="M97.6602 708.554L183.67 708.554L183.67 708.554L183.67 598.304L183.67 598.304L97.6602 598.304z" /></clipPath><clipPath id="30"><path id="" clip-rule="evenodd" transform="matrix(1 0 0 1 0 0)" d="M97.6602 708.61L389.2872 708.61L389.2872 708.61L389.2872 595.791L389.2872 595.791L97.6602 595.791z" /></clipPath><clipPath id="31"><path id="" clip-rule="evenodd" transform="matrix(1 0 0 1 0 0)" d="M296.698 685.837L304.3011 685.837L304.3011 685.837L304.3011 656.2921L304.3011 656.2921L296.698 656.2921z" /></clipPath><clipPath id="32"><path id="" clip-rule="evenodd" transform="matrix(1 0 0 1 0 0)" d="M296.698 685.837L304.301 685.837L304.301 685.837L304.301 656.292L304.301 656.292L296.698 656.292z" /></clipPath><clipPath id="33"><path id="" clip-rule="evenodd" transform="matrix(1 0 0 1 0 0)" d="M296.698 685.837L304.3011 685.837L304.3011 685.837L304.3011 656.2921L304.3011 656.2921L296.698 656.2921z" /></clipPath><clipPath id="34"><path id="" clip-rule="evenodd" transform="matrix(1 0 0 1 0 0)" d="M260.822 685.837L268.4251 685.837L268.4251 685.837L268.4251 656.2921L268.4251 656.2921L260.822 656.2921z" /></clipPath><clipPath id="35"><path id="" clip-rule="evenodd" transform="matrix(1 0 0 1 0 0)" d="M260.822 685.837L268.425 685.837L268.425 685.837L268.425 656.292L268.425 656.292L260.822 656.292z" /></clipPath><clipPath id="36"><path id="" clip-rule="evenodd" transform="matrix(1 0 0 1 0 0)" d="M260.822 685.837L268.4251 685.837L268.4251 685.837L268.4251 656.2921L268.4251 656.2921L260.822 656.2921z" /></clipPath><clipPath id="37"><path id="" clip-rule="evenodd" transform="matrix(1 0 0 1 0 0)" d="M97.6602 708.61L389.2872 708.61L389.2872 708.61L389.2872 595.791L389.2872 595.791L97.6602 595.791z" /></clipPath><clipPath id="38"><path id="" clip-rule="evenodd" transform="matrix(1 0 0 1 0 0)" d="M162.254 641.609C 162.254 662.375 179.088 679.211 199.856 679.211L199.856 679.211L199.856 679.211C 220.622 679.211 237.457 662.375 237.457 641.609L237.457 641.609L237.457 641.609C 237.457 620.842 220.622 604.008 199.856 604.008L199.856 604.008L199.856 604.008C 179.088 604.008 162.254 620.842 162.254 641.609" /></clipPath><clipPath id="39"><path id="" clip-rule="evenodd" transform="matrix(1 0 0 1 0 0)" d="M162.254 641.609C 162.254 662.375 179.088 679.211 199.856 679.211L199.856 679.211L199.856 679.211C 220.622 679.211 237.457 662.375 237.457 641.609L237.457 641.609L237.457 641.609C 237.457 620.842 220.622 604.008 199.856 604.008L199.856 604.008L199.856 604.008C 179.088 604.008 162.254 620.842 162.254 641.609" /></clipPath><clipPath id="40"><path id="" clip-rule="evenodd" transform="matrix(1 0 0 1 0 0)" d="M97.6602 708.61L389.2872 708.61L389.2872 708.61L389.2872 595.791L389.2872 595.791L97.6602 595.791z" /></clipPath><clipPath id="41"><path id="" clip-rule="evenodd" transform="matrix(1 0 0 1 0 0)" d="M335.387 609.402C 321.439 615.179 311.625 628.925 311.625 644.962L311.625 644.962L311.625 644.962C 311.625 666.21 328.85 683.435 350.098 683.435L350.098 683.435L350.098 683.435C 371.346 683.435 388.571 666.21 388.571 644.962L388.571 644.962L388.571 644.962C 388.571 628.925 378.758 615.179 364.81 609.402L364.81 609.402L364.81 609.402z" /></clipPath><clipPath id="42"><path id="" clip-rule="evenodd" transform="matrix(1 0 0 1 0 0)" d="M335.387 609.402C 321.439 615.179 311.625 628.925 311.625 644.962L311.625 644.962L311.625 644.962C 311.625 666.21 328.85 683.435 350.098 683.435L350.098 683.435L350.098 683.435C 371.346 683.435 388.571 666.21 388.571 644.962L388.571 644.962L388.571 644.962C 388.571 628.925 378.758 615.179 364.81 609.402L364.81 609.402L364.81 609.402z" /></clipPath><clipPath id="43"><path id="" clip-rule="evenodd" transform="matrix(1 0 0 1 0 0)" d="M97.6602 708.61L389.2872 708.61L389.2872 708.61L389.2872 595.791L389.2872 595.791L97.6602 595.791z" /></clipPath><clipPath id="44"><path id="" clip-rule="evenodd" transform="matrix(1 0 0 1 0 0)" d="M97.6602 708.61L389.2872 708.61L389.2872 708.61L389.2872 595.791L389.2872 595.791L97.6602 595.791z" /></clipPath><clipPath id="45"><path id="" clip-rule="evenodd" transform="matrix(1 0 0 1 0 0)" d="M352.796 600.804L395.1718 600.804L395.1718 600.804L395.1718 555.5699L395.1718 555.5699L352.796 555.5699z" /></clipPath><clipPath id="46"><path id="" clip-rule="evenodd" transform="matrix(1 0 0 1 0 0)" d="M352.796 600.804L395.1718 600.804L395.1718 600.804L395.1718 555.5699L395.1718 555.5699L352.796 555.5699z" /></clipPath><clipPath id="47"><path id="" clip-rule="evenodd" transform="matrix(1 0 0 1 0 0)" d="M102.354 709.318L127.9513 709.318L127.9513 709.318L127.9513 673.4602L127.9513 673.4602L102.354 673.4602z" /></clipPath><clipPath id="48"><path id="" clip-rule="evenodd" transform="matrix(1 0 0 1 0 0)" d="M102.354 709.318L127.9513 709.318L127.9513 709.318L127.9513 673.4602L127.9513 673.4602L102.354 673.4602z" /></clipPath><clipPath id="49"><path id="" clip-rule="evenodd" transform="matrix(1 0 0 1 0 0)" d="M217.922 709.318L243.5193 709.318L243.5193 709.318L243.5193 673.4602L243.5193 673.4602L217.922 673.4602z" /></clipPath><clipPath id="50"><path id="" clip-rule="evenodd" transform="matrix(1 0 0 1 0 0)" d="M217.922 709.318L243.5193 709.318L243.5193 709.318L243.5193 673.4602L243.5193 673.4602L217.922 673.4602z" /></clipPath><clipPath id="51"><path id="" clip-rule="evenodd" transform="matrix(1 0 0 1 0 0)" d="M366.827 709.318L392.4239 709.318L392.4239 709.318L392.4239 673.4602L392.4239 673.4602L366.827 673.4602z" /></clipPath><clipPath id="52"><path id="" clip-rule="evenodd" transform="matrix(1 0 0 1 0 0)" d="M366.827 709.318L392.4239 709.318L392.4239 709.318L392.4239 673.4602L392.4239 673.4602L366.827 673.4602z" /></clipPath></defs><g transform="matrix(1.333333 0 0 1.333333 0 0)"><g clip-path="url(#1)"><g clip-path="url(#2)"><path id="1" transform="matrix(1 0 0 -1 0 834)" d="M91.866 67.4211L562.134 67.4211L562.134 74.92501L91.866 74.92501z" stroke="none" fill="#686868" fill-rule="nonzero" /><path id="2" transform="matrix(1 0 0 -1 0 834)" d="M562.134 526.984L91.866 526.984" stroke="#686868" stroke-width="1" fill="none" /><path id="3" transform="matrix(1 0 0 -1 0 834)" d="M562.134 307.016L91.866 307.016" stroke="#686868" stroke-width="1" fill="none" /></g><g clip-path="url(#3)"></g><g clip-path="url(#4)"><g transform="matrix(1.004336 0 0 1.004351 180.635 132.015)"><g transform="matrix(1 0 0 1 0 0)"><image x="0" y="0" xlink:href="img_01.png" width="77" height="134" /></g></g></g><path id="8" transform="matrix(1 0 0 -1 0 834)" d="M244.565 654.518L242.939 650.663L244.016 651.1201L244.016 640.545L242.939 641.003L244.565 637.148L246.191 641.003L245.114 640.545L245.114 649.774L245.114 651.1201L246.191 650.663" stroke="none" fill="#FFFFFF" fill-rule="nonzero" /><g clip-path="url(#5)"><path id="9" transform="matrix(1 0 0 -1 0 834)" d="M305.79 602.802C 305.79 584.163 290.68 569.054 272.042 569.054C 253.403 569.054 238.294 584.163 238.294 602.802C 238.294 621.441 253.403 636.55 272.042 636.55C 290.68 636.55 305.79 621.441 305.79 602.802" stroke="none" fill="#FFFFFF" fill-rule="nonzero" /></g><g clip-path="url(#6)"></g><g clip-path="url(#7)"><g transform="matrix(1.008126 0 0 1.003993 219.587 165.317)"><g transform="matrix(1 0 0 1 0 0)"><image x="0" y="0" xlink:href="img_02.png" width="74" height="135" /></g></g></g><g clip-path="url(#8)"><path id="11" transform="matrix(1 0 0 -1 0 834)" d="M305.79 602.802C 305.79 584.163 290.68 569.054 272.042 569.054C 253.403 569.054 238.294 584.163 238.294 602.802C 238.294 621.441 253.403 636.55 272.042 636.55C 290.68 636.55 305.79 621.441 305.79 602.802z" stroke="#000000" stroke-width="0.683" fill="none" /></g><g clip-path="url(#9)"></g><g clip-path="url(#10)"><g transform="matrix(1.008969 0 0 1.012184 352.797 113.0409)"><g transform="matrix(1 0 0 1 0 0)"><image x="0" y="0" xlink:href="img_03.png" width="42" height="55" /></g></g></g><path id="124" transform="matrix(1 0 0 -1 0 834)" d="M167.268 657.2661L192.8649 657.2661L192.8649 693.1238L167.268 693.1238z" stroke="none" fill="#FFFFFF" fill-rule="nonzero" /><g clip-path="url(#11)"></g><g clip-path="url(#12)"><g transform="matrix(1.022789 0 0 0.9967948 166.251 139.8558)"><g transform="matrix(1 0 0 1 0 0)"><image x="0" y="0" xlink:href="img_04.png" width="27" height="38" /></g></g></g><g transform="matrix(1.006783 0 0 1.00353 102.539 355.004)"><g transform="matrix(1 0 0 1 0 0)"><image x="0" y="0" xlink:href="img_05.png" width="85" height="117" /></g></g><path id="127" transform="matrix(1 0 0 -1 0 834)" d="M113.35 418.698L117.233 417.184L116.748 418.244L125.937 418.496L125.907 419.589L116.718 419.337L117.144 420.422" stroke="none" fill="#FFFFFF" fill-rule="nonzero" /><g clip-path="url(#13)"><path id="128" transform="matrix(1 0 0 -1 0 834)" d="M233.631 415.752C 233.631 396.702 218.188 381.258 199.137 381.258C 180.087 381.258 164.644 396.702 164.644 415.752C 164.644 434.802 180.087 450.246 199.137 450.246C 218.188 450.246 233.631 434.802 233.631 415.752" stroke="none" fill="#FFFFFF" fill-rule="nonzero" /></g><g clip-path="url(#14)"></g><g clip-path="url(#15)"><g transform="matrix(1.006783 0 0 1.00353 164.644 355.004)"><g transform="matrix(1 0 0 1 0 0)"><image x="0" y="0" xlink:href="img_06.png" width="85" height="117" /></g></g></g><g clip-path="url(#16)"><path id="130" transform="matrix(1 0 0 -1 0 834)" d="M233.631 415.752C 233.631 396.702 218.188 381.258 199.137 381.258C 180.087 381.258 164.644 396.702 164.644 415.752C 164.644 434.802 180.087 450.246 199.137 450.246C 218.188 450.246 233.631 434.802 233.631 415.752z" stroke="#000000" stroke-width="0.954" fill="none" /></g><g transform="matrix(1.006783 0 0 1.00353 233.631 355.004)"><g transform="matrix(1 0 0 1 0 0)"><image x="0" y="0" xlink:href="img_07.png" width="85" height="117" /></g></g><path id="132" transform="matrix(1 0 0 -1 0 834)" d="M267.649 449.58L270.527 448.449L270.169 449.236L276.986 449.405L276.966 450.216L270.149 450.048L270.467 450.852" stroke="none" fill="#000000" fill-rule="nonzero" /><g clip-path="url(#17)"><path id="133" transform="matrix(1 0 0 -1 0 834)" d="M348.394 446.159C 348.394 429.506 334.894 416.005 318.24 416.005C 301.587 416.005 288.087 429.506 288.087 446.159C 288.087 462.812 301.587 476.313 318.24 476.313C 334.894 476.313 348.394 462.812 348.394 446.159" stroke="none" fill="#FFFFFF" fill-rule="nonzero" /></g><g clip-path="url(#18)"></g><g clip-path="url(#19)"><g transform="matrix(1.003155 0 0 1.00353 269.588 355.004)"><g transform="matrix(1 0 0 1 0 0)"><image x="0" y="0" xlink:href="img_08.png" width="97" height="117" /></g></g></g><g clip-path="url(#20)"><path id="135" transform="matrix(1 0 0 -1 0 834)" d="M348.394 446.159C 348.394 429.506 334.894 416.005 318.24 416.005C 301.587 416.005 288.087 429.506 288.087 446.159C 288.087 462.812 301.587 476.313 318.24 476.313C 334.894 476.313 348.394 462.812 348.394 446.159z" stroke="#000000" stroke-width="0.954" fill="none" /><path id="136" transform="matrix(1 0 0 -1 0 834)" d="M117.557 474.976C 114.772 474.976 112.514 472.718 112.514 469.932C 112.514 467.147 114.772 464.889 117.557 464.889C 120.342 464.889 122.6 467.147 122.6 469.932C 122.6 472.718 120.342 474.976 117.557 474.976M117.557 465.502C 115.125 465.502 113.154 467.473 113.154 469.905C 113.154 472.336 115.125 474.307 117.557 474.307C 119.989 474.307 121.96 472.336 121.96 469.905C 121.96 467.473 119.989 465.502 117.557 465.502" stroke="none" fill="#000000" fill-rule="nonzero" /></g><g clip-path="url(#21)"><path id="138" transform="matrix(1 0 0 -1 0 834)" d="M249.241 474.976C 246.456 474.976 244.198 472.718 244.198 469.932C 244.198 467.147 246.456 464.889 249.241 464.889C 252.026 464.889 254.284 467.147 254.284 469.932C 254.284 472.718 252.026 474.976 249.241 474.976M249.241 465.502C 246.81 465.502 244.838 467.473 244.838 469.905C 244.838 472.336 246.81 474.307 249.241 474.307C 251.673 474.307 253.644 472.336 253.644 469.905C 253.644 467.473 251.673 465.502 249.241 465.502" stroke="none" fill="#000000" fill-rule="nonzero" /></g><g transform="matrix(1.009614 0 0 0.9985386 359.85 332.3863)"><g transform="matrix(1 0 0 1 0 0)"><image x="0" y="0" xlink:href="img_09.png" width="28" height="57" /></g></g><g clip-path="url(#22)"></g><g clip-path="url(#23)"><g transform="matrix(1.022789 0 0 0.9971526 92.5499 451.5632)"><g transform="matrix(1 0 0 1 0 0)"><image x="0" y="0" xlink:href="img_10.png" width="27" height="38" /></g></g></g><g clip-path="url(#24)"></g><g clip-path="url(#25)"><g transform="matrix(1.022789 0 0 0.9971526 187.947 450.8522)"><g transform="matrix(1 0 0 1 0 0)"><image x="0" y="0" xlink:href="img_11.png" width="27" height="38" /></g></g></g><g clip-path="url(#26)"></g><g clip-path="url(#27)"><g transform="matrix(1.022789 0 0 0.9965578 224.077 450.8608)"><g transform="matrix(1 0 0 1 0 0)"><image x="0" y="0" xlink:href="img_12.png" width="27" height="38" /></g></g></g><g clip-path="url(#28)"></g><g clip-path="url(#29)"><g transform="matrix(1.000122 0 0 1.002273 97.6597 598.304)"><g transform="matrix(1 0 0 1 0 0)"><image x="0" y="0" xlink:href="img_13.png" width="86" height="110" /></g></g></g><g transform="matrix(1.005318 0 0 0.9983982 237.27 595.791)"><g transform="matrix(1 0 0 1 0 0)"><image x="0" y="0" xlink:href="img_14.png" width="89" height="113" /></g></g><g clip-path="url(#30)"><path id="902" transform="matrix(1 0 0 -1 0 834)" d="M142.42 185.59C 143.058 189.039 144.429 191.424 146.017 191.424C 148.214 191.424 149.996 186.861 149.996 181.233C 149.996 175.604 148.214 171.041 146.017 171.041C 144.917 171.041 143.92 172.187 143.2 174.038" stroke="#FFFFFF" stroke-width="0.795" fill="none" /></g><path id="903" transform="matrix(1 0 0 -1 0 834)" d="M144.977 173.426L143.386 173.584L142.168 172.548L142.531 176.316z" stroke="none" fill="#FFFFFF" fill-rule="nonzero" /><g clip-path="url(#31)"><g><g clip-path="url(#32)"><g clip-path="url(#33)"><path id="904" transform="matrix(1 0 0 -1 0 834)" d="M300.721 177.709L296.698 168.793L296.698 168.791L299.241 169.799L298.71 148.227L301.276 148.164L301.808 169.736L304.3 168.604" stroke="none" fill="#FFFFFF" fill-rule="nonzero" fill-opacity="0.8" /></g></g></g></g><g clip-path="url(#34)"><g><g clip-path="url(#35)"><g clip-path="url(#36)"><path id="905" transform="matrix(1 0 0 -1 0 834)" d="M264.846 177.709L260.822 168.791L263.366 169.799L262.835 148.227L265.401 148.164L265.933 169.736L268.425 168.604" stroke="none" fill="#FFFFFF" fill-rule="nonzero" fill-opacity="0.8" /></g></g></g></g><g clip-path="url(#37)"><path id="906" transform="matrix(1 0 0 -1 0 834)" d="M237.457 192.391C 237.457 171.624 220.622 154.789 199.855 154.789C 179.089 154.789 162.254 171.624 162.254 192.391C 162.254 213.158 179.089 229.993 199.855 229.993C 220.622 229.993 237.457 213.158 237.457 192.391" stroke="none" fill="#FFFFFF" fill-rule="nonzero" /></g><g clip-path="url(#38)"></g><g clip-path="url(#39)"><g transform="matrix(1.008164 0 0 0.9993738 160.537 600.118)"><g transform="matrix(1 0 0 1 0 0)"><image x="0" y="0" xlink:href="img_15.png" width="78" height="107" /></g></g></g><g clip-path="url(#40)"><path id="908" transform="matrix(1 0 0 -1 0 834)" d="M237.457 192.391C 237.457 171.624 220.622 154.789 199.855 154.789C 179.089 154.789 162.254 171.624 162.254 192.391C 162.254 213.158 179.089 229.993 199.855 229.993C 220.622 229.993 237.457 213.158 237.457 192.391z" stroke="#000000" stroke-width="0.795" fill="none" /><path id="909" transform="matrix(1 0 0 -1 0 834)" d="M388.571 189.038C 388.571 167.79 371.346 150.565 350.098 150.565C 328.85 150.565 311.625 167.79 311.625 189.038C 311.625 210.286 328.85 227.511 350.098 227.511C 371.346 227.511 388.571 210.286 388.571 189.038" stroke="none" fill="#FFFFFF" fill-rule="nonzero" /></g><g clip-path="url(#41)"></g><g clip-path="url(#42)"><g transform="matrix(1.000011 0 0 0.9981875 309.57 609.402)"><g transform="matrix(1 0 0 1 0 0)"><image x="0" y="0" xlink:href="img_16.png" width="79" height="96" /></g></g></g><g clip-path="url(#43)"><path id="911" transform="matrix(1 0 0 -1 0 834)" d="M388.571 189.038C 388.571 167.79 371.346 150.565 350.098 150.565C 328.85 150.565 311.625 167.79 311.625 189.038C 311.625 210.286 328.85 227.511 350.098 227.511C 371.346 227.511 388.571 210.286 388.571 189.038z" stroke="#000000" stroke-width="0.795" fill="none" /><path id="912" transform="matrix(1 0 0 -1 0 834)" d="M117.895 232.877C 115.575 232.877 113.694 230.996 113.694 228.676C 113.694 226.356 115.575 224.475 117.895 224.475C 120.215 224.475 122.096 226.356 122.096 228.676C 122.096 230.996 120.215 232.877 117.895 232.877M117.895 224.986C 115.87 224.986 114.228 226.628 114.228 228.653C 114.228 230.678 115.87 232.32 117.895 232.32C 119.92 232.32 121.562 230.678 121.562 228.653C 121.562 226.628 119.92 224.986 117.895 224.986" stroke="none" fill="#000000" fill-rule="nonzero" /></g><g clip-path="url(#44)"><path id="914" transform="matrix(1 0 0 -1 0 834)" d="M255.252 232.854C 252.932 232.854 251.051 230.973 251.051 228.653C 251.051 226.333 252.932 224.452 255.252 224.452C 257.572 224.452 259.453 226.333 259.453 228.653C 259.453 230.973 257.572 232.854 255.252 232.854M255.252 224.963C 253.227 224.963 251.585 226.605 251.585 228.63C 251.585 230.655 253.227 232.297 255.252 232.297C 257.277 232.297 258.919 230.655 258.919 228.63C 258.919 226.605 257.277 224.963 255.252 224.963" stroke="none" fill="#000000" fill-rule="nonzero" /></g><g clip-path="url(#45)"></g><g clip-path="url(#46)"><g transform="matrix(1.008969 0 0 1.005193 352.797 555.5703)"><g transform="matrix(1 0 0 1 0 0)"><image x="0" y="0" xlink:href="img_17.png" width="42" height="45" /></g></g></g><g clip-path="url(#47)"></g><g clip-path="url(#48)"><g transform="matrix(1.022789 0 0 0.9973868 101.338 672.4393)"><g transform="matrix(1 0 0 1 0 0)"><image x="0" y="0" xlink:href="img_18.png" width="27" height="38" /></g></g></g><g clip-path="url(#49)"></g><g clip-path="url(#50)"><g transform="matrix(1.022789 0 0 0.9967948 216.915 672.4488)"><g transform="matrix(1 0 0 1 0 0)"><image x="0" y="0" xlink:href="img_19.png" width="27" height="38" /></g></g></g><g clip-path="url(#51)"></g><g clip-path="url(#52)"><g transform="matrix(-1.022789 0 0 0.9967948 393.431 672.4488)"><g transform="matrix(1 0 0 1 0 0)"><image x="0" y="0" xlink:href="img_20.png" width="27" height="38" /></g></g></g><path id="1355" transform="matrix(1 0 0 -1 0 834)" d="M633 15L633 0M633 819L633 834M21 15L21 0M21 819L21 834M639 21L654 21M15 21L0 21M639 813L654 813M15 813L0 813" stroke="#000000" stroke-width="1.25" fill="none" /><path id="1356" transform="matrix(1 0 0 -1 0 834)" d="M633 15L633 0M633 819L633 834M21 15L21 0M21 819L21 834M639 21L654 21M15 21L0 21M639 813L654 813M15 813L0 813" stroke="#000000" stroke-width="0.25" fill="none" /><path id="1357" transform="matrix(1 0 0 -1 0 834)" d="M32.2781 9.28203C 32.2781 9.516021 32.2961 9.58203 32.3559 9.62383C 32.416 9.66602 32.5719 9.69609 32.8238 9.69609C 33.2262 9.69609 33.5738 9.62383 33.8441 9.45C 34.3238 9.167971 34.552 8.63398 34.552 8.016021C 34.552 7.05586 34.0359 6.21602 32.9141 6.21602C 32.4762 6.21602 32.2781 6.33008 32.2781 6.78594zM31.252 9.900001L31.252 9.726171C 31.7141 9.68984 31.7621 9.66602 31.7621 9.150001L31.7621 9.150001L31.7621 6.74414C 31.7621 6.23398 31.7141 6.19805 31.198 6.16211L31.198 6.16211L31.198 6L31.198 6L32.6199 6C 33.3578 6 33.952 6.15 34.402 6.49805C 34.8641 6.84609 35.1398 7.38008 35.1398 8.1C 35.1398 8.664061 34.9301 9.101951 34.6359 9.38984C 34.2641 9.74414 33.7 9.900001 32.9379 9.900001z" stroke="#000000" stroke-width="0.4" fill="none" /><path id="1358" transform="matrix(1 0 0 -1 0 834)" d="M38.3801 6.97813C 38.2898 6.70195 38.1758 6.51016 38.0738 6.38984C 37.9359 6.23398 37.732 6.20391 37.402 6.20391C 37.15 6.20391 36.9461 6.21602 36.8258 6.28203C 36.718 6.34219 36.6879 6.46211 36.6879 6.78594L36.6879 6.78594L36.6879 9.15586C 36.6879 9.66602 36.7418 9.69609 37.216 9.73203L37.216 9.73203L37.216 9.900001L37.216 9.900001L35.65 9.900001L35.65 9.900001L35.65 9.73203C 36.1359 9.69609 36.1777 9.66602 36.1777 9.15586L36.1777 9.15586L36.1777 6.75586C 36.1777 6.24609 36.1301 6.20391 35.6258 6.16797L35.6258 6.16797L35.6258 6L35.6258 6L38.3438 6C 38.398 6.18594 38.5238 6.75586 38.5598 6.94219z" stroke="#000000" stroke-width="0.4" fill="none" /><path id="1359" transform="matrix(1 0 0 -1 0 834)" d="M41.0918 9.023829C 41.0438 9.40195 41.0141 9.63594 40.9898 9.851951C 40.7617 9.92383 40.5098 9.989841 40.234 9.989841C 39.4598 9.989841 38.998 9.49805 38.998 8.921881C 38.998 8.24414 39.6039 7.94414 39.9879 7.73984C 40.4379 7.5 40.768 7.28984 40.768 6.84609C 40.768 6.40781 40.498 6.12617 40.048 6.12617C 39.4301 6.12617 39.1598 6.73203 39.0641 7.09805L39.0641 7.09805L38.8898 7.05586C 38.9258 6.767971 39.0039 6.25195 39.052 6.12617C 39.1059 6.09609 39.1961 6.05391 39.3461 6C 39.4961 5.95781 39.6879 5.91016 39.934 5.91016C 40.732 5.91016 41.266 6.41406 41.266 7.04414C 41.266 7.71602 40.6961 7.99805 40.2277 8.23789C 39.7539 8.48398 39.466 8.68789 39.466 9.12617C 39.466 9.45 39.6699 9.78594 40.132 9.78594C 40.6539 9.78594 40.8098 9.371881 40.918 8.98789z" stroke="#000000" stroke-width="0.4" fill="none" /><path id="1360" transform="matrix(1 0 0 -1 0 834)" d="M46.648 6L46.648 6.16797C 46.1258 6.21602 46.1078 6.24609 46.0898 6.88203L46.0898 6.88203L46.0301 9.05391C 46.0117 9.671881 46.0539 9.68398 46.582 9.73203L46.582 9.73203L46.582 9.900001L46.582 9.900001L45.5617 9.900001L45.5617 9.900001L44.1758 6.9L44.1758 6.9L42.8078 9.900001L42.8078 9.900001L41.8238 9.900001L41.8238 9.900001L41.8238 9.73203C 42.3699 9.67813 42.4 9.653911 42.3461 8.87383L42.3461 8.87383L42.2617 7.626171C 42.2141 7.00195 42.1777 6.73789 42.148 6.528131C 42.1059 6.27617 41.9859 6.21016 41.6379 6.16797L41.6379 6.16797L41.6379 6L41.6379 6L43.0359 6L43.0359 6L43.0359 6.16797C 42.6398 6.21016 42.4961 6.25195 42.484 6.53984C 42.4777 6.78008 42.4777 7.04414 42.502 7.53594L42.502 7.53594L42.5918 9.24609L42.5918 9.24609L42.6039 9.24609L42.6039 9.24609L43.948 6.04219L43.948 6.04219L44.068 6.04219L44.068 6.04219L45.532 9.33008L45.532 9.33008L45.5559 9.33008L45.5559 9.33008L45.5738 6.88203C 45.5801 6.24609 45.5559 6.21602 45.0699 6.16797L45.0699 6.16797L45.0699 6z" stroke="#000000" stroke-width="0.4" fill="none" /><path id="1361" transform="matrix(1 0 0 -1 0 834)" d="M51.8738 7.05586C 51.5738 6.45586 51.2496 6.12617 50.6379 6.12617C 49.7258 6.12617 49.0656 6.89414 49.0656 8.016021C 49.0656 8.92813 49.5996 9.773829 50.602 9.773829C 51.2496 9.773829 51.6098 9.516021 51.7656 8.88008L51.7656 8.88008L51.9457 8.921881C 51.9098 9.24609 51.8738 9.48594 51.8258 9.828131C 51.6578 9.85781 51.2496 9.989841 50.7637 9.989841C 49.4258 9.989841 48.4539 9.15586 48.4539 7.89609C 48.4539 6.94219 49.1078 5.91016 50.602 5.91016C 51.034 5.91016 51.5379 6.03008 51.7059 6.07188C 51.8137 6.26992 51.9637 6.71406 52.0477 6.98984z" stroke="#000000" stroke-width="0.4" fill="none" /><path id="1362" transform="matrix(1 0 0 -1 0 834)" d="M54.3398 9.773829C 55.1258 9.773829 55.7855 9.101951 55.7855 7.83594C 55.7855 6.68398 55.1855 6.12617 54.5195 6.12617C 53.6738 6.12617 53.0559 6.94805 53.0559 8.076171C 53.0559 9.19805 53.6676 9.773829 54.3398 9.773829zM54.4598 9.989841C 53.1996 9.989841 52.4438 8.98789 52.4438 7.90781C 52.4438 6.75586 53.3078 5.91016 54.3938 5.91016C 55.4918 5.91016 56.3977 6.70195 56.3977 7.99805C 56.3977 9.19805 55.4797 9.989841 54.4598 9.989841z" stroke="#000000" stroke-width="0.4" fill="none" /><path id="1363" transform="matrix(1 0 0 -1 0 834)" d="M61.8277 6L61.8277 6.16797C 61.3059 6.21602 61.2879 6.24609 61.2695 6.88203L61.2695 6.88203L61.2098 9.05391C 61.1918 9.671881 61.2336 9.68398 61.7617 9.73203L61.7617 9.73203L61.7617 9.900001L61.7617 9.900001L60.7418 9.900001L60.7418 9.900001L59.3559 6.9L59.3559 6.9L57.9879 9.900001L57.9879 9.900001L57.0035 9.900001L57.0035 9.900001L57.0035 9.73203C 57.5496 9.67813 57.5797 9.653911 57.5258 8.87383L57.5258 8.87383L57.4418 7.626171C 57.3938 7.00195 57.3578 6.73789 57.3277 6.528131C 57.2855 6.27617 57.1656 6.21016 56.8176 6.16797L56.8176 6.16797L56.8176 6L56.8176 6L58.2156 6L58.2156 6L58.2156 6.16797C 57.8195 6.21016 57.6758 6.25195 57.6637 6.53984C 57.6578 6.78008 57.6578 7.04414 57.6816 7.53594L57.6816 7.53594L57.7719 9.24609L57.7719 9.24609L57.7836 9.24609L57.7836 9.24609L59.1277 6.04219L59.1277 6.04219L59.2477 6.04219L59.2477 6.04219L60.7117 9.33008L60.7117 9.33008L60.7355 9.33008L60.7355 9.33008L60.7535 6.88203C 60.7598 6.24609 60.7355 6.21602 60.2496 6.16797L60.2496 6.16797L60.2496 6z" stroke="#000000" stroke-width="0.4" fill="none" /><path id="1364" transform="matrix(1 0 0 -1 0 834)" d="M63.8258 6L63.8258 6.16797C 63.3336 6.20391 63.2855 6.23398 63.2855 6.75L63.2855 6.75L63.2855 9.150001C 63.2855 9.66016 63.3336 9.69609 63.8258 9.73203L63.8258 9.73203L63.8258 9.900001L63.8258 9.900001L62.2355 9.900001L62.2355 9.900001L62.2355 9.73203C 62.7277 9.69609 62.7758 9.66016 62.7758 9.150001L62.7758 9.150001L62.7758 6.75C 62.7758 6.23984 62.7277 6.20391 62.2355 6.16797L62.2355 6.16797L62.2355 6z" stroke="#000000" stroke-width="0.4" fill="none" /><path id="1365" transform="matrix(1 0 0 -1 0 834)" d="M66.5074 9.023829C 66.4598 9.40195 66.4297 9.63594 66.4055 9.851951C 66.1777 9.92383 65.9258 9.989841 65.6496 9.989841C 64.8758 9.989841 64.4137 9.49805 64.4137 8.921881C 64.4137 8.24414 65.0195 7.94414 65.4035 7.73984C 65.8535 7.5 66.1836 7.28984 66.1836 6.84609C 66.1836 6.40781 65.9137 6.12617 65.46371 6.12617C 64.8457 6.12617 64.5758 6.73203 64.4797 7.09805L64.4797 7.09805L64.3055 7.05586C 64.3418 6.767971 64.4195 6.25195 64.46761 6.12617C 64.52151 6.09609 64.6117 6.05391 64.7617 6C 64.91171 5.95781 65.1035 5.91016 65.3496 5.91016C 66.1477 5.91016 66.6816 6.41406 66.6816 7.04414C 66.6816 7.71602 66.1117 7.99805 65.6438 8.23789C 65.1695 8.48398 64.8816 8.68789 64.8816 9.12617C 64.8816 9.45 65.0855 9.78594 65.5477 9.78594C 66.0695 9.78594 66.2258 9.371881 66.3336 8.98789z" stroke="#000000" stroke-width="0.4" fill="none" /><path id="1366" transform="matrix(1 0 0 -1 0 834)" d="M69.4055 7.68008L68.3016 7.68008C 68.4816 8.171881 68.6734 8.69414 68.8656 9.21016L68.8656 9.21016L68.8777 9.21016zM70.9355 6L70.9355 6.16797C 70.5457 6.20391 70.46761 6.25781 70.2758 6.77383C 69.89181 7.81797 69.4895 8.95781 69.11761 9.989841L69.11761 9.989841L68.9316 9.93594L68.9316 9.93594L67.68951 6.78594C 67.4797 6.25781 67.3957 6.22188 67.0176 6.16797L67.0176 6.16797L67.0176 6L67.0176 6L68.3195 6L68.3195 6L68.3195 6.16797C 67.8695 6.21016 67.81561 6.26992 67.9477 6.64805C 68.0258 6.9 68.1156 7.15195 68.2117 7.42188L68.2117 7.42188L69.4895 7.42188C 69.62151 7.05586 69.74181 6.73203 69.8195 6.49805C 69.8977 6.26406 69.8438 6.21602 69.4656 6.16797L69.4656 6.16797L69.4656 6z" stroke="#000000" stroke-width="0.4" fill="none" /><path id="1367" transform="matrix(1 0 0 -1 0 834)" d="M71.7273 5.92813C 71.9195 5.92813 72.06371 6.06602 72.06371 6.27617C 72.06371 6.46797 71.9195 6.61797 71.7273 6.61797C 71.5355 6.61797 71.3914 6.46797 71.3914 6.27617C 71.3914 6.06602 71.5355 5.92813 71.7273 5.92813z" stroke="#000000" stroke-width="0.4" fill="none" /><path id="1368" transform="matrix(1 0 0 -1 0 834)" d="M73.9234 6L73.9234 6.15586C 73.53951 6.19219 73.4977 6.22813 73.4977 6.63594L73.4977 6.63594L73.4977 8.70586C 73.2336 8.59805 72.9516 8.51992 72.6453 8.471881L72.6453 8.471881L72.6453 8.328131C 73.0055 8.26797 73.0234 8.24414 73.0234 7.871881L73.0234 7.871881L73.0234 6.63594C 73.0234 6.22813 72.9816 6.19219 72.6035 6.15586L72.6035 6.15586L72.6035 6zM73.2215 9.216021C 73.3953 9.216021 73.52731 9.36016 73.52731 9.52188C 73.52731 9.70195 73.3953 9.83398 73.2273 9.83398C 73.06561 9.83398 72.9215 9.70195 72.9215 9.52188C 72.9215 9.36016 73.06561 9.216021 73.2215 9.216021z" stroke="#000000" stroke-width="0.4" fill="none" /><path id="1369" transform="matrix(1 0 0 -1 0 834)" d="M77.1574 6L77.1574 6.15586C 76.8094 6.19219 76.7793 6.21602 76.7793 6.62383L76.7793 6.62383L76.7793 7.78203C 76.7793 8.36406 76.4793 8.69414 76.0055 8.69414C 75.8313 8.69414 75.67541 8.621881 75.5074 8.51406C 75.3574 8.41211 75.2254 8.32188 75.1055 8.23203L75.1055 8.23203L75.1055 8.712111C 74.8414 8.59219 74.5594 8.51992 74.27151 8.466021L74.27151 8.466021L74.27151 8.328131C 74.5953 8.26797 74.6313 8.25 74.6313 7.86602L74.6313 7.86602L74.6313 6.62383C 74.6313 6.22813 74.6016 6.19805 74.19341 6.15586L74.19341 6.15586L74.19341 6L74.19341 6L75.4953 6L75.4953 6L75.4953 6.15586C 75.1414 6.19219 75.1055 6.21602 75.1055 6.62383L75.1055 6.62383L75.1055 8.03398C 75.2855 8.18984 75.5195 8.33984 75.7594 8.33984C 76.1613 8.33984 76.3055 8.069921 76.3055 7.65586L76.3055 7.65586L76.3055 6.65391C 76.3055 6.23984 76.2633 6.19219 75.9094 6.15586L75.9094 6.15586L75.9094 6z" stroke="#000000" stroke-width="0.4" fill="none" /><path id="1370" transform="matrix(1 0 0 -1 0 834)" d="M79.4734 6.51016C 79.32931 6.40195 79.1133 6.30586 78.8973 6.30586C 78.5133 6.30586 78.0754 6.65391 78.0754 7.36797C 78.0754 8.23789 78.57931 8.471881 78.8555 8.471881C 79.0832 8.471881 79.32931 8.37617 79.4734 8.16602zM80.4035 6.30586L80.2113 6.32383C 79.9895 6.34805 79.9473 6.37813 79.9473 6.68984L79.9473 6.68984L79.9473 10.2719C 79.7254 10.1941 79.3234 10.1039 79.0113 10.0621L79.0113 10.0621L79.0113 9.917971C 79.44341 9.88789 79.4734 9.869921 79.4734 9.47383L79.4734 9.47383L79.4734 8.628131C 79.3355 8.67617 79.1613 8.69414 79.0773 8.69414C 78.2613 8.69414 77.5293 8.03984 77.5293 7.20586C 77.5293 6.36602 78.1594 5.92813 78.6395 5.92813C 78.7113 5.92813 78.87341 5.96406 79.1074 6.10195L79.1074 6.10195L79.4734 6.31797L79.4734 6.31797L79.4734 5.92813C 79.8215 6.05391 80.27151 6.13203 80.4035 6.15586z" stroke="#000000" stroke-width="0.4" fill="none" /><path id="1371" transform="matrix(1 0 0 -1 0 834)" d="M81.3813 8.24414C 81.4895 8.310161 81.6813 8.35781 81.84921 8.35781C 82.34731 8.35781 82.7676 7.96211 82.7676 7.278131C 82.7676 6.58203 82.4492 6.15586 81.9516 6.15586C 81.6336 6.16211 81.4535 6.37188 81.4176 6.49219C 81.3934 6.54609 81.3813 6.60586 81.3813 6.69609zM81.3813 8.42383L81.3813 10.2719C 81.1594 10.1941 80.7934 10.098 80.5113 10.0621L80.5113 10.0621L80.5113 9.92383C 80.8953 9.88789 80.9074 9.851951 80.9074 9.48008L80.9074 9.48008L80.9074 6.14414C 81.2375 5.98789 81.5434 5.92813 81.78951 5.92813C 82.59341 5.92813 83.2953 6.55195 83.2953 7.43398C 83.2953 8.14219 82.7555 8.69414 82.1133 8.69414C 82.0473 8.69414 81.9633 8.67617 81.86761 8.63398z" stroke="#000000" stroke-width="0.4" fill="none" /><path id="1372" transform="matrix(1 0 0 -1 0 834)" d="M89.2832 7.35L88.1012 7.35C 88.49731 8.016021 88.8871 8.58594 89.2711 9.119921L89.2711 9.119921L89.2832 9.119921zM90.3391 7.06797L90.3391 7.35L90.3391 7.35L89.7633 7.35L89.7633 7.35L89.7633 9.79219L89.7633 9.79219L89.523 9.79219C 88.90511 8.976171 88.2934 8.08789 87.723 7.23594L87.723 7.23594L87.723 7.06797L87.723 7.06797L89.2832 7.06797L89.2832 7.06797L89.2832 6.63594C 89.2832 6.23984 89.2594 6.20391 88.7371 6.16211L88.7371 6.16211L88.7371 6L88.7371 6L90.273 6L90.273 6L90.273 6.16211C 89.7871 6.20391 89.7633 6.23398 89.7633 6.63594L89.7633 6.63594L89.7633 7.06797z" stroke="#000000" stroke-width="0.4" fill="none" /><path id="1373" transform="matrix(1 0 0 -1 0 834)" d="M92.7871 6L92.7871 6.16211C 92.241 6.20391 92.2051 6.25195 92.2051 6.68398L92.2051 6.68398L92.2051 9.810161C 91.8754 9.67813 91.5211 9.56406 91.1371 9.49805L91.1371 9.49805L91.1371 9.36016L91.1371 9.36016L91.42541 9.34805C 91.6891 9.33594 91.7133 9.305861 91.7133 8.99414L91.7133 8.99414L91.7133 6.68398C 91.7133 6.25195 91.6832 6.20391 91.1371 6.16211L91.1371 6.16211L91.1371 6z" stroke="#000000" stroke-width="0.4" fill="none" /><path id="1374" transform="matrix(1 0 0 -1 0 834)" d="M94.27541 9.3L95.673 9.3L95.673 9.3L95.82931 9.68984L95.82931 9.68984L95.7934 9.73789L95.7934 9.73789L94.0832 9.73789L94.0832 9.73789L93.84921 7.90781C 93.9871 7.96211 94.2152 8.028131 94.4672 8.028131C 95.1211 8.028131 95.4453 7.65 95.4453 7.121881C 95.4453 6.67188 95.19341 6.23398 94.6832 6.23398C 94.3172 6.23398 94.0711 6.42617 93.9453 6.53984C 93.8852 6.58789 93.8371 6.58203 93.7832 6.53984C 93.7172 6.48008 93.6633 6.40195 93.65701 6.34219C 93.6453 6.26992 93.67541 6.22188 93.75311 6.13789C 93.84341 6.05391 94.0953 5.92813 94.3711 5.92813C 94.6891 5.93398 95.091 6.08984 95.4152 6.35391C 95.7813 6.65391 95.9492 6.99609 95.9492 7.35586C 95.9492 7.84805 95.5594 8.369921 94.791 8.369921C 94.6293 8.369921 94.34731 8.273829 94.1191 8.18984z" stroke="#000000" stroke-width="0.4" fill="none" /><path id="1393" transform="matrix(1 0 0 -1 0 834)" d="M554.472 6.83984C 554.292 6.46211 554.2141 6.43789 553.89 6.43789L553.89 6.43789L552.768 6.43789L552.768 6.43789L553.6201 7.33203C 554.1721 7.91992 554.412 8.273829 554.412 8.79609C 554.412 9.42617 553.932 9.810161 553.404 9.810161C 553.056 9.810161 552.774 9.653911 552.594 9.45586L552.594 9.45586L552.252 8.96992L552.252 8.96992L552.384 8.85C 552.54 9.08398 552.792 9.40781 553.2 9.40781C 553.644 9.40781 553.908 9.11406 553.908 8.61016C 553.908 8.09414 553.53 7.60195 553.158 7.15781C 552.858 6.81016 552.522 6.46797 552.186 6.13789L552.186 6.13789L552.186 6L552.186 6L554.43 6C 554.502 6.26992 554.562 6.53398 554.64 6.78594z" stroke="#000000" stroke-width="0.4" fill="none" /><path id="1394" transform="matrix(1 0 0 -1 0 834)" d="M555.792 9.3L557.19 9.3L557.19 9.3L557.346 9.68984L557.346 9.68984L557.31 9.73789L557.31 9.73789L555.6 9.73789L555.6 9.73789L555.366 7.90781C 555.504 7.96211 555.732 8.028131 555.984 8.028131C 556.638 8.028131 556.962 7.65 556.962 7.121881C 556.962 6.67188 556.71 6.23398 556.2 6.23398C 555.834 6.23398 555.588 6.42617 555.462 6.53984C 555.402 6.58789 555.354 6.58203 555.3 6.53984C 555.234 6.48008 555.18 6.40195 555.174 6.34219C 555.162 6.26992 555.192 6.22188 555.27 6.13789C 555.36 6.05391 555.612 5.92813 555.888 5.92813C 556.206 5.93398 556.608 6.08984 556.932 6.35391C 557.298 6.65391 557.466 6.99609 557.466 7.35586C 557.466 7.84805 557.076 8.369921 556.308 8.369921C 556.146 8.369921 555.864 8.273829 555.636 8.18984z" stroke="#000000" stroke-width="0.4" fill="none" /><path id="1395" transform="matrix(1 0 0 -1 0 834)" d="M559.548 9.989841L559.212 9.989841L559.212 9.989841L557.91 5.73594L557.91 5.73594L558.246 5.73594z" stroke="#000000" stroke-width="0.4" fill="none" /><path id="1396" transform="matrix(1 0 0 -1 0 834)" d="M561.18 9.61211C 561.72 9.61211 561.8701 8.72383 561.8701 7.871881C 561.8701 7.03203 561.726 6.13203 561.186 6.13203C 560.664 6.13203 560.49 7.03789 560.49 7.87813C 560.49 8.712111 560.634 9.61211 561.18 9.61211zM561.186 9.810161C 560.286 9.810161 559.956 8.74219 559.956 7.86602C 559.956 6.91797 560.28 5.92813 561.186 5.92813C 562.086 5.92813 562.404 6.99609 562.404 7.871881C 562.404 8.79609 562.086 9.810161 561.186 9.810161z" stroke="#000000" stroke-width="0.4" fill="none" /><path id="1397" transform="matrix(1 0 0 -1 0 834)" d="M564 9.61211C 564.582 9.61211 564.738 8.86797 564.738 8.33984C 564.738 8.21992 564.732 8.076171 564.7141 7.94414C 564.588 7.84805 564.384 7.77617 564.174 7.77617C 563.67 7.77617 563.3701 8.214061 563.3701 8.74219C 563.3701 9.09609 563.538 9.61211 564 9.61211zM564.078 9.810161C 563.304 9.810161 562.854 9.10781 562.854 8.53203C 562.854 7.90195 563.292 7.43398 563.928 7.43398C 564.042 7.43398 564.156 7.45781 564.288 7.53008L564.288 7.53008L564.69 7.74609C 564.492 6.83398 563.838 6.23398 562.98 6.08984L562.98 6.08984L563.01 5.91016C 563.16 5.91016 563.526 5.96992 563.85 6.10195C 564.66 6.42617 565.2661 7.20586 565.2661 8.310161C 565.2661 9.12617 564.828 9.810161 564.078 9.810161z" stroke="#000000" stroke-width="0.4" fill="none" /><path id="1398" transform="matrix(1 0 0 -1 0 834)" d="M567.294 9.989841L566.958 9.989841L566.958 9.989841L565.656 5.73594L565.656 5.73594L565.992 5.73594z" stroke="#000000" stroke-width="0.4" fill="none" /><path id="1399" transform="matrix(1 0 0 -1 0 834)" d="M569.9641 6.83984C 569.784 6.46211 569.706 6.43789 569.382 6.43789L569.382 6.43789L568.26 6.43789L568.26 6.43789L569.112 7.33203C 569.664 7.91992 569.904 8.273829 569.904 8.79609C 569.904 9.42617 569.424 9.810161 568.896 9.810161C 568.548 9.810161 568.2661 9.653911 568.086 9.45586L568.086 9.45586L567.744 8.96992L567.744 8.96992L567.876 8.85C 568.032 9.08398 568.284 9.40781 568.692 9.40781C 569.136 9.40781 569.4 9.11406 569.4 8.61016C 569.4 8.09414 569.022 7.60195 568.65 7.15781C 568.35 6.81016 568.014 6.46797 567.678 6.13789L567.678 6.13789L567.678 6L567.678 6L569.9221 6C 569.994 6.26992 570.054 6.53398 570.132 6.78594z" stroke="#000000" stroke-width="0.4" fill="none" /><path id="1400" transform="matrix(1 0 0 -1 0 834)" d="M571.806 9.61211C 572.346 9.61211 572.496 8.72383 572.496 7.871881C 572.496 7.03203 572.352 6.13203 571.812 6.13203C 571.29 6.13203 571.116 7.03789 571.116 7.87813C 571.116 8.712111 571.26 9.61211 571.806 9.61211zM571.812 9.810161C 570.912 9.810161 570.582 8.74219 570.582 7.86602C 570.582 6.91797 570.906 5.92813 571.812 5.92813C 572.712 5.92813 573.03 6.99609 573.03 7.871881C 573.03 8.79609 572.712 9.810161 571.812 9.810161z" stroke="#000000" stroke-width="0.4" fill="none" /><path id="1401" transform="matrix(1 0 0 -1 0 834)" d="M575.556 6L575.556 6.16211C 575.01 6.20391 574.9741 6.25195 574.9741 6.68398L574.9741 6.68398L574.9741 9.810161C 574.644 9.67813 574.29 9.56406 573.906 9.49805L573.906 9.49805L573.906 9.36016L573.906 9.36016L574.194 9.34805C 574.458 9.33594 574.482 9.305861 574.482 8.99414L574.482 8.99414L574.482 6.68398C 574.482 6.25195 574.452 6.20391 573.906 6.16211L573.906 6.16211L573.906 6z" stroke="#000000" stroke-width="0.4" fill="none" /><path id="1402" transform="matrix(1 0 0 -1 0 834)" d="M578.814 9.73789L576.522 9.73789C 576.498 9.48008 576.468 9.180079 576.414 8.85L576.414 8.85L576.588 8.85C 576.732 9.24609 576.768 9.3 577.164 9.3L577.164 9.3L578.46 9.3C 577.986 8.25586 577.308 7.01406 576.678 5.99414L576.678 5.99414L576.72 5.92813L576.72 5.92813L577.164 5.98789C 577.74 7.22383 578.298 8.44805 578.862 9.66602z" stroke="#000000" stroke-width="0.4" fill="none" /><path id="1403" transform="matrix(1 0 0 -1 0 834)" d="M584.531 9.61211C 585.071 9.61211 585.221 8.72383 585.221 7.871881C 585.221 7.03203 585.077 6.13203 584.537 6.13203C 584.015 6.13203 583.841 7.03789 583.841 7.87813C 583.841 8.712111 583.985 9.61211 584.531 9.61211zM584.537 9.810161C 583.637 9.810161 583.307 8.74219 583.307 7.86602C 583.307 6.91797 583.631 5.92813 584.537 5.92813C 585.437 5.92813 585.755 6.99609 585.755 7.871881C 585.755 8.79609 585.437 9.810161 584.537 9.810161z" stroke="#000000" stroke-width="0.4" fill="none" /><path id="1404" transform="matrix(1 0 0 -1 0 834)" d="M588.449 6.83984C 588.269 6.46211 588.191 6.43789 587.867 6.43789L587.867 6.43789L586.7451 6.43789L586.7451 6.43789L587.597 7.33203C 588.149 7.91992 588.389 8.273829 588.389 8.79609C 588.389 9.42617 587.909 9.810161 587.381 9.810161C 587.033 9.810161 586.751 9.653911 586.571 9.45586L586.571 9.45586L586.229 8.96992L586.229 8.96992L586.361 8.85C 586.517 9.08398 586.769 9.40781 587.177 9.40781C 587.621 9.40781 587.885 9.11406 587.885 8.61016C 587.885 8.09414 587.507 7.60195 587.135 7.15781C 586.835 6.81016 586.499 6.46797 586.163 6.13789L586.163 6.13789L586.163 6L586.163 6L588.407 6C 588.479 6.26992 588.539 6.53398 588.617 6.78594z" stroke="#000000" stroke-width="0.4" fill="none" /><path id="1405" transform="matrix(1 0 0 -1 0 834)" d="M589.5471 5.92813C 589.739 5.92813 589.883 6.06602 589.883 6.27617C 589.883 6.46797 589.739 6.61797 589.5471 6.61797C 589.355 6.61797 589.211 6.46797 589.211 6.27617C 589.211 6.06602 589.355 5.92813 589.5471 5.92813zM589.541 8.466021C 589.3491 8.466021 589.211 8.328131 589.211 8.13008C 589.211 7.92617 589.3491 7.78203 589.541 7.78203C 589.733 7.78203 589.877 7.92617 589.877 8.13008C 589.877 8.328131 589.733 8.466021 589.541 8.466021z" stroke="#000000" stroke-width="0.4" fill="none" /><path id="1406" transform="matrix(1 0 0 -1 0 834)" d="M591.137 9.3L592.535 9.3L592.535 9.3L592.691 9.68984L592.691 9.68984L592.655 9.73789L592.655 9.73789L590.945 9.73789L590.945 9.73789L590.711 7.90781C 590.8491 7.96211 591.077 8.028131 591.329 8.028131C 591.983 8.028131 592.307 7.65 592.307 7.121881C 592.307 6.67188 592.055 6.23398 591.545 6.23398C 591.179 6.23398 590.933 6.42617 590.807 6.53984C 590.747 6.58789 590.699 6.58203 590.645 6.53984C 590.579 6.48008 590.525 6.40195 590.519 6.34219C 590.507 6.26992 590.537 6.22188 590.615 6.13789C 590.705 6.05391 590.957 5.92813 591.233 5.92813C 591.551 5.93398 591.953 6.08984 592.277 6.35391C 592.643 6.65391 592.811 6.99609 592.811 7.35586C 592.811 7.84805 592.421 8.369921 591.653 8.369921C 591.491 8.369921 591.209 8.273829 590.981 8.18984z" stroke="#000000" stroke-width="0.4" fill="none" /><path id="1407" transform="matrix(1 0 0 -1 0 834)" d="M594.785 7.35L593.603 7.35C 593.999 8.016021 594.389 8.58594 594.773 9.119921L594.773 9.119921L594.785 9.119921zM595.841 7.06797L595.841 7.35L595.841 7.35L595.265 7.35L595.265 7.35L595.265 9.79219L595.265 9.79219L595.025 9.79219C 594.407 8.976171 593.795 8.08789 593.225 7.23594L593.225 7.23594L593.225 7.06797L593.225 7.06797L594.785 7.06797L594.785 7.06797L594.785 6.63594C 594.785 6.23984 594.761 6.20391 594.239 6.16211L594.239 6.16211L594.239 6L594.239 6L595.775 6L595.775 6L595.775 6.16211C 595.289 6.20391 595.265 6.23398 595.265 6.63594L595.265 6.63594L595.265 7.06797z" stroke="#000000" stroke-width="0.4" fill="none" /><path id="1408" transform="matrix(1 0 0 -1 0 834)" d="M596.675 5.92813C 596.867 5.92813 597.011 6.06602 597.011 6.27617C 597.011 6.46797 596.867 6.61797 596.675 6.61797C 596.483 6.61797 596.3391 6.46797 596.3391 6.27617C 596.3391 6.06602 596.483 5.92813 596.675 5.92813zM596.669 8.466021C 596.477 8.466021 596.3391 8.328131 596.3391 8.13008C 596.3391 7.92617 596.477 7.78203 596.669 7.78203C 596.861 7.78203 597.005 7.92617 597.005 8.13008C 597.005 8.328131 596.861 8.466021 596.669 8.466021z" stroke="#000000" stroke-width="0.4" fill="none" /><path id="1409" transform="matrix(1 0 0 -1 0 834)" d="M598.787 9.61211C 599.327 9.61211 599.477 8.72383 599.477 7.871881C 599.477 7.03203 599.333 6.13203 598.793 6.13203C 598.271 6.13203 598.097 7.03789 598.097 7.87813C 598.097 8.712111 598.241 9.61211 598.787 9.61211zM598.793 9.810161C 597.893 9.810161 597.563 8.74219 597.563 7.86602C 597.563 6.91797 597.887 5.92813 598.793 5.92813C 599.6931 5.92813 600.011 6.99609 600.011 7.871881C 600.011 8.79609 599.6931 9.810161 598.793 9.810161z" stroke="#000000" stroke-width="0.4" fill="none" /><path id="1410" transform="matrix(1 0 0 -1 0 834)" d="M602.537 6L602.537 6.16211C 601.991 6.20391 601.955 6.25195 601.955 6.68398L601.955 6.68398L601.955 9.810161C 601.625 9.67813 601.271 9.56406 600.887 9.49805L600.887 9.49805L600.887 9.36016L600.887 9.36016L601.175 9.34805C 601.439 9.33594 601.463 9.305861 601.463 8.99414L601.463 8.99414L601.463 6.68398C 601.463 6.25195 601.433 6.20391 600.887 6.16211L600.887 6.16211L600.887 6z" stroke="#000000" stroke-width="0.4" fill="none" /><path id="1411" transform="matrix(1 0 0 -1 0 834)" d="M605.489 8.08203C 605.651 8.20195 605.897 8.33398 606.0891 8.33398C 606.527 8.33398 606.893 7.97383 606.893 7.33203C 606.893 6.65391 606.557 6.22188 606.053 6.22188C 605.8491 6.22188 605.621 6.31797 605.489 6.45586zM605.489 8.28008L605.489 8.75391C 605.207 8.63984 604.871 8.53789 604.619 8.49609L604.619 8.49609L604.619 8.351951C 604.991 8.30391 605.015 8.29219 605.015 7.90195L605.015 7.90195L605.015 5.18984C 605.015 4.79414 604.961 4.75781 604.577 4.72188L604.577 4.72188L604.577 4.56016L604.577 4.56016L605.999 4.56016L605.999 4.56016L605.999 4.72188C 605.531 4.76406 605.489 4.79414 605.489 5.25L605.489 5.25L605.489 6.03594C 605.567 5.99414 605.729 5.93398 605.903 5.92813C 606.683 6.07188 607.397 6.65391 607.397 7.56016C 607.397 8.153911 607.001 8.69414 606.335 8.69414C 606.263 8.69414 606.149 8.664061 606.041 8.60391z" stroke="#000000" stroke-width="0.4" fill="none" /><path id="1412" transform="matrix(1 0 0 -1 0 834)" d="M608.303 5.92813C 608.4951 5.92813 608.639 6.06602 608.639 6.27617C 608.639 6.46797 608.4951 6.61797 608.303 6.61797C 608.111 6.61797 607.967 6.46797 607.967 6.27617C 607.967 6.06602 608.111 5.92813 608.303 5.92813z" stroke="#000000" stroke-width="0.4" fill="none" /><path id="1413" transform="matrix(1 0 0 -1 0 834)" d="M615.125 6L615.125 6.15586C 614.783 6.19219 614.735 6.21602 614.735 6.61797L614.735 6.61797L614.735 7.77617C 614.735 8.36406 614.441 8.69414 613.973 8.69414C 613.805 8.69414 613.649 8.621881 613.523 8.53789C 613.373 8.44805 613.199 8.33398 613.025 8.20195C 612.905 8.51406 612.647 8.69414 612.359 8.69414C 612.167 8.69414 612.023 8.628131 611.867 8.53203C 611.687 8.417971 611.555 8.310161 611.429 8.226171L611.429 8.226171L611.429 8.712111C 611.165 8.59219 610.859 8.51406 610.595 8.466021L610.595 8.466021L610.595 8.328131C 610.9431 8.273829 610.961 8.24414 610.961 7.86016L610.961 7.86016L610.961 6.61797C 610.961 6.22813 610.907 6.19219 610.511 6.15586L610.511 6.15586L610.511 6L610.511 6L611.777 6L611.777 6L611.777 6.15586C 611.483 6.19219 611.435 6.22813 611.435 6.61797L611.435 6.61797L611.435 8.028131C 611.615 8.17813 611.8491 8.33984 612.0891 8.33984C 612.455 8.33984 612.611 8.09414 612.611 7.65L612.611 7.65L612.611 6.61797C 612.611 6.22188 612.557 6.19219 612.185 6.15586L612.185 6.15586L612.185 6L612.185 6L613.469 6L613.469 6L613.469 6.15586C 613.139 6.19219 613.085 6.22813 613.085 6.60586L613.085 6.60586L613.085 7.77617C 613.085 7.88984 613.079 7.95586 613.067 8.028131C 613.295 8.21992 613.523 8.33984 613.739 8.33984C 614.117 8.33984 614.267 8.069921 614.267 7.64414L614.267 7.64414L614.267 6.64219C 614.267 6.21602 614.201 6.19219 613.847 6.15586L613.847 6.15586L613.847 6z" stroke="#000000" stroke-width="0.4" fill="none" /><path id="1414" transform="matrix(1 0 0 -1 0 834)" d="M615.947 5.92813C 616.139 5.92813 616.283 6.06602 616.283 6.27617C 616.283 6.46797 616.139 6.61797 615.947 6.61797C 615.755 6.61797 615.611 6.46797 615.611 6.27617C 615.611 6.06602 615.755 5.92813 615.947 5.92813z" stroke="#000000" stroke-width="0.4" fill="none" /></g></g></svg>