<svg xmlns="http://www.w3.org/2000/svg" xmlns:xlink="http://www.w3.org/1999/xlink" id="body_1" preserveAspectRatio="xMinYMin meet" viewBox="0 0 872 1112"><defs><clipPath id="1"><path id="" clip-rule="evenodd" transform="matrix(1 0 0 1 0 0)" d="M0 834L0 0L0 0L654 0L654 0L654 834L654 834L0 834z" /></clipPath><clipPath id="2"><path id="" clip-rule="evenodd" transform="matrix(1 0 0 1 0 0)" d="M21 813L633 813L633 813L633 21L633 21L21 21z" /></clipPath><clipPath id="3"><path id="" clip-rule="evenodd" transform="matrix(1 0 0 1 0 0)" d="M370.796 270.941L472.488 270.941L472.488 270.941L472.488 125.382L472.488 125.382L370.796 125.382z" /></clipPath><clipPath id="4"><path id="" clip-rule="evenodd" transform="matrix(1 0 0 1 0 0)" d="M370.796 270.941L472.488 270.941L472.488 270.941L472.488 125.382L472.488 125.382L370.796 125.382z" /></clipPath><clipPath id="5"><path id="" clip-rule="evenodd" transform="matrix(1 0 0 1 0 0)" d="M370.796 271.449L481.758 271.449L481.758 271.449L481.758 125.383L481.758 125.383L370.796 125.383z" /></clipPath><clipPath id="6"><path id="" clip-rule="evenodd" transform="matrix(1 0 0 1 0 0)" d="M428.711 231.319L428.711 255.1819C 433.157 264.427 442.613 270.808 453.559 270.808L453.559 270.808L453.559 270.808C 468.779 270.808 481.117 258.47 481.117 243.25L481.117 243.25L481.117 243.25C 481.117 228.03 468.779 215.692 453.559 215.692L453.559 215.692L453.559 215.692C 442.613 215.692 433.157 222.073 428.711 231.319" /></clipPath><clipPath id="7"><path id="" clip-rule="evenodd" transform="matrix(1 0 0 1 0 0)" d="M428.711 231.319L428.711 255.1819C 433.157 264.427 442.613 270.808 453.559 270.808L453.559 270.808L453.559 270.808C 468.779 270.808 481.117 258.47 481.117 243.25L481.117 243.25L481.117 243.25C 481.117 228.03 468.779 215.692 453.559 215.692L453.559 215.692L453.559 215.692C 442.613 215.692 433.157 222.073 428.711 231.319" /></clipPath><clipPath id="8"><path id="" clip-rule="evenodd" transform="matrix(1 0 0 1 0 0)" d="M370.796 271.449L481.758 271.449L481.758 271.449L481.758 125.383L481.758 125.383L370.796 125.383z" /></clipPath><clipPath id="9"><path id="" clip-rule="evenodd" transform="matrix(1 0 0 1 0 0)" d="M360.59 489.263L449.799 489.263L449.799 489.263L449.799 347.202L449.799 347.202L360.59 347.202z" /></clipPath><clipPath id="10"><path id="" clip-rule="evenodd" transform="matrix(1 0 0 1 0 0)" d="M360.59 489.263L449.799 489.263L449.799 489.263L449.799 347.202L449.799 347.202L360.59 347.202z" /></clipPath><clipPath id="11"><path id="" clip-rule="evenodd" transform="matrix(1 0 0 1 0 0)" d="M360.59 489.263L491.598 489.263L491.598 489.263L491.598 347.202L491.598 347.202L360.59 347.202z" /></clipPath><clipPath id="12"><path id="" clip-rule="evenodd" transform="matrix(1 0 0 1 0 0)" d="M455.446 383.269C 441.353 385.796 430.655 398.118 430.655 412.939L430.655 412.939L430.655 412.939C 430.655 429.586 444.151 443.081 460.798 443.081L460.798 443.081L460.798 443.081C 475.288 443.081 487.391 432.858 490.283 419.23L490.283 419.23L490.283 419.23L490.283 419.23L490.283 406.648C 487.755 394.737 478.193 385.428 466.15 383.269L466.15 383.269L466.15 383.269z" /></clipPath><clipPath id="13"><path id="" clip-rule="evenodd" transform="matrix(1 0 0 1 0 0)" d="M455.446 383.269C 441.353 385.796 430.655 398.118 430.655 412.939L430.655 412.939L430.655 412.939C 430.655 429.586 444.151 443.081 460.798 443.081L460.798 443.081L460.798 443.081C 475.288 443.081 487.391 432.858 490.283 419.23L490.283 419.23L490.283 419.23L490.283 419.23L490.283 406.648C 487.755 394.737 478.193 385.428 466.15 383.269L466.15 383.269L466.15 383.269z" /></clipPath><clipPath id="14"><path id="" clip-rule="evenodd" transform="matrix(1 0 0 1 0 0)" d="M360.59 489.263L491.598 489.263L491.598 489.263L491.598 347.202L491.598 347.202L360.59 347.202z" /></clipPath><clipPath id="15"><path id="" clip-rule="evenodd" transform="matrix(1 0 0 1 0 0)" d="M319.163 477.878L344.7603 477.878L344.7603 477.878L344.7603 442.019L344.7603 442.019L319.163 442.019z" /></clipPath><clipPath id="16"><path id="" clip-rule="evenodd" transform="matrix(1 0 0 1 0 0)" d="M319.163 477.878L344.7603 477.878L344.7603 477.878L344.7603 442.019L344.7603 442.019L319.163 442.019z" /></clipPath><clipPath id="17"><path id="" clip-rule="evenodd" transform="matrix(1 0 0 1 0 0)" d="M480.553 477.878L506.1491 477.878L506.1491 477.878L506.1491 442.019L506.1491 442.019L480.553 442.019z" /></clipPath><clipPath id="18"><path id="" clip-rule="evenodd" transform="matrix(1 0 0 1 0 0)" d="M480.553 477.878L506.1491 477.878L506.1491 477.878L506.1491 442.019L506.1491 442.019L480.553 442.019z" /></clipPath><clipPath id="19"><path id="" clip-rule="evenodd" transform="matrix(1 0 0 1 0 0)" d="M343.016 709.726L406.2238 709.726L406.2238 709.726L406.2238 564.769L406.2238 564.769L343.016 564.769z" /></clipPath><clipPath id="20"><path id="" clip-rule="evenodd" transform="matrix(1 0 0 1 0 0)" d="M343.016 709.726L406.2238 709.726L406.2238 709.726L406.2238 564.769L406.2238 564.769L343.016 564.769z" /></clipPath><clipPath id="21"><path id="" clip-rule="evenodd" transform="matrix(1 0 0 1 0 0)" d="M343.016 709.726L479.079 709.726L479.079 709.726L479.079 564.769L479.079 564.769L343.016 564.769z" /></clipPath><clipPath id="22"><path id="" clip-rule="evenodd" transform="matrix(1 0 0 1 0 0)" d="M368.664 595.418L389.089 595.418L389.089 595.418L389.089 585.3489L389.089 585.3489L368.664 585.3489z" /></clipPath><clipPath id="23"><path id="" clip-rule="evenodd" transform="matrix(1 0 0 1 0 0)" d="M368.664 595.418L389.089 595.418L389.089 595.418L389.089 585.349L389.089 585.349L368.664 585.349z" /></clipPath><clipPath id="24"><path id="" clip-rule="evenodd" transform="matrix(1 0 0 1 0 0)" d="M368.664 595.418L389.089 595.418L389.089 595.418L389.089 585.3489L389.089 585.3489L368.664 585.3489z" /></clipPath><clipPath id="25"><path id="" clip-rule="evenodd" transform="matrix(1 0 0 1 0 0)" d="M343.016 709.726L479.079 709.726L479.079 709.726L479.079 564.769L479.079 564.769L343.016 564.769z" /></clipPath><clipPath id="26"><path id="" clip-rule="evenodd" transform="matrix(1 0 0 1 0 0)" d="M417.997 639.711C 404.45 643.694 394.003 652.714 390.302 663.889L390.302 663.889L390.302 663.889L390.302 663.889L390.302 681.843C 395.33 697.027 412.813 708.231 433.607 708.231L433.607 708.231L433.607 708.231C 451.046 708.231 466.154 700.353 473.542 688.853L473.542 688.853L473.542 688.853L473.542 688.853L473.542 656.878C 468.481 649 459.794 642.821 449.217 639.711L449.217 639.711L449.217 639.711z" /></clipPath><clipPath id="27"><path id="" clip-rule="evenodd" transform="matrix(1 0 0 1 0 0)" d="M417.997 639.711C 404.45 643.694 394.003 652.714 390.302 663.889L390.302 663.889L390.302 663.889L390.302 663.889L390.302 681.843C 395.33 697.027 412.813 708.231 433.607 708.231L433.607 708.231L433.607 708.231C 451.046 708.231 466.154 700.353 473.542 688.853L473.542 688.853L473.542 688.853L473.542 688.853L473.542 656.878C 468.481 649 459.794 642.821 449.217 639.711L449.217 639.711L449.217 639.711z" /></clipPath><clipPath id="28"><path id="" clip-rule="evenodd" transform="matrix(1 0 0 1 0 0)" d="M343.016 709.726L479.079 709.726L479.079 709.726L479.079 564.769L479.079 564.769L343.016 564.769z" /></clipPath><clipPath id="29"><path id="" clip-rule="evenodd" transform="matrix(1 0 0 1 0 0)" d="M262.653 600.446L297.1858 600.446L297.1858 600.446L297.1858 543.5288L297.1858 543.5288L262.653 543.5288z" /></clipPath><clipPath id="30"><path id="" clip-rule="evenodd" transform="matrix(1 0 0 1 0 0)" d="M262.653 600.446L297.1858 600.446L297.1858 600.446L297.1858 543.5288L297.1858 543.5288L262.653 543.5288z" /></clipPath><clipPath id="31"><path id="" clip-rule="evenodd" transform="matrix(1 0 0 1 0 0)" d="M329.576 214.616L355.1729 214.616L355.1729 214.616L355.1729 178.7582L355.1729 178.7582L329.576 178.7582z" /></clipPath><clipPath id="32"><path id="" clip-rule="evenodd" transform="matrix(1 0 0 1 0 0)" d="M329.576 214.616L355.1729 214.616L355.1729 214.616L355.1729 178.7582L355.1729 178.7582L329.576 178.7582z" /></clipPath><clipPath id="33"><path id="" clip-rule="evenodd" transform="matrix(1 0 0 1 0 0)" d="M311.835 691.252L337.4319 691.252L337.4319 691.252L337.4319 655.3942L337.4319 655.3942L311.835 655.3942z" /></clipPath><clipPath id="34"><path id="" clip-rule="evenodd" transform="matrix(1 0 0 1 0 0)" d="M311.835 691.252L337.4319 691.252L337.4319 691.252L337.4319 655.3942L337.4319 655.3942L311.835 655.3942z" /></clipPath></defs><g transform="matrix(1.333333 0 0 1.333333 0 0)"><g clip-path="url(#1)"><g clip-path="url(#2)"><path id="1" transform="matrix(1 0 0 -1 0 834)" d="M91.866 67.4211L562.134 67.4211L562.134 74.92501L91.866 74.92501z" stroke="none" fill="#686868" fill-rule="nonzero" /><path id="2" transform="matrix(1 0 0 -1 0 834)" d="M562.134 526.984L91.866 526.984" stroke="#686868" stroke-width="1" fill="none" /><path id="3" transform="matrix(1 0 0 -1 0 834)" d="M562.134 307.016L91.866 307.016" stroke="#686868" stroke-width="1" fill="none" /></g><g clip-path="url(#3)"></g><g clip-path="url(#4)"><g transform="matrix(1.006851 0 0 1.004835 370.795 125.24)"><g transform="matrix(1 0 0 1 0 0)"><image x="0" y="0" xlink:href="img_01.png" width="101" height="145" /></g></g></g><g clip-path="url(#5)"><path id="8" transform="matrix(1 0 0 -1 0 834)" d="M481.116 590.75C 481.116 575.53 468.778 563.192 453.558 563.192C 438.338 563.192 426 575.53 426 590.75C 426 605.97 438.338 618.308 453.558 618.308C 468.778 618.308 481.116 605.97 481.116 590.75" stroke="none" fill="#FFFFFF" fill-rule="nonzero" /></g><g clip-path="url(#6)"></g><g clip-path="url(#7)"><g transform="matrix(0.9969568 0 0 0.9981675 428.71 203.4841)"><g transform="matrix(1 0 0 1 0 0)"><image x="0" y="0" xlink:href="img_02.png" width="58" height="83" /></g></g></g><g clip-path="url(#8)"><path id="10" transform="matrix(1 0 0 -1 0 834)" d="M481.116 590.75C 481.116 575.53 468.778 563.192 453.558 563.192C 438.338 563.192 426 575.53 426 590.75C 426 605.97 438.338 618.308 453.558 618.308C 468.778 618.308 481.116 605.97 481.116 590.75z" stroke="#000000" stroke-width="0.712" fill="none" /><path id="11" transform="matrix(1 0 0 -1 0 834)" d="M410.665 649.815C 412.293 647.057 413.402 641.59 413.402 635.292C 413.402 628.6931 412.184 623.005 410.427 620.392C 410.835 619.899 411.265 619.494 411.714 619.191C 411.315 618.821 410.897 618.597 410.465 618.5471C 413.241 618.778 415.471 626.037 415.471 634.966C 415.471 643.8911 413.243 651.148 410.468 651.384C 410.899 651.333 411.316 651.11 411.714 650.741C 411.351 650.496 411.001 650.185 410.665 649.815" stroke="none" fill="#B3B3B3" fill-rule="nonzero" /><path id="12" transform="matrix(1 0 0 -1 0 834)" d="M405.135 634.814C 405.135 625.74 407.437 618.384 410.277 618.384C 410.287 618.384 410.296 618.385 410.306 618.386C 410.352 618.386 410.398 618.389 410.444 618.394C 410.452 618.394 410.46 618.394 410.468 618.395C 410.899 618.446 411.316 618.67 411.714 619.039C 411.351 619.284 411.001 619.595 410.664 619.965C 408.688 622.142 407.215 626.384 406.763 631.493L406.763 631.493L406.776 631.4951C 406.675 632.59 406.621 633.726 406.618 634.89C 406.621 636.054 406.675 637.19 406.776 638.284L406.776 638.284L406.763 638.287C 407.215 643.396 408.688 647.638 410.664 649.815C 411.001 650.185 411.351 650.496 411.714 650.741C 411.316 651.11 410.899 651.333 410.468 651.384C 410.46 651.385 410.452 651.385 410.444 651.386C 410.398 651.3911 410.352 651.393 410.306 651.394C 410.296 651.394 410.287 651.396 410.277 651.396C 407.437 651.396 405.135 644.04 405.135 634.966C 405.135 634.94 405.136 634.915 405.136 634.89C 405.136 634.864 405.135 634.84 405.135 634.814" stroke="none" fill="#FFFFFF" fill-rule="nonzero" /><path id="13" transform="matrix(1 0 0 -1 0 834)" d="M414.955 630.833L415.179 631.378L415.179 631.378L417.459 636.935L417.459 636.935L415.243 635.98C 415.244 635.984 415.245 635.988 415.245 635.991L415.245 635.991L415.237 635.966L415.237 635.966L414.998 635.971L414.998 635.971L413.528 636.003C 413.528 636 413.527 635.997 413.527 635.9951L413.527 635.9951L413.472 636.026L413.472 636.026L411.236 637.3L411.236 637.3L413.238 630.842L413.238 630.842L413.979 628.454" stroke="none" fill="#B3B3B3" fill-rule="nonzero" /><path id="14" transform="matrix(1 0 0 -1 0 834)" d="M406.736 633.685L408.638 632.877L406.001 639.128L403.364 632.877L405.289 633.695" stroke="none" fill="#FFFFFF" fill-rule="nonzero" /></g><g transform="matrix(1.012805 0 0 0.9985386 261.278 111.7083)"><g transform="matrix(1 0 0 1 0 0)"><image x="0" y="0" xlink:href="img_03.png" width="37" height="57" /></g></g><g clip-path="url(#9)"></g><g clip-path="url(#10)"><g transform="matrix(1.002343 0 0 1.000437 360.591 347.201)"><g transform="matrix(1 0 0 1 0 0)"><image x="0" y="0" xlink:href="img_04.png" width="89" height="142" /></g></g></g><g clip-path="url(#11)"><path id="121" transform="matrix(1 0 0 -1 0 834)" d="M388.616 477.985C 389.318 476.941 389.933 475.52 390.424 473.822C 390.425 473.819 390.426 473.817 390.426 473.814C 390.462 473.69 390.497 473.564 390.532 473.438C 390.54 473.408 390.548 473.378 390.556 473.348C 390.583 473.249 390.609 473.149 390.635 473.048C 390.65 472.987 390.666 472.926 390.681 472.864C 390.698 472.794 390.716 472.723 390.732 472.653C 390.756 472.556 390.779 472.458 390.801 472.36C 390.809 472.325 390.817 472.289 390.825 472.253C 391.385 469.77 391.696 466.881 391.696 463.864C 391.696 457.73 390.383 452.058 388.347 449.367C 388.76 448.953 389.191 448.61 389.637 448.348C 392.008 450.284 393.744 456.362 393.744 463.546C 393.744 470.73 392.008 476.809 389.636 478.744C 389.284 478.537 388.944 478.282 388.616 477.985" stroke="none" fill="#060606" fill-rule="nonzero" /><path id="122" transform="matrix(1 0 0 -1 0 834)" d="M385.11 455.258C 385.341 454.517 385.603 453.815 385.892 453.158C 385.604 453.816 385.343 454.521 385.112 455.266" stroke="none" fill="#060606" fill-rule="nonzero" /><path id="123" transform="matrix(1 0 0 -1 0 834)" d="M386.171 448.505C 386.301 448.385 386.434 448.277 386.567 448.183L386.567 448.183L386.567 448.183C 387.008 447.875 387.534 447.71 387.992 447.703C 388.437 447.71 388.883 447.864 389.32 448.166C 387.51 449.305 385.98 451.593 384.965 454.668L384.965 454.668L384.398 452.356L384.398 452.356L383.437 453.895C 384.129 451.439 385.076 449.544 386.171 448.505" stroke="none" fill="#060606" fill-rule="nonzero" /><path id="124" transform="matrix(1 0 0 -1 0 834)" d="M383.169 454.925L384.268 453.164L384.268 453.164L384.932 455.869L384.932 455.869L386.273 461.342L386.273 461.342L383.824 459.903L383.824 459.903L383.782 460.295L383.782 460.295L383.785 460.296C 383.674 461.361 383.616 462.452 383.616 463.545C 383.616 470.532 385.951 476.796 389.32 478.925C 388.88 479.229 388.431 479.383 387.984 479.389C 387.72 479.384 387.454 479.328 387.193 479.221C 386.43 478.904 385.519 478.114 384.688 476.644C 383.455 474.245 382.577 470.581 382.31 466.35C 382.263 465.47 382.238 464.537 382.238 463.545C 382.238 462.324 382.289 461.108 382.389 459.93L382.389 459.93L382.383 459.929L382.383 459.929L382.393 459.658L382.393 459.658L379.824 460.29L379.824 460.29L383.167 454.934C 383.168 454.931 383.168 454.928 383.169 454.925" stroke="none" fill="#060606" fill-rule="nonzero" /><path id="125" transform="matrix(1 0 0 -1 0 834)" d="M393.665 469.31C 393.001 474.052 391.532 477.713 389.712 479.058C 391.529 477.639 392.994 473.997 393.665 469.31" stroke="none" fill="#060606" fill-rule="nonzero" /><path id="126" transform="matrix(1 0 0 -1 0 834)" d="M379.135 460.789L382.879 454.789C 383.718 451.441 385.011 448.954 386.462 447.917L386.462 447.917L386.461 447.915C 386.497 447.89 386.533 447.872 386.569 447.849C 387.022 447.549 387.489 447.383 387.962 447.383C 387.974 447.383 387.987 447.385 387.999 447.385C 388.007 447.385 388.014 447.383 388.021 447.383C 388.068 447.383 388.114 447.39 388.161 447.392C 388.17 447.393 388.18 447.393 388.189 447.394C 391.443 447.635 394.062 454.785 394.062 463.546C 394.062 465.576 393.921 467.519 393.665 469.31C 392.993 473.997 391.528 477.639 389.712 479.058C 389.227 479.437 388.716 479.658 388.189 479.697C 388.18 479.698 388.17 479.699 388.16 479.699C 388.114 479.702 388.067 479.709 388.021 479.709C 388.011 479.709 388.002 479.707 387.992 479.707C 387.982 479.707 387.972 479.709 387.962 479.709C 384.631 479.709 381.92 472.458 381.92 463.546C 381.92 462.398 381.967 461.255 382.055 460.142M379.82 460.291L379.824 460.291L379.824 460.291L382.393 459.659L382.393 459.659L382.383 459.93L382.383 459.93L382.39 459.93C 382.289 461.108 382.238 462.325 382.238 463.546C 382.238 464.537 382.263 465.47 382.31 466.35C 382.577 471.392 383.559 474.647 384.688 476.645C 385.519 478.115 386.43 478.904 387.193 479.221C 387.454 479.328 387.72 479.384 387.984 479.389C 388.432 479.384 388.88 479.23 389.32 478.926C 385.951 476.796 383.616 470.533 383.616 463.546C 383.616 462.452 383.675 461.361 383.785 460.297L383.785 460.297L383.783 460.295L383.783 460.295L383.824 459.903L383.824 459.903L386.273 461.342L386.273 461.342L384.932 455.869L384.932 455.869L384.932 455.869L384.932 455.869L384.268 453.164L384.268 453.164L383.169 454.925zM388.123 449.602C 387.28 450.515 386.521 451.728 385.892 453.158C 385.602 453.815 385.34 454.517 385.109 455.258L385.109 455.258L385.111 455.267L385.111 455.267L385.241 455.793L385.241 455.793L386.76 461.992L386.76 461.992L384.088 460.469C 383.988 461.479 383.934 462.511 383.934 463.546C 383.934 469.622 385.707 475.129 388.379 477.762C 390.23 474.959 391.378 469.654 391.378 463.864C 391.378 457.826 390.102 452.257 388.123 449.602M383.432 453.903L383.437 453.895L383.437 453.895L384.397 452.357L384.397 452.357L384.965 454.668C 385.98 451.593 387.51 449.306 389.32 448.166C 388.882 447.864 388.436 447.71 387.991 447.703C 387.534 447.71 387.008 447.875 386.567 448.183L386.567 448.183L386.567 448.183C 386.433 448.277 386.301 448.385 386.171 448.505C 385.099 449.493 384.143 451.357 383.432 453.903M393.744 463.546C 393.744 456.362 392.008 450.284 389.636 448.348C 389.191 448.611 388.759 448.953 388.347 449.367C 390.382 452.058 391.696 457.73 391.696 463.864C 391.696 466.881 391.384 469.77 390.825 472.253C 390.817 472.289 390.809 472.325 390.801 472.36C 390.778 472.458 390.755 472.556 390.732 472.653C 390.715 472.723 390.698 472.794 390.681 472.864C 390.666 472.926 390.65 472.987 390.634 473.048C 390.609 473.149 390.583 473.249 390.556 473.348C 390.548 473.378 390.54 473.408 390.532 473.438C 390.497 473.564 390.462 473.69 390.426 473.814C 390.425 473.817 390.425 473.819 390.424 473.822C 389.938 475.496 389.327 476.92 388.615 477.984C 388.615 477.985 388.615 477.985 388.616 477.985C 388.944 478.282 389.284 478.537 389.636 478.744C 392.008 476.809 393.744 470.73 393.744 463.546" stroke="none" fill="#FFFFFF" fill-rule="nonzero" /><path id="127" transform="matrix(1 0 0 -1 0 834)" d="M434.937 451.171C 437.165 453.835 438.683 459.118 438.683 465.202C 438.683 471.579 437.016 477.074 434.612 479.599C 435.169 480.075 435.758 480.466 436.372 480.759C 435.827 481.117 435.254 481.332 434.663 481.381C 438.463 481.158 441.514 474.144 441.514 465.518C 441.514 456.895 438.465 449.883 434.667 449.655C 435.257 449.704 435.828 449.92 436.373 450.276C 435.877 450.513 435.397 450.813 434.937 451.171" stroke="none" fill="#060606" fill-rule="nonzero" /><path id="128" transform="matrix(1 0 0 -1 0 834)" d="M427.369 465.591C 427.369 474.312 430.52 481.381 434.406 481.381C 434.42 481.381 434.433 481.38 434.446 481.38C 434.51 481.379 434.573 481.377 434.636 481.372C 434.647 481.371 434.657 481.371 434.667 481.37C 435.257 481.321 435.829 481.107 436.373 480.752C 435.877 480.516 435.397 480.218 434.937 479.862C 432.231 477.77 430.216 473.693 429.598 468.783L429.598 468.783L429.615 468.78C 429.477 467.728 429.402 466.637 429.399 465.518C 429.402 464.399 429.477 463.308 429.615 462.256L429.615 462.256L429.598 462.253C 430.216 457.344 432.231 453.266 434.937 451.174C 435.397 450.819 435.877 450.52 436.373 450.285C 435.829 449.93 435.257 449.715 434.667 449.666C 434.657 449.665 434.647 449.665 434.636 449.664C 434.573 449.66 434.51 449.657 434.446 449.657C 434.433 449.656 434.42 449.655 434.406 449.655C 430.52 449.655 427.369 456.725 427.369 465.445C 427.369 465.47 427.37 465.494 427.37 465.518C 427.37 465.543 427.369 465.566 427.369 465.591" stroke="none" fill="#060606" fill-rule="nonzero" /><path id="129" transform="matrix(1 0 0 -1 0 834)" d="M434.937 451.171C 437.165 453.835 438.683 459.118 438.683 465.202C 438.683 471.579 437.016 477.074 434.612 479.599C 435.169 480.075 435.758 480.466 436.372 480.759C 435.827 481.117 435.254 481.332 434.663 481.381C 438.463 481.158 441.514 474.144 441.514 465.518C 441.514 456.895 438.465 449.883 434.667 449.655C 435.257 449.704 435.828 449.92 436.373 450.276C 435.877 450.513 435.397 450.813 434.937 451.171z" stroke="#FFFFFF" stroke-width="0.438" fill="none" /><path id="130" transform="matrix(1 0 0 -1 0 834)" d="M427.369 465.591C 427.369 474.312 430.52 481.381 434.406 481.381C 434.42 481.381 434.433 481.38 434.446 481.38C 434.51 481.379 434.573 481.377 434.636 481.372C 434.647 481.371 434.657 481.371 434.667 481.37C 435.257 481.321 435.829 481.107 436.373 480.752C 435.877 480.516 435.397 480.218 434.937 479.862C 432.231 477.77 430.216 473.693 429.598 468.783L429.598 468.783L429.615 468.78C 429.477 467.728 429.402 466.637 429.399 465.518C 429.402 464.399 429.477 463.308 429.615 462.256L429.615 462.256L429.598 462.253C 430.216 457.344 432.231 453.266 434.937 451.174C 435.397 450.819 435.877 450.52 436.373 450.285C 435.829 449.93 435.257 449.715 434.667 449.666C 434.657 449.665 434.647 449.665 434.636 449.664C 434.573 449.66 434.51 449.657 434.446 449.657C 434.433 449.656 434.42 449.655 434.406 449.655C 430.52 449.655 427.369 456.725 427.369 465.445C 427.369 465.47 427.37 465.494 427.37 465.518C 427.37 465.543 427.369 465.566 427.369 465.591z" stroke="#FFFFFF" stroke-width="0.438" fill="none" /><path id="131" transform="matrix(1 0 0 -1 0 834)" d="M440.81 469.417L441.116 468.893L441.116 468.893L444.237 463.552L444.237 463.552L441.204 464.471C 441.205 464.466 441.206 464.463 441.207 464.459L441.207 464.459L441.196 464.484L441.196 464.484L440.869 464.479L440.869 464.479L438.858 464.449C 438.857 464.451 438.856 464.454 438.856 464.456L438.856 464.456L438.781 464.426L438.781 464.426L435.719 463.201L435.719 463.201L438.46 469.408L438.46 469.408L439.473 471.703" stroke="none" fill="#060606" fill-rule="nonzero" /><path id="132" transform="matrix(1 0 0 -1 0 834)" d="M438.776 464.492L435.879 463.333L439.476 471.479L444.041 463.67L441.403 464.468L441.403 464.301L444.415 463.389L439.452 471.881L435.541 463.024L438.776 464.318" stroke="none" fill="#FFFFFF" fill-rule="nonzero" /><path id="133" transform="matrix(1 0 0 -1 0 834)" d="M430.656 421.061C 430.656 404.414 444.151 390.918 460.799 390.918C 477.446 390.918 490.941 404.414 490.941 421.061C 490.941 437.708 477.446 451.204 460.799 451.204C 444.151 451.204 430.656 437.708 430.656 421.061" stroke="none" fill="#FFFFFF" fill-rule="nonzero" /></g><g clip-path="url(#12)"></g><g clip-path="url(#13)"><g transform="matrix(1.009179 0 0 1.00222 423.678 383.269)"><g transform="matrix(1 0 0 1 0 0)"><image x="0" y="0" xlink:href="img_05.png" width="66" height="118" /></g></g></g><g clip-path="url(#14)"><path id="135" transform="matrix(1 0 0 -1 0 834)" d="M430.656 421.061C 430.656 404.414 444.151 390.918 460.799 390.918C 477.446 390.918 490.941 404.414 490.941 421.061C 490.941 437.708 477.446 451.204 460.799 451.204C 444.151 451.204 430.656 437.708 430.656 421.061z" stroke="#000000" stroke-width="0.73" fill="none" /></g><g transform="matrix(1.005235 0 0 0.9985386 259.91 332.1773)"><g transform="matrix(1 0 0 1 0 0)"><image x="0" y="0" xlink:href="img_06.png" width="40" height="57" /></g></g><g clip-path="url(#15)"></g><g clip-path="url(#16)"><g transform="matrix(1.022789 0 0 0.9967948 318.157 441.0088)"><g transform="matrix(1 0 0 1 0 0)"><image x="0" y="0" xlink:href="img_07.png" width="27" height="38" /></g></g></g><g clip-path="url(#17)"></g><g clip-path="url(#18)"><g transform="matrix(-1.022789 0 0 0.9967948 507.155 441.0088)"><g transform="matrix(1 0 0 1 0 0)"><image x="0" y="0" xlink:href="img_07.png" width="27" height="38" /></g></g></g><g clip-path="url(#19)"></g><g clip-path="url(#20)"><g transform="matrix(1.003313 0 0 0.9997035 343.016 564.769)"><g transform="matrix(1 0 0 1 0 0)"><image x="0" y="0" xlink:href="img_08.png" width="63" height="145" /></g></g></g><g clip-path="url(#21)"><path id="251" transform="matrix(1 0 0 -1 0 834)" d="M388.847 247.897C 400.988 251.777 417.743 254.832 436.289 251.589" stroke="#000000" stroke-width="1.583" fill="none" /></g><path id="252" transform="matrix(1 0 0 -1 0 834)" d="M433.541 249.1L435.322 251.74L434.658 254.856L440.922 250.653z" stroke="none" fill="#000000" fill-rule="nonzero" /><g clip-path="url(#22)"><g><g clip-path="url(#23)"><g clip-path="url(#24)"><path id="253" transform="matrix(1 0 0 -1 0 834)" d="M369.085 239.252C 369.085 239.252 376.631 243.992 388.848 247.896" stroke="#FFFFFF" stroke-width="1.583" fill="none" stroke-opacity="0.8" /></g></g></g></g><g clip-path="url(#25)"><path id="254" transform="matrix(1 0 0 -1 0 834)" d="M478.366 161.134C 478.366 141.602 458.327 125.768 433.607 125.768C 408.887 125.768 388.847 141.602 388.847 161.134C 388.847 180.666 408.887 196.5 433.607 196.5C 458.327 196.5 478.366 180.666 478.366 161.134" stroke="none" fill="#FFFFFF" fill-rule="nonzero" /></g><g clip-path="url(#26)"></g><g clip-path="url(#27)"><g transform="matrix(1.002894 0 0 1.006697 390.302 639.7109)"><g transform="matrix(1 0 0 1 0 0)"><image x="0" y="0" xlink:href="img_09.png" width="83" height="109" /></g></g></g><g clip-path="url(#28)"><path id="256" transform="matrix(1 0 0 -1 0 834)" d="M478.366 161.134C 478.366 141.602 458.327 125.768 433.607 125.768C 408.887 125.768 388.847 141.602 388.847 161.134C 388.847 180.666 408.887 196.5 433.607 196.5C 458.327 196.5 478.366 180.666 478.366 161.134z" stroke="#000000" stroke-width="0.792" fill="none" /></g><g clip-path="url(#29)"></g><g clip-path="url(#30)"><g transform="matrix(1.015668 0 0 0.9985386 262.654 543.5303)"><g transform="matrix(1 0 0 1 0 0)"><image x="0" y="0" xlink:href="img_10.png" width="34" height="57" /></g></g></g><g clip-path="url(#31)"></g><g clip-path="url(#32)"><g transform="matrix(1.022789 0 0 0.9967948 328.56 177.7478)"><g transform="matrix(1 0 0 1 0 0)"><image x="0" y="0" xlink:href="img_11.png" width="27" height="38" /></g></g></g><g clip-path="url(#33)"></g><g clip-path="url(#34)"><g transform="matrix(1.022789 0 0 0.9967948 310.818 654.3828)"><g transform="matrix(1 0 0 1 0 0)"><image x="0" y="0" xlink:href="img_11.png" width="27" height="38" /></g></g></g><path id="1196" transform="matrix(1 0 0 -1 0 834)" d="M633 15L633 0M633 819L633 834M21 15L21 0M21 819L21 834M639 21L654 21M15 21L0 21M639 813L654 813M15 813L0 813" stroke="#000000" stroke-width="1.25" fill="none" /><path id="1197" transform="matrix(1 0 0 -1 0 834)" d="M633 15L633 0M633 819L633 834M21 15L21 0M21 819L21 834M639 21L654 21M15 21L0 21M639 813L654 813M15 813L0 813" stroke="#000000" stroke-width="0.25" fill="none" /><path id="1198" transform="matrix(1 0 0 -1 0 834)" d="M32.2781 9.28203C 32.2781 9.516021 32.2961 9.58203 32.3559 9.62383C 32.416 9.66602 32.5719 9.69609 32.8238 9.69609C 33.2262 9.69609 33.5738 9.62383 33.8441 9.45C 34.3238 9.167971 34.552 8.63398 34.552 8.016021C 34.552 7.05586 34.0359 6.21602 32.9141 6.21602C 32.4762 6.21602 32.2781 6.33008 32.2781 6.78594zM31.252 9.900001L31.252 9.726171C 31.7141 9.68984 31.7621 9.66602 31.7621 9.150001L31.7621 9.150001L31.7621 6.74414C 31.7621 6.23398 31.7141 6.19805 31.198 6.16211L31.198 6.16211L31.198 6L31.198 6L32.6199 6C 33.3578 6 33.952 6.15 34.402 6.49805C 34.8641 6.84609 35.1398 7.38008 35.1398 8.1C 35.1398 8.664061 34.9301 9.101951 34.6359 9.38984C 34.2641 9.74414 33.7 9.900001 32.9379 9.900001z" stroke="#000000" stroke-width="0.4" fill="none" /><path id="1199" transform="matrix(1 0 0 -1 0 834)" d="M38.3801 6.97813C 38.2898 6.70195 38.1758 6.51016 38.0738 6.38984C 37.9359 6.23398 37.732 6.20391 37.402 6.20391C 37.15 6.20391 36.9461 6.21602 36.8258 6.28203C 36.718 6.34219 36.6879 6.46211 36.6879 6.78594L36.6879 6.78594L36.6879 9.15586C 36.6879 9.66602 36.7418 9.69609 37.216 9.73203L37.216 9.73203L37.216 9.900001L37.216 9.900001L35.65 9.900001L35.65 9.900001L35.65 9.73203C 36.1359 9.69609 36.1777 9.66602 36.1777 9.15586L36.1777 9.15586L36.1777 6.75586C 36.1777 6.24609 36.1301 6.20391 35.6258 6.16797L35.6258 6.16797L35.6258 6L35.6258 6L38.3438 6C 38.398 6.18594 38.5238 6.75586 38.5598 6.94219z" stroke="#000000" stroke-width="0.4" fill="none" /><path id="1200" transform="matrix(1 0 0 -1 0 834)" d="M41.0918 9.023829C 41.0438 9.40195 41.0141 9.63594 40.9898 9.851951C 40.7617 9.92383 40.5098 9.989841 40.234 9.989841C 39.4598 9.989841 38.998 9.49805 38.998 8.921881C 38.998 8.24414 39.6039 7.94414 39.9879 7.73984C 40.4379 7.5 40.768 7.28984 40.768 6.84609C 40.768 6.40781 40.498 6.12617 40.048 6.12617C 39.4301 6.12617 39.1598 6.73203 39.0641 7.09805L39.0641 7.09805L38.8898 7.05586C 38.9258 6.767971 39.0039 6.25195 39.052 6.12617C 39.1059 6.09609 39.1961 6.05391 39.3461 6C 39.4961 5.95781 39.6879 5.91016 39.934 5.91016C 40.732 5.91016 41.266 6.41406 41.266 7.04414C 41.266 7.71602 40.6961 7.99805 40.2277 8.23789C 39.7539 8.48398 39.466 8.68789 39.466 9.12617C 39.466 9.45 39.6699 9.78594 40.132 9.78594C 40.6539 9.78594 40.8098 9.371881 40.918 8.98789z" stroke="#000000" stroke-width="0.4" fill="none" /><path id="1201" transform="matrix(1 0 0 -1 0 834)" d="M46.648 6L46.648 6.16797C 46.1258 6.21602 46.1078 6.24609 46.0898 6.88203L46.0898 6.88203L46.0301 9.05391C 46.0117 9.671881 46.0539 9.68398 46.582 9.73203L46.582 9.73203L46.582 9.900001L46.582 9.900001L45.5617 9.900001L45.5617 9.900001L44.1758 6.9L44.1758 6.9L42.8078 9.900001L42.8078 9.900001L41.8238 9.900001L41.8238 9.900001L41.8238 9.73203C 42.3699 9.67813 42.4 9.653911 42.3461 8.87383L42.3461 8.87383L42.2617 7.626171C 42.2141 7.00195 42.1777 6.73789 42.148 6.528131C 42.1059 6.27617 41.9859 6.21016 41.6379 6.16797L41.6379 6.16797L41.6379 6L41.6379 6L43.0359 6L43.0359 6L43.0359 6.16797C 42.6398 6.21016 42.4961 6.25195 42.484 6.53984C 42.4777 6.78008 42.4777 7.04414 42.502 7.53594L42.502 7.53594L42.5918 9.24609L42.5918 9.24609L42.6039 9.24609L42.6039 9.24609L43.948 6.04219L43.948 6.04219L44.068 6.04219L44.068 6.04219L45.532 9.33008L45.532 9.33008L45.5559 9.33008L45.5559 9.33008L45.5738 6.88203C 45.5801 6.24609 45.5559 6.21602 45.0699 6.16797L45.0699 6.16797L45.0699 6z" stroke="#000000" stroke-width="0.4" fill="none" /><path id="1202" transform="matrix(1 0 0 -1 0 834)" d="M51.8738 7.05586C 51.5738 6.45586 51.2496 6.12617 50.6379 6.12617C 49.7258 6.12617 49.0656 6.89414 49.0656 8.016021C 49.0656 8.92813 49.5996 9.773829 50.602 9.773829C 51.2496 9.773829 51.6098 9.516021 51.7656 8.88008L51.7656 8.88008L51.9457 8.921881C 51.9098 9.24609 51.8738 9.48594 51.8258 9.828131C 51.6578 9.85781 51.2496 9.989841 50.7637 9.989841C 49.4258 9.989841 48.4539 9.15586 48.4539 7.89609C 48.4539 6.94219 49.1078 5.91016 50.602 5.91016C 51.034 5.91016 51.5379 6.03008 51.7059 6.07188C 51.8137 6.26992 51.9637 6.71406 52.0477 6.98984z" stroke="#000000" stroke-width="0.4" fill="none" /><path id="1203" transform="matrix(1 0 0 -1 0 834)" d="M54.3398 9.773829C 55.1258 9.773829 55.7855 9.101951 55.7855 7.83594C 55.7855 6.68398 55.1855 6.12617 54.5195 6.12617C 53.6738 6.12617 53.0559 6.94805 53.0559 8.076171C 53.0559 9.19805 53.6676 9.773829 54.3398 9.773829zM54.4598 9.989841C 53.1996 9.989841 52.4438 8.98789 52.4438 7.90781C 52.4438 6.75586 53.3078 5.91016 54.3938 5.91016C 55.4918 5.91016 56.3977 6.70195 56.3977 7.99805C 56.3977 9.19805 55.4797 9.989841 54.4598 9.989841z" stroke="#000000" stroke-width="0.4" fill="none" /><path id="1204" transform="matrix(1 0 0 -1 0 834)" d="M61.8277 6L61.8277 6.16797C 61.3059 6.21602 61.2879 6.24609 61.2695 6.88203L61.2695 6.88203L61.2098 9.05391C 61.1918 9.671881 61.2336 9.68398 61.7617 9.73203L61.7617 9.73203L61.7617 9.900001L61.7617 9.900001L60.7418 9.900001L60.7418 9.900001L59.3559 6.9L59.3559 6.9L57.9879 9.900001L57.9879 9.900001L57.0035 9.900001L57.0035 9.900001L57.0035 9.73203C 57.5496 9.67813 57.5797 9.653911 57.5258 8.87383L57.5258 8.87383L57.4418 7.626171C 57.3938 7.00195 57.3578 6.73789 57.3277 6.528131C 57.2855 6.27617 57.1656 6.21016 56.8176 6.16797L56.8176 6.16797L56.8176 6L56.8176 6L58.2156 6L58.2156 6L58.2156 6.16797C 57.8195 6.21016 57.6758 6.25195 57.6637 6.53984C 57.6578 6.78008 57.6578 7.04414 57.6816 7.53594L57.6816 7.53594L57.7719 9.24609L57.7719 9.24609L57.7836 9.24609L57.7836 9.24609L59.1277 6.04219L59.1277 6.04219L59.2477 6.04219L59.2477 6.04219L60.7117 9.33008L60.7117 9.33008L60.7355 9.33008L60.7355 9.33008L60.7535 6.88203C 60.7598 6.24609 60.7355 6.21602 60.2496 6.16797L60.2496 6.16797L60.2496 6z" stroke="#000000" stroke-width="0.4" fill="none" /><path id="1205" transform="matrix(1 0 0 -1 0 834)" d="M63.8258 6L63.8258 6.16797C 63.3336 6.20391 63.2855 6.23398 63.2855 6.75L63.2855 6.75L63.2855 9.150001C 63.2855 9.66016 63.3336 9.69609 63.8258 9.73203L63.8258 9.73203L63.8258 9.900001L63.8258 9.900001L62.2355 9.900001L62.2355 9.900001L62.2355 9.73203C 62.7277 9.69609 62.7758 9.66016 62.7758 9.150001L62.7758 9.150001L62.7758 6.75C 62.7758 6.23984 62.7277 6.20391 62.2355 6.16797L62.2355 6.16797L62.2355 6z" stroke="#000000" stroke-width="0.4" fill="none" /><path id="1206" transform="matrix(1 0 0 -1 0 834)" d="M66.5074 9.023829C 66.4598 9.40195 66.4297 9.63594 66.4055 9.851951C 66.1777 9.92383 65.9258 9.989841 65.6496 9.989841C 64.8758 9.989841 64.4137 9.49805 64.4137 8.921881C 64.4137 8.24414 65.0195 7.94414 65.4035 7.73984C 65.8535 7.5 66.1836 7.28984 66.1836 6.84609C 66.1836 6.40781 65.9137 6.12617 65.46371 6.12617C 64.8457 6.12617 64.5758 6.73203 64.4797 7.09805L64.4797 7.09805L64.3055 7.05586C 64.3418 6.767971 64.4195 6.25195 64.46761 6.12617C 64.52151 6.09609 64.6117 6.05391 64.7617 6C 64.91171 5.95781 65.1035 5.91016 65.3496 5.91016C 66.1477 5.91016 66.6816 6.41406 66.6816 7.04414C 66.6816 7.71602 66.1117 7.99805 65.6438 8.23789C 65.1695 8.48398 64.8816 8.68789 64.8816 9.12617C 64.8816 9.45 65.0855 9.78594 65.5477 9.78594C 66.0695 9.78594 66.2258 9.371881 66.3336 8.98789z" stroke="#000000" stroke-width="0.4" fill="none" /><path id="1207" transform="matrix(1 0 0 -1 0 834)" d="M69.4055 7.68008L68.3016 7.68008C 68.4816 8.171881 68.6734 8.69414 68.8656 9.21016L68.8656 9.21016L68.8777 9.21016zM70.9355 6L70.9355 6.16797C 70.5457 6.20391 70.46761 6.25781 70.2758 6.77383C 69.89181 7.81797 69.4895 8.95781 69.11761 9.989841L69.11761 9.989841L68.9316 9.93594L68.9316 9.93594L67.68951 6.78594C 67.4797 6.25781 67.3957 6.22188 67.0176 6.16797L67.0176 6.16797L67.0176 6L67.0176 6L68.3195 6L68.3195 6L68.3195 6.16797C 67.8695 6.21016 67.81561 6.26992 67.9477 6.64805C 68.0258 6.9 68.1156 7.15195 68.2117 7.42188L68.2117 7.42188L69.4895 7.42188C 69.62151 7.05586 69.74181 6.73203 69.8195 6.49805C 69.8977 6.26406 69.8438 6.21602 69.4656 6.16797L69.4656 6.16797L69.4656 6z" stroke="#000000" stroke-width="0.4" fill="none" /><path id="1208" transform="matrix(1 0 0 -1 0 834)" d="M71.7273 5.92813C 71.9195 5.92813 72.06371 6.06602 72.06371 6.27617C 72.06371 6.46797 71.9195 6.61797 71.7273 6.61797C 71.5355 6.61797 71.3914 6.46797 71.3914 6.27617C 71.3914 6.06602 71.5355 5.92813 71.7273 5.92813z" stroke="#000000" stroke-width="0.4" fill="none" /><path id="1209" transform="matrix(1 0 0 -1 0 834)" d="M73.9234 6L73.9234 6.15586C 73.53951 6.19219 73.4977 6.22813 73.4977 6.63594L73.4977 6.63594L73.4977 8.70586C 73.2336 8.59805 72.9516 8.51992 72.6453 8.471881L72.6453 8.471881L72.6453 8.328131C 73.0055 8.26797 73.0234 8.24414 73.0234 7.871881L73.0234 7.871881L73.0234 6.63594C 73.0234 6.22813 72.9816 6.19219 72.6035 6.15586L72.6035 6.15586L72.6035 6zM73.2215 9.216021C 73.3953 9.216021 73.52731 9.36016 73.52731 9.52188C 73.52731 9.70195 73.3953 9.83398 73.2273 9.83398C 73.06561 9.83398 72.9215 9.70195 72.9215 9.52188C 72.9215 9.36016 73.06561 9.216021 73.2215 9.216021z" stroke="#000000" stroke-width="0.4" fill="none" /><path id="1210" transform="matrix(1 0 0 -1 0 834)" d="M77.1574 6L77.1574 6.15586C 76.8094 6.19219 76.7793 6.21602 76.7793 6.62383L76.7793 6.62383L76.7793 7.78203C 76.7793 8.36406 76.4793 8.69414 76.0055 8.69414C 75.8313 8.69414 75.67541 8.621881 75.5074 8.51406C 75.3574 8.41211 75.2254 8.32188 75.1055 8.23203L75.1055 8.23203L75.1055 8.712111C 74.8414 8.59219 74.5594 8.51992 74.27151 8.466021L74.27151 8.466021L74.27151 8.328131C 74.5953 8.26797 74.6313 8.25 74.6313 7.86602L74.6313 7.86602L74.6313 6.62383C 74.6313 6.22813 74.6016 6.19805 74.19341 6.15586L74.19341 6.15586L74.19341 6L74.19341 6L75.4953 6L75.4953 6L75.4953 6.15586C 75.1414 6.19219 75.1055 6.21602 75.1055 6.62383L75.1055 6.62383L75.1055 8.03398C 75.2855 8.18984 75.5195 8.33984 75.7594 8.33984C 76.1613 8.33984 76.3055 8.069921 76.3055 7.65586L76.3055 7.65586L76.3055 6.65391C 76.3055 6.23984 76.2633 6.19219 75.9094 6.15586L75.9094 6.15586L75.9094 6z" stroke="#000000" stroke-width="0.4" fill="none" /><path id="1211" transform="matrix(1 0 0 -1 0 834)" d="M79.4734 6.51016C 79.32931 6.40195 79.1133 6.30586 78.8973 6.30586C 78.5133 6.30586 78.0754 6.65391 78.0754 7.36797C 78.0754 8.23789 78.57931 8.471881 78.8555 8.471881C 79.0832 8.471881 79.32931 8.37617 79.4734 8.16602zM80.4035 6.30586L80.2113 6.32383C 79.9895 6.34805 79.9473 6.37813 79.9473 6.68984L79.9473 6.68984L79.9473 10.2719C 79.7254 10.1941 79.3234 10.1039 79.0113 10.0621L79.0113 10.0621L79.0113 9.917971C 79.44341 9.88789 79.4734 9.869921 79.4734 9.47383L79.4734 9.47383L79.4734 8.628131C 79.3355 8.67617 79.1613 8.69414 79.0773 8.69414C 78.2613 8.69414 77.5293 8.03984 77.5293 7.20586C 77.5293 6.36602 78.1594 5.92813 78.6395 5.92813C 78.7113 5.92813 78.87341 5.96406 79.1074 6.10195L79.1074 6.10195L79.4734 6.31797L79.4734 6.31797L79.4734 5.92813C 79.8215 6.05391 80.27151 6.13203 80.4035 6.15586z" stroke="#000000" stroke-width="0.4" fill="none" /><path id="1212" transform="matrix(1 0 0 -1 0 834)" d="M81.3813 8.24414C 81.4895 8.310161 81.6813 8.35781 81.84921 8.35781C 82.34731 8.35781 82.7676 7.96211 82.7676 7.278131C 82.7676 6.58203 82.4492 6.15586 81.9516 6.15586C 81.6336 6.16211 81.4535 6.37188 81.4176 6.49219C 81.3934 6.54609 81.3813 6.60586 81.3813 6.69609zM81.3813 8.42383L81.3813 10.2719C 81.1594 10.1941 80.7934 10.098 80.5113 10.0621L80.5113 10.0621L80.5113 9.92383C 80.8953 9.88789 80.9074 9.851951 80.9074 9.48008L80.9074 9.48008L80.9074 6.14414C 81.2375 5.98789 81.5434 5.92813 81.78951 5.92813C 82.59341 5.92813 83.2953 6.55195 83.2953 7.43398C 83.2953 8.14219 82.7555 8.69414 82.1133 8.69414C 82.0473 8.69414 81.9633 8.67617 81.86761 8.63398z" stroke="#000000" stroke-width="0.4" fill="none" /><path id="1213" transform="matrix(1 0 0 -1 0 834)" d="M90.0754 6.83984C 89.8953 6.46211 89.8172 6.43789 89.4934 6.43789L89.4934 6.43789L88.3711 6.43789L88.3711 6.43789L89.223 7.33203C 89.77541 7.91992 90.0152 8.273829 90.0152 8.79609C 90.0152 9.42617 89.5352 9.810161 89.007 9.810161C 88.6594 9.810161 88.3773 9.653911 88.1973 9.45586L88.1973 9.45586L87.8551 8.96992L87.8551 8.96992L87.9871 8.85C 88.1434 9.08398 88.3953 9.40781 88.8031 9.40781C 89.24731 9.40781 89.5113 9.11406 89.5113 8.61016C 89.5113 8.09414 89.1332 7.60195 88.7613 7.15781C 88.4613 6.81016 88.1254 6.46797 87.7891 6.13789L87.7891 6.13789L87.7891 6L87.7891 6L90.0332 6C 90.1051 6.26992 90.1652 6.53398 90.2434 6.78594z" stroke="#000000" stroke-width="0.4" fill="none" /><path id="1214" transform="matrix(1 0 0 -1 0 834)" d="M92.1633 7.35L90.9813 7.35C 91.3773 8.016021 91.7672 8.58594 92.15121 9.119921L92.15121 9.119921L92.1633 9.119921zM93.2191 7.06797L93.2191 7.35L93.2191 7.35L92.6434 7.35L92.6434 7.35L92.6434 9.79219L92.6434 9.79219L92.4031 9.79219C 91.7852 8.976171 91.173 8.08789 90.6031 7.23594L90.6031 7.23594L90.6031 7.06797L90.6031 7.06797L92.1633 7.06797L92.1633 7.06797L92.1633 6.63594C 92.1633 6.23984 92.1391 6.20391 91.6172 6.16211L91.6172 6.16211L91.6172 6L91.6172 6L93.1531 6L93.1531 6L93.1531 6.16211C 92.6672 6.20391 92.6434 6.23398 92.6434 6.63594L92.6434 6.63594L92.6434 7.06797z" stroke="#000000" stroke-width="0.4" fill="none" /><path id="1215" transform="matrix(1 0 0 -1 0 834)" d="M96.0453 9.73789L93.75311 9.73789C 93.7293 9.48008 93.6992 9.180079 93.6453 8.85L93.6453 8.85L93.8191 8.85C 93.9633 9.24609 93.9992 9.3 94.3953 9.3L94.3953 9.3L95.691 9.3C 95.2172 8.25586 94.5391 7.01406 93.9094 5.99414L93.9094 5.99414L93.9512 5.92813L93.9512 5.92813L94.3953 5.98789C 94.9711 7.22383 95.5293 8.44805 96.09341 9.66602z" stroke="#000000" stroke-width="0.4" fill="none" /><path id="1234" transform="matrix(1 0 0 -1 0 834)" d="M554.472 6.83984C 554.292 6.46211 554.2141 6.43789 553.89 6.43789L553.89 6.43789L552.768 6.43789L552.768 6.43789L553.6201 7.33203C 554.1721 7.91992 554.412 8.273829 554.412 8.79609C 554.412 9.42617 553.932 9.810161 553.404 9.810161C 553.056 9.810161 552.774 9.653911 552.594 9.45586L552.594 9.45586L552.252 8.96992L552.252 8.96992L552.384 8.85C 552.54 9.08398 552.792 9.40781 553.2 9.40781C 553.644 9.40781 553.908 9.11406 553.908 8.61016C 553.908 8.09414 553.53 7.60195 553.158 7.15781C 552.858 6.81016 552.522 6.46797 552.186 6.13789L552.186 6.13789L552.186 6L552.186 6L554.43 6C 554.502 6.26992 554.562 6.53398 554.64 6.78594z" stroke="#000000" stroke-width="0.4" fill="none" /><path id="1235" transform="matrix(1 0 0 -1 0 834)" d="M555.792 9.3L557.19 9.3L557.19 9.3L557.346 9.68984L557.346 9.68984L557.31 9.73789L557.31 9.73789L555.6 9.73789L555.6 9.73789L555.366 7.90781C 555.504 7.96211 555.732 8.028131 555.984 8.028131C 556.638 8.028131 556.962 7.65 556.962 7.121881C 556.962 6.67188 556.71 6.23398 556.2 6.23398C 555.834 6.23398 555.588 6.42617 555.462 6.53984C 555.402 6.58789 555.354 6.58203 555.3 6.53984C 555.234 6.48008 555.18 6.40195 555.174 6.34219C 555.162 6.26992 555.192 6.22188 555.27 6.13789C 555.36 6.05391 555.612 5.92813 555.888 5.92813C 556.206 5.93398 556.608 6.08984 556.932 6.35391C 557.298 6.65391 557.466 6.99609 557.466 7.35586C 557.466 7.84805 557.076 8.369921 556.308 8.369921C 556.146 8.369921 555.864 8.273829 555.636 8.18984z" stroke="#000000" stroke-width="0.4" fill="none" /><path id="1236" transform="matrix(1 0 0 -1 0 834)" d="M559.548 9.989841L559.212 9.989841L559.212 9.989841L557.91 5.73594L557.91 5.73594L558.246 5.73594z" stroke="#000000" stroke-width="0.4" fill="none" /><path id="1237" transform="matrix(1 0 0 -1 0 834)" d="M561.18 9.61211C 561.72 9.61211 561.8701 8.72383 561.8701 7.871881C 561.8701 7.03203 561.726 6.13203 561.186 6.13203C 560.664 6.13203 560.49 7.03789 560.49 7.87813C 560.49 8.712111 560.634 9.61211 561.18 9.61211zM561.186 9.810161C 560.286 9.810161 559.956 8.74219 559.956 7.86602C 559.956 6.91797 560.28 5.92813 561.186 5.92813C 562.086 5.92813 562.404 6.99609 562.404 7.871881C 562.404 8.79609 562.086 9.810161 561.186 9.810161z" stroke="#000000" stroke-width="0.4" fill="none" /><path id="1238" transform="matrix(1 0 0 -1 0 834)" d="M564 9.61211C 564.582 9.61211 564.738 8.86797 564.738 8.33984C 564.738 8.21992 564.732 8.076171 564.7141 7.94414C 564.588 7.84805 564.384 7.77617 564.174 7.77617C 563.67 7.77617 563.3701 8.214061 563.3701 8.74219C 563.3701 9.09609 563.538 9.61211 564 9.61211zM564.078 9.810161C 563.304 9.810161 562.854 9.10781 562.854 8.53203C 562.854 7.90195 563.292 7.43398 563.928 7.43398C 564.042 7.43398 564.156 7.45781 564.288 7.53008L564.288 7.53008L564.69 7.74609C 564.492 6.83398 563.838 6.23398 562.98 6.08984L562.98 6.08984L563.01 5.91016C 563.16 5.91016 563.526 5.96992 563.85 6.10195C 564.66 6.42617 565.2661 7.20586 565.2661 8.310161C 565.2661 9.12617 564.828 9.810161 564.078 9.810161z" stroke="#000000" stroke-width="0.4" fill="none" /><path id="1239" transform="matrix(1 0 0 -1 0 834)" d="M567.294 9.989841L566.958 9.989841L566.958 9.989841L565.656 5.73594L565.656 5.73594L565.992 5.73594z" stroke="#000000" stroke-width="0.4" fill="none" /><path id="1240" transform="matrix(1 0 0 -1 0 834)" d="M569.9641 6.83984C 569.784 6.46211 569.706 6.43789 569.382 6.43789L569.382 6.43789L568.26 6.43789L568.26 6.43789L569.112 7.33203C 569.664 7.91992 569.904 8.273829 569.904 8.79609C 569.904 9.42617 569.424 9.810161 568.896 9.810161C 568.548 9.810161 568.2661 9.653911 568.086 9.45586L568.086 9.45586L567.744 8.96992L567.744 8.96992L567.876 8.85C 568.032 9.08398 568.284 9.40781 568.692 9.40781C 569.136 9.40781 569.4 9.11406 569.4 8.61016C 569.4 8.09414 569.022 7.60195 568.65 7.15781C 568.35 6.81016 568.014 6.46797 567.678 6.13789L567.678 6.13789L567.678 6L567.678 6L569.9221 6C 569.994 6.26992 570.054 6.53398 570.132 6.78594z" stroke="#000000" stroke-width="0.4" fill="none" /><path id="1241" transform="matrix(1 0 0 -1 0 834)" d="M571.806 9.61211C 572.346 9.61211 572.496 8.72383 572.496 7.871881C 572.496 7.03203 572.352 6.13203 571.812 6.13203C 571.29 6.13203 571.116 7.03789 571.116 7.87813C 571.116 8.712111 571.26 9.61211 571.806 9.61211zM571.812 9.810161C 570.912 9.810161 570.582 8.74219 570.582 7.86602C 570.582 6.91797 570.906 5.92813 571.812 5.92813C 572.712 5.92813 573.03 6.99609 573.03 7.871881C 573.03 8.79609 572.712 9.810161 571.812 9.810161z" stroke="#000000" stroke-width="0.4" fill="none" /><path id="1242" transform="matrix(1 0 0 -1 0 834)" d="M575.556 6L575.556 6.16211C 575.01 6.20391 574.9741 6.25195 574.9741 6.68398L574.9741 6.68398L574.9741 9.810161C 574.644 9.67813 574.29 9.56406 573.906 9.49805L573.906 9.49805L573.906 9.36016L573.906 9.36016L574.194 9.34805C 574.458 9.33594 574.482 9.305861 574.482 8.99414L574.482 8.99414L574.482 6.68398C 574.482 6.25195 574.452 6.20391 573.906 6.16211L573.906 6.16211L573.906 6z" stroke="#000000" stroke-width="0.4" fill="none" /><path id="1243" transform="matrix(1 0 0 -1 0 834)" d="M578.814 9.73789L576.522 9.73789C 576.498 9.48008 576.468 9.180079 576.414 8.85L576.414 8.85L576.588 8.85C 576.732 9.24609 576.768 9.3 577.164 9.3L577.164 9.3L578.46 9.3C 577.986 8.25586 577.308 7.01406 576.678 5.99414L576.678 5.99414L576.72 5.92813L576.72 5.92813L577.164 5.98789C 577.74 7.22383 578.298 8.44805 578.862 9.66602z" stroke="#000000" stroke-width="0.4" fill="none" /><path id="1244" transform="matrix(1 0 0 -1 0 834)" d="M584.531 9.61211C 585.071 9.61211 585.221 8.72383 585.221 7.871881C 585.221 7.03203 585.077 6.13203 584.537 6.13203C 584.015 6.13203 583.841 7.03789 583.841 7.87813C 583.841 8.712111 583.985 9.61211 584.531 9.61211zM584.537 9.810161C 583.637 9.810161 583.307 8.74219 583.307 7.86602C 583.307 6.91797 583.631 5.92813 584.537 5.92813C 585.437 5.92813 585.755 6.99609 585.755 7.871881C 585.755 8.79609 585.437 9.810161 584.537 9.810161z" stroke="#000000" stroke-width="0.4" fill="none" /><path id="1245" transform="matrix(1 0 0 -1 0 834)" d="M588.449 6.83984C 588.269 6.46211 588.191 6.43789 587.867 6.43789L587.867 6.43789L586.7451 6.43789L586.7451 6.43789L587.597 7.33203C 588.149 7.91992 588.389 8.273829 588.389 8.79609C 588.389 9.42617 587.909 9.810161 587.381 9.810161C 587.033 9.810161 586.751 9.653911 586.571 9.45586L586.571 9.45586L586.229 8.96992L586.229 8.96992L586.361 8.85C 586.517 9.08398 586.769 9.40781 587.177 9.40781C 587.621 9.40781 587.885 9.11406 587.885 8.61016C 587.885 8.09414 587.507 7.60195 587.135 7.15781C 586.835 6.81016 586.499 6.46797 586.163 6.13789L586.163 6.13789L586.163 6L586.163 6L588.407 6C 588.479 6.26992 588.539 6.53398 588.617 6.78594z" stroke="#000000" stroke-width="0.4" fill="none" /><path id="1246" transform="matrix(1 0 0 -1 0 834)" d="M589.5471 5.92813C 589.739 5.92813 589.883 6.06602 589.883 6.27617C 589.883 6.46797 589.739 6.61797 589.5471 6.61797C 589.355 6.61797 589.211 6.46797 589.211 6.27617C 589.211 6.06602 589.355 5.92813 589.5471 5.92813zM589.541 8.466021C 589.3491 8.466021 589.211 8.328131 589.211 8.13008C 589.211 7.92617 589.3491 7.78203 589.541 7.78203C 589.733 7.78203 589.877 7.92617 589.877 8.13008C 589.877 8.328131 589.733 8.466021 589.541 8.466021z" stroke="#000000" stroke-width="0.4" fill="none" /><path id="1247" transform="matrix(1 0 0 -1 0 834)" d="M590.735 8.976171C 590.885 9.19805 591.125 9.45 591.455 9.45C 591.773 9.45 592.025 9.257811 592.025 8.88594C 592.025 8.44219 591.617 8.20781 591.065 8.03398L591.065 8.03398L591.107 7.86016C 591.203 7.88984 591.347 7.92617 591.491 7.92617C 591.833 7.92617 592.253 7.70391 592.253 7.15195C 592.253 6.55781 591.953 6.23984 591.527 6.23984C 591.185 6.23984 590.939 6.40781 590.783 6.54609C 590.735 6.58789 590.687 6.58203 590.639 6.54609C 590.585 6.50391 590.507 6.42617 590.501 6.34805C 590.489 6.27617 590.513 6.21016 590.597 6.13203C 590.675 6.06016 590.921 5.92813 591.197 5.92813C 591.629 5.92813 592.769 6.37188 592.769 7.34414C 592.769 7.78203 592.463 8.153911 591.935 8.25586L591.935 8.25586L591.935 8.26797C 592.109 8.38789 592.253 8.49609 592.343 8.59219C 592.457 8.70586 592.529 8.84414 592.529 9.01797C 592.529 9.47383 592.175 9.810161 591.635 9.810161C 591.317 9.810161 591.041 9.66016 590.873 9.47383L590.873 9.47383L590.609 9.09609z" stroke="#000000" stroke-width="0.4" fill="none" /><path id="1248" transform="matrix(1 0 0 -1 0 834)" d="M594.587 6.11992C 594.209 6.11992 593.855 6.42617 593.855 6.97813C 593.855 7.30781 594.059 7.60781 594.347 7.8C 594.809 7.56602 595.235 7.30781 595.235 6.85781C 595.235 6.39609 594.953 6.11992 594.587 6.11992zM594.533 9.61797C 594.809 9.61797 595.121 9.396091 595.121 8.89219C 595.121 8.53203 594.959 8.310161 594.755 8.14805C 594.329 8.35781 593.975 8.555861 593.975 9C 593.975 9.305861 594.179 9.61797 594.533 9.61797zM594.593 9.810161C 593.951 9.810161 593.525 9.33008 593.525 8.826171C 593.525 8.40586 593.783 8.11797 594.173 7.89609C 593.969 7.76406 593.741 7.60195 593.645 7.51211C 593.513 7.38594 593.375 7.21797 593.375 6.94219C 593.375 6.3 593.885 5.92813 594.527 5.92813C 595.037 5.92813 595.715 6.31211 595.715 7.01406C 595.715 7.53594 595.337 7.82383 594.923 8.057811C 595.1931 8.24414 595.355 8.38789 595.397 8.44219C 595.511 8.57383 595.571 8.74805 595.571 8.921881C 595.571 9.40781 595.163 9.810161 594.593 9.810161z" stroke="#000000" stroke-width="0.4" fill="none" /><path id="1249" transform="matrix(1 0 0 -1 0 834)" d="M596.675 5.92813C 596.867 5.92813 597.011 6.06602 597.011 6.27617C 597.011 6.46797 596.867 6.61797 596.675 6.61797C 596.483 6.61797 596.3391 6.46797 596.3391 6.27617C 596.3391 6.06602 596.483 5.92813 596.675 5.92813zM596.669 8.466021C 596.477 8.466021 596.3391 8.328131 596.3391 8.13008C 596.3391 7.92617 596.477 7.78203 596.669 7.78203C 596.861 7.78203 597.005 7.92617 597.005 8.13008C 597.005 8.328131 596.861 8.466021 596.669 8.466021z" stroke="#000000" stroke-width="0.4" fill="none" /><path id="1250" transform="matrix(1 0 0 -1 0 834)" d="M599.825 6.83984C 599.645 6.46211 599.567 6.43789 599.243 6.43789L599.243 6.43789L598.121 6.43789L598.121 6.43789L598.973 7.33203C 599.525 7.91992 599.765 8.273829 599.765 8.79609C 599.765 9.42617 599.285 9.810161 598.757 9.810161C 598.409 9.810161 598.127 9.653911 597.947 9.45586L597.947 9.45586L597.605 8.96992L597.605 8.96992L597.737 8.85C 597.893 9.08398 598.145 9.40781 598.553 9.40781C 598.997 9.40781 599.261 9.11406 599.261 8.61016C 599.261 8.09414 598.883 7.60195 598.511 7.15781C 598.211 6.81016 597.875 6.46797 597.539 6.13789L597.539 6.13789L597.539 6L597.539 6L599.783 6C 599.855 6.26992 599.915 6.53398 599.993 6.78594z" stroke="#000000" stroke-width="0.4" fill="none" /><path id="1251" transform="matrix(1 0 0 -1 0 834)" d="M601.715 6.11992C 601.337 6.11992 600.983 6.42617 600.983 6.97813C 600.983 7.30781 601.187 7.60781 601.475 7.8C 601.937 7.56602 602.363 7.30781 602.363 6.85781C 602.363 6.39609 602.081 6.11992 601.715 6.11992zM601.661 9.61797C 601.937 9.61797 602.249 9.396091 602.249 8.89219C 602.249 8.53203 602.087 8.310161 601.883 8.14805C 601.457 8.35781 601.103 8.555861 601.103 9C 601.103 9.305861 601.307 9.61797 601.661 9.61797zM601.721 9.810161C 601.079 9.810161 600.653 9.33008 600.653 8.826171C 600.653 8.40586 600.911 8.11797 601.301 7.89609C 601.097 7.76406 600.869 7.60195 600.773 7.51211C 600.6411 7.38594 600.503 7.21797 600.503 6.94219C 600.503 6.3 601.013 5.92813 601.655 5.92813C 602.165 5.92813 602.843 6.31211 602.843 7.01406C 602.843 7.53594 602.465 7.82383 602.051 8.057811C 602.321 8.24414 602.483 8.38789 602.525 8.44219C 602.639 8.57383 602.699 8.74805 602.699 8.921881C 602.699 9.40781 602.291 9.810161 601.721 9.810161z" stroke="#000000" stroke-width="0.4" fill="none" /><path id="1252" transform="matrix(1 0 0 -1 0 834)" d="M605.489 8.08203C 605.651 8.20195 605.897 8.33398 606.0891 8.33398C 606.527 8.33398 606.893 7.97383 606.893 7.33203C 606.893 6.65391 606.557 6.22188 606.053 6.22188C 605.8491 6.22188 605.621 6.31797 605.489 6.45586zM605.489 8.28008L605.489 8.75391C 605.207 8.63984 604.871 8.53789 604.619 8.49609L604.619 8.49609L604.619 8.351951C 604.991 8.30391 605.015 8.29219 605.015 7.90195L605.015 7.90195L605.015 5.18984C 605.015 4.79414 604.961 4.75781 604.577 4.72188L604.577 4.72188L604.577 4.56016L604.577 4.56016L605.999 4.56016L605.999 4.56016L605.999 4.72188C 605.531 4.76406 605.489 4.79414 605.489 5.25L605.489 5.25L605.489 6.03594C 605.567 5.99414 605.729 5.93398 605.903 5.92813C 606.683 6.07188 607.397 6.65391 607.397 7.56016C 607.397 8.153911 607.001 8.69414 606.335 8.69414C 606.263 8.69414 606.149 8.664061 606.041 8.60391z" stroke="#000000" stroke-width="0.4" fill="none" /><path id="1253" transform="matrix(1 0 0 -1 0 834)" d="M608.303 5.92813C 608.4951 5.92813 608.639 6.06602 608.639 6.27617C 608.639 6.46797 608.4951 6.61797 608.303 6.61797C 608.111 6.61797 607.967 6.46797 607.967 6.27617C 607.967 6.06602 608.111 5.92813 608.303 5.92813z" stroke="#000000" stroke-width="0.4" fill="none" /><path id="1254" transform="matrix(1 0 0 -1 0 834)" d="M615.125 6L615.125 6.15586C 614.783 6.19219 614.735 6.21602 614.735 6.61797L614.735 6.61797L614.735 7.77617C 614.735 8.36406 614.441 8.69414 613.973 8.69414C 613.805 8.69414 613.649 8.621881 613.523 8.53789C 613.373 8.44805 613.199 8.33398 613.025 8.20195C 612.905 8.51406 612.647 8.69414 612.359 8.69414C 612.167 8.69414 612.023 8.628131 611.867 8.53203C 611.687 8.417971 611.555 8.310161 611.429 8.226171L611.429 8.226171L611.429 8.712111C 611.165 8.59219 610.859 8.51406 610.595 8.466021L610.595 8.466021L610.595 8.328131C 610.9431 8.273829 610.961 8.24414 610.961 7.86016L610.961 7.86016L610.961 6.61797C 610.961 6.22813 610.907 6.19219 610.511 6.15586L610.511 6.15586L610.511 6L610.511 6L611.777 6L611.777 6L611.777 6.15586C 611.483 6.19219 611.435 6.22813 611.435 6.61797L611.435 6.61797L611.435 8.028131C 611.615 8.17813 611.8491 8.33984 612.0891 8.33984C 612.455 8.33984 612.611 8.09414 612.611 7.65L612.611 7.65L612.611 6.61797C 612.611 6.22188 612.557 6.19219 612.185 6.15586L612.185 6.15586L612.185 6L612.185 6L613.469 6L613.469 6L613.469 6.15586C 613.139 6.19219 613.085 6.22813 613.085 6.60586L613.085 6.60586L613.085 7.77617C 613.085 7.88984 613.079 7.95586 613.067 8.028131C 613.295 8.21992 613.523 8.33984 613.739 8.33984C 614.117 8.33984 614.267 8.069921 614.267 7.64414L614.267 7.64414L614.267 6.64219C 614.267 6.21602 614.201 6.19219 613.847 6.15586L613.847 6.15586L613.847 6z" stroke="#000000" stroke-width="0.4" fill="none" /><path id="1255" transform="matrix(1 0 0 -1 0 834)" d="M615.947 5.92813C 616.139 5.92813 616.283 6.06602 616.283 6.27617C 616.283 6.46797 616.139 6.61797 615.947 6.61797C 615.755 6.61797 615.611 6.46797 615.611 6.27617C 615.611 6.06602 615.755 5.92813 615.947 5.92813z" stroke="#000000" stroke-width="0.4" fill="none" /></g></g></svg>