<svg xmlns="http://www.w3.org/2000/svg" xmlns:xlink="http://www.w3.org/1999/xlink" id="body_1" preserveAspectRatio="xMinYMin meet" viewBox="0 0 872 1112"><defs><clipPath id="1"><path id="" clip-rule="evenodd" transform="matrix(1 0 0 1 0 0)" d="M0 834L0 0L0 0L654 0L654 0L654 834L654 834L0 834z" /></clipPath><clipPath id="2"><path id="" clip-rule="evenodd" transform="matrix(1 0 0 1 0 0)" d="M21 813L633 813L633 813L633 21L633 21L21 21z" /></clipPath><clipPath id="3"><path id="" clip-rule="evenodd" transform="matrix(1 0 0 1 0 0)" d="M143.989 267.108L226.4929 267.108L226.4929 267.108L226.4929 131.117L226.4929 131.117L143.989 131.117z" /></clipPath><clipPath id="4"><path id="" clip-rule="evenodd" transform="matrix(1 0 0 1 0 0)" d="M143.989 267.108L226.4929 267.108L226.4929 267.108L226.4929 131.117L226.4929 131.117L143.989 131.117z" /></clipPath><clipPath id="5"><path id="" clip-rule="evenodd" transform="matrix(1 0 0 1 0 0)" d="M241.803 267.1089L324.3069 267.1089L324.3069 267.1089L324.3069 130.9839L324.3069 130.9839L241.803 130.9839z" /></clipPath><clipPath id="6"><path id="" clip-rule="evenodd" transform="matrix(1 0 0 1 0 0)" d="M241.803 267.1089L324.3069 267.1089L324.3069 267.1089L324.3069 130.9839L324.3069 130.9839L241.803 130.9839z" /></clipPath><clipPath id="7"><path id="" clip-rule="evenodd" transform="matrix(1 0 0 1 0 0)" d="M141.662 267.1089L324.307 267.1089L324.307 267.1089L324.307 130.9839L324.307 130.9839L141.662 130.9839z" /></clipPath><clipPath id="8"><path id="" clip-rule="evenodd" transform="matrix(1 0 0 1 0 0)" d="M167.967 146.149L186.585 146.149L186.585 146.149L186.585 143.0572L186.585 143.0572L167.967 143.0572z" /></clipPath><clipPath id="9"><path id="" clip-rule="evenodd" transform="matrix(1 0 0 1 0 0)" d="M167.967 146.149L186.585 146.149L186.585 146.149L186.585 143.0569L186.585 143.0569L167.967 143.0569z" /></clipPath><clipPath id="10"><path id="" clip-rule="evenodd" transform="matrix(1 0 0 1 0 0)" d="M167.967 146.149L186.585 146.149L186.585 146.149L186.585 143.0572L186.585 143.0572L167.967 143.0572z" /></clipPath><clipPath id="11"><path id="" clip-rule="evenodd" transform="matrix(1 0 0 1 0 0)" d="M359.851 168.059L388.1198 168.059L388.1198 168.059L388.1198 111.1422L388.1198 111.1422L359.851 111.1422z" /></clipPath><clipPath id="12"><path id="" clip-rule="evenodd" transform="matrix(1 0 0 1 0 0)" d="M359.851 168.059L388.1198 168.059L388.1198 168.059L388.1198 111.1422L388.1198 111.1422L359.851 111.1422z" /></clipPath><clipPath id="13"><path id="" clip-rule="evenodd" transform="matrix(1 0 0 1 0 0)" d="M109.583 176.481L135.1791 176.481L135.1791 176.481L135.1791 140.622L135.1791 140.622L109.583 140.622z" /></clipPath><clipPath id="14"><path id="" clip-rule="evenodd" transform="matrix(1 0 0 1 0 0)" d="M109.583 176.481L135.1791 176.481L135.1791 176.481L135.1791 140.622L135.1791 140.622L109.583 140.622z" /></clipPath><clipPath id="15"><path id="" clip-rule="evenodd" transform="matrix(1 0 0 1 0 0)" d="M317.079 176.481L342.6763 176.481L342.6763 176.481L342.6763 140.622L342.6763 140.622L317.079 140.622z" /></clipPath><clipPath id="16"><path id="" clip-rule="evenodd" transform="matrix(1 0 0 1 0 0)" d="M317.079 176.481L342.6763 176.481L342.6763 176.481L342.6763 140.622L342.6763 140.622L317.079 140.622z" /></clipPath><clipPath id="17"><path id="" clip-rule="evenodd" transform="matrix(1 0 0 1 0 0)" d="M161.722 486.905L261.3822 486.905L261.3822 486.905L261.3822 350.669L261.3822 350.669L161.722 350.669z" /></clipPath><clipPath id="18"><path id="" clip-rule="evenodd" transform="matrix(1 0 0 1 0 0)" d="M161.722 486.905L261.3822 486.905L261.3822 486.905L261.3822 350.669L261.3822 350.669L161.722 350.669z" /></clipPath><clipPath id="19"><path id="" clip-rule="evenodd" transform="matrix(1 0 0 1 0 0)" d="M161.722 487.299L339.142 487.299L339.142 487.299L339.142 350.669L339.142 350.669L161.722 350.669z" /></clipPath><clipPath id="20"><path id="" clip-rule="evenodd" transform="matrix(1 0 0 1 0 0)" d="M258.296 421.58L258.296 467.558C 266.082 479.03 279.531 486.61 294.816 486.61L294.816 486.61L294.816 486.61C 309.437 486.61 322.377 479.675 330.289 469.029L330.289 469.029L330.289 469.029L330.289 469.029L330.289 420.108C 322.377 409.463 309.437 402.527 294.816 402.527L294.816 402.527L294.816 402.527C 279.531 402.527 266.082 410.107 258.296 421.58" /></clipPath><clipPath id="21"><path id="" clip-rule="evenodd" transform="matrix(1 0 0 1 0 0)" d="M258.296 421.58L258.296 467.558C 266.082 479.03 279.531 486.61 294.816 486.61L294.816 486.61L294.816 486.61C 309.437 486.61 322.377 479.675 330.289 469.029L330.289 469.029L330.289 469.029L330.289 469.029L330.289 420.108C 322.377 409.463 309.437 402.527 294.816 402.527L294.816 402.527L294.816 402.527C 279.531 402.527 266.082 410.107 258.296 421.58" /></clipPath><clipPath id="22"><path id="" clip-rule="evenodd" transform="matrix(1 0 0 1 0 0)" d="M161.722 487.299L339.142 487.299L339.142 487.299L339.142 350.669L339.142 350.669L161.722 350.669z" /></clipPath><clipPath id="23"><path id="" clip-rule="evenodd" transform="matrix(1 0 0 1 0 0)" d="M352.796 383.221L395.1718 383.221L395.1718 383.221L395.1718 337.987L395.1718 337.987L352.796 337.987z" /></clipPath><clipPath id="24"><path id="" clip-rule="evenodd" transform="matrix(1 0 0 1 0 0)" d="M352.796 383.221L395.1718 383.221L395.1718 383.221L395.1718 337.987L395.1718 337.987L352.796 337.987z" /></clipPath><clipPath id="25"><path id="" clip-rule="evenodd" transform="matrix(1 0 0 1 0 0)" d="M136.569 395.144L162.1659 395.144L162.1659 395.144L162.1659 359.285L162.1659 359.285L136.569 359.285z" /></clipPath><clipPath id="26"><path id="" clip-rule="evenodd" transform="matrix(1 0 0 1 0 0)" d="M136.569 395.144L162.1659 395.144L162.1659 395.144L162.1659 359.285L162.1659 359.285L136.569 359.285z" /></clipPath><clipPath id="27"><path id="" clip-rule="evenodd" transform="matrix(1 0 0 1 0 0)" d="M261.661 395.144L287.2583 395.144L287.2583 395.144L287.2583 359.285L287.2583 359.285L261.661 359.285z" /></clipPath><clipPath id="28"><path id="" clip-rule="evenodd" transform="matrix(1 0 0 1 0 0)" d="M261.661 395.144L287.2583 395.144L287.2583 395.144L287.2583 359.285L287.2583 359.285L261.661 359.285z" /></clipPath><clipPath id="29"><path id="" clip-rule="evenodd" transform="matrix(1 0 0 1 0 0)" d="M166.659 706.626L279.239 706.626L279.239 706.626L279.239 557.976L279.239 557.976L166.659 557.976z" /></clipPath><clipPath id="30"><path id="" clip-rule="evenodd" transform="matrix(1 0 0 1 0 0)" d="M166.659 706.626L279.239 706.626L279.239 706.626L279.239 557.976L279.239 557.976L166.659 557.976z" /></clipPath><clipPath id="31"><path id="" clip-rule="evenodd" transform="matrix(1 0 0 1 0 0)" d="M166.659 707.41L352.796 707.41L352.796 707.41L352.796 557.977L352.796 557.977L166.659 557.977z" /></clipPath><clipPath id="32"><path id="" clip-rule="evenodd" transform="matrix(1 0 0 1 0 0)" d="M177.107 639.202L185.8109 639.202L185.8109 639.202L185.8109 631.954L185.8109 631.954L177.107 631.954z" /></clipPath><clipPath id="33"><path id="" clip-rule="evenodd" transform="matrix(1 0 0 1 0 0)" d="M177.107 639.202L185.811 639.202L185.811 639.202L185.811 631.954L185.811 631.954L177.107 631.954z" /></clipPath><clipPath id="34"><path id="" clip-rule="evenodd" transform="matrix(1 0 0 1 0 0)" d="M177.107 639.202L185.8109 639.202L185.8109 639.202L185.8109 631.954L185.8109 631.954L177.107 631.954z" /></clipPath><clipPath id="35"><path id="" clip-rule="evenodd" transform="matrix(1 0 0 1 0 0)" d="M166.659 707.41L352.796 707.41L352.796 707.41L352.796 557.977L352.796 557.977L166.659 557.977z" /></clipPath><clipPath id="36"><path id="" clip-rule="evenodd" transform="matrix(1 0 0 1 0 0)" d="M280.175 630.988C 277.66 633.203 275.403 635.707 273.458 638.445L273.458 638.445L273.458 638.445L273.458 638.445L273.458 688.401C 281.296 699.437 294.19 706.642 308.767 706.642L308.767 706.642L308.767 706.642C 324.778 706.642 338.755 697.954 346.236 685.038L346.236 685.038L346.236 685.038L346.236 685.038L346.236 641.808C 343.877 637.734 340.87 634.08 337.358 630.988L337.358 630.988L337.358 630.988z" /></clipPath><clipPath id="37"><path id="" clip-rule="evenodd" transform="matrix(1 0 0 1 0 0)" d="M280.175 630.988C 277.66 633.203 275.403 635.707 273.458 638.445L273.458 638.445L273.458 638.445L273.458 638.445L273.458 688.401C 281.296 699.437 294.19 706.642 308.767 706.642L308.767 706.642L308.767 706.642C 324.778 706.642 338.755 697.954 346.236 685.038L346.236 685.038L346.236 685.038L346.236 685.038L346.236 641.808C 343.877 637.734 340.87 634.08 337.358 630.988L337.358 630.988L337.358 630.988z" /></clipPath><clipPath id="38"><path id="" clip-rule="evenodd" transform="matrix(1 0 0 1 0 0)" d="M166.659 707.41L352.796 707.41L352.796 707.41L352.796 557.977L352.796 557.977L166.659 557.977z" /></clipPath><clipPath id="39"><path id="" clip-rule="evenodd" transform="matrix(1 0 0 1 0 0)" d="M354.851 608.563L393.119 608.563L393.119 608.563L393.119 551.6462L393.119 551.6462L354.851 551.6462z" /></clipPath><clipPath id="40"><path id="" clip-rule="evenodd" transform="matrix(1 0 0 1 0 0)" d="M354.851 608.563L393.119 608.563L393.119 608.563L393.119 551.6462L393.119 551.6462L354.851 551.6462z" /></clipPath><clipPath id="41"><path id="" clip-rule="evenodd" transform="matrix(1 0 0 1 0 0)" d="M136.569 630.449L162.1659 630.449L162.1659 630.449L162.1659 594.5912L162.1659 594.5912L136.569 594.5912z" /></clipPath><clipPath id="42"><path id="" clip-rule="evenodd" transform="matrix(1 0 0 1 0 0)" d="M136.569 630.449L162.1659 630.449L162.1659 630.449L162.1659 594.5912L162.1659 594.5912L136.569 594.5912z" /></clipPath><clipPath id="43"><path id="" clip-rule="evenodd" transform="matrix(1 0 0 1 0 0)" d="M136.569 672.827L162.1659 672.827L162.1659 672.827L162.1659 636.968L162.1659 636.968L136.569 636.968z" /></clipPath><clipPath id="44"><path id="" clip-rule="evenodd" transform="matrix(1 0 0 1 0 0)" d="M136.569 672.827L162.1659 672.827L162.1659 672.827L162.1659 636.968L162.1659 636.968L136.569 636.968z" /></clipPath></defs><g transform="matrix(1.333333 0 0 1.333333 0 0)"><g clip-path="url(#1)"><g clip-path="url(#2)"><path id="1" transform="matrix(1 0 0 -1 0 834)" d="M91.866 67.4211L562.134 67.4211L562.134 74.92501L91.866 74.92501z" stroke="none" fill="#686868" fill-rule="nonzero" /><path id="2" transform="matrix(1 0 0 -1 0 834)" d="M91.866 526.984L562.134 526.984" stroke="#686868" stroke-width="1" fill="none" /><path id="3" transform="matrix(1 0 0 -1 0 834)" d="M91.866 307.016L562.134 307.016" stroke="#686868" stroke-width="1" fill="none" /></g><g clip-path="url(#3)"></g><g clip-path="url(#4)"><g transform="matrix(1.00615 0 0 0.9999339 143.989 131.1179)"><g transform="matrix(1 0 0 1 0 0)"><image x="0" y="0" xlink:href="img_01.png" width="82" height="136" /></g></g></g><g clip-path="url(#5)"></g><g clip-path="url(#6)"><g transform="matrix(1.00615 0 0 1.000416 241.803 130.0519)"><g transform="matrix(1 0 0 1 0 0)"><image x="0" y="0" xlink:href="img_02.png" width="82" height="137" /></g></g></g><g clip-path="url(#7)"><path id="9" transform="matrix(1 0 0 -1 0 834)" d="M170.811 689.937C 168.883 689.5161 166.037 688.783 162.758 687.582C 157.473 685.647 150.095 682.095 144.367 676.051L144.367 676.051L143.368 677.787L143.368 677.787L141.661 671.66L141.661 671.66L147.398 674.755L147.398 674.755L145.478 675.249C 151.001 681.032 158.11 684.452 163.214 686.325C 164.938 686.957 166.55 687.459 167.967 687.851" stroke="none" fill="#000000" fill-rule="nonzero" /><path id="10" transform="matrix(1 0 0 -1 0 834)" d="M185.785 690.763C 188.718 690.522 191.547 690.041 194.259 689.321C 199.354 687.968 204.043 685.773 208.197 682.796C 215.279 677.72 218.309 672.2 218.434 671.967L218.434 671.967L217.211 671.351L217.211 671.351L217.211 671.352C 217.167 671.431 214.154 676.884 207.32 681.765C 202.844 684.962 196.026 688.372 186.585 689.338L186.585 689.338L185.785 690.717" stroke="none" fill="#000000" fill-rule="nonzero" /></g><g clip-path="url(#8)"><g><g clip-path="url(#9)"><g clip-path="url(#10)"><path id="11" transform="matrix(1 0 0 -1 0 834)" d="M185.785 690.763C 181.845 691.086 177.718 690.975 173.44 690.428C 173.354 690.416 172.39 690.281 170.812 689.936L170.812 689.936L167.968 687.851C 171.338 688.785 173.6 689.105 173.627 689.109C 178.401 689.718 182.714 689.734 186.585 689.338" stroke="none" fill="#FFFFFF" fill-rule="nonzero" fill-opacity="0.8" /></g></g></g></g><g clip-path="url(#11)"></g><g clip-path="url(#12)"><g transform="matrix(1.009614 0 0 0.9985386 359.85 111.1413)"><g transform="matrix(1 0 0 1 0 0)"><image x="0" y="0" xlink:href="img_03.png" width="28" height="57" /></g></g></g><g clip-path="url(#13)"></g><g clip-path="url(#14)"><g transform="matrix(1.022789 0 0 0.9967948 108.575 139.6088)"><g transform="matrix(1 0 0 1 0 0)"><image x="0" y="0" xlink:href="img_04.png" width="27" height="38" /></g></g></g><g clip-path="url(#15)"></g><g clip-path="url(#16)"><g transform="matrix(-1.022789 0 0 0.9967948 343.683 139.6088)"><g transform="matrix(1 0 0 1 0 0)"><image x="0" y="0" xlink:href="img_04.png" width="27" height="38" /></g></g></g><g clip-path="url(#17)"></g><g clip-path="url(#18)"><g transform="matrix(1.006674 0 0 1.001735 161.721 350.67)"><g transform="matrix(1 0 0 1 0 0)"><image x="0" y="0" xlink:href="img_05.png" width="99" height="136" /></g></g></g><g clip-path="url(#19)"><path id="65" transform="matrix(1 0 0 -1 0 834)" d="M251.204 389.43C 251.204 366.211 270.729 347.389 294.815 347.389C 318.901 347.389 338.427 366.211 338.427 389.43C 338.427 412.649 318.901 431.471 294.815 431.471C 270.729 431.471 251.204 412.649 251.204 389.43" stroke="none" fill="#FFFFFF" fill-rule="nonzero" /></g><g clip-path="url(#20)"></g><g clip-path="url(#21)"><g transform="matrix(0.9999167 0 0 1.004244 258.295 400.5981)"><g transform="matrix(1 0 0 1 0 0)"><image x="0" y="0" xlink:href="img_06.png" width="72" height="98" /></g></g></g><g clip-path="url(#22)"><path id="67" transform="matrix(1 0 0 -1 0 834)" d="M251.2027 389.4301C 251.2027 366.2116 270.7292 347.3891 294.8147 347.3891C 318.9002 347.3891 338.4257 366.2116 338.4257 389.4301C 338.4257 412.6495 318.9002 431.471 294.8147 431.471C 270.7292 431.471 251.2027 412.6495 251.2027 389.4301z" stroke="#000000" stroke-width="0.7941976" fill="none" /><path id="68" transform="matrix(1 0 0 -1 0 834)" d="M230.171 437.423C 230.13 437.423 230.089 437.418 230.048 437.415C 230.095 437.419 230.142 437.421 230.189 437.421C 230.184 437.421 230.177 437.423 230.171 437.423" stroke="none" fill="#383838" fill-rule="nonzero" /><path id="69" transform="matrix(1 0 0 -1 0 834)" d="M228.795 413.838C 227.469 415.691 226.565 419.366 226.565 423.598C 226.565 428.034 227.557 431.856 228.988 433.613C 228.656 433.944 228.306 434.216 227.94 434.42C 228.265 434.669 228.605 434.819 228.958 434.853C 226.696 434.697 224.88 429.818 224.88 423.818C 224.88 417.82 226.695 412.942 228.955 412.783C 228.604 412.817 228.264 412.967 227.94 413.216C 228.235 413.38 228.521 413.589 228.795 413.838" stroke="none" fill="#FFFFFF" fill-rule="nonzero" /><path id="70" transform="matrix(1 0 0 -1 0 834)" d="M233.298 423.869C 233.298 429.935 231.423 434.853 229.11 434.853C 229.102 434.853 229.094 434.852 229.086 434.852C 229.048 434.851 229.011 434.85 228.973 434.846C 228.967 434.846 228.961 434.846 228.954 434.845C 228.603 434.811 228.263 434.662 227.939 434.415C 228.235 434.251 228.52 434.043 228.794 433.796C 230.404 432.341 231.603 429.504 231.971 426.089L231.971 426.089L231.961 426.087C 232.043 425.355 232.088 424.596 232.089 423.818C 232.088 423.04 232.043 422.281 231.961 421.549L231.961 421.549L231.971 421.547C 231.603 418.132 230.404 415.295 228.794 413.84C 228.52 413.593 228.235 413.385 227.939 413.221C 228.263 412.974 228.603 412.825 228.954 412.791C 228.961 412.79 228.967 412.79 228.973 412.79C 229.011 412.787 229.048 412.785 229.086 412.784C 229.094 412.784 229.102 412.783 229.11 412.783C 231.423 412.783 233.298 417.701 233.298 423.767C 233.298 423.784 233.297 423.801 233.297 423.818C 233.297 423.835 233.298 423.852 233.298 423.869" stroke="none" fill="#FFFFFF" fill-rule="nonzero" /><path id="71" transform="matrix(1 0 0 -1 0 834)" d="M228.795 413.838C 227.469 415.691 226.565 419.366 226.565 423.598C 226.565 428.034 227.557 431.856 228.988 433.613C 228.656 433.944 228.306 434.216 227.94 434.42C 228.265 434.669 228.605 434.819 228.958 434.853C 226.696 434.697 224.88 429.818 224.88 423.818C 224.88 417.82 226.695 412.942 228.955 412.783C 228.604 412.817 228.264 412.967 227.94 413.216C 228.235 413.38 228.521 413.589 228.795 413.838" stroke="none" fill="#FFFFFF" fill-rule="nonzero" /><path id="72" transform="matrix(1 0 0 -1 0 834)" d="M228.7943 413.8383C 227.4684 415.6917 226.5652 419.3671 226.5652 423.5981C 226.5652 428.0332 227.5571 431.8559 228.9878 433.612C 228.6558 433.9449 228.3055 434.2168 227.9399 434.421C 228.2648 434.6683 228.6049 434.8195 228.9573 434.8539C 226.6955 434.6968 224.8799 429.8179 224.8799 423.8179C 224.8799 417.82 226.6935 412.941 228.9542 412.784C 228.6029 412.8164 228.2638 412.9676 227.9389 413.2159C 228.2342 413.3808 228.5204 413.5899 228.7943 413.8383z" stroke="#000000" stroke-width="0.1588391" fill="none" /><path id="73" transform="matrix(1 0 0 -1 0 834)" d="M233.298 423.869C 233.298 429.935 231.423 434.853 229.11 434.853C 229.102 434.853 229.094 434.852 229.086 434.852C 229.048 434.851 229.011 434.85 228.973 434.846C 228.967 434.846 228.961 434.846 228.954 434.845C 228.603 434.811 228.263 434.662 227.939 434.415C 228.235 434.251 228.52 434.043 228.794 433.796C 230.404 432.341 231.603 429.504 231.971 426.089L231.971 426.089L231.961 426.087C 232.043 425.355 232.088 424.596 232.089 423.818C 232.088 423.04 232.043 422.281 231.961 421.549L231.961 421.549L231.971 421.547C 231.603 418.132 230.404 415.295 228.794 413.84C 228.52 413.593 228.235 413.385 227.939 413.221C 228.263 412.974 228.603 412.825 228.954 412.791C 228.961 412.79 228.967 412.79 228.973 412.79C 229.011 412.787 229.048 412.785 229.086 412.784C 229.094 412.784 229.102 412.783 229.11 412.783C 231.423 412.783 233.298 417.701 233.298 423.767C 233.298 423.784 233.297 423.801 233.297 423.818C 233.297 423.835 233.298 423.852 233.298 423.869" stroke="none" fill="#FFFFFF" fill-rule="nonzero" /><path id="74" transform="matrix(1 0 0 -1 0 834)" d="M233.2974 423.868C 233.2974 429.9347 231.4216 434.8539 229.109 434.8539C 229.1008 434.8539 229.0937 434.8519 229.0856 434.8519C 229.0479 434.8519 229.0102 434.8499 228.9725 434.846C 228.9664 434.846 228.9603 434.846 228.9542 434.846C 228.6029 434.8117 228.2627 434.6624 227.9389 434.4141C 228.2342 434.2511 228.5194 434.044 228.7933 433.7956C 230.4033 432.3398 231.6029 429.5048 231.9705 426.0905L231.9705 426.0905L231.9603 426.0876C 232.0428 425.3562 232.0866 424.5964 232.0886 423.8179C 232.0866 423.0395 232.0428 422.2816 231.9603 421.5493L231.9603 421.5493L231.9705 421.5473C 231.6029 418.1321 230.4033 415.2961 228.7933 413.8403C 228.5194 413.5938 228.2342 413.3848 227.9389 413.2218C 228.2627 412.9734 228.6029 412.8242 228.9542 412.7918C 228.9603 412.7909 228.9664 412.7909 228.9725 412.7909C 229.0102 412.787 229.0479 412.784 229.0856 412.784C 229.0937 412.784 229.1008 412.784 229.109 412.784C 231.4216 412.784 233.2974 417.7011 233.2974 423.7679C 233.2974 423.7836 233.2963 423.8022 233.2963 423.8179C 233.2963 423.8356 233.2974 423.8523 233.2974 423.868z" stroke="#000000" stroke-width="0.1588391" fill="none" /><path id="75" transform="matrix(1 0 0 -1 0 834)" d="M225.3 428.214L225.118 427.85L225.118 427.85L223.261 424.135L223.261 424.135L225.066 424.773C 225.065 424.771 225.064 424.768 225.064 424.766L225.064 424.766L225.07 424.782L225.07 424.782L225.265 424.779L225.265 424.779L226.462 424.758C 226.463 424.76 226.463 424.762 226.463 424.763L226.463 424.763L226.508 424.743L226.508 424.743L228.33 423.891L228.33 423.891L226.698 428.208L226.698 428.208L226.095 429.804" stroke="none" fill="#FFFFFF" fill-rule="nonzero" /><path id="76" transform="matrix(1 0 0 -1 0 834)" d="M197.277 411.595C 198.603 413.448 199.507 417.123 199.507 421.355C 199.507 425.791 198.514 429.613 197.084 431.369C 197.416 431.701 197.766 431.973 198.132 432.177C 197.807 432.425 197.466 432.575 197.114 432.609C 199.376 432.454 201.192 427.575 201.192 421.574C 201.192 415.576 199.377 410.698 197.117 410.54C 197.468 410.574 197.808 410.724 198.132 410.972C 197.837 411.137 197.551 411.346 197.277 411.595" stroke="none" fill="#FFFFFF" fill-rule="nonzero" /><path id="77" transform="matrix(1 0 0 -1 0 834)" d="M197.277 411.5952C 198.6029 413.4476 199.5061 417.123 199.5061 421.3559C 199.5061 425.7911 198.5143 429.6137 197.0835 431.3699C 197.4155 431.7007 197.7658 431.9727 198.1314 432.1769C 197.8065 432.4262 197.4664 432.5754 197.1141 432.6098C 199.3758 432.4547 201.1915 427.5758 201.1915 421.5749C 201.1915 415.5768 199.3768 410.6989 197.1171 410.5409C 197.4674 410.5742 197.8075 410.7235 198.1314 410.9718C 197.8361 411.1367 197.5509 411.3448 197.277 411.5952z" stroke="#000000" stroke-width="0.1588391" fill="none" /><path id="78" transform="matrix(1 0 0 -1 0 834)" d="M192.774 421.624C 192.774 427.69 194.65 432.608 196.963 432.608C 196.97 432.608 196.978 432.607 196.986 432.607C 197.024 432.606 197.061 432.605 197.099 432.602C 197.105 432.601 197.111 432.601 197.118 432.6C 197.469 432.566 197.809 432.417 198.133 432.17C 197.838 432.007 197.552 431.798 197.278 431.551C 195.668 430.096 194.469 427.259 194.101 423.845L194.101 423.845L194.111 423.843C 194.029 423.111 193.984 422.352 193.982 421.573C 193.984 420.795 194.029 420.036 194.111 419.304L194.111 419.304L194.101 419.302C 194.469 415.887 195.668 413.05 197.278 411.595C 197.552 411.348 197.838 411.14 198.133 410.977C 197.809 410.73 197.469 410.58 197.118 410.546C 197.111 410.546 197.105 410.545 197.099 410.545C 197.061 410.542 197.024 410.54 196.986 410.54C 196.978 410.539 196.97 410.538 196.963 410.538C 194.65 410.538 192.774 415.456 192.774 421.523C 192.774 421.539 192.775 421.556 192.775 421.573C 192.775 421.59 192.774 421.607 192.774 421.624" stroke="none" fill="#FFFFFF" fill-rule="nonzero" /><path id="79" transform="matrix(1 0 0 -1 0 834)" d="M192.7739 421.6249C 192.7739 427.6906 194.6487 432.6078 196.9623 432.6078C 196.9695 432.6078 196.9776 432.6078 196.9858 432.6078C 197.0234 432.6058 197.0611 432.6039 197.0988 432.6019C 197.1049 432.6019 197.111 432.6019 197.1171 432.5999C 197.4684 432.5656 197.8086 432.4164 198.1324 432.171C 197.8371 432.007 197.5519 431.7989 197.278 431.5515C 195.667 430.0957 194.4684 427.2597 194.0998 423.8454L194.0998 423.8454L194.11 423.8435C 194.0285 423.1101 193.9837 422.3523 193.9817 421.5739C 193.9837 420.7953 194.0285 420.0356 194.11 419.3042L194.11 419.3042L194.0998 419.3022C 194.4684 415.887 195.667 413.051 197.278 411.5962C 197.5519 411.3488 197.8371 411.1407 198.1324 410.9757C 197.8086 410.7303 197.4684 410.5811 197.1171 410.5468C 197.111 410.5468 197.1049 410.5458 197.0988 410.5458C 197.0611 410.5428 197.0234 410.5409 196.9858 410.5409C 196.9776 410.5399 196.9695 410.5379 196.9623 410.5379C 194.6487 410.5379 192.7739 415.4571 192.7739 421.5219C 192.7739 421.5405 192.775 421.5562 192.775 421.5739C 192.775 421.5905 192.7739 421.6063 192.7739 421.6249z" stroke="#000000" stroke-width="0.1588391" fill="none" /><path id="80" transform="matrix(1 0 0 -1 0 834)" d="M201.037 419.035L201.152 418.645L201.152 418.645L202.327 414.68L202.327 414.68L200.661 415.605C 200.661 415.603 200.661 415.6 200.661 415.598L200.661 415.598L200.658 415.615L200.658 415.615L200.465 415.644L200.465 415.644L199.282 415.82C 199.282 415.821 199.282 415.823 199.282 415.825L199.282 415.825L199.234 415.811L199.234 415.811L197.289 415.271L197.289 415.271L199.658 419.258L199.658 419.258L200.534 420.732" stroke="none" fill="#FFFFFF" fill-rule="nonzero" /></g><g clip-path="url(#23)"></g><g clip-path="url(#24)"><g transform="matrix(1.008969 0 0 1.005193 352.797 337.9873)"><g transform="matrix(1 0 0 1 0 0)"><image x="0" y="0" xlink:href="img_07.png" width="42" height="45" /></g></g></g><g clip-path="url(#25)"></g><g clip-path="url(#26)"><g transform="matrix(1.022789 0 0 0.9967948 135.561 358.2718)"><g transform="matrix(1 0 0 1 0 0)"><image x="0" y="0" xlink:href="img_04.png" width="27" height="38" /></g></g></g><g clip-path="url(#27)"></g><g clip-path="url(#28)"><g transform="matrix(-1.022789 0 0 0.9967948 288.265 358.2718)"><g transform="matrix(1 0 0 1 0 0)"><image x="0" y="0" xlink:href="img_04.png" width="27" height="38" /></g></g></g><g clip-path="url(#29)"></g><g clip-path="url(#30)"><g transform="matrix(1.005188 0 0 1.003727 166.659 541.565)"><g transform="matrix(1 0 0 1 0 0)"><image x="0" y="0" xlink:href="img_08.png" width="112" height="187" /></g></g></g><g clip-path="url(#31)"><path id="186" transform="matrix(1 0 0 -1 0 834)" d="M192.748 201.506L198.036 202.306C 198.036 202.306 197.555 193.181 189.222 194.302C 189.222 194.302 191.786 193.821 192.748 201.506" stroke="none" fill="#CCCCCC" fill-rule="nonzero" /><path id="187" transform="matrix(1 0 0 -1 0 834)" d="M178.004 195.743L183.934 197.504C 183.934 197.504 185.575 192.919 195.086 195.77C 195.086 195.77 186.751 187.084 178.004 195.743" stroke="none" fill="#000000" fill-rule="nonzero" /><path id="188" transform="matrix(1 0 0 -1 0 834)" d="M178.0032 195.7425L183.9331 197.5046C 183.9331 197.5046 185.5749 192.9198 195.0835 195.7694C 195.0835 195.7694 186.7495 187.0847 178.0032 195.7425z" stroke="#F6F6F6" stroke-width="0.3416413" fill="none" /></g><g clip-path="url(#32)"><g><g clip-path="url(#33)"><g clip-path="url(#34)"><path id="189" transform="matrix(1 0 0 -1 0 834)" d="M182.212 196.687L185.408 197.343L179.566 201.766L177.379 195.084L179.947 196.07" stroke="none" fill="#000000" fill-rule="nonzero" /><path id="190" transform="matrix(1 0 0 -1 0 834)" d="M182.2112 196.687L185.4058 197.3437L185.4058 197.3437L179.5639 201.7655L179.5639 201.7655L177.3769 195.0848L177.3769 195.0848L179.9461 196.0703" stroke="#F6F6F6" stroke-width="0.3416413" fill="none" /></g></g></g></g><g clip-path="url(#35)"><path id="191" transform="matrix(1 0 0 -1 0 834)" d="M352.029 170.577C 352.029 146.708 332.661 127.358 308.768 127.358C 284.875 127.358 265.506 146.708 265.506 170.577C 265.506 194.446 284.875 213.795 308.768 213.795C 332.661 213.795 352.029 194.446 352.029 170.577" stroke="none" fill="#FFFFFF" fill-rule="nonzero" /></g><g clip-path="url(#36)"></g><g clip-path="url(#37)"><g transform="matrix(0.9969741 0 0 1.006584 273.458 621.0424)"><g transform="matrix(1 0 0 1 0 0)"><image x="0" y="0" xlink:href="img_09.png" width="73" height="113" /></g></g></g><g clip-path="url(#38)"><path id="193" transform="matrix(1 0 0 -1 0 834)" d="M352.0264 170.5769C 352.0264 146.7076 332.6579 127.3582 308.7652 127.3582C 284.8725 127.3582 265.504 146.7076 265.504 170.5769C 265.504 194.4461 284.8725 213.7955 308.7652 213.7955C 332.6579 213.7955 352.0264 194.4461 352.0264 170.5769z" stroke="#000000" stroke-width="0.8541033" fill="none" /></g><g clip-path="url(#39)"></g><g clip-path="url(#40)"><g transform="matrix(1.007045 0 0 1.008441 354.851 550.8594)"><g transform="matrix(1 0 0 1 0 0)"><image x="0" y="0" xlink:href="img_10.png" width="38" height="58" /></g></g></g><g clip-path="url(#41)"></g><g clip-path="url(#42)"><g transform="matrix(1.022789 0 0 0.9967948 135.56 593.5778)"><g transform="matrix(1 0 0 1 0 0)"><image x="0" y="0" xlink:href="img_11.png" width="27" height="38" /></g></g></g><g clip-path="url(#43)"></g><g clip-path="url(#44)"><g transform="matrix(1.022789 0 0 0.9967948 135.551 635.9548)"><g transform="matrix(1 0 0 1 0 0)"><image x="0" y="0" xlink:href="img_12.png" width="27" height="38" /></g></g></g><path id="1385" transform="matrix(1 0 0 -1 0 834)" d="M633 15L633 0M633 819L633 834M21 15L21 0M21 819L21 834M639 21L654 21M15 21L0 21M639 813L654 813M15 813L0 813" stroke="#000000" stroke-width="1.25" fill="none" /><path id="1386" transform="matrix(1 0 0 -1 0 834)" d="M633 15L633 0M633 819L633 834M21 15L21 0M21 819L21 834M639 21L654 21M15 21L0 21M639 813L654 813M15 813L0 813" stroke="#000000" stroke-width="0.25" fill="none" /><path id="1387" transform="matrix(1 0 0 -1 0 834)" d="M32.2781 9.28203C 32.2781 9.516021 32.2961 9.58203 32.3559 9.62383C 32.416 9.66602 32.5719 9.69609 32.8238 9.69609C 33.2262 9.69609 33.5738 9.62383 33.8441 9.45C 34.3238 9.167971 34.552 8.63398 34.552 8.016021C 34.552 7.05586 34.0359 6.21602 32.9141 6.21602C 32.4762 6.21602 32.2781 6.33008 32.2781 6.78594zM31.252 9.900001L31.252 9.726171C 31.7141 9.68984 31.7621 9.66602 31.7621 9.150001L31.7621 9.150001L31.7621 6.74414C 31.7621 6.23398 31.7141 6.19805 31.198 6.16211L31.198 6.16211L31.198 6L31.198 6L32.6199 6C 33.3578 6 33.952 6.15 34.402 6.49805C 34.8641 6.84609 35.1398 7.38008 35.1398 8.1C 35.1398 8.664061 34.9301 9.101951 34.6359 9.38984C 34.2641 9.74414 33.7 9.900001 32.9379 9.900001z" stroke="#000000" stroke-width="0.4" fill="none" /><path id="1388" transform="matrix(1 0 0 -1 0 834)" d="M38.3801 6.97813C 38.2898 6.70195 38.1758 6.51016 38.0738 6.38984C 37.9359 6.23398 37.732 6.20391 37.402 6.20391C 37.15 6.20391 36.9461 6.21602 36.8258 6.28203C 36.718 6.34219 36.6879 6.46211 36.6879 6.78594L36.6879 6.78594L36.6879 9.15586C 36.6879 9.66602 36.7418 9.69609 37.216 9.73203L37.216 9.73203L37.216 9.900001L37.216 9.900001L35.65 9.900001L35.65 9.900001L35.65 9.73203C 36.1359 9.69609 36.1777 9.66602 36.1777 9.15586L36.1777 9.15586L36.1777 6.75586C 36.1777 6.24609 36.1301 6.20391 35.6258 6.16797L35.6258 6.16797L35.6258 6L35.6258 6L38.3438 6C 38.398 6.18594 38.5238 6.75586 38.5598 6.94219z" stroke="#000000" stroke-width="0.4" fill="none" /><path id="1389" transform="matrix(1 0 0 -1 0 834)" d="M41.0918 9.023829C 41.0438 9.40195 41.0141 9.63594 40.9898 9.851951C 40.7617 9.92383 40.5098 9.989841 40.234 9.989841C 39.4598 9.989841 38.998 9.49805 38.998 8.921881C 38.998 8.24414 39.6039 7.94414 39.9879 7.73984C 40.4379 7.5 40.768 7.28984 40.768 6.84609C 40.768 6.40781 40.498 6.12617 40.048 6.12617C 39.4301 6.12617 39.1598 6.73203 39.0641 7.09805L39.0641 7.09805L38.8898 7.05586C 38.9258 6.767971 39.0039 6.25195 39.052 6.12617C 39.1059 6.09609 39.1961 6.05391 39.3461 6C 39.4961 5.95781 39.6879 5.91016 39.934 5.91016C 40.732 5.91016 41.266 6.41406 41.266 7.04414C 41.266 7.71602 40.6961 7.99805 40.2277 8.23789C 39.7539 8.48398 39.466 8.68789 39.466 9.12617C 39.466 9.45 39.6699 9.78594 40.132 9.78594C 40.6539 9.78594 40.8098 9.371881 40.918 8.98789z" stroke="#000000" stroke-width="0.4" fill="none" /><path id="1390" transform="matrix(1 0 0 -1 0 834)" d="M46.648 6L46.648 6.16797C 46.1258 6.21602 46.1078 6.24609 46.0898 6.88203L46.0898 6.88203L46.0301 9.05391C 46.0117 9.671881 46.0539 9.68398 46.582 9.73203L46.582 9.73203L46.582 9.900001L46.582 9.900001L45.5617 9.900001L45.5617 9.900001L44.1758 6.9L44.1758 6.9L42.8078 9.900001L42.8078 9.900001L41.8238 9.900001L41.8238 9.900001L41.8238 9.73203C 42.3699 9.67813 42.4 9.653911 42.3461 8.87383L42.3461 8.87383L42.2617 7.626171C 42.2141 7.00195 42.1777 6.73789 42.148 6.528131C 42.1059 6.27617 41.9859 6.21016 41.6379 6.16797L41.6379 6.16797L41.6379 6L41.6379 6L43.0359 6L43.0359 6L43.0359 6.16797C 42.6398 6.21016 42.4961 6.25195 42.484 6.53984C 42.4777 6.78008 42.4777 7.04414 42.502 7.53594L42.502 7.53594L42.5918 9.24609L42.5918 9.24609L42.6039 9.24609L42.6039 9.24609L43.948 6.04219L43.948 6.04219L44.068 6.04219L44.068 6.04219L45.532 9.33008L45.532 9.33008L45.5559 9.33008L45.5559 9.33008L45.5738 6.88203C 45.5801 6.24609 45.5559 6.21602 45.0699 6.16797L45.0699 6.16797L45.0699 6z" stroke="#000000" stroke-width="0.4" fill="none" /><path id="1391" transform="matrix(1 0 0 -1 0 834)" d="M51.8738 7.05586C 51.5738 6.45586 51.2496 6.12617 50.6379 6.12617C 49.7258 6.12617 49.0656 6.89414 49.0656 8.016021C 49.0656 8.92813 49.5996 9.773829 50.602 9.773829C 51.2496 9.773829 51.6098 9.516021 51.7656 8.88008L51.7656 8.88008L51.9457 8.921881C 51.9098 9.24609 51.8738 9.48594 51.8258 9.828131C 51.6578 9.85781 51.2496 9.989841 50.7637 9.989841C 49.4258 9.989841 48.4539 9.15586 48.4539 7.89609C 48.4539 6.94219 49.1078 5.91016 50.602 5.91016C 51.034 5.91016 51.5379 6.03008 51.7059 6.07188C 51.8137 6.26992 51.9637 6.71406 52.0477 6.98984z" stroke="#000000" stroke-width="0.4" fill="none" /><path id="1392" transform="matrix(1 0 0 -1 0 834)" d="M54.3398 9.773829C 55.1258 9.773829 55.7855 9.101951 55.7855 7.83594C 55.7855 6.68398 55.1855 6.12617 54.5195 6.12617C 53.6738 6.12617 53.0559 6.94805 53.0559 8.076171C 53.0559 9.19805 53.6676 9.773829 54.3398 9.773829zM54.4598 9.989841C 53.1996 9.989841 52.4438 8.98789 52.4438 7.90781C 52.4438 6.75586 53.3078 5.91016 54.3938 5.91016C 55.4918 5.91016 56.3977 6.70195 56.3977 7.99805C 56.3977 9.19805 55.4797 9.989841 54.4598 9.989841z" stroke="#000000" stroke-width="0.4" fill="none" /><path id="1393" transform="matrix(1 0 0 -1 0 834)" d="M61.8277 6L61.8277 6.16797C 61.3059 6.21602 61.2879 6.24609 61.2695 6.88203L61.2695 6.88203L61.2098 9.05391C 61.1918 9.671881 61.2336 9.68398 61.7617 9.73203L61.7617 9.73203L61.7617 9.900001L61.7617 9.900001L60.7418 9.900001L60.7418 9.900001L59.3559 6.9L59.3559 6.9L57.9879 9.900001L57.9879 9.900001L57.0035 9.900001L57.0035 9.900001L57.0035 9.73203C 57.5496 9.67813 57.5797 9.653911 57.5258 8.87383L57.5258 8.87383L57.4418 7.626171C 57.3938 7.00195 57.3578 6.73789 57.3277 6.528131C 57.2855 6.27617 57.1656 6.21016 56.8176 6.16797L56.8176 6.16797L56.8176 6L56.8176 6L58.2156 6L58.2156 6L58.2156 6.16797C 57.8195 6.21016 57.6758 6.25195 57.6637 6.53984C 57.6578 6.78008 57.6578 7.04414 57.6816 7.53594L57.6816 7.53594L57.7719 9.24609L57.7719 9.24609L57.7836 9.24609L57.7836 9.24609L59.1277 6.04219L59.1277 6.04219L59.2477 6.04219L59.2477 6.04219L60.7117 9.33008L60.7117 9.33008L60.7355 9.33008L60.7355 9.33008L60.7535 6.88203C 60.7598 6.24609 60.7355 6.21602 60.2496 6.16797L60.2496 6.16797L60.2496 6z" stroke="#000000" stroke-width="0.4" fill="none" /><path id="1394" transform="matrix(1 0 0 -1 0 834)" d="M63.8258 6L63.8258 6.16797C 63.3336 6.20391 63.2855 6.23398 63.2855 6.75L63.2855 6.75L63.2855 9.150001C 63.2855 9.66016 63.3336 9.69609 63.8258 9.73203L63.8258 9.73203L63.8258 9.900001L63.8258 9.900001L62.2355 9.900001L62.2355 9.900001L62.2355 9.73203C 62.7277 9.69609 62.7758 9.66016 62.7758 9.150001L62.7758 9.150001L62.7758 6.75C 62.7758 6.23984 62.7277 6.20391 62.2355 6.16797L62.2355 6.16797L62.2355 6z" stroke="#000000" stroke-width="0.4" fill="none" /><path id="1395" transform="matrix(1 0 0 -1 0 834)" d="M66.5074 9.023829C 66.4598 9.40195 66.4297 9.63594 66.4055 9.851951C 66.1777 9.92383 65.9258 9.989841 65.6496 9.989841C 64.8758 9.989841 64.4137 9.49805 64.4137 8.921881C 64.4137 8.24414 65.0195 7.94414 65.4035 7.73984C 65.8535 7.5 66.1836 7.28984 66.1836 6.84609C 66.1836 6.40781 65.9137 6.12617 65.46371 6.12617C 64.8457 6.12617 64.5758 6.73203 64.4797 7.09805L64.4797 7.09805L64.3055 7.05586C 64.3418 6.767971 64.4195 6.25195 64.46761 6.12617C 64.52151 6.09609 64.6117 6.05391 64.7617 6C 64.91171 5.95781 65.1035 5.91016 65.3496 5.91016C 66.1477 5.91016 66.6816 6.41406 66.6816 7.04414C 66.6816 7.71602 66.1117 7.99805 65.6438 8.23789C 65.1695 8.48398 64.8816 8.68789 64.8816 9.12617C 64.8816 9.45 65.0855 9.78594 65.5477 9.78594C 66.0695 9.78594 66.2258 9.371881 66.3336 8.98789z" stroke="#000000" stroke-width="0.4" fill="none" /><path id="1396" transform="matrix(1 0 0 -1 0 834)" d="M69.4055 7.68008L68.3016 7.68008C 68.4816 8.171881 68.6734 8.69414 68.8656 9.21016L68.8656 9.21016L68.8777 9.21016zM70.9355 6L70.9355 6.16797C 70.5457 6.20391 70.46761 6.25781 70.2758 6.77383C 69.89181 7.81797 69.4895 8.95781 69.11761 9.989841L69.11761 9.989841L68.9316 9.93594L68.9316 9.93594L67.68951 6.78594C 67.4797 6.25781 67.3957 6.22188 67.0176 6.16797L67.0176 6.16797L67.0176 6L67.0176 6L68.3195 6L68.3195 6L68.3195 6.16797C 67.8695 6.21016 67.81561 6.26992 67.9477 6.64805C 68.0258 6.9 68.1156 7.15195 68.2117 7.42188L68.2117 7.42188L69.4895 7.42188C 69.62151 7.05586 69.74181 6.73203 69.8195 6.49805C 69.8977 6.26406 69.8438 6.21602 69.4656 6.16797L69.4656 6.16797L69.4656 6z" stroke="#000000" stroke-width="0.4" fill="none" /><path id="1397" transform="matrix(1 0 0 -1 0 834)" d="M71.7273 5.92813C 71.9195 5.92813 72.06371 6.06602 72.06371 6.27617C 72.06371 6.46797 71.9195 6.61797 71.7273 6.61797C 71.5355 6.61797 71.3914 6.46797 71.3914 6.27617C 71.3914 6.06602 71.5355 5.92813 71.7273 5.92813z" stroke="#000000" stroke-width="0.4" fill="none" /><path id="1398" transform="matrix(1 0 0 -1 0 834)" d="M73.9234 6L73.9234 6.15586C 73.53951 6.19219 73.4977 6.22813 73.4977 6.63594L73.4977 6.63594L73.4977 8.70586C 73.2336 8.59805 72.9516 8.51992 72.6453 8.471881L72.6453 8.471881L72.6453 8.328131C 73.0055 8.26797 73.0234 8.24414 73.0234 7.871881L73.0234 7.871881L73.0234 6.63594C 73.0234 6.22813 72.9816 6.19219 72.6035 6.15586L72.6035 6.15586L72.6035 6zM73.2215 9.216021C 73.3953 9.216021 73.52731 9.36016 73.52731 9.52188C 73.52731 9.70195 73.3953 9.83398 73.2273 9.83398C 73.06561 9.83398 72.9215 9.70195 72.9215 9.52188C 72.9215 9.36016 73.06561 9.216021 73.2215 9.216021z" stroke="#000000" stroke-width="0.4" fill="none" /><path id="1399" transform="matrix(1 0 0 -1 0 834)" d="M77.1574 6L77.1574 6.15586C 76.8094 6.19219 76.7793 6.21602 76.7793 6.62383L76.7793 6.62383L76.7793 7.78203C 76.7793 8.36406 76.4793 8.69414 76.0055 8.69414C 75.8313 8.69414 75.67541 8.621881 75.5074 8.51406C 75.3574 8.41211 75.2254 8.32188 75.1055 8.23203L75.1055 8.23203L75.1055 8.712111C 74.8414 8.59219 74.5594 8.51992 74.27151 8.466021L74.27151 8.466021L74.27151 8.328131C 74.5953 8.26797 74.6313 8.25 74.6313 7.86602L74.6313 7.86602L74.6313 6.62383C 74.6313 6.22813 74.6016 6.19805 74.19341 6.15586L74.19341 6.15586L74.19341 6L74.19341 6L75.4953 6L75.4953 6L75.4953 6.15586C 75.1414 6.19219 75.1055 6.21602 75.1055 6.62383L75.1055 6.62383L75.1055 8.03398C 75.2855 8.18984 75.5195 8.33984 75.7594 8.33984C 76.1613 8.33984 76.3055 8.069921 76.3055 7.65586L76.3055 7.65586L76.3055 6.65391C 76.3055 6.23984 76.2633 6.19219 75.9094 6.15586L75.9094 6.15586L75.9094 6z" stroke="#000000" stroke-width="0.4" fill="none" /><path id="1400" transform="matrix(1 0 0 -1 0 834)" d="M79.4734 6.51016C 79.32931 6.40195 79.1133 6.30586 78.8973 6.30586C 78.5133 6.30586 78.0754 6.65391 78.0754 7.36797C 78.0754 8.23789 78.57931 8.471881 78.8555 8.471881C 79.0832 8.471881 79.32931 8.37617 79.4734 8.16602zM80.4035 6.30586L80.2113 6.32383C 79.9895 6.34805 79.9473 6.37813 79.9473 6.68984L79.9473 6.68984L79.9473 10.2719C 79.7254 10.1941 79.3234 10.1039 79.0113 10.0621L79.0113 10.0621L79.0113 9.917971C 79.44341 9.88789 79.4734 9.869921 79.4734 9.47383L79.4734 9.47383L79.4734 8.628131C 79.3355 8.67617 79.1613 8.69414 79.0773 8.69414C 78.2613 8.69414 77.5293 8.03984 77.5293 7.20586C 77.5293 6.36602 78.1594 5.92813 78.6395 5.92813C 78.7113 5.92813 78.87341 5.96406 79.1074 6.10195L79.1074 6.10195L79.4734 6.31797L79.4734 6.31797L79.4734 5.92813C 79.8215 6.05391 80.27151 6.13203 80.4035 6.15586z" stroke="#000000" stroke-width="0.4" fill="none" /><path id="1401" transform="matrix(1 0 0 -1 0 834)" d="M81.3813 8.24414C 81.4895 8.310161 81.6813 8.35781 81.84921 8.35781C 82.34731 8.35781 82.7676 7.96211 82.7676 7.278131C 82.7676 6.58203 82.4492 6.15586 81.9516 6.15586C 81.6336 6.16211 81.4535 6.37188 81.4176 6.49219C 81.3934 6.54609 81.3813 6.60586 81.3813 6.69609zM81.3813 8.42383L81.3813 10.2719C 81.1594 10.1941 80.7934 10.098 80.5113 10.0621L80.5113 10.0621L80.5113 9.92383C 80.8953 9.88789 80.9074 9.851951 80.9074 9.48008L80.9074 9.48008L80.9074 6.14414C 81.2375 5.98789 81.5434 5.92813 81.78951 5.92813C 82.59341 5.92813 83.2953 6.55195 83.2953 7.43398C 83.2953 8.14219 82.7555 8.69414 82.1133 8.69414C 82.0473 8.69414 81.9633 8.67617 81.86761 8.63398z" stroke="#000000" stroke-width="0.4" fill="none" /><path id="1402" transform="matrix(1 0 0 -1 0 834)" d="M89.90701 6L89.90701 6.16211C 89.3613 6.20391 89.3254 6.25195 89.3254 6.68398L89.3254 6.68398L89.3254 9.810161C 88.9953 9.67813 88.641 9.56406 88.257 9.49805L88.257 9.49805L88.257 9.36016L88.257 9.36016L88.5453 9.34805C 88.8094 9.33594 88.8332 9.305861 88.8332 8.99414L88.8332 8.99414L88.8332 6.68398C 88.8332 6.25195 88.8031 6.20391 88.257 6.16211L88.257 6.16211L88.257 6z" stroke="#000000" stroke-width="0.4" fill="none" /><path id="1403" transform="matrix(1 0 0 -1 0 834)" d="M92.7871 6L92.7871 6.16211C 92.241 6.20391 92.2051 6.25195 92.2051 6.68398L92.2051 6.68398L92.2051 9.810161C 91.8754 9.67813 91.5211 9.56406 91.1371 9.49805L91.1371 9.49805L91.1371 9.36016L91.1371 9.36016L91.42541 9.34805C 91.6891 9.33594 91.7133 9.305861 91.7133 8.99414L91.7133 8.99414L91.7133 6.68398C 91.7133 6.25195 91.6832 6.20391 91.1371 6.16211L91.1371 6.16211L91.1371 6z" stroke="#000000" stroke-width="0.4" fill="none" /><path id="1404" transform="matrix(1 0 0 -1 0 834)" d="M94.8453 6.11992C 94.4672 6.11992 94.1133 6.42617 94.1133 6.97813C 94.1133 7.30781 94.3172 7.60781 94.6051 7.8C 95.0672 7.56602 95.4934 7.30781 95.4934 6.85781C 95.4934 6.39609 95.2113 6.11992 94.8453 6.11992zM94.791 9.61797C 95.0672 9.61797 95.3793 9.396091 95.3793 8.89219C 95.3793 8.53203 95.2172 8.310161 95.0133 8.14805C 94.5871 8.35781 94.2332 8.555861 94.2332 9C 94.2332 9.305861 94.4371 9.61797 94.791 9.61797zM94.8512 9.810161C 94.2094 9.810161 93.7832 9.33008 93.7832 8.826171C 93.7832 8.40586 94.041 8.11797 94.4313 7.89609C 94.2273 7.76406 93.9992 7.60195 93.9031 7.51211C 93.7711 7.38594 93.6332 7.21797 93.6332 6.94219C 93.6332 6.3 94.1434 5.92813 94.7852 5.92813C 95.2953 5.92813 95.973 6.31211 95.973 7.01406C 95.973 7.53594 95.5953 7.82383 95.1813 8.057811C 95.4512 8.24414 95.6133 8.38789 95.65511 8.44219C 95.7691 8.57383 95.82931 8.74805 95.82931 8.921881C 95.82931 9.40781 95.4211 9.810161 94.8512 9.810161z" stroke="#000000" stroke-width="0.4" fill="none" /><path id="1423" transform="matrix(1 0 0 -1 0 834)" d="M554.472 6.83984C 554.292 6.46211 554.2141 6.43789 553.89 6.43789L553.89 6.43789L552.768 6.43789L552.768 6.43789L553.6201 7.33203C 554.1721 7.91992 554.412 8.273829 554.412 8.79609C 554.412 9.42617 553.932 9.810161 553.404 9.810161C 553.056 9.810161 552.774 9.653911 552.594 9.45586L552.594 9.45586L552.252 8.96992L552.252 8.96992L552.384 8.85C 552.54 9.08398 552.792 9.40781 553.2 9.40781C 553.644 9.40781 553.908 9.11406 553.908 8.61016C 553.908 8.09414 553.53 7.60195 553.158 7.15781C 552.858 6.81016 552.522 6.46797 552.186 6.13789L552.186 6.13789L552.186 6L552.186 6L554.43 6C 554.502 6.26992 554.562 6.53398 554.64 6.78594z" stroke="#000000" stroke-width="0.4" fill="none" /><path id="1424" transform="matrix(1 0 0 -1 0 834)" d="M555.792 9.3L557.19 9.3L557.19 9.3L557.346 9.68984L557.346 9.68984L557.31 9.73789L557.31 9.73789L555.6 9.73789L555.6 9.73789L555.366 7.90781C 555.504 7.96211 555.732 8.028131 555.984 8.028131C 556.638 8.028131 556.962 7.65 556.962 7.121881C 556.962 6.67188 556.71 6.23398 556.2 6.23398C 555.834 6.23398 555.588 6.42617 555.462 6.53984C 555.402 6.58789 555.354 6.58203 555.3 6.53984C 555.234 6.48008 555.18 6.40195 555.174 6.34219C 555.162 6.26992 555.192 6.22188 555.27 6.13789C 555.36 6.05391 555.612 5.92813 555.888 5.92813C 556.206 5.93398 556.608 6.08984 556.932 6.35391C 557.298 6.65391 557.466 6.99609 557.466 7.35586C 557.466 7.84805 557.076 8.369921 556.308 8.369921C 556.146 8.369921 555.864 8.273829 555.636 8.18984z" stroke="#000000" stroke-width="0.4" fill="none" /><path id="1425" transform="matrix(1 0 0 -1 0 834)" d="M559.548 9.989841L559.212 9.989841L559.212 9.989841L557.91 5.73594L557.91 5.73594L558.246 5.73594z" stroke="#000000" stroke-width="0.4" fill="none" /><path id="1426" transform="matrix(1 0 0 -1 0 834)" d="M561.18 9.61211C 561.72 9.61211 561.8701 8.72383 561.8701 7.871881C 561.8701 7.03203 561.726 6.13203 561.186 6.13203C 560.664 6.13203 560.49 7.03789 560.49 7.87813C 560.49 8.712111 560.634 9.61211 561.18 9.61211zM561.186 9.810161C 560.286 9.810161 559.956 8.74219 559.956 7.86602C 559.956 6.91797 560.28 5.92813 561.186 5.92813C 562.086 5.92813 562.404 6.99609 562.404 7.871881C 562.404 8.79609 562.086 9.810161 561.186 9.810161z" stroke="#000000" stroke-width="0.4" fill="none" /><path id="1427" transform="matrix(1 0 0 -1 0 834)" d="M564 9.61211C 564.582 9.61211 564.738 8.86797 564.738 8.33984C 564.738 8.21992 564.732 8.076171 564.7141 7.94414C 564.588 7.84805 564.384 7.77617 564.174 7.77617C 563.67 7.77617 563.3701 8.214061 563.3701 8.74219C 563.3701 9.09609 563.538 9.61211 564 9.61211zM564.078 9.810161C 563.304 9.810161 562.854 9.10781 562.854 8.53203C 562.854 7.90195 563.292 7.43398 563.928 7.43398C 564.042 7.43398 564.156 7.45781 564.288 7.53008L564.288 7.53008L564.69 7.74609C 564.492 6.83398 563.838 6.23398 562.98 6.08984L562.98 6.08984L563.01 5.91016C 563.16 5.91016 563.526 5.96992 563.85 6.10195C 564.66 6.42617 565.2661 7.20586 565.2661 8.310161C 565.2661 9.12617 564.828 9.810161 564.078 9.810161z" stroke="#000000" stroke-width="0.4" fill="none" /><path id="1428" transform="matrix(1 0 0 -1 0 834)" d="M567.294 9.989841L566.958 9.989841L566.958 9.989841L565.656 5.73594L565.656 5.73594L565.992 5.73594z" stroke="#000000" stroke-width="0.4" fill="none" /><path id="1429" transform="matrix(1 0 0 -1 0 834)" d="M569.9641 6.83984C 569.784 6.46211 569.706 6.43789 569.382 6.43789L569.382 6.43789L568.26 6.43789L568.26 6.43789L569.112 7.33203C 569.664 7.91992 569.904 8.273829 569.904 8.79609C 569.904 9.42617 569.424 9.810161 568.896 9.810161C 568.548 9.810161 568.2661 9.653911 568.086 9.45586L568.086 9.45586L567.744 8.96992L567.744 8.96992L567.876 8.85C 568.032 9.08398 568.284 9.40781 568.692 9.40781C 569.136 9.40781 569.4 9.11406 569.4 8.61016C 569.4 8.09414 569.022 7.60195 568.65 7.15781C 568.35 6.81016 568.014 6.46797 567.678 6.13789L567.678 6.13789L567.678 6L567.678 6L569.9221 6C 569.994 6.26992 570.054 6.53398 570.132 6.78594z" stroke="#000000" stroke-width="0.4" fill="none" /><path id="1430" transform="matrix(1 0 0 -1 0 834)" d="M571.806 9.61211C 572.346 9.61211 572.496 8.72383 572.496 7.871881C 572.496 7.03203 572.352 6.13203 571.812 6.13203C 571.29 6.13203 571.116 7.03789 571.116 7.87813C 571.116 8.712111 571.26 9.61211 571.806 9.61211zM571.812 9.810161C 570.912 9.810161 570.582 8.74219 570.582 7.86602C 570.582 6.91797 570.906 5.92813 571.812 5.92813C 572.712 5.92813 573.03 6.99609 573.03 7.871881C 573.03 8.79609 572.712 9.810161 571.812 9.810161z" stroke="#000000" stroke-width="0.4" fill="none" /><path id="1431" transform="matrix(1 0 0 -1 0 834)" d="M575.556 6L575.556 6.16211C 575.01 6.20391 574.9741 6.25195 574.9741 6.68398L574.9741 6.68398L574.9741 9.810161C 574.644 9.67813 574.29 9.56406 573.906 9.49805L573.906 9.49805L573.906 9.36016L573.906 9.36016L574.194 9.34805C 574.458 9.33594 574.482 9.305861 574.482 8.99414L574.482 8.99414L574.482 6.68398C 574.482 6.25195 574.452 6.20391 573.906 6.16211L573.906 6.16211L573.906 6z" stroke="#000000" stroke-width="0.4" fill="none" /><path id="1432" transform="matrix(1 0 0 -1 0 834)" d="M578.814 9.73789L576.522 9.73789C 576.498 9.48008 576.468 9.180079 576.414 8.85L576.414 8.85L576.588 8.85C 576.732 9.24609 576.768 9.3 577.164 9.3L577.164 9.3L578.46 9.3C 577.986 8.25586 577.308 7.01406 576.678 5.99414L576.678 5.99414L576.72 5.92813L576.72 5.92813L577.164 5.98789C 577.74 7.22383 578.298 8.44805 578.862 9.66602z" stroke="#000000" stroke-width="0.4" fill="none" /><path id="1433" transform="matrix(1 0 0 -1 0 834)" d="M584.531 9.61211C 585.071 9.61211 585.221 8.72383 585.221 7.871881C 585.221 7.03203 585.077 6.13203 584.537 6.13203C 584.015 6.13203 583.841 7.03789 583.841 7.87813C 583.841 8.712111 583.985 9.61211 584.531 9.61211zM584.537 9.810161C 583.637 9.810161 583.307 8.74219 583.307 7.86602C 583.307 6.91797 583.631 5.92813 584.537 5.92813C 585.437 5.92813 585.755 6.99609 585.755 7.871881C 585.755 8.79609 585.437 9.810161 584.537 9.810161z" stroke="#000000" stroke-width="0.4" fill="none" /><path id="1434" transform="matrix(1 0 0 -1 0 834)" d="M588.449 6.83984C 588.269 6.46211 588.191 6.43789 587.867 6.43789L587.867 6.43789L586.7451 6.43789L586.7451 6.43789L587.597 7.33203C 588.149 7.91992 588.389 8.273829 588.389 8.79609C 588.389 9.42617 587.909 9.810161 587.381 9.810161C 587.033 9.810161 586.751 9.653911 586.571 9.45586L586.571 9.45586L586.229 8.96992L586.229 8.96992L586.361 8.85C 586.517 9.08398 586.769 9.40781 587.177 9.40781C 587.621 9.40781 587.885 9.11406 587.885 8.61016C 587.885 8.09414 587.507 7.60195 587.135 7.15781C 586.835 6.81016 586.499 6.46797 586.163 6.13789L586.163 6.13789L586.163 6L586.163 6L588.407 6C 588.479 6.26992 588.539 6.53398 588.617 6.78594z" stroke="#000000" stroke-width="0.4" fill="none" /><path id="1435" transform="matrix(1 0 0 -1 0 834)" d="M589.5471 5.92813C 589.739 5.92813 589.883 6.06602 589.883 6.27617C 589.883 6.46797 589.739 6.61797 589.5471 6.61797C 589.355 6.61797 589.211 6.46797 589.211 6.27617C 589.211 6.06602 589.355 5.92813 589.5471 5.92813zM589.541 8.466021C 589.3491 8.466021 589.211 8.328131 589.211 8.13008C 589.211 7.92617 589.3491 7.78203 589.541 7.78203C 589.733 7.78203 589.877 7.92617 589.877 8.13008C 589.877 8.328131 589.733 8.466021 589.541 8.466021z" stroke="#000000" stroke-width="0.4" fill="none" /><path id="1436" transform="matrix(1 0 0 -1 0 834)" d="M592.697 6.83984C 592.517 6.46211 592.439 6.43789 592.115 6.43789L592.115 6.43789L590.993 6.43789L590.993 6.43789L591.845 7.33203C 592.397 7.91992 592.637 8.273829 592.637 8.79609C 592.637 9.42617 592.157 9.810161 591.629 9.810161C 591.281 9.810161 590.999 9.653911 590.819 9.45586L590.819 9.45586L590.477 8.96992L590.477 8.96992L590.609 8.85C 590.765 9.08398 591.017 9.40781 591.425 9.40781C 591.869 9.40781 592.133 9.11406 592.133 8.61016C 592.133 8.09414 591.755 7.60195 591.383 7.15781C 591.083 6.81016 590.747 6.46797 590.411 6.13789L590.411 6.13789L590.411 6L590.411 6L592.655 6C 592.727 6.26992 592.787 6.53398 592.865 6.78594z" stroke="#000000" stroke-width="0.4" fill="none" /><path id="1437" transform="matrix(1 0 0 -1 0 834)" d="M593.616 8.976171C 593.7661 9.19805 594.006 9.45 594.336 9.45C 594.654 9.45 594.906 9.257811 594.906 8.88594C 594.906 8.44219 594.498 8.20781 593.946 8.03398L593.946 8.03398L593.988 7.86016C 594.084 7.88984 594.228 7.92617 594.372 7.92617C 594.7141 7.92617 595.134 7.70391 595.134 7.15195C 595.134 6.55781 594.834 6.23984 594.408 6.23984C 594.066 6.23984 593.82 6.40781 593.664 6.54609C 593.616 6.58789 593.5681 6.58203 593.52 6.54609C 593.466 6.50391 593.388 6.42617 593.382 6.34805C 593.3701 6.27617 593.394 6.21016 593.478 6.13203C 593.556 6.06016 593.802 5.92813 594.078 5.92813C 594.51 5.92813 595.65 6.37188 595.65 7.34414C 595.65 7.78203 595.344 8.153911 594.816 8.25586L594.816 8.25586L594.816 8.26797C 594.99 8.38789 595.134 8.49609 595.2241 8.59219C 595.338 8.70586 595.41 8.84414 595.41 9.01797C 595.41 9.47383 595.056 9.810161 594.5161 9.810161C 594.198 9.810161 593.9221 9.66016 593.754 9.47383L593.754 9.47383L593.49 9.09609z" stroke="#000000" stroke-width="0.4" fill="none" /><path id="1438" transform="matrix(1 0 0 -1 0 834)" d="M596.675 5.92813C 596.867 5.92813 597.011 6.06602 597.011 6.27617C 597.011 6.46797 596.867 6.61797 596.675 6.61797C 596.483 6.61797 596.3391 6.46797 596.3391 6.27617C 596.3391 6.06602 596.483 5.92813 596.675 5.92813zM596.669 8.466021C 596.477 8.466021 596.3391 8.328131 596.3391 8.13008C 596.3391 7.92617 596.477 7.78203 596.669 7.78203C 596.861 7.78203 597.005 7.92617 597.005 8.13008C 597.005 8.328131 596.861 8.466021 596.669 8.466021z" stroke="#000000" stroke-width="0.4" fill="none" /><path id="1439" transform="matrix(1 0 0 -1 0 834)" d="M598.265 9.3L599.663 9.3L599.663 9.3L599.819 9.68984L599.819 9.68984L599.783 9.73789L599.783 9.73789L598.073 9.73789L598.073 9.73789L597.8391 7.90781C 597.977 7.96211 598.205 8.028131 598.457 8.028131C 599.111 8.028131 599.435 7.65 599.435 7.121881C 599.435 6.67188 599.183 6.23398 598.673 6.23398C 598.307 6.23398 598.061 6.42617 597.935 6.53984C 597.875 6.58789 597.827 6.58203 597.773 6.53984C 597.707 6.48008 597.653 6.40195 597.647 6.34219C 597.635 6.26992 597.665 6.22188 597.743 6.13789C 597.833 6.05391 598.085 5.92813 598.361 5.92813C 598.679 5.93398 599.081 6.08984 599.405 6.35391C 599.771 6.65391 599.939 6.99609 599.939 7.35586C 599.939 7.84805 599.549 8.369921 598.781 8.369921C 598.619 8.369921 598.337 8.273829 598.109 8.18984z" stroke="#000000" stroke-width="0.4" fill="none" /><path id="1440" transform="matrix(1 0 0 -1 0 834)" d="M600.743 8.976171C 600.893 9.19805 601.133 9.45 601.463 9.45C 601.781 9.45 602.033 9.257811 602.033 8.88594C 602.033 8.44219 601.625 8.20781 601.073 8.03398L601.073 8.03398L601.115 7.86016C 601.211 7.88984 601.355 7.92617 601.499 7.92617C 601.841 7.92617 602.261 7.70391 602.261 7.15195C 602.261 6.55781 601.961 6.23984 601.535 6.23984C 601.1931 6.23984 600.947 6.40781 600.791 6.54609C 600.743 6.58789 600.695 6.58203 600.647 6.54609C 600.593 6.50391 600.515 6.42617 600.509 6.34805C 600.497 6.27617 600.521 6.21016 600.605 6.13203C 600.683 6.06016 600.929 5.92813 601.205 5.92813C 601.637 5.92813 602.777 6.37188 602.777 7.34414C 602.777 7.78203 602.471 8.153911 601.9431 8.25586L601.9431 8.25586L601.9431 8.26797C 602.117 8.38789 602.261 8.49609 602.351 8.59219C 602.465 8.70586 602.537 8.84414 602.537 9.01797C 602.537 9.47383 602.183 9.810161 601.643 9.810161C 601.325 9.810161 601.049 9.66016 600.881 9.47383L600.881 9.47383L600.617 9.09609z" stroke="#000000" stroke-width="0.4" fill="none" /><path id="1441" transform="matrix(1 0 0 -1 0 834)" d="M605.489 8.08203C 605.651 8.20195 605.897 8.33398 606.0891 8.33398C 606.527 8.33398 606.893 7.97383 606.893 7.33203C 606.893 6.65391 606.557 6.22188 606.053 6.22188C 605.8491 6.22188 605.621 6.31797 605.489 6.45586zM605.489 8.28008L605.489 8.75391C 605.207 8.63984 604.871 8.53789 604.619 8.49609L604.619 8.49609L604.619 8.351951C 604.991 8.30391 605.015 8.29219 605.015 7.90195L605.015 7.90195L605.015 5.18984C 605.015 4.79414 604.961 4.75781 604.577 4.72188L604.577 4.72188L604.577 4.56016L604.577 4.56016L605.999 4.56016L605.999 4.56016L605.999 4.72188C 605.531 4.76406 605.489 4.79414 605.489 5.25L605.489 5.25L605.489 6.03594C 605.567 5.99414 605.729 5.93398 605.903 5.92813C 606.683 6.07188 607.397 6.65391 607.397 7.56016C 607.397 8.153911 607.001 8.69414 606.335 8.69414C 606.263 8.69414 606.149 8.664061 606.041 8.60391z" stroke="#000000" stroke-width="0.4" fill="none" /><path id="1442" transform="matrix(1 0 0 -1 0 834)" d="M608.303 5.92813C 608.4951 5.92813 608.639 6.06602 608.639 6.27617C 608.639 6.46797 608.4951 6.61797 608.303 6.61797C 608.111 6.61797 607.967 6.46797 607.967 6.27617C 607.967 6.06602 608.111 5.92813 608.303 5.92813z" stroke="#000000" stroke-width="0.4" fill="none" /><path id="1443" transform="matrix(1 0 0 -1 0 834)" d="M615.125 6L615.125 6.15586C 614.783 6.19219 614.735 6.21602 614.735 6.61797L614.735 6.61797L614.735 7.77617C 614.735 8.36406 614.441 8.69414 613.973 8.69414C 613.805 8.69414 613.649 8.621881 613.523 8.53789C 613.373 8.44805 613.199 8.33398 613.025 8.20195C 612.905 8.51406 612.647 8.69414 612.359 8.69414C 612.167 8.69414 612.023 8.628131 611.867 8.53203C 611.687 8.417971 611.555 8.310161 611.429 8.226171L611.429 8.226171L611.429 8.712111C 611.165 8.59219 610.859 8.51406 610.595 8.466021L610.595 8.466021L610.595 8.328131C 610.9431 8.273829 610.961 8.24414 610.961 7.86016L610.961 7.86016L610.961 6.61797C 610.961 6.22813 610.907 6.19219 610.511 6.15586L610.511 6.15586L610.511 6L610.511 6L611.777 6L611.777 6L611.777 6.15586C 611.483 6.19219 611.435 6.22813 611.435 6.61797L611.435 6.61797L611.435 8.028131C 611.615 8.17813 611.8491 8.33984 612.0891 8.33984C 612.455 8.33984 612.611 8.09414 612.611 7.65L612.611 7.65L612.611 6.61797C 612.611 6.22188 612.557 6.19219 612.185 6.15586L612.185 6.15586L612.185 6L612.185 6L613.469 6L613.469 6L613.469 6.15586C 613.139 6.19219 613.085 6.22813 613.085 6.60586L613.085 6.60586L613.085 7.77617C 613.085 7.88984 613.079 7.95586 613.067 8.028131C 613.295 8.21992 613.523 8.33984 613.739 8.33984C 614.117 8.33984 614.267 8.069921 614.267 7.64414L614.267 7.64414L614.267 6.64219C 614.267 6.21602 614.201 6.19219 613.847 6.15586L613.847 6.15586L613.847 6z" stroke="#000000" stroke-width="0.4" fill="none" /><path id="1444" transform="matrix(1 0 0 -1 0 834)" d="M615.947 5.92813C 616.139 5.92813 616.283 6.06602 616.283 6.27617C 616.283 6.46797 616.139 6.61797 615.947 6.61797C 615.755 6.61797 615.611 6.46797 615.611 6.27617C 615.611 6.06602 615.755 5.92813 615.947 5.92813z" stroke="#000000" stroke-width="0.4" fill="none" /></g></g></svg>