<svg xmlns="http://www.w3.org/2000/svg" xmlns:xlink="http://www.w3.org/1999/xlink" id="body_1" preserveAspectRatio="xMinYMin meet" viewBox="0 0 872 1112"><defs><clipPath id="1"><path id="" clip-rule="evenodd" transform="matrix(1 0 0 1 0 0)" d="M0 834L0 0L0 0L654 0L654 0L654 834L654 834L0 834z" /></clipPath><clipPath id="2"><path id="" clip-rule="evenodd" transform="matrix(1 0 0 1 0 0)" d="M21 776L324.259 776L324.259 776L324.259 21L324.259 21L21 21z" /></clipPath><clipPath id="3"><path id="" clip-rule="evenodd" transform="matrix(1 0 0 1 0 0)" d="M390.75 629.819L426.3621 629.819L426.3621 629.819L426.3621 583.819L426.3621 583.819L390.75 583.819z" /></clipPath><clipPath id="4"><path id="" clip-rule="evenodd" transform="matrix(1 0 0 1 0 0)" d="M469.932 629.819L495.659 629.819L495.659 629.819L495.659 597.4077L495.659 597.4077L469.932 597.4077z" /></clipPath><clipPath id="5"><path id="" clip-rule="evenodd" transform="matrix(1 0 0 1 0 0)" d="M434.348 630.653L460.0121 630.653L460.0121 630.653L460.0121 597.2038L460.0121 597.2038L434.348 597.2038z" /></clipPath><clipPath id="6"><path id="" clip-rule="evenodd" transform="matrix(1 0 0 1 0 0)" d="M21 813L633 813L633 813L633 21L633 21L21 21z" /></clipPath><clipPath id="7"><path id="" clip-rule="evenodd" transform="matrix(1 0 0 1 0 0)" d="M21 813L633 813L633 813L633 21L633 21L21 21z" /></clipPath><clipPath id="8"><path id="" clip-rule="evenodd" transform="matrix(1 0 0 1 0 0)" d="M21 813L633 813L633 813L633 21L633 21L21 21z" /></clipPath><clipPath id="9"><path id="" clip-rule="evenodd" transform="matrix(1 0 0 1 0 0)" d="M21 813L633 813L633 813L633 21L633 21L21 21z" /></clipPath><clipPath id="10"><path id="" clip-rule="evenodd" transform="matrix(1 0 0 1 0 0)" d="M21 813L633 813L633 813L633 21L633 21L21 21z" /></clipPath><clipPath id="11"><path id="" clip-rule="evenodd" transform="matrix(1 0 0 1 0 0)" d="M21 813L633 813L633 813L633 21L633 21L21 21z" /></clipPath><clipPath id="12"><path id="" clip-rule="evenodd" transform="matrix(1 0 0 1 0 0)" d="M21 813L633 813L633 813L633 21L633 21L21 21z" /></clipPath><clipPath id="13"><path id="" clip-rule="evenodd" transform="matrix(1 0 0 1 0 0)" d="M21 813L633 813L633 813L633 21L633 21L21 21z" /></clipPath><clipPath id="14"><path id="" clip-rule="evenodd" transform="matrix(1 0 0 1 0 0)" d="M21 813L633 813L633 813L633 21L633 21L21 21z" /></clipPath><clipPath id="15"><path id="" clip-rule="evenodd" transform="matrix(1 0 0 1 0 0)" d="M21 813L633 813L633 813L633 21L633 21L21 21z" /></clipPath><clipPath id="16"><path id="" clip-rule="evenodd" transform="matrix(1 0 0 1 0 0)" d="M21 813L633 813L633 813L633 21L633 21L21 21z" /></clipPath><clipPath id="17"><path id="" clip-rule="evenodd" transform="matrix(1 0 0 1 0 0)" d="M21 813L633 813L633 813L633 21L633 21L21 21z" /></clipPath><clipPath id="18"><path id="" clip-rule="evenodd" transform="matrix(1 0 0 1 0 0)" d="M21 813L633 813L633 813L633 21L633 21L21 21z" /></clipPath><clipPath id="19"><path id="" clip-rule="evenodd" transform="matrix(1 0 0 1 0 0)" d="M21 813L633 813L633 813L633 21L633 21L21 21z" /></clipPath><clipPath id="20"><path id="" clip-rule="evenodd" transform="matrix(1 0 0 1 0 0)" d="M21 813L633 813L633 813L633 21L633 21L21 21z" /></clipPath><clipPath id="21"><path id="" clip-rule="evenodd" transform="matrix(1 0 0 1 0 0)" d="M21 813L633 813L633 813L633 21L633 21L21 21z" /></clipPath></defs><g transform="matrix(1.333333 0 0 1.333333 0 0)"><g clip-path="url(#1)"><g clip-path="url(#2)"><g transform="matrix(1.001708 0 0 1.000267 19.9122 19.87726)"><g transform="matrix(1 0 0 1 0 0)"><image x="0" y="0" xlink:href="img_01.png" width="305" height="757" /></g></g></g><g clip-path="url(#3)"><g transform="matrix(1.020746 0 0 1.000007 390.636 583.8187)"><g transform="matrix(1 0 0 1 0 0)"><image x="0" y="0" xlink:href="img_02.png" width="35" height="46" /></g></g></g><g clip-path="url(#4)"><g transform="matrix(1.02904 0 0 1.012825 469.933 597.4086)"><g transform="matrix(1 0 0 1 0 0)"><image x="0" y="0" xlink:href="img_03.png" width="25" height="32" /></g></g></g><g clip-path="url(#5)"><g transform="matrix(0 -1.015879 1.02656 0 434.348 630.728)"><g transform="matrix(1 0 0 1 0 0)"><image x="0" y="0" xlink:href="img_04.png" width="33" height="25" /></g></g></g><path id="5" transform="matrix(1 0 0 -1 0 834)" d="M21 21L633 21L633 63.6141L21 63.6141z" stroke="none" fill="#686868" fill-rule="nonzero" /><g clip-path="url(#6)"><path id="57" transform="matrix(1 0 0 -1 0 834)" d="M457.77 744.032L457.77 744.045C 457.77 745.093 458.578 745.951 459.728 745.951C 460.431 745.951 460.854 745.713 461.217 745.377L461.217 745.377L460.789 744.897C 460.486 745.173 460.16 745.358 459.726 745.358C 458.995 745.358 458.471 744.777 458.471 744.055L458.471 744.055L458.471 744.045C 458.471 743.322 458.995 742.73 459.726 742.73C 460.192 742.73 460.489 742.914 460.818 743.212L460.818 743.212L461.245 742.788C 460.848 742.389 460.414 742.133 459.702 742.133C 458.595 742.133 457.77 742.973 457.77 744.032" stroke="none" fill="#212121" fill-rule="nonzero" /></g><path id="58" transform="matrix(1 0 0 -1 0 834)" d="M461.983 742.198L462.6498 742.198L462.6498 745.8879L461.983 745.8879z" stroke="none" fill="#212121" fill-rule="nonzero" /><g clip-path="url(#7)"><path id="59" transform="matrix(1 0 0 -1 0 834)" d="M463.608 743.765L463.608 745.888L463.608 745.888L464.276 745.888L464.276 745.888L464.276 743.79C 464.276 743.105 464.639 742.736 465.238 742.736C 465.827 742.736 466.193 743.084 466.193 743.765L466.193 743.765L466.193 745.888L466.193 745.888L466.862 745.888L466.862 745.888L466.862 743.796C 466.862 742.694 466.22 742.139 465.226 742.139C 464.238 742.139 463.608 742.694 463.608 743.765" stroke="none" fill="#212121" fill-rule="nonzero" /><path id="60" transform="matrix(1 0 0 -1 0 834)" d="M469.198 742.791C 469.995 742.791 470.517 743.31 470.517 744.033L470.517 744.033L470.517 744.041C 470.517 744.764 469.995 745.2971 469.198 745.2971L469.198 745.2971L468.448 745.2971L468.448 745.2971L468.448 742.791M467.78 745.886L469.198 745.886C 470.39 745.886 471.215 745.093 471.215 744.054L471.215 744.054L471.215 744.041C 471.215 743.005 470.39 742.199 469.198 742.199L469.198 742.199L467.78 742.199z" stroke="none" fill="#212121" fill-rule="nonzero" /></g><path id="61" transform="matrix(1 0 0 -1 0 834)" d="M474.068 743.664L473.41 745.1411L472.759 743.664M473.112 745.915L473.731 745.915L475.401 742.2L474.696 742.2L474.311 743.0891L472.514 743.0891L472.125 742.2L471.438 742.2z" stroke="none" fill="#212121" fill-rule="nonzero" /><g clip-path="url(#8)"><path id="62" transform="matrix(1 0 0 -1 0 834)" d="M477.471 742.791C 478.27 742.791 478.792 743.31 478.792 744.033L478.792 744.033L478.792 744.041C 478.792 744.764 478.27 745.2971 477.471 745.2971L477.471 745.2971L476.723 745.2971L476.723 745.2971L476.723 742.791M476.056 745.886L477.471 745.886C 478.666 745.886 479.492 745.093 479.492 744.054L479.492 744.054L479.492 744.041C 479.492 743.005 478.666 742.199 477.471 742.199L477.471 742.199L476.056 742.199z" stroke="none" fill="#212121" fill-rule="nonzero" /><path id="63" transform="matrix(1 0 0 -1 0 834)" d="M483.349 742.791C 484.147 742.791 484.667 743.31 484.667 744.033L484.667 744.033L484.667 744.041C 484.667 744.764 484.147 745.2971 483.349 745.2971L483.349 745.2971L482.598 745.2971L482.598 745.2971L482.598 742.791M481.931 745.886L483.349 745.886C 484.542 745.886 485.367 745.093 485.367 744.054L485.367 744.054L485.367 744.041C 485.367 743.005 484.542 742.199 483.349 742.199L483.349 742.199L481.931 742.199z" stroke="none" fill="#212121" fill-rule="nonzero" /></g><path id="64" transform="matrix(1 0 0 -1 0 834)" d="M486.178 745.889L488.995 745.889L488.995 745.309L486.845 745.309L486.845 744.35L488.752 744.35L488.752 743.769L486.845 743.769L486.845 742.777L489.025 742.777L489.025 742.199L486.178 742.199" stroke="none" fill="#212121" fill-rule="nonzero" /><path id="65" transform="matrix(1 0 0 -1 0 834)" d="M491.446 745.889L492.159 745.889L493.315 744.145L494.473 745.889L495.184 745.889L495.184 742.199L494.514 742.199L494.514 744.844L493.315 743.105L493.293 743.105L492.102 744.833L492.102 742.199L491.446 742.199" stroke="none" fill="#212121" fill-rule="nonzero" /><path id="66" transform="matrix(1 0 0 -1 0 834)" d="M497.751 747.058L498.348 746.8L497.686 746.1931L497.176 746.1931zM496.16 745.889L498.978 745.889L498.978 745.308L496.828 745.308L496.828 744.3491L498.732 744.3491L498.732 743.769L496.828 743.769L496.828 742.78L499.005 742.78L499.005 742.199L496.16 742.199z" stroke="none" fill="#212121" fill-rule="nonzero" /><path id="67" transform="matrix(1 0 0 -1 0 834)" d="M500.897 744.078L499.566 745.889L500.354 745.889L501.295 744.564L502.248 745.889L503.014 745.889L501.689 744.086L503.07 742.199L502.283 742.199L501.283 743.597L500.276 742.199L499.511 742.199" stroke="none" fill="#212121" fill-rule="nonzero" /><path id="68" transform="matrix(1 0 0 -1 0 834)" d="M503.797 742.198L504.465 742.198L504.465 745.8879L503.797 745.8879z" stroke="none" fill="#212121" fill-rule="nonzero" /><g clip-path="url(#9)"><path id="69" transform="matrix(1 0 0 -1 0 834)" d="M505.313 744.032L505.313 744.045C 505.313 745.093 506.121 745.951 507.272 745.951C 507.971 745.951 508.396 745.713 508.761 745.377L508.761 745.377L508.332 744.897C 508.027 745.173 507.702 745.358 507.268 745.358C 506.54 745.358 506.014 744.777 506.014 744.055L506.014 744.055L506.014 744.045C 506.014 743.322 506.54 742.73 507.268 742.73C 507.735 742.73 508.032 742.914 508.358 743.212L508.358 743.212L508.786 742.788C 508.391 742.389 507.955 742.133 507.245 742.133C 506.14 742.133 505.313 742.973 505.313 744.032" stroke="none" fill="#212121" fill-rule="nonzero" /><path id="70" transform="matrix(1 0 0 -1 0 834)" d="M512.486 744.032L512.486 744.045C 512.486 744.759 511.948 745.358 511.193 745.358C 510.44 745.358 509.912 744.769 509.912 744.055L509.912 744.055L509.912 744.045C 509.912 743.326 510.45 742.73 511.205 742.73C 511.96 742.73 512.486 743.317 512.486 744.032M509.211 744.032L509.211 744.045C 509.211 745.081 510.038 745.951 511.205 745.951C 512.372 745.951 513.188 745.093 513.188 744.055L513.188 744.055L513.188 744.045C 513.188 743.005 512.361 742.133 511.193 742.133C 510.025 742.133 509.211 742.9951 509.211 744.032" stroke="none" fill="#212121" fill-rule="nonzero" /><path id="71" transform="matrix(1 0 0 -1 0 834)" d="M441.809 751.164C 438.128 751.164 434.741 752.545 432.27 755.055C 429.827 757.535 428.48 760.904 428.48 764.538L428.48 764.538L428.48 764.61C 428.48 772.149 434.369 778.056 441.884 778.056C 446.638 778.056 449.478 776.398 452.278 773.906L452.278 773.906L452.456 773.748L452.456 773.748L450.731 772.027L450.731 772.027L450.563 772.186C 447.093 775.4431 444.209 775.883 441.847 775.883C 438.865 775.883 436.112 774.736 434.096 772.652C 432.091 770.571 430.985 767.742 430.985 764.681L430.985 764.681L430.985 764.61C 430.985 758.289 435.772 753.337 441.884 753.337C 445.304 753.337 447.882 754.47 450.787 757.251L450.787 757.251L450.951 757.407L450.951 757.407L452.606 755.847L452.606 755.847L452.434 755.685C 448.272 751.702 444.728 751.164 441.809 751.164" stroke="none" fill="#212121" fill-rule="nonzero" /><path id="72" transform="matrix(1 0 0 -1 0 834)" d="M460.202 753.79L466.789 753.79C 470.258 753.79 473.227 754.873 475.376 756.921C 477.417 758.864 478.544 761.572 478.544 764.535L478.544 764.535L478.544 764.608C 478.544 767.567 477.417 770.278 475.375 772.25C 473.217 774.328 470.246 775.429 466.789 775.429L466.789 775.429L460.202 775.429M466.789 751.576L457.771 751.576L457.771 751.576L457.771 777.646L457.771 777.646L466.789 777.646C 475.052 777.646 481.047 772.192 481.047 764.682L481.047 764.682L481.047 764.608C 481.047 761.02 479.638 757.727 477.076 755.336C 474.468 752.913 470.816 751.576 466.789 751.576" stroke="none" fill="#212121" fill-rule="nonzero" /></g><path id="73" transform="matrix(1 0 0 -1 0 834)" d="M486.266 777.66L492.643 777.66L499.711 766.622L506.781 777.66L513.161 777.66L513.161 751.558L507.282 751.558L507.282 768.598L499.711 757.45L499.561 757.45L492.067 768.488L492.067 751.558L486.266 751.558" stroke="none" fill="#686868" fill-rule="nonzero" /><path id="74" transform="matrix(1 0 0 -1 0 834)" d="M527.147 764.832L518.154 777.658L525.07 777.658L530.718 769.196L536.406 777.658L543.129 777.658L534.138 764.907L543.514 751.56L536.596 751.56L530.564 760.509L524.493 751.56L517.771 751.56" stroke="none" fill="#686868" fill-rule="nonzero" /><g clip-path="url(#10)"><path id="75" transform="matrix(1 0 0 -1 0 834)" d="M587.2 743.676L587.2 743.676C 569.259 743.676 569.479 741.97 569.479 760.553L569.479 760.553L569.479 761.239C 569.479 779.842 570.635 778.437 587.2 778.437L587.2 778.437L587.2 778.437C 608.106 778.437 604.921 777.042 604.921 761.239L604.921 761.239L604.921 760.553C 604.921 743.356 606.774 743.676 587.2 743.676" stroke="none" fill="#FFFFFF" fill-rule="nonzero" /><path id="76" transform="matrix(1 0 0 -1 0 834)" d="M575.009 777.254C 572.555 777.254 570.558 775.316 570.558 772.934L570.558 772.934L570.558 748.937C 570.558 746.554 572.555 744.616 575.009 744.616L575.009 744.616L599.737 744.616C 602.192 744.616 604.189 746.554 604.189 748.937L604.189 748.937L604.189 772.934C 604.189 775.316 602.192 777.254 599.737 777.254M599.737 743.355L575.009 743.355C 571.838 743.355 569.258 745.859 569.258 748.937L569.258 748.937L569.258 772.934C 569.258 776.011 571.838 778.515 575.009 778.515L575.009 778.515L599.737 778.515C 602.908 778.515 605.488 776.011 605.488 772.934L605.488 772.934L605.488 748.937C 605.488 745.859 602.908 743.355 599.737 743.355" stroke="none" fill="#999999" fill-rule="nonzero" /></g><path id="77" transform="matrix(1 0 0 -1 0 834)" d="M575.252 747.253L576.0731 747.253L576.0731 750.8749L575.252 750.8749z" stroke="none" fill="#999999" fill-rule="nonzero" /><path id="78" transform="matrix(1 0 0 -1 0 834)" d="M576.794 750.875L577.61 750.875L579.168 748.445L579.178 748.445L579.178 750.875L579.947 750.875L579.947 747.252L579.126 747.252L577.573 749.678L577.563 749.678L577.563 747.252L576.794 747.252" stroke="none" fill="#999999" fill-rule="nonzero" /><g clip-path="url(#11)"><path id="79" transform="matrix(1 0 0 -1 0 834)" d="M581.488 747.9221L582.22 747.9221C 582.696 747.9221 583.15 748.206 583.15 749.008C 583.15 749.739 582.889 750.205 582.073 750.205L582.073 750.205L581.488 750.205M580.667 750.875L582.277 750.875C 583.2451 750.875 583.971 750.286 583.971 749.084C 583.971 748.034 583.417 747.252 582.277 747.252L582.277 747.252L580.667 747.252z" stroke="none" fill="#999999" fill-rule="nonzero" /></g><path id="80" transform="matrix(1 0 0 -1 0 834)" d="M584.54 750.875L587.332 750.875L587.332 750.205L585.361 750.205L585.361 749.429L587.17 749.429L587.17 748.81L585.361 748.81L585.361 747.9221L587.374 747.9221L587.374 747.252L584.54 747.252" stroke="none" fill="#999999" fill-rule="nonzero" /><g clip-path="url(#12)"><path id="81" transform="matrix(1 0 0 -1 0 834)" d="M588.748 749.17L589.386 749.17C 589.767 749.17 590.107 749.251 590.107 749.713C 590.107 750.175 589.767 750.256 589.386 750.256L589.386 750.256L588.748 750.256M587.927 750.875L589.611 750.875C 590.541 750.875 590.902 750.302 590.902 749.713C 590.902 749.125 590.541 748.551 589.611 748.551L589.611 748.551L588.748 748.551L588.748 748.551L588.748 747.252L588.748 747.252L587.927 747.252z" stroke="none" fill="#999999" fill-rule="nonzero" /></g><path id="82" transform="matrix(1 0 0 -1 0 834)" d="M591.414 750.875L594.206 750.875L594.206 750.205L592.235 750.205L592.235 749.429L594.044 749.429L594.044 748.81L592.235 748.81L592.235 747.9221L594.248 747.9221L594.248 747.252L591.414 747.252" stroke="none" fill="#999999" fill-rule="nonzero" /><g clip-path="url(#13)"><path id="83" transform="matrix(1 0 0 -1 0 834)" d="M595.621 747.9221L596.353 747.9221C 596.829 747.9221 597.283 748.206 597.283 749.008C 597.283 749.739 597.022 750.205 596.206 750.205L596.206 750.205L595.621 750.205M594.8 750.875L596.41 750.875C 597.378 750.875 598.104 750.286 598.104 749.084C 598.104 748.034 597.55 747.252 596.41 747.252L596.41 747.252L594.8 747.252z" stroke="none" fill="#999999" fill-rule="nonzero" /></g><path id="84" transform="matrix(1 0 0 -1 0 834)" d="M598.674 747.253L599.4943 747.253L599.4943 750.8749L598.674 750.8749z" stroke="none" fill="#999999" fill-rule="nonzero" /><g clip-path="url(#14)"><path id="85" transform="matrix(1 0 0 -1 0 834)" d="M594.653 763.924C 594.764 763.933 594.887 763.901 594.985 763.821L594.985 763.821L595.637 763.301L595.637 763.301L596.005 763.003L596.005 763.003L595.7241 762.634L595.7241 762.634L595.231 761.991C 595.149 761.886 595.031 761.829 594.909 761.8181C 594.791 761.812 594.6721 761.846 594.573 761.9221L594.573 761.9221L593.923 762.4431L593.923 762.4431L593.554 762.738L593.554 762.738L593.837 763.107L593.837 763.107L594.331 763.75C 594.413 763.855 594.528 763.914 594.653 763.924" stroke="none" fill="#999999" fill-rule="nonzero" /><path id="86" transform="matrix(1 0 0 -1 0 834)" d="M595.202 765.012C 595.271 765.017 595.34 765.001 595.399 764.954L595.399 764.954L595.781 764.644L595.781 764.644L596.005 764.468L596.005 764.468L595.833 764.247L595.833 764.247L595.544 763.869C 595.497 763.808 595.427 763.771 595.355 763.768C 595.282 763.758 595.213 763.78 595.155 763.828L595.155 763.828L594.77 764.136L594.77 764.136L594.552 764.312L594.552 764.312L594.718 764.531L594.718 764.531L595.013 764.909C 595.061 764.973 595.131 765.008 595.202 765.012" stroke="none" fill="#999999" fill-rule="nonzero" /><path id="87" transform="matrix(1 0 0 -1 0 834)" d="M596.146 758.725C 596.229 758.734 596.319 758.709 596.39 758.648L596.39 758.648L596.873 758.262L596.873 758.262L597.15 758.042L597.15 758.042L596.938 757.77L596.938 757.77L596.573 757.293C 596.515 757.216 596.429 757.1721 596.335 757.165C 596.251 757.155 596.166 757.185 596.0891 757.242L596.0891 757.242L595.606 757.626L595.606 757.626L595.333 757.85L595.333 757.85L595.54 758.119L595.54 758.119L595.91 758.595C 595.966 758.674 596.058 758.721 596.146 758.725" stroke="none" fill="#999999" fill-rule="nonzero" /><path id="88" transform="matrix(1 0 0 -1 0 834)" d="M593.455 762.212C 593.732 762.235 594.019 762.152 594.259 761.961L594.259 761.961L595.829 760.705L595.829 760.705L596.725 759.986L596.725 759.986L596.044 759.1L596.044 759.1L594.842 757.548C 594.653 757.293 594.364 757.151 594.072 757.126C 593.79 757.105 593.507 757.189 593.2661 757.38L593.2661 757.38L591.697 758.638L591.697 758.638L590.8 759.357L590.8 759.357L591.481 760.241L591.481 760.241L592.677 761.792C 592.871 762.05 593.159 762.191 593.455 762.212" stroke="none" fill="#999999" fill-rule="nonzero" /><path id="89" transform="matrix(1 0 0 -1 0 834)" d="M595.149 757.315C 595.327 757.329 595.51 757.276 595.662 757.151L595.662 757.151L596.673 756.343L596.673 756.343L597.253 755.88L597.253 755.88L596.811 755.311L596.811 755.311L596.044 754.314C 595.92 754.149 595.734 754.059 595.544 754.044C 595.366 754.028 595.181 754.081 595.031 754.205L595.031 754.205L594.017 755.014L594.017 755.014L593.44 755.475L593.44 755.475L593.878 756.048L593.878 756.048L594.653 757.043C 594.771 757.206 594.957 757.298 595.149 757.315" stroke="none" fill="#999999" fill-rule="nonzero" /><path id="90" transform="matrix(1 0 0 -1 0 834)" d="M592.913 754.971C 592.987 754.977 593.061 754.955 593.123 754.902L593.123 754.902L593.536 754.575L593.536 754.575L593.775 754.382L593.775 754.382L593.593 754.149L593.593 754.149L593.277 753.742C 593.228 753.6721 593.147 753.635 593.073 753.63C 593 753.623 592.921 753.645 592.861 753.697L592.861 753.697L592.448 754.026L592.448 754.026L592.21 754.2141L592.21 754.2141L592.39 754.449L592.39 754.449L592.704 754.857C 592.758 754.927 592.833 754.9641 592.913 754.971" stroke="none" fill="#999999" fill-rule="nonzero" /><path id="91" transform="matrix(1 0 0 -1 0 834)" d="M586.887 755.472C 586.965 755.476 587.046 755.457 587.113 755.402L587.113 755.402L587.564 755.04L587.564 755.04L587.824 754.834L587.824 754.834L587.628 754.578L587.628 754.578L587.282 754.133C 587.227 754.061 587.15 754.02 587.06 754.0161C 586.982 754.006 586.9 754.029 586.829 754.084L586.829 754.084L586.38 754.446L586.38 754.446L586.123 754.651L586.123 754.651L586.32 754.905L586.32 754.905L586.662 755.353C 586.717 755.424 586.8 755.469 586.887 755.472" stroke="none" fill="#999999" fill-rule="nonzero" /><path id="92" transform="matrix(1 0 0 -1 0 834)" d="M584.697 756.78C 584.844 756.79 584.994 756.75 585.119 756.647L585.119 756.647L585.944 755.988L585.944 755.988L586.413 755.613L586.413 755.613L586.057 755.144L586.057 755.144L585.429 754.331C 585.324 754.197 585.175 754.123 585.019 754.114C 584.873 754.1 584.7241 754.145 584.5991 754.244L584.5991 754.244L583.772 754.903L583.772 754.903L583.302 755.279L583.302 755.279L583.661 755.746L583.661 755.746L584.29 756.559C 584.392 756.691 584.535 756.768 584.697 756.78" stroke="none" fill="#999999" fill-rule="nonzero" /><path id="93" transform="matrix(1 0 0 -1 0 834)" d="M590.646 758.123C 590.882 758.147 591.132 758.074 591.338 757.913L591.338 757.913L592.684 756.832L592.684 756.832L593.454 756.219L593.454 756.219L592.865 755.457L592.865 755.457L591.842 754.127C 591.673 753.909 591.429 753.787 591.176 753.767C 590.937 753.748 590.692 753.819 590.487 753.98L590.487 753.98L589.1411 755.062L589.1411 755.062L588.373 755.679L588.373 755.679L588.957 756.438L588.957 756.438L589.98 757.7661C 590.148 757.986 590.394 758.108 590.646 758.123" stroke="none" fill="#999999" fill-rule="nonzero" /><path id="94" transform="matrix(1 0 0 -1 0 834)" d="M591.288 769.876C 591.376 769.886 591.47 769.86 591.543 769.796L591.543 769.796L592.048 769.395L592.048 769.395L592.332 769.169L592.332 769.169L592.115 768.884L592.115 768.884L591.734 768.388C 591.669 768.305 591.581 768.259 591.485 768.252C 591.394 768.244 591.304 768.274 591.229 768.335L591.229 768.335L590.726 768.733L590.726 768.733L590.4431 768.965L590.4431 768.965L590.658 769.248L590.658 769.248L591.043 769.741C 591.1 769.822 591.194 769.867 591.288 769.876" stroke="none" fill="#999999" fill-rule="nonzero" /><path id="95" transform="matrix(1 0 0 -1 0 834)" d="M592.963 768.289C 593.049 768.292 593.145 768.257 593.217 768.192L593.217 768.192L593.711 767.757L593.711 767.757L593.986 767.51L593.986 767.51L593.747 767.232L593.747 767.232L593.335 766.749C 593.265 766.675 593.168 766.63 593.073 766.63C 592.987 766.624 592.893 766.656 592.8181 766.721L592.8181 766.721L592.332 767.154L592.332 767.154L592.05 767.402L592.05 767.402L592.291 767.678L592.291 767.678L592.701 768.162C 592.768 768.241 592.865 768.282 592.963 768.289" stroke="none" fill="#999999" fill-rule="nonzero" /><path id="96" transform="matrix(1 0 0 -1 0 834)" d="M586.583 775.248C 586.67 775.259 586.768 775.233 586.851 775.166L586.851 775.166L587.378 774.746L587.378 774.746L587.677 774.508L587.677 774.508L587.449 774.208L587.449 774.208L587.048 773.691C 586.983 773.607 586.888 773.559 586.787 773.55C 586.696 773.545 586.601 773.573 586.519 773.633L586.519 773.633L585.998 774.052L585.998 774.052L585.6931 774.291L585.6931 774.291L585.924 774.591L585.924 774.591L586.322 775.106C 586.387 775.195 586.485 775.24 586.583 775.248" stroke="none" fill="#999999" fill-rule="nonzero" /><path id="97" transform="matrix(1 0 0 -1 0 834)" d="M588.442 774.079C 588.583 774.093 588.725 774.052 588.853 773.953L588.853 773.953L589.648 773.314L589.648 773.314L590.104 772.949L590.104 772.949L589.758 772.499L589.758 772.499L589.15 771.708C 589.055 771.579 588.904 771.506 588.757 771.494C 588.612 771.484 588.466 771.528 588.344 771.621L588.344 771.621L587.546 772.261L587.546 772.261L587.093 772.63L587.093 772.63L587.438 773.079L587.438 773.079L588.049 773.868C 588.147 773.998 588.288 774.067 588.442 774.079" stroke="none" fill="#999999" fill-rule="nonzero" /><path id="98" transform="matrix(1 0 0 -1 0 834)" d="M590 772.0681C 590.1201 772.077 590.248 772.042 590.351 771.957L590.351 771.957L591.037 771.409L591.037 771.409L591.424 771.096L591.424 771.096L591.125 770.711L591.125 770.711L590.604 770.032C 590.521 769.925 590.395 769.864 590.269 769.853C 590.149 769.844 590.02 769.877 589.919 769.961L589.919 769.961L589.236 770.507L589.236 770.507L588.843 770.822L588.843 770.822L589.139 771.212L589.139 771.212L589.665 771.886C 589.746 771.994 589.8701 772.057 590 772.0681" stroke="none" fill="#999999" fill-rule="nonzero" /><path id="99" transform="matrix(1 0 0 -1 0 834)" d="M584.477 773.858C 584.631 773.871 584.784 773.827 584.91 773.723L584.91 773.723L585.762 773.042L585.762 773.042L586.25 772.653L586.25 772.653L585.881 772.17L585.881 772.17L585.233 771.329C 585.125 771.197 584.9741 771.117 584.816 771.104C 584.663 771.093 584.504 771.135 584.374 771.241L584.374 771.241L583.526 771.924L583.526 771.924L583.037 772.31L583.037 772.31L583.41 772.793L583.41 772.793L584.058 773.632C 584.163 773.769 584.317 773.843 584.477 773.858" stroke="none" fill="#999999" fill-rule="nonzero" /><path id="100" transform="matrix(1 0 0 -1 0 834)" d="M582.341 769.53C 582.417 769.549 582.502 769.535 582.575 769.49L582.575 769.49L583.069 769.185L583.069 769.185L583.35 769.015L583.35 769.015L583.1931 768.739L583.1931 768.739L582.912 768.251C 582.862 768.177 582.786 768.125 582.706 768.107C 582.628 768.093 582.545 768.104 582.4641 768.148L582.4641 768.148L581.972 768.449L581.972 768.449L581.694 768.626L581.694 768.626L581.85 768.902L581.85 768.902L582.132 769.384C 582.181 769.461 582.254 769.514 582.341 769.53" stroke="none" fill="#999999" fill-rule="nonzero" /><path id="101" transform="matrix(1 0 0 -1 0 834)" d="M583.366 770.993C 583.44 771.002 583.52 770.982 583.59 770.932L583.59 770.932L584.035 770.601L584.035 770.601L584.286 770.414L584.286 770.414L584.11 770.161L584.11 770.161L583.794 769.725C 583.744 769.65 583.668 769.611 583.583 769.6C 583.511 769.594 583.43 769.611 583.363 769.66L583.363 769.66L582.916 769.9951L582.916 769.9951L582.664 770.186L582.664 770.186L582.844 770.435L582.844 770.435L583.161 770.875C 583.207 770.942 583.287 770.982 583.366 770.993" stroke="none" fill="#999999" fill-rule="nonzero" /><path id="102" transform="matrix(1 0 0 -1 0 834)" d="M581.013 761.574C 581.15 761.586 581.289 761.546 581.404 761.453L581.404 761.453L582.167 760.843L582.167 760.843L582.601 760.493L582.601 760.493L582.272 760.063L582.272 760.063L581.694 759.307C 581.592 759.184 581.458 759.112 581.312 759.105C 581.178 759.092 581.038 759.131 580.924 759.226L580.924 759.226L580.16 759.836L580.16 759.836L579.721 760.188L579.721 760.188L580.053 760.6201L580.053 760.6201L580.633 761.372C 580.732 761.4951 580.868 761.566 581.013 761.574" stroke="none" fill="#999999" fill-rule="nonzero" /><path id="103" transform="matrix(1 0 0 -1 0 834)" d="M579.1411 762.582C 579.239 762.588 579.344 762.56 579.425 762.493L579.425 762.493L579.982 762.051L579.982 762.051L580.294 761.798L580.294 761.798L580.053 761.483L580.053 761.483L579.633 760.939C 579.564 760.85 579.463 760.803 579.361 760.793C 579.262 760.785 579.161 760.813 579.079 760.88L579.079 760.88L578.526 761.327L578.526 761.327L578.208 761.578L578.208 761.578L578.452 761.887L578.452 761.887L578.869 762.436C 578.94 762.523 579.037 762.575 579.1411 762.582" stroke="none" fill="#999999" fill-rule="nonzero" /><path id="104" transform="matrix(1 0 0 -1 0 834)" d="M578.56 765.042C 578.671 765.049 578.785 765.021 578.878 764.945L578.878 764.945L579.5 764.449L579.5 764.449L579.852 764.165L579.852 764.165L579.583 763.815L579.583 763.815L579.109 763.198C 579.034 763.0991 578.92 763.046 578.804 763.034C 578.699 763.026 578.58 763.059 578.487 763.132L578.487 763.132L577.8701 763.633L577.8701 763.633L577.508 763.914L577.508 763.914L577.782 764.264L577.782 764.264L578.255 764.877C 578.332 764.98 578.44 765.033 578.56 765.042" stroke="none" fill="#999999" fill-rule="nonzero" /><path id="105" transform="matrix(1 0 0 -1 0 834)" d="M581.218 767.935C 581.306 767.949 581.398 767.925 581.478 767.868L581.478 767.868L581.997 767.4951L581.997 767.4951L582.295 767.281L582.295 767.281L582.094 766.991L582.094 766.991L581.742 766.481C 581.684 766.394 581.592 766.345 581.5 766.332C 581.414 766.322 581.321 766.342 581.238 766.399L581.238 766.399L580.722 766.771L580.722 766.771L580.427 766.985L580.427 766.985L580.63 767.274L580.63 767.274L580.982 767.791C 581.036 767.875 581.124 767.924 581.218 767.935" stroke="none" fill="#999999" fill-rule="nonzero" /><path id="106" transform="matrix(1 0 0 -1 0 834)" d="M580.471 766.17C 580.528 766.175 580.596 766.16 580.646 766.117L580.646 766.117L580.988 765.844L580.988 765.844L581.186 765.684L581.186 765.684L581.035 765.49L581.035 765.49L580.774 765.15C 580.731 765.097 580.669 765.067 580.606 765.061C 580.543 765.056 580.479 765.075 580.429 765.114L580.429 765.114L580.086 765.39L580.086 765.39L579.8911 765.546L579.8911 765.546L580.041 765.74L580.041 765.74L580.3 766.079C 580.346 766.135 580.404 766.168 580.471 766.17" stroke="none" fill="#999999" fill-rule="nonzero" /><path id="107" transform="matrix(1 0 0 -1 0 834)" d="M582.254 759.003C 582.428 759.015 582.612 758.969 582.7661 758.841L582.7661 758.841L583.757 758.049L583.757 758.049L584.323 757.59L584.323 757.59L583.896 757.028L583.896 757.028L583.136 756.048C 583.015 755.884 582.832 755.796 582.647 755.779C 582.47 755.765 582.287 755.819 582.136 755.941L582.136 755.941L581.139 756.738L581.139 756.738L580.572 757.194L580.572 757.194L581.005 757.755L581.005 757.755L581.759 758.738C 581.888 758.897 582.0681 758.989 582.254 759.003" stroke="none" fill="#999999" fill-rule="nonzero" /><path id="108" transform="matrix(1 0 0 -1 0 834)" d="M587.648 759.901C 588.559 759.901 589.33 760.564 589.33 761.519C 589.33 761.775 589.308 762.07 589.183 762.281C 589.142 762.36 589.095 762.569 588.54 762.969C 588.253 763.179 587.468 763.182 587.157 763.3701C 586.895 763.522 586.866 763.981 586.827 764.202C 586.765 764.582 586.895 765.395 586.759 765.755C 586.6931 765.924 586.308 766.311 586.308 766.311C 586.308 766.311 587.264 766.036 587.431 765.288C 587.498 764.997 587.366 764.384 587.401 764.088C 587.418 763.949 587.507 763.717 587.613 763.639C 587.792 763.507 587.971 763.39 588.124 763.329C 588.185 763.313 588.242 763.293 588.299 763.276C 588.313 763.271 588.33 763.261 588.35 763.259C 588.938 763.101 589.343 762.3701 589.343 762.3701C 589.501 762.061 589.538 761.694 589.538 761.336C 589.538 760.273 588.723 759.488 587.712 759.488C 586.7 759.488 585.992 760.286 585.992 761.348C 585.992 761.896 586.076 762.04 586.41 762.413C 586.179 762.028 586.148 761.912 586.148 761.447C 586.148 760.498 586.737 759.901 587.648 759.901M590.247 760.7451C 590.084 759.283 588.73 759.043 588.288 758.934C 587.34 758.701 585.924 758.989 585.69 760.541C 585.469 762.015 586.145 762.326 586.3 762.518C 586.316 762.539 585.606 761.712 586.032 760.592C 586.268 759.976 586.658 759.535 587.249 759.427C 588.389 759.217 590.094 759.794 589.591 762.196C 589.485 762.69 589.024 763.241 588.524 763.413C 588.356 763.469 588.004 763.521 587.866 763.633C 587.768 763.717 587.61 763.894 587.535 764.202C 587.423 764.676 587.765 765.175 587.781 765.883C 587.8 766.28 587.768 766.644 587.712 766.874C 587.678 767.019 587.631 767.323 587.401 767.442C 587.249 767.528 586.851 767.5891 586.663 767.658C 585.749 768.015 585.44 769.136 585.44 769.136C 585.44 769.136 586.3 768.33 586.67 768.201C 586.993 768.085 587.533 767.958 587.925 767.826C 588.076 767.772 588.79 767.731 588.517 765.944C 588.4741 765.67 588.163 765.233 588.104 764.9641C 588.076 764.847 588.032 764.611 588.127 764.45C 588.38 764.023 588.749 764.289 589.186 764.003C 590.175 763.366 590.404 762.198 590.247 760.7451M588.902 768.876C 589.302 768.876 589.622 768.536 589.622 768.118C 589.622 767.705 589.302 767.367 588.902 767.367C 588.511 767.367 588.185 767.705 588.185 768.118C 588.185 768.536 588.511 768.876 588.902 768.876M592.002 766.661L588.588 769.75L588.588 769.75L586.828 771.502L586.828 771.502L583.076 766.135C 582.121 764.583 582.335 762.861 583.095 762.094L583.095 762.094L587.592 757.438L587.592 757.438L588.377 756.728L588.377 756.728L589.866 758.905L589.866 758.905L592.466 762.718C 593.286 763.92 593.077 765.689 592.002 766.661" stroke="none" fill="#999999" fill-rule="nonzero" /><path id="109" transform="matrix(1 0 0 -1 0 834)" d="M583.025 762.03C 582.035 763.028 582.222 764.896 582.972 766.147L582.972 766.147L583.179 766.45L583.179 766.45L585.718 770.082L585.718 770.082L586.744 771.55L586.744 771.55L585.418 771.2141L585.418 771.2141L581.218 765.255C 580.499 764.072 580.6931 762.542 581.692 761.538L581.692 761.538L586.744 756.2661L586.744 756.2661L588.202 756.67L588.202 756.67L586.546 758.384" stroke="none" fill="#999999" fill-rule="nonzero" /></g><path id="110" transform="matrix(1 0 0 -1 0 834)" d="M390.75 57.9996L351.263 21.5008L632.5 21.5008L632.5 57.9996z" stroke="none" fill="#FFFFFF" fill-rule="nonzero" /><g clip-path="url(#15)"><path id="111" transform="matrix(1 0 0 -1 0 834)" d="M433.623 37.998C 433.623 39.8801 432.781 41.8313 430.459 41.8313C 428.086 41.8313 427.321 39.9262 427.321 37.998C 427.321 36.0699 428.137 34.234 430.485 34.234C 432.857 34.234 433.623 36.0699 433.623 37.998M423.826 43.966L427.27 43.966L427.27 43.966L427.27 42.4512L427.27 42.4512L427.321 42.4512C 428.189 43.7133 429.617 44.2871 431.25 44.2871C 435.383 44.2871 437.245 41.2813 437.245 37.9063C 437.245 34.7391 435.307 31.777 431.454 31.777C 429.873 31.777 428.367 32.3973 427.5 33.568L427.5 33.568L427.449 33.568L427.449 33.568L427.449 27.9211L427.449 27.9211L423.826 27.9211z" stroke="none" fill="#000000" fill-rule="nonzero" /></g><path id="112" transform="matrix(1 0 0 -1 0 834)" d="M438.242 43.966L441.8647 43.966L441.8647 32.0988L438.242 32.0988zM441.864 45.802L438.241 45.802L438.241 48.48716L441.864 48.48716z" stroke="none" fill="#000000" fill-rule="nonzero" /><g clip-path="url(#16)"><path id="113" transform="matrix(1 0 0 -1 0 834)" d="M448.5 43.966L451.153 43.966L451.153 43.966L451.153 41.7859L451.153 41.7859L448.5 41.7859L448.5 41.7859L448.5 35.909C 448.5 34.807 448.806 34.532 450.03 34.532C 450.413 34.532 450.77 34.5551 451.153 34.6242L451.153 34.6242L451.153 32.0762C 450.541 31.984 449.75 31.9609 449.036 31.9609C 446.816 31.9609 444.877 32.4211 444.877 34.7852L444.877 34.7852L444.877 41.7859L444.877 41.7859L442.683 41.7859L442.683 41.7859L442.683 43.966L442.683 43.966L444.877 43.966L444.877 43.966L444.877 47.5242L444.877 47.5242L448.5 47.5242" stroke="none" fill="#000000" fill-rule="nonzero" /><path id="114" transform="matrix(1 0 0 -1 0 834)" d="M460.981 37.9066C 460.368 37.4246 459.093 37.4016 457.971 37.2176C 456.848 37.0117 455.828 36.6668 455.828 35.4738C 455.828 34.2566 456.874 33.9586 458.047 33.9586C 460.879 33.9586 460.981 35.9785 460.981 36.6898M452.613 40.3168C 452.817 43.3695 455.853 44.2879 458.812 44.2879C 461.44 44.2879 464.604 43.7598 464.604 40.9129L464.604 40.9129L464.604 34.7387C 464.604 33.6598 464.731 32.5809 465.063 32.0988L465.063 32.0988L461.389 32.0988C 461.262 32.4668 461.16 32.8566 461.134 33.2469C 459.986 32.1676 458.302 31.7777 456.695 31.7777C 454.194 31.7777 452.205 32.9027 452.205 35.3355C 452.205 38.0207 454.45 38.6637 456.695 38.9387C 458.914 39.2379 460.981 39.1688 460.981 40.5008C 460.981 41.9008 459.909 42.1066 458.634 42.1066C 457.256 42.1066 456.363 41.6016 456.236 40.3168z" stroke="none" fill="#000000" fill-rule="nonzero" /></g><path id="115" transform="matrix(1 0 0 -1 0 834)" d="M466.007 32.0988L469.63 32.0988L469.63 48.4879L466.007 48.4879z" stroke="none" fill="#000000" fill-rule="nonzero" /><g clip-path="url(#17)"><path id="116" transform="matrix(1 0 0 -1 0 834)" d="M510.305 39.8676C 510.075 41.1984 509.132 41.9105 507.626 41.9105C 505.304 41.9105 504.539 39.7984 504.539 38.0535C 504.539 36.3555 505.279 34.3125 507.55 34.3125C 509.233 34.3125 510.203 35.2766 510.433 36.7227L510.433 36.7227L513.928 36.7227C 513.468 33.5785 511.045 31.8566 507.575 31.8566C 503.595 31.8566 500.917 34.3816 500.917 37.9395C 500.917 41.6348 503.366 44.3664 507.652 44.3664C 510.764 44.3664 513.622 42.8977 513.851 39.8676" stroke="none" fill="#686868" fill-rule="nonzero" /></g><path id="117" transform="matrix(1 0 0 -1 0 834)" d="M514.788 44.0449L518.4111 44.0449L518.4111 32.1781L514.788 32.1781zM518.411 45.8809L514.788 45.8809L514.788 48.56606L518.411 48.56606z" stroke="none" fill="#686868" fill-rule="nonzero" /><g clip-path="url(#18)"><path id="118" transform="matrix(1 0 0 -1 0 834)" d="M527.973 37.9855C 527.361 37.5035 526.085 37.4805 524.962 37.2965C 523.84 37.0906 522.82 36.7453 522.82 35.5523C 522.82 34.3355 523.865 34.0375 525.039 34.0375C 527.871 34.0375 527.973 36.0574 527.973 36.7684M519.605 40.3953C 519.809 43.4484 522.845 44.3664 525.805 44.3664C 528.432 44.3664 531.596 43.8387 531.596 40.9914L531.596 40.9914L531.596 34.8176C 531.596 33.7387 531.723 32.6594 532.055 32.1773L532.055 32.1773L528.381 32.1773C 528.254 32.5453 528.152 32.9355 528.126 33.3254C 526.978 32.2465 525.294 31.8566 523.687 31.8566C 521.187 31.8566 519.197 32.9816 519.197 35.4145C 519.197 38.0996 521.442 38.7426 523.687 39.0176C 525.906 39.3164 527.973 39.2477 527.973 40.5797C 527.973 41.9797 526.902 42.1855 525.626 42.1855C 524.248 42.1855 523.355 41.6805 523.228 40.3953z" stroke="none" fill="#686868" fill-rule="nonzero" /></g><path id="119" transform="matrix(1 0 0 -1 0 834)" d="M533.055 32.1781L536.678 32.1781L536.678 48.5672L533.055 48.5672z" stroke="none" fill="#686868" fill-rule="nonzero" /><g clip-path="url(#19)"><path id="120" transform="matrix(1 0 0 -1 0 834)" d="M405.653 43.0594C 405.396 44.7012 403.647 45.9512 401.642 45.9512C 398.016 45.9512 396.654 43.1754 396.654 40.2832C 396.654 37.5301 398.016 34.7543 401.642 34.7543C 404.11 34.7543 405.499 36.2801 405.807 38.4551L405.807 38.4551L409.716 38.4551C 409.304 34.3371 406.142 31.7004 401.642 31.7004C 395.959 31.7004 392.616 35.5172 392.616 40.2832C 392.616 45.1871 395.959 49.0043 401.642 49.0043C 405.679 49.0043 409.073 46.8762 409.562 43.0594" stroke="none" fill="#000000" fill-rule="nonzero" /><path id="121" transform="matrix(1 0 0 -1 0 834)" d="M418.675 37.9465C 418.058 37.4605 416.772 37.4375 415.641 37.2523C 414.509 37.0445 413.481 36.6977 413.481 35.4945C 413.481 34.2684 414.535 33.9676 415.718 33.9676C 418.572 33.9676 418.675 36.0035 418.675 36.7203M410.241 40.3754C 410.447 43.4523 413.507 44.3773 416.489 44.3773C 419.138 44.3773 422.326 43.8453 422.326 40.9773L422.326 40.9773L422.326 34.7535C 422.326 33.6664 422.455 32.5797 422.789 32.0934L422.789 32.0934L419.086 32.0934C 418.958 32.4637 418.855 32.8566 418.829 33.2504C 417.672 32.1625 415.975 31.7695 414.355 31.7695C 411.835 31.7695 409.829 32.9035 409.829 35.3555C 409.829 38.0625 412.092 38.7094 414.355 38.9875C 416.592 39.2887 418.675 39.2184 418.675 40.5605C 418.675 41.9715 417.595 42.1805 416.309 42.1805C 414.921 42.1805 414.021 41.6715 413.892 40.3754z" stroke="none" fill="#000000" fill-rule="nonzero" /><path id="122" transform="matrix(1 0 0 -1 0 834)" d="M474.709 37.5762C 474.709 35.3781 476.612 34.5223 478.772 34.5223C 480.186 34.5223 482.346 34.8922 482.346 36.5813C 482.346 38.3633 479.595 38.6633 476.895 39.3113C 474.169 39.9594 471.418 40.9074 471.418 44.0074C 471.418 47.3852 474.966 49.0055 478.283 49.0055C 482.115 49.0055 485.637 47.5012 485.637 43.6832L485.637 43.6832L481.729 43.6832C 481.6 45.6734 480.032 46.1824 478.103 46.1824C 476.818 46.1824 475.326 45.6965 475.326 44.3082C 475.326 43.0363 476.2 42.8742 480.803 41.8102C 482.14 41.5094 486.254 40.7453 486.254 36.9984C 486.254 33.9672 483.606 31.7004 478.618 31.7004C 474.555 31.7004 470.75 33.5043 470.801 37.5762" stroke="none" fill="#686868" fill-rule="nonzero" /><path id="123" transform="matrix(1 0 0 -1 0 834)" d="M493.427 34.2445C 495.921 34.2445 496.667 36.1648 496.667 38.0629C 496.667 39.9816 495.921 41.9027 493.427 41.9027C 490.959 41.9027 490.213 39.9816 490.213 38.0629C 490.213 36.1648 490.959 34.2445 493.427 34.2445M493.427 44.3777C 497.618 44.3777 500.318 41.8797 500.318 38.0629C 500.318 34.2676 497.618 31.7695 493.427 31.7695C 489.262 31.7695 486.562 34.2676 486.562 38.0629C 486.562 41.8797 489.262 44.3777 493.427 44.3777" stroke="none" fill="#686868" fill-rule="nonzero" /></g><path id="124" transform="matrix(1 0 0 -1 0 834)" d="M539.125 28.9871L606.302 28.9871L606.302 52.44101L539.125 52.44101z" stroke="none" fill="#686868" fill-rule="nonzero" /><g clip-path="url(#20)"><path id="125" transform="matrix(1 0 0 -1 0 834)" d="M545.147 40.5094L551.243 40.5094C 553.691 40.5094 555.385 41.6344 555.385 43.9316C 555.385 46.2285 553.691 47.3535 551.243 47.3535L551.243 47.3535L545.147 47.3535M543.376 48.7125L551.633 48.7125C 554.968 48.7125 557.156 46.9547 557.156 43.9316C 557.156 40.9086 554.968 39.1504 551.633 39.1504L551.633 39.1504L545.147 39.1504L545.147 39.1504L545.147 31.9785L545.147 31.9785L543.376 31.9785z" stroke="none" fill="#FFFFFF" fill-rule="nonzero" /><path id="126" transform="matrix(1 0 0 -1 0 834)" d="M559.4741 38.0254C 559.4741 35.4473 561.037 32.8691 564.189 32.8691C 567.341 32.8691 568.904 35.4473 568.904 38.0254C 568.904 40.6031 567.341 43.1813 564.189 43.1813C 561.037 43.1813 559.4741 40.6031 559.4741 38.0254M570.545 38.0254C 570.545 34.5563 568.305 31.6273 564.189 31.6273C 560.073 31.6273 557.833 34.5563 557.833 38.0254C 557.833 41.4941 560.073 44.4234 564.189 44.4234C 568.305 44.4234 570.545 41.4941 570.545 38.0254" stroke="none" fill="#FFFFFF" fill-rule="nonzero" /><path id="127" transform="matrix(1 0 0 -1 0 834)" d="M572.03 44.0723L573.54 44.0723L573.54 44.0723L573.54 41.2359L573.54 41.2359L573.593 41.2359C 574.426 43.1813 576.25 44.3301 578.6721 44.2359L578.6721 44.2359L578.6721 42.7602C 575.703 42.9 573.671 40.9313 573.671 38.4242L573.671 38.4242L573.671 31.9781L573.671 31.9781L572.03 31.9781" stroke="none" fill="#FFFFFF" fill-rule="nonzero" /></g><path id="128" transform="matrix(1 0 0 -1 0 834)" d="M583.857 48.7125L598.601 48.7125L598.601 47.3535L592.114 47.3535L592.114 31.9785L590.343 31.9785L590.343 47.3535L583.857 47.3535" stroke="none" fill="#FFFFFF" fill-rule="nonzero" /><path id="129" transform="matrix(1 0 0 -1 0 834)" d="M600.096 31.9781L601.737 31.9781L601.737 44.0719L600.096 44.0719z" stroke="none" fill="#FFFFFF" fill-rule="nonzero" /><g clip-path="url(#21)"><path id="130" transform="matrix(1 0 0 -1 0 834)" d="M601.979 46.2613C 601.979 45.7016 601.475 45.2473 600.852 45.2473C 600.23 45.2473 599.725 45.7016 599.725 46.2613C 599.725 46.8215 600.23 47.2754 600.852 47.2754C 601.475 47.2754 601.979 46.8215 601.979 46.2613" stroke="none" fill="#FFFFFF" fill-rule="nonzero" /></g><path id="131" transform="matrix(1 0 0 -1 0 834)" d="M555.997 779.2241L555.997 742.908" stroke="#7F7F7F" stroke-width="1" fill="none" /><path id="132" transform="matrix(1 0 0 -1 0 834)" d="M633 15L633 0M633 819L633 834M21 15L21 0M21 819L21 834M639 21L654 21M15 21L0 21M639 813L654 813M15 813L0 813" stroke="#000000" stroke-width="1.25" fill="none" /><path id="133" transform="matrix(1 0 0 -1 0 834)" d="M633 15L633 0M633 819L633 834M21 15L21 0M21 819L21 834M639 21L654 21M15 21L0 21M639 813L654 813M15 813L0 813" stroke="#000000" stroke-width="0.25" fill="none" /><path id="134" transform="matrix(1 0 0 -1 0 834)" d="M32.2781 9.28203C 32.2781 9.516021 32.2961 9.58203 32.3559 9.62383C 32.416 9.66602 32.5719 9.69609 32.8238 9.69609C 33.2262 9.69609 33.5738 9.62383 33.8441 9.45C 34.3238 9.167971 34.552 8.63398 34.552 8.016021C 34.552 7.05586 34.0359 6.21602 32.9141 6.21602C 32.4762 6.21602 32.2781 6.33008 32.2781 6.78594zM31.252 9.900001L31.252 9.726171C 31.7141 9.68984 31.7621 9.66602 31.7621 9.150001L31.7621 9.150001L31.7621 6.74414C 31.7621 6.23398 31.7141 6.19805 31.198 6.16211L31.198 6.16211L31.198 6L31.198 6L32.6199 6C 33.3578 6 33.952 6.15 34.402 6.49805C 34.8641 6.84609 35.1398 7.38008 35.1398 8.1C 35.1398 8.664061 34.9301 9.101951 34.6359 9.38984C 34.2641 9.74414 33.7 9.900001 32.9379 9.900001z" stroke="#000000" stroke-width="0.4" fill="none" /><path id="135" transform="matrix(1 0 0 -1 0 834)" d="M38.3801 6.97813C 38.2898 6.70195 38.1758 6.51016 38.0738 6.38984C 37.9359 6.23398 37.732 6.20391 37.402 6.20391C 37.15 6.20391 36.9461 6.21602 36.8258 6.28203C 36.718 6.34219 36.6879 6.46211 36.6879 6.78594L36.6879 6.78594L36.6879 9.15586C 36.6879 9.66602 36.7418 9.69609 37.216 9.73203L37.216 9.73203L37.216 9.900001L37.216 9.900001L35.65 9.900001L35.65 9.900001L35.65 9.73203C 36.1359 9.69609 36.1777 9.66602 36.1777 9.15586L36.1777 9.15586L36.1777 6.75586C 36.1777 6.24609 36.1301 6.20391 35.6258 6.16797L35.6258 6.16797L35.6258 6L35.6258 6L38.3438 6C 38.398 6.18594 38.5238 6.75586 38.5598 6.94219z" stroke="#000000" stroke-width="0.4" fill="none" /><path id="136" transform="matrix(1 0 0 -1 0 834)" d="M41.0918 9.023829C 41.0438 9.40195 41.0141 9.63594 40.9898 9.851951C 40.7617 9.92383 40.5098 9.989841 40.234 9.989841C 39.4598 9.989841 38.998 9.49805 38.998 8.921881C 38.998 8.24414 39.6039 7.94414 39.9879 7.73984C 40.4379 7.5 40.768 7.28984 40.768 6.84609C 40.768 6.40781 40.498 6.12617 40.048 6.12617C 39.4301 6.12617 39.1598 6.73203 39.0641 7.09805L39.0641 7.09805L38.8898 7.05586C 38.9258 6.767971 39.0039 6.25195 39.052 6.12617C 39.1059 6.09609 39.1961 6.05391 39.3461 6C 39.4961 5.95781 39.6879 5.91016 39.934 5.91016C 40.732 5.91016 41.266 6.41406 41.266 7.04414C 41.266 7.71602 40.6961 7.99805 40.2277 8.23789C 39.7539 8.48398 39.466 8.68789 39.466 9.12617C 39.466 9.45 39.6699 9.78594 40.132 9.78594C 40.6539 9.78594 40.8098 9.371881 40.918 8.98789z" stroke="#000000" stroke-width="0.4" fill="none" /><path id="137" transform="matrix(1 0 0 -1 0 834)" d="M46.648 6L46.648 6.16797C 46.1258 6.21602 46.1078 6.24609 46.0898 6.88203L46.0898 6.88203L46.0301 9.05391C 46.0117 9.671881 46.0539 9.68398 46.582 9.73203L46.582 9.73203L46.582 9.900001L46.582 9.900001L45.5617 9.900001L45.5617 9.900001L44.1758 6.9L44.1758 6.9L42.8078 9.900001L42.8078 9.900001L41.8238 9.900001L41.8238 9.900001L41.8238 9.73203C 42.3699 9.67813 42.4 9.653911 42.3461 8.87383L42.3461 8.87383L42.2617 7.626171C 42.2141 7.00195 42.1777 6.73789 42.148 6.528131C 42.1059 6.27617 41.9859 6.21016 41.6379 6.16797L41.6379 6.16797L41.6379 6L41.6379 6L43.0359 6L43.0359 6L43.0359 6.16797C 42.6398 6.21016 42.4961 6.25195 42.484 6.53984C 42.4777 6.78008 42.4777 7.04414 42.502 7.53594L42.502 7.53594L42.5918 9.24609L42.5918 9.24609L42.6039 9.24609L42.6039 9.24609L43.948 6.04219L43.948 6.04219L44.068 6.04219L44.068 6.04219L45.532 9.33008L45.532 9.33008L45.5559 9.33008L45.5559 9.33008L45.5738 6.88203C 45.5801 6.24609 45.5559 6.21602 45.0699 6.16797L45.0699 6.16797L45.0699 6z" stroke="#000000" stroke-width="0.4" fill="none" /><path id="138" transform="matrix(1 0 0 -1 0 834)" d="M51.8738 7.05586C 51.5738 6.45586 51.2496 6.12617 50.6379 6.12617C 49.7258 6.12617 49.0656 6.89414 49.0656 8.016021C 49.0656 8.92813 49.5996 9.773829 50.602 9.773829C 51.2496 9.773829 51.6098 9.516021 51.7656 8.88008L51.7656 8.88008L51.9457 8.921881C 51.9098 9.24609 51.8738 9.48594 51.8258 9.828131C 51.6578 9.85781 51.2496 9.989841 50.7637 9.989841C 49.4258 9.989841 48.4539 9.15586 48.4539 7.89609C 48.4539 6.94219 49.1078 5.91016 50.602 5.91016C 51.034 5.91016 51.5379 6.03008 51.7059 6.07188C 51.8137 6.26992 51.9637 6.71406 52.0477 6.98984z" stroke="#000000" stroke-width="0.4" fill="none" /><path id="139" transform="matrix(1 0 0 -1 0 834)" d="M54.3398 9.773829C 55.1258 9.773829 55.7855 9.101951 55.7855 7.83594C 55.7855 6.68398 55.1855 6.12617 54.5195 6.12617C 53.6738 6.12617 53.0559 6.94805 53.0559 8.076171C 53.0559 9.19805 53.6676 9.773829 54.3398 9.773829zM54.4598 9.989841C 53.1996 9.989841 52.4438 8.98789 52.4438 7.90781C 52.4438 6.75586 53.3078 5.91016 54.3938 5.91016C 55.4918 5.91016 56.3977 6.70195 56.3977 7.99805C 56.3977 9.19805 55.4797 9.989841 54.4598 9.989841z" stroke="#000000" stroke-width="0.4" fill="none" /><path id="140" transform="matrix(1 0 0 -1 0 834)" d="M61.8277 6L61.8277 6.16797C 61.3059 6.21602 61.2879 6.24609 61.2695 6.88203L61.2695 6.88203L61.2098 9.05391C 61.1918 9.671881 61.2336 9.68398 61.7617 9.73203L61.7617 9.73203L61.7617 9.900001L61.7617 9.900001L60.7418 9.900001L60.7418 9.900001L59.3559 6.9L59.3559 6.9L57.9879 9.900001L57.9879 9.900001L57.0035 9.900001L57.0035 9.900001L57.0035 9.73203C 57.5496 9.67813 57.5797 9.653911 57.5258 8.87383L57.5258 8.87383L57.4418 7.626171C 57.3938 7.00195 57.3578 6.73789 57.3277 6.528131C 57.2855 6.27617 57.1656 6.21016 56.8176 6.16797L56.8176 6.16797L56.8176 6L56.8176 6L58.2156 6L58.2156 6L58.2156 6.16797C 57.8195 6.21016 57.6758 6.25195 57.6637 6.53984C 57.6578 6.78008 57.6578 7.04414 57.6816 7.53594L57.6816 7.53594L57.7719 9.24609L57.7719 9.24609L57.7836 9.24609L57.7836 9.24609L59.1277 6.04219L59.1277 6.04219L59.2477 6.04219L59.2477 6.04219L60.7117 9.33008L60.7117 9.33008L60.7355 9.33008L60.7355 9.33008L60.7535 6.88203C 60.7598 6.24609 60.7355 6.21602 60.2496 6.16797L60.2496 6.16797L60.2496 6z" stroke="#000000" stroke-width="0.4" fill="none" /><path id="141" transform="matrix(1 0 0 -1 0 834)" d="M63.8258 6L63.8258 6.16797C 63.3336 6.20391 63.2855 6.23398 63.2855 6.75L63.2855 6.75L63.2855 9.150001C 63.2855 9.66016 63.3336 9.69609 63.8258 9.73203L63.8258 9.73203L63.8258 9.900001L63.8258 9.900001L62.2355 9.900001L62.2355 9.900001L62.2355 9.73203C 62.7277 9.69609 62.7758 9.66016 62.7758 9.150001L62.7758 9.150001L62.7758 6.75C 62.7758 6.23984 62.7277 6.20391 62.2355 6.16797L62.2355 6.16797L62.2355 6z" stroke="#000000" stroke-width="0.4" fill="none" /><path id="142" transform="matrix(1 0 0 -1 0 834)" d="M66.5074 9.023829C 66.4598 9.40195 66.4297 9.63594 66.4055 9.851951C 66.1777 9.92383 65.9258 9.989841 65.6496 9.989841C 64.8758 9.989841 64.4137 9.49805 64.4137 8.921881C 64.4137 8.24414 65.0195 7.94414 65.4035 7.73984C 65.8535 7.5 66.1836 7.28984 66.1836 6.84609C 66.1836 6.40781 65.9137 6.12617 65.46371 6.12617C 64.8457 6.12617 64.5758 6.73203 64.4797 7.09805L64.4797 7.09805L64.3055 7.05586C 64.3418 6.767971 64.4195 6.25195 64.46761 6.12617C 64.52151 6.09609 64.6117 6.05391 64.7617 6C 64.91171 5.95781 65.1035 5.91016 65.3496 5.91016C 66.1477 5.91016 66.6816 6.41406 66.6816 7.04414C 66.6816 7.71602 66.1117 7.99805 65.6438 8.23789C 65.1695 8.48398 64.8816 8.68789 64.8816 9.12617C 64.8816 9.45 65.0855 9.78594 65.5477 9.78594C 66.0695 9.78594 66.2258 9.371881 66.3336 8.98789z" stroke="#000000" stroke-width="0.4" fill="none" /><path id="143" transform="matrix(1 0 0 -1 0 834)" d="M69.4055 7.68008L68.3016 7.68008C 68.4816 8.171881 68.6734 8.69414 68.8656 9.21016L68.8656 9.21016L68.8777 9.21016zM70.9355 6L70.9355 6.16797C 70.5457 6.20391 70.46761 6.25781 70.2758 6.77383C 69.89181 7.81797 69.4895 8.95781 69.11761 9.989841L69.11761 9.989841L68.9316 9.93594L68.9316 9.93594L67.68951 6.78594C 67.4797 6.25781 67.3957 6.22188 67.0176 6.16797L67.0176 6.16797L67.0176 6L67.0176 6L68.3195 6L68.3195 6L68.3195 6.16797C 67.8695 6.21016 67.81561 6.26992 67.9477 6.64805C 68.0258 6.9 68.1156 7.15195 68.2117 7.42188L68.2117 7.42188L69.4895 7.42188C 69.62151 7.05586 69.74181 6.73203 69.8195 6.49805C 69.8977 6.26406 69.8438 6.21602 69.4656 6.16797L69.4656 6.16797L69.4656 6z" stroke="#000000" stroke-width="0.4" fill="none" /><path id="144" transform="matrix(1 0 0 -1 0 834)" d="M71.7273 5.92813C 71.9195 5.92813 72.06371 6.06602 72.06371 6.27617C 72.06371 6.46797 71.9195 6.61797 71.7273 6.61797C 71.5355 6.61797 71.3914 6.46797 71.3914 6.27617C 71.3914 6.06602 71.5355 5.92813 71.7273 5.92813z" stroke="#000000" stroke-width="0.4" fill="none" /><path id="145" transform="matrix(1 0 0 -1 0 834)" d="M73.9234 6L73.9234 6.15586C 73.53951 6.19219 73.4977 6.22813 73.4977 6.63594L73.4977 6.63594L73.4977 8.70586C 73.2336 8.59805 72.9516 8.51992 72.6453 8.471881L72.6453 8.471881L72.6453 8.328131C 73.0055 8.26797 73.0234 8.24414 73.0234 7.871881L73.0234 7.871881L73.0234 6.63594C 73.0234 6.22813 72.9816 6.19219 72.6035 6.15586L72.6035 6.15586L72.6035 6zM73.2215 9.216021C 73.3953 9.216021 73.52731 9.36016 73.52731 9.52188C 73.52731 9.70195 73.3953 9.83398 73.2273 9.83398C 73.06561 9.83398 72.9215 9.70195 72.9215 9.52188C 72.9215 9.36016 73.06561 9.216021 73.2215 9.216021z" stroke="#000000" stroke-width="0.4" fill="none" /><path id="146" transform="matrix(1 0 0 -1 0 834)" d="M77.1574 6L77.1574 6.15586C 76.8094 6.19219 76.7793 6.21602 76.7793 6.62383L76.7793 6.62383L76.7793 7.78203C 76.7793 8.36406 76.4793 8.69414 76.0055 8.69414C 75.8313 8.69414 75.67541 8.621881 75.5074 8.51406C 75.3574 8.41211 75.2254 8.32188 75.1055 8.23203L75.1055 8.23203L75.1055 8.712111C 74.8414 8.59219 74.5594 8.51992 74.27151 8.466021L74.27151 8.466021L74.27151 8.328131C 74.5953 8.26797 74.6313 8.25 74.6313 7.86602L74.6313 7.86602L74.6313 6.62383C 74.6313 6.22813 74.6016 6.19805 74.19341 6.15586L74.19341 6.15586L74.19341 6L74.19341 6L75.4953 6L75.4953 6L75.4953 6.15586C 75.1414 6.19219 75.1055 6.21602 75.1055 6.62383L75.1055 6.62383L75.1055 8.03398C 75.2855 8.18984 75.5195 8.33984 75.7594 8.33984C 76.1613 8.33984 76.3055 8.069921 76.3055 7.65586L76.3055 7.65586L76.3055 6.65391C 76.3055 6.23984 76.2633 6.19219 75.9094 6.15586L75.9094 6.15586L75.9094 6z" stroke="#000000" stroke-width="0.4" fill="none" /><path id="147" transform="matrix(1 0 0 -1 0 834)" d="M79.4734 6.51016C 79.32931 6.40195 79.1133 6.30586 78.8973 6.30586C 78.5133 6.30586 78.0754 6.65391 78.0754 7.36797C 78.0754 8.23789 78.57931 8.471881 78.8555 8.471881C 79.0832 8.471881 79.32931 8.37617 79.4734 8.16602zM80.4035 6.30586L80.2113 6.32383C 79.9895 6.34805 79.9473 6.37813 79.9473 6.68984L79.9473 6.68984L79.9473 10.2719C 79.7254 10.1941 79.3234 10.1039 79.0113 10.0621L79.0113 10.0621L79.0113 9.917971C 79.44341 9.88789 79.4734 9.869921 79.4734 9.47383L79.4734 9.47383L79.4734 8.628131C 79.3355 8.67617 79.1613 8.69414 79.0773 8.69414C 78.2613 8.69414 77.5293 8.03984 77.5293 7.20586C 77.5293 6.36602 78.1594 5.92813 78.6395 5.92813C 78.7113 5.92813 78.87341 5.96406 79.1074 6.10195L79.1074 6.10195L79.4734 6.31797L79.4734 6.31797L79.4734 5.92813C 79.8215 6.05391 80.27151 6.13203 80.4035 6.15586z" stroke="#000000" stroke-width="0.4" fill="none" /><path id="148" transform="matrix(1 0 0 -1 0 834)" d="M81.3813 8.24414C 81.4895 8.310161 81.6813 8.35781 81.84921 8.35781C 82.34731 8.35781 82.7676 7.96211 82.7676 7.278131C 82.7676 6.58203 82.4492 6.15586 81.9516 6.15586C 81.6336 6.16211 81.4535 6.37188 81.4176 6.49219C 81.3934 6.54609 81.3813 6.60586 81.3813 6.69609zM81.3813 8.42383L81.3813 10.2719C 81.1594 10.1941 80.7934 10.098 80.5113 10.0621L80.5113 10.0621L80.5113 9.92383C 80.8953 9.88789 80.9074 9.851951 80.9074 9.48008L80.9074 9.48008L80.9074 6.14414C 81.2375 5.98789 81.5434 5.92813 81.78951 5.92813C 82.59341 5.92813 83.2953 6.55195 83.2953 7.43398C 83.2953 8.14219 82.7555 8.69414 82.1133 8.69414C 82.0473 8.69414 81.9633 8.67617 81.86761 8.63398z" stroke="#000000" stroke-width="0.4" fill="none" /><path id="149" transform="matrix(1 0 0 -1 0 834)" d="M89.90701 6L89.90701 6.16211C 89.3613 6.20391 89.3254 6.25195 89.3254 6.68398L89.3254 6.68398L89.3254 9.810161C 88.9953 9.67813 88.641 9.56406 88.257 9.49805L88.257 9.49805L88.257 9.36016L88.257 9.36016L88.5453 9.34805C 88.8094 9.33594 88.8332 9.305861 88.8332 8.99414L88.8332 8.99414L88.8332 6.68398C 88.8332 6.25195 88.8031 6.20391 88.257 6.16211L88.257 6.16211L88.257 6z" stroke="#000000" stroke-width="0.4" fill="none" /><path id="166" transform="matrix(1 0 0 -1 0 834)" d="M554.472 6.83984C 554.292 6.46211 554.2141 6.43789 553.89 6.43789L553.89 6.43789L552.768 6.43789L552.768 6.43789L553.6201 7.33203C 554.1721 7.91992 554.412 8.273829 554.412 8.79609C 554.412 9.42617 553.932 9.810161 553.404 9.810161C 553.056 9.810161 552.774 9.653911 552.594 9.45586L552.594 9.45586L552.252 8.96992L552.252 8.96992L552.384 8.85C 552.54 9.08398 552.792 9.40781 553.2 9.40781C 553.644 9.40781 553.908 9.11406 553.908 8.61016C 553.908 8.09414 553.53 7.60195 553.158 7.15781C 552.858 6.81016 552.522 6.46797 552.186 6.13789L552.186 6.13789L552.186 6L552.186 6L554.43 6C 554.502 6.26992 554.562 6.53398 554.64 6.78594z" stroke="#000000" stroke-width="0.4" fill="none" /><path id="167" transform="matrix(1 0 0 -1 0 834)" d="M555.792 9.3L557.19 9.3L557.19 9.3L557.346 9.68984L557.346 9.68984L557.31 9.73789L557.31 9.73789L555.6 9.73789L555.6 9.73789L555.366 7.90781C 555.504 7.96211 555.732 8.028131 555.984 8.028131C 556.638 8.028131 556.962 7.65 556.962 7.121881C 556.962 6.67188 556.71 6.23398 556.2 6.23398C 555.834 6.23398 555.588 6.42617 555.462 6.53984C 555.402 6.58789 555.354 6.58203 555.3 6.53984C 555.234 6.48008 555.18 6.40195 555.174 6.34219C 555.162 6.26992 555.192 6.22188 555.27 6.13789C 555.36 6.05391 555.612 5.92813 555.888 5.92813C 556.206 5.93398 556.608 6.08984 556.932 6.35391C 557.298 6.65391 557.466 6.99609 557.466 7.35586C 557.466 7.84805 557.076 8.369921 556.308 8.369921C 556.146 8.369921 555.864 8.273829 555.636 8.18984z" stroke="#000000" stroke-width="0.4" fill="none" /><path id="168" transform="matrix(1 0 0 -1 0 834)" d="M559.548 9.989841L559.212 9.989841L559.212 9.989841L557.91 5.73594L557.91 5.73594L558.246 5.73594z" stroke="#000000" stroke-width="0.4" fill="none" /><path id="169" transform="matrix(1 0 0 -1 0 834)" d="M561.18 9.61211C 561.72 9.61211 561.8701 8.72383 561.8701 7.871881C 561.8701 7.03203 561.726 6.13203 561.186 6.13203C 560.664 6.13203 560.49 7.03789 560.49 7.87813C 560.49 8.712111 560.634 9.61211 561.18 9.61211zM561.186 9.810161C 560.286 9.810161 559.956 8.74219 559.956 7.86602C 559.956 6.91797 560.28 5.92813 561.186 5.92813C 562.086 5.92813 562.404 6.99609 562.404 7.871881C 562.404 8.79609 562.086 9.810161 561.186 9.810161z" stroke="#000000" stroke-width="0.4" fill="none" /><path id="170" transform="matrix(1 0 0 -1 0 834)" d="M564 9.61211C 564.582 9.61211 564.738 8.86797 564.738 8.33984C 564.738 8.21992 564.732 8.076171 564.7141 7.94414C 564.588 7.84805 564.384 7.77617 564.174 7.77617C 563.67 7.77617 563.3701 8.214061 563.3701 8.74219C 563.3701 9.09609 563.538 9.61211 564 9.61211zM564.078 9.810161C 563.304 9.810161 562.854 9.10781 562.854 8.53203C 562.854 7.90195 563.292 7.43398 563.928 7.43398C 564.042 7.43398 564.156 7.45781 564.288 7.53008L564.288 7.53008L564.69 7.74609C 564.492 6.83398 563.838 6.23398 562.98 6.08984L562.98 6.08984L563.01 5.91016C 563.16 5.91016 563.526 5.96992 563.85 6.10195C 564.66 6.42617 565.2661 7.20586 565.2661 8.310161C 565.2661 9.12617 564.828 9.810161 564.078 9.810161z" stroke="#000000" stroke-width="0.4" fill="none" /><path id="171" transform="matrix(1 0 0 -1 0 834)" d="M567.294 9.989841L566.958 9.989841L566.958 9.989841L565.656 5.73594L565.656 5.73594L565.992 5.73594z" stroke="#000000" stroke-width="0.4" fill="none" /><path id="172" transform="matrix(1 0 0 -1 0 834)" d="M569.9641 6.83984C 569.784 6.46211 569.706 6.43789 569.382 6.43789L569.382 6.43789L568.26 6.43789L568.26 6.43789L569.112 7.33203C 569.664 7.91992 569.904 8.273829 569.904 8.79609C 569.904 9.42617 569.424 9.810161 568.896 9.810161C 568.548 9.810161 568.2661 9.653911 568.086 9.45586L568.086 9.45586L567.744 8.96992L567.744 8.96992L567.876 8.85C 568.032 9.08398 568.284 9.40781 568.692 9.40781C 569.136 9.40781 569.4 9.11406 569.4 8.61016C 569.4 8.09414 569.022 7.60195 568.65 7.15781C 568.35 6.81016 568.014 6.46797 567.678 6.13789L567.678 6.13789L567.678 6L567.678 6L569.9221 6C 569.994 6.26992 570.054 6.53398 570.132 6.78594z" stroke="#000000" stroke-width="0.4" fill="none" /><path id="173" transform="matrix(1 0 0 -1 0 834)" d="M571.806 9.61211C 572.346 9.61211 572.496 8.72383 572.496 7.871881C 572.496 7.03203 572.352 6.13203 571.812 6.13203C 571.29 6.13203 571.116 7.03789 571.116 7.87813C 571.116 8.712111 571.26 9.61211 571.806 9.61211zM571.812 9.810161C 570.912 9.810161 570.582 8.74219 570.582 7.86602C 570.582 6.91797 570.906 5.92813 571.812 5.92813C 572.712 5.92813 573.03 6.99609 573.03 7.871881C 573.03 8.79609 572.712 9.810161 571.812 9.810161z" stroke="#000000" stroke-width="0.4" fill="none" /><path id="174" transform="matrix(1 0 0 -1 0 834)" d="M575.556 6L575.556 6.16211C 575.01 6.20391 574.9741 6.25195 574.9741 6.68398L574.9741 6.68398L574.9741 9.810161C 574.644 9.67813 574.29 9.56406 573.906 9.49805L573.906 9.49805L573.906 9.36016L573.906 9.36016L574.194 9.34805C 574.458 9.33594 574.482 9.305861 574.482 8.99414L574.482 8.99414L574.482 6.68398C 574.482 6.25195 574.452 6.20391 573.906 6.16211L573.906 6.16211L573.906 6z" stroke="#000000" stroke-width="0.4" fill="none" /><path id="175" transform="matrix(1 0 0 -1 0 834)" d="M578.814 9.73789L576.522 9.73789C 576.498 9.48008 576.468 9.180079 576.414 8.85L576.414 8.85L576.588 8.85C 576.732 9.24609 576.768 9.3 577.164 9.3L577.164 9.3L578.46 9.3C 577.986 8.25586 577.308 7.01406 576.678 5.99414L576.678 5.99414L576.72 5.92813L576.72 5.92813L577.164 5.98789C 577.74 7.22383 578.298 8.44805 578.862 9.66602z" stroke="#000000" stroke-width="0.4" fill="none" /><path id="176" transform="matrix(1 0 0 -1 0 834)" d="M584.531 9.61211C 585.071 9.61211 585.221 8.72383 585.221 7.871881C 585.221 7.03203 585.077 6.13203 584.537 6.13203C 584.015 6.13203 583.841 7.03789 583.841 7.87813C 583.841 8.712111 583.985 9.61211 584.531 9.61211zM584.537 9.810161C 583.637 9.810161 583.307 8.74219 583.307 7.86602C 583.307 6.91797 583.631 5.92813 584.537 5.92813C 585.437 5.92813 585.755 6.99609 585.755 7.871881C 585.755 8.79609 585.437 9.810161 584.537 9.810161z" stroke="#000000" stroke-width="0.4" fill="none" /><path id="177" transform="matrix(1 0 0 -1 0 834)" d="M588.449 6.83984C 588.269 6.46211 588.191 6.43789 587.867 6.43789L587.867 6.43789L586.7451 6.43789L586.7451 6.43789L587.597 7.33203C 588.149 7.91992 588.389 8.273829 588.389 8.79609C 588.389 9.42617 587.909 9.810161 587.381 9.810161C 587.033 9.810161 586.751 9.653911 586.571 9.45586L586.571 9.45586L586.229 8.96992L586.229 8.96992L586.361 8.85C 586.517 9.08398 586.769 9.40781 587.177 9.40781C 587.621 9.40781 587.885 9.11406 587.885 8.61016C 587.885 8.09414 587.507 7.60195 587.135 7.15781C 586.835 6.81016 586.499 6.46797 586.163 6.13789L586.163 6.13789L586.163 6L586.163 6L588.407 6C 588.479 6.26992 588.539 6.53398 588.617 6.78594z" stroke="#000000" stroke-width="0.4" fill="none" /><path id="178" transform="matrix(1 0 0 -1 0 834)" d="M589.5471 5.92813C 589.739 5.92813 589.883 6.06602 589.883 6.27617C 589.883 6.46797 589.739 6.61797 589.5471 6.61797C 589.355 6.61797 589.211 6.46797 589.211 6.27617C 589.211 6.06602 589.355 5.92813 589.5471 5.92813zM589.541 8.466021C 589.3491 8.466021 589.211 8.328131 589.211 8.13008C 589.211 7.92617 589.3491 7.78203 589.541 7.78203C 589.733 7.78203 589.877 7.92617 589.877 8.13008C 589.877 8.328131 589.733 8.466021 589.541 8.466021z" stroke="#000000" stroke-width="0.4" fill="none" /><path id="179" transform="matrix(1 0 0 -1 0 834)" d="M592.697 6.83984C 592.517 6.46211 592.439 6.43789 592.115 6.43789L592.115 6.43789L590.993 6.43789L590.993 6.43789L591.845 7.33203C 592.397 7.91992 592.637 8.273829 592.637 8.79609C 592.637 9.42617 592.157 9.810161 591.629 9.810161C 591.281 9.810161 590.999 9.653911 590.819 9.45586L590.819 9.45586L590.477 8.96992L590.477 8.96992L590.609 8.85C 590.765 9.08398 591.017 9.40781 591.425 9.40781C 591.869 9.40781 592.133 9.11406 592.133 8.61016C 592.133 8.09414 591.755 7.60195 591.383 7.15781C 591.083 6.81016 590.747 6.46797 590.411 6.13789L590.411 6.13789L590.411 6L590.411 6L592.655 6C 592.727 6.26992 592.787 6.53398 592.865 6.78594z" stroke="#000000" stroke-width="0.4" fill="none" /><path id="180" transform="matrix(1 0 0 -1 0 834)" d="M594.539 9.61211C 595.079 9.61211 595.229 8.72383 595.229 7.871881C 595.229 7.03203 595.085 6.13203 594.545 6.13203C 594.023 6.13203 593.8491 7.03789 593.8491 7.87813C 593.8491 8.712111 593.993 9.61211 594.539 9.61211zM594.545 9.810161C 593.645 9.810161 593.315 8.74219 593.315 7.86602C 593.315 6.91797 593.639 5.92813 594.545 5.92813C 595.445 5.92813 595.763 6.99609 595.763 7.871881C 595.763 8.79609 595.445 9.810161 594.545 9.810161z" stroke="#000000" stroke-width="0.4" fill="none" /><path id="181" transform="matrix(1 0 0 -1 0 834)" d="M596.675 5.92813C 596.867 5.92813 597.011 6.06602 597.011 6.27617C 597.011 6.46797 596.867 6.61797 596.675 6.61797C 596.483 6.61797 596.3391 6.46797 596.3391 6.27617C 596.3391 6.06602 596.483 5.92813 596.675 5.92813zM596.669 8.466021C 596.477 8.466021 596.3391 8.328131 596.3391 8.13008C 596.3391 7.92617 596.477 7.78203 596.669 7.78203C 596.861 7.78203 597.005 7.92617 597.005 8.13008C 597.005 8.328131 596.861 8.466021 596.669 8.466021z" stroke="#000000" stroke-width="0.4" fill="none" /><path id="182" transform="matrix(1 0 0 -1 0 834)" d="M599.657 6L599.657 6.16211C 599.111 6.20391 599.075 6.25195 599.075 6.68398L599.075 6.68398L599.075 9.810161C 598.7451 9.67813 598.3911 9.56406 598.007 9.49805L598.007 9.49805L598.007 9.36016L598.007 9.36016L598.295 9.34805C 598.559 9.33594 598.583 9.305861 598.583 8.99414L598.583 8.99414L598.583 6.68398C 598.583 6.25195 598.553 6.20391 598.007 6.16211L598.007 6.16211L598.007 6z" stroke="#000000" stroke-width="0.4" fill="none" /><path id="183" transform="matrix(1 0 0 -1 0 834)" d="M601.913 7.35L600.731 7.35C 601.127 8.016021 601.517 8.58594 601.901 9.119921L601.901 9.119921L601.913 9.119921zM602.969 7.06797L602.969 7.35L602.969 7.35L602.393 7.35L602.393 7.35L602.393 9.79219L602.393 9.79219L602.153 9.79219C 601.535 8.976171 600.923 8.08789 600.353 7.23594L600.353 7.23594L600.353 7.06797L600.353 7.06797L601.913 7.06797L601.913 7.06797L601.913 6.63594C 601.913 6.23984 601.889 6.20391 601.367 6.16211L601.367 6.16211L601.367 6L601.367 6L602.903 6L602.903 6L602.903 6.16211C 602.417 6.20391 602.393 6.23398 602.393 6.63594L602.393 6.63594L602.393 7.06797z" stroke="#000000" stroke-width="0.4" fill="none" /><path id="184" transform="matrix(1 0 0 -1 0 834)" d="M605.489 8.08203C 605.651 8.20195 605.897 8.33398 606.0891 8.33398C 606.527 8.33398 606.893 7.97383 606.893 7.33203C 606.893 6.65391 606.557 6.22188 606.053 6.22188C 605.8491 6.22188 605.621 6.31797 605.489 6.45586zM605.489 8.28008L605.489 8.75391C 605.207 8.63984 604.871 8.53789 604.619 8.49609L604.619 8.49609L604.619 8.351951C 604.991 8.30391 605.015 8.29219 605.015 7.90195L605.015 7.90195L605.015 5.18984C 605.015 4.79414 604.961 4.75781 604.577 4.72188L604.577 4.72188L604.577 4.56016L604.577 4.56016L605.999 4.56016L605.999 4.56016L605.999 4.72188C 605.531 4.76406 605.489 4.79414 605.489 5.25L605.489 5.25L605.489 6.03594C 605.567 5.99414 605.729 5.93398 605.903 5.92813C 606.683 6.07188 607.397 6.65391 607.397 7.56016C 607.397 8.153911 607.001 8.69414 606.335 8.69414C 606.263 8.69414 606.149 8.664061 606.041 8.60391z" stroke="#000000" stroke-width="0.4" fill="none" /><path id="185" transform="matrix(1 0 0 -1 0 834)" d="M608.303 5.92813C 608.4951 5.92813 608.639 6.06602 608.639 6.27617C 608.639 6.46797 608.4951 6.61797 608.303 6.61797C 608.111 6.61797 607.967 6.46797 607.967 6.27617C 607.967 6.06602 608.111 5.92813 608.303 5.92813z" stroke="#000000" stroke-width="0.4" fill="none" /><path id="186" transform="matrix(1 0 0 -1 0 834)" d="M615.125 6L615.125 6.15586C 614.783 6.19219 614.735 6.21602 614.735 6.61797L614.735 6.61797L614.735 7.77617C 614.735 8.36406 614.441 8.69414 613.973 8.69414C 613.805 8.69414 613.649 8.621881 613.523 8.53789C 613.373 8.44805 613.199 8.33398 613.025 8.20195C 612.905 8.51406 612.647 8.69414 612.359 8.69414C 612.167 8.69414 612.023 8.628131 611.867 8.53203C 611.687 8.417971 611.555 8.310161 611.429 8.226171L611.429 8.226171L611.429 8.712111C 611.165 8.59219 610.859 8.51406 610.595 8.466021L610.595 8.466021L610.595 8.328131C 610.9431 8.273829 610.961 8.24414 610.961 7.86016L610.961 7.86016L610.961 6.61797C 610.961 6.22813 610.907 6.19219 610.511 6.15586L610.511 6.15586L610.511 6L610.511 6L611.777 6L611.777 6L611.777 6.15586C 611.483 6.19219 611.435 6.22813 611.435 6.61797L611.435 6.61797L611.435 8.028131C 611.615 8.17813 611.8491 8.33984 612.0891 8.33984C 612.455 8.33984 612.611 8.09414 612.611 7.65L612.611 7.65L612.611 6.61797C 612.611 6.22188 612.557 6.19219 612.185 6.15586L612.185 6.15586L612.185 6L612.185 6L613.469 6L613.469 6L613.469 6.15586C 613.139 6.19219 613.085 6.22813 613.085 6.60586L613.085 6.60586L613.085 7.77617C 613.085 7.88984 613.079 7.95586 613.067 8.028131C 613.295 8.21992 613.523 8.33984 613.739 8.33984C 614.117 8.33984 614.267 8.069921 614.267 7.64414L614.267 7.64414L614.267 6.64219C 614.267 6.21602 614.201 6.19219 613.847 6.15586L613.847 6.15586L613.847 6z" stroke="#000000" stroke-width="0.4" fill="none" /><path id="187" transform="matrix(1 0 0 -1 0 834)" d="M615.947 5.92813C 616.139 5.92813 616.283 6.06602 616.283 6.27617C 616.283 6.46797 616.139 6.61797 615.947 6.61797C 615.755 6.61797 615.611 6.46797 615.611 6.27617C 615.611 6.06602 615.755 5.92813 615.947 5.92813z" stroke="#000000" stroke-width="0.4" fill="none" /></g></g></svg>