<svg xmlns="http://www.w3.org/2000/svg" xmlns:xlink="http://www.w3.org/1999/xlink" id="body_1" preserveAspectRatio="xMinYMin meet" viewBox="0 0 872 1112"><defs><clipPath id="1"><path id="" clip-rule="evenodd" transform="matrix(1 0 0 1 0 0)" d="M0 834L0 0L0 0L654 0L654 0L654 834L654 834L0 834z" /></clipPath><clipPath id="2"><path id="" clip-rule="evenodd" transform="matrix(1 0 0 1 0 0)" d="M21 813L633 813L633 813L633 21L633 21L21 21z" /></clipPath><clipPath id="3"><path id="" clip-rule="evenodd" transform="matrix(1 0 0 1 0 0)" d="M326.405 269.888L458.057 269.888L458.057 269.888L458.057 124.272L458.057 124.272L326.405 124.272z" /></clipPath><clipPath id="4"><path id="" clip-rule="evenodd" transform="matrix(1 0 0 1 0 0)" d="M326.405 269.888L458.057 269.888L458.057 269.888L458.057 124.272L458.057 124.272L326.405 124.272z" /></clipPath><clipPath id="5"><path id="" clip-rule="evenodd" transform="matrix(1 0 0 1 0 0)" d="M326.405 270.54L537.4741 270.54L537.4741 270.54L537.4741 124.272L537.4741 124.272L326.405 124.272z" /></clipPath><clipPath id="6"><path id="" clip-rule="evenodd" transform="matrix(1 0 0 1 0 0)" d="M484.115 182.332C 473.894 185.391 465.262 192.539 459.846 202.031L459.846 202.031L459.846 202.031L459.846 202.031L459.846 248.534C 467.148 261.329 480.296 269.867 495.301 269.867L495.301 269.867L495.301 269.867C 518.247 269.867 536.847 249.905 536.847 225.282L536.847 225.282L536.847 225.282C 536.847 204.816 524.001 187.572 506.488 182.332L506.488 182.332L506.488 182.332z" /></clipPath><clipPath id="7"><path id="" clip-rule="evenodd" transform="matrix(1 0 0 1 0 0)" d="M484.115 182.332C 473.894 185.391 465.262 192.539 459.846 202.031L459.846 202.031L459.846 202.031L459.846 202.031L459.846 248.534C 467.148 261.329 480.296 269.867 495.301 269.867L495.301 269.867L495.301 269.867C 518.247 269.867 536.847 249.905 536.847 225.282L536.847 225.282L536.847 225.282C 536.847 204.816 524.001 187.572 506.488 182.332L506.488 182.332L506.488 182.332z" /></clipPath><clipPath id="8"><path id="" clip-rule="evenodd" transform="matrix(1 0 0 1 0 0)" d="M326.405 270.54L537.4741 270.54L537.4741 270.54L537.4741 124.272L537.4741 124.272L326.405 124.272z" /></clipPath><clipPath id="9"><path id="" clip-rule="evenodd" transform="matrix(1 0 0 1 0 0)" d="M326.405 270.54L537.4741 270.54L537.4741 270.54L537.4741 124.272L537.4741 124.272L326.405 124.272z" /></clipPath><clipPath id="10"><path id="" clip-rule="evenodd" transform="matrix(1 0 0 1 0 0)" d="M261.68 168.858L298.9179 168.858L298.9179 168.858L298.9179 111.9412L298.9179 111.9412L261.68 111.9412z" /></clipPath><clipPath id="11"><path id="" clip-rule="evenodd" transform="matrix(1 0 0 1 0 0)" d="M261.68 168.858L298.9179 168.858L298.9179 168.858L298.9179 111.9412L298.9179 111.9412L261.68 111.9412z" /></clipPath><clipPath id="12"><path id="" clip-rule="evenodd" transform="matrix(1 0 0 1 0 0)" d="M433.866 178.731L458.7211 178.731L458.7211 178.731L458.7211 142.872L458.7211 142.872L433.866 142.872z" /></clipPath><clipPath id="13"><path id="" clip-rule="evenodd" transform="matrix(1 0 0 1 0 0)" d="M433.866 178.731L458.7211 178.731L458.7211 178.731L458.7211 142.872L458.7211 142.872L433.866 142.872z" /></clipPath><clipPath id="14"><path id="" clip-rule="evenodd" transform="matrix(1 0 0 1 0 0)" d="M326.996 178.731L351.8499 178.731L351.8499 178.731L351.8499 142.872L351.8499 142.872L326.996 142.872z" /></clipPath><clipPath id="15"><path id="" clip-rule="evenodd" transform="matrix(1 0 0 1 0 0)" d="M326.996 178.731L351.8499 178.731L351.8499 178.731L351.8499 142.872L351.8499 142.872L326.996 142.872z" /></clipPath><clipPath id="16"><path id="" clip-rule="evenodd" transform="matrix(1 0 0 1 0 0)" d="M267.216 483.605L367.175 483.605L367.175 483.605L367.175 383.296L367.175 383.296L267.216 383.296z" /></clipPath><clipPath id="17"><path id="" clip-rule="evenodd" transform="matrix(1 0 0 1 0 0)" d="M267.216 483.605L367.175 483.605L367.175 483.605L367.175 383.296L367.175 383.296L267.216 383.296z" /></clipPath><clipPath id="18"><path id="" clip-rule="evenodd" transform="matrix(1 0 0 1 0 0)" d="M267.216 486.851L558.638 486.851L558.638 486.851L558.638 383.296L558.638 383.296L267.216 383.296z" /></clipPath><clipPath id="19"><path id="" clip-rule="evenodd" transform="matrix(1 0 0 1 0 0)" d="M385.769 425.752C 378.346 427.842 372.078 432.728 368.145 439.214L368.145 439.214L368.145 439.214L368.145 439.214L368.145 470.997C 373.447 479.742 382.995 485.578 393.892 485.578L393.892 485.578L393.892 485.578C 410.555 485.578 424.062 471.935 424.062 455.105L424.062 455.105L424.062 455.105C 424.062 441.118 414.733 429.333 402.016 425.752L402.016 425.752L402.016 425.752z" /></clipPath><clipPath id="20"><path id="" clip-rule="evenodd" transform="matrix(1 0 0 1 0 0)" d="M385.769 425.752C 378.346 427.842 372.078 432.728 368.145 439.214L368.145 439.214L368.145 439.214L368.145 439.214L368.145 470.997C 373.447 479.742 382.995 485.578 393.892 485.578L393.892 485.578L393.892 485.578C 410.555 485.578 424.062 471.935 424.062 455.105L424.062 455.105L424.062 455.105C 424.062 441.118 414.733 429.333 402.016 425.752L402.016 425.752L402.016 425.752z" /></clipPath><clipPath id="21"><path id="" clip-rule="evenodd" transform="matrix(1 0 0 1 0 0)" d="M267.216 486.851L558.638 486.851L558.638 486.851L558.638 383.296L558.638 383.296L267.216 383.296z" /></clipPath><clipPath id="22"><path id="" clip-rule="evenodd" transform="matrix(1 0 0 1 0 0)" d="M267.216 486.851L558.638 486.851L558.638 486.851L558.638 383.296L558.638 383.296L267.216 383.296z" /></clipPath><clipPath id="23"><path id="" clip-rule="evenodd" transform="matrix(1 0 0 1 0 0)" d="M267.216 486.851L558.638 486.851L558.638 486.851L558.638 383.296L558.638 383.296L267.216 383.296z" /></clipPath><clipPath id="24"><path id="" clip-rule="evenodd" transform="matrix(1 0 0 1 0 0)" d="M427.056 486.851L511.1853 486.851L511.1853 486.851L511.1853 384.887L511.1853 384.887L427.056 384.887z" /></clipPath><clipPath id="25"><path id="" clip-rule="evenodd" transform="matrix(1 0 0 1 0 0)" d="M427.056 486.851L511.1853 486.851L511.1853 486.851L511.1853 384.887L511.1853 384.887L427.056 384.887z" /></clipPath><clipPath id="26"><path id="" clip-rule="evenodd" transform="matrix(1 0 0 1 0 0)" d="M267.216 486.851L558.638 486.851L558.638 486.851L558.638 383.296L558.638 383.296L267.216 383.296z" /></clipPath><clipPath id="27"><path id="" clip-rule="evenodd" transform="matrix(1 0 0 1 0 0)" d="M497.233 455.291C 497.233 472.223 510.822 485.948 527.586 485.948L527.586 485.948L527.586 485.948C 544.35 485.948 557.939 472.223 557.939 455.291L557.939 455.291L557.939 455.291C 557.939 438.36 544.35 424.634 527.586 424.634L527.586 424.634L527.586 424.634C 510.822 424.634 497.233 438.36 497.233 455.291" /></clipPath><clipPath id="28"><path id="" clip-rule="evenodd" transform="matrix(1 0 0 1 0 0)" d="M497.233 455.291C 497.233 472.223 510.822 485.948 527.586 485.948L527.586 485.948L527.586 485.948C 544.35 485.948 557.939 472.223 557.939 455.291L557.939 455.291L557.939 455.291C 557.939 438.36 544.35 424.634 527.586 424.634L527.586 424.634L527.586 424.634C 510.822 424.634 497.233 438.36 497.233 455.291" /></clipPath><clipPath id="29"><path id="" clip-rule="evenodd" transform="matrix(1 0 0 1 0 0)" d="M267.216 486.851L558.638 486.851L558.638 486.851L558.638 383.296L558.638 383.296L267.216 383.296z" /></clipPath><clipPath id="30"><path id="" clip-rule="evenodd" transform="matrix(1 0 0 1 0 0)" d="M459.608 449.515L475.5279 449.515L475.5279 449.515L475.5279 419.213L475.5279 419.213L459.608 419.213z" /></clipPath><clipPath id="31"><path id="" clip-rule="evenodd" transform="matrix(1 0 0 1 0 0)" d="M459.608 449.515L475.528 449.515L475.528 449.515L475.528 419.213L475.528 419.213L459.608 419.213z" /></clipPath><clipPath id="32"><path id="" clip-rule="evenodd" transform="matrix(1 0 0 1 0 0)" d="M459.608 449.515L475.5275 449.515L475.5275 449.515L475.5275 419.213L475.5275 419.213L459.608 419.213z" /></clipPath><clipPath id="33"><path id="" clip-rule="evenodd" transform="matrix(1 0 0 1 0 0)" d="M265.881 388.805L294.1501 388.805L294.1501 388.805L294.1501 331.8889L294.1501 331.8889L265.881 331.8889z" /></clipPath><clipPath id="34"><path id="" clip-rule="evenodd" transform="matrix(1 0 0 1 0 0)" d="M265.881 388.805L294.1501 388.805L294.1501 388.805L294.1501 331.8889L294.1501 331.8889L265.881 331.8889z" /></clipPath><clipPath id="35"><path id="" clip-rule="evenodd" transform="matrix(1 0 0 1 0 0)" d="M397.682 424.664L425.6461 424.664L425.6461 424.664L425.6461 390.223L425.6461 390.223L397.682 390.223z" /></clipPath><clipPath id="36"><path id="" clip-rule="evenodd" transform="matrix(1 0 0 1 0 0)" d="M397.682 424.664L425.6461 424.664L425.6461 424.664L425.6461 390.223L425.6461 390.223L397.682 390.223z" /></clipPath><clipPath id="37"><path id="" clip-rule="evenodd" transform="matrix(1 0 0 1 0 0)" d="M491.835 424.664L524.9998 424.664L524.9998 424.664L524.9998 388.805L524.9998 388.805L491.835 388.805z" /></clipPath><clipPath id="38"><path id="" clip-rule="evenodd" transform="matrix(1 0 0 1 0 0)" d="M491.835 424.664L524.9998 424.664L524.9998 424.664L524.9998 388.805L524.9998 388.805L491.835 388.805z" /></clipPath><clipPath id="39"><path id="" clip-rule="evenodd" transform="matrix(1 0 0 1 0 0)" d="M347.925 424.664L372.7789 424.664L372.7789 424.664L372.7789 392.9788L372.7789 392.9788L347.925 392.9788z" /></clipPath><clipPath id="40"><path id="" clip-rule="evenodd" transform="matrix(1 0 0 1 0 0)" d="M347.925 424.664L372.7789 424.664L372.7789 424.664L372.7789 392.9788L372.7789 392.9788L347.925 392.9788z" /></clipPath><clipPath id="41"><path id="" clip-rule="evenodd" transform="matrix(1 0 0 1 0 0)" d="M259.11 423.69L286.3217 423.69L286.3217 423.69L286.3217 392.0052L286.3217 392.0052L259.11 392.0052z" /></clipPath><clipPath id="42"><path id="" clip-rule="evenodd" transform="matrix(1 0 0 1 0 0)" d="M259.11 423.69L286.3217 423.69L286.3217 423.69L286.3217 392.0052L286.3217 392.0052L259.11 392.0052z" /></clipPath><clipPath id="43"><path id="" clip-rule="evenodd" transform="matrix(1 0 0 1 0 0)" d="M259.143 695.402L320.518 695.402L320.518 695.402L320.518 625.4719L320.518 625.4719L259.143 625.4719z" /></clipPath><clipPath id="44"><path id="" clip-rule="evenodd" transform="matrix(1 0 0 1 0 0)" d="M259.143 695.402L320.518 695.402L320.518 695.402L320.518 625.4719L320.518 625.4719L259.143 625.4719z" /></clipPath><clipPath id="45"><path id="" clip-rule="evenodd" transform="matrix(1 0 0 1 0 0)" d="M259.143 697.413L558.939 697.413L558.939 697.413L558.939 617.8739L558.939 617.8739L259.143 617.8739z" /></clipPath><clipPath id="46"><path id="" clip-rule="evenodd" transform="matrix(1 0 0 1 0 0)" d="M335.656 647.013C 329.905 648.704 325.047 652.655 321.999 657.901L321.999 657.901L321.999 657.901L321.999 657.901L321.999 683.6C 326.109 690.672 333.508 695.391 341.951 695.391L341.951 695.391L341.951 695.391C 354.863 695.391 365.33 684.359 365.33 670.75L365.33 670.75L365.33 670.75C 365.33 659.441 358.1 649.91 348.246 647.013L348.246 647.013L348.246 647.013z" /></clipPath><clipPath id="47"><path id="" clip-rule="evenodd" transform="matrix(1 0 0 1 0 0)" d="M335.656 647.013C 329.905 648.704 325.047 652.655 321.999 657.901L321.999 657.901L321.999 657.901L321.999 657.901L321.999 683.6C 326.109 690.672 333.508 695.391 341.951 695.391L341.951 695.391L341.951 695.391C 354.863 695.391 365.33 684.359 365.33 670.75L365.33 670.75L365.33 670.75C 365.33 659.441 358.1 649.91 348.246 647.013L348.246 647.013L348.246 647.013z" /></clipPath><clipPath id="48"><path id="" clip-rule="evenodd" transform="matrix(1 0 0 1 0 0)" d="M259.143 697.413L558.939 697.413L558.939 697.413L558.939 617.8739L558.939 617.8739L259.143 617.8739z" /></clipPath><clipPath id="49"><path id="" clip-rule="evenodd" transform="matrix(1 0 0 1 0 0)" d="M259.143 697.413L558.939 697.413L558.939 697.413L558.939 617.8739L558.939 617.8739L259.143 617.8739z" /></clipPath><clipPath id="50"><path id="" clip-rule="evenodd" transform="matrix(1 0 0 1 0 0)" d="M357.805 695.314L428.8488 695.314L428.8488 695.314L428.8488 623.864L428.8488 623.864L357.805 623.864z" /></clipPath><clipPath id="51"><path id="" clip-rule="evenodd" transform="matrix(1 0 0 1 0 0)" d="M357.805 695.314L428.8488 695.314L428.8488 695.314L428.8488 623.864L428.8488 623.864L357.805 623.864z" /></clipPath><clipPath id="52"><path id="" clip-rule="evenodd" transform="matrix(1 0 0 1 0 0)" d="M460.025 694.385L529.4719 694.385L529.4719 694.385L529.4719 624.542L529.4719 624.542L460.025 624.542z" /></clipPath><clipPath id="53"><path id="" clip-rule="evenodd" transform="matrix(1 0 0 1 0 0)" d="M460.025 694.385L529.4719 694.385L529.4719 694.385L529.4719 624.542L529.4719 624.542L460.025 624.542z" /></clipPath><clipPath id="54"><path id="" clip-rule="evenodd" transform="matrix(1 0 0 1 0 0)" d="M259.143 697.413L558.939 697.413L558.939 697.413L558.939 617.8739L558.939 617.8739L259.143 617.8739z" /></clipPath><clipPath id="55"><path id="" clip-rule="evenodd" transform="matrix(1 0 0 1 0 0)" d="M418.824 670.921C 418.824 684.569 429.322 695.634 442.272 695.634L442.272 695.634L442.272 695.634C 455.221 695.634 465.719 684.569 465.719 670.921L465.719 670.921L465.719 670.921C 465.719 657.272 455.221 646.208 442.272 646.208L442.272 646.208L442.272 646.208C 429.322 646.208 418.824 657.272 418.824 670.921" /></clipPath><clipPath id="56"><path id="" clip-rule="evenodd" transform="matrix(1 0 0 1 0 0)" d="M418.824 670.921C 418.824 684.569 429.322 695.634 442.272 695.634L442.272 695.634L442.272 695.634C 455.221 695.634 465.719 684.569 465.719 670.921L465.719 670.921L465.719 670.921C 465.719 657.272 455.221 646.208 442.272 646.208L442.272 646.208L442.272 646.208C 429.322 646.208 418.824 657.272 418.824 670.921" /></clipPath><clipPath id="57"><path id="" clip-rule="evenodd" transform="matrix(1 0 0 1 0 0)" d="M259.143 697.413L558.939 697.413L558.939 697.413L558.939 617.8739L558.939 617.8739L259.143 617.8739z" /></clipPath><clipPath id="58"><path id="" clip-rule="evenodd" transform="matrix(1 0 0 1 0 0)" d="M510.317 671.267C 510.317 685.297 521.109 696.671 534.421 696.671L534.421 696.671L534.421 696.671C 547.732 696.671 558.523 685.297 558.523 671.267L558.523 671.267L558.523 671.267C 558.523 657.236 547.732 645.862 534.421 645.862L534.421 645.862L534.421 645.862C 521.109 645.862 510.317 657.236 510.317 671.267" /></clipPath><clipPath id="59"><path id="" clip-rule="evenodd" transform="matrix(1 0 0 1 0 0)" d="M510.317 671.267C 510.317 685.297 521.109 696.671 534.421 696.671L534.421 696.671L534.421 696.671C 547.732 696.671 558.523 685.297 558.523 671.267L558.523 671.267L558.523 671.267C 558.523 657.236 547.732 645.862 534.421 645.862L534.421 645.862L534.421 645.862C 521.109 645.862 510.317 657.236 510.317 671.267" /></clipPath><clipPath id="60"><path id="" clip-rule="evenodd" transform="matrix(1 0 0 1 0 0)" d="M259.143 697.413L558.939 697.413L558.939 697.413L558.939 617.8739L558.939 617.8739L259.143 617.8739z" /></clipPath><clipPath id="61"><path id="" clip-rule="evenodd" transform="matrix(1 0 0 1 0 0)" d="M259.143 697.413L558.939 697.413L558.939 697.413L558.939 617.8739L558.939 617.8739L259.143 617.8739z" /></clipPath><clipPath id="62"><path id="" clip-rule="evenodd" transform="matrix(1 0 0 1 0 0)" d="M259.143 697.413L558.939 697.413L558.939 697.413L558.939 617.8739L558.939 617.8739L259.143 617.8739z" /></clipPath><clipPath id="63"><path id="" clip-rule="evenodd" transform="matrix(1 0 0 1 0 0)" d="M451.174 653.657L475.2878 653.657L475.2878 653.657L475.2878 620.6218L475.2878 620.6218L451.174 620.6218z" /></clipPath><clipPath id="64"><path id="" clip-rule="evenodd" transform="matrix(1 0 0 1 0 0)" d="M451.174 653.657L475.2878 653.657L475.2878 653.657L475.2878 620.6218L475.2878 620.6218L451.174 620.6218z" /></clipPath><clipPath id="65"><path id="" clip-rule="evenodd" transform="matrix(1 0 0 1 0 0)" d="M347.155 653.657L370.5691 653.657L370.5691 653.657L370.5691 627L370.5691 627L347.155 627z" /></clipPath><clipPath id="66"><path id="" clip-rule="evenodd" transform="matrix(1 0 0 1 0 0)" d="M347.155 653.657L370.5691 653.657L370.5691 653.657L370.5691 627L370.5691 627L347.155 627z" /></clipPath><clipPath id="67"><path id="" clip-rule="evenodd" transform="matrix(1 0 0 1 0 0)" d="M414.507 652.949L437.9211 652.949L437.9211 652.949L437.9211 626.197L437.9211 626.197L414.507 626.197z" /></clipPath><clipPath id="68"><path id="" clip-rule="evenodd" transform="matrix(1 0 0 1 0 0)" d="M414.507 652.949L437.9211 652.949L437.9211 652.949L437.9211 626.197L437.9211 626.197L414.507 626.197z" /></clipPath><clipPath id="69"><path id="" clip-rule="evenodd" transform="matrix(1 0 0 1 0 0)" d="M303.38 653.657L326.7941 653.657L326.7941 653.657L326.7941 624.1648L326.7941 624.1648L303.38 624.1648z" /></clipPath><clipPath id="70"><path id="" clip-rule="evenodd" transform="matrix(1 0 0 1 0 0)" d="M303.38 653.657L326.7941 653.657L326.7941 653.657L326.7941 624.1648L326.7941 624.1648L303.38 624.1648z" /></clipPath><clipPath id="71"><path id="" clip-rule="evenodd" transform="matrix(1 0 0 1 0 0)" d="M261.269 653.657L280.0147 653.657L280.0147 653.657L280.0147 624.005L280.0147 624.005L261.269 624.005z" /></clipPath><clipPath id="72"><path id="" clip-rule="evenodd" transform="matrix(1 0 0 1 0 0)" d="M261.269 653.657L280.0147 653.657L280.0147 653.657L280.0147 624.005L280.0147 624.005L261.269 624.005z" /></clipPath></defs><g transform="matrix(1.333333 0 0 1.333333 0 0)"><g clip-path="url(#1)"><g clip-path="url(#2)"><path id="1" transform="matrix(1 0 0 -1 0 834)" d="M91.866 67.4211L562.134 67.4211L562.134 74.92501L91.866 74.92501z" stroke="none" fill="#686868" fill-rule="nonzero" /><path id="2" transform="matrix(1 0 0 -1 0 834)" d="M562.134 526.984L91.866 526.984" stroke="#686868" stroke-width="1" fill="none" /><path id="3" transform="matrix(1 0 0 -1 0 834)" d="M562.134 307.016L91.866 307.016" stroke="#686868" stroke-width="1" fill="none" /></g><g clip-path="url(#3)"></g><g clip-path="url(#4)"><g transform="matrix(1.004977 0 0 1.004248 326.405 124.272)"><g transform="matrix(1 0 0 1 0 0)"><image x="0" y="0" xlink:href="img_01.png" width="131" height="145" /></g></g></g><g clip-path="url(#5)"><path id="242" transform="matrix(1 0 0 -1 0 834)" d="M536.85 608.719C 536.85 584.095 518.249 564.133 495.304 564.133C 472.359 564.133 453.758 584.095 453.758 608.719C 453.758 633.343 472.359 653.304 495.304 653.304C 518.249 653.304 536.85 633.343 536.85 608.719" stroke="none" fill="#FFFFFF" fill-rule="nonzero" /></g><g clip-path="url(#6)"></g><g clip-path="url(#7)"><g transform="matrix(1.004794 0 0 1.005885 459.846 182.332)"><g transform="matrix(1 0 0 1 0 0)"><image x="0" y="0" xlink:href="img_02.png" width="80" height="104" /></g></g></g><g clip-path="url(#8)"><path id="244" transform="matrix(1 0 0 -1 0 834)" d="M536.849 608.7184C 536.849 584.0941 518.2484 564.1326 495.3038 564.1326C 472.3582 564.1326 453.7576 584.0941 453.7576 608.7184C 453.7576 633.3417 472.3582 653.3032 495.3038 653.3032C 518.2484 653.3032 536.849 633.3417 536.849 608.7184z" stroke="#000000" stroke-width="0.6958398" fill="none" /><path id="245" transform="matrix(1 0 0 -1 0 834)" d="M370.9441 620.5932C 370.9441 620.5932 397.2276 618.1758 412.7643 638.9417" stroke="#FFFFFF" stroke-width="1.39168" fill="none" /></g><path id="246" transform="matrix(1 0 0 -1 0 834)" d="M412.227 638.221L409.504 638.918L415.204 642.55L413.651 635.634z" stroke="none" fill="#FFFFFF" fill-rule="nonzero" /><g clip-path="url(#9)"><path id="247" transform="matrix(1 0 0 -1 0 834)" d="M416.4562 620.5932C 416.4562 620.5932 390.1736 618.1758 374.637 638.9417" stroke="#FFFFFF" stroke-width="1.39168" fill="none" /></g><path id="248" transform="matrix(1 0 0 -1 0 834)" d="M372.197 642.549L377.898 638.917L375.174 638.22L373.751 635.633z" stroke="none" fill="#FFFFFF" fill-rule="nonzero" /><g clip-path="url(#10)"></g><g clip-path="url(#11)"><g transform="matrix(1.006449 0 0 0.9985386 261.679 111.9413)"><g transform="matrix(1 0 0 1 0 0)"><image x="0" y="0" xlink:href="img_03.png" width="37" height="57" /></g></g></g><g clip-path="url(#12)"></g><g clip-path="url(#13)"><g transform="matrix(-0.9953037 0 0 0.9967052 459.738 141.8611)"><g transform="matrix(1 0 0 1 0 0)"><image x="0" y="0" xlink:href="img_04.png" width="27" height="38" /></g></g></g><g clip-path="url(#14)"></g><g clip-path="url(#15)"><g transform="matrix(0.9953037 0 0 0.9967052 325.978 141.8611)"><g transform="matrix(1 0 0 1 0 0)"><image x="0" y="0" xlink:href="img_04.png" width="27" height="38" /></g></g></g><g clip-path="url(#16)"></g><g clip-path="url(#17)"><g transform="matrix(1.000798 0 0 1.00309 263.092 383.296)"><g transform="matrix(1 0 0 1 0 0)"><image x="0" y="0" xlink:href="img_05.png" width="104" height="100" /></g></g></g><g clip-path="url(#18)"><path id="329" transform="matrix(1 0 0 -1 0 834)" d="M424.063 378.895C 424.063 362.066 410.555 348.423 393.893 348.423C 377.23 348.423 363.723 362.066 363.723 378.895C 363.723 395.723 377.23 409.366 393.893 409.366C 410.555 409.366 424.063 395.723 424.063 378.895" stroke="none" fill="#FFFFFF" fill-rule="nonzero" /></g><g clip-path="url(#19)"></g><g clip-path="url(#20)"><g transform="matrix(1.00644 0 0 1.006992 368.145 425.7516)"><g transform="matrix(1 0 0 1 0 0)"><image x="0" y="0" xlink:href="img_06.png" width="58" height="71" /></g></g></g><g clip-path="url(#21)"><path id="331" transform="matrix(1 0 0 -1 0 834)" d="M424.063 378.8918C 424.063 362.0626 410.5555 348.4201 393.8928 348.4201C 377.23 348.4201 363.7225 362.0626 363.7225 378.8918C 363.7225 395.721 377.23 409.3635 393.8928 409.3635C 410.5555 409.3635 424.063 395.721 424.063 378.8918z" stroke="#000000" stroke-width="0.7761248" fill="none" /><path id="332" transform="matrix(1 0 0 -1 0 834)" d="M298.9353 388.8551C 298.9353 388.8551 317.8965 387.2139 329.808 400.8554" stroke="#FFFFFF" stroke-width="1.552254" fill="none" /></g><path id="333" transform="matrix(1 0 0 -1 0 834)" d="M329.173 400.13L326.156 400.945L332.614 404.582L330.686 397.371z" stroke="none" fill="#FFFFFF" fill-rule="nonzero" /><g clip-path="url(#22)"><path id="334" transform="matrix(1 0 0 -1 0 834)" d="M333.5692 388.8551C 333.5692 388.8551 314.606 387.2139 302.6945 400.8554" stroke="#FFFFFF" stroke-width="1.552254" fill="none" /></g><path id="335" transform="matrix(1 0 0 -1 0 834)" d="M299.888 404.581L306.347 400.944L303.33 400.129L301.816 397.371z" stroke="none" fill="#FFFFFF" fill-rule="nonzero" /><path id="336" transform="matrix(1 0 0 -1 0 834)" d="M464.412 391.244L466.196 391.297L458.287 408.661L459.808 409.368L467.717 392.004L468.918 393.337L469.121 386.897" stroke="none" fill="#FFFFFF" fill-rule="nonzero" /><g clip-path="url(#23)"><path id="337" transform="matrix(1 0 0 -1 0 834)" d="M292.271 440.18C 290.005 440.18 288.169 438.326 288.169 436.038C 288.169 433.749 290.005 431.894 292.271 431.894C 294.536 431.894 296.373 433.749 296.373 436.038C 296.373 438.326 294.536 440.18 292.271 440.18M292.271 432.398C 290.293 432.398 288.69 434.017 288.69 436.014C 288.69 438.012 290.293 439.631 292.271 439.631C 294.249 439.631 295.852 438.012 295.852 436.014C 295.852 434.017 294.249 432.398 292.271 432.398" stroke="none" fill="#000000" fill-rule="nonzero" /><path id="339" transform="matrix(1 0 0 -1 0 834)" d="M427.095 440.18C 424.829 440.18 422.992 438.326 422.992 436.038C 422.992 433.749 424.829 431.894 427.095 431.894C 429.36 431.894 431.196 433.749 431.196 436.038C 431.196 438.326 429.36 440.18 427.095 440.18M427.095 432.398C 425.117 432.398 423.514 434.017 423.514 436.014C 423.514 438.012 425.117 439.631 427.095 439.631C 429.072 439.631 430.675 438.012 430.675 436.014C 430.675 434.017 429.072 432.398 427.095 432.398" stroke="none" fill="#000000" fill-rule="nonzero" /></g><g clip-path="url(#24)"></g><g clip-path="url(#25)"><g transform="matrix(1.001536 0 0 0.9996471 427.056 384.887)"><g transform="matrix(1 0 0 1 0 0)"><image x="0" y="0" xlink:href="img_07.png" width="84" height="102" /></g></g></g><g clip-path="url(#26)"><path id="342" transform="matrix(1 0 0 -1 0 834)" d="M557.94 378.709C 557.94 361.778 544.35 348.053 527.586 348.053C 510.823 348.053 497.233 361.778 497.233 378.709C 497.233 395.641 510.823 409.366 527.586 409.366C 544.35 409.366 557.94 395.641 557.94 378.709" stroke="none" fill="#FFFFFF" fill-rule="nonzero" /></g><g clip-path="url(#27)"></g><g clip-path="url(#28)"><g transform="matrix(1.003368 0 0 1.004586 489.458 401.6091)"><g transform="matrix(1 0 0 1 0 0)"><image x="0" y="0" xlink:href="img_08.png" width="76" height="92" /></g></g></g><g clip-path="url(#29)"><path id="344" transform="matrix(1 0 0 -1 0 834)" d="M557.9401 378.7069C 557.9401 361.7751 544.35 348.0503 527.5867 348.0503C 510.8225 348.0503 497.2334 361.7751 497.2334 378.7069C 497.2334 395.6386 510.8225 409.3635 527.5867 409.3635C 544.35 409.3635 557.9401 395.6386 557.9401 378.7069z" stroke="#000000" stroke-width="0.7761248" fill="none" /></g><path id="345" transform="matrix(1 0 0 -1 0 834)" d="M456.092 421.304L456.78 421.666L460.33 414.788L459.609 414.488z" stroke="none" fill="#000000" fill-rule="nonzero" /><g clip-path="url(#30)"><g><g clip-path="url(#31)"><g clip-path="url(#32)"><path id="346" transform="matrix(1 0 0 -1 0 834)" d="M475.529 384.485L472.68 386.865L473.817 386.956L459.61 414.487L460.33 414.787L474.505 387.318L475.229 388.207" stroke="none" fill="#FFFFFF" fill-rule="nonzero" fill-opacity="0.8" /></g></g></g></g><g clip-path="url(#33)"></g><g clip-path="url(#34)"><g transform="matrix(1.009614 0 0 0.9985386 265.881 331.8883)"><g transform="matrix(1 0 0 1 0 0)"><image x="0" y="0" xlink:href="img_09.png" width="28" height="57" /></g></g></g><g clip-path="url(#35)"></g><g clip-path="url(#36)"><g transform="matrix(0.9991333 0 0 1.013046 396.679 390.2224)"><g transform="matrix(1 0 0 1 0 0)"><image x="0" y="0" xlink:href="img_10.png" width="30" height="35" /></g></g></g><g clip-path="url(#37)"></g><g clip-path="url(#38)"><g transform="matrix(-1.005226 0 0 0.997071 526.0161 387.7983)"><g transform="matrix(1 0 0 1 0 0)"><image x="0" y="0" xlink:href="img_11.png" width="35" height="38" /></g></g></g><g clip-path="url(#39)"></g><g clip-path="url(#40)"><g transform="matrix(-0.9952222 0 0 1.021547 373.79 392.9785)"><g transform="matrix(1 0 0 1 0 0)"><image x="0" y="0" xlink:href="img_12.png" width="27" height="32" /></g></g></g><g clip-path="url(#41)"></g><g clip-path="url(#42)"><g transform="matrix(1.007755 0 0 1.021547 258.104 392.0055)"><g transform="matrix(1 0 0 1 0 0)"><image x="0" y="0" xlink:href="img_13.png" width="29" height="32" /></g></g></g><g clip-path="url(#43)"></g><g clip-path="url(#44)"><g transform="matrix(1.005866 0 0 0.9990058 256.143 625.4716)"><g transform="matrix(1 0 0 1 0 0)"><image x="0" y="0" xlink:href="img_14.png" width="64" height="70" /></g></g></g><g clip-path="url(#45)"><path id="829" transform="matrix(1 0 0 -1 0 834)" d="M365.329 163.25C 365.329 149.641 354.863 138.609 341.951 138.609C 329.039 138.609 318.572 149.641 318.572 163.25C 318.572 176.859 329.039 187.891 341.951 187.891C 354.863 187.891 365.329 176.859 365.329 163.25" stroke="none" fill="#FFFFFF" fill-rule="nonzero" /></g><g clip-path="url(#46)"></g><g clip-path="url(#47)"><g transform="matrix(1.005187 0 0 0.9968104 322 647.013)"><g transform="matrix(1 0 0 1 0 0)"><image x="0" y="0" xlink:href="img_15.png" width="45" height="58" /></g></g></g><g clip-path="url(#48)"><path id="831" transform="matrix(1 0 0 -1 0 834)" d="M365.3283 163.2504C 365.3283 149.6409 354.8628 138.6094 341.9503 138.6094C 329.0378 138.6094 318.5713 149.6409 318.5713 163.2504C 318.5713 176.8589 329.0378 187.8903 341.9503 187.8903C 354.8628 187.8903 365.3283 176.8589 365.3283 163.2504z" stroke="#000000" stroke-width="0.7828245" fill="none" /><path id="832" transform="matrix(1 0 0 -1 0 834)" d="M277.9205 165.7217C 277.9205 165.7217 290.5565 164.5804 298.1768 174.2839" stroke="#FFFFFF" stroke-width="0.7828245" fill="none" /></g><path id="833" transform="matrix(1 0 0 -1 0 834)" d="M297.865 173.892L296.337 174.293L299.563 176.266L298.652 172.454z" stroke="none" fill="#FFFFFF" fill-rule="nonzero" /><g clip-path="url(#49)"><path id="834" transform="matrix(1 0 0 -1 0 834)" d="M300.1749 165.7217C 300.1749 165.7217 287.5389 164.5804 279.9186 174.2839" stroke="#FFFFFF" stroke-width="0.7828245" fill="none" /></g><path id="835" transform="matrix(1 0 0 -1 0 834)" d="M278.533 176.267L281.759 174.294L280.23 173.893L279.444 172.455z" stroke="none" fill="#FFFFFF" fill-rule="nonzero" /><g clip-path="url(#50)"></g><g clip-path="url(#51)"><g transform="matrix(1.000624 0 0 1.006332 357.805 623.8644)"><g transform="matrix(1 0 0 1 0 0)"><image x="0" y="0" xlink:href="img_16.png" width="71" height="71" /></g></g></g><g clip-path="url(#52)"></g><g clip-path="url(#53)"><g transform="matrix(1.00648 0 0 0.9977614 460.025 624.5417)"><g transform="matrix(1 0 0 1 0 0)"><image x="0" y="0" xlink:href="img_17.png" width="69" height="70" /></g></g></g><g clip-path="url(#54)"><path id="838" transform="matrix(1 0 0 -1 0 834)" d="M465.717 163.08C 465.717 149.432 455.22 138.367 442.27 138.367C 429.321 138.367 418.823 149.432 418.823 163.08C 418.823 176.729 429.321 187.793 442.27 187.793C 455.22 187.793 465.717 176.729 465.717 163.08" stroke="none" fill="#FFFFFF" fill-rule="nonzero" /></g><g clip-path="url(#55)"></g><g clip-path="url(#56)"><g transform="matrix(1.001304 0 0 1.007018 414.835 641.16)"><g transform="matrix(1 0 0 1 0 0)"><image x="0" y="0" xlink:href="img_18.png" width="57" height="57" /></g></g></g><g clip-path="url(#57)"><path id="840" transform="matrix(1 0 0 -1 0 834)" d="M465.7167 163.08C 465.7167 149.4315 455.219 138.3672 442.2695 138.3672C 429.3201 138.3672 418.8224 149.4315 418.8224 163.08C 418.8224 176.7285 429.3201 187.7928 442.2695 187.7928C 455.219 187.7928 465.7167 176.7285 465.7167 163.08z" stroke="#000000" stroke-width="0.7828245" fill="none" /><path id="841" transform="matrix(1 0 0 -1 0 834)" d="M558.523 162.734C 558.523 148.703 547.732 137.33 534.42 137.33C 521.108 137.33 510.317 148.703 510.317 162.734C 510.317 176.764 521.108 188.138 534.42 188.138C 547.732 188.138 558.523 176.764 558.523 162.734" stroke="none" fill="#FFFFFF" fill-rule="nonzero" /></g><g clip-path="url(#58)"></g><g clip-path="url(#59)"><g transform="matrix(1.011566 0 0 1.000095 504.849 643.9194)"><g transform="matrix(1 0 0 1 0 0)"><image x="0" y="0" xlink:href="img_19.png" width="58" height="59" /></g></g></g><g clip-path="url(#60)"><path id="843" transform="matrix(1 0 0 -1 0 834)" d="M558.5217 162.7331C 558.5217 148.7029 547.731 137.3296 534.4193 137.3296C 521.1076 137.3296 510.3159 148.7029 510.3159 162.7331C 510.3159 176.7634 521.1076 188.1377 534.4193 188.1377C 547.731 188.1377 558.5217 176.7634 558.5217 162.7331z" stroke="#000000" stroke-width="0.7828245" fill="none" /></g><path id="844" transform="matrix(1 0 0 -1 0 834)" d="M383.7433 181.2452L383.7433 158.9554" stroke="#FFFFFF" stroke-width="0.7828245" fill="none" /><path id="845" transform="matrix(1 0 0 -1 0 834)" d="M382.293 160.115L383.743 159.466L385.192 160.115L383.743 156.493z" stroke="none" fill="#FFFFFF" fill-rule="nonzero" /><path id="846" transform="matrix(1 0 0 -1 0 834)" d="M401.7999 181.2452L401.7999 158.9554" stroke="#FFFFFF" stroke-width="0.7828245" fill="none" /><path id="847" transform="matrix(1 0 0 -1 0 834)" d="M400.352 160.115L401.801 159.466L403.25 160.115L401.801 156.493z" stroke="none" fill="#FFFFFF" fill-rule="nonzero" /><g clip-path="url(#61)"><path id="848" transform="matrix(1 0 0 -1 0 834)" d="M484.1005 177.6142C 484.1005 177.6142 489.6331 170.734 493.3031 170.0608" stroke="#FFFFFF" stroke-width="0.6262594" fill="none" /></g><path id="849" transform="matrix(1 0 0 -1 0 834)" d="M492.903 170.118L492.26 171.26L495.139 170.437L492.57 168.838z" stroke="none" fill="#FFFFFF" fill-rule="nonzero" /><g clip-path="url(#62)"><path id="850" transform="matrix(1 0 0 -1 0 834)" d="M272.805 213.411C 270.52 213.411 268.668 211.458 268.668 209.05C 268.668 206.641 270.52 204.689 272.805 204.689C 275.09 204.689 276.943 206.641 276.943 209.05C 276.943 211.458 275.09 213.411 272.805 213.411M272.805 205.219C 270.811 205.219 269.193 206.923 269.193 209.026C 269.193 211.128 270.811 212.832 272.805 212.832C 274.8 212.832 276.417 211.128 276.417 209.026C 276.417 206.923 274.8 205.219 272.805 205.219" stroke="none" fill="#000000" fill-rule="nonzero" /><path id="852" transform="matrix(1 0 0 -1 0 834)" d="M375.421 213.7C 373.136 213.7 371.284 211.747 371.284 209.339C 371.284 206.93 373.136 204.978 375.421 204.978C 377.707 204.978 379.559 206.93 379.559 209.339C 379.559 211.747 377.707 213.7 375.421 213.7M375.421 205.508C 373.427 205.508 371.81 207.212 371.81 209.314C 371.81 211.417 373.427 213.121 375.421 213.121C 377.416 213.121 379.033 211.417 379.033 209.314C 379.033 207.212 377.416 205.508 375.421 205.508" stroke="none" fill="#000000" fill-rule="nonzero" /><path id="854" transform="matrix(1 0 0 -1 0 834)" d="M478.229 214.358C 475.944 214.41 474.052 212.5 474.003 210.092C 473.954 207.684 475.766 205.69 478.05 205.638C 480.334 205.586 482.227 207.496 482.276 209.904C 482.325 212.312 480.513 214.306 478.229 214.358M478.061 206.168C 476.067 206.213 474.485 207.954 474.528 210.056C 474.571 212.158 476.223 213.825 478.217 213.78C 480.211 213.734 481.793 211.993 481.75 209.891C 481.707 207.789 480.055 206.123 478.061 206.168" stroke="none" fill="#000000" fill-rule="nonzero" /><path id="855" transform="matrix(1 0 0 -1 0 834)" d="M476.4295 207.8318C 476.6817 207.6527 477.1693 207.4827 477.7448 207.4696C 478.8682 207.444 479.5792 208.0273 479.5963 208.8649C 479.6087 209.4713 479.1814 209.9096 478.6538 210.0276L478.6538 210.0276L478.6541 210.042C 479.2063 210.2317 479.4814 210.6131 479.4916 211.1136C 479.5046 211.749 478.9858 212.2953 478.0359 212.3169C 477.4605 212.33 476.9202 212.1617 476.6518 211.9945L476.6518 211.9945L476.8479 211.1955C 477.0329 211.3068 477.42 211.4642 477.7853 211.4558C 478.2237 211.4459 478.4386 211.2291 478.4328 210.9499C 478.4246 210.5456 477.9742 210.4186 477.6271 210.4265L477.6271 210.4265L477.223 210.4357L477.223 210.4357L477.2068 209.6488L477.2068 209.6488L477.6316 209.6391C 478.0882 209.6287 478.5246 209.4093 478.5152 208.9472C 478.5079 208.5911 478.226 208.3254 477.6871 208.3377C 477.2579 208.3474 476.8392 208.5399 476.6587 208.65z" stroke="none" fill="#000000" fill-rule="evenodd" /></g><g transform="matrix(1.009614 0 0 0.9985386 265.881 546.6853)"><g transform="matrix(1 0 0 1 0 0)"><image x="0" y="0" xlink:href="img_09.png" width="28" height="57" /></g></g><g clip-path="url(#63)"></g><g clip-path="url(#64)"><g transform="matrix(1.004846 0 0 1.001268 450.168 620.6219)"><g transform="matrix(1 0 0 1 0 0)"><image x="0" y="0" xlink:href="img_20.png" width="26" height="34" /></g></g></g><g clip-path="url(#65)"></g><g clip-path="url(#66)"><g transform="matrix(1.01686 0 0 1.024582 346.15 627.0003)"><g transform="matrix(1 0 0 1 0 0)"><image x="0" y="0" xlink:href="img_21.png" width="25" height="27" /></g></g></g><g clip-path="url(#67)"></g><g clip-path="url(#68)"><g transform="matrix(-1.017404 0 0 0.9914894 438.932 626.1973)"><g transform="matrix(1 0 0 1 0 0)"><image x="0" y="0" xlink:href="img_22.png" width="25" height="28" /></g></g></g><g clip-path="url(#69)"></g><g clip-path="url(#70)"><g transform="matrix(-1.017248 0 0 1.016533 327.8 624.165)"><g transform="matrix(1 0 0 1 0 0)"><image x="0" y="0" xlink:href="img_23.png" width="25" height="30" /></g></g></g><g clip-path="url(#71)"></g><g clip-path="url(#72)"><g transform="matrix(0.9890381 0 0 1.022167 260.257 624.005)"><g transform="matrix(1 0 0 1 0 0)"><image x="0" y="0" xlink:href="img_24.png" width="21" height="30" /></g></g></g><path id="1378" transform="matrix(1 0 0 -1 0 834)" d="M633 15L633 0M633 819L633 834M21 15L21 0M21 819L21 834M639 21L654 21M15 21L0 21M639 813L654 813M15 813L0 813" stroke="#000000" stroke-width="1.25" fill="none" /><path id="1379" transform="matrix(1 0 0 -1 0 834)" d="M633 15L633 0M633 819L633 834M21 15L21 0M21 819L21 834M639 21L654 21M15 21L0 21M639 813L654 813M15 813L0 813" stroke="#000000" stroke-width="0.25" fill="none" /><path id="1380" transform="matrix(1 0 0 -1 0 834)" d="M32.2781 9.28203C 32.2781 9.516021 32.2961 9.58203 32.3559 9.62383C 32.416 9.66602 32.5719 9.69609 32.8238 9.69609C 33.2262 9.69609 33.5738 9.62383 33.8441 9.45C 34.3238 9.167971 34.552 8.63398 34.552 8.016021C 34.552 7.05586 34.0359 6.21602 32.9141 6.21602C 32.4762 6.21602 32.2781 6.33008 32.2781 6.78594zM31.252 9.900001L31.252 9.726171C 31.7141 9.68984 31.7621 9.66602 31.7621 9.150001L31.7621 9.150001L31.7621 6.74414C 31.7621 6.23398 31.7141 6.19805 31.198 6.16211L31.198 6.16211L31.198 6L31.198 6L32.6199 6C 33.3578 6 33.952 6.15 34.402 6.49805C 34.8641 6.84609 35.1398 7.38008 35.1398 8.1C 35.1398 8.664061 34.9301 9.101951 34.6359 9.38984C 34.2641 9.74414 33.7 9.900001 32.9379 9.900001z" stroke="#000000" stroke-width="0.4" fill="none" /><path id="1381" transform="matrix(1 0 0 -1 0 834)" d="M38.3801 6.97813C 38.2898 6.70195 38.1758 6.51016 38.0738 6.38984C 37.9359 6.23398 37.732 6.20391 37.402 6.20391C 37.15 6.20391 36.9461 6.21602 36.8258 6.28203C 36.718 6.34219 36.6879 6.46211 36.6879 6.78594L36.6879 6.78594L36.6879 9.15586C 36.6879 9.66602 36.7418 9.69609 37.216 9.73203L37.216 9.73203L37.216 9.900001L37.216 9.900001L35.65 9.900001L35.65 9.900001L35.65 9.73203C 36.1359 9.69609 36.1777 9.66602 36.1777 9.15586L36.1777 9.15586L36.1777 6.75586C 36.1777 6.24609 36.1301 6.20391 35.6258 6.16797L35.6258 6.16797L35.6258 6L35.6258 6L38.3438 6C 38.398 6.18594 38.5238 6.75586 38.5598 6.94219z" stroke="#000000" stroke-width="0.4" fill="none" /><path id="1382" transform="matrix(1 0 0 -1 0 834)" d="M41.0918 9.023829C 41.0438 9.40195 41.0141 9.63594 40.9898 9.851951C 40.7617 9.92383 40.5098 9.989841 40.234 9.989841C 39.4598 9.989841 38.998 9.49805 38.998 8.921881C 38.998 8.24414 39.6039 7.94414 39.9879 7.73984C 40.4379 7.5 40.768 7.28984 40.768 6.84609C 40.768 6.40781 40.498 6.12617 40.048 6.12617C 39.4301 6.12617 39.1598 6.73203 39.0641 7.09805L39.0641 7.09805L38.8898 7.05586C 38.9258 6.767971 39.0039 6.25195 39.052 6.12617C 39.1059 6.09609 39.1961 6.05391 39.3461 6C 39.4961 5.95781 39.6879 5.91016 39.934 5.91016C 40.732 5.91016 41.266 6.41406 41.266 7.04414C 41.266 7.71602 40.6961 7.99805 40.2277 8.23789C 39.7539 8.48398 39.466 8.68789 39.466 9.12617C 39.466 9.45 39.6699 9.78594 40.132 9.78594C 40.6539 9.78594 40.8098 9.371881 40.918 8.98789z" stroke="#000000" stroke-width="0.4" fill="none" /><path id="1383" transform="matrix(1 0 0 -1 0 834)" d="M46.648 6L46.648 6.16797C 46.1258 6.21602 46.1078 6.24609 46.0898 6.88203L46.0898 6.88203L46.0301 9.05391C 46.0117 9.671881 46.0539 9.68398 46.582 9.73203L46.582 9.73203L46.582 9.900001L46.582 9.900001L45.5617 9.900001L45.5617 9.900001L44.1758 6.9L44.1758 6.9L42.8078 9.900001L42.8078 9.900001L41.8238 9.900001L41.8238 9.900001L41.8238 9.73203C 42.3699 9.67813 42.4 9.653911 42.3461 8.87383L42.3461 8.87383L42.2617 7.626171C 42.2141 7.00195 42.1777 6.73789 42.148 6.528131C 42.1059 6.27617 41.9859 6.21016 41.6379 6.16797L41.6379 6.16797L41.6379 6L41.6379 6L43.0359 6L43.0359 6L43.0359 6.16797C 42.6398 6.21016 42.4961 6.25195 42.484 6.53984C 42.4777 6.78008 42.4777 7.04414 42.502 7.53594L42.502 7.53594L42.5918 9.24609L42.5918 9.24609L42.6039 9.24609L42.6039 9.24609L43.948 6.04219L43.948 6.04219L44.068 6.04219L44.068 6.04219L45.532 9.33008L45.532 9.33008L45.5559 9.33008L45.5559 9.33008L45.5738 6.88203C 45.5801 6.24609 45.5559 6.21602 45.0699 6.16797L45.0699 6.16797L45.0699 6z" stroke="#000000" stroke-width="0.4" fill="none" /><path id="1384" transform="matrix(1 0 0 -1 0 834)" d="M51.8738 7.05586C 51.5738 6.45586 51.2496 6.12617 50.6379 6.12617C 49.7258 6.12617 49.0656 6.89414 49.0656 8.016021C 49.0656 8.92813 49.5996 9.773829 50.602 9.773829C 51.2496 9.773829 51.6098 9.516021 51.7656 8.88008L51.7656 8.88008L51.9457 8.921881C 51.9098 9.24609 51.8738 9.48594 51.8258 9.828131C 51.6578 9.85781 51.2496 9.989841 50.7637 9.989841C 49.4258 9.989841 48.4539 9.15586 48.4539 7.89609C 48.4539 6.94219 49.1078 5.91016 50.602 5.91016C 51.034 5.91016 51.5379 6.03008 51.7059 6.07188C 51.8137 6.26992 51.9637 6.71406 52.0477 6.98984z" stroke="#000000" stroke-width="0.4" fill="none" /><path id="1385" transform="matrix(1 0 0 -1 0 834)" d="M54.3398 9.773829C 55.1258 9.773829 55.7855 9.101951 55.7855 7.83594C 55.7855 6.68398 55.1855 6.12617 54.5195 6.12617C 53.6738 6.12617 53.0559 6.94805 53.0559 8.076171C 53.0559 9.19805 53.6676 9.773829 54.3398 9.773829zM54.4598 9.989841C 53.1996 9.989841 52.4438 8.98789 52.4438 7.90781C 52.4438 6.75586 53.3078 5.91016 54.3938 5.91016C 55.4918 5.91016 56.3977 6.70195 56.3977 7.99805C 56.3977 9.19805 55.4797 9.989841 54.4598 9.989841z" stroke="#000000" stroke-width="0.4" fill="none" /><path id="1386" transform="matrix(1 0 0 -1 0 834)" d="M61.8277 6L61.8277 6.16797C 61.3059 6.21602 61.2879 6.24609 61.2695 6.88203L61.2695 6.88203L61.2098 9.05391C 61.1918 9.671881 61.2336 9.68398 61.7617 9.73203L61.7617 9.73203L61.7617 9.900001L61.7617 9.900001L60.7418 9.900001L60.7418 9.900001L59.3559 6.9L59.3559 6.9L57.9879 9.900001L57.9879 9.900001L57.0035 9.900001L57.0035 9.900001L57.0035 9.73203C 57.5496 9.67813 57.5797 9.653911 57.5258 8.87383L57.5258 8.87383L57.4418 7.626171C 57.3938 7.00195 57.3578 6.73789 57.3277 6.528131C 57.2855 6.27617 57.1656 6.21016 56.8176 6.16797L56.8176 6.16797L56.8176 6L56.8176 6L58.2156 6L58.2156 6L58.2156 6.16797C 57.8195 6.21016 57.6758 6.25195 57.6637 6.53984C 57.6578 6.78008 57.6578 7.04414 57.6816 7.53594L57.6816 7.53594L57.7719 9.24609L57.7719 9.24609L57.7836 9.24609L57.7836 9.24609L59.1277 6.04219L59.1277 6.04219L59.2477 6.04219L59.2477 6.04219L60.7117 9.33008L60.7117 9.33008L60.7355 9.33008L60.7355 9.33008L60.7535 6.88203C 60.7598 6.24609 60.7355 6.21602 60.2496 6.16797L60.2496 6.16797L60.2496 6z" stroke="#000000" stroke-width="0.4" fill="none" /><path id="1387" transform="matrix(1 0 0 -1 0 834)" d="M63.8258 6L63.8258 6.16797C 63.3336 6.20391 63.2855 6.23398 63.2855 6.75L63.2855 6.75L63.2855 9.150001C 63.2855 9.66016 63.3336 9.69609 63.8258 9.73203L63.8258 9.73203L63.8258 9.900001L63.8258 9.900001L62.2355 9.900001L62.2355 9.900001L62.2355 9.73203C 62.7277 9.69609 62.7758 9.66016 62.7758 9.150001L62.7758 9.150001L62.7758 6.75C 62.7758 6.23984 62.7277 6.20391 62.2355 6.16797L62.2355 6.16797L62.2355 6z" stroke="#000000" stroke-width="0.4" fill="none" /><path id="1388" transform="matrix(1 0 0 -1 0 834)" d="M66.5074 9.023829C 66.4598 9.40195 66.4297 9.63594 66.4055 9.851951C 66.1777 9.92383 65.9258 9.989841 65.6496 9.989841C 64.8758 9.989841 64.4137 9.49805 64.4137 8.921881C 64.4137 8.24414 65.0195 7.94414 65.4035 7.73984C 65.8535 7.5 66.1836 7.28984 66.1836 6.84609C 66.1836 6.40781 65.9137 6.12617 65.46371 6.12617C 64.8457 6.12617 64.5758 6.73203 64.4797 7.09805L64.4797 7.09805L64.3055 7.05586C 64.3418 6.767971 64.4195 6.25195 64.46761 6.12617C 64.52151 6.09609 64.6117 6.05391 64.7617 6C 64.91171 5.95781 65.1035 5.91016 65.3496 5.91016C 66.1477 5.91016 66.6816 6.41406 66.6816 7.04414C 66.6816 7.71602 66.1117 7.99805 65.6438 8.23789C 65.1695 8.48398 64.8816 8.68789 64.8816 9.12617C 64.8816 9.45 65.0855 9.78594 65.5477 9.78594C 66.0695 9.78594 66.2258 9.371881 66.3336 8.98789z" stroke="#000000" stroke-width="0.4" fill="none" /><path id="1389" transform="matrix(1 0 0 -1 0 834)" d="M69.4055 7.68008L68.3016 7.68008C 68.4816 8.171881 68.6734 8.69414 68.8656 9.21016L68.8656 9.21016L68.8777 9.21016zM70.9355 6L70.9355 6.16797C 70.5457 6.20391 70.46761 6.25781 70.2758 6.77383C 69.89181 7.81797 69.4895 8.95781 69.11761 9.989841L69.11761 9.989841L68.9316 9.93594L68.9316 9.93594L67.68951 6.78594C 67.4797 6.25781 67.3957 6.22188 67.0176 6.16797L67.0176 6.16797L67.0176 6L67.0176 6L68.3195 6L68.3195 6L68.3195 6.16797C 67.8695 6.21016 67.81561 6.26992 67.9477 6.64805C 68.0258 6.9 68.1156 7.15195 68.2117 7.42188L68.2117 7.42188L69.4895 7.42188C 69.62151 7.05586 69.74181 6.73203 69.8195 6.49805C 69.8977 6.26406 69.8438 6.21602 69.4656 6.16797L69.4656 6.16797L69.4656 6z" stroke="#000000" stroke-width="0.4" fill="none" /><path id="1390" transform="matrix(1 0 0 -1 0 834)" d="M71.7273 5.92813C 71.9195 5.92813 72.06371 6.06602 72.06371 6.27617C 72.06371 6.46797 71.9195 6.61797 71.7273 6.61797C 71.5355 6.61797 71.3914 6.46797 71.3914 6.27617C 71.3914 6.06602 71.5355 5.92813 71.7273 5.92813z" stroke="#000000" stroke-width="0.4" fill="none" /><path id="1391" transform="matrix(1 0 0 -1 0 834)" d="M73.9234 6L73.9234 6.15586C 73.53951 6.19219 73.4977 6.22813 73.4977 6.63594L73.4977 6.63594L73.4977 8.70586C 73.2336 8.59805 72.9516 8.51992 72.6453 8.471881L72.6453 8.471881L72.6453 8.328131C 73.0055 8.26797 73.0234 8.24414 73.0234 7.871881L73.0234 7.871881L73.0234 6.63594C 73.0234 6.22813 72.9816 6.19219 72.6035 6.15586L72.6035 6.15586L72.6035 6zM73.2215 9.216021C 73.3953 9.216021 73.52731 9.36016 73.52731 9.52188C 73.52731 9.70195 73.3953 9.83398 73.2273 9.83398C 73.06561 9.83398 72.9215 9.70195 72.9215 9.52188C 72.9215 9.36016 73.06561 9.216021 73.2215 9.216021z" stroke="#000000" stroke-width="0.4" fill="none" /><path id="1392" transform="matrix(1 0 0 -1 0 834)" d="M77.1574 6L77.1574 6.15586C 76.8094 6.19219 76.7793 6.21602 76.7793 6.62383L76.7793 6.62383L76.7793 7.78203C 76.7793 8.36406 76.4793 8.69414 76.0055 8.69414C 75.8313 8.69414 75.67541 8.621881 75.5074 8.51406C 75.3574 8.41211 75.2254 8.32188 75.1055 8.23203L75.1055 8.23203L75.1055 8.712111C 74.8414 8.59219 74.5594 8.51992 74.27151 8.466021L74.27151 8.466021L74.27151 8.328131C 74.5953 8.26797 74.6313 8.25 74.6313 7.86602L74.6313 7.86602L74.6313 6.62383C 74.6313 6.22813 74.6016 6.19805 74.19341 6.15586L74.19341 6.15586L74.19341 6L74.19341 6L75.4953 6L75.4953 6L75.4953 6.15586C 75.1414 6.19219 75.1055 6.21602 75.1055 6.62383L75.1055 6.62383L75.1055 8.03398C 75.2855 8.18984 75.5195 8.33984 75.7594 8.33984C 76.1613 8.33984 76.3055 8.069921 76.3055 7.65586L76.3055 7.65586L76.3055 6.65391C 76.3055 6.23984 76.2633 6.19219 75.9094 6.15586L75.9094 6.15586L75.9094 6z" stroke="#000000" stroke-width="0.4" fill="none" /><path id="1393" transform="matrix(1 0 0 -1 0 834)" d="M79.4734 6.51016C 79.32931 6.40195 79.1133 6.30586 78.8973 6.30586C 78.5133 6.30586 78.0754 6.65391 78.0754 7.36797C 78.0754 8.23789 78.57931 8.471881 78.8555 8.471881C 79.0832 8.471881 79.32931 8.37617 79.4734 8.16602zM80.4035 6.30586L80.2113 6.32383C 79.9895 6.34805 79.9473 6.37813 79.9473 6.68984L79.9473 6.68984L79.9473 10.2719C 79.7254 10.1941 79.3234 10.1039 79.0113 10.0621L79.0113 10.0621L79.0113 9.917971C 79.44341 9.88789 79.4734 9.869921 79.4734 9.47383L79.4734 9.47383L79.4734 8.628131C 79.3355 8.67617 79.1613 8.69414 79.0773 8.69414C 78.2613 8.69414 77.5293 8.03984 77.5293 7.20586C 77.5293 6.36602 78.1594 5.92813 78.6395 5.92813C 78.7113 5.92813 78.87341 5.96406 79.1074 6.10195L79.1074 6.10195L79.4734 6.31797L79.4734 6.31797L79.4734 5.92813C 79.8215 6.05391 80.27151 6.13203 80.4035 6.15586z" stroke="#000000" stroke-width="0.4" fill="none" /><path id="1394" transform="matrix(1 0 0 -1 0 834)" d="M81.3813 8.24414C 81.4895 8.310161 81.6813 8.35781 81.84921 8.35781C 82.34731 8.35781 82.7676 7.96211 82.7676 7.278131C 82.7676 6.58203 82.4492 6.15586 81.9516 6.15586C 81.6336 6.16211 81.4535 6.37188 81.4176 6.49219C 81.3934 6.54609 81.3813 6.60586 81.3813 6.69609zM81.3813 8.42383L81.3813 10.2719C 81.1594 10.1941 80.7934 10.098 80.5113 10.0621L80.5113 10.0621L80.5113 9.92383C 80.8953 9.88789 80.9074 9.851951 80.9074 9.48008L80.9074 9.48008L80.9074 6.14414C 81.2375 5.98789 81.5434 5.92813 81.78951 5.92813C 82.59341 5.92813 83.2953 6.55195 83.2953 7.43398C 83.2953 8.14219 82.7555 8.69414 82.1133 8.69414C 82.0473 8.69414 81.9633 8.67617 81.86761 8.63398z" stroke="#000000" stroke-width="0.4" fill="none" /><path id="1395" transform="matrix(1 0 0 -1 0 834)" d="M89.90701 6L89.90701 6.16211C 89.3613 6.20391 89.3254 6.25195 89.3254 6.68398L89.3254 6.68398L89.3254 9.810161C 88.9953 9.67813 88.641 9.56406 88.257 9.49805L88.257 9.49805L88.257 9.36016L88.257 9.36016L88.5453 9.34805C 88.8094 9.33594 88.8332 9.305861 88.8332 8.99414L88.8332 8.99414L88.8332 6.68398C 88.8332 6.25195 88.8031 6.20391 88.257 6.16211L88.257 6.16211L88.257 6z" stroke="#000000" stroke-width="0.4" fill="none" /><path id="1396" transform="matrix(1 0 0 -1 0 834)" d="M91.9652 6.11992C 91.5871 6.11992 91.2332 6.42617 91.2332 6.97813C 91.2332 7.30781 91.4371 7.60781 91.7254 7.8C 92.1871 7.56602 92.6133 7.30781 92.6133 6.85781C 92.6133 6.39609 92.3313 6.11992 91.9652 6.11992zM91.9113 9.61797C 92.1871 9.61797 92.4992 9.396091 92.4992 8.89219C 92.4992 8.53203 92.3371 8.310161 92.1332 8.14805C 91.707 8.35781 91.3531 8.555861 91.3531 9C 91.3531 9.305861 91.557 9.61797 91.9113 9.61797zM91.9711 9.810161C 91.32931 9.810161 90.9031 9.33008 90.9031 8.826171C 90.9031 8.40586 91.1613 8.11797 91.5512 7.89609C 91.34731 7.76406 91.1191 7.60195 91.023 7.51211C 90.891 7.38594 90.75311 7.21797 90.75311 6.94219C 90.75311 6.3 91.2633 5.92813 91.90511 5.92813C 92.4152 5.92813 93.09341 6.31211 93.09341 7.01406C 93.09341 7.53594 92.7152 7.82383 92.3012 8.057811C 92.5711 8.24414 92.7332 8.38789 92.77541 8.44219C 92.8891 8.57383 92.9492 8.74805 92.9492 8.921881C 92.9492 9.40781 92.541 9.810161 91.9711 9.810161z" stroke="#000000" stroke-width="0.4" fill="none" /><path id="1397" transform="matrix(1 0 0 -1 0 834)" d="M95.6672 6L95.6672 6.16211C 95.1211 6.20391 95.0852 6.25195 95.0852 6.68398L95.0852 6.68398L95.0852 9.810161C 94.7551 9.67813 94.40121 9.56406 94.0172 9.49805L94.0172 9.49805L94.0172 9.36016L94.0172 9.36016L94.30511 9.34805C 94.5691 9.33594 94.59341 9.305861 94.59341 8.99414L94.59341 8.99414L94.59341 6.68398C 94.59341 6.25195 94.5633 6.20391 94.0172 6.16211L94.0172 6.16211L94.0172 6z" stroke="#000000" stroke-width="0.4" fill="none" /><path id="1416" transform="matrix(1 0 0 -1 0 834)" d="M554.472 6.83984C 554.292 6.46211 554.2141 6.43789 553.89 6.43789L553.89 6.43789L552.768 6.43789L552.768 6.43789L553.6201 7.33203C 554.1721 7.91992 554.412 8.273829 554.412 8.79609C 554.412 9.42617 553.932 9.810161 553.404 9.810161C 553.056 9.810161 552.774 9.653911 552.594 9.45586L552.594 9.45586L552.252 8.96992L552.252 8.96992L552.384 8.85C 552.54 9.08398 552.792 9.40781 553.2 9.40781C 553.644 9.40781 553.908 9.11406 553.908 8.61016C 553.908 8.09414 553.53 7.60195 553.158 7.15781C 552.858 6.81016 552.522 6.46797 552.186 6.13789L552.186 6.13789L552.186 6L552.186 6L554.43 6C 554.502 6.26992 554.562 6.53398 554.64 6.78594z" stroke="#000000" stroke-width="0.4" fill="none" /><path id="1417" transform="matrix(1 0 0 -1 0 834)" d="M555.792 9.3L557.19 9.3L557.19 9.3L557.346 9.68984L557.346 9.68984L557.31 9.73789L557.31 9.73789L555.6 9.73789L555.6 9.73789L555.366 7.90781C 555.504 7.96211 555.732 8.028131 555.984 8.028131C 556.638 8.028131 556.962 7.65 556.962 7.121881C 556.962 6.67188 556.71 6.23398 556.2 6.23398C 555.834 6.23398 555.588 6.42617 555.462 6.53984C 555.402 6.58789 555.354 6.58203 555.3 6.53984C 555.234 6.48008 555.18 6.40195 555.174 6.34219C 555.162 6.26992 555.192 6.22188 555.27 6.13789C 555.36 6.05391 555.612 5.92813 555.888 5.92813C 556.206 5.93398 556.608 6.08984 556.932 6.35391C 557.298 6.65391 557.466 6.99609 557.466 7.35586C 557.466 7.84805 557.076 8.369921 556.308 8.369921C 556.146 8.369921 555.864 8.273829 555.636 8.18984z" stroke="#000000" stroke-width="0.4" fill="none" /><path id="1418" transform="matrix(1 0 0 -1 0 834)" d="M559.548 9.989841L559.212 9.989841L559.212 9.989841L557.91 5.73594L557.91 5.73594L558.246 5.73594z" stroke="#000000" stroke-width="0.4" fill="none" /><path id="1419" transform="matrix(1 0 0 -1 0 834)" d="M561.18 9.61211C 561.72 9.61211 561.8701 8.72383 561.8701 7.871881C 561.8701 7.03203 561.726 6.13203 561.186 6.13203C 560.664 6.13203 560.49 7.03789 560.49 7.87813C 560.49 8.712111 560.634 9.61211 561.18 9.61211zM561.186 9.810161C 560.286 9.810161 559.956 8.74219 559.956 7.86602C 559.956 6.91797 560.28 5.92813 561.186 5.92813C 562.086 5.92813 562.404 6.99609 562.404 7.871881C 562.404 8.79609 562.086 9.810161 561.186 9.810161z" stroke="#000000" stroke-width="0.4" fill="none" /><path id="1420" transform="matrix(1 0 0 -1 0 834)" d="M564 9.61211C 564.582 9.61211 564.738 8.86797 564.738 8.33984C 564.738 8.21992 564.732 8.076171 564.7141 7.94414C 564.588 7.84805 564.384 7.77617 564.174 7.77617C 563.67 7.77617 563.3701 8.214061 563.3701 8.74219C 563.3701 9.09609 563.538 9.61211 564 9.61211zM564.078 9.810161C 563.304 9.810161 562.854 9.10781 562.854 8.53203C 562.854 7.90195 563.292 7.43398 563.928 7.43398C 564.042 7.43398 564.156 7.45781 564.288 7.53008L564.288 7.53008L564.69 7.74609C 564.492 6.83398 563.838 6.23398 562.98 6.08984L562.98 6.08984L563.01 5.91016C 563.16 5.91016 563.526 5.96992 563.85 6.10195C 564.66 6.42617 565.2661 7.20586 565.2661 8.310161C 565.2661 9.12617 564.828 9.810161 564.078 9.810161z" stroke="#000000" stroke-width="0.4" fill="none" /><path id="1421" transform="matrix(1 0 0 -1 0 834)" d="M567.294 9.989841L566.958 9.989841L566.958 9.989841L565.656 5.73594L565.656 5.73594L565.992 5.73594z" stroke="#000000" stroke-width="0.4" fill="none" /><path id="1422" transform="matrix(1 0 0 -1 0 834)" d="M569.9641 6.83984C 569.784 6.46211 569.706 6.43789 569.382 6.43789L569.382 6.43789L568.26 6.43789L568.26 6.43789L569.112 7.33203C 569.664 7.91992 569.904 8.273829 569.904 8.79609C 569.904 9.42617 569.424 9.810161 568.896 9.810161C 568.548 9.810161 568.2661 9.653911 568.086 9.45586L568.086 9.45586L567.744 8.96992L567.744 8.96992L567.876 8.85C 568.032 9.08398 568.284 9.40781 568.692 9.40781C 569.136 9.40781 569.4 9.11406 569.4 8.61016C 569.4 8.09414 569.022 7.60195 568.65 7.15781C 568.35 6.81016 568.014 6.46797 567.678 6.13789L567.678 6.13789L567.678 6L567.678 6L569.9221 6C 569.994 6.26992 570.054 6.53398 570.132 6.78594z" stroke="#000000" stroke-width="0.4" fill="none" /><path id="1423" transform="matrix(1 0 0 -1 0 834)" d="M571.806 9.61211C 572.346 9.61211 572.496 8.72383 572.496 7.871881C 572.496 7.03203 572.352 6.13203 571.812 6.13203C 571.29 6.13203 571.116 7.03789 571.116 7.87813C 571.116 8.712111 571.26 9.61211 571.806 9.61211zM571.812 9.810161C 570.912 9.810161 570.582 8.74219 570.582 7.86602C 570.582 6.91797 570.906 5.92813 571.812 5.92813C 572.712 5.92813 573.03 6.99609 573.03 7.871881C 573.03 8.79609 572.712 9.810161 571.812 9.810161z" stroke="#000000" stroke-width="0.4" fill="none" /><path id="1424" transform="matrix(1 0 0 -1 0 834)" d="M575.556 6L575.556 6.16211C 575.01 6.20391 574.9741 6.25195 574.9741 6.68398L574.9741 6.68398L574.9741 9.810161C 574.644 9.67813 574.29 9.56406 573.906 9.49805L573.906 9.49805L573.906 9.36016L573.906 9.36016L574.194 9.34805C 574.458 9.33594 574.482 9.305861 574.482 8.99414L574.482 8.99414L574.482 6.68398C 574.482 6.25195 574.452 6.20391 573.906 6.16211L573.906 6.16211L573.906 6z" stroke="#000000" stroke-width="0.4" fill="none" /><path id="1425" transform="matrix(1 0 0 -1 0 834)" d="M578.814 9.73789L576.522 9.73789C 576.498 9.48008 576.468 9.180079 576.414 8.85L576.414 8.85L576.588 8.85C 576.732 9.24609 576.768 9.3 577.164 9.3L577.164 9.3L578.46 9.3C 577.986 8.25586 577.308 7.01406 576.678 5.99414L576.678 5.99414L576.72 5.92813L576.72 5.92813L577.164 5.98789C 577.74 7.22383 578.298 8.44805 578.862 9.66602z" stroke="#000000" stroke-width="0.4" fill="none" /><path id="1426" transform="matrix(1 0 0 -1 0 834)" d="M584.531 9.61211C 585.071 9.61211 585.221 8.72383 585.221 7.871881C 585.221 7.03203 585.077 6.13203 584.537 6.13203C 584.015 6.13203 583.841 7.03789 583.841 7.87813C 583.841 8.712111 583.985 9.61211 584.531 9.61211zM584.537 9.810161C 583.637 9.810161 583.307 8.74219 583.307 7.86602C 583.307 6.91797 583.631 5.92813 584.537 5.92813C 585.437 5.92813 585.755 6.99609 585.755 7.871881C 585.755 8.79609 585.437 9.810161 584.537 9.810161z" stroke="#000000" stroke-width="0.4" fill="none" /><path id="1427" transform="matrix(1 0 0 -1 0 834)" d="M588.449 6.83984C 588.269 6.46211 588.191 6.43789 587.867 6.43789L587.867 6.43789L586.7451 6.43789L586.7451 6.43789L587.597 7.33203C 588.149 7.91992 588.389 8.273829 588.389 8.79609C 588.389 9.42617 587.909 9.810161 587.381 9.810161C 587.033 9.810161 586.751 9.653911 586.571 9.45586L586.571 9.45586L586.229 8.96992L586.229 8.96992L586.361 8.85C 586.517 9.08398 586.769 9.40781 587.177 9.40781C 587.621 9.40781 587.885 9.11406 587.885 8.61016C 587.885 8.09414 587.507 7.60195 587.135 7.15781C 586.835 6.81016 586.499 6.46797 586.163 6.13789L586.163 6.13789L586.163 6L586.163 6L588.407 6C 588.479 6.26992 588.539 6.53398 588.617 6.78594z" stroke="#000000" stroke-width="0.4" fill="none" /><path id="1428" transform="matrix(1 0 0 -1 0 834)" d="M589.5471 5.92813C 589.739 5.92813 589.883 6.06602 589.883 6.27617C 589.883 6.46797 589.739 6.61797 589.5471 6.61797C 589.355 6.61797 589.211 6.46797 589.211 6.27617C 589.211 6.06602 589.355 5.92813 589.5471 5.92813zM589.541 8.466021C 589.3491 8.466021 589.211 8.328131 589.211 8.13008C 589.211 7.92617 589.3491 7.78203 589.541 7.78203C 589.733 7.78203 589.877 7.92617 589.877 8.13008C 589.877 8.328131 589.733 8.466021 589.541 8.466021z" stroke="#000000" stroke-width="0.4" fill="none" /><path id="1429" transform="matrix(1 0 0 -1 0 834)" d="M590.735 8.976171C 590.885 9.19805 591.125 9.45 591.455 9.45C 591.773 9.45 592.025 9.257811 592.025 8.88594C 592.025 8.44219 591.617 8.20781 591.065 8.03398L591.065 8.03398L591.107 7.86016C 591.203 7.88984 591.347 7.92617 591.491 7.92617C 591.833 7.92617 592.253 7.70391 592.253 7.15195C 592.253 6.55781 591.953 6.23984 591.527 6.23984C 591.185 6.23984 590.939 6.40781 590.783 6.54609C 590.735 6.58789 590.687 6.58203 590.639 6.54609C 590.585 6.50391 590.507 6.42617 590.501 6.34805C 590.489 6.27617 590.513 6.21016 590.597 6.13203C 590.675 6.06016 590.921 5.92813 591.197 5.92813C 591.629 5.92813 592.769 6.37188 592.769 7.34414C 592.769 7.78203 592.463 8.153911 591.935 8.25586L591.935 8.25586L591.935 8.26797C 592.109 8.38789 592.253 8.49609 592.343 8.59219C 592.457 8.70586 592.529 8.84414 592.529 9.01797C 592.529 9.47383 592.175 9.810161 591.635 9.810161C 591.317 9.810161 591.041 9.66016 590.873 9.47383L590.873 9.47383L590.609 9.09609z" stroke="#000000" stroke-width="0.4" fill="none" /><path id="1430" transform="matrix(1 0 0 -1 0 834)" d="M595.409 6L595.409 6.16211C 594.863 6.20391 594.827 6.25195 594.827 6.68398L594.827 6.68398L594.827 9.810161C 594.497 9.67813 594.143 9.56406 593.759 9.49805L593.759 9.49805L593.759 9.36016L593.759 9.36016L594.0471 9.34805C 594.311 9.33594 594.335 9.305861 594.335 8.99414L594.335 8.99414L594.335 6.68398C 594.335 6.25195 594.305 6.20391 593.759 6.16211L593.759 6.16211L593.759 6z" stroke="#000000" stroke-width="0.4" fill="none" /><path id="1431" transform="matrix(1 0 0 -1 0 834)" d="M596.675 5.92813C 596.867 5.92813 597.011 6.06602 597.011 6.27617C 597.011 6.46797 596.867 6.61797 596.675 6.61797C 596.483 6.61797 596.3391 6.46797 596.3391 6.27617C 596.3391 6.06602 596.483 5.92813 596.675 5.92813zM596.669 8.466021C 596.477 8.466021 596.3391 8.328131 596.3391 8.13008C 596.3391 7.92617 596.477 7.78203 596.669 7.78203C 596.861 7.78203 597.005 7.92617 597.005 8.13008C 597.005 8.328131 596.861 8.466021 596.669 8.466021z" stroke="#000000" stroke-width="0.4" fill="none" /><path id="1432" transform="matrix(1 0 0 -1 0 834)" d="M599.033 7.35L597.851 7.35C 598.247 8.016021 598.637 8.58594 599.021 9.119921L599.021 9.119921L599.033 9.119921zM600.0891 7.06797L600.0891 7.35L600.0891 7.35L599.513 7.35L599.513 7.35L599.513 9.79219L599.513 9.79219L599.273 9.79219C 598.655 8.976171 598.043 8.08789 597.473 7.23594L597.473 7.23594L597.473 7.06797L597.473 7.06797L599.033 7.06797L599.033 7.06797L599.033 6.63594C 599.033 6.23984 599.009 6.20391 598.487 6.16211L598.487 6.16211L598.487 6L598.487 6L600.023 6L600.023 6L600.023 6.16211C 599.537 6.20391 599.513 6.23398 599.513 6.63594L599.513 6.63594L599.513 7.06797z" stroke="#000000" stroke-width="0.4" fill="none" /><path id="1433" transform="matrix(1 0 0 -1 0 834)" d="M601.145 9.3L602.543 9.3L602.543 9.3L602.699 9.68984L602.699 9.68984L602.663 9.73789L602.663 9.73789L600.953 9.73789L600.953 9.73789L600.719 7.90781C 600.857 7.96211 601.085 8.028131 601.337 8.028131C 601.991 8.028131 602.315 7.65 602.315 7.121881C 602.315 6.67188 602.063 6.23398 601.553 6.23398C 601.187 6.23398 600.941 6.42617 600.815 6.53984C 600.755 6.58789 600.707 6.58203 600.653 6.53984C 600.587 6.48008 600.533 6.40195 600.527 6.34219C 600.515 6.26992 600.545 6.22188 600.623 6.13789C 600.713 6.05391 600.965 5.92813 601.241 5.92813C 601.559 5.93398 601.961 6.08984 602.285 6.35391C 602.651 6.65391 602.819 6.99609 602.819 7.35586C 602.819 7.84805 602.429 8.369921 601.661 8.369921C 601.499 8.369921 601.217 8.273829 600.989 8.18984z" stroke="#000000" stroke-width="0.4" fill="none" /><path id="1434" transform="matrix(1 0 0 -1 0 834)" d="M605.489 8.08203C 605.651 8.20195 605.897 8.33398 606.0891 8.33398C 606.527 8.33398 606.893 7.97383 606.893 7.33203C 606.893 6.65391 606.557 6.22188 606.053 6.22188C 605.8491 6.22188 605.621 6.31797 605.489 6.45586zM605.489 8.28008L605.489 8.75391C 605.207 8.63984 604.871 8.53789 604.619 8.49609L604.619 8.49609L604.619 8.351951C 604.991 8.30391 605.015 8.29219 605.015 7.90195L605.015 7.90195L605.015 5.18984C 605.015 4.79414 604.961 4.75781 604.577 4.72188L604.577 4.72188L604.577 4.56016L604.577 4.56016L605.999 4.56016L605.999 4.56016L605.999 4.72188C 605.531 4.76406 605.489 4.79414 605.489 5.25L605.489 5.25L605.489 6.03594C 605.567 5.99414 605.729 5.93398 605.903 5.92813C 606.683 6.07188 607.397 6.65391 607.397 7.56016C 607.397 8.153911 607.001 8.69414 606.335 8.69414C 606.263 8.69414 606.149 8.664061 606.041 8.60391z" stroke="#000000" stroke-width="0.4" fill="none" /><path id="1435" transform="matrix(1 0 0 -1 0 834)" d="M608.303 5.92813C 608.4951 5.92813 608.639 6.06602 608.639 6.27617C 608.639 6.46797 608.4951 6.61797 608.303 6.61797C 608.111 6.61797 607.967 6.46797 607.967 6.27617C 607.967 6.06602 608.111 5.92813 608.303 5.92813z" stroke="#000000" stroke-width="0.4" fill="none" /><path id="1436" transform="matrix(1 0 0 -1 0 834)" d="M615.125 6L615.125 6.15586C 614.783 6.19219 614.735 6.21602 614.735 6.61797L614.735 6.61797L614.735 7.77617C 614.735 8.36406 614.441 8.69414 613.973 8.69414C 613.805 8.69414 613.649 8.621881 613.523 8.53789C 613.373 8.44805 613.199 8.33398 613.025 8.20195C 612.905 8.51406 612.647 8.69414 612.359 8.69414C 612.167 8.69414 612.023 8.628131 611.867 8.53203C 611.687 8.417971 611.555 8.310161 611.429 8.226171L611.429 8.226171L611.429 8.712111C 611.165 8.59219 610.859 8.51406 610.595 8.466021L610.595 8.466021L610.595 8.328131C 610.9431 8.273829 610.961 8.24414 610.961 7.86016L610.961 7.86016L610.961 6.61797C 610.961 6.22813 610.907 6.19219 610.511 6.15586L610.511 6.15586L610.511 6L610.511 6L611.777 6L611.777 6L611.777 6.15586C 611.483 6.19219 611.435 6.22813 611.435 6.61797L611.435 6.61797L611.435 8.028131C 611.615 8.17813 611.8491 8.33984 612.0891 8.33984C 612.455 8.33984 612.611 8.09414 612.611 7.65L612.611 7.65L612.611 6.61797C 612.611 6.22188 612.557 6.19219 612.185 6.15586L612.185 6.15586L612.185 6L612.185 6L613.469 6L613.469 6L613.469 6.15586C 613.139 6.19219 613.085 6.22813 613.085 6.60586L613.085 6.60586L613.085 7.77617C 613.085 7.88984 613.079 7.95586 613.067 8.028131C 613.295 8.21992 613.523 8.33984 613.739 8.33984C 614.117 8.33984 614.267 8.069921 614.267 7.64414L614.267 7.64414L614.267 6.64219C 614.267 6.21602 614.201 6.19219 613.847 6.15586L613.847 6.15586L613.847 6z" stroke="#000000" stroke-width="0.4" fill="none" /><path id="1437" transform="matrix(1 0 0 -1 0 834)" d="M615.947 5.92813C 616.139 5.92813 616.283 6.06602 616.283 6.27617C 616.283 6.46797 616.139 6.61797 615.947 6.61797C 615.755 6.61797 615.611 6.46797 615.611 6.27617C 615.611 6.06602 615.755 5.92813 615.947 5.92813z" stroke="#000000" stroke-width="0.4" fill="none" /></g></g></svg>