<svg xmlns="http://www.w3.org/2000/svg" xmlns:xlink="http://www.w3.org/1999/xlink" id="body_1" preserveAspectRatio="xMinYMin meet" viewBox="0 0 872 1112"><defs><clipPath id="1"><path id="" clip-rule="evenodd" transform="matrix(1 0 0 1 0 0)" d="M0 834L0 0L0 0L654 0L654 0L654 834L654 834L0 834z" /></clipPath><clipPath id="2"><path id="" clip-rule="evenodd" transform="matrix(1 0 0 1 0 0)" d="M21 813L633 813L633 813L633 21L633 21L21 21z" /></clipPath><clipPath id="3"><path id="" clip-rule="evenodd" transform="matrix(1 0 0 1 0 0)" d="M215.389 268.814L319.883 268.814L319.883 268.814L319.883 125.382L319.883 125.382L215.389 125.382z" /></clipPath><clipPath id="4"><path id="" clip-rule="evenodd" transform="matrix(1 0 0 1 0 0)" d="M215.389 268.814L319.883 268.814L319.883 268.814L319.883 125.382L319.883 125.382L215.389 125.382z" /></clipPath><clipPath id="5"><path id="" clip-rule="evenodd" transform="matrix(1 0 0 1 0 0)" d="M226.404 190.325C 226.399 190.326 226.395 190.326 226.391 190.327L226.391 190.327L226.391 190.327C 226.491 190.316 226.714 190.294 226.895 190.275L226.895 190.275L226.895 190.275C 226.778 190.287 226.618 190.304 226.404 190.325M226.895 190.275C 227.031 190.262 227.143 190.25 227.156 190.248L227.156 190.248L227.156 190.248C 227.146 190.249 227.07 190.257 226.895 190.275M227.156 190.248C 227.157 190.248 227.158 190.248 227.158 190.248L227.158 190.248L227.158 190.248C 227.158 190.248 227.157 190.248 227.156 190.248M214.339 183.169C 213.527 183.989 212.289 183.837 211.234 183.889L211.234 183.889L211.234 183.889C 209.721 183.962 209.306 184.683 208.374 185.793L208.374 185.793L208.374 185.793C 208.114 186.104 207.224 186.267 206.838 186.519L206.838 186.519L206.838 186.519C 206.342 186.843 205.971 187.285 205.587 187.736L205.587 187.736L205.587 187.736C 204.999 188.424 204.412 189.111 203.825 189.799L203.825 189.799L203.825 189.799C 203.825 189.799 203.672 193.875 204.553 196.778L204.553 196.778L204.553 196.778L204.553 196.778L205.591 199.67C 205.591 199.67 205.377 201.224 204.907 201.312L204.907 201.312L204.907 201.312L204.907 201.312L204.46 202.552L204.46 202.552L204.251 203.392C 204.251 203.392 203.731 208.317 201.064 211.969L201.064 211.969L201.064 211.969C 198.527 215.44 197.003 219.73 196.246 223.989L196.246 223.989L196.246 223.989C 196.265 223.941 196.283 223.893 196.302 223.845L196.302 223.845L196.302 223.845C 196.024 224.572 196.244 225.596 196.285 226.352L196.285 226.352L196.285 226.352C 196.331 227.217 196.282 228.084 196.317 228.9529L196.317 228.9529L196.317 228.9529C 196.365 230.128 196.483 231.302 196.605 232.471L196.605 232.471L196.605 232.471C 196.775 234.1 196.961 235.153 198.051 236.383L198.051 236.383L198.051 236.383C 198.997 237.451 200.286 238.446 201.757 238.34L201.757 238.34L201.757 238.34C 202.634 238.1509 203.509 237.915 204.359 237.62L204.359 237.62L204.359 237.62C 204.864 237.445 205.483 237.266 205.905 236.913L205.905 236.913L205.905 236.913C 206.426 236.478 206.685 235.805 207.057 235.246L207.057 235.246L207.057 235.246C 207.42 234.7 207.844 234.19 208.249 233.677L208.249 233.677L208.249 233.677C 208.813 232.963 209.456 232.288 209.984 231.544L209.984 231.544L209.984 231.544C 209.984 231.544 212.452 228.072 211.615 224.232L211.615 224.232L211.615 224.232C 211.615 224.232 211.497 213.694 212.119 211.892L212.119 211.892L212.119 211.892C 212.227 210.825 212.375 209.76 212.557 208.704L212.557 208.704L212.557 208.704C 212.69 207.947 212.831 207.18 213.06 206.445L213.06 206.445L213.06 206.445C 213.42 205.292 214.015 204.223 214.371 203.045L214.371 203.045L214.371 203.045C 214.56 202.42 214.65 201.345 215.043 200.852L215.043 200.852L215.043 200.852C 215.396 200.41 216.132 200.07 216.568 199.704L216.568 199.704L216.568 199.704C 218.468 198.112 220.135 196.167 221.298 193.9319L221.298 193.9319L221.298 193.9319C 221.298 193.9319 224.416 190.763 226.198 190.361L226.198 190.361L226.198 190.361C 226.264 190.345 226.328 190.334 226.391 190.327L226.391 190.327L226.391 190.327C 226.357 190.331 226.337 190.333 226.337 190.333L226.337 190.333L226.337 190.333L226.337 190.333L229.908 188.098C 229.908 188.098 231.114 185.539 227.623 185.57L227.623 185.57L227.623 185.57C 227.623 185.57 225.085 184.817 220.265 188.732L220.265 188.732L220.265 188.732C 220.265 188.732 221.731 182.915 218.711 181.263L218.711 181.263L218.711 181.263C 218.711 181.263 218.493 181.179 218.101 181.179L218.101 181.179L218.101 181.179C 217.366 181.179 216.02 181.474 214.339 183.169" /></clipPath><clipPath id="6"><path id="" clip-rule="evenodd" transform="matrix(1 0 0 1 0 0)" d="M226.404 190.325C 226.399 190.326 226.395 190.326 226.391 190.327L226.391 190.327L226.391 190.327C 226.491 190.316 226.714 190.294 226.895 190.275L226.895 190.275L226.895 190.275C 226.778 190.287 226.618 190.304 226.404 190.325M226.895 190.275C 227.031 190.262 227.143 190.25 227.156 190.248L227.156 190.248L227.156 190.248C 227.146 190.249 227.07 190.257 226.895 190.275M227.156 190.248C 227.157 190.248 227.158 190.248 227.158 190.248L227.158 190.248L227.158 190.248C 227.158 190.248 227.157 190.248 227.156 190.248M214.339 183.169C 213.527 183.989 212.289 183.837 211.234 183.889L211.234 183.889L211.234 183.889C 209.721 183.962 209.306 184.683 208.374 185.793L208.374 185.793L208.374 185.793C 208.114 186.104 207.224 186.267 206.838 186.519L206.838 186.519L206.838 186.519C 206.342 186.843 205.971 187.285 205.587 187.736L205.587 187.736L205.587 187.736C 204.999 188.424 204.412 189.111 203.825 189.799L203.825 189.799L203.825 189.799C 203.825 189.799 203.672 193.875 204.553 196.778L204.553 196.778L204.553 196.778L204.553 196.778L205.591 199.67C 205.591 199.67 205.377 201.224 204.907 201.312L204.907 201.312L204.907 201.312L204.907 201.312L204.46 202.552L204.46 202.552L204.251 203.392C 204.251 203.392 203.731 208.317 201.064 211.969L201.064 211.969L201.064 211.969C 198.527 215.44 197.003 219.73 196.246 223.989L196.246 223.989L196.246 223.989C 196.265 223.941 196.283 223.893 196.302 223.845L196.302 223.845L196.302 223.845C 196.024 224.572 196.244 225.596 196.285 226.352L196.285 226.352L196.285 226.352C 196.331 227.217 196.282 228.084 196.317 228.9529L196.317 228.9529L196.317 228.9529C 196.365 230.128 196.483 231.302 196.605 232.471L196.605 232.471L196.605 232.471C 196.775 234.1 196.961 235.153 198.051 236.383L198.051 236.383L198.051 236.383C 198.997 237.451 200.286 238.446 201.757 238.34L201.757 238.34L201.757 238.34C 202.634 238.1509 203.509 237.915 204.359 237.62L204.359 237.62L204.359 237.62C 204.864 237.445 205.483 237.266 205.905 236.913L205.905 236.913L205.905 236.913C 206.426 236.478 206.685 235.805 207.057 235.246L207.057 235.246L207.057 235.246C 207.42 234.7 207.844 234.19 208.249 233.677L208.249 233.677L208.249 233.677C 208.813 232.963 209.456 232.288 209.984 231.544L209.984 231.544L209.984 231.544C 209.984 231.544 212.452 228.072 211.615 224.232L211.615 224.232L211.615 224.232C 211.615 224.232 211.497 213.694 212.119 211.892L212.119 211.892L212.119 211.892C 212.227 210.825 212.375 209.76 212.557 208.704L212.557 208.704L212.557 208.704C 212.69 207.947 212.831 207.18 213.06 206.445L213.06 206.445L213.06 206.445C 213.42 205.292 214.015 204.223 214.371 203.045L214.371 203.045L214.371 203.045C 214.56 202.42 214.65 201.345 215.043 200.852L215.043 200.852L215.043 200.852C 215.396 200.41 216.132 200.07 216.568 199.704L216.568 199.704L216.568 199.704C 218.468 198.112 220.135 196.167 221.298 193.9319L221.298 193.9319L221.298 193.9319C 221.298 193.9319 224.416 190.763 226.198 190.361L226.198 190.361L226.198 190.361C 226.264 190.345 226.328 190.334 226.391 190.327L226.391 190.327L226.391 190.327C 226.357 190.331 226.337 190.333 226.337 190.333L226.337 190.333L226.337 190.333L226.337 190.333L229.908 188.098C 229.908 188.098 231.114 185.539 227.623 185.57L227.623 185.57L227.623 185.57C 227.623 185.57 225.085 184.817 220.265 188.732L220.265 188.732L220.265 188.732C 220.265 188.732 221.731 182.915 218.711 181.263L218.711 181.263L218.711 181.263C 218.711 181.263 218.493 181.179 218.101 181.179L218.101 181.179L218.101 181.179C 217.366 181.179 216.02 181.474 214.339 183.169" /></clipPath><clipPath id="7"><path id="" clip-rule="evenodd" transform="matrix(1 0 0 1 0 0)" d="M187.495 182.1819L185.594 182.922L185.594 182.922L185.04 183.415L185.04 183.415L184.645 183.744L184.645 183.744L182.269 183.827C 180.289 183.58 177.675 185.388 177.675 185.388L177.675 185.388L177.675 185.388C 176.408 185.553 174.27 188.101 174.27 188.101L174.27 188.101L174.27 188.101C 172.687 189.334 173.636 192.458 173.636 192.458L173.636 192.458L173.636 192.458L173.636 192.458L173.794 193.444L173.794 193.444L173.953 195.252L173.953 195.252L174.903 197.554C 176.171 199.856 175.141 200.842 175.141 200.842L175.141 200.842L175.141 200.842C 174.032 202.322 173.319 205.938 173.319 205.938L173.319 205.938L173.319 205.938L173.319 205.938L172.449 207.417L172.449 207.417L169.36 212.104L169.36 212.104L168.331 214.405L168.331 214.405L166.667 217.282C 163.103 221.145 163.579 230.269 163.579 230.269L163.579 230.269L163.579 230.269C 163.42 233.147 165.083 235.201 165.083 235.201L165.083 235.201L165.083 235.201C 168.093 238.9 172.765 235.941 172.765 235.941L172.765 235.941L172.765 235.941C 173.003 234.955 177.755 230.269 177.755 230.269L177.755 230.269L177.755 230.269C 180.13 226.324 179.576 219.501 179.576 219.501L179.576 219.501L179.576 219.501L179.576 219.501L181.318 210.706L181.318 210.706L182.507 206.4319C 184.566 203.636 184.803 201.91 184.803 201.91L184.803 201.91L184.803 201.91L184.803 201.91L186.703 199.5259C 187.416 199.198 189.158 196.896 189.158 196.896L189.158 196.896L189.158 196.896L189.158 196.896L190.426 194.43L190.426 194.43L193.356 189.334L193.356 189.334L193.514 188.922L193.514 188.922L192.881 187.5259L192.881 187.5259L192.485 186.95L192.485 186.95L191.693 186.621L191.693 186.621L190.267 185.306C 190.426 183.087 189.396 182.347 189.396 182.347L189.396 182.347L189.396 182.347L189.396 182.347L188.446 181.936z" /></clipPath><clipPath id="8"><path id="" clip-rule="evenodd" transform="matrix(1 0 0 1 0 0)" d="M187.495 182.1819L185.594 182.922L185.594 182.922L185.04 183.415L185.04 183.415L184.645 183.744L184.645 183.744L182.269 183.827C 180.289 183.58 177.675 185.388 177.675 185.388L177.675 185.388L177.675 185.388C 176.408 185.553 174.27 188.101 174.27 188.101L174.27 188.101L174.27 188.101C 172.687 189.334 173.636 192.458 173.636 192.458L173.636 192.458L173.636 192.458L173.636 192.458L173.794 193.444L173.794 193.444L173.953 195.252L173.953 195.252L174.903 197.554C 176.171 199.856 175.141 200.842 175.141 200.842L175.141 200.842L175.141 200.842C 174.032 202.322 173.319 205.938 173.319 205.938L173.319 205.938L173.319 205.938L173.319 205.938L172.449 207.417L172.449 207.417L169.36 212.104L169.36 212.104L168.331 214.405L168.331 214.405L166.667 217.282C 163.103 221.145 163.579 230.269 163.579 230.269L163.579 230.269L163.579 230.269C 163.42 233.147 165.083 235.201 165.083 235.201L165.083 235.201L165.083 235.201C 168.093 238.9 172.765 235.941 172.765 235.941L172.765 235.941L172.765 235.941C 173.003 234.955 177.755 230.269 177.755 230.269L177.755 230.269L177.755 230.269C 180.13 226.324 179.576 219.501 179.576 219.501L179.576 219.501L179.576 219.501L179.576 219.501L181.318 210.706L181.318 210.706L182.507 206.4319C 184.566 203.636 184.803 201.91 184.803 201.91L184.803 201.91L184.803 201.91L184.803 201.91L186.703 199.5259C 187.416 199.198 189.158 196.896 189.158 196.896L189.158 196.896L189.158 196.896L189.158 196.896L190.426 194.43L190.426 194.43L193.356 189.334L193.356 189.334L193.514 188.922L193.514 188.922L192.881 187.5259L192.881 187.5259L192.485 186.95L192.485 186.95L191.693 186.621L191.693 186.621L190.267 185.306C 190.426 183.087 189.396 182.347 189.396 182.347L189.396 182.347L189.396 182.347L189.396 182.347L188.446 181.936z" /></clipPath><clipPath id="9"><path id="" clip-rule="evenodd" transform="matrix(1 0 0 1 0 0)" d="M163.103 268.815L319.883 268.815L319.883 268.815L319.883 125.382L319.883 125.382L163.103 125.382z" /></clipPath><clipPath id="10"><path id="" clip-rule="evenodd" transform="matrix(1 0 0 1 0 0)" d="M223.545 705.351L326.64 705.351L326.64 705.351L326.64 566.453L326.64 566.453L223.545 566.453z" /></clipPath><clipPath id="11"><path id="" clip-rule="evenodd" transform="matrix(1 0 0 1 0 0)" d="M223.545 705.351L326.64 705.351L326.64 705.351L326.64 566.453L326.64 566.453L223.545 566.453z" /></clipPath><clipPath id="12"><path id="" clip-rule="evenodd" transform="matrix(1 0 0 1 0 0)" d="M216.249 624.603C 216.249 624.603 215.298 625.753 215.456 626.06L215.456 626.06L215.456 626.06C 215.456 626.06 213.237 625.6 212.365 627.132L212.365 627.132L212.365 627.132C 212.365 627.132 211.176 627.744 211.651 630.119L211.651 630.119L211.651 630.119C 211.613 629.965 209.752 630.101 209.571 630.142L209.571 630.142L209.571 630.142C 209.001 630.271 208.722 630.486 208.384 630.969L208.384 630.969L208.384 630.969C 207.315 632.499 207.712 634.44 208.164 636.096L208.164 636.096L208.164 636.096C 208.165 636.096 209.273 640.157 207.768 642.225L207.768 642.225L207.768 642.225C 207.799 642.893 207.831 643.562 207.862 644.23L207.862 644.23L207.862 644.23C 207.913 645.31 207.597 646.035 207.109 646.979L207.109 646.979L207.109 646.979C 206.616 647.935 206.71 649.16 206.103 650.04L206.103 650.04L206.103 650.04L206.103 650.04L204.676 652.108C 204.676 652.108 196.67 662.374 196.036 667.892L196.036 667.892L196.036 667.892C 195.908 669.006 195.953 670.129 195.99 671.248L195.99 671.248L195.99 671.248C 196.007 671.751 195.748 673.365 196.036 673.791L196.036 673.791L196.036 673.791L196.036 673.791L197.383 675.783L197.383 675.783L198.889 677.238L198.889 677.238L200.396 677.698L200.396 677.698L202.298 677.392C 203.644 676.855 204.618 676.635 205.607 675.568L205.607 675.568L205.607 675.568C 206.687 674.405 207.941 673.727 209.433 673.178L209.433 673.178L209.433 673.178C 209.433 673.178 212.762 671.951 212.048 663.294L212.048 663.294L212.048 663.294L212.048 663.294L213.475 657.624C 213.475 657.624 216.805 650.423 217.835 648.66L217.835 648.66L217.835 648.66C 217.835 648.66 222.591 648.201 225.999 642.225L225.999 642.225L225.999 642.225L225.999 642.225L227.743 640.616L227.743 640.616L229.09 638.701L229.09 638.701L229.725 637.705C 229.725 637.705 230.121 636.019 227.822 635.1L227.822 635.1L227.822 635.1L227.822 635.1L225.999 635.253L225.999 635.253L225.207 635.789L225.207 635.789L224.493 636.786L224.493 636.786L223.938 636.555L223.938 636.555L223.463 634.411L223.463 634.411L223.067 633.491L223.067 633.491L223.146 631.959C 223.146 631.959 225.524 631.576 225.048 630.12L225.048 630.12L225.048 630.12C 225.048 630.12 224.731 625.983 221.402 625.294L221.402 625.294L221.402 625.294L221.402 625.294L219.816 625.294C 219.816 625.294 218.598 624.411 217.259 624.411L217.259 624.411L217.259 624.411C 216.924 624.411 216.582 624.466 216.249 624.603" /></clipPath><clipPath id="13"><path id="" clip-rule="evenodd" transform="matrix(1 0 0 1 0 0)" d="M216.249 624.603C 216.249 624.603 215.298 625.753 215.456 626.06L215.456 626.06L215.456 626.06C 215.456 626.06 213.237 625.6 212.365 627.132L212.365 627.132L212.365 627.132C 212.365 627.132 211.176 627.744 211.651 630.119L211.651 630.119L211.651 630.119C 211.613 629.965 209.752 630.101 209.571 630.142L209.571 630.142L209.571 630.142C 209.001 630.271 208.722 630.486 208.384 630.969L208.384 630.969L208.384 630.969C 207.315 632.499 207.712 634.44 208.164 636.096L208.164 636.096L208.164 636.096C 208.165 636.096 209.273 640.157 207.768 642.225L207.768 642.225L207.768 642.225C 207.799 642.893 207.831 643.562 207.862 644.23L207.862 644.23L207.862 644.23C 207.913 645.31 207.597 646.035 207.109 646.979L207.109 646.979L207.109 646.979C 206.616 647.935 206.71 649.16 206.103 650.04L206.103 650.04L206.103 650.04L206.103 650.04L204.676 652.108C 204.676 652.108 196.67 662.374 196.036 667.892L196.036 667.892L196.036 667.892C 195.908 669.006 195.953 670.129 195.99 671.248L195.99 671.248L195.99 671.248C 196.007 671.751 195.748 673.365 196.036 673.791L196.036 673.791L196.036 673.791L196.036 673.791L197.383 675.783L197.383 675.783L198.889 677.238L198.889 677.238L200.396 677.698L200.396 677.698L202.298 677.392C 203.644 676.855 204.618 676.635 205.607 675.568L205.607 675.568L205.607 675.568C 206.687 674.405 207.941 673.727 209.433 673.178L209.433 673.178L209.433 673.178C 209.433 673.178 212.762 671.951 212.048 663.294L212.048 663.294L212.048 663.294L212.048 663.294L213.475 657.624C 213.475 657.624 216.805 650.423 217.835 648.66L217.835 648.66L217.835 648.66C 217.835 648.66 222.591 648.201 225.999 642.225L225.999 642.225L225.999 642.225L225.999 642.225L227.743 640.616L227.743 640.616L229.09 638.701L229.09 638.701L229.725 637.705C 229.725 637.705 230.121 636.019 227.822 635.1L227.822 635.1L227.822 635.1L227.822 635.1L225.999 635.253L225.999 635.253L225.207 635.789L225.207 635.789L224.493 636.786L224.493 636.786L223.938 636.555L223.938 636.555L223.463 634.411L223.463 634.411L223.067 633.491L223.067 633.491L223.146 631.959C 223.146 631.959 225.524 631.576 225.048 630.12L225.048 630.12L225.048 630.12C 225.048 630.12 224.731 625.983 221.402 625.294L221.402 625.294L221.402 625.294L221.402 625.294L219.816 625.294C 219.816 625.294 218.598 624.411 217.259 624.411L217.259 624.411L217.259 624.411C 216.924 624.411 216.582 624.466 216.249 624.603" /></clipPath><clipPath id="14"><path id="" clip-rule="evenodd" transform="matrix(1 0 0 1 0 0)" d="M180.2 619.177L179.936 624.183L179.936 624.183L179.46 629.495L179.46 629.495L179.302 629.749L179.302 629.749L178.456 630.108L178.456 630.108L177.294 630.465L177.294 630.465L176.871 630.874L176.871 630.874L175.286 631.18L175.286 631.18L174.123 631.691L174.123 631.691L172.59 632.968L172.59 632.968L172.22 632.917C 172.22 632.917 171.005 631.589 169.631 632.508L169.631 632.508L169.631 632.508L169.631 632.508L168.891 633.325L168.891 633.325L168.521 634.347L168.521 634.347L168.468 636.645L168.468 636.645L168.31 638.74L168.31 638.74L168.521 642.979L168.521 642.979L169.155 644.817L169.155 644.817L169.155 645.022L169.155 645.022L169.155 645.482L169.155 645.482L168.574 647.219L168.574 647.219L167.782 649.619C 167.782 649.619 162.814 655.288 161.492 658.761L161.492 658.761L161.492 658.761C 161.492 658.761 159.696 661.214 159.538 664.84L159.538 664.84L159.538 664.84C 159.538 664.84 160.224 669.538 159.801 670.764L159.801 670.764L159.801 670.764C 159.801 670.764 161.968 675.362 165.509 674.953L165.509 674.953L165.509 674.953L165.509 674.953L168.31 673.727L168.31 673.727L169.208 673.165L169.208 673.165L170.423 672.194L170.423 672.194L171.639 670.969L171.639 670.969L172.114 670.764L172.114 670.764L172.854 670.713L172.854 670.713L173.383 670.05L173.383 670.05L174.44 668.773L174.44 668.773L175.233 667.036L175.233 667.036L175.444 666.065L175.444 666.065L175.444 661.06L175.444 661.06L175.919 657.995L175.919 657.995L178.139 650.436L178.139 650.436L178.932 648.699L178.932 648.699L180.147 646.197C 180.147 646.197 183.37 645.329 185.643 643.643L185.643 643.643L185.643 643.643L185.643 643.643L186.859 642.57L186.859 642.57L187.704 641.753C 187.704 641.753 189.025 640.323 192.196 639.659L192.196 639.659L192.196 639.659L192.196 639.659L194.152 639.097L194.152 639.097L196.001 638.228C 196.001 638.228 199.383 637.207 197.163 635.011L197.163 635.011L197.163 635.011C 197.163 635.011 195.631 634.602 192.777 634.704L192.777 634.704L192.777 634.704L192.777 634.704L190.135 635.471C 190.135 635.471 187.176 637.157 185.908 634.5L185.908 634.5L185.908 634.5L185.908 634.5L184.639 632.508L184.639 632.508L183.847 630.618L183.847 630.618L183.74 629.341L183.74 629.341L183.794 626.532L183.794 626.532L183.794 622.65C 183.794 622.65 183.847 618.462 181.997 617.032L181.997 617.032L181.997 617.032C 181.997 617.032 181.919 617.014 181.795 617.014L181.795 617.014L181.795 617.014C 181.36 617.014 180.365 617.23 180.2 619.177" /></clipPath><clipPath id="15"><path id="" clip-rule="evenodd" transform="matrix(1 0 0 1 0 0)" d="M180.2 619.177L179.936 624.183L179.936 624.183L179.46 629.495L179.46 629.495L179.302 629.749L179.302 629.749L178.456 630.108L178.456 630.108L177.294 630.465L177.294 630.465L176.871 630.874L176.871 630.874L175.286 631.18L175.286 631.18L174.123 631.691L174.123 631.691L172.59 632.968L172.59 632.968L172.22 632.917C 172.22 632.917 171.005 631.589 169.631 632.508L169.631 632.508L169.631 632.508L169.631 632.508L168.891 633.325L168.891 633.325L168.521 634.347L168.521 634.347L168.468 636.645L168.468 636.645L168.31 638.74L168.31 638.74L168.521 642.979L168.521 642.979L169.155 644.817L169.155 644.817L169.155 645.022L169.155 645.022L169.155 645.482L169.155 645.482L168.574 647.219L168.574 647.219L167.782 649.619C 167.782 649.619 162.814 655.288 161.492 658.761L161.492 658.761L161.492 658.761C 161.492 658.761 159.696 661.214 159.538 664.84L159.538 664.84L159.538 664.84C 159.538 664.84 160.224 669.538 159.801 670.764L159.801 670.764L159.801 670.764C 159.801 670.764 161.968 675.362 165.509 674.953L165.509 674.953L165.509 674.953L165.509 674.953L168.31 673.727L168.31 673.727L169.208 673.165L169.208 673.165L170.423 672.194L170.423 672.194L171.639 670.969L171.639 670.969L172.114 670.764L172.114 670.764L172.854 670.713L172.854 670.713L173.383 670.05L173.383 670.05L174.44 668.773L174.44 668.773L175.233 667.036L175.233 667.036L175.444 666.065L175.444 666.065L175.444 661.06L175.444 661.06L175.919 657.995L175.919 657.995L178.139 650.436L178.139 650.436L178.932 648.699L178.932 648.699L180.147 646.197C 180.147 646.197 183.37 645.329 185.643 643.643L185.643 643.643L185.643 643.643L185.643 643.643L186.859 642.57L186.859 642.57L187.704 641.753C 187.704 641.753 189.025 640.323 192.196 639.659L192.196 639.659L192.196 639.659L192.196 639.659L194.152 639.097L194.152 639.097L196.001 638.228C 196.001 638.228 199.383 637.207 197.163 635.011L197.163 635.011L197.163 635.011C 197.163 635.011 195.631 634.602 192.777 634.704L192.777 634.704L192.777 634.704L192.777 634.704L190.135 635.471C 190.135 635.471 187.176 637.157 185.908 634.5L185.908 634.5L185.908 634.5L185.908 634.5L184.639 632.508L184.639 632.508L183.847 630.618L183.847 630.618L183.74 629.341L183.74 629.341L183.794 626.532L183.794 626.532L183.794 622.65C 183.794 622.65 183.847 618.462 181.997 617.032L181.997 617.032L181.997 617.032C 181.997 617.032 181.919 617.014 181.795 617.014L181.795 617.014L181.795 617.014C 181.36 617.014 180.365 617.23 180.2 619.177" /></clipPath><clipPath id="16"><path id="" clip-rule="evenodd" transform="matrix(1 0 0 1 0 0)" d="M159.538 705.35L326.64 705.35L326.64 705.35L326.64 566.452L326.64 566.452L159.538 566.452z" /></clipPath><clipPath id="17"><path id="" clip-rule="evenodd" transform="matrix(1 0 0 1 0 0)" d="M182.813 490.623L283.609 490.623L283.609 490.623L283.609 346.295L283.609 346.295L182.813 346.295z" /></clipPath><clipPath id="18"><path id="" clip-rule="evenodd" transform="matrix(1 0 0 1 0 0)" d="M182.813 490.623L283.609 490.623L283.609 490.623L283.609 346.295L283.609 346.295L182.813 346.295z" /></clipPath><clipPath id="19"><path id="" clip-rule="evenodd" transform="matrix(1 0 0 1 0 0)" d="M230.137 451.4L247.4831 451.4L247.4831 451.4L247.4831 447.2949L247.4831 447.2949L230.137 447.2949z" /></clipPath><clipPath id="20"><path id="" clip-rule="evenodd" transform="matrix(1 0 0 1 0 0)" d="M230.137 451.4L247.483 451.4L247.483 451.4L247.483 447.295L247.483 447.295L230.137 447.295z" /></clipPath><clipPath id="21"><path id="" clip-rule="evenodd" transform="matrix(1 0 0 1 0 0)" d="M230.137 451.4L247.4831 451.4L247.4831 451.4L247.4831 447.2949L247.4831 447.2949L230.137 447.2949z" /></clipPath><clipPath id="22"><path id="" clip-rule="evenodd" transform="matrix(1 0 0 1 0 0)" d="M230.137 451.4L247.4827 451.4L247.4827 451.4L247.4827 447.2961L247.4827 447.2961L230.137 447.2961z" /></clipPath><clipPath id="23"><path id="" clip-rule="evenodd" transform="matrix(1 0 0 1 0 0)" d="M230.137 451.4L247.4831 451.4L247.4831 451.4L247.4831 447.2949L247.4831 447.2949L230.137 447.2949z" /></clipPath><clipPath id="24"><path id="" clip-rule="evenodd" transform="matrix(1 0 0 1 0 0)" d="M182.813 492.049L316.104 492.049L316.104 492.049L316.104 346.296L316.104 346.296L182.813 346.296z" /></clipPath><clipPath id="25"><path id="" clip-rule="evenodd" transform="matrix(1 0 0 1 0 0)" d="M260.974 465.603C 260.974 479.837 273.156 491.376 288.184 491.376L288.184 491.376L288.184 491.376C 303.212 491.376 315.394 479.837 315.394 465.603L315.394 465.603L315.394 465.603C 315.394 451.37 303.212 439.831 288.184 439.831L288.184 439.831L288.184 439.831C 273.156 439.831 260.974 451.37 260.974 465.603" /></clipPath><clipPath id="26"><path id="" clip-rule="evenodd" transform="matrix(1 0 0 1 0 0)" d="M260.974 465.603C 260.974 479.837 273.156 491.376 288.184 491.376L288.184 491.376L288.184 491.376C 303.212 491.376 315.394 479.837 315.394 465.603L315.394 465.603L315.394 465.603C 315.394 451.37 303.212 439.831 288.184 439.831L288.184 439.831L288.184 439.831C 273.156 439.831 260.974 451.37 260.974 465.603" /></clipPath><clipPath id="27"><path id="" clip-rule="evenodd" transform="matrix(1 0 0 1 0 0)" d="M182.813 492.049L316.104 492.049L316.104 492.049L316.104 346.296L316.104 346.296L182.813 346.296z" /></clipPath><clipPath id="28"><path id="" clip-rule="evenodd" transform="matrix(1 0 0 1 0 0)" d="M355.736 388.269L393.152 388.269L393.152 388.269L393.152 331.678L393.152 331.678L355.736 331.678z" /></clipPath><clipPath id="29"><path id="" clip-rule="evenodd" transform="matrix(1 0 0 1 0 0)" d="M355.736 388.269L393.152 388.269L393.152 388.269L393.152 331.678L393.152 331.678L355.736 331.678z" /></clipPath><clipPath id="30"><path id="" clip-rule="evenodd" transform="matrix(1 0 0 1 0 0)" d="M354.922 609.743L393.8392 609.743L393.8392 609.743L393.8392 552.8262L393.8392 552.8262L354.922 552.8262z" /></clipPath><clipPath id="31"><path id="" clip-rule="evenodd" transform="matrix(1 0 0 1 0 0)" d="M354.922 609.743L393.8392 609.743L393.8392 609.743L393.8392 552.8262L393.8392 552.8262L354.922 552.8262z" /></clipPath><clipPath id="32"><path id="" clip-rule="evenodd" transform="matrix(1 0 0 1 0 0)" d="M355.271 168.125L391.98 168.125L391.98 168.125L391.98 112.4461L391.98 112.4461L355.271 112.4461z" /></clipPath><clipPath id="33"><path id="" clip-rule="evenodd" transform="matrix(1 0 0 1 0 0)" d="M355.271 168.125L391.98 168.125L391.98 168.125L391.98 112.4461L391.98 112.4461L355.271 112.4461z" /></clipPath><clipPath id="34"><path id="" clip-rule="evenodd" transform="matrix(1 0 0 1 0 0)" d="M268.672 395.993L295.4033 395.993L295.4033 395.993L295.4033 360.1352L295.4033 360.1352L268.672 360.1352z" /></clipPath><clipPath id="35"><path id="" clip-rule="evenodd" transform="matrix(1 0 0 1 0 0)" d="M268.672 395.993L295.4033 395.993L295.4033 395.993L295.4033 360.1352L295.4033 360.1352L268.672 360.1352z" /></clipPath><clipPath id="36"><path id="" clip-rule="evenodd" transform="matrix(1 0 0 1 0 0)" d="M171.726 395.993L197.3229 395.993L197.3229 395.993L197.3229 360.1352L197.3229 360.1352L171.726 360.1352z" /></clipPath><clipPath id="37"><path id="" clip-rule="evenodd" transform="matrix(1 0 0 1 0 0)" d="M171.726 395.993L197.3229 395.993L197.3229 395.993L197.3229 360.1352L197.3229 360.1352L171.726 360.1352z" /></clipPath></defs><g transform="matrix(1.333333 0 0 1.333333 0 0)"><g clip-path="url(#1)"><g clip-path="url(#2)"><path id="1" transform="matrix(1 0 0 -1 0 834)" d="M91.866 67.4211L562.134 67.4211L562.134 74.92501L91.866 74.92501z" stroke="none" fill="#686868" fill-rule="nonzero" /><path id="2" transform="matrix(1 0 0 -1 0 834)" d="M91.866 526.984L562.134 526.984" stroke="#686868" stroke-width="1" fill="none" /><path id="3" transform="matrix(1 0 0 -1 0 834)" d="M91.866 307.016L562.134 307.016" stroke="#686868" stroke-width="1" fill="none" /></g><g clip-path="url(#3)"></g><g clip-path="url(#4)"><g transform="matrix(1.00475 0 0 1.003028 215.389 125.382)"><g transform="matrix(1 0 0 1 0 0)"><image x="0" y="0" xlink:href="img_01.png" width="104" height="143" /></g></g></g><g clip-path="url(#5)"></g><g clip-path="url(#6)"><g transform="matrix(1.002375 -0.07172817 0.06646433 1.00065 182.3606 126.024)"><g transform="matrix(1 0 0 1 0 0)"><image x="0" y="0" xlink:href="img_02.png" width="104" height="143" /></g></g></g><g clip-path="url(#7)"></g><g clip-path="url(#8)"><g transform="matrix(1.00475 0 0 1.003028 156.731 123.327)"><g transform="matrix(1 0 0 1 0 0)"><image x="0" y="0" xlink:href="img_03.png" width="104" height="143" /></g></g></g><g clip-path="url(#9)"><path id="10" transform="matrix(1 0 0 -1 0 834)" d="M246.953 666.188C 244.641 666.188 242.767 664.243 242.767 661.844C 242.767 659.444 244.641 657.499 246.953 657.499C 249.265 657.499 251.139 659.444 251.139 661.844C 251.139 664.243 249.265 666.188 246.953 666.188M246.953 658.027C 244.935 658.027 243.299 659.725 243.299 661.82C 243.299 663.914 244.935 665.612 246.953 665.612C 248.971 665.612 250.607 663.914 250.607 661.82C 250.607 659.725 248.971 658.027 246.953 658.027" stroke="none" fill="#000000" fill-rule="nonzero" /><path id="12" transform="matrix(1 0 0 -1 0 834)" d="M215.159 665.001C 212.848 665.001 210.974 663.056 210.974 660.657C 210.974 658.257 212.848 656.312 215.159 656.312C 217.471 656.312 219.345 658.257 219.345 660.657C 219.345 663.056 217.471 665.001 215.159 665.001M215.159 656.84C 213.141 656.84 211.506 658.538 211.506 660.633C 211.506 662.727 213.141 664.425 215.159 664.425C 217.178 664.425 218.813 662.727 218.813 660.633C 218.813 658.538 217.178 656.84 215.159 656.84" stroke="none" fill="#000000" fill-rule="nonzero" /><path id="14" transform="matrix(1 0 0 -1 0 834)" d="M184.907 665.4951C 182.596 665.4951 180.721 663.549 180.721 661.15C 180.721 658.75 182.596 656.805 184.907 656.805C 187.219 656.805 189.093 658.75 189.093 661.15C 189.093 663.549 187.219 665.4951 184.907 665.4951M184.907 657.333C 182.889 657.333 181.254 659.031 181.254 661.126C 181.254 663.22 182.889 664.918 184.907 664.918C 186.925 664.918 188.561 663.22 188.561 661.126C 188.561 659.031 186.925 657.333 184.907 657.333" stroke="none" fill="#000000" fill-rule="nonzero" /></g><g clip-path="url(#10)"></g><g clip-path="url(#11)"><g transform="matrix(1.000922 0 0 0.9992661 223.545 566.453)"><g transform="matrix(1 0 0 1 0 0)"><image x="0" y="0" xlink:href="img_04.png" width="103" height="139" /></g></g></g><g clip-path="url(#12)"></g><g clip-path="url(#13)"><g transform="matrix(1.000922 0 0 0.9992661 191.906 567.602)"><g transform="matrix(1 0 0 1 0 0)"><image x="0" y="0" xlink:href="img_05.png" width="103" height="139" /></g></g></g><g clip-path="url(#14)"></g><g clip-path="url(#15)"><g transform="matrix(1.003069 0 0 0.9992661 155.781 563.963)"><g transform="matrix(1 0 0 1 0 0)"><image x="0" y="0" xlink:href="img_06.png" width="101" height="139" /></g></g></g><g clip-path="url(#16)"><path id="19" transform="matrix(1 0 0 -1 0 834)" d="M251.432 229.608C 249.118 229.608 247.242 227.795 247.242 225.558C 247.242 223.322 249.118 221.509 251.432 221.509C 253.746 221.509 255.621 223.322 255.621 225.558C 255.621 227.795 253.746 229.608 251.432 229.608M251.432 222.001C 249.412 222.001 247.775 223.584 247.775 225.536C 247.775 227.488 249.412 229.071 251.432 229.071C 253.452 229.071 255.089 227.488 255.089 225.536C 255.089 223.584 253.452 222.001 251.432 222.001" stroke="none" fill="#000000" fill-rule="nonzero" /><path id="21" transform="matrix(1 0 0 -1 0 834)" d="M218.657 228.502C 216.344 228.502 214.468 226.689 214.468 224.452C 214.468 222.216 216.344 220.403 218.657 220.403C 220.971 220.403 222.847 222.216 222.847 224.452C 222.847 226.689 220.971 228.502 218.657 228.502M218.657 220.895C 216.638 220.895 215 222.477 215 224.43C 215 226.382 216.638 227.964 218.657 227.964C 220.677 227.964 222.315 226.382 222.315 224.43C 222.315 222.477 220.677 220.895 218.657 220.895" stroke="none" fill="#000000" fill-rule="nonzero" /><path id="23" transform="matrix(1 0 0 -1 0 834)" d="M180.926 228.961C 178.612 228.961 176.736 227.148 176.736 224.912C 176.736 222.675 178.612 220.863 180.926 220.863C 183.239 220.863 185.116 222.675 185.116 224.912C 185.116 227.148 183.239 228.961 180.926 228.961M180.926 221.355C 178.906 221.355 177.268 222.937 177.268 224.889C 177.268 226.842 178.906 228.424 180.926 228.424C 182.946 228.424 184.583 226.842 184.583 224.889C 184.583 222.937 182.946 221.355 180.926 221.355" stroke="none" fill="#000000" fill-rule="nonzero" /></g><g clip-path="url(#17)"></g><g clip-path="url(#18)"><g transform="matrix(0.9979802 0 0 1.002285 182.814 346.295)"><g transform="matrix(1 0 0 1 0 0)"><image x="0" y="0" xlink:href="img_07.png" width="101" height="144" /></g></g></g><g clip-path="url(#19)"><g><g clip-path="url(#20)"><g clip-path="url(#21)"><path id="26" transform="matrix(1 0 0 -1 0 834)" d="M247.484 385.78L230.138 383.524" stroke="none" fill="#000000" fill-rule="nonzero" fill-opacity="0.8" /></g><g clip-path="url(#22)"><path id="27" transform="matrix(1 0 0 -1 0 834)" d="M245.1513 385.4764L232.4704 383.8274" stroke="#FFFFFF" stroke-width="0.7887044" fill="none" stroke-opacity="0.8" /></g><g clip-path="url(#23)"><path id="28" transform="matrix(1 0 0 -1 0 834)" d="M244.669 385.414L243.855 386.704L247.484 385.78L244.253 383.963z" stroke="none" fill="#FFFFFF" fill-rule="nonzero" fill-opacity="0.8" /><path id="29" transform="matrix(1 0 0 -1 0 834)" d="M230.138 383.523L233.369 385.339L232.953 383.889L233.766 382.599z" stroke="none" fill="#FFFFFF" fill-rule="nonzero" fill-opacity="0.8" /></g></g></g></g><g clip-path="url(#24)"><path id="30" transform="matrix(1 0 0 -1 0 834)" d="M260.975 368.396C 260.975 354.162 273.157 342.623 288.185 342.623C 303.213 342.623 315.395 354.162 315.395 368.396C 315.395 382.63 303.213 394.169 288.185 394.169C 273.157 394.169 260.975 382.63 260.975 368.396" stroke="none" fill="#FFFFFF" fill-rule="nonzero" /></g><g clip-path="url(#25)"></g><g clip-path="url(#26)"><g transform="matrix(0.9975536 0 0 0.9998667 243.468 386.417)"><g transform="matrix(1 0 0 1 0 0)"><image x="0" y="0" xlink:href="img_08.png" width="84" height="120" /></g></g></g><g clip-path="url(#27)"><path id="32" transform="matrix(1 0 0 -1 0 834)" d="M260.9742 368.3957C 260.9742 354.1626 273.157 342.6234 288.185 342.6234C 303.2129 342.6234 315.3957 354.1626 315.3957 368.3957C 315.3957 382.6298 303.2129 394.169 288.185 394.169C 273.157 394.169 260.9742 382.6298 260.9742 368.3957z" stroke="#000000" stroke-width="0.7887044" fill="none" /></g><g clip-path="url(#28)"></g><g clip-path="url(#29)"><g transform="matrix(1.011246 0 0 1.003297 355.736 331.0801)"><g transform="matrix(1 0 0 1 0 0)"><image x="0" y="0" xlink:href="img_09.png" width="37" height="57" /></g></g></g><g clip-path="url(#30)"></g><g clip-path="url(#31)"><g transform="matrix(0.9978667 0 0 1.001684 354.922 551.8193)"><g transform="matrix(1 0 0 1 0 0)"><image x="0" y="0" xlink:href="img_10.png" width="39" height="58" /></g></g></g><g clip-path="url(#32)"></g><g clip-path="url(#33)"><g transform="matrix(1.019686 0 0 0.9956161 355.271 112.4455)"><g transform="matrix(1 0 0 1 0 0)"><image x="0" y="0" xlink:href="img_11.png" width="36" height="56" /></g></g></g><g clip-path="url(#34)"></g><g clip-path="url(#35)"><g transform="matrix(-0.9918311 0 0 0.9967948 296.423 359.1228)"><g transform="matrix(1 0 0 1 0 0)"><image x="0" y="0" xlink:href="img_12.png" width="29" height="38" /></g></g></g><g clip-path="url(#36)"></g><g clip-path="url(#37)"><g transform="matrix(1.022789 0 0 0.9967948 170.71 359.1228)"><g transform="matrix(1 0 0 1 0 0)"><image x="0" y="0" xlink:href="img_13.png" width="27" height="38" /></g></g></g><path id="1052" transform="matrix(1 0 0 -1 0 834)" d="M633 15L633 0M633 819L633 834M21 15L21 0M21 819L21 834M639 21L654 21M15 21L0 21M639 813L654 813M15 813L0 813" stroke="#000000" stroke-width="1.25" fill="none" /><path id="1053" transform="matrix(1 0 0 -1 0 834)" d="M633 15L633 0M633 819L633 834M21 15L21 0M21 819L21 834M639 21L654 21M15 21L0 21M639 813L654 813M15 813L0 813" stroke="#000000" stroke-width="0.25" fill="none" /><path id="1054" transform="matrix(1 0 0 -1 0 834)" d="M32.2781 9.28203C 32.2781 9.516021 32.2961 9.58203 32.3559 9.62383C 32.416 9.66602 32.5719 9.69609 32.8238 9.69609C 33.2262 9.69609 33.5738 9.62383 33.8441 9.45C 34.3238 9.167971 34.552 8.63398 34.552 8.016021C 34.552 7.05586 34.0359 6.21602 32.9141 6.21602C 32.4762 6.21602 32.2781 6.33008 32.2781 6.78594zM31.252 9.900001L31.252 9.726171C 31.7141 9.68984 31.7621 9.66602 31.7621 9.150001L31.7621 9.150001L31.7621 6.74414C 31.7621 6.23398 31.7141 6.19805 31.198 6.16211L31.198 6.16211L31.198 6L31.198 6L32.6199 6C 33.3578 6 33.952 6.15 34.402 6.49805C 34.8641 6.84609 35.1398 7.38008 35.1398 8.1C 35.1398 8.664061 34.9301 9.101951 34.6359 9.38984C 34.2641 9.74414 33.7 9.900001 32.9379 9.900001z" stroke="#000000" stroke-width="0.4" fill="none" /><path id="1055" transform="matrix(1 0 0 -1 0 834)" d="M38.3801 6.97813C 38.2898 6.70195 38.1758 6.51016 38.0738 6.38984C 37.9359 6.23398 37.732 6.20391 37.402 6.20391C 37.15 6.20391 36.9461 6.21602 36.8258 6.28203C 36.718 6.34219 36.6879 6.46211 36.6879 6.78594L36.6879 6.78594L36.6879 9.15586C 36.6879 9.66602 36.7418 9.69609 37.216 9.73203L37.216 9.73203L37.216 9.900001L37.216 9.900001L35.65 9.900001L35.65 9.900001L35.65 9.73203C 36.1359 9.69609 36.1777 9.66602 36.1777 9.15586L36.1777 9.15586L36.1777 6.75586C 36.1777 6.24609 36.1301 6.20391 35.6258 6.16797L35.6258 6.16797L35.6258 6L35.6258 6L38.3438 6C 38.398 6.18594 38.5238 6.75586 38.5598 6.94219z" stroke="#000000" stroke-width="0.4" fill="none" /><path id="1056" transform="matrix(1 0 0 -1 0 834)" d="M41.0918 9.023829C 41.0438 9.40195 41.0141 9.63594 40.9898 9.851951C 40.7617 9.92383 40.5098 9.989841 40.234 9.989841C 39.4598 9.989841 38.998 9.49805 38.998 8.921881C 38.998 8.24414 39.6039 7.94414 39.9879 7.73984C 40.4379 7.5 40.768 7.28984 40.768 6.84609C 40.768 6.40781 40.498 6.12617 40.048 6.12617C 39.4301 6.12617 39.1598 6.73203 39.0641 7.09805L39.0641 7.09805L38.8898 7.05586C 38.9258 6.767971 39.0039 6.25195 39.052 6.12617C 39.1059 6.09609 39.1961 6.05391 39.3461 6C 39.4961 5.95781 39.6879 5.91016 39.934 5.91016C 40.732 5.91016 41.266 6.41406 41.266 7.04414C 41.266 7.71602 40.6961 7.99805 40.2277 8.23789C 39.7539 8.48398 39.466 8.68789 39.466 9.12617C 39.466 9.45 39.6699 9.78594 40.132 9.78594C 40.6539 9.78594 40.8098 9.371881 40.918 8.98789z" stroke="#000000" stroke-width="0.4" fill="none" /><path id="1057" transform="matrix(1 0 0 -1 0 834)" d="M46.648 6L46.648 6.16797C 46.1258 6.21602 46.1078 6.24609 46.0898 6.88203L46.0898 6.88203L46.0301 9.05391C 46.0117 9.671881 46.0539 9.68398 46.582 9.73203L46.582 9.73203L46.582 9.900001L46.582 9.900001L45.5617 9.900001L45.5617 9.900001L44.1758 6.9L44.1758 6.9L42.8078 9.900001L42.8078 9.900001L41.8238 9.900001L41.8238 9.900001L41.8238 9.73203C 42.3699 9.67813 42.4 9.653911 42.3461 8.87383L42.3461 8.87383L42.2617 7.626171C 42.2141 7.00195 42.1777 6.73789 42.148 6.528131C 42.1059 6.27617 41.9859 6.21016 41.6379 6.16797L41.6379 6.16797L41.6379 6L41.6379 6L43.0359 6L43.0359 6L43.0359 6.16797C 42.6398 6.21016 42.4961 6.25195 42.484 6.53984C 42.4777 6.78008 42.4777 7.04414 42.502 7.53594L42.502 7.53594L42.5918 9.24609L42.5918 9.24609L42.6039 9.24609L42.6039 9.24609L43.948 6.04219L43.948 6.04219L44.068 6.04219L44.068 6.04219L45.532 9.33008L45.532 9.33008L45.5559 9.33008L45.5559 9.33008L45.5738 6.88203C 45.5801 6.24609 45.5559 6.21602 45.0699 6.16797L45.0699 6.16797L45.0699 6z" stroke="#000000" stroke-width="0.4" fill="none" /><path id="1058" transform="matrix(1 0 0 -1 0 834)" d="M51.8738 7.05586C 51.5738 6.45586 51.2496 6.12617 50.6379 6.12617C 49.7258 6.12617 49.0656 6.89414 49.0656 8.016021C 49.0656 8.92813 49.5996 9.773829 50.602 9.773829C 51.2496 9.773829 51.6098 9.516021 51.7656 8.88008L51.7656 8.88008L51.9457 8.921881C 51.9098 9.24609 51.8738 9.48594 51.8258 9.828131C 51.6578 9.85781 51.2496 9.989841 50.7637 9.989841C 49.4258 9.989841 48.4539 9.15586 48.4539 7.89609C 48.4539 6.94219 49.1078 5.91016 50.602 5.91016C 51.034 5.91016 51.5379 6.03008 51.7059 6.07188C 51.8137 6.26992 51.9637 6.71406 52.0477 6.98984z" stroke="#000000" stroke-width="0.4" fill="none" /><path id="1059" transform="matrix(1 0 0 -1 0 834)" d="M54.3398 9.773829C 55.1258 9.773829 55.7855 9.101951 55.7855 7.83594C 55.7855 6.68398 55.1855 6.12617 54.5195 6.12617C 53.6738 6.12617 53.0559 6.94805 53.0559 8.076171C 53.0559 9.19805 53.6676 9.773829 54.3398 9.773829zM54.4598 9.989841C 53.1996 9.989841 52.4438 8.98789 52.4438 7.90781C 52.4438 6.75586 53.3078 5.91016 54.3938 5.91016C 55.4918 5.91016 56.3977 6.70195 56.3977 7.99805C 56.3977 9.19805 55.4797 9.989841 54.4598 9.989841z" stroke="#000000" stroke-width="0.4" fill="none" /><path id="1060" transform="matrix(1 0 0 -1 0 834)" d="M61.8277 6L61.8277 6.16797C 61.3059 6.21602 61.2879 6.24609 61.2695 6.88203L61.2695 6.88203L61.2098 9.05391C 61.1918 9.671881 61.2336 9.68398 61.7617 9.73203L61.7617 9.73203L61.7617 9.900001L61.7617 9.900001L60.7418 9.900001L60.7418 9.900001L59.3559 6.9L59.3559 6.9L57.9879 9.900001L57.9879 9.900001L57.0035 9.900001L57.0035 9.900001L57.0035 9.73203C 57.5496 9.67813 57.5797 9.653911 57.5258 8.87383L57.5258 8.87383L57.4418 7.626171C 57.3938 7.00195 57.3578 6.73789 57.3277 6.528131C 57.2855 6.27617 57.1656 6.21016 56.8176 6.16797L56.8176 6.16797L56.8176 6L56.8176 6L58.2156 6L58.2156 6L58.2156 6.16797C 57.8195 6.21016 57.6758 6.25195 57.6637 6.53984C 57.6578 6.78008 57.6578 7.04414 57.6816 7.53594L57.6816 7.53594L57.7719 9.24609L57.7719 9.24609L57.7836 9.24609L57.7836 9.24609L59.1277 6.04219L59.1277 6.04219L59.2477 6.04219L59.2477 6.04219L60.7117 9.33008L60.7117 9.33008L60.7355 9.33008L60.7355 9.33008L60.7535 6.88203C 60.7598 6.24609 60.7355 6.21602 60.2496 6.16797L60.2496 6.16797L60.2496 6z" stroke="#000000" stroke-width="0.4" fill="none" /><path id="1061" transform="matrix(1 0 0 -1 0 834)" d="M63.8258 6L63.8258 6.16797C 63.3336 6.20391 63.2855 6.23398 63.2855 6.75L63.2855 6.75L63.2855 9.150001C 63.2855 9.66016 63.3336 9.69609 63.8258 9.73203L63.8258 9.73203L63.8258 9.900001L63.8258 9.900001L62.2355 9.900001L62.2355 9.900001L62.2355 9.73203C 62.7277 9.69609 62.7758 9.66016 62.7758 9.150001L62.7758 9.150001L62.7758 6.75C 62.7758 6.23984 62.7277 6.20391 62.2355 6.16797L62.2355 6.16797L62.2355 6z" stroke="#000000" stroke-width="0.4" fill="none" /><path id="1062" transform="matrix(1 0 0 -1 0 834)" d="M66.5074 9.023829C 66.4598 9.40195 66.4297 9.63594 66.4055 9.851951C 66.1777 9.92383 65.9258 9.989841 65.6496 9.989841C 64.8758 9.989841 64.4137 9.49805 64.4137 8.921881C 64.4137 8.24414 65.0195 7.94414 65.4035 7.73984C 65.8535 7.5 66.1836 7.28984 66.1836 6.84609C 66.1836 6.40781 65.9137 6.12617 65.46371 6.12617C 64.8457 6.12617 64.5758 6.73203 64.4797 7.09805L64.4797 7.09805L64.3055 7.05586C 64.3418 6.767971 64.4195 6.25195 64.46761 6.12617C 64.52151 6.09609 64.6117 6.05391 64.7617 6C 64.91171 5.95781 65.1035 5.91016 65.3496 5.91016C 66.1477 5.91016 66.6816 6.41406 66.6816 7.04414C 66.6816 7.71602 66.1117 7.99805 65.6438 8.23789C 65.1695 8.48398 64.8816 8.68789 64.8816 9.12617C 64.8816 9.45 65.0855 9.78594 65.5477 9.78594C 66.0695 9.78594 66.2258 9.371881 66.3336 8.98789z" stroke="#000000" stroke-width="0.4" fill="none" /><path id="1063" transform="matrix(1 0 0 -1 0 834)" d="M69.4055 7.68008L68.3016 7.68008C 68.4816 8.171881 68.6734 8.69414 68.8656 9.21016L68.8656 9.21016L68.8777 9.21016zM70.9355 6L70.9355 6.16797C 70.5457 6.20391 70.46761 6.25781 70.2758 6.77383C 69.89181 7.81797 69.4895 8.95781 69.11761 9.989841L69.11761 9.989841L68.9316 9.93594L68.9316 9.93594L67.68951 6.78594C 67.4797 6.25781 67.3957 6.22188 67.0176 6.16797L67.0176 6.16797L67.0176 6L67.0176 6L68.3195 6L68.3195 6L68.3195 6.16797C 67.8695 6.21016 67.81561 6.26992 67.9477 6.64805C 68.0258 6.9 68.1156 7.15195 68.2117 7.42188L68.2117 7.42188L69.4895 7.42188C 69.62151 7.05586 69.74181 6.73203 69.8195 6.49805C 69.8977 6.26406 69.8438 6.21602 69.4656 6.16797L69.4656 6.16797L69.4656 6z" stroke="#000000" stroke-width="0.4" fill="none" /><path id="1064" transform="matrix(1 0 0 -1 0 834)" d="M71.7273 5.92813C 71.9195 5.92813 72.06371 6.06602 72.06371 6.27617C 72.06371 6.46797 71.9195 6.61797 71.7273 6.61797C 71.5355 6.61797 71.3914 6.46797 71.3914 6.27617C 71.3914 6.06602 71.5355 5.92813 71.7273 5.92813z" stroke="#000000" stroke-width="0.4" fill="none" /><path id="1065" transform="matrix(1 0 0 -1 0 834)" d="M73.9234 6L73.9234 6.15586C 73.53951 6.19219 73.4977 6.22813 73.4977 6.63594L73.4977 6.63594L73.4977 8.70586C 73.2336 8.59805 72.9516 8.51992 72.6453 8.471881L72.6453 8.471881L72.6453 8.328131C 73.0055 8.26797 73.0234 8.24414 73.0234 7.871881L73.0234 7.871881L73.0234 6.63594C 73.0234 6.22813 72.9816 6.19219 72.6035 6.15586L72.6035 6.15586L72.6035 6zM73.2215 9.216021C 73.3953 9.216021 73.52731 9.36016 73.52731 9.52188C 73.52731 9.70195 73.3953 9.83398 73.2273 9.83398C 73.06561 9.83398 72.9215 9.70195 72.9215 9.52188C 72.9215 9.36016 73.06561 9.216021 73.2215 9.216021z" stroke="#000000" stroke-width="0.4" fill="none" /><path id="1066" transform="matrix(1 0 0 -1 0 834)" d="M77.1574 6L77.1574 6.15586C 76.8094 6.19219 76.7793 6.21602 76.7793 6.62383L76.7793 6.62383L76.7793 7.78203C 76.7793 8.36406 76.4793 8.69414 76.0055 8.69414C 75.8313 8.69414 75.67541 8.621881 75.5074 8.51406C 75.3574 8.41211 75.2254 8.32188 75.1055 8.23203L75.1055 8.23203L75.1055 8.712111C 74.8414 8.59219 74.5594 8.51992 74.27151 8.466021L74.27151 8.466021L74.27151 8.328131C 74.5953 8.26797 74.6313 8.25 74.6313 7.86602L74.6313 7.86602L74.6313 6.62383C 74.6313 6.22813 74.6016 6.19805 74.19341 6.15586L74.19341 6.15586L74.19341 6L74.19341 6L75.4953 6L75.4953 6L75.4953 6.15586C 75.1414 6.19219 75.1055 6.21602 75.1055 6.62383L75.1055 6.62383L75.1055 8.03398C 75.2855 8.18984 75.5195 8.33984 75.7594 8.33984C 76.1613 8.33984 76.3055 8.069921 76.3055 7.65586L76.3055 7.65586L76.3055 6.65391C 76.3055 6.23984 76.2633 6.19219 75.9094 6.15586L75.9094 6.15586L75.9094 6z" stroke="#000000" stroke-width="0.4" fill="none" /><path id="1067" transform="matrix(1 0 0 -1 0 834)" d="M79.4734 6.51016C 79.32931 6.40195 79.1133 6.30586 78.8973 6.30586C 78.5133 6.30586 78.0754 6.65391 78.0754 7.36797C 78.0754 8.23789 78.57931 8.471881 78.8555 8.471881C 79.0832 8.471881 79.32931 8.37617 79.4734 8.16602zM80.4035 6.30586L80.2113 6.32383C 79.9895 6.34805 79.9473 6.37813 79.9473 6.68984L79.9473 6.68984L79.9473 10.2719C 79.7254 10.1941 79.3234 10.1039 79.0113 10.0621L79.0113 10.0621L79.0113 9.917971C 79.44341 9.88789 79.4734 9.869921 79.4734 9.47383L79.4734 9.47383L79.4734 8.628131C 79.3355 8.67617 79.1613 8.69414 79.0773 8.69414C 78.2613 8.69414 77.5293 8.03984 77.5293 7.20586C 77.5293 6.36602 78.1594 5.92813 78.6395 5.92813C 78.7113 5.92813 78.87341 5.96406 79.1074 6.10195L79.1074 6.10195L79.4734 6.31797L79.4734 6.31797L79.4734 5.92813C 79.8215 6.05391 80.27151 6.13203 80.4035 6.15586z" stroke="#000000" stroke-width="0.4" fill="none" /><path id="1068" transform="matrix(1 0 0 -1 0 834)" d="M81.3813 8.24414C 81.4895 8.310161 81.6813 8.35781 81.84921 8.35781C 82.34731 8.35781 82.7676 7.96211 82.7676 7.278131C 82.7676 6.58203 82.4492 6.15586 81.9516 6.15586C 81.6336 6.16211 81.4535 6.37188 81.4176 6.49219C 81.3934 6.54609 81.3813 6.60586 81.3813 6.69609zM81.3813 8.42383L81.3813 10.2719C 81.1594 10.1941 80.7934 10.098 80.5113 10.0621L80.5113 10.0621L80.5113 9.92383C 80.8953 9.88789 80.9074 9.851951 80.9074 9.48008L80.9074 9.48008L80.9074 6.14414C 81.2375 5.98789 81.5434 5.92813 81.78951 5.92813C 82.59341 5.92813 83.2953 6.55195 83.2953 7.43398C 83.2953 8.14219 82.7555 8.69414 82.1133 8.69414C 82.0473 8.69414 81.9633 8.67617 81.86761 8.63398z" stroke="#000000" stroke-width="0.4" fill="none" /><path id="1069" transform="matrix(1 0 0 -1 0 834)" d="M88.1133 8.976171C 88.2633 9.19805 88.50311 9.45 88.8332 9.45C 89.15121 9.45 89.4031 9.257811 89.4031 8.88594C 89.4031 8.44219 88.9953 8.20781 88.44341 8.03398L88.44341 8.03398L88.4852 7.86016C 88.5813 7.88984 88.7254 7.92617 88.8691 7.92617C 89.2113 7.92617 89.6313 7.70391 89.6313 7.15195C 89.6313 6.55781 89.3313 6.23984 88.90511 6.23984C 88.5633 6.23984 88.3172 6.40781 88.1613 6.54609C 88.1133 6.58789 88.0652 6.58203 88.0172 6.54609C 87.9633 6.50391 87.8852 6.42617 87.8793 6.34805C 87.8672 6.27617 87.891 6.21016 87.9754 6.13203C 88.0531 6.06016 88.2992 5.92813 88.5754 5.92813C 89.007 5.92813 90.1473 6.37188 90.1473 7.34414C 90.1473 7.78203 89.841 8.153911 89.3133 8.25586L89.3133 8.25586L89.3133 8.26797C 89.4871 8.38789 89.6313 8.49609 89.7211 8.59219C 89.8352 8.70586 89.90701 8.84414 89.90701 9.01797C 89.90701 9.47383 89.5531 9.810161 89.0133 9.810161C 88.6953 9.810161 88.4191 9.66016 88.25121 9.47383L88.25121 9.47383L87.9871 9.09609z" stroke="#000000" stroke-width="0.4" fill="none" /><path id="1070" transform="matrix(1 0 0 -1 0 834)" d="M91.3953 9.3L92.7934 9.3L92.7934 9.3L92.9492 9.68984L92.9492 9.68984L92.9133 9.73789L92.9133 9.73789L91.2031 9.73789L91.2031 9.73789L90.9691 7.90781C 91.107 7.96211 91.3352 8.028131 91.5871 8.028131C 92.241 8.028131 92.5652 7.65 92.5652 7.121881C 92.5652 6.67188 92.3133 6.23398 91.8031 6.23398C 91.4371 6.23398 91.191 6.42617 91.0652 6.53984C 91.0051 6.58789 90.957 6.58203 90.9031 6.53984C 90.8371 6.48008 90.7832 6.40195 90.77731 6.34219C 90.7652 6.26992 90.7953 6.22188 90.873 6.13789C 90.9633 6.05391 91.2152 5.92813 91.491 5.92813C 91.8094 5.93398 92.2113 6.08984 92.5352 6.35391C 92.90121 6.65391 93.0691 6.99609 93.0691 7.35586C 93.0691 7.84805 92.67931 8.369921 91.9113 8.369921C 91.7492 8.369921 91.4672 8.273829 91.2391 8.18984z" stroke="#000000" stroke-width="0.4" fill="none" /><path id="1071" transform="matrix(1 0 0 -1 0 834)" d="M94.8453 6.11992C 94.4672 6.11992 94.1133 6.42617 94.1133 6.97813C 94.1133 7.30781 94.3172 7.60781 94.6051 7.8C 95.0672 7.56602 95.4934 7.30781 95.4934 6.85781C 95.4934 6.39609 95.2113 6.11992 94.8453 6.11992zM94.791 9.61797C 95.0672 9.61797 95.3793 9.396091 95.3793 8.89219C 95.3793 8.53203 95.2172 8.310161 95.0133 8.14805C 94.5871 8.35781 94.2332 8.555861 94.2332 9C 94.2332 9.305861 94.4371 9.61797 94.791 9.61797zM94.8512 9.810161C 94.2094 9.810161 93.7832 9.33008 93.7832 8.826171C 93.7832 8.40586 94.041 8.11797 94.4313 7.89609C 94.2273 7.76406 93.9992 7.60195 93.9031 7.51211C 93.7711 7.38594 93.6332 7.21797 93.6332 6.94219C 93.6332 6.3 94.1434 5.92813 94.7852 5.92813C 95.2953 5.92813 95.973 6.31211 95.973 7.01406C 95.973 7.53594 95.5953 7.82383 95.1813 8.057811C 95.4512 8.24414 95.6133 8.38789 95.65511 8.44219C 95.7691 8.57383 95.82931 8.74805 95.82931 8.921881C 95.82931 9.40781 95.4211 9.810161 94.8512 9.810161z" stroke="#000000" stroke-width="0.4" fill="none" /><path id="1090" transform="matrix(1 0 0 -1 0 834)" d="M554.472 6.83984C 554.292 6.46211 554.2141 6.43789 553.89 6.43789L553.89 6.43789L552.768 6.43789L552.768 6.43789L553.6201 7.33203C 554.1721 7.91992 554.412 8.273829 554.412 8.79609C 554.412 9.42617 553.932 9.810161 553.404 9.810161C 553.056 9.810161 552.774 9.653911 552.594 9.45586L552.594 9.45586L552.252 8.96992L552.252 8.96992L552.384 8.85C 552.54 9.08398 552.792 9.40781 553.2 9.40781C 553.644 9.40781 553.908 9.11406 553.908 8.61016C 553.908 8.09414 553.53 7.60195 553.158 7.15781C 552.858 6.81016 552.522 6.46797 552.186 6.13789L552.186 6.13789L552.186 6L552.186 6L554.43 6C 554.502 6.26992 554.562 6.53398 554.64 6.78594z" stroke="#000000" stroke-width="0.4" fill="none" /><path id="1091" transform="matrix(1 0 0 -1 0 834)" d="M555.792 9.3L557.19 9.3L557.19 9.3L557.346 9.68984L557.346 9.68984L557.31 9.73789L557.31 9.73789L555.6 9.73789L555.6 9.73789L555.366 7.90781C 555.504 7.96211 555.732 8.028131 555.984 8.028131C 556.638 8.028131 556.962 7.65 556.962 7.121881C 556.962 6.67188 556.71 6.23398 556.2 6.23398C 555.834 6.23398 555.588 6.42617 555.462 6.53984C 555.402 6.58789 555.354 6.58203 555.3 6.53984C 555.234 6.48008 555.18 6.40195 555.174 6.34219C 555.162 6.26992 555.192 6.22188 555.27 6.13789C 555.36 6.05391 555.612 5.92813 555.888 5.92813C 556.206 5.93398 556.608 6.08984 556.932 6.35391C 557.298 6.65391 557.466 6.99609 557.466 7.35586C 557.466 7.84805 557.076 8.369921 556.308 8.369921C 556.146 8.369921 555.864 8.273829 555.636 8.18984z" stroke="#000000" stroke-width="0.4" fill="none" /><path id="1092" transform="matrix(1 0 0 -1 0 834)" d="M559.548 9.989841L559.212 9.989841L559.212 9.989841L557.91 5.73594L557.91 5.73594L558.246 5.73594z" stroke="#000000" stroke-width="0.4" fill="none" /><path id="1093" transform="matrix(1 0 0 -1 0 834)" d="M561.18 9.61211C 561.72 9.61211 561.8701 8.72383 561.8701 7.871881C 561.8701 7.03203 561.726 6.13203 561.186 6.13203C 560.664 6.13203 560.49 7.03789 560.49 7.87813C 560.49 8.712111 560.634 9.61211 561.18 9.61211zM561.186 9.810161C 560.286 9.810161 559.956 8.74219 559.956 7.86602C 559.956 6.91797 560.28 5.92813 561.186 5.92813C 562.086 5.92813 562.404 6.99609 562.404 7.871881C 562.404 8.79609 562.086 9.810161 561.186 9.810161z" stroke="#000000" stroke-width="0.4" fill="none" /><path id="1094" transform="matrix(1 0 0 -1 0 834)" d="M564 9.61211C 564.582 9.61211 564.738 8.86797 564.738 8.33984C 564.738 8.21992 564.732 8.076171 564.7141 7.94414C 564.588 7.84805 564.384 7.77617 564.174 7.77617C 563.67 7.77617 563.3701 8.214061 563.3701 8.74219C 563.3701 9.09609 563.538 9.61211 564 9.61211zM564.078 9.810161C 563.304 9.810161 562.854 9.10781 562.854 8.53203C 562.854 7.90195 563.292 7.43398 563.928 7.43398C 564.042 7.43398 564.156 7.45781 564.288 7.53008L564.288 7.53008L564.69 7.74609C 564.492 6.83398 563.838 6.23398 562.98 6.08984L562.98 6.08984L563.01 5.91016C 563.16 5.91016 563.526 5.96992 563.85 6.10195C 564.66 6.42617 565.2661 7.20586 565.2661 8.310161C 565.2661 9.12617 564.828 9.810161 564.078 9.810161z" stroke="#000000" stroke-width="0.4" fill="none" /><path id="1095" transform="matrix(1 0 0 -1 0 834)" d="M567.294 9.989841L566.958 9.989841L566.958 9.989841L565.656 5.73594L565.656 5.73594L565.992 5.73594z" stroke="#000000" stroke-width="0.4" fill="none" /><path id="1096" transform="matrix(1 0 0 -1 0 834)" d="M569.9641 6.83984C 569.784 6.46211 569.706 6.43789 569.382 6.43789L569.382 6.43789L568.26 6.43789L568.26 6.43789L569.112 7.33203C 569.664 7.91992 569.904 8.273829 569.904 8.79609C 569.904 9.42617 569.424 9.810161 568.896 9.810161C 568.548 9.810161 568.2661 9.653911 568.086 9.45586L568.086 9.45586L567.744 8.96992L567.744 8.96992L567.876 8.85C 568.032 9.08398 568.284 9.40781 568.692 9.40781C 569.136 9.40781 569.4 9.11406 569.4 8.61016C 569.4 8.09414 569.022 7.60195 568.65 7.15781C 568.35 6.81016 568.014 6.46797 567.678 6.13789L567.678 6.13789L567.678 6L567.678 6L569.9221 6C 569.994 6.26992 570.054 6.53398 570.132 6.78594z" stroke="#000000" stroke-width="0.4" fill="none" /><path id="1097" transform="matrix(1 0 0 -1 0 834)" d="M571.806 9.61211C 572.346 9.61211 572.496 8.72383 572.496 7.871881C 572.496 7.03203 572.352 6.13203 571.812 6.13203C 571.29 6.13203 571.116 7.03789 571.116 7.87813C 571.116 8.712111 571.26 9.61211 571.806 9.61211zM571.812 9.810161C 570.912 9.810161 570.582 8.74219 570.582 7.86602C 570.582 6.91797 570.906 5.92813 571.812 5.92813C 572.712 5.92813 573.03 6.99609 573.03 7.871881C 573.03 8.79609 572.712 9.810161 571.812 9.810161z" stroke="#000000" stroke-width="0.4" fill="none" /><path id="1098" transform="matrix(1 0 0 -1 0 834)" d="M575.556 6L575.556 6.16211C 575.01 6.20391 574.9741 6.25195 574.9741 6.68398L574.9741 6.68398L574.9741 9.810161C 574.644 9.67813 574.29 9.56406 573.906 9.49805L573.906 9.49805L573.906 9.36016L573.906 9.36016L574.194 9.34805C 574.458 9.33594 574.482 9.305861 574.482 8.99414L574.482 8.99414L574.482 6.68398C 574.482 6.25195 574.452 6.20391 573.906 6.16211L573.906 6.16211L573.906 6z" stroke="#000000" stroke-width="0.4" fill="none" /><path id="1099" transform="matrix(1 0 0 -1 0 834)" d="M578.814 9.73789L576.522 9.73789C 576.498 9.48008 576.468 9.180079 576.414 8.85L576.414 8.85L576.588 8.85C 576.732 9.24609 576.768 9.3 577.164 9.3L577.164 9.3L578.46 9.3C 577.986 8.25586 577.308 7.01406 576.678 5.99414L576.678 5.99414L576.72 5.92813L576.72 5.92813L577.164 5.98789C 577.74 7.22383 578.298 8.44805 578.862 9.66602z" stroke="#000000" stroke-width="0.4" fill="none" /><path id="1100" transform="matrix(1 0 0 -1 0 834)" d="M584.531 9.61211C 585.071 9.61211 585.221 8.72383 585.221 7.871881C 585.221 7.03203 585.077 6.13203 584.537 6.13203C 584.015 6.13203 583.841 7.03789 583.841 7.87813C 583.841 8.712111 583.985 9.61211 584.531 9.61211zM584.537 9.810161C 583.637 9.810161 583.307 8.74219 583.307 7.86602C 583.307 6.91797 583.631 5.92813 584.537 5.92813C 585.437 5.92813 585.755 6.99609 585.755 7.871881C 585.755 8.79609 585.437 9.810161 584.537 9.810161z" stroke="#000000" stroke-width="0.4" fill="none" /><path id="1101" transform="matrix(1 0 0 -1 0 834)" d="M588.449 6.83984C 588.269 6.46211 588.191 6.43789 587.867 6.43789L587.867 6.43789L586.7451 6.43789L586.7451 6.43789L587.597 7.33203C 588.149 7.91992 588.389 8.273829 588.389 8.79609C 588.389 9.42617 587.909 9.810161 587.381 9.810161C 587.033 9.810161 586.751 9.653911 586.571 9.45586L586.571 9.45586L586.229 8.96992L586.229 8.96992L586.361 8.85C 586.517 9.08398 586.769 9.40781 587.177 9.40781C 587.621 9.40781 587.885 9.11406 587.885 8.61016C 587.885 8.09414 587.507 7.60195 587.135 7.15781C 586.835 6.81016 586.499 6.46797 586.163 6.13789L586.163 6.13789L586.163 6L586.163 6L588.407 6C 588.479 6.26992 588.539 6.53398 588.617 6.78594z" stroke="#000000" stroke-width="0.4" fill="none" /><path id="1102" transform="matrix(1 0 0 -1 0 834)" d="M589.5471 5.92813C 589.739 5.92813 589.883 6.06602 589.883 6.27617C 589.883 6.46797 589.739 6.61797 589.5471 6.61797C 589.355 6.61797 589.211 6.46797 589.211 6.27617C 589.211 6.06602 589.355 5.92813 589.5471 5.92813zM589.541 8.466021C 589.3491 8.466021 589.211 8.328131 589.211 8.13008C 589.211 7.92617 589.3491 7.78203 589.541 7.78203C 589.733 7.78203 589.877 7.92617 589.877 8.13008C 589.877 8.328131 589.733 8.466021 589.541 8.466021z" stroke="#000000" stroke-width="0.4" fill="none" /><path id="1103" transform="matrix(1 0 0 -1 0 834)" d="M591.905 7.35L590.723 7.35C 591.119 8.016021 591.509 8.58594 591.893 9.119921L591.893 9.119921L591.905 9.119921zM592.961 7.06797L592.961 7.35L592.961 7.35L592.385 7.35L592.385 7.35L592.385 9.79219L592.385 9.79219L592.145 9.79219C 591.527 8.976171 590.915 8.08789 590.345 7.23594L590.345 7.23594L590.345 7.06797L590.345 7.06797L591.905 7.06797L591.905 7.06797L591.905 6.63594C 591.905 6.23984 591.881 6.20391 591.359 6.16211L591.359 6.16211L591.359 6L591.359 6L592.895 6L592.895 6L592.895 6.16211C 592.409 6.20391 592.385 6.23398 592.385 6.63594L592.385 6.63594L592.385 7.06797z" stroke="#000000" stroke-width="0.4" fill="none" /><path id="1104" transform="matrix(1 0 0 -1 0 834)" d="M594.587 6.11992C 594.209 6.11992 593.855 6.42617 593.855 6.97813C 593.855 7.30781 594.059 7.60781 594.347 7.8C 594.809 7.56602 595.235 7.30781 595.235 6.85781C 595.235 6.39609 594.953 6.11992 594.587 6.11992zM594.533 9.61797C 594.809 9.61797 595.121 9.396091 595.121 8.89219C 595.121 8.53203 594.959 8.310161 594.755 8.14805C 594.329 8.35781 593.975 8.555861 593.975 9C 593.975 9.305861 594.179 9.61797 594.533 9.61797zM594.593 9.810161C 593.951 9.810161 593.525 9.33008 593.525 8.826171C 593.525 8.40586 593.783 8.11797 594.173 7.89609C 593.969 7.76406 593.741 7.60195 593.645 7.51211C 593.513 7.38594 593.375 7.21797 593.375 6.94219C 593.375 6.3 593.885 5.92813 594.527 5.92813C 595.037 5.92813 595.715 6.31211 595.715 7.01406C 595.715 7.53594 595.337 7.82383 594.923 8.057811C 595.1931 8.24414 595.355 8.38789 595.397 8.44219C 595.511 8.57383 595.571 8.74805 595.571 8.921881C 595.571 9.40781 595.163 9.810161 594.593 9.810161z" stroke="#000000" stroke-width="0.4" fill="none" /><path id="1105" transform="matrix(1 0 0 -1 0 834)" d="M596.675 5.92813C 596.867 5.92813 597.011 6.06602 597.011 6.27617C 597.011 6.46797 596.867 6.61797 596.675 6.61797C 596.483 6.61797 596.3391 6.46797 596.3391 6.27617C 596.3391 6.06602 596.483 5.92813 596.675 5.92813zM596.669 8.466021C 596.477 8.466021 596.3391 8.328131 596.3391 8.13008C 596.3391 7.92617 596.477 7.78203 596.669 7.78203C 596.861 7.78203 597.005 7.92617 597.005 8.13008C 597.005 8.328131 596.861 8.466021 596.669 8.466021z" stroke="#000000" stroke-width="0.4" fill="none" /><path id="1106" transform="matrix(1 0 0 -1 0 834)" d="M598.265 9.3L599.663 9.3L599.663 9.3L599.819 9.68984L599.819 9.68984L599.783 9.73789L599.783 9.73789L598.073 9.73789L598.073 9.73789L597.8391 7.90781C 597.977 7.96211 598.205 8.028131 598.457 8.028131C 599.111 8.028131 599.435 7.65 599.435 7.121881C 599.435 6.67188 599.183 6.23398 598.673 6.23398C 598.307 6.23398 598.061 6.42617 597.935 6.53984C 597.875 6.58789 597.827 6.58203 597.773 6.53984C 597.707 6.48008 597.653 6.40195 597.647 6.34219C 597.635 6.26992 597.665 6.22188 597.743 6.13789C 597.833 6.05391 598.085 5.92813 598.361 5.92813C 598.679 5.93398 599.081 6.08984 599.405 6.35391C 599.771 6.65391 599.939 6.99609 599.939 7.35586C 599.939 7.84805 599.549 8.369921 598.781 8.369921C 598.619 8.369921 598.337 8.273829 598.109 8.18984z" stroke="#000000" stroke-width="0.4" fill="none" /><path id="1107" transform="matrix(1 0 0 -1 0 834)" d="M601.715 6.11992C 601.337 6.11992 600.983 6.42617 600.983 6.97813C 600.983 7.30781 601.187 7.60781 601.475 7.8C 601.937 7.56602 602.363 7.30781 602.363 6.85781C 602.363 6.39609 602.081 6.11992 601.715 6.11992zM601.661 9.61797C 601.937 9.61797 602.249 9.396091 602.249 8.89219C 602.249 8.53203 602.087 8.310161 601.883 8.14805C 601.457 8.35781 601.103 8.555861 601.103 9C 601.103 9.305861 601.307 9.61797 601.661 9.61797zM601.721 9.810161C 601.079 9.810161 600.653 9.33008 600.653 8.826171C 600.653 8.40586 600.911 8.11797 601.301 7.89609C 601.097 7.76406 600.869 7.60195 600.773 7.51211C 600.6411 7.38594 600.503 7.21797 600.503 6.94219C 600.503 6.3 601.013 5.92813 601.655 5.92813C 602.165 5.92813 602.843 6.31211 602.843 7.01406C 602.843 7.53594 602.465 7.82383 602.051 8.057811C 602.321 8.24414 602.483 8.38789 602.525 8.44219C 602.639 8.57383 602.699 8.74805 602.699 8.921881C 602.699 9.40781 602.291 9.810161 601.721 9.810161z" stroke="#000000" stroke-width="0.4" fill="none" /><path id="1108" transform="matrix(1 0 0 -1 0 834)" d="M605.489 8.08203C 605.651 8.20195 605.897 8.33398 606.0891 8.33398C 606.527 8.33398 606.893 7.97383 606.893 7.33203C 606.893 6.65391 606.557 6.22188 606.053 6.22188C 605.8491 6.22188 605.621 6.31797 605.489 6.45586zM605.489 8.28008L605.489 8.75391C 605.207 8.63984 604.871 8.53789 604.619 8.49609L604.619 8.49609L604.619 8.351951C 604.991 8.30391 605.015 8.29219 605.015 7.90195L605.015 7.90195L605.015 5.18984C 605.015 4.79414 604.961 4.75781 604.577 4.72188L604.577 4.72188L604.577 4.56016L604.577 4.56016L605.999 4.56016L605.999 4.56016L605.999 4.72188C 605.531 4.76406 605.489 4.79414 605.489 5.25L605.489 5.25L605.489 6.03594C 605.567 5.99414 605.729 5.93398 605.903 5.92813C 606.683 6.07188 607.397 6.65391 607.397 7.56016C 607.397 8.153911 607.001 8.69414 606.335 8.69414C 606.263 8.69414 606.149 8.664061 606.041 8.60391z" stroke="#000000" stroke-width="0.4" fill="none" /><path id="1109" transform="matrix(1 0 0 -1 0 834)" d="M608.303 5.92813C 608.4951 5.92813 608.639 6.06602 608.639 6.27617C 608.639 6.46797 608.4951 6.61797 608.303 6.61797C 608.111 6.61797 607.967 6.46797 607.967 6.27617C 607.967 6.06602 608.111 5.92813 608.303 5.92813z" stroke="#000000" stroke-width="0.4" fill="none" /><path id="1110" transform="matrix(1 0 0 -1 0 834)" d="M615.125 6L615.125 6.15586C 614.783 6.19219 614.735 6.21602 614.735 6.61797L614.735 6.61797L614.735 7.77617C 614.735 8.36406 614.441 8.69414 613.973 8.69414C 613.805 8.69414 613.649 8.621881 613.523 8.53789C 613.373 8.44805 613.199 8.33398 613.025 8.20195C 612.905 8.51406 612.647 8.69414 612.359 8.69414C 612.167 8.69414 612.023 8.628131 611.867 8.53203C 611.687 8.417971 611.555 8.310161 611.429 8.226171L611.429 8.226171L611.429 8.712111C 611.165 8.59219 610.859 8.51406 610.595 8.466021L610.595 8.466021L610.595 8.328131C 610.9431 8.273829 610.961 8.24414 610.961 7.86016L610.961 7.86016L610.961 6.61797C 610.961 6.22813 610.907 6.19219 610.511 6.15586L610.511 6.15586L610.511 6L610.511 6L611.777 6L611.777 6L611.777 6.15586C 611.483 6.19219 611.435 6.22813 611.435 6.61797L611.435 6.61797L611.435 8.028131C 611.615 8.17813 611.8491 8.33984 612.0891 8.33984C 612.455 8.33984 612.611 8.09414 612.611 7.65L612.611 7.65L612.611 6.61797C 612.611 6.22188 612.557 6.19219 612.185 6.15586L612.185 6.15586L612.185 6L612.185 6L613.469 6L613.469 6L613.469 6.15586C 613.139 6.19219 613.085 6.22813 613.085 6.60586L613.085 6.60586L613.085 7.77617C 613.085 7.88984 613.079 7.95586 613.067 8.028131C 613.295 8.21992 613.523 8.33984 613.739 8.33984C 614.117 8.33984 614.267 8.069921 614.267 7.64414L614.267 7.64414L614.267 6.64219C 614.267 6.21602 614.201 6.19219 613.847 6.15586L613.847 6.15586L613.847 6z" stroke="#000000" stroke-width="0.4" fill="none" /><path id="1111" transform="matrix(1 0 0 -1 0 834)" d="M615.947 5.92813C 616.139 5.92813 616.283 6.06602 616.283 6.27617C 616.283 6.46797 616.139 6.61797 615.947 6.61797C 615.755 6.61797 615.611 6.46797 615.611 6.27617C 615.611 6.06602 615.755 5.92813 615.947 5.92813z" stroke="#000000" stroke-width="0.4" fill="none" /></g></g></svg>