<svg xmlns="http://www.w3.org/2000/svg" xmlns:xlink="http://www.w3.org/1999/xlink" id="body_1" preserveAspectRatio="xMinYMin meet" viewBox="0 0 872 1112"><defs><clipPath id="1"><path id="" clip-rule="evenodd" transform="matrix(1 0 0 1 0 0)" d="M0 834L0 0L0 0L654 0L654 0L654 834L654 834L0 834z" /></clipPath><clipPath id="2"><path id="" clip-rule="evenodd" transform="matrix(1 0 0 1 0 0)" d="M21 813L633 813L633 813L633 21L633 21L21 21z" /></clipPath><clipPath id="3"><path id="" clip-rule="evenodd" transform="matrix(1 0 0 1 0 0)" d="M328.398 706.656L462.571 706.656L462.571 706.656L462.571 561.756L462.571 561.756L328.398 561.756z" /></clipPath><clipPath id="4"><path id="" clip-rule="evenodd" transform="matrix(1 0 0 1 0 0)" d="M328.398 706.656L462.571 706.656L462.571 706.656L462.571 561.756L462.571 561.756L328.398 561.756z" /></clipPath><clipPath id="5"><path id="" clip-rule="evenodd" transform="matrix(1 0 0 1 0 0)" d="M328.398 707.274L470.876 707.274L470.876 707.274L470.876 561.757L470.876 561.757L328.398 561.757z" /></clipPath><clipPath id="6"><path id="" clip-rule="evenodd" transform="matrix(1 0 0 1 0 0)" d="M406.735 675.169C 406.735 692.542 420.947 706.625 438.478 706.625L438.478 706.625L438.478 706.625C 456.009 706.625 470.221 692.542 470.221 675.169L470.221 675.169L470.221 675.169C 470.221 657.797 456.009 643.714 438.478 643.714L438.478 643.714L438.478 643.714C 420.947 643.714 406.735 657.797 406.735 675.169" /></clipPath><clipPath id="7"><path id="" clip-rule="evenodd" transform="matrix(1 0 0 1 0 0)" d="M406.735 675.169C 406.735 692.542 420.947 706.625 438.478 706.625L438.478 706.625L438.478 706.625C 456.009 706.625 470.221 692.542 470.221 675.169L470.221 675.169L470.221 675.169C 470.221 657.797 456.009 643.714 438.478 643.714L438.478 643.714L438.478 643.714C 420.947 643.714 406.735 657.797 406.735 675.169" /></clipPath><clipPath id="8"><path id="" clip-rule="evenodd" transform="matrix(1 0 0 1 0 0)" d="M328.398 707.274L470.876 707.274L470.876 707.274L470.876 561.757L470.876 561.757L328.398 561.757z" /></clipPath><clipPath id="9"><path id="" clip-rule="evenodd" transform="matrix(1 0 0 1 0 0)" d="M334.42 489.42L435.965 489.42L435.965 489.42L435.965 346.984L435.965 346.984L334.42 346.984z" /></clipPath><clipPath id="10"><path id="" clip-rule="evenodd" transform="matrix(1 0 0 1 0 0)" d="M334.42 489.42L435.965 489.42L435.965 489.42L435.965 346.984L435.965 346.984L334.42 346.984z" /></clipPath><clipPath id="11"><path id="" clip-rule="evenodd" transform="matrix(1 0 0 1 0 0)" d="M334.42 489.73L469.506 489.73L469.506 489.73L469.506 346.984L469.506 346.984L334.42 346.984z" /></clipPath><clipPath id="12"><path id="" clip-rule="evenodd" transform="matrix(1 0 0 1 0 0)" d="M400.622 454.49C 400.622 473.585 415.895 489.064 434.736 489.064L434.736 489.064L434.736 489.064C 453.576 489.064 468.85 473.585 468.85 454.49L468.85 454.49L468.85 454.49C 468.85 435.395 453.576 419.915 434.736 419.915L434.736 419.915L434.736 419.915C 415.895 419.915 400.622 435.395 400.622 454.49" /></clipPath><clipPath id="13"><path id="" clip-rule="evenodd" transform="matrix(1 0 0 1 0 0)" d="M400.622 454.49C 400.622 473.585 415.895 489.064 434.736 489.064L434.736 489.064L434.736 489.064C 453.576 489.064 468.85 473.585 468.85 454.49L468.85 454.49L468.85 454.49C 468.85 435.395 453.576 419.915 434.736 419.915L434.736 419.915L434.736 419.915C 415.895 419.915 400.622 435.395 400.622 454.49" /></clipPath><clipPath id="14"><path id="" clip-rule="evenodd" transform="matrix(1 0 0 1 0 0)" d="M334.42 489.73L469.506 489.73L469.506 489.73L469.506 346.984L469.506 346.984L334.42 346.984z" /></clipPath><clipPath id="15"><path id="" clip-rule="evenodd" transform="matrix(1 0 0 1 0 0)" d="M304.878 264.124L394.2378 264.124L394.2378 264.124L394.2378 131.749L394.2378 131.749L304.878 131.749z" /></clipPath><clipPath id="16"><path id="" clip-rule="evenodd" transform="matrix(1 0 0 1 0 0)" d="M304.878 264.124L394.2378 264.124L394.2378 264.124L394.2378 131.749L394.2378 131.749L304.878 131.749z" /></clipPath><clipPath id="17"><path id="" clip-rule="evenodd" transform="matrix(1 0 0 1 0 0)" d="M421.865 263.926L513.9162 263.926L513.9162 263.926L513.9162 131.551L513.9162 131.551L421.865 131.551z" /></clipPath><clipPath id="18"><path id="" clip-rule="evenodd" transform="matrix(1 0 0 1 0 0)" d="M421.865 263.926L513.9162 263.926L513.9162 263.926L513.9162 131.551L513.9162 131.551L421.865 131.551z" /></clipPath><clipPath id="19"><path id="" clip-rule="evenodd" transform="matrix(1 0 0 1 0 0)" d="M304.878 265.264L546.7031 265.264L546.7031 265.264L546.7031 131.551L546.7031 131.551L304.878 131.551z" /></clipPath><clipPath id="20"><path id="" clip-rule="evenodd" transform="matrix(1 0 0 1 0 0)" d="M367.168 234.487C 367.168 251.123 380.7 264.61 397.394 264.61L397.394 264.61L397.394 264.61C 414.087 264.61 427.62 251.123 427.62 234.487L427.62 234.487L427.62 234.487C 427.62 217.85 414.087 204.364 397.394 204.364L397.394 204.364L397.394 204.364C 380.7 204.364 367.168 217.85 367.168 234.487" /></clipPath><clipPath id="21"><path id="" clip-rule="evenodd" transform="matrix(1 0 0 1 0 0)" d="M367.168 234.487C 367.168 251.123 380.7 264.61 397.394 264.61L397.394 264.61L397.394 264.61C 414.087 264.61 427.62 251.123 427.62 234.487L427.62 234.487L427.62 234.487C 427.62 217.85 414.087 204.364 397.394 204.364L397.394 204.364L397.394 204.364C 380.7 204.364 367.168 217.85 367.168 234.487" /></clipPath><clipPath id="22"><path id="" clip-rule="evenodd" transform="matrix(1 0 0 1 0 0)" d="M304.878 265.264L546.7031 265.264L546.7031 265.264L546.7031 131.551L546.7031 131.551L304.878 131.551z" /></clipPath><clipPath id="23"><path id="" clip-rule="evenodd" transform="matrix(1 0 0 1 0 0)" d="M490.189 236.2339C 490.189 251.606 502.692 264.068 518.117 264.068L518.117 264.068L518.117 264.068C 533.542 264.068 546.046 251.606 546.046 236.2339L546.046 236.2339L546.046 236.2339C 546.046 220.862 533.542 208.4 518.117 208.4L518.117 208.4L518.117 208.4C 502.692 208.4 490.189 220.862 490.189 236.2339" /></clipPath><clipPath id="24"><path id="" clip-rule="evenodd" transform="matrix(1 0 0 1 0 0)" d="M490.189 236.2339C 490.189 251.606 502.692 264.068 518.117 264.068L518.117 264.068L518.117 264.068C 533.542 264.068 546.046 251.606 546.046 236.2339L546.046 236.2339L546.046 236.2339C 546.046 220.862 533.542 208.4 518.117 208.4L518.117 208.4L518.117 208.4C 502.692 208.4 490.189 220.862 490.189 236.2339" /></clipPath><clipPath id="25"><path id="" clip-rule="evenodd" transform="matrix(1 0 0 1 0 0)" d="M304.878 265.264L546.7031 265.264L546.7031 265.264L546.7031 131.551L546.7031 131.551L304.878 131.551z" /></clipPath><clipPath id="26"><path id="" clip-rule="evenodd" transform="matrix(1 0 0 1 0 0)" d="M489.986 186.529L493.9922 186.529L493.9922 186.529L493.9922 184.7622L493.9922 184.7622L489.986 184.7622z" /></clipPath><clipPath id="27"><path id="" clip-rule="evenodd" transform="matrix(1 0 0 1 0 0)" d="M489.986 186.529L493.992 186.529L493.992 186.529L493.992 184.762L493.992 184.762L489.986 184.762z" /></clipPath><clipPath id="28"><path id="" clip-rule="evenodd" transform="matrix(1 0 0 1 0 0)" d="M489.986 186.529L493.9919 186.529L493.9919 186.529L493.9919 184.7622L493.9919 184.7622L489.986 184.7622z" /></clipPath><clipPath id="29"><path id="" clip-rule="evenodd" transform="matrix(1 0 0 1 0 0)" d="M451.782 184.879L473.8769 184.879L473.8769 184.879L473.8769 181.629L473.8769 181.629L451.782 181.629z" /></clipPath><clipPath id="30"><path id="" clip-rule="evenodd" transform="matrix(1 0 0 1 0 0)" d="M451.782 184.879L473.877 184.879L473.877 184.879L473.877 181.629L473.877 181.629L451.782 181.629z" /></clipPath><clipPath id="31"><path id="" clip-rule="evenodd" transform="matrix(1 0 0 1 0 0)" d="M451.782 184.879L473.8761 184.879L473.8761 184.879L473.8761 181.629L473.8761 181.629L451.782 181.629z" /></clipPath><clipPath id="32"><path id="" clip-rule="evenodd" transform="matrix(1 0 0 1 0 0)" d="M304.878 265.264L546.7031 265.264L546.7031 265.264L546.7031 131.551L546.7031 131.551L304.878 131.551z" /></clipPath><clipPath id="33"><path id="" clip-rule="evenodd" transform="matrix(1 0 0 1 0 0)" d="M406.859 174.78L432.6551 174.78L432.6551 174.78L432.6551 138.921L432.6551 138.921L406.859 138.921z" /></clipPath><clipPath id="34"><path id="" clip-rule="evenodd" transform="matrix(1 0 0 1 0 0)" d="M406.859 174.78L432.6551 174.78L432.6551 174.78L432.6551 138.921L432.6551 138.921L406.859 138.921z" /></clipPath><clipPath id="35"><path id="" clip-rule="evenodd" transform="matrix(1 0 0 1 0 0)" d="M497.002 174.78L522.5989 174.78L522.5989 174.78L522.5989 138.921L522.5989 138.921L497.002 138.921z" /></clipPath><clipPath id="36"><path id="" clip-rule="evenodd" transform="matrix(1 0 0 1 0 0)" d="M497.002 174.78L522.5989 174.78L522.5989 174.78L522.5989 138.921L522.5989 138.921L497.002 138.921z" /></clipPath><clipPath id="37"><path id="" clip-rule="evenodd" transform="matrix(1 0 0 1 0 0)" d="M267.254 167.561L292.7423 167.561L292.7423 167.561L292.7423 116.2449L292.7423 116.2449L267.254 116.2449z" /></clipPath><clipPath id="38"><path id="" clip-rule="evenodd" transform="matrix(1 0 0 1 0 0)" d="M267.254 167.561L292.7423 167.561L292.7423 167.561L292.7423 116.2449L292.7423 116.2449L267.254 116.2449z" /></clipPath><clipPath id="39"><path id="" clip-rule="evenodd" transform="matrix(1 0 0 1 0 0)" d="M258.826 374.299L301.203 374.299L301.203 374.299L301.203 338.7642L301.203 338.7642L258.826 338.7642z" /></clipPath><clipPath id="40"><path id="" clip-rule="evenodd" transform="matrix(1 0 0 1 0 0)" d="M258.826 374.299L301.203 374.299L301.203 374.299L301.203 338.7642L301.203 338.7642L258.826 338.7642z" /></clipPath><clipPath id="41"><path id="" clip-rule="evenodd" transform="matrix(1 0 0 1 0 0)" d="M259.421 597.22L301.7968 597.22L301.7968 597.22L301.7968 562.5552L301.7968 562.5552L259.421 562.5552z" /></clipPath><clipPath id="42"><path id="" clip-rule="evenodd" transform="matrix(1 0 0 1 0 0)" d="M259.421 597.22L301.7968 597.22L301.7968 597.22L301.7968 562.5552L301.7968 562.5552L259.421 562.5552z" /></clipPath><clipPath id="43"><path id="" clip-rule="evenodd" transform="matrix(1 0 0 1 0 0)" d="M278.592 208.31L304.3889 208.31L304.3889 208.31L304.3889 172.4518L304.3889 172.4518L278.592 172.4518z" /></clipPath><clipPath id="44"><path id="" clip-rule="evenodd" transform="matrix(1 0 0 1 0 0)" d="M278.592 208.31L304.3889 208.31L304.3889 208.31L304.3889 172.4518L304.3889 172.4518L278.592 172.4518z" /></clipPath><clipPath id="45"><path id="" clip-rule="evenodd" transform="matrix(1 0 0 1 0 0)" d="M311.206 407.165L336.8021 407.165L336.8021 407.165L336.8021 371.306L336.8021 371.306L311.206 371.306z" /></clipPath><clipPath id="46"><path id="" clip-rule="evenodd" transform="matrix(1 0 0 1 0 0)" d="M311.206 407.165L336.8021 407.165L336.8021 407.165L336.8021 371.306L336.8021 371.306L311.206 371.306z" /></clipPath><clipPath id="47"><path id="" clip-rule="evenodd" transform="matrix(1 0 0 1 0 0)" d="M471.49 407.165L497.2873 407.165L497.2873 407.165L497.2873 371.306L497.2873 371.306L471.49 371.306z" /></clipPath><clipPath id="48"><path id="" clip-rule="evenodd" transform="matrix(1 0 0 1 0 0)" d="M471.49 407.165L497.2873 407.165L497.2873 407.165L497.2873 371.306L497.2873 371.306L471.49 371.306z" /></clipPath><clipPath id="49"><path id="" clip-rule="evenodd" transform="matrix(1 0 0 1 0 0)" d="M309.348 660L335.1449 660L335.1449 660L335.1449 624.141L335.1449 624.141L309.348 624.141z" /></clipPath><clipPath id="50"><path id="" clip-rule="evenodd" transform="matrix(1 0 0 1 0 0)" d="M309.348 660L335.1449 660L335.1449 660L335.1449 624.141L335.1449 624.141L309.348 624.141z" /></clipPath><clipPath id="51"><path id="" clip-rule="evenodd" transform="matrix(1 0 0 1 0 0)" d="M469.789 660L495.5859 660L495.5859 660L495.5859 624.141L495.5859 624.141L469.789 624.141z" /></clipPath><clipPath id="52"><path id="" clip-rule="evenodd" transform="matrix(1 0 0 1 0 0)" d="M469.789 660L495.5859 660L495.5859 660L495.5859 624.141L495.5859 624.141L469.789 624.141z" /></clipPath><clipPath id="53"><path id="" clip-rule="evenodd" transform="matrix(1 0 0 1 0 0)" d="M309.831 446.622L338.1771 446.622L338.1771 446.622L338.1771 410.7642L338.1771 410.7642L309.831 410.7642z" /></clipPath><clipPath id="54"><path id="" clip-rule="evenodd" transform="matrix(1 0 0 1 0 0)" d="M309.831 446.622L338.1771 446.622L338.1771 446.622L338.1771 410.7642L338.1771 410.7642L309.831 410.7642z" /></clipPath><clipPath id="55"><path id="" clip-rule="evenodd" transform="matrix(1 0 0 1 0 0)" d="M471.49 449.457L499.8361 449.457L499.8361 449.457L499.8361 413.598L499.8361 413.598L471.49 413.598z" /></clipPath><clipPath id="56"><path id="" clip-rule="evenodd" transform="matrix(1 0 0 1 0 0)" d="M471.49 449.457L499.8361 449.457L499.8361 449.457L499.8361 413.598L499.8361 413.598L471.49 413.598z" /></clipPath></defs><g transform="matrix(1.333333 0 0 1.333333 0 0)"><g clip-path="url(#1)"><g clip-path="url(#2)"><path id="1" transform="matrix(1 0 0 -1 0 834)" d="M91.866 67.4211L562.134 67.4211L562.134 74.92501L91.866 74.92501z" stroke="none" fill="#686868" fill-rule="nonzero" /><path id="2" transform="matrix(1 0 0 -1 0 834)" d="M562.134 526.984L91.866 526.984" stroke="#686868" stroke-width="1" fill="none" /><path id="3" transform="matrix(1 0 0 -1 0 834)" d="M562.134 307.016L91.866 307.016" stroke="#686868" stroke-width="1" fill="none" /></g><g clip-path="url(#3)"></g><g clip-path="url(#4)"><g transform="matrix(1.001291 0 0 0.9993104 328.398 561.756)"><g transform="matrix(1 0 0 1 0 0)"><image x="0" y="0" xlink:href="img_01.png" width="134" height="145" /></g></g></g><path id="8" transform="matrix(1 0 0 -1 0 834)" d="M417.99 246.222L418.196 236.223" stroke="none" fill="#FFFFFF" fill-rule="nonzero" /><path id="9" transform="matrix(1 0 0 -1 0 834)" d="M417.9901 246.2223L418.1518 238.3761" stroke="#000000" stroke-width="0.7280403" fill="none" /><path id="10" transform="matrix(1 0 0 -1 0 834)" d="M416.783 239.361L418.142 238.821L419.478 239.415L418.196 236.222z" stroke="none" fill="#000000" fill-rule="nonzero" /><path id="11" transform="matrix(1 0 0 -1 0 834)" d="M373.871 245.933L374.077 235.934" stroke="none" fill="#FFFFFF" fill-rule="nonzero" /><path id="12" transform="matrix(1 0 0 -1 0 834)" d="M373.8707 245.9336L374.0324 238.0874" stroke="#000000" stroke-width="0.7280403" fill="none" /><path id="13" transform="matrix(1 0 0 -1 0 834)" d="M372.663 239.072L374.023 238.532L375.359 239.127L374.077 235.934z" stroke="none" fill="#000000" fill-rule="nonzero" /><g clip-path="url(#5)"><path id="14" transform="matrix(1 0 0 -1 0 834)" d="M406.736 158.831C 406.736 141.459 420.947 127.376 438.478 127.376C 456.009 127.376 470.221 141.459 470.221 158.831C 470.221 176.204 456.009 190.287 438.478 190.287C 420.947 190.287 406.736 176.204 406.736 158.831" stroke="none" fill="#FFFFFF" fill-rule="nonzero" /></g><g clip-path="url(#6)"></g><g clip-path="url(#7)"><g transform="matrix(1.003766 0 0 0.9990001 390.913 640.8722)"><g transform="matrix(1 0 0 1 0 0)"><image x="0" y="0" xlink:href="img_02.png" width="94" height="102" /></g></g></g><g clip-path="url(#8)"><path id="16" transform="matrix(1 0 0 -1 0 834)" d="M406.7362 158.8318C 406.7362 141.459 420.9474 127.3762 438.4787 127.3762C 456.0099 127.3762 470.2211 141.459 470.2211 158.8318C 470.2211 176.2036 456.0099 190.2874 438.4787 190.2874C 420.9474 190.2874 406.7362 176.2036 406.7362 158.8318z" stroke="#000000" stroke-width="0.7280403" fill="none" /></g><g clip-path="url(#9)"></g><g clip-path="url(#10)"><g transform="matrix(1.005396 0 0 1.00307 334.42 346.984)"><g transform="matrix(1 0 0 1 0 0)"><image x="0" y="0" xlink:href="img_03.png" width="101" height="142" /></g></g></g><path id="18" transform="matrix(1 0 0 -1 0 834)" d="M368.425 466.661L375.591 457.352" stroke="none" fill="#FFFFFF" fill-rule="nonzero" /><path id="19" transform="matrix(1 0 0 -1 0 834)" d="M369.2288 465.619L374.7872 458.3989" stroke="#000000" stroke-width="0.729519" fill="none" /><path id="20" transform="matrix(1 0 0 -1 0 834)" d="M368.425 466.661L370.245 465.63L369.395 465.4L368.968 464.62z" stroke="none" fill="#000000" fill-rule="nonzero" /><path id="21" transform="matrix(1 0 0 -1 0 834)" d="M373.77 458.382L374.621 458.612L375.048 459.393L375.591 457.352z" stroke="none" fill="#000000" fill-rule="nonzero" /><path id="22" transform="matrix(1 0 0 -1 0 834)" d="M399.769 466.289L393.905 456.088" stroke="none" fill="#FFFFFF" fill-rule="nonzero" /><path id="23" transform="matrix(1 0 0 -1 0 834)" d="M399.1107 465.1479L394.5624 457.2341" stroke="#000000" stroke-width="0.729519" fill="none" /><path id="24" transform="matrix(1 0 0 -1 0 834)" d="M398.974 464.908L398.1 465.02L399.768 466.289L399.501 464.193z" stroke="none" fill="#000000" fill-rule="nonzero" /><path id="25" transform="matrix(1 0 0 -1 0 834)" d="M394.171 458.182L394.698 457.468L395.571 457.355L393.904 456.087z" stroke="none" fill="#000000" fill-rule="nonzero" /><g clip-path="url(#11)"><path id="26" transform="matrix(1 0 0 -1 0 834)" d="M400.623 379.511C 400.623 360.415 415.896 344.936 434.736 344.936C 453.577 344.936 468.85 360.415 468.85 379.511C 468.85 398.606 453.577 414.085 434.736 414.085C 415.896 414.085 400.623 398.606 400.623 379.511" stroke="none" fill="#FFFFFF" fill-rule="nonzero" /></g><g clip-path="url(#12)"></g><g clip-path="url(#13)"><g transform="matrix(1.005396 0 0 1.00307 384.534 417.562)"><g transform="matrix(1 0 0 1 0 0)"><image x="0" y="0" xlink:href="img_04.png" width="101" height="142" /></g></g></g><g clip-path="url(#14)"><path id="28" transform="matrix(1 0 0 -1 0 834)" d="M400.6224 379.5133C 400.6224 360.4178 415.8961 344.9375 434.7367 344.9375C 453.5763 344.9375 468.85 360.4178 468.85 379.5133C 468.85 398.6088 453.5763 414.0881 434.7367 414.0881C 415.8961 414.0881 400.6224 398.6088 400.6224 379.5133z" stroke="#000000" stroke-width="0.729519" fill="none" /><path id="29" transform="matrix(1 0 0 -1 0 834)" d="M358.109 467.341C 355.98 467.341 354.254 465.591 354.254 463.433C 354.254 461.275 355.98 459.525 358.109 459.525C 360.239 459.525 361.965 461.275 361.965 463.433C 361.965 465.591 360.239 467.341 358.109 467.341M358.109 460C 356.25 460 354.743 461.527 354.743 463.411C 354.743 465.295 356.25 466.823 358.109 466.823C 359.968 466.823 361.475 465.295 361.475 463.411C 361.475 461.527 359.968 460 358.109 460" stroke="none" fill="#000000" fill-rule="nonzero" /><path id="31" transform="matrix(1 0 0 -1 0 834)" d="M412.883 397.808C 410.754 397.808 409.027 396.058 409.027 393.9C 409.027 391.741 410.754 389.992 412.883 389.992C 415.013 389.992 416.739 391.741 416.739 393.9C 416.739 396.058 415.013 397.808 412.883 397.808M412.883 390.467C 411.024 390.467 409.517 391.994 409.517 393.878C 409.517 395.762 411.024 397.289 412.883 397.289C 414.742 397.289 416.249 395.762 416.249 393.878C 416.249 391.994 414.742 390.467 412.883 390.467" stroke="none" fill="#000000" fill-rule="nonzero" /></g><g clip-path="url(#15)"></g><g clip-path="url(#16)"><g transform="matrix(1.004046 0 0 1.002849 304.878 131.749)"><g transform="matrix(1 0 0 1 0 0)"><image x="0" y="0" xlink:href="img_05.png" width="89" height="132" /></g></g></g><g clip-path="url(#17)"></g><g clip-path="url(#18)"><g transform="matrix(1.000562 0 0 1.002849 421.865 131.551)"><g transform="matrix(1 0 0 1 0 0)"><image x="0" y="0" xlink:href="img_06.png" width="92" height="132" /></g></g></g><g clip-path="url(#19)"><path id="35" transform="matrix(1 0 0 -1 0 834)" d="M367.168 599.513C 367.168 582.877 380.7 569.39 397.394 569.39C 414.088 569.39 427.62 582.877 427.62 599.513C 427.62 616.149 414.088 629.636 397.394 629.636C 380.7 629.636 367.168 616.149 367.168 599.513" stroke="none" fill="#FFFFFF" fill-rule="nonzero" /></g><g clip-path="url(#20)"></g><g clip-path="url(#21)"><g transform="matrix(1.004046 0 0 1.002849 358.697 202.0389)"><g transform="matrix(1 0 0 1 0 0)"><image x="0" y="0" xlink:href="img_07.png" width="89" height="132" /></g></g></g><g clip-path="url(#22)"><path id="37" transform="matrix(1 0 0 -1 0 834)" d="M367.1678 599.5131C 367.1678 582.8766 380.6999 569.3897 397.3944 569.3897C 414.0869 569.3897 427.62 582.8766 427.62 599.5131C 427.62 616.1496 414.0869 629.6365 397.3944 629.6365C 380.6999 629.6365 367.1678 616.1496 367.1678 599.5131z" stroke="#000000" stroke-width="0.7291347" fill="none" /><path id="38" transform="matrix(1 0 0 -1 0 834)" d="M490.189 597.7661C 490.189 582.394 502.693 569.932 518.118 569.932C 533.543 569.932 546.0471 582.394 546.0471 597.7661C 546.0471 613.138 533.543 625.6 518.118 625.6C 502.693 625.6 490.189 613.138 490.189 597.7661" stroke="none" fill="#FFFFFF" fill-rule="nonzero" /></g><g clip-path="url(#23)"></g><g clip-path="url(#24)"><g transform="matrix(1.005317 0 0 1.003487 488.857 188.2306)"><g transform="matrix(1 0 0 1 0 0)"><image x="0" y="0" xlink:href="img_08.png" width="59" height="85" /></g></g></g><g clip-path="url(#25)"><path id="40" transform="matrix(1 0 0 -1 0 834)" d="M490.1888 597.7661C 490.1888 582.3944 502.6932 569.9327 518.1175 569.9327C 533.5428 569.9327 546.0472 582.3944 546.0472 597.7661C 546.0472 613.1378 533.5428 625.5994 518.1175 625.5994C 502.6932 625.5994 490.1888 613.1378 490.1888 597.7661z" stroke="#000000" stroke-width="0.7291347" fill="none" /></g><path id="41" transform="matrix(1 0 0 -1 0 834)" d="M493.9322 648.1957L500.6817 647.6417" stroke="#000000" stroke-width="1.458269" fill="none" /><path id="42" transform="matrix(1 0 0 -1 0 834)" d="M499.784 647.716L498.862 650.491L505.02 647.286L498.42 645.128z" stroke="none" fill="#000000" fill-rule="nonzero" /><g clip-path="url(#26)"><g><g clip-path="url(#27)"><g clip-path="url(#28)"><path id="43" transform="matrix(1 0 0 -1 0 834)" d="M490.0456 648.5142L493.9322 648.1957" stroke="#FFFFFF" stroke-width="1.458269" fill="none" stroke-opacity="0.8" /></g></g></g></g><g clip-path="url(#29)"><g><g clip-path="url(#30)"><g clip-path="url(#31)"><path id="44" transform="matrix(1 0 0 -1 0 834)" d="M451.8423 651.6458L473.8169 649.8439" stroke="#FFFFFF" stroke-width="1.458269" fill="none" stroke-opacity="0.8" /></g></g></g></g><g clip-path="url(#32)"><path id="45" transform="matrix(1 0 0 -1 0 834)" d="M364.982 665.734C 362.854 665.734 361.128 664.014 361.128 661.893C 361.128 659.772 362.854 658.053 364.982 658.053C 367.11 658.053 368.836 659.772 368.836 661.893C 368.836 664.014 367.11 665.734 364.982 665.734M364.982 658.52C 363.124 658.52 361.618 660.02 361.618 661.872C 361.618 663.723 363.124 665.225 364.982 665.225C 366.84 665.225 368.346 663.723 368.346 661.872C 368.346 660.02 366.84 658.52 364.982 658.52" stroke="none" fill="#000000" fill-rule="nonzero" /><path id="47" transform="matrix(1 0 0 -1 0 834)" d="M482.725 667.447C 480.597 667.447 478.872 665.728 478.872 663.607C 478.872 661.486 480.597 659.7661 482.725 659.7661C 484.854 659.7661 486.579 661.486 486.579 663.607C 486.579 665.728 484.854 667.447 482.725 667.447M482.725 660.233C 480.868 660.233 479.361 661.734 479.361 663.586C 479.361 665.437 480.868 666.938 482.725 666.938C 484.584 666.938 486.089 665.437 486.089 663.586C 486.089 661.734 484.584 660.233 482.725 660.233" stroke="none" fill="#000000" fill-rule="nonzero" /></g><path id="49" transform="matrix(1 0 0 -1 0 834)" d="M338.9947 668.6097L336.6147 667.2361" stroke="#FFFFFF" stroke-width="0.4374809" fill="none" /><path id="50" transform="matrix(1 0 0 -1 0 834)" d="M338.855 668.528L338.433 668.844L339.674 669L338.92 668.006z" stroke="none" fill="#FFFFFF" fill-rule="nonzero" /><path id="51" transform="matrix(1 0 0 -1 0 834)" d="M336.69 667.8391L336.755 667.317L337.177 667.001L335.936 666.845z" stroke="none" fill="#FFFFFF" fill-rule="nonzero" /><path id="1199" transform="matrix(1 0 0 -1 0 834)" d="M406.859 659.22L432.6559 659.22L432.6559 695.0782L406.859 695.0782z" stroke="none" fill="#FFFFFF" fill-rule="nonzero" /><g clip-path="url(#33)"></g><g clip-path="url(#34)"><g transform="matrix(0.9939358 0 0 0.9965526 405.837 137.921)"><g transform="matrix(1 0 0 1 0 0)"><image x="0" y="0" xlink:href="img_09.png" width="28" height="38" /></g></g></g><path id="1201" transform="matrix(1 0 0 -1 0 834)" d="M497.002 659.22L522.5993 659.22L522.5993 695.0782L497.002 695.0782z" stroke="none" fill="#FFFFFF" fill-rule="nonzero" /><g clip-path="url(#35)"></g><g clip-path="url(#36)"><g transform="matrix(-1.022681 0 0 0.9965526 523.602 137.921)"><g transform="matrix(1 0 0 1 0 0)"><image x="0" y="0" xlink:href="img_10.png" width="27" height="38" /></g></g></g><g clip-path="url(#37)"></g><g clip-path="url(#38)"><g transform="matrix(1.019516 0 0 1.006212 267.254 116.2441)"><g transform="matrix(1 0 0 1 0 0)"><image x="0" y="0" xlink:href="img_11.png" width="25" height="51" /></g></g></g><g clip-path="url(#39)"></g><g clip-path="url(#40)"><g transform="matrix(1.010228 0 0 1.01528 258.525 338.7642)"><g transform="matrix(1 0 0 1 0 0)"><image x="0" y="0" xlink:href="img_12.png" width="43" height="35" /></g></g></g><g clip-path="url(#41)"></g><g clip-path="url(#42)"><g transform="matrix(1.008969 0 0 1.019562 259.421 562.5549)"><g transform="matrix(1 0 0 1 0 0)"><image x="0" y="0" xlink:href="img_13.png" width="42" height="34" /></g></g></g><g clip-path="url(#43)"></g><g clip-path="url(#44)"><g transform="matrix(0.9934929 0 0 0.9967948 277.583 171.4398)"><g transform="matrix(1 0 0 1 0 0)"><image x="0" y="0" xlink:href="img_14.png" width="28" height="38" /></g></g></g><g clip-path="url(#45)"></g><g clip-path="url(#46)"><g transform="matrix(1.022789 0 0 0.9967948 310.19 370.2938)"><g transform="matrix(1 0 0 1 0 0)"><image x="0" y="0" xlink:href="img_15.png" width="27" height="38" /></g></g></g><g clip-path="url(#47)"></g><g clip-path="url(#48)"><g transform="matrix(-0.9934929 0 0 0.9967948 498.306 370.2938)"><g transform="matrix(1 0 0 1 0 0)"><image x="0" y="0" xlink:href="img_16.png" width="28" height="38" /></g></g></g><g clip-path="url(#49)"></g><g clip-path="url(#50)"><g transform="matrix(0.9934929 0 0 0.9967948 308.339 623.1288)"><g transform="matrix(1 0 0 1 0 0)"><image x="0" y="0" xlink:href="img_14.png" width="28" height="38" /></g></g></g><g clip-path="url(#51)"></g><g clip-path="url(#52)"><g transform="matrix(-0.9934929 0 0 0.9967948 496.595 623.1288)"><g transform="matrix(1 0 0 1 0 0)"><image x="0" y="0" xlink:href="img_14.png" width="28" height="38" /></g></g></g><g clip-path="url(#53)"></g><g clip-path="url(#54)"><g transform="matrix(-1.012787 0 0 0.9967948 339.199 409.7548)"><g transform="matrix(1 0 0 1 0 0)"><image x="0" y="0" xlink:href="img_17.png" width="30" height="38" /></g></g></g><g clip-path="url(#55)"></g><g clip-path="url(#56)"><g transform="matrix(1.012787 0 0 0.9967948 470.469 412.5898)"><g transform="matrix(1 0 0 1 0 0)"><image x="0" y="0" xlink:href="img_17.png" width="30" height="38" /></g></g></g><path id="1213" transform="matrix(1 0 0 -1 0 834)" d="M633 15L633 0M633 819L633 834M21 15L21 0M21 819L21 834M639 21L654 21M15 21L0 21M639 813L654 813M15 813L0 813" stroke="#000000" stroke-width="1.25" fill="none" /><path id="1214" transform="matrix(1 0 0 -1 0 834)" d="M633 15L633 0M633 819L633 834M21 15L21 0M21 819L21 834M639 21L654 21M15 21L0 21M639 813L654 813M15 813L0 813" stroke="#000000" stroke-width="0.25" fill="none" /><path id="1215" transform="matrix(1 0 0 -1 0 834)" d="M32.2781 9.28203C 32.2781 9.516021 32.2961 9.58203 32.3559 9.62383C 32.416 9.66602 32.5719 9.69609 32.8238 9.69609C 33.2262 9.69609 33.5738 9.62383 33.8441 9.45C 34.3238 9.167971 34.552 8.63398 34.552 8.016021C 34.552 7.05586 34.0359 6.21602 32.9141 6.21602C 32.4762 6.21602 32.2781 6.33008 32.2781 6.78594zM31.252 9.900001L31.252 9.726171C 31.7141 9.68984 31.7621 9.66602 31.7621 9.150001L31.7621 9.150001L31.7621 6.74414C 31.7621 6.23398 31.7141 6.19805 31.198 6.16211L31.198 6.16211L31.198 6L31.198 6L32.6199 6C 33.3578 6 33.952 6.15 34.402 6.49805C 34.8641 6.84609 35.1398 7.38008 35.1398 8.1C 35.1398 8.664061 34.9301 9.101951 34.6359 9.38984C 34.2641 9.74414 33.7 9.900001 32.9379 9.900001z" stroke="#000000" stroke-width="0.4" fill="none" /><path id="1216" transform="matrix(1 0 0 -1 0 834)" d="M38.3801 6.97813C 38.2898 6.70195 38.1758 6.51016 38.0738 6.38984C 37.9359 6.23398 37.732 6.20391 37.402 6.20391C 37.15 6.20391 36.9461 6.21602 36.8258 6.28203C 36.718 6.34219 36.6879 6.46211 36.6879 6.78594L36.6879 6.78594L36.6879 9.15586C 36.6879 9.66602 36.7418 9.69609 37.216 9.73203L37.216 9.73203L37.216 9.900001L37.216 9.900001L35.65 9.900001L35.65 9.900001L35.65 9.73203C 36.1359 9.69609 36.1777 9.66602 36.1777 9.15586L36.1777 9.15586L36.1777 6.75586C 36.1777 6.24609 36.1301 6.20391 35.6258 6.16797L35.6258 6.16797L35.6258 6L35.6258 6L38.3438 6C 38.398 6.18594 38.5238 6.75586 38.5598 6.94219z" stroke="#000000" stroke-width="0.4" fill="none" /><path id="1217" transform="matrix(1 0 0 -1 0 834)" d="M41.0918 9.023829C 41.0438 9.40195 41.0141 9.63594 40.9898 9.851951C 40.7617 9.92383 40.5098 9.989841 40.234 9.989841C 39.4598 9.989841 38.998 9.49805 38.998 8.921881C 38.998 8.24414 39.6039 7.94414 39.9879 7.73984C 40.4379 7.5 40.768 7.28984 40.768 6.84609C 40.768 6.40781 40.498 6.12617 40.048 6.12617C 39.4301 6.12617 39.1598 6.73203 39.0641 7.09805L39.0641 7.09805L38.8898 7.05586C 38.9258 6.767971 39.0039 6.25195 39.052 6.12617C 39.1059 6.09609 39.1961 6.05391 39.3461 6C 39.4961 5.95781 39.6879 5.91016 39.934 5.91016C 40.732 5.91016 41.266 6.41406 41.266 7.04414C 41.266 7.71602 40.6961 7.99805 40.2277 8.23789C 39.7539 8.48398 39.466 8.68789 39.466 9.12617C 39.466 9.45 39.6699 9.78594 40.132 9.78594C 40.6539 9.78594 40.8098 9.371881 40.918 8.98789z" stroke="#000000" stroke-width="0.4" fill="none" /><path id="1218" transform="matrix(1 0 0 -1 0 834)" d="M46.648 6L46.648 6.16797C 46.1258 6.21602 46.1078 6.24609 46.0898 6.88203L46.0898 6.88203L46.0301 9.05391C 46.0117 9.671881 46.0539 9.68398 46.582 9.73203L46.582 9.73203L46.582 9.900001L46.582 9.900001L45.5617 9.900001L45.5617 9.900001L44.1758 6.9L44.1758 6.9L42.8078 9.900001L42.8078 9.900001L41.8238 9.900001L41.8238 9.900001L41.8238 9.73203C 42.3699 9.67813 42.4 9.653911 42.3461 8.87383L42.3461 8.87383L42.2617 7.626171C 42.2141 7.00195 42.1777 6.73789 42.148 6.528131C 42.1059 6.27617 41.9859 6.21016 41.6379 6.16797L41.6379 6.16797L41.6379 6L41.6379 6L43.0359 6L43.0359 6L43.0359 6.16797C 42.6398 6.21016 42.4961 6.25195 42.484 6.53984C 42.4777 6.78008 42.4777 7.04414 42.502 7.53594L42.502 7.53594L42.5918 9.24609L42.5918 9.24609L42.6039 9.24609L42.6039 9.24609L43.948 6.04219L43.948 6.04219L44.068 6.04219L44.068 6.04219L45.532 9.33008L45.532 9.33008L45.5559 9.33008L45.5559 9.33008L45.5738 6.88203C 45.5801 6.24609 45.5559 6.21602 45.0699 6.16797L45.0699 6.16797L45.0699 6z" stroke="#000000" stroke-width="0.4" fill="none" /><path id="1219" transform="matrix(1 0 0 -1 0 834)" d="M51.8738 7.05586C 51.5738 6.45586 51.2496 6.12617 50.6379 6.12617C 49.7258 6.12617 49.0656 6.89414 49.0656 8.016021C 49.0656 8.92813 49.5996 9.773829 50.602 9.773829C 51.2496 9.773829 51.6098 9.516021 51.7656 8.88008L51.7656 8.88008L51.9457 8.921881C 51.9098 9.24609 51.8738 9.48594 51.8258 9.828131C 51.6578 9.85781 51.2496 9.989841 50.7637 9.989841C 49.4258 9.989841 48.4539 9.15586 48.4539 7.89609C 48.4539 6.94219 49.1078 5.91016 50.602 5.91016C 51.034 5.91016 51.5379 6.03008 51.7059 6.07188C 51.8137 6.26992 51.9637 6.71406 52.0477 6.98984z" stroke="#000000" stroke-width="0.4" fill="none" /><path id="1220" transform="matrix(1 0 0 -1 0 834)" d="M54.3398 9.773829C 55.1258 9.773829 55.7855 9.101951 55.7855 7.83594C 55.7855 6.68398 55.1855 6.12617 54.5195 6.12617C 53.6738 6.12617 53.0559 6.94805 53.0559 8.076171C 53.0559 9.19805 53.6676 9.773829 54.3398 9.773829zM54.4598 9.989841C 53.1996 9.989841 52.4438 8.98789 52.4438 7.90781C 52.4438 6.75586 53.3078 5.91016 54.3938 5.91016C 55.4918 5.91016 56.3977 6.70195 56.3977 7.99805C 56.3977 9.19805 55.4797 9.989841 54.4598 9.989841z" stroke="#000000" stroke-width="0.4" fill="none" /><path id="1221" transform="matrix(1 0 0 -1 0 834)" d="M61.8277 6L61.8277 6.16797C 61.3059 6.21602 61.2879 6.24609 61.2695 6.88203L61.2695 6.88203L61.2098 9.05391C 61.1918 9.671881 61.2336 9.68398 61.7617 9.73203L61.7617 9.73203L61.7617 9.900001L61.7617 9.900001L60.7418 9.900001L60.7418 9.900001L59.3559 6.9L59.3559 6.9L57.9879 9.900001L57.9879 9.900001L57.0035 9.900001L57.0035 9.900001L57.0035 9.73203C 57.5496 9.67813 57.5797 9.653911 57.5258 8.87383L57.5258 8.87383L57.4418 7.626171C 57.3938 7.00195 57.3578 6.73789 57.3277 6.528131C 57.2855 6.27617 57.1656 6.21016 56.8176 6.16797L56.8176 6.16797L56.8176 6L56.8176 6L58.2156 6L58.2156 6L58.2156 6.16797C 57.8195 6.21016 57.6758 6.25195 57.6637 6.53984C 57.6578 6.78008 57.6578 7.04414 57.6816 7.53594L57.6816 7.53594L57.7719 9.24609L57.7719 9.24609L57.7836 9.24609L57.7836 9.24609L59.1277 6.04219L59.1277 6.04219L59.2477 6.04219L59.2477 6.04219L60.7117 9.33008L60.7117 9.33008L60.7355 9.33008L60.7355 9.33008L60.7535 6.88203C 60.7598 6.24609 60.7355 6.21602 60.2496 6.16797L60.2496 6.16797L60.2496 6z" stroke="#000000" stroke-width="0.4" fill="none" /><path id="1222" transform="matrix(1 0 0 -1 0 834)" d="M63.8258 6L63.8258 6.16797C 63.3336 6.20391 63.2855 6.23398 63.2855 6.75L63.2855 6.75L63.2855 9.150001C 63.2855 9.66016 63.3336 9.69609 63.8258 9.73203L63.8258 9.73203L63.8258 9.900001L63.8258 9.900001L62.2355 9.900001L62.2355 9.900001L62.2355 9.73203C 62.7277 9.69609 62.7758 9.66016 62.7758 9.150001L62.7758 9.150001L62.7758 6.75C 62.7758 6.23984 62.7277 6.20391 62.2355 6.16797L62.2355 6.16797L62.2355 6z" stroke="#000000" stroke-width="0.4" fill="none" /><path id="1223" transform="matrix(1 0 0 -1 0 834)" d="M66.5074 9.023829C 66.4598 9.40195 66.4297 9.63594 66.4055 9.851951C 66.1777 9.92383 65.9258 9.989841 65.6496 9.989841C 64.8758 9.989841 64.4137 9.49805 64.4137 8.921881C 64.4137 8.24414 65.0195 7.94414 65.4035 7.73984C 65.8535 7.5 66.1836 7.28984 66.1836 6.84609C 66.1836 6.40781 65.9137 6.12617 65.46371 6.12617C 64.8457 6.12617 64.5758 6.73203 64.4797 7.09805L64.4797 7.09805L64.3055 7.05586C 64.3418 6.767971 64.4195 6.25195 64.46761 6.12617C 64.52151 6.09609 64.6117 6.05391 64.7617 6C 64.91171 5.95781 65.1035 5.91016 65.3496 5.91016C 66.1477 5.91016 66.6816 6.41406 66.6816 7.04414C 66.6816 7.71602 66.1117 7.99805 65.6438 8.23789C 65.1695 8.48398 64.8816 8.68789 64.8816 9.12617C 64.8816 9.45 65.0855 9.78594 65.5477 9.78594C 66.0695 9.78594 66.2258 9.371881 66.3336 8.98789z" stroke="#000000" stroke-width="0.4" fill="none" /><path id="1224" transform="matrix(1 0 0 -1 0 834)" d="M69.4055 7.68008L68.3016 7.68008C 68.4816 8.171881 68.6734 8.69414 68.8656 9.21016L68.8656 9.21016L68.8777 9.21016zM70.9355 6L70.9355 6.16797C 70.5457 6.20391 70.46761 6.25781 70.2758 6.77383C 69.89181 7.81797 69.4895 8.95781 69.11761 9.989841L69.11761 9.989841L68.9316 9.93594L68.9316 9.93594L67.68951 6.78594C 67.4797 6.25781 67.3957 6.22188 67.0176 6.16797L67.0176 6.16797L67.0176 6L67.0176 6L68.3195 6L68.3195 6L68.3195 6.16797C 67.8695 6.21016 67.81561 6.26992 67.9477 6.64805C 68.0258 6.9 68.1156 7.15195 68.2117 7.42188L68.2117 7.42188L69.4895 7.42188C 69.62151 7.05586 69.74181 6.73203 69.8195 6.49805C 69.8977 6.26406 69.8438 6.21602 69.4656 6.16797L69.4656 6.16797L69.4656 6z" stroke="#000000" stroke-width="0.4" fill="none" /><path id="1225" transform="matrix(1 0 0 -1 0 834)" d="M71.7273 5.92813C 71.9195 5.92813 72.06371 6.06602 72.06371 6.27617C 72.06371 6.46797 71.9195 6.61797 71.7273 6.61797C 71.5355 6.61797 71.3914 6.46797 71.3914 6.27617C 71.3914 6.06602 71.5355 5.92813 71.7273 5.92813z" stroke="#000000" stroke-width="0.4" fill="none" /><path id="1226" transform="matrix(1 0 0 -1 0 834)" d="M73.9234 6L73.9234 6.15586C 73.53951 6.19219 73.4977 6.22813 73.4977 6.63594L73.4977 6.63594L73.4977 8.70586C 73.2336 8.59805 72.9516 8.51992 72.6453 8.471881L72.6453 8.471881L72.6453 8.328131C 73.0055 8.26797 73.0234 8.24414 73.0234 7.871881L73.0234 7.871881L73.0234 6.63594C 73.0234 6.22813 72.9816 6.19219 72.6035 6.15586L72.6035 6.15586L72.6035 6zM73.2215 9.216021C 73.3953 9.216021 73.52731 9.36016 73.52731 9.52188C 73.52731 9.70195 73.3953 9.83398 73.2273 9.83398C 73.06561 9.83398 72.9215 9.70195 72.9215 9.52188C 72.9215 9.36016 73.06561 9.216021 73.2215 9.216021z" stroke="#000000" stroke-width="0.4" fill="none" /><path id="1227" transform="matrix(1 0 0 -1 0 834)" d="M77.1574 6L77.1574 6.15586C 76.8094 6.19219 76.7793 6.21602 76.7793 6.62383L76.7793 6.62383L76.7793 7.78203C 76.7793 8.36406 76.4793 8.69414 76.0055 8.69414C 75.8313 8.69414 75.67541 8.621881 75.5074 8.51406C 75.3574 8.41211 75.2254 8.32188 75.1055 8.23203L75.1055 8.23203L75.1055 8.712111C 74.8414 8.59219 74.5594 8.51992 74.27151 8.466021L74.27151 8.466021L74.27151 8.328131C 74.5953 8.26797 74.6313 8.25 74.6313 7.86602L74.6313 7.86602L74.6313 6.62383C 74.6313 6.22813 74.6016 6.19805 74.19341 6.15586L74.19341 6.15586L74.19341 6L74.19341 6L75.4953 6L75.4953 6L75.4953 6.15586C 75.1414 6.19219 75.1055 6.21602 75.1055 6.62383L75.1055 6.62383L75.1055 8.03398C 75.2855 8.18984 75.5195 8.33984 75.7594 8.33984C 76.1613 8.33984 76.3055 8.069921 76.3055 7.65586L76.3055 7.65586L76.3055 6.65391C 76.3055 6.23984 76.2633 6.19219 75.9094 6.15586L75.9094 6.15586L75.9094 6z" stroke="#000000" stroke-width="0.4" fill="none" /><path id="1228" transform="matrix(1 0 0 -1 0 834)" d="M79.4734 6.51016C 79.32931 6.40195 79.1133 6.30586 78.8973 6.30586C 78.5133 6.30586 78.0754 6.65391 78.0754 7.36797C 78.0754 8.23789 78.57931 8.471881 78.8555 8.471881C 79.0832 8.471881 79.32931 8.37617 79.4734 8.16602zM80.4035 6.30586L80.2113 6.32383C 79.9895 6.34805 79.9473 6.37813 79.9473 6.68984L79.9473 6.68984L79.9473 10.2719C 79.7254 10.1941 79.3234 10.1039 79.0113 10.0621L79.0113 10.0621L79.0113 9.917971C 79.44341 9.88789 79.4734 9.869921 79.4734 9.47383L79.4734 9.47383L79.4734 8.628131C 79.3355 8.67617 79.1613 8.69414 79.0773 8.69414C 78.2613 8.69414 77.5293 8.03984 77.5293 7.20586C 77.5293 6.36602 78.1594 5.92813 78.6395 5.92813C 78.7113 5.92813 78.87341 5.96406 79.1074 6.10195L79.1074 6.10195L79.4734 6.31797L79.4734 6.31797L79.4734 5.92813C 79.8215 6.05391 80.27151 6.13203 80.4035 6.15586z" stroke="#000000" stroke-width="0.4" fill="none" /><path id="1229" transform="matrix(1 0 0 -1 0 834)" d="M81.3813 8.24414C 81.4895 8.310161 81.6813 8.35781 81.84921 8.35781C 82.34731 8.35781 82.7676 7.96211 82.7676 7.278131C 82.7676 6.58203 82.4492 6.15586 81.9516 6.15586C 81.6336 6.16211 81.4535 6.37188 81.4176 6.49219C 81.3934 6.54609 81.3813 6.60586 81.3813 6.69609zM81.3813 8.42383L81.3813 10.2719C 81.1594 10.1941 80.7934 10.098 80.5113 10.0621L80.5113 10.0621L80.5113 9.92383C 80.8953 9.88789 80.9074 9.851951 80.9074 9.48008L80.9074 9.48008L80.9074 6.14414C 81.2375 5.98789 81.5434 5.92813 81.78951 5.92813C 82.59341 5.92813 83.2953 6.55195 83.2953 7.43398C 83.2953 8.14219 82.7555 8.69414 82.1133 8.69414C 82.0473 8.69414 81.9633 8.67617 81.86761 8.63398z" stroke="#000000" stroke-width="0.4" fill="none" /><path id="1230" transform="matrix(1 0 0 -1 0 834)" d="M88.1133 8.976171C 88.2633 9.19805 88.50311 9.45 88.8332 9.45C 89.15121 9.45 89.4031 9.257811 89.4031 8.88594C 89.4031 8.44219 88.9953 8.20781 88.44341 8.03398L88.44341 8.03398L88.4852 7.86016C 88.5813 7.88984 88.7254 7.92617 88.8691 7.92617C 89.2113 7.92617 89.6313 7.70391 89.6313 7.15195C 89.6313 6.55781 89.3313 6.23984 88.90511 6.23984C 88.5633 6.23984 88.3172 6.40781 88.1613 6.54609C 88.1133 6.58789 88.0652 6.58203 88.0172 6.54609C 87.9633 6.50391 87.8852 6.42617 87.8793 6.34805C 87.8672 6.27617 87.891 6.21016 87.9754 6.13203C 88.0531 6.06016 88.2992 5.92813 88.5754 5.92813C 89.007 5.92813 90.1473 6.37188 90.1473 7.34414C 90.1473 7.78203 89.841 8.153911 89.3133 8.25586L89.3133 8.25586L89.3133 8.26797C 89.4871 8.38789 89.6313 8.49609 89.7211 8.59219C 89.8352 8.70586 89.90701 8.84414 89.90701 9.01797C 89.90701 9.47383 89.5531 9.810161 89.0133 9.810161C 88.6953 9.810161 88.4191 9.66016 88.25121 9.47383L88.25121 9.47383L87.9871 9.09609z" stroke="#000000" stroke-width="0.4" fill="none" /><path id="1231" transform="matrix(1 0 0 -1 0 834)" d="M92.1633 7.35L90.9813 7.35C 91.3773 8.016021 91.7672 8.58594 92.15121 9.119921L92.15121 9.119921L92.1633 9.119921zM93.2191 7.06797L93.2191 7.35L93.2191 7.35L92.6434 7.35L92.6434 7.35L92.6434 9.79219L92.6434 9.79219L92.4031 9.79219C 91.7852 8.976171 91.173 8.08789 90.6031 7.23594L90.6031 7.23594L90.6031 7.06797L90.6031 7.06797L92.1633 7.06797L92.1633 7.06797L92.1633 6.63594C 92.1633 6.23984 92.1391 6.20391 91.6172 6.16211L91.6172 6.16211L91.6172 6L91.6172 6L93.1531 6L93.1531 6L93.1531 6.16211C 92.6672 6.20391 92.6434 6.23398 92.6434 6.63594L92.6434 6.63594L92.6434 7.06797z" stroke="#000000" stroke-width="0.4" fill="none" /><path id="1232" transform="matrix(1 0 0 -1 0 834)" d="M94.7371 9.61211C 95.3191 9.61211 95.4754 8.86797 95.4754 8.33984C 95.4754 8.21992 95.4691 8.076171 95.4512 7.94414C 95.3254 7.84805 95.1211 7.77617 94.9113 7.77617C 94.40701 7.77617 94.107 8.214061 94.107 8.74219C 94.107 9.09609 94.27541 9.61211 94.7371 9.61211zM94.8152 9.810161C 94.041 9.810161 93.591 9.10781 93.591 8.53203C 93.591 7.90195 94.0293 7.43398 94.6652 7.43398C 94.7793 7.43398 94.8934 7.45781 95.02541 7.53008L95.02541 7.53008L95.4273 7.74609C 95.2293 6.83398 94.5754 6.23398 93.7172 6.08984L93.7172 6.08984L93.74731 5.91016C 93.8973 5.91016 94.2633 5.96992 94.5871 6.10195C 95.3973 6.42617 96.00311 7.20586 96.00311 8.310161C 96.00311 9.12617 95.5652 9.810161 94.8152 9.810161z" stroke="#000000" stroke-width="0.4" fill="none" /><path id="1251" transform="matrix(1 0 0 -1 0 834)" d="M554.472 6.83984C 554.292 6.46211 554.2141 6.43789 553.89 6.43789L553.89 6.43789L552.768 6.43789L552.768 6.43789L553.6201 7.33203C 554.1721 7.91992 554.412 8.273829 554.412 8.79609C 554.412 9.42617 553.932 9.810161 553.404 9.810161C 553.056 9.810161 552.774 9.653911 552.594 9.45586L552.594 9.45586L552.252 8.96992L552.252 8.96992L552.384 8.85C 552.54 9.08398 552.792 9.40781 553.2 9.40781C 553.644 9.40781 553.908 9.11406 553.908 8.61016C 553.908 8.09414 553.53 7.60195 553.158 7.15781C 552.858 6.81016 552.522 6.46797 552.186 6.13789L552.186 6.13789L552.186 6L552.186 6L554.43 6C 554.502 6.26992 554.562 6.53398 554.64 6.78594z" stroke="#000000" stroke-width="0.4" fill="none" /><path id="1252" transform="matrix(1 0 0 -1 0 834)" d="M555.792 9.3L557.19 9.3L557.19 9.3L557.346 9.68984L557.346 9.68984L557.31 9.73789L557.31 9.73789L555.6 9.73789L555.6 9.73789L555.366 7.90781C 555.504 7.96211 555.732 8.028131 555.984 8.028131C 556.638 8.028131 556.962 7.65 556.962 7.121881C 556.962 6.67188 556.71 6.23398 556.2 6.23398C 555.834 6.23398 555.588 6.42617 555.462 6.53984C 555.402 6.58789 555.354 6.58203 555.3 6.53984C 555.234 6.48008 555.18 6.40195 555.174 6.34219C 555.162 6.26992 555.192 6.22188 555.27 6.13789C 555.36 6.05391 555.612 5.92813 555.888 5.92813C 556.206 5.93398 556.608 6.08984 556.932 6.35391C 557.298 6.65391 557.466 6.99609 557.466 7.35586C 557.466 7.84805 557.076 8.369921 556.308 8.369921C 556.146 8.369921 555.864 8.273829 555.636 8.18984z" stroke="#000000" stroke-width="0.4" fill="none" /><path id="1253" transform="matrix(1 0 0 -1 0 834)" d="M559.548 9.989841L559.212 9.989841L559.212 9.989841L557.91 5.73594L557.91 5.73594L558.246 5.73594z" stroke="#000000" stroke-width="0.4" fill="none" /><path id="1254" transform="matrix(1 0 0 -1 0 834)" d="M561.18 9.61211C 561.72 9.61211 561.8701 8.72383 561.8701 7.871881C 561.8701 7.03203 561.726 6.13203 561.186 6.13203C 560.664 6.13203 560.49 7.03789 560.49 7.87813C 560.49 8.712111 560.634 9.61211 561.18 9.61211zM561.186 9.810161C 560.286 9.810161 559.956 8.74219 559.956 7.86602C 559.956 6.91797 560.28 5.92813 561.186 5.92813C 562.086 5.92813 562.404 6.99609 562.404 7.871881C 562.404 8.79609 562.086 9.810161 561.186 9.810161z" stroke="#000000" stroke-width="0.4" fill="none" /><path id="1255" transform="matrix(1 0 0 -1 0 834)" d="M564 9.61211C 564.582 9.61211 564.738 8.86797 564.738 8.33984C 564.738 8.21992 564.732 8.076171 564.7141 7.94414C 564.588 7.84805 564.384 7.77617 564.174 7.77617C 563.67 7.77617 563.3701 8.214061 563.3701 8.74219C 563.3701 9.09609 563.538 9.61211 564 9.61211zM564.078 9.810161C 563.304 9.810161 562.854 9.10781 562.854 8.53203C 562.854 7.90195 563.292 7.43398 563.928 7.43398C 564.042 7.43398 564.156 7.45781 564.288 7.53008L564.288 7.53008L564.69 7.74609C 564.492 6.83398 563.838 6.23398 562.98 6.08984L562.98 6.08984L563.01 5.91016C 563.16 5.91016 563.526 5.96992 563.85 6.10195C 564.66 6.42617 565.2661 7.20586 565.2661 8.310161C 565.2661 9.12617 564.828 9.810161 564.078 9.810161z" stroke="#000000" stroke-width="0.4" fill="none" /><path id="1256" transform="matrix(1 0 0 -1 0 834)" d="M567.294 9.989841L566.958 9.989841L566.958 9.989841L565.656 5.73594L565.656 5.73594L565.992 5.73594z" stroke="#000000" stroke-width="0.4" fill="none" /><path id="1257" transform="matrix(1 0 0 -1 0 834)" d="M569.9641 6.83984C 569.784 6.46211 569.706 6.43789 569.382 6.43789L569.382 6.43789L568.26 6.43789L568.26 6.43789L569.112 7.33203C 569.664 7.91992 569.904 8.273829 569.904 8.79609C 569.904 9.42617 569.424 9.810161 568.896 9.810161C 568.548 9.810161 568.2661 9.653911 568.086 9.45586L568.086 9.45586L567.744 8.96992L567.744 8.96992L567.876 8.85C 568.032 9.08398 568.284 9.40781 568.692 9.40781C 569.136 9.40781 569.4 9.11406 569.4 8.61016C 569.4 8.09414 569.022 7.60195 568.65 7.15781C 568.35 6.81016 568.014 6.46797 567.678 6.13789L567.678 6.13789L567.678 6L567.678 6L569.9221 6C 569.994 6.26992 570.054 6.53398 570.132 6.78594z" stroke="#000000" stroke-width="0.4" fill="none" /><path id="1258" transform="matrix(1 0 0 -1 0 834)" d="M571.806 9.61211C 572.346 9.61211 572.496 8.72383 572.496 7.871881C 572.496 7.03203 572.352 6.13203 571.812 6.13203C 571.29 6.13203 571.116 7.03789 571.116 7.87813C 571.116 8.712111 571.26 9.61211 571.806 9.61211zM571.812 9.810161C 570.912 9.810161 570.582 8.74219 570.582 7.86602C 570.582 6.91797 570.906 5.92813 571.812 5.92813C 572.712 5.92813 573.03 6.99609 573.03 7.871881C 573.03 8.79609 572.712 9.810161 571.812 9.810161z" stroke="#000000" stroke-width="0.4" fill="none" /><path id="1259" transform="matrix(1 0 0 -1 0 834)" d="M575.556 6L575.556 6.16211C 575.01 6.20391 574.9741 6.25195 574.9741 6.68398L574.9741 6.68398L574.9741 9.810161C 574.644 9.67813 574.29 9.56406 573.906 9.49805L573.906 9.49805L573.906 9.36016L573.906 9.36016L574.194 9.34805C 574.458 9.33594 574.482 9.305861 574.482 8.99414L574.482 8.99414L574.482 6.68398C 574.482 6.25195 574.452 6.20391 573.906 6.16211L573.906 6.16211L573.906 6z" stroke="#000000" stroke-width="0.4" fill="none" /><path id="1260" transform="matrix(1 0 0 -1 0 834)" d="M578.814 9.73789L576.522 9.73789C 576.498 9.48008 576.468 9.180079 576.414 8.85L576.414 8.85L576.588 8.85C 576.732 9.24609 576.768 9.3 577.164 9.3L577.164 9.3L578.46 9.3C 577.986 8.25586 577.308 7.01406 576.678 5.99414L576.678 5.99414L576.72 5.92813L576.72 5.92813L577.164 5.98789C 577.74 7.22383 578.298 8.44805 578.862 9.66602z" stroke="#000000" stroke-width="0.4" fill="none" /><path id="1261" transform="matrix(1 0 0 -1 0 834)" d="M584.531 9.61211C 585.071 9.61211 585.221 8.72383 585.221 7.871881C 585.221 7.03203 585.077 6.13203 584.537 6.13203C 584.015 6.13203 583.841 7.03789 583.841 7.87813C 583.841 8.712111 583.985 9.61211 584.531 9.61211zM584.537 9.810161C 583.637 9.810161 583.307 8.74219 583.307 7.86602C 583.307 6.91797 583.631 5.92813 584.537 5.92813C 585.437 5.92813 585.755 6.99609 585.755 7.871881C 585.755 8.79609 585.437 9.810161 584.537 9.810161z" stroke="#000000" stroke-width="0.4" fill="none" /><path id="1262" transform="matrix(1 0 0 -1 0 834)" d="M588.449 6.83984C 588.269 6.46211 588.191 6.43789 587.867 6.43789L587.867 6.43789L586.7451 6.43789L586.7451 6.43789L587.597 7.33203C 588.149 7.91992 588.389 8.273829 588.389 8.79609C 588.389 9.42617 587.909 9.810161 587.381 9.810161C 587.033 9.810161 586.751 9.653911 586.571 9.45586L586.571 9.45586L586.229 8.96992L586.229 8.96992L586.361 8.85C 586.517 9.08398 586.769 9.40781 587.177 9.40781C 587.621 9.40781 587.885 9.11406 587.885 8.61016C 587.885 8.09414 587.507 7.60195 587.135 7.15781C 586.835 6.81016 586.499 6.46797 586.163 6.13789L586.163 6.13789L586.163 6L586.163 6L588.407 6C 588.479 6.26992 588.539 6.53398 588.617 6.78594z" stroke="#000000" stroke-width="0.4" fill="none" /><path id="1263" transform="matrix(1 0 0 -1 0 834)" d="M589.5471 5.92813C 589.739 5.92813 589.883 6.06602 589.883 6.27617C 589.883 6.46797 589.739 6.61797 589.5471 6.61797C 589.355 6.61797 589.211 6.46797 589.211 6.27617C 589.211 6.06602 589.355 5.92813 589.5471 5.92813zM589.541 8.466021C 589.3491 8.466021 589.211 8.328131 589.211 8.13008C 589.211 7.92617 589.3491 7.78203 589.541 7.78203C 589.733 7.78203 589.877 7.92617 589.877 8.13008C 589.877 8.328131 589.733 8.466021 589.541 8.466021z" stroke="#000000" stroke-width="0.4" fill="none" /><path id="1264" transform="matrix(1 0 0 -1 0 834)" d="M591.905 7.35L590.723 7.35C 591.119 8.016021 591.509 8.58594 591.893 9.119921L591.893 9.119921L591.905 9.119921zM592.961 7.06797L592.961 7.35L592.961 7.35L592.385 7.35L592.385 7.35L592.385 9.79219L592.385 9.79219L592.145 9.79219C 591.527 8.976171 590.915 8.08789 590.345 7.23594L590.345 7.23594L590.345 7.06797L590.345 7.06797L591.905 7.06797L591.905 7.06797L591.905 6.63594C 591.905 6.23984 591.881 6.20391 591.359 6.16211L591.359 6.16211L591.359 6L591.359 6L592.895 6L592.895 6L592.895 6.16211C 592.409 6.20391 592.385 6.23398 592.385 6.63594L592.385 6.63594L592.385 7.06797z" stroke="#000000" stroke-width="0.4" fill="none" /><path id="1265" transform="matrix(1 0 0 -1 0 834)" d="M594.587 6.11992C 594.209 6.11992 593.855 6.42617 593.855 6.97813C 593.855 7.30781 594.059 7.60781 594.347 7.8C 594.809 7.56602 595.235 7.30781 595.235 6.85781C 595.235 6.39609 594.953 6.11992 594.587 6.11992zM594.533 9.61797C 594.809 9.61797 595.121 9.396091 595.121 8.89219C 595.121 8.53203 594.959 8.310161 594.755 8.14805C 594.329 8.35781 593.975 8.555861 593.975 9C 593.975 9.305861 594.179 9.61797 594.533 9.61797zM594.593 9.810161C 593.951 9.810161 593.525 9.33008 593.525 8.826171C 593.525 8.40586 593.783 8.11797 594.173 7.89609C 593.969 7.76406 593.741 7.60195 593.645 7.51211C 593.513 7.38594 593.375 7.21797 593.375 6.94219C 593.375 6.3 593.885 5.92813 594.527 5.92813C 595.037 5.92813 595.715 6.31211 595.715 7.01406C 595.715 7.53594 595.337 7.82383 594.923 8.057811C 595.1931 8.24414 595.355 8.38789 595.397 8.44219C 595.511 8.57383 595.571 8.74805 595.571 8.921881C 595.571 9.40781 595.163 9.810161 594.593 9.810161z" stroke="#000000" stroke-width="0.4" fill="none" /><path id="1266" transform="matrix(1 0 0 -1 0 834)" d="M596.675 5.92813C 596.867 5.92813 597.011 6.06602 597.011 6.27617C 597.011 6.46797 596.867 6.61797 596.675 6.61797C 596.483 6.61797 596.3391 6.46797 596.3391 6.27617C 596.3391 6.06602 596.483 5.92813 596.675 5.92813zM596.669 8.466021C 596.477 8.466021 596.3391 8.328131 596.3391 8.13008C 596.3391 7.92617 596.477 7.78203 596.669 7.78203C 596.861 7.78203 597.005 7.92617 597.005 8.13008C 597.005 8.328131 596.861 8.466021 596.669 8.466021z" stroke="#000000" stroke-width="0.4" fill="none" /><path id="1267" transform="matrix(1 0 0 -1 0 834)" d="M599.657 6L599.657 6.16211C 599.111 6.20391 599.075 6.25195 599.075 6.68398L599.075 6.68398L599.075 9.810161C 598.7451 9.67813 598.3911 9.56406 598.007 9.49805L598.007 9.49805L598.007 9.36016L598.007 9.36016L598.295 9.34805C 598.559 9.33594 598.583 9.305861 598.583 8.99414L598.583 8.99414L598.583 6.68398C 598.583 6.25195 598.553 6.20391 598.007 6.16211L598.007 6.16211L598.007 6z" stroke="#000000" stroke-width="0.4" fill="none" /><path id="1268" transform="matrix(1 0 0 -1 0 834)" d="M602.705 6.83984C 602.525 6.46211 602.447 6.43789 602.123 6.43789L602.123 6.43789L601.001 6.43789L601.001 6.43789L601.853 7.33203C 602.405 7.91992 602.645 8.273829 602.645 8.79609C 602.645 9.42617 602.165 9.810161 601.637 9.810161C 601.289 9.810161 601.007 9.653911 600.827 9.45586L600.827 9.45586L600.485 8.96992L600.485 8.96992L600.617 8.85C 600.773 9.08398 601.025 9.40781 601.433 9.40781C 601.877 9.40781 602.1411 9.11406 602.1411 8.61016C 602.1411 8.09414 601.763 7.60195 601.3911 7.15781C 601.091 6.81016 600.755 6.46797 600.419 6.13789L600.419 6.13789L600.419 6L600.419 6L602.663 6C 602.735 6.26992 602.795 6.53398 602.873 6.78594z" stroke="#000000" stroke-width="0.4" fill="none" /><path id="1269" transform="matrix(1 0 0 -1 0 834)" d="M605.489 8.08203C 605.651 8.20195 605.897 8.33398 606.0891 8.33398C 606.527 8.33398 606.893 7.97383 606.893 7.33203C 606.893 6.65391 606.557 6.22188 606.053 6.22188C 605.8491 6.22188 605.621 6.31797 605.489 6.45586zM605.489 8.28008L605.489 8.75391C 605.207 8.63984 604.871 8.53789 604.619 8.49609L604.619 8.49609L604.619 8.351951C 604.991 8.30391 605.015 8.29219 605.015 7.90195L605.015 7.90195L605.015 5.18984C 605.015 4.79414 604.961 4.75781 604.577 4.72188L604.577 4.72188L604.577 4.56016L604.577 4.56016L605.999 4.56016L605.999 4.56016L605.999 4.72188C 605.531 4.76406 605.489 4.79414 605.489 5.25L605.489 5.25L605.489 6.03594C 605.567 5.99414 605.729 5.93398 605.903 5.92813C 606.683 6.07188 607.397 6.65391 607.397 7.56016C 607.397 8.153911 607.001 8.69414 606.335 8.69414C 606.263 8.69414 606.149 8.664061 606.041 8.60391z" stroke="#000000" stroke-width="0.4" fill="none" /><path id="1270" transform="matrix(1 0 0 -1 0 834)" d="M608.303 5.92813C 608.4951 5.92813 608.639 6.06602 608.639 6.27617C 608.639 6.46797 608.4951 6.61797 608.303 6.61797C 608.111 6.61797 607.967 6.46797 607.967 6.27617C 607.967 6.06602 608.111 5.92813 608.303 5.92813z" stroke="#000000" stroke-width="0.4" fill="none" /><path id="1271" transform="matrix(1 0 0 -1 0 834)" d="M615.125 6L615.125 6.15586C 614.783 6.19219 614.735 6.21602 614.735 6.61797L614.735 6.61797L614.735 7.77617C 614.735 8.36406 614.441 8.69414 613.973 8.69414C 613.805 8.69414 613.649 8.621881 613.523 8.53789C 613.373 8.44805 613.199 8.33398 613.025 8.20195C 612.905 8.51406 612.647 8.69414 612.359 8.69414C 612.167 8.69414 612.023 8.628131 611.867 8.53203C 611.687 8.417971 611.555 8.310161 611.429 8.226171L611.429 8.226171L611.429 8.712111C 611.165 8.59219 610.859 8.51406 610.595 8.466021L610.595 8.466021L610.595 8.328131C 610.9431 8.273829 610.961 8.24414 610.961 7.86016L610.961 7.86016L610.961 6.61797C 610.961 6.22813 610.907 6.19219 610.511 6.15586L610.511 6.15586L610.511 6L610.511 6L611.777 6L611.777 6L611.777 6.15586C 611.483 6.19219 611.435 6.22813 611.435 6.61797L611.435 6.61797L611.435 8.028131C 611.615 8.17813 611.8491 8.33984 612.0891 8.33984C 612.455 8.33984 612.611 8.09414 612.611 7.65L612.611 7.65L612.611 6.61797C 612.611 6.22188 612.557 6.19219 612.185 6.15586L612.185 6.15586L612.185 6L612.185 6L613.469 6L613.469 6L613.469 6.15586C 613.139 6.19219 613.085 6.22813 613.085 6.60586L613.085 6.60586L613.085 7.77617C 613.085 7.88984 613.079 7.95586 613.067 8.028131C 613.295 8.21992 613.523 8.33984 613.739 8.33984C 614.117 8.33984 614.267 8.069921 614.267 7.64414L614.267 7.64414L614.267 6.64219C 614.267 6.21602 614.201 6.19219 613.847 6.15586L613.847 6.15586L613.847 6z" stroke="#000000" stroke-width="0.4" fill="none" /><path id="1272" transform="matrix(1 0 0 -1 0 834)" d="M615.947 5.92813C 616.139 5.92813 616.283 6.06602 616.283 6.27617C 616.283 6.46797 616.139 6.61797 615.947 6.61797C 615.755 6.61797 615.611 6.46797 615.611 6.27617C 615.611 6.06602 615.755 5.92813 615.947 5.92813z" stroke="#000000" stroke-width="0.4" fill="none" /></g></g></svg>